<?xml version="1.0" encoding="UTF-8" standalone="no"?>
<!DOCTYPE svg PUBLIC "-//W3C//DTD SVG 1.1//EN"
 "http://www.w3.org/Graphics/SVG/1.1/DTD/svg11.dtd">
<!-- Generated by graphviz version 2.26.3 (20100126.1600)
 -->
<!-- Title: src/callback.h Pages: 1 -->
<svg width="207pt" height="146pt"
 viewBox="0.00 0.00 207.00 146.00" xmlns="http://www.w3.org/2000/svg" xmlns:xlink="http://www.w3.org/1999/xlink">
<g id="graph1" class="graph" transform="scale(1 1) rotate(0) translate(4 142)">
<title>src/callback.h</title>
<polygon fill="white" stroke="white" points="-4,5 -4,-142 204,-142 204,5 -4,5"/>
<!-- Node1 -->
<g id="node1" class="node"><title>Node1</title>
<polygon fill="#bfbfbf" stroke="black" points="58,-117 58,-137 134,-137 134,-117 58,-117"/>
<text text-anchor="middle" x="96" y="-124" font-family="FreeSans" font-size="10.00">src/callback.h</text>
</g>
<!-- Node2 -->
<g id="node3" class="node"><title>Node2</title>
<a xlink:href="callback_8cpp.html" target="_top" xlink:title="src/callback.cpp">
<polygon fill="white" stroke="black" points="0,-59 0,-79 86,-79 86,-59 0,-59"/>
<text text-anchor="middle" x="43" y="-66" font-family="FreeSans" font-size="10.00">src/callback.cpp</text>
</a>
</g>
<!-- Node1&#45;&gt;Node2 -->
<g id="edge2" class="edge"><title>Node1&#45;&gt;Node2</title>
<path fill="none" stroke="midnightblue" d="M79.8032,-109.275C70.8599,-99.4882 60.0622,-87.6718 52.483,-79.3776"/>
<polygon fill="midnightblue" stroke="midnightblue" points="77.4386,-111.876 86.7681,-116.897 82.6061,-107.154 77.4386,-111.876"/>
</g>
<!-- Node3 -->
<g id="node5" class="node"><title>Node3</title>
<a xlink:href="flameSolver_8h.html" target="_top" xlink:title="src/flameSolver.h">
<polygon fill="white" stroke="black" points="104,-59 104,-79 194,-79 194,-59 104,-59"/>
<text text-anchor="middle" x="149" y="-66" font-family="FreeSans" font-size="10.00">src/flameSolver.h</text>
</a>
</g>
<!-- Node1&#45;&gt;Node3 -->
<g id="edge4" class="edge"><title>Node1&#45;&gt;Node3</title>
<path fill="none" stroke="midnightblue" d="M112.197,-109.275C121.14,-99.4882 131.938,-87.6718 139.517,-79.3776"/>
<polygon fill="midnightblue" stroke="midnightblue" points="109.394,-107.154 105.232,-116.897 114.561,-111.876 109.394,-107.154"/>
</g>
<!-- Node4 -->
<g id="node7" class="node"><title>Node4</title>
<a xlink:href="flameSolver_8cpp.html" target="_top" xlink:title="src/flameSolver.cpp">
<polygon fill="white" stroke="black" points="98.5,-1 98.5,-21 199.5,-21 199.5,-1 98.5,-1"/>
<text text-anchor="middle" x="149" y="-8" font-family="FreeSans" font-size="10.00">src/flameSolver.cpp</text>
</a>
</g>
<!-- Node3&#45;&gt;Node4 -->
<g id="edge6" class="edge"><title>Node3&#45;&gt;Node4</title>
<path fill="none" stroke="midnightblue" d="M149,-48.8902C149,-39.6201 149,-29.0083 149,-21.3776"/>
<polygon fill="midnightblue" stroke="midnightblue" points="145.5,-48.8971 149,-58.8972 152.5,-48.8972 145.5,-48.8971"/>
</g>
</g>
</svg>
