<?xml version="1.0" encoding="UTF-8" standalone="no"?>
<!DOCTYPE svg PUBLIC "-//W3C//DTD SVG 1.1//EN"
 "http://www.w3.org/Graphics/SVG/1.1/DTD/svg11.dtd">
<!-- Generated by graphviz version 2.38.0 (20140413.2041)
 -->
<!-- Title: src/callback.h Pages: 1 -->
<svg width="297pt" height="196pt"
 viewBox="0.00 0.00 296.50 196.00" xmlns="http://www.w3.org/2000/svg" xmlns:xlink="http://www.w3.org/1999/xlink">
<g id="graph0" class="graph" transform="scale(1 1) rotate(0) translate(4 192)">
<title>src/callback.h</title>
<polygon fill="white" stroke="none" points="-4,4 -4,-192 292.5,-192 292.5,4 -4,4"/>
<!-- Node1 -->
<g id="node1" class="node"><title>Node1</title>
<polygon fill="#bfbfbf" stroke="black" points="76,-168.5 76,-187.5 152,-187.5 152,-168.5 76,-168.5"/>
<text text-anchor="middle" x="114" y="-175.5" font-family="FreeSans" font-size="10.00">src/callback.h</text>
</g>
<!-- Node2 -->
<g id="node2" class="node"><title>Node2</title>
<g id="a_node2"><a xlink:href="callback_8cpp.html" target="_top" xlink:title="src/callback.cpp">
<polygon fill="white" stroke="black" points="0,-112.5 0,-131.5 86,-131.5 86,-112.5 0,-112.5"/>
<text text-anchor="middle" x="43" y="-119.5" font-family="FreeSans" font-size="10.00">src/callback.cpp</text>
</a>
</g>
</g>
<!-- Node1&#45;&gt;Node2 -->
<g id="edge1" class="edge"><title>Node1&#45;&gt;Node2</title>
<path fill="none" stroke="midnightblue" d="M94.4103,-162.101C81.6324,-152.382 65.3873,-140.027 54.6149,-131.834"/>
<polygon fill="midnightblue" stroke="midnightblue" points="92.5143,-165.056 102.593,-168.324 96.7519,-159.484 92.5143,-165.056"/>
</g>
<!-- Node3 -->
<g id="node3" class="node"><title>Node3</title>
<g id="a_node3"><a xlink:href="sourceSystem_8h.html" target="_top" xlink:title="src/sourceSystem.h">
<polygon fill="white" stroke="black" points="142.5,-112.5 142.5,-131.5 243.5,-131.5 243.5,-112.5 142.5,-112.5"/>
<text text-anchor="middle" x="193" y="-119.5" font-family="FreeSans" font-size="10.00">src/sourceSystem.h</text>
</a>
</g>
</g>
<!-- Node1&#45;&gt;Node3 -->
<g id="edge2" class="edge"><title>Node1&#45;&gt;Node3</title>
<path fill="none" stroke="midnightblue" d="M135.034,-162.622C149.466,-152.757 168.141,-139.992 180.339,-131.655"/>
<polygon fill="midnightblue" stroke="midnightblue" points="132.973,-159.791 126.693,-168.324 136.923,-165.57 132.973,-159.791"/>
</g>
<!-- Node4 -->
<g id="node4" class="node"><title>Node4</title>
<g id="a_node4"><a xlink:href="flameSolver_8h.html" target="_top" xlink:title="src/flameSolver.h">
<polygon fill="white" stroke="black" points="69,-56.5 69,-75.5 159,-75.5 159,-56.5 69,-56.5"/>
<text text-anchor="middle" x="114" y="-63.5" font-family="FreeSans" font-size="10.00">src/flameSolver.h</text>
</a>
</g>
</g>
<!-- Node1&#45;&gt;Node4 -->
<g id="edge6" class="edge"><title>Node1&#45;&gt;Node4</title>
<path fill="none" stroke="midnightblue" d="M114,-158.348C114,-134.254 114,-93.3079 114,-75.5914"/>
<polygon fill="midnightblue" stroke="midnightblue" points="110.5,-158.368 114,-168.368 117.5,-158.369 110.5,-158.368"/>
</g>
<!-- Node3&#45;&gt;Node4 -->
<g id="edge3" class="edge"><title>Node3&#45;&gt;Node4</title>
<path fill="none" stroke="midnightblue" d="M171.966,-106.622C157.534,-96.7574 138.859,-83.9919 126.661,-75.6545"/>
<polygon fill="midnightblue" stroke="midnightblue" points="170.077,-109.57 180.307,-112.324 174.027,-103.791 170.077,-109.57"/>
</g>
<!-- Node6 -->
<g id="node6" class="node"><title>Node6</title>
<g id="a_node6"><a xlink:href="sourceSystem_8cpp.html" target="_top" xlink:title="src/sourceSystem.cpp">
<polygon fill="white" stroke="black" points="177.5,-56.5 177.5,-75.5 288.5,-75.5 288.5,-56.5 177.5,-56.5"/>
<text text-anchor="middle" x="233" y="-63.5" font-family="FreeSans" font-size="10.00">src/sourceSystem.cpp</text>
</a>
</g>
</g>
<!-- Node3&#45;&gt;Node6 -->
<g id="edge5" class="edge"><title>Node3&#45;&gt;Node6</title>
<path fill="none" stroke="midnightblue" d="M205.7,-103.855C212.626,-94.5048 220.906,-83.3265 226.518,-75.7511"/>
<polygon fill="midnightblue" stroke="midnightblue" points="202.745,-101.964 199.605,-112.083 208.37,-106.131 202.745,-101.964"/>
</g>
<!-- Node5 -->
<g id="node5" class="node"><title>Node5</title>
<g id="a_node5"><a xlink:href="flameSolver_8cpp.html" target="_top" xlink:title="src/flameSolver.cpp">
<polygon fill="white" stroke="black" points="63.5,-0.5 63.5,-19.5 164.5,-19.5 164.5,-0.5 63.5,-0.5"/>
<text text-anchor="middle" x="114" y="-7.5" font-family="FreeSans" font-size="10.00">src/flameSolver.cpp</text>
</a>
</g>
</g>
<!-- Node4&#45;&gt;Node5 -->
<g id="edge4" class="edge"><title>Node4&#45;&gt;Node5</title>
<path fill="none" stroke="midnightblue" d="M114,-45.8045C114,-36.9102 114,-26.7798 114,-19.7511"/>
<polygon fill="midnightblue" stroke="midnightblue" points="110.5,-46.083 114,-56.083 117.5,-46.083 110.5,-46.083"/>
</g>
</g>
</svg>
