<?xml version="1.0" encoding="UTF-8" standalone="no"?>
<!DOCTYPE svg PUBLIC "-//W3C//DTD SVG 1.1//EN"
 "http://www.w3.org/Graphics/SVG/1.1/DTD/svg11.dtd">
<!-- Generated by graphviz version 8.1.0 (20230707.2238)
 -->
<!-- Title: src/callback.cpp Pages: 1 -->
<svg width="697pt" height="256pt"
 viewBox="0.00 0.00 696.75 255.75" xmlns="http://www.w3.org/2000/svg" xmlns:xlink="http://www.w3.org/1999/xlink">
<g id="graph0" class="graph" transform="scale(1 1) rotate(0) translate(4 251.75)">
<title>src/callback.cpp</title>
<!-- Node1 -->
<g id="Node000001" class="node">
<title>Node1</title>
<g id="a_Node000001"><a xlink:title=" ">
<polygon fill="#999999" stroke="#666666" points="243.38,-247.75 149.38,-247.75 149.38,-227 243.38,-227 243.38,-247.75"/>
<text text-anchor="middle" x="196.38" y="-234.25" font-family="FreeSans" font-size="10.00">src/callback.cpp</text>
</a>
</g>
</g>
<!-- Node2 -->
<g id="Node000002" class="node">
<title>Node2</title>
<g id="a_Node000002"><a xlink:title=" ">
<polygon fill="#e0e0e0" stroke="#999999" points="185.75,-191 127,-191 127,-170.25 185.75,-170.25 185.75,-191"/>
<text text-anchor="middle" x="156.38" y="-177.5" font-family="FreeSans" font-size="10.00">Python.h</text>
</a>
</g>
</g>
<!-- Node1&#45;&gt;Node2 -->
<g id="edge1_Node000001_Node000002" class="edge">
<title>Node1&#45;&gt;Node2</title>
<g id="a_edge1_Node000001_Node000002"><a xlink:title=" ">
<path fill="none" stroke="#63b8ff" d="M189.22,-226.59C183.88,-219.27 176.41,-209.04 169.94,-200.19"/>
<polygon fill="#63b8ff" stroke="#63b8ff" points="172.19,-198.34 163.46,-192.33 166.54,-202.47 172.19,-198.34"/>
</a>
</g>
</g>
<!-- Node3 -->
<g id="Node000003" class="node">
<title>Node3</title>
<g id="a_Node000003"><a xlink:href="callback_8h.html" target="_top" xlink:title=" ">
<polygon fill="white" stroke="#666666" points="269.12,-191 203.62,-191 203.62,-170.25 269.12,-170.25 269.12,-191"/>
<text text-anchor="middle" x="236.38" y="-177.5" font-family="FreeSans" font-size="10.00">callback.h</text>
</a>
</g>
</g>
<!-- Node1&#45;&gt;Node3 -->
<g id="edge2_Node000001_Node000003" class="edge">
<title>Node1&#45;&gt;Node3</title>
<g id="a_edge2_Node000001_Node000003"><a xlink:title=" ">
<path fill="none" stroke="#63b8ff" d="M203.53,-226.59C208.87,-219.27 216.34,-209.04 222.81,-200.19"/>
<polygon fill="#63b8ff" stroke="#63b8ff" points="226.21,-202.47 229.29,-192.33 220.56,-198.34 226.21,-202.47"/>
</a>
</g>
</g>
<!-- Node4 -->
<g id="Node000004" class="node">
<title>Node4</title>
<g id="a_Node000004"><a xlink:title=" ">
<polygon fill="#e0e0e0" stroke="#999999" points="225.38,-134.25 161.38,-134.25 161.38,-113.5 225.38,-113.5 225.38,-134.25"/>
<text text-anchor="middle" x="193.38" y="-120.75" font-family="FreeSans" font-size="10.00">stdexcept</text>
</a>
</g>
</g>
<!-- Node3&#45;&gt;Node4 -->
<g id="edge3_Node000003_Node000004" class="edge">
<title>Node3&#45;&gt;Node4</title>
<g id="a_edge3_Node000003_Node000004"><a xlink:title=" ">
<path fill="none" stroke="#63b8ff" d="M228.69,-169.84C222.88,-162.44 214.74,-152.07 207.73,-143.16"/>
<polygon fill="#63b8ff" stroke="#63b8ff" points="209.93,-141.28 201,-135.58 204.42,-145.6 209.93,-141.28"/>
</a>
</g>
</g>
<!-- Node5 -->
<g id="Node000005" class="node">
<title>Node5</title>
<g id="a_Node000005"><a xlink:href="mathUtils_8h.html" target="_top" xlink:title=" ">
<polygon fill="white" stroke="#666666" points="316.88,-134.25 243.88,-134.25 243.88,-113.5 316.88,-113.5 316.88,-134.25"/>
<text text-anchor="middle" x="280.38" y="-120.75" font-family="FreeSans" font-size="10.00">mathUtils.h</text>
</a>
</g>
</g>
<!-- Node3&#45;&gt;Node5 -->
<g id="edge4_Node000003_Node000005" class="edge">
<title>Node3&#45;&gt;Node5</title>
<g id="a_edge4_Node000003_Node000005"><a xlink:title=" ">
<path fill="none" stroke="#63b8ff" d="M244.24,-169.84C250.25,-162.36 258.69,-151.86 265.91,-142.88"/>
<polygon fill="#63b8ff" stroke="#63b8ff" points="269.04,-145.57 272.58,-135.58 263.58,-141.18 269.04,-145.57"/>
</a>
</g>
</g>
<!-- Node6 -->
<g id="Node000006" class="node">
<title>Node6</title>
<g id="a_Node000006"><a xlink:title=" ">
<polygon fill="#e0e0e0" stroke="#999999" points="46.75,-77.5 0,-77.5 0,-56.75 46.75,-56.75 46.75,-77.5"/>
<text text-anchor="middle" x="23.38" y="-64" font-family="FreeSans" font-size="10.00">vector</text>
</a>
</g>
</g>
<!-- Node5&#45;&gt;Node6 -->
<g id="edge5_Node000005_Node000006" class="edge">
<title>Node5&#45;&gt;Node6</title>
<g id="a_edge5_Node000005_Node000006"><a xlink:title=" ">
<path fill="none" stroke="#63b8ff" d="M243.72,-115.4C240.56,-114.76 237.41,-114.12 234.38,-113.5 158.52,-98.1 136.59,-96.64 57.57,-77.64"/>
<polygon fill="#63b8ff" stroke="#63b8ff" points="58.65,-74.06 48.11,-75.1 57,-80.86 58.65,-74.06"/>
</a>
</g>
</g>
<!-- Node7 -->
<g id="Node000007" class="node">
<title>Node7</title>
<g id="a_Node000007"><a xlink:title=" ">
<polygon fill="#e0e0e0" stroke="#999999" points="111.75,-77.5 65,-77.5 65,-56.75 111.75,-56.75 111.75,-77.5"/>
<text text-anchor="middle" x="88.38" y="-64" font-family="FreeSans" font-size="10.00">cmath</text>
</a>
</g>
</g>
<!-- Node5&#45;&gt;Node7 -->
<g id="edge6_Node000005_Node000007" class="edge">
<title>Node5&#45;&gt;Node7</title>
<g id="a_edge6_Node000005_Node000007"><a xlink:title=" ">
<path fill="none" stroke="#63b8ff" d="M246.05,-113.09C211.05,-103.11 157.1,-87.72 122.26,-77.79"/>
<polygon fill="#63b8ff" stroke="#63b8ff" points="123.68,-74.27 113.11,-74.89 121.76,-81 123.68,-74.27"/>
</a>
</g>
</g>
<!-- Node8 -->
<g id="Node000008" class="node">
<title>Node8</title>
<g id="a_Node000008"><a xlink:title=" ">
<polygon fill="#e0e0e0" stroke="#999999" points="257.12,-20.75 197.62,-20.75 197.62,0 257.12,0 257.12,-20.75"/>
<text text-anchor="middle" x="227.38" y="-7.25" font-family="FreeSans" font-size="10.00">iostream</text>
</a>
</g>
</g>
<!-- Node5&#45;&gt;Node8 -->
<g id="edge7_Node000005_Node000008" class="edge">
<title>Node5&#45;&gt;Node8</title>
<g id="a_edge7_Node000005_Node000008"><a xlink:title=" ">
<path fill="none" stroke="#63b8ff" d="M243.68,-114.14C211.54,-105.66 168.43,-91.97 158.38,-77.5 144.31,-57.26 169.8,-38.25 193.67,-25.85"/>
<polygon fill="#63b8ff" stroke="#63b8ff" points="194.9,-28.66 202.34,-21.12 191.82,-22.37 194.9,-28.66"/>
</a>
</g>
</g>
<!-- Node9 -->
<g id="Node000009" class="node">
<title>Node9</title>
<g id="a_Node000009"><a xlink:title=" ">
<polygon fill="#e0e0e0" stroke="#999999" points="223.25,-77.5 167.5,-77.5 167.5,-56.75 223.25,-56.75 223.25,-77.5"/>
<text text-anchor="middle" x="195.38" y="-64" font-family="FreeSans" font-size="10.00">sstream</text>
</a>
</g>
</g>
<!-- Node5&#45;&gt;Node9 -->
<g id="edge8_Node000005_Node000009" class="edge">
<title>Node5&#45;&gt;Node9</title>
<g id="a_edge8_Node000005_Node000009"><a xlink:title=" ">
<path fill="none" stroke="#63b8ff" d="M265.18,-113.09C252.49,-104.91 234.16,-93.11 219.47,-83.65"/>
<polygon fill="#63b8ff" stroke="#63b8ff" points="221.74,-80.3 211.44,-77.83 217.95,-86.19 221.74,-80.3"/>
</a>
</g>
</g>
<!-- Node10 -->
<g id="Node000010" class="node">
<title>Node10</title>
<g id="a_Node000010"><a xlink:title=" ">
<polygon fill="#e0e0e0" stroke="#999999" points="354.25,-20.75 310.5,-20.75 310.5,0 354.25,0 354.25,-20.75"/>
<text text-anchor="middle" x="332.38" y="-7.25" font-family="FreeSans" font-size="10.00">string</text>
</a>
</g>
</g>
<!-- Node5&#45;&gt;Node10 -->
<g id="edge9_Node000005_Node000010" class="edge">
<title>Node5&#45;&gt;Node10</title>
<g id="a_edge9_Node000005_Node000010"><a xlink:title=" ">
<path fill="none" stroke="#63b8ff" d="M317.32,-117.21C340.85,-111.49 369.59,-100.08 384.38,-77.5 396.21,-59.42 376.99,-40.14 358.65,-27.1"/>
<polygon fill="#63b8ff" stroke="#63b8ff" points="360.85,-23.69 350.59,-21.05 356.97,-29.51 360.85,-23.69"/>
</a>
</g>
</g>
<!-- Node11 -->
<g id="Node000011" class="node">
<title>Node11</title>
<g id="a_Node000011"><a xlink:title=" ">
<polygon fill="#e0e0e0" stroke="#999999" points="375.25,-77.5 337.5,-77.5 337.5,-56.75 375.25,-56.75 375.25,-77.5"/>
<text text-anchor="middle" x="356.38" y="-64" font-family="FreeSans" font-size="10.00">map</text>
</a>
</g>
</g>
<!-- Node5&#45;&gt;Node11 -->
<g id="edge10_Node000005_Node000011" class="edge">
<title>Node5&#45;&gt;Node11</title>
<g id="a_edge10_Node000005_Node000011"><a xlink:title=" ">
<path fill="none" stroke="#63b8ff" d="M293.96,-113.09C305.09,-105.07 321.07,-93.56 334.08,-84.19"/>
<polygon fill="#63b8ff" stroke="#63b8ff" points="335.84,-86.51 341.91,-77.83 331.75,-80.83 335.84,-86.51"/>
</a>
</g>
</g>
<!-- Node12 -->
<g id="Node000012" class="node">
<title>Node12</title>
<g id="a_Node000012"><a xlink:href="debugUtils_8h.html" target="_top" xlink:title=" ">
<polygon fill="#fff0f0" stroke="red" points="319.12,-77.5 241.62,-77.5 241.62,-56.75 319.12,-56.75 319.12,-77.5"/>
<text text-anchor="middle" x="280.38" y="-64" font-family="FreeSans" font-size="10.00">debugUtils.h</text>
</a>
</g>
</g>
<!-- Node5&#45;&gt;Node12 -->
<g id="edge11_Node000005_Node000012" class="edge">
<title>Node5&#45;&gt;Node12</title>
<g id="a_edge11_Node000005_Node000012"><a xlink:title=" ">
<path fill="none" stroke="#63b8ff" d="M280.38,-113.09C280.38,-106.31 280.38,-97.05 280.38,-88.69"/>
<polygon fill="#63b8ff" stroke="#63b8ff" points="283.88,-88.83 280.38,-78.83 276.88,-88.83 283.88,-88.83"/>
</a>
</g>
</g>
<!-- Node16 -->
<g id="Node000016" class="node">
<title>Node16</title>
<g id="a_Node000016"><a xlink:title=" ">
<polygon fill="#e0e0e0" stroke="#999999" points="557.5,-77.5 431.25,-77.5 431.25,-56.75 557.5,-56.75 557.5,-77.5"/>
<text text-anchor="middle" x="494.38" y="-64" font-family="FreeSans" font-size="10.00">cantera/base/ct_defs.h</text>
</a>
</g>
</g>
<!-- Node5&#45;&gt;Node16 -->
<g id="edge14_Node000005_Node000016" class="edge">
<title>Node5&#45;&gt;Node16</title>
<g id="a_edge14_Node000005_Node000016"><a xlink:title=" ">
<path fill="none" stroke="#63b8ff" d="M317.16,-113.46C352.55,-104.41 406.29,-90.66 445.32,-80.68"/>
<polygon fill="#63b8ff" stroke="#63b8ff" points="446.08,-83.84 454.9,-77.97 444.35,-77.06 446.08,-83.84"/>
</a>
</g>
</g>
<!-- Node17 -->
<g id="Node000017" class="node">
<title>Node17</title>
<g id="a_Node000017"><a xlink:title=" ">
<polygon fill="#e0e0e0" stroke="#999999" points="688.75,-77.5 576,-77.5 576,-56.75 688.75,-56.75 688.75,-77.5"/>
<text text-anchor="middle" x="632.38" y="-64" font-family="FreeSans" font-size="10.00">eigen3/Eigen/Dense</text>
</a>
</g>
</g>
<!-- Node5&#45;&gt;Node17 -->
<g id="edge15_Node000005_Node000017" class="edge">
<title>Node5&#45;&gt;Node17</title>
<g id="a_edge15_Node000005_Node000017"><a xlink:title=" ">
<path fill="none" stroke="#63b8ff" d="M317.05,-117.17C375.62,-108.06 491.18,-90.09 564.96,-78.61"/>
<polygon fill="#63b8ff" stroke="#63b8ff" points="565.19,-81.96 574.53,-76.97 564.11,-75.04 565.19,-81.96"/>
</a>
</g>
</g>
<!-- Node12&#45;&gt;Node8 -->
<g id="edge13_Node000012_Node000008" class="edge">
<title>Node12&#45;&gt;Node8</title>
<g id="a_edge13_Node000012_Node000008"><a xlink:title=" ">
<path fill="none" stroke="#63b8ff" d="M270.9,-56.34C263.51,-48.71 253.07,-37.92 244.26,-28.82"/>
<polygon fill="#63b8ff" stroke="#63b8ff" points="247.24,-26.83 237.77,-22.08 242.21,-31.7 247.24,-26.83"/>
</a>
</g>
</g>
<!-- Node12&#45;&gt;Node10 -->
<g id="edge12_Node000012_Node000010" class="edge">
<title>Node12&#45;&gt;Node10</title>
<g id="a_edge12_Node000012_Node000010"><a xlink:title=" ">
<path fill="none" stroke="#63b8ff" d="M289.67,-56.34C296.92,-48.71 307.17,-37.92 315.81,-28.82"/>
<polygon fill="#63b8ff" stroke="#63b8ff" points="317.81,-31.74 322.16,-22.08 312.73,-26.92 317.81,-31.74"/>
</a>
</g>
</g>
</g>
</svg>
