<?xml version="1.0" encoding="UTF-8" standalone="no"?>
<!DOCTYPE svg PUBLIC "-//W3C//DTD SVG 1.1//EN"
 "http://www.w3.org/Graphics/SVG/1.1/DTD/svg11.dtd">
<!-- Generated by graphviz version 2.38.0 (20140413.2041)
 -->
<!-- Title: src/callback.cpp Pages: 1 -->
<svg width="488pt" height="252pt"
 viewBox="0.00 0.00 488.00 252.00" xmlns="http://www.w3.org/2000/svg" xmlns:xlink="http://www.w3.org/1999/xlink">
<g id="graph0" class="graph" transform="scale(1 1) rotate(0) translate(4 248)">
<title>src/callback.cpp</title>
<polygon fill="white" stroke="none" points="-4,4 -4,-248 484,-248 484,4 -4,4"/>
<!-- Node1 -->
<g id="node1" class="node"><title>Node1</title>
<polygon fill="#bfbfbf" stroke="black" points="104.5,-224.5 104.5,-243.5 190.5,-243.5 190.5,-224.5 104.5,-224.5"/>
<text text-anchor="middle" x="147.5" y="-231.5" font-family="FreeSans" font-size="10.00">src/callback.cpp</text>
</g>
<!-- Node2 -->
<g id="node2" class="node"><title>Node2</title>
<polygon fill="white" stroke="#bfbfbf" points="83.5,-168.5 83.5,-187.5 137.5,-187.5 137.5,-168.5 83.5,-168.5"/>
<text text-anchor="middle" x="110.5" y="-175.5" font-family="FreeSans" font-size="10.00">Python.h</text>
</g>
<!-- Node1&#45;&gt;Node2 -->
<g id="edge1" class="edge"><title>Node1&#45;&gt;Node2</title>
<path fill="none" stroke="midnightblue" d="M141.39,-224.083C136.218,-216.534 128.654,-205.495 122.306,-196.23"/>
<polygon fill="midnightblue" stroke="midnightblue" points="125.036,-194.022 116.496,-187.751 119.261,-197.979 125.036,-194.022"/>
</g>
<!-- Node3 -->
<g id="node3" class="node"><title>Node3</title>
<g id="a_node3"><a xlink:href="callback_8h.html" target="_top" xlink:title="callback.h">
<polygon fill="white" stroke="black" points="155.5,-168.5 155.5,-187.5 215.5,-187.5 215.5,-168.5 155.5,-168.5"/>
<text text-anchor="middle" x="185.5" y="-175.5" font-family="FreeSans" font-size="10.00">callback.h</text>
</a>
</g>
</g>
<!-- Node1&#45;&gt;Node3 -->
<g id="edge2" class="edge"><title>Node1&#45;&gt;Node3</title>
<path fill="none" stroke="midnightblue" d="M153.775,-224.083C159.142,-216.455 167.018,-205.264 173.579,-195.941"/>
<polygon fill="midnightblue" stroke="midnightblue" points="176.449,-197.943 179.342,-187.751 170.725,-193.915 176.449,-197.943"/>
</g>
<!-- Node4 -->
<g id="node4" class="node"><title>Node4</title>
<polygon fill="white" stroke="#bfbfbf" points="116.5,-112.5 116.5,-131.5 174.5,-131.5 174.5,-112.5 116.5,-112.5"/>
<text text-anchor="middle" x="145.5" y="-119.5" font-family="FreeSans" font-size="10.00">stdexcept</text>
</g>
<!-- Node3&#45;&gt;Node4 -->
<g id="edge3" class="edge"><title>Node3&#45;&gt;Node4</title>
<path fill="none" stroke="midnightblue" d="M178.895,-168.083C173.245,-160.455 164.955,-149.264 158.049,-139.941"/>
<polygon fill="midnightblue" stroke="midnightblue" points="160.747,-137.703 151.982,-131.751 155.122,-141.87 160.747,-137.703"/>
</g>
<!-- Node5 -->
<g id="node5" class="node"><title>Node5</title>
<g id="a_node5"><a xlink:href="mathUtils_8h.html" target="_top" xlink:title="mathUtils.h">
<polygon fill="white" stroke="black" points="193,-112.5 193,-131.5 258,-131.5 258,-112.5 193,-112.5"/>
<text text-anchor="middle" x="225.5" y="-119.5" font-family="FreeSans" font-size="10.00">mathUtils.h</text>
</a>
</g>
</g>
<!-- Node3&#45;&gt;Node5 -->
<g id="edge4" class="edge"><title>Node3&#45;&gt;Node5</title>
<path fill="none" stroke="midnightblue" d="M192.105,-168.083C197.755,-160.455 206.045,-149.264 212.951,-139.941"/>
<polygon fill="midnightblue" stroke="midnightblue" points="215.878,-141.87 219.018,-131.751 210.253,-137.703 215.878,-141.87"/>
</g>
<!-- Node6 -->
<g id="node6" class="node"><title>Node6</title>
<polygon fill="white" stroke="#bfbfbf" points="0,-56.5 0,-75.5 43,-75.5 43,-56.5 0,-56.5"/>
<text text-anchor="middle" x="21.5" y="-63.5" font-family="FreeSans" font-size="10.00">vector</text>
</g>
<!-- Node5&#45;&gt;Node6 -->
<g id="edge5" class="edge"><title>Node5&#45;&gt;Node6</title>
<path fill="none" stroke="midnightblue" d="M192.904,-112.812C160.046,-104.494 107.637,-91.0529 53.0168,-76.0839"/>
<polygon fill="midnightblue" stroke="midnightblue" points="53.7284,-72.6497 43.1582,-73.3719 51.8717,-79.399 53.7284,-72.6497"/>
</g>
<!-- Node7 -->
<g id="node7" class="node"><title>Node7</title>
<polygon fill="white" stroke="#bfbfbf" points="61.5,-56.5 61.5,-75.5 105.5,-75.5 105.5,-56.5 61.5,-56.5"/>
<text text-anchor="middle" x="83.5" y="-63.5" font-family="FreeSans" font-size="10.00">cmath</text>
</g>
<!-- Node5&#45;&gt;Node7 -->
<g id="edge6" class="edge"><title>Node5&#45;&gt;Node7</title>
<path fill="none" stroke="midnightblue" d="M203,-112.444C179.423,-103.478 142.178,-89.314 115.536,-79.1827"/>
<polygon fill="midnightblue" stroke="midnightblue" points="116.486,-75.7995 105.895,-75.5164 113.998,-82.3424 116.486,-75.7995"/>
</g>
<!-- Node8 -->
<g id="node8" class="node"><title>Node8</title>
<polygon fill="white" stroke="#bfbfbf" points="140,-0.5 140,-19.5 193,-19.5 193,-0.5 140,-0.5"/>
<text text-anchor="middle" x="166.5" y="-7.5" font-family="FreeSans" font-size="10.00">iostream</text>
</g>
<!-- Node5&#45;&gt;Node8 -->
<g id="edge7" class="edge"><title>Node5&#45;&gt;Node8</title>
<path fill="none" stroke="midnightblue" d="M199.289,-112.414C182.65,-105.445 162.443,-93.8092 152.5,-76 144.339,-61.3822 149.918,-42.4651 156.289,-28.8118"/>
<polygon fill="midnightblue" stroke="midnightblue" points="159.593,-30.0426 161.1,-19.5554 153.382,-26.8143 159.593,-30.0426"/>
</g>
<!-- Node9 -->
<g id="node9" class="node"><title>Node9</title>
<polygon fill="white" stroke="#bfbfbf" points="161.5,-56.5 161.5,-75.5 211.5,-75.5 211.5,-56.5 161.5,-56.5"/>
<text text-anchor="middle" x="186.5" y="-63.5" font-family="FreeSans" font-size="10.00">sstream</text>
</g>
<!-- Node5&#45;&gt;Node9 -->
<g id="edge8" class="edge"><title>Node5&#45;&gt;Node9</title>
<path fill="none" stroke="midnightblue" d="M219.06,-112.083C213.551,-104.455 205.469,-93.2645 198.735,-83.9408"/>
<polygon fill="midnightblue" stroke="midnightblue" points="201.513,-81.8087 192.82,-75.7511 195.838,-85.9071 201.513,-81.8087"/>
</g>
<!-- Node10 -->
<g id="node10" class="node"><title>Node10</title>
<polygon fill="white" stroke="#bfbfbf" points="302.5,-0.5 302.5,-19.5 342.5,-19.5 342.5,-0.5 302.5,-0.5"/>
<text text-anchor="middle" x="322.5" y="-7.5" font-family="FreeSans" font-size="10.00">string</text>
</g>
<!-- Node5&#45;&gt;Node10 -->
<g id="edge9" class="edge"><title>Node5&#45;&gt;Node10</title>
<path fill="none" stroke="midnightblue" d="M258.165,-120.315C290.137,-117.688 337.315,-108.167 360.5,-76 372.172,-59.8053 356.395,-39.8005 341.764,-26.2948"/>
<polygon fill="midnightblue" stroke="midnightblue" points="343.789,-23.4189 333.936,-19.5258 339.211,-28.714 343.789,-23.4189"/>
</g>
<!-- Node11 -->
<g id="node11" class="node"><title>Node11</title>
<polygon fill="white" stroke="#bfbfbf" points="317,-56.5 317,-75.5 352,-75.5 352,-56.5 317,-56.5"/>
<text text-anchor="middle" x="334.5" y="-63.5" font-family="FreeSans" font-size="10.00">map</text>
</g>
<!-- Node5&#45;&gt;Node11 -->
<g id="edge10" class="edge"><title>Node5&#45;&gt;Node11</title>
<path fill="none" stroke="midnightblue" d="M243.013,-112.324C260.572,-103.625 287.831,-90.1202 308.031,-80.113"/>
<polygon fill="midnightblue" stroke="midnightblue" points="309.624,-83.23 317.031,-75.6545 306.516,-76.9575 309.624,-83.23"/>
</g>
<!-- Node12 -->
<g id="node12" class="node"><title>Node12</title>
<g id="a_node12"><a xlink:href="debugUtils_8h.html" target="_top" xlink:title="debugUtils.h">
<polygon fill="white" stroke="red" points="230,-56.5 230,-75.5 299,-75.5 299,-56.5 230,-56.5"/>
<text text-anchor="middle" x="264.5" y="-63.5" font-family="FreeSans" font-size="10.00">debugUtils.h</text>
</a>
</g>
</g>
<!-- Node5&#45;&gt;Node12 -->
<g id="edge11" class="edge"><title>Node5&#45;&gt;Node12</title>
<path fill="none" stroke="midnightblue" d="M231.94,-112.083C237.449,-104.455 245.531,-93.2645 252.265,-83.9408"/>
<polygon fill="midnightblue" stroke="midnightblue" points="255.162,-85.9071 258.18,-75.7511 249.487,-81.8087 255.162,-85.9071"/>
</g>
<!-- Node13 -->
<g id="node13" class="node"><title>Node13</title>
<polygon fill="white" stroke="#bfbfbf" points="409,-56.5 409,-75.5 480,-75.5 480,-56.5 409,-56.5"/>
<text text-anchor="middle" x="444.5" y="-63.5" font-family="FreeSans" font-size="10.00">Eigen/Dense</text>
</g>
<!-- Node5&#45;&gt;Node13 -->
<g id="edge14" class="edge"><title>Node5&#45;&gt;Node13</title>
<path fill="none" stroke="midnightblue" d="M258.287,-112.916C295.876,-103.647 357.705,-88.4015 399.714,-78.043"/>
<polygon fill="midnightblue" stroke="midnightblue" points="400.806,-81.3789 409.677,-75.5865 399.13,-74.5824 400.806,-81.3789"/>
</g>
<!-- Node12&#45;&gt;Node8 -->
<g id="edge13" class="edge"><title>Node12&#45;&gt;Node8</title>
<path fill="none" stroke="midnightblue" d="M248.755,-56.324C233.181,-47.7428 209.123,-34.486 191.041,-24.5224"/>
<polygon fill="midnightblue" stroke="midnightblue" points="192.654,-21.4152 182.206,-19.6545 189.276,-27.546 192.654,-21.4152"/>
</g>
<!-- Node12&#45;&gt;Node10 -->
<g id="edge12" class="edge"><title>Node12&#45;&gt;Node10</title>
<path fill="none" stroke="midnightblue" d="M273.819,-56.324C282.393,-48.3414 295.312,-36.3128 305.688,-26.6529"/>
<polygon fill="midnightblue" stroke="midnightblue" points="308.078,-29.2098 313.012,-19.8339 303.308,-24.0865 308.078,-29.2098"/>
</g>
</g>
</svg>
