<?xml version="1.0" encoding="UTF-8" standalone="no"?>
<!DOCTYPE svg PUBLIC "-//W3C//DTD SVG 1.1//EN"
 "http://www.w3.org/Graphics/SVG/1.1/DTD/svg11.dtd">
<!-- Generated by graphviz version 2.38.0 (20140413.2041)
 -->
<!-- Title: src/callback.h Pages: 1 -->
<svg width="488pt" height="196pt"
 viewBox="0.00 0.00 488.00 196.00" xmlns="http://www.w3.org/2000/svg" xmlns:xlink="http://www.w3.org/1999/xlink">
<g id="graph0" class="graph" transform="scale(1 1) rotate(0) translate(4 192)">
<title>src/callback.h</title>
<polygon fill="white" stroke="none" points="-4,4 -4,-192 484,-192 484,4 -4,4"/>
<!-- Node1 -->
<g id="node1" class="node"><title>Node1</title>
<polygon fill="#bfbfbf" stroke="black" points="125.5,-168.5 125.5,-187.5 201.5,-187.5 201.5,-168.5 125.5,-168.5"/>
<text text-anchor="middle" x="163.5" y="-175.5" font-family="FreeSans" font-size="10.00">src/callback.h</text>
</g>
<!-- Node2 -->
<g id="node2" class="node"><title>Node2</title>
<polygon fill="white" stroke="#bfbfbf" points="94.5,-112.5 94.5,-131.5 152.5,-131.5 152.5,-112.5 94.5,-112.5"/>
<text text-anchor="middle" x="123.5" y="-119.5" font-family="FreeSans" font-size="10.00">stdexcept</text>
</g>
<!-- Node1&#45;&gt;Node2 -->
<g id="edge1" class="edge"><title>Node1&#45;&gt;Node2</title>
<path fill="none" stroke="midnightblue" d="M156.895,-168.083C151.245,-160.455 142.955,-149.264 136.049,-139.941"/>
<polygon fill="midnightblue" stroke="midnightblue" points="138.747,-137.703 129.982,-131.751 133.122,-141.87 138.747,-137.703"/>
</g>
<!-- Node3 -->
<g id="node3" class="node"><title>Node3</title>
<g id="a_node3"><a xlink:href="mathUtils_8h.html" target="_top" xlink:title="mathUtils.h">
<polygon fill="white" stroke="black" points="171,-112.5 171,-131.5 236,-131.5 236,-112.5 171,-112.5"/>
<text text-anchor="middle" x="203.5" y="-119.5" font-family="FreeSans" font-size="10.00">mathUtils.h</text>
</a>
</g>
</g>
<!-- Node1&#45;&gt;Node3 -->
<g id="edge2" class="edge"><title>Node1&#45;&gt;Node3</title>
<path fill="none" stroke="midnightblue" d="M170.105,-168.083C175.755,-160.455 184.045,-149.264 190.951,-139.941"/>
<polygon fill="midnightblue" stroke="midnightblue" points="193.878,-141.87 197.018,-131.751 188.253,-137.703 193.878,-141.87"/>
</g>
<!-- Node4 -->
<g id="node4" class="node"><title>Node4</title>
<polygon fill="white" stroke="#bfbfbf" points="0,-56.5 0,-75.5 43,-75.5 43,-56.5 0,-56.5"/>
<text text-anchor="middle" x="21.5" y="-63.5" font-family="FreeSans" font-size="10.00">vector</text>
</g>
<!-- Node3&#45;&gt;Node4 -->
<g id="edge3" class="edge"><title>Node3&#45;&gt;Node4</title>
<path fill="none" stroke="midnightblue" d="M174.662,-112.444C141.507,-102.606 87.2635,-86.5122 53.0192,-76.3518"/>
<polygon fill="midnightblue" stroke="midnightblue" points="53.6617,-72.8917 43.0791,-73.4026 51.6705,-79.6026 53.6617,-72.8917"/>
</g>
<!-- Node5 -->
<g id="node5" class="node"><title>Node5</title>
<polygon fill="white" stroke="#bfbfbf" points="61.5,-56.5 61.5,-75.5 105.5,-75.5 105.5,-56.5 61.5,-56.5"/>
<text text-anchor="middle" x="83.5" y="-63.5" font-family="FreeSans" font-size="10.00">cmath</text>
</g>
<!-- Node3&#45;&gt;Node5 -->
<g id="edge4" class="edge"><title>Node3&#45;&gt;Node5</title>
<path fill="none" stroke="midnightblue" d="M184.486,-112.444C164.912,-103.636 134.192,-89.8116 111.771,-79.722"/>
<polygon fill="midnightblue" stroke="midnightblue" points="112.981,-76.4284 102.425,-75.5164 110.108,-82.8119 112.981,-76.4284"/>
</g>
<!-- Node6 -->
<g id="node6" class="node"><title>Node6</title>
<polygon fill="white" stroke="#bfbfbf" points="80,-0.5 80,-19.5 133,-19.5 133,-0.5 80,-0.5"/>
<text text-anchor="middle" x="106.5" y="-7.5" font-family="FreeSans" font-size="10.00">iostream</text>
</g>
<!-- Node3&#45;&gt;Node6 -->
<g id="edge5" class="edge"><title>Node3&#45;&gt;Node6</title>
<path fill="none" stroke="midnightblue" d="M195.889,-112.368C179.739,-94.0547 141.816,-51.0489 120.929,-27.3624"/>
<polygon fill="midnightblue" stroke="midnightblue" points="123.315,-24.7769 114.076,-19.5914 118.065,-29.4067 123.315,-24.7769"/>
</g>
<!-- Node7 -->
<g id="node7" class="node"><title>Node7</title>
<polygon fill="white" stroke="#bfbfbf" points="287.5,-56.5 287.5,-75.5 337.5,-75.5 337.5,-56.5 287.5,-56.5"/>
<text text-anchor="middle" x="312.5" y="-63.5" font-family="FreeSans" font-size="10.00">sstream</text>
</g>
<!-- Node3&#45;&gt;Node7 -->
<g id="edge6" class="edge"><title>Node3&#45;&gt;Node7</title>
<path fill="none" stroke="midnightblue" d="M221.013,-112.324C238.572,-103.625 265.831,-90.1202 286.031,-80.113"/>
<polygon fill="midnightblue" stroke="midnightblue" points="287.624,-83.23 295.031,-75.6545 284.516,-76.9575 287.624,-83.23"/>
</g>
<!-- Node8 -->
<g id="node8" class="node"><title>Node8</title>
<polygon fill="white" stroke="#bfbfbf" points="151.5,-0.5 151.5,-19.5 191.5,-19.5 191.5,-0.5 151.5,-0.5"/>
<text text-anchor="middle" x="171.5" y="-7.5" font-family="FreeSans" font-size="10.00">string</text>
</g>
<!-- Node3&#45;&gt;Node8 -->
<g id="edge7" class="edge"><title>Node3&#45;&gt;Node8</title>
<path fill="none" stroke="midnightblue" d="M200.989,-112.368C195.802,-94.5366 183.804,-53.2953 176.815,-29.2717"/>
<polygon fill="midnightblue" stroke="midnightblue" points="180.153,-28.2157 173.999,-19.5914 173.432,-30.1711 180.153,-28.2157"/>
</g>
<!-- Node9 -->
<g id="node9" class="node"><title>Node9</title>
<polygon fill="white" stroke="#bfbfbf" points="356,-56.5 356,-75.5 391,-75.5 391,-56.5 356,-56.5"/>
<text text-anchor="middle" x="373.5" y="-63.5" font-family="FreeSans" font-size="10.00">map</text>
</g>
<!-- Node3&#45;&gt;Node9 -->
<g id="edge8" class="edge"><title>Node3&#45;&gt;Node9</title>
<path fill="none" stroke="midnightblue" d="M231.225,-112.427C258.152,-104.068 300.422,-90.8588 346.019,-76.1169"/>
<polygon fill="midnightblue" stroke="midnightblue" points="347.361,-79.3612 355.795,-72.949 345.203,-72.7021 347.361,-79.3612"/>
</g>
<!-- Node10 -->
<g id="node10" class="node"><title>Node10</title>
<g id="a_node10"><a xlink:href="debugUtils_8h.html" target="_top" xlink:title="debugUtils.h">
<polygon fill="white" stroke="black" points="200,-56.5 200,-75.5 269,-75.5 269,-56.5 200,-56.5"/>
<text text-anchor="middle" x="234.5" y="-63.5" font-family="FreeSans" font-size="10.00">debugUtils.h</text>
</a>
</g>
</g>
<!-- Node3&#45;&gt;Node10 -->
<g id="edge9" class="edge"><title>Node3&#45;&gt;Node10</title>
<path fill="none" stroke="midnightblue" d="M208.619,-112.083C212.908,-104.613 219.158,-93.7244 224.442,-84.5199"/>
<polygon fill="midnightblue" stroke="midnightblue" points="227.533,-86.1662 229.476,-75.7511 221.462,-82.6811 227.533,-86.1662"/>
</g>
<!-- Node14 -->
<g id="node14" class="node"><title>Node14</title>
<polygon fill="white" stroke="#bfbfbf" points="409,-56.5 409,-75.5 480,-75.5 480,-56.5 409,-56.5"/>
<text text-anchor="middle" x="444.5" y="-63.5" font-family="FreeSans" font-size="10.00">Eigen/Dense</text>
</g>
<!-- Node3&#45;&gt;Node14 -->
<g id="edge15" class="edge"><title>Node3&#45;&gt;Node14</title>
<path fill="none" stroke="midnightblue" d="M236.002,-113.717C278.017,-104.303 351.413,-87.8577 398.967,-77.2025"/>
<polygon fill="midnightblue" stroke="midnightblue" points="400.002,-80.5575 408.994,-74.9556 398.471,-73.7268 400.002,-80.5575"/>
</g>
<!-- Node10&#45;&gt;Node6 -->
<g id="edge11" class="edge"><title>Node10&#45;&gt;Node6</title>
<path fill="none" stroke="midnightblue" d="M214.218,-56.4435C193.153,-47.5566 159.983,-33.5632 136.014,-23.4514"/>
<polygon fill="midnightblue" stroke="midnightblue" points="137.261,-20.1787 126.687,-19.5164 134.54,-26.6283 137.261,-20.1787"/>
</g>
<!-- Node10&#45;&gt;Node8 -->
<g id="edge10" class="edge"><title>Node10&#45;&gt;Node8</title>
<path fill="none" stroke="midnightblue" d="M224.378,-56.324C214.974,-48.2631 200.756,-36.0765 189.431,-26.3695"/>
<polygon fill="midnightblue" stroke="midnightblue" points="191.677,-23.6844 181.806,-19.8339 187.121,-28.9993 191.677,-23.6844"/>
</g>
<!-- Node11 -->
<g id="node11" class="node"><title>Node11</title>
<polygon fill="white" stroke="#bfbfbf" points="210,-0.5 210,-19.5 259,-19.5 259,-0.5 210,-0.5"/>
<text text-anchor="middle" x="234.5" y="-7.5" font-family="FreeSans" font-size="10.00">fstream</text>
</g>
<!-- Node10&#45;&gt;Node11 -->
<g id="edge12" class="edge"><title>Node10&#45;&gt;Node11</title>
<path fill="none" stroke="midnightblue" d="M234.5,-56.083C234.5,-49.0059 234.5,-38.8611 234.5,-29.9865"/>
<polygon fill="midnightblue" stroke="midnightblue" points="238,-29.751 234.5,-19.7511 231,-29.7511 238,-29.751"/>
</g>
<!-- Node12 -->
<g id="node12" class="node"><title>Node12</title>
<polygon fill="white" stroke="#bfbfbf" points="277.5,-0.5 277.5,-19.5 335.5,-19.5 335.5,-0.5 277.5,-0.5"/>
<text text-anchor="middle" x="306.5" y="-7.5" font-family="FreeSans" font-size="10.00">exception</text>
</g>
<!-- Node10&#45;&gt;Node12 -->
<g id="edge13" class="edge"><title>Node10&#45;&gt;Node12</title>
<path fill="none" stroke="midnightblue" d="M246.068,-56.324C256.92,-48.1849 273.381,-35.8395 286.383,-26.0874"/>
<polygon fill="midnightblue" stroke="midnightblue" points="288.821,-28.6339 294.721,-19.8339 284.621,-23.0339 288.821,-28.6339"/>
</g>
<!-- Node13 -->
<g id="node13" class="node"><title>Node13</title>
<polygon fill="white" stroke="#bfbfbf" points="353,-0.5 353,-19.5 442,-19.5 442,-0.5 353,-0.5"/>
<text text-anchor="middle" x="397.5" y="-7.5" font-family="FreeSans" font-size="10.00">boost/format.hpp</text>
</g>
<!-- Node10&#45;&gt;Node13 -->
<g id="edge14" class="edge"><title>Node10&#45;&gt;Node13</title>
<path fill="none" stroke="midnightblue" d="M260.328,-56.4435C287.749,-47.3591 331.277,-32.9388 361.932,-22.7831"/>
<polygon fill="midnightblue" stroke="midnightblue" points="363.401,-25.9837 371.793,-19.5164 361.2,-19.3389 363.401,-25.9837"/>
</g>
</g>
</svg>
