<?xml version="1.0" encoding="UTF-8" standalone="no"?>
<!DOCTYPE svg PUBLIC "-//W3C//DTD SVG 1.1//EN"
 "http://www.w3.org/Graphics/SVG/1.1/DTD/svg11.dtd">
<!-- Generated by graphviz version 8.1.0 (20230707.2238)
 -->
<!-- Title: src/callback.h Pages: 1 -->
<svg width="697pt" height="199pt"
 viewBox="0.00 0.00 696.75 199.00" xmlns="http://www.w3.org/2000/svg" xmlns:xlink="http://www.w3.org/1999/xlink">
<g id="graph0" class="graph" transform="scale(1 1) rotate(0) translate(4 195)">
<title>src/callback.h</title>
<!-- Node1 -->
<g id="Node000001" class="node">
<title>Node1</title>
<g id="a_Node000001"><a xlink:title=" ">
<polygon fill="#999999" stroke="#666666" points="241.75,-191 159,-191 159,-170.25 241.75,-170.25 241.75,-191"/>
<text text-anchor="middle" x="200.38" y="-177.5" font-family="FreeSans" font-size="10.00">src/callback.h</text>
</a>
</g>
</g>
<!-- Node2 -->
<g id="Node000002" class="node">
<title>Node2</title>
<g id="a_Node000002"><a xlink:title=" ">
<polygon fill="#e0e0e0" stroke="#999999" points="189.38,-134.25 125.38,-134.25 125.38,-113.5 189.38,-113.5 189.38,-134.25"/>
<text text-anchor="middle" x="157.38" y="-120.75" font-family="FreeSans" font-size="10.00">stdexcept</text>
</a>
</g>
</g>
<!-- Node1&#45;&gt;Node2 -->
<g id="edge1_Node000001_Node000002" class="edge">
<title>Node1&#45;&gt;Node2</title>
<g id="a_edge1_Node000001_Node000002"><a xlink:title=" ">
<path fill="none" stroke="#63b8ff" d="M192.69,-169.84C186.88,-162.44 178.74,-152.07 171.73,-143.16"/>
<polygon fill="#63b8ff" stroke="#63b8ff" points="173.93,-141.28 165,-135.58 168.42,-145.6 173.93,-141.28"/>
</a>
</g>
</g>
<!-- Node3 -->
<g id="Node000003" class="node">
<title>Node3</title>
<g id="a_Node000003"><a xlink:href="mathUtils_8h.html" target="_top" xlink:title=" ">
<polygon fill="white" stroke="#666666" points="280.88,-134.25 207.88,-134.25 207.88,-113.5 280.88,-113.5 280.88,-134.25"/>
<text text-anchor="middle" x="244.38" y="-120.75" font-family="FreeSans" font-size="10.00">mathUtils.h</text>
</a>
</g>
</g>
<!-- Node1&#45;&gt;Node3 -->
<g id="edge2_Node000001_Node000003" class="edge">
<title>Node1&#45;&gt;Node3</title>
<g id="a_edge2_Node000001_Node000003"><a xlink:title=" ">
<path fill="none" stroke="#63b8ff" d="M208.24,-169.84C214.25,-162.36 222.69,-151.86 229.91,-142.88"/>
<polygon fill="#63b8ff" stroke="#63b8ff" points="233.04,-145.57 236.58,-135.58 227.58,-141.18 233.04,-145.57"/>
</a>
</g>
</g>
<!-- Node4 -->
<g id="Node000004" class="node">
<title>Node4</title>
<g id="a_Node000004"><a xlink:title=" ">
<polygon fill="#e0e0e0" stroke="#999999" points="46.75,-77.5 0,-77.5 0,-56.75 46.75,-56.75 46.75,-77.5"/>
<text text-anchor="middle" x="23.38" y="-64" font-family="FreeSans" font-size="10.00">vector</text>
</a>
</g>
</g>
<!-- Node3&#45;&gt;Node4 -->
<g id="edge3_Node000003_Node000004" class="edge">
<title>Node3&#45;&gt;Node4</title>
<g id="a_edge3_Node000003_Node000004"><a xlink:title=" ">
<path fill="none" stroke="#63b8ff" d="M207.52,-114.44C171.69,-106.14 115.48,-92.84 57.58,-77.74"/>
<polygon fill="#63b8ff" stroke="#63b8ff" points="58.7,-74.15 48.14,-75 56.92,-80.92 58.7,-74.15"/>
</a>
</g>
</g>
<!-- Node5 -->
<g id="Node000005" class="node">
<title>Node5</title>
<g id="a_Node000005"><a xlink:title=" ">
<polygon fill="#e0e0e0" stroke="#999999" points="111.75,-77.5 65,-77.5 65,-56.75 111.75,-56.75 111.75,-77.5"/>
<text text-anchor="middle" x="88.38" y="-64" font-family="FreeSans" font-size="10.00">cmath</text>
</a>
</g>
</g>
<!-- Node3&#45;&gt;Node5 -->
<g id="edge4_Node000003_Node000005" class="edge">
<title>Node3&#45;&gt;Node5</title>
<g id="a_edge4_Node000003_Node000005"><a xlink:title=" ">
<path fill="none" stroke="#63b8ff" d="M216.49,-113.09C190.06,-103.81 150.34,-89.87 122.14,-79.97"/>
<polygon fill="#63b8ff" stroke="#63b8ff" points="123.54,-76.41 112.95,-76.4 121.22,-83.01 123.54,-76.41"/>
</a>
</g>
</g>
<!-- Node6 -->
<g id="Node000006" class="node">
<title>Node6</title>
<g id="a_Node000006"><a xlink:title=" ">
<polygon fill="#e0e0e0" stroke="#999999" points="137.12,-20.75 77.62,-20.75 77.62,0 137.12,0 137.12,-20.75"/>
<text text-anchor="middle" x="107.38" y="-7.25" font-family="FreeSans" font-size="10.00">iostream</text>
</a>
</g>
</g>
<!-- Node3&#45;&gt;Node6 -->
<g id="edge5_Node000003_Node000006" class="edge">
<title>Node3&#45;&gt;Node6</title>
<g id="a_edge5_Node000003_Node000006"><a xlink:title=" ">
<path fill="none" stroke="#63b8ff" d="M230.58,-113.08C218.07,-104.08 199.21,-90.25 183.38,-77.5 163.33,-61.36 141.22,-41.94 126.05,-28.33"/>
<polygon fill="#63b8ff" stroke="#63b8ff" points="128.75,-26.15 118.98,-22.06 124.06,-31.35 128.75,-26.15"/>
</a>
</g>
</g>
<!-- Node7 -->
<g id="Node000007" class="node">
<title>Node7</title>
<g id="a_Node000007"><a xlink:title=" ">
<polygon fill="#e0e0e0" stroke="#999999" points="357.25,-77.5 301.5,-77.5 301.5,-56.75 357.25,-56.75 357.25,-77.5"/>
<text text-anchor="middle" x="329.38" y="-64" font-family="FreeSans" font-size="10.00">sstream</text>
</a>
</g>
</g>
<!-- Node3&#45;&gt;Node7 -->
<g id="edge6_Node000003_Node000007" class="edge">
<title>Node3&#45;&gt;Node7</title>
<g id="a_edge6_Node000003_Node000007"><a xlink:title=" ">
<path fill="none" stroke="#63b8ff" d="M259.57,-113.09C272.26,-104.91 290.59,-93.11 305.28,-83.65"/>
<polygon fill="#63b8ff" stroke="#63b8ff" points="306.8,-86.19 313.31,-77.83 303.01,-80.3 306.8,-86.19"/>
</a>
</g>
</g>
<!-- Node8 -->
<g id="Node000008" class="node">
<title>Node8</title>
<g id="a_Node000008"><a xlink:title=" ">
<polygon fill="#e0e0e0" stroke="#999999" points="199.25,-20.75 155.5,-20.75 155.5,0 199.25,0 199.25,-20.75"/>
<text text-anchor="middle" x="177.38" y="-7.25" font-family="FreeSans" font-size="10.00">string</text>
</a>
</g>
</g>
<!-- Node3&#45;&gt;Node8 -->
<g id="edge7_Node000003_Node000008" class="edge">
<title>Node3&#45;&gt;Node8</title>
<g id="a_edge7_Node000003_Node000008"><a xlink:title=" ">
<path fill="none" stroke="#63b8ff" d="M230.66,-113.2C219.86,-104.9 205.2,-92 196.38,-77.5 187.83,-63.45 182.98,-45.39 180.32,-31.69"/>
<polygon fill="#63b8ff" stroke="#63b8ff" points="183.63,-31.27 178.51,-21.99 176.73,-32.44 183.63,-31.27"/>
</a>
</g>
</g>
<!-- Node9 -->
<g id="Node000009" class="node">
<title>Node9</title>
<g id="a_Node000009"><a xlink:title=" ">
<polygon fill="#e0e0e0" stroke="#999999" points="413.25,-77.5 375.5,-77.5 375.5,-56.75 413.25,-56.75 413.25,-77.5"/>
<text text-anchor="middle" x="394.38" y="-64" font-family="FreeSans" font-size="10.00">map</text>
</a>
</g>
</g>
<!-- Node3&#45;&gt;Node9 -->
<g id="edge8_Node000003_Node000009" class="edge">
<title>Node3&#45;&gt;Node9</title>
<g id="a_edge8_Node000003_Node000009"><a xlink:title=" ">
<path fill="none" stroke="#63b8ff" d="M271.19,-113.09C297.68,-103.42 338.06,-88.68 365.3,-78.74"/>
<polygon fill="#63b8ff" stroke="#63b8ff" points="366.2,-81.77 374.39,-75.05 363.8,-75.19 366.2,-81.77"/>
</a>
</g>
</g>
<!-- Node10 -->
<g id="Node000010" class="node">
<title>Node10</title>
<g id="a_Node000010"><a xlink:href="debugUtils_8h.html" target="_top" xlink:title=" ">
<polygon fill="white" stroke="#666666" points="283.12,-77.5 205.62,-77.5 205.62,-56.75 283.12,-56.75 283.12,-77.5"/>
<text text-anchor="middle" x="244.38" y="-64" font-family="FreeSans" font-size="10.00">debugUtils.h</text>
</a>
</g>
</g>
<!-- Node3&#45;&gt;Node10 -->
<g id="edge9_Node000003_Node000010" class="edge">
<title>Node3&#45;&gt;Node10</title>
<g id="a_edge9_Node000003_Node000010"><a xlink:title=" ">
<path fill="none" stroke="#63b8ff" d="M244.38,-113.09C244.38,-106.31 244.38,-97.05 244.38,-88.69"/>
<polygon fill="#63b8ff" stroke="#63b8ff" points="247.88,-88.83 244.38,-78.83 240.88,-88.83 247.88,-88.83"/>
</a>
</g>
</g>
<!-- Node14 -->
<g id="Node000014" class="node">
<title>Node14</title>
<g id="a_Node000014"><a xlink:title=" ">
<polygon fill="#e0e0e0" stroke="#999999" points="557.5,-77.5 431.25,-77.5 431.25,-56.75 557.5,-56.75 557.5,-77.5"/>
<text text-anchor="middle" x="494.38" y="-64" font-family="FreeSans" font-size="10.00">cantera/base/ct_defs.h</text>
</a>
</g>
</g>
<!-- Node3&#45;&gt;Node14 -->
<g id="edge15_Node000003_Node000014" class="edge">
<title>Node3&#45;&gt;Node14</title>
<g id="a_edge15_Node000003_Node000014"><a xlink:title=" ">
<path fill="none" stroke="#63b8ff" d="M281.26,-114.8C322.81,-105.7 390.77,-90.81 438.76,-80.3"/>
<polygon fill="#63b8ff" stroke="#63b8ff" points="439.27,-83.56 448.29,-78 437.77,-76.72 439.27,-83.56"/>
</a>
</g>
</g>
<!-- Node15 -->
<g id="Node000015" class="node">
<title>Node15</title>
<g id="a_Node000015"><a xlink:title=" ">
<polygon fill="#e0e0e0" stroke="#999999" points="688.75,-77.5 576,-77.5 576,-56.75 688.75,-56.75 688.75,-77.5"/>
<text text-anchor="middle" x="632.38" y="-64" font-family="FreeSans" font-size="10.00">eigen3/Eigen/Dense</text>
</a>
</g>
</g>
<!-- Node3&#45;&gt;Node15 -->
<g id="edge16_Node000003_Node000015" class="edge">
<title>Node3&#45;&gt;Node15</title>
<g id="a_edge16_Node000003_Node000015"><a xlink:title=" ">
<path fill="none" stroke="#63b8ff" d="M281.08,-117.72C338.99,-109.57 455.39,-93.2 565.24,-77.66"/>
<polygon fill="#63b8ff" stroke="#63b8ff" points="565.44,-81.02 574.85,-76.16 564.46,-74.09 565.44,-81.02"/>
</a>
</g>
</g>
<!-- Node10&#45;&gt;Node6 -->
<g id="edge11_Node000010_Node000006" class="edge">
<title>Node10&#45;&gt;Node6</title>
<g id="a_edge11_Node000010_Node000006"><a xlink:title=" ">
<path fill="none" stroke="#63b8ff" d="M219.88,-56.34C198.06,-47.62 165.91,-34.77 141.56,-25.04"/>
<polygon fill="#63b8ff" stroke="#63b8ff" points="143.24,-21.54 132.66,-21.08 140.64,-28.04 143.24,-21.54"/>
</a>
</g>
</g>
<!-- Node10&#45;&gt;Node8 -->
<g id="edge10_Node000010_Node000008" class="edge">
<title>Node10&#45;&gt;Node8</title>
<g id="a_edge10_Node000010_Node000008"><a xlink:title=" ">
<path fill="none" stroke="#63b8ff" d="M232.4,-56.34C222.77,-48.47 209.04,-37.25 197.7,-27.99"/>
<polygon fill="#63b8ff" stroke="#63b8ff" points="200.21,-24.7 190.25,-21.08 195.78,-30.12 200.21,-24.7"/>
</a>
</g>
</g>
<!-- Node11 -->
<g id="Node000011" class="node">
<title>Node11</title>
<g id="a_Node000011"><a xlink:title=" ">
<polygon fill="#e0e0e0" stroke="#999999" points="271.5,-20.75 217.25,-20.75 217.25,0 271.5,0 271.5,-20.75"/>
<text text-anchor="middle" x="244.38" y="-7.25" font-family="FreeSans" font-size="10.00">fstream</text>
</a>
</g>
</g>
<!-- Node10&#45;&gt;Node11 -->
<g id="edge12_Node000010_Node000011" class="edge">
<title>Node10&#45;&gt;Node11</title>
<g id="a_edge12_Node000010_Node000011"><a xlink:title=" ">
<path fill="none" stroke="#63b8ff" d="M244.38,-56.34C244.38,-49.56 244.38,-40.3 244.38,-31.94"/>
<polygon fill="#63b8ff" stroke="#63b8ff" points="247.88,-32.08 244.38,-22.08 240.88,-32.08 247.88,-32.08"/>
</a>
</g>
</g>
<!-- Node12 -->
<g id="Node000012" class="node">
<title>Node12</title>
<g id="a_Node000012"><a xlink:title=" ">
<polygon fill="#e0e0e0" stroke="#999999" points="353.38,-20.75 289.38,-20.75 289.38,0 353.38,0 353.38,-20.75"/>
<text text-anchor="middle" x="321.38" y="-7.25" font-family="FreeSans" font-size="10.00">exception</text>
</a>
</g>
</g>
<!-- Node10&#45;&gt;Node12 -->
<g id="edge13_Node000010_Node000012" class="edge">
<title>Node10&#45;&gt;Node12</title>
<g id="a_edge13_Node000010_Node000012"><a xlink:title=" ">
<path fill="none" stroke="#63b8ff" d="M258.14,-56.34C269.42,-48.32 285.61,-36.81 298.78,-27.44"/>
<polygon fill="#63b8ff" stroke="#63b8ff" points="300.61,-29.73 306.73,-21.08 296.55,-24.02 300.61,-29.73"/>
</a>
</g>
</g>
<!-- Node13 -->
<g id="Node000013" class="node">
<title>Node13</title>
<g id="a_Node000013"><a xlink:title=" ">
<polygon fill="#e0e0e0" stroke="#999999" points="471.38,-20.75 371.38,-20.75 371.38,0 471.38,0 471.38,-20.75"/>
<text text-anchor="middle" x="421.38" y="-7.25" font-family="FreeSans" font-size="10.00">boost/format.hpp</text>
</a>
</g>
</g>
<!-- Node10&#45;&gt;Node13 -->
<g id="edge14_Node000010_Node000013" class="edge">
<title>Node10&#45;&gt;Node13</title>
<g id="a_edge14_Node000010_Node000013"><a xlink:title=" ">
<path fill="none" stroke="#63b8ff" d="M276.02,-56.34C304.88,-47.41 347.72,-34.16 379.42,-24.35"/>
<polygon fill="#63b8ff" stroke="#63b8ff" points="380.19,-27.47 388.71,-21.17 378.12,-20.78 380.19,-27.47"/>
</a>
</g>
</g>
</g>
</svg>
