<?xml version="1.0" encoding="UTF-8" standalone="no"?>
<!DOCTYPE svg PUBLIC "-//W3C//DTD SVG 1.1//EN"
 "http://www.w3.org/Graphics/SVG/1.1/DTD/svg11.dtd">
<!-- Generated by graphviz version 2.26.3 (20100126.1600)
 -->
<!-- Title: src/callback.cpp Pages: 1 -->
<svg width="140pt" height="146pt"
 viewBox="0.00 0.00 140.00 146.00" xmlns="http://www.w3.org/2000/svg" xmlns:xlink="http://www.w3.org/1999/xlink">
<g id="graph1" class="graph" transform="scale(1 1) rotate(0) translate(4 142)">
<title>src/callback.cpp</title>
<polygon fill="white" stroke="white" points="-4,5 -4,-142 137,-142 137,5 -4,5"/>
<!-- Node1 -->
<g id="node1" class="node"><title>Node1</title>
<polygon fill="#bfbfbf" stroke="black" points="24,-117 24,-137 110,-137 110,-117 24,-117"/>
<text text-anchor="middle" x="67" y="-124" font-family="FreeSans" font-size="10.00">src/callback.cpp</text>
</g>
<!-- Node2 -->
<g id="node3" class="node"><title>Node2</title>
<a xlink:href="callback_8h.html" target="_top" xlink:title="callback.h">
<polygon fill="white" stroke="black" points="0,-59 0,-79 60,-79 60,-59 0,-59"/>
<text text-anchor="middle" x="30" y="-66" font-family="FreeSans" font-size="10.00">callback.h</text>
</a>
</g>
<!-- Node1&#45;&gt;Node2 -->
<g id="edge2" class="edge"><title>Node1&#45;&gt;Node2</title>
<path fill="none" stroke="midnightblue" d="M60.5551,-116.897C55.4715,-108.928 48.2368,-97.5874 42.0832,-87.9413"/>
<polygon fill="midnightblue" stroke="midnightblue" points="44.9491,-85.9259 36.6202,-79.3776 39.0477,-89.6906 44.9491,-85.9259"/>
</g>
<!-- Node4 -->
<g id="node7" class="node"><title>Node4</title>
<polygon fill="white" stroke="#bfbfbf" points="78,-59 78,-79 132,-79 132,-59 78,-59"/>
<text text-anchor="middle" x="105" y="-66" font-family="FreeSans" font-size="10.00">Python.h</text>
</g>
<!-- Node1&#45;&gt;Node4 -->
<g id="edge6" class="edge"><title>Node1&#45;&gt;Node4</title>
<path fill="none" stroke="midnightblue" d="M73.6191,-116.897C78.8401,-108.928 86.2703,-97.5874 92.5902,-87.9413"/>
<polygon fill="midnightblue" stroke="midnightblue" points="95.6482,-89.6603 98.2009,-79.3776 89.793,-85.8241 95.6482,-89.6603"/>
</g>
<!-- Node3 -->
<g id="node5" class="node"><title>Node3</title>
<polygon fill="white" stroke="#bfbfbf" points="1,-1 1,-21 59,-21 59,-1 1,-1"/>
<text text-anchor="middle" x="30" y="-8" font-family="FreeSans" font-size="10.00">stdexcept</text>
</g>
<!-- Node2&#45;&gt;Node3 -->
<g id="edge4" class="edge"><title>Node2&#45;&gt;Node3</title>
<path fill="none" stroke="midnightblue" d="M30,-58.8972C30,-51.339 30,-40.7476 30,-31.4458"/>
<polygon fill="midnightblue" stroke="midnightblue" points="33.5001,-31.3776 30,-21.3776 26.5001,-31.3776 33.5001,-31.3776"/>
</g>
</g>
</svg>
