<?xml version="1.0" encoding="UTF-8" standalone="no"?>
<!DOCTYPE svg PUBLIC "-//W3C//DTD SVG 1.1//EN"
 "http://www.w3.org/Graphics/SVG/1.1/DTD/svg11.dtd">
<!-- Generated by graphviz version 8.1.0 (20230707.2238)
 -->
<!-- Title: src/callback.h Pages: 1 -->
<svg width="320pt" height="199pt"
 viewBox="0.00 0.00 320.25 199.00" xmlns="http://www.w3.org/2000/svg" xmlns:xlink="http://www.w3.org/1999/xlink">
<g id="graph0" class="graph" transform="scale(1 1) rotate(0) translate(4 195)">
<title>src/callback.h</title>
<!-- Node1 -->
<g id="Node000001" class="node">
<title>Node1</title>
<g id="a_Node000001"><a xlink:title=" ">
<polygon fill="#999999" stroke="#666666" points="163.38,-191 80.62,-191 80.62,-170.25 163.38,-170.25 163.38,-191"/>
<text text-anchor="middle" x="122" y="-177.5" font-family="FreeSans" font-size="10.00">src/callback.h</text>
</a>
</g>
</g>
<!-- Node2 -->
<g id="Node000002" class="node">
<title>Node2</title>
<g id="a_Node000002"><a xlink:href="callback_8cpp.html" target="_top" xlink:title=" ">
<polygon fill="white" stroke="#666666" points="94,-134.25 0,-134.25 0,-113.5 94,-113.5 94,-134.25"/>
<text text-anchor="middle" x="47" y="-120.75" font-family="FreeSans" font-size="10.00">src/callback.cpp</text>
</a>
</g>
</g>
<!-- Node1&#45;&gt;Node2 -->
<g id="edge1_Node000001_Node000002" class="edge">
<title>Node1&#45;&gt;Node2</title>
<g id="a_edge1_Node000001_Node000002"><a xlink:title=" ">
<path fill="none" stroke="#63b8ff" d="M99.86,-163.46C87.01,-154.08 71.24,-142.57 60.29,-134.58"/>
<polygon fill="#63b8ff" stroke="#63b8ff" points="97.45,-166.77 107.59,-169.84 101.58,-161.11 97.45,-166.77"/>
</a>
</g>
</g>
<!-- Node3 -->
<g id="Node000003" class="node">
<title>Node3</title>
<g id="a_Node000003"><a xlink:href="flameSolver_8h.html" target="_top" xlink:title=" ">
<polygon fill="white" stroke="#666666" points="172,-77.5 72,-77.5 72,-56.75 172,-56.75 172,-77.5"/>
<text text-anchor="middle" x="122" y="-64" font-family="FreeSans" font-size="10.00">src/flameSolver.h</text>
</a>
</g>
</g>
<!-- Node1&#45;&gt;Node3 -->
<g id="edge2_Node000001_Node000003" class="edge">
<title>Node1&#45;&gt;Node3</title>
<g id="a_edge2_Node000001_Node000003"><a xlink:title=" ">
<path fill="none" stroke="#63b8ff" d="M122,-159.38C122,-135.31 122,-96.09 122,-77.93"/>
<polygon fill="#63b8ff" stroke="#63b8ff" points="118.5,-159.12 122,-169.12 125.5,-159.12 118.5,-159.12"/>
</a>
</g>
</g>
<!-- Node5 -->
<g id="Node000005" class="node">
<title>Node5</title>
<g id="a_Node000005"><a xlink:href="sourceSystem_8h.html" target="_top" xlink:title=" ">
<polygon fill="white" stroke="#666666" points="261.62,-134.25 150.38,-134.25 150.38,-113.5 261.62,-113.5 261.62,-134.25"/>
<text text-anchor="middle" x="206" y="-120.75" font-family="FreeSans" font-size="10.00">src/sourceSystem.h</text>
</a>
</g>
</g>
<!-- Node1&#45;&gt;Node5 -->
<g id="edge4_Node000001_Node000005" class="edge">
<title>Node1&#45;&gt;Node5</title>
<g id="a_edge4_Node000001_Node000005"><a xlink:title=" ">
<path fill="none" stroke="#63b8ff" d="M145.96,-164.01C160.51,-154.53 178.61,-142.73 191.11,-134.58"/>
<polygon fill="#63b8ff" stroke="#63b8ff" points="144.48,-161.44 138.02,-169.84 148.31,-167.31 144.48,-161.44"/>
</a>
</g>
</g>
<!-- Node4 -->
<g id="Node000004" class="node">
<title>Node4</title>
<g id="a_Node000004"><a xlink:href="flameSolver_8cpp.html" target="_top" xlink:title=" ">
<polygon fill="white" stroke="#666666" points="177.62,-20.75 66.38,-20.75 66.38,0 177.62,0 177.62,-20.75"/>
<text text-anchor="middle" x="122" y="-7.25" font-family="FreeSans" font-size="10.00">src/flameSolver.cpp</text>
</a>
</g>
</g>
<!-- Node3&#45;&gt;Node4 -->
<g id="edge3_Node000003_Node000004" class="edge">
<title>Node3&#45;&gt;Node4</title>
<g id="a_edge3_Node000003_Node000004"><a xlink:title=" ">
<path fill="none" stroke="#63b8ff" d="M122,-45.46C122,-37.09 122,-27.83 122,-21.08"/>
<polygon fill="#63b8ff" stroke="#63b8ff" points="118.5,-45.34 122,-55.34 125.5,-45.34 118.5,-45.34"/>
</a>
</g>
</g>
<!-- Node5&#45;&gt;Node3 -->
<g id="edge5_Node000005_Node000003" class="edge">
<title>Node5&#45;&gt;Node3</title>
<g id="a_edge5_Node000005_Node000003"><a xlink:title=" ">
<path fill="none" stroke="#63b8ff" d="M182.04,-107.26C167.49,-97.78 149.39,-85.98 136.89,-77.83"/>
<polygon fill="#63b8ff" stroke="#63b8ff" points="179.69,-110.56 189.98,-113.09 183.52,-104.69 179.69,-110.56"/>
</a>
</g>
</g>
<!-- Node6 -->
<g id="Node000006" class="node">
<title>Node6</title>
<g id="a_Node000006"><a xlink:href="sourceSystem_8cpp.html" target="_top" xlink:title=" ">
<polygon fill="white" stroke="#666666" points="312.25,-77.5 189.75,-77.5 189.75,-56.75 312.25,-56.75 312.25,-77.5"/>
<text text-anchor="middle" x="251" y="-64" font-family="FreeSans" font-size="10.00">src/sourceSystem.cpp</text>
</a>
</g>
</g>
<!-- Node5&#45;&gt;Node6 -->
<g id="edge6_Node000005_Node000006" class="edge">
<title>Node5&#45;&gt;Node6</title>
<g id="a_edge6_Node000005_Node000006"><a xlink:title=" ">
<path fill="none" stroke="#63b8ff" d="M220.88,-104.77C228.27,-95.78 236.9,-85.28 243.02,-77.83"/>
<polygon fill="#63b8ff" stroke="#63b8ff" points="217.69,-102.14 214.05,-112.09 223.1,-106.58 217.69,-102.14"/>
</a>
</g>
</g>
</g>
</svg>
