<?xml version="1.0" encoding="UTF-8" standalone="no"?>
<!DOCTYPE svg PUBLIC "-//W3C//DTD SVG 1.1//EN"
 "http://www.w3.org/Graphics/SVG/1.1/DTD/svg11.dtd">
<!-- Generated by graphviz version 2.28.0 (20120425.2022)
 -->
<!-- Title: src/chemistry0d.h Pages: 1 -->
<svg width="1383pt" height="196pt"
 viewBox="0.00 0.00 1383.00 196.00" xmlns="http://www.w3.org/2000/svg" xmlns:xlink="http://www.w3.org/1999/xlink">
<g id="graph1" class="graph" transform="scale(1 1) rotate(0) translate(4 192)">
<title>src/chemistry0d.h</title>
<polygon fill="white" stroke="white" points="-4,5 -4,-192 1380,-192 1380,5 -4,5"/>
<!-- Node1 -->
<g id="node1" class="node"><title>Node1</title>
<polygon fill="#bfbfbf" stroke="black" points="491.5,-168.5 491.5,-187.5 586.5,-187.5 586.5,-168.5 491.5,-168.5"/>
<text text-anchor="middle" x="539" y="-175.5" font-family="FreeSans" font-size="10.00">src/chemistry0d.h</text>
</g>
<!-- Node2 -->
<g id="node3" class="node"><title>Node2</title>
<polygon fill="white" stroke="#bfbfbf" points="-0.5,-112.5 -0.5,-131.5 118.5,-131.5 118.5,-112.5 -0.5,-112.5"/>
<text text-anchor="middle" x="59" y="-119.5" font-family="FreeSans" font-size="10.00">cantera/IdealGasMix.h</text>
</g>
<!-- Node1&#45;&gt;Node2 -->
<g id="edge2" class="edge"><title>Node1&#45;&gt;Node2</title>
<path fill="none" stroke="midnightblue" d="M491.379,-172.155C416.493,-164.458 266.357,-148.71 128.982,-132.218"/>
<polygon fill="midnightblue" stroke="midnightblue" points="129.041,-128.7 118.694,-130.979 128.204,-135.65 129.041,-128.7"/>
</g>
<!-- Node3 -->
<g id="node5" class="node"><title>Node3</title>
<polygon fill="white" stroke="#bfbfbf" points="136.5,-112.5 136.5,-131.5 245.5,-131.5 245.5,-112.5 136.5,-112.5"/>
<text text-anchor="middle" x="191" y="-119.5" font-family="FreeSans" font-size="10.00">cantera/equilibrium.h</text>
</g>
<!-- Node1&#45;&gt;Node3 -->
<g id="edge4" class="edge"><title>Node1&#45;&gt;Node3</title>
<path fill="none" stroke="midnightblue" d="M491.342,-169.605C430.256,-160.126 324.097,-143.653 255.735,-133.045"/>
<polygon fill="midnightblue" stroke="midnightblue" points="255.935,-129.534 245.517,-131.46 254.862,-136.452 255.935,-129.534"/>
</g>
<!-- Node4 -->
<g id="node7" class="node"><title>Node4</title>
<polygon fill="white" stroke="#bfbfbf" points="264,-112.5 264,-131.5 356,-131.5 356,-112.5 264,-112.5"/>
<text text-anchor="middle" x="310" y="-119.5" font-family="FreeSans" font-size="10.00">cantera/thermo.h</text>
</g>
<!-- Node1&#45;&gt;Node4 -->
<g id="edge6" class="edge"><title>Node1&#45;&gt;Node4</title>
<path fill="none" stroke="midnightblue" d="M502.714,-168.444C463.017,-159.083 399.293,-144.056 356.088,-133.868"/>
<polygon fill="midnightblue" stroke="midnightblue" points="356.652,-130.405 346.116,-131.516 355.046,-137.218 356.652,-130.405"/>
</g>
<!-- Node5 -->
<g id="node9" class="node"><title>Node5</title>
<polygon fill="white" stroke="#bfbfbf" points="374.5,-112.5 374.5,-131.5 473.5,-131.5 473.5,-112.5 374.5,-112.5"/>
<text text-anchor="middle" x="424" y="-119.5" font-family="FreeSans" font-size="10.00">cantera/transport.h</text>
</g>
<!-- Node1&#45;&gt;Node5 -->
<g id="edge8" class="edge"><title>Node1&#45;&gt;Node5</title>
<path fill="none" stroke="midnightblue" d="M520.778,-168.444C502.104,-159.675 472.844,-145.935 451.383,-135.858"/>
<polygon fill="midnightblue" stroke="midnightblue" points="452.676,-132.599 442.137,-131.516 449.701,-138.935 452.676,-132.599"/>
</g>
<!-- Node6 -->
<g id="node11" class="node"><title>Node6</title>
<polygon fill="white" stroke="#bfbfbf" points="491.5,-112.5 491.5,-131.5 586.5,-131.5 586.5,-112.5 491.5,-112.5"/>
<text text-anchor="middle" x="539" y="-119.5" font-family="FreeSans" font-size="10.00">cantera/kinetics.h</text>
</g>
<!-- Node1&#45;&gt;Node6 -->
<g id="edge10" class="edge"><title>Node1&#45;&gt;Node6</title>
<path fill="none" stroke="midnightblue" d="M539,-168.083C539,-161.006 539,-150.861 539,-141.986"/>
<polygon fill="midnightblue" stroke="midnightblue" points="542.5,-141.751 539,-131.751 535.5,-141.751 542.5,-141.751"/>
</g>
<!-- Node7 -->
<g id="node13" class="node"><title>Node7</title>
<polygon fill="white" stroke="#bfbfbf" points="605,-112.5 605,-131.5 771,-131.5 771,-112.5 605,-112.5"/>
<text text-anchor="middle" x="688" y="-119.5" font-family="FreeSans" font-size="10.00">cantera/thermo/IdealGasPhase.h</text>
</g>
<!-- Node1&#45;&gt;Node7 -->
<g id="edge12" class="edge"><title>Node1&#45;&gt;Node7</title>
<path fill="none" stroke="midnightblue" d="M562.609,-168.444C587.458,-159.438 626.774,-145.189 654.754,-135.049"/>
<polygon fill="midnightblue" stroke="midnightblue" points="656.292,-138.214 664.501,-131.516 653.907,-131.633 656.292,-138.214"/>
</g>
<!-- Node8 -->
<g id="node15" class="node"><title>Node8</title>
<polygon fill="white" stroke="#bfbfbf" points="789,-112.5 789,-131.5 941,-131.5 941,-112.5 789,-112.5"/>
<text text-anchor="middle" x="865" y="-119.5" font-family="FreeSans" font-size="10.00">cantera/kinetics/GasKinetics.h</text>
</g>
<!-- Node1&#45;&gt;Node8 -->
<g id="edge14" class="edge"><title>Node1&#45;&gt;Node8</title>
<path fill="none" stroke="midnightblue" d="M586.752,-169.09C644.131,-159.586 740.518,-143.62 803.437,-133.198"/>
<polygon fill="midnightblue" stroke="midnightblue" points="804.328,-136.598 813.621,-131.511 803.184,-129.692 804.328,-136.598"/>
</g>
<!-- Node9 -->
<g id="node17" class="node"><title>Node9</title>
<polygon fill="white" stroke="#bfbfbf" points="959,-112.5 959,-131.5 1063,-131.5 1063,-112.5 959,-112.5"/>
<text text-anchor="middle" x="1011" y="-119.5" font-family="FreeSans" font-size="10.00">cantera/base/ctml.h</text>
</g>
<!-- Node1&#45;&gt;Node9 -->
<g id="edge16" class="edge"><title>Node1&#45;&gt;Node9</title>
<path fill="none" stroke="midnightblue" d="M586.533,-172.379C661.276,-164.985 811.099,-149.648 948.485,-132.154"/>
<polygon fill="midnightblue" stroke="midnightblue" points="949.3,-135.578 958.774,-130.837 948.411,-128.635 949.3,-135.578"/>
</g>
<!-- Node10 -->
<g id="node19" class="node"><title>Node10</title>
<a xlink:href="mathUtils_8h.html" target="_top" xlink:title="mathUtils.h">
<polygon fill="white" stroke="black" points="1081.5,-112.5 1081.5,-131.5 1146.5,-131.5 1146.5,-112.5 1081.5,-112.5"/>
<text text-anchor="middle" x="1114" y="-119.5" font-family="FreeSans" font-size="10.00">mathUtils.h</text>
</a>
</g>
<!-- Node1&#45;&gt;Node10 -->
<g id="edge18" class="edge"><title>Node1&#45;&gt;Node10</title>
<path fill="none" stroke="midnightblue" d="M586.651,-175.007C678.458,-170.728 886.345,-158.909 1070.9,-131.974"/>
<polygon fill="midnightblue" stroke="midnightblue" points="1071.68,-135.397 1081.06,-130.472 1070.65,-128.472 1071.68,-135.397"/>
</g>
<!-- Node11 -->
<g id="node21" class="node"><title>Node11</title>
<polygon fill="white" stroke="#bfbfbf" points="885,-56.5 885,-75.5 929,-75.5 929,-56.5 885,-56.5"/>
<text text-anchor="middle" x="907" y="-63.5" font-family="FreeSans" font-size="10.00">vector</text>
</g>
<!-- Node10&#45;&gt;Node11 -->
<g id="edge20" class="edge"><title>Node10&#45;&gt;Node11</title>
<path fill="none" stroke="midnightblue" d="M1081.48,-113.018C1048.1,-104.753 994.418,-91.2578 939.272,-76.2869"/>
<polygon fill="midnightblue" stroke="midnightblue" points="939.895,-72.8293 929.327,-73.5751 938.054,-79.5827 939.895,-72.8293"/>
</g>
<!-- Node12 -->
<g id="node23" class="node"><title>Node12</title>
<polygon fill="white" stroke="#bfbfbf" points="947,-56.5 947,-75.5 991,-75.5 991,-56.5 947,-56.5"/>
<text text-anchor="middle" x="969" y="-63.5" font-family="FreeSans" font-size="10.00">cmath</text>
</g>
<!-- Node10&#45;&gt;Node12 -->
<g id="edge22" class="edge"><title>Node10&#45;&gt;Node12</title>
<path fill="none" stroke="midnightblue" d="M1091.02,-112.444C1066.7,-103.385 1028.13,-89.0213 1000.87,-78.8705"/>
<polygon fill="midnightblue" stroke="midnightblue" points="1001.98,-75.5491 991.392,-75.339 999.541,-82.109 1001.98,-75.5491"/>
</g>
<!-- Node13 -->
<g id="node25" class="node"><title>Node13</title>
<polygon fill="white" stroke="#bfbfbf" points="1025,-0.5 1025,-19.5 1081,-19.5 1081,-0.5 1025,-0.5"/>
<text text-anchor="middle" x="1053" y="-7.5" font-family="FreeSans" font-size="10.00">iostream</text>
</g>
<!-- Node10&#45;&gt;Node13 -->
<g id="edge24" class="edge"><title>Node10&#45;&gt;Node13</title>
<path fill="none" stroke="midnightblue" d="M1086.72,-112.453C1069.71,-105.548 1049.17,-93.9707 1039,-76 1030.67,-61.2886 1036.45,-42.1363 1042.93,-28.4391"/>
<polygon fill="midnightblue" stroke="midnightblue" points="1046.03,-30.0534 1047.57,-19.5709 1039.83,-26.8056 1046.03,-30.0534"/>
</g>
<!-- Node14 -->
<g id="node27" class="node"><title>Node14</title>
<polygon fill="white" stroke="#bfbfbf" points="1047.5,-56.5 1047.5,-75.5 1100.5,-75.5 1100.5,-56.5 1047.5,-56.5"/>
<text text-anchor="middle" x="1074" y="-63.5" font-family="FreeSans" font-size="10.00">sstream</text>
</g>
<!-- Node10&#45;&gt;Node14 -->
<g id="edge26" class="edge"><title>Node10&#45;&gt;Node14</title>
<path fill="none" stroke="midnightblue" d="M1107.39,-112.083C1101.74,-104.455 1093.46,-93.2645 1086.55,-83.9408"/>
<polygon fill="midnightblue" stroke="midnightblue" points="1089.25,-81.7034 1080.48,-75.7511 1083.62,-85.87 1089.25,-81.7034"/>
</g>
<!-- Node15 -->
<g id="node29" class="node"><title>Node15</title>
<polygon fill="white" stroke="#bfbfbf" points="1192.5,-0.5 1192.5,-19.5 1233.5,-19.5 1233.5,-0.5 1192.5,-0.5"/>
<text text-anchor="middle" x="1213" y="-7.5" font-family="FreeSans" font-size="10.00">string</text>
</g>
<!-- Node10&#45;&gt;Node15 -->
<g id="edge28" class="edge"><title>Node10&#45;&gt;Node15</title>
<path fill="none" stroke="midnightblue" d="M1146.68,-120.695C1179.59,-118.424 1228.83,-109.231 1253,-76 1264.95,-59.5751 1248.25,-39.5162 1232.92,-26.0635"/>
<polygon fill="midnightblue" stroke="midnightblue" points="1235.13,-23.3502 1225.19,-19.685 1230.68,-28.7493 1235.13,-23.3502"/>
</g>
<!-- Node16 -->
<g id="node31" class="node"><title>Node16</title>
<polygon fill="white" stroke="#bfbfbf" points="1208,-56.5 1208,-75.5 1244,-75.5 1244,-56.5 1208,-56.5"/>
<text text-anchor="middle" x="1226" y="-63.5" font-family="FreeSans" font-size="10.00">map</text>
</g>
<!-- Node10&#45;&gt;Node16 -->
<g id="edge30" class="edge"><title>Node10&#45;&gt;Node16</title>
<path fill="none" stroke="midnightblue" d="M1131.99,-112.324C1150.04,-103.625 1178.05,-90.1202 1198.8,-80.113"/>
<polygon fill="midnightblue" stroke="midnightblue" points="1200.56,-83.1502 1208.05,-75.6545 1197.52,-76.8449 1200.56,-83.1502"/>
</g>
<!-- Node17 -->
<g id="node33" class="node"><title>Node17</title>
<a xlink:href="debugUtils_8h.html" target="_top" xlink:title="debugUtils.h">
<polygon fill="white" stroke="red" points="1118.5,-56.5 1118.5,-75.5 1189.5,-75.5 1189.5,-56.5 1118.5,-56.5"/>
<text text-anchor="middle" x="1154" y="-63.5" font-family="FreeSans" font-size="10.00">debugUtils.h</text>
</a>
</g>
<!-- Node10&#45;&gt;Node17 -->
<g id="edge32" class="edge"><title>Node10&#45;&gt;Node17</title>
<path fill="none" stroke="midnightblue" d="M1120.61,-112.083C1126.26,-104.455 1134.54,-93.2645 1141.45,-83.9408"/>
<polygon fill="midnightblue" stroke="midnightblue" points="1144.38,-85.87 1147.52,-75.7511 1138.75,-81.7034 1144.38,-85.87"/>
</g>
<!-- Node18 -->
<g id="node37" class="node"><title>Node18</title>
<polygon fill="white" stroke="#bfbfbf" points="1300.5,-56.5 1300.5,-75.5 1375.5,-75.5 1375.5,-56.5 1300.5,-56.5"/>
<text text-anchor="middle" x="1338" y="-63.5" font-family="FreeSans" font-size="10.00">Eigen/Dense</text>
</g>
<!-- Node10&#45;&gt;Node18 -->
<g id="edge38" class="edge"><title>Node10&#45;&gt;Node18</title>
<path fill="none" stroke="midnightblue" d="M1146.57,-113.148C1185.07,-103.867 1249.37,-88.3667 1292.7,-77.9196"/>
<polygon fill="midnightblue" stroke="midnightblue" points="1293.53,-81.3218 1302.43,-75.5756 1291.89,-74.5167 1293.53,-81.3218"/>
</g>
<!-- Node17&#45;&gt;Node13 -->
<g id="edge36" class="edge"><title>Node17&#45;&gt;Node13</title>
<path fill="none" stroke="midnightblue" d="M1137.77,-56.324C1121.65,-47.7034 1096.7,-34.3643 1078.04,-24.3855"/>
<polygon fill="midnightblue" stroke="midnightblue" points="1079.66,-21.283 1069.19,-19.6545 1076.36,-27.456 1079.66,-21.283"/>
</g>
<!-- Node17&#45;&gt;Node15 -->
<g id="edge34" class="edge"><title>Node17&#45;&gt;Node15</title>
<path fill="none" stroke="midnightblue" d="M1163.48,-56.324C1172.2,-48.3414 1185.34,-36.3128 1195.9,-26.6529"/>
<polygon fill="midnightblue" stroke="midnightblue" points="1198.33,-29.1674 1203.35,-19.8339 1193.61,-24.0036 1198.33,-29.1674"/>
</g>
</g>
</svg>
