<?xml version="1.0" encoding="UTF-8" standalone="no"?>
<!DOCTYPE svg PUBLIC "-//W3C//DTD SVG 1.1//EN"
 "http://www.w3.org/Graphics/SVG/1.1/DTD/svg11.dtd">
<!-- Generated by graphviz version 8.1.0 (20230707.2238)
 -->
<!-- Title: src/chemistry0d.h Pages: 1 -->
<svg width="1676pt" height="212pt"
 viewBox="0.00 0.00 1675.75 211.75" xmlns="http://www.w3.org/2000/svg" xmlns:xlink="http://www.w3.org/1999/xlink">
<g id="graph0" class="graph" transform="scale(1 1) rotate(0) translate(4 207.75)">
<title>src/chemistry0d.h</title>
<!-- Node1 -->
<g id="Node000001" class="node">
<title>Node1</title>
<g id="a_Node000001"><a xlink:title=" ">
<polygon fill="#999999" stroke="#666666" points="910.88,-203.75 807.88,-203.75 807.88,-183 910.88,-183 910.88,-203.75"/>
<text text-anchor="middle" x="859.38" y="-190.25" font-family="FreeSans" font-size="10.00">src/chemistry0d.h</text>
</a>
</g>
</g>
<!-- Node2 -->
<g id="Node000002" class="node">
<title>Node2</title>
<g id="a_Node000002"><a xlink:href="config_8h.html" target="_top" xlink:title=" ">
<polygon fill="white" stroke="#666666" points="189.5,-140.62 135.25,-140.62 135.25,-119.88 189.5,-119.88 189.5,-140.62"/>
<text text-anchor="middle" x="162.38" y="-127.12" font-family="FreeSans" font-size="10.00">config.h</text>
</a>
</g>
</g>
<!-- Node1&#45;&gt;Node2 -->
<g id="edge1_Node000001_Node000002" class="edge">
<title>Node1&#45;&gt;Node2</title>
<g id="a_edge1_Node000001_Node000002"><a xlink:title=" ">
<path fill="none" stroke="#63b8ff" d="M807.73,-191.11C673.07,-187.46 313.72,-175.29 198.38,-147 196.06,-146.43 193.71,-145.73 191.37,-144.93"/>
<polygon fill="#63b8ff" stroke="#63b8ff" points="192.97,-141.41 182.38,-141.01 190.41,-147.92 192.97,-141.41"/>
</a>
</g>
</g>
<!-- Node3 -->
<g id="Node000003" class="node">
<title>Node3</title>
<g id="a_Node000003"><a xlink:href="mathUtils_8h.html" target="_top" xlink:title=" ">
<polygon fill="white" stroke="#666666" points="280.88,-140.62 207.88,-140.62 207.88,-119.88 280.88,-119.88 280.88,-140.62"/>
<text text-anchor="middle" x="244.38" y="-127.12" font-family="FreeSans" font-size="10.00">mathUtils.h</text>
</a>
</g>
</g>
<!-- Node1&#45;&gt;Node3 -->
<g id="edge2_Node000001_Node000003" class="edge">
<title>Node1&#45;&gt;Node3</title>
<g id="a_edge2_Node000001_Node000003"><a xlink:title=" ">
<path fill="none" stroke="#63b8ff" d="M807.76,-192.55C707.13,-191.96 478.13,-185.98 290.38,-147 286.9,-146.28 283.33,-145.37 279.79,-144.36"/>
<polygon fill="#63b8ff" stroke="#63b8ff" points="280.95,-140.74 270.37,-141.07 278.85,-147.42 280.95,-140.74"/>
</a>
</g>
</g>
<!-- Node16 -->
<g id="Node000016" class="node">
<title>Node16</title>
<g id="a_Node000016"><a xlink:title=" ">
<polygon fill="#e0e0e0" stroke="#999999" points="473.88,-140.62 298.88,-140.62 298.88,-119.88 473.88,-119.88 473.88,-140.62"/>
<text text-anchor="middle" x="386.38" y="-127.12" font-family="FreeSans" font-size="10.00">cantera/transport/MixTransport.h</text>
</a>
</g>
</g>
<!-- Node1&#45;&gt;Node16 -->
<g id="edge17_Node000001_Node000016" class="edge">
<title>Node1&#45;&gt;Node16</title>
<g id="a_edge17_Node000001_Node000016"><a xlink:title=" ">
<path fill="none" stroke="#63b8ff" d="M807.45,-186.84C734.67,-178.91 598.23,-163.47 482.38,-147 473.42,-145.73 464.01,-144.3 454.73,-142.83"/>
<polygon fill="#63b8ff" stroke="#63b8ff" points="455.36,-139.23 444.93,-141.1 454.25,-146.14 455.36,-139.23"/>
</a>
</g>
</g>
<!-- Node17 -->
<g id="Node000017" class="node">
<title>Node17</title>
<g id="a_Node000017"><a xlink:title=" ">
<polygon fill="#e0e0e0" stroke="#999999" points="673.25,-140.62 491.5,-140.62 491.5,-119.88 673.25,-119.88 673.25,-140.62"/>
<text text-anchor="middle" x="582.38" y="-127.12" font-family="FreeSans" font-size="10.00">cantera/transport/MultiTransport.h</text>
</a>
</g>
</g>
<!-- Node1&#45;&gt;Node17 -->
<g id="edge18_Node000001_Node000017" class="edge">
<title>Node1&#45;&gt;Node17</title>
<g id="a_edge18_Node000001_Node000017"><a xlink:title=" ">
<path fill="none" stroke="#63b8ff" d="M814.87,-182.55C766.61,-171.91 689.53,-154.89 637.48,-143.41"/>
<polygon fill="#63b8ff" stroke="#63b8ff" points="638.29,-139.78 627.77,-141.05 636.78,-146.62 638.29,-139.78"/>
</a>
</g>
</g>
<!-- Node18 -->
<g id="Node000018" class="node">
<title>Node18</title>
<g id="a_Node000018"><a xlink:title=" ">
<polygon fill="#e0e0e0" stroke="#999999" points="847.88,-147 690.88,-147 690.88,-113.5 847.88,-113.5 847.88,-147"/>
<text text-anchor="start" x="698.88" y="-133.5" font-family="FreeSans" font-size="10.00">cantera/transport/UnityLewis</text>
<text text-anchor="middle" x="769.38" y="-120.75" font-family="FreeSans" font-size="10.00">Transport.h</text>
</a>
</g>
</g>
<!-- Node1&#45;&gt;Node18 -->
<g id="edge19_Node000001_Node000018" class="edge">
<title>Node1&#45;&gt;Node18</title>
<g id="a_edge19_Node000001_Node000018"><a xlink:title=" ">
<path fill="none" stroke="#63b8ff" d="M844.91,-182.55C833.39,-174.73 816.81,-163.47 802.12,-153.49"/>
<polygon fill="#63b8ff" stroke="#63b8ff" points="804.52,-150.21 794.28,-147.48 800.59,-156 804.52,-150.21"/>
</a>
</g>
</g>
<!-- Node19 -->
<g id="Node000019" class="node">
<title>Node19</title>
<g id="a_Node000019"><a xlink:title=" ">
<polygon fill="#e0e0e0" stroke="#999999" points="1032.75,-140.62 866,-140.62 866,-119.88 1032.75,-119.88 1032.75,-140.62"/>
<text text-anchor="middle" x="949.38" y="-127.12" font-family="FreeSans" font-size="10.00">cantera/kinetics/BulkKinetics.h</text>
</a>
</g>
</g>
<!-- Node1&#45;&gt;Node19 -->
<g id="edge20_Node000001_Node000019" class="edge">
<title>Node1&#45;&gt;Node19</title>
<g id="a_edge20_Node000001_Node000019"><a xlink:title=" ">
<path fill="none" stroke="#63b8ff" d="M873.84,-182.55C887.87,-173.02 909.42,-158.38 925.92,-147.18"/>
<polygon fill="#63b8ff" stroke="#63b8ff" points="927.64,-149.56 933.95,-141.05 923.71,-143.77 927.64,-149.56"/>
</a>
</g>
</g>
<!-- Node20 -->
<g id="Node000020" class="node">
<title>Node20</title>
<g id="a_Node000020"><a xlink:title=" ">
<polygon fill="#e0e0e0" stroke="#999999" points="1190.25,-147 1050.5,-147 1050.5,-113.5 1190.25,-113.5 1190.25,-147"/>
<text text-anchor="start" x="1058.5" y="-133.5" font-family="FreeSans" font-size="10.00">cantera/kinetics/Reaction</text>
<text text-anchor="middle" x="1120.38" y="-120.75" font-family="FreeSans" font-size="10.00">Rate.h</text>
</a>
</g>
</g>
<!-- Node1&#45;&gt;Node20 -->
<g id="edge21_Node000001_Node000020" class="edge">
<title>Node1&#45;&gt;Node20</title>
<g id="a_edge21_Node000001_Node000020"><a xlink:title=" ">
<path fill="none" stroke="#63b8ff" d="M901.31,-182.55C938.74,-173.79 994.58,-160.71 1040.51,-149.95"/>
<polygon fill="#63b8ff" stroke="#63b8ff" points="1041.11,-153.17 1050.05,-147.48 1039.52,-146.36 1041.11,-153.17"/>
</a>
</g>
</g>
<!-- Node21 -->
<g id="Node000021" class="node">
<title>Node21</title>
<g id="a_Node000021"><a xlink:title=" ">
<polygon fill="#e0e0e0" stroke="#999999" points="1348.25,-147 1208.5,-147 1208.5,-113.5 1348.25,-113.5 1348.25,-147"/>
<text text-anchor="start" x="1216.5" y="-133.5" font-family="FreeSans" font-size="10.00">cantera/kinetics/Reaction</text>
<text text-anchor="middle" x="1278.38" y="-120.75" font-family="FreeSans" font-size="10.00">Data.h</text>
</a>
</g>
</g>
<!-- Node1&#45;&gt;Node21 -->
<g id="edge22_Node000001_Node000021" class="edge">
<title>Node1&#45;&gt;Node21</title>
<g id="a_edge22_Node000001_Node000021"><a xlink:title=" ">
<path fill="none" stroke="#63b8ff" d="M911.37,-186.49C976.05,-178.93 1090.1,-164.84 1197.5,-147.25"/>
<polygon fill="#63b8ff" stroke="#63b8ff" points="1197.91,-150.57 1207.21,-145.48 1196.77,-143.66 1197.91,-150.57"/>
</a>
</g>
</g>
<!-- Node22 -->
<g id="Node000022" class="node">
<title>Node22</title>
<g id="a_Node000022"><a xlink:title=" ">
<polygon fill="#e0e0e0" stroke="#999999" points="1518.62,-140.62 1366.12,-140.62 1366.12,-119.88 1518.62,-119.88 1518.62,-140.62"/>
<text text-anchor="middle" x="1442.38" y="-127.12" font-family="FreeSans" font-size="10.00">cantera/kinetics/Arrhenius.h</text>
</a>
</g>
</g>
<!-- Node1&#45;&gt;Node22 -->
<g id="edge23_Node000001_Node000022" class="edge">
<title>Node1&#45;&gt;Node22</title>
<g id="a_edge23_Node000001_Node000022"><a xlink:title=" ">
<path fill="none" stroke="#63b8ff" d="M911.17,-189.24C1001.88,-183.39 1195.26,-169.36 1357.38,-147 1365.63,-145.86 1374.31,-144.47 1382.83,-143"/>
<polygon fill="#63b8ff" stroke="#63b8ff" points="1383.27,-146.3 1392.51,-141.1 1382.05,-139.41 1383.27,-146.3"/>
</a>
</g>
</g>
<!-- Node23 -->
<g id="Node000023" class="node">
<title>Node23</title>
<g id="a_Node000023"><a xlink:title=" ">
<polygon fill="#e0e0e0" stroke="#999999" points="1667.75,-140.62 1537,-140.62 1537,-119.88 1667.75,-119.88 1667.75,-140.62"/>
<text text-anchor="middle" x="1602.38" y="-127.12" font-family="FreeSans" font-size="10.00">cantera/base/Solution.h</text>
</a>
</g>
</g>
<!-- Node1&#45;&gt;Node23 -->
<g id="edge24_Node000001_Node000023" class="edge">
<title>Node1&#45;&gt;Node23</title>
<g id="a_edge24_Node000001_Node000023"><a xlink:title=" ">
<path fill="none" stroke="#63b8ff" d="M911.17,-191.31C1023.77,-188.45 1299.1,-178.57 1527.38,-147 1534.72,-145.98 1542.42,-144.66 1549.98,-143.22"/>
<polygon fill="#63b8ff" stroke="#63b8ff" points="1550.39,-146.51 1559.51,-141.12 1549.02,-139.64 1550.39,-146.51"/>
</a>
</g>
</g>
<!-- Node4 -->
<g id="Node000004" class="node">
<title>Node4</title>
<g id="a_Node000004"><a xlink:title=" ">
<polygon fill="#e0e0e0" stroke="#999999" points="46.75,-77.5 0,-77.5 0,-56.75 46.75,-56.75 46.75,-77.5"/>
<text text-anchor="middle" x="23.38" y="-64" font-family="FreeSans" font-size="10.00">vector</text>
</a>
</g>
</g>
<!-- Node3&#45;&gt;Node4 -->
<g id="edge3_Node000003_Node000004" class="edge">
<title>Node3&#45;&gt;Node4</title>
<g id="a_edge3_Node000003_Node000004"><a xlink:title=" ">
<path fill="none" stroke="#63b8ff" d="M216.76,-119.39C210.73,-117.35 204.36,-115.28 198.38,-113.5 139.14,-95.88 121.07,-94.5 57.72,-77.78"/>
<polygon fill="#63b8ff" stroke="#63b8ff" points="58.71,-74.16 48.15,-74.97 56.91,-80.92 58.71,-74.16"/>
</a>
</g>
</g>
<!-- Node5 -->
<g id="Node000005" class="node">
<title>Node5</title>
<g id="a_Node000005"><a xlink:title=" ">
<polygon fill="#e0e0e0" stroke="#999999" points="111.75,-77.5 65,-77.5 65,-56.75 111.75,-56.75 111.75,-77.5"/>
<text text-anchor="middle" x="88.38" y="-64" font-family="FreeSans" font-size="10.00">cmath</text>
</a>
</g>
</g>
<!-- Node3&#45;&gt;Node5 -->
<g id="edge4_Node000003_Node000005" class="edge">
<title>Node3&#45;&gt;Node5</title>
<g id="a_edge4_Node000003_Node000005"><a xlink:title=" ">
<path fill="none" stroke="#63b8ff" d="M219.31,-119.43C193,-109.12 151.47,-92.85 122.26,-81.4"/>
<polygon fill="#63b8ff" stroke="#63b8ff" points="123.69,-77.81 113.1,-77.42 121.13,-84.33 123.69,-77.81"/>
</a>
</g>
</g>
<!-- Node6 -->
<g id="Node000006" class="node">
<title>Node6</title>
<g id="a_Node000006"><a xlink:title=" ">
<polygon fill="#e0e0e0" stroke="#999999" points="137.12,-20.75 77.62,-20.75 77.62,0 137.12,0 137.12,-20.75"/>
<text text-anchor="middle" x="107.38" y="-7.25" font-family="FreeSans" font-size="10.00">iostream</text>
</a>
</g>
</g>
<!-- Node3&#45;&gt;Node6 -->
<g id="edge5_Node000003_Node000006" class="edge">
<title>Node3&#45;&gt;Node6</title>
<g id="a_edge5_Node000003_Node000006"><a xlink:title=" ">
<path fill="none" stroke="#63b8ff" d="M233.1,-119.75C220.83,-109.41 200.65,-92.34 183.38,-77.5 163.97,-60.83 141.92,-41.62 126.59,-28.21"/>
<polygon fill="#63b8ff" stroke="#63b8ff" points="129.24,-25.01 119.41,-21.06 124.63,-30.27 129.24,-25.01"/>
</a>
</g>
</g>
<!-- Node7 -->
<g id="Node000007" class="node">
<title>Node7</title>
<g id="a_Node000007"><a xlink:title=" ">
<polygon fill="#e0e0e0" stroke="#999999" points="357.25,-77.5 301.5,-77.5 301.5,-56.75 357.25,-56.75 357.25,-77.5"/>
<text text-anchor="middle" x="329.38" y="-64" font-family="FreeSans" font-size="10.00">sstream</text>
</a>
</g>
</g>
<!-- Node3&#45;&gt;Node7 -->
<g id="edge6_Node000003_Node000007" class="edge">
<title>Node3&#45;&gt;Node7</title>
<g id="a_edge6_Node000003_Node000007"><a xlink:title=" ">
<path fill="none" stroke="#63b8ff" d="M258.03,-119.43C271.29,-109.89 291.64,-95.26 307.22,-84.06"/>
<polygon fill="#63b8ff" stroke="#63b8ff" points="308.68,-86.6 314.75,-77.92 304.59,-80.92 308.68,-86.6"/>
</a>
</g>
</g>
<!-- Node8 -->
<g id="Node000008" class="node">
<title>Node8</title>
<g id="a_Node000008"><a xlink:title=" ">
<polygon fill="#e0e0e0" stroke="#999999" points="199.25,-20.75 155.5,-20.75 155.5,0 199.25,0 199.25,-20.75"/>
<text text-anchor="middle" x="177.38" y="-7.25" font-family="FreeSans" font-size="10.00">string</text>
</a>
</g>
</g>
<!-- Node3&#45;&gt;Node8 -->
<g id="edge7_Node000003_Node000008" class="edge">
<title>Node3&#45;&gt;Node8</title>
<g id="a_edge7_Node000003_Node000008"><a xlink:title=" ">
<path fill="none" stroke="#63b8ff" d="M232.84,-119.72C221.94,-110.12 205.89,-94.36 196.38,-77.5 188.29,-63.18 183.41,-45.14 180.62,-31.52"/>
<polygon fill="#63b8ff" stroke="#63b8ff" points="183.92,-31.1 178.68,-21.89 177.03,-32.36 183.92,-31.1"/>
</a>
</g>
</g>
<!-- Node9 -->
<g id="Node000009" class="node">
<title>Node9</title>
<g id="a_Node000009"><a xlink:title=" ">
<polygon fill="#e0e0e0" stroke="#999999" points="413.25,-77.5 375.5,-77.5 375.5,-56.75 413.25,-56.75 413.25,-77.5"/>
<text text-anchor="middle" x="394.38" y="-64" font-family="FreeSans" font-size="10.00">map</text>
</a>
</g>
</g>
<!-- Node3&#45;&gt;Node9 -->
<g id="edge8_Node000003_Node000009" class="edge">
<title>Node3&#45;&gt;Node9</title>
<g id="a_edge8_Node000003_Node000009"><a xlink:title=" ">
<path fill="none" stroke="#63b8ff" d="M268.48,-119.43C294.76,-108.72 336.85,-91.57 365.04,-80.08"/>
<polygon fill="#63b8ff" stroke="#63b8ff" points="366.16,-82.99 374.1,-75.98 363.52,-76.51 366.16,-82.99"/>
</a>
</g>
</g>
<!-- Node10 -->
<g id="Node000010" class="node">
<title>Node10</title>
<g id="a_Node000010"><a xlink:href="debugUtils_8h.html" target="_top" xlink:title=" ">
<polygon fill="white" stroke="#666666" points="283.12,-77.5 205.62,-77.5 205.62,-56.75 283.12,-56.75 283.12,-77.5"/>
<text text-anchor="middle" x="244.38" y="-64" font-family="FreeSans" font-size="10.00">debugUtils.h</text>
</a>
</g>
</g>
<!-- Node3&#45;&gt;Node10 -->
<g id="edge9_Node000003_Node000010" class="edge">
<title>Node3&#45;&gt;Node10</title>
<g id="a_edge9_Node000003_Node000010"><a xlink:title=" ">
<path fill="none" stroke="#63b8ff" d="M244.38,-119.43C244.38,-111.09 244.38,-98.86 244.38,-88.43"/>
<polygon fill="#63b8ff" stroke="#63b8ff" points="247.88,-88.72 244.38,-78.72 240.88,-88.72 247.88,-88.72"/>
</a>
</g>
</g>
<!-- Node14 -->
<g id="Node000014" class="node">
<title>Node14</title>
<g id="a_Node000014"><a xlink:title=" ">
<polygon fill="#e0e0e0" stroke="#999999" points="557.5,-77.5 431.25,-77.5 431.25,-56.75 557.5,-56.75 557.5,-77.5"/>
<text text-anchor="middle" x="494.38" y="-64" font-family="FreeSans" font-size="10.00">cantera/base/ct_defs.h</text>
</a>
</g>
</g>
<!-- Node3&#45;&gt;Node14 -->
<g id="edge15_Node000003_Node000014" class="edge">
<title>Node3&#45;&gt;Node14</title>
<g id="a_edge15_Node000003_Node000014"><a xlink:title=" ">
<path fill="none" stroke="#63b8ff" d="M271.46,-119.42C277.64,-117.33 284.2,-115.24 290.38,-113.5 337.5,-100.23 391.63,-88.35 432.28,-80.07"/>
<polygon fill="#63b8ff" stroke="#63b8ff" points="432.73,-83.35 441.84,-77.94 431.35,-76.49 432.73,-83.35"/>
</a>
</g>
</g>
<!-- Node15 -->
<g id="Node000015" class="node">
<title>Node15</title>
<g id="a_Node000015"><a xlink:title=" ">
<polygon fill="#e0e0e0" stroke="#999999" points="688.75,-77.5 576,-77.5 576,-56.75 688.75,-56.75 688.75,-77.5"/>
<text text-anchor="middle" x="632.38" y="-64" font-family="FreeSans" font-size="10.00">eigen3/Eigen/Dense</text>
</a>
</g>
</g>
<!-- Node3&#45;&gt;Node15 -->
<g id="edge16_Node000003_Node000015" class="edge">
<title>Node3&#45;&gt;Node15</title>
<g id="a_edge16_Node000003_Node000015"><a xlink:title=" ">
<path fill="none" stroke="#63b8ff" d="M269.9,-119.5C276.49,-117.26 283.64,-115.08 290.38,-113.5 407.54,-86.09 441.93,-93.74 565.24,-77.61"/>
<polygon fill="#63b8ff" stroke="#63b8ff" points="565.41,-80.99 574.86,-76.2 564.48,-74.05 565.41,-80.99"/>
</a>
</g>
</g>
<!-- Node10&#45;&gt;Node6 -->
<g id="edge11_Node000010_Node000006" class="edge">
<title>Node10&#45;&gt;Node6</title>
<g id="a_edge11_Node000010_Node000006"><a xlink:title=" ">
<path fill="none" stroke="#63b8ff" d="M219.88,-56.34C198.06,-47.62 165.91,-34.77 141.56,-25.04"/>
<polygon fill="#63b8ff" stroke="#63b8ff" points="143.24,-21.54 132.66,-21.08 140.64,-28.04 143.24,-21.54"/>
</a>
</g>
</g>
<!-- Node10&#45;&gt;Node8 -->
<g id="edge10_Node000010_Node000008" class="edge">
<title>Node10&#45;&gt;Node8</title>
<g id="a_edge10_Node000010_Node000008"><a xlink:title=" ">
<path fill="none" stroke="#63b8ff" d="M232.4,-56.34C222.77,-48.47 209.04,-37.25 197.7,-27.99"/>
<polygon fill="#63b8ff" stroke="#63b8ff" points="200.21,-24.7 190.25,-21.08 195.78,-30.12 200.21,-24.7"/>
</a>
</g>
</g>
<!-- Node11 -->
<g id="Node000011" class="node">
<title>Node11</title>
<g id="a_Node000011"><a xlink:title=" ">
<polygon fill="#e0e0e0" stroke="#999999" points="271.5,-20.75 217.25,-20.75 217.25,0 271.5,0 271.5,-20.75"/>
<text text-anchor="middle" x="244.38" y="-7.25" font-family="FreeSans" font-size="10.00">fstream</text>
</a>
</g>
</g>
<!-- Node10&#45;&gt;Node11 -->
<g id="edge12_Node000010_Node000011" class="edge">
<title>Node10&#45;&gt;Node11</title>
<g id="a_edge12_Node000010_Node000011"><a xlink:title=" ">
<path fill="none" stroke="#63b8ff" d="M244.38,-56.34C244.38,-49.56 244.38,-40.3 244.38,-31.94"/>
<polygon fill="#63b8ff" stroke="#63b8ff" points="247.88,-32.08 244.38,-22.08 240.88,-32.08 247.88,-32.08"/>
</a>
</g>
</g>
<!-- Node12 -->
<g id="Node000012" class="node">
<title>Node12</title>
<g id="a_Node000012"><a xlink:title=" ">
<polygon fill="#e0e0e0" stroke="#999999" points="353.38,-20.75 289.38,-20.75 289.38,0 353.38,0 353.38,-20.75"/>
<text text-anchor="middle" x="321.38" y="-7.25" font-family="FreeSans" font-size="10.00">exception</text>
</a>
</g>
</g>
<!-- Node10&#45;&gt;Node12 -->
<g id="edge13_Node000010_Node000012" class="edge">
<title>Node10&#45;&gt;Node12</title>
<g id="a_edge13_Node000010_Node000012"><a xlink:title=" ">
<path fill="none" stroke="#63b8ff" d="M258.14,-56.34C269.42,-48.32 285.61,-36.81 298.78,-27.44"/>
<polygon fill="#63b8ff" stroke="#63b8ff" points="300.61,-29.73 306.73,-21.08 296.55,-24.02 300.61,-29.73"/>
</a>
</g>
</g>
<!-- Node13 -->
<g id="Node000013" class="node">
<title>Node13</title>
<g id="a_Node000013"><a xlink:title=" ">
<polygon fill="#e0e0e0" stroke="#999999" points="471.38,-20.75 371.38,-20.75 371.38,0 471.38,0 471.38,-20.75"/>
<text text-anchor="middle" x="421.38" y="-7.25" font-family="FreeSans" font-size="10.00">boost/format.hpp</text>
</a>
</g>
</g>
<!-- Node10&#45;&gt;Node13 -->
<g id="edge14_Node000010_Node000013" class="edge">
<title>Node10&#45;&gt;Node13</title>
<g id="a_edge14_Node000010_Node000013"><a xlink:title=" ">
<path fill="none" stroke="#63b8ff" d="M276.02,-56.34C304.88,-47.41 347.72,-34.16 379.42,-24.35"/>
<polygon fill="#63b8ff" stroke="#63b8ff" points="380.19,-27.47 388.71,-21.17 378.12,-20.78 380.19,-27.47"/>
</a>
</g>
</g>
</g>
</svg>
