<?xml version="1.0" encoding="UTF-8" standalone="no"?>
<!DOCTYPE svg PUBLIC "-//W3C//DTD SVG 1.1//EN"
 "http://www.w3.org/Graphics/SVG/1.1/DTD/svg11.dtd">
<!-- Generated by graphviz version 2.28.0 (20120425.2022)
 -->
<!-- Title: G Pages: 1 -->
<svg width="1479pt" height="252pt"
 viewBox="0.00 0.00 1479.00 252.00" xmlns="http://www.w3.org/2000/svg" xmlns:xlink="http://www.w3.org/1999/xlink">
<g id="graph1" class="graph" transform="scale(1 1) rotate(0) translate(4 248)">
<title>G</title>
<polygon fill="white" stroke="white" points="-4,5 -4,-248 1476,-248 1476,5 -4,5"/>
<!-- Node1 -->
<g id="node1" class="node"><title>Node1</title>
<polygon fill="#bfbfbf" stroke="black" points="1209.5,-224.5 1209.5,-243.5 1314.5,-243.5 1314.5,-224.5 1209.5,-224.5"/>
<text text-anchor="middle" x="1262" y="-231.5" font-family="FreeSans" font-size="10.00">src/chemistry0d.cpp</text>
</g>
<!-- Node2 -->
<g id="node3" class="node"><title>Node2</title>
<a xlink:href="chemistry0d_8h.html" target="_top" xlink:title="chemistry0d.h">
<polygon fill="white" stroke="black" points="649,-168.5 649,-187.5 727,-187.5 727,-168.5 649,-168.5"/>
<text text-anchor="middle" x="688" y="-175.5" font-family="FreeSans" font-size="10.00">chemistry0d.h</text>
</a>
</g>
<!-- Node1&#45;&gt;Node2 -->
<g id="edge2" class="edge"><title>Node1&#45;&gt;Node2</title>
<path fill="none" stroke="midnightblue" d="M1209.28,-228.041C1098.91,-217.657 844.867,-193.758 737.422,-183.649"/>
<polygon fill="midnightblue" stroke="midnightblue" points="737.471,-180.139 727.187,-182.687 736.815,-187.108 737.471,-180.139"/>
</g>
<!-- Node12 -->
<g id="node23" class="node"><title>Node12</title>
<a xlink:href="debugUtils_8h.html" target="_top" xlink:title="debugUtils.h">
<polygon fill="white" stroke="red" points="1152.5,-0.5 1152.5,-19.5 1223.5,-19.5 1223.5,-0.5 1152.5,-0.5"/>
<text text-anchor="middle" x="1188" y="-7.5" font-family="FreeSans" font-size="10.00">debugUtils.h</text>
</a>
</g>
<!-- Node1&#45;&gt;Node12 -->
<g id="edge30" class="edge"><title>Node1&#45;&gt;Node12</title>
<path fill="none" stroke="midnightblue" d="M1257.43,-224.2C1252.88,-215.247 1245.91,-200.891 1241,-188 1219.46,-131.418 1200.87,-62.054 1192.59,-29.514"/>
<polygon fill="midnightblue" stroke="midnightblue" points="1195.94,-28.4664 1190.1,-19.6212 1189.15,-30.1728 1195.94,-28.4664"/>
</g>
<!-- Node14 -->
<g id="node28" class="node"><title>Node14</title>
<polygon fill="white" stroke="#bfbfbf" points="1249.5,-168.5 1249.5,-187.5 1356.5,-187.5 1356.5,-168.5 1249.5,-168.5"/>
<text text-anchor="middle" x="1303" y="-175.5" font-family="FreeSans" font-size="10.00">boost/filesystem.hpp</text>
</g>
<!-- Node1&#45;&gt;Node14 -->
<g id="edge28" class="edge"><title>Node1&#45;&gt;Node14</title>
<path fill="none" stroke="midnightblue" d="M1268.77,-224.083C1274.56,-216.455 1283.06,-205.264 1290.14,-195.941"/>
<polygon fill="midnightblue" stroke="midnightblue" points="1293.1,-197.832 1296.36,-187.751 1287.52,-193.599 1293.1,-197.832"/>
</g>
<!-- Node15 -->
<g id="node31" class="node"><title>Node15</title>
<polygon fill="white" stroke="#bfbfbf" points="1375,-168.5 1375,-187.5 1471,-187.5 1471,-168.5 1375,-168.5"/>
<text text-anchor="middle" x="1423" y="-175.5" font-family="FreeSans" font-size="10.00">boost/foreach.hpp</text>
</g>
<!-- Node1&#45;&gt;Node15 -->
<g id="edge32" class="edge"><title>Node1&#45;&gt;Node15</title>
<path fill="none" stroke="midnightblue" d="M1287.51,-224.444C1314.6,-215.359 1357.59,-200.939 1387.87,-190.783"/>
<polygon fill="midnightblue" stroke="midnightblue" points="1389.24,-194.015 1397.61,-187.516 1387.01,-187.378 1389.24,-194.015"/>
</g>
<!-- Node3 -->
<g id="node5" class="node"><title>Node3</title>
<polygon fill="white" stroke="#bfbfbf" points="-0.5,-112.5 -0.5,-131.5 118.5,-131.5 118.5,-112.5 -0.5,-112.5"/>
<text text-anchor="middle" x="59" y="-119.5" font-family="FreeSans" font-size="10.00">cantera/IdealGasMix.h</text>
</g>
<!-- Node2&#45;&gt;Node3 -->
<g id="edge4" class="edge"><title>Node2&#45;&gt;Node3</title>
<path fill="none" stroke="midnightblue" d="M648.828,-174.555C558.858,-168.791 330.295,-153.295 128.861,-132.152"/>
<polygon fill="midnightblue" stroke="midnightblue" points="128.996,-128.647 118.683,-131.076 128.26,-135.608 128.996,-128.647"/>
</g>
<!-- Node4 -->
<g id="node7" class="node"><title>Node4</title>
<polygon fill="white" stroke="#bfbfbf" points="136.5,-112.5 136.5,-131.5 245.5,-131.5 245.5,-112.5 136.5,-112.5"/>
<text text-anchor="middle" x="191" y="-119.5" font-family="FreeSans" font-size="10.00">cantera/equilibrium.h</text>
</g>
<!-- Node2&#45;&gt;Node4 -->
<g id="edge6" class="edge"><title>Node2&#45;&gt;Node4</title>
<path fill="none" stroke="midnightblue" d="M648.838,-173.409C574.45,-166.483 407.358,-150.43 255.758,-132.052"/>
<polygon fill="midnightblue" stroke="midnightblue" points="256.146,-128.574 245.796,-130.838 255.299,-135.522 256.146,-128.574"/>
</g>
<!-- Node5 -->
<g id="node9" class="node"><title>Node5</title>
<polygon fill="white" stroke="#bfbfbf" points="264,-112.5 264,-131.5 356,-131.5 356,-112.5 264,-112.5"/>
<text text-anchor="middle" x="310" y="-119.5" font-family="FreeSans" font-size="10.00">cantera/thermo.h</text>
</g>
<!-- Node2&#45;&gt;Node5 -->
<g id="edge8" class="edge"><title>Node2&#45;&gt;Node5</title>
<path fill="none" stroke="midnightblue" d="M648.805,-171.786C589.977,-163.903 475.098,-148.285 366.303,-132.016"/>
<polygon fill="midnightblue" stroke="midnightblue" points="366.542,-128.513 356.133,-130.491 365.503,-135.436 366.542,-128.513"/>
</g>
<!-- Node6 -->
<g id="node11" class="node"><title>Node6</title>
<polygon fill="white" stroke="#bfbfbf" points="374.5,-112.5 374.5,-131.5 473.5,-131.5 473.5,-112.5 374.5,-112.5"/>
<text text-anchor="middle" x="424" y="-119.5" font-family="FreeSans" font-size="10.00">cantera/transport.h</text>
</g>
<!-- Node2&#45;&gt;Node6 -->
<g id="edge10" class="edge"><title>Node2&#45;&gt;Node6</title>
<path fill="none" stroke="midnightblue" d="M648.762,-168.974C602.804,-159.574 526.512,-143.968 475.745,-133.584"/>
<polygon fill="midnightblue" stroke="midnightblue" points="476.133,-130.091 465.635,-131.516 474.73,-136.949 476.133,-130.091"/>
</g>
<!-- Node7 -->
<g id="node13" class="node"><title>Node7</title>
<polygon fill="white" stroke="#bfbfbf" points="491.5,-112.5 491.5,-131.5 586.5,-131.5 586.5,-112.5 491.5,-112.5"/>
<text text-anchor="middle" x="539" y="-119.5" font-family="FreeSans" font-size="10.00">cantera/kinetics.h</text>
</g>
<!-- Node2&#45;&gt;Node7 -->
<g id="edge12" class="edge"><title>Node2&#45;&gt;Node7</title>
<path fill="none" stroke="midnightblue" d="M664.391,-168.444C639.542,-159.438 600.226,-145.189 572.246,-135.049"/>
<polygon fill="midnightblue" stroke="midnightblue" points="573.093,-131.633 562.499,-131.516 570.708,-138.214 573.093,-131.633"/>
</g>
<!-- Node8 -->
<g id="node15" class="node"><title>Node8</title>
<polygon fill="white" stroke="#bfbfbf" points="605,-112.5 605,-131.5 771,-131.5 771,-112.5 605,-112.5"/>
<text text-anchor="middle" x="688" y="-119.5" font-family="FreeSans" font-size="10.00">cantera/thermo/IdealGasPhase.h</text>
</g>
<!-- Node2&#45;&gt;Node8 -->
<g id="edge14" class="edge"><title>Node2&#45;&gt;Node8</title>
<path fill="none" stroke="midnightblue" d="M688,-168.083C688,-161.006 688,-150.861 688,-141.986"/>
<polygon fill="midnightblue" stroke="midnightblue" points="691.5,-141.751 688,-131.751 684.5,-141.751 691.5,-141.751"/>
</g>
<!-- Node9 -->
<g id="node17" class="node"><title>Node9</title>
<polygon fill="white" stroke="#bfbfbf" points="789,-112.5 789,-131.5 941,-131.5 941,-112.5 789,-112.5"/>
<text text-anchor="middle" x="865" y="-119.5" font-family="FreeSans" font-size="10.00">cantera/kinetics/GasKinetics.h</text>
</g>
<!-- Node2&#45;&gt;Node9 -->
<g id="edge16" class="edge"><title>Node2&#45;&gt;Node9</title>
<path fill="none" stroke="midnightblue" d="M716.046,-168.444C746.082,-159.28 793.913,-144.688 827.243,-134.519"/>
<polygon fill="midnightblue" stroke="midnightblue" points="828.542,-137.782 837.085,-131.516 826.499,-131.087 828.542,-137.782"/>
</g>
<!-- Node10 -->
<g id="node19" class="node"><title>Node10</title>
<polygon fill="white" stroke="#bfbfbf" points="959,-112.5 959,-131.5 1063,-131.5 1063,-112.5 959,-112.5"/>
<text text-anchor="middle" x="1011" y="-119.5" font-family="FreeSans" font-size="10.00">cantera/base/ctml.h</text>
</g>
<!-- Node2&#45;&gt;Node10 -->
<g id="edge18" class="edge"><title>Node2&#45;&gt;Node10</title>
<path fill="none" stroke="midnightblue" d="M727.283,-170.433C782.74,-161.161 884.498,-144.149 949.882,-133.218"/>
<polygon fill="midnightblue" stroke="midnightblue" points="950.764,-136.619 960.05,-131.518 949.61,-129.715 950.764,-136.619"/>
</g>
<!-- Node11 -->
<g id="node21" class="node"><title>Node11</title>
<a xlink:href="mathUtils_8h.html" target="_top" xlink:title="mathUtils.h">
<polygon fill="white" stroke="red" points="1123.5,-56.5 1123.5,-75.5 1188.5,-75.5 1188.5,-56.5 1123.5,-56.5"/>
<text text-anchor="middle" x="1156" y="-63.5" font-family="FreeSans" font-size="10.00">mathUtils.h</text>
</a>
</g>
<!-- Node2&#45;&gt;Node11 -->
<g id="edge20" class="edge"><title>Node2&#45;&gt;Node11</title>
<path fill="none" stroke="midnightblue" d="M727.118,-175.073C811.931,-170.466 1010.09,-157.276 1072,-132 1099.33,-120.842 1125.33,-98.2192 1140.97,-82.8348"/>
<polygon fill="midnightblue" stroke="midnightblue" points="1143.63,-85.1252 1148.16,-75.5486 1138.65,-80.2088 1143.63,-85.1252"/>
</g>
<!-- Node13 -->
<g id="node25" class="node"><title>Node13</title>
<a xlink:href="readConfig_8h.html" target="_top" xlink:title="readConfig.h">
<polygon fill="white" stroke="red" points="1119,-112.5 1119,-131.5 1193,-131.5 1193,-112.5 1119,-112.5"/>
<text text-anchor="middle" x="1156" y="-119.5" font-family="FreeSans" font-size="10.00">readConfig.h</text>
</a>
</g>
<!-- Node2&#45;&gt;Node13 -->
<g id="edge24" class="edge"><title>Node2&#45;&gt;Node13</title>
<path fill="none" stroke="midnightblue" d="M727.203,-173.655C801.229,-167.142 966.582,-151.659 1105,-132 1106.28,-131.819 1107.57,-131.629 1108.88,-131.434"/>
<polygon fill="midnightblue" stroke="midnightblue" points="1109.67,-134.852 1119,-129.83 1108.57,-127.938 1109.67,-134.852"/>
</g>
<!-- Node11&#45;&gt;Node12 -->
<g id="edge22" class="edge"><title>Node11&#45;&gt;Node12</title>
<path fill="none" stroke="midnightblue" d="M1161.28,-56.083C1165.71,-48.6127 1172.16,-37.7244 1177.62,-28.5199"/>
<polygon fill="midnightblue" stroke="midnightblue" points="1180.73,-30.1383 1182.81,-19.7511 1174.71,-26.5697 1180.73,-30.1383"/>
</g>
<!-- Node13&#45;&gt;Node11 -->
<g id="edge26" class="edge"><title>Node13&#45;&gt;Node11</title>
<path fill="none" stroke="midnightblue" d="M1156,-112.083C1156,-105.006 1156,-94.8611 1156,-85.9865"/>
<polygon fill="midnightblue" stroke="midnightblue" points="1159.5,-85.751 1156,-75.7511 1152.5,-85.7511 1159.5,-85.751"/>
</g>
</g>
</svg>
