<?xml version="1.0" encoding="UTF-8" standalone="no"?>
<!DOCTYPE svg PUBLIC "-//W3C//DTD SVG 1.1//EN"
 "http://www.w3.org/Graphics/SVG/1.1/DTD/svg11.dtd">
<!-- Generated by graphviz version 2.38.0 (20140413.2041)
 -->
<!-- Title: src/chemistry0d.cpp Pages: 1 -->
<svg width="1576pt" height="263pt"
 viewBox="0.00 0.00 1576.00 263.00" xmlns="http://www.w3.org/2000/svg" xmlns:xlink="http://www.w3.org/1999/xlink">
<g id="graph0" class="graph" transform="scale(1 1) rotate(0) translate(4 259)">
<title>src/chemistry0d.cpp</title>
<polygon fill="white" stroke="none" points="-4,4 -4,-259 1572,-259 1572,4 -4,4"/>
<!-- Node1 -->
<g id="node1" class="node"><title>Node1</title>
<polygon fill="#bfbfbf" stroke="black" points="987.5,-235.5 987.5,-254.5 1089.5,-254.5 1089.5,-235.5 987.5,-235.5"/>
<text text-anchor="middle" x="1038.5" y="-242.5" font-family="FreeSans" font-size="10.00">src/chemistry0d.cpp</text>
</g>
<!-- Node2 -->
<g id="node2" class="node"><title>Node2</title>
<g id="a_node2"><a xlink:href="chemistry0d_8h.html" target="_top" xlink:title="chemistry0d.h">
<polygon fill="white" stroke="black" points="559.5,-179.5 559.5,-198.5 635.5,-198.5 635.5,-179.5 559.5,-179.5"/>
<text text-anchor="middle" x="597.5" y="-186.5" font-family="FreeSans" font-size="10.00">chemistry0d.h</text>
</a>
</g>
</g>
<!-- Node1&#45;&gt;Node2 -->
<g id="edge1" class="edge"><title>Node1&#45;&gt;Node2</title>
<path fill="none" stroke="midnightblue" d="M987.481,-237.753C901.618,-227.239 729.417,-206.153 645.575,-195.887"/>
<polygon fill="midnightblue" stroke="midnightblue" points="645.909,-192.402 635.558,-194.66 645.058,-199.35 645.909,-192.402"/>
</g>
<!-- Node11 -->
<g id="node11" class="node"><title>Node11</title>
<g id="a_node11"><a xlink:href="debugUtils_8h.html" target="_top" xlink:title="debugUtils.h">
<polygon fill="white" stroke="red" points="1052,-56.5 1052,-75.5 1121,-75.5 1121,-56.5 1052,-56.5"/>
<text text-anchor="middle" x="1086.5" y="-63.5" font-family="FreeSans" font-size="10.00">debugUtils.h</text>
</a>
</g>
</g>
<!-- Node1&#45;&gt;Node11 -->
<g id="edge19" class="edge"><title>Node1&#45;&gt;Node11</title>
<path fill="none" stroke="midnightblue" d="M1034.45,-235.092C1029.27,-222.498 1021.53,-198.812 1026.5,-179 1035.67,-142.471 1059.3,-104.849 1074.02,-83.8405"/>
<polygon fill="midnightblue" stroke="midnightblue" points="1076.9,-85.8261 1079.89,-75.6625 1071.21,-81.7421 1076.9,-85.8261"/>
</g>
<!-- Node13 -->
<g id="node13" class="node"><title>Node13</title>
<polygon fill="white" stroke="#bfbfbf" points="0,-118 0,-137 155,-137 155,-118 0,-118"/>
<text text-anchor="middle" x="77.5" y="-125" font-family="FreeSans" font-size="10.00">cantera/transport/MixTransport.h</text>
</g>
<!-- Node1&#45;&gt;Node13 -->
<g id="edge25" class="edge"><title>Node1&#45;&gt;Node13</title>
<path fill="none" stroke="midnightblue" d="M987.398,-242.025C884.851,-237.639 646.824,-225.323 448.5,-199 331.267,-183.44 195.05,-154.806 124.804,-139.248"/>
<polygon fill="midnightblue" stroke="midnightblue" points="125.45,-135.806 114.929,-137.05 123.93,-142.639 125.45,-135.806"/>
</g>
<!-- Node14 -->
<g id="node14" class="node"><title>Node14</title>
<polygon fill="white" stroke="#bfbfbf" points="173,-118 173,-137 334,-137 334,-118 173,-118"/>
<text text-anchor="middle" x="253.5" y="-125" font-family="FreeSans" font-size="10.00">cantera/transport/MultiTransport.h</text>
</g>
<!-- Node1&#45;&gt;Node14 -->
<g id="edge26" class="edge"><title>Node1&#45;&gt;Node14</title>
<path fill="none" stroke="midnightblue" d="M987.264,-241.658C898.041,-237.049 708.556,-224.914 550.5,-199 457.204,-183.704 349.709,-155.49 293.11,-139.791"/>
<polygon fill="midnightblue" stroke="midnightblue" points="293.722,-136.328 283.149,-137.011 291.84,-143.07 293.722,-136.328"/>
</g>
<!-- Node18 -->
<g id="node18" class="node"><title>Node18</title>
<g id="a_node18"><a xlink:href="readConfig_8h.html" target="_top" xlink:title="readConfig.h">
<polygon fill="white" stroke="black" points="1035.5,-179.5 1035.5,-198.5 1105.5,-198.5 1105.5,-179.5 1035.5,-179.5"/>
<text text-anchor="middle" x="1070.5" y="-186.5" font-family="FreeSans" font-size="10.00">readConfig.h</text>
</a>
</g>
</g>
<!-- Node1&#45;&gt;Node18 -->
<g id="edge20" class="edge"><title>Node1&#45;&gt;Node18</title>
<path fill="none" stroke="midnightblue" d="M1043.78,-235.083C1048.21,-227.613 1054.66,-216.724 1060.12,-207.52"/>
<polygon fill="midnightblue" stroke="midnightblue" points="1063.23,-209.138 1065.31,-198.751 1057.21,-205.57 1063.23,-209.138"/>
</g>
<!-- Node19 -->
<g id="node19" class="node"><title>Node19</title>
<polygon fill="white" stroke="#bfbfbf" points="1123.5,-179.5 1123.5,-198.5 1281.5,-198.5 1281.5,-179.5 1123.5,-179.5"/>
<text text-anchor="middle" x="1202.5" y="-186.5" font-family="FreeSans" font-size="10.00">cantera/thermo/ThermoFactory.h</text>
</g>
<!-- Node1&#45;&gt;Node19 -->
<g id="edge23" class="edge"><title>Node1&#45;&gt;Node19</title>
<path fill="none" stroke="midnightblue" d="M1064.49,-235.444C1092.2,-226.32 1136.25,-211.813 1167.12,-201.651"/>
<polygon fill="midnightblue" stroke="midnightblue" points="1168.23,-204.968 1176.64,-198.516 1166.04,-198.32 1168.23,-204.968"/>
</g>
<!-- Node20 -->
<g id="node20" class="node"><title>Node20</title>
<polygon fill="white" stroke="#bfbfbf" points="1300,-179.5 1300,-198.5 1457,-198.5 1457,-179.5 1300,-179.5"/>
<text text-anchor="middle" x="1378.5" y="-186.5" font-family="FreeSans" font-size="10.00">cantera/kinetics/importKinetics.h</text>
</g>
<!-- Node1&#45;&gt;Node20 -->
<g id="edge24" class="edge"><title>Node1&#45;&gt;Node20</title>
<path fill="none" stroke="midnightblue" d="M1089.77,-235.857C1149.9,-226.306 1249.63,-210.468 1314.71,-200.131"/>
<polygon fill="midnightblue" stroke="midnightblue" points="1315.52,-203.547 1324.85,-198.522 1314.42,-196.634 1315.52,-203.547"/>
</g>
<!-- Node21 -->
<g id="node21" class="node"><title>Node21</title>
<polygon fill="white" stroke="#bfbfbf" points="1475,-179.5 1475,-198.5 1568,-198.5 1568,-179.5 1475,-179.5"/>
<text text-anchor="middle" x="1521.5" y="-186.5" font-family="FreeSans" font-size="10.00">boost/foreach.hpp</text>
</g>
<!-- Node1&#45;&gt;Node21 -->
<g id="edge27" class="edge"><title>Node1&#45;&gt;Node21</title>
<path fill="none" stroke="midnightblue" d="M1089.67,-239.578C1168.18,-232.582 1323.31,-217.929 1464.57,-199.198"/>
<polygon fill="midnightblue" stroke="midnightblue" points="1465.27,-202.636 1474.72,-197.843 1464.34,-195.698 1465.27,-202.636"/>
</g>
<!-- Node3 -->
<g id="node3" class="node"><title>Node3</title>
<g id="a_node3"><a xlink:href="config_8h.html" target="_top" xlink:title="config.h">
<polygon fill="white" stroke="black" points="517.5,-118 517.5,-137 567.5,-137 567.5,-118 517.5,-118"/>
<text text-anchor="middle" x="542.5" y="-125" font-family="FreeSans" font-size="10.00">config.h</text>
</a>
</g>
</g>
<!-- Node2&#45;&gt;Node3 -->
<g id="edge2" class="edge"><title>Node2&#45;&gt;Node3</title>
<path fill="none" stroke="midnightblue" d="M589.62,-179.475C581.206,-170.373 567.681,-155.741 557.274,-144.483"/>
<polygon fill="midnightblue" stroke="midnightblue" points="559.724,-141.977 550.366,-137.009 554.583,-146.728 559.724,-141.977"/>
</g>
<!-- Node4 -->
<g id="node4" class="node"><title>Node4</title>
<g id="a_node4"><a xlink:href="mathUtils_8h.html" target="_top" xlink:title="mathUtils.h">
<polygon fill="white" stroke="black" points="914,-118 914,-137 979,-137 979,-118 914,-118"/>
<text text-anchor="middle" x="946.5" y="-125" font-family="FreeSans" font-size="10.00">mathUtils.h</text>
</a>
</g>
</g>
<!-- Node2&#45;&gt;Node4 -->
<g id="edge3" class="edge"><title>Node2&#45;&gt;Node4</title>
<path fill="none" stroke="midnightblue" d="M635.749,-184.711C694.264,-179.161 809.246,-166.208 904.5,-143 907.723,-142.215 911.048,-141.284 914.35,-140.279"/>
<polygon fill="midnightblue" stroke="midnightblue" points="915.64,-143.54 924.062,-137.113 913.47,-136.885 915.64,-143.54"/>
</g>
<!-- Node2&#45;&gt;Node13 -->
<g id="edge14" class="edge"><title>Node2&#45;&gt;Node13</title>
<path fill="none" stroke="midnightblue" d="M559.378,-184.87C483.719,-178.476 309.304,-162.83 163.5,-143 154.146,-141.728 144.248,-140.215 134.625,-138.655"/>
<polygon fill="midnightblue" stroke="midnightblue" points="135.168,-135.197 124.731,-137.02 134.027,-142.104 135.168,-135.197"/>
</g>
<!-- Node2&#45;&gt;Node14 -->
<g id="edge15" class="edge"><title>Node2&#45;&gt;Node14</title>
<path fill="none" stroke="midnightblue" d="M559.372,-181.405C499.682,-171.081 383.7,-151.02 312.968,-138.786"/>
<polygon fill="midnightblue" stroke="midnightblue" points="313.323,-135.295 302.873,-137.04 312.13,-142.193 313.323,-135.295"/>
</g>
<!-- Node15 -->
<g id="node15" class="node"><title>Node15</title>
<polygon fill="white" stroke="#bfbfbf" points="586,-112.5 586,-142.5 719,-142.5 719,-112.5 586,-112.5"/>
<text text-anchor="start" x="594" y="-130.5" font-family="FreeSans" font-size="10.00">cantera/transport/Transport</text>
<text text-anchor="middle" x="652.5" y="-119.5" font-family="FreeSans" font-size="10.00">Factory.h</text>
</g>
<!-- Node2&#45;&gt;Node15 -->
<g id="edge16" class="edge"><title>Node2&#45;&gt;Node15</title>
<path fill="none" stroke="midnightblue" d="M605.38,-179.475C612.481,-171.793 623.224,-160.172 632.659,-149.964"/>
<polygon fill="midnightblue" stroke="midnightblue" points="635.32,-152.242 639.538,-142.523 630.179,-147.491 635.32,-152.242"/>
</g>
<!-- Node16 -->
<g id="node16" class="node"><title>Node16</title>
<polygon fill="white" stroke="#bfbfbf" points="737.5,-118 737.5,-137 895.5,-137 895.5,-118 737.5,-118"/>
<text text-anchor="middle" x="816.5" y="-125" font-family="FreeSans" font-size="10.00">cantera/thermo/IdealGasPhase.h</text>
</g>
<!-- Node2&#45;&gt;Node16 -->
<g id="edge17" class="edge"><title>Node2&#45;&gt;Node16</title>
<path fill="none" stroke="midnightblue" d="M628.877,-179.475C667.419,-169.004 732.905,-151.212 775.424,-139.66"/>
<polygon fill="midnightblue" stroke="midnightblue" points="776.448,-143.009 785.181,-137.009 774.613,-136.253 776.448,-143.009"/>
</g>
<!-- Node17 -->
<g id="node17" class="node"><title>Node17</title>
<polygon fill="white" stroke="#bfbfbf" points="352,-118 352,-137 499,-137 499,-118 352,-118"/>
<text text-anchor="middle" x="425.5" y="-125" font-family="FreeSans" font-size="10.00">cantera/kinetics/GasKinetics.h</text>
</g>
<!-- Node2&#45;&gt;Node17 -->
<g id="edge18" class="edge"><title>Node2&#45;&gt;Node17</title>
<path fill="none" stroke="midnightblue" d="M572.857,-179.475C543.225,-169.225 493.315,-151.959 459.898,-140.399"/>
<polygon fill="midnightblue" stroke="midnightblue" points="460.692,-136.971 450.098,-137.009 458.404,-143.586 460.692,-136.971"/>
</g>
<!-- Node5 -->
<g id="node5" class="node"><title>Node5</title>
<polygon fill="white" stroke="#bfbfbf" points="768,-56.5 768,-75.5 811,-75.5 811,-56.5 768,-56.5"/>
<text text-anchor="middle" x="789.5" y="-63.5" font-family="FreeSans" font-size="10.00">vector</text>
</g>
<!-- Node4&#45;&gt;Node5 -->
<g id="edge4" class="edge"><title>Node4&#45;&gt;Node5</title>
<path fill="none" stroke="midnightblue" d="M924.006,-117.975C896.963,-107.726 851.417,-90.4652 820.914,-78.9053"/>
<polygon fill="midnightblue" stroke="midnightblue" points="821.786,-75.493 811.195,-75.222 819.306,-82.0387 821.786,-75.493"/>
</g>
<!-- Node6 -->
<g id="node6" class="node"><title>Node6</title>
<polygon fill="white" stroke="#bfbfbf" points="829.5,-56.5 829.5,-75.5 873.5,-75.5 873.5,-56.5 829.5,-56.5"/>
<text text-anchor="middle" x="851.5" y="-63.5" font-family="FreeSans" font-size="10.00">cmath</text>
</g>
<!-- Node4&#45;&gt;Node6 -->
<g id="edge5" class="edge"><title>Node4&#45;&gt;Node6</title>
<path fill="none" stroke="midnightblue" d="M932.889,-117.975C917.439,-108.299 892.01,-92.3721 873.684,-80.8941"/>
<polygon fill="midnightblue" stroke="midnightblue" points="875.419,-77.8509 865.086,-75.5091 871.703,-83.7834 875.419,-77.8509"/>
</g>
<!-- Node7 -->
<g id="node7" class="node"><title>Node7</title>
<polygon fill="white" stroke="#bfbfbf" points="810,-0.5 810,-19.5 863,-19.5 863,-0.5 810,-0.5"/>
<text text-anchor="middle" x="836.5" y="-7.5" font-family="FreeSans" font-size="10.00">iostream</text>
</g>
<!-- Node4&#45;&gt;Node7 -->
<g id="edge6" class="edge"><title>Node4&#45;&gt;Node7</title>
<path fill="none" stroke="midnightblue" d="M924.055,-117.915C917.793,-115.75 910.94,-113.591 904.5,-112 853.211,-99.328 703.913,-116.086 669.5,-76 631.361,-31.5729 739.554,-17.338 799.538,-12.9141"/>
<polygon fill="midnightblue" stroke="midnightblue" points="800.039,-16.3883 809.779,-12.219 799.565,-9.40432 800.039,-16.3883"/>
</g>
<!-- Node8 -->
<g id="node8" class="node"><title>Node8</title>
<polygon fill="white" stroke="#bfbfbf" points="891.5,-56.5 891.5,-75.5 941.5,-75.5 941.5,-56.5 891.5,-56.5"/>
<text text-anchor="middle" x="916.5" y="-63.5" font-family="FreeSans" font-size="10.00">sstream</text>
</g>
<!-- Node4&#45;&gt;Node8 -->
<g id="edge7" class="edge"><title>Node4&#45;&gt;Node8</title>
<path fill="none" stroke="midnightblue" d="M942.202,-117.975C937.835,-109.315 930.945,-95.6486 925.397,-84.6453"/>
<polygon fill="midnightblue" stroke="midnightblue" points="928.418,-82.8625 920.79,-75.5091 922.167,-86.0141 928.418,-82.8625"/>
</g>
<!-- Node9 -->
<g id="node9" class="node"><title>Node9</title>
<polygon fill="white" stroke="#bfbfbf" points="1066.5,-0.5 1066.5,-19.5 1106.5,-19.5 1106.5,-0.5 1066.5,-0.5"/>
<text text-anchor="middle" x="1086.5" y="-7.5" font-family="FreeSans" font-size="10.00">string</text>
</g>
<!-- Node4&#45;&gt;Node9 -->
<g id="edge8" class="edge"><title>Node4&#45;&gt;Node9</title>
<path fill="none" stroke="midnightblue" d="M957.023,-117.819C980.637,-98.3371 1038.11,-50.9247 1067.9,-26.3448"/>
<polygon fill="midnightblue" stroke="midnightblue" points="1070.37,-28.8457 1075.86,-19.782 1065.91,-23.4461 1070.37,-28.8457"/>
</g>
<!-- Node10 -->
<g id="node10" class="node"><title>Node10</title>
<polygon fill="white" stroke="#bfbfbf" points="960,-56.5 960,-75.5 995,-75.5 995,-56.5 960,-56.5"/>
<text text-anchor="middle" x="977.5" y="-63.5" font-family="FreeSans" font-size="10.00">map</text>
</g>
<!-- Node4&#45;&gt;Node10 -->
<g id="edge9" class="edge"><title>Node4&#45;&gt;Node10</title>
<path fill="none" stroke="midnightblue" d="M950.942,-117.975C955.453,-109.315 962.574,-95.6486 968.307,-84.6453"/>
<polygon fill="midnightblue" stroke="midnightblue" points="971.55,-85.9948 973.067,-75.5091 965.342,-82.7604 971.55,-85.9948"/>
</g>
<!-- Node4&#45;&gt;Node11 -->
<g id="edge10" class="edge"><title>Node4&#45;&gt;Node11</title>
<path fill="none" stroke="midnightblue" d="M966.559,-117.975C990.262,-107.901 1029.91,-91.0525 1057.08,-79.5023"/>
<polygon fill="midnightblue" stroke="midnightblue" points="1058.64,-82.6417 1066.48,-75.5091 1055.91,-76.1994 1058.64,-82.6417"/>
</g>
<!-- Node12 -->
<g id="node12" class="node"><title>Node12</title>
<polygon fill="white" stroke="#bfbfbf" points="679,-56.5 679,-75.5 750,-75.5 750,-56.5 679,-56.5"/>
<text text-anchor="middle" x="714.5" y="-63.5" font-family="FreeSans" font-size="10.00">Eigen/Dense</text>
</g>
<!-- Node4&#45;&gt;Node12 -->
<g id="edge13" class="edge"><title>Node4&#45;&gt;Node12</title>
<path fill="none" stroke="midnightblue" d="M923.086,-117.954C917.067,-115.885 910.575,-113.763 904.5,-112 855.639,-97.8179 798.763,-84.7975 760.064,-76.4515"/>
<polygon fill="midnightblue" stroke="midnightblue" points="760.655,-72.9987 750.144,-74.3285 759.19,-79.8437 760.655,-72.9987"/>
</g>
<!-- Node11&#45;&gt;Node7 -->
<g id="edge12" class="edge"><title>Node11&#45;&gt;Node7</title>
<path fill="none" stroke="midnightblue" d="M1051.74,-57.4915C1004.74,-47.34 921.3,-29.3169 873.283,-18.9451"/>
<polygon fill="midnightblue" stroke="midnightblue" points="873.827,-15.482 863.314,-16.7918 872.349,-22.3242 873.827,-15.482"/>
</g>
<!-- Node11&#45;&gt;Node9 -->
<g id="edge11" class="edge"><title>Node11&#45;&gt;Node9</title>
<path fill="none" stroke="midnightblue" d="M1086.5,-56.083C1086.5,-49.0059 1086.5,-38.8611 1086.5,-29.9865"/>
<polygon fill="midnightblue" stroke="midnightblue" points="1090,-29.751 1086.5,-19.7511 1083,-29.7511 1090,-29.751"/>
</g>
<!-- Node18&#45;&gt;Node4 -->
<g id="edge21" class="edge"><title>Node18&#45;&gt;Node4</title>
<path fill="none" stroke="midnightblue" d="M1052.73,-179.475C1032.02,-169.534 997.548,-152.995 973.511,-141.461"/>
<polygon fill="midnightblue" stroke="midnightblue" points="974.763,-138.18 964.233,-137.009 971.735,-144.491 974.763,-138.18"/>
</g>
<!-- Node18&#45;&gt;Node9 -->
<g id="edge22" class="edge"><title>Node18&#45;&gt;Node9</title>
<path fill="none" stroke="midnightblue" d="M1077,-179.318C1090.07,-161.254 1119.16,-117.816 1129.5,-76 1131.63,-67.371 1132.81,-64.2504 1129.5,-56 1124.82,-44.328 1115.51,-33.9687 1106.74,-26.1405"/>
<polygon fill="midnightblue" stroke="midnightblue" points="1108.92,-23.4011 1099,-19.698 1104.45,-28.7832 1108.92,-23.4011"/>
</g>
</g>
</svg>
