<?xml version="1.0" encoding="UTF-8" standalone="no"?>
<!DOCTYPE svg PUBLIC "-//W3C//DTD SVG 1.1//EN"
 "http://www.w3.org/Graphics/SVG/1.1/DTD/svg11.dtd">
<!-- Generated by graphviz version 2.28.0 (20120425.2022)
 -->
<!-- Title: G Pages: 1 -->
<svg width="1320pt" height="252pt"
 viewBox="0.00 0.00 1320.00 252.00" xmlns="http://www.w3.org/2000/svg" xmlns:xlink="http://www.w3.org/1999/xlink">
<g id="graph1" class="graph" transform="scale(1 1) rotate(0) translate(4 248)">
<title>G</title>
<polygon fill="white" stroke="white" points="-4,5 -4,-248 1317,-248 1317,5 -4,5"/>
<!-- Node1 -->
<g id="node1" class="node"><title>Node1</title>
<polygon fill="#bfbfbf" stroke="black" points="565.5,-224.5 565.5,-243.5 660.5,-243.5 660.5,-224.5 565.5,-224.5"/>
<text text-anchor="middle" x="613" y="-231.5" font-family="FreeSans" font-size="10.00">src/chemistry0d.h</text>
</g>
<!-- Node2 -->
<g id="node3" class="node"><title>Node2</title>
<polygon fill="white" stroke="#bfbfbf" points="-0.5,-168.5 -0.5,-187.5 118.5,-187.5 118.5,-168.5 -0.5,-168.5"/>
<text text-anchor="middle" x="59" y="-175.5" font-family="FreeSans" font-size="10.00">cantera/IdealGasMix.h</text>
</g>
<!-- Node1&#45;&gt;Node2 -->
<g id="edge2" class="edge"><title>Node1&#45;&gt;Node2</title>
<path fill="none" stroke="midnightblue" d="M565.439,-229.178C480.19,-222.198 295.497,-206.492 128.764,-188.047"/>
<polygon fill="midnightblue" stroke="midnightblue" points="129.148,-184.568 118.823,-186.941 128.375,-191.525 129.148,-184.568"/>
</g>
<!-- Node3 -->
<g id="node5" class="node"><title>Node3</title>
<polygon fill="white" stroke="#bfbfbf" points="136.5,-168.5 136.5,-187.5 245.5,-187.5 245.5,-168.5 136.5,-168.5"/>
<text text-anchor="middle" x="191" y="-175.5" font-family="FreeSans" font-size="10.00">cantera/equilibrium.h</text>
</g>
<!-- Node1&#45;&gt;Node3 -->
<g id="edge4" class="edge"><title>Node1&#45;&gt;Node3</title>
<path fill="none" stroke="midnightblue" d="M565.486,-227.252C498.834,-219.14 373.503,-203.706 256.053,-188.124"/>
<polygon fill="midnightblue" stroke="midnightblue" points="256.18,-184.61 245.806,-186.761 255.257,-191.549 256.18,-184.61"/>
</g>
<!-- Node4 -->
<g id="node7" class="node"><title>Node4</title>
<polygon fill="white" stroke="#bfbfbf" points="264,-168.5 264,-187.5 356,-187.5 356,-168.5 264,-168.5"/>
<text text-anchor="middle" x="310" y="-175.5" font-family="FreeSans" font-size="10.00">cantera/thermo.h</text>
</g>
<!-- Node1&#45;&gt;Node4 -->
<g id="edge6" class="edge"><title>Node1&#45;&gt;Node4</title>
<path fill="none" stroke="midnightblue" d="M565.323,-224.503C511.397,-214.893 423.656,-199.256 366.379,-189.048"/>
<polygon fill="midnightblue" stroke="midnightblue" points="366.864,-185.579 356.405,-187.27 365.636,-192.471 366.864,-185.579"/>
</g>
<!-- Node5 -->
<g id="node9" class="node"><title>Node5</title>
<polygon fill="white" stroke="#bfbfbf" points="374.5,-168.5 374.5,-187.5 473.5,-187.5 473.5,-168.5 374.5,-168.5"/>
<text text-anchor="middle" x="424" y="-175.5" font-family="FreeSans" font-size="10.00">cantera/transport.h</text>
</g>
<!-- Node1&#45;&gt;Node5 -->
<g id="edge8" class="edge"><title>Node1&#45;&gt;Node5</title>
<path fill="none" stroke="midnightblue" d="M583.052,-224.444C550.842,-215.241 499.466,-200.562 463.858,-190.388"/>
<polygon fill="midnightblue" stroke="midnightblue" points="464.384,-186.898 453.808,-187.516 462.461,-193.629 464.384,-186.898"/>
</g>
<!-- Node6 -->
<g id="node11" class="node"><title>Node6</title>
<polygon fill="white" stroke="#bfbfbf" points="491.5,-168.5 491.5,-187.5 586.5,-187.5 586.5,-168.5 491.5,-168.5"/>
<text text-anchor="middle" x="539" y="-175.5" font-family="FreeSans" font-size="10.00">cantera/kinetics.h</text>
</g>
<!-- Node1&#45;&gt;Node6 -->
<g id="edge10" class="edge"><title>Node1&#45;&gt;Node6</title>
<path fill="none" stroke="midnightblue" d="M601.111,-224.324C589.85,-216.107 572.713,-203.602 559.291,-193.807"/>
<polygon fill="midnightblue" stroke="midnightblue" points="561.247,-190.901 551.106,-187.834 557.12,-196.556 561.247,-190.901"/>
</g>
<!-- Node7 -->
<g id="node13" class="node"><title>Node7</title>
<polygon fill="white" stroke="#bfbfbf" points="605,-168.5 605,-187.5 771,-187.5 771,-168.5 605,-168.5"/>
<text text-anchor="middle" x="688" y="-175.5" font-family="FreeSans" font-size="10.00">cantera/thermo/IdealGasPhase.h</text>
</g>
<!-- Node1&#45;&gt;Node7 -->
<g id="edge12" class="edge"><title>Node1&#45;&gt;Node7</title>
<path fill="none" stroke="midnightblue" d="M625.05,-224.324C636.463,-216.107 653.831,-203.602 667.435,-193.807"/>
<polygon fill="midnightblue" stroke="midnightblue" points="669.66,-196.517 675.731,-187.834 665.57,-190.837 669.66,-196.517"/>
</g>
<!-- Node8 -->
<g id="node15" class="node"><title>Node8</title>
<polygon fill="white" stroke="#bfbfbf" points="789,-168.5 789,-187.5 941,-187.5 941,-168.5 789,-168.5"/>
<text text-anchor="middle" x="865" y="-175.5" font-family="FreeSans" font-size="10.00">cantera/kinetics/GasKinetics.h</text>
</g>
<!-- Node1&#45;&gt;Node8 -->
<g id="edge14" class="edge"><title>Node1&#45;&gt;Node8</title>
<path fill="none" stroke="midnightblue" d="M652.93,-224.444C696.891,-215.023 767.627,-199.866 815.183,-189.675"/>
<polygon fill="midnightblue" stroke="midnightblue" points="816.212,-193.034 825.257,-187.516 814.745,-186.189 816.212,-193.034"/>
</g>
<!-- Node9 -->
<g id="node17" class="node"><title>Node9</title>
<polygon fill="white" stroke="#bfbfbf" points="959,-168.5 959,-187.5 1063,-187.5 1063,-168.5 959,-168.5"/>
<text text-anchor="middle" x="1011" y="-175.5" font-family="FreeSans" font-size="10.00">cantera/base/ctml.h</text>
</g>
<!-- Node1&#45;&gt;Node9 -->
<g id="edge16" class="edge"><title>Node1&#45;&gt;Node9</title>
<path fill="none" stroke="midnightblue" d="M660.744,-226.835C724.097,-218.607 839.709,-203.432 948.588,-188.183"/>
<polygon fill="midnightblue" stroke="midnightblue" points="949.347,-191.611 958.763,-186.755 948.374,-184.679 949.347,-191.611"/>
</g>
<!-- Node10 -->
<g id="node19" class="node"><title>Node10</title>
<a xlink:href="mathUtils_8h.html" target="_top" xlink:title="mathUtils.h">
<polygon fill="white" stroke="black" points="1058.5,-112.5 1058.5,-131.5 1123.5,-131.5 1123.5,-112.5 1058.5,-112.5"/>
<text text-anchor="middle" x="1091" y="-119.5" font-family="FreeSans" font-size="10.00">mathUtils.h</text>
</a>
</g>
<!-- Node1&#45;&gt;Node10 -->
<g id="edge18" class="edge"><title>Node1&#45;&gt;Node10</title>
<path fill="none" stroke="midnightblue" d="M660.672,-231.315C771.757,-226.968 1040.79,-213.867 1072,-188 1085.42,-176.88 1089.67,-156.847 1090.87,-141.95"/>
<polygon fill="midnightblue" stroke="midnightblue" points="1094.37,-141.929 1091.29,-131.792 1087.38,-141.637 1094.37,-141.929"/>
</g>
<!-- Node19 -->
<g id="node39" class="node"><title>Node19</title>
<a xlink:href="readConfig_8h.html" target="_top" xlink:title="readConfig.h">
<polygon fill="white" stroke="black" points="1119,-168.5 1119,-187.5 1193,-187.5 1193,-168.5 1119,-168.5"/>
<text text-anchor="middle" x="1156" y="-175.5" font-family="FreeSans" font-size="10.00">readConfig.h</text>
</a>
</g>
<!-- Node1&#45;&gt;Node19 -->
<g id="edge40" class="edge"><title>Node1&#45;&gt;Node19</title>
<path fill="none" stroke="midnightblue" d="M660.643,-229.97C748.666,-224.077 942.619,-209.715 1105,-188 1106.25,-187.832 1107.52,-187.656 1108.8,-187.472"/>
<polygon fill="midnightblue" stroke="midnightblue" points="1109.38,-190.925 1118.73,-185.947 1108.32,-184.006 1109.38,-190.925"/>
</g>
<!-- Node11 -->
<g id="node21" class="node"><title>Node11</title>
<polygon fill="white" stroke="#bfbfbf" points="1220,-56.5 1220,-75.5 1264,-75.5 1264,-56.5 1220,-56.5"/>
<text text-anchor="middle" x="1242" y="-63.5" font-family="FreeSans" font-size="10.00">vector</text>
</g>
<!-- Node10&#45;&gt;Node11 -->
<g id="edge20" class="edge"><title>Node10&#45;&gt;Node11</title>
<path fill="none" stroke="midnightblue" d="M1114.93,-112.444C1140.67,-103.239 1181.72,-88.5565 1210.17,-78.3826"/>
<polygon fill="midnightblue" stroke="midnightblue" points="1211.42,-81.6513 1219.66,-74.9883 1209.07,-75.0601 1211.42,-81.6513"/>
</g>
<!-- Node12 -->
<g id="node23" class="node"><title>Node12</title>
<polygon fill="white" stroke="#bfbfbf" points="812,-56.5 812,-75.5 856,-75.5 856,-56.5 812,-56.5"/>
<text text-anchor="middle" x="834" y="-63.5" font-family="FreeSans" font-size="10.00">cmath</text>
</g>
<!-- Node10&#45;&gt;Node12 -->
<g id="edge22" class="edge"><title>Node10&#45;&gt;Node12</title>
<path fill="none" stroke="midnightblue" d="M1058.33,-114.814C1015.11,-106.527 936.635,-91.1058 870,-76 868.728,-75.7116 867.431,-75.4125 866.123,-75.1062"/>
<polygon fill="midnightblue" stroke="midnightblue" points="866.59,-71.6185 856.048,-72.6754 864.948,-78.4232 866.59,-71.6185"/>
</g>
<!-- Node13 -->
<g id="node25" class="node"><title>Node13</title>
<polygon fill="white" stroke="#bfbfbf" points="924,-0.5 924,-19.5 980,-19.5 980,-0.5 924,-0.5"/>
<text text-anchor="middle" x="952" y="-7.5" font-family="FreeSans" font-size="10.00">iostream</text>
</g>
<!-- Node10&#45;&gt;Node13 -->
<g id="edge24" class="edge"><title>Node10&#45;&gt;Node13</title>
<path fill="none" stroke="midnightblue" d="M1058.27,-117.92C1009.86,-112.613 922.858,-99.9338 904,-76 890.57,-58.9552 910.896,-38.7764 929.087,-25.4744"/>
<polygon fill="midnightblue" stroke="midnightblue" points="931.445,-28.1001 937.689,-19.5406 927.47,-22.3382 931.445,-28.1001"/>
</g>
<!-- Node14 -->
<g id="node27" class="node"><title>Node14</title>
<polygon fill="white" stroke="#bfbfbf" points="912.5,-56.5 912.5,-75.5 965.5,-75.5 965.5,-56.5 912.5,-56.5"/>
<text text-anchor="middle" x="939" y="-63.5" font-family="FreeSans" font-size="10.00">sstream</text>
</g>
<!-- Node10&#45;&gt;Node14 -->
<g id="edge26" class="edge"><title>Node10&#45;&gt;Node14</title>
<path fill="none" stroke="midnightblue" d="M1066.92,-112.444C1041.46,-103.399 1001.11,-89.064 972.541,-78.9158"/>
<polygon fill="midnightblue" stroke="midnightblue" points="973.567,-75.5661 962.972,-75.5164 971.223,-82.1622 973.567,-75.5661"/>
</g>
<!-- Node15 -->
<g id="node29" class="node"><title>Node15</title>
<polygon fill="white" stroke="#bfbfbf" points="1271.5,-0.5 1271.5,-19.5 1312.5,-19.5 1312.5,-0.5 1271.5,-0.5"/>
<text text-anchor="middle" x="1292" y="-7.5" font-family="FreeSans" font-size="10.00">string</text>
</g>
<!-- Node10&#45;&gt;Node15 -->
<g id="edge28" class="edge"><title>Node10&#45;&gt;Node15</title>
<path fill="none" stroke="midnightblue" d="M1123.79,-116.754C1169.95,-110.143 1250.84,-96.0341 1272,-76 1284.58,-64.0874 1289.31,-44.4699 1291.06,-29.8974"/>
<polygon fill="midnightblue" stroke="midnightblue" points="1294.58,-29.7889 1291.91,-19.5356 1287.6,-29.2152 1294.58,-29.7889"/>
</g>
<!-- Node16 -->
<g id="node31" class="node"><title>Node16</title>
<polygon fill="white" stroke="#bfbfbf" points="1073,-56.5 1073,-75.5 1109,-75.5 1109,-56.5 1073,-56.5"/>
<text text-anchor="middle" x="1091" y="-63.5" font-family="FreeSans" font-size="10.00">map</text>
</g>
<!-- Node10&#45;&gt;Node16 -->
<g id="edge30" class="edge"><title>Node10&#45;&gt;Node16</title>
<path fill="none" stroke="midnightblue" d="M1091,-112.083C1091,-105.006 1091,-94.8611 1091,-85.9865"/>
<polygon fill="midnightblue" stroke="midnightblue" points="1094.5,-85.751 1091,-75.7511 1087.5,-85.7511 1094.5,-85.751"/>
</g>
<!-- Node17 -->
<g id="node33" class="node"><title>Node17</title>
<a xlink:href="debugUtils_8h.html" target="_top" xlink:title="debugUtils.h">
<polygon fill="white" stroke="red" points="983.5,-56.5 983.5,-75.5 1054.5,-75.5 1054.5,-56.5 983.5,-56.5"/>
<text text-anchor="middle" x="1019" y="-63.5" font-family="FreeSans" font-size="10.00">debugUtils.h</text>
</a>
</g>
<!-- Node10&#45;&gt;Node17 -->
<g id="edge32" class="edge"><title>Node10&#45;&gt;Node17</title>
<path fill="none" stroke="midnightblue" d="M1079.43,-112.324C1068.58,-104.185 1052.12,-91.8395 1039.12,-82.0874"/>
<polygon fill="midnightblue" stroke="midnightblue" points="1040.88,-79.0339 1030.78,-75.8339 1036.68,-84.6339 1040.88,-79.0339"/>
</g>
<!-- Node18 -->
<g id="node37" class="node"><title>Node18</title>
<polygon fill="white" stroke="#bfbfbf" points="1127.5,-56.5 1127.5,-75.5 1202.5,-75.5 1202.5,-56.5 1127.5,-56.5"/>
<text text-anchor="middle" x="1165" y="-63.5" font-family="FreeSans" font-size="10.00">Eigen/Dense</text>
</g>
<!-- Node10&#45;&gt;Node18 -->
<g id="edge38" class="edge"><title>Node10&#45;&gt;Node18</title>
<path fill="none" stroke="midnightblue" d="M1102.89,-112.324C1114.15,-104.107 1131.29,-91.6017 1144.71,-81.8069"/>
<polygon fill="midnightblue" stroke="midnightblue" points="1146.88,-84.5559 1152.89,-75.8339 1142.75,-78.9014 1146.88,-84.5559"/>
</g>
<!-- Node17&#45;&gt;Node13 -->
<g id="edge36" class="edge"><title>Node17&#45;&gt;Node13</title>
<path fill="none" stroke="midnightblue" d="M1008.24,-56.324C998.234,-48.2631 983.113,-36.0765 971.07,-26.3695"/>
<polygon fill="midnightblue" stroke="midnightblue" points="972.943,-23.3841 962.961,-19.8339 968.55,-28.8343 972.943,-23.3841"/>
</g>
<!-- Node17&#45;&gt;Node15 -->
<g id="edge34" class="edge"><title>Node17&#45;&gt;Node15</title>
<path fill="none" stroke="midnightblue" d="M1054.86,-57.8196C1057.95,-57.2031 1061.03,-56.59 1064,-56 1134.56,-41.9811 1217.43,-25.6612 1261.24,-17.0458"/>
<polygon fill="midnightblue" stroke="midnightblue" points="1262.11,-20.4411 1271.25,-15.0775 1260.76,-13.5727 1262.11,-20.4411"/>
</g>
<!-- Node19&#45;&gt;Node10 -->
<g id="edge42" class="edge"><title>Node19&#45;&gt;Node10</title>
<path fill="none" stroke="midnightblue" d="M1145.56,-168.324C1135.85,-160.263 1121.18,-148.077 1109.5,-138.369"/>
<polygon fill="midnightblue" stroke="midnightblue" points="1111.56,-135.532 1101.63,-131.834 1107.09,-140.916 1111.56,-135.532"/>
</g>
<!-- Node19&#45;&gt;Node15 -->
<g id="edge44" class="edge"><title>Node19&#45;&gt;Node15</title>
<path fill="none" stroke="midnightblue" d="M1177.76,-168.433C1209.68,-154.524 1268.02,-123.687 1292,-76 1299.21,-61.6655 1298.41,-43.2024 1296.27,-29.619"/>
<polygon fill="midnightblue" stroke="midnightblue" points="1299.66,-28.7 1294.31,-19.5544 1292.79,-30.0393 1299.66,-28.7"/>
</g>
</g>
</svg>
