<?xml version="1.0" encoding="UTF-8" standalone="no"?>
<!DOCTYPE svg PUBLIC "-//W3C//DTD SVG 1.1//EN"
 "http://www.w3.org/Graphics/SVG/1.1/DTD/svg11.dtd">
<!-- Generated by graphviz version 8.1.0 (20230707.2238)
 -->
<!-- Title: src/chemistry0d.cpp Pages: 1 -->
<svg width="2122pt" height="281pt"
 viewBox="0.00 0.00 2121.50 281.25" xmlns="http://www.w3.org/2000/svg" xmlns:xlink="http://www.w3.org/1999/xlink">
<g id="graph0" class="graph" transform="scale(1 1) rotate(0) translate(4 277.25)">
<title>src/chemistry0d.cpp</title>
<!-- Node1 -->
<g id="Node000001" class="node">
<title>Node1</title>
<g id="a_Node000001"><a xlink:title=" ">
<polygon fill="#999999" stroke="#666666" points="1552.62,-273.25 1438.38,-273.25 1438.38,-252.5 1552.62,-252.5 1552.62,-273.25"/>
<text text-anchor="middle" x="1495.5" y="-259.75" font-family="FreeSans" font-size="10.00">src/chemistry0d.cpp</text>
</a>
</g>
</g>
<!-- Node2 -->
<g id="Node000002" class="node">
<title>Node2</title>
<g id="a_Node000002"><a xlink:href="chemistry0d_8h.html" target="_top" xlink:title=" ">
<polygon fill="white" stroke="#666666" points="937.38,-210.12 851.62,-210.12 851.62,-189.38 937.38,-189.38 937.38,-210.12"/>
<text text-anchor="middle" x="894.5" y="-196.62" font-family="FreeSans" font-size="10.00">chemistry0d.h</text>
</a>
</g>
</g>
<!-- Node1&#45;&gt;Node2 -->
<g id="edge1_Node000001_Node000002" class="edge">
<title>Node1&#45;&gt;Node2</title>
<g id="a_edge1_Node000001_Node000002"><a xlink:title=" ">
<path fill="none" stroke="#63b8ff" d="M1438.15,-256.04C1322.29,-244.26 1061.8,-217.77 948.66,-206.26"/>
<polygon fill="#63b8ff" stroke="#63b8ff" points="949.16,-202.69 938.86,-205.16 948.46,-209.65 949.16,-202.69"/>
</a>
</g>
</g>
<!-- Node11 -->
<g id="Node000011" class="node">
<title>Node11</title>
<g id="a_Node000011"><a xlink:href="debugUtils_8h.html" target="_top" xlink:title=" ">
<polygon fill="#fff0f0" stroke="red" points="1696.25,-77.5 1618.75,-77.5 1618.75,-56.75 1696.25,-56.75 1696.25,-77.5"/>
<text text-anchor="middle" x="1657.5" y="-64" font-family="FreeSans" font-size="10.00">debugUtils.h</text>
</a>
</g>
</g>
<!-- Node1&#45;&gt;Node11 -->
<g id="edge23_Node000001_Node000011" class="edge">
<title>Node1&#45;&gt;Node11</title>
<g id="a_edge23_Node000001_Node000011"><a xlink:title=" ">
<path fill="none" stroke="#63b8ff" d="M1495.84,-252.37C1496.8,-236.74 1500.47,-205.12 1514.5,-183 1543.25,-137.67 1596.14,-102.23 1628.91,-83.31"/>
<polygon fill="#63b8ff" stroke="#63b8ff" points="1630.39,-85.93 1637.39,-77.98 1626.96,-79.83 1630.39,-85.93"/>
</a>
</g>
</g>
<!-- Node17 -->
<g id="Node000017" class="node">
<title>Node17</title>
<g id="a_Node000017"><a xlink:title=" ">
<polygon fill="#e0e0e0" stroke="#999999" points="175,-140.62 0,-140.62 0,-119.88 175,-119.88 175,-140.62"/>
<text text-anchor="middle" x="87.5" y="-127.12" font-family="FreeSans" font-size="10.00">cantera/transport/MixTransport.h</text>
</a>
</g>
</g>
<!-- Node1&#45;&gt;Node17 -->
<g id="edge29_Node000001_Node000017" class="edge">
<title>Node1&#45;&gt;Node17</title>
<g id="a_edge29_Node000001_Node000017"><a xlink:title=" ">
<path fill="none" stroke="#63b8ff" d="M1437.96,-260.54C1252.64,-256.05 672.6,-240.4 486.5,-216.5 357.43,-199.92 208.12,-163.24 134.1,-143.84"/>
<polygon fill="#63b8ff" stroke="#63b8ff" points="135.3,-140.27 124.73,-141.11 133.51,-147.04 135.3,-140.27"/>
</a>
</g>
</g>
<!-- Node18 -->
<g id="Node000018" class="node">
<title>Node18</title>
<g id="a_Node000018"><a xlink:title=" ">
<polygon fill="#e0e0e0" stroke="#999999" points="374.38,-140.62 192.62,-140.62 192.62,-119.88 374.38,-119.88 374.38,-140.62"/>
<text text-anchor="middle" x="283.5" y="-127.12" font-family="FreeSans" font-size="10.00">cantera/transport/MultiTransport.h</text>
</a>
</g>
</g>
<!-- Node1&#45;&gt;Node18 -->
<g id="edge30_Node000001_Node000018" class="edge">
<title>Node1&#45;&gt;Node18</title>
<g id="a_edge30_Node000001_Node000018"><a xlink:title=" ">
<path fill="none" stroke="#63b8ff" d="M1437.9,-261.86C1303.41,-261.12 958.51,-255.26 673.5,-216.5 547.76,-199.4 402.38,-163.15 329.77,-143.89"/>
<polygon fill="#63b8ff" stroke="#63b8ff" points="330.75,-140.26 320.18,-141.06 328.94,-147.02 330.75,-140.26"/>
</a>
</g>
</g>
<!-- Node19 -->
<g id="Node000019" class="node">
<title>Node19</title>
<g id="a_Node000019"><a xlink:title=" ">
<polygon fill="#e0e0e0" stroke="#999999" points="549,-147 392,-147 392,-113.5 549,-113.5 549,-147"/>
<text text-anchor="start" x="400" y="-133.5" font-family="FreeSans" font-size="10.00">cantera/transport/UnityLewis</text>
<text text-anchor="middle" x="470.5" y="-120.75" font-family="FreeSans" font-size="10.00">Transport.h</text>
</a>
</g>
</g>
<!-- Node1&#45;&gt;Node19 -->
<g id="edge31_Node000001_Node000019" class="edge">
<title>Node1&#45;&gt;Node19</title>
<g id="a_edge31_Node000001_Node000019"><a xlink:title=" ">
<path fill="none" stroke="#63b8ff" d="M1437.96,-260.88C1323.81,-258.26 1060.86,-248.9 842.5,-216.5 735.21,-200.58 613.03,-170.16 538.86,-150.3"/>
<polygon fill="#63b8ff" stroke="#63b8ff" points="539.84,-146.67 529.28,-147.44 538.02,-153.43 539.84,-146.67"/>
</a>
</g>
</g>
<!-- Node25 -->
<g id="Node000025" class="node">
<title>Node25</title>
<g id="a_Node000025"><a xlink:href="readConfig_8h.html" target="_top" xlink:title=" ">
<polygon fill="white" stroke="#666666" points="1601.25,-210.12 1523.75,-210.12 1523.75,-189.38 1601.25,-189.38 1601.25,-210.12"/>
<text text-anchor="middle" x="1562.5" y="-196.62" font-family="FreeSans" font-size="10.00">readConfig.h</text>
</a>
</g>
</g>
<!-- Node1&#45;&gt;Node25 -->
<g id="edge24_Node000001_Node000025" class="edge">
<title>Node1&#45;&gt;Node25</title>
<g id="a_edge24_Node000001_Node000025"><a xlink:title=" ">
<path fill="none" stroke="#63b8ff" d="M1506.26,-252.05C1516.39,-242.82 1531.75,-228.81 1543.86,-217.76"/>
<polygon fill="#63b8ff" stroke="#63b8ff" points="1545.95,-220.67 1550.98,-211.34 1541.24,-215.5 1545.95,-220.67"/>
</a>
</g>
</g>
<!-- Node26 -->
<g id="Node000026" class="node">
<title>Node26</title>
<g id="a_Node000026"><a xlink:title=" ">
<polygon fill="#e0e0e0" stroke="#999999" points="1793.62,-210.12 1619.38,-210.12 1619.38,-189.38 1793.62,-189.38 1793.62,-210.12"/>
<text text-anchor="middle" x="1706.5" y="-196.62" font-family="FreeSans" font-size="10.00">cantera/thermo/ThermoFactory.h</text>
</a>
</g>
</g>
<!-- Node1&#45;&gt;Node26 -->
<g id="edge27_Node000001_Node000026" class="edge">
<title>Node1&#45;&gt;Node26</title>
<g id="a_edge27_Node000001_Node000026"><a xlink:title=" ">
<path fill="none" stroke="#63b8ff" d="M1529.4,-252.05C1565.47,-241.61 1622.68,-225.03 1662.27,-213.56"/>
<polygon fill="#63b8ff" stroke="#63b8ff" points="1663.05,-216.69 1671.68,-210.55 1661.1,-209.97 1663.05,-216.69"/>
</a>
</g>
</g>
<!-- Node27 -->
<g id="Node000027" class="node">
<title>Node27</title>
<g id="a_Node000027"><a xlink:title=" ">
<polygon fill="#e0e0e0" stroke="#999999" points="1947.5,-216.5 1811.5,-216.5 1811.5,-183 1947.5,-183 1947.5,-216.5"/>
<text text-anchor="start" x="1819.5" y="-203" font-family="FreeSans" font-size="10.00">cantera/kinetics/Kinetics</text>
<text text-anchor="middle" x="1879.5" y="-190.25" font-family="FreeSans" font-size="10.00">Factory.h</text>
</a>
</g>
</g>
<!-- Node1&#45;&gt;Node27 -->
<g id="edge28_Node000001_Node000027" class="edge">
<title>Node1&#45;&gt;Node27</title>
<g id="a_edge28_Node000001_Node000027"><a xlink:title=" ">
<path fill="none" stroke="#63b8ff" d="M1553.08,-254.33C1612.6,-246.31 1708.44,-232.8 1800.48,-216.8"/>
<polygon fill="#63b8ff" stroke="#63b8ff" points="1800.86,-220.12 1810.1,-214.94 1799.65,-213.22 1800.86,-220.12"/>
</a>
</g>
</g>
<!-- Node28 -->
<g id="Node000028" class="node">
<title>Node28</title>
<g id="a_Node000028"><a xlink:title=" ">
<polygon fill="#e0e0e0" stroke="#999999" points="2113.5,-216.5 1965.5,-216.5 1965.5,-183 2113.5,-183 2113.5,-216.5"/>
<text text-anchor="start" x="1973.5" y="-203" font-family="FreeSans" font-size="10.00">cantera/transport/Transport</text>
<text text-anchor="middle" x="2039.5" y="-190.25" font-family="FreeSans" font-size="10.00">Factory.h</text>
</a>
</g>
</g>
<!-- Node1&#45;&gt;Node28 -->
<g id="edge32_Node000001_Node000028" class="edge">
<title>Node1&#45;&gt;Node28</title>
<g id="a_edge32_Node000001_Node000028"><a xlink:title=" ">
<path fill="none" stroke="#63b8ff" d="M1552.83,-257.89C1638.16,-251.59 1803.82,-237.96 1954.52,-216.71"/>
<polygon fill="#63b8ff" stroke="#63b8ff" points="1954.94,-220.04 1964.34,-215.16 1953.95,-213.11 1954.94,-220.04"/>
</a>
</g>
</g>
<!-- Node3 -->
<g id="Node000003" class="node">
<title>Node3</title>
<g id="a_Node000003"><a xlink:href="config_8h.html" target="_top" xlink:title=" ">
<polygon fill="white" stroke="#666666" points="621.62,-140.62 567.38,-140.62 567.38,-119.88 621.62,-119.88 621.62,-140.62"/>
<text text-anchor="middle" x="594.5" y="-127.12" font-family="FreeSans" font-size="10.00">config.h</text>
</a>
</g>
</g>
<!-- Node2&#45;&gt;Node3 -->
<g id="edge2_Node000002_Node000003" class="edge">
<title>Node2&#45;&gt;Node3</title>
<g id="a_edge2_Node000002_Node000003"><a xlink:title=" ">
<path fill="none" stroke="#63b8ff" d="M851.46,-193.09C798.82,-185.53 707.34,-170.32 631.5,-147 629.5,-146.38 627.46,-145.7 625.41,-144.96"/>
<polygon fill="#63b8ff" stroke="#63b8ff" points="626.94,-141.41 616.35,-141.02 624.38,-147.93 626.94,-141.41"/>
</a>
</g>
</g>
<!-- Node4 -->
<g id="Node000004" class="node">
<title>Node4</title>
<g id="a_Node000004"><a xlink:href="mathUtils_8h.html" target="_top" xlink:title=" ">
<polygon fill="white" stroke="#666666" points="1533,-140.62 1460,-140.62 1460,-119.88 1533,-119.88 1533,-140.62"/>
<text text-anchor="middle" x="1496.5" y="-127.12" font-family="FreeSans" font-size="10.00">mathUtils.h</text>
</a>
</g>
</g>
<!-- Node2&#45;&gt;Node4 -->
<g id="edge3_Node000002_Node000004" class="edge">
<title>Node2&#45;&gt;Node4</title>
<g id="a_edge3_Node000002_Node000004"><a xlink:title=" ">
<path fill="none" stroke="#63b8ff" d="M937.57,-198.2C1031.69,-196.25 1262.35,-187.37 1450.5,-147 1453.97,-146.26 1457.53,-145.33 1461.08,-144.31"/>
<polygon fill="#63b8ff" stroke="#63b8ff" points="1462.02,-147.36 1470.5,-141.01 1459.91,-140.69 1462.02,-147.36"/>
</a>
</g>
</g>
<!-- Node2&#45;&gt;Node17 -->
<g id="edge15_Node000002_Node000017" class="edge">
<title>Node2&#45;&gt;Node17</title>
<g id="a_edge15_Node000002_Node000017"><a xlink:title=" ">
<path fill="none" stroke="#63b8ff" d="M851.49,-196.97C740.56,-192.09 435.77,-176.81 183.5,-147 173.54,-145.82 163.04,-144.34 152.78,-142.77"/>
<polygon fill="#63b8ff" stroke="#63b8ff" points="153.63,-139.2 143.21,-141.1 152.54,-146.12 153.63,-139.2"/>
</a>
</g>
</g>
<!-- Node2&#45;&gt;Node18 -->
<g id="edge16_Node000002_Node000018" class="edge">
<title>Node2&#45;&gt;Node18</title>
<g id="a_edge16_Node000002_Node000018"><a xlink:title=" ">
<path fill="none" stroke="#63b8ff" d="M851.25,-195.22C762.96,-187.82 555.71,-169.51 382.5,-147 372.8,-145.74 362.6,-144.27 352.57,-142.75"/>
<polygon fill="#63b8ff" stroke="#63b8ff" points="353.21,-139.16 342.79,-141.09 352.14,-146.07 353.21,-139.16"/>
</a>
</g>
</g>
<!-- Node2&#45;&gt;Node19 -->
<g id="edge17_Node000002_Node000019" class="edge">
<title>Node2&#45;&gt;Node19</title>
<g id="a_edge17_Node000002_Node000019"><a xlink:title=" ">
<path fill="none" stroke="#63b8ff" d="M851.22,-192.43C789.18,-183.29 671.12,-165.62 559.9,-147.21"/>
<polygon fill="#63b8ff" stroke="#63b8ff" points="560.6,-143.61 550.17,-145.43 559.46,-150.52 560.6,-143.61"/>
</a>
</g>
</g>
<!-- Node20 -->
<g id="Node000020" class="node">
<title>Node20</title>
<g id="a_Node000020"><a xlink:title=" ">
<polygon fill="#e0e0e0" stroke="#999999" points="806.88,-140.62 640.12,-140.62 640.12,-119.88 806.88,-119.88 806.88,-140.62"/>
<text text-anchor="middle" x="723.5" y="-127.12" font-family="FreeSans" font-size="10.00">cantera/kinetics/BulkKinetics.h</text>
</a>
</g>
</g>
<!-- Node2&#45;&gt;Node20 -->
<g id="edge18_Node000002_Node000020" class="edge">
<title>Node2&#45;&gt;Node20</title>
<g id="a_edge18_Node000002_Node000020"><a xlink:title=" ">
<path fill="none" stroke="#63b8ff" d="M869.64,-188.93C840.38,-177.39 791.61,-158.14 758.54,-145.08"/>
<polygon fill="#63b8ff" stroke="#63b8ff" points="759.98,-141.49 749.39,-141.08 757.41,-148 759.98,-141.49"/>
</a>
</g>
</g>
<!-- Node21 -->
<g id="Node000021" class="node">
<title>Node21</title>
<g id="a_Node000021"><a xlink:title=" ">
<polygon fill="#e0e0e0" stroke="#999999" points="964.38,-147 824.62,-147 824.62,-113.5 964.38,-113.5 964.38,-147"/>
<text text-anchor="start" x="832.62" y="-133.5" font-family="FreeSans" font-size="10.00">cantera/kinetics/Reaction</text>
<text text-anchor="middle" x="894.5" y="-120.75" font-family="FreeSans" font-size="10.00">Rate.h</text>
</a>
</g>
</g>
<!-- Node2&#45;&gt;Node21 -->
<g id="edge19_Node000002_Node000021" class="edge">
<title>Node2&#45;&gt;Node21</title>
<g id="a_edge19_Node000002_Node000021"><a xlink:title=" ">
<path fill="none" stroke="#63b8ff" d="M894.5,-189.08C894.5,-181.02 894.5,-169.13 894.5,-158.22"/>
<polygon fill="#63b8ff" stroke="#63b8ff" points="898,-158.42 894.5,-148.42 891,-158.42 898,-158.42"/>
</a>
</g>
</g>
<!-- Node22 -->
<g id="Node000022" class="node">
<title>Node22</title>
<g id="a_Node000022"><a xlink:title=" ">
<polygon fill="#e0e0e0" stroke="#999999" points="1122.38,-147 982.62,-147 982.62,-113.5 1122.38,-113.5 1122.38,-147"/>
<text text-anchor="start" x="990.62" y="-133.5" font-family="FreeSans" font-size="10.00">cantera/kinetics/Reaction</text>
<text text-anchor="middle" x="1052.5" y="-120.75" font-family="FreeSans" font-size="10.00">Data.h</text>
</a>
</g>
</g>
<!-- Node2&#45;&gt;Node22 -->
<g id="edge20_Node000002_Node000022" class="edge">
<title>Node2&#45;&gt;Node22</title>
<g id="a_edge20_Node000002_Node000022"><a xlink:title=" ">
<path fill="none" stroke="#63b8ff" d="M917.47,-188.93C940.21,-179.22 975.71,-164.06 1004.6,-151.71"/>
<polygon fill="#63b8ff" stroke="#63b8ff" points="1005.69,-154.63 1013.51,-147.48 1002.94,-148.19 1005.69,-154.63"/>
</a>
</g>
</g>
<!-- Node23 -->
<g id="Node000023" class="node">
<title>Node23</title>
<g id="a_Node000023"><a xlink:title=" ">
<polygon fill="#e0e0e0" stroke="#999999" points="1292.75,-140.62 1140.25,-140.62 1140.25,-119.88 1292.75,-119.88 1292.75,-140.62"/>
<text text-anchor="middle" x="1216.5" y="-127.12" font-family="FreeSans" font-size="10.00">cantera/kinetics/Arrhenius.h</text>
</a>
</g>
</g>
<!-- Node2&#45;&gt;Node23 -->
<g id="edge21_Node000002_Node000023" class="edge">
<title>Node2&#45;&gt;Node23</title>
<g id="a_edge21_Node000002_Node000023"><a xlink:title=" ">
<path fill="none" stroke="#63b8ff" d="M937.59,-189.72C994.62,-177.76 1095.32,-156.65 1158.85,-143.34"/>
<polygon fill="#63b8ff" stroke="#63b8ff" points="1159.42,-146.58 1168.48,-141.11 1157.98,-139.73 1159.42,-146.58"/>
</a>
</g>
</g>
<!-- Node24 -->
<g id="Node000024" class="node">
<title>Node24</title>
<g id="a_Node000024"><a xlink:title=" ">
<polygon fill="#e0e0e0" stroke="#999999" points="1441.88,-140.62 1311.12,-140.62 1311.12,-119.88 1441.88,-119.88 1441.88,-140.62"/>
<text text-anchor="middle" x="1376.5" y="-127.12" font-family="FreeSans" font-size="10.00">cantera/base/Solution.h</text>
</a>
</g>
</g>
<!-- Node2&#45;&gt;Node24 -->
<g id="edge22_Node000002_Node000024" class="edge">
<title>Node2&#45;&gt;Node24</title>
<g id="a_edge22_Node000002_Node000024"><a xlink:title=" ">
<path fill="none" stroke="#63b8ff" d="M937.74,-194.41C1012.27,-186.67 1169.62,-169.19 1301.5,-147 1308.13,-145.88 1315.06,-144.6 1321.93,-143.25"/>
<polygon fill="#63b8ff" stroke="#63b8ff" points="1322.48,-146.5 1331.59,-141.09 1321.1,-139.64 1322.48,-146.5"/>
</a>
</g>
</g>
<!-- Node5 -->
<g id="Node000005" class="node">
<title>Node5</title>
<g id="a_Node000005"><a xlink:title=" ">
<polygon fill="#e0e0e0" stroke="#999999" points="1329.88,-77.5 1283.12,-77.5 1283.12,-56.75 1329.88,-56.75 1329.88,-77.5"/>
<text text-anchor="middle" x="1306.5" y="-64" font-family="FreeSans" font-size="10.00">vector</text>
</a>
</g>
</g>
<!-- Node4&#45;&gt;Node5 -->
<g id="edge4_Node000004_Node000005" class="edge">
<title>Node4&#45;&gt;Node5</title>
<g id="a_edge4_Node000004_Node000005"><a xlink:title=" ">
<path fill="none" stroke="#63b8ff" d="M1468.32,-119.48C1462.44,-117.47 1456.27,-115.4 1450.5,-113.5 1413.07,-101.2 1369.96,-87.7 1340.73,-78.65"/>
<polygon fill="#63b8ff" stroke="#63b8ff" points="1341.84,-75.02 1331.25,-75.41 1339.78,-81.71 1341.84,-75.02"/>
</a>
</g>
</g>
<!-- Node6 -->
<g id="Node000006" class="node">
<title>Node6</title>
<g id="a_Node000006"><a xlink:title=" ">
<polygon fill="#e0e0e0" stroke="#999999" points="1394.88,-77.5 1348.12,-77.5 1348.12,-56.75 1394.88,-56.75 1394.88,-77.5"/>
<text text-anchor="middle" x="1371.5" y="-64" font-family="FreeSans" font-size="10.00">cmath</text>
</a>
</g>
</g>
<!-- Node4&#45;&gt;Node6 -->
<g id="edge5_Node000004_Node000006" class="edge">
<title>Node4&#45;&gt;Node6</title>
<g id="a_edge5_Node000004_Node000006"><a xlink:title=" ">
<path fill="none" stroke="#63b8ff" d="M1476.42,-119.43C1456.1,-109.49 1424.45,-94.02 1401.23,-82.66"/>
<polygon fill="#63b8ff" stroke="#63b8ff" points="1403.05,-79.17 1392.53,-77.92 1399.98,-85.46 1403.05,-79.17"/>
</a>
</g>
</g>
<!-- Node7 -->
<g id="Node000007" class="node">
<title>Node7</title>
<g id="a_Node000007"><a xlink:title=" ">
<polygon fill="#e0e0e0" stroke="#999999" points="1572.25,-20.75 1512.75,-20.75 1512.75,0 1572.25,0 1572.25,-20.75"/>
<text text-anchor="middle" x="1542.5" y="-7.25" font-family="FreeSans" font-size="10.00">iostream</text>
</a>
</g>
</g>
<!-- Node4&#45;&gt;Node7 -->
<g id="edge6_Node000004_Node000007" class="edge">
<title>Node4&#45;&gt;Node7</title>
<g id="a_edge6_Node000004_Node000007"><a xlink:title=" ">
<path fill="none" stroke="#63b8ff" d="M1498.14,-119.59C1500.74,-105.42 1506.45,-78.35 1515.5,-56.75 1519.33,-47.59 1524.75,-38.07 1529.73,-30.12"/>
<polygon fill="#63b8ff" stroke="#63b8ff" points="1533.12,-32.33 1535.65,-22.04 1527.26,-28.51 1533.12,-32.33"/>
</a>
</g>
</g>
<!-- Node8 -->
<g id="Node000008" class="node">
<title>Node8</title>
<g id="a_Node000008"><a xlink:title=" ">
<polygon fill="#e0e0e0" stroke="#999999" points="1468.38,-77.5 1412.62,-77.5 1412.62,-56.75 1468.38,-56.75 1468.38,-77.5"/>
<text text-anchor="middle" x="1440.5" y="-64" font-family="FreeSans" font-size="10.00">sstream</text>
</a>
</g>
</g>
<!-- Node4&#45;&gt;Node8 -->
<g id="edge7_Node000004_Node000008" class="edge">
<title>Node4&#45;&gt;Node8</title>
<g id="a_edge7_Node000004_Node000008"><a xlink:title=" ">
<path fill="none" stroke="#63b8ff" d="M1487.5,-119.43C1479.21,-110.38 1466.7,-96.72 1456.67,-85.78"/>
<polygon fill="#63b8ff" stroke="#63b8ff" points="1459.63,-83.73 1450.29,-78.72 1454.46,-88.46 1459.63,-83.73"/>
</a>
</g>
</g>
<!-- Node9 -->
<g id="Node000009" class="node">
<title>Node9</title>
<g id="a_Node000009"><a xlink:title=" ">
<polygon fill="#e0e0e0" stroke="#999999" points="1679.38,-20.75 1635.62,-20.75 1635.62,0 1679.38,0 1679.38,-20.75"/>
<text text-anchor="middle" x="1657.5" y="-7.25" font-family="FreeSans" font-size="10.00">string</text>
</a>
</g>
</g>
<!-- Node4&#45;&gt;Node9 -->
<g id="edge8_Node000004_Node000009" class="edge">
<title>Node4&#45;&gt;Node9</title>
<g id="a_edge8_Node000004_Node000009"><a xlink:title=" ">
<path fill="none" stroke="#63b8ff" d="M1511.03,-119.55C1526.26,-109.31 1550.79,-92.59 1571.5,-77.5 1594.18,-60.97 1619.6,-41.28 1636.88,-27.71"/>
<polygon fill="#63b8ff" stroke="#63b8ff" points="1638.43,-30.15 1644.12,-21.22 1634.1,-24.66 1638.43,-30.15"/>
</a>
</g>
</g>
<!-- Node10 -->
<g id="Node000010" class="node">
<title>Node10</title>
<g id="a_Node000010"><a xlink:title=" ">
<polygon fill="#e0e0e0" stroke="#999999" points="1562.38,-77.5 1524.62,-77.5 1524.62,-56.75 1562.38,-56.75 1562.38,-77.5"/>
<text text-anchor="middle" x="1543.5" y="-64" font-family="FreeSans" font-size="10.00">map</text>
</a>
</g>
</g>
<!-- Node4&#45;&gt;Node10 -->
<g id="edge9_Node000004_Node000010" class="edge">
<title>Node4&#45;&gt;Node10</title>
<g id="a_edge9_Node000004_Node000010"><a xlink:title=" ">
<path fill="none" stroke="#63b8ff" d="M1504.05,-119.43C1510.88,-110.55 1521.1,-97.26 1529.42,-86.43"/>
<polygon fill="#63b8ff" stroke="#63b8ff" points="1532.8,-88.78 1536.12,-78.72 1527.25,-84.51 1532.8,-88.78"/>
</a>
</g>
</g>
<!-- Node4&#45;&gt;Node11 -->
<g id="edge10_Node000004_Node000011" class="edge">
<title>Node4&#45;&gt;Node11</title>
<g id="a_edge10_Node000004_Node000011"><a xlink:title=" ">
<path fill="none" stroke="#63b8ff" d="M1522.37,-119.43C1549.24,-109.23 1591.5,-93.18 1621.6,-81.75"/>
<polygon fill="#63b8ff" stroke="#63b8ff" points="1622.59,-84.74 1630.7,-77.92 1620.11,-78.2 1622.59,-84.74"/>
</a>
</g>
</g>
<!-- Node15 -->
<g id="Node000015" class="node">
<title>Node15</title>
<g id="a_Node000015"><a xlink:title=" ">
<polygon fill="#e0e0e0" stroke="#999999" points="1133.62,-77.5 1007.38,-77.5 1007.38,-56.75 1133.62,-56.75 1133.62,-77.5"/>
<text text-anchor="middle" x="1070.5" y="-64" font-family="FreeSans" font-size="10.00">cantera/base/ct_defs.h</text>
</a>
</g>
</g>
<!-- Node4&#45;&gt;Node15 -->
<g id="edge13_Node000004_Node000015" class="edge">
<title>Node4&#45;&gt;Node15</title>
<g id="a_edge13_Node000004_Node000015"><a xlink:title=" ">
<path fill="none" stroke="#63b8ff" d="M1470.99,-119.44C1464.4,-117.2 1457.25,-115.03 1450.5,-113.5 1319.93,-83.85 1281.78,-93.71 1144.72,-77.61"/>
<polygon fill="#63b8ff" stroke="#63b8ff" points="1145.15,-74.02 1134.8,-76.3 1144.31,-80.97 1145.15,-74.02"/>
</a>
</g>
</g>
<!-- Node16 -->
<g id="Node000016" class="node">
<title>Node16</title>
<g id="a_Node000016"><a xlink:title=" ">
<polygon fill="#e0e0e0" stroke="#999999" points="1264.88,-77.5 1152.12,-77.5 1152.12,-56.75 1264.88,-56.75 1264.88,-77.5"/>
<text text-anchor="middle" x="1208.5" y="-64" font-family="FreeSans" font-size="10.00">eigen3/Eigen/Dense</text>
</a>
</g>
</g>
<!-- Node4&#45;&gt;Node16 -->
<g id="edge14_Node000004_Node000016" class="edge">
<title>Node4&#45;&gt;Node16</title>
<g id="a_edge14_Node000004_Node000016"><a xlink:title=" ">
<path fill="none" stroke="#63b8ff" d="M1469.94,-119.43C1463.62,-117.29 1456.87,-115.18 1450.5,-113.5 1392.28,-98.16 1324.87,-85.97 1276,-78.1"/>
<polygon fill="#63b8ff" stroke="#63b8ff" points="1276.67,-74.5 1266.25,-76.39 1275.57,-81.41 1276.67,-74.5"/>
</a>
</g>
</g>
<!-- Node11&#45;&gt;Node7 -->
<g id="edge12_Node000011_Node000007" class="edge">
<title>Node11&#45;&gt;Node7</title>
<g id="a_edge12_Node000011_Node000007"><a xlink:title=" ">
<path fill="none" stroke="#63b8ff" d="M1636.94,-56.34C1619.03,-47.81 1592.84,-35.34 1572.58,-25.69"/>
<polygon fill="#63b8ff" stroke="#63b8ff" points="1574.42,-22.22 1563.88,-21.08 1571.41,-28.54 1574.42,-22.22"/>
</a>
</g>
</g>
<!-- Node11&#45;&gt;Node9 -->
<g id="edge11_Node000011_Node000009" class="edge">
<title>Node11&#45;&gt;Node9</title>
<g id="a_edge11_Node000011_Node000009"><a xlink:title=" ">
<path fill="none" stroke="#63b8ff" d="M1657.5,-56.34C1657.5,-49.56 1657.5,-40.3 1657.5,-31.94"/>
<polygon fill="#63b8ff" stroke="#63b8ff" points="1661,-32.08 1657.5,-22.08 1654,-32.08 1661,-32.08"/>
</a>
</g>
</g>
<!-- Node25&#45;&gt;Node4 -->
<g id="edge25_Node000025_Node000004" class="edge">
<title>Node25&#45;&gt;Node4</title>
<g id="a_edge25_Node000025_Node000004"><a xlink:title=" ">
<path fill="none" stroke="#63b8ff" d="M1553.04,-189.08C1542.75,-178.55 1526.08,-161.51 1513.51,-148.64"/>
<polygon fill="#63b8ff" stroke="#63b8ff" points="1516.43,-146.61 1506.94,-141.9 1511.43,-151.5 1516.43,-146.61"/>
</a>
</g>
</g>
<!-- Node25&#45;&gt;Node9 -->
<g id="edge26_Node000025_Node000009" class="edge">
<title>Node25&#45;&gt;Node9</title>
<g id="a_edge26_Node000025_Node000009"><a xlink:title=" ">
<path fill="none" stroke="#63b8ff" d="M1582.75,-188.97C1615.75,-171.76 1679.99,-132.58 1705.5,-77.5 1714.1,-58.93 1697.76,-40.29 1681.86,-27.55"/>
<polygon fill="#63b8ff" stroke="#63b8ff" points="1684.34,-24.29 1674.23,-21.12 1680.16,-29.91 1684.34,-24.29"/>
</a>
</g>
</g>
</g>
</svg>
