<?xml version="1.0" encoding="UTF-8" standalone="no"?>
<!DOCTYPE svg PUBLIC "-//W3C//DTD SVG 1.1//EN"
 "http://www.w3.org/Graphics/SVG/1.1/DTD/svg11.dtd">
<!-- Generated by graphviz version 2.26.3 (20100126.1600)
 -->
<!-- Title: src/chemistry0d.cpp Pages: 1 -->
<svg width="1445pt" height="262pt"
 viewBox="0.00 0.00 1445.00 262.00" xmlns="http://www.w3.org/2000/svg" xmlns:xlink="http://www.w3.org/1999/xlink">
<g id="graph1" class="graph" transform="scale(1 1) rotate(0) translate(4 258)">
<title>src/chemistry0d.cpp</title>
<polygon fill="white" stroke="white" points="-4,5 -4,-258 1442,-258 1442,5 -4,5"/>
<!-- Node1 -->
<g id="node1" class="node"><title>Node1</title>
<polygon fill="#bfbfbf" stroke="black" points="1209,-233 1209,-253 1311,-253 1311,-233 1209,-233"/>
<text text-anchor="middle" x="1260" y="-240" font-family="FreeSans" font-size="10.00">src/chemistry0d.cpp</text>
</g>
<!-- Node2 -->
<g id="node3" class="node"><title>Node2</title>
<a xlink:href="chemistry0d_8h.html" target="_top" xlink:title="chemistry0d.h">
<polygon fill="white" stroke="black" points="625,-175 625,-195 701,-195 701,-175 625,-175"/>
<text text-anchor="middle" x="663" y="-182" font-family="FreeSans" font-size="10.00">chemistry0d.h</text>
</a>
</g>
<!-- Node1&#45;&gt;Node2 -->
<g id="edge2" class="edge"><title>Node1&#45;&gt;Node2</title>
<path fill="none" stroke="midnightblue" d="M1208.84,-238.03C1095.17,-226.986 822.868,-200.532 711.61,-189.723"/>
<polygon fill="midnightblue" stroke="midnightblue" points="711.648,-186.21 701.356,-188.726 710.971,-193.177 711.648,-186.21"/>
</g>
<!-- Node19 -->
<g id="node37" class="node"><title>Node19</title>
<a xlink:href="debugUtils_8h.html" target="_top" xlink:title="debugUtils.h">
<polygon fill="white" stroke="red" points="1248.5,-59 1248.5,-79 1317.5,-79 1317.5,-59 1248.5,-59"/>
<text text-anchor="middle" x="1283" y="-66" font-family="FreeSans" font-size="10.00">debugUtils.h</text>
</a>
</g>
<!-- Node1&#45;&gt;Node19 -->
<g id="edge44" class="edge"><title>Node1&#45;&gt;Node19</title>
<path fill="none" stroke="midnightblue" d="M1256.57,-232.69C1253.63,-223.262 1249.62,-208.868 1248,-196 1243.06,-156.71 1260.82,-112.472 1272.82,-87.9518"/>
<polygon fill="midnightblue" stroke="midnightblue" points="1275.96,-89.5031 1277.38,-79.0044 1269.72,-86.3235 1275.96,-89.5031"/>
</g>
<!-- Node21 -->
<g id="node44" class="node"><title>Node21</title>
<a xlink:href="readConfig_8h.html" target="_top" xlink:title="readConfig.h">
<polygon fill="white" stroke="black" points="1257,-175 1257,-195 1327,-195 1327,-175 1257,-175"/>
<text text-anchor="middle" x="1292" y="-182" font-family="FreeSans" font-size="10.00">readConfig.h</text>
</a>
</g>
<!-- Node1&#45;&gt;Node21 -->
<g id="edge46" class="edge"><title>Node1&#45;&gt;Node21</title>
<path fill="none" stroke="midnightblue" d="M1265.57,-232.897C1269.93,-225.01 1276.1,-213.821 1281.38,-204.24"/>
<polygon fill="midnightblue" stroke="midnightblue" points="1284.51,-205.824 1286.27,-195.378 1278.38,-202.443 1284.51,-205.824"/>
</g>
<!-- Node22 -->
<g id="node48" class="node"><title>Node22</title>
<polygon fill="white" stroke="#bfbfbf" points="1344.5,-175 1344.5,-195 1437.5,-195 1437.5,-175 1344.5,-175"/>
<text text-anchor="middle" x="1391" y="-182" font-family="FreeSans" font-size="10.00">boost/foreach.hpp</text>
</g>
<!-- Node1&#45;&gt;Node22 -->
<g id="edge52" class="edge"><title>Node1&#45;&gt;Node22</title>
<path fill="none" stroke="midnightblue" d="M1282.82,-232.897C1303.82,-223.598 1335.2,-209.707 1358.76,-199.275"/>
<polygon fill="midnightblue" stroke="midnightblue" points="1360.28,-202.431 1368,-195.182 1357.44,-196.03 1360.28,-202.431"/>
</g>
<!-- Node3 -->
<g id="node5" class="node"><title>Node3</title>
<polygon fill="white" stroke="#bfbfbf" points="-0.5,-117 -0.5,-137 112.5,-137 112.5,-117 -0.5,-117"/>
<text text-anchor="middle" x="56" y="-124" font-family="FreeSans" font-size="10.00">cantera/IdealGasMix.h</text>
</g>
<!-- Node2&#45;&gt;Node3 -->
<g id="edge4" class="edge"><title>Node2&#45;&gt;Node3</title>
<path fill="none" stroke="midnightblue" d="M624.774,-182.755C537.56,-177.405 317.024,-162.577 122.787,-138.153"/>
<polygon fill="midnightblue" stroke="midnightblue" points="123.041,-134.657 112.68,-136.87 122.16,-141.602 123.041,-134.657"/>
</g>
<!-- Node4 -->
<g id="node7" class="node"><title>Node4</title>
<polygon fill="white" stroke="#bfbfbf" points="130,-117 130,-137 236,-137 236,-117 130,-117"/>
<text text-anchor="middle" x="183" y="-124" font-family="FreeSans" font-size="10.00">cantera/equilibrium.h</text>
</g>
<!-- Node2&#45;&gt;Node4 -->
<g id="edge6" class="edge"><title>Node2&#45;&gt;Node4</title>
<path fill="none" stroke="midnightblue" d="M624.858,-181.531C552.888,-174.808 391.931,-158.929 246.092,-138.088"/>
<polygon fill="midnightblue" stroke="midnightblue" points="246.461,-134.605 236.064,-136.643 245.463,-141.534 246.461,-134.605"/>
</g>
<!-- Node5 -->
<g id="node9" class="node"><title>Node5</title>
<polygon fill="white" stroke="#bfbfbf" points="253.5,-117 253.5,-137 342.5,-137 342.5,-117 253.5,-117"/>
<text text-anchor="middle" x="298" y="-124" font-family="FreeSans" font-size="10.00">cantera/thermo.h</text>
</g>
<!-- Node2&#45;&gt;Node5 -->
<g id="edge8" class="edge"><title>Node2&#45;&gt;Node5</title>
<path fill="none" stroke="midnightblue" d="M624.947,-179.957C567.909,-172.247 456.641,-156.626 352.809,-138.262"/>
<polygon fill="midnightblue" stroke="midnightblue" points="353.245,-134.784 342.786,-136.476 352.017,-141.676 353.245,-134.784"/>
</g>
<!-- Node6 -->
<g id="node11" class="node"><title>Node6</title>
<polygon fill="white" stroke="#bfbfbf" points="359.5,-117 359.5,-137 456.5,-137 456.5,-117 359.5,-117"/>
<text text-anchor="middle" x="408" y="-124" font-family="FreeSans" font-size="10.00">cantera/transport.h</text>
</g>
<!-- Node2&#45;&gt;Node6 -->
<g id="edge10" class="edge"><title>Node2&#45;&gt;Node6</title>
<path fill="none" stroke="midnightblue" d="M624.824,-176.317C581.539,-166.472 510.653,-150.349 461.781,-139.233"/>
<polygon fill="midnightblue" stroke="midnightblue" points="462.537,-135.815 452.01,-137.01 460.984,-142.641 462.537,-135.815"/>
</g>
<!-- Node7 -->
<g id="node13" class="node"><title>Node7</title>
<polygon fill="white" stroke="#bfbfbf" points="474,-117 474,-137 566,-137 566,-117 474,-117"/>
<text text-anchor="middle" x="520" y="-124" font-family="FreeSans" font-size="10.00">cantera/kinetics.h</text>
</g>
<!-- Node2&#45;&gt;Node7 -->
<g id="edge12" class="edge"><title>Node2&#45;&gt;Node7</title>
<path fill="none" stroke="midnightblue" d="M638.091,-174.897C614.96,-165.515 580.305,-151.459 554.512,-140.998"/>
<polygon fill="midnightblue" stroke="midnightblue" points="555.685,-137.697 545.103,-137.182 553.054,-144.184 555.685,-137.697"/>
</g>
<!-- Node8 -->
<g id="node15" class="node"><title>Node8</title>
<polygon fill="white" stroke="#bfbfbf" points="584,-117 584,-137 742,-137 742,-117 584,-117"/>
<text text-anchor="middle" x="663" y="-124" font-family="FreeSans" font-size="10.00">cantera/thermo/IdealGasPhase.h</text>
</g>
<!-- Node2&#45;&gt;Node8 -->
<g id="edge14" class="edge"><title>Node2&#45;&gt;Node8</title>
<path fill="none" stroke="midnightblue" d="M663,-174.897C663,-167.339 663,-156.748 663,-147.446"/>
<polygon fill="midnightblue" stroke="midnightblue" points="666.5,-147.378 663,-137.378 659.5,-147.378 666.5,-147.378"/>
</g>
<!-- Node9 -->
<g id="node17" class="node"><title>Node9</title>
<polygon fill="white" stroke="#bfbfbf" points="759.5,-117 759.5,-137 906.5,-137 906.5,-117 759.5,-117"/>
<text text-anchor="middle" x="833" y="-124" font-family="FreeSans" font-size="10.00">cantera/kinetics/GasKinetics.h</text>
</g>
<!-- Node2&#45;&gt;Node9 -->
<g id="edge16" class="edge"><title>Node2&#45;&gt;Node9</title>
<path fill="none" stroke="midnightblue" d="M692.612,-174.897C720.681,-165.321 763.024,-150.874 793.866,-140.352"/>
<polygon fill="midnightblue" stroke="midnightblue" points="795.109,-143.626 803.443,-137.084 792.848,-137.001 795.109,-143.626"/>
</g>
<!-- Node10 -->
<g id="node19" class="node"><title>Node10</title>
<polygon fill="white" stroke="#bfbfbf" points="923.5,-117 923.5,-137 1024.5,-137 1024.5,-117 923.5,-117"/>
<text text-anchor="middle" x="974" y="-124" font-family="FreeSans" font-size="10.00">cantera/base/ctml.h</text>
</g>
<!-- Node2&#45;&gt;Node10 -->
<g id="edge18" class="edge"><title>Node2&#45;&gt;Node10</title>
<path fill="none" stroke="midnightblue" d="M701.135,-177.888C754.066,-168.017 850.372,-150.056 913.259,-138.328"/>
<polygon fill="midnightblue" stroke="midnightblue" points="914.249,-141.704 923.438,-136.43 912.966,-134.822 914.249,-141.704"/>
</g>
<!-- Node11 -->
<g id="node21" class="node"><title>Node11</title>
<a xlink:href="config_8h.html" target="_top" xlink:title="config.h">
<polygon fill="white" stroke="black" points="1042,-117 1042,-137 1092,-137 1092,-117 1042,-117"/>
<text text-anchor="middle" x="1067" y="-124" font-family="FreeSans" font-size="10.00">config.h</text>
</a>
</g>
<!-- Node2&#45;&gt;Node11 -->
<g id="edge20" class="edge"><title>Node2&#45;&gt;Node11</title>
<path fill="none" stroke="midnightblue" d="M701.221,-182.506C767.092,-177.699 906.257,-165.313 1032.09,-137.875"/>
<polygon fill="midnightblue" stroke="midnightblue" points="1032.89,-141.283 1041.89,-135.7 1031.37,-134.449 1032.89,-141.283"/>
</g>
<!-- Node12 -->
<g id="node23" class="node"><title>Node12</title>
<a xlink:href="mathUtils_8h.html" target="_top" xlink:title="mathUtils.h">
<polygon fill="white" stroke="black" points="1109.5,-117 1109.5,-137 1174.5,-137 1174.5,-117 1109.5,-117"/>
<text text-anchor="middle" x="1142" y="-124" font-family="FreeSans" font-size="10.00">mathUtils.h</text>
</a>
</g>
<!-- Node2&#45;&gt;Node12 -->
<g id="edge22" class="edge"><title>Node2&#45;&gt;Node12</title>
<path fill="none" stroke="midnightblue" d="M701.077,-182.909C775.815,-178.375 947.022,-165.878 1099.42,-138.08"/>
<polygon fill="midnightblue" stroke="midnightblue" points="1100.24,-141.489 1109.43,-136.227 1098.96,-134.606 1100.24,-141.489"/>
</g>
<!-- Node13 -->
<g id="node25" class="node"><title>Node13</title>
<polygon fill="white" stroke="#bfbfbf" points="1044.5,-59 1044.5,-79 1087.5,-79 1087.5,-59 1044.5,-59"/>
<text text-anchor="middle" x="1066" y="-66" font-family="FreeSans" font-size="10.00">vector</text>
</g>
<!-- Node12&#45;&gt;Node13 -->
<g id="edge24" class="edge"><title>Node12&#45;&gt;Node13</title>
<path fill="none" stroke="midnightblue" d="M1128.76,-116.897C1117.39,-108.218 1100.77,-95.5384 1087.5,-85.4053"/>
<polygon fill="midnightblue" stroke="midnightblue" points="1089.41,-82.4661 1079.34,-79.1817 1085.17,-88.0308 1089.41,-82.4661"/>
</g>
<!-- Node14 -->
<g id="node27" class="node"><title>Node14</title>
<polygon fill="white" stroke="#bfbfbf" points="983,-59 983,-79 1027,-79 1027,-59 983,-59"/>
<text text-anchor="middle" x="1005" y="-66" font-family="FreeSans" font-size="10.00">cmath</text>
</g>
<!-- Node12&#45;&gt;Node14 -->
<g id="edge26" class="edge"><title>Node12&#45;&gt;Node14</title>
<path fill="none" stroke="midnightblue" d="M1118.14,-116.897C1095.53,-107.327 1061.44,-92.8945 1036.59,-82.3738"/>
<polygon fill="midnightblue" stroke="midnightblue" points="1037.8,-79.087 1027.23,-78.4114 1035.07,-85.5331 1037.8,-79.087"/>
</g>
<!-- Node15 -->
<g id="node29" class="node"><title>Node15</title>
<polygon fill="white" stroke="#bfbfbf" points="1140.5,-1 1140.5,-21 1193.5,-21 1193.5,-1 1140.5,-1"/>
<text text-anchor="middle" x="1167" y="-8" font-family="FreeSans" font-size="10.00">iostream</text>
</g>
<!-- Node12&#45;&gt;Node15 -->
<g id="edge28" class="edge"><title>Node12&#45;&gt;Node15</title>
<path fill="none" stroke="midnightblue" d="M1138.27,-116.926C1133.78,-103.262 1127.6,-78.2381 1134,-58 1137.34,-47.4163 1144.02,-37.1493 1150.5,-28.9251"/>
<polygon fill="midnightblue" stroke="midnightblue" points="1153.27,-31.0708 1157.03,-21.1664 1147.91,-26.563 1153.27,-31.0708"/>
</g>
<!-- Node16 -->
<g id="node31" class="node"><title>Node16</title>
<polygon fill="white" stroke="#bfbfbf" points="1143,-59 1143,-79 1193,-79 1193,-59 1143,-59"/>
<text text-anchor="middle" x="1168" y="-66" font-family="FreeSans" font-size="10.00">sstream</text>
</g>
<!-- Node12&#45;&gt;Node16 -->
<g id="edge30" class="edge"><title>Node12&#45;&gt;Node16</title>
<path fill="none" stroke="midnightblue" d="M1146.53,-116.897C1150.03,-109.093 1154.98,-98.0536 1159.24,-88.5401"/>
<polygon fill="midnightblue" stroke="midnightblue" points="1162.45,-89.9344 1163.35,-79.3776 1156.06,-87.071 1162.45,-89.9344"/>
</g>
<!-- Node17 -->
<g id="node33" class="node"><title>Node17</title>
<polygon fill="white" stroke="#bfbfbf" points="1263,-1 1263,-21 1303,-21 1303,-1 1263,-1"/>
<text text-anchor="middle" x="1283" y="-8" font-family="FreeSans" font-size="10.00">string</text>
</g>
<!-- Node12&#45;&gt;Node17 -->
<g id="edge32" class="edge"><title>Node12&#45;&gt;Node17</title>
<path fill="none" stroke="midnightblue" d="M1155.47,-116.702C1167.71,-107.282 1186.22,-92.8927 1202,-80 1223.32,-62.5823 1247.27,-42.0613 1263.56,-27.9522"/>
<polygon fill="midnightblue" stroke="midnightblue" points="1266.07,-30.4079 1271.32,-21.209 1261.48,-25.1221 1266.07,-30.4079"/>
</g>
<!-- Node18 -->
<g id="node35" class="node"><title>Node18</title>
<polygon fill="white" stroke="#bfbfbf" points="842.5,-59 842.5,-79 877.5,-79 877.5,-59 842.5,-59"/>
<text text-anchor="middle" x="860" y="-66" font-family="FreeSans" font-size="10.00">map</text>
</g>
<!-- Node12&#45;&gt;Node18 -->
<g id="edge34" class="edge"><title>Node12&#45;&gt;Node18</title>
<path fill="none" stroke="midnightblue" d="M1109.4,-117.949C1106.56,-117.255 1103.74,-116.595 1101,-116 1009.47,-96.1065 980.917,-106.324 887.556,-79.983"/>
<polygon fill="midnightblue" stroke="midnightblue" points="888.281,-76.5494 877.702,-77.137 886.338,-83.2745 888.281,-76.5494"/>
</g>
<!-- Node12&#45;&gt;Node19 -->
<g id="edge36" class="edge"><title>Node12&#45;&gt;Node19</title>
<path fill="none" stroke="midnightblue" d="M1166.56,-116.897C1189.37,-107.515 1223.54,-93.4593 1248.97,-82.9979"/>
<polygon fill="midnightblue" stroke="midnightblue" points="1250.33,-86.2228 1258.25,-79.1817 1247.67,-79.7491 1250.33,-86.2228"/>
</g>
<!-- Node20 -->
<g id="node41" class="node"><title>Node20</title>
<polygon fill="white" stroke="#bfbfbf" points="894.5,-59 894.5,-79 965.5,-79 965.5,-59 894.5,-59"/>
<text text-anchor="middle" x="930" y="-66" font-family="FreeSans" font-size="10.00">Eigen/Dense</text>
</g>
<!-- Node12&#45;&gt;Node20 -->
<g id="edge42" class="edge"><title>Node12&#45;&gt;Node20</title>
<path fill="none" stroke="midnightblue" d="M1109.34,-118.065C1073.47,-108.251 1015.62,-92.4253 975.363,-81.4105"/>
<polygon fill="midnightblue" stroke="midnightblue" points="976.099,-77.9834 965.53,-78.7204 974.252,-84.7353 976.099,-77.9834"/>
</g>
<!-- Node19&#45;&gt;Node15 -->
<g id="edge40" class="edge"><title>Node19&#45;&gt;Node15</title>
<path fill="none" stroke="midnightblue" d="M1262.79,-58.8972C1244.44,-49.7218 1217.15,-36.0762 1196.39,-25.6943"/>
<polygon fill="midnightblue" stroke="midnightblue" points="1197.87,-22.5234 1187.36,-21.1817 1194.74,-28.7844 1197.87,-22.5234"/>
</g>
<!-- Node19&#45;&gt;Node17 -->
<g id="edge38" class="edge"><title>Node19&#45;&gt;Node17</title>
<path fill="none" stroke="midnightblue" d="M1283,-58.8972C1283,-51.339 1283,-40.7476 1283,-31.4458"/>
<polygon fill="midnightblue" stroke="midnightblue" points="1286.5,-31.3776 1283,-21.3776 1279.5,-31.3776 1286.5,-31.3776"/>
</g>
<!-- Node21&#45;&gt;Node12 -->
<g id="edge48" class="edge"><title>Node21&#45;&gt;Node12</title>
<path fill="none" stroke="midnightblue" d="M1265.87,-174.897C1241.43,-165.445 1204.71,-151.249 1177.6,-140.764"/>
<polygon fill="midnightblue" stroke="midnightblue" points="1178.67,-137.426 1168.08,-137.084 1176.14,-143.955 1178.67,-137.426"/>
</g>
<!-- Node21&#45;&gt;Node17 -->
<g id="edge50" class="edge"><title>Node21&#45;&gt;Node17</title>
<path fill="none" stroke="midnightblue" d="M1298.96,-174.884C1313.08,-153.061 1342.36,-100.127 1326,-58 1321.52,-46.4764 1312.76,-36.0553 1304.3,-27.9709"/>
<polygon fill="midnightblue" stroke="midnightblue" points="1306.55,-25.2841 1296.76,-21.2389 1301.89,-30.5077 1306.55,-25.2841"/>
</g>
</g>
</svg>
