<?xml version="1.0" encoding="UTF-8" standalone="no"?>
<!DOCTYPE svg PUBLIC "-//W3C//DTD SVG 1.1//EN"
 "http://www.w3.org/Graphics/SVG/1.1/DTD/svg11.dtd">
<!-- Generated by graphviz version 2.28.0 (20120425.2022)
 -->
<!-- Title: src/chemistry0d.h Pages: 1 -->
<svg width="513pt" height="140pt"
 viewBox="0.00 0.00 513.00 140.00" xmlns="http://www.w3.org/2000/svg" xmlns:xlink="http://www.w3.org/1999/xlink">
<g id="graph1" class="graph" transform="scale(1 1) rotate(0) translate(4 136)">
<title>src/chemistry0d.h</title>
<polygon fill="white" stroke="white" points="-4,5 -4,-136 510,-136 510,5 -4,5"/>
<!-- Node1 -->
<g id="node1" class="node"><title>Node1</title>
<polygon fill="#bfbfbf" stroke="black" points="208.5,-112.5 208.5,-131.5 303.5,-131.5 303.5,-112.5 208.5,-112.5"/>
<text text-anchor="middle" x="256" y="-119.5" font-family="FreeSans" font-size="10.00">src/chemistry0d.h</text>
</g>
<!-- Node2 -->
<g id="node3" class="node"><title>Node2</title>
<a xlink:href="chemistry0d_8cpp.html" target="_top" xlink:title="src/chemistry0d.cpp">
<polygon fill="white" stroke="black" points="-0.5,-56.5 -0.5,-75.5 104.5,-75.5 104.5,-56.5 -0.5,-56.5"/>
<text text-anchor="middle" x="52" y="-63.5" font-family="FreeSans" font-size="10.00">src/chemistry0d.cpp</text>
</a>
</g>
<!-- Node1&#45;&gt;Node2 -->
<g id="edge2" class="edge"><title>Node1&#45;&gt;Node2</title>
<path fill="none" stroke="midnightblue" d="M213.799,-109.829C175.282,-99.6333 119.178,-84.7823 84.1732,-75.5164"/>
<polygon fill="midnightblue" stroke="midnightblue" points="213.113,-113.268 223.676,-112.444 214.904,-106.501 213.113,-113.268"/>
</g>
<!-- Node3 -->
<g id="node5" class="node"><title>Node3</title>
<a xlink:href="convectionSystem_8cpp.html" target="_top" xlink:title="src/convectionSystem.cpp">
<polygon fill="white" stroke="black" points="123,-56.5 123,-75.5 257,-75.5 257,-56.5 123,-56.5"/>
<text text-anchor="middle" x="190" y="-63.5" font-family="FreeSans" font-size="10.00">src/convectionSystem.cpp</text>
</a>
</g>
<!-- Node1&#45;&gt;Node3 -->
<g id="edge4" class="edge"><title>Node1&#45;&gt;Node3</title>
<path fill="none" stroke="midnightblue" d="M237.446,-105.82C225.622,-96.1452 210.714,-83.9481 200.797,-75.8339"/>
<polygon fill="midnightblue" stroke="midnightblue" points="235.44,-108.7 245.396,-112.324 239.873,-103.283 235.44,-108.7"/>
</g>
<!-- Node4 -->
<g id="node7" class="node"><title>Node4</title>
<a xlink:href="flameSolver_8h.html" target="_top" xlink:title="src/flameSolver.h">
<polygon fill="white" stroke="black" points="275.5,-56.5 275.5,-75.5 370.5,-75.5 370.5,-56.5 275.5,-56.5"/>
<text text-anchor="middle" x="323" y="-63.5" font-family="FreeSans" font-size="10.00">src/flameSolver.h</text>
</a>
</g>
<!-- Node1&#45;&gt;Node4 -->
<g id="edge6" class="edge"><title>Node1&#45;&gt;Node4</title>
<path fill="none" stroke="midnightblue" d="M274.835,-105.82C286.838,-96.1452 301.972,-83.9481 312.039,-75.8339"/>
<polygon fill="midnightblue" stroke="midnightblue" points="272.354,-103.324 266.765,-112.324 276.747,-108.774 272.354,-103.324"/>
</g>
<!-- Node6 -->
<g id="node11" class="node"><title>Node6</title>
<a xlink:href="sourceSystem_8cpp.html" target="_top" xlink:title="src/sourceSystem.cpp">
<polygon fill="white" stroke="black" points="389,-56.5 389,-75.5 505,-75.5 505,-56.5 389,-56.5"/>
<text text-anchor="middle" x="447" y="-63.5" font-family="FreeSans" font-size="10.00">src/sourceSystem.cpp</text>
</a>
</g>
<!-- Node1&#45;&gt;Node6 -->
<g id="edge10" class="edge"><title>Node1&#45;&gt;Node6</title>
<path fill="none" stroke="midnightblue" d="M295.973,-109.699C332.021,-99.507 384.243,-84.7429 416.877,-75.5164"/>
<polygon fill="midnightblue" stroke="midnightblue" points="294.935,-106.355 286.265,-112.444 296.84,-113.091 294.935,-106.355"/>
</g>
<!-- Node5 -->
<g id="node9" class="node"><title>Node5</title>
<a xlink:href="flameSolver_8cpp.html" target="_top" xlink:title="src/flameSolver.cpp">
<polygon fill="white" stroke="black" points="270.5,-0.5 270.5,-19.5 375.5,-19.5 375.5,-0.5 270.5,-0.5"/>
<text text-anchor="middle" x="323" y="-7.5" font-family="FreeSans" font-size="10.00">src/flameSolver.cpp</text>
</a>
</g>
<!-- Node4&#45;&gt;Node5 -->
<g id="edge8" class="edge"><title>Node4&#45;&gt;Node5</title>
<path fill="none" stroke="midnightblue" d="M323,-45.8045C323,-36.9102 323,-26.7798 323,-19.7511"/>
<polygon fill="midnightblue" stroke="midnightblue" points="319.5,-46.083 323,-56.083 326.5,-46.083 319.5,-46.083"/>
</g>
</g>
</svg>
