<?xml version="1.0" encoding="UTF-8" standalone="no"?>
<!DOCTYPE svg PUBLIC "-//W3C//DTD SVG 1.1//EN"
 "http://www.w3.org/Graphics/SVG/1.1/DTD/svg11.dtd">
<!-- Generated by graphviz version 2.26.3 (20100126.1600)
 -->
<!-- Title: src/chemistry0d.h Pages: 1 -->
<svg width="1423pt" height="204pt"
 viewBox="0.00 0.00 1423.00 204.00" xmlns="http://www.w3.org/2000/svg" xmlns:xlink="http://www.w3.org/1999/xlink">
<g id="graph1" class="graph" transform="scale(1 1) rotate(0) translate(4 200)">
<title>src/chemistry0d.h</title>
<polygon fill="white" stroke="white" points="-4,5 -4,-200 1420,-200 1420,5 -4,5"/>
<!-- Node1 -->
<g id="node1" class="node"><title>Node1</title>
<polygon fill="#bfbfbf" stroke="black" points="545,-175 545,-195 637,-195 637,-175 545,-175"/>
<text text-anchor="middle" x="591" y="-182" font-family="FreeSans" font-size="10.00">src/chemistry0d.h</text>
</g>
<!-- Node2 -->
<g id="node3" class="node"><title>Node2</title>
<polygon fill="white" stroke="#bfbfbf" points="-0.5,-117 -0.5,-137 112.5,-137 112.5,-117 -0.5,-117"/>
<text text-anchor="middle" x="56" y="-124" font-family="FreeSans" font-size="10.00">cantera/IdealGasMix.h</text>
</g>
<!-- Node1&#45;&gt;Node2 -->
<g id="edge2" class="edge"><title>Node1&#45;&gt;Node2</title>
<path fill="none" stroke="midnightblue" d="M544.847,-181.432C462.217,-174.817 283.357,-159.464 122.749,-138.171"/>
<polygon fill="midnightblue" stroke="midnightblue" points="123.061,-134.682 112.686,-136.826 122.134,-141.62 123.061,-134.682"/>
</g>
<!-- Node3 -->
<g id="node5" class="node"><title>Node3</title>
<polygon fill="white" stroke="#bfbfbf" points="130,-117 130,-137 236,-137 236,-117 130,-117"/>
<text text-anchor="middle" x="183" y="-124" font-family="FreeSans" font-size="10.00">cantera/equilibrium.h</text>
</g>
<!-- Node1&#45;&gt;Node3 -->
<g id="edge4" class="edge"><title>Node1&#45;&gt;Node3</title>
<path fill="none" stroke="midnightblue" d="M544.741,-179.322C480.246,-171.273 359.402,-155.707 246.294,-138.157"/>
<polygon fill="midnightblue" stroke="midnightblue" points="246.496,-134.646 236.076,-136.563 245.417,-141.563 246.496,-134.646"/>
</g>
<!-- Node4 -->
<g id="node7" class="node"><title>Node4</title>
<polygon fill="white" stroke="#bfbfbf" points="253.5,-117 253.5,-137 342.5,-137 342.5,-117 253.5,-117"/>
<text text-anchor="middle" x="298" y="-124" font-family="FreeSans" font-size="10.00">cantera/thermo.h</text>
</g>
<!-- Node1&#45;&gt;Node4 -->
<g id="edge6" class="edge"><title>Node1&#45;&gt;Node4</title>
<path fill="none" stroke="midnightblue" d="M544.96,-176.143C498.795,-167.227 425.39,-152.953 352.765,-138.342"/>
<polygon fill="midnightblue" stroke="midnightblue" points="353.02,-134.823 342.526,-136.279 351.637,-141.686 353.02,-134.823"/>
</g>
<!-- Node5 -->
<g id="node9" class="node"><title>Node5</title>
<polygon fill="white" stroke="#bfbfbf" points="359.5,-117 359.5,-137 456.5,-137 456.5,-117 359.5,-117"/>
<text text-anchor="middle" x="408" y="-124" font-family="FreeSans" font-size="10.00">cantera/transport.h</text>
</g>
<!-- Node1&#45;&gt;Node5 -->
<g id="edge8" class="edge"><title>Node1&#45;&gt;Node5</title>
<path fill="none" stroke="midnightblue" d="M559.124,-174.897C528.777,-165.279 482.932,-150.749 449.696,-140.215"/>
<polygon fill="midnightblue" stroke="midnightblue" points="450.408,-136.769 439.817,-137.084 448.293,-143.442 450.408,-136.769"/>
</g>
<!-- Node6 -->
<g id="node11" class="node"><title>Node6</title>
<polygon fill="white" stroke="#bfbfbf" points="474,-117 474,-137 566,-137 566,-117 474,-117"/>
<text text-anchor="middle" x="520" y="-124" font-family="FreeSans" font-size="10.00">cantera/kinetics.h</text>
</g>
<!-- Node1&#45;&gt;Node6 -->
<g id="edge10" class="edge"><title>Node1&#45;&gt;Node6</title>
<path fill="none" stroke="midnightblue" d="M578.633,-174.897C568.174,-166.353 552.97,-153.933 540.665,-143.881"/>
<polygon fill="midnightblue" stroke="midnightblue" points="542.662,-140.994 532.704,-137.378 538.234,-146.415 542.662,-140.994"/>
</g>
<!-- Node7 -->
<g id="node13" class="node"><title>Node7</title>
<polygon fill="white" stroke="#bfbfbf" points="584,-117 584,-137 742,-137 742,-117 584,-117"/>
<text text-anchor="middle" x="663" y="-124" font-family="FreeSans" font-size="10.00">cantera/thermo/IdealGasPhase.h</text>
</g>
<!-- Node1&#45;&gt;Node7 -->
<g id="edge12" class="edge"><title>Node1&#45;&gt;Node7</title>
<path fill="none" stroke="midnightblue" d="M603.541,-174.897C614.148,-166.353 629.566,-153.933 642.044,-143.881"/>
<polygon fill="midnightblue" stroke="midnightblue" points="644.526,-146.377 650.117,-137.378 640.134,-140.925 644.526,-146.377"/>
</g>
<!-- Node8 -->
<g id="node15" class="node"><title>Node8</title>
<polygon fill="white" stroke="#bfbfbf" points="759.5,-117 759.5,-137 906.5,-137 906.5,-117 759.5,-117"/>
<text text-anchor="middle" x="833" y="-124" font-family="FreeSans" font-size="10.00">cantera/kinetics/GasKinetics.h</text>
</g>
<!-- Node1&#45;&gt;Node8 -->
<g id="edge14" class="edge"><title>Node1&#45;&gt;Node8</title>
<path fill="none" stroke="midnightblue" d="M632.877,-174.963C674.042,-165.097 736.965,-150.017 781.242,-139.405"/>
<polygon fill="midnightblue" stroke="midnightblue" points="782.322,-142.745 791.231,-137.011 780.69,-135.938 782.322,-142.745"/>
</g>
<!-- Node9 -->
<g id="node17" class="node"><title>Node9</title>
<polygon fill="white" stroke="#bfbfbf" points="923.5,-117 923.5,-137 1024.5,-137 1024.5,-117 923.5,-117"/>
<text text-anchor="middle" x="974" y="-124" font-family="FreeSans" font-size="10.00">cantera/base/ctml.h</text>
</g>
<!-- Node1&#45;&gt;Node9 -->
<g id="edge16" class="edge"><title>Node1&#45;&gt;Node9</title>
<path fill="none" stroke="midnightblue" d="M637.233,-178.89C698.211,-170.699 809.103,-155.349 913.42,-138.218"/>
<polygon fill="midnightblue" stroke="midnightblue" points="914.197,-141.637 923.493,-136.555 913.056,-134.731 914.197,-141.637"/>
</g>
<!-- Node10 -->
<g id="node19" class="node"><title>Node10</title>
<a xlink:href="config_8h.html" target="_top" xlink:title="config.h">
<polygon fill="white" stroke="black" points="1042,-117 1042,-137 1092,-137 1092,-117 1042,-117"/>
<text text-anchor="middle" x="1067" y="-124" font-family="FreeSans" font-size="10.00">config.h</text>
</a>
</g>
<!-- Node1&#45;&gt;Node10 -->
<g id="edge18" class="edge"><title>Node1&#45;&gt;Node10</title>
<path fill="none" stroke="midnightblue" d="M637.306,-183.228C716.504,-179.515 883.017,-168.739 1031.69,-137.915"/>
<polygon fill="midnightblue" stroke="midnightblue" points="1032.84,-141.248 1041.91,-135.759 1031.4,-134.399 1032.84,-141.248"/>
</g>
<!-- Node11 -->
<g id="node21" class="node"><title>Node11</title>
<a xlink:href="mathUtils_8h.html" target="_top" xlink:title="mathUtils.h">
<polygon fill="white" stroke="black" points="1109.5,-117 1109.5,-137 1174.5,-137 1174.5,-117 1109.5,-117"/>
<text text-anchor="middle" x="1142" y="-124" font-family="FreeSans" font-size="10.00">mathUtils.h</text>
</a>
</g>
<!-- Node1&#45;&gt;Node11 -->
<g id="edge20" class="edge"><title>Node1&#45;&gt;Node11</title>
<path fill="none" stroke="midnightblue" d="M637.067,-183.381C725.26,-179.715 924.077,-168.715 1099.51,-138.033"/>
<polygon fill="midnightblue" stroke="midnightblue" points="1100.2,-141.466 1109.44,-136.272 1098.98,-134.573 1100.2,-141.466"/>
</g>
<!-- Node12 -->
<g id="node23" class="node"><title>Node12</title>
<polygon fill="white" stroke="#bfbfbf" points="940.5,-59 940.5,-79 983.5,-79 983.5,-59 940.5,-59"/>
<text text-anchor="middle" x="962" y="-66" font-family="FreeSans" font-size="10.00">vector</text>
</g>
<!-- Node11&#45;&gt;Node12 -->
<g id="edge22" class="edge"><title>Node11&#45;&gt;Node12</title>
<path fill="none" stroke="midnightblue" d="M1109.38,-117.269C1080.92,-108.672 1038.31,-95.5431 993.238,-80.3316"/>
<polygon fill="midnightblue" stroke="midnightblue" points="994.181,-76.9555 983.586,-77.0548 991.93,-83.5839 994.181,-76.9555"/>
</g>
<!-- Node13 -->
<g id="node25" class="node"><title>Node13</title>
<polygon fill="white" stroke="#bfbfbf" points="1001,-59 1001,-79 1045,-79 1045,-59 1001,-59"/>
<text text-anchor="middle" x="1023" y="-66" font-family="FreeSans" font-size="10.00">cmath</text>
</g>
<!-- Node11&#45;&gt;Node13 -->
<g id="edge24" class="edge"><title>Node11&#45;&gt;Node13</title>
<path fill="none" stroke="midnightblue" d="M1121.27,-116.897C1102.45,-107.722 1074.45,-94.0762 1053.15,-83.6943"/>
<polygon fill="midnightblue" stroke="midnightblue" points="1054.41,-80.4168 1043.89,-79.1817 1051.35,-86.7092 1054.41,-80.4168"/>
</g>
<!-- Node14 -->
<g id="node27" class="node"><title>Node14</title>
<polygon fill="white" stroke="#bfbfbf" points="1020.5,-1 1020.5,-21 1073.5,-21 1073.5,-1 1020.5,-1"/>
<text text-anchor="middle" x="1047" y="-8" font-family="FreeSans" font-size="10.00">iostream</text>
</g>
<!-- Node11&#45;&gt;Node14 -->
<g id="edge26" class="edge"><title>Node11&#45;&gt;Node14</title>
<path fill="none" stroke="midnightblue" d="M1133.57,-116.706C1117.4,-96.9649 1081.86,-53.5668 1061.71,-28.9571"/>
<polygon fill="midnightblue" stroke="midnightblue" points="1064.32,-26.6245 1055.28,-21.1055 1058.9,-31.0598 1064.32,-26.6245"/>
</g>
<!-- Node15 -->
<g id="node29" class="node"><title>Node15</title>
<polygon fill="white" stroke="#bfbfbf" points="1225,-59 1225,-79 1275,-79 1275,-59 1225,-59"/>
<text text-anchor="middle" x="1250" y="-66" font-family="FreeSans" font-size="10.00">sstream</text>
</g>
<!-- Node11&#45;&gt;Node15 -->
<g id="edge28" class="edge"><title>Node11&#45;&gt;Node15</title>
<path fill="none" stroke="midnightblue" d="M1160.81,-116.897C1177.74,-107.804 1202.85,-94.3218 1222.11,-83.9757"/>
<polygon fill="midnightblue" stroke="midnightblue" points="1223.89,-86.9965 1231.04,-79.1817 1220.58,-80.8295 1223.89,-86.9965"/>
</g>
<!-- Node16 -->
<g id="node31" class="node"><title>Node16</title>
<polygon fill="white" stroke="#bfbfbf" points="1091,-1 1091,-21 1131,-21 1131,-1 1091,-1"/>
<text text-anchor="middle" x="1111" y="-8" font-family="FreeSans" font-size="10.00">string</text>
</g>
<!-- Node11&#45;&gt;Node16 -->
<g id="edge30" class="edge"><title>Node11&#45;&gt;Node16</title>
<path fill="none" stroke="midnightblue" d="M1139.25,-116.706C1134.11,-97.4821 1122.98,-55.8247 1116.33,-30.9294"/>
<polygon fill="midnightblue" stroke="midnightblue" points="1119.66,-29.8628 1113.7,-21.1055 1112.9,-31.6702 1119.66,-29.8628"/>
</g>
<!-- Node17 -->
<g id="node33" class="node"><title>Node17</title>
<polygon fill="white" stroke="#bfbfbf" points="1292.5,-59 1292.5,-79 1327.5,-79 1327.5,-59 1292.5,-59"/>
<text text-anchor="middle" x="1310" y="-66" font-family="FreeSans" font-size="10.00">map</text>
</g>
<!-- Node11&#45;&gt;Node17 -->
<g id="edge32" class="edge"><title>Node11&#45;&gt;Node17</title>
<path fill="none" stroke="midnightblue" d="M1174.69,-117.004C1201.6,-108.593 1240.92,-95.8937 1282.89,-80.2487"/>
<polygon fill="midnightblue" stroke="midnightblue" points="1284.33,-83.4472 1292.46,-76.649 1281.86,-76.8958 1284.33,-83.4472"/>
</g>
<!-- Node18 -->
<g id="node35" class="node"><title>Node18</title>
<a xlink:href="debugUtils_8h.html" target="_top" xlink:title="debugUtils.h">
<polygon fill="white" stroke="black" points="1138.5,-59 1138.5,-79 1207.5,-79 1207.5,-59 1138.5,-59"/>
<text text-anchor="middle" x="1173" y="-66" font-family="FreeSans" font-size="10.00">debugUtils.h</text>
</a>
</g>
<!-- Node11&#45;&gt;Node18 -->
<g id="edge34" class="edge"><title>Node11&#45;&gt;Node18</title>
<path fill="none" stroke="midnightblue" d="M1147.4,-116.897C1151.62,-109.01 1157.6,-97.8209 1162.72,-88.2401"/>
<polygon fill="midnightblue" stroke="midnightblue" points="1165.83,-89.8468 1167.45,-79.3776 1159.65,-86.5471 1165.83,-89.8468"/>
</g>
<!-- Node22 -->
<g id="node45" class="node"><title>Node22</title>
<polygon fill="white" stroke="#bfbfbf" points="1344.5,-59 1344.5,-79 1415.5,-79 1415.5,-59 1344.5,-59"/>
<text text-anchor="middle" x="1380" y="-66" font-family="FreeSans" font-size="10.00">Eigen/Dense</text>
</g>
<!-- Node11&#45;&gt;Node22 -->
<g id="edge46" class="edge"><title>Node11&#45;&gt;Node22</title>
<path fill="none" stroke="midnightblue" d="M1174.63,-119.172C1211.23,-110.373 1272.66,-95.5582 1334.53,-80.3508"/>
<polygon fill="midnightblue" stroke="midnightblue" points="1335.59,-83.6953 1344.46,-77.9076 1333.92,-76.898 1335.59,-83.6953"/>
</g>
<!-- Node18&#45;&gt;Node14 -->
<g id="edge38" class="edge"><title>Node18&#45;&gt;Node14</title>
<path fill="none" stroke="midnightblue" d="M1151.05,-58.8972C1130.94,-49.6391 1100.94,-35.83 1078.31,-25.4145"/>
<polygon fill="midnightblue" stroke="midnightblue" points="1079.67,-22.1838 1069.12,-21.1817 1076.74,-28.5425 1079.67,-22.1838"/>
</g>
<!-- Node18&#45;&gt;Node16 -->
<g id="edge36" class="edge"><title>Node18&#45;&gt;Node16</title>
<path fill="none" stroke="midnightblue" d="M1162.2,-58.8972C1153.24,-50.5175 1140.3,-38.4093 1129.67,-28.4638"/>
<polygon fill="midnightblue" stroke="midnightblue" points="1131.79,-25.6532 1122.09,-21.3776 1127,-30.7652 1131.79,-25.6532"/>
</g>
<!-- Node19 -->
<g id="node39" class="node"><title>Node19</title>
<polygon fill="white" stroke="#bfbfbf" points="1148.5,-1 1148.5,-21 1197.5,-21 1197.5,-1 1148.5,-1"/>
<text text-anchor="middle" x="1173" y="-8" font-family="FreeSans" font-size="10.00">fstream</text>
</g>
<!-- Node18&#45;&gt;Node19 -->
<g id="edge40" class="edge"><title>Node18&#45;&gt;Node19</title>
<path fill="none" stroke="midnightblue" d="M1173,-58.8972C1173,-51.339 1173,-40.7476 1173,-31.4458"/>
<polygon fill="midnightblue" stroke="midnightblue" points="1176.5,-31.3776 1173,-21.3776 1169.5,-31.3776 1176.5,-31.3776"/>
</g>
<!-- Node20 -->
<g id="node41" class="node"><title>Node20</title>
<polygon fill="white" stroke="#bfbfbf" points="1215,-1 1215,-21 1273,-21 1273,-1 1215,-1"/>
<text text-anchor="middle" x="1244" y="-8" font-family="FreeSans" font-size="10.00">exception</text>
</g>
<!-- Node18&#45;&gt;Node20 -->
<g id="edge42" class="edge"><title>Node18&#45;&gt;Node20</title>
<path fill="none" stroke="midnightblue" d="M1185.37,-58.8972C1195.83,-50.3532 1211.03,-37.933 1223.33,-27.8813"/>
<polygon fill="midnightblue" stroke="midnightblue" points="1225.77,-30.4146 1231.3,-21.3776 1221.34,-24.9935 1225.77,-30.4146"/>
</g>
<!-- Node21 -->
<g id="node43" class="node"><title>Node21</title>
<polygon fill="white" stroke="#bfbfbf" points="1290.5,-1 1290.5,-21 1379.5,-21 1379.5,-1 1290.5,-1"/>
<text text-anchor="middle" x="1335" y="-8" font-family="FreeSans" font-size="10.00">boost/format.hpp</text>
</g>
<!-- Node18&#45;&gt;Node21 -->
<g id="edge44" class="edge"><title>Node18&#45;&gt;Node21</title>
<path fill="none" stroke="midnightblue" d="M1201.22,-58.8972C1227.85,-49.362 1267.97,-34.9992 1297.33,-24.4885"/>
<polygon fill="midnightblue" stroke="midnightblue" points="1298.6,-27.7502 1306.83,-21.0842 1296.24,-21.1598 1298.6,-27.7502"/>
</g>
</g>
</svg>
