<?xml version="1.0" encoding="UTF-8" standalone="no"?>
<!DOCTYPE svg PUBLIC "-//W3C//DTD SVG 1.1//EN"
 "http://www.w3.org/Graphics/SVG/1.1/DTD/svg11.dtd">
<!-- Generated by graphviz version 2.38.0 (20140413.2041)
 -->
<!-- Title: src/chemistry0d.h Pages: 1 -->
<svg width="496pt" height="140pt"
 viewBox="0.00 0.00 495.50 140.00" xmlns="http://www.w3.org/2000/svg" xmlns:xlink="http://www.w3.org/1999/xlink">
<g id="graph0" class="graph" transform="scale(1 1) rotate(0) translate(4 136)">
<title>src/chemistry0d.h</title>
<polygon fill="white" stroke="none" points="-4,4 -4,-136 491.5,-136 491.5,4 -4,4"/>
<!-- Node1 -->
<g id="node1" class="node"><title>Node1</title>
<polygon fill="#bfbfbf" stroke="black" points="203,-112.5 203,-131.5 295,-131.5 295,-112.5 203,-112.5"/>
<text text-anchor="middle" x="249" y="-119.5" font-family="FreeSans" font-size="10.00">src/chemistry0d.h</text>
</g>
<!-- Node2 -->
<g id="node2" class="node"><title>Node2</title>
<g id="a_node2"><a xlink:href="chemistry0d_8cpp.html" target="_top" xlink:title="src/chemistry0d.cpp">
<polygon fill="white" stroke="black" points="-7.10543e-15,-56.5 -7.10543e-15,-75.5 102,-75.5 102,-56.5 -7.10543e-15,-56.5"/>
<text text-anchor="middle" x="51" y="-63.5" font-family="FreeSans" font-size="10.00">src/chemistry0d.cpp</text>
</a>
</g>
</g>
<!-- Node1&#45;&gt;Node2 -->
<g id="edge1" class="edge"><title>Node1&#45;&gt;Node2</title>
<path fill="none" stroke="midnightblue" d="M207.562,-109.699C170.193,-99.507 116.057,-84.7429 82.2269,-75.5164"/>
<polygon fill="midnightblue" stroke="midnightblue" points="207.058,-113.189 217.626,-112.444 208.9,-106.436 207.058,-113.189"/>
</g>
<!-- Node3 -->
<g id="node3" class="node"><title>Node3</title>
<g id="a_node3"><a xlink:href="convectionSystem_8cpp.html" target="_top" xlink:title="src/convectionSystem.cpp">
<polygon fill="white" stroke="black" points="120.5,-56.5 120.5,-75.5 249.5,-75.5 249.5,-56.5 120.5,-56.5"/>
<text text-anchor="middle" x="185" y="-63.5" font-family="FreeSans" font-size="10.00">src/convectionSystem.cpp</text>
</a>
</g>
</g>
<!-- Node1&#45;&gt;Node3 -->
<g id="edge2" class="edge"><title>Node1&#45;&gt;Node3</title>
<path fill="none" stroke="midnightblue" d="M231.009,-105.82C219.542,-96.1452 205.087,-83.9481 195.47,-75.8339"/>
<polygon fill="midnightblue" stroke="midnightblue" points="228.817,-108.55 238.717,-112.324 233.331,-103.2 228.817,-108.55"/>
</g>
<!-- Node4 -->
<g id="node4" class="node"><title>Node4</title>
<g id="a_node4"><a xlink:href="flameSolver_8h.html" target="_top" xlink:title="src/flameSolver.h">
<polygon fill="white" stroke="black" points="268,-56.5 268,-75.5 358,-75.5 358,-56.5 268,-56.5"/>
<text text-anchor="middle" x="313" y="-63.5" font-family="FreeSans" font-size="10.00">src/flameSolver.h</text>
</a>
</g>
</g>
<!-- Node1&#45;&gt;Node4 -->
<g id="edge3" class="edge"><title>Node1&#45;&gt;Node4</title>
<path fill="none" stroke="midnightblue" d="M266.991,-105.82C278.458,-96.1452 292.913,-83.9481 302.53,-75.8339"/>
<polygon fill="midnightblue" stroke="midnightblue" points="264.669,-103.2 259.283,-112.324 269.183,-108.55 264.669,-103.2"/>
</g>
<!-- Node6 -->
<g id="node6" class="node"><title>Node6</title>
<g id="a_node6"><a xlink:href="sourceSystem_8cpp.html" target="_top" xlink:title="src/sourceSystem.cpp">
<polygon fill="white" stroke="black" points="376.5,-56.5 376.5,-75.5 487.5,-75.5 487.5,-56.5 376.5,-56.5"/>
<text text-anchor="middle" x="432" y="-63.5" font-family="FreeSans" font-size="10.00">src/sourceSystem.cpp</text>
</a>
</g>
</g>
<!-- Node1&#45;&gt;Node6 -->
<g id="edge5" class="edge"><title>Node1&#45;&gt;Node6</title>
<path fill="none" stroke="midnightblue" d="M287.743,-109.568C322.265,-99.381 372.005,-84.7034 403.139,-75.5164"/>
<polygon fill="midnightblue" stroke="midnightblue" points="286.597,-106.256 277.997,-112.444 288.579,-112.97 286.597,-106.256"/>
</g>
<!-- Node5 -->
<g id="node5" class="node"><title>Node5</title>
<g id="a_node5"><a xlink:href="flameSolver_8cpp.html" target="_top" xlink:title="src/flameSolver.cpp">
<polygon fill="white" stroke="black" points="262.5,-0.5 262.5,-19.5 363.5,-19.5 363.5,-0.5 262.5,-0.5"/>
<text text-anchor="middle" x="313" y="-7.5" font-family="FreeSans" font-size="10.00">src/flameSolver.cpp</text>
</a>
</g>
</g>
<!-- Node4&#45;&gt;Node5 -->
<g id="edge4" class="edge"><title>Node4&#45;&gt;Node5</title>
<path fill="none" stroke="midnightblue" d="M313,-45.8045C313,-36.9102 313,-26.7798 313,-19.7511"/>
<polygon fill="midnightblue" stroke="midnightblue" points="309.5,-46.083 313,-56.083 316.5,-46.083 309.5,-46.083"/>
</g>
</g>
</svg>
