<?xml version="1.0" encoding="UTF-8" standalone="no"?>
<!DOCTYPE svg PUBLIC "-//W3C//DTD SVG 1.1//EN"
 "http://www.w3.org/Graphics/SVG/1.1/DTD/svg11.dtd">
<!-- Generated by graphviz version 8.1.0 (20230707.2238)
 -->
<!-- Title: src/chemistry0d.h Pages: 1 -->
<svg width="542pt" height="142pt"
 viewBox="0.00 0.00 542.38 142.25" xmlns="http://www.w3.org/2000/svg" xmlns:xlink="http://www.w3.org/1999/xlink">
<g id="graph0" class="graph" transform="scale(1 1) rotate(0) translate(4 138.25)">
<title>src/chemistry0d.h</title>
<!-- Node1 -->
<g id="Node000001" class="node">
<title>Node1</title>
<g id="a_Node000001"><a xlink:title=" ">
<polygon fill="#999999" stroke="#666666" points="325.62,-134.25 222.62,-134.25 222.62,-113.5 325.62,-113.5 325.62,-134.25"/>
<text text-anchor="middle" x="274.12" y="-120.75" font-family="FreeSans" font-size="10.00">src/chemistry0d.h</text>
</a>
</g>
</g>
<!-- Node2 -->
<g id="Node000002" class="node">
<title>Node2</title>
<g id="a_Node000002"><a xlink:href="chemistry0d_8cpp.html" target="_top" xlink:title=" ">
<polygon fill="white" stroke="#666666" points="114.25,-77.5 0,-77.5 0,-56.75 114.25,-56.75 114.25,-77.5"/>
<text text-anchor="middle" x="57.12" y="-64" font-family="FreeSans" font-size="10.00">src/chemistry0d.cpp</text>
</a>
</g>
</g>
<!-- Node1&#45;&gt;Node2 -->
<g id="edge1_Node000001_Node000002" class="edge">
<title>Node1&#45;&gt;Node2</title>
<g id="a_edge1_Node000001_Node000002"><a xlink:title=" ">
<path fill="none" stroke="#63b8ff" d="M224.51,-110.36C185.59,-100.54 132.15,-87.06 96.22,-77.99"/>
<polygon fill="#63b8ff" stroke="#63b8ff" points="223.53,-113.97 234.08,-113.02 225.24,-107.18 223.53,-113.97"/>
</a>
</g>
</g>
<!-- Node3 -->
<g id="Node000003" class="node">
<title>Node3</title>
<g id="a_Node000003"><a xlink:href="convectionSystem_8cpp.html" target="_top" xlink:title=" ">
<polygon fill="white" stroke="#666666" points="275.88,-77.5 132.38,-77.5 132.38,-56.75 275.88,-56.75 275.88,-77.5"/>
<text text-anchor="middle" x="204.12" y="-64" font-family="FreeSans" font-size="10.00">src/convectionSystem.cpp</text>
</a>
</g>
</g>
<!-- Node1&#45;&gt;Node3 -->
<g id="edge2_Node000001_Node000003" class="edge">
<title>Node1&#45;&gt;Node3</title>
<g id="a_edge2_Node000001_Node000003"><a xlink:title=" ">
<path fill="none" stroke="#63b8ff" d="M253.11,-106.44C241.18,-97.11 226.65,-85.75 216.53,-77.83"/>
<polygon fill="#63b8ff" stroke="#63b8ff" points="250.58,-109.68 260.61,-113.09 254.89,-104.17 250.58,-109.68"/>
</a>
</g>
</g>
<!-- Node4 -->
<g id="Node000004" class="node">
<title>Node4</title>
<g id="a_Node000004"><a xlink:href="flameSolver_8h.html" target="_top" xlink:title=" ">
<polygon fill="white" stroke="#666666" points="394.12,-77.5 294.12,-77.5 294.12,-56.75 394.12,-56.75 394.12,-77.5"/>
<text text-anchor="middle" x="344.12" y="-64" font-family="FreeSans" font-size="10.00">src/flameSolver.h</text>
</a>
</g>
</g>
<!-- Node1&#45;&gt;Node4 -->
<g id="edge3_Node000001_Node000004" class="edge">
<title>Node1&#45;&gt;Node4</title>
<g id="a_edge3_Node000001_Node000004"><a xlink:title=" ">
<path fill="none" stroke="#63b8ff" d="M295.14,-106.44C307.07,-97.11 321.6,-85.75 331.72,-77.83"/>
<polygon fill="#63b8ff" stroke="#63b8ff" points="293.36,-104.17 287.64,-113.09 297.67,-109.68 293.36,-104.17"/>
</a>
</g>
</g>
<!-- Node6 -->
<g id="Node000006" class="node">
<title>Node6</title>
<g id="a_Node000006"><a xlink:href="sourceSystem_8cpp.html" target="_top" xlink:title=" ">
<polygon fill="white" stroke="#666666" points="534.38,-77.5 411.88,-77.5 411.88,-56.75 534.38,-56.75 534.38,-77.5"/>
<text text-anchor="middle" x="473.12" y="-64" font-family="FreeSans" font-size="10.00">src/sourceSystem.cpp</text>
</a>
</g>
</g>
<!-- Node1&#45;&gt;Node6 -->
<g id="edge5_Node000001_Node000006" class="edge">
<title>Node1&#45;&gt;Node6</title>
<g id="a_edge5_Node000001_Node000006"><a xlink:title=" ">
<path fill="none" stroke="#63b8ff" d="M319.88,-110.29C355.64,-100.45 404.65,-86.97 437.52,-77.92"/>
<polygon fill="#63b8ff" stroke="#63b8ff" points="319.42,-107.06 310.7,-113.09 321.27,-113.81 319.42,-107.06"/>
</a>
</g>
</g>
<!-- Node5 -->
<g id="Node000005" class="node">
<title>Node5</title>
<g id="a_Node000005"><a xlink:href="flameSolver_8cpp.html" target="_top" xlink:title=" ">
<polygon fill="white" stroke="#666666" points="399.75,-20.75 288.5,-20.75 288.5,0 399.75,0 399.75,-20.75"/>
<text text-anchor="middle" x="344.12" y="-7.25" font-family="FreeSans" font-size="10.00">src/flameSolver.cpp</text>
</a>
</g>
</g>
<!-- Node4&#45;&gt;Node5 -->
<g id="edge4_Node000004_Node000005" class="edge">
<title>Node4&#45;&gt;Node5</title>
<g id="a_edge4_Node000004_Node000005"><a xlink:title=" ">
<path fill="none" stroke="#63b8ff" d="M344.12,-45.46C344.12,-37.09 344.12,-27.83 344.12,-21.08"/>
<polygon fill="#63b8ff" stroke="#63b8ff" points="340.63,-45.34 344.12,-55.34 347.63,-45.34 340.63,-45.34"/>
</a>
</g>
</g>
</g>
</svg>
