<?xml version="1.0" encoding="UTF-8" standalone="no"?>
<!DOCTYPE svg PUBLIC "-//W3C//DTD SVG 1.1//EN"
 "http://www.w3.org/Graphics/SVG/1.1/DTD/svg11.dtd">
<!-- Generated by graphviz version 2.28.0 (20120425.2022)
 -->
<!-- Title: src/chemistry0d.cpp Pages: 1 -->
<svg width="1346pt" height="252pt"
 viewBox="0.00 0.00 1346.00 252.00" xmlns="http://www.w3.org/2000/svg" xmlns:xlink="http://www.w3.org/1999/xlink">
<g id="graph1" class="graph" transform="scale(1 1) rotate(0) translate(4 248)">
<title>src/chemistry0d.cpp</title>
<polygon fill="white" stroke="white" points="-4,5 -4,-248 1343,-248 1343,5 -4,5"/>
<!-- Node1 -->
<g id="node1" class="node"><title>Node1</title>
<polygon fill="#bfbfbf" stroke="black" points="1128.5,-224.5 1128.5,-243.5 1233.5,-243.5 1233.5,-224.5 1128.5,-224.5"/>
<text text-anchor="middle" x="1181" y="-231.5" font-family="FreeSans" font-size="10.00">src/chemistry0d.cpp</text>
</g>
<!-- Node2 -->
<g id="node3" class="node"><title>Node2</title>
<a xlink:href="chemistry0d_8h.html" target="_top" xlink:title="chemistry0d.h">
<polygon fill="white" stroke="black" points="601,-168.5 601,-187.5 679,-187.5 679,-168.5 601,-168.5"/>
<text text-anchor="middle" x="640" y="-175.5" font-family="FreeSans" font-size="10.00">chemistry0d.h</text>
</a>
</g>
<!-- Node1&#45;&gt;Node2 -->
<g id="edge2" class="edge"><title>Node1&#45;&gt;Node2</title>
<path fill="none" stroke="midnightblue" d="M1128.14,-227.724C1023.39,-217.268 790.824,-194.055 689.164,-183.907"/>
<polygon fill="midnightblue" stroke="midnightblue" points="689.462,-180.42 679.163,-182.909 688.766,-187.385 689.462,-180.42"/>
</g>
<!-- Node13 -->
<g id="node25" class="node"><title>Node13</title>
<a xlink:href="debugUtils_8h.html" target="_top" xlink:title="debugUtils.h">
<polygon fill="white" stroke="red" points="1076.5,-56.5 1076.5,-75.5 1147.5,-75.5 1147.5,-56.5 1076.5,-56.5"/>
<text text-anchor="middle" x="1112" y="-63.5" font-family="FreeSans" font-size="10.00">debugUtils.h</text>
</a>
</g>
<!-- Node1&#45;&gt;Node13 -->
<g id="edge28" class="edge"><title>Node1&#45;&gt;Node13</title>
<path fill="none" stroke="midnightblue" d="M1185.65,-224.447C1191.84,-211.884 1201.34,-187.787 1195,-168 1183.49,-132.098 1151.97,-100.262 1131.26,-82.3325"/>
<polygon fill="midnightblue" stroke="midnightblue" points="1133.3,-79.4801 1123.39,-75.7392 1128.81,-84.8451 1133.3,-79.4801"/>
</g>
<!-- Node14 -->
<g id="node29" class="node"><title>Node14</title>
<a xlink:href="readConfig_8h.html" target="_top" xlink:title="readConfig.h">
<polygon fill="white" stroke="black" points="1112,-168.5 1112,-187.5 1186,-187.5 1186,-168.5 1112,-168.5"/>
<text text-anchor="middle" x="1149" y="-175.5" font-family="FreeSans" font-size="10.00">readConfig.h</text>
</a>
</g>
<!-- Node1&#45;&gt;Node14 -->
<g id="edge30" class="edge"><title>Node1&#45;&gt;Node14</title>
<path fill="none" stroke="midnightblue" d="M1175.72,-224.083C1171.29,-216.613 1164.84,-205.724 1159.38,-196.52"/>
<polygon fill="midnightblue" stroke="midnightblue" points="1162.29,-194.57 1154.19,-187.751 1156.27,-198.138 1162.29,-194.57"/>
</g>
<!-- Node15 -->
<g id="node33" class="node"><title>Node15</title>
<polygon fill="white" stroke="#bfbfbf" points="1242,-168.5 1242,-187.5 1338,-187.5 1338,-168.5 1242,-168.5"/>
<text text-anchor="middle" x="1290" y="-175.5" font-family="FreeSans" font-size="10.00">boost/foreach.hpp</text>
</g>
<!-- Node1&#45;&gt;Node15 -->
<g id="edge36" class="edge"><title>Node1&#45;&gt;Node15</title>
<path fill="none" stroke="midnightblue" d="M1198.51,-224.324C1216.07,-215.625 1243.33,-202.12 1263.53,-192.113"/>
<polygon fill="midnightblue" stroke="midnightblue" points="1265.12,-195.23 1272.53,-187.655 1262.02,-188.958 1265.12,-195.23"/>
</g>
<!-- Node3 -->
<g id="node5" class="node"><title>Node3</title>
<polygon fill="white" stroke="#bfbfbf" points="944.5,-112.5 944.5,-131.5 1063.5,-131.5 1063.5,-112.5 944.5,-112.5"/>
<text text-anchor="middle" x="1004" y="-119.5" font-family="FreeSans" font-size="10.00">cantera/IdealGasMix.h</text>
</g>
<!-- Node2&#45;&gt;Node3 -->
<g id="edge4" class="edge"><title>Node2&#45;&gt;Node3</title>
<path fill="none" stroke="midnightblue" d="M679.3,-171.17C740.965,-162.022 861.2,-144.185 936.792,-132.97"/>
<polygon fill="midnightblue" stroke="midnightblue" points="937.316,-136.431 946.694,-131.501 936.289,-129.507 937.316,-136.431"/>
</g>
<!-- Node4 -->
<g id="node7" class="node"><title>Node4</title>
<polygon fill="white" stroke="#bfbfbf" points="-0.5,-112.5 -0.5,-131.5 108.5,-131.5 108.5,-112.5 -0.5,-112.5"/>
<text text-anchor="middle" x="54" y="-119.5" font-family="FreeSans" font-size="10.00">cantera/equilibrium.h</text>
</g>
<!-- Node2&#45;&gt;Node4 -->
<g id="edge6" class="edge"><title>Node2&#45;&gt;Node4</title>
<path fill="none" stroke="midnightblue" d="M600.966,-174.355C515.589,-168.415 305.64,-152.966 118.795,-132.031"/>
<polygon fill="midnightblue" stroke="midnightblue" points="119.118,-128.545 108.788,-130.902 118.333,-135.501 119.118,-128.545"/>
</g>
<!-- Node5 -->
<g id="node9" class="node"><title>Node5</title>
<polygon fill="white" stroke="#bfbfbf" points="127,-112.5 127,-131.5 219,-131.5 219,-112.5 127,-112.5"/>
<text text-anchor="middle" x="173" y="-119.5" font-family="FreeSans" font-size="10.00">cantera/thermo.h</text>
</g>
<!-- Node2&#45;&gt;Node5 -->
<g id="edge8" class="edge"><title>Node2&#45;&gt;Node5</title>
<path fill="none" stroke="midnightblue" d="M600.718,-173.414C529.061,-166.721 372.11,-151.355 229.433,-132.132"/>
<polygon fill="midnightblue" stroke="midnightblue" points="229.567,-128.618 219.187,-130.741 228.625,-135.555 229.567,-128.618"/>
</g>
<!-- Node6 -->
<g id="node11" class="node"><title>Node6</title>
<polygon fill="white" stroke="#bfbfbf" points="237.5,-112.5 237.5,-131.5 336.5,-131.5 336.5,-112.5 237.5,-112.5"/>
<text text-anchor="middle" x="287" y="-119.5" font-family="FreeSans" font-size="10.00">cantera/transport.h</text>
</g>
<!-- Node2&#45;&gt;Node6 -->
<g id="edge10" class="edge"><title>Node2&#45;&gt;Node6</title>
<path fill="none" stroke="midnightblue" d="M600.866,-171.063C546.241,-162.769 443.753,-147.181 346.656,-132.252"/>
<polygon fill="midnightblue" stroke="midnightblue" points="347.089,-128.777 336.673,-130.716 346.024,-135.696 347.089,-128.777"/>
</g>
<!-- Node7 -->
<g id="node13" class="node"><title>Node7</title>
<polygon fill="white" stroke="#bfbfbf" points="354.5,-112.5 354.5,-131.5 449.5,-131.5 449.5,-112.5 354.5,-112.5"/>
<text text-anchor="middle" x="402" y="-119.5" font-family="FreeSans" font-size="10.00">cantera/kinetics.h</text>
</g>
<!-- Node2&#45;&gt;Node7 -->
<g id="edge12" class="edge"><title>Node2&#45;&gt;Node7</title>
<path fill="none" stroke="midnightblue" d="M602.288,-168.444C560.857,-159.043 494.243,-143.929 449.333,-133.739"/>
<polygon fill="midnightblue" stroke="midnightblue" points="450.062,-130.316 439.535,-131.516 448.513,-137.142 450.062,-130.316"/>
</g>
<!-- Node8 -->
<g id="node15" class="node"><title>Node8</title>
<polygon fill="white" stroke="#bfbfbf" points="468,-112.5 468,-131.5 634,-131.5 634,-112.5 468,-112.5"/>
<text text-anchor="middle" x="551" y="-119.5" font-family="FreeSans" font-size="10.00">cantera/thermo/IdealGasPhase.h</text>
</g>
<!-- Node2&#45;&gt;Node8 -->
<g id="edge14" class="edge"><title>Node2&#45;&gt;Node8</title>
<path fill="none" stroke="midnightblue" d="M625.701,-168.324C611.817,-159.9 590.508,-146.971 574.196,-137.074"/>
<polygon fill="midnightblue" stroke="midnightblue" points="575.629,-133.85 565.264,-131.655 571.998,-139.834 575.629,-133.85"/>
</g>
<!-- Node9 -->
<g id="node17" class="node"><title>Node9</title>
<polygon fill="white" stroke="#bfbfbf" points="652,-112.5 652,-131.5 804,-131.5 804,-112.5 652,-112.5"/>
<text text-anchor="middle" x="728" y="-119.5" font-family="FreeSans" font-size="10.00">cantera/kinetics/GasKinetics.h</text>
</g>
<!-- Node2&#45;&gt;Node9 -->
<g id="edge16" class="edge"><title>Node2&#45;&gt;Node9</title>
<path fill="none" stroke="midnightblue" d="M654.139,-168.324C667.866,-159.9 688.936,-146.971 705.064,-137.074"/>
<polygon fill="midnightblue" stroke="midnightblue" points="707.204,-139.868 713.896,-131.655 703.543,-133.902 707.204,-139.868"/>
</g>
<!-- Node10 -->
<g id="node19" class="node"><title>Node10</title>
<polygon fill="white" stroke="#bfbfbf" points="822,-112.5 822,-131.5 926,-131.5 926,-112.5 822,-112.5"/>
<text text-anchor="middle" x="874" y="-119.5" font-family="FreeSans" font-size="10.00">cantera/base/ctml.h</text>
</g>
<!-- Node2&#45;&gt;Node10 -->
<g id="edge18" class="edge"><title>Node2&#45;&gt;Node10</title>
<path fill="none" stroke="midnightblue" d="M677.078,-168.444C717.728,-159.063 783.032,-143.993 827.184,-133.804"/>
<polygon fill="midnightblue" stroke="midnightblue" points="828.139,-137.175 837.095,-131.516 826.565,-130.355 828.139,-137.175"/>
</g>
<!-- Node11 -->
<g id="node21" class="node"><title>Node11</title>
<a xlink:href="mathUtils_8h.html" target="_top" xlink:title="mathUtils.h">
<polygon fill="white" stroke="red" points="1081.5,-112.5 1081.5,-131.5 1146.5,-131.5 1146.5,-112.5 1081.5,-112.5"/>
<text text-anchor="middle" x="1114" y="-119.5" font-family="FreeSans" font-size="10.00">mathUtils.h</text>
</a>
</g>
<!-- Node2&#45;&gt;Node11 -->
<g id="edge20" class="edge"><title>Node2&#45;&gt;Node11</title>
<path fill="none" stroke="midnightblue" d="M679.201,-174.333C753.637,-168.962 920.7,-155.446 1071.16,-131.971"/>
<polygon fill="midnightblue" stroke="midnightblue" points="1071.72,-135.427 1081.05,-130.411 1070.62,-128.513 1071.72,-135.427"/>
</g>
<!-- Node12 -->
<g id="node23" class="node"><title>Node12</title>
<polygon fill="white" stroke="#bfbfbf" points="1091.5,-0.5 1091.5,-19.5 1132.5,-19.5 1132.5,-0.5 1091.5,-0.5"/>
<text text-anchor="middle" x="1112" y="-7.5" font-family="FreeSans" font-size="10.00">string</text>
</g>
<!-- Node11&#45;&gt;Node12 -->
<g id="edge22" class="edge"><title>Node11&#45;&gt;Node12</title>
<path fill="none" stroke="midnightblue" d="M1099.92,-112.259C1088.65,-104.355 1073.65,-91.5838 1067,-76 1059,-57.2555 1075.42,-38.3856 1090.62,-25.8432"/>
<polygon fill="midnightblue" stroke="midnightblue" points="1092.99,-28.4385 1098.78,-19.5672 1088.72,-22.8901 1092.99,-28.4385"/>
</g>
<!-- Node11&#45;&gt;Node13 -->
<g id="edge24" class="edge"><title>Node11&#45;&gt;Node13</title>
<path fill="none" stroke="midnightblue" d="M1113.67,-112.083C1113.41,-105.006 1113.03,-94.8611 1112.7,-85.9865"/>
<polygon fill="midnightblue" stroke="midnightblue" points="1116.19,-85.6147 1112.32,-75.7511 1109.2,-85.8738 1116.19,-85.6147"/>
</g>
<!-- Node13&#45;&gt;Node12 -->
<g id="edge26" class="edge"><title>Node13&#45;&gt;Node12</title>
<path fill="none" stroke="midnightblue" d="M1112,-56.083C1112,-49.0059 1112,-38.8611 1112,-29.9865"/>
<polygon fill="midnightblue" stroke="midnightblue" points="1115.5,-29.751 1112,-19.7511 1108.5,-29.7511 1115.5,-29.751"/>
</g>
<!-- Node14&#45;&gt;Node11 -->
<g id="edge32" class="edge"><title>Node14&#45;&gt;Node11</title>
<path fill="none" stroke="midnightblue" d="M1143.22,-168.083C1138.33,-160.534 1131.17,-149.495 1125.17,-140.23"/>
<polygon fill="midnightblue" stroke="midnightblue" points="1128.05,-138.239 1119.67,-131.751 1122.17,-142.046 1128.05,-138.239"/>
</g>
<!-- Node14&#45;&gt;Node12 -->
<g id="edge34" class="edge"><title>Node14&#45;&gt;Node12</title>
<path fill="none" stroke="midnightblue" d="M1151.94,-168.374C1158.41,-147.942 1172.05,-95.3602 1156,-56 1151.2,-44.2251 1141.67,-33.8564 1132.71,-26.0486"/>
<polygon fill="midnightblue" stroke="midnightblue" points="1134.75,-23.2048 1124.78,-19.6314 1130.35,-28.6448 1134.75,-23.2048"/>
</g>
</g>
</svg>
