<?xml version="1.0" encoding="UTF-8" standalone="no"?>
<!DOCTYPE svg PUBLIC "-//W3C//DTD SVG 1.1//EN"
 "http://www.w3.org/Graphics/SVG/1.1/DTD/svg11.dtd">
<!-- Generated by graphviz version 2.28.0 (20120425.2022)
 -->
<!-- Title: G Pages: 1 -->
<svg width="604pt" height="140pt"
 viewBox="0.00 0.00 604.00 140.00" xmlns="http://www.w3.org/2000/svg" xmlns:xlink="http://www.w3.org/1999/xlink">
<g id="graph1" class="graph" transform="scale(1 1) rotate(0) translate(4 136)">
<title>G</title>
<polygon fill="white" stroke="white" points="-4,5 -4,-136 601,-136 601,5 -4,5"/>
<!-- Node1 -->
<g id="node1" class="node"><title>Node1</title>
<polygon fill="#bfbfbf" stroke="black" points="226.5,-112.5 226.5,-131.5 321.5,-131.5 321.5,-112.5 226.5,-112.5"/>
<text text-anchor="middle" x="274" y="-119.5" font-family="FreeSans" font-size="10.00">src/chemistry0d.h</text>
</g>
<!-- Node2 -->
<g id="node3" class="node"><title>Node2</title>
<a xlink:href="chemistry0d_8cpp.html" target="_top" xlink:title="src/chemistry0d.cpp">
<polygon fill="white" stroke="black" points="-0.5,-56.5 -0.5,-75.5 104.5,-75.5 104.5,-56.5 -0.5,-56.5"/>
<text text-anchor="middle" x="52" y="-63.5" font-family="FreeSans" font-size="10.00">src/chemistry0d.cpp</text>
</a>
</g>
<!-- Node1&#45;&gt;Node2 -->
<g id="edge2" class="edge"><title>Node1&#45;&gt;Node2</title>
<path fill="none" stroke="midnightblue" d="M228.875,-110.024C186.94,-99.8232 125.348,-84.8414 87.012,-75.5164"/>
<polygon fill="midnightblue" stroke="midnightblue" points="228.28,-113.481 238.823,-112.444 229.934,-106.679 228.28,-113.481"/>
</g>
<!-- Node3 -->
<g id="node5" class="node"><title>Node3</title>
<a xlink:href="convectionSystem_8h.html" target="_top" xlink:title="src/convectionSystem.h">
<polygon fill="white" stroke="black" points="122.5,-56.5 122.5,-75.5 245.5,-75.5 245.5,-56.5 122.5,-56.5"/>
<text text-anchor="middle" x="184" y="-63.5" font-family="FreeSans" font-size="10.00">src/convectionSystem.h</text>
</a>
</g>
<!-- Node1&#45;&gt;Node3 -->
<g id="edge4" class="edge"><title>Node1&#45;&gt;Node3</title>
<path fill="none" stroke="midnightblue" d="M250.962,-107.177C234.401,-97.2407 212.582,-84.1492 198.424,-75.6545"/>
<polygon fill="midnightblue" stroke="midnightblue" points="249.164,-110.18 259.54,-112.324 252.766,-104.178 249.164,-110.18"/>
</g>
<!-- Node5 -->
<g id="node9" class="node"><title>Node5</title>
<a xlink:href="flameSolver_8h.html" target="_top" xlink:title="src/flameSolver.h">
<polygon fill="white" stroke="red" points="226.5,-0.5 226.5,-19.5 321.5,-19.5 321.5,-0.5 226.5,-0.5"/>
<text text-anchor="middle" x="274" y="-7.5" font-family="FreeSans" font-size="10.00">src/flameSolver.h</text>
</a>
</g>
<!-- Node1&#45;&gt;Node5 -->
<g id="edge16" class="edge"><title>Node1&#45;&gt;Node5</title>
<path fill="none" stroke="midnightblue" d="M274,-102.348C274,-78.2538 274,-37.3079 274,-19.5914"/>
<polygon fill="midnightblue" stroke="midnightblue" points="270.5,-102.368 274,-112.368 277.5,-102.369 270.5,-102.368"/>
</g>
<!-- Node6 -->
<g id="node11" class="node"><title>Node6</title>
<a xlink:href="diffusionSystem_8h.html" target="_top" xlink:title="src/diffusionSystem.h">
<polygon fill="white" stroke="black" points="302.5,-56.5 302.5,-75.5 413.5,-75.5 413.5,-56.5 302.5,-56.5"/>
<text text-anchor="middle" x="358" y="-63.5" font-family="FreeSans" font-size="10.00">src/diffusionSystem.h</text>
</a>
</g>
<!-- Node1&#45;&gt;Node6 -->
<g id="edge10" class="edge"><title>Node1&#45;&gt;Node6</title>
<path fill="none" stroke="midnightblue" d="M295.932,-106.901C311.335,-96.9986 331.446,-84.0705 344.537,-75.6545"/>
<polygon fill="midnightblue" stroke="midnightblue" points="294.015,-103.972 287.496,-112.324 297.801,-109.86 294.015,-103.972"/>
</g>
<!-- Node8 -->
<g id="node17" class="node"><title>Node8</title>
<a xlink:href="sourceSystem_8h.html" target="_top" xlink:title="src/sourceSystem.h">
<polygon fill="white" stroke="black" points="431.5,-56.5 431.5,-75.5 536.5,-75.5 536.5,-56.5 431.5,-56.5"/>
<text text-anchor="middle" x="484" y="-63.5" font-family="FreeSans" font-size="10.00">src/sourceSystem.h</text>
</a>
</g>
<!-- Node1&#45;&gt;Node8 -->
<g id="edge18" class="edge"><title>Node1&#45;&gt;Node8</title>
<path fill="none" stroke="midnightblue" d="M317.19,-109.894C356.847,-99.6966 414.77,-84.802 450.881,-75.5164"/>
<polygon fill="midnightblue" stroke="midnightblue" points="316.088,-106.563 307.275,-112.444 317.832,-113.343 316.088,-106.563"/>
</g>
<!-- Node4 -->
<g id="node7" class="node"><title>Node4</title>
<a xlink:href="convectionSystem_8cpp.html" target="_top" xlink:title="src/convectionSystem.cpp">
<polygon fill="white" stroke="black" points="74,-0.5 74,-19.5 208,-19.5 208,-0.5 74,-0.5"/>
<text text-anchor="middle" x="141" y="-7.5" font-family="FreeSans" font-size="10.00">src/convectionSystem.cpp</text>
</a>
</g>
<!-- Node3&#45;&gt;Node4 -->
<g id="edge6" class="edge"><title>Node3&#45;&gt;Node4</title>
<path fill="none" stroke="midnightblue" d="M170.578,-48.144C163.086,-38.7357 154.063,-27.4046 147.968,-19.7511"/>
<polygon fill="midnightblue" stroke="midnightblue" points="167.932,-50.4404 176.899,-56.083 173.408,-46.0799 167.932,-50.4404"/>
</g>
<!-- Node3&#45;&gt;Node5 -->
<g id="edge8" class="edge"><title>Node3&#45;&gt;Node5</title>
<path fill="none" stroke="midnightblue" d="M207.038,-51.1774C223.599,-41.2407 245.418,-28.1492 259.576,-19.6545"/>
<polygon fill="midnightblue" stroke="midnightblue" points="205.234,-48.1777 198.46,-56.324 208.836,-54.1802 205.234,-48.1777"/>
</g>
<!-- Node6&#45;&gt;Node5 -->
<g id="edge14" class="edge"><title>Node6&#45;&gt;Node5</title>
<path fill="none" stroke="midnightblue" d="M336.068,-50.9005C320.665,-40.9986 300.554,-28.0705 287.463,-19.6545"/>
<polygon fill="midnightblue" stroke="midnightblue" points="334.199,-53.8605 344.504,-56.324 337.985,-47.9722 334.199,-53.8605"/>
</g>
<!-- Node7 -->
<g id="node13" class="node"><title>Node7</title>
<a xlink:href="diffusionSystem_8cpp.html" target="_top" xlink:title="src/diffusionSystem.cpp">
<polygon fill="white" stroke="black" points="340,-0.5 340,-19.5 462,-19.5 462,-0.5 340,-0.5"/>
<text text-anchor="middle" x="401" y="-7.5" font-family="FreeSans" font-size="10.00">src/diffusionSystem.cpp</text>
</a>
</g>
<!-- Node6&#45;&gt;Node7 -->
<g id="edge12" class="edge"><title>Node6&#45;&gt;Node7</title>
<path fill="none" stroke="midnightblue" d="M371.422,-48.144C378.914,-38.7357 387.937,-27.4046 394.032,-19.7511"/>
<polygon fill="midnightblue" stroke="midnightblue" points="368.592,-46.0799 365.101,-56.083 374.068,-50.4404 368.592,-46.0799"/>
</g>
<!-- Node8&#45;&gt;Node5 -->
<g id="edge20" class="edge"><title>Node8&#45;&gt;Node5</title>
<path fill="none" stroke="midnightblue" d="M440.81,-53.8941C401.153,-43.6966 343.23,-28.802 307.119,-19.5164"/>
<polygon fill="midnightblue" stroke="midnightblue" points="440.168,-57.3428 450.725,-56.4435 441.912,-50.5633 440.168,-57.3428"/>
</g>
<!-- Node9 -->
<g id="node20" class="node"><title>Node9</title>
<a xlink:href="sourceSystem_8cpp.html" target="_top" xlink:title="src/sourceSystem.cpp">
<polygon fill="white" stroke="black" points="480,-0.5 480,-19.5 596,-19.5 596,-0.5 480,-0.5"/>
<text text-anchor="middle" x="538" y="-7.5" font-family="FreeSans" font-size="10.00">src/sourceSystem.cpp</text>
</a>
</g>
<!-- Node8&#45;&gt;Node9 -->
<g id="edge22" class="edge"><title>Node8&#45;&gt;Node9</title>
<path fill="none" stroke="midnightblue" d="M499.998,-49.0024C509.567,-39.4329 521.361,-27.6389 529.249,-19.7511"/>
<polygon fill="midnightblue" stroke="midnightblue" points="497.513,-46.537 492.917,-56.083 502.463,-51.4868 497.513,-46.537"/>
</g>
</g>
</svg>
