<?xml version="1.0" encoding="UTF-8" standalone="no"?>
<!DOCTYPE svg PUBLIC "-//W3C//DTD SVG 1.1//EN"
 "http://www.w3.org/Graphics/SVG/1.1/DTD/svg11.dtd">
<!-- Generated by graphviz version 2.38.0 (20140413.2041)
 -->
<!-- Title: src/chemistry0d.h Pages: 1 -->
<svg width="1089pt" height="207pt"
 viewBox="0.00 0.00 1089.00 207.00" xmlns="http://www.w3.org/2000/svg" xmlns:xlink="http://www.w3.org/1999/xlink">
<g id="graph0" class="graph" transform="scale(1 1) rotate(0) translate(4 203)">
<title>src/chemistry0d.h</title>
<polygon fill="white" stroke="none" points="-4,4 -4,-203 1085,-203 1085,4 -4,4"/>
<!-- Node1 -->
<g id="node1" class="node"><title>Node1</title>
<polygon fill="#bfbfbf" stroke="black" points="461.5,-179.5 461.5,-198.5 553.5,-198.5 553.5,-179.5 461.5,-179.5"/>
<text text-anchor="middle" x="507.5" y="-186.5" font-family="FreeSans" font-size="10.00">src/chemistry0d.h</text>
</g>
<!-- Node2 -->
<g id="node2" class="node"><title>Node2</title>
<g id="a_node2"><a xlink:href="config_8h.html" target="_top" xlink:title="config.h">
<polygon fill="white" stroke="black" points="102.5,-118 102.5,-137 152.5,-137 152.5,-118 102.5,-118"/>
<text text-anchor="middle" x="127.5" y="-125" font-family="FreeSans" font-size="10.00">config.h</text>
</a>
</g>
</g>
<!-- Node1&#45;&gt;Node2 -->
<g id="edge1" class="edge"><title>Node1&#45;&gt;Node2</title>
<path fill="none" stroke="midnightblue" d="M461.377,-186.01C394.304,-182.221 266.402,-171.607 161.5,-143 159.202,-142.373 156.855,-141.623 154.522,-140.799"/>
<polygon fill="midnightblue" stroke="midnightblue" points="155.757,-137.524 145.17,-137.118 153.194,-144.038 155.757,-137.524"/>
</g>
<!-- Node3 -->
<g id="node3" class="node"><title>Node3</title>
<g id="a_node3"><a xlink:href="mathUtils_8h.html" target="_top" xlink:title="mathUtils.h">
<polygon fill="white" stroke="black" points="171,-118 171,-137 236,-137 236,-118 171,-118"/>
<text text-anchor="middle" x="203.5" y="-125" font-family="FreeSans" font-size="10.00">mathUtils.h</text>
</a>
</g>
</g>
<!-- Node1&#45;&gt;Node3 -->
<g id="edge2" class="edge"><title>Node1&#45;&gt;Node3</title>
<path fill="none" stroke="midnightblue" d="M461.385,-182.532C408.474,-175.702 319.364,-162.491 244.5,-143 241.456,-142.208 238.318,-141.289 235.195,-140.307"/>
<polygon fill="midnightblue" stroke="midnightblue" points="236.009,-136.888 225.415,-137.026 233.783,-143.525 236.009,-136.888"/>
</g>
<!-- Node15 -->
<g id="node15" class="node"><title>Node15</title>
<polygon fill="white" stroke="#bfbfbf" points="254,-118 254,-137 409,-137 409,-118 254,-118"/>
<text text-anchor="middle" x="331.5" y="-125" font-family="FreeSans" font-size="10.00">cantera/transport/MixTransport.h</text>
</g>
<!-- Node1&#45;&gt;Node15 -->
<g id="edge16" class="edge"><title>Node1&#45;&gt;Node15</title>
<path fill="none" stroke="midnightblue" d="M482.283,-179.475C451.832,-169.18 400.451,-151.81 366.257,-140.25"/>
<polygon fill="midnightblue" stroke="midnightblue" points="367.264,-136.896 356.67,-137.009 365.022,-143.527 367.264,-136.896"/>
</g>
<!-- Node16 -->
<g id="node16" class="node"><title>Node16</title>
<polygon fill="white" stroke="#bfbfbf" points="427,-118 427,-137 588,-137 588,-118 427,-118"/>
<text text-anchor="middle" x="507.5" y="-125" font-family="FreeSans" font-size="10.00">cantera/transport/MultiTransport.h</text>
</g>
<!-- Node1&#45;&gt;Node16 -->
<g id="edge17" class="edge"><title>Node1&#45;&gt;Node16</title>
<path fill="none" stroke="midnightblue" d="M507.5,-179.475C507.5,-171.08 507.5,-157.981 507.5,-147.163"/>
<polygon fill="midnightblue" stroke="midnightblue" points="511,-147.009 507.5,-137.009 504,-147.009 511,-147.009"/>
</g>
<!-- Node17 -->
<g id="node17" class="node"><title>Node17</title>
<polygon fill="white" stroke="#bfbfbf" points="606,-112.5 606,-142.5 739,-142.5 739,-112.5 606,-112.5"/>
<text text-anchor="start" x="614" y="-130.5" font-family="FreeSans" font-size="10.00">cantera/transport/Transport</text>
<text text-anchor="middle" x="672.5" y="-119.5" font-family="FreeSans" font-size="10.00">Factory.h</text>
</g>
<!-- Node1&#45;&gt;Node17 -->
<g id="edge18" class="edge"><title>Node1&#45;&gt;Node17</title>
<path fill="none" stroke="midnightblue" d="M531.14,-179.475C555.263,-170.776 593.393,-157.026 623.976,-145.998"/>
<polygon fill="midnightblue" stroke="midnightblue" points="625.393,-149.208 633.613,-142.523 623.018,-142.623 625.393,-149.208"/>
</g>
<!-- Node18 -->
<g id="node18" class="node"><title>Node18</title>
<polygon fill="white" stroke="#bfbfbf" points="757.5,-118 757.5,-137 915.5,-137 915.5,-118 757.5,-118"/>
<text text-anchor="middle" x="836.5" y="-125" font-family="FreeSans" font-size="10.00">cantera/thermo/IdealGasPhase.h</text>
</g>
<!-- Node1&#45;&gt;Node18 -->
<g id="edge19" class="edge"><title>Node1&#45;&gt;Node18</title>
<path fill="none" stroke="midnightblue" d="M553.592,-179.664C612.765,-168.963 715.422,-150.397 779.456,-138.816"/>
<polygon fill="midnightblue" stroke="midnightblue" points="780.172,-142.244 789.389,-137.02 778.926,-135.356 780.172,-142.244"/>
</g>
<!-- Node19 -->
<g id="node19" class="node"><title>Node19</title>
<polygon fill="white" stroke="#bfbfbf" points="934,-118 934,-137 1081,-137 1081,-118 934,-118"/>
<text text-anchor="middle" x="1007.5" y="-125" font-family="FreeSans" font-size="10.00">cantera/kinetics/GasKinetics.h</text>
</g>
<!-- Node1&#45;&gt;Node19 -->
<g id="edge20" class="edge"><title>Node1&#45;&gt;Node19</title>
<path fill="none" stroke="midnightblue" d="M553.593,-184.02C630.599,-177.148 790.211,-161.955 924.5,-143 933.34,-141.752 942.682,-140.275 951.785,-138.749"/>
<polygon fill="midnightblue" stroke="midnightblue" points="952.655,-142.152 961.921,-137.015 951.474,-135.252 952.655,-142.152"/>
</g>
<!-- Node4 -->
<g id="node4" class="node"><title>Node4</title>
<polygon fill="white" stroke="#bfbfbf" points="0,-56.5 0,-75.5 43,-75.5 43,-56.5 0,-56.5"/>
<text text-anchor="middle" x="21.5" y="-63.5" font-family="FreeSans" font-size="10.00">vector</text>
</g>
<!-- Node3&#45;&gt;Node4 -->
<g id="edge3" class="edge"><title>Node3&#45;&gt;Node4</title>
<path fill="none" stroke="midnightblue" d="M179.1,-117.977C173.337,-115.992 167.208,-113.902 161.5,-112 124.397,-99.634 81.5686,-85.9542 53.152,-76.9609"/>
<polygon fill="midnightblue" stroke="midnightblue" points="53.9619,-73.5463 43.3721,-73.8707 51.8529,-80.221 53.9619,-73.5463"/>
</g>
<!-- Node5 -->
<g id="node5" class="node"><title>Node5</title>
<polygon fill="white" stroke="#bfbfbf" points="61.5,-56.5 61.5,-75.5 105.5,-75.5 105.5,-56.5 61.5,-56.5"/>
<text text-anchor="middle" x="83.5" y="-63.5" font-family="FreeSans" font-size="10.00">cmath</text>
</g>
<!-- Node3&#45;&gt;Node5 -->
<g id="edge4" class="edge"><title>Node3&#45;&gt;Node5</title>
<path fill="none" stroke="midnightblue" d="M186.307,-117.975C166.257,-108.034 132.901,-91.4947 109.64,-79.961"/>
<polygon fill="midnightblue" stroke="midnightblue" points="111.175,-76.8157 100.661,-75.5091 108.066,-83.0871 111.175,-76.8157"/>
</g>
<!-- Node6 -->
<g id="node6" class="node"><title>Node6</title>
<polygon fill="white" stroke="#bfbfbf" points="80,-0.5 80,-19.5 133,-19.5 133,-0.5 80,-0.5"/>
<text text-anchor="middle" x="106.5" y="-7.5" font-family="FreeSans" font-size="10.00">iostream</text>
</g>
<!-- Node3&#45;&gt;Node6 -->
<g id="edge5" class="edge"><title>Node3&#45;&gt;Node6</title>
<path fill="none" stroke="midnightblue" d="M196.209,-117.819C180.129,-98.6715 141.39,-52.5443 120.467,-27.6306"/>
<polygon fill="midnightblue" stroke="midnightblue" points="122.987,-25.1888 113.875,-19.782 117.626,-29.6906 122.987,-25.1888"/>
</g>
<!-- Node7 -->
<g id="node7" class="node"><title>Node7</title>
<polygon fill="white" stroke="#bfbfbf" points="287.5,-56.5 287.5,-75.5 337.5,-75.5 337.5,-56.5 287.5,-56.5"/>
<text text-anchor="middle" x="312.5" y="-63.5" font-family="FreeSans" font-size="10.00">sstream</text>
</g>
<!-- Node3&#45;&gt;Node7 -->
<g id="edge6" class="edge"><title>Node3&#45;&gt;Node7</title>
<path fill="none" stroke="midnightblue" d="M219.117,-117.975C237.086,-108.166 266.821,-91.9346 287.906,-80.425"/>
<polygon fill="midnightblue" stroke="midnightblue" points="289.811,-83.3726 296.912,-75.5091 286.458,-77.2284 289.811,-83.3726"/>
</g>
<!-- Node8 -->
<g id="node8" class="node"><title>Node8</title>
<polygon fill="white" stroke="#bfbfbf" points="151.5,-0.5 151.5,-19.5 191.5,-19.5 191.5,-0.5 151.5,-0.5"/>
<text text-anchor="middle" x="171.5" y="-7.5" font-family="FreeSans" font-size="10.00">string</text>
</g>
<!-- Node3&#45;&gt;Node8 -->
<g id="edge7" class="edge"><title>Node3&#45;&gt;Node8</title>
<path fill="none" stroke="midnightblue" d="M201.095,-117.819C195.929,-99.1732 183.675,-54.943 176.662,-29.6317"/>
<polygon fill="midnightblue" stroke="midnightblue" points="179.976,-28.4845 173.933,-19.782 173.23,-30.3535 179.976,-28.4845"/>
</g>
<!-- Node9 -->
<g id="node9" class="node"><title>Node9</title>
<polygon fill="white" stroke="#bfbfbf" points="356,-56.5 356,-75.5 391,-75.5 391,-56.5 356,-56.5"/>
<text text-anchor="middle" x="373.5" y="-63.5" font-family="FreeSans" font-size="10.00">map</text>
</g>
<!-- Node3&#45;&gt;Node9 -->
<g id="edge8" class="edge"><title>Node3&#45;&gt;Node9</title>
<path fill="none" stroke="midnightblue" d="M227.775,-117.895C233.273,-115.952 239.086,-113.902 244.5,-112 279.667,-99.6479 320.266,-85.5045 346.378,-76.4231"/>
<polygon fill="midnightblue" stroke="midnightblue" points="347.669,-79.6801 355.965,-73.0902 345.37,-73.0683 347.669,-79.6801"/>
</g>
<!-- Node10 -->
<g id="node10" class="node"><title>Node10</title>
<g id="a_node10"><a xlink:href="debugUtils_8h.html" target="_top" xlink:title="debugUtils.h">
<polygon fill="white" stroke="black" points="200,-56.5 200,-75.5 269,-75.5 269,-56.5 200,-56.5"/>
<text text-anchor="middle" x="234.5" y="-63.5" font-family="FreeSans" font-size="10.00">debugUtils.h</text>
</a>
</g>
</g>
<!-- Node3&#45;&gt;Node10 -->
<g id="edge9" class="edge"><title>Node3&#45;&gt;Node10</title>
<path fill="none" stroke="midnightblue" d="M207.942,-117.975C212.453,-109.315 219.574,-95.6486 225.307,-84.6453"/>
<polygon fill="midnightblue" stroke="midnightblue" points="228.55,-85.9948 230.067,-75.5091 222.342,-82.7604 228.55,-85.9948"/>
</g>
<!-- Node14 -->
<g id="node14" class="node"><title>Node14</title>
<polygon fill="white" stroke="#bfbfbf" points="409,-56.5 409,-75.5 480,-75.5 480,-56.5 409,-56.5"/>
<text text-anchor="middle" x="444.5" y="-63.5" font-family="FreeSans" font-size="10.00">Eigen/Dense</text>
</g>
<!-- Node3&#45;&gt;Node14 -->
<g id="edge15" class="edge"><title>Node3&#45;&gt;Node14</title>
<path fill="none" stroke="midnightblue" d="M226.33,-117.886C232.207,-115.819 238.551,-113.715 244.5,-112 272.975,-103.793 349.033,-87.2215 398.72,-76.6406"/>
<polygon fill="midnightblue" stroke="midnightblue" points="399.536,-80.0456 408.59,-74.5438 398.081,-73.1984 399.536,-80.0456"/>
</g>
<!-- Node10&#45;&gt;Node6 -->
<g id="edge11" class="edge"><title>Node10&#45;&gt;Node6</title>
<path fill="none" stroke="midnightblue" d="M214.218,-56.4435C193.153,-47.5566 159.983,-33.5632 136.014,-23.4514"/>
<polygon fill="midnightblue" stroke="midnightblue" points="137.261,-20.1787 126.687,-19.5164 134.54,-26.6283 137.261,-20.1787"/>
</g>
<!-- Node10&#45;&gt;Node8 -->
<g id="edge10" class="edge"><title>Node10&#45;&gt;Node8</title>
<path fill="none" stroke="midnightblue" d="M224.378,-56.324C214.974,-48.2631 200.756,-36.0765 189.431,-26.3695"/>
<polygon fill="midnightblue" stroke="midnightblue" points="191.677,-23.6844 181.806,-19.8339 187.121,-28.9993 191.677,-23.6844"/>
</g>
<!-- Node11 -->
<g id="node11" class="node"><title>Node11</title>
<polygon fill="white" stroke="#bfbfbf" points="210,-0.5 210,-19.5 259,-19.5 259,-0.5 210,-0.5"/>
<text text-anchor="middle" x="234.5" y="-7.5" font-family="FreeSans" font-size="10.00">fstream</text>
</g>
<!-- Node10&#45;&gt;Node11 -->
<g id="edge12" class="edge"><title>Node10&#45;&gt;Node11</title>
<path fill="none" stroke="midnightblue" d="M234.5,-56.083C234.5,-49.0059 234.5,-38.8611 234.5,-29.9865"/>
<polygon fill="midnightblue" stroke="midnightblue" points="238,-29.751 234.5,-19.7511 231,-29.7511 238,-29.751"/>
</g>
<!-- Node12 -->
<g id="node12" class="node"><title>Node12</title>
<polygon fill="white" stroke="#bfbfbf" points="277.5,-0.5 277.5,-19.5 335.5,-19.5 335.5,-0.5 277.5,-0.5"/>
<text text-anchor="middle" x="306.5" y="-7.5" font-family="FreeSans" font-size="10.00">exception</text>
</g>
<!-- Node10&#45;&gt;Node12 -->
<g id="edge13" class="edge"><title>Node10&#45;&gt;Node12</title>
<path fill="none" stroke="midnightblue" d="M246.068,-56.324C256.92,-48.1849 273.381,-35.8395 286.383,-26.0874"/>
<polygon fill="midnightblue" stroke="midnightblue" points="288.821,-28.6339 294.721,-19.8339 284.621,-23.0339 288.821,-28.6339"/>
</g>
<!-- Node13 -->
<g id="node13" class="node"><title>Node13</title>
<polygon fill="white" stroke="#bfbfbf" points="353,-0.5 353,-19.5 442,-19.5 442,-0.5 353,-0.5"/>
<text text-anchor="middle" x="397.5" y="-7.5" font-family="FreeSans" font-size="10.00">boost/format.hpp</text>
</g>
<!-- Node10&#45;&gt;Node13 -->
<g id="edge14" class="edge"><title>Node10&#45;&gt;Node13</title>
<path fill="none" stroke="midnightblue" d="M260.328,-56.4435C287.749,-47.3591 331.277,-32.9388 361.932,-22.7831"/>
<polygon fill="midnightblue" stroke="midnightblue" points="363.401,-25.9837 371.793,-19.5164 361.2,-19.3389 363.401,-25.9837"/>
</g>
</g>
</svg>
