<?xml version="1.0" encoding="UTF-8" standalone="no"?>
<!DOCTYPE svg PUBLIC "-//W3C//DTD SVG 1.1//EN"
 "http://www.w3.org/Graphics/SVG/1.1/DTD/svg11.dtd">
<!-- Generated by graphviz version 2.38.0 (20140413.2041)
 -->
<!-- Title: sdODE Pages: 1 -->
<svg width="381pt" height="84pt"
 viewBox="0.00 0.00 381.00 84.00" xmlns="http://www.w3.org/2000/svg" xmlns:xlink="http://www.w3.org/1999/xlink">
<g id="graph0" class="graph" transform="scale(1 1) rotate(0) translate(4 80)">
<title>sdODE</title>
<polygon fill="white" stroke="none" points="-4,4 -4,-80 377,-80 377,4 -4,4"/>
<!-- Node1 -->
<g id="node1" class="node"><title>Node1</title>
<polygon fill="#bfbfbf" stroke="black" points="166,-56.5 166,-75.5 213,-75.5 213,-56.5 166,-56.5"/>
<text text-anchor="middle" x="189.5" y="-63.5" font-family="FreeSans" font-size="10.00">sdODE</text>
</g>
<!-- Node2 -->
<g id="node2" class="node"><title>Node2</title>
<g id="a_node2"><a xlink:href="classConvectionSystemUTW.html" target="_top" xlink:title="System representing the coupled convection equations for U, T, and Wmx. ">
<polygon fill="white" stroke="black" points="0,-0.5 0,-19.5 119,-19.5 119,-0.5 0,-0.5"/>
<text text-anchor="middle" x="59.5" y="-7.5" font-family="FreeSans" font-size="10.00">ConvectionSystemUTW</text>
</a>
</g>
</g>
<!-- Node1&#45;&gt;Node2 -->
<g id="edge1" class="edge"><title>Node1&#45;&gt;Node2</title>
<path fill="none" stroke="midnightblue" d="M159.415,-52.503C135.043,-42.3795 101.36,-28.388 80.0025,-19.5164"/>
<polygon fill="midnightblue" stroke="midnightblue" points="158.323,-55.8397 168.901,-56.4435 161.009,-49.3752 158.323,-55.8397"/>
</g>
<!-- Node3 -->
<g id="node3" class="node"><title>Node3</title>
<g id="a_node3"><a xlink:href="classConvectionSystemY.html" target="_top" xlink:title="System representing the convection equation for a single species. ">
<polygon fill="white" stroke="black" points="137.5,-0.5 137.5,-19.5 241.5,-19.5 241.5,-0.5 137.5,-0.5"/>
<text text-anchor="middle" x="189.5" y="-7.5" font-family="FreeSans" font-size="10.00">ConvectionSystemY</text>
</a>
</g>
</g>
<!-- Node1&#45;&gt;Node3 -->
<g id="edge2" class="edge"><title>Node1&#45;&gt;Node3</title>
<path fill="none" stroke="midnightblue" d="M189.5,-45.8045C189.5,-36.9102 189.5,-26.7798 189.5,-19.7511"/>
<polygon fill="midnightblue" stroke="midnightblue" points="186,-46.083 189.5,-56.083 193,-46.083 186,-46.083"/>
</g>
<!-- Node4 -->
<g id="node4" class="node"><title>Node4</title>
<g id="a_node4"><a xlink:href="classSourceSystemCVODE.html" target="_top" xlink:title="Represents a system of equations used to integrate the (chemical) source term at a single point using...">
<polygon fill="white" stroke="black" points="260,-0.5 260,-19.5 373,-19.5 373,-0.5 260,-0.5"/>
<text text-anchor="middle" x="316.5" y="-7.5" font-family="FreeSans" font-size="10.00">SourceSystemCVODE</text>
</a>
</g>
</g>
<!-- Node1&#45;&gt;Node4 -->
<g id="edge3" class="edge"><title>Node1&#45;&gt;Node4</title>
<path fill="none" stroke="#8b1a1a" d="M218.891,-52.503C242.7,-42.3795 275.606,-28.388 296.471,-19.5164"/>
<polygon fill="#8b1a1a" stroke="#8b1a1a" points="217.457,-49.3096 209.624,-56.4435 220.196,-55.7515 217.457,-49.3096"/>
</g>
</g>
</svg>
