<?xml version="1.0" encoding="UTF-8" standalone="no"?>
<!DOCTYPE svg PUBLIC "-//W3C//DTD SVG 1.1//EN"
 "http://www.w3.org/Graphics/SVG/1.1/DTD/svg11.dtd">
<!-- Generated by graphviz version 2.38.0 (20140413.2041)
 -->
<!-- Title: DiffusionSystem Pages: 1 -->
<svg width="172pt" height="84pt"
 viewBox="0.00 0.00 172.00 84.00" xmlns="http://www.w3.org/2000/svg" xmlns:xlink="http://www.w3.org/1999/xlink">
<g id="graph0" class="graph" transform="scale(1 1) rotate(0) translate(4 80)">
<title>DiffusionSystem</title>
<polygon fill="white" stroke="none" points="-4,4 -4,-80 168,-80 168,4 -4,4"/>
<!-- Node1 -->
<g id="node1" class="node"><title>Node1</title>
<polygon fill="#bfbfbf" stroke="black" points="44.5,-0.5 44.5,-19.5 129.5,-19.5 129.5,-0.5 44.5,-0.5"/>
<text text-anchor="middle" x="87" y="-7.5" font-family="FreeSans" font-size="10.00">DiffusionSystem</text>
</g>
<!-- Node2 -->
<g id="node2" class="node"><title>Node2</title>
<g id="a_node2"><a xlink:href="classTridiagonalODE.html" target="_top" xlink:title="A system of linear ODEs represented by a tridiagonal matrix. ">
<polygon fill="white" stroke="black" points="0,-56.5 0,-75.5 84,-75.5 84,-56.5 0,-56.5"/>
<text text-anchor="middle" x="42" y="-63.5" font-family="FreeSans" font-size="10.00">TridiagonalODE</text>
</a>
</g>
</g>
<!-- Node2&#45;&gt;Node1 -->
<g id="edge1" class="edge"><title>Node2&#45;&gt;Node1</title>
<path fill="none" stroke="midnightblue" d="M56.0467,-48.144C63.8869,-38.7357 73.3295,-27.4046 79.7074,-19.7511"/>
<polygon fill="midnightblue" stroke="midnightblue" points="53.1439,-46.1601 49.4308,-56.083 58.5215,-50.6414 53.1439,-46.1601"/>
</g>
<!-- Node3 -->
<g id="node3" class="node"><title>Node3</title>
<g id="a_node3"><a xlink:href="classGridBased.html" target="_top" xlink:title="A &quot;mix&#45;in&quot; class used by classes that need frequent access to grid parameters. ">
<polygon fill="white" stroke="black" points="102,-56.5 102,-75.5 164,-75.5 164,-56.5 102,-56.5"/>
<text text-anchor="middle" x="133" y="-63.5" font-family="FreeSans" font-size="10.00">GridBased</text>
</a>
</g>
</g>
<!-- Node3&#45;&gt;Node1 -->
<g id="edge2" class="edge"><title>Node3&#45;&gt;Node1</title>
<path fill="none" stroke="midnightblue" d="M118.886,-48.4314C110.824,-38.9673 101.041,-27.4827 94.4546,-19.7511"/>
<polygon fill="midnightblue" stroke="midnightblue" points="116.255,-50.7402 125.404,-56.083 121.584,-46.2009 116.255,-50.7402"/>
</g>
</g>
</svg>
