<?xml version="1.0" encoding="UTF-8" standalone="no"?>
<!DOCTYPE svg PUBLIC "-//W3C//DTD SVG 1.1//EN"
 "http://www.w3.org/Graphics/SVG/1.1/DTD/svg11.dtd">
<!-- Generated by graphviz version 2.28.0 (20120425.2022)
 -->
<!-- Title: SourceSystemQSS Pages: 1 -->
<svg width="163pt" height="84pt"
 viewBox="0.00 0.00 163.00 84.00" xmlns="http://www.w3.org/2000/svg" xmlns:xlink="http://www.w3.org/1999/xlink">
<g id="graph1" class="graph" transform="scale(1 1) rotate(0) translate(4 80)">
<title>SourceSystemQSS</title>
<polygon fill="white" stroke="white" points="-4,5 -4,-80 160,-80 160,5 -4,5"/>
<!-- Node1 -->
<g id="node1" class="node"><title>Node1</title>
<polygon fill="#bfbfbf" stroke="black" points="32,-0.5 32,-19.5 136,-19.5 136,-0.5 32,-0.5"/>
<text text-anchor="middle" x="84" y="-7.5" font-family="FreeSans" font-size="10.00">SourceSystemQSS</text>
</g>
<!-- Node2 -->
<g id="node2" class="node"><title>Node2</title>
<a xlink:href="classSourceSystem.html" target="_top" xlink:title="Base class used to integrate the chemical source term at a single point.">
<polygon fill="white" stroke="black" points="-0.5,-56.5 -0.5,-75.5 82.5,-75.5 82.5,-56.5 -0.5,-56.5"/>
<text text-anchor="middle" x="41" y="-63.5" font-family="FreeSans" font-size="10.00">SourceSystem</text>
</a>
</g>
<!-- Node2&#45;&gt;Node1 -->
<g id="edge2" class="edge"><title>Node2&#45;&gt;Node1</title>
<path fill="none" stroke="midnightblue" d="M54.4224,-48.144C61.9142,-38.7357 70.9371,-27.4046 77.0315,-19.7511"/>
<polygon fill="midnightblue" stroke="midnightblue" points="51.5919,-46.0799 48.1006,-56.083 57.0679,-50.4404 51.5919,-46.0799"/>
</g>
<!-- Node3 -->
<g id="node4" class="node"><title>Node3</title>
<a xlink:href="classQssOde.html" target="_top" xlink:title="An ODE to be solved by QssIntegrator.">
<polygon fill="white" stroke="black" points="101,-56.5 101,-75.5 155,-75.5 155,-56.5 101,-56.5"/>
<text text-anchor="middle" x="128" y="-63.5" font-family="FreeSans" font-size="10.00">QssOde</text>
</a>
</g>
<!-- Node3&#45;&gt;Node1 -->
<g id="edge4" class="edge"><title>Node3&#45;&gt;Node1</title>
<path fill="none" stroke="#8b1a1a" d="M114.265,-48.144C106.599,-38.7357 97.3667,-27.4046 91.1305,-19.7511"/>
<polygon fill="#8b1a1a" stroke="#8b1a1a" points="111.704,-50.5415 120.734,-56.083 117.131,-46.1198 111.704,-50.5415"/>
</g>
</g>
</svg>
