<?xml version="1.0" encoding="UTF-8" standalone="no"?>
<!DOCTYPE svg PUBLIC "-//W3C//DTD SVG 1.1//EN"
 "http://www.w3.org/Graphics/SVG/1.1/DTD/svg11.dtd">
<!-- Generated by graphviz version 8.1.0 (20230707.2238)
 -->
<!-- Title: GridBased Pages: 1 -->
<svg width="241pt" height="185pt"
 viewBox="0.00 0.00 241.00 184.75" xmlns="http://www.w3.org/2000/svg" xmlns:xlink="http://www.w3.org/1999/xlink">
<g id="graph0" class="graph" transform="scale(1 1) rotate(0) translate(4 180.75)">
<title>GridBased</title>
<!-- Node1 -->
<g id="Node000001" class="node">
<title>Node1</title>
<g id="a_Node000001"><a xlink:title="A &quot;mix&#45;in&quot; class used by classes that need frequent access to grid parameters.">
<polygon fill="#999999" stroke="#666666" points="66.25,-98.75 0,-98.75 0,-78 66.25,-78 66.25,-98.75"/>
<text text-anchor="middle" x="33.12" y="-85.25" font-family="FreeSans" font-size="10.00">GridBased</text>
</a>
</g>
</g>
<!-- Node2 -->
<g id="Node000002" class="node">
<title>Node2</title>
<g id="a_Node000002"><a xlink:href="classConvectionSystemSplit.html" target="_top" xlink:title="Composite system representing the Convection term for all components.">
<polygon fill="white" stroke="#666666" points="232.25,-176.75 103,-176.75 103,-156 232.25,-156 232.25,-176.75"/>
<text text-anchor="middle" x="167.62" y="-163.25" font-family="FreeSans" font-size="10.00">ConvectionSystemSplit</text>
</a>
</g>
</g>
<!-- Node1&#45;&gt;Node2 -->
<g id="edge1_Node000001_Node000002" class="edge">
<title>Node1&#45;&gt;Node2</title>
<g id="a_edge1_Node000001_Node000002"><a xlink:title=" ">
<path fill="none" stroke="#63b8ff" d="M51.38,-106.55C64.32,-119.27 83.05,-135.81 102.25,-146.38 108.81,-149.99 116.12,-153.04 123.38,-155.6"/>
<polygon fill="#63b8ff" stroke="#63b8ff" points="54.28,-104.5 44.76,-99.85 49.3,-109.42 54.28,-104.5"/>
</a>
</g>
</g>
<!-- Node3 -->
<g id="Node000003" class="node">
<title>Node3</title>
<g id="a_Node000003"><a xlink:href="classConvectionSystemUTW.html" target="_top" xlink:title="System representing the coupled convection equations for U, T, and Wmx.">
<polygon fill="white" stroke="#666666" points="233,-137.75 102.25,-137.75 102.25,-117 233,-117 233,-137.75"/>
<text text-anchor="middle" x="167.62" y="-124.25" font-family="FreeSans" font-size="10.00">ConvectionSystemUTW</text>
</a>
</g>
</g>
<!-- Node1&#45;&gt;Node3 -->
<g id="edge2_Node000001_Node000003" class="edge">
<title>Node1&#45;&gt;Node3</title>
<g id="a_edge2_Node000001_Node000003"><a xlink:title=" ">
<path fill="none" stroke="#63b8ff" d="M76.82,-100.94C93.92,-105.97 113.42,-111.71 129.87,-116.56"/>
<polygon fill="#63b8ff" stroke="#63b8ff" points="78.12,-97.38 67.54,-97.92 76.14,-104.1 78.12,-97.38"/>
</a>
</g>
</g>
<!-- Node4 -->
<g id="Node000004" class="node">
<title>Node4</title>
<g id="a_Node000004"><a xlink:href="classConvectionSystemY.html" target="_top" xlink:title="System representing the convection equation for a single species.">
<polygon fill="white" stroke="#666666" points="224.38,-98.75 110.88,-98.75 110.88,-78 224.38,-78 224.38,-98.75"/>
<text text-anchor="middle" x="167.62" y="-85.25" font-family="FreeSans" font-size="10.00">ConvectionSystemY</text>
</a>
</g>
</g>
<!-- Node1&#45;&gt;Node4 -->
<g id="edge3_Node000001_Node000004" class="edge">
<title>Node1&#45;&gt;Node4</title>
<g id="a_edge3_Node000001_Node000004"><a xlink:title=" ">
<path fill="none" stroke="#63b8ff" d="M77.23,-88.38C87.85,-88.38 99.39,-88.38 110.53,-88.38"/>
<polygon fill="#63b8ff" stroke="#63b8ff" points="77.54,-84.88 67.54,-88.38 77.54,-91.88 77.54,-84.88"/>
</a>
</g>
</g>
<!-- Node5 -->
<g id="Node000005" class="node">
<title>Node5</title>
<g id="a_Node000005"><a xlink:href="classDiffusionSystem.html" target="_top" xlink:title="System representing diffusion of a single solution component.">
<polygon fill="white" stroke="#666666" points="215.75,-59.75 119.5,-59.75 119.5,-39 215.75,-39 215.75,-59.75"/>
<text text-anchor="middle" x="167.62" y="-46.25" font-family="FreeSans" font-size="10.00">DiffusionSystem</text>
</a>
</g>
</g>
<!-- Node1&#45;&gt;Node5 -->
<g id="edge4_Node000001_Node000005" class="edge">
<title>Node1&#45;&gt;Node5</title>
<g id="a_edge4_Node000001_Node000005"><a xlink:title=" ">
<path fill="none" stroke="#63b8ff" d="M76.82,-75.81C93.92,-70.78 113.42,-65.04 129.87,-60.19"/>
<polygon fill="#63b8ff" stroke="#63b8ff" points="76.14,-72.65 67.54,-78.83 78.12,-79.37 76.14,-72.65"/>
</a>
</g>
</g>
<!-- Node6 -->
<g id="Node000006" class="node">
<title>Node6</title>
<g id="a_Node000006"><a xlink:href="classFlameSolver.html" target="_top" xlink:title="Class which manages the main integration loop.">
<polygon fill="white" stroke="#666666" points="206.38,-20.75 128.88,-20.75 128.88,0 206.38,0 206.38,-20.75"/>
<text text-anchor="middle" x="167.62" y="-7.25" font-family="FreeSans" font-size="10.00">FlameSolver</text>
</a>
</g>
</g>
<!-- Node1&#45;&gt;Node6 -->
<g id="edge5_Node000001_Node000006" class="edge">
<title>Node1&#45;&gt;Node6</title>
<g id="a_edge5_Node000001_Node000006"><a xlink:title=" ">
<path fill="none" stroke="#63b8ff" d="M51.38,-70.2C64.32,-57.48 83.05,-40.94 102.25,-30.38 110.35,-25.92 119.58,-22.3 128.47,-19.44"/>
<polygon fill="#63b8ff" stroke="#63b8ff" points="49.3,-67.33 44.76,-76.9 54.28,-72.25 49.3,-67.33"/>
</a>
</g>
</g>
</g>
</svg>
