<?xml version="1.0" encoding="UTF-8" standalone="no"?>
<!DOCTYPE svg PUBLIC "-//W3C//DTD SVG 1.1//EN"
 "http://www.w3.org/Graphics/SVG/1.1/DTD/svg11.dtd">
<!-- Generated by graphviz version 2.26.3 (20100126.1600)
 -->
<!-- Title: FlameSolver Pages: 1 -->
<svg width="150pt" height="88pt"
 viewBox="0.00 0.00 150.00 88.00" xmlns="http://www.w3.org/2000/svg" xmlns:xlink="http://www.w3.org/1999/xlink">
<g id="graph1" class="graph" transform="scale(1 1) rotate(0) translate(4 84)">
<title>FlameSolver</title>
<polygon fill="white" stroke="white" points="-4,5 -4,-84 147,-84 147,5 -4,5"/>
<!-- Node1 -->
<g id="node1" class="node"><title>Node1</title>
<polygon fill="#bfbfbf" stroke="black" points="35.5,-1 35.5,-21 106.5,-21 106.5,-1 35.5,-1"/>
<text text-anchor="middle" x="71" y="-8" font-family="FreeSans" font-size="10.00">FlameSolver</text>
</g>
<!-- Node2 -->
<g id="node2" class="node"><title>Node2</title>
<a xlink:href="classGridBased.html" target="_top" xlink:title="A &quot;mix&#45;in&quot; class used by classes that need frequent access to grid parameters. ">
<polygon fill="white" stroke="black" points="0,-59 0,-79 62,-79 62,-59 0,-59"/>
<text text-anchor="middle" x="31" y="-66" font-family="FreeSans" font-size="10.00">GridBased</text>
</a>
</g>
<!-- Node2&#45;&gt;Node1 -->
<g id="edge2" class="edge"><title>Node2&#45;&gt;Node1</title>
<path fill="none" stroke="midnightblue" d="M43.8351,-50.3891C50.4604,-40.7824 58.2945,-29.423 63.843,-21.3776"/>
<polygon fill="midnightblue" stroke="midnightblue" points="40.7636,-48.6779 37.9675,-58.8972 46.5261,-52.6521 40.7636,-48.6779"/>
</g>
<!-- Node3 -->
<g id="node4" class="node"><title>Node3</title>
<a xlink:href="classSplitSolver.html" target="_top" xlink:title="Implements operator split integration for reacting flow problems. ">
<polygon fill="white" stroke="black" points="79.5,-59 79.5,-79 142.5,-79 142.5,-59 79.5,-59"/>
<text text-anchor="middle" x="111" y="-66" font-family="FreeSans" font-size="10.00">SplitSolver</text>
</a>
</g>
<!-- Node3&#45;&gt;Node1 -->
<g id="edge4" class="edge"><title>Node3&#45;&gt;Node1</title>
<path fill="none" stroke="midnightblue" d="M98.1649,-50.3891C91.5396,-40.7824 83.7055,-29.423 78.157,-21.3776"/>
<polygon fill="midnightblue" stroke="midnightblue" points="95.4739,-52.6521 104.033,-58.8972 101.236,-48.6779 95.4739,-52.6521"/>
</g>
</g>
</svg>
