<?xml version="1.0" encoding="UTF-8" standalone="no"?>
<!DOCTYPE svg PUBLIC "-//W3C//DTD SVG 1.1//EN"
 "http://www.w3.org/Graphics/SVG/1.1/DTD/svg11.dtd">
<!-- Generated by graphviz version 2.26.3 (20100126.1600)
 -->
<!-- Title: SourceSystemQSS Pages: 1 -->
<svg width="156pt" height="88pt"
 viewBox="0.00 0.00 156.00 88.00" xmlns="http://www.w3.org/2000/svg" xmlns:xlink="http://www.w3.org/1999/xlink">
<g id="graph1" class="graph" transform="scale(1 1) rotate(0) translate(4 84)">
<title>SourceSystemQSS</title>
<polygon fill="white" stroke="white" points="-4,5 -4,-84 153,-84 153,5 -4,5"/>
<!-- Node1 -->
<g id="node1" class="node"><title>Node1</title>
<polygon fill="#bfbfbf" stroke="black" points="30.5,-1 30.5,-21 131.5,-21 131.5,-1 30.5,-1"/>
<text text-anchor="middle" x="81" y="-8" font-family="FreeSans" font-size="10.00">SourceSystemQSS</text>
</g>
<!-- Node2 -->
<g id="node2" class="node"><title>Node2</title>
<a xlink:href="classSourceSystem.html" target="_top" xlink:title="Base class used to integrate the chemical source term at a single point. ">
<polygon fill="white" stroke="black" points="0,-59 0,-79 80,-79 80,-59 0,-59"/>
<text text-anchor="middle" x="40" y="-66" font-family="FreeSans" font-size="10.00">SourceSystem</text>
</a>
</g>
<!-- Node2&#45;&gt;Node1 -->
<g id="edge2" class="edge"><title>Node2&#45;&gt;Node1</title>
<path fill="none" stroke="midnightblue" d="M52.9464,-50.6856C59.7811,-41.0169 67.9182,-29.5059 73.6641,-21.3776"/>
<polygon fill="midnightblue" stroke="midnightblue" points="50.056,-48.711 47.1417,-58.8972 55.7721,-52.7517 50.056,-48.711"/>
</g>
<!-- Node3 -->
<g id="node4" class="node"><title>Node3</title>
<a xlink:href="classQssOde.html" target="_top" xlink:title="An ODE to be solved by QssIntegrator. ">
<polygon fill="white" stroke="black" points="97.5,-59 97.5,-79 148.5,-79 148.5,-59 97.5,-59"/>
<text text-anchor="middle" x="123" y="-66" font-family="FreeSans" font-size="10.00">QssOde</text>
</a>
</g>
<!-- Node3&#45;&gt;Node1 -->
<g id="edge4" class="edge"><title>Node3&#45;&gt;Node1</title>
<path fill="none" stroke="#8b1a1a" d="M109.738,-50.6856C102.736,-41.0169 94.4009,-29.5059 88.5148,-21.3776"/>
<polygon fill="#8b1a1a" stroke="#8b1a1a" points="106.984,-52.8505 115.684,-58.8972 112.654,-48.7449 106.984,-52.8505"/>
</g>
</g>
</svg>
