<?xml version="1.0" encoding="UTF-8" standalone="no"?>
<!DOCTYPE svg PUBLIC "-//W3C//DTD SVG 1.1//EN"
 "http://www.w3.org/Graphics/SVG/1.1/DTD/svg11.dtd">
<!-- Generated by graphviz version 2.26.3 (20100126.1600)
 -->
<!-- Title: Integrator Pages: 1 -->
<svg width="218pt" height="88pt"
 viewBox="0.00 0.00 218.00 88.00" xmlns="http://www.w3.org/2000/svg" xmlns:xlink="http://www.w3.org/1999/xlink">
<g id="graph1" class="graph" transform="scale(1 1) rotate(0) translate(4 84)">
<title>Integrator</title>
<polygon fill="white" stroke="white" points="-4,5 -4,-84 215,-84 215,5 -4,5"/>
<!-- Node1 -->
<g id="node1" class="node"><title>Node1</title>
<polygon fill="#bfbfbf" stroke="black" points="72,-59 72,-79 130,-79 130,-59 72,-59"/>
<text text-anchor="middle" x="101" y="-66" font-family="FreeSans" font-size="10.00">Integrator</text>
</g>
<!-- Node2 -->
<g id="node3" class="node"><title>Node2</title>
<a xlink:href="classExplicitIntegrator.html" target="_top" xlink:title="Integrates an ODE defined as ydot = f(t,y) using the explicit Euler method. ">
<polygon fill="white" stroke="black" points="-0.5,-1 -0.5,-21 88.5,-21 88.5,-1 -0.5,-1"/>
<text text-anchor="middle" x="44" y="-8" font-family="FreeSans" font-size="10.00">ExplicitIntegrator</text>
</a>
</g>
<!-- Node1&#45;&gt;Node2 -->
<g id="edge2" class="edge"><title>Node1&#45;&gt;Node2</title>
<path fill="none" stroke="midnightblue" d="M83.8688,-51.5682C74.1951,-41.7249 62.4314,-29.7548 54.1987,-21.3776"/>
<polygon fill="midnightblue" stroke="midnightblue" points="81.5657,-54.2181 91.0714,-58.8972 86.5583,-49.3116 81.5657,-54.2181"/>
</g>
<!-- Node3 -->
<g id="node5" class="node"><title>Node3</title>
<a xlink:href="classTridiagonalIntegrator.html" target="_top" xlink:title="Integrator using 1st and 2nd order BDF for tridiagonal systems, with matrix inversions done using the...">
<polygon fill="white" stroke="black" points="105.5,-1 105.5,-21 210.5,-21 210.5,-1 105.5,-1"/>
<text text-anchor="middle" x="158" y="-8" font-family="FreeSans" font-size="10.00">TridiagonalIntegrator</text>
</a>
</g>
<!-- Node1&#45;&gt;Node3 -->
<g id="edge4" class="edge"><title>Node1&#45;&gt;Node3</title>
<path fill="none" stroke="midnightblue" d="M118.131,-51.5682C127.805,-41.7249 139.569,-29.7548 147.801,-21.3776"/>
<polygon fill="midnightblue" stroke="midnightblue" points="115.442,-49.3116 110.929,-58.8972 120.434,-54.2181 115.442,-49.3116"/>
</g>
</g>
</svg>
