<?xml version="1.0" encoding="UTF-8" standalone="no"?>
<!DOCTYPE svg PUBLIC "-//W3C//DTD SVG 1.1//EN"
 "http://www.w3.org/Graphics/SVG/1.1/DTD/svg11.dtd">
<!-- Generated by graphviz version 2.38.0 (20140413.2041)
 -->
<!-- Title: SourceSystem Pages: 1 -->
<svg width="240pt" height="84pt"
 viewBox="0.00 0.00 240.00 84.00" xmlns="http://www.w3.org/2000/svg" xmlns:xlink="http://www.w3.org/1999/xlink">
<g id="graph0" class="graph" transform="scale(1 1) rotate(0) translate(4 80)">
<title>SourceSystem</title>
<polygon fill="white" stroke="none" points="-4,4 -4,-80 236,-80 236,4 -4,4"/>
<!-- Node1 -->
<g id="node1" class="node"><title>Node1</title>
<polygon fill="#bfbfbf" stroke="black" points="78.5,-56.5 78.5,-75.5 158.5,-75.5 158.5,-56.5 78.5,-56.5"/>
<text text-anchor="middle" x="118.5" y="-63.5" font-family="FreeSans" font-size="10.00">SourceSystem</text>
</g>
<!-- Node2 -->
<g id="node2" class="node"><title>Node2</title>
<g id="a_node2"><a xlink:href="classSourceSystemCVODE.html" target="_top" xlink:title="Represents a system of equations used to integrate the (chemical) source term at a single point using...">
<polygon fill="white" stroke="black" points="0,-0.5 0,-19.5 113,-19.5 113,-0.5 0,-0.5"/>
<text text-anchor="middle" x="56.5" y="-7.5" font-family="FreeSans" font-size="10.00">SourceSystemCVODE</text>
</a>
</g>
</g>
<!-- Node1&#45;&gt;Node2 -->
<g id="edge1" class="edge"><title>Node1&#45;&gt;Node2</title>
<path fill="none" stroke="midnightblue" d="M100.746,-49.5372C89.6915,-39.9087 75.8685,-27.8694 66.6426,-19.8339"/>
<polygon fill="midnightblue" stroke="midnightblue" points="98.699,-52.3954 108.539,-56.324 103.297,-47.1168 98.699,-52.3954"/>
</g>
<!-- Node3 -->
<g id="node3" class="node"><title>Node3</title>
<g id="a_node3"><a xlink:href="classSourceSystemQSS.html" target="_top" xlink:title="This is the system representing the (chemical) source term at a point, integrated with the QssIntegra...">
<polygon fill="white" stroke="black" points="131,-0.5 131,-19.5 232,-19.5 232,-0.5 131,-0.5"/>
<text text-anchor="middle" x="181.5" y="-7.5" font-family="FreeSans" font-size="10.00">SourceSystemQSS</text>
</a>
</g>
</g>
<!-- Node1&#45;&gt;Node3 -->
<g id="edge2" class="edge"><title>Node1&#45;&gt;Node3</title>
<path fill="none" stroke="midnightblue" d="M136.54,-49.5372C147.773,-39.9087 161.819,-27.8694 171.194,-19.8339"/>
<polygon fill="midnightblue" stroke="midnightblue" points="133.937,-47.1586 128.622,-56.324 138.492,-52.4734 133.937,-47.1586"/>
</g>
</g>
</svg>
