<?xml version="1.0" encoding="UTF-8" standalone="no"?>
<!DOCTYPE svg PUBLIC "-//W3C//DTD SVG 1.1//EN"
 "http://www.w3.org/Graphics/SVG/1.1/DTD/svg11.dtd">
<!-- Generated by graphviz version 8.1.0 (20230707.2238)
 -->
<!-- Title: ScalarFunction Pages: 1 -->
<svg width="224pt" height="86pt"
 viewBox="0.00 0.00 224.25 85.50" xmlns="http://www.w3.org/2000/svg" xmlns:xlink="http://www.w3.org/1999/xlink">
<g id="graph0" class="graph" transform="scale(1 1) rotate(0) translate(4 81.5)">
<title>ScalarFunction</title>
<!-- Node1 -->
<g id="Node000001" class="node">
<title>Node1</title>
<g id="a_Node000001"><a xlink:title="Represents a parameterization of a scalar function of one variable, a(t).">
<polygon fill="#999999" stroke="#666666" points="157.25,-77.5 70,-77.5 70,-56.75 157.25,-56.75 157.25,-77.5"/>
<text text-anchor="middle" x="113.62" y="-64" font-family="FreeSans" font-size="10.00">ScalarFunction</text>
</a>
</g>
</g>
<!-- Node2 -->
<g id="Node000002" class="node">
<title>Node2</title>
<g id="a_Node000002"><a xlink:href="classChebyshevFunction.html" target="_top" xlink:title="Chebyshev polynomial representation of a(t).">
<polygon fill="white" stroke="#666666" points="111.25,-20.75 0,-20.75 0,0 111.25,0 111.25,-20.75"/>
<text text-anchor="middle" x="55.62" y="-7.25" font-family="FreeSans" font-size="10.00">ChebyshevFunction</text>
</a>
</g>
</g>
<!-- Node1&#45;&gt;Node2 -->
<g id="edge1_Node000001_Node000002" class="edge">
<title>Node1&#45;&gt;Node2</title>
<g id="a_edge1_Node000001_Node000002"><a xlink:title=" ">
<path fill="none" stroke="#63b8ff" d="M95.33,-48.86C85.62,-39.69 74.04,-28.76 65.9,-21.08"/>
<polygon fill="#63b8ff" stroke="#63b8ff" points="92.58,-51.02 102.26,-55.34 97.39,-45.93 92.58,-51.02"/>
</a>
</g>
</g>
<!-- Node3 -->
<g id="Node000003" class="node">
<title>Node3</title>
<g id="a_Node000003"><a xlink:href="classLinearFunction.html" target="_top" xlink:title="Represents a function that is constant before and after a linear ramp.">
<polygon fill="white" stroke="#666666" points="216.25,-20.75 129,-20.75 129,0 216.25,0 216.25,-20.75"/>
<text text-anchor="middle" x="172.62" y="-7.25" font-family="FreeSans" font-size="10.00">LinearFunction</text>
</a>
</g>
</g>
<!-- Node1&#45;&gt;Node3 -->
<g id="edge2_Node000001_Node000003" class="edge">
<title>Node1&#45;&gt;Node3</title>
<g id="a_edge2_Node000001_Node000003"><a xlink:title=" ">
<path fill="none" stroke="#63b8ff" d="M132.23,-48.86C142.11,-39.69 153.89,-28.76 162.17,-21.08"/>
<polygon fill="#63b8ff" stroke="#63b8ff" points="130.12,-45.97 125.17,-55.34 134.88,-51.1 130.12,-45.97"/>
</a>
</g>
</g>
</g>
</svg>
