<?xml version="1.0" encoding="UTF-8" standalone="no"?>
<!DOCTYPE svg PUBLIC "-//W3C//DTD SVG 1.1//EN"
 "http://www.w3.org/Graphics/SVG/1.1/DTD/svg11.dtd">
<!-- Generated by graphviz version 2.28.0 (20120425.2022)
 -->
<!-- Title: Integrator Pages: 1 -->
<svg width="225pt" height="84pt"
 viewBox="0.00 0.00 225.00 84.00" xmlns="http://www.w3.org/2000/svg" xmlns:xlink="http://www.w3.org/1999/xlink">
<g id="graph1" class="graph" transform="scale(1 1) rotate(0) translate(4 80)">
<title>Integrator</title>
<polygon fill="white" stroke="white" points="-4,5 -4,-80 222,-80 222,5 -4,5"/>
<!-- Node1 -->
<g id="node1" class="node"><title>Node1</title>
<polygon fill="#bfbfbf" stroke="black" points="73.5,-56.5 73.5,-75.5 132.5,-75.5 132.5,-56.5 73.5,-56.5"/>
<text text-anchor="middle" x="103" y="-63.5" font-family="FreeSans" font-size="10.00">Integrator</text>
</g>
<!-- Node2 -->
<g id="node3" class="node"><title>Node2</title>
<a xlink:href="classExplicitIntegrator.html" target="_top" xlink:title="Integrates an ODE defined as ydot = f(t,y) using the explicit Euler method.">
<polygon fill="white" stroke="black" points="-0.5,-0.5 -0.5,-19.5 88.5,-19.5 88.5,-0.5 -0.5,-0.5"/>
<text text-anchor="middle" x="44" y="-7.5" font-family="FreeSans" font-size="10.00">ExplicitIntegrator</text>
</a>
</g>
<!-- Node1&#45;&gt;Node2 -->
<g id="edge2" class="edge"><title>Node1&#45;&gt;Node2</title>
<path fill="none" stroke="midnightblue" d="M86.1055,-49.5372C75.5855,-39.9087 62.4313,-27.8694 53.6519,-19.8339"/>
<polygon fill="midnightblue" stroke="midnightblue" points="83.7808,-52.1542 93.5206,-56.324 88.5069,-46.9905 83.7808,-52.1542"/>
</g>
<!-- Node3 -->
<g id="node5" class="node"><title>Node3</title>
<a xlink:href="classTridiagonalIntegrator.html" target="_top" xlink:title="Integrator using 1st and 2nd order BDF for tridiagonal systems, with matrix inversions done using the...">
<polygon fill="white" stroke="black" points="107,-0.5 107,-19.5 217,-19.5 217,-0.5 107,-0.5"/>
<text text-anchor="middle" x="162" y="-7.5" font-family="FreeSans" font-size="10.00">TridiagonalIntegrator</text>
</a>
</g>
<!-- Node1&#45;&gt;Node3 -->
<g id="edge4" class="edge"><title>Node1&#45;&gt;Node3</title>
<path fill="none" stroke="midnightblue" d="M119.895,-49.5372C130.415,-39.9087 143.569,-27.8694 152.348,-19.8339"/>
<polygon fill="midnightblue" stroke="midnightblue" points="117.493,-46.9905 112.479,-56.324 122.219,-52.1542 117.493,-46.9905"/>
</g>
</g>
</svg>
