<?xml version="1.0" encoding="UTF-8" standalone="no"?>
<!DOCTYPE svg PUBLIC "-//W3C//DTD SVG 1.1//EN"
 "http://www.w3.org/Graphics/SVG/1.1/DTD/svg11.dtd">
<!-- Generated by graphviz version 8.1.0 (20230707.2238)
 -->
<!-- Title: SourceSystemCVODE Pages: 1 -->
<svg width="160pt" height="86pt"
 viewBox="0.00 0.00 160.00 85.50" xmlns="http://www.w3.org/2000/svg" xmlns:xlink="http://www.w3.org/1999/xlink">
<g id="graph0" class="graph" transform="scale(1 1) rotate(0) translate(4 81.5)">
<title>SourceSystemCVODE</title>
<!-- Node1 -->
<g id="Node000001" class="node">
<title>Node1</title>
<g id="a_Node000001"><a xlink:title="Represents a system of equations used to integrate the (chemical) source term at a single point using...">
<polygon fill="#999999" stroke="#666666" points="145,-20.75 24.75,-20.75 24.75,0 145,0 145,-20.75"/>
<text text-anchor="middle" x="84.88" y="-7.25" font-family="FreeSans" font-size="10.00">SourceSystemCVODE</text>
</a>
</g>
</g>
<!-- Node2 -->
<g id="Node000002" class="node">
<title>Node2</title>
<g id="a_Node000002"><a xlink:href="classSourceSystem.html" target="_top" xlink:title="Base class used to integrate the chemical source term at a single point.">
<polygon fill="white" stroke="#666666" points="85.75,-77.5 0,-77.5 0,-56.75 85.75,-56.75 85.75,-77.5"/>
<text text-anchor="middle" x="42.88" y="-64" font-family="FreeSans" font-size="10.00">SourceSystem</text>
</a>
</g>
</g>
<!-- Node2&#45;&gt;Node1 -->
<g id="edge1_Node000001_Node000002" class="edge">
<title>Node2&#45;&gt;Node1</title>
<g id="a_edge1_Node000001_Node000002"><a xlink:title=" ">
<path fill="none" stroke="#63b8ff" d="M56.98,-47.74C63.83,-38.81 71.77,-28.45 77.43,-21.08"/>
<polygon fill="#63b8ff" stroke="#63b8ff" points="53.69,-45.27 50.38,-55.34 59.25,-49.53 53.69,-45.27"/>
</a>
</g>
</g>
<!-- Node3 -->
<g id="Node000003" class="node">
<title>Node3</title>
<g id="a_Node000003"><a xlink:href="classsdODE.html" target="_top" xlink:title="Abstract base class for an ODE to be integrated by SundialsCvode.">
<polygon fill="white" stroke="#666666" points="152,-77.5 103.75,-77.5 103.75,-56.75 152,-56.75 152,-77.5"/>
<text text-anchor="middle" x="127.88" y="-64" font-family="FreeSans" font-size="10.00">sdODE</text>
</a>
</g>
</g>
<!-- Node3&#45;&gt;Node1 -->
<g id="edge2_Node000001_Node000003" class="edge">
<title>Node3&#45;&gt;Node1</title>
<g id="a_edge2_Node000001_Node000003"><a xlink:title=" ">
<path fill="none" stroke="#8b1a1a" d="M113.43,-47.74C106.42,-38.81 98.29,-28.45 92.5,-21.08"/>
<polygon fill="#8b1a1a" stroke="#8b1a1a" points="111.26,-49.63 120.19,-55.34 116.76,-45.31 111.26,-49.63"/>
</a>
</g>
</g>
</g>
</svg>
