<?xml version="1.0" encoding="UTF-8" standalone="no"?>
<!DOCTYPE svg PUBLIC "-//W3C//DTD SVG 1.1//EN"
 "http://www.w3.org/Graphics/SVG/1.1/DTD/svg11.dtd">
<!-- Generated by graphviz version 2.38.0 (20140413.2041)
 -->
<!-- Title: GridBased Pages: 1 -->
<svg width="225pt" height="180pt"
 viewBox="0.00 0.00 225.00 180.00" xmlns="http://www.w3.org/2000/svg" xmlns:xlink="http://www.w3.org/1999/xlink">
<g id="graph0" class="graph" transform="scale(1 1) rotate(0) translate(4 176)">
<title>GridBased</title>
<polygon fill="white" stroke="none" points="-4,4 -4,-176 221,-176 221,4 -4,4"/>
<!-- Node1 -->
<g id="node1" class="node"><title>Node1</title>
<polygon fill="#bfbfbf" stroke="black" points="0,-76.5 0,-95.5 62,-95.5 62,-76.5 0,-76.5"/>
<text text-anchor="middle" x="31" y="-83.5" font-family="FreeSans" font-size="10.00">GridBased</text>
</g>
<!-- Node2 -->
<g id="node2" class="node"><title>Node2</title>
<g id="a_node2"><a xlink:href="classConvectionSystemSplit.html" target="_top" xlink:title="Composite system representing the Convection term for all components. ">
<polygon fill="white" stroke="black" points="99.5,-152.5 99.5,-171.5 215.5,-171.5 215.5,-152.5 99.5,-152.5"/>
<text text-anchor="middle" x="157.5" y="-159.5" font-family="FreeSans" font-size="10.00">ConvectionSystemSplit</text>
</a>
</g>
</g>
<!-- Node1&#45;&gt;Node2 -->
<g id="edge1" class="edge"><title>Node1&#45;&gt;Node2</title>
<path fill="none" stroke="midnightblue" d="M47.914,-103.013C60.4741,-115.577 78.9945,-132.289 98,-143 104.605,-146.722 112.046,-149.841 119.351,-152.406"/>
<polygon fill="midnightblue" stroke="midnightblue" points="50.3947,-100.544 40.9127,-95.8171 45.3775,-105.425 50.3947,-100.544"/>
</g>
<!-- Node3 -->
<g id="node3" class="node"><title>Node3</title>
<g id="a_node3"><a xlink:href="classConvectionSystemUTW.html" target="_top" xlink:title="System representing the coupled convection equations for U, T, and Wmx. ">
<polygon fill="white" stroke="black" points="98,-114.5 98,-133.5 217,-133.5 217,-114.5 98,-114.5"/>
<text text-anchor="middle" x="157.5" y="-121.5" font-family="FreeSans" font-size="10.00">ConvectionSystemUTW</text>
</a>
</g>
</g>
<!-- Node1&#45;&gt;Node3 -->
<g id="edge2" class="edge"><title>Node1&#45;&gt;Node3</title>
<path fill="none" stroke="midnightblue" d="M71.9619,-98.1972C89.2476,-103.473 109.175,-109.555 125.339,-114.489"/>
<polygon fill="midnightblue" stroke="midnightblue" points="72.7242,-94.7705 62.138,-95.1987 70.6806,-101.466 72.7242,-94.7705"/>
</g>
<!-- Node4 -->
<g id="node4" class="node"><title>Node4</title>
<g id="a_node4"><a xlink:href="classConvectionSystemY.html" target="_top" xlink:title="System representing the convection equation for a single species. ">
<polygon fill="white" stroke="black" points="105.5,-76.5 105.5,-95.5 209.5,-95.5 209.5,-76.5 105.5,-76.5"/>
<text text-anchor="middle" x="157.5" y="-83.5" font-family="FreeSans" font-size="10.00">ConvectionSystemY</text>
</a>
</g>
</g>
<!-- Node1&#45;&gt;Node4 -->
<g id="edge3" class="edge"><title>Node1&#45;&gt;Node4</title>
<path fill="none" stroke="midnightblue" d="M72.2792,-86C82.7932,-86 94.2666,-86 105.266,-86"/>
<polygon fill="midnightblue" stroke="midnightblue" points="72.138,-82.5001 62.138,-86 72.1379,-89.5001 72.138,-82.5001"/>
</g>
<!-- Node5 -->
<g id="node5" class="node"><title>Node5</title>
<g id="a_node5"><a xlink:href="classDiffusionSystem.html" target="_top" xlink:title="System representing diffusion of a single solution component. ">
<polygon fill="white" stroke="black" points="115,-38.5 115,-57.5 200,-57.5 200,-38.5 115,-38.5"/>
<text text-anchor="middle" x="157.5" y="-45.5" font-family="FreeSans" font-size="10.00">DiffusionSystem</text>
</a>
</g>
</g>
<!-- Node1&#45;&gt;Node5 -->
<g id="edge4" class="edge"><title>Node1&#45;&gt;Node5</title>
<path fill="none" stroke="midnightblue" d="M71.9619,-73.8028C89.2476,-68.5268 109.175,-62.4446 125.339,-57.5109"/>
<polygon fill="midnightblue" stroke="midnightblue" points="70.6806,-70.5344 62.138,-76.8013 72.7242,-77.2295 70.6806,-70.5344"/>
</g>
<!-- Node6 -->
<g id="node6" class="node"><title>Node6</title>
<g id="a_node6"><a xlink:href="classFlameSolver.html" target="_top" xlink:title="Class which manages the main integration loop. ">
<polygon fill="white" stroke="black" points="122,-0.5 122,-19.5 193,-19.5 193,-0.5 122,-0.5"/>
<text text-anchor="middle" x="157.5" y="-7.5" font-family="FreeSans" font-size="10.00">FlameSolver</text>
</a>
</g>
</g>
<!-- Node1&#45;&gt;Node6 -->
<g id="edge5" class="edge"><title>Node1&#45;&gt;Node6</title>
<path fill="none" stroke="midnightblue" d="M47.914,-68.9868C60.4741,-56.4228 78.9945,-39.7108 98,-29 105.349,-24.8582 113.734,-21.4633 121.814,-18.7487"/>
<polygon fill="midnightblue" stroke="midnightblue" points="45.3775,-66.5748 40.9127,-76.1829 50.3947,-71.4561 45.3775,-66.5748"/>
</g>
</g>
</svg>
