<?xml version="1.0" encoding="UTF-8" standalone="no"?>
<!DOCTYPE svg PUBLIC "-//W3C//DTD SVG 1.1//EN"
 "http://www.w3.org/Graphics/SVG/1.1/DTD/svg11.dtd">
<!-- Generated by graphviz version 8.1.0 (20230707.2238)
 -->
<!-- Title: DiffusionSystem Pages: 1 -->
<svg width="182pt" height="86pt"
 viewBox="0.00 0.00 182.25 85.50" xmlns="http://www.w3.org/2000/svg" xmlns:xlink="http://www.w3.org/1999/xlink">
<g id="graph0" class="graph" transform="scale(1 1) rotate(0) translate(4 81.5)">
<title>DiffusionSystem</title>
<!-- Node1 -->
<g id="Node000001" class="node">
<title>Node1</title>
<g id="a_Node000001"><a xlink:title="System representing diffusion of a single solution component.">
<polygon fill="#999999" stroke="#666666" points="141.25,-20.75 45,-20.75 45,0 141.25,0 141.25,-20.75"/>
<text text-anchor="middle" x="93.12" y="-7.25" font-family="FreeSans" font-size="10.00">DiffusionSystem</text>
</a>
</g>
</g>
<!-- Node2 -->
<g id="Node000002" class="node">
<title>Node2</title>
<g id="a_Node000002"><a xlink:href="classTridiagonalODE.html" target="_top" xlink:title="A system of linear ODEs represented by a tridiagonal matrix.">
<polygon fill="white" stroke="#666666" points="90.25,-77.5 0,-77.5 0,-56.75 90.25,-56.75 90.25,-77.5"/>
<text text-anchor="middle" x="45.12" y="-64" font-family="FreeSans" font-size="10.00">TridiagonalODE</text>
</a>
</g>
</g>
<!-- Node2&#45;&gt;Node1 -->
<g id="edge1_Node000001_Node000002" class="edge">
<title>Node2&#45;&gt;Node1</title>
<g id="a_edge1_Node000001_Node000002"><a xlink:title=" ">
<path fill="none" stroke="#63b8ff" d="M60.75,-48.3C68.69,-39.25 78.02,-28.61 84.62,-21.08"/>
<polygon fill="#63b8ff" stroke="#63b8ff" points="57.67,-45.51 53.71,-55.34 62.93,-50.12 57.67,-45.51"/>
</a>
</g>
</g>
<!-- Node3 -->
<g id="Node000003" class="node">
<title>Node3</title>
<g id="a_Node000003"><a xlink:href="classGridBased.html" target="_top" xlink:title="A &quot;mix&#45;in&quot; class used by classes that need frequent access to grid parameters.">
<polygon fill="white" stroke="#666666" points="174.25,-77.5 108,-77.5 108,-56.75 174.25,-56.75 174.25,-77.5"/>
<text text-anchor="middle" x="141.12" y="-64" font-family="FreeSans" font-size="10.00">GridBased</text>
</a>
</g>
</g>
<!-- Node3&#45;&gt;Node1 -->
<g id="edge2_Node000001_Node000003" class="edge">
<title>Node3&#45;&gt;Node1</title>
<g id="a_edge2_Node000001_Node000003"><a xlink:title=" ">
<path fill="none" stroke="#63b8ff" d="M125.5,-48.3C117.56,-39.25 108.23,-28.61 101.63,-21.08"/>
<polygon fill="#63b8ff" stroke="#63b8ff" points="123.32,-50.12 132.54,-55.34 128.58,-45.51 123.32,-50.12"/>
</a>
</g>
</g>
</g>
</svg>
