<?xml version="1.0" encoding="UTF-8" standalone="no"?>
<!DOCTYPE svg PUBLIC "-//W3C//DTD SVG 1.1//EN"
 "http://www.w3.org/Graphics/SVG/1.1/DTD/svg11.dtd">
<!-- Generated by graphviz version 2.26.3 (20100126.1600)
 -->
<!-- Title: sdODE Pages: 1 -->
<svg width="378pt" height="88pt"
 viewBox="0.00 0.00 378.00 88.00" xmlns="http://www.w3.org/2000/svg" xmlns:xlink="http://www.w3.org/1999/xlink">
<g id="graph1" class="graph" transform="scale(1 1) rotate(0) translate(4 84)">
<title>sdODE</title>
<polygon fill="white" stroke="white" points="-4,5 -4,-84 375,-84 375,5 -4,5"/>
<!-- Node1 -->
<g id="node1" class="node"><title>Node1</title>
<polygon fill="#bfbfbf" stroke="black" points="164.5,-59 164.5,-79 211.5,-79 211.5,-59 164.5,-59"/>
<text text-anchor="middle" x="188" y="-66" font-family="FreeSans" font-size="10.00">sdODE</text>
</g>
<!-- Node2 -->
<g id="node3" class="node"><title>Node2</title>
<a xlink:href="classConvectionSystemUTW.html" target="_top" xlink:title="System representing the coupled convection equations for U, T, and Wmx. ">
<polygon fill="white" stroke="black" points="-0.5,-1 -0.5,-21 118.5,-21 118.5,-1 -0.5,-1"/>
<text text-anchor="middle" x="59" y="-8" font-family="FreeSans" font-size="10.00">ConvectionSystemUTW</text>
</a>
</g>
<!-- Node1&#45;&gt;Node2 -->
<g id="edge2" class="edge"><title>Node1&#45;&gt;Node2</title>
<path fill="none" stroke="midnightblue" d="M156.137,-54.674C133.014,-44.2778 102.294,-30.4654 81.6454,-21.1817"/>
<polygon fill="midnightblue" stroke="midnightblue" points="154.974,-57.9886 165.53,-58.8972 157.845,-51.6042 154.974,-57.9886"/>
</g>
<!-- Node3 -->
<g id="node5" class="node"><title>Node3</title>
<a xlink:href="classConvectionSystemY.html" target="_top" xlink:title="System representing the convection equation for a single species. ">
<polygon fill="white" stroke="black" points="136,-1 136,-21 240,-21 240,-1 136,-1"/>
<text text-anchor="middle" x="188" y="-8" font-family="FreeSans" font-size="10.00">ConvectionSystemY</text>
</a>
</g>
<!-- Node1&#45;&gt;Node3 -->
<g id="edge4" class="edge"><title>Node1&#45;&gt;Node3</title>
<path fill="none" stroke="midnightblue" d="M188,-48.8902C188,-39.6201 188,-29.0083 188,-21.3776"/>
<polygon fill="midnightblue" stroke="midnightblue" points="184.5,-48.8971 188,-58.8972 191.5,-48.8972 184.5,-48.8971"/>
</g>
<!-- Node4 -->
<g id="node7" class="node"><title>Node4</title>
<a xlink:href="classSourceSystemCVODE.html" target="_top" xlink:title="Represents a system of equations used to integrate the (chemical) source term at a single point using...">
<polygon fill="white" stroke="black" points="257.5,-1 257.5,-21 370.5,-21 370.5,-1 257.5,-1"/>
<text text-anchor="middle" x="314" y="-8" font-family="FreeSans" font-size="10.00">SourceSystemCVODE</text>
</a>
</g>
<!-- Node1&#45;&gt;Node4 -->
<g id="edge6" class="edge"><title>Node1&#45;&gt;Node4</title>
<path fill="none" stroke="#8b1a1a" d="M219.122,-54.674C241.707,-44.2778 271.713,-30.4654 291.881,-21.1817"/>
<polygon fill="#8b1a1a" stroke="#8b1a1a" points="217.568,-51.5363 209.948,-58.8972 220.495,-57.895 217.568,-51.5363"/>
</g>
</g>
</svg>
