<?xml version="1.0" encoding="UTF-8" standalone="no"?>
<!DOCTYPE svg PUBLIC "-//W3C//DTD SVG 1.1//EN"
 "http://www.w3.org/Graphics/SVG/1.1/DTD/svg11.dtd">
<!-- Generated by graphviz version 2.26.3 (20100126.1600)
 -->
<!-- Title: GridBased Pages: 1 -->
<svg width="226pt" height="180pt"
 viewBox="0.00 0.00 226.00 180.00" xmlns="http://www.w3.org/2000/svg" xmlns:xlink="http://www.w3.org/1999/xlink">
<g id="graph1" class="graph" transform="scale(1 1) rotate(0) translate(4 176)">
<title>GridBased</title>
<polygon fill="white" stroke="white" points="-4,5 -4,-176 223,-176 223,5 -4,5"/>
<!-- Node1 -->
<g id="node1" class="node"><title>Node1</title>
<polygon fill="#bfbfbf" stroke="black" points="0,-76 0,-96 62,-96 62,-76 0,-76"/>
<text text-anchor="middle" x="31" y="-83" font-family="FreeSans" font-size="10.00">GridBased</text>
</g>
<!-- Node2 -->
<g id="node3" class="node"><title>Node2</title>
<a xlink:href="classConvectionSystemSplit.html" target="_top" xlink:title="Composite system representing the Convection term for all components. ">
<polygon fill="white" stroke="black" points="100,-152 100,-172 216,-172 216,-152 100,-152"/>
<text text-anchor="middle" x="158" y="-159" font-family="FreeSans" font-size="10.00">ConvectionSystemSplit</text>
</a>
</g>
<!-- Node1&#45;&gt;Node2 -->
<g id="edge2" class="edge"><title>Node1&#45;&gt;Node2</title>
<path fill="none" stroke="midnightblue" d="M47.6223,-103.477C60.3756,-116.003 78.9709,-132.461 98,-143 104.308,-146.494 111.352,-149.449 118.333,-151.911"/>
<polygon fill="midnightblue" stroke="midnightblue" points="50.0095,-100.913 40.4849,-96.2727 45.0369,-105.84 50.0095,-100.913"/>
</g>
<!-- Node3 -->
<g id="node5" class="node"><title>Node3</title>
<a xlink:href="classConvectionSystemUTW.html" target="_top" xlink:title="System representing the coupled convection equations for U, T, and Wmx. ">
<polygon fill="white" stroke="black" points="98.5,-114 98.5,-134 217.5,-134 217.5,-114 98.5,-114"/>
<text text-anchor="middle" x="158" y="-121" font-family="FreeSans" font-size="10.00">ConvectionSystemUTW</text>
</a>
</g>
<!-- Node1&#45;&gt;Node3 -->
<g id="edge4" class="edge"><title>Node1&#45;&gt;Node3</title>
<path fill="none" stroke="midnightblue" d="M71.6953,-98.1766C88.6097,-103.238 108.014,-109.043 124.133,-113.867"/>
<polygon fill="midnightblue" stroke="midnightblue" points="72.6514,-94.8094 62.0677,-95.2958 70.6447,-101.516 72.6514,-94.8094"/>
</g>
<!-- Node4 -->
<g id="node7" class="node"><title>Node4</title>
<a xlink:href="classConvectionSystemY.html" target="_top" xlink:title="System representing the convection equation for a single species. ">
<polygon fill="white" stroke="black" points="106,-76 106,-96 210,-96 210,-76 106,-76"/>
<text text-anchor="middle" x="158" y="-83" font-family="FreeSans" font-size="10.00">ConvectionSystemY</text>
</a>
</g>
<!-- Node1&#45;&gt;Node4 -->
<g id="edge6" class="edge"><title>Node1&#45;&gt;Node4</title>
<path fill="none" stroke="midnightblue" d="M72.0736,-86C82.8785,-86 94.6774,-86 105.975,-86"/>
<polygon fill="midnightblue" stroke="midnightblue" points="72.0677,-82.5001 62.0677,-86 72.0677,-89.5001 72.0677,-82.5001"/>
</g>
<!-- Node5 -->
<g id="node9" class="node"><title>Node5</title>
<a xlink:href="classDiffusionSystem.html" target="_top" xlink:title="System representing diffusion of a single solution component. ">
<polygon fill="white" stroke="black" points="115.5,-38 115.5,-58 200.5,-58 200.5,-38 115.5,-38"/>
<text text-anchor="middle" x="158" y="-45" font-family="FreeSans" font-size="10.00">DiffusionSystem</text>
</a>
</g>
<!-- Node1&#45;&gt;Node5 -->
<g id="edge8" class="edge"><title>Node1&#45;&gt;Node5</title>
<path fill="none" stroke="midnightblue" d="M71.6953,-73.8234C88.6097,-68.7624 108.014,-62.9566 124.133,-58.1334"/>
<polygon fill="midnightblue" stroke="midnightblue" points="70.6447,-70.4844 62.0677,-76.7042 72.6514,-77.1906 70.6447,-70.4844"/>
</g>
<!-- Node6 -->
<g id="node11" class="node"><title>Node6</title>
<a xlink:href="classFlameSolver.html" target="_top" xlink:title="Class which manages the main integration loop. ">
<polygon fill="white" stroke="black" points="122.5,-0 122.5,-20 193.5,-20 193.5,-0 122.5,-0"/>
<text text-anchor="middle" x="158" y="-7" font-family="FreeSans" font-size="10.00">FlameSolver</text>
</a>
</g>
<!-- Node1&#45;&gt;Node6 -->
<g id="edge10" class="edge"><title>Node1&#45;&gt;Node6</title>
<path fill="none" stroke="midnightblue" d="M47.6223,-68.5234C60.3756,-55.9966 78.9709,-39.5395 98,-29 105.551,-24.8178 114.156,-21.4074 122.444,-18.6907"/>
<polygon fill="midnightblue" stroke="midnightblue" points="45.0369,-66.1601 40.4849,-75.7273 50.0095,-71.0869 45.0369,-66.1601"/>
</g>
</g>
</svg>
