<?xml version="1.0" encoding="UTF-8" standalone="no"?>
<!DOCTYPE svg PUBLIC "-//W3C//DTD SVG 1.1//EN"
 "http://www.w3.org/Graphics/SVG/1.1/DTD/svg11.dtd">
<!-- Generated by graphviz version 2.26.3 (20100126.1600)
 -->
<!-- Title: DiffusionSystem Pages: 1 -->
<svg width="172pt" height="88pt"
 viewBox="0.00 0.00 172.00 88.00" xmlns="http://www.w3.org/2000/svg" xmlns:xlink="http://www.w3.org/1999/xlink">
<g id="graph1" class="graph" transform="scale(1 1) rotate(0) translate(4 84)">
<title>DiffusionSystem</title>
<polygon fill="white" stroke="white" points="-4,5 -4,-84 169,-84 169,5 -4,5"/>
<!-- Node1 -->
<g id="node1" class="node"><title>Node1</title>
<polygon fill="#bfbfbf" stroke="black" points="44.5,-1 44.5,-21 129.5,-21 129.5,-1 44.5,-1"/>
<text text-anchor="middle" x="87" y="-8" font-family="FreeSans" font-size="10.00">DiffusionSystem</text>
</g>
<!-- Node2 -->
<g id="node2" class="node"><title>Node2</title>
<a xlink:href="classTridiagonalODE.html" target="_top" xlink:title="A system of linear ODEs represented by a tridiagonal matrix. ">
<polygon fill="white" stroke="black" points="0,-59 0,-79 84,-79 84,-59 0,-59"/>
<text text-anchor="middle" x="42" y="-66" font-family="FreeSans" font-size="10.00">TridiagonalODE</text>
</a>
</g>
<!-- Node2&#45;&gt;Node1 -->
<g id="edge2" class="edge"><title>Node2&#45;&gt;Node1</title>
<path fill="none" stroke="midnightblue" d="M55.9803,-50.981C63.5285,-41.2522 72.5776,-29.5889 78.9484,-21.3776"/>
<polygon fill="midnightblue" stroke="midnightblue" points="53.2031,-48.8508 49.8384,-58.8972 58.7337,-53.1418 53.2031,-48.8508"/>
</g>
<!-- Node3 -->
<g id="node4" class="node"><title>Node3</title>
<a xlink:href="classGridBased.html" target="_top" xlink:title="A &quot;mix&#45;in&quot; class used by classes that need frequent access to grid parameters. ">
<polygon fill="white" stroke="black" points="102,-59 102,-79 164,-79 164,-59 102,-59"/>
<text text-anchor="middle" x="133" y="-66" font-family="FreeSans" font-size="10.00">GridBased</text>
</a>
</g>
<!-- Node3&#45;&gt;Node1 -->
<g id="edge4" class="edge"><title>Node3&#45;&gt;Node1</title>
<path fill="none" stroke="midnightblue" d="M118.709,-50.981C110.993,-41.2522 101.743,-29.5889 95.2305,-21.3776"/>
<polygon fill="midnightblue" stroke="midnightblue" points="116.031,-53.2371 124.987,-58.8972 121.516,-48.8873 116.031,-53.2371"/>
</g>
</g>
</svg>
