<?xml version="1.0" encoding="UTF-8" standalone="no"?>
<!DOCTYPE svg PUBLIC "-//W3C//DTD SVG 1.1//EN"
 "http://www.w3.org/Graphics/SVG/1.1/DTD/svg11.dtd">
<!-- Generated by graphviz version 8.1.0 (20230707.2238)
 -->
<!-- Title: sdODE Pages: 1 -->
<svg width="409pt" height="86pt"
 viewBox="0.00 0.00 408.50 85.50" xmlns="http://www.w3.org/2000/svg" xmlns:xlink="http://www.w3.org/1999/xlink">
<g id="graph0" class="graph" transform="scale(1 1) rotate(0) translate(4 81.5)">
<title>sdODE</title>
<!-- Node1 -->
<g id="Node000001" class="node">
<title>Node1</title>
<g id="a_Node000001"><a xlink:title="Abstract base class for an ODE to be integrated by SundialsCvode.">
<polygon fill="#999999" stroke="#666666" points="229.5,-77.5 181.25,-77.5 181.25,-56.75 229.5,-56.75 229.5,-77.5"/>
<text text-anchor="middle" x="205.38" y="-64" font-family="FreeSans" font-size="10.00">sdODE</text>
</a>
</g>
</g>
<!-- Node2 -->
<g id="Node000002" class="node">
<title>Node2</title>
<g id="a_Node000002"><a xlink:href="classConvectionSystemUTW.html" target="_top" xlink:title="System representing the coupled convection equations for U, T, and Wmx.">
<polygon fill="white" stroke="#666666" points="130.75,-20.75 0,-20.75 0,0 130.75,0 130.75,-20.75"/>
<text text-anchor="middle" x="65.38" y="-7.25" font-family="FreeSans" font-size="10.00">ConvectionSystemUTW</text>
</a>
</g>
</g>
<!-- Node1&#45;&gt;Node2 -->
<g id="edge1_Node000001_Node000002" class="edge">
<title>Node1&#45;&gt;Node2</title>
<g id="a_edge1_Node000001_Node000002"><a xlink:title=" ">
<path fill="none" stroke="#63b8ff" d="M170.86,-52.63C145.93,-42.88 112.85,-29.94 90.42,-21.17"/>
<polygon fill="#63b8ff" stroke="#63b8ff" points="169.4,-56.21 179.99,-56.59 171.95,-49.69 169.4,-56.21"/>
</a>
</g>
</g>
<!-- Node3 -->
<g id="Node000003" class="node">
<title>Node3</title>
<g id="a_Node000003"><a xlink:href="classConvectionSystemY.html" target="_top" xlink:title="System representing the convection equation for a single species.">
<polygon fill="white" stroke="#666666" points="262.12,-20.75 148.62,-20.75 148.62,0 262.12,0 262.12,-20.75"/>
<text text-anchor="middle" x="205.38" y="-7.25" font-family="FreeSans" font-size="10.00">ConvectionSystemY</text>
</a>
</g>
</g>
<!-- Node1&#45;&gt;Node3 -->
<g id="edge2_Node000001_Node000003" class="edge">
<title>Node1&#45;&gt;Node3</title>
<g id="a_edge2_Node000001_Node000003"><a xlink:title=" ">
<path fill="none" stroke="#63b8ff" d="M205.38,-45.46C205.38,-37.09 205.38,-27.83 205.38,-21.08"/>
<polygon fill="#63b8ff" stroke="#63b8ff" points="201.88,-45.34 205.38,-55.34 208.88,-45.34 201.88,-45.34"/>
</a>
</g>
</g>
<!-- Node4 -->
<g id="Node000004" class="node">
<title>Node4</title>
<g id="a_Node000004"><a xlink:href="classSourceSystemCVODE.html" target="_top" xlink:title="Represents a system of equations used to integrate the (chemical) source term at a single point using...">
<polygon fill="white" stroke="#666666" points="400.5,-20.75 280.25,-20.75 280.25,0 400.5,0 400.5,-20.75"/>
<text text-anchor="middle" x="340.38" y="-7.25" font-family="FreeSans" font-size="10.00">SourceSystemCVODE</text>
</a>
</g>
</g>
<!-- Node1&#45;&gt;Node4 -->
<g id="edge3_Node000001_Node000004" class="edge">
<title>Node1&#45;&gt;Node4</title>
<g id="a_edge3_Node000001_Node000004"><a xlink:title=" ">
<path fill="none" stroke="#8b1a1a" d="M239.62,-52.24C263.62,-42.5 295.11,-29.73 316.45,-21.08"/>
<polygon fill="#8b1a1a" stroke="#8b1a1a" points="238.46,-49.34 230.51,-56.34 241.09,-55.82 238.46,-49.34"/>
</a>
</g>
</g>
</g>
</svg>
