<?xml version="1.0" encoding="UTF-8" standalone="no"?>
<!DOCTYPE svg PUBLIC "-//W3C//DTD SVG 1.1//EN"
 "http://www.w3.org/Graphics/SVG/1.1/DTD/svg11.dtd">
<!-- Generated by graphviz version 2.28.0 (20120425.2022)
 -->
<!-- Title: StrainFunction Pages: 1 -->
<svg width="263pt" height="84pt"
 viewBox="0.00 0.00 263.00 84.00" xmlns="http://www.w3.org/2000/svg" xmlns:xlink="http://www.w3.org/1999/xlink">
<g id="graph1" class="graph" transform="scale(1 1) rotate(0) translate(4 80)">
<title>StrainFunction</title>
<polygon fill="white" stroke="white" points="-4,5 -4,-80 260,-80 260,5 -4,5"/>
<!-- Node1 -->
<g id="node1" class="node"><title>Node1</title>
<polygon fill="#bfbfbf" stroke="black" points="93.5,-56.5 93.5,-75.5 172.5,-75.5 172.5,-56.5 93.5,-56.5"/>
<text text-anchor="middle" x="133" y="-63.5" font-family="FreeSans" font-size="10.00">StrainFunction</text>
</g>
<!-- Node2 -->
<g id="node3" class="node"><title>Node2</title>
<a xlink:href="classChebyshevStrainFunction.html" target="_top" xlink:title="Strain rate calculated as a Chebyshev polynomial representation of a(t).">
<polygon fill="white" stroke="black" points="0,-0.5 0,-19.5 130,-19.5 130,-0.5 0,-0.5"/>
<text text-anchor="middle" x="65" y="-7.5" font-family="FreeSans" font-size="10.00">ChebyshevStrainFunction</text>
</a>
</g>
<!-- Node1&#45;&gt;Node2 -->
<g id="edge2" class="edge"><title>Node1&#45;&gt;Node2</title>
<path fill="none" stroke="midnightblue" d="M114.238,-50.1008C102,-40.3824 86.4413,-28.0269 76.1242,-19.8339"/>
<polygon fill="midnightblue" stroke="midnightblue" points="112.067,-52.846 122.075,-56.324 116.42,-47.3642 112.067,-52.846"/>
</g>
<!-- Node3 -->
<g id="node5" class="node"><title>Node3</title>
<a xlink:href="classLinearStrainFunction.html" target="_top" xlink:title="Represents a strain rate that is constant before and after a linear ramp.">
<polygon fill="white" stroke="black" points="148.5,-0.5 148.5,-19.5 255.5,-19.5 255.5,-0.5 148.5,-0.5"/>
<text text-anchor="middle" x="202" y="-7.5" font-family="FreeSans" font-size="10.00">LinearStrainFunction</text>
</a>
</g>
<!-- Node1&#45;&gt;Node3 -->
<g id="edge4" class="edge"><title>Node1&#45;&gt;Node3</title>
<path fill="none" stroke="midnightblue" d="M152.038,-50.1008C164.456,-40.3824 180.243,-28.0269 190.712,-19.8339"/>
<polygon fill="midnightblue" stroke="midnightblue" points="149.804,-47.4046 144.086,-56.324 154.118,-52.9171 149.804,-47.4046"/>
</g>
</g>
</svg>
