<?xml version="1.0" encoding="UTF-8" standalone="no"?>
<!DOCTYPE svg PUBLIC "-//W3C//DTD SVG 1.1//EN"
 "http://www.w3.org/Graphics/SVG/1.1/DTD/svg11.dtd">
<!-- Generated by graphviz version 2.38.0 (20140413.2041)
 -->
<!-- Title: Integrator Pages: 1 -->
<svg width="220pt" height="84pt"
 viewBox="0.00 0.00 220.00 84.00" xmlns="http://www.w3.org/2000/svg" xmlns:xlink="http://www.w3.org/1999/xlink">
<g id="graph0" class="graph" transform="scale(1 1) rotate(0) translate(4 80)">
<title>Integrator</title>
<polygon fill="white" stroke="none" points="-4,4 -4,-80 216,-80 216,4 -4,4"/>
<!-- Node1 -->
<g id="node1" class="node"><title>Node1</title>
<polygon fill="#bfbfbf" stroke="black" points="72.5,-56.5 72.5,-75.5 130.5,-75.5 130.5,-56.5 72.5,-56.5"/>
<text text-anchor="middle" x="101.5" y="-63.5" font-family="FreeSans" font-size="10.00">Integrator</text>
</g>
<!-- Node2 -->
<g id="node2" class="node"><title>Node2</title>
<g id="a_node2"><a xlink:href="classExplicitIntegrator.html" target="_top" xlink:title="Integrates an ODE defined as ydot = f(t,y) using the explicit Euler method. ">
<polygon fill="white" stroke="black" points="0,-0.5 0,-19.5 89,-19.5 89,-0.5 0,-0.5"/>
<text text-anchor="middle" x="44.5" y="-7.5" font-family="FreeSans" font-size="10.00">ExplicitIntegrator</text>
</a>
</g>
</g>
<!-- Node1&#45;&gt;Node2 -->
<g id="edge1" class="edge"><title>Node1&#45;&gt;Node2</title>
<path fill="none" stroke="midnightblue" d="M84.8785,-49.2533C74.766,-39.6731 62.2234,-27.7906 53.8247,-19.8339"/>
<polygon fill="midnightblue" stroke="midnightblue" points="82.6753,-51.9873 92.342,-56.324 87.4895,-46.9056 82.6753,-51.9873"/>
</g>
<!-- Node3 -->
<g id="node3" class="node"><title>Node3</title>
<g id="a_node3"><a xlink:href="classTridiagonalIntegrator.html" target="_top" xlink:title="Integrator using 1st and 2nd order BDF for tridiagonal systems, with matrix inversions done using the...">
<polygon fill="white" stroke="black" points="107,-0.5 107,-19.5 212,-19.5 212,-0.5 107,-0.5"/>
<text text-anchor="middle" x="159.5" y="-7.5" font-family="FreeSans" font-size="10.00">TridiagonalIntegrator</text>
</a>
</g>
</g>
<!-- Node1&#45;&gt;Node3 -->
<g id="edge2" class="edge"><title>Node1&#45;&gt;Node3</title>
<path fill="none" stroke="midnightblue" d="M118.413,-49.2533C128.703,-39.6731 141.466,-27.7906 150.012,-19.8339"/>
<polygon fill="midnightblue" stroke="midnightblue" points="115.753,-46.9481 110.819,-56.324 120.523,-52.0714 115.753,-46.9481"/>
</g>
</g>
</svg>
