<?xml version="1.0" encoding="UTF-8" standalone="no"?>
<!DOCTYPE svg PUBLIC "-//W3C//DTD SVG 1.1//EN"
 "http://www.w3.org/Graphics/SVG/1.1/DTD/svg11.dtd">
<!-- Generated by graphviz version 2.38.0 (20140413.2041)
 -->
<!-- Title: FlameSolver Pages: 1 -->
<svg width="152pt" height="84pt"
 viewBox="0.00 0.00 151.50 84.00" xmlns="http://www.w3.org/2000/svg" xmlns:xlink="http://www.w3.org/1999/xlink">
<g id="graph0" class="graph" transform="scale(1 1) rotate(0) translate(4 80)">
<title>FlameSolver</title>
<polygon fill="white" stroke="none" points="-4,4 -4,-80 147.5,-80 147.5,4 -4,4"/>
<!-- Node1 -->
<g id="node1" class="node"><title>Node1</title>
<polygon fill="#bfbfbf" stroke="black" points="35.5,-0.5 35.5,-19.5 106.5,-19.5 106.5,-0.5 35.5,-0.5"/>
<text text-anchor="middle" x="71" y="-7.5" font-family="FreeSans" font-size="10.00">FlameSolver</text>
</g>
<!-- Node2 -->
<g id="node2" class="node"><title>Node2</title>
<g id="a_node2"><a xlink:href="classGridBased.html" target="_top" xlink:title="A &quot;mix&#45;in&quot; class used by classes that need frequent access to grid parameters. ">
<polygon fill="white" stroke="black" points="0,-56.5 0,-75.5 62,-75.5 62,-56.5 0,-56.5"/>
<text text-anchor="middle" x="31" y="-63.5" font-family="FreeSans" font-size="10.00">GridBased</text>
</a>
</g>
</g>
<!-- Node2&#45;&gt;Node1 -->
<g id="edge1" class="edge"><title>Node2&#45;&gt;Node1</title>
<path fill="none" stroke="midnightblue" d="M43.6997,-47.8554C50.626,-38.5048 58.9063,-27.3265 64.5177,-19.7511"/>
<polygon fill="midnightblue" stroke="midnightblue" points="40.745,-45.9641 37.6052,-56.083 46.37,-50.1307 40.745,-45.9641"/>
</g>
<!-- Node3 -->
<g id="node3" class="node"><title>Node3</title>
<g id="a_node3"><a xlink:href="classSplitSolver.html" target="_top" xlink:title="Implements operator split integration for reacting flow problems. ">
<polygon fill="white" stroke="black" points="80.5,-56.5 80.5,-75.5 143.5,-75.5 143.5,-56.5 80.5,-56.5"/>
<text text-anchor="middle" x="112" y="-63.5" font-family="FreeSans" font-size="10.00">SplitSolver</text>
</a>
</g>
</g>
<!-- Node3&#45;&gt;Node1 -->
<g id="edge2" class="edge"><title>Node3&#45;&gt;Node1</title>
<path fill="none" stroke="midnightblue" d="M98.9828,-47.8554C91.8833,-38.5048 83.396,-27.3265 77.6443,-19.7511"/>
<polygon fill="midnightblue" stroke="midnightblue" points="96.395,-50.235 105.23,-56.083 101.97,-46.002 96.395,-50.235"/>
</g>
</g>
</svg>
