<?xml version="1.0" encoding="UTF-8" standalone="no"?>
<!DOCTYPE svg PUBLIC "-//W3C//DTD SVG 1.1//EN"
 "http://www.w3.org/Graphics/SVG/1.1/DTD/svg11.dtd">
<!-- Generated by graphviz version 2.26.3 (20100126.1600)
 -->
<!-- Title: SourceSystemCVODE Pages: 1 -->
<svg width="152pt" height="88pt"
 viewBox="0.00 0.00 152.00 88.00" xmlns="http://www.w3.org/2000/svg" xmlns:xlink="http://www.w3.org/1999/xlink">
<g id="graph1" class="graph" transform="scale(1 1) rotate(0) translate(4 84)">
<title>SourceSystemCVODE</title>
<polygon fill="white" stroke="white" points="-4,5 -4,-84 149,-84 149,5 -4,5"/>
<!-- Node1 -->
<g id="node1" class="node"><title>Node1</title>
<polygon fill="#bfbfbf" stroke="black" points="23.5,-1 23.5,-21 136.5,-21 136.5,-1 23.5,-1"/>
<text text-anchor="middle" x="80" y="-8" font-family="FreeSans" font-size="10.00">SourceSystemCVODE</text>
</g>
<!-- Node2 -->
<g id="node2" class="node"><title>Node2</title>
<a xlink:href="classSourceSystem.html" target="_top" xlink:title="Base class used to integrate the chemical source term at a single point. ">
<polygon fill="white" stroke="black" points="0,-59 0,-79 80,-79 80,-59 0,-59"/>
<text text-anchor="middle" x="40" y="-66" font-family="FreeSans" font-size="10.00">SourceSystem</text>
</a>
</g>
<!-- Node2&#45;&gt;Node1 -->
<g id="edge2" class="edge"><title>Node2&#45;&gt;Node1</title>
<path fill="none" stroke="midnightblue" d="M52.8351,-50.3891C59.4604,-40.7824 67.2945,-29.423 72.843,-21.3776"/>
<polygon fill="midnightblue" stroke="midnightblue" points="49.7636,-48.6779 46.9675,-58.8972 55.5261,-52.6521 49.7636,-48.6779"/>
</g>
<!-- Node3 -->
<g id="node4" class="node"><title>Node3</title>
<a xlink:href="classsdODE.html" target="_top" xlink:title="Abstract base class for an ODE to be integrated by SundialsCvode. ">
<polygon fill="white" stroke="black" points="97.5,-59 97.5,-79 144.5,-79 144.5,-59 97.5,-59"/>
<text text-anchor="middle" x="121" y="-66" font-family="FreeSans" font-size="10.00">sdODE</text>
</a>
</g>
<!-- Node3&#45;&gt;Node1 -->
<g id="edge4" class="edge"><title>Node3&#45;&gt;Node1</title>
<path fill="none" stroke="#8b1a1a" d="M108.054,-50.6856C101.219,-41.0169 93.0818,-29.5059 87.3359,-21.3776"/>
<polygon fill="#8b1a1a" stroke="#8b1a1a" points="105.228,-52.7517 113.858,-58.8972 110.944,-48.711 105.228,-52.7517"/>
</g>
</g>
</svg>
