<?xml version="1.0" encoding="UTF-8" standalone="no"?>
<!DOCTYPE svg PUBLIC "-//W3C//DTD SVG 1.1//EN"
 "http://www.w3.org/Graphics/SVG/1.1/DTD/svg11.dtd">
<!-- Generated by graphviz version 8.1.0 (20230707.2238)
 -->
<!-- Title: SourceSystem Pages: 1 -->
<svg width="252pt" height="86pt"
 viewBox="0.00 0.00 251.75 85.50" xmlns="http://www.w3.org/2000/svg" xmlns:xlink="http://www.w3.org/1999/xlink">
<g id="graph0" class="graph" transform="scale(1 1) rotate(0) translate(4 81.5)">
<title>SourceSystem</title>
<!-- Node1 -->
<g id="Node000001" class="node">
<title>Node1</title>
<g id="a_Node000001"><a xlink:title="Base class used to integrate the chemical source term at a single point.">
<polygon fill="#999999" stroke="#666666" points="168,-77.5 82.25,-77.5 82.25,-56.75 168,-56.75 168,-77.5"/>
<text text-anchor="middle" x="125.12" y="-64" font-family="FreeSans" font-size="10.00">SourceSystem</text>
</a>
</g>
</g>
<!-- Node2 -->
<g id="Node000002" class="node">
<title>Node2</title>
<g id="a_Node000002"><a xlink:href="classSourceSystemCVODE.html" target="_top" xlink:title="Represents a system of equations used to integrate the (chemical) source term at a single point using...">
<polygon fill="white" stroke="#666666" points="120.25,-20.75 0,-20.75 0,0 120.25,0 120.25,-20.75"/>
<text text-anchor="middle" x="60.12" y="-7.25" font-family="FreeSans" font-size="10.00">SourceSystemCVODE</text>
</a>
</g>
</g>
<!-- Node1&#45;&gt;Node2 -->
<g id="edge1_Node000001_Node000002" class="edge">
<title>Node1&#45;&gt;Node2</title>
<g id="a_edge1_Node000001_Node000002"><a xlink:title=" ">
<path fill="none" stroke="#63b8ff" d="M105.28,-49.41C94.27,-40.13 80.95,-28.92 71.65,-21.08"/>
<polygon fill="#63b8ff" stroke="#63b8ff" points="102.6,-52.57 112.5,-56.34 107.11,-47.22 102.6,-52.57"/>
</a>
</g>
</g>
<!-- Node3 -->
<g id="Node000003" class="node">
<title>Node3</title>
<g id="a_Node000003"><a xlink:href="classSourceSystemQSS.html" target="_top" xlink:title="This is the system representing the (chemical) source term at a point, integrated with the QssIntegra...">
<polygon fill="white" stroke="#666666" points="243.75,-20.75 138.5,-20.75 138.5,0 243.75,0 243.75,-20.75"/>
<text text-anchor="middle" x="191.12" y="-7.25" font-family="FreeSans" font-size="10.00">SourceSystemQSS</text>
</a>
</g>
</g>
<!-- Node1&#45;&gt;Node3 -->
<g id="edge2_Node000001_Node000003" class="edge">
<title>Node1&#45;&gt;Node3</title>
<g id="a_edge2_Node000001_Node000003"><a xlink:title=" ">
<path fill="none" stroke="#63b8ff" d="M145.27,-49.41C156.46,-40.13 169.98,-28.92 179.43,-21.08"/>
<polygon fill="#63b8ff" stroke="#63b8ff" points="143.39,-47.26 137.92,-56.34 147.86,-52.65 143.39,-47.26"/>
</a>
</g>
</g>
</g>
</svg>
