<?xml version="1.0" encoding="UTF-8" standalone="no"?>
<!DOCTYPE svg PUBLIC "-//W3C//DTD SVG 1.1//EN"
 "http://www.w3.org/Graphics/SVG/1.1/DTD/svg11.dtd">
<!-- Generated by graphviz version 8.1.0 (20230707.2238)
 -->
<!-- Title: Integrator Pages: 1 -->
<svg width="244pt" height="86pt"
 viewBox="0.00 0.00 243.62 85.50" xmlns="http://www.w3.org/2000/svg" xmlns:xlink="http://www.w3.org/1999/xlink">
<g id="graph0" class="graph" transform="scale(1 1) rotate(0) translate(4 81.5)">
<title>Integrator</title>
<!-- Node1 -->
<g id="Node000001" class="node">
<title>Node1</title>
<g id="a_Node000001"><a xlink:title="Abstract base class for an ODE integrator that can integrate instances of class ODE.">
<polygon fill="#999999" stroke="#666666" points="145,-77.5 81,-77.5 81,-56.75 145,-56.75 145,-77.5"/>
<text text-anchor="middle" x="113" y="-64" font-family="FreeSans" font-size="10.00">Integrator</text>
</a>
</g>
</g>
<!-- Node2 -->
<g id="Node000002" class="node">
<title>Node2</title>
<g id="a_Node000002"><a xlink:href="classExplicitIntegrator.html" target="_top" xlink:title="Integrates an ODE defined as ydot = f(t,y) using the explicit Euler method.">
<polygon fill="white" stroke="#666666" points="100,-20.75 0,-20.75 0,0 100,0 100,-20.75"/>
<text text-anchor="middle" x="50" y="-7.25" font-family="FreeSans" font-size="10.00">ExplicitIntegrator</text>
</a>
</g>
</g>
<!-- Node1&#45;&gt;Node2 -->
<g id="edge1_Node000001_Node000002" class="edge">
<title>Node1&#45;&gt;Node2</title>
<g id="a_edge1_Node000001_Node000002"><a xlink:title=" ">
<path fill="none" stroke="#63b8ff" d="M93.45,-49.14C82.84,-39.91 70.1,-28.84 61.17,-21.08"/>
<polygon fill="#63b8ff" stroke="#63b8ff" points="90.89,-52.42 100.74,-56.34 95.48,-47.14 90.89,-52.42"/>
</a>
</g>
</g>
<!-- Node3 -->
<g id="Node000003" class="node">
<title>Node3</title>
<g id="a_Node000003"><a xlink:href="classTridiagonalIntegrator.html" target="_top" xlink:title="Integrator using 1st and 2nd order BDF for tridiagonal systems, with matrix inversions done using the...">
<polygon fill="white" stroke="#666666" points="235.62,-20.75 118.38,-20.75 118.38,0 235.62,0 235.62,-20.75"/>
<text text-anchor="middle" x="177" y="-7.25" font-family="FreeSans" font-size="10.00">TridiagonalIntegrator</text>
</a>
</g>
</g>
<!-- Node1&#45;&gt;Node3 -->
<g id="edge2_Node000001_Node000003" class="edge">
<title>Node1&#45;&gt;Node3</title>
<g id="a_edge2_Node000001_Node000003"><a xlink:title=" ">
<path fill="none" stroke="#63b8ff" d="M132.54,-49.41C143.38,-40.13 156.49,-28.92 165.66,-21.08"/>
<polygon fill="#63b8ff" stroke="#63b8ff" points="130.77,-47.18 125.44,-56.34 135.32,-52.5 130.77,-47.18"/>
</a>
</g>
</g>
</g>
</svg>
