<?xml version="1.0" encoding="UTF-8" standalone="no"?>
<!DOCTYPE svg PUBLIC "-//W3C//DTD SVG 1.1//EN"
 "http://www.w3.org/Graphics/SVG/1.1/DTD/svg11.dtd">
<!-- Generated by graphviz version 8.1.0 (20230707.2238)
 -->
<!-- Title: FlameSolver Pages: 1 -->
<svg width="160pt" height="86pt"
 viewBox="0.00 0.00 160.38 85.50" xmlns="http://www.w3.org/2000/svg" xmlns:xlink="http://www.w3.org/1999/xlink">
<g id="graph0" class="graph" transform="scale(1 1) rotate(0) translate(4 81.5)">
<title>FlameSolver</title>
<!-- Node1 -->
<g id="Node000001" class="node">
<title>Node1</title>
<g id="a_Node000001"><a xlink:title="Class which manages the main integration loop.">
<polygon fill="#999999" stroke="#666666" points="113.88,-20.75 36.38,-20.75 36.38,0 113.88,0 113.88,-20.75"/>
<text text-anchor="middle" x="75.12" y="-7.25" font-family="FreeSans" font-size="10.00">FlameSolver</text>
</a>
</g>
</g>
<!-- Node2 -->
<g id="Node000002" class="node">
<title>Node2</title>
<g id="a_Node000002"><a xlink:href="classGridBased.html" target="_top" xlink:title="A &quot;mix&#45;in&quot; class used by classes that need frequent access to grid parameters.">
<polygon fill="white" stroke="#666666" points="66.25,-77.5 0,-77.5 0,-56.75 66.25,-56.75 66.25,-77.5"/>
<text text-anchor="middle" x="33.12" y="-64" font-family="FreeSans" font-size="10.00">GridBased</text>
</a>
</g>
</g>
<!-- Node2&#45;&gt;Node1 -->
<g id="edge1_Node000001_Node000002" class="edge">
<title>Node2&#45;&gt;Node1</title>
<g id="a_edge1_Node000001_Node000002"><a xlink:title=" ">
<path fill="none" stroke="#63b8ff" d="M47.23,-47.74C54.08,-38.81 62.02,-28.45 67.68,-21.08"/>
<polygon fill="#63b8ff" stroke="#63b8ff" points="43.94,-45.27 40.63,-55.34 49.5,-49.53 43.94,-45.27"/>
</a>
</g>
</g>
<!-- Node3 -->
<g id="Node000003" class="node">
<title>Node3</title>
<g id="a_Node000003"><a xlink:href="classSplitSolver.html" target="_top" xlink:title="Implements operator split integration for reacting flow problems.">
<polygon fill="white" stroke="#666666" points="152.38,-77.5 83.88,-77.5 83.88,-56.75 152.38,-56.75 152.38,-77.5"/>
<text text-anchor="middle" x="118.12" y="-64" font-family="FreeSans" font-size="10.00">SplitSolver</text>
</a>
</g>
</g>
<!-- Node3&#45;&gt;Node1 -->
<g id="edge2_Node000001_Node000003" class="edge">
<title>Node3&#45;&gt;Node1</title>
<g id="a_edge2_Node000001_Node000003"><a xlink:title=" ">
<path fill="none" stroke="#63b8ff" d="M103.68,-47.74C96.67,-38.81 88.54,-28.45 82.75,-21.08"/>
<polygon fill="#63b8ff" stroke="#63b8ff" points="101.51,-49.63 110.44,-55.34 107.01,-45.31 101.51,-49.63"/>
</a>
</g>
</g>
</g>
</svg>
