<?xml version="1.0" encoding="UTF-8" standalone="no"?>
<!DOCTYPE svg PUBLIC "-//W3C//DTD SVG 1.1//EN"
 "http://www.w3.org/Graphics/SVG/1.1/DTD/svg11.dtd">
<!-- Generated by graphviz version 2.28.0 (20120425.2022)
 -->
<!-- Title: ConvectionSystemUTW Pages: 1 -->
<svg width="141pt" height="84pt"
 viewBox="0.00 0.00 141.00 84.00" xmlns="http://www.w3.org/2000/svg" xmlns:xlink="http://www.w3.org/1999/xlink">
<g id="graph1" class="graph" transform="scale(1 1) rotate(0) translate(4 80)">
<title>ConvectionSystemUTW</title>
<polygon fill="white" stroke="white" points="-4,5 -4,-80 138,-80 138,5 -4,5"/>
<!-- Node1 -->
<g id="node1" class="node"><title>Node1</title>
<polygon fill="#bfbfbf" stroke="black" points="-0.5,-0.5 -0.5,-19.5 124.5,-19.5 124.5,-0.5 -0.5,-0.5"/>
<text text-anchor="middle" x="62" y="-7.5" font-family="FreeSans" font-size="10.00">ConvectionSystemUTW</text>
</g>
<!-- Node2 -->
<g id="node2" class="node"><title>Node2</title>
<a xlink:href="classsdODE.html" target="_top" xlink:title="Abstract base class for an ODE to be integrated by SundialsCvode.">
<polygon fill="white" stroke="black" points="-0.5,-56.5 -0.5,-75.5 48.5,-75.5 48.5,-56.5 -0.5,-56.5"/>
<text text-anchor="middle" x="24" y="-63.5" font-family="FreeSans" font-size="10.00">sdODE</text>
</a>
</g>
<!-- Node2&#45;&gt;Node1 -->
<g id="edge2" class="edge"><title>Node2&#45;&gt;Node1</title>
<path fill="none" stroke="midnightblue" d="M36.0647,-47.8554C42.6447,-38.5048 50.511,-27.3265 55.8418,-19.7511"/>
<polygon fill="midnightblue" stroke="midnightblue" points="33.1676,-45.8907 30.2749,-56.083 38.8922,-49.9192 33.1676,-45.8907"/>
</g>
<!-- Node3 -->
<g id="node4" class="node"><title>Node3</title>
<a xlink:href="classGridBased.html" target="_top" xlink:title="A &quot;mix&#45;in&quot; class used by classes that need frequent access to grid parameters.">
<polygon fill="white" stroke="black" points="67,-56.5 67,-75.5 133,-75.5 133,-56.5 67,-56.5"/>
<text text-anchor="middle" x="100" y="-63.5" font-family="FreeSans" font-size="10.00">GridBased</text>
</a>
</g>
<!-- Node3&#45;&gt;Node1 -->
<g id="edge4" class="edge"><title>Node3&#45;&gt;Node1</title>
<path fill="none" stroke="midnightblue" d="M87.9353,-47.8554C81.3553,-38.5048 73.489,-27.3265 68.1582,-19.7511"/>
<polygon fill="midnightblue" stroke="midnightblue" points="85.1078,-49.9192 93.7251,-56.083 90.8324,-45.8907 85.1078,-49.9192"/>
</g>
</g>
</svg>
