<?xml version="1.0" encoding="UTF-8" standalone="no"?>
<!DOCTYPE svg PUBLIC "-//W3C//DTD SVG 1.1//EN"
 "http://www.w3.org/Graphics/SVG/1.1/DTD/svg11.dtd">
<!-- Generated by graphviz version 8.1.0 (20230707.2238)
 -->
<!-- Title: ConvectionSystemY Pages: 1 -->
<svg width="140pt" height="86pt"
 viewBox="0.00 0.00 140.25 85.50" xmlns="http://www.w3.org/2000/svg" xmlns:xlink="http://www.w3.org/1999/xlink">
<g id="graph0" class="graph" transform="scale(1 1) rotate(0) translate(4 81.5)">
<title>ConvectionSystemY</title>
<!-- Node1 -->
<g id="Node000001" class="node">
<title>Node1</title>
<g id="a_Node000001"><a xlink:title="System representing the convection equation for a single species.">
<polygon fill="#999999" stroke="#666666" points="117.88,-20.75 4.38,-20.75 4.38,0 117.88,0 117.88,-20.75"/>
<text text-anchor="middle" x="61.12" y="-7.25" font-family="FreeSans" font-size="10.00">ConvectionSystemY</text>
</a>
</g>
</g>
<!-- Node2 -->
<g id="Node000002" class="node">
<title>Node2</title>
<g id="a_Node000002"><a xlink:href="classsdODE.html" target="_top" xlink:title="Abstract base class for an ODE to be integrated by SundialsCvode.">
<polygon fill="white" stroke="#666666" points="48.25,-77.5 0,-77.5 0,-56.75 48.25,-56.75 48.25,-77.5"/>
<text text-anchor="middle" x="24.12" y="-64" font-family="FreeSans" font-size="10.00">sdODE</text>
</a>
</g>
</g>
<!-- Node2&#45;&gt;Node1 -->
<g id="edge1_Node000001_Node000002" class="edge">
<title>Node2&#45;&gt;Node1</title>
<g id="a_edge1_Node000001_Node000002"><a xlink:title=" ">
<path fill="none" stroke="#63b8ff" d="M36.74,-47.46C42.73,-38.59 49.64,-28.37 54.57,-21.08"/>
<polygon fill="#63b8ff" stroke="#63b8ff" points="33.44,-45.09 30.74,-55.34 39.24,-49.01 33.44,-45.09"/>
</a>
</g>
</g>
<!-- Node3 -->
<g id="Node000003" class="node">
<title>Node3</title>
<g id="a_Node000003"><a xlink:href="classGridBased.html" target="_top" xlink:title="A &quot;mix&#45;in&quot; class used by classes that need frequent access to grid parameters.">
<polygon fill="white" stroke="#666666" points="132.25,-77.5 66,-77.5 66,-56.75 132.25,-56.75 132.25,-77.5"/>
<text text-anchor="middle" x="99.12" y="-64" font-family="FreeSans" font-size="10.00">GridBased</text>
</a>
</g>
</g>
<!-- Node3&#45;&gt;Node1 -->
<g id="edge2_Node000001_Node000003" class="edge">
<title>Node3&#45;&gt;Node1</title>
<g id="a_edge2_Node000001_Node000003"><a xlink:title=" ">
<path fill="none" stroke="#63b8ff" d="M86.17,-47.46C80.02,-38.59 72.92,-28.37 67.86,-21.08"/>
<polygon fill="#63b8ff" stroke="#63b8ff" points="83.75,-49.12 92.33,-55.34 89.5,-45.13 83.75,-49.12"/>
</a>
</g>
</g>
</g>
</svg>
