<?xml version="1.0" encoding="UTF-8" standalone="no"?>
<!DOCTYPE svg PUBLIC "-//W3C//DTD SVG 1.1//EN"
 "http://www.w3.org/Graphics/SVG/1.1/DTD/svg11.dtd">
<!-- Generated by graphviz version 2.26.3 (20100126.1600)
 -->
<!-- Title: ConvectionSystemUTW Pages: 1 -->
<svg width="134pt" height="88pt"
 viewBox="0.00 0.00 134.00 88.00" xmlns="http://www.w3.org/2000/svg" xmlns:xlink="http://www.w3.org/1999/xlink">
<g id="graph1" class="graph" transform="scale(1 1) rotate(0) translate(4 84)">
<title>ConvectionSystemUTW</title>
<polygon fill="white" stroke="white" points="-4,5 -4,-84 131,-84 131,5 -4,5"/>
<!-- Node1 -->
<g id="node1" class="node"><title>Node1</title>
<polygon fill="#bfbfbf" stroke="black" points="-0.5,-1 -0.5,-21 118.5,-21 118.5,-1 -0.5,-1"/>
<text text-anchor="middle" x="59" y="-8" font-family="FreeSans" font-size="10.00">ConvectionSystemUTW</text>
</g>
<!-- Node2 -->
<g id="node2" class="node"><title>Node2</title>
<a xlink:href="classsdODE.html" target="_top" xlink:title="Abstract base class for an ODE to be integrated by SundialsCvode. ">
<polygon fill="white" stroke="black" points="-0.5,-59 -0.5,-79 46.5,-79 46.5,-59 -0.5,-59"/>
<text text-anchor="middle" x="23" y="-66" font-family="FreeSans" font-size="10.00">sdODE</text>
</a>
</g>
<!-- Node2&#45;&gt;Node1 -->
<g id="edge2" class="edge"><title>Node2&#45;&gt;Node1</title>
<path fill="none" stroke="midnightblue" d="M34.5516,-50.3891C40.5144,-40.7824 47.565,-29.423 52.5587,-21.3776"/>
<polygon fill="midnightblue" stroke="midnightblue" points="31.5707,-48.555 29.2707,-58.8972 37.5181,-52.2465 31.5707,-48.555"/>
</g>
<!-- Node3 -->
<g id="node4" class="node"><title>Node3</title>
<a xlink:href="classGridBased.html" target="_top" xlink:title="A &quot;mix&#45;in&quot; class used by classes that need frequent access to grid parameters. ">
<polygon fill="white" stroke="black" points="64,-59 64,-79 126,-79 126,-59 64,-59"/>
<text text-anchor="middle" x="95" y="-66" font-family="FreeSans" font-size="10.00">GridBased</text>
</a>
</g>
<!-- Node3&#45;&gt;Node1 -->
<g id="edge4" class="edge"><title>Node3&#45;&gt;Node1</title>
<path fill="none" stroke="midnightblue" d="M83.4484,-50.3891C77.4856,-40.7824 70.435,-29.423 65.4413,-21.3776"/>
<polygon fill="midnightblue" stroke="midnightblue" points="80.4819,-52.2465 88.7293,-58.8972 86.4293,-48.555 80.4819,-52.2465"/>
</g>
</g>
</svg>
