<?xml version="1.0" encoding="UTF-8" standalone="no"?>
<!DOCTYPE svg PUBLIC "-//W3C//DTD SVG 1.1//EN"
 "http://www.w3.org/Graphics/SVG/1.1/DTD/svg11.dtd">
<!-- Generated by graphviz version 2.26.3 (20100126.1600)
 -->
<!-- Title: ScalarFunction Pages: 1 -->
<svg width="206pt" height="88pt"
 viewBox="0.00 0.00 206.00 88.00" xmlns="http://www.w3.org/2000/svg" xmlns:xlink="http://www.w3.org/1999/xlink">
<g id="graph1" class="graph" transform="scale(1 1) rotate(0) translate(4 84)">
<title>ScalarFunction</title>
<polygon fill="white" stroke="white" points="-4,5 -4,-84 203,-84 203,5 -4,5"/>
<!-- Node1 -->
<g id="node1" class="node"><title>Node1</title>
<polygon fill="#bfbfbf" stroke="black" points="63,-59 63,-79 145,-79 145,-59 63,-59"/>
<text text-anchor="middle" x="104" y="-66" font-family="FreeSans" font-size="10.00">ScalarFunction</text>
</g>
<!-- Node2 -->
<g id="node3" class="node"><title>Node2</title>
<a xlink:href="classChebyshevFunction.html" target="_top" xlink:title="Chebyshev polynomial representation of a(t). ">
<polygon fill="white" stroke="black" points="-0.5,-1 -0.5,-21 100.5,-21 100.5,-1 -0.5,-1"/>
<text text-anchor="middle" x="50" y="-8" font-family="FreeSans" font-size="10.00">ChebyshevFunction</text>
</a>
</g>
<!-- Node1&#45;&gt;Node2 -->
<g id="edge2" class="edge"><title>Node1&#45;&gt;Node2</title>
<path fill="none" stroke="midnightblue" d="M87.7704,-51.5682C78.6059,-41.7249 67.4613,-29.7548 59.6619,-21.3776"/>
<polygon fill="midnightblue" stroke="midnightblue" points="85.2181,-53.9632 94.5939,-58.8972 90.3413,-49.1932 85.2181,-53.9632"/>
</g>
<!-- Node3 -->
<g id="node5" class="node"><title>Node3</title>
<a xlink:href="classLinearFunction.html" target="_top" xlink:title="Represents a function that is constant before and after a linear ramp. ">
<polygon fill="white" stroke="black" points="118,-1 118,-21 198,-21 198,-1 118,-1"/>
<text text-anchor="middle" x="158" y="-8" font-family="FreeSans" font-size="10.00">LinearFunction</text>
</a>
</g>
<!-- Node1&#45;&gt;Node3 -->
<g id="edge4" class="edge"><title>Node1&#45;&gt;Node3</title>
<path fill="none" stroke="midnightblue" d="M120.23,-51.5682C129.394,-41.7249 140.539,-29.7548 148.338,-21.3776"/>
<polygon fill="midnightblue" stroke="midnightblue" points="117.659,-49.1932 113.406,-58.8972 122.782,-53.9632 117.659,-49.1932"/>
</g>
</g>
</svg>
