<?xml version="1.0" encoding="UTF-8" standalone="no"?>
<!DOCTYPE svg PUBLIC "-//W3C//DTD SVG 1.1//EN"
 "http://www.w3.org/Graphics/SVG/1.1/DTD/svg11.dtd">
<!-- Generated by graphviz version 2.28.0 (20120425.2022)
 -->
<!-- Title: G Pages: 1 -->
<svg width="393pt" height="84pt"
 viewBox="0.00 0.00 393.00 84.00" xmlns="http://www.w3.org/2000/svg" xmlns:xlink="http://www.w3.org/1999/xlink">
<g id="graph1" class="graph" transform="scale(1 1) rotate(0) translate(4 80)">
<title>G</title>
<polygon fill="white" stroke="white" points="-4,5 -4,-80 390,-80 390,5 -4,5"/>
<!-- Node1 -->
<g id="node1" class="node"><title>Node1</title>
<polygon fill="#bfbfbf" stroke="black" points="172.5,-56.5 172.5,-75.5 221.5,-75.5 221.5,-56.5 172.5,-56.5"/>
<text text-anchor="middle" x="197" y="-63.5" font-family="FreeSans" font-size="10.00">sdODE</text>
</g>
<!-- Node2 -->
<g id="node3" class="node"><title>Node2</title>
<a xlink:href="classConvectionSystemUTW.html" target="_top" xlink:title="ConvectionSystemUTW">
<polygon fill="white" stroke="black" points="-0.5,-0.5 -0.5,-19.5 124.5,-19.5 124.5,-0.5 -0.5,-0.5"/>
<text text-anchor="middle" x="62" y="-7.5" font-family="FreeSans" font-size="10.00">ConvectionSystemUTW</text>
</a>
</g>
<!-- Node1&#45;&gt;Node2 -->
<g id="edge2" class="edge"><title>Node1&#45;&gt;Node2</title>
<path fill="none" stroke="midnightblue" d="M166.094,-52.6377C140.76,-42.504 105.569,-28.4274 83.2911,-19.5164"/>
<polygon fill="midnightblue" stroke="midnightblue" points="165.024,-55.9792 175.609,-56.4435 167.624,-49.4799 165.024,-55.9792"/>
</g>
<!-- Node3 -->
<g id="node5" class="node"><title>Node3</title>
<a xlink:href="classConvectionSystemY.html" target="_top" xlink:title="ConvectionSystemY">
<polygon fill="white" stroke="black" points="143,-0.5 143,-19.5 251,-19.5 251,-0.5 143,-0.5"/>
<text text-anchor="middle" x="197" y="-7.5" font-family="FreeSans" font-size="10.00">ConvectionSystemY</text>
</a>
</g>
<!-- Node1&#45;&gt;Node3 -->
<g id="edge4" class="edge"><title>Node1&#45;&gt;Node3</title>
<path fill="none" stroke="midnightblue" d="M197,-45.8045C197,-36.9102 197,-26.7798 197,-19.7511"/>
<polygon fill="midnightblue" stroke="midnightblue" points="193.5,-46.083 197,-56.083 200.5,-46.083 193.5,-46.083"/>
</g>
<!-- Node4 -->
<g id="node7" class="node"><title>Node4</title>
<a xlink:href="classSourceSystemCVODE.html" target="_top" xlink:title="SourceSystemCVODE">
<polygon fill="white" stroke="black" points="269,-0.5 269,-19.5 385,-19.5 385,-0.5 269,-0.5"/>
<text text-anchor="middle" x="327" y="-7.5" font-family="FreeSans" font-size="10.00">SourceSystemCVODE</text>
</a>
</g>
<!-- Node1&#45;&gt;Node4 -->
<g id="edge6" class="edge"><title>Node1&#45;&gt;Node4</title>
<path fill="none" stroke="#8b1a1a" d="M227.085,-52.503C251.457,-42.3795 285.14,-28.388 306.497,-19.5164"/>
<polygon fill="#8b1a1a" stroke="#8b1a1a" points="225.491,-49.3752 217.599,-56.4435 228.177,-55.8397 225.491,-49.3752"/>
</g>
</g>
</svg>
