<?xml version="1.0" encoding="UTF-8" standalone="no"?>
<!DOCTYPE svg PUBLIC "-//W3C//DTD SVG 1.1//EN"
 "http://www.w3.org/Graphics/SVG/1.1/DTD/svg11.dtd">
<!-- Generated by graphviz version 2.28.0 (20120425.2022)
 -->
<!-- Title: G Pages: 1 -->
<svg width="246pt" height="84pt"
 viewBox="0.00 0.00 246.00 84.00" xmlns="http://www.w3.org/2000/svg" xmlns:xlink="http://www.w3.org/1999/xlink">
<g id="graph1" class="graph" transform="scale(1 1) rotate(0) translate(4 80)">
<title>G</title>
<polygon fill="white" stroke="white" points="-4,5 -4,-80 243,-80 243,5 -4,5"/>
<!-- Node1 -->
<g id="node1" class="node"><title>Node1</title>
<polygon fill="#bfbfbf" stroke="black" points="80.5,-56.5 80.5,-75.5 163.5,-75.5 163.5,-56.5 80.5,-56.5"/>
<text text-anchor="middle" x="122" y="-63.5" font-family="FreeSans" font-size="10.00">SourceSystem</text>
</g>
<!-- Node2 -->
<g id="node3" class="node"><title>Node2</title>
<a xlink:href="classSourceSystemCVODE.html" target="_top" xlink:title="Represents a system of equations used to integrate the (chemical) source term at a single point using...">
<polygon fill="white" stroke="black" points="0,-0.5 0,-19.5 116,-19.5 116,-0.5 0,-0.5"/>
<text text-anchor="middle" x="58" y="-7.5" font-family="FreeSans" font-size="10.00">SourceSystemCVODE</text>
</a>
</g>
<!-- Node1&#45;&gt;Node2 -->
<g id="edge2" class="edge"><title>Node1&#45;&gt;Node2</title>
<path fill="none" stroke="midnightblue" d="M104.009,-49.8197C92.5424,-40.1452 78.0867,-27.9481 68.4698,-19.8339"/>
<polygon fill="midnightblue" stroke="midnightblue" points="101.817,-52.5502 111.717,-56.324 106.331,-47.2002 101.817,-52.5502"/>
</g>
<!-- Node3 -->
<g id="node5" class="node"><title>Node3</title>
<a xlink:href="classSourceSystemQSS.html" target="_top" xlink:title="This is the system representing the (chemical) source term at a point, integrated with the QSSIntegra...">
<polygon fill="white" stroke="black" points="134,-0.5 134,-19.5 238,-19.5 238,-0.5 134,-0.5"/>
<text text-anchor="middle" x="186" y="-7.5" font-family="FreeSans" font-size="10.00">SourceSystemQSS</text>
</a>
</g>
<!-- Node1&#45;&gt;Node3 -->
<g id="edge4" class="edge"><title>Node1&#45;&gt;Node3</title>
<path fill="none" stroke="midnightblue" d="M139.991,-49.8197C151.458,-40.1452 165.913,-27.9481 175.53,-19.8339"/>
<polygon fill="midnightblue" stroke="midnightblue" points="137.669,-47.2002 132.283,-56.324 142.183,-52.5502 137.669,-47.2002"/>
</g>
</g>
</svg>
