<?xml version="1.0" encoding="UTF-8" standalone="no"?>
<!DOCTYPE svg PUBLIC "-//W3C//DTD SVG 1.1//EN"
 "http://www.w3.org/Graphics/SVG/1.1/DTD/svg11.dtd">
<!-- Generated by graphviz version 8.1.0 (20230707.2238)
 -->
<!-- Title: ConvectionSystemUTW Pages: 1 -->
<svg width="145pt" height="86pt"
 viewBox="0.00 0.00 144.50 85.50" xmlns="http://www.w3.org/2000/svg" xmlns:xlink="http://www.w3.org/1999/xlink">
<g id="graph0" class="graph" transform="scale(1 1) rotate(0) translate(4 81.5)">
<title>ConvectionSystemUTW</title>
<!-- Node1 -->
<g id="Node000001" class="node">
<title>Node1</title>
<g id="a_Node000001"><a xlink:title="System representing the coupled convection equations for U, T, and Wmx.">
<polygon fill="#999999" stroke="#666666" points="130.75,-20.75 0,-20.75 0,0 130.75,0 130.75,-20.75"/>
<text text-anchor="middle" x="65.38" y="-7.25" font-family="FreeSans" font-size="10.00">ConvectionSystemUTW</text>
</a>
</g>
</g>
<!-- Node2 -->
<g id="Node000002" class="node">
<title>Node2</title>
<g id="a_Node000002"><a xlink:href="classsdODE.html" target="_top" xlink:title="Abstract base class for an ODE to be integrated by SundialsCvode.">
<polygon fill="white" stroke="#666666" points="52.5,-77.5 4.25,-77.5 4.25,-56.75 52.5,-56.75 52.5,-77.5"/>
<text text-anchor="middle" x="28.38" y="-64" font-family="FreeSans" font-size="10.00">sdODE</text>
</a>
</g>
</g>
<!-- Node2&#45;&gt;Node1 -->
<g id="edge1_Node000001_Node000002" class="edge">
<title>Node2&#45;&gt;Node1</title>
<g id="a_edge1_Node000001_Node000002"><a xlink:title=" ">
<path fill="none" stroke="#63b8ff" d="M40.99,-47.46C46.98,-38.59 53.89,-28.37 58.82,-21.08"/>
<polygon fill="#63b8ff" stroke="#63b8ff" points="37.69,-45.09 34.99,-55.34 43.49,-49.01 37.69,-45.09"/>
</a>
</g>
</g>
<!-- Node3 -->
<g id="Node000003" class="node">
<title>Node3</title>
<g id="a_Node000003"><a xlink:href="classGridBased.html" target="_top" xlink:title="A &quot;mix&#45;in&quot; class used by classes that need frequent access to grid parameters.">
<polygon fill="white" stroke="#666666" points="136.5,-77.5 70.25,-77.5 70.25,-56.75 136.5,-56.75 136.5,-77.5"/>
<text text-anchor="middle" x="103.38" y="-64" font-family="FreeSans" font-size="10.00">GridBased</text>
</a>
</g>
</g>
<!-- Node3&#45;&gt;Node1 -->
<g id="edge2_Node000001_Node000003" class="edge">
<title>Node3&#45;&gt;Node1</title>
<g id="a_edge2_Node000001_Node000003"><a xlink:title=" ">
<path fill="none" stroke="#63b8ff" d="M90.42,-47.46C84.27,-38.59 77.17,-28.37 72.11,-21.08"/>
<polygon fill="#63b8ff" stroke="#63b8ff" points="88,-49.12 96.58,-55.34 93.75,-45.13 88,-49.12"/>
</a>
</g>
</g>
</g>
</svg>
