<?xml version="1.0" encoding="UTF-8" standalone="no"?>
<!DOCTYPE svg PUBLIC "-//W3C//DTD SVG 1.1//EN"
 "http://www.w3.org/Graphics/SVG/1.1/DTD/svg11.dtd">
<!-- Generated by graphviz version 2.43.0 (0)
 -->
<!-- Title: ConvectionSystemY Pages: 1 -->
<svg width="136pt" height="82pt"
 viewBox="0.00 0.00 135.50 82.00" xmlns="http://www.w3.org/2000/svg" xmlns:xlink="http://www.w3.org/1999/xlink">
<g id="graph0" class="graph" transform="scale(1 1) rotate(0) translate(4 78)">
<title>ConvectionSystemY</title>
<!-- Node1 -->
<g id="Node000001" class="node">
<title>Node1</title>
<g id="a_Node000001"><a xlink:title="System representing the convection equation for a single species.">
<polygon fill="#999999" stroke="#666666" points="112,-19 7,-19 7,0 112,0 112,-19"/>
<text text-anchor="middle" x="59.5" y="-7" font-family="FreeSans" font-size="10.00">ConvectionSystemY</text>
</a>
</g>
</g>
<!-- Node2 -->
<g id="Node000002" class="node">
<title>Node2</title>
<g id="a_Node000002"><a xlink:href="classsdODE.html" target="_top" xlink:title="Abstract base class for an ODE to be integrated by SundialsCvode.">
<polygon fill="white" stroke="#666666" points="47,-74 0,-74 0,-55 47,-55 47,-74"/>
<text text-anchor="middle" x="23.5" y="-62" font-family="FreeSans" font-size="10.00">sdODE</text>
</a>
</g>
</g>
<!-- Node2&#45;&gt;Node1 -->
<g id="edge1_Node000001_Node000002" class="edge">
<title>Node2&#45;&gt;Node1</title>
<g id="a_edge1_Node000001_Node000002"><a xlink:title=" ">
<path fill="none" stroke="#63b8ff" d="M35.12,-46.39C41.32,-37.27 48.67,-26.45 53.67,-19.09"/>
<polygon fill="#63b8ff" stroke="#63b8ff" points="32.17,-44.51 29.44,-54.75 37.96,-48.44 32.17,-44.51"/>
</a>
</g>
</g>
<!-- Node3 -->
<g id="Node000003" class="node">
<title>Node3</title>
<g id="a_Node000003"><a xlink:href="classGridBased.html" target="_top" xlink:title="A &quot;mix&#45;in&quot; class used by classes that need frequent access to grid parameters.">
<polygon fill="white" stroke="#666666" points="127.5,-74 65.5,-74 65.5,-55 127.5,-55 127.5,-74"/>
<text text-anchor="middle" x="96.5" y="-62" font-family="FreeSans" font-size="10.00">GridBased</text>
</a>
</g>
</g>
<!-- Node3&#45;&gt;Node1 -->
<g id="edge2_Node000001_Node000003" class="edge">
<title>Node3&#45;&gt;Node1</title>
<g id="a_edge2_Node000001_Node000003"><a xlink:title=" ">
<path fill="none" stroke="#63b8ff" d="M84.55,-46.39C78.19,-37.27 70.63,-26.45 65.5,-19.09"/>
<polygon fill="#63b8ff" stroke="#63b8ff" points="81.8,-48.55 90.39,-54.75 87.54,-44.55 81.8,-48.55"/>
</a>
</g>
</g>
</g>
</svg>
