<?xml version="1.0" encoding="UTF-8" standalone="no"?>
<!DOCTYPE svg PUBLIC "-//W3C//DTD SVG 1.1//EN"
 "http://www.w3.org/Graphics/SVG/1.1/DTD/svg11.dtd">
<!-- Generated by graphviz version 2.38.0 (20140413.2041)
 -->
<!-- Title: ConvectionSystemY Pages: 1 -->
<svg width="136pt" height="84pt"
 viewBox="0.00 0.00 135.50 84.00" xmlns="http://www.w3.org/2000/svg" xmlns:xlink="http://www.w3.org/1999/xlink">
<g id="graph0" class="graph" transform="scale(1 1) rotate(0) translate(4 80)">
<title>ConvectionSystemY</title>
<polygon fill="white" stroke="none" points="-4,4 -4,-80 131.5,-80 131.5,4 -4,4"/>
<!-- Node1 -->
<g id="node1" class="node"><title>Node1</title>
<polygon fill="#bfbfbf" stroke="black" points="7.5,-0.5 7.5,-19.5 111.5,-19.5 111.5,-0.5 7.5,-0.5"/>
<text text-anchor="middle" x="59.5" y="-7.5" font-family="FreeSans" font-size="10.00">ConvectionSystemY</text>
</g>
<!-- Node2 -->
<g id="node2" class="node"><title>Node2</title>
<g id="a_node2"><a xlink:href="classsdODE.html" target="_top" xlink:title="Abstract base class for an ODE to be integrated by SundialsCvode. ">
<polygon fill="white" stroke="black" points="0,-56.5 0,-75.5 47,-75.5 47,-56.5 0,-56.5"/>
<text text-anchor="middle" x="23.5" y="-63.5" font-family="FreeSans" font-size="10.00">sdODE</text>
</a>
</g>
</g>
<!-- Node2&#45;&gt;Node1 -->
<g id="edge1" class="edge"><title>Node2&#45;&gt;Node1</title>
<path fill="none" stroke="midnightblue" d="M35.1229,-47.5656C41.3168,-38.2747 48.6677,-27.2484 53.6659,-19.7511"/>
<polygon fill="midnightblue" stroke="midnightblue" points="32.0795,-45.821 29.4447,-56.083 37.9039,-49.7039 32.0795,-45.821"/>
</g>
<!-- Node3 -->
<g id="node3" class="node"><title>Node3</title>
<g id="a_node3"><a xlink:href="classGridBased.html" target="_top" xlink:title="A &quot;mix&#45;in&quot; class used by classes that need frequent access to grid parameters. ">
<polygon fill="white" stroke="black" points="65.5,-56.5 65.5,-75.5 127.5,-75.5 127.5,-56.5 65.5,-56.5"/>
<text text-anchor="middle" x="96.5" y="-63.5" font-family="FreeSans" font-size="10.00">GridBased</text>
</a>
</g>
</g>
<!-- Node3&#45;&gt;Node1 -->
<g id="edge2" class="edge"><title>Node3&#45;&gt;Node1</title>
<path fill="none" stroke="midnightblue" d="M84.5542,-47.5656C78.1883,-38.2747 70.6332,-27.2484 65.4961,-19.7511"/>
<polygon fill="midnightblue" stroke="midnightblue" points="81.8506,-49.812 90.3902,-56.083 87.6251,-45.8553 81.8506,-49.812"/>
</g>
</g>
</svg>
