<?xml version="1.0" encoding="UTF-8" standalone="no"?>
<!DOCTYPE svg PUBLIC "-//W3C//DTD SVG 1.1//EN"
 "http://www.w3.org/Graphics/SVG/1.1/DTD/svg11.dtd">
<!-- Generated by graphviz version 8.1.0 (20230707.2238)
 -->
<!-- Title: SourceSystemQSS Pages: 1 -->
<svg width="166pt" height="86pt"
 viewBox="0.00 0.00 165.62 85.50" xmlns="http://www.w3.org/2000/svg" xmlns:xlink="http://www.w3.org/1999/xlink">
<g id="graph0" class="graph" transform="scale(1 1) rotate(0) translate(4 81.5)">
<title>SourceSystemQSS</title>
<!-- Node1 -->
<g id="Node000001" class="node">
<title>Node1</title>
<g id="a_Node000001"><a xlink:title="This is the system representing the (chemical) source term at a point, integrated with the QssIntegra...">
<polygon fill="#999999" stroke="#666666" points="139.5,-20.75 34.25,-20.75 34.25,0 139.5,0 139.5,-20.75"/>
<text text-anchor="middle" x="86.88" y="-7.25" font-family="FreeSans" font-size="10.00">SourceSystemQSS</text>
</a>
</g>
</g>
<!-- Node2 -->
<g id="Node000002" class="node">
<title>Node2</title>
<g id="a_Node000002"><a xlink:href="classSourceSystem.html" target="_top" xlink:title="Base class used to integrate the chemical source term at a single point.">
<polygon fill="white" stroke="#666666" points="85.75,-77.5 0,-77.5 0,-56.75 85.75,-56.75 85.75,-77.5"/>
<text text-anchor="middle" x="42.88" y="-64" font-family="FreeSans" font-size="10.00">SourceSystem</text>
</a>
</g>
</g>
<!-- Node2&#45;&gt;Node1 -->
<g id="edge1_Node000001_Node000002" class="edge">
<title>Node2&#45;&gt;Node1</title>
<g id="a_edge1_Node000001_Node000002"><a xlink:title=" ">
<path fill="none" stroke="#63b8ff" d="M57.42,-48.02C64.65,-39.03 73.09,-28.53 79.08,-21.08"/>
<polygon fill="#63b8ff" stroke="#63b8ff" points="54.28,-45.35 50.74,-55.34 59.73,-49.73 54.28,-45.35"/>
</a>
</g>
</g>
<!-- Node3 -->
<g id="Node000003" class="node">
<title>Node3</title>
<g id="a_Node000003"><a xlink:href="classQssOde.html" target="_top" xlink:title="An ODE to be solved by QssIntegrator.">
<polygon fill="white" stroke="#666666" points="157.62,-77.5 104.12,-77.5 104.12,-56.75 157.62,-56.75 157.62,-77.5"/>
<text text-anchor="middle" x="130.88" y="-64" font-family="FreeSans" font-size="10.00">QssOde</text>
</a>
</g>
</g>
<!-- Node3&#45;&gt;Node1 -->
<g id="edge2_Node000001_Node000003" class="edge">
<title>Node3&#45;&gt;Node1</title>
<g id="a_edge2_Node000001_Node000003"><a xlink:title=" ">
<path fill="none" stroke="#8b1a1a" d="M116.33,-48.02C109.1,-39.03 100.66,-28.53 94.67,-21.08"/>
<polygon fill="#8b1a1a" stroke="#8b1a1a" points="114.02,-49.73 123.01,-55.34 119.47,-45.35 114.02,-49.73"/>
</a>
</g>
</g>
</g>
</svg>
