<?xml version="1.0" encoding="UTF-8" standalone="no"?>
<!DOCTYPE svg PUBLIC "-//W3C//DTD SVG 1.1//EN"
 "http://www.w3.org/Graphics/SVG/1.1/DTD/svg11.dtd">
<!-- Generated by graphviz version 2.28.0 (20120425.2022)
 -->
<!-- Title: G Pages: 1 -->
<svg width="181pt" height="84pt"
 viewBox="0.00 0.00 181.00 84.00" xmlns="http://www.w3.org/2000/svg" xmlns:xlink="http://www.w3.org/1999/xlink">
<g id="graph1" class="graph" transform="scale(1 1) rotate(0) translate(4 80)">
<title>G</title>
<polygon fill="white" stroke="white" points="-4,5 -4,-80 178,-80 178,5 -4,5"/>
<!-- Node1 -->
<g id="node1" class="node"><title>Node1</title>
<polygon fill="#bfbfbf" stroke="black" points="47.5,-0.5 47.5,-19.5 136.5,-19.5 136.5,-0.5 47.5,-0.5"/>
<text text-anchor="middle" x="92" y="-7.5" font-family="FreeSans" font-size="10.00">DiffusionSystem</text>
</g>
<!-- Node2 -->
<g id="node2" class="node"><title>Node2</title>
<a xlink:href="classTridiagonalODE.html" target="_top" xlink:title="A system of linear ODEs represented by a tridiagonal matrix.">
<polygon fill="white" stroke="black" points="-0.5,-56.5 -0.5,-75.5 88.5,-75.5 88.5,-56.5 -0.5,-56.5"/>
<text text-anchor="middle" x="44" y="-63.5" font-family="FreeSans" font-size="10.00">TridiagonalODE</text>
</a>
</g>
<!-- Node2&#45;&gt;Node1 -->
<g id="edge2" class="edge"><title>Node2&#45;&gt;Node1</title>
<path fill="none" stroke="midnightblue" d="M58.7277,-48.4314C67.1401,-38.9673 77.3487,-27.4827 84.2213,-19.7511"/>
<polygon fill="midnightblue" stroke="midnightblue" points="55.954,-46.2836 51.9262,-56.083 61.1858,-50.9342 55.954,-46.2836"/>
</g>
<!-- Node3 -->
<g id="node4" class="node"><title>Node3</title>
<a xlink:href="classGridBased.html" target="_top" xlink:title="GridBased">
<polygon fill="white" stroke="black" points="107,-56.5 107,-75.5 173,-75.5 173,-56.5 107,-56.5"/>
<text text-anchor="middle" x="140" y="-63.5" font-family="FreeSans" font-size="10.00">GridBased</text>
</a>
</g>
<!-- Node3&#45;&gt;Node1 -->
<g id="edge4" class="edge"><title>Node3&#45;&gt;Node1</title>
<path fill="none" stroke="midnightblue" d="M125.272,-48.4314C116.86,-38.9673 106.651,-27.4827 99.7787,-19.7511"/>
<polygon fill="midnightblue" stroke="midnightblue" points="122.814,-50.9342 132.074,-56.083 128.046,-46.2836 122.814,-50.9342"/>
</g>
</g>
</svg>
