<?xml version="1.0" encoding="UTF-8" standalone="no"?>
<!DOCTYPE svg PUBLIC "-//W3C//DTD SVG 1.1//EN"
 "http://www.w3.org/Graphics/SVG/1.1/DTD/svg11.dtd">
<!-- Generated by graphviz version 2.28.0 (20120425.2022)
 -->
<!-- Title: GridBased Pages: 1 -->
<svg width="236pt" height="180pt"
 viewBox="0.00 0.00 236.00 180.00" xmlns="http://www.w3.org/2000/svg" xmlns:xlink="http://www.w3.org/1999/xlink">
<g id="graph1" class="graph" transform="scale(1 1) rotate(0) translate(4 176)">
<title>GridBased</title>
<polygon fill="white" stroke="white" points="-4,5 -4,-176 233,-176 233,5 -4,5"/>
<!-- Node1 -->
<g id="node1" class="node"><title>Node1</title>
<polygon fill="#bfbfbf" stroke="black" points="0,-76.5 0,-95.5 66,-95.5 66,-76.5 0,-76.5"/>
<text text-anchor="middle" x="33" y="-83.5" font-family="FreeSans" font-size="10.00">GridBased</text>
</g>
<!-- Node2 -->
<g id="node3" class="node"><title>Node2</title>
<a xlink:href="classConvectionSystemSplit.html" target="_top" xlink:title="Composite system representing the Convection term for all components.">
<polygon fill="white" stroke="black" points="105,-152.5 105,-171.5 225,-171.5 225,-152.5 105,-152.5"/>
<text text-anchor="middle" x="165" y="-159.5" font-family="FreeSans" font-size="10.00">ConvectionSystemSplit</text>
</a>
</g>
<!-- Node1&#45;&gt;Node2 -->
<g id="edge2" class="edge"><title>Node1&#45;&gt;Node2</title>
<path fill="none" stroke="midnightblue" d="M50.4393,-103.081C63.4027,-115.68 82.4938,-132.407 102,-143 108.925,-146.761 116.699,-149.886 124.339,-152.441"/>
<polygon fill="midnightblue" stroke="midnightblue" points="52.7595,-100.451 43.2108,-95.8609 47.8127,-105.404 52.7595,-100.451"/>
</g>
<!-- Node3 -->
<g id="node5" class="node"><title>Node3</title>
<a xlink:href="classConvectionSystemUTW.html" target="_top" xlink:title="System representing the coupled convection equations for U, T, and Wmx.">
<polygon fill="white" stroke="black" points="102.5,-114.5 102.5,-133.5 227.5,-133.5 227.5,-114.5 102.5,-114.5"/>
<text text-anchor="middle" x="165" y="-121.5" font-family="FreeSans" font-size="10.00">ConvectionSystemUTW</text>
</a>
</g>
<!-- Node1&#45;&gt;Node3 -->
<g id="edge4" class="edge"><title>Node1&#45;&gt;Node3</title>
<path fill="none" stroke="midnightblue" d="M75.8039,-98.2196C93.7888,-103.477 114.501,-109.531 131.332,-114.451"/>
<polygon fill="midnightblue" stroke="midnightblue" points="76.7152,-94.8396 66.1348,-95.3933 74.7512,-101.558 76.7152,-94.8396"/>
</g>
<!-- Node4 -->
<g id="node7" class="node"><title>Node4</title>
<a xlink:href="classConvectionSystemY.html" target="_top" xlink:title="System representing the convection equation for a single species.">
<polygon fill="white" stroke="black" points="111,-76.5 111,-95.5 219,-95.5 219,-76.5 111,-76.5"/>
<text text-anchor="middle" x="165" y="-83.5" font-family="FreeSans" font-size="10.00">ConvectionSystemY</text>
</a>
</g>
<!-- Node1&#45;&gt;Node4 -->
<g id="edge6" class="edge"><title>Node1&#45;&gt;Node4</title>
<path fill="none" stroke="midnightblue" d="M76.3725,-86C87.4207,-86 99.4654,-86 110.989,-86"/>
<polygon fill="midnightblue" stroke="midnightblue" points="76.1349,-82.5001 66.1348,-86 76.1348,-89.5001 76.1349,-82.5001"/>
</g>
<!-- Node5 -->
<g id="node9" class="node"><title>Node5</title>
<a xlink:href="classDiffusionSystem.html" target="_top" xlink:title="System representing diffusion of a single solution component.">
<polygon fill="white" stroke="black" points="120.5,-38.5 120.5,-57.5 209.5,-57.5 209.5,-38.5 120.5,-38.5"/>
<text text-anchor="middle" x="165" y="-45.5" font-family="FreeSans" font-size="10.00">DiffusionSystem</text>
</a>
</g>
<!-- Node1&#45;&gt;Node5 -->
<g id="edge8" class="edge"><title>Node1&#45;&gt;Node5</title>
<path fill="none" stroke="midnightblue" d="M75.8039,-73.7804C93.7888,-68.5233 114.501,-62.469 131.332,-57.5491"/>
<polygon fill="midnightblue" stroke="midnightblue" points="74.7512,-70.4416 66.1348,-76.6067 76.7152,-77.1604 74.7512,-70.4416"/>
</g>
<!-- Node6 -->
<g id="node11" class="node"><title>Node6</title>
<a xlink:href="classFlameSolver.html" target="_top" xlink:title="Class which manages the main integration loop.">
<polygon fill="white" stroke="black" points="128,-0.5 128,-19.5 202,-19.5 202,-0.5 128,-0.5"/>
<text text-anchor="middle" x="165" y="-7.5" font-family="FreeSans" font-size="10.00">FlameSolver</text>
</a>
</g>
<!-- Node1&#45;&gt;Node6 -->
<g id="edge10" class="edge"><title>Node1&#45;&gt;Node6</title>
<path fill="none" stroke="midnightblue" d="M50.4393,-68.9192C63.4027,-56.3197 82.4938,-39.5929 102,-29 110.014,-24.6482 119.163,-21.1481 127.927,-18.3965"/>
<polygon fill="midnightblue" stroke="midnightblue" points="47.8127,-66.5959 43.2108,-76.1391 52.7595,-71.5486 47.8127,-66.5959"/>
</g>
</g>
</svg>
