<?xml version="1.0" encoding="UTF-8" standalone="no"?>
<!DOCTYPE svg PUBLIC "-//W3C//DTD SVG 1.1//EN"
 "http://www.w3.org/Graphics/SVG/1.1/DTD/svg11.dtd">
<!-- Generated by graphviz version 2.38.0 (20140413.2041)
 -->
<!-- Title: SourceSystemQSS Pages: 1 -->
<svg width="158pt" height="84pt"
 viewBox="0.00 0.00 157.50 84.00" xmlns="http://www.w3.org/2000/svg" xmlns:xlink="http://www.w3.org/1999/xlink">
<g id="graph0" class="graph" transform="scale(1 1) rotate(0) translate(4 80)">
<title>SourceSystemQSS</title>
<polygon fill="white" stroke="none" points="-4,4 -4,-80 153.5,-80 153.5,4 -4,4"/>
<!-- Node1 -->
<g id="node1" class="node"><title>Node1</title>
<polygon fill="#bfbfbf" stroke="black" points="31.5,-0.5 31.5,-19.5 132.5,-19.5 132.5,-0.5 31.5,-0.5"/>
<text text-anchor="middle" x="82" y="-7.5" font-family="FreeSans" font-size="10.00">SourceSystemQSS</text>
</g>
<!-- Node2 -->
<g id="node2" class="node"><title>Node2</title>
<g id="a_node2"><a xlink:href="classSourceSystem.html" target="_top" xlink:title="Base class used to integrate the chemical source term at a single point. ">
<polygon fill="white" stroke="black" points="0,-56.5 0,-75.5 80,-75.5 80,-56.5 0,-56.5"/>
<text text-anchor="middle" x="40" y="-63.5" font-family="FreeSans" font-size="10.00">SourceSystem</text>
</a>
</g>
</g>
<!-- Node2&#45;&gt;Node1 -->
<g id="edge1" class="edge"><title>Node2&#45;&gt;Node1</title>
<path fill="none" stroke="midnightblue" d="M53.1102,-48.144C60.4278,-38.7357 69.2409,-27.4046 75.1936,-19.7511"/>
<polygon fill="midnightblue" stroke="midnightblue" points="50.3122,-46.0406 46.9354,-56.083 55.8376,-50.3383 50.3122,-46.0406"/>
</g>
<!-- Node3 -->
<g id="node3" class="node"><title>Node3</title>
<g id="a_node3"><a xlink:href="classQssOde.html" target="_top" xlink:title="An ODE to be solved by QssIntegrator. ">
<polygon fill="white" stroke="black" points="98.5,-56.5 98.5,-75.5 149.5,-75.5 149.5,-56.5 98.5,-56.5"/>
<text text-anchor="middle" x="124" y="-63.5" font-family="FreeSans" font-size="10.00">QssOde</text>
</a>
</g>
</g>
<!-- Node3&#45;&gt;Node1 -->
<g id="edge2" class="edge"><title>Node3&#45;&gt;Node1</title>
<path fill="none" stroke="#8b1a1a" d="M110.89,-48.144C103.572,-38.7357 94.7591,-27.4046 88.8064,-19.7511"/>
<polygon fill="#8b1a1a" stroke="#8b1a1a" points="108.162,-50.3383 117.065,-56.083 113.688,-46.0406 108.162,-50.3383"/>
</g>
</g>
</svg>
