<?xml version="1.0" encoding="UTF-8" standalone="no"?>
<!DOCTYPE svg PUBLIC "-//W3C//DTD SVG 1.1//EN"
 "http://www.w3.org/Graphics/SVG/1.1/DTD/svg11.dtd">
<!-- Generated by graphviz version 8.1.0 (20230707.2238)
 -->
<!-- Title: src/config.h Pages: 1 -->
<svg width="1042pt" height="313pt"
 viewBox="0.00 0.00 1041.58 312.50" xmlns="http://www.w3.org/2000/svg" xmlns:xlink="http://www.w3.org/1999/xlink">
<g id="graph0" class="graph" transform="scale(1 1) rotate(0) translate(4 308.5)">
<title>src/config.h</title>
<!-- Node1 -->
<g id="Node000001" class="node">
<title>Node1</title>
<g id="a_Node000001"><a xlink:title=" ">
<polygon fill="#999999" stroke="#666666" points="548,-304.5 476.5,-304.5 476.5,-283.75 548,-283.75 548,-304.5"/>
<text text-anchor="middle" x="512.25" y="-291" font-family="FreeSans" font-size="10.00">src/config.h</text>
</a>
</g>
</g>
<!-- Node2 -->
<g id="Node000002" class="node">
<title>Node2</title>
<g id="a_Node000002"><a xlink:href="chemistry0d_8h.html" target="_top" xlink:title=" ">
<polygon fill="white" stroke="#666666" points="563.75,-134.25 460.75,-134.25 460.75,-113.5 563.75,-113.5 563.75,-134.25"/>
<text text-anchor="middle" x="512.25" y="-120.75" font-family="FreeSans" font-size="10.00">src/chemistry0d.h</text>
</a>
</g>
</g>
<!-- Node1&#45;&gt;Node2 -->
<g id="edge1_Node000001_Node000002" class="edge">
<title>Node1&#45;&gt;Node2</title>
<g id="a_edge1_Node000001_Node000002"><a xlink:title=" ">
<path fill="none" stroke="#63b8ff" d="M512.25,-272.88C512.25,-236.56 512.25,-161.58 512.25,-134.72"/>
<polygon fill="#63b8ff" stroke="#63b8ff" points="508.75,-272.6 512.25,-282.6 515.75,-272.6 508.75,-272.6"/>
</a>
</g>
</g>
<!-- Node8 -->
<g id="Node000008" class="node">
<title>Node8</title>
<g id="a_Node000008"><a xlink:href="sundialsUtils_8h.html" target="_top" xlink:title=" ">
<polygon fill="white" stroke="#666666" points="358.88,-191 253.62,-191 253.62,-170.25 358.88,-170.25 358.88,-191"/>
<text text-anchor="middle" x="306.25" y="-177.5" font-family="FreeSans" font-size="10.00">src/sundialsUtils.h</text>
</a>
</g>
</g>
<!-- Node1&#45;&gt;Node8 -->
<g id="edge7_Node000001_Node000008" class="edge">
<title>Node1&#45;&gt;Node8</title>
<g id="a_edge7_Node000001_Node000008"><a xlink:title=" ">
<path fill="none" stroke="#63b8ff" d="M484.82,-278.28C442,-255.1 360.43,-210.95 324.28,-191.38"/>
<polygon fill="#63b8ff" stroke="#63b8ff" points="482.87,-281.74 493.33,-283.43 486.2,-275.59 482.87,-281.74"/>
</a>
</g>
</g>
<!-- Node13 -->
<g id="Node000013" class="node">
<title>Node13</title>
<g id="a_Node000013"><a xlink:href="tbb__tools_8h.html" target="_top" xlink:title=" ">
<polygon fill="white" stroke="#666666" points="682.88,-247.75 595.62,-247.75 595.62,-227 682.88,-227 682.88,-247.75"/>
<text text-anchor="middle" x="639.25" y="-234.25" font-family="FreeSans" font-size="10.00">src/tbb_tools.h</text>
</a>
</g>
</g>
<!-- Node1&#45;&gt;Node13 -->
<g id="edge17_Node000001_Node000013" class="edge">
<title>Node1&#45;&gt;Node13</title>
<g id="a_edge17_Node000001_Node000013"><a xlink:title=" ">
<path fill="none" stroke="#63b8ff" d="M544.77,-279.11C567.31,-269.39 596.76,-256.69 616.74,-248.08"/>
<polygon fill="#63b8ff" stroke="#63b8ff" points="543.75,-276.16 535.96,-283.34 546.52,-282.59 543.75,-276.16"/>
</a>
</g>
</g>
<!-- Node3 -->
<g id="Node000003" class="node">
<title>Node3</title>
<g id="a_Node000003"><a xlink:href="chemistry0d_8cpp.html" target="_top" xlink:title=" ">
<polygon fill="white" stroke="#666666" points="562.38,-77.5 448.12,-77.5 448.12,-56.75 562.38,-56.75 562.38,-77.5"/>
<text text-anchor="middle" x="505.25" y="-64" font-family="FreeSans" font-size="10.00">src/chemistry0d.cpp</text>
</a>
</g>
</g>
<!-- Node2&#45;&gt;Node3 -->
<g id="edge2_Node000002_Node000003" class="edge">
<title>Node2&#45;&gt;Node3</title>
<g id="a_edge2_Node000002_Node000003"><a xlink:title=" ">
<path fill="none" stroke="#63b8ff" d="M509.61,-102.21C508.54,-93.84 507.35,-84.58 506.49,-77.83"/>
<polygon fill="#63b8ff" stroke="#63b8ff" points="506.26,-102.61 511,-112.09 513.2,-101.72 506.26,-102.61"/>
</a>
</g>
</g>
<!-- Node4 -->
<g id="Node000004" class="node">
<title>Node4</title>
<g id="a_Node000004"><a xlink:href="convectionSystem_8cpp.html" target="_top" xlink:title=" ">
<polygon fill="white" stroke="#666666" points="724,-77.5 580.5,-77.5 580.5,-56.75 724,-56.75 724,-77.5"/>
<text text-anchor="middle" x="652.25" y="-64" font-family="FreeSans" font-size="10.00">src/convectionSystem.cpp</text>
</a>
</g>
</g>
<!-- Node2&#45;&gt;Node4 -->
<g id="edge3_Node000002_Node000004" class="edge">
<title>Node2&#45;&gt;Node4</title>
<g id="a_edge3_Node000002_Node000004"><a xlink:title=" ">
<path fill="none" stroke="#63b8ff" d="M547.43,-109.12C572.36,-99.37 605.21,-86.52 627.44,-77.83"/>
<polygon fill="#63b8ff" stroke="#63b8ff" points="546.32,-106.19 538.28,-113.09 548.87,-112.7 546.32,-106.19"/>
</a>
</g>
</g>
<!-- Node5 -->
<g id="Node000005" class="node">
<title>Node5</title>
<g id="a_Node000005"><a xlink:href="flameSolver_8h.html" target="_top" xlink:title=" ">
<polygon fill="white" stroke="#666666" points="854.25,-77.5 754.25,-77.5 754.25,-56.75 854.25,-56.75 854.25,-77.5"/>
<text text-anchor="middle" x="804.25" y="-64" font-family="FreeSans" font-size="10.00">src/flameSolver.h</text>
</a>
</g>
</g>
<!-- Node2&#45;&gt;Node5 -->
<g id="edge4_Node000002_Node000005" class="edge">
<title>Node2&#45;&gt;Node5</title>
<g id="a_edge4_Node000002_Node000005"><a xlink:title=" ">
<path fill="none" stroke="#63b8ff" d="M574.83,-111.14C628.29,-101.12 704.21,-86.88 753.84,-77.58"/>
<polygon fill="#63b8ff" stroke="#63b8ff" points="574.3,-107.87 565.12,-113.15 575.59,-114.75 574.3,-107.87"/>
</a>
</g>
</g>
<!-- Node7 -->
<g id="Node000007" class="node">
<title>Node7</title>
<g id="a_Node000007"><a xlink:href="sourceSystem_8cpp.html" target="_top" xlink:title=" ">
<polygon fill="white" stroke="#666666" points="423.5,-77.5 301,-77.5 301,-56.75 423.5,-56.75 423.5,-77.5"/>
<text text-anchor="middle" x="362.25" y="-64" font-family="FreeSans" font-size="10.00">src/sourceSystem.cpp</text>
</a>
</g>
</g>
<!-- Node2&#45;&gt;Node7 -->
<g id="edge6_Node000002_Node000007" class="edge">
<title>Node2&#45;&gt;Node7</title>
<g id="a_edge6_Node000002_Node000007"><a xlink:title=" ">
<path fill="none" stroke="#63b8ff" d="M475.31,-109.39C448.6,-99.64 413.12,-86.69 389.09,-77.92"/>
<polygon fill="#63b8ff" stroke="#63b8ff" points="473.84,-112.95 484.43,-113.09 476.24,-106.37 473.84,-112.95"/>
</a>
</g>
</g>
<!-- Node6 -->
<g id="Node000006" class="node">
<title>Node6</title>
<g id="a_Node000006"><a xlink:href="flameSolver_8cpp.html" target="_top" xlink:title=" ">
<polygon fill="white" stroke="#666666" points="859.88,-20.75 748.62,-20.75 748.62,0 859.88,0 859.88,-20.75"/>
<text text-anchor="middle" x="804.25" y="-7.25" font-family="FreeSans" font-size="10.00">src/flameSolver.cpp</text>
</a>
</g>
</g>
<!-- Node5&#45;&gt;Node6 -->
<g id="edge5_Node000005_Node000006" class="edge">
<title>Node5&#45;&gt;Node6</title>
<g id="a_edge5_Node000005_Node000006"><a xlink:title=" ">
<path fill="none" stroke="#63b8ff" d="M804.25,-45.46C804.25,-37.09 804.25,-27.83 804.25,-21.08"/>
<polygon fill="#63b8ff" stroke="#63b8ff" points="800.75,-45.34 804.25,-55.34 807.75,-45.34 800.75,-45.34"/>
</a>
</g>
</g>
<!-- Node8&#45;&gt;Node7 -->
<g id="edge12_Node000008_Node000007" class="edge">
<title>Node8&#45;&gt;Node7</title>
<g id="a_edge12_Node000008_Node000007"><a xlink:title=" ">
<path fill="none" stroke="#63b8ff" d="M291.98,-161.61C282.93,-147.84 274.44,-128.71 283.25,-113.5 293.31,-96.12 312.83,-84.81 329.95,-77.84"/>
<polygon fill="#63b8ff" stroke="#63b8ff" points="289.45,-163.09 298.13,-169.16 295.13,-159 289.45,-163.09"/>
</a>
</g>
</g>
<!-- Node9 -->
<g id="Node000009" class="node">
<title>Node9</title>
<g id="a_Node000009"><a xlink:href="convectionSystem_8h.html" target="_top" xlink:title=" ">
<polygon fill="white" stroke="#666666" points="752.38,-134.25 620.12,-134.25 620.12,-113.5 752.38,-113.5 752.38,-134.25"/>
<text text-anchor="middle" x="686.25" y="-120.75" font-family="FreeSans" font-size="10.00">src/convectionSystem.h</text>
</a>
</g>
</g>
<!-- Node8&#45;&gt;Node9 -->
<g id="edge8_Node000008_Node000009" class="edge">
<title>Node8&#45;&gt;Node9</title>
<g id="a_edge8_Node000008_Node000009"><a xlink:title=" ">
<path fill="none" stroke="#63b8ff" d="M369.84,-170.46C439.12,-160.48 549.44,-144.59 619.81,-134.45"/>
<polygon fill="#63b8ff" stroke="#63b8ff" points="369.49,-167.12 360.09,-172.01 370.48,-174.05 369.49,-167.12"/>
</a>
</g>
</g>
<!-- Node10 -->
<g id="Node000010" class="node">
<title>Node10</title>
<g id="a_Node000010"><a xlink:href="mathUtils_8cpp.html" target="_top" xlink:title=" ">
<polygon fill="white" stroke="#666666" points="236,-134.25 134.5,-134.25 134.5,-113.5 236,-113.5 236,-134.25"/>
<text text-anchor="middle" x="185.25" y="-120.75" font-family="FreeSans" font-size="10.00">src/mathUtils.cpp</text>
</a>
</g>
</g>
<!-- Node8&#45;&gt;Node10 -->
<g id="edge11_Node000008_Node000010" class="edge">
<title>Node8&#45;&gt;Node10</title>
<g id="a_edge11_Node000008_Node000010"><a xlink:title=" ">
<path fill="none" stroke="#63b8ff" d="M274.69,-165.34C253.28,-155.66 225.56,-143.12 206.7,-134.58"/>
<polygon fill="#63b8ff" stroke="#63b8ff" points="273.06,-168.9 283.62,-169.84 275.95,-162.53 273.06,-168.9"/>
</a>
</g>
</g>
<!-- Node11 -->
<g id="Node000011" class="node">
<title>Node11</title>
<g id="a_Node000011"><a xlink:href="sourceSystem_8h.html" target="_top" xlink:title=" ">
<polygon fill="white" stroke="#666666" points="403.88,-134.25 292.62,-134.25 292.62,-113.5 403.88,-113.5 403.88,-134.25"/>
<text text-anchor="middle" x="348.25" y="-120.75" font-family="FreeSans" font-size="10.00">src/sourceSystem.h</text>
</a>
</g>
</g>
<!-- Node8&#45;&gt;Node11 -->
<g id="edge13_Node000008_Node000011" class="edge">
<title>Node8&#45;&gt;Node11</title>
<g id="a_edge13_Node000008_Node000011"><a xlink:title=" ">
<path fill="none" stroke="#63b8ff" d="M320.35,-161.24C327.2,-152.31 335.15,-141.95 340.81,-134.58"/>
<polygon fill="#63b8ff" stroke="#63b8ff" points="317.07,-158.77 313.76,-168.84 322.62,-163.03 317.07,-158.77"/>
</a>
</g>
</g>
<!-- Node12 -->
<g id="Node000012" class="node">
<title>Node12</title>
<g id="a_Node000012"><a xlink:href="sundialsUtils_8cpp.html" target="_top" xlink:title=" ">
<polygon fill="white" stroke="#666666" points="116.5,-134.25 0,-134.25 0,-113.5 116.5,-113.5 116.5,-134.25"/>
<text text-anchor="middle" x="58.25" y="-120.75" font-family="FreeSans" font-size="10.00">src/sundialsUtils.cpp</text>
</a>
</g>
</g>
<!-- Node8&#45;&gt;Node12 -->
<g id="edge16_Node000008_Node000012" class="edge">
<title>Node8&#45;&gt;Node12</title>
<g id="a_edge16_Node000008_Node000012"><a xlink:title=" ">
<path fill="none" stroke="#63b8ff" d="M250.97,-167.42C206.37,-157.57 144.44,-143.9 102.93,-134.74"/>
<polygon fill="#63b8ff" stroke="#63b8ff" points="250.11,-171.04 260.63,-169.77 251.62,-164.2 250.11,-171.04"/>
</a>
</g>
</g>
<!-- Node9&#45;&gt;Node4 -->
<g id="edge9_Node000009_Node000004" class="edge">
<title>Node9&#45;&gt;Node4</title>
<g id="a_edge9_Node000009_Node000004"><a xlink:title=" ">
<path fill="none" stroke="#63b8ff" d="M674.48,-103.92C669.02,-95.13 662.76,-85.05 658.28,-77.83"/>
<polygon fill="#63b8ff" stroke="#63b8ff" points="671.92,-105.44 680.17,-112.09 677.87,-101.75 671.92,-105.44"/>
</a>
</g>
</g>
<!-- Node9&#45;&gt;Node5 -->
<g id="edge10_Node000009_Node000005" class="edge">
<title>Node9&#45;&gt;Node5</title>
<g id="a_edge10_Node000009_Node000005"><a xlink:title=" ">
<path fill="none" stroke="#63b8ff" d="M717.32,-108.46C738.15,-98.8 765.02,-86.33 783.34,-77.83"/>
<polygon fill="#63b8ff" stroke="#63b8ff" points="715.94,-105.7 708.35,-113.09 718.89,-112.05 715.94,-105.7"/>
</a>
</g>
</g>
<!-- Node11&#45;&gt;Node5 -->
<g id="edge14_Node000011_Node000005" class="edge">
<title>Node11&#45;&gt;Node5</title>
<g id="a_edge14_Node000011_Node000005"><a xlink:title=" ">
<path fill="none" stroke="#63b8ff" d="M414.53,-115.35C491.28,-106.57 621.47,-91.47 733.25,-77.5 739.91,-76.67 746.92,-75.77 753.84,-74.87"/>
<polygon fill="#63b8ff" stroke="#63b8ff" points="414.61,-111.93 405.07,-116.54 415.4,-118.89 414.61,-111.93"/>
</a>
</g>
</g>
<!-- Node11&#45;&gt;Node7 -->
<g id="edge15_Node000011_Node000007" class="edge">
<title>Node11&#45;&gt;Node7</title>
<g id="a_edge15_Node000011_Node000007"><a xlink:title=" ">
<path fill="none" stroke="#63b8ff" d="M353.46,-102.49C355.62,-94.05 358.02,-84.66 359.77,-77.83"/>
<polygon fill="#63b8ff" stroke="#63b8ff" points="349.84,-101.53 350.75,-112.09 356.62,-103.27 349.84,-101.53"/>
</a>
</g>
</g>
<!-- Node13&#45;&gt;Node4 -->
<g id="edge18_Node000013_Node000004" class="edge">
<title>Node13&#45;&gt;Node4</title>
<g id="a_edge18_Node000013_Node000004"><a xlink:title=" ">
<path fill="none" stroke="#63b8ff" d="M627.92,-216.92C615.12,-192.26 597.7,-148.72 611.25,-113.5 616.89,-98.84 629.72,-85.96 639.53,-77.71"/>
<polygon fill="#63b8ff" stroke="#63b8ff" points="625.32,-218.45 633.19,-225.54 631.46,-215.09 625.32,-218.45"/>
</a>
</g>
</g>
<!-- Node13&#45;&gt;Node5 -->
<g id="edge19_Node000013_Node000005" class="edge">
<title>Node13&#45;&gt;Node5</title>
<g id="a_edge19_Node000013_Node000005"><a xlink:title=" ">
<path fill="none" stroke="#63b8ff" d="M694.18,-230.18C791.63,-217.93 988.43,-187.13 1029.25,-134.25 1034.88,-126.95 1035.09,-120.64 1029.25,-113.5 1007.61,-87.06 913.98,-75.68 854.54,-71.05"/>
<polygon fill="#63b8ff" stroke="#63b8ff" points="693.86,-226.82 684.36,-231.51 694.72,-233.76 693.86,-226.82"/>
</a>
</g>
</g>
<!-- Node14 -->
<g id="Node000014" class="node">
<title>Node14</title>
<g id="a_Node000014"><a xlink:href="perfTimer_8h.html" target="_top" xlink:title=" ">
<polygon fill="white" stroke="#666666" points="796,-191 706.5,-191 706.5,-170.25 796,-170.25 796,-191"/>
<text text-anchor="middle" x="751.25" y="-177.5" font-family="FreeSans" font-size="10.00">src/perfTimer.h</text>
</a>
</g>
</g>
<!-- Node13&#45;&gt;Node14 -->
<g id="edge20_Node000013_Node000014" class="edge">
<title>Node13&#45;&gt;Node14</title>
<g id="a_edge20_Node000013_Node000014"><a xlink:title=" ">
<path fill="none" stroke="#63b8ff" d="M669.01,-221.83C688.74,-212.18 714.09,-199.79 731.4,-191.33"/>
<polygon fill="#63b8ff" stroke="#63b8ff" points="667.72,-219.05 660.27,-226.59 670.79,-225.34 667.72,-219.05"/>
</a>
</g>
</g>
<!-- Node14&#45;&gt;Node5 -->
<g id="edge22_Node000014_Node000005" class="edge">
<title>Node14&#45;&gt;Node5</title>
<g id="a_edge22_Node000014_Node000005"><a xlink:title=" ">
<path fill="none" stroke="#63b8ff" d="M807.2,-173.11C831.71,-167.17 858.25,-155.83 873.25,-134.25 889.25,-111.22 854.06,-89.78 828.29,-77.87"/>
<polygon fill="#63b8ff" stroke="#63b8ff" points="806.53,-169.89 797.49,-175.42 808.01,-176.74 806.53,-169.89"/>
</a>
</g>
</g>
<!-- Node14&#45;&gt;Node7 -->
<g id="edge24_Node000014_Node000007" class="edge">
<title>Node14&#45;&gt;Node7</title>
<g id="a_edge24_Node000014_Node000007"><a xlink:title=" ">
<path fill="none" stroke="#63b8ff" d="M695.52,-179.19C633.61,-176.91 531.76,-167.77 451.25,-134.25 418.73,-120.71 387.22,-92.74 371.9,-77.89"/>
<polygon fill="#63b8ff" stroke="#63b8ff" points="695.12,-182.71 705.23,-179.53 695.35,-175.71 695.12,-182.71"/>
</a>
</g>
</g>
<!-- Node14&#45;&gt;Node9 -->
<g id="edge21_Node000014_Node000009" class="edge">
<title>Node14&#45;&gt;Node9</title>
<g id="a_edge21_Node000014_Node000009"><a xlink:title=" ">
<path fill="none" stroke="#63b8ff" d="M731.41,-162.91C720.39,-153.63 707.08,-142.42 697.77,-134.58"/>
<polygon fill="#63b8ff" stroke="#63b8ff" points="728.73,-166.07 738.63,-169.84 733.24,-160.72 728.73,-166.07"/>
</a>
</g>
</g>
<!-- Node15 -->
<g id="Node000015" class="node">
<title>Node15</title>
<g id="a_Node000015"><a xlink:href="perfTimer_8cpp.html" target="_top" xlink:title=" ">
<polygon fill="white" stroke="#666666" points="1020.62,-134.25 919.88,-134.25 919.88,-113.5 1020.62,-113.5 1020.62,-134.25"/>
<text text-anchor="middle" x="970.25" y="-120.75" font-family="FreeSans" font-size="10.00">src/perfTimer.cpp</text>
</a>
</g>
</g>
<!-- Node14&#45;&gt;Node15 -->
<g id="edge23_Node000014_Node000015" class="edge">
<title>Node14&#45;&gt;Node15</title>
<g id="a_edge23_Node000014_Node000015"><a xlink:title=" ">
<path fill="none" stroke="#63b8ff" d="M801.32,-167.11C840.6,-157.29 894.53,-143.81 930.79,-134.74"/>
<polygon fill="#63b8ff" stroke="#63b8ff" points="800.51,-163.95 791.66,-169.77 802.21,-170.74 800.51,-163.95"/>
</a>
</g>
</g>
<!-- Node16 -->
<g id="Node000016" class="node">
<title>Node16</title>
<g id="a_Node000016"><a xlink:href="splitSolver_8h.html" target="_top" xlink:title=" ">
<polygon fill="#fff0f0" stroke="red" points="863.88,-134.25 770.62,-134.25 770.62,-113.5 863.88,-113.5 863.88,-134.25"/>
<text text-anchor="middle" x="817.25" y="-120.75" font-family="FreeSans" font-size="10.00">src/splitSolver.h</text>
</a>
</g>
</g>
<!-- Node14&#45;&gt;Node16 -->
<g id="edge25_Node000014_Node000016" class="edge">
<title>Node14&#45;&gt;Node16</title>
<g id="a_edge25_Node000014_Node000016"><a xlink:title=" ">
<path fill="none" stroke="#63b8ff" d="M771.4,-162.91C782.58,-153.63 796.1,-142.42 805.55,-134.58"/>
<polygon fill="#63b8ff" stroke="#63b8ff" points="769.51,-160.76 764.05,-169.84 773.98,-166.15 769.51,-160.76"/>
</a>
</g>
</g>
<!-- Node16&#45;&gt;Node5 -->
<g id="edge26_Node000016_Node000005" class="edge">
<title>Node16&#45;&gt;Node5</title>
<g id="a_edge26_Node000016_Node000005"><a xlink:title=" ">
<path fill="none" stroke="#63b8ff" d="M812.41,-102.49C810.41,-94.05 808.18,-84.66 806.55,-77.83"/>
<polygon fill="#63b8ff" stroke="#63b8ff" points="809.21,-103.17 814.93,-112.09 816.02,-101.55 809.21,-103.17"/>
</a>
</g>
</g>
</g>
</svg>
