<?xml version="1.0" encoding="UTF-8" standalone="no"?>
<!DOCTYPE svg PUBLIC "-//W3C//DTD SVG 1.1//EN"
 "http://www.w3.org/Graphics/SVG/1.1/DTD/svg11.dtd">
<!-- Generated by graphviz version 2.26.3 (20100126.1600)
 -->
<!-- Title: src/config.h Pages: 1 -->
<svg width="608pt" height="262pt"
 viewBox="0.00 0.00 607.88 262.00" xmlns="http://www.w3.org/2000/svg" xmlns:xlink="http://www.w3.org/1999/xlink">
<g id="graph1" class="graph" transform="scale(1 1) rotate(0) translate(4 258)">
<title>src/config.h</title>
<polygon fill="white" stroke="white" points="-4,5 -4,-258 604.875,-258 604.875,5 -4,5"/>
<!-- Node1 -->
<g id="node1" class="node"><title>Node1</title>
<polygon fill="#bfbfbf" stroke="black" points="259.375,-233 259.375,-253 324.375,-253 324.375,-233 259.375,-233"/>
<text text-anchor="middle" x="291.875" y="-240" font-family="FreeSans" font-size="10.00">src/config.h</text>
</g>
<!-- Node2 -->
<g id="node3" class="node"><title>Node2</title>
<a xlink:href="chemistry0d_8h.html" target="_top" xlink:title="src/chemistry0d.h">
<polygon fill="white" stroke="black" points="361.875,-117 361.875,-137 453.875,-137 453.875,-117 361.875,-117"/>
<text text-anchor="middle" x="407.875" y="-124" font-family="FreeSans" font-size="10.00">src/chemistry0d.h</text>
</a>
</g>
<!-- Node1&#45;&gt;Node2 -->
<g id="edge2" class="edge"><title>Node1&#45;&gt;Node2</title>
<path fill="none" stroke="midnightblue" d="M309.425,-225.45C334.039,-200.836 378.009,-156.866 397.77,-137.106"/>
<polygon fill="midnightblue" stroke="midnightblue" points="306.765,-223.16 302.169,-232.706 311.715,-228.11 306.765,-223.16"/>
</g>
<!-- Node8 -->
<g id="node15" class="node"><title>Node8</title>
<a xlink:href="sundialsUtils_8h.html" target="_top" xlink:title="src/sundialsUtils.h">
<polygon fill="white" stroke="black" points="169.375,-175 169.375,-195 262.375,-195 262.375,-175 169.375,-175"/>
<text text-anchor="middle" x="215.875" y="-182" font-family="FreeSans" font-size="10.00">src/sundialsUtils.h</text>
</a>
</g>
<!-- Node1&#45;&gt;Node8 -->
<g id="edge14" class="edge"><title>Node1&#45;&gt;Node8</title>
<path fill="none" stroke="midnightblue" d="M270.499,-226.687C257.241,-216.569 240.621,-203.885 229.217,-195.182"/>
<polygon fill="midnightblue" stroke="midnightblue" points="268.564,-229.613 278.637,-232.897 272.811,-224.048 268.564,-229.613"/>
</g>
<!-- Node3 -->
<g id="node5" class="node"><title>Node3</title>
<a xlink:href="chemistry0d_8cpp.html" target="_top" xlink:title="src/chemistry0d.cpp">
<polygon fill="white" stroke="black" points="351.875,-59 351.875,-79 453.875,-79 453.875,-59 351.875,-59"/>
<text text-anchor="middle" x="402.875" y="-66" font-family="FreeSans" font-size="10.00">src/chemistry0d.cpp</text>
</a>
</g>
<!-- Node2&#45;&gt;Node3 -->
<g id="edge4" class="edge"><title>Node2&#45;&gt;Node3</title>
<path fill="none" stroke="midnightblue" d="M406.141,-106.89C405.342,-97.6201 404.427,-87.0083 403.77,-79.3776"/>
<polygon fill="midnightblue" stroke="midnightblue" points="402.658,-107.235 407.004,-116.897 409.632,-106.633 402.658,-107.235"/>
</g>
<!-- Node4 -->
<g id="node7" class="node"><title>Node4</title>
<a xlink:href="convectionSystem_8cpp.html" target="_top" xlink:title="src/convectionSystem.cpp">
<polygon fill="white" stroke="black" points="471.375,-59 471.375,-79 600.375,-79 600.375,-59 471.375,-59"/>
<text text-anchor="middle" x="535.875" y="-66" font-family="FreeSans" font-size="10.00">src/convectionSystem.cpp</text>
</a>
</g>
<!-- Node2&#45;&gt;Node4 -->
<g id="edge6" class="edge"><title>Node2&#45;&gt;Node4</title>
<path fill="none" stroke="midnightblue" d="M439.491,-112.674C462.434,-102.278 492.917,-88.4654 513.405,-79.1817"/>
<polygon fill="midnightblue" stroke="midnightblue" points="437.835,-109.582 430.171,-116.897 440.724,-115.958 437.835,-109.582"/>
</g>
<!-- Node5 -->
<g id="node9" class="node"><title>Node5</title>
<a xlink:href="flameSolver_8h.html" target="_top" xlink:title="src/flameSolver.h">
<polygon fill="white" stroke="black" points="243.875,-59 243.875,-79 333.875,-79 333.875,-59 243.875,-59"/>
<text text-anchor="middle" x="288.875" y="-66" font-family="FreeSans" font-size="10.00">src/flameSolver.h</text>
</a>
</g>
<!-- Node2&#45;&gt;Node5 -->
<g id="edge8" class="edge"><title>Node2&#45;&gt;Node5</title>
<path fill="none" stroke="midnightblue" d="M377.909,-112.395C356.647,-102.031 328.643,-88.3825 309.765,-79.1817"/>
<polygon fill="midnightblue" stroke="midnightblue" points="376.624,-115.662 387.147,-116.897 379.691,-109.37 376.624,-115.662"/>
</g>
<!-- Node7 -->
<g id="node13" class="node"><title>Node7</title>
<a xlink:href="sourceSystem_8cpp.html" target="_top" xlink:title="src/sourceSystem.cpp">
<polygon fill="white" stroke="black" points="8.37504,-59 8.37504,-79 119.375,-79 119.375,-59 8.37504,-59"/>
<text text-anchor="middle" x="63.875" y="-66" font-family="FreeSans" font-size="10.00">src/sourceSystem.cpp</text>
</a>
</g>
<!-- Node2&#45;&gt;Node7 -->
<g id="edge12" class="edge"><title>Node2&#45;&gt;Node7</title>
<path fill="none" stroke="midnightblue" d="M351.667,-115.825C264.904,-100.214 175.477,-86.0601 119.38,-77.4164"/>
<polygon fill="midnightblue" stroke="midnightblue" points="351.221,-119.301 361.685,-117.636 352.467,-112.413 351.221,-119.301"/>
</g>
<!-- Node6 -->
<g id="node11" class="node"><title>Node6</title>
<a xlink:href="flameSolver_8cpp.html" target="_top" xlink:title="src/flameSolver.cpp">
<polygon fill="white" stroke="black" points="238.375,-1 238.375,-21 339.375,-21 339.375,-1 238.375,-1"/>
<text text-anchor="middle" x="288.875" y="-8" font-family="FreeSans" font-size="10.00">src/flameSolver.cpp</text>
</a>
</g>
<!-- Node5&#45;&gt;Node6 -->
<g id="edge10" class="edge"><title>Node5&#45;&gt;Node6</title>
<path fill="none" stroke="midnightblue" d="M288.875,-48.8902C288.875,-39.6201 288.875,-29.0083 288.875,-21.3776"/>
<polygon fill="midnightblue" stroke="midnightblue" points="285.375,-48.8971 288.875,-58.8972 292.375,-48.8972 285.375,-48.8971"/>
</g>
<!-- Node8&#45;&gt;Node7 -->
<g id="edge30" class="edge"><title>Node8&#45;&gt;Node7</title>
<path fill="none" stroke="midnightblue" d="M159.032,-180.228C103.258,-174.227 23.8815,-161.706 4.87504,-138 -12.28,-116.603 21.1416,-92.4164 44.3125,-79.117"/>
<polygon fill="midnightblue" stroke="midnightblue" points="158.845,-183.727 169.152,-181.273 159.565,-176.764 158.845,-183.727"/>
</g>
<!-- Node9 -->
<g id="node17" class="node"><title>Node9</title>
<a xlink:href="convectionSystem_8h.html" target="_top" xlink:title="src/convectionSystem.h">
<polygon fill="white" stroke="black" points="471.375,-117 471.375,-137 590.375,-137 590.375,-117 471.375,-117"/>
<text text-anchor="middle" x="530.875" y="-124" font-family="FreeSans" font-size="10.00">src/convectionSystem.h</text>
</a>
</g>
<!-- Node8&#45;&gt;Node9 -->
<g id="edge16" class="edge"><title>Node8&#45;&gt;Node9</title>
<path fill="none" stroke="midnightblue" d="M272.755,-174.527C330.556,-163.884 419.46,-147.515 476.385,-137.033"/>
<polygon fill="midnightblue" stroke="midnightblue" points="271.894,-171.126 262.694,-176.379 273.162,-178.011 271.894,-171.126"/>
</g>
<!-- Node10 -->
<g id="node21" class="node"><title>Node10</title>
<a xlink:href="sourceSystem_8h.html" target="_top" xlink:title="src/sourceSystem.h">
<polygon fill="white" stroke="black" points="13.375,-117 13.375,-137 114.375,-137 114.375,-117 13.375,-117"/>
<text text-anchor="middle" x="63.875" y="-124" font-family="FreeSans" font-size="10.00">src/sourceSystem.h</text>
</a>
</g>
<!-- Node8&#45;&gt;Node10 -->
<g id="edge22" class="edge"><title>Node8&#45;&gt;Node10</title>
<path fill="none" stroke="midnightblue" d="M179.751,-171.216C152.26,-160.726 115.058,-146.53 90.3026,-137.084"/>
<polygon fill="midnightblue" stroke="midnightblue" points="178.808,-174.602 189.399,-174.897 181.304,-168.062 178.808,-174.602"/>
</g>
<!-- Node11 -->
<g id="node25" class="node"><title>Node11</title>
<a xlink:href="mathUtils_8cpp.html" target="_top" xlink:title="src/mathUtils.cpp">
<polygon fill="white" stroke="black" points="131.375,-117 131.375,-137 222.375,-137 222.375,-117 131.375,-117"/>
<text text-anchor="middle" x="176.875" y="-124" font-family="FreeSans" font-size="10.00">src/mathUtils.cpp</text>
</a>
</g>
<!-- Node8&#45;&gt;Node11 -->
<g id="edge28" class="edge"><title>Node8&#45;&gt;Node11</title>
<path fill="none" stroke="midnightblue" d="M203.361,-166.389C196.901,-156.782 189.263,-145.423 183.853,-137.378"/>
<polygon fill="midnightblue" stroke="midnightblue" points="200.597,-168.552 209.082,-174.897 206.406,-164.646 200.597,-168.552"/>
</g>
<!-- Node12 -->
<g id="node28" class="node"><title>Node12</title>
<a xlink:href="sundialsUtils_8cpp.html" target="_top" xlink:title="src/sundialsUtils.cpp">
<polygon fill="white" stroke="black" points="239.875,-117 239.875,-137 343.875,-137 343.875,-117 239.875,-117"/>
<text text-anchor="middle" x="291.875" y="-124" font-family="FreeSans" font-size="10.00">src/sundialsUtils.cpp</text>
</a>
</g>
<!-- Node8&#45;&gt;Node12 -->
<g id="edge32" class="edge"><title>Node8&#45;&gt;Node12</title>
<path fill="none" stroke="midnightblue" d="M237.251,-168.687C250.509,-158.569 267.129,-145.885 278.534,-137.182"/>
<polygon fill="midnightblue" stroke="midnightblue" points="234.939,-166.048 229.113,-174.897 239.186,-171.613 234.939,-166.048"/>
</g>
<!-- Node9&#45;&gt;Node4 -->
<g id="edge18" class="edge"><title>Node9&#45;&gt;Node4</title>
<path fill="none" stroke="midnightblue" d="M532.609,-106.89C533.408,-97.6201 534.323,-87.0083 534.98,-79.3776"/>
<polygon fill="midnightblue" stroke="midnightblue" points="529.118,-106.633 531.746,-116.897 536.092,-107.235 529.118,-106.633"/>
</g>
<!-- Node9&#45;&gt;Node5 -->
<g id="edge20" class="edge"><title>Node9&#45;&gt;Node5</title>
<path fill="none" stroke="midnightblue" d="M479.001,-114.567C434.692,-103.948 371.772,-88.8678 330.644,-79.0108"/>
<polygon fill="midnightblue" stroke="midnightblue" points="478.458,-118.036 488.998,-116.963 480.089,-111.229 478.458,-118.036"/>
</g>
<!-- Node10&#45;&gt;Node5 -->
<g id="edge24" class="edge"><title>Node10&#45;&gt;Node5</title>
<path fill="none" stroke="midnightblue" d="M112.626,-114.433C153.794,-103.821 211.963,-88.8263 250.04,-79.0108"/>
<polygon fill="midnightblue" stroke="midnightblue" points="111.62,-111.078 102.81,-116.963 113.367,-117.856 111.62,-111.078"/>
</g>
<!-- Node10&#45;&gt;Node7 -->
<g id="edge26" class="edge"><title>Node10&#45;&gt;Node7</title>
<path fill="none" stroke="midnightblue" d="M63.875,-106.89C63.875,-97.6201 63.875,-87.0083 63.875,-79.3776"/>
<polygon fill="midnightblue" stroke="midnightblue" points="60.3751,-106.897 63.875,-116.897 67.3751,-106.897 60.3751,-106.897"/>
</g>
</g>
</svg>
