<?xml version="1.0" encoding="UTF-8" standalone="no"?>
<!DOCTYPE svg PUBLIC "-//W3C//DTD SVG 1.1//EN"
 "http://www.w3.org/Graphics/SVG/1.1/DTD/svg11.dtd">
<!-- Generated by graphviz version 2.36.0 (20140111.2315)
 -->
<!-- Title: src/config.h Pages: 1 -->
<svg width="967pt" height="308pt"
 viewBox="0.00 0.00 967.17 308.00" xmlns="http://www.w3.org/2000/svg" xmlns:xlink="http://www.w3.org/1999/xlink">
<g id="graph0" class="graph" transform="scale(1 1) rotate(0) translate(4 304)">
<title>src/config.h</title>
<polygon fill="white" stroke="none" points="-4,4 -4,-304 963.172,-304 963.172,4 -4,4"/>
<!-- Node1 -->
<g id="node1" class="node"><title>Node1</title>
<polygon fill="#bfbfbf" stroke="black" points="441.5,-280.5 441.5,-299.5 506.5,-299.5 506.5,-280.5 441.5,-280.5"/>
<text text-anchor="middle" x="474" y="-287.5" font-family="FreeSans" font-size="10.00">src/config.h</text>
</g>
<!-- Node2 -->
<g id="node2" class="node"><title>Node2</title>
<g id="a_node2"><a xlink:href="chemistry0d_8h.html" target="_top" xlink:title="src/chemistry0d.h">
<polygon fill="white" stroke="black" points="428,-112.5 428,-131.5 520,-131.5 520,-112.5 428,-112.5"/>
<text text-anchor="middle" x="474" y="-119.5" font-family="FreeSans" font-size="10.00">src/chemistry0d.h</text>
</a>
</g>
</g>
<!-- Node1&#45;&gt;Node2 -->
<g id="edge1" class="edge"><title>Node1&#45;&gt;Node2</title>
<path fill="none" stroke="midnightblue" d="M474,-269.93C474,-233.92 474,-157.231 474,-131.568"/>
<polygon fill="midnightblue" stroke="midnightblue" points="470.5,-270.075 474,-280.075 477.5,-270.075 470.5,-270.075"/>
</g>
<!-- Node8 -->
<g id="node8" class="node"><title>Node8</title>
<g id="a_node8"><a xlink:href="sundialsUtils_8h.html" target="_top" xlink:title="src/sundialsUtils.h">
<polygon fill="white" stroke="black" points="254.5,-168.5 254.5,-187.5 347.5,-187.5 347.5,-168.5 254.5,-168.5"/>
<text text-anchor="middle" x="301" y="-175.5" font-family="FreeSans" font-size="10.00">src/sundialsUtils.h</text>
</a>
</g>
</g>
<!-- Node1&#45;&gt;Node8 -->
<g id="edge7" class="edge"><title>Node1&#45;&gt;Node8</title>
<path fill="none" stroke="midnightblue" d="M451.532,-274.714C415.077,-251.535 344.14,-206.43 314.512,-187.591"/>
<polygon fill="midnightblue" stroke="midnightblue" points="450.108,-277.956 460.425,-280.368 453.864,-272.049 450.108,-277.956"/>
</g>
<!-- Node13 -->
<g id="node13" class="node"><title>Node13</title>
<g id="a_node13"><a xlink:href="tbb__tools_8h.html" target="_top" xlink:title="src/tbb_tools.h">
<polygon fill="white" stroke="black" points="574.5,-224.5 574.5,-243.5 653.5,-243.5 653.5,-224.5 574.5,-224.5"/>
<text text-anchor="middle" x="614" y="-231.5" font-family="FreeSans" font-size="10.00">src/tbb_tools.h</text>
</a>
</g>
</g>
<!-- Node1&#45;&gt;Node13 -->
<g id="edge17" class="edge"><title>Node1&#45;&gt;Node13</title>
<path fill="none" stroke="midnightblue" d="M505.702,-276.772C532,-266.629 568.716,-252.467 591.92,-243.516"/>
<polygon fill="midnightblue" stroke="midnightblue" points="504.254,-273.579 496.183,-280.444 506.773,-280.11 504.254,-273.579"/>
</g>
<!-- Node3 -->
<g id="node3" class="node"><title>Node3</title>
<g id="a_node3"><a xlink:href="chemistry0d_8cpp.html" target="_top" xlink:title="src/chemistry0d.cpp">
<polygon fill="white" stroke="black" points="375,-56.5 375,-75.5 477,-75.5 477,-56.5 375,-56.5"/>
<text text-anchor="middle" x="426" y="-63.5" font-family="FreeSans" font-size="10.00">src/chemistry0d.cpp</text>
</a>
</g>
</g>
<!-- Node2&#45;&gt;Node3 -->
<g id="edge2" class="edge"><title>Node2&#45;&gt;Node3</title>
<path fill="none" stroke="midnightblue" d="M459.272,-104.431C450.86,-94.9673 440.651,-83.4827 433.779,-75.7511"/>
<polygon fill="midnightblue" stroke="midnightblue" points="456.814,-106.934 466.074,-112.083 462.046,-102.284 456.814,-106.934"/>
</g>
<!-- Node4 -->
<g id="node4" class="node"><title>Node4</title>
<g id="a_node4"><a xlink:href="convectionSystem_8cpp.html" target="_top" xlink:title="src/convectionSystem.cpp">
<polygon fill="white" stroke="black" points="495.5,-56.5 495.5,-75.5 624.5,-75.5 624.5,-56.5 495.5,-56.5"/>
<text text-anchor="middle" x="560" y="-63.5" font-family="FreeSans" font-size="10.00">src/convectionSystem.cpp</text>
</a>
</g>
</g>
<!-- Node2&#45;&gt;Node4 -->
<g id="edge3" class="edge"><title>Node2&#45;&gt;Node4</title>
<path fill="none" stroke="midnightblue" d="M496.455,-106.901C512.224,-96.9986 532.814,-84.0705 546.217,-75.6545"/>
<polygon fill="midnightblue" stroke="midnightblue" points="494.425,-104.042 487.817,-112.324 498.148,-109.97 494.425,-104.042"/>
</g>
<!-- Node5 -->
<g id="node5" class="node"><title>Node5</title>
<g id="a_node5"><a xlink:href="flameSolver_8h.html" target="_top" xlink:title="src/flameSolver.h">
<polygon fill="white" stroke="black" points="667,-56.5 667,-75.5 757,-75.5 757,-56.5 667,-56.5"/>
<text text-anchor="middle" x="712" y="-63.5" font-family="FreeSans" font-size="10.00">src/flameSolver.h</text>
</a>
</g>
</g>
<!-- Node2&#45;&gt;Node5 -->
<g id="edge4" class="edge"><title>Node2&#45;&gt;Node5</title>
<path fill="none" stroke="midnightblue" d="M521.524,-110.217C566.496,-100.013 633.105,-84.9006 674.465,-75.5164"/>
<polygon fill="midnightblue" stroke="midnightblue" points="520.689,-106.818 511.712,-112.444 522.238,-113.644 520.689,-106.818"/>
</g>
<!-- Node7 -->
<g id="node7" class="node"><title>Node7</title>
<g id="a_node7"><a xlink:href="sourceSystem_8cpp.html" target="_top" xlink:title="src/sourceSystem.cpp">
<polygon fill="white" stroke="black" points="229.5,-56.5 229.5,-75.5 340.5,-75.5 340.5,-56.5 229.5,-56.5"/>
<text text-anchor="middle" x="285" y="-63.5" font-family="FreeSans" font-size="10.00">src/sourceSystem.cpp</text>
</a>
</g>
</g>
<!-- Node2&#45;&gt;Node7 -->
<g id="edge6" class="edge"><title>Node2&#45;&gt;Node7</title>
<path fill="none" stroke="midnightblue" d="M433.987,-109.568C398.333,-99.381 346.962,-84.7034 314.808,-75.5164"/>
<polygon fill="midnightblue" stroke="midnightblue" points="433.476,-113.062 444.052,-112.444 435.399,-106.331 433.476,-113.062"/>
</g>
<!-- Node6 -->
<g id="node6" class="node"><title>Node6</title>
<g id="a_node6"><a xlink:href="flameSolver_8cpp.html" target="_top" xlink:title="src/flameSolver.cpp">
<polygon fill="white" stroke="black" points="661.5,-0.5 661.5,-19.5 762.5,-19.5 762.5,-0.5 661.5,-0.5"/>
<text text-anchor="middle" x="712" y="-7.5" font-family="FreeSans" font-size="10.00">src/flameSolver.cpp</text>
</a>
</g>
</g>
<!-- Node5&#45;&gt;Node6 -->
<g id="edge5" class="edge"><title>Node5&#45;&gt;Node6</title>
<path fill="none" stroke="midnightblue" d="M712,-45.8045C712,-36.9102 712,-26.7798 712,-19.7511"/>
<polygon fill="midnightblue" stroke="midnightblue" points="708.5,-46.083 712,-56.083 715.5,-46.083 708.5,-46.083"/>
</g>
<!-- Node8&#45;&gt;Node7 -->
<g id="edge15" class="edge"><title>Node8&#45;&gt;Node7</title>
<path fill="none" stroke="midnightblue" d="M284.349,-161.043C277.233,-153.078 269.719,-142.839 266,-132 259.208,-112.205 271.047,-88.5128 278.892,-75.9127"/>
<polygon fill="midnightblue" stroke="midnightblue" points="281.999,-163.65 291.444,-168.45 287.054,-158.808 281.999,-163.65"/>
</g>
<!-- Node9 -->
<g id="node9" class="node"><title>Node9</title>
<g id="a_node9"><a xlink:href="convectionSystem_8h.html" target="_top" xlink:title="src/convectionSystem.h">
<polygon fill="white" stroke="black" points="576.5,-112.5 576.5,-131.5 695.5,-131.5 695.5,-112.5 576.5,-112.5"/>
<text text-anchor="middle" x="636" y="-119.5" font-family="FreeSans" font-size="10.00">src/convectionSystem.h</text>
</a>
</g>
</g>
<!-- Node8&#45;&gt;Node9 -->
<g id="edge8" class="edge"><title>Node8&#45;&gt;Node9</title>
<path fill="none" stroke="midnightblue" d="M357.744,-167.853C420.793,-157.69 521.782,-141.411 583.195,-131.512"/>
<polygon fill="midnightblue" stroke="midnightblue" points="356.896,-164.445 347.58,-169.492 358.01,-171.355 356.896,-164.445"/>
</g>
<!-- Node10 -->
<g id="node10" class="node"><title>Node10</title>
<g id="a_node10"><a xlink:href="sourceSystem_8h.html" target="_top" xlink:title="src/sourceSystem.h">
<polygon fill="white" stroke="black" points="308.5,-112.5 308.5,-131.5 409.5,-131.5 409.5,-112.5 308.5,-112.5"/>
<text text-anchor="middle" x="359" y="-119.5" font-family="FreeSans" font-size="10.00">src/sourceSystem.h</text>
</a>
</g>
</g>
<!-- Node8&#45;&gt;Node10 -->
<g id="edge11" class="edge"><title>Node8&#45;&gt;Node10</title>
<path fill="none" stroke="midnightblue" d="M317.913,-161.253C328.203,-151.673 340.966,-139.791 349.512,-131.834"/>
<polygon fill="midnightblue" stroke="midnightblue" points="315.253,-158.948 310.319,-168.324 320.023,-164.071 315.253,-158.948"/>
</g>
<!-- Node11 -->
<g id="node11" class="node"><title>Node11</title>
<g id="a_node11"><a xlink:href="mathUtils_8cpp.html" target="_top" xlink:title="src/mathUtils.cpp">
<polygon fill="white" stroke="black" points="122.5,-112.5 122.5,-131.5 213.5,-131.5 213.5,-112.5 122.5,-112.5"/>
<text text-anchor="middle" x="168" y="-119.5" font-family="FreeSans" font-size="10.00">src/mathUtils.cpp</text>
</a>
</g>
</g>
<!-- Node8&#45;&gt;Node11 -->
<g id="edge14" class="edge"><title>Node8&#45;&gt;Node11</title>
<path fill="none" stroke="midnightblue" d="M270.552,-164.638C245.593,-154.504 210.923,-140.427 188.976,-131.516"/>
<polygon fill="midnightblue" stroke="midnightblue" points="269.344,-167.924 279.926,-168.444 271.977,-161.439 269.344,-167.924"/>
</g>
<!-- Node12 -->
<g id="node12" class="node"><title>Node12</title>
<g id="a_node12"><a xlink:href="sundialsUtils_8cpp.html" target="_top" xlink:title="src/sundialsUtils.cpp">
<polygon fill="white" stroke="black" points="0,-112.5 0,-131.5 104,-131.5 104,-112.5 0,-112.5"/>
<text text-anchor="middle" x="52" y="-119.5" font-family="FreeSans" font-size="10.00">src/sundialsUtils.cpp</text>
</a>
</g>
</g>
<!-- Node8&#45;&gt;Node12 -->
<g id="edge16" class="edge"><title>Node8&#45;&gt;Node12</title>
<path fill="none" stroke="midnightblue" d="M251.576,-166.281C204.521,-156.077 134.633,-140.92 91.2702,-131.516"/>
<polygon fill="midnightblue" stroke="midnightblue" points="251.031,-169.745 261.545,-168.444 252.514,-162.904 251.031,-169.745"/>
</g>
<!-- Node9&#45;&gt;Node4 -->
<g id="edge9" class="edge"><title>Node9&#45;&gt;Node4</title>
<path fill="none" stroke="midnightblue" d="M615.424,-106.38C601.688,-96.6204 584.075,-84.1057 572.433,-75.8339"/>
<polygon fill="midnightblue" stroke="midnightblue" points="613.61,-109.385 623.789,-112.324 617.665,-103.679 613.61,-109.385"/>
</g>
<!-- Node9&#45;&gt;Node5 -->
<g id="edge10" class="edge"><title>Node9&#45;&gt;Node5</title>
<path fill="none" stroke="midnightblue" d="M656.576,-106.38C670.312,-96.6204 687.925,-84.1057 699.567,-75.8339"/>
<polygon fill="midnightblue" stroke="midnightblue" points="654.335,-103.679 648.211,-112.324 658.39,-109.385 654.335,-103.679"/>
</g>
<!-- Node10&#45;&gt;Node5 -->
<g id="edge12" class="edge"><title>Node10&#45;&gt;Node5</title>
<path fill="none" stroke="midnightblue" d="M419.609,-111.728C489.84,-100.985 603.947,-83.5294 666.834,-73.9092"/>
<polygon fill="midnightblue" stroke="midnightblue" points="418.932,-108.291 409.576,-113.263 419.991,-115.211 418.932,-108.291"/>
</g>
<!-- Node10&#45;&gt;Node7 -->
<g id="edge13" class="edge"><title>Node10&#45;&gt;Node7</title>
<path fill="none" stroke="midnightblue" d="M338.966,-106.38C325.591,-96.6204 308.441,-84.1057 297.106,-75.8339"/>
<polygon fill="midnightblue" stroke="midnightblue" points="336.97,-109.257 347.111,-112.324 341.096,-103.602 336.97,-109.257"/>
</g>
<!-- Node13&#45;&gt;Node4 -->
<g id="edge25" class="edge"><title>Node13&#45;&gt;Node4</title>
<path fill="none" stroke="midnightblue" d="M603.841,-215.782C592.806,-196.199 575.605,-162.922 567,-132 561.523,-112.318 560.287,-88.1788 560.036,-75.5808"/>
<polygon fill="midnightblue" stroke="midnightblue" points="600.813,-217.537 608.835,-224.458 606.879,-214.045 600.813,-217.537"/>
</g>
<!-- Node13&#45;&gt;Node5 -->
<g id="edge26" class="edge"><title>Node13&#45;&gt;Node5</title>
<path fill="none" stroke="midnightblue" d="M663.602,-225.646C749.453,-211.794 919.944,-178.945 955,-132 960.319,-124.878 960.684,-118.834 955,-112 930.306,-82.3135 820.203,-72.1264 757.005,-68.6941"/>
<polygon fill="midnightblue" stroke="midnightblue" points="662.894,-222.215 653.567,-227.241 663.992,-229.128 662.894,-222.215"/>
</g>
<!-- Node14 -->
<g id="node14" class="node"><title>Node14</title>
<g id="a_node14"><a xlink:href="perfTimer_8h.html" target="_top" xlink:title="src/perfTimer.h">
<polygon fill="white" stroke="black" points="639.5,-168.5 639.5,-187.5 720.5,-187.5 720.5,-168.5 639.5,-168.5"/>
<text text-anchor="middle" x="680" y="-175.5" font-family="FreeSans" font-size="10.00">src/perfTimer.h</text>
</a>
</g>
</g>
<!-- Node13&#45;&gt;Node14 -->
<g id="edge18" class="edge"><title>Node13&#45;&gt;Node14</title>
<path fill="none" stroke="midnightblue" d="M632.554,-217.82C644.378,-208.145 659.286,-195.948 669.203,-187.834"/>
<polygon fill="midnightblue" stroke="midnightblue" points="630.127,-215.283 624.604,-224.324 634.56,-220.7 630.127,-215.283"/>
</g>
<!-- Node14&#45;&gt;Node5 -->
<g id="edge22" class="edge"><title>Node14&#45;&gt;Node5</title>
<path fill="none" stroke="midnightblue" d="M691.028,-159.92C695.776,-151.776 700.931,-141.709 704,-132 710.169,-112.486 711.618,-88.2787 711.935,-75.6253"/>
<polygon fill="midnightblue" stroke="midnightblue" points="688.035,-158.106 685.792,-168.46 694.003,-161.764 688.035,-158.106"/>
</g>
<!-- Node14&#45;&gt;Node7 -->
<g id="edge24" class="edge"><title>Node14&#45;&gt;Node7</title>
<path fill="none" stroke="midnightblue" d="M629.283,-174.261C531.197,-168.5 323.002,-153.833 299,-132 283.117,-117.552 282.924,-89.7859 284.005,-75.6813"/>
<polygon fill="midnightblue" stroke="midnightblue" points="629.085,-177.756 639.27,-174.839 629.489,-170.767 629.085,-177.756"/>
</g>
<!-- Node14&#45;&gt;Node9 -->
<g id="edge19" class="edge"><title>Node14&#45;&gt;Node9</title>
<path fill="none" stroke="midnightblue" d="M666.265,-160.144C658.599,-150.736 649.367,-139.405 643.131,-131.751"/>
<polygon fill="midnightblue" stroke="midnightblue" points="663.704,-162.541 672.734,-168.083 669.131,-158.12 663.704,-162.541"/>
</g>
<!-- Node15 -->
<g id="node15" class="node"><title>Node15</title>
<g id="a_node15"><a xlink:href="splitSolver_8h.html" target="_top" xlink:title="src/splitSolver.h">
<polygon fill="white" stroke="red" points="752,-112.5 752,-131.5 836,-131.5 836,-112.5 752,-112.5"/>
<text text-anchor="middle" x="794" y="-119.5" font-family="FreeSans" font-size="10.00">src/splitSolver.h</text>
</a>
</g>
</g>
<!-- Node14&#45;&gt;Node15 -->
<g id="edge20" class="edge"><title>Node14&#45;&gt;Node15</title>
<path fill="none" stroke="midnightblue" d="M707.242,-164.096C728.54,-154.007 757.542,-140.27 776.021,-131.516"/>
<polygon fill="midnightblue" stroke="midnightblue" points="705.603,-161 698.064,-168.444 708.599,-167.326 705.603,-161"/>
</g>
<!-- Node16 -->
<g id="node16" class="node"><title>Node16</title>
<g id="a_node16"><a xlink:href="perfTimer_8cpp.html" target="_top" xlink:title="src/perfTimer.cpp">
<polygon fill="white" stroke="black" points="854,-112.5 854,-131.5 946,-131.5 946,-112.5 854,-112.5"/>
<text text-anchor="middle" x="900" y="-119.5" font-family="FreeSans" font-size="10.00">src/perfTimer.cpp</text>
</a>
</g>
</g>
<!-- Node14&#45;&gt;Node16 -->
<g id="edge23" class="edge"><title>Node14&#45;&gt;Node16</title>
<path fill="none" stroke="midnightblue" d="M724.718,-166.024C766.276,-155.823 827.313,-140.841 865.303,-131.516"/>
<polygon fill="midnightblue" stroke="midnightblue" points="723.737,-162.661 714.86,-168.444 725.406,-169.459 723.737,-162.661"/>
</g>
<!-- Node15&#45;&gt;Node5 -->
<g id="edge21" class="edge"><title>Node15&#45;&gt;Node5</title>
<path fill="none" stroke="midnightblue" d="M772.167,-106.622C757.187,-96.7574 737.803,-83.9919 725.142,-75.6545"/>
<polygon fill="midnightblue" stroke="midnightblue" points="770.549,-109.747 780.825,-112.324 774.399,-103.901 770.549,-109.747"/>
</g>
</g>
</svg>
