<?xml version="1.0" encoding="UTF-8" standalone="no"?>
<!DOCTYPE svg PUBLIC "-//W3C//DTD SVG 1.1//EN"
 "http://www.w3.org/Graphics/SVG/1.1/DTD/svg11.dtd">
<!-- Generated by graphviz version 8.1.0 (20230707.2238)
 -->
<!-- Title: src/convectionSystem.h Pages: 1 -->
<svg width="2646pt" height="338pt"
 viewBox="0.00 0.00 2645.81 338.00" xmlns="http://www.w3.org/2000/svg" xmlns:xlink="http://www.w3.org/1999/xlink">
<g id="graph0" class="graph" transform="scale(1 1) rotate(0) translate(4 334)">
<title>src/convectionSystem.h</title>
<!-- Node1 -->
<g id="Node000001" class="node">
<title>Node1</title>
<g id="a_Node000001"><a xlink:title=" ">
<polygon fill="#999999" stroke="#666666" points="544.43,-330 412.18,-330 412.18,-309.25 544.43,-309.25 544.43,-330"/>
<text text-anchor="middle" x="478.31" y="-316.5" font-family="FreeSans" font-size="10.00">src/convectionSystem.h</text>
</a>
</g>
</g>
<!-- Node2 -->
<g id="Node000002" class="node">
<title>Node2</title>
<g id="a_Node000002"><a xlink:href="mathUtils_8h.html" target="_top" xlink:title=" ">
<polygon fill="white" stroke="#666666" points="399.81,-147 326.81,-147 326.81,-126.25 399.81,-126.25 399.81,-147"/>
<text text-anchor="middle" x="363.31" y="-133.5" font-family="FreeSans" font-size="10.00">mathUtils.h</text>
</a>
</g>
</g>
<!-- Node1&#45;&gt;Node2 -->
<g id="edge1_Node000001_Node000002" class="edge">
<title>Node1&#45;&gt;Node2</title>
<g id="a_edge1_Node000001_Node000002"><a xlink:title=" ">
<path fill="none" stroke="#63b8ff" d="M472.13,-308.89C453.8,-280.04 399.52,-194.62 375.26,-156.44"/>
<polygon fill="#63b8ff" stroke="#63b8ff" points="377.84,-154.97 369.52,-148.4 371.93,-158.72 377.84,-154.97"/>
</a>
</g>
</g>
<!-- Node15 -->
<g id="Node000015" class="node">
<title>Node15</title>
<g id="a_Node000015"><a xlink:href="sundialsUtils_8h.html" target="_top" xlink:title=" ">
<polygon fill="white" stroke="#666666" points="1501.31,-147 1413.31,-147 1413.31,-126.25 1501.31,-126.25 1501.31,-147"/>
<text text-anchor="middle" x="1457.31" y="-133.5" font-family="FreeSans" font-size="10.00">sundialsUtils.h</text>
</a>
</g>
</g>
<!-- Node1&#45;&gt;Node15 -->
<g id="edge16_Node000001_Node000015" class="edge">
<title>Node1&#45;&gt;Node15</title>
<g id="a_edge16_Node000001_Node000015"><a xlink:title=" ">
<path fill="none" stroke="#63b8ff" d="M484.17,-308.79C495.1,-291.44 520.42,-255.74 552.31,-239.75 702.89,-164.24 1229.74,-143.68 1402.2,-138.91"/>
<polygon fill="#63b8ff" stroke="#63b8ff" points="1402.14,-142.38 1412.04,-138.62 1401.95,-135.39 1402.14,-142.38"/>
</a>
</g>
</g>
<!-- Node30 -->
<g id="Node000030" class="node">
<title>Node30</title>
<g id="a_Node000030"><a xlink:href="grid_8h.html" target="_top" xlink:title=" ">
<polygon fill="white" stroke="#666666" points="287.18,-266.88 243.43,-266.88 243.43,-246.12 287.18,-246.12 287.18,-266.88"/>
<text text-anchor="middle" x="265.31" y="-253.38" font-family="FreeSans" font-size="10.00">grid.h</text>
</a>
</g>
</g>
<!-- Node1&#45;&gt;Node30 -->
<g id="edge34_Node000001_Node000030" class="edge">
<title>Node1&#45;&gt;Node30</title>
<g id="a_edge34_Node000001_Node000030"><a xlink:title=" ">
<path fill="none" stroke="#63b8ff" d="M425.58,-308.77C388.73,-301.09 338.72,-289.08 296.31,-273.25 295.21,-272.84 294.09,-272.4 292.97,-271.94"/>
<polygon fill="#63b8ff" stroke="#63b8ff" points="294.58,-268.36 284.03,-267.37 291.66,-274.72 294.58,-268.36"/>
</a>
</g>
</g>
<!-- Node32 -->
<g id="Node000032" class="node">
<title>Node32</title>
<g id="a_Node000032"><a xlink:href="perfTimer_8h.html" target="_top" xlink:title=" ">
<polygon fill="white" stroke="#666666" points="2520.43,-203.75 2448.18,-203.75 2448.18,-183 2520.43,-183 2520.43,-203.75"/>
<text text-anchor="middle" x="2484.31" y="-190.25" font-family="FreeSans" font-size="10.00">perfTimer.h</text>
</a>
</g>
</g>
<!-- Node1&#45;&gt;Node32 -->
<g id="edge38_Node000001_Node000032" class="edge">
<title>Node1&#45;&gt;Node32</title>
<g id="a_edge38_Node000001_Node000032"><a xlink:title=" ">
<path fill="none" stroke="#63b8ff" d="M495.4,-308.88C510.63,-300.02 533.36,-286.38 552.31,-273.25 572.22,-259.45 572.49,-247.9 595.31,-239.75 684.63,-207.86 2154.42,-196.56 2437.39,-194.67"/>
<polygon fill="#63b8ff" stroke="#63b8ff" points="2437.11,-198.17 2447.09,-194.6 2437.06,-191.17 2437.11,-198.17"/>
</a>
</g>
</g>
<!-- Node41 -->
<g id="Node000041" class="node">
<title>Node41</title>
<g id="a_Node000041"><a xlink:href="quasi2d_8h.html" target="_top" xlink:title=" ">
<polygon fill="white" stroke="#666666" points="509.93,-203.75 446.68,-203.75 446.68,-183 509.93,-183 509.93,-203.75"/>
<text text-anchor="middle" x="478.31" y="-190.25" font-family="FreeSans" font-size="10.00">quasi2d.h</text>
</a>
</g>
</g>
<!-- Node1&#45;&gt;Node41 -->
<g id="edge44_Node000001_Node000041" class="edge">
<title>Node1&#45;&gt;Node41</title>
<g id="a_edge44_Node000001_Node000041"><a xlink:title=" ">
<path fill="none" stroke="#63b8ff" d="M478.31,-308.88C478.31,-288.73 478.31,-242.15 478.31,-215.01"/>
<polygon fill="#63b8ff" stroke="#63b8ff" points="481.81,-215.08 478.31,-205.08 474.81,-215.08 481.81,-215.08"/>
</a>
</g>
</g>
<!-- Node42 -->
<g id="Node000042" class="node">
<title>Node42</title>
<g id="a_Node000042"><a xlink:href="scalarFunction_8h.html" target="_top" xlink:title=" ">
<polygon fill="white" stroke="#666666" points="401.06,-266.88 305.56,-266.88 305.56,-246.12 401.06,-246.12 401.06,-266.88"/>
<text text-anchor="middle" x="353.31" y="-253.38" font-family="FreeSans" font-size="10.00">scalarFunction.h</text>
</a>
</g>
</g>
<!-- Node1&#45;&gt;Node42 -->
<g id="edge47_Node000001_Node000042" class="edge">
<title>Node1&#45;&gt;Node42</title>
<g id="a_edge47_Node000001_Node000042"><a xlink:title=" ">
<path fill="none" stroke="#63b8ff" d="M458.23,-308.8C437.91,-298.87 406.26,-283.39 383.04,-272.04"/>
<polygon fill="#63b8ff" stroke="#63b8ff" points="384.86,-268.55 374.34,-267.3 381.79,-274.83 384.86,-268.55"/>
</a>
</g>
</g>
<!-- Node43 -->
<g id="Node000043" class="node">
<title>Node43</title>
<g id="a_Node000043"><a xlink:title=" ">
<polygon fill="#e0e0e0" stroke="#999999" points="714.56,-273.25 604.06,-273.25 604.06,-239.75 714.56,-239.75 714.56,-273.25"/>
<text text-anchor="start" x="612.06" y="-259.75" font-family="FreeSans" font-size="10.00">boost/ptr_container</text>
<text text-anchor="middle" x="659.31" y="-247" font-family="FreeSans" font-size="10.00">/ptr_vector.hpp</text>
</a>
</g>
</g>
<!-- Node1&#45;&gt;Node43 -->
<g id="edge49_Node000001_Node000043" class="edge">
<title>Node1&#45;&gt;Node43</title>
<g id="a_edge49_Node000001_Node000043"><a xlink:title=" ">
<path fill="none" stroke="#63b8ff" d="M507.39,-308.8C532.53,-300.31 569.64,-287.78 600.89,-277.23"/>
<polygon fill="#63b8ff" stroke="#63b8ff" points="601.88,-280.25 610.24,-273.73 599.64,-273.62 601.88,-280.25"/>
</a>
</g>
</g>
<!-- Node3 -->
<g id="Node000003" class="node">
<title>Node3</title>
<g id="a_Node000003"><a xlink:title=" ">
<polygon fill="#e0e0e0" stroke="#999999" points="557.68,-83.88 510.93,-83.88 510.93,-63.12 557.68,-63.12 557.68,-83.88"/>
<text text-anchor="middle" x="534.31" y="-70.38" font-family="FreeSans" font-size="10.00">vector</text>
</a>
</g>
</g>
<!-- Node2&#45;&gt;Node3 -->
<g id="edge2_Node000002_Node000003" class="edge">
<title>Node2&#45;&gt;Node3</title>
<g id="a_edge2_Node000002_Node000003"><a xlink:title=" ">
<path fill="none" stroke="#63b8ff" d="M398.07,-125.77C426.49,-117.36 467.51,-104.41 502.31,-90.25 503.4,-89.81 504.5,-89.34 505.61,-88.86"/>
<polygon fill="#63b8ff" stroke="#63b8ff" points="506.94,-91.64 514.56,-84.28 504.01,-85.29 506.94,-91.64"/>
</a>
</g>
</g>
<!-- Node4 -->
<g id="Node000004" class="node">
<title>Node4</title>
<g id="a_Node000004"><a xlink:title=" ">
<polygon fill="#e0e0e0" stroke="#999999" points="437.68,-83.88 390.93,-83.88 390.93,-63.12 437.68,-63.12 437.68,-83.88"/>
<text text-anchor="middle" x="414.31" y="-70.38" font-family="FreeSans" font-size="10.00">cmath</text>
</a>
</g>
</g>
<!-- Node2&#45;&gt;Node4 -->
<g id="edge3_Node000002_Node000004" class="edge">
<title>Node2&#45;&gt;Node4</title>
<g id="a_edge3_Node000002_Node000004"><a xlink:title=" ">
<path fill="none" stroke="#63b8ff" d="M371.5,-125.8C378.98,-116.84 390.22,-103.37 399.31,-92.48"/>
<polygon fill="#63b8ff" stroke="#63b8ff" points="402.58,-95.02 406.3,-85.09 397.21,-90.53 402.58,-95.02"/>
</a>
</g>
</g>
<!-- Node5 -->
<g id="Node000005" class="node">
<title>Node5</title>
<g id="a_Node000005"><a xlink:title=" ">
<polygon fill="#e0e0e0" stroke="#999999" points="496.06,-20.75 436.56,-20.75 436.56,0 496.06,0 496.06,-20.75"/>
<text text-anchor="middle" x="466.31" y="-7.25" font-family="FreeSans" font-size="10.00">iostream</text>
</a>
</g>
</g>
<!-- Node2&#45;&gt;Node5 -->
<g id="edge4_Node000002_Node000005" class="edge">
<title>Node2&#45;&gt;Node5</title>
<g id="a_edge4_Node000002_Node000005"><a xlink:title=" ">
<path fill="none" stroke="#63b8ff" d="M363.21,-125.82C363.54,-109.74 366.33,-77.51 382.31,-56.75 393.34,-42.42 410.22,-32.06 425.97,-24.89"/>
<polygon fill="#63b8ff" stroke="#63b8ff" points="427.22,-27.74 435.08,-20.64 424.51,-21.29 427.22,-27.74"/>
</a>
</g>
</g>
<!-- Node6 -->
<g id="Node000006" class="node">
<title>Node6</title>
<g id="a_Node000006"><a xlink:title=" ">
<polygon fill="#e0e0e0" stroke="#999999" points="71.18,-83.88 15.43,-83.88 15.43,-63.12 71.18,-63.12 71.18,-83.88"/>
<text text-anchor="middle" x="43.31" y="-70.38" font-family="FreeSans" font-size="10.00">sstream</text>
</a>
</g>
</g>
<!-- Node2&#45;&gt;Node6 -->
<g id="edge5_Node000002_Node000006" class="edge">
<title>Node2&#45;&gt;Node6</title>
<g id="a_edge5_Node000002_Node000006"><a xlink:title=" ">
<path fill="none" stroke="#63b8ff" d="M326.5,-132.61C271.9,-127.48 166.61,-115.13 80.31,-90.25 78.16,-89.63 75.97,-88.92 73.78,-88.15"/>
<polygon fill="#63b8ff" stroke="#63b8ff" points="75.32,-84.6 64.73,-84.24 72.78,-91.13 75.32,-84.6"/>
</a>
</g>
</g>
<!-- Node7 -->
<g id="Node000007" class="node">
<title>Node7</title>
<g id="a_Node000007"><a xlink:title=" ">
<polygon fill="#e0e0e0" stroke="#999999" points="146.18,-20.75 102.43,-20.75 102.43,0 146.18,0 146.18,-20.75"/>
<text text-anchor="middle" x="124.31" y="-7.25" font-family="FreeSans" font-size="10.00">string</text>
</a>
</g>
</g>
<!-- Node2&#45;&gt;Node7 -->
<g id="edge6_Node000002_Node000007" class="edge">
<title>Node2&#45;&gt;Node7</title>
<g id="a_edge6_Node000002_Node000007"><a xlink:title=" ">
<path fill="none" stroke="#63b8ff" d="M329.66,-125.78C305.93,-118.03 273.94,-105.93 248.31,-90.25 229.11,-78.5 228.84,-69.54 210.31,-56.75 193.28,-45 172.84,-34.1 156.17,-25.93"/>
<polygon fill="#63b8ff" stroke="#63b8ff" points="157.86,-22.38 147.33,-21.21 154.84,-28.69 157.86,-22.38"/>
</a>
</g>
</g>
<!-- Node8 -->
<g id="Node000008" class="node">
<title>Node8</title>
<g id="a_Node000008"><a xlink:title=" ">
<polygon fill="#e0e0e0" stroke="#999999" points="493.18,-83.88 455.43,-83.88 455.43,-63.12 493.18,-63.12 493.18,-83.88"/>
<text text-anchor="middle" x="474.31" y="-70.38" font-family="FreeSans" font-size="10.00">map</text>
</a>
</g>
</g>
<!-- Node2&#45;&gt;Node8 -->
<g id="edge7_Node000002_Node000008" class="edge">
<title>Node2&#45;&gt;Node8</title>
<g id="a_edge7_Node000002_Node000008"><a xlink:title=" ">
<path fill="none" stroke="#63b8ff" d="M381.48,-125.77C398.32,-116.63 424.05,-102.6 446.31,-90.25 446.63,-90.07 446.95,-89.89 447.28,-89.71"/>
<polygon fill="#63b8ff" stroke="#63b8ff" points="448.83,-92.3 455.85,-84.36 445.42,-86.19 448.83,-92.3"/>
</a>
</g>
</g>
<!-- Node9 -->
<g id="Node000009" class="node">
<title>Node9</title>
<g id="a_Node000009"><a xlink:href="debugUtils_8h.html" target="_top" xlink:title=" ">
<polygon fill="white" stroke="#666666" points="335.06,-83.88 257.56,-83.88 257.56,-63.12 335.06,-63.12 335.06,-83.88"/>
<text text-anchor="middle" x="296.31" y="-70.38" font-family="FreeSans" font-size="10.00">debugUtils.h</text>
</a>
</g>
</g>
<!-- Node2&#45;&gt;Node9 -->
<g id="edge8_Node000002_Node000009" class="edge">
<title>Node2&#45;&gt;Node9</title>
<g id="a_edge8_Node000002_Node000009"><a xlink:title=" ">
<path fill="none" stroke="#63b8ff" d="M352.54,-125.8C342.42,-116.57 327.06,-102.56 314.95,-91.51"/>
<polygon fill="#63b8ff" stroke="#63b8ff" points="317.57,-89.25 307.83,-85.09 312.85,-94.42 317.57,-89.25"/>
</a>
</g>
</g>
<!-- Node13 -->
<g id="Node000013" class="node">
<title>Node13</title>
<g id="a_Node000013"><a xlink:title=" ">
<polygon fill="#e0e0e0" stroke="#999999" points="702.43,-83.88 576.18,-83.88 576.18,-63.12 702.43,-63.12 702.43,-83.88"/>
<text text-anchor="middle" x="639.31" y="-70.38" font-family="FreeSans" font-size="10.00">cantera/base/ct_defs.h</text>
</a>
</g>
</g>
<!-- Node2&#45;&gt;Node13 -->
<g id="edge14_Node000002_Node000013" class="edge">
<title>Node2&#45;&gt;Node13</title>
<g id="a_edge14_Node000002_Node000013"><a xlink:title=" ">
<path fill="none" stroke="#63b8ff" d="M400.25,-127.44C447.48,-116.98 529.68,-98.78 584.3,-86.68"/>
<polygon fill="#63b8ff" stroke="#63b8ff" points="584.83,-89.93 593.83,-84.35 583.31,-83.1 584.83,-89.93"/>
</a>
</g>
</g>
<!-- Node14 -->
<g id="Node000014" class="node">
<title>Node14</title>
<g id="a_Node000014"><a xlink:title=" ">
<polygon fill="#e0e0e0" stroke="#999999" points="201.68,-83.88 88.93,-83.88 88.93,-63.12 201.68,-63.12 201.68,-83.88"/>
<text text-anchor="middle" x="145.31" y="-70.38" font-family="FreeSans" font-size="10.00">eigen3/Eigen/Dense</text>
</a>
</g>
</g>
<!-- Node2&#45;&gt;Node14 -->
<g id="edge15_Node000002_Node000014" class="edge">
<title>Node2&#45;&gt;Node14</title>
<g id="a_edge15_Node000002_Node000014"><a xlink:title=" ">
<path fill="none" stroke="#63b8ff" d="M328.28,-125.8C290.94,-115.33 231.66,-98.71 190.75,-87.24"/>
<polygon fill="#63b8ff" stroke="#63b8ff" points="191.82,-83.63 181.25,-84.3 189.93,-90.37 191.82,-83.63"/>
</a>
</g>
</g>
<!-- Node9&#45;&gt;Node5 -->
<g id="edge10_Node000009_Node000005" class="edge">
<title>Node9&#45;&gt;Node5</title>
<g id="a_edge10_Node000009_Node000005"><a xlink:title=" ">
<path fill="none" stroke="#63b8ff" d="M323.62,-62.68C352.12,-52.43 397.01,-36.29 428.82,-24.85"/>
<polygon fill="#63b8ff" stroke="#63b8ff" points="429.84,-27.85 438.06,-21.17 427.47,-21.26 429.84,-27.85"/>
</a>
</g>
</g>
<!-- Node9&#45;&gt;Node7 -->
<g id="edge9_Node000009_Node000007" class="edge">
<title>Node9&#45;&gt;Node7</title>
<g id="a_edge9_Node000009_Node000007"><a xlink:title=" ">
<path fill="none" stroke="#63b8ff" d="M268.67,-62.68C238.22,-51.86 189.26,-34.46 156.94,-22.97"/>
<polygon fill="#63b8ff" stroke="#63b8ff" points="158.26,-19.37 147.67,-19.32 155.92,-25.97 158.26,-19.37"/>
</a>
</g>
</g>
<!-- Node10 -->
<g id="Node000010" class="node">
<title>Node10</title>
<g id="a_Node000010"><a xlink:title=" ">
<polygon fill="#e0e0e0" stroke="#999999" points="418.43,-20.75 364.18,-20.75 364.18,0 418.43,0 418.43,-20.75"/>
<text text-anchor="middle" x="391.31" y="-7.25" font-family="FreeSans" font-size="10.00">fstream</text>
</a>
</g>
</g>
<!-- Node9&#45;&gt;Node10 -->
<g id="edge11_Node000009_Node000010" class="edge">
<title>Node9&#45;&gt;Node10</title>
<g id="a_edge11_Node000009_Node000010"><a xlink:title=" ">
<path fill="none" stroke="#63b8ff" d="M311.57,-62.68C326.53,-53.05 349.56,-38.23 367.04,-26.99"/>
<polygon fill="#63b8ff" stroke="#63b8ff" points="368.57,-29.53 375.08,-21.17 364.78,-23.64 368.57,-29.53"/>
</a>
</g>
</g>
<!-- Node11 -->
<g id="Node000011" class="node">
<title>Node11</title>
<g id="a_Node000011"><a xlink:title=" ">
<polygon fill="#e0e0e0" stroke="#999999" points="228.31,-20.75 164.31,-20.75 164.31,0 228.31,0 228.31,-20.75"/>
<text text-anchor="middle" x="196.31" y="-7.25" font-family="FreeSans" font-size="10.00">exception</text>
</a>
</g>
</g>
<!-- Node9&#45;&gt;Node11 -->
<g id="edge12_Node000009_Node000011" class="edge">
<title>Node9&#45;&gt;Node11</title>
<g id="a_edge12_Node000009_Node000011"><a xlink:title=" ">
<path fill="none" stroke="#63b8ff" d="M280.24,-62.68C264.42,-53.01 240.03,-38.1 221.6,-26.84"/>
<polygon fill="#63b8ff" stroke="#63b8ff" points="223.69,-23.4 213.34,-21.17 220.04,-29.37 223.69,-23.4"/>
</a>
</g>
</g>
<!-- Node12 -->
<g id="Node000012" class="node">
<title>Node12</title>
<g id="a_Node000012"><a xlink:title=" ">
<polygon fill="#e0e0e0" stroke="#999999" points="346.31,-20.75 246.31,-20.75 246.31,0 346.31,0 346.31,-20.75"/>
<text text-anchor="middle" x="296.31" y="-7.25" font-family="FreeSans" font-size="10.00">boost/format.hpp</text>
</a>
</g>
</g>
<!-- Node9&#45;&gt;Node12 -->
<g id="edge13_Node000009_Node000012" class="edge">
<title>Node9&#45;&gt;Node12</title>
<g id="a_edge13_Node000009_Node000012"><a xlink:title=" ">
<path fill="none" stroke="#63b8ff" d="M296.31,-62.68C296.31,-54.34 296.31,-42.11 296.31,-31.68"/>
<polygon fill="#63b8ff" stroke="#63b8ff" points="299.81,-31.97 296.31,-21.97 292.81,-31.97 299.81,-31.97"/>
</a>
</g>
</g>
<!-- Node15&#45;&gt;Node3 -->
<g id="edge32_Node000015_Node000003" class="edge">
<title>Node15&#45;&gt;Node3</title>
<g id="a_edge32_Node000015_Node000003"><a xlink:title=" ">
<path fill="none" stroke="#63b8ff" d="M1412.97,-135.66C1256.37,-135.41 730.03,-131.47 567.31,-90.25 565.32,-89.75 563.32,-89.12 561.32,-88.41"/>
<polygon fill="#63b8ff" stroke="#63b8ff" points="563.21,-84.99 552.64,-84.34 560.5,-91.44 563.21,-84.99"/>
</a>
</g>
</g>
<!-- Node15&#45;&gt;Node5 -->
<g id="edge31_Node000015_Node000005" class="edge">
<title>Node15&#45;&gt;Node5</title>
<g id="a_edge31_Node000015_Node000005"><a xlink:title=" ">
<path fill="none" stroke="#63b8ff" d="M1412.84,-134.44C1267.21,-130.35 810.39,-115.59 749.31,-90.25 728.51,-81.62 731.55,-66.6 711.31,-56.75 644.59,-24.29 557.29,-14.96 506.94,-12.33"/>
<polygon fill="#63b8ff" stroke="#63b8ff" points="507.32,-8.8 497.17,-11.84 507.01,-15.79 507.32,-8.8"/>
</a>
</g>
</g>
<!-- Node15&#45;&gt;Node13 -->
<g id="edge23_Node000015_Node000013" class="edge">
<title>Node15&#45;&gt;Node13</title>
<g id="a_edge23_Node000015_Node000013"><a xlink:title=" ">
<path fill="none" stroke="#63b8ff" d="M1412.83,-135.08C1297.39,-133.19 978.89,-124.97 716.31,-90.25 708.59,-89.23 700.49,-87.88 692.55,-86.4"/>
<polygon fill="#63b8ff" stroke="#63b8ff" points="693.38,-82.8 682.89,-84.32 692.04,-89.67 693.38,-82.8"/>
</a>
</g>
</g>
<!-- Node16 -->
<g id="Node000016" class="node">
<title>Node16</title>
<g id="a_Node000016"><a xlink:href="config_8h.html" target="_top" xlink:title=" ">
<polygon fill="white" stroke="#666666" points="2546.43,-83.88 2492.18,-83.88 2492.18,-63.12 2546.43,-63.12 2546.43,-83.88"/>
<text text-anchor="middle" x="2519.31" y="-70.38" font-family="FreeSans" font-size="10.00">config.h</text>
</a>
</g>
</g>
<!-- Node15&#45;&gt;Node16 -->
<g id="edge17_Node000015_Node000016" class="edge">
<title>Node15&#45;&gt;Node16</title>
<g id="a_edge17_Node000015_Node000016"><a xlink:title=" ">
<path fill="none" stroke="#63b8ff" d="M1501.72,-135.82C1673.26,-136.24 2292.49,-134.59 2483.31,-90.25 2485.63,-89.71 2487.99,-89.03 2490.33,-88.24"/>
<polygon fill="#63b8ff" stroke="#63b8ff" points="2491.28,-91.24 2499.33,-84.36 2488.74,-84.72 2491.28,-91.24"/>
</a>
</g>
</g>
<!-- Node17 -->
<g id="Node000017" class="node">
<title>Node17</title>
<g id="a_Node000017"><a xlink:title=" ">
<polygon fill="#e0e0e0" stroke="#999999" points="1288.18,-83.88 1154.43,-83.88 1154.43,-63.12 1288.18,-63.12 1288.18,-83.88"/>
<text text-anchor="middle" x="1221.31" y="-70.38" font-family="FreeSans" font-size="10.00">nvector/nvector_serial.h</text>
</a>
</g>
</g>
<!-- Node15&#45;&gt;Node17 -->
<g id="edge18_Node000015_Node000017" class="edge">
<title>Node15&#45;&gt;Node17</title>
<g id="a_edge18_Node000015_Node000017"><a xlink:title=" ">
<path fill="none" stroke="#63b8ff" d="M1419.39,-125.8C1378.71,-115.27 1313.97,-98.5 1269.65,-87.02"/>
<polygon fill="#63b8ff" stroke="#63b8ff" points="1270.69,-83.42 1260.13,-84.3 1268.94,-90.19 1270.69,-83.42"/>
</a>
</g>
</g>
<!-- Node18 -->
<g id="Node000018" class="node">
<title>Node18</title>
<g id="a_Node000018"><a xlink:title=" ">
<polygon fill="#e0e0e0" stroke="#999999" points="1450.06,-83.88 1306.56,-83.88 1306.56,-63.12 1450.06,-63.12 1450.06,-83.88"/>
<text text-anchor="middle" x="1378.31" y="-70.38" font-family="FreeSans" font-size="10.00">sundials/sundials_dense.h</text>
</a>
</g>
</g>
<!-- Node15&#45;&gt;Node18 -->
<g id="edge19_Node000015_Node000018" class="edge">
<title>Node15&#45;&gt;Node18</title>
<g id="a_edge19_Node000015_Node000018"><a xlink:title=" ">
<path fill="none" stroke="#63b8ff" d="M1444.62,-125.8C1432.41,-116.36 1413.73,-101.91 1399.31,-90.75"/>
<polygon fill="#63b8ff" stroke="#63b8ff" points="1402.02,-87.65 1391.97,-84.3 1397.74,-93.18 1402.02,-87.65"/>
</a>
</g>
</g>
<!-- Node19 -->
<g id="Node000019" class="node">
<title>Node19</title>
<g id="a_Node000019"><a xlink:title=" ">
<polygon fill="#e0e0e0" stroke="#999999" points="1606.43,-83.88 1468.18,-83.88 1468.18,-63.12 1606.43,-63.12 1606.43,-83.88"/>
<text text-anchor="middle" x="1537.31" y="-70.38" font-family="FreeSans" font-size="10.00">sundials/sundials_band.h</text>
</a>
</g>
</g>
<!-- Node15&#45;&gt;Node19 -->
<g id="edge20_Node000015_Node000019" class="edge">
<title>Node15&#45;&gt;Node19</title>
<g id="a_edge20_Node000015_Node000019"><a xlink:title=" ">
<path fill="none" stroke="#63b8ff" d="M1470.16,-125.8C1482.53,-116.36 1501.44,-101.91 1516.05,-90.75"/>
<polygon fill="#63b8ff" stroke="#63b8ff" points="1517.67,-93.15 1523.49,-84.3 1513.42,-87.59 1517.67,-93.15"/>
</a>
</g>
</g>
<!-- Node20 -->
<g id="Node000020" class="node">
<title>Node20</title>
<g id="a_Node000020"><a xlink:title=" ">
<polygon fill="#e0e0e0" stroke="#999999" points="1765.93,-83.88 1624.68,-83.88 1624.68,-63.12 1765.93,-63.12 1765.93,-83.88"/>
<text text-anchor="middle" x="1695.31" y="-70.38" font-family="FreeSans" font-size="10.00">sundials/sundials_types.h</text>
</a>
</g>
</g>
<!-- Node15&#45;&gt;Node20 -->
<g id="edge21_Node000015_Node000020" class="edge">
<title>Node15&#45;&gt;Node20</title>
<g id="a_edge21_Node000015_Node000020"><a xlink:title=" ">
<path fill="none" stroke="#63b8ff" d="M1495.55,-125.8C1536.58,-115.27 1601.86,-98.5 1646.56,-87.02"/>
<polygon fill="#63b8ff" stroke="#63b8ff" points="1647.35,-90.17 1656.17,-84.3 1645.61,-83.39 1647.35,-90.17"/>
</a>
</g>
</g>
<!-- Node21 -->
<g id="Node000021" class="node">
<title>Node21</title>
<g id="a_Node000021"><a xlink:title=" ">
<polygon fill="#e0e0e0" stroke="#999999" points="1870.56,-83.88 1784.06,-83.88 1784.06,-63.12 1870.56,-63.12 1870.56,-83.88"/>
<text text-anchor="middle" x="1827.31" y="-70.38" font-family="FreeSans" font-size="10.00">cvode/cvode.h</text>
</a>
</g>
</g>
<!-- Node15&#45;&gt;Node21 -->
<g id="edge22_Node000015_Node000021" class="edge">
<title>Node15&#45;&gt;Node21</title>
<g id="a_edge22_Node000015_Node000021"><a xlink:title=" ">
<path fill="none" stroke="#63b8ff" d="M1501.67,-131.45C1563.49,-125.15 1678.8,-111.62 1775.31,-90.25 1779.17,-89.39 1783.17,-88.4 1787.15,-87.32"/>
<polygon fill="#63b8ff" stroke="#63b8ff" points="1787.88,-90.47 1796.54,-84.37 1785.97,-83.74 1787.88,-90.47"/>
</a>
</g>
</g>
<!-- Node22 -->
<g id="Node000022" class="node">
<title>Node22</title>
<g id="a_Node000022"><a xlink:title=" ">
<polygon fill="#e0e0e0" stroke="#999999" points="2018.31,-83.88 1888.31,-83.88 1888.31,-63.12 2018.31,-63.12 2018.31,-83.88"/>
<text text-anchor="middle" x="1953.31" y="-70.38" font-family="FreeSans" font-size="10.00">cvodes/cvodes_direct.h</text>
</a>
</g>
</g>
<!-- Node15&#45;&gt;Node22 -->
<g id="edge24_Node000015_Node000022" class="edge">
<title>Node15&#45;&gt;Node22</title>
<g id="a_edge24_Node000015_Node000022"><a xlink:title=" ">
<path fill="none" stroke="#63b8ff" d="M1501.55,-132.37C1578.61,-126.37 1742.33,-112.13 1879.31,-90.25 1886.19,-89.15 1893.4,-87.83 1900.51,-86.43"/>
<polygon fill="#63b8ff" stroke="#63b8ff" points="1900.7,-89.76 1909.8,-84.33 1899.3,-82.9 1900.7,-89.76"/>
</a>
</g>
</g>
<!-- Node23 -->
<g id="Node000023" class="node">
<title>Node23</title>
<g id="a_Node000023"><a xlink:title=" ">
<polygon fill="#e0e0e0" stroke="#999999" points="2160.68,-83.88 2035.93,-83.88 2035.93,-63.12 2160.68,-63.12 2160.68,-83.88"/>
<text text-anchor="middle" x="2098.31" y="-70.38" font-family="FreeSans" font-size="10.00">cvodes/cvodes_spils.h</text>
</a>
</g>
</g>
<!-- Node15&#45;&gt;Node23 -->
<g id="edge25_Node000015_Node000023" class="edge">
<title>Node15&#45;&gt;Node23</title>
<g id="a_edge25_Node000015_Node000023"><a xlink:title=" ">
<path fill="none" stroke="#63b8ff" d="M1501.53,-134.2C1597.66,-130.63 1832.68,-119.44 2027.31,-90.25 2034.03,-89.24 2041.06,-87.96 2047.98,-86.57"/>
<polygon fill="#63b8ff" stroke="#63b8ff" points="2048.62,-89.8 2057.69,-84.31 2047.18,-82.95 2048.62,-89.8"/>
</a>
</g>
</g>
<!-- Node24 -->
<g id="Node000024" class="node">
<title>Node24</title>
<g id="a_Node000024"><a xlink:title=" ">
<polygon fill="#e0e0e0" stroke="#999999" points="2284.31,-90.25 2178.31,-90.25 2178.31,-56.75 2284.31,-56.75 2284.31,-90.25"/>
<text text-anchor="start" x="2186.31" y="-76.75" font-family="FreeSans" font-size="10.00">sunlinsol/sunlinsol</text>
<text text-anchor="middle" x="2231.31" y="-64" font-family="FreeSans" font-size="10.00">_dense.h</text>
</a>
</g>
</g>
<!-- Node15&#45;&gt;Node24 -->
<g id="edge26_Node000015_Node000024" class="edge">
<title>Node15&#45;&gt;Node24</title>
<g id="a_edge26_Node000015_Node000024"><a xlink:title=" ">
<path fill="none" stroke="#63b8ff" d="M1501.78,-135.64C1612.75,-135.07 1910.8,-129.8 2167.36,-90.37"/>
<polygon fill="#63b8ff" stroke="#63b8ff" points="2167.66,-93.71 2177,-88.71 2166.59,-86.79 2167.66,-93.71"/>
</a>
</g>
</g>
<!-- Node25 -->
<g id="Node000025" class="node">
<title>Node25</title>
<g id="a_Node000025"><a xlink:title=" ">
<polygon fill="#e0e0e0" stroke="#999999" points="2408.31,-90.25 2302.31,-90.25 2302.31,-56.75 2408.31,-56.75 2408.31,-90.25"/>
<text text-anchor="start" x="2310.31" y="-76.75" font-family="FreeSans" font-size="10.00">sunlinsol/sunlinsol</text>
<text text-anchor="middle" x="2355.31" y="-64" font-family="FreeSans" font-size="10.00">_band.h</text>
</a>
</g>
</g>
<!-- Node15&#45;&gt;Node25 -->
<g id="edge27_Node000015_Node000025" class="edge">
<title>Node15&#45;&gt;Node25</title>
<g id="a_edge27_Node000015_Node000025"><a xlink:title=" ">
<path fill="none" stroke="#63b8ff" d="M1501.58,-136.24C1625.24,-137.31 1984.8,-136.07 2291.14,-90.38"/>
<polygon fill="#63b8ff" stroke="#63b8ff" points="2291.65,-93.7 2301.01,-88.74 2290.6,-86.77 2291.65,-93.7"/>
</a>
</g>
</g>
<!-- Node26 -->
<g id="Node000026" class="node">
<title>Node26</title>
<g id="a_Node000026"><a xlink:title=" ">
<polygon fill="#e0e0e0" stroke="#999999" points="864.31,-90.25 758.31,-90.25 758.31,-56.75 864.31,-56.75 864.31,-90.25"/>
<text text-anchor="start" x="766.31" y="-76.75" font-family="FreeSans" font-size="10.00">sunlinsol/sunlinsol</text>
<text text-anchor="middle" x="811.31" y="-64" font-family="FreeSans" font-size="10.00">_spgmr.h</text>
</a>
</g>
</g>
<!-- Node15&#45;&gt;Node26 -->
<g id="edge28_Node000015_Node000026" class="edge">
<title>Node15&#45;&gt;Node26</title>
<g id="a_edge28_Node000015_Node000026"><a xlink:title=" ">
<path fill="none" stroke="#63b8ff" d="M1413.04,-134.77C1316.79,-132.35 1081.23,-123.43 875.33,-90.4"/>
<polygon fill="#63b8ff" stroke="#63b8ff" points="876.05,-86.81 865.62,-88.66 874.93,-93.72 876.05,-86.81"/>
</a>
</g>
</g>
<!-- Node27 -->
<g id="Node000027" class="node">
<title>Node27</title>
<g id="a_Node000027"><a xlink:title=" ">
<polygon fill="#e0e0e0" stroke="#999999" points="1000.31,-90.25 882.31,-90.25 882.31,-56.75 1000.31,-56.75 1000.31,-90.25"/>
<text text-anchor="start" x="890.31" y="-76.75" font-family="FreeSans" font-size="10.00">sunmatrix/sunmatrix</text>
<text text-anchor="middle" x="941.31" y="-64" font-family="FreeSans" font-size="10.00">_dense.h</text>
</a>
</g>
</g>
<!-- Node15&#45;&gt;Node27 -->
<g id="edge29_Node000015_Node000027" class="edge">
<title>Node15&#45;&gt;Node27</title>
<g id="a_edge29_Node000015_Node000027"><a xlink:title=" ">
<path fill="none" stroke="#63b8ff" d="M1412.87,-133C1333.92,-127.92 1163.9,-115.16 1011.07,-90.41"/>
<polygon fill="#63b8ff" stroke="#63b8ff" points="1011.99,-86.86 1001.56,-88.69 1010.86,-93.76 1011.99,-86.86"/>
</a>
</g>
</g>
<!-- Node28 -->
<g id="Node000028" class="node">
<title>Node28</title>
<g id="a_Node000028"><a xlink:title=" ">
<polygon fill="#e0e0e0" stroke="#999999" points="1136.31,-90.25 1018.31,-90.25 1018.31,-56.75 1136.31,-56.75 1136.31,-90.25"/>
<text text-anchor="start" x="1026.31" y="-76.75" font-family="FreeSans" font-size="10.00">sunmatrix/sunmatrix</text>
<text text-anchor="middle" x="1077.31" y="-64" font-family="FreeSans" font-size="10.00">_band.h</text>
</a>
</g>
</g>
<!-- Node15&#45;&gt;Node28 -->
<g id="edge30_Node000015_Node000028" class="edge">
<title>Node15&#45;&gt;Node28</title>
<g id="a_edge30_Node000015_Node000028"><a xlink:title=" ">
<path fill="none" stroke="#63b8ff" d="M1412.94,-130.35C1354.34,-123.13 1247.72,-109.09 1147.23,-90.52"/>
<polygon fill="#63b8ff" stroke="#63b8ff" points="1148.06,-86.93 1137.59,-88.54 1146.77,-93.81 1148.06,-86.93"/>
</a>
</g>
</g>
<!-- Node29 -->
<g id="Node000029" class="node">
<title>Node29</title>
<g id="a_Node000029"><a xlink:title=" ">
<polygon fill="#e0e0e0" stroke="#999999" points="2474.06,-83.88 2426.56,-83.88 2426.56,-63.12 2474.06,-63.12 2474.06,-83.88"/>
<text text-anchor="middle" x="2450.31" y="-70.38" font-family="FreeSans" font-size="10.00">time.h</text>
</a>
</g>
</g>
<!-- Node15&#45;&gt;Node29 -->
<g id="edge33_Node000015_Node000029" class="edge">
<title>Node15&#45;&gt;Node29</title>
<g id="a_edge33_Node000015_Node000029"><a xlink:title=" ">
<path fill="none" stroke="#63b8ff" d="M1501.69,-135.85C1666.17,-136.32 2240.52,-134.69 2417.31,-90.25 2419.29,-89.75 2421.3,-89.13 2423.3,-88.42"/>
<polygon fill="#63b8ff" stroke="#63b8ff" points="2424.12,-91.45 2431.98,-84.35 2421.41,-85 2424.12,-91.45"/>
</a>
</g>
</g>
<!-- Node31 -->
<g id="Node000031" class="node">
<title>Node31</title>
<g id="a_Node000031"><a xlink:href="readConfig_8h.html" target="_top" xlink:title=" ">
<polygon fill="white" stroke="#666666" points="304.06,-203.75 226.56,-203.75 226.56,-183 304.06,-183 304.06,-203.75"/>
<text text-anchor="middle" x="265.31" y="-190.25" font-family="FreeSans" font-size="10.00">readConfig.h</text>
</a>
</g>
</g>
<!-- Node30&#45;&gt;Node31 -->
<g id="edge35_Node000030_Node000031" class="edge">
<title>Node30&#45;&gt;Node31</title>
<g id="a_edge35_Node000030_Node000031"><a xlink:title=" ">
<path fill="none" stroke="#63b8ff" d="M265.31,-245.68C265.31,-237.34 265.31,-225.11 265.31,-214.68"/>
<polygon fill="#63b8ff" stroke="#63b8ff" points="268.81,-214.97 265.31,-204.97 261.81,-214.97 268.81,-214.97"/>
</a>
</g>
</g>
<!-- Node31&#45;&gt;Node2 -->
<g id="edge36_Node000031_Node000002" class="edge">
<title>Node31&#45;&gt;Node2</title>
<g id="a_edge36_Node000031_Node000002"><a xlink:title=" ">
<path fill="none" stroke="#63b8ff" d="M282.83,-182.59C297.74,-174.26 319.4,-162.16 336.49,-152.61"/>
<polygon fill="#63b8ff" stroke="#63b8ff" points="337.92,-155.26 344.94,-147.33 334.5,-149.15 337.92,-155.26"/>
</a>
</g>
</g>
<!-- Node31&#45;&gt;Node7 -->
<g id="edge37_Node000031_Node000007" class="edge">
<title>Node31&#45;&gt;Node7</title>
<g id="a_edge37_Node000031_Node000007"><a xlink:title=" ">
<path fill="none" stroke="#63b8ff" d="M226.28,-190.04C167.04,-184.14 56.08,-163.37 6.31,-90.25 -2.07,-77.94 -2.12,-69.02 6.31,-56.75 25.31,-29.08 63.72,-18.28 91.57,-14.06"/>
<polygon fill="#63b8ff" stroke="#63b8ff" points="91.93,-17.42 101.4,-12.67 91.03,-10.47 91.93,-17.42"/>
</a>
</g>
</g>
<!-- Node32&#45;&gt;Node29 -->
<g id="edge43_Node000032_Node000029" class="edge">
<title>Node32&#45;&gt;Node29</title>
<g id="a_edge43_Node000032_Node000029"><a xlink:title=" ">
<path fill="none" stroke="#63b8ff" d="M2481.53,-182.73C2476,-163.56 2463.53,-120.32 2456.13,-94.67"/>
<polygon fill="#63b8ff" stroke="#63b8ff" points="2459.26,-93.92 2453.13,-85.28 2452.54,-95.86 2459.26,-93.92"/>
</a>
</g>
</g>
<!-- Node33 -->
<g id="Node000033" class="node">
<title>Node33</title>
<g id="a_Node000033"><a xlink:href="tbb__tools_8h.html" target="_top" xlink:title=" ">
<polygon fill="white" stroke="#666666" points="2552.31,-147 2482.31,-147 2482.31,-126.25 2552.31,-126.25 2552.31,-147"/>
<text text-anchor="middle" x="2517.31" y="-133.5" font-family="FreeSans" font-size="10.00">tbb_tools.h</text>
</a>
</g>
</g>
<!-- Node32&#45;&gt;Node33 -->
<g id="edge39_Node000032_Node000033" class="edge">
<title>Node32&#45;&gt;Node33</title>
<g id="a_edge39_Node000032_Node000033"><a xlink:title=" ">
<path fill="none" stroke="#63b8ff" d="M2490.21,-182.59C2494.57,-175.35 2500.65,-165.26 2505.95,-156.47"/>
<polygon fill="#63b8ff" stroke="#63b8ff" points="2509.3,-158.7 2511.46,-148.33 2503.3,-155.09 2509.3,-158.7"/>
</a>
</g>
</g>
<!-- Node40 -->
<g id="Node000040" class="node">
<title>Node40</title>
<g id="a_Node000040"><a xlink:title=" ">
<polygon fill="#e0e0e0" stroke="#999999" points="2637.81,-147 2570.81,-147 2570.81,-126.25 2637.81,-126.25 2637.81,-147"/>
<text text-anchor="middle" x="2604.31" y="-133.5" font-family="FreeSans" font-size="10.00">sys/time.h</text>
</a>
</g>
</g>
<!-- Node32&#45;&gt;Node40 -->
<g id="edge42_Node000032_Node000040" class="edge">
<title>Node32&#45;&gt;Node40</title>
<g id="a_edge42_Node000032_Node000040"><a xlink:title=" ">
<path fill="none" stroke="#63b8ff" d="M2505.76,-182.59C2524.53,-174.02 2552.03,-161.48 2573.22,-151.81"/>
<polygon fill="#63b8ff" stroke="#63b8ff" points="2574.4,-154.66 2582.04,-147.33 2571.49,-148.3 2574.4,-154.66"/>
</a>
</g>
</g>
<!-- Node33&#45;&gt;Node16 -->
<g id="edge40_Node000033_Node000016" class="edge">
<title>Node33&#45;&gt;Node16</title>
<g id="a_edge40_Node000033_Node000016"><a xlink:title=" ">
<path fill="none" stroke="#63b8ff" d="M2517.63,-125.8C2517.9,-117.47 2518.3,-105.23 2518.64,-94.8"/>
<polygon fill="#63b8ff" stroke="#63b8ff" points="2522.17,-95.2 2519,-85.09 2515.17,-94.98 2522.17,-95.2"/>
</a>
</g>
</g>
<!-- Node34 -->
<g id="Node000034" class="node">
<title>Node34</title>
<g id="a_Node000034"><a xlink:href="tbb__real_8h.html" target="_top" xlink:title=" ">
<polygon fill="#fff0f0" stroke="red" points="2629.68,-83.88 2564.93,-83.88 2564.93,-63.12 2629.68,-63.12 2629.68,-83.88"/>
<text text-anchor="middle" x="2597.31" y="-70.38" font-family="FreeSans" font-size="10.00">tbb_real.h</text>
</a>
</g>
</g>
<!-- Node33&#45;&gt;Node34 -->
<g id="edge41_Node000033_Node000034" class="edge">
<title>Node33&#45;&gt;Node34</title>
<g id="a_edge41_Node000033_Node000034"><a xlink:title=" ">
<path fill="none" stroke="#63b8ff" d="M2530.16,-125.8C2542.53,-116.36 2561.44,-101.91 2576.05,-90.75"/>
<polygon fill="#63b8ff" stroke="#63b8ff" points="2577.67,-93.15 2583.49,-84.3 2573.42,-87.59 2577.67,-93.15"/>
</a>
</g>
</g>
<!-- Node41&#45;&gt;Node2 -->
<g id="edge45_Node000041_Node000002" class="edge">
<title>Node41&#45;&gt;Node2</title>
<g id="a_edge45_Node000041_Node000002"><a xlink:title=" ">
<path fill="none" stroke="#63b8ff" d="M457.75,-182.59C439.84,-174.06 413.65,-161.59 393.38,-151.94"/>
<polygon fill="#63b8ff" stroke="#63b8ff" points="395.22,-148.47 384.69,-147.33 392.22,-154.79 395.22,-148.47"/>
</a>
</g>
</g>
<!-- Node41&#45;&gt;Node8 -->
<g id="edge46_Node000041_Node000008" class="edge">
<title>Node41&#45;&gt;Node8</title>
<g id="a_edge46_Node000041_Node000008"><a xlink:title=" ">
<path fill="none" stroke="#63b8ff" d="M477.98,-182.73C477.33,-163.65 475.88,-120.71 475.01,-95.02"/>
<polygon fill="#63b8ff" stroke="#63b8ff" points="478.48,-95.16 474.64,-85.28 471.48,-95.39 478.48,-95.16"/>
</a>
</g>
</g>
<!-- Node42&#45;&gt;Node2 -->
<g id="edge48_Node000042_Node000002" class="edge">
<title>Node42&#45;&gt;Node2</title>
<g id="a_edge48_Node000042_Node000002"><a xlink:title=" ">
<path fill="none" stroke="#63b8ff" d="M354.13,-245.85C355.75,-226.77 359.39,-183.83 361.57,-158.15"/>
<polygon fill="#63b8ff" stroke="#63b8ff" points="365.12,-158.66 362.48,-148.4 358.15,-158.07 365.12,-158.66"/>
</a>
</g>
</g>
</g>
</svg>
