<?xml version="1.0" encoding="UTF-8" standalone="no"?>
<!DOCTYPE svg PUBLIC "-//W3C//DTD SVG 1.1//EN"
 "http://www.w3.org/Graphics/SVG/1.1/DTD/svg11.dtd">
<!-- Generated by graphviz version 2.28.0 (20120425.2022)
 -->
<!-- Title: src/convectionSystem.cpp Pages: 1 -->
<svg width="1988pt" height="264pt"
 viewBox="0.00 0.00 1988.00 264.00" xmlns="http://www.w3.org/2000/svg" xmlns:xlink="http://www.w3.org/1999/xlink">
<g id="graph1" class="graph" transform="scale(1 1) rotate(0) translate(4 260)">
<title>src/convectionSystem.cpp</title>
<polygon fill="white" stroke="white" points="-4,5 -4,-260 1985,-260 1985,5 -4,5"/>
<!-- Node1 -->
<g id="node1" class="node"><title>Node1</title>
<polygon fill="#bfbfbf" stroke="black" points="1671,-236.5 1671,-255.5 1805,-255.5 1805,-236.5 1671,-236.5"/>
<text text-anchor="middle" x="1738" y="-243.5" font-family="FreeSans" font-size="10.00">src/convectionSystem.cpp</text>
</g>
<!-- Node2 -->
<g id="node3" class="node"><title>Node2</title>
<a xlink:href="convectionSystem_8h.html" target="_top" xlink:title="convectionSystem.h">
<polygon fill="white" stroke="black" points="352.5,-180.5 352.5,-199.5 459.5,-199.5 459.5,-180.5 352.5,-180.5"/>
<text text-anchor="middle" x="406" y="-187.5" font-family="FreeSans" font-size="10.00">convectionSystem.h</text>
</a>
</g>
<!-- Node1&#45;&gt;Node2 -->
<g id="edge2" class="edge"><title>Node1&#45;&gt;Node2</title>
<path fill="none" stroke="midnightblue" d="M1670.57,-242.267C1441.39,-232.975 694.188,-202.683 470.096,-193.599"/>
<polygon fill="midnightblue" stroke="midnightblue" points="469.959,-190.09 459.825,-193.182 469.675,-197.084 469.959,-190.09"/>
</g>
<!-- Node4 -->
<g id="node7" class="node"><title>Node4</title>
<a xlink:href="debugUtils_8h.html" target="_top" xlink:title="debugUtils.h">
<polygon fill="white" stroke="red" points="1132.5,-0.5 1132.5,-19.5 1203.5,-19.5 1203.5,-0.5 1132.5,-0.5"/>
<text text-anchor="middle" x="1168" y="-7.5" font-family="FreeSans" font-size="10.00">debugUtils.h</text>
</a>
</g>
<!-- Node1&#45;&gt;Node4 -->
<g id="edge22" class="edge"><title>Node1&#45;&gt;Node4</title>
<path fill="none" stroke="midnightblue" d="M1739.79,-236.415C1744.15,-212.916 1752.62,-146.975 1719,-112 1649.4,-39.6057 1333.52,-18.285 1214,-12.7475"/>
<polygon fill="midnightblue" stroke="midnightblue" points="1213.87,-9.23845 1203.73,-12.2883 1213.56,-16.2315 1213.87,-9.23845"/>
</g>
<!-- Node11 -->
<g id="node23" class="node"><title>Node11</title>
<a xlink:href="chemistry0d_8h.html" target="_top" xlink:title="chemistry0d.h">
<polygon fill="white" stroke="black" points="1089,-180.5 1089,-199.5 1167,-199.5 1167,-180.5 1089,-180.5"/>
<text text-anchor="middle" x="1128" y="-187.5" font-family="FreeSans" font-size="10.00">chemistry0d.h</text>
</a>
</g>
<!-- Node1&#45;&gt;Node11 -->
<g id="edge24" class="edge"><title>Node1&#45;&gt;Node11</title>
<path fill="none" stroke="midnightblue" d="M1670.97,-239.067C1547.3,-228.118 1285.92,-204.98 1177.13,-195.349"/>
<polygon fill="midnightblue" stroke="midnightblue" points="1177.35,-191.855 1167.08,-194.46 1176.74,-198.828 1177.35,-191.855"/>
</g>
<!-- Node20 -->
<g id="node42" class="node"><title>Node20</title>
<a xlink:href="tbb__tools_8h.html" target="_top" xlink:title="tbb_tools.h">
<polygon fill="white" stroke="black" points="1772,-180.5 1772,-199.5 1836,-199.5 1836,-180.5 1772,-180.5"/>
<text text-anchor="middle" x="1804" y="-187.5" font-family="FreeSans" font-size="10.00">tbb_tools.h</text>
</a>
</g>
<!-- Node1&#45;&gt;Node20 -->
<g id="edge44" class="edge"><title>Node1&#45;&gt;Node20</title>
<path fill="none" stroke="midnightblue" d="M1748.6,-236.324C1758.46,-228.263 1773.35,-216.077 1785.22,-206.369"/>
<polygon fill="midnightblue" stroke="midnightblue" points="1787.68,-208.875 1793.2,-199.834 1783.25,-203.457 1787.68,-208.875"/>
</g>
<!-- Node23 -->
<g id="node48" class="node"><title>Node23</title>
<polygon fill="white" stroke="#bfbfbf" points="1854,-180.5 1854,-199.5 1950,-199.5 1950,-180.5 1854,-180.5"/>
<text text-anchor="middle" x="1902" y="-187.5" font-family="FreeSans" font-size="10.00">boost/foreach.hpp</text>
</g>
<!-- Node1&#45;&gt;Node23 -->
<g id="edge50" class="edge"><title>Node1&#45;&gt;Node23</title>
<path fill="none" stroke="midnightblue" d="M1763.99,-236.444C1791.7,-227.32 1835.75,-212.813 1866.62,-202.651"/>
<polygon fill="midnightblue" stroke="midnightblue" points="1867.73,-205.968 1876.14,-199.516 1865.54,-199.32 1867.73,-205.968"/>
</g>
<!-- Node3 -->
<g id="node5" class="node"><title>Node3</title>
<a xlink:href="mathUtils_8h.html" target="_top" xlink:title="mathUtils.h">
<polygon fill="white" stroke="red" points="566.5,-56.5 566.5,-75.5 631.5,-75.5 631.5,-56.5 566.5,-56.5"/>
<text text-anchor="middle" x="599" y="-63.5" font-family="FreeSans" font-size="10.00">mathUtils.h</text>
</a>
</g>
<!-- Node2&#45;&gt;Node3 -->
<g id="edge4" class="edge"><title>Node2&#45;&gt;Node3</title>
<path fill="none" stroke="midnightblue" d="M459.546,-184.335C492.02,-179.063 532.542,-167.846 561,-144 578.996,-128.92 589.232,-103.25 594.445,-85.7286"/>
<polygon fill="midnightblue" stroke="midnightblue" points="597.956,-86.1505 597.176,-75.5844 591.196,-84.3306 597.956,-86.1505"/>
</g>
<!-- Node5 -->
<g id="node9" class="node"><title>Node5</title>
<a xlink:href="sundialsUtils_8h.html" target="_top" xlink:title="sundialsUtils.h">
<polygon fill="white" stroke="red" points="326,-118.5 326,-137.5 406,-137.5 406,-118.5 326,-118.5"/>
<text text-anchor="middle" x="366" y="-125.5" font-family="FreeSans" font-size="10.00">sundialsUtils.h</text>
</a>
</g>
<!-- Node2&#45;&gt;Node5 -->
<g id="edge8" class="edge"><title>Node2&#45;&gt;Node5</title>
<path fill="none" stroke="midnightblue" d="M400.269,-180.403C394.328,-171.493 384.883,-157.325 377.412,-146.118"/>
<polygon fill="midnightblue" stroke="midnightblue" points="380.18,-143.96 371.72,-137.581 374.355,-147.843 380.18,-143.96"/>
</g>
<!-- Node6 -->
<g id="node11" class="node"><title>Node6</title>
<a xlink:href="grid_8h.html" target="_top" xlink:title="grid.h">
<polygon fill="white" stroke="red" points="424.5,-118.5 424.5,-137.5 465.5,-137.5 465.5,-118.5 424.5,-118.5"/>
<text text-anchor="middle" x="445" y="-125.5" font-family="FreeSans" font-size="10.00">grid.h</text>
</a>
</g>
<!-- Node2&#45;&gt;Node6 -->
<g id="edge10" class="edge"><title>Node2&#45;&gt;Node6</title>
<path fill="none" stroke="midnightblue" d="M411.588,-180.403C417.38,-171.493 426.589,-157.325 433.874,-146.118"/>
<polygon fill="midnightblue" stroke="midnightblue" points="436.907,-147.873 439.423,-137.581 431.038,-144.058 436.907,-147.873"/>
</g>
<!-- Node7 -->
<g id="node13" class="node"><title>Node7</title>
<a xlink:href="perfTimer_8h.html" target="_top" xlink:title="perfTimer.h">
<polygon fill="white" stroke="red" points="484,-118.5 484,-137.5 552,-137.5 552,-118.5 484,-118.5"/>
<text text-anchor="middle" x="518" y="-125.5" font-family="FreeSans" font-size="10.00">perfTimer.h</text>
</a>
</g>
<!-- Node2&#45;&gt;Node7 -->
<g id="edge12" class="edge"><title>Node2&#45;&gt;Node7</title>
<path fill="none" stroke="midnightblue" d="M422.047,-180.403C440.593,-170.468 471.34,-153.997 493.022,-142.381"/>
<polygon fill="midnightblue" stroke="midnightblue" points="494.821,-145.388 501.983,-137.581 491.515,-139.218 494.821,-145.388"/>
</g>
<!-- Node8 -->
<g id="node15" class="node"><title>Node8</title>
<a xlink:href="quasi2d_8h.html" target="_top" xlink:title="quasi2d.h">
<polygon fill="white" stroke="red" points="248,-118.5 248,-137.5 308,-137.5 308,-118.5 248,-118.5"/>
<text text-anchor="middle" x="278" y="-125.5" font-family="FreeSans" font-size="10.00">quasi2d.h</text>
</a>
</g>
<!-- Node2&#45;&gt;Node8 -->
<g id="edge14" class="edge"><title>Node2&#45;&gt;Node8</title>
<path fill="none" stroke="midnightblue" d="M387.661,-180.403C366.179,-170.334 330.378,-153.552 305.552,-141.915"/>
<polygon fill="midnightblue" stroke="midnightblue" points="306.845,-138.656 296.305,-137.581 303.874,-144.994 306.845,-138.656"/>
</g>
<!-- Node9 -->
<g id="node18" class="node"><title>Node9</title>
<polygon fill="white" stroke="#bfbfbf" points="0,-118.5 0,-137.5 110,-137.5 110,-118.5 0,-118.5"/>
<text text-anchor="middle" x="55" y="-125.5" font-family="FreeSans" font-size="10.00">boost/shared_ptr.hpp</text>
</g>
<!-- Node2&#45;&gt;Node9 -->
<g id="edge18" class="edge"><title>Node2&#45;&gt;Node9</title>
<path fill="none" stroke="midnightblue" d="M352.367,-181.811C294.554,-173.778 199.932,-159.806 119,-144 112.679,-142.765 106.034,-141.346 99.5157,-139.884"/>
<polygon fill="midnightblue" stroke="midnightblue" points="99.9713,-136.397 89.4415,-137.57 98.4045,-143.22 99.9713,-136.397"/>
</g>
<!-- Node10 -->
<g id="node20" class="node"><title>Node10</title>
<polygon fill="white" stroke="#bfbfbf" points="128.5,-113 128.5,-143 229.5,-143 229.5,-113 128.5,-113"/>
<text text-anchor="start" x="136.5" y="-131" font-family="FreeSans" font-size="10.00">boost/ptr_container</text>
<text text-anchor="middle" x="179" y="-120" font-family="FreeSans" font-size="10.00">/ptr_vector.hpp</text>
</g>
<!-- Node2&#45;&gt;Node10 -->
<g id="edge20" class="edge"><title>Node2&#45;&gt;Node10</title>
<path fill="none" stroke="midnightblue" d="M373.476,-180.403C338.674,-171.205 282.677,-156.404 239.688,-145.041"/>
<polygon fill="midnightblue" stroke="midnightblue" points="240.457,-141.624 229.895,-142.452 238.668,-148.392 240.457,-141.624"/>
</g>
<!-- Node3&#45;&gt;Node4 -->
<g id="edge6" class="edge"><title>Node3&#45;&gt;Node4</title>
<path fill="none" stroke="midnightblue" d="M631.636,-61.9028C727.831,-52.7735 1010.48,-25.9488 1122,-15.3655"/>
<polygon fill="midnightblue" stroke="midnightblue" points="1122.62,-18.8224 1132.25,-14.3932 1121.96,-11.8537 1122.62,-18.8224"/>
</g>
<!-- Node8&#45;&gt;Node3 -->
<g id="edge16" class="edge"><title>Node8&#45;&gt;Node3</title>
<path fill="none" stroke="midnightblue" d="M297.975,-118.397C304.003,-116.053 310.695,-113.696 317,-112 400.209,-89.6232 500.413,-76.8888 556.184,-71.018"/>
<polygon fill="midnightblue" stroke="midnightblue" points="556.807,-74.4725 566.397,-69.9677 556.091,-67.5092 556.807,-74.4725"/>
</g>
<!-- Node11&#45;&gt;Node3 -->
<g id="edge42" class="edge"><title>Node11&#45;&gt;Node3</title>
<path fill="none" stroke="midnightblue" d="M1088.94,-187.598C979.254,-183.359 673.955,-169.384 637,-144 617.361,-130.51 607.432,-103.851 602.744,-85.7245"/>
<polygon fill="midnightblue" stroke="midnightblue" points="606.102,-84.7045 600.463,-75.735 599.277,-86.2633 606.102,-84.7045"/>
</g>
<!-- Node12 -->
<g id="node25" class="node"><title>Node12</title>
<polygon fill="white" stroke="#bfbfbf" points="646.5,-118.5 646.5,-137.5 765.5,-137.5 765.5,-118.5 646.5,-118.5"/>
<text text-anchor="middle" x="706" y="-125.5" font-family="FreeSans" font-size="10.00">cantera/IdealGasMix.h</text>
</g>
<!-- Node11&#45;&gt;Node12 -->
<g id="edge26" class="edge"><title>Node11&#45;&gt;Node12</title>
<path fill="none" stroke="midnightblue" d="M1088.8,-185.191C1023.33,-178.567 887.689,-163.723 774,-144 766.794,-142.75 759.195,-141.253 751.793,-139.695"/>
<polygon fill="midnightblue" stroke="midnightblue" points="752.39,-136.243 741.876,-137.552 750.911,-143.085 752.39,-136.243"/>
</g>
<!-- Node13 -->
<g id="node27" class="node"><title>Node13</title>
<polygon fill="white" stroke="#bfbfbf" points="783.5,-118.5 783.5,-137.5 892.5,-137.5 892.5,-118.5 783.5,-118.5"/>
<text text-anchor="middle" x="838" y="-125.5" font-family="FreeSans" font-size="10.00">cantera/equilibrium.h</text>
</g>
<!-- Node11&#45;&gt;Node13 -->
<g id="edge28" class="edge"><title>Node11&#45;&gt;Node13</title>
<path fill="none" stroke="midnightblue" d="M1088.72,-181.595C1043.58,-172.987 967.295,-158.148 902,-144 895.925,-142.684 889.538,-141.248 883.246,-139.804"/>
<polygon fill="midnightblue" stroke="midnightblue" points="884.029,-136.393 873.497,-137.544 882.448,-143.212 884.029,-136.393"/>
</g>
<!-- Node14 -->
<g id="node29" class="node"><title>Node14</title>
<polygon fill="white" stroke="#bfbfbf" points="911,-118.5 911,-137.5 1003,-137.5 1003,-118.5 911,-118.5"/>
<text text-anchor="middle" x="957" y="-125.5" font-family="FreeSans" font-size="10.00">cantera/thermo.h</text>
</g>
<!-- Node11&#45;&gt;Node14 -->
<g id="edge30" class="edge"><title>Node11&#45;&gt;Node14</title>
<path fill="none" stroke="midnightblue" d="M1103.5,-180.403C1074.04,-170.067 1024.42,-152.656 991.198,-140.999"/>
<polygon fill="midnightblue" stroke="midnightblue" points="992.05,-137.589 981.455,-137.581 989.732,-144.194 992.05,-137.589"/>
</g>
<!-- Node15 -->
<g id="node31" class="node"><title>Node15</title>
<polygon fill="white" stroke="#bfbfbf" points="1021.5,-118.5 1021.5,-137.5 1120.5,-137.5 1120.5,-118.5 1021.5,-118.5"/>
<text text-anchor="middle" x="1071" y="-125.5" font-family="FreeSans" font-size="10.00">cantera/transport.h</text>
</g>
<!-- Node11&#45;&gt;Node15 -->
<g id="edge32" class="edge"><title>Node11&#45;&gt;Node15</title>
<path fill="none" stroke="midnightblue" d="M1119.83,-180.403C1111.11,-171.225 1097.1,-156.47 1086.31,-145.117"/>
<polygon fill="midnightblue" stroke="midnightblue" points="1088.58,-142.42 1079.15,-137.581 1083.5,-147.241 1088.58,-142.42"/>
</g>
<!-- Node16 -->
<g id="node33" class="node"><title>Node16</title>
<polygon fill="white" stroke="#bfbfbf" points="1138.5,-118.5 1138.5,-137.5 1233.5,-137.5 1233.5,-118.5 1138.5,-118.5"/>
<text text-anchor="middle" x="1186" y="-125.5" font-family="FreeSans" font-size="10.00">cantera/kinetics.h</text>
</g>
<!-- Node11&#45;&gt;Node16 -->
<g id="edge34" class="edge"><title>Node11&#45;&gt;Node16</title>
<path fill="none" stroke="midnightblue" d="M1136.31,-180.403C1145.27,-171.136 1159.72,-156.183 1170.74,-144.788"/>
<polygon fill="midnightblue" stroke="midnightblue" points="1173.27,-147.203 1177.71,-137.581 1168.24,-142.338 1173.27,-147.203"/>
</g>
<!-- Node17 -->
<g id="node35" class="node"><title>Node17</title>
<polygon fill="white" stroke="#bfbfbf" points="1252,-118.5 1252,-137.5 1418,-137.5 1418,-118.5 1252,-118.5"/>
<text text-anchor="middle" x="1335" y="-125.5" font-family="FreeSans" font-size="10.00">cantera/thermo/IdealGasPhase.h</text>
</g>
<!-- Node11&#45;&gt;Node17 -->
<g id="edge36" class="edge"><title>Node11&#45;&gt;Node17</title>
<path fill="none" stroke="midnightblue" d="M1157.66,-180.403C1193.93,-169.889 1255.46,-152.054 1295.66,-140.402"/>
<polygon fill="midnightblue" stroke="midnightblue" points="1296.77,-143.726 1305.4,-137.581 1294.82,-137.003 1296.77,-143.726"/>
</g>
<!-- Node18 -->
<g id="node37" class="node"><title>Node18</title>
<polygon fill="white" stroke="#bfbfbf" points="1436,-118.5 1436,-137.5 1588,-137.5 1588,-118.5 1436,-118.5"/>
<text text-anchor="middle" x="1512" y="-125.5" font-family="FreeSans" font-size="10.00">cantera/kinetics/GasKinetics.h</text>
</g>
<!-- Node11&#45;&gt;Node18 -->
<g id="edge38" class="edge"><title>Node11&#45;&gt;Node18</title>
<path fill="none" stroke="midnightblue" d="M1167.23,-183.419C1224.42,-175.209 1334.01,-159.201 1427,-144 1436.01,-142.527 1445.55,-140.904 1454.86,-139.288"/>
<polygon fill="midnightblue" stroke="midnightblue" points="1455.58,-142.715 1464.83,-137.543 1454.37,-135.82 1455.58,-142.715"/>
</g>
<!-- Node19 -->
<g id="node39" class="node"><title>Node19</title>
<polygon fill="white" stroke="#bfbfbf" points="1606,-118.5 1606,-137.5 1710,-137.5 1710,-118.5 1606,-118.5"/>
<text text-anchor="middle" x="1658" y="-125.5" font-family="FreeSans" font-size="10.00">cantera/base/ctml.h</text>
</g>
<!-- Node11&#45;&gt;Node19 -->
<g id="edge40" class="edge"><title>Node11&#45;&gt;Node19</title>
<path fill="none" stroke="midnightblue" d="M1167.17,-187.171C1247.99,-182.973 1438.94,-170.869 1597,-144 1603.65,-142.87 1610.64,-141.412 1617.42,-139.849"/>
<polygon fill="midnightblue" stroke="midnightblue" points="1618.25,-143.251 1627.15,-137.51 1616.61,-136.445 1618.25,-143.251"/>
</g>
<!-- Node21 -->
<g id="node44" class="node"><title>Node21</title>
<polygon fill="white" stroke="#bfbfbf" points="1873.5,-118.5 1873.5,-137.5 1980.5,-137.5 1980.5,-118.5 1873.5,-118.5"/>
<text text-anchor="middle" x="1927" y="-125.5" font-family="FreeSans" font-size="10.00">tbb/blocked_range.h</text>
</g>
<!-- Node20&#45;&gt;Node21 -->
<g id="edge46" class="edge"><title>Node20&#45;&gt;Node21</title>
<path fill="none" stroke="midnightblue" d="M1821.62,-180.403C1842.17,-170.379 1876.36,-153.701 1900.21,-142.07"/>
<polygon fill="midnightblue" stroke="midnightblue" points="1901.96,-145.111 1909.41,-137.581 1898.89,-138.819 1901.96,-145.111"/>
</g>
<!-- Node22 -->
<g id="node46" class="node"><title>Node22</title>
<polygon fill="white" stroke="#bfbfbf" points="1766.5,-118.5 1766.5,-137.5 1855.5,-137.5 1855.5,-118.5 1766.5,-118.5"/>
<text text-anchor="middle" x="1811" y="-125.5" font-family="FreeSans" font-size="10.00">tbb/parallel_for.h</text>
</g>
<!-- Node20&#45;&gt;Node22 -->
<g id="edge48" class="edge"><title>Node20&#45;&gt;Node22</title>
<path fill="none" stroke="midnightblue" d="M1805,-180.403C1805.99,-171.938 1807.53,-158.728 1808.8,-147.82"/>
<polygon fill="midnightblue" stroke="midnightblue" points="1812.32,-147.919 1810,-137.581 1805.36,-147.108 1812.32,-147.919"/>
</g>
</g>
</svg>
