<?xml version="1.0" encoding="UTF-8" standalone="no"?>
<!DOCTYPE svg PUBLIC "-//W3C//DTD SVG 1.1//EN"
 "http://www.w3.org/Graphics/SVG/1.1/DTD/svg11.dtd">
<!-- Generated by graphviz version 2.28.0 (20120425.2022)
 -->
<!-- Title: G Pages: 1 -->
<svg width="1159pt" height="264pt"
 viewBox="0.00 0.00 1159.13 264.00" xmlns="http://www.w3.org/2000/svg" xmlns:xlink="http://www.w3.org/1999/xlink">
<g id="graph1" class="graph" transform="scale(1 1) rotate(0) translate(4 260)">
<title>G</title>
<polygon fill="white" stroke="white" points="-4,5 -4,-260 1156.13,-260 1156.13,5 -4,5"/>
<!-- Node1 -->
<g id="node1" class="node"><title>Node1</title>
<polygon fill="#bfbfbf" stroke="black" points="960.13,-236.5 960.13,-255.5 1094.13,-255.5 1094.13,-236.5 960.13,-236.5"/>
<text text-anchor="middle" x="1027.13" y="-243.5" font-family="FreeSans" font-size="10.00">src/convectionSystem.cpp</text>
</g>
<!-- Node2 -->
<g id="node3" class="node"><title>Node2</title>
<a xlink:href="convectionSystem_8h.html" target="_top" xlink:title="convectionSystem.h">
<polygon fill="white" stroke="black" points="394.63,-180.5 394.63,-199.5 501.63,-199.5 501.63,-180.5 394.63,-180.5"/>
<text text-anchor="middle" x="448.13" y="-187.5" font-family="FreeSans" font-size="10.00">convectionSystem.h</text>
</a>
</g>
<!-- Node1&#45;&gt;Node2 -->
<g id="edge2" class="edge"><title>Node1&#45;&gt;Node2</title>
<path fill="none" stroke="midnightblue" d="M959.862,-238.726C847.163,-228.216 621.747,-207.192 511.623,-196.922"/>
<polygon fill="midnightblue" stroke="midnightblue" points="511.935,-193.436 501.653,-195.992 511.285,-200.405 511.935,-193.436"/>
</g>
<!-- Node4 -->
<g id="node7" class="node"><title>Node4</title>
<a xlink:href="debugUtils_8h.html" target="_top" xlink:title="debugUtils.h">
<polygon fill="white" stroke="red" points="721.63,-0.5 721.63,-19.5 792.63,-19.5 792.63,-0.5 721.63,-0.5"/>
<text text-anchor="middle" x="757.13" y="-7.5" font-family="FreeSans" font-size="10.00">debugUtils.h</text>
</a>
</g>
<!-- Node1&#45;&gt;Node4 -->
<g id="edge32" class="edge"><title>Node1&#45;&gt;Node4</title>
<path fill="none" stroke="midnightblue" d="M1028.5,-236.418C1031.67,-213.484 1037.07,-149.944 1007.13,-112 956.901,-48.3455 860.186,-24.5914 802.891,-15.8849"/>
<polygon fill="midnightblue" stroke="midnightblue" points="803.065,-12.3745 792.671,-14.4281 802.077,-19.3044 803.065,-12.3745"/>
</g>
<!-- Node15 -->
<g id="node32" class="node"><title>Node15</title>
<polygon fill="white" stroke="#bfbfbf" points="1055.13,-180.5 1055.13,-199.5 1151.13,-199.5 1151.13,-180.5 1055.13,-180.5"/>
<text text-anchor="middle" x="1103.13" y="-187.5" font-family="FreeSans" font-size="10.00">boost/foreach.hpp</text>
</g>
<!-- Node1&#45;&gt;Node15 -->
<g id="edge34" class="edge"><title>Node1&#45;&gt;Node15</title>
<path fill="none" stroke="midnightblue" d="M1039.34,-236.324C1050.91,-228.107 1068.51,-215.602 1082.29,-205.807"/>
<polygon fill="midnightblue" stroke="midnightblue" points="1084.57,-208.479 1090.7,-199.834 1080.52,-202.773 1084.57,-208.479"/>
</g>
<!-- Node3 -->
<g id="node5" class="node"><title>Node3</title>
<a xlink:href="mathUtils_8h.html" target="_top" xlink:title="mathUtils.h">
<polygon fill="white" stroke="red" points="369.63,-56.5 369.63,-75.5 434.63,-75.5 434.63,-56.5 369.63,-56.5"/>
<text text-anchor="middle" x="402.13" y="-63.5" font-family="FreeSans" font-size="10.00">mathUtils.h</text>
</a>
</g>
<!-- Node2&#45;&gt;Node3 -->
<g id="edge4" class="edge"><title>Node2&#45;&gt;Node3</title>
<path fill="none" stroke="midnightblue" d="M394.409,-187.471C282.509,-183.73 32.6635,-172.272 7.12997,-144 -2.40256,-133.445 -2.3404,-122.611 7.12997,-112 30.2995,-86.041 262.057,-73.0565 359.414,-68.7134"/>
<polygon fill="midnightblue" stroke="midnightblue" points="359.667,-72.2058 369.505,-68.2728 359.361,-65.2124 359.667,-72.2058"/>
</g>
<!-- Node5 -->
<g id="node9" class="node"><title>Node5</title>
<a xlink:href="sundialsUtils_8h.html" target="_top" xlink:title="sundialsUtils.h">
<polygon fill="white" stroke="red" points="16.13,-118.5 16.13,-137.5 96.13,-137.5 96.13,-118.5 16.13,-118.5"/>
<text text-anchor="middle" x="56.13" y="-125.5" font-family="FreeSans" font-size="10.00">sundialsUtils.h</text>
</a>
</g>
<!-- Node2&#45;&gt;Node5 -->
<g id="edge8" class="edge"><title>Node2&#45;&gt;Node5</title>
<path fill="none" stroke="midnightblue" d="M394.479,-184.749C326.564,-178.732 206.227,-165.945 105.13,-144 100.432,-142.98 95.535,-141.723 90.7314,-140.373"/>
<polygon fill="midnightblue" stroke="midnightblue" points="91.6794,-137.004 81.0971,-137.521 89.6921,-143.716 91.6794,-137.004"/>
</g>
<!-- Node6 -->
<g id="node11" class="node"><title>Node6</title>
<a xlink:href="strainFunction_8h.html" target="_top" xlink:title="strainFunction.h">
<polygon fill="white" stroke="red" points="114.63,-118.5 114.63,-137.5 199.63,-137.5 199.63,-118.5 114.63,-118.5"/>
<text text-anchor="middle" x="157.13" y="-125.5" font-family="FreeSans" font-size="10.00">strainFunction.h</text>
</a>
</g>
<!-- Node2&#45;&gt;Node6 -->
<g id="edge10" class="edge"><title>Node2&#45;&gt;Node6</title>
<path fill="none" stroke="midnightblue" d="M394.422,-180.522C345.566,-172.433 271.61,-159.246 208.13,-144 203.494,-142.887 198.653,-141.612 193.878,-140.286"/>
<polygon fill="midnightblue" stroke="midnightblue" points="194.833,-136.919 184.255,-137.529 192.904,-143.648 194.833,-136.919"/>
</g>
<!-- Node7 -->
<g id="node13" class="node"><title>Node7</title>
<a xlink:href="grid_8h.html" target="_top" xlink:title="grid.h">
<polygon fill="white" stroke="red" points="217.63,-118.5 217.63,-137.5 258.63,-137.5 258.63,-118.5 217.63,-118.5"/>
<text text-anchor="middle" x="238.13" y="-125.5" font-family="FreeSans" font-size="10.00">grid.h</text>
</a>
</g>
<!-- Node2&#45;&gt;Node7 -->
<g id="edge12" class="edge"><title>Node2&#45;&gt;Node7</title>
<path fill="none" stroke="midnightblue" d="M402.551,-180.485C365.658,-172.912 312.691,-160.484 268.13,-144 266.478,-143.389 264.797,-142.713 263.118,-141.995"/>
<polygon fill="midnightblue" stroke="midnightblue" points="264.264,-138.668 253.723,-137.604 261.3,-145.009 264.264,-138.668"/>
</g>
<!-- Node8 -->
<g id="node15" class="node"><title>Node8</title>
<a xlink:href="chemistry0d_8h.html" target="_top" xlink:title="chemistry0d.h">
<polygon fill="white" stroke="red" points="277.13,-118.5 277.13,-137.5 355.13,-137.5 355.13,-118.5 277.13,-118.5"/>
<text text-anchor="middle" x="316.13" y="-125.5" font-family="FreeSans" font-size="10.00">chemistry0d.h</text>
</a>
</g>
<!-- Node2&#45;&gt;Node8 -->
<g id="edge14" class="edge"><title>Node2&#45;&gt;Node8</title>
<path fill="none" stroke="midnightblue" d="M429.218,-180.403C406.967,-170.29 369.818,-153.404 344.204,-141.761"/>
<polygon fill="midnightblue" stroke="midnightblue" points="345.559,-138.532 335.007,-137.581 342.663,-144.905 345.559,-138.532"/>
</g>
<!-- Node9 -->
<g id="node18" class="node"><title>Node9</title>
<a xlink:href="perfTimer_8h.html" target="_top" xlink:title="perfTimer.h">
<polygon fill="white" stroke="red" points="373.13,-118.5 373.13,-137.5 441.13,-137.5 441.13,-118.5 373.13,-118.5"/>
<text text-anchor="middle" x="407.13" y="-125.5" font-family="FreeSans" font-size="10.00">perfTimer.h</text>
</a>
</g>
<!-- Node2&#45;&gt;Node9 -->
<g id="edge18" class="edge"><title>Node2&#45;&gt;Node9</title>
<path fill="none" stroke="midnightblue" d="M442.256,-180.403C436.167,-171.493 426.485,-157.325 418.827,-146.118"/>
<polygon fill="midnightblue" stroke="midnightblue" points="421.525,-143.862 412.993,-137.581 415.746,-147.812 421.525,-143.862"/>
</g>
<!-- Node10 -->
<g id="node20" class="node"><title>Node10</title>
<a xlink:href="quasi2d_8h.html" target="_top" xlink:title="quasi2d.h">
<polygon fill="white" stroke="red" points="459.13,-118.5 459.13,-137.5 519.13,-137.5 519.13,-118.5 459.13,-118.5"/>
<text text-anchor="middle" x="489.13" y="-125.5" font-family="FreeSans" font-size="10.00">quasi2d.h</text>
</a>
</g>
<!-- Node2&#45;&gt;Node10 -->
<g id="edge20" class="edge"><title>Node2&#45;&gt;Node10</title>
<path fill="none" stroke="midnightblue" d="M454.004,-180.403C460.093,-171.493 469.775,-157.325 477.433,-146.118"/>
<polygon fill="midnightblue" stroke="midnightblue" points="480.514,-147.812 483.267,-137.581 474.735,-143.862 480.514,-147.812"/>
</g>
<!-- Node11 -->
<g id="node23" class="node"><title>Node11</title>
<polygon fill="white" stroke="#bfbfbf" points="536.63,-118.5 536.63,-137.5 625.63,-137.5 625.63,-118.5 536.63,-118.5"/>
<text text-anchor="middle" x="581.13" y="-125.5" font-family="FreeSans" font-size="10.00">tbb/parallel_for.h</text>
</g>
<!-- Node2&#45;&gt;Node11 -->
<g id="edge24" class="edge"><title>Node2&#45;&gt;Node11</title>
<path fill="none" stroke="midnightblue" d="M467.186,-180.403C489.605,-170.29 527.035,-153.404 552.843,-141.761"/>
<polygon fill="midnightblue" stroke="midnightblue" points="554.434,-144.883 562.11,-137.581 551.555,-138.502 554.434,-144.883"/>
</g>
<!-- Node12 -->
<g id="node25" class="node"><title>Node12</title>
<polygon fill="white" stroke="#bfbfbf" points="643.63,-118.5 643.63,-137.5 750.63,-137.5 750.63,-118.5 643.63,-118.5"/>
<text text-anchor="middle" x="697.13" y="-125.5" font-family="FreeSans" font-size="10.00">tbb/blocked_range.h</text>
</g>
<!-- Node2&#45;&gt;Node12 -->
<g id="edge26" class="edge"><title>Node2&#45;&gt;Node12</title>
<path fill="none" stroke="midnightblue" d="M483.541,-180.467C527.79,-169.805 603.567,-151.545 651.953,-139.886"/>
<polygon fill="midnightblue" stroke="midnightblue" points="652.939,-143.249 661.841,-137.503 651.299,-136.443 652.939,-143.249"/>
</g>
<!-- Node13 -->
<g id="node27" class="node"><title>Node13</title>
<polygon fill="white" stroke="#bfbfbf" points="769.13,-118.5 769.13,-137.5 879.13,-137.5 879.13,-118.5 769.13,-118.5"/>
<text text-anchor="middle" x="824.13" y="-125.5" font-family="FreeSans" font-size="10.00">boost/shared_ptr.hpp</text>
</g>
<!-- Node2&#45;&gt;Node13 -->
<g id="edge28" class="edge"><title>Node2&#45;&gt;Node13</title>
<path fill="none" stroke="midnightblue" d="M501.733,-182.619C563.89,-174.902 669.313,-160.831 759.13,-144 765.784,-142.753 772.788,-141.294 779.635,-139.784"/>
<polygon fill="midnightblue" stroke="midnightblue" points="780.515,-143.173 789.497,-137.554 778.971,-136.345 780.515,-143.173"/>
</g>
<!-- Node14 -->
<g id="node29" class="node"><title>Node14</title>
<polygon fill="white" stroke="#bfbfbf" points="897.63,-113 897.63,-143 998.63,-143 998.63,-113 897.63,-113"/>
<text text-anchor="start" x="905.63" y="-131" font-family="FreeSans" font-size="10.00">boost/ptr_container</text>
<text text-anchor="middle" x="948.13" y="-120" font-family="FreeSans" font-size="10.00">/ptr_vector.hpp</text>
</g>
<!-- Node2&#45;&gt;Node14 -->
<g id="edge30" class="edge"><title>Node2&#45;&gt;Node14</title>
<path fill="none" stroke="midnightblue" d="M501.636,-186.004C582.935,-180.908 742.531,-168.779 887.529,-143.932"/>
<polygon fill="midnightblue" stroke="midnightblue" points="888.247,-147.359 897.5,-142.199 887.048,-140.463 888.247,-147.359"/>
</g>
<!-- Node3&#45;&gt;Node4 -->
<g id="edge6" class="edge"><title>Node3&#45;&gt;Node4</title>
<path fill="none" stroke="midnightblue" d="M434.891,-60.0166C498.45,-50.3485 638.621,-29.0267 711.345,-17.9645"/>
<polygon fill="midnightblue" stroke="midnightblue" points="712.208,-21.3735 721.568,-16.4094 711.156,-14.4531 712.208,-21.3735"/>
</g>
<!-- Node8&#45;&gt;Node3 -->
<g id="edge16" class="edge"><title>Node8&#45;&gt;Node3</title>
<path fill="none" stroke="midnightblue" d="M328.452,-118.403C342.246,-108.78 364.829,-93.0242 381.362,-81.4891"/>
<polygon fill="midnightblue" stroke="midnightblue" points="383.632,-84.1729 389.831,-75.5806 379.627,-78.432 383.632,-84.1729"/>
</g>
<!-- Node10&#45;&gt;Node3 -->
<g id="edge22" class="edge"><title>Node10&#45;&gt;Node3</title>
<path fill="none" stroke="midnightblue" d="M476.665,-118.403C462.71,-108.78 439.865,-93.0242 423.139,-81.4891"/>
<polygon fill="midnightblue" stroke="midnightblue" points="424.791,-78.3767 414.572,-75.5806 420.817,-84.1392 424.791,-78.3767"/>
</g>
</g>
</svg>
