<?xml version="1.0" encoding="UTF-8" standalone="no"?>
<!DOCTYPE svg PUBLIC "-//W3C//DTD SVG 1.1//EN"
 "http://www.w3.org/Graphics/SVG/1.1/DTD/svg11.dtd">
<!-- Generated by graphviz version 2.36.0 (20140111.2315)
 -->
<!-- Title: src/convectionSystem.h Pages: 1 -->
<svg width="1665pt" height="320pt"
 viewBox="0.00 0.00 1665.00 320.00" xmlns="http://www.w3.org/2000/svg" xmlns:xlink="http://www.w3.org/1999/xlink">
<g id="graph0" class="graph" transform="scale(1 1) rotate(0) translate(4 316)">
<title>src/convectionSystem.h</title>
<polygon fill="white" stroke="none" points="-4,4 -4,-316 1661,-316 1661,4 -4,4"/>
<!-- Node1 -->
<g id="node1" class="node"><title>Node1</title>
<polygon fill="#bfbfbf" stroke="black" points="293.5,-292.5 293.5,-311.5 412.5,-311.5 412.5,-292.5 293.5,-292.5"/>
<text text-anchor="middle" x="353" y="-299.5" font-family="FreeSans" font-size="10.00">src/convectionSystem.h</text>
</g>
<!-- Node2 -->
<g id="node2" class="node"><title>Node2</title>
<g id="a_node2"><a xlink:href="mathUtils_8h.html" target="_top" xlink:title="mathUtils.h">
<polygon fill="white" stroke="black" points="181.5,-112.5 181.5,-131.5 246.5,-131.5 246.5,-112.5 181.5,-112.5"/>
<text text-anchor="middle" x="214" y="-119.5" font-family="FreeSans" font-size="10.00">mathUtils.h</text>
</a>
</g>
</g>
<!-- Node1&#45;&gt;Node2 -->
<g id="edge1" class="edge"><title>Node1&#45;&gt;Node2</title>
<path fill="none" stroke="midnightblue" d="M338.599,-292.409C325.217,-284.049 305.133,-270.514 290,-256 262.345,-229.478 255.407,-221.607 237,-188 228.914,-173.236 222.771,-155.079 218.877,-141.711"/>
<polygon fill="midnightblue" stroke="midnightblue" points="222.173,-140.498 216.141,-131.788 215.425,-142.359 222.173,-140.498"/>
</g>
<!-- Node14 -->
<g id="node14" class="node"><title>Node14</title>
<g id="a_node14"><a xlink:href="sundialsUtils_8h.html" target="_top" xlink:title="sundialsUtils.h">
<polygon fill="white" stroke="black" points="874.5,-168.5 874.5,-187.5 951.5,-187.5 951.5,-168.5 874.5,-168.5"/>
<text text-anchor="middle" x="913" y="-175.5" font-family="FreeSans" font-size="10.00">sundialsUtils.h</text>
</a>
</g>
</g>
<!-- Node1&#45;&gt;Node14 -->
<g id="edge15" class="edge"><title>Node1&#45;&gt;Node14</title>
<path fill="none" stroke="midnightblue" d="M360.539,-292.437C376.895,-274.088 415.564,-231.994 433,-224 508.84,-189.229 757.659,-181.323 864.047,-179.527"/>
<polygon fill="midnightblue" stroke="midnightblue" points="864.246,-183.025 874.189,-179.368 864.135,-176.026 864.246,-183.025"/>
</g>
<!-- Node26 -->
<g id="node26" class="node"><title>Node26</title>
<g id="a_node26"><a xlink:href="grid_8h.html" target="_top" xlink:title="grid.h">
<polygon fill="white" stroke="black" points="143,-230.5 143,-249.5 183,-249.5 183,-230.5 143,-230.5"/>
<text text-anchor="middle" x="163" y="-237.5" font-family="FreeSans" font-size="10.00">grid.h</text>
</a>
</g>
</g>
<!-- Node1&#45;&gt;Node26 -->
<g id="edge29" class="edge"><title>Node1&#45;&gt;Node26</title>
<path fill="none" stroke="midnightblue" d="M322.874,-292.453C292.663,-283.752 244.885,-269.64 204,-256 200.41,-254.802 196.66,-253.501 192.949,-252.182"/>
<polygon fill="midnightblue" stroke="midnightblue" points="193.951,-248.822 183.357,-248.709 191.568,-255.404 193.951,-248.822"/>
</g>
<!-- Node28 -->
<g id="node28" class="node"><title>Node28</title>
<g id="a_node28"><a xlink:href="perfTimer_8h.html" target="_top" xlink:title="perfTimer.h">
<polygon fill="white" stroke="black" points="320.5,-230.5 320.5,-249.5 385.5,-249.5 385.5,-230.5 320.5,-230.5"/>
<text text-anchor="middle" x="353" y="-237.5" font-family="FreeSans" font-size="10.00">perfTimer.h</text>
</a>
</g>
</g>
<!-- Node1&#45;&gt;Node28 -->
<g id="edge33" class="edge"><title>Node1&#45;&gt;Node28</title>
<path fill="none" stroke="midnightblue" d="M353,-292.403C353,-283.938 353,-270.728 353,-259.82"/>
<polygon fill="midnightblue" stroke="midnightblue" points="356.5,-259.581 353,-249.581 349.5,-259.581 356.5,-259.581"/>
</g>
<!-- Node32 -->
<g id="node32" class="node"><title>Node32</title>
<g id="a_node32"><a xlink:href="quasi2d_8h.html" target="_top" xlink:title="quasi2d.h">
<polygon fill="white" stroke="black" points="246.5,-168.5 246.5,-187.5 303.5,-187.5 303.5,-168.5 246.5,-168.5"/>
<text text-anchor="middle" x="275" y="-175.5" font-family="FreeSans" font-size="10.00">quasi2d.h</text>
</a>
</g>
</g>
<!-- Node1&#45;&gt;Node32 -->
<g id="edge40" class="edge"><title>Node1&#45;&gt;Node32</title>
<path fill="none" stroke="midnightblue" d="M343.403,-292.416C334.235,-283.854 320.452,-269.991 311,-256 298.382,-237.322 288.005,-213.519 281.687,-197.358"/>
<polygon fill="midnightblue" stroke="midnightblue" points="284.789,-195.666 277.983,-187.546 278.24,-198.138 284.789,-195.666"/>
</g>
<!-- Node33 -->
<g id="node33" class="node"><title>Node33</title>
<polygon fill="white" stroke="#bfbfbf" points="442,-230.5 442,-249.5 548,-249.5 548,-230.5 442,-230.5"/>
<text text-anchor="middle" x="495" y="-237.5" font-family="FreeSans" font-size="10.00">boost/shared_ptr.hpp</text>
</g>
<!-- Node1&#45;&gt;Node33 -->
<g id="edge43" class="edge"><title>Node1&#45;&gt;Node33</title>
<path fill="none" stroke="midnightblue" d="M373.345,-292.403C397.387,-282.245 437.597,-265.255 465.163,-253.607"/>
<polygon fill="midnightblue" stroke="midnightblue" points="466.843,-256.697 474.693,-249.581 464.119,-250.249 466.843,-256.697"/>
</g>
<!-- Node34 -->
<g id="node34" class="node"><title>Node34</title>
<polygon fill="white" stroke="#bfbfbf" points="566.5,-225 566.5,-255 665.5,-255 665.5,-225 566.5,-225"/>
<text text-anchor="start" x="574.5" y="-243" font-family="FreeSans" font-size="10.00">boost/ptr_container</text>
<text text-anchor="middle" x="616" y="-232" font-family="FreeSans" font-size="10.00">/ptr_vector.hpp</text>
</g>
<!-- Node1&#45;&gt;Node34 -->
<g id="edge44" class="edge"><title>Node1&#45;&gt;Node34</title>
<path fill="none" stroke="midnightblue" d="M393.13,-292.436C434.133,-283.609 499.608,-269.297 556,-256 556.105,-255.975 556.209,-255.951 556.314,-255.926"/>
<polygon fill="midnightblue" stroke="midnightblue" points="557.349,-259.277 566.259,-253.544 555.719,-252.469 557.349,-259.277"/>
</g>
<!-- Node3 -->
<g id="node3" class="node"><title>Node3</title>
<polygon fill="white" stroke="#bfbfbf" points="686.5,-56.5 686.5,-75.5 729.5,-75.5 729.5,-56.5 686.5,-56.5"/>
<text text-anchor="middle" x="708" y="-63.5" font-family="FreeSans" font-size="10.00">vector</text>
</g>
<!-- Node2&#45;&gt;Node3 -->
<g id="edge2" class="edge"><title>Node2&#45;&gt;Node3</title>
<path fill="none" stroke="midnightblue" d="M246.692,-117.294C261.184,-115.659 278.441,-113.721 294,-112 436.561,-96.2331 606.793,-77.8788 676.194,-70.416"/>
<polygon fill="midnightblue" stroke="midnightblue" points="676.879,-73.8626 686.447,-69.3138 676.13,-66.9027 676.879,-73.8626"/>
</g>
<!-- Node4 -->
<g id="node4" class="node"><title>Node4</title>
<polygon fill="white" stroke="#bfbfbf" points="48,-56.5 48,-75.5 92,-75.5 92,-56.5 48,-56.5"/>
<text text-anchor="middle" x="70" y="-63.5" font-family="FreeSans" font-size="10.00">cmath</text>
</g>
<!-- Node2&#45;&gt;Node4 -->
<g id="edge3" class="edge"><title>Node2&#45;&gt;Node4</title>
<path fill="none" stroke="midnightblue" d="M191.183,-112.444C167.027,-103.385 128.724,-89.0213 101.655,-78.8705"/>
<polygon fill="midnightblue" stroke="midnightblue" points="102.83,-75.5731 92.2373,-75.339 100.372,-82.1274 102.83,-75.5731"/>
</g>
<!-- Node5 -->
<g id="node5" class="node"><title>Node5</title>
<polygon fill="white" stroke="#bfbfbf" points="438.5,-0.5 438.5,-19.5 491.5,-19.5 491.5,-0.5 438.5,-0.5"/>
<text text-anchor="middle" x="465" y="-7.5" font-family="FreeSans" font-size="10.00">iostream</text>
</g>
<!-- Node2&#45;&gt;Node5 -->
<g id="edge4" class="edge"><title>Node2&#45;&gt;Node5</title>
<path fill="none" stroke="midnightblue" d="M246.797,-118.219C285.135,-113.824 349.506,-102.812 398,-76 420.052,-63.8077 440.033,-42.448 452.323,-27.5543"/>
<polygon fill="midnightblue" stroke="midnightblue" points="455.128,-29.6504 458.628,-19.6505 449.656,-25.285 455.128,-29.6504"/>
</g>
<!-- Node6 -->
<g id="node6" class="node"><title>Node6</title>
<polygon fill="white" stroke="#bfbfbf" points="110,-56.5 110,-75.5 160,-75.5 160,-56.5 110,-56.5"/>
<text text-anchor="middle" x="135" y="-63.5" font-family="FreeSans" font-size="10.00">sstream</text>
</g>
<!-- Node2&#45;&gt;Node6 -->
<g id="edge5" class="edge"><title>Node2&#45;&gt;Node6</title>
<path fill="none" stroke="midnightblue" d="M201.307,-112.324C189.099,-103.979 170.422,-91.2122 155.997,-81.3524"/>
<polygon fill="midnightblue" stroke="midnightblue" points="157.892,-78.4082 147.661,-75.6545 153.942,-84.1871 157.892,-78.4082"/>
</g>
<!-- Node7 -->
<g id="node7" class="node"><title>Node7</title>
<polygon fill="white" stroke="#bfbfbf" points="0,-0.5 0,-19.5 40,-19.5 40,-0.5 0,-0.5"/>
<text text-anchor="middle" x="20" y="-7.5" font-family="FreeSans" font-size="10.00">string</text>
</g>
<!-- Node2&#45;&gt;Node7 -->
<g id="edge6" class="edge"><title>Node2&#45;&gt;Node7</title>
<path fill="none" stroke="midnightblue" d="M181.339,-121.742C142.299,-120.808 77.4338,-113.197 39,-76 26.6009,-63.9998 22.1739,-44.3952 20.6533,-29.8495"/>
<polygon fill="midnightblue" stroke="midnightblue" points="24.1214,-29.2542 19.9603,-19.5108 17.137,-29.7225 24.1214,-29.2542"/>
</g>
<!-- Node8 -->
<g id="node8" class="node"><title>Node8</title>
<polygon fill="white" stroke="#bfbfbf" points="267.5,-56.5 267.5,-75.5 302.5,-75.5 302.5,-56.5 267.5,-56.5"/>
<text text-anchor="middle" x="285" y="-63.5" font-family="FreeSans" font-size="10.00">map</text>
</g>
<!-- Node2&#45;&gt;Node8 -->
<g id="edge7" class="edge"><title>Node2&#45;&gt;Node8</title>
<path fill="none" stroke="midnightblue" d="M225.407,-112.324C236.109,-104.185 252.341,-91.8395 265.163,-82.0874"/>
<polygon fill="midnightblue" stroke="midnightblue" points="267.544,-84.6734 273.385,-75.8339 263.307,-79.1018 267.544,-84.6734"/>
</g>
<!-- Node9 -->
<g id="node9" class="node"><title>Node9</title>
<g id="a_node9"><a xlink:href="debugUtils_8h.html" target="_top" xlink:title="debugUtils.h">
<polygon fill="white" stroke="black" points="320.5,-56.5 320.5,-75.5 389.5,-75.5 389.5,-56.5 320.5,-56.5"/>
<text text-anchor="middle" x="355" y="-63.5" font-family="FreeSans" font-size="10.00">debugUtils.h</text>
</a>
</g>
</g>
<!-- Node2&#45;&gt;Node9 -->
<g id="edge8" class="edge"><title>Node2&#45;&gt;Node9</title>
<path fill="none" stroke="midnightblue" d="M236.342,-112.444C259.753,-103.478 296.736,-89.314 323.19,-79.1827"/>
<polygon fill="midnightblue" stroke="midnightblue" points="324.676,-82.3615 332.763,-75.5164 322.172,-75.8245 324.676,-82.3615"/>
</g>
<!-- Node13 -->
<g id="node13" class="node"><title>Node13</title>
<polygon fill="white" stroke="#bfbfbf" points="178.5,-56.5 178.5,-75.5 249.5,-75.5 249.5,-56.5 178.5,-56.5"/>
<text text-anchor="middle" x="214" y="-63.5" font-family="FreeSans" font-size="10.00">Eigen/Dense</text>
</g>
<!-- Node2&#45;&gt;Node13 -->
<g id="edge14" class="edge"><title>Node2&#45;&gt;Node13</title>
<path fill="none" stroke="midnightblue" d="M214,-112.083C214,-105.006 214,-94.8611 214,-85.9865"/>
<polygon fill="midnightblue" stroke="midnightblue" points="217.5,-85.751 214,-75.7511 210.5,-85.7511 217.5,-85.751"/>
</g>
<!-- Node9&#45;&gt;Node5 -->
<g id="edge10" class="edge"><title>Node9&#45;&gt;Node5</title>
<path fill="none" stroke="midnightblue" d="M372.673,-56.324C390.394,-47.6247 417.903,-34.1202 438.288,-24.113"/>
<polygon fill="midnightblue" stroke="midnightblue" points="439.936,-27.2031 447.37,-19.6545 436.851,-20.9195 439.936,-27.2031"/>
</g>
<!-- Node9&#45;&gt;Node7 -->
<g id="edge9" class="edge"><title>Node9&#45;&gt;Node7</title>
<path fill="none" stroke="midnightblue" d="M320.443,-57.7673C317.254,-57.1495 314.07,-56.551 311,-56 216.146,-38.9751 103.193,-22.6224 50.2317,-15.1837"/>
<polygon fill="midnightblue" stroke="midnightblue" points="50.5537,-11.6947 40.1653,-13.7758 49.5841,-18.6273 50.5537,-11.6947"/>
</g>
<!-- Node10 -->
<g id="node10" class="node"><title>Node10</title>
<polygon fill="white" stroke="#bfbfbf" points="294.5,-0.5 294.5,-19.5 343.5,-19.5 343.5,-0.5 294.5,-0.5"/>
<text text-anchor="middle" x="319" y="-7.5" font-family="FreeSans" font-size="10.00">fstream</text>
</g>
<!-- Node9&#45;&gt;Node10 -->
<g id="edge11" class="edge"><title>Node9&#45;&gt;Node10</title>
<path fill="none" stroke="midnightblue" d="M349.055,-56.083C344.023,-48.5341 336.663,-37.4948 330.487,-28.2298"/>
<polygon fill="midnightblue" stroke="midnightblue" points="333.293,-26.1301 324.834,-19.7511 327.469,-30.0131 333.293,-26.1301"/>
</g>
<!-- Node11 -->
<g id="node11" class="node"><title>Node11</title>
<polygon fill="white" stroke="#bfbfbf" points="362,-0.5 362,-19.5 420,-19.5 420,-0.5 362,-0.5"/>
<text text-anchor="middle" x="391" y="-7.5" font-family="FreeSans" font-size="10.00">exception</text>
</g>
<!-- Node9&#45;&gt;Node11 -->
<g id="edge12" class="edge"><title>Node9&#45;&gt;Node11</title>
<path fill="none" stroke="midnightblue" d="M360.945,-56.083C365.977,-48.5341 373.337,-37.4948 379.513,-28.2298"/>
<polygon fill="midnightblue" stroke="midnightblue" points="382.531,-30.0131 385.166,-19.7511 376.707,-26.1301 382.531,-30.0131"/>
</g>
<!-- Node12 -->
<g id="node12" class="node"><title>Node12</title>
<polygon fill="white" stroke="#bfbfbf" points="187.5,-0.5 187.5,-19.5 276.5,-19.5 276.5,-0.5 187.5,-0.5"/>
<text text-anchor="middle" x="232" y="-7.5" font-family="FreeSans" font-size="10.00">boost/format.hpp</text>
</g>
<!-- Node9&#45;&gt;Node12 -->
<g id="edge13" class="edge"><title>Node9&#45;&gt;Node12</title>
<path fill="none" stroke="midnightblue" d="M335.51,-56.4435C315.358,-47.5961 283.677,-33.6875 260.669,-23.5865"/>
<polygon fill="midnightblue" stroke="midnightblue" points="261.962,-20.3316 251.399,-19.5164 259.148,-26.7411 261.962,-20.3316"/>
</g>
<!-- Node14&#45;&gt;Node3 -->
<g id="edge26" class="edge"><title>Node14&#45;&gt;Node3</title>
<path fill="none" stroke="midnightblue" d="M919.295,-168.397C928.344,-154.894 942.528,-128.56 929,-112 905.487,-83.2162 795.311,-72.3761 739.938,-68.6957"/>
<polygon fill="midnightblue" stroke="midnightblue" points="739.835,-65.1825 729.636,-68.0518 739.398,-72.1688 739.835,-65.1825"/>
</g>
<!-- Node14&#45;&gt;Node5 -->
<g id="edge25" class="edge"><title>Node14&#45;&gt;Node5</title>
<path fill="none" stroke="midnightblue" d="M922.964,-168.403C936.87,-155.362 958.914,-130.178 945,-112 890.885,-41.3003 604.936,-18.7123 501.979,-12.8089"/>
<polygon fill="midnightblue" stroke="midnightblue" points="501.933,-9.30101 491.755,-12.2434 501.546,-16.2903 501.933,-9.30101"/>
</g>
<!-- Node15 -->
<g id="node15" class="node"><title>Node15</title>
<polygon fill="white" stroke="#bfbfbf" points="1015,-112.5 1015,-131.5 1133,-131.5 1133,-112.5 1015,-112.5"/>
<text text-anchor="middle" x="1074" y="-119.5" font-family="FreeSans" font-size="10.00">nvector/nvector_serial.h</text>
</g>
<!-- Node14&#45;&gt;Node15 -->
<g id="edge16" class="edge"><title>Node14&#45;&gt;Node15</title>
<path fill="none" stroke="midnightblue" d="M938.511,-168.444C965.596,-159.359 1008.59,-144.939 1038.87,-134.783"/>
<polygon fill="midnightblue" stroke="midnightblue" points="1040.24,-138.015 1048.61,-131.516 1038.01,-131.378 1040.24,-138.015"/>
</g>
<!-- Node16 -->
<g id="node16" class="node"><title>Node16</title>
<polygon fill="white" stroke="#bfbfbf" points="1151.5,-112.5 1151.5,-131.5 1278.5,-131.5 1278.5,-112.5 1151.5,-112.5"/>
<text text-anchor="middle" x="1215" y="-119.5" font-family="FreeSans" font-size="10.00">sundials/sundials_dense.h</text>
</g>
<!-- Node14&#45;&gt;Node16 -->
<g id="edge17" class="edge"><title>Node14&#45;&gt;Node16</title>
<path fill="none" stroke="midnightblue" d="M951.555,-170.106C1003.57,-160.806 1096.64,-144.164 1157.08,-133.356"/>
<polygon fill="midnightblue" stroke="midnightblue" points="1158,-136.747 1167.23,-131.542 1156.77,-129.857 1158,-136.747"/>
</g>
<!-- Node17 -->
<g id="node17" class="node"><title>Node17</title>
<polygon fill="white" stroke="#bfbfbf" points="1297,-112.5 1297,-131.5 1419,-131.5 1419,-112.5 1297,-112.5"/>
<text text-anchor="middle" x="1358" y="-119.5" font-family="FreeSans" font-size="10.00">sundials/sundials_band.h</text>
</g>
<!-- Node14&#45;&gt;Node17 -->
<g id="edge18" class="edge"><title>Node14&#45;&gt;Node17</title>
<path fill="none" stroke="midnightblue" d="M951.505,-172.449C1017.6,-164.618 1157.17,-148.006 1286.71,-132.029"/>
<polygon fill="midnightblue" stroke="midnightblue" points="1287.32,-135.48 1296.81,-130.781 1286.46,-128.533 1287.32,-135.48"/>
</g>
<!-- Node18 -->
<g id="node18" class="node"><title>Node18</title>
<polygon fill="white" stroke="#bfbfbf" points="1437,-112.5 1437,-131.5 1561,-131.5 1561,-112.5 1437,-112.5"/>
<text text-anchor="middle" x="1499" y="-119.5" font-family="FreeSans" font-size="10.00">sundials/sundials_types.h</text>
</g>
<!-- Node14&#45;&gt;Node18 -->
<g id="edge19" class="edge"><title>Node14&#45;&gt;Node18</title>
<path fill="none" stroke="midnightblue" d="M951.813,-174.128C1036.17,-167.773 1242.77,-151.605 1426.56,-132.118"/>
<polygon fill="midnightblue" stroke="midnightblue" points="1427.11,-135.58 1436.68,-131.039 1426.36,-128.619 1427.11,-135.58"/>
</g>
<!-- Node19 -->
<g id="node19" class="node"><title>Node19</title>
<polygon fill="white" stroke="#bfbfbf" points="1579,-112.5 1579,-131.5 1657,-131.5 1657,-112.5 1579,-112.5"/>
<text text-anchor="middle" x="1618" y="-119.5" font-family="FreeSans" font-size="10.00">cvode/cvode.h</text>
</g>
<!-- Node14&#45;&gt;Node19 -->
<g id="edge20" class="edge"><title>Node14&#45;&gt;Node19</title>
<path fill="none" stroke="midnightblue" d="M951.596,-175.878C1051.7,-172.642 1327.98,-161.642 1568.75,-131.863"/>
<polygon fill="midnightblue" stroke="midnightblue" points="1569.26,-135.328 1578.75,-130.614 1568.39,-128.382 1569.26,-135.328"/>
</g>
<!-- Node20 -->
<g id="node20" class="node"><title>Node20</title>
<polygon fill="white" stroke="#bfbfbf" points="512.5,-112.5 512.5,-131.5 621.5,-131.5 621.5,-112.5 512.5,-112.5"/>
<text text-anchor="middle" x="567" y="-119.5" font-family="FreeSans" font-size="10.00">cvode/cvode_dense.h</text>
</g>
<!-- Node14&#45;&gt;Node20 -->
<g id="edge21" class="edge"><title>Node14&#45;&gt;Node20</title>
<path fill="none" stroke="midnightblue" d="M874.317,-170.963C815.574,-161.795 703.181,-144.254 631.815,-133.116"/>
<polygon fill="midnightblue" stroke="midnightblue" points="632.015,-129.605 621.595,-131.521 630.935,-136.521 632.015,-129.605"/>
</g>
<!-- Node21 -->
<g id="node21" class="node"><title>Node21</title>
<polygon fill="white" stroke="#bfbfbf" points="640,-112.5 640,-131.5 744,-131.5 744,-112.5 640,-112.5"/>
<text text-anchor="middle" x="692" y="-119.5" font-family="FreeSans" font-size="10.00">cvode/cvode_band.h</text>
</g>
<!-- Node14&#45;&gt;Node21 -->
<g id="edge22" class="edge"><title>Node14&#45;&gt;Node21</title>
<path fill="none" stroke="midnightblue" d="M877.982,-168.444C839.752,-159.102 778.433,-144.119 736.743,-133.933"/>
<polygon fill="midnightblue" stroke="midnightblue" points="737.399,-130.49 726.854,-131.516 735.738,-137.29 737.399,-130.49"/>
</g>
<!-- Node22 -->
<g id="node22" class="node"><title>Node22</title>
<polygon fill="white" stroke="#bfbfbf" points="762.5,-112.5 762.5,-131.5 815.5,-131.5 815.5,-112.5 762.5,-112.5"/>
<text text-anchor="middle" x="789" y="-119.5" font-family="FreeSans" font-size="10.00">ida/ida.h</text>
</g>
<!-- Node14&#45;&gt;Node22 -->
<g id="edge23" class="edge"><title>Node14&#45;&gt;Node22</title>
<path fill="none" stroke="midnightblue" d="M893.352,-168.444C873.035,-159.596 841.097,-145.687 817.902,-135.586"/>
<polygon fill="midnightblue" stroke="midnightblue" points="819.122,-132.3 808.556,-131.516 816.327,-138.718 819.122,-132.3"/>
</g>
<!-- Node23 -->
<g id="node23" class="node"><title>Node23</title>
<polygon fill="white" stroke="#bfbfbf" points="833,-112.5 833,-131.5 921,-131.5 921,-112.5 833,-112.5"/>
<text text-anchor="middle" x="877" y="-119.5" font-family="FreeSans" font-size="10.00">ida/ida_spbcgs.h</text>
</g>
<!-- Node14&#45;&gt;Node23 -->
<g id="edge24" class="edge"><title>Node14&#45;&gt;Node23</title>
<path fill="none" stroke="midnightblue" d="M907.055,-168.083C902.023,-160.534 894.663,-149.495 888.487,-140.23"/>
<polygon fill="midnightblue" stroke="midnightblue" points="891.293,-138.13 882.834,-131.751 885.469,-142.013 891.293,-138.13"/>
</g>
<!-- Node24 -->
<g id="node24" class="node"><title>Node24</title>
<polygon fill="white" stroke="#bfbfbf" points="451.5,-112.5 451.5,-131.5 494.5,-131.5 494.5,-112.5 451.5,-112.5"/>
<text text-anchor="middle" x="473" y="-119.5" font-family="FreeSans" font-size="10.00">time.h</text>
</g>
<!-- Node14&#45;&gt;Node24 -->
<g id="edge27" class="edge"><title>Node14&#45;&gt;Node24</title>
<path fill="none" stroke="midnightblue" d="M874.486,-175.116C803.131,-171.122 645.526,-159.943 504.625,-132.005"/>
<polygon fill="midnightblue" stroke="midnightblue" points="505.005,-128.511 494.511,-129.965 503.621,-135.373 505.005,-128.511"/>
</g>
<!-- Node25 -->
<g id="node25" class="node"><title>Node25</title>
<g id="a_node25"><a xlink:href="config_8h.html" target="_top" xlink:title="config.h">
<polygon fill="white" stroke="black" points="383,-112.5 383,-131.5 433,-131.5 433,-112.5 383,-112.5"/>
<text text-anchor="middle" x="408" y="-119.5" font-family="FreeSans" font-size="10.00">config.h</text>
</a>
</g>
</g>
<!-- Node14&#45;&gt;Node25 -->
<g id="edge28" class="edge"><title>Node14&#45;&gt;Node25</title>
<path fill="none" stroke="midnightblue" d="M874.247,-175.443C794.94,-171.798 608.365,-160.861 443.004,-131.9"/>
<polygon fill="midnightblue" stroke="midnightblue" points="443.607,-128.452 433.148,-130.147 442.381,-135.344 443.607,-128.452"/>
</g>
<!-- Node27 -->
<g id="node27" class="node"><title>Node27</title>
<g id="a_node27"><a xlink:href="readConfig_8h.html" target="_top" xlink:title="readConfig.h">
<polygon fill="white" stroke="black" points="120,-168.5 120,-187.5 190,-187.5 190,-168.5 120,-168.5"/>
<text text-anchor="middle" x="155" y="-175.5" font-family="FreeSans" font-size="10.00">readConfig.h</text>
</a>
</g>
</g>
<!-- Node26&#45;&gt;Node27 -->
<g id="edge30" class="edge"><title>Node26&#45;&gt;Node27</title>
<path fill="none" stroke="midnightblue" d="M161.854,-230.403C160.725,-221.938 158.964,-208.728 157.509,-197.82"/>
<polygon fill="midnightblue" stroke="midnightblue" points="160.935,-197.03 156.144,-187.581 153.997,-197.955 160.935,-197.03"/>
</g>
<!-- Node27&#45;&gt;Node2 -->
<g id="edge31" class="edge"><title>Node27&#45;&gt;Node2</title>
<path fill="none" stroke="midnightblue" d="M164.479,-168.324C173.201,-160.341 186.343,-148.313 196.898,-138.653"/>
<polygon fill="midnightblue" stroke="midnightblue" points="199.334,-141.167 204.348,-131.834 194.608,-136.004 199.334,-141.167"/>
</g>
<!-- Node27&#45;&gt;Node7 -->
<g id="edge32" class="edge"><title>Node27&#45;&gt;Node7</title>
<path fill="none" stroke="midnightblue" d="M134.891,-168.46C104.41,-154.297 47.4732,-122.792 23,-76 15.5557,-61.7667 15.4553,-43.2924 16.8375,-29.679"/>
<polygon fill="midnightblue" stroke="midnightblue" points="20.3303,-29.969 18.2185,-19.5868 13.395,-29.0199 20.3303,-29.969"/>
</g>
<!-- Node28&#45;&gt;Node24 -->
<g id="edge39" class="edge"><title>Node28&#45;&gt;Node24</title>
<path fill="none" stroke="midnightblue" d="M362.02,-230.281C382.185,-210.788 431.153,-163.452 456.771,-138.688"/>
<polygon fill="midnightblue" stroke="midnightblue" points="459.445,-140.971 464.202,-131.505 454.579,-135.939 459.445,-140.971"/>
</g>
<!-- Node29 -->
<g id="node29" class="node"><title>Node29</title>
<g id="a_node29"><a xlink:href="tbb__tools_8h.html" target="_top" xlink:title="tbb_tools.h">
<polygon fill="white" stroke="black" points="321.5,-168.5 321.5,-187.5 384.5,-187.5 384.5,-168.5 321.5,-168.5"/>
<text text-anchor="middle" x="353" y="-175.5" font-family="FreeSans" font-size="10.00">tbb_tools.h</text>
</a>
</g>
</g>
<!-- Node28&#45;&gt;Node29 -->
<g id="edge34" class="edge"><title>Node28&#45;&gt;Node29</title>
<path fill="none" stroke="midnightblue" d="M353,-230.403C353,-221.938 353,-208.728 353,-197.82"/>
<polygon fill="midnightblue" stroke="midnightblue" points="356.5,-197.581 353,-187.581 349.5,-197.581 356.5,-197.581"/>
</g>
<!-- Node31 -->
<g id="node31" class="node"><title>Node31</title>
<polygon fill="white" stroke="#bfbfbf" points="441.5,-168.5 441.5,-187.5 500.5,-187.5 500.5,-168.5 441.5,-168.5"/>
<text text-anchor="middle" x="471" y="-175.5" font-family="FreeSans" font-size="10.00">sys/time.h</text>
</g>
<!-- Node28&#45;&gt;Node31 -->
<g id="edge38" class="edge"><title>Node28&#45;&gt;Node31</title>
<path fill="none" stroke="midnightblue" d="M369.907,-230.403C389.534,-220.423 422.131,-203.849 444.99,-192.225"/>
<polygon fill="midnightblue" stroke="midnightblue" points="446.797,-195.233 454.125,-187.581 443.625,-188.993 446.797,-195.233"/>
</g>
<!-- Node29&#45;&gt;Node25 -->
<g id="edge35" class="edge"><title>Node29&#45;&gt;Node25</title>
<path fill="none" stroke="midnightblue" d="M362.082,-168.083C370.171,-160.141 382.195,-148.335 391.91,-138.797"/>
<polygon fill="midnightblue" stroke="midnightblue" points="394.403,-141.254 399.087,-131.751 389.499,-136.26 394.403,-141.254"/>
</g>
<!-- Node30 -->
<g id="node30" class="node"><title>Node30</title>
<g id="a_node30"><a xlink:href="tbb__fake_8h.html" target="_top" xlink:title="tbb_fake.h">
<polygon fill="white" stroke="black" points="303,-112.5 303,-131.5 365,-131.5 365,-112.5 303,-112.5"/>
<text text-anchor="middle" x="334" y="-119.5" font-family="FreeSans" font-size="10.00">tbb_fake.h</text>
</a>
</g>
</g>
<!-- Node29&#45;&gt;Node30 -->
<g id="edge36" class="edge"><title>Node29&#45;&gt;Node30</title>
<path fill="none" stroke="midnightblue" d="M349.863,-168.083C347.317,-160.849 343.644,-150.409 340.473,-141.397"/>
<polygon fill="midnightblue" stroke="midnightblue" points="343.7,-140.023 337.079,-131.751 337.097,-142.346 343.7,-140.023"/>
</g>
<!-- Node30&#45;&gt;Node9 -->
<g id="edge37" class="edge"><title>Node30&#45;&gt;Node9</title>
<path fill="none" stroke="midnightblue" d="M337.468,-112.083C340.312,-104.77 344.429,-94.1814 347.96,-85.1034"/>
<polygon fill="midnightblue" stroke="midnightblue" points="351.234,-86.3397 351.597,-75.7511 344.71,-83.8025 351.234,-86.3397"/>
</g>
<!-- Node32&#45;&gt;Node2 -->
<g id="edge41" class="edge"><title>Node32&#45;&gt;Node2</title>
<path fill="none" stroke="midnightblue" d="M265.199,-168.324C256.182,-160.341 242.594,-148.313 231.682,-138.653"/>
<polygon fill="midnightblue" stroke="midnightblue" points="233.787,-135.842 223.979,-131.834 229.147,-141.083 233.787,-135.842"/>
</g>
<!-- Node32&#45;&gt;Node8 -->
<g id="edge42" class="edge"><title>Node32&#45;&gt;Node8</title>
<path fill="none" stroke="midnightblue" d="M275.785,-168.368C277.398,-150.617 281.121,-109.666 283.309,-85.5974"/>
<polygon fill="midnightblue" stroke="midnightblue" points="286.799,-85.8673 284.219,-75.5914 279.828,-85.2334 286.799,-85.8673"/>
</g>
</g>
</svg>
