<?xml version="1.0" encoding="UTF-8" standalone="no"?>
<!DOCTYPE svg PUBLIC "-//W3C//DTD SVG 1.1//EN"
 "http://www.w3.org/Graphics/SVG/1.1/DTD/svg11.dtd">
<!-- Generated by graphviz version 2.38.0 (20140413.2041)
 -->
<!-- Title: src/convectionSystem.cpp Pages: 1 -->
<svg width="2370pt" height="386pt"
 viewBox="0.00 0.00 2369.50 386.00" xmlns="http://www.w3.org/2000/svg" xmlns:xlink="http://www.w3.org/1999/xlink">
<g id="graph0" class="graph" transform="scale(1 1) rotate(0) translate(4 382)">
<title>src/convectionSystem.cpp</title>
<polygon fill="white" stroke="none" points="-4,4 -4,-382 2365.5,-382 2365.5,4 -4,4"/>
<!-- Node1 -->
<g id="node1" class="node"><title>Node1</title>
<polygon fill="#bfbfbf" stroke="black" points="1174.5,-358.5 1174.5,-377.5 1303.5,-377.5 1303.5,-358.5 1174.5,-358.5"/>
<text text-anchor="middle" x="1239" y="-365.5" font-family="FreeSans" font-size="10.00">src/convectionSystem.cpp</text>
</g>
<!-- Node2 -->
<g id="node2" class="node"><title>Node2</title>
<g id="a_node2"><a xlink:href="convectionSystem_8h.html" target="_top" xlink:title="convectionSystem.h">
<polygon fill="white" stroke="black" points="1187.5,-302.5 1187.5,-321.5 1290.5,-321.5 1290.5,-302.5 1187.5,-302.5"/>
<text text-anchor="middle" x="1239" y="-309.5" font-family="FreeSans" font-size="10.00">convectionSystem.h</text>
</a>
</g>
</g>
<!-- Node1&#45;&gt;Node2 -->
<g id="edge1" class="edge"><title>Node1&#45;&gt;Node2</title>
<path fill="none" stroke="midnightblue" d="M1239,-358.083C1239,-351.006 1239,-340.861 1239,-331.986"/>
<polygon fill="midnightblue" stroke="midnightblue" points="1242.5,-331.751 1239,-321.751 1235.5,-331.751 1242.5,-331.751"/>
</g>
<!-- Node10 -->
<g id="node10" class="node"><title>Node10</title>
<g id="a_node10"><a xlink:href="debugUtils_8h.html" target="_top" xlink:title="debugUtils.h">
<polygon fill="white" stroke="red" points="1121.5,-56.5 1121.5,-75.5 1190.5,-75.5 1190.5,-56.5 1121.5,-56.5"/>
<text text-anchor="middle" x="1156" y="-63.5" font-family="FreeSans" font-size="10.00">debugUtils.h</text>
</a>
</g>
</g>
<!-- Node1&#45;&gt;Node10 -->
<g id="edge43" class="edge"><title>Node1&#45;&gt;Node10</title>
<path fill="none" stroke="midnightblue" d="M1174.13,-364.388C919.197,-353.702 0,-311.045 0,-251.5 0,-251.5 0,-251.5 0,-188 0,-145.778 19.6295,-131.651 57,-112 104.349,-87.102 911.081,-71.3094 1111.3,-67.7616"/>
<polygon fill="midnightblue" stroke="midnightblue" points="1111.52,-71.2584 1121.46,-67.583 1111.4,-64.2595 1111.52,-71.2584"/>
</g>
<!-- Node27 -->
<g id="node27" class="node"><title>Node27</title>
<g id="a_node27"><a xlink:href="tbb__tools_8h.html" target="_top" xlink:title="tbb_tools.h">
<polygon fill="white" stroke="red" points="1015.5,-179.5 1015.5,-198.5 1078.5,-198.5 1078.5,-179.5 1015.5,-179.5"/>
<text text-anchor="middle" x="1047" y="-186.5" font-family="FreeSans" font-size="10.00">tbb_tools.h</text>
</a>
</g>
</g>
<!-- Node1&#45;&gt;Node27 -->
<g id="edge52" class="edge"><title>Node1&#45;&gt;Node27</title>
<path fill="none" stroke="midnightblue" d="M1174.25,-362.331C1111.51,-353.965 1019.51,-330.683 975,-266 967.19,-254.65 968.321,-247.051 975,-235 983.089,-220.405 998.103,-209.918 1012.34,-202.761"/>
<polygon fill="midnightblue" stroke="midnightblue" points="1013.89,-205.9 1021.5,-198.528 1010.95,-199.546 1013.89,-205.9"/>
</g>
<!-- Node33 -->
<g id="node33" class="node"><title>Node33</title>
<g id="a_node33"><a xlink:href="chemistry0d_8h.html" target="_top" xlink:title="chemistry0d.h">
<polygon fill="white" stroke="black" points="1648,-179.5 1648,-198.5 1724,-198.5 1724,-179.5 1648,-179.5"/>
<text text-anchor="middle" x="1686" y="-186.5" font-family="FreeSans" font-size="10.00">chemistry0d.h</text>
</a>
</g>
</g>
<!-- Node1&#45;&gt;Node33 -->
<g id="edge44" class="edge"><title>Node1&#45;&gt;Node33</title>
<path fill="none" stroke="midnightblue" d="M1265.55,-358.492C1316.18,-342.062 1429.79,-304.205 1523,-266 1572.22,-245.825 1628.12,-218.842 1660.01,-203.048"/>
<polygon fill="midnightblue" stroke="midnightblue" points="1661.71,-206.113 1669.1,-198.526 1658.59,-199.846 1661.71,-206.113"/>
</g>
<!-- Node39 -->
<g id="node39" class="node"><title>Node39</title>
<polygon fill="white" stroke="#bfbfbf" points="1587.5,-302.5 1587.5,-321.5 1680.5,-321.5 1680.5,-302.5 1587.5,-302.5"/>
<text text-anchor="middle" x="1634" y="-309.5" font-family="FreeSans" font-size="10.00">boost/foreach.hpp</text>
</g>
<!-- Node1&#45;&gt;Node39 -->
<g id="edge53" class="edge"><title>Node1&#45;&gt;Node39</title>
<path fill="none" stroke="midnightblue" d="M1303.69,-358.529C1371,-349.658 1479.43,-335.205 1573,-322 1574.46,-321.794 1575.93,-321.585 1577.42,-321.372"/>
<polygon fill="midnightblue" stroke="midnightblue" points="1577.98,-324.828 1587.38,-319.94 1576.99,-317.9 1577.98,-324.828"/>
</g>
<!-- Node3 -->
<g id="node3" class="node"><title>Node3</title>
<g id="a_node3"><a xlink:href="mathUtils_8h.html" target="_top" xlink:title="mathUtils.h">
<polygon fill="white" stroke="black" points="1412.5,-118 1412.5,-137 1477.5,-137 1477.5,-118 1412.5,-118"/>
<text text-anchor="middle" x="1445" y="-125" font-family="FreeSans" font-size="10.00">mathUtils.h</text>
</a>
</g>
</g>
<!-- Node2&#45;&gt;Node3 -->
<g id="edge2" class="edge"><title>Node2&#45;&gt;Node3</title>
<path fill="none" stroke="midnightblue" d="M1290.62,-308.008C1349.87,-303.369 1441.64,-292.083 1463,-266 1491.26,-231.497 1469.2,-174.928 1454.84,-146.296"/>
<polygon fill="midnightblue" stroke="midnightblue" points="1457.76,-144.326 1450.01,-137.103 1451.56,-147.583 1457.76,-144.326"/>
</g>
<!-- Node12 -->
<g id="node12" class="node"><title>Node12</title>
<g id="a_node12"><a xlink:href="sundialsUtils_8h.html" target="_top" xlink:title="sundialsUtils.h">
<polygon fill="white" stroke="black" points="622.5,-179.5 622.5,-198.5 699.5,-198.5 699.5,-179.5 622.5,-179.5"/>
<text text-anchor="middle" x="661" y="-186.5" font-family="FreeSans" font-size="10.00">sundialsUtils.h</text>
</a>
</g>
</g>
<!-- Node2&#45;&gt;Node12 -->
<g id="edge13" class="edge"><title>Node2&#45;&gt;Node12</title>
<path fill="none" stroke="midnightblue" d="M1187.21,-303.248C1133.83,-295.008 1048.32,-281.103 975,-266 877.111,-245.836 763.363,-216.92 703.26,-201.206"/>
<polygon fill="midnightblue" stroke="midnightblue" points="703.942,-197.767 693.381,-198.616 702.166,-204.538 703.942,-197.767"/>
</g>
<!-- Node24 -->
<g id="node24" class="node"><title>Node24</title>
<g id="a_node24"><a xlink:href="grid_8h.html" target="_top" xlink:title="grid.h">
<polygon fill="white" stroke="black" points="1068,-241 1068,-260 1108,-260 1108,-241 1068,-241"/>
<text text-anchor="middle" x="1088" y="-248" font-family="FreeSans" font-size="10.00">grid.h</text>
</a>
</g>
</g>
<!-- Node2&#45;&gt;Node24 -->
<g id="edge27" class="edge"><title>Node2&#45;&gt;Node24</title>
<path fill="none" stroke="midnightblue" d="M1213.44,-302.495C1188.53,-293.99 1149.73,-280.169 1117,-266 1115.84,-265.497 1114.66,-264.97 1113.47,-264.428"/>
<polygon fill="midnightblue" stroke="midnightblue" points="1114.95,-261.256 1104.41,-260.1 1111.93,-267.571 1114.95,-261.256"/>
</g>
<!-- Node26 -->
<g id="node26" class="node"><title>Node26</title>
<g id="a_node26"><a xlink:href="perfTimer_8h.html" target="_top" xlink:title="perfTimer.h">
<polygon fill="white" stroke="black" points="984.5,-241 984.5,-260 1049.5,-260 1049.5,-241 984.5,-241"/>
<text text-anchor="middle" x="1017" y="-248" font-family="FreeSans" font-size="10.00">perfTimer.h</text>
</a>
</g>
</g>
<!-- Node2&#45;&gt;Node26 -->
<g id="edge31" class="edge"><title>Node2&#45;&gt;Node26</title>
<path fill="none" stroke="midnightblue" d="M1200.81,-302.476C1164.2,-294.061 1107.48,-280.398 1059,-266 1056.23,-265.176 1053.37,-264.283 1050.5,-263.358"/>
<polygon fill="midnightblue" stroke="midnightblue" points="1051.46,-259.99 1040.87,-260.146 1049.25,-266.63 1051.46,-259.99"/>
</g>
<!-- Node29 -->
<g id="node29" class="node"><title>Node29</title>
<g id="a_node29"><a xlink:href="quasi2d_8h.html" target="_top" xlink:title="quasi2d.h">
<polygon fill="white" stroke="black" points="1503.5,-179.5 1503.5,-198.5 1560.5,-198.5 1560.5,-179.5 1503.5,-179.5"/>
<text text-anchor="middle" x="1532" y="-186.5" font-family="FreeSans" font-size="10.00">quasi2d.h</text>
</a>
</g>
</g>
<!-- Node2&#45;&gt;Node29 -->
<g id="edge36" class="edge"><title>Node2&#45;&gt;Node29</title>
<path fill="none" stroke="midnightblue" d="M1290.67,-307.623C1356.49,-302.384 1465.47,-290.265 1497,-266 1515.22,-251.979 1524.29,-226.251 1528.56,-208.647"/>
<polygon fill="midnightblue" stroke="midnightblue" points="1532.02,-209.195 1530.68,-198.685 1525.17,-207.738 1532.02,-209.195"/>
</g>
<!-- Node30 -->
<g id="node30" class="node"><title>Node30</title>
<g id="a_node30"><a xlink:href="scalarFunction_8h.html" target="_top" xlink:title="scalarFunction.h">
<polygon fill="white" stroke="black" points="1367.5,-241 1367.5,-260 1454.5,-260 1454.5,-241 1367.5,-241"/>
<text text-anchor="middle" x="1411" y="-248" font-family="FreeSans" font-size="10.00">scalarFunction.h</text>
</a>
</g>
</g>
<!-- Node2&#45;&gt;Node30 -->
<g id="edge39" class="edge"><title>Node2&#45;&gt;Node30</title>
<path fill="none" stroke="midnightblue" d="M1263.64,-302.475C1293.28,-292.225 1343.18,-274.959 1376.6,-263.399"/>
<polygon fill="midnightblue" stroke="midnightblue" points="1378.1,-266.586 1386.4,-260.009 1375.81,-259.971 1378.1,-266.586"/>
</g>
<!-- Node31 -->
<g id="node31" class="node"><title>Node31</title>
<polygon fill="white" stroke="#bfbfbf" points="1126,-241 1126,-260 1232,-260 1232,-241 1126,-241"/>
<text text-anchor="middle" x="1179" y="-248" font-family="FreeSans" font-size="10.00">boost/shared_ptr.hpp</text>
</g>
<!-- Node2&#45;&gt;Node31 -->
<g id="edge41" class="edge"><title>Node2&#45;&gt;Node31</title>
<path fill="none" stroke="midnightblue" d="M1230.4,-302.475C1221.14,-293.285 1206.18,-278.456 1194.79,-267.156"/>
<polygon fill="midnightblue" stroke="midnightblue" points="1197.15,-264.565 1187.58,-260.009 1192.22,-269.536 1197.15,-264.565"/>
</g>
<!-- Node32 -->
<g id="node32" class="node"><title>Node32</title>
<polygon fill="white" stroke="#bfbfbf" points="1250.5,-235.5 1250.5,-265.5 1349.5,-265.5 1349.5,-235.5 1250.5,-235.5"/>
<text text-anchor="start" x="1258.5" y="-253.5" font-family="FreeSans" font-size="10.00">boost/ptr_container</text>
<text text-anchor="middle" x="1300" y="-242.5" font-family="FreeSans" font-size="10.00">/ptr_vector.hpp</text>
</g>
<!-- Node2&#45;&gt;Node32 -->
<g id="edge42" class="edge"><title>Node2&#45;&gt;Node32</title>
<path fill="none" stroke="midnightblue" d="M1247.74,-302.475C1255.69,-294.718 1267.76,-282.943 1278.3,-272.665"/>
<polygon fill="midnightblue" stroke="midnightblue" points="1280.91,-275.011 1285.62,-265.523 1276.02,-270 1280.91,-275.011"/>
</g>
<!-- Node4 -->
<g id="node4" class="node"><title>Node4</title>
<polygon fill="white" stroke="#bfbfbf" points="1208.5,-56.5 1208.5,-75.5 1251.5,-75.5 1251.5,-56.5 1208.5,-56.5"/>
<text text-anchor="middle" x="1230" y="-63.5" font-family="FreeSans" font-size="10.00">vector</text>
</g>
<!-- Node3&#45;&gt;Node4 -->
<g id="edge3" class="edge"><title>Node3&#45;&gt;Node4</title>
<path fill="none" stroke="midnightblue" d="M1414.2,-117.975C1373.52,-106.718 1302.28,-87.0022 1261.34,-75.6722"/>
<polygon fill="midnightblue" stroke="midnightblue" points="1262.19,-72.2767 1251.62,-72.9827 1260.32,-79.0231 1262.19,-72.2767"/>
</g>
<!-- Node5 -->
<g id="node5" class="node"><title>Node5</title>
<polygon fill="white" stroke="#bfbfbf" points="1436,-56.5 1436,-75.5 1480,-75.5 1480,-56.5 1436,-56.5"/>
<text text-anchor="middle" x="1458" y="-63.5" font-family="FreeSans" font-size="10.00">cmath</text>
</g>
<!-- Node3&#45;&gt;Node5 -->
<g id="edge4" class="edge"><title>Node3&#45;&gt;Node5</title>
<path fill="none" stroke="midnightblue" d="M1446.86,-117.975C1448.72,-109.492 1451.62,-96.2043 1454,-85.3222"/>
<polygon fill="midnightblue" stroke="midnightblue" points="1457.43,-86.0257 1456.14,-75.5091 1450.59,-84.5315 1457.43,-86.0257"/>
</g>
<!-- Node6 -->
<g id="node6" class="node"><title>Node6</title>
<polygon fill="white" stroke="#bfbfbf" points="1129.5,-0.5 1129.5,-19.5 1182.5,-19.5 1182.5,-0.5 1129.5,-0.5"/>
<text text-anchor="middle" x="1156" y="-7.5" font-family="FreeSans" font-size="10.00">iostream</text>
</g>
<!-- Node3&#45;&gt;Node6 -->
<g id="edge5" class="edge"><title>Node3&#45;&gt;Node6</title>
<path fill="none" stroke="midnightblue" d="M1423.28,-117.819C1372.52,-97.535 1246.01,-46.9732 1187.1,-23.4284"/>
<polygon fill="midnightblue" stroke="midnightblue" points="1188.16,-20.0856 1177.58,-19.6245 1185.57,-26.5857 1188.16,-20.0856"/>
</g>
<!-- Node7 -->
<g id="node7" class="node"><title>Node7</title>
<polygon fill="white" stroke="#bfbfbf" points="1498,-56.5 1498,-75.5 1548,-75.5 1548,-56.5 1498,-56.5"/>
<text text-anchor="middle" x="1523" y="-63.5" font-family="FreeSans" font-size="10.00">sstream</text>
</g>
<!-- Node3&#45;&gt;Node7 -->
<g id="edge6" class="edge"><title>Node3&#45;&gt;Node7</title>
<path fill="none" stroke="midnightblue" d="M1456.18,-117.975C1468.57,-108.52 1488.79,-93.0961 1503.75,-81.6871"/>
<polygon fill="midnightblue" stroke="midnightblue" points="1506.02,-84.357 1511.85,-75.5091 1501.77,-78.7914 1506.02,-84.357"/>
</g>
<!-- Node8 -->
<g id="node8" class="node"><title>Node8</title>
<polygon fill="white" stroke="#bfbfbf" points="1298,-0.5 1298,-19.5 1338,-19.5 1338,-0.5 1298,-0.5"/>
<text text-anchor="middle" x="1318" y="-7.5" font-family="FreeSans" font-size="10.00">string</text>
</g>
<!-- Node3&#45;&gt;Node8 -->
<g id="edge7" class="edge"><title>Node3&#45;&gt;Node8</title>
<path fill="none" stroke="midnightblue" d="M1477.83,-119.446C1519.48,-109.022 1582.96,-87.3038 1557,-56 1530.8,-24.4094 1406.57,-14.8478 1348.3,-12.0753"/>
<polygon fill="midnightblue" stroke="midnightblue" points="1348.37,-8.57512 1338.23,-11.6329 1348.07,-15.5684 1348.37,-8.57512"/>
</g>
<!-- Node9 -->
<g id="node9" class="node"><title>Node9</title>
<polygon fill="white" stroke="#bfbfbf" points="1604.5,-56.5 1604.5,-75.5 1639.5,-75.5 1639.5,-56.5 1604.5,-56.5"/>
<text text-anchor="middle" x="1622" y="-63.5" font-family="FreeSans" font-size="10.00">map</text>
</g>
<!-- Node3&#45;&gt;Node9 -->
<g id="edge8" class="edge"><title>Node3&#45;&gt;Node9</title>
<path fill="none" stroke="midnightblue" d="M1470.36,-117.975C1503.28,-106.909 1560.52,-87.6681 1594.47,-76.2555"/>
<polygon fill="midnightblue" stroke="midnightblue" points="1595.84,-79.4867 1604.2,-72.9827 1593.61,-72.8515 1595.84,-79.4867"/>
</g>
<!-- Node3&#45;&gt;Node10 -->
<g id="edge9" class="edge"><title>Node3&#45;&gt;Node10</title>
<path fill="none" stroke="midnightblue" d="M1412.36,-119.842C1367.08,-110.595 1282.37,-93.2632 1200.68,-76.3423"/>
<polygon fill="midnightblue" stroke="midnightblue" points="1201.23,-72.8835 1190.73,-74.2813 1199.81,-79.7378 1201.23,-72.8835"/>
</g>
<!-- Node11 -->
<g id="node11" class="node"><title>Node11</title>
<polygon fill="white" stroke="#bfbfbf" points="1346.5,-56.5 1346.5,-75.5 1417.5,-75.5 1417.5,-56.5 1346.5,-56.5"/>
<text text-anchor="middle" x="1382" y="-63.5" font-family="FreeSans" font-size="10.00">Eigen/Dense</text>
</g>
<!-- Node3&#45;&gt;Node11 -->
<g id="edge12" class="edge"><title>Node3&#45;&gt;Node11</title>
<path fill="none" stroke="midnightblue" d="M1435.97,-117.975C1426.24,-108.785 1410.54,-93.9563 1398.58,-82.656"/>
<polygon fill="midnightblue" stroke="midnightblue" points="1400.68,-79.8308 1391.01,-75.5091 1395.88,-84.9199 1400.68,-79.8308"/>
</g>
<!-- Node10&#45;&gt;Node6 -->
<g id="edge11" class="edge"><title>Node10&#45;&gt;Node6</title>
<path fill="none" stroke="midnightblue" d="M1156,-56.083C1156,-49.0059 1156,-38.8611 1156,-29.9865"/>
<polygon fill="midnightblue" stroke="midnightblue" points="1159.5,-29.751 1156,-19.7511 1152.5,-29.7511 1159.5,-29.751"/>
</g>
<!-- Node10&#45;&gt;Node8 -->
<g id="edge10" class="edge"><title>Node10&#45;&gt;Node8</title>
<path fill="none" stroke="midnightblue" d="M1181.67,-56.4435C1210.53,-46.8247 1257.33,-31.2238 1287.89,-21.0372"/>
<polygon fill="midnightblue" stroke="midnightblue" points="1289.2,-24.2894 1297.58,-17.8067 1286.99,-17.6486 1289.2,-24.2894"/>
</g>
<!-- Node12&#45;&gt;Node4 -->
<g id="edge24" class="edge"><title>Node12&#45;&gt;Node4</title>
<path fill="none" stroke="midnightblue" d="M622.081,-181.293C570.036,-170.775 488.03,-147.824 522,-112 572.06,-59.2071 1087.65,-86.5483 1198.28,-75.2828"/>
<polygon fill="midnightblue" stroke="midnightblue" points="1199.01,-78.7169 1208.47,-73.9365 1198.09,-71.7772 1199.01,-78.7169"/>
</g>
<!-- Node12&#45;&gt;Node6 -->
<g id="edge23" class="edge"><title>Node12&#45;&gt;Node6</title>
<path fill="none" stroke="midnightblue" d="M622.443,-188.094C495.34,-188.009 95.4517,-184.423 57,-143 47.6265,-132.902 47.7141,-122.178 57,-112 130.198,-31.7662 935.819,-14.4281 1119.06,-11.5124"/>
<polygon fill="midnightblue" stroke="midnightblue" points="1119.32,-15.009 1129.26,-11.3549 1119.21,-8.00982 1119.32,-15.009"/>
</g>
<!-- Node13 -->
<g id="node13" class="node"><title>Node13</title>
<polygon fill="white" stroke="#bfbfbf" points="531,-118 531,-137 649,-137 649,-118 531,-118"/>
<text text-anchor="middle" x="590" y="-125" font-family="FreeSans" font-size="10.00">nvector/nvector_serial.h</text>
</g>
<!-- Node12&#45;&gt;Node13 -->
<g id="edge14" class="edge"><title>Node12&#45;&gt;Node13</title>
<path fill="none" stroke="midnightblue" d="M650.827,-179.475C639.65,-170.108 621.483,-154.884 607.909,-143.508"/>
<polygon fill="midnightblue" stroke="midnightblue" points="610.066,-140.75 600.154,-137.009 605.57,-146.115 610.066,-140.75"/>
</g>
<!-- Node14 -->
<g id="node14" class="node"><title>Node14</title>
<polygon fill="white" stroke="#bfbfbf" points="667.5,-118 667.5,-137 794.5,-137 794.5,-118 667.5,-118"/>
<text text-anchor="middle" x="731" y="-125" font-family="FreeSans" font-size="10.00">sundials/sundials_dense.h</text>
</g>
<!-- Node12&#45;&gt;Node14 -->
<g id="edge15" class="edge"><title>Node12&#45;&gt;Node14</title>
<path fill="none" stroke="midnightblue" d="M671.029,-179.475C682.049,-170.108 699.96,-154.884 713.343,-143.508"/>
<polygon fill="midnightblue" stroke="midnightblue" points="715.637,-146.152 720.989,-137.009 711.103,-140.819 715.637,-146.152"/>
</g>
<!-- Node15 -->
<g id="node15" class="node"><title>Node15</title>
<polygon fill="white" stroke="#bfbfbf" points="813,-118 813,-137 935,-137 935,-118 813,-118"/>
<text text-anchor="middle" x="874" y="-125" font-family="FreeSans" font-size="10.00">sundials/sundials_band.h</text>
</g>
<!-- Node12&#45;&gt;Node15 -->
<g id="edge16" class="edge"><title>Node12&#45;&gt;Node15</title>
<path fill="none" stroke="midnightblue" d="M691.518,-179.475C728.925,-169.026 792.427,-151.287 833.787,-139.733"/>
<polygon fill="midnightblue" stroke="midnightblue" points="834.849,-143.071 843.539,-137.009 832.966,-136.329 834.849,-143.071"/>
</g>
<!-- Node16 -->
<g id="node16" class="node"><title>Node16</title>
<polygon fill="white" stroke="#bfbfbf" points="953,-118 953,-137 1077,-137 1077,-118 953,-118"/>
<text text-anchor="middle" x="1015" y="-125" font-family="FreeSans" font-size="10.00">sundials/sundials_types.h</text>
</g>
<!-- Node12&#45;&gt;Node16 -->
<g id="edge17" class="edge"><title>Node12&#45;&gt;Node16</title>
<path fill="none" stroke="midnightblue" d="M699.541,-182.418C754.086,-174.394 856.87,-158.816 944,-143 950.737,-141.777 957.818,-140.419 964.792,-139.038"/>
<polygon fill="midnightblue" stroke="midnightblue" points="965.767,-142.412 974.882,-137.012 964.389,-135.549 965.767,-142.412"/>
</g>
<!-- Node17 -->
<g id="node17" class="node"><title>Node17</title>
<polygon fill="white" stroke="#bfbfbf" points="1095,-118 1095,-137 1173,-137 1173,-118 1095,-118"/>
<text text-anchor="middle" x="1134" y="-125" font-family="FreeSans" font-size="10.00">cvode/cvode.h</text>
</g>
<!-- Node12&#45;&gt;Node17 -->
<g id="edge18" class="edge"><title>Node12&#45;&gt;Node17</title>
<path fill="none" stroke="midnightblue" d="M699.754,-186.334C774.915,-182.569 945.456,-171.406 1086,-143 1090.22,-142.146 1094.61,-141.081 1098.93,-139.917"/>
<polygon fill="midnightblue" stroke="midnightblue" points="1100.17,-143.203 1108.82,-137.077 1098.24,-136.475 1100.17,-143.203"/>
</g>
<!-- Node18 -->
<g id="node18" class="node"><title>Node18</title>
<polygon fill="white" stroke="#bfbfbf" points="66.5,-118 66.5,-137 175.5,-137 175.5,-118 66.5,-118"/>
<text text-anchor="middle" x="121" y="-125" font-family="FreeSans" font-size="10.00">cvode/cvode_dense.h</text>
</g>
<!-- Node12&#45;&gt;Node18 -->
<g id="edge19" class="edge"><title>Node12&#45;&gt;Node18</title>
<path fill="none" stroke="midnightblue" d="M622.225,-186.027C540.812,-181.515 346.269,-168.782 185,-143 178.577,-141.973 171.836,-140.683 165.237,-139.298"/>
<polygon fill="midnightblue" stroke="midnightblue" points="165.57,-135.788 155.053,-137.069 164.073,-142.626 165.57,-135.788"/>
</g>
<!-- Node19 -->
<g id="node19" class="node"><title>Node19</title>
<polygon fill="white" stroke="#bfbfbf" points="194,-118 194,-137 298,-137 298,-118 194,-118"/>
<text text-anchor="middle" x="246" y="-125" font-family="FreeSans" font-size="10.00">cvode/cvode_band.h</text>
</g>
<!-- Node12&#45;&gt;Node19 -->
<g id="edge20" class="edge"><title>Node12&#45;&gt;Node19</title>
<path fill="none" stroke="midnightblue" d="M622.291,-184.448C556.968,-178.148 420.83,-163.703 307,-143 301.168,-141.939 295.057,-140.674 289.05,-139.339"/>
<polygon fill="midnightblue" stroke="midnightblue" points="289.636,-135.882 279.106,-137.05 288.066,-142.704 289.636,-135.882"/>
</g>
<!-- Node20 -->
<g id="node20" class="node"><title>Node20</title>
<polygon fill="white" stroke="#bfbfbf" points="316.5,-118 316.5,-137 369.5,-137 369.5,-118 316.5,-118"/>
<text text-anchor="middle" x="343" y="-125" font-family="FreeSans" font-size="10.00">ida/ida.h</text>
</g>
<!-- Node12&#45;&gt;Node20 -->
<g id="edge21" class="edge"><title>Node12&#45;&gt;Node20</title>
<path fill="none" stroke="midnightblue" d="M622.391,-184.76C567.332,-179.49 463.46,-167.133 378,-143 375.563,-142.312 373.068,-141.503 370.586,-140.625"/>
<polygon fill="midnightblue" stroke="midnightblue" points="371.829,-137.353 361.24,-137.006 369.301,-143.88 371.829,-137.353"/>
</g>
<!-- Node21 -->
<g id="node21" class="node"><title>Node21</title>
<polygon fill="white" stroke="#bfbfbf" points="387,-118 387,-137 475,-137 475,-118 387,-118"/>
<text text-anchor="middle" x="431" y="-125" font-family="FreeSans" font-size="10.00">ida/ida_spbcgs.h</text>
</g>
<!-- Node12&#45;&gt;Node21 -->
<g id="edge22" class="edge"><title>Node12&#45;&gt;Node21</title>
<path fill="none" stroke="midnightblue" d="M628.047,-179.475C587.398,-168.959 518.213,-151.062 473.576,-139.514"/>
<polygon fill="midnightblue" stroke="midnightblue" points="474.45,-136.125 463.892,-137.009 472.697,-142.902 474.45,-136.125"/>
</g>
<!-- Node22 -->
<g id="node22" class="node"><title>Node22</title>
<polygon fill="white" stroke="#bfbfbf" points="1191.5,-118 1191.5,-137 1234.5,-137 1234.5,-118 1191.5,-118"/>
<text text-anchor="middle" x="1213" y="-125" font-family="FreeSans" font-size="10.00">time.h</text>
</g>
<!-- Node12&#45;&gt;Node22 -->
<g id="edge25" class="edge"><title>Node12&#45;&gt;Node22</title>
<path fill="none" stroke="midnightblue" d="M699.839,-186.408C804.547,-181.838 1090.91,-167.411 1182,-143 1183.94,-142.481 1185.9,-141.847 1187.85,-141.137"/>
<polygon fill="midnightblue" stroke="midnightblue" points="1189.47,-144.255 1197.32,-137.138 1186.74,-137.807 1189.47,-144.255"/>
</g>
<!-- Node23 -->
<g id="node23" class="node"><title>Node23</title>
<g id="a_node23"><a xlink:href="config_8h.html" target="_top" xlink:title="config.h">
<polygon fill="white" stroke="black" points="1253,-118 1253,-137 1303,-137 1303,-118 1253,-118"/>
<text text-anchor="middle" x="1278" y="-125" font-family="FreeSans" font-size="10.00">config.h</text>
</a>
</g>
</g>
<!-- Node12&#45;&gt;Node23 -->
<g id="edge26" class="edge"><title>Node12&#45;&gt;Node23</title>
<path fill="none" stroke="midnightblue" d="M699.789,-186.594C812.624,-182.252 1139.27,-167.832 1243,-143 1245.52,-142.397 1248.09,-141.637 1250.64,-140.781"/>
<polygon fill="midnightblue" stroke="midnightblue" points="1252.1,-143.972 1260.2,-137.145 1249.61,-137.43 1252.1,-143.972"/>
</g>
<!-- Node25 -->
<g id="node25" class="node"><title>Node25</title>
<g id="a_node25"><a xlink:href="readConfig_8h.html" target="_top" xlink:title="readConfig.h">
<polygon fill="white" stroke="black" points="1296,-179.5 1296,-198.5 1366,-198.5 1366,-179.5 1296,-179.5"/>
<text text-anchor="middle" x="1331" y="-186.5" font-family="FreeSans" font-size="10.00">readConfig.h</text>
</a>
</g>
</g>
<!-- Node24&#45;&gt;Node25 -->
<g id="edge28" class="edge"><title>Node24&#45;&gt;Node25</title>
<path fill="none" stroke="midnightblue" d="M1103.33,-240.918C1107.66,-238.753 1112.43,-236.594 1117,-235 1173.59,-215.272 1241.75,-202.764 1285.7,-196.073"/>
<polygon fill="midnightblue" stroke="midnightblue" points="1286.41,-199.506 1295.79,-194.575 1285.38,-192.582 1286.41,-199.506"/>
</g>
<!-- Node25&#45;&gt;Node3 -->
<g id="edge29" class="edge"><title>Node25&#45;&gt;Node3</title>
<path fill="none" stroke="midnightblue" d="M1347.33,-179.475C1366.21,-169.622 1397.51,-153.288 1419.58,-141.77"/>
<polygon fill="midnightblue" stroke="midnightblue" points="1421.45,-144.739 1428.7,-137.009 1418.21,-138.533 1421.45,-144.739"/>
</g>
<!-- Node25&#45;&gt;Node8 -->
<g id="edge30" class="edge"><title>Node25&#45;&gt;Node8</title>
<path fill="none" stroke="midnightblue" d="M1330.37,-179.463C1328.39,-152.428 1322.2,-68.2392 1319.4,-30.109"/>
<polygon fill="midnightblue" stroke="midnightblue" points="1322.87,-29.5851 1318.65,-19.8684 1315.89,-30.0979 1322.87,-29.5851"/>
</g>
<!-- Node26&#45;&gt;Node22 -->
<g id="edge35" class="edge"><title>Node26&#45;&gt;Node22</title>
<path fill="none" stroke="midnightblue" d="M1011.71,-240.573C1003.84,-225.978 991.431,-196.85 1006,-179 1056.48,-117.145 1106.2,-168.088 1182,-143 1183.67,-142.448 1185.36,-141.83 1187.06,-141.169"/>
<polygon fill="midnightblue" stroke="midnightblue" points="1188.77,-144.243 1196.56,-137.066 1185.99,-137.816 1188.77,-144.243"/>
</g>
<!-- Node26&#45;&gt;Node27 -->
<g id="edge32" class="edge"><title>Node26&#45;&gt;Node27</title>
<path fill="none" stroke="midnightblue" d="M1021.3,-240.975C1025.66,-232.315 1032.56,-218.649 1038.1,-207.645"/>
<polygon fill="midnightblue" stroke="midnightblue" points="1041.33,-209.014 1042.71,-198.509 1035.08,-205.863 1041.33,-209.014"/>
</g>
<!-- Node28 -->
<g id="node28" class="node"><title>Node28</title>
<polygon fill="white" stroke="#bfbfbf" points="1096.5,-179.5 1096.5,-198.5 1155.5,-198.5 1155.5,-179.5 1096.5,-179.5"/>
<text text-anchor="middle" x="1126" y="-186.5" font-family="FreeSans" font-size="10.00">sys/time.h</text>
</g>
<!-- Node26&#45;&gt;Node28 -->
<g id="edge34" class="edge"><title>Node26&#45;&gt;Node28</title>
<path fill="none" stroke="midnightblue" d="M1032.62,-240.975C1050.59,-231.166 1080.32,-214.935 1101.41,-203.425"/>
<polygon fill="midnightblue" stroke="midnightblue" points="1103.31,-206.373 1110.41,-198.509 1099.96,-200.228 1103.31,-206.373"/>
</g>
<!-- Node27&#45;&gt;Node23 -->
<g id="edge33" class="edge"><title>Node27&#45;&gt;Node23</title>
<path fill="none" stroke="midnightblue" d="M1078.63,-180.882C1132.06,-168.842 1235.14,-145.51 1243,-143 1245.14,-142.317 1247.33,-141.558 1249.52,-140.757"/>
<polygon fill="midnightblue" stroke="midnightblue" points="1250.92,-143.966 1258.96,-137.064 1248.37,-137.447 1250.92,-143.966"/>
</g>
<!-- Node29&#45;&gt;Node3 -->
<g id="edge37" class="edge"><title>Node29&#45;&gt;Node3</title>
<path fill="none" stroke="midnightblue" d="M1519.54,-179.475C1505.58,-169.931 1482.74,-154.307 1466.01,-142.868"/>
<polygon fill="midnightblue" stroke="midnightblue" points="1467.67,-139.765 1457.44,-137.009 1463.72,-145.543 1467.67,-139.765"/>
</g>
<!-- Node29&#45;&gt;Node9 -->
<g id="edge38" class="edge"><title>Node29&#45;&gt;Node9</title>
<path fill="none" stroke="midnightblue" d="M1527.94,-179.206C1521.65,-164.142 1511.59,-132.996 1525,-112 1532.98,-99.4988 1568.79,-85.0717 1594.58,-75.9933"/>
<polygon fill="midnightblue" stroke="midnightblue" points="1595.91,-79.2369 1604.23,-72.6778 1593.63,-72.6166 1595.91,-79.2369"/>
</g>
<!-- Node30&#45;&gt;Node3 -->
<g id="edge40" class="edge"><title>Node30&#45;&gt;Node3</title>
<path fill="none" stroke="midnightblue" d="M1413.45,-240.798C1418.93,-221.263 1432.34,-173.565 1439.79,-147.047"/>
<polygon fill="midnightblue" stroke="midnightblue" points="1443.24,-147.697 1442.58,-137.123 1436.5,-145.804 1443.24,-147.697"/>
</g>
<!-- Node33&#45;&gt;Node3 -->
<g id="edge46" class="edge"><title>Node33&#45;&gt;Node3</title>
<path fill="none" stroke="midnightblue" d="M1651.47,-179.475C1608.18,-168.788 1534.01,-150.475 1487.34,-138.953"/>
<polygon fill="midnightblue" stroke="midnightblue" points="1488.08,-135.532 1477.54,-136.533 1486.41,-142.328 1488.08,-135.532"/>
</g>
<!-- Node33&#45;&gt;Node23 -->
<g id="edge45" class="edge"><title>Node33&#45;&gt;Node23</title>
<path fill="none" stroke="midnightblue" d="M1647.98,-182.456C1569.38,-170.994 1389.98,-144.83 1313.54,-133.684"/>
<polygon fill="midnightblue" stroke="midnightblue" points="1313.86,-130.193 1303.46,-132.214 1312.85,-137.12 1313.86,-130.193"/>
</g>
<!-- Node34 -->
<g id="node34" class="node"><title>Node34</title>
<polygon fill="white" stroke="#bfbfbf" points="2206.5,-118 2206.5,-137 2361.5,-137 2361.5,-118 2206.5,-118"/>
<text text-anchor="middle" x="2284" y="-125" font-family="FreeSans" font-size="10.00">cantera/transport/MixTransport.h</text>
</g>
<!-- Node33&#45;&gt;Node34 -->
<g id="edge47" class="edge"><title>Node33&#45;&gt;Node34</title>
<path fill="none" stroke="midnightblue" d="M1724.01,-185.696C1809.12,-180.308 2021.42,-165.609 2198,-143 2207.59,-141.773 2217.74,-140.256 2227.58,-138.67"/>
<polygon fill="midnightblue" stroke="midnightblue" points="2228.39,-142.084 2237.68,-137.002 2227.25,-135.178 2228.39,-142.084"/>
</g>
<!-- Node35 -->
<g id="node35" class="node"><title>Node35</title>
<polygon fill="white" stroke="#bfbfbf" points="1534.5,-118 1534.5,-137 1695.5,-137 1695.5,-118 1534.5,-118"/>
<text text-anchor="middle" x="1615" y="-125" font-family="FreeSans" font-size="10.00">cantera/transport/MultiTransport.h</text>
</g>
<!-- Node33&#45;&gt;Node35 -->
<g id="edge48" class="edge"><title>Node33&#45;&gt;Node35</title>
<path fill="none" stroke="midnightblue" d="M1675.83,-179.475C1664.65,-170.108 1646.48,-154.884 1632.91,-143.508"/>
<polygon fill="midnightblue" stroke="midnightblue" points="1635.07,-140.75 1625.15,-137.009 1630.57,-146.115 1635.07,-140.75"/>
</g>
<!-- Node36 -->
<g id="node36" class="node"><title>Node36</title>
<polygon fill="white" stroke="#bfbfbf" points="1713.5,-112.5 1713.5,-142.5 1846.5,-142.5 1846.5,-112.5 1713.5,-112.5"/>
<text text-anchor="start" x="1721.5" y="-130.5" font-family="FreeSans" font-size="10.00">cantera/transport/Transport</text>
<text text-anchor="middle" x="1780" y="-119.5" font-family="FreeSans" font-size="10.00">Factory.h</text>
</g>
<!-- Node33&#45;&gt;Node36 -->
<g id="edge49" class="edge"><title>Node33&#45;&gt;Node36</title>
<path fill="none" stroke="midnightblue" d="M1699.47,-179.475C1712.44,-171.266 1732.51,-158.558 1749.38,-147.885"/>
<polygon fill="midnightblue" stroke="midnightblue" points="1751.27,-150.829 1757.85,-142.523 1747.52,-144.914 1751.27,-150.829"/>
</g>
<!-- Node37 -->
<g id="node37" class="node"><title>Node37</title>
<polygon fill="white" stroke="#bfbfbf" points="1865,-118 1865,-137 2023,-137 2023,-118 1865,-118"/>
<text text-anchor="middle" x="1944" y="-125" font-family="FreeSans" font-size="10.00">cantera/thermo/IdealGasPhase.h</text>
</g>
<!-- Node33&#45;&gt;Node37 -->
<g id="edge50" class="edge"><title>Node33&#45;&gt;Node37</title>
<path fill="none" stroke="midnightblue" d="M1722.97,-179.475C1768.85,-168.893 1847.15,-150.836 1897.18,-139.297"/>
<polygon fill="midnightblue" stroke="midnightblue" points="1898.15,-142.667 1907.1,-137.009 1896.57,-135.846 1898.15,-142.667"/>
</g>
<!-- Node38 -->
<g id="node38" class="node"><title>Node38</title>
<polygon fill="white" stroke="#bfbfbf" points="2041.5,-118 2041.5,-137 2188.5,-137 2188.5,-118 2041.5,-118"/>
<text text-anchor="middle" x="2115" y="-125" font-family="FreeSans" font-size="10.00">cantera/kinetics/GasKinetics.h</text>
</g>
<!-- Node33&#45;&gt;Node38 -->
<g id="edge51" class="edge"><title>Node33&#45;&gt;Node38</title>
<path fill="none" stroke="midnightblue" d="M1724.22,-183.582C1788.08,-176.076 1920.46,-159.987 2032,-143 2040.42,-141.718 2049.3,-140.269 2058,-138.795"/>
<polygon fill="midnightblue" stroke="midnightblue" points="2058.83,-142.205 2068.09,-137.063 2057.64,-135.306 2058.83,-142.205"/>
</g>
</g>
</svg>
