<?xml version="1.0" encoding="UTF-8" standalone="no"?>
<!DOCTYPE svg PUBLIC "-//W3C//DTD SVG 1.1//EN"
 "http://www.w3.org/Graphics/SVG/1.1/DTD/svg11.dtd">
<!-- Generated by graphviz version 2.26.3 (20100126.1600)
 -->
<!-- Title: src/convectionSystem.h Pages: 1 -->
<svg width="1856pt" height="344pt"
 viewBox="0.00 0.00 1855.97 344.00" xmlns="http://www.w3.org/2000/svg" xmlns:xlink="http://www.w3.org/1999/xlink">
<g id="graph1" class="graph" transform="scale(1 1) rotate(0) translate(4 340)">
<title>src/convectionSystem.h</title>
<polygon fill="white" stroke="white" points="-4,5 -4,-340 1852.97,-340 1852.97,5 -4,5"/>
<!-- Node1 -->
<g id="node1" class="node"><title>Node1</title>
<polygon fill="#bfbfbf" stroke="black" points="721.475,-315 721.475,-335 840.475,-335 840.475,-315 721.475,-315"/>
<text text-anchor="middle" x="780.975" y="-322" font-family="FreeSans" font-size="10.00">src/convectionSystem.h</text>
</g>
<!-- Node2 -->
<g id="node3" class="node"><title>Node2</title>
<a xlink:href="mathUtils_8h.html" target="_top" xlink:title="mathUtils.h">
<polygon fill="white" stroke="black" points="201.475,-117 201.475,-137 266.475,-137 266.475,-117 201.475,-117"/>
<text text-anchor="middle" x="233.975" y="-124" font-family="FreeSans" font-size="10.00">mathUtils.h</text>
</a>
</g>
<!-- Node1&#45;&gt;Node2 -->
<g id="edge2" class="edge"><title>Node1&#45;&gt;Node2</title>
<path fill="none" stroke="midnightblue" d="M721.194,-319.67C597.381,-307.415 318.938,-273.155 252.975,-208 236.976,-192.197 233.409,-165.657 233.071,-147.285"/>
<polygon fill="midnightblue" stroke="midnightblue" points="236.573,-147.112 233.195,-137.07 229.574,-147.027 236.573,-147.112"/>
</g>
<!-- Node14 -->
<g id="node29" class="node"><title>Node14</title>
<a xlink:href="sundialsUtils_8h.html" target="_top" xlink:title="sundialsUtils.h">
<polygon fill="white" stroke="black" points="742.475,-251 742.475,-271 819.475,-271 819.475,-251 742.475,-251"/>
<text text-anchor="middle" x="780.975" y="-258" font-family="FreeSans" font-size="10.00">sundialsUtils.h</text>
</a>
</g>
<!-- Node1&#45;&gt;Node14 -->
<g id="edge30" class="edge"><title>Node1&#45;&gt;Node14</title>
<path fill="none" stroke="midnightblue" d="M780.975,-314.717C780.975,-305.707 780.975,-292.347 780.975,-281.205"/>
<polygon fill="midnightblue" stroke="midnightblue" points="784.475,-281.046 780.975,-271.046 777.475,-281.046 784.475,-281.046"/>
</g>
<!-- Node26 -->
<g id="node55" class="node"><title>Node26</title>
<a xlink:href="grid_8h.html" target="_top" xlink:title="grid.h">
<polygon fill="white" stroke="black" points="97.9747,-251 97.9747,-271 137.975,-271 137.975,-251 97.9747,-251"/>
<text text-anchor="middle" x="117.975" y="-258" font-family="FreeSans" font-size="10.00">grid.h</text>
</a>
</g>
<!-- Node1&#45;&gt;Node26 -->
<g id="edge58" class="edge"><title>Node1&#45;&gt;Node26</title>
<path fill="none" stroke="midnightblue" d="M721.351,-322.084C589.567,-315.364 276.971,-297.835 172.975,-278 164.691,-276.42 155.894,-274.035 147.82,-271.547"/>
<polygon fill="midnightblue" stroke="midnightblue" points="148.667,-268.142 138.075,-268.393 146.512,-274.802 148.667,-268.142"/>
</g>
<!-- Node28 -->
<g id="node61" class="node"><title>Node28</title>
<a xlink:href="perfTimer_8h.html" target="_top" xlink:title="perfTimer.h">
<polygon fill="white" stroke="black" points="1476.47,-251 1476.47,-271 1541.47,-271 1541.47,-251 1476.47,-251"/>
<text text-anchor="middle" x="1508.97" y="-258" font-family="FreeSans" font-size="10.00">perfTimer.h</text>
</a>
</g>
<!-- Node1&#45;&gt;Node28 -->
<g id="edge66" class="edge"><title>Node1&#45;&gt;Node28</title>
<path fill="none" stroke="midnightblue" d="M840.55,-319.763C983.261,-307.217 1342.03,-275.677 1466.02,-264.776"/>
<polygon fill="midnightblue" stroke="midnightblue" points="1466.6,-268.239 1476.26,-263.876 1465.99,-261.266 1466.6,-268.239"/>
</g>
<!-- Node32 -->
<g id="node70" class="node"><title>Node32</title>
<a xlink:href="quasi2d_8h.html" target="_top" xlink:title="quasi2d.h">
<polygon fill="white" stroke="black" points="149.475,-181 149.475,-201 206.475,-201 206.475,-181 149.475,-181"/>
<text text-anchor="middle" x="177.975" y="-188" font-family="FreeSans" font-size="10.00">quasi2d.h</text>
</a>
</g>
<!-- Node1&#45;&gt;Node32 -->
<g id="edge76" class="edge"><title>Node1&#45;&gt;Node32</title>
<path fill="none" stroke="midnightblue" d="M721.293,-323.317C585.214,-319.011 260.571,-305.911 219.975,-278 197.481,-262.535 186.613,-231.571 181.68,-211.065"/>
<polygon fill="midnightblue" stroke="midnightblue" points="185.078,-210.219 179.562,-201.173 178.233,-211.684 185.078,-210.219"/>
</g>
<!-- Node33 -->
<g id="node75" class="node"><title>Node33</title>
<polygon fill="white" stroke="#bfbfbf" points="1558.97,-251 1558.97,-271 1664.97,-271 1664.97,-251 1558.97,-251"/>
<text text-anchor="middle" x="1611.97" y="-258" font-family="FreeSans" font-size="10.00">boost/shared_ptr.hpp</text>
</g>
<!-- Node1&#45;&gt;Node33 -->
<g id="edge84" class="edge"><title>Node1&#45;&gt;Node33</title>
<path fill="none" stroke="midnightblue" d="M840.545,-322.952C996.418,-317.339 1413.65,-300.606 1549.97,-278 1556.71,-276.884 1563.76,-275.331 1570.6,-273.614"/>
<polygon fill="midnightblue" stroke="midnightblue" points="1571.63,-276.961 1580.4,-271.012 1569.83,-270.196 1571.63,-276.961"/>
</g>
<!-- Node34 -->
<g id="node77" class="node"><title>Node34</title>
<polygon fill="white" stroke="#bfbfbf" points="1682.47,-245 1682.47,-277 1781.47,-277 1781.47,-245 1682.47,-245"/>
<text text-anchor="start" x="1690.47" y="-264" font-family="FreeSans" font-size="10.00">boost/ptr_container</text>
<text text-anchor="middle" x="1731.97" y="-252" font-family="FreeSans" font-size="10.00">/ptr_vector.hpp</text>
</g>
<!-- Node1&#45;&gt;Node34 -->
<g id="edge86" class="edge"><title>Node1&#45;&gt;Node34</title>
<path fill="none" stroke="midnightblue" d="M840.618,-323.669C1010.24,-319.601 1494.09,-305.976 1672.14,-278.042"/>
<polygon fill="midnightblue" stroke="midnightblue" points="1672.86,-281.472 1682.16,-276.399 1671.73,-274.564 1672.86,-281.472"/>
</g>
<!-- Node3 -->
<g id="node5" class="node"><title>Node3</title>
<polygon fill="white" stroke="#bfbfbf" points="483.475,-59 483.475,-79 526.475,-79 526.475,-59 483.475,-59"/>
<text text-anchor="middle" x="504.975" y="-66" font-family="FreeSans" font-size="10.00">vector</text>
</g>
<!-- Node2&#45;&gt;Node3 -->
<g id="edge4" class="edge"><title>Node2&#45;&gt;Node3</title>
<path fill="none" stroke="midnightblue" d="M266.711,-122.307C311.512,-115.519 394.511,-101.644 473.095,-80.2445"/>
<polygon fill="midnightblue" stroke="midnightblue" points="474.449,-83.5013 483.151,-77.4574 472.579,-76.7556 474.449,-83.5013"/>
</g>
<!-- Node4 -->
<g id="node7" class="node"><title>Node4</title>
<polygon fill="white" stroke="#bfbfbf" points="175.975,-59 175.975,-79 219.975,-79 219.975,-59 175.975,-59"/>
<text text-anchor="middle" x="197.975" y="-66" font-family="FreeSans" font-size="10.00">cmath</text>
</g>
<!-- Node2&#45;&gt;Node4 -->
<g id="edge6" class="edge"><title>Node2&#45;&gt;Node4</title>
<path fill="none" stroke="midnightblue" d="M227.704,-116.897C222.758,-108.928 215.719,-97.5874 209.731,-87.9413"/>
<polygon fill="midnightblue" stroke="midnightblue" points="212.663,-86.0282 204.416,-79.3776 206.716,-89.7198 212.663,-86.0282"/>
</g>
<!-- Node5 -->
<g id="node9" class="node"><title>Node5</title>
<polygon fill="white" stroke="#bfbfbf" points="377.475,-1 377.475,-21 430.475,-21 430.475,-1 377.475,-1"/>
<text text-anchor="middle" x="403.975" y="-8" font-family="FreeSans" font-size="10.00">iostream</text>
</g>
<!-- Node2&#45;&gt;Node5 -->
<g id="edge8" class="edge"><title>Node2&#45;&gt;Node5</title>
<path fill="none" stroke="midnightblue" d="M266.775,-120.621C306.037,-112.353 368.557,-96.9698 384.975,-80 397.488,-67.0657 401.924,-46.6792 403.417,-31.4138"/>
<polygon fill="midnightblue" stroke="midnightblue" points="406.913,-31.5859 404.057,-21.3832 399.927,-31.1399 406.913,-31.5859"/>
</g>
<!-- Node6 -->
<g id="node11" class="node"><title>Node6</title>
<polygon fill="white" stroke="#bfbfbf" points="237.975,-59 237.975,-79 287.975,-79 287.975,-59 237.975,-59"/>
<text text-anchor="middle" x="262.975" y="-66" font-family="FreeSans" font-size="10.00">sstream</text>
</g>
<!-- Node2&#45;&gt;Node6 -->
<g id="edge10" class="edge"><title>Node2&#45;&gt;Node6</title>
<path fill="none" stroke="midnightblue" d="M239.026,-116.897C242.928,-109.093 248.448,-98.0536 253.205,-88.5401"/>
<polygon fill="midnightblue" stroke="midnightblue" points="256.444,-89.8872 257.786,-79.3776 250.183,-86.7566 256.444,-89.8872"/>
</g>
<!-- Node7 -->
<g id="node13" class="node"><title>Node7</title>
<polygon fill="white" stroke="#bfbfbf" points="3.9747,-1 3.9747,-21 43.9747,-21 43.9747,-1 3.9747,-1"/>
<text text-anchor="middle" x="23.9747" y="-8" font-family="FreeSans" font-size="10.00">string</text>
</g>
<!-- Node2&#45;&gt;Node7 -->
<g id="edge12" class="edge"><title>Node2&#45;&gt;Node7</title>
<path fill="none" stroke="midnightblue" d="M201.465,-122.605C168.779,-116.965 118.054,-104.783 80.9747,-80 61.5047,-66.9865 45.2031,-45.3794 35.0878,-29.8084"/>
<polygon fill="midnightblue" stroke="midnightblue" points="37.874,-27.6615 29.616,-21.024 31.9324,-31.3625 37.874,-27.6615"/>
</g>
<!-- Node8 -->
<g id="node15" class="node"><title>Node8</title>
<polygon fill="white" stroke="#bfbfbf" points="431.475,-59 431.475,-79 466.475,-79 466.475,-59 431.475,-59"/>
<text text-anchor="middle" x="448.975" y="-66" font-family="FreeSans" font-size="10.00">map</text>
</g>
<!-- Node2&#45;&gt;Node8 -->
<g id="edge14" class="edge"><title>Node2&#45;&gt;Node8</title>
<path fill="none" stroke="midnightblue" d="M266.796,-119.568C303.794,-110.97 365.617,-95.9402 417.975,-80 419.204,-79.6258 420.457,-79.2323 421.719,-78.826"/>
<polygon fill="midnightblue" stroke="midnightblue" points="423.012,-82.0835 431.362,-75.562 420.768,-75.453 423.012,-82.0835"/>
</g>
<!-- Node9 -->
<g id="node17" class="node"><title>Node9</title>
<a xlink:href="debugUtils_8h.html" target="_top" xlink:title="debugUtils.h">
<polygon fill="white" stroke="black" points="89.4747,-59 89.4747,-79 158.475,-79 158.475,-59 89.4747,-59"/>
<text text-anchor="middle" x="123.975" y="-66" font-family="FreeSans" font-size="10.00">debugUtils.h</text>
</a>
</g>
<!-- Node2&#45;&gt;Node9 -->
<g id="edge16" class="edge"><title>Node2&#45;&gt;Node9</title>
<path fill="none" stroke="midnightblue" d="M214.814,-116.897C197.569,-107.804 171.999,-94.3218 152.377,-83.9757"/>
<polygon fill="midnightblue" stroke="midnightblue" points="153.763,-80.7498 143.285,-79.1817 150.498,-86.9418 153.763,-80.7498"/>
</g>
<!-- Node13 -->
<g id="node27" class="node"><title>Node13</title>
<polygon fill="white" stroke="#bfbfbf" points="305.475,-59 305.475,-79 376.475,-79 376.475,-59 305.475,-59"/>
<text text-anchor="middle" x="340.975" y="-66" font-family="FreeSans" font-size="10.00">Eigen/Dense</text>
</g>
<!-- Node2&#45;&gt;Node13 -->
<g id="edge28" class="edge"><title>Node2&#45;&gt;Node13</title>
<path fill="none" stroke="midnightblue" d="M252.613,-116.897C269.387,-107.804 294.26,-94.3218 313.347,-83.9757"/>
<polygon fill="midnightblue" stroke="midnightblue" points="315.068,-87.0242 322.191,-79.1817 311.732,-80.8702 315.068,-87.0242"/>
</g>
<!-- Node9&#45;&gt;Node5 -->
<g id="edge20" class="edge"><title>Node9&#45;&gt;Node5</title>
<path fill="none" stroke="midnightblue" d="M158.669,-59.9513C161.475,-59.2725 164.269,-58.6138 166.975,-58 237.522,-41.9938 320.575,-26.2236 367.268,-17.6354"/>
<polygon fill="midnightblue" stroke="midnightblue" points="368.011,-21.0575 377.217,-15.813 366.75,-14.1721 368.011,-21.0575"/>
</g>
<!-- Node9&#45;&gt;Node7 -->
<g id="edge18" class="edge"><title>Node9&#45;&gt;Node7</title>
<path fill="none" stroke="midnightblue" d="M106.556,-58.8972C91.0215,-49.8871 68.0549,-36.5665 50.2827,-26.2586"/>
<polygon fill="midnightblue" stroke="midnightblue" points="51.9356,-23.1713 41.5293,-21.1817 48.4236,-29.2265 51.9356,-23.1713"/>
</g>
<!-- Node10 -->
<g id="node21" class="node"><title>Node10</title>
<polygon fill="white" stroke="#bfbfbf" points="167.475,-1 167.475,-21 216.475,-21 216.475,-1 167.475,-1"/>
<text text-anchor="middle" x="191.975" y="-8" font-family="FreeSans" font-size="10.00">fstream</text>
</g>
<!-- Node9&#45;&gt;Node10 -->
<g id="edge22" class="edge"><title>Node9&#45;&gt;Node10</title>
<path fill="none" stroke="midnightblue" d="M135.819,-58.8972C145.837,-50.3532 160.398,-37.933 172.183,-27.8813"/>
<polygon fill="midnightblue" stroke="midnightblue" points="174.471,-30.53 179.808,-21.3776 169.928,-25.2042 174.471,-30.53"/>
</g>
<!-- Node11 -->
<g id="node23" class="node"><title>Node11</title>
<polygon fill="white" stroke="#bfbfbf" points="233.975,-1 233.975,-21 291.975,-21 291.975,-1 233.975,-1"/>
<text text-anchor="middle" x="262.975" y="-8" font-family="FreeSans" font-size="10.00">exception</text>
</g>
<!-- Node9&#45;&gt;Node11 -->
<g id="edge24" class="edge"><title>Node9&#45;&gt;Node11</title>
<path fill="none" stroke="midnightblue" d="M148.187,-58.8972C170.572,-49.5565 204.06,-35.5831 229.096,-25.1363"/>
<polygon fill="midnightblue" stroke="midnightblue" points="230.693,-28.2627 238.574,-21.1817 227.997,-21.8025 230.693,-28.2627"/>
</g>
<!-- Node12 -->
<g id="node25" class="node"><title>Node12</title>
<polygon fill="white" stroke="#bfbfbf" points="61.4747,-1 61.4747,-21 150.475,-21 150.475,-1 61.4747,-1"/>
<text text-anchor="middle" x="105.975" y="-8" font-family="FreeSans" font-size="10.00">boost/format.hpp</text>
</g>
<!-- Node9&#45;&gt;Node12 -->
<g id="edge26" class="edge"><title>Node9&#45;&gt;Node12</title>
<path fill="none" stroke="midnightblue" d="M120.839,-58.8972C118.468,-51.2569 115.135,-40.517 112.226,-31.1429"/>
<polygon fill="midnightblue" stroke="midnightblue" points="115.502,-29.8908 109.195,-21.3776 108.817,-31.9657 115.502,-29.8908"/>
</g>
<!-- Node14&#45;&gt;Node3 -->
<g id="edge52" class="edge"><title>Node14&#45;&gt;Node3</title>
<path fill="none" stroke="midnightblue" d="M742.207,-257.399C681.608,-250.985 568.415,-235.594 539.975,-208 507.509,-176.5 503.502,-119.651 503.908,-89.3342"/>
<polygon fill="midnightblue" stroke="midnightblue" points="507.413,-89.2274 504.229,-79.1223 500.416,-89.0072 507.413,-89.2274"/>
</g>
<!-- Node14&#45;&gt;Node5 -->
<g id="edge50" class="edge"><title>Node14&#45;&gt;Node5</title>
<path fill="none" stroke="midnightblue" d="M742.238,-255.905C688.844,-248.109 596.542,-231.6 572.975,-208 524.379,-159.337 581.206,-108.915 534.975,-58 510.71,-31.2769 470.156,-19.7374 440.586,-14.7608"/>
<polygon fill="midnightblue" stroke="midnightblue" points="441.04,-11.2897 430.63,-13.26 439.997,-18.2115 441.04,-11.2897"/>
</g>
<!-- Node15 -->
<g id="node31" class="node"><title>Node15</title>
<polygon fill="white" stroke="#bfbfbf" points="581.975,-181 581.975,-201 699.975,-201 699.975,-181 581.975,-181"/>
<text text-anchor="middle" x="640.975" y="-188" font-family="FreeSans" font-size="10.00">nvector/nvector_serial.h</text>
</g>
<!-- Node14&#45;&gt;Node15 -->
<g id="edge32" class="edge"><title>Node14&#45;&gt;Node15</title>
<path fill="none" stroke="midnightblue" d="M760.916,-250.971C737.109,-239.067 697.221,-219.123 670.035,-205.53"/>
<polygon fill="midnightblue" stroke="midnightblue" points="671.506,-202.352 660.996,-201.011 668.375,-208.613 671.506,-202.352"/>
</g>
<!-- Node16 -->
<g id="node33" class="node"><title>Node16</title>
<polygon fill="white" stroke="#bfbfbf" points="717.475,-181 717.475,-201 844.475,-201 844.475,-181 717.475,-181"/>
<text text-anchor="middle" x="780.975" y="-188" font-family="FreeSans" font-size="10.00">sundials/sundials_dense.h</text>
</g>
<!-- Node14&#45;&gt;Node16 -->
<g id="edge34" class="edge"><title>Node14&#45;&gt;Node16</title>
<path fill="none" stroke="midnightblue" d="M780.975,-250.971C780.975,-240.679 780.975,-224.375 780.975,-211.364"/>
<polygon fill="midnightblue" stroke="midnightblue" points="784.475,-211.011 780.975,-201.011 777.475,-211.011 784.475,-211.011"/>
</g>
<!-- Node17 -->
<g id="node35" class="node"><title>Node17</title>
<polygon fill="white" stroke="#bfbfbf" points="861.975,-181 861.975,-201 983.975,-201 983.975,-181 861.975,-181"/>
<text text-anchor="middle" x="922.975" y="-188" font-family="FreeSans" font-size="10.00">sundials/sundials_band.h</text>
</g>
<!-- Node14&#45;&gt;Node17 -->
<g id="edge36" class="edge"><title>Node14&#45;&gt;Node17</title>
<path fill="none" stroke="midnightblue" d="M801.32,-250.971C825.467,-239.067 865.925,-219.123 893.499,-205.53"/>
<polygon fill="midnightblue" stroke="midnightblue" points="895.245,-208.572 902.667,-201.011 892.15,-202.293 895.245,-208.572"/>
</g>
<!-- Node18 -->
<g id="node37" class="node"><title>Node18</title>
<polygon fill="white" stroke="#bfbfbf" points="1001.97,-181 1001.97,-201 1125.97,-201 1125.97,-181 1001.97,-181"/>
<text text-anchor="middle" x="1063.97" y="-188" font-family="FreeSans" font-size="10.00">sundials/sundials_types.h</text>
</g>
<!-- Node14&#45;&gt;Node18 -->
<g id="edge38" class="edge"><title>Node14&#45;&gt;Node18</title>
<path fill="none" stroke="midnightblue" d="M819.731,-251.414C870.037,-238.97 957.934,-217.229 1013.43,-203.502"/>
<polygon fill="midnightblue" stroke="midnightblue" points="1014.53,-206.835 1023.4,-201.036 1012.85,-200.04 1014.53,-206.835"/>
</g>
<!-- Node19 -->
<g id="node39" class="node"><title>Node19</title>
<polygon fill="white" stroke="#bfbfbf" points="1143.97,-181 1143.97,-201 1221.97,-201 1221.97,-181 1143.97,-181"/>
<text text-anchor="middle" x="1182.97" y="-188" font-family="FreeSans" font-size="10.00">cvode/cvode.h</text>
</g>
<!-- Node14&#45;&gt;Node19 -->
<g id="edge40" class="edge"><title>Node14&#45;&gt;Node19</title>
<path fill="none" stroke="midnightblue" d="M819.69,-257.655C885.305,-251.444 1022.22,-236.13 1134.97,-208 1139.17,-206.953 1143.52,-205.685 1147.8,-204.318"/>
<polygon fill="midnightblue" stroke="midnightblue" points="1149.24,-207.527 1157.59,-201.01 1147,-200.896 1149.24,-207.527"/>
</g>
<!-- Node20 -->
<g id="node41" class="node"><title>Node20</title>
<polygon fill="white" stroke="#bfbfbf" points="1239.47,-181 1239.47,-201 1348.47,-201 1348.47,-181 1239.47,-181"/>
<text text-anchor="middle" x="1293.97" y="-188" font-family="FreeSans" font-size="10.00">cvode/cvode_dense.h</text>
</g>
<!-- Node14&#45;&gt;Node20 -->
<g id="edge42" class="edge"><title>Node14&#45;&gt;Node20</title>
<path fill="none" stroke="midnightblue" d="M819.492,-258.373C897.628,-252.626 1080.16,-237.068 1230.97,-208 1237.33,-206.776 1243.98,-205.252 1250.48,-203.624"/>
<polygon fill="midnightblue" stroke="midnightblue" points="1251.72,-206.918 1260.51,-201.006 1249.95,-200.145 1251.72,-206.918"/>
</g>
<!-- Node21 -->
<g id="node43" class="node"><title>Node21</title>
<polygon fill="white" stroke="#bfbfbf" points="1365.97,-181 1365.97,-201 1469.97,-201 1469.97,-181 1365.97,-181"/>
<text text-anchor="middle" x="1417.97" y="-188" font-family="FreeSans" font-size="10.00">cvode/cvode_band.h</text>
</g>
<!-- Node14&#45;&gt;Node21 -->
<g id="edge44" class="edge"><title>Node14&#45;&gt;Node21</title>
<path fill="none" stroke="midnightblue" d="M819.724,-259.84C912.972,-256.528 1156.97,-244.761 1356.97,-208 1363.29,-206.839 1369.9,-205.323 1376.34,-203.675"/>
<polygon fill="midnightblue" stroke="midnightblue" points="1377.51,-206.985 1386.25,-201.006 1375.69,-200.226 1377.51,-206.985"/>
</g>
<!-- Node22 -->
<g id="node45" class="node"><title>Node22</title>
<polygon fill="white" stroke="#bfbfbf" points="261.475,-181 261.475,-201 314.475,-201 314.475,-181 261.475,-181"/>
<text text-anchor="middle" x="287.975" y="-188" font-family="FreeSans" font-size="10.00">ida/ida.h</text>
</g>
<!-- Node14&#45;&gt;Node22 -->
<g id="edge46" class="edge"><title>Node14&#45;&gt;Node22</title>
<path fill="none" stroke="midnightblue" d="M742.366,-258.209C646.85,-251.038 401.549,-230.908 322.975,-208 320.33,-207.229 317.64,-206.272 314.985,-205.208"/>
<polygon fill="midnightblue" stroke="midnightblue" points="316.232,-201.932 305.676,-201.027 313.365,-208.317 316.232,-201.932"/>
</g>
<!-- Node23 -->
<g id="node47" class="node"><title>Node23</title>
<polygon fill="white" stroke="#bfbfbf" points="331.975,-181 331.975,-201 419.975,-201 419.975,-181 331.975,-181"/>
<text text-anchor="middle" x="375.975" y="-188" font-family="FreeSans" font-size="10.00">ida/ida_spbcgs.h</text>
</g>
<!-- Node14&#45;&gt;Node23 -->
<g id="edge48" class="edge"><title>Node14&#45;&gt;Node23</title>
<path fill="none" stroke="midnightblue" d="M742.306,-257.237C677.091,-250.434 541.349,-234.302 428.975,-208 424.17,-206.876 419.174,-205.523 414.253,-204.079"/>
<polygon fill="midnightblue" stroke="midnightblue" points="414.932,-200.626 404.345,-201.028 412.872,-207.316 414.932,-200.626"/>
</g>
<!-- Node24 -->
<g id="node51" class="node"><title>Node24</title>
<polygon fill="white" stroke="#bfbfbf" points="1487.47,-181 1487.47,-201 1530.47,-201 1530.47,-181 1487.47,-181"/>
<text text-anchor="middle" x="1508.97" y="-188" font-family="FreeSans" font-size="10.00">time.h</text>
</g>
<!-- Node14&#45;&gt;Node24 -->
<g id="edge54" class="edge"><title>Node14&#45;&gt;Node24</title>
<path fill="none" stroke="midnightblue" d="M819.779,-260.277C947.565,-257.549 1354.14,-246.023 1478.97,-208 1481.12,-207.348 1483.27,-206.524 1485.39,-205.592"/>
<polygon fill="midnightblue" stroke="midnightblue" points="1487,-208.698 1494.3,-201.016 1483.81,-202.471 1487,-208.698"/>
</g>
<!-- Node25 -->
<g id="node53" class="node"><title>Node25</title>
<a xlink:href="config_8h.html" target="_top" xlink:title="config.h">
<polygon fill="white" stroke="black" points="437.975,-181 437.975,-201 487.975,-201 487.975,-181 437.975,-181"/>
<text text-anchor="middle" x="462.975" y="-188" font-family="FreeSans" font-size="10.00">config.h</text>
</a>
</g>
<!-- Node14&#45;&gt;Node25 -->
<g id="edge56" class="edge"><title>Node14&#45;&gt;Node25</title>
<path fill="none" stroke="midnightblue" d="M742.41,-256.446C687.96,-249.397 585.831,-233.884 501.975,-208 499.035,-207.093 496.019,-206.03 493.03,-204.888"/>
<polygon fill="midnightblue" stroke="midnightblue" points="494.278,-201.617 483.698,-201.055 491.619,-208.092 494.278,-201.617"/>
</g>
<!-- Node27 -->
<g id="node57" class="node"><title>Node27</title>
<a xlink:href="readConfig_8h.html" target="_top" xlink:title="readConfig.h">
<polygon fill="white" stroke="black" points="61.9747,-181 61.9747,-201 131.975,-201 131.975,-181 61.9747,-181"/>
<text text-anchor="middle" x="96.9747" y="-188" font-family="FreeSans" font-size="10.00">readConfig.h</text>
</a>
</g>
<!-- Node26&#45;&gt;Node27 -->
<g id="edge60" class="edge"><title>Node26&#45;&gt;Node27</title>
<path fill="none" stroke="midnightblue" d="M114.966,-250.971C111.847,-240.575 106.888,-224.045 102.966,-210.971"/>
<polygon fill="midnightblue" stroke="midnightblue" points="106.204,-209.583 99.9779,-201.011 99.4991,-211.595 106.204,-209.583"/>
</g>
<!-- Node27&#45;&gt;Node2 -->
<g id="edge62" class="edge"><title>Node27&#45;&gt;Node2</title>
<path fill="none" stroke="midnightblue" d="M118.683,-180.859C141.43,-170.233 177.363,-153.446 203.067,-141.439"/>
<polygon fill="midnightblue" stroke="midnightblue" points="204.789,-144.497 212.368,-137.094 201.827,-138.155 204.789,-144.497"/>
</g>
<!-- Node27&#45;&gt;Node7 -->
<g id="edge64" class="edge"><title>Node27&#45;&gt;Node7</title>
<path fill="none" stroke="midnightblue" d="M65.7477,-180.984C45.9235,-172.819 21.8418,-159.125 9.9747,-138 -9.20718,-103.853 4.72987,-56.3968 15.2263,-30.2329"/>
<polygon fill="midnightblue" stroke="midnightblue" points="18.4513,-31.5926 19.1389,-21.0201 12.0083,-28.8563 18.4513,-31.5926"/>
</g>
<!-- Node28&#45;&gt;Node24 -->
<g id="edge74" class="edge"><title>Node28&#45;&gt;Node24</title>
<path fill="none" stroke="midnightblue" d="M1508.97,-250.971C1508.97,-240.679 1508.97,-224.375 1508.97,-211.364"/>
<polygon fill="midnightblue" stroke="midnightblue" points="1512.47,-211.011 1508.97,-201.011 1505.47,-211.011 1512.47,-211.011"/>
</g>
<!-- Node29 -->
<g id="node63" class="node"><title>Node29</title>
<polygon fill="white" stroke="#bfbfbf" points="1547.97,-181 1547.97,-201 1637.97,-201 1637.97,-181 1547.97,-181"/>
<text text-anchor="middle" x="1592.97" y="-188" font-family="FreeSans" font-size="10.00">tbb/combinable.h</text>
</g>
<!-- Node28&#45;&gt;Node29 -->
<g id="edge68" class="edge"><title>Node28&#45;&gt;Node29</title>
<path fill="none" stroke="midnightblue" d="M1521.01,-250.971C1534.61,-239.639 1556.95,-221.021 1573.14,-207.531"/>
<polygon fill="midnightblue" stroke="midnightblue" points="1575.52,-210.101 1580.96,-201.011 1571.04,-204.724 1575.52,-210.101"/>
</g>
<!-- Node30 -->
<g id="node65" class="node"><title>Node30</title>
<polygon fill="white" stroke="#bfbfbf" points="1655.97,-175 1655.97,-207 1771.97,-207 1771.97,-175 1655.97,-175"/>
<text text-anchor="start" x="1663.97" y="-194" font-family="FreeSans" font-size="10.00">tbb/enumerable_thread</text>
<text text-anchor="middle" x="1713.97" y="-182" font-family="FreeSans" font-size="10.00">_specific.h</text>
</g>
<!-- Node28&#45;&gt;Node30 -->
<g id="edge70" class="edge"><title>Node28&#45;&gt;Node30</title>
<path fill="none" stroke="midnightblue" d="M1532.26,-250.963C1538.02,-248.589 1544.19,-246.13 1549.97,-244 1582.91,-231.871 1620.1,-219.73 1650.73,-210.134"/>
<polygon fill="midnightblue" stroke="midnightblue" points="1651.92,-213.428 1660.42,-207.111 1649.84,-206.745 1651.92,-213.428"/>
</g>
<!-- Node31 -->
<g id="node67" class="node"><title>Node31</title>
<polygon fill="white" stroke="#bfbfbf" points="1789.47,-181 1789.47,-201 1848.47,-201 1848.47,-181 1789.47,-181"/>
<text text-anchor="middle" x="1818.97" y="-188" font-family="FreeSans" font-size="10.00">sys/time.h</text>
</g>
<!-- Node28&#45;&gt;Node31 -->
<g id="edge72" class="edge"><title>Node28&#45;&gt;Node31</title>
<path fill="none" stroke="midnightblue" d="M1530.76,-250.837C1536.87,-248.299 1543.59,-245.792 1549.97,-244 1650.01,-215.902 1681.34,-237.476 1780.97,-208 1783.93,-207.126 1786.95,-206.072 1789.94,-204.922"/>
<polygon fill="midnightblue" stroke="midnightblue" points="1791.37,-208.118 1799.24,-201.024 1788.66,-201.663 1791.37,-208.118"/>
</g>
<!-- Node32&#45;&gt;Node2 -->
<g id="edge78" class="edge"><title>Node32&#45;&gt;Node2</title>
<path fill="none" stroke="midnightblue" d="M186.972,-180.717C195.431,-171.05 208.271,-156.376 218.394,-144.806"/>
<polygon fill="midnightblue" stroke="midnightblue" points="221.233,-146.877 225.184,-137.046 215.965,-142.267 221.233,-146.877"/>
</g>
<!-- Node32&#45;&gt;Node7 -->
<g id="edge80" class="edge"><title>Node32&#45;&gt;Node7</title>
<path fill="none" stroke="midnightblue" d="M163.106,-180.987C137.742,-163.258 85.774,-124.038 53.9747,-80 43.128,-64.9786 35.091,-45.4201 30.0802,-30.9639"/>
<polygon fill="midnightblue" stroke="midnightblue" points="33.2773,-29.4798 26.8418,-21.0634 26.6241,-31.656 33.2773,-29.4798"/>
</g>
<!-- Node32&#45;&gt;Node8 -->
<g id="edge82" class="edge"><title>Node32&#45;&gt;Node8</title>
<path fill="none" stroke="midnightblue" d="M200.614,-180.808C250.313,-158.434 368.774,-105.105 422.122,-81.0887"/>
<polygon fill="midnightblue" stroke="midnightblue" points="423.612,-84.2561 431.294,-76.9595 420.739,-77.8731 423.612,-84.2561"/>
</g>
</g>
</svg>
