<?xml version="1.0" encoding="UTF-8" standalone="no"?>
<!DOCTYPE svg PUBLIC "-//W3C//DTD SVG 1.1//EN"
 "http://www.w3.org/Graphics/SVG/1.1/DTD/svg11.dtd">
<!-- Generated by graphviz version 2.26.3 (20100126.1600)
 -->
<!-- Title: src/convectionSystem.cpp Pages: 1 -->
<svg width="2912pt" height="402pt"
 viewBox="0.00 0.00 2912.00 402.00" xmlns="http://www.w3.org/2000/svg" xmlns:xlink="http://www.w3.org/1999/xlink">
<g id="graph1" class="graph" transform="scale(1 1) rotate(0) translate(4 398)">
<title>src/convectionSystem.cpp</title>
<polygon fill="white" stroke="white" points="-4,5 -4,-398 2909,-398 2909,5 -4,5"/>
<!-- Node1 -->
<g id="node1" class="node"><title>Node1</title>
<polygon fill="#bfbfbf" stroke="black" points="2089.5,-373 2089.5,-393 2218.5,-393 2218.5,-373 2089.5,-373"/>
<text text-anchor="middle" x="2154" y="-380" font-family="FreeSans" font-size="10.00">src/convectionSystem.cpp</text>
</g>
<!-- Node2 -->
<g id="node3" class="node"><title>Node2</title>
<a xlink:href="convectionSystem_8h.html" target="_top" xlink:title="convectionSystem.h">
<polygon fill="white" stroke="black" points="407.5,-315 407.5,-335 510.5,-335 510.5,-315 407.5,-315"/>
<text text-anchor="middle" x="459" y="-322" font-family="FreeSans" font-size="10.00">convectionSystem.h</text>
</a>
</g>
<!-- Node1&#45;&gt;Node2 -->
<g id="edge2" class="edge"><title>Node1&#45;&gt;Node2</title>
<path fill="none" stroke="midnightblue" d="M2089.37,-380.788C1819.68,-371.56 785.847,-336.184 521.066,-327.124"/>
<polygon fill="midnightblue" stroke="midnightblue" points="520.983,-323.619 510.869,-326.775 520.744,-330.615 520.983,-323.619"/>
</g>
<!-- Node10 -->
<g id="node19" class="node"><title>Node10</title>
<a xlink:href="debugUtils_8h.html" target="_top" xlink:title="debugUtils.h">
<polygon fill="white" stroke="red" points="907.5,-59 907.5,-79 976.5,-79 976.5,-59 907.5,-59"/>
<text text-anchor="middle" x="942" y="-66" font-family="FreeSans" font-size="10.00">debugUtils.h</text>
</a>
</g>
<!-- Node1&#45;&gt;Node10 -->
<g id="edge84" class="edge"><title>Node1&#45;&gt;Node10</title>
<path fill="none" stroke="midnightblue" d="M2089.35,-377.15C1974.31,-364.94 1746,-331.79 1746,-261 1746,-261 1746,-261 1746,-191 1746,-109.231 1657.29,-135.978 1578,-116 1465.74,-87.7153 1112.49,-74.2783 986.877,-70.3055"/>
<polygon fill="midnightblue" stroke="midnightblue" points="986.938,-66.8058 976.834,-69.9928 986.72,-73.8024 986.938,-66.8058"/>
</g>
<!-- Node33 -->
<g id="node76" class="node"><title>Node33</title>
<a xlink:href="chemistry0d_8h.html" target="_top" xlink:title="chemistry0d.h">
<polygon fill="white" stroke="black" points="2116,-251 2116,-271 2192,-271 2192,-251 2116,-251"/>
<text text-anchor="middle" x="2154" y="-258" font-family="FreeSans" font-size="10.00">chemistry0d.h</text>
</a>
</g>
<!-- Node1&#45;&gt;Node33 -->
<g id="edge86" class="edge"><title>Node1&#45;&gt;Node33</title>
<path fill="none" stroke="midnightblue" d="M2154,-372.598C2154,-352.42 2154,-307.64 2154,-281.35"/>
<polygon fill="midnightblue" stroke="midnightblue" points="2157.5,-281.032 2154,-271.032 2150.5,-281.032 2157.5,-281.032"/>
</g>
<!-- Node42 -->
<g id="node96" class="node"><title>Node42</title>
<a xlink:href="tbb__tools_8h.html" target="_top" xlink:title="tbb_tools.h">
<polygon fill="white" stroke="black" points="2201.5,-315 2201.5,-335 2264.5,-335 2264.5,-315 2201.5,-315"/>
<text text-anchor="middle" x="2233" y="-322" font-family="FreeSans" font-size="10.00">tbb_tools.h</text>
</a>
</g>
<!-- Node1&#45;&gt;Node42 -->
<g id="edge108" class="edge"><title>Node1&#45;&gt;Node42</title>
<path fill="none" stroke="midnightblue" d="M2167.76,-372.897C2179.7,-364.135 2197.18,-351.297 2211.05,-341.116"/>
<polygon fill="midnightblue" stroke="midnightblue" points="2213.14,-343.921 2219.13,-335.182 2209,-338.278 2213.14,-343.921"/>
</g>
<!-- Node45 -->
<g id="node102" class="node"><title>Node45</title>
<polygon fill="white" stroke="#bfbfbf" points="2281.5,-315 2281.5,-335 2374.5,-335 2374.5,-315 2281.5,-315"/>
<text text-anchor="middle" x="2328" y="-322" font-family="FreeSans" font-size="10.00">boost/foreach.hpp</text>
</g>
<!-- Node1&#45;&gt;Node45 -->
<g id="edge114" class="edge"><title>Node1&#45;&gt;Node45</title>
<path fill="none" stroke="midnightblue" d="M2184.31,-372.897C2213.04,-363.321 2256.38,-348.874 2287.95,-338.352"/>
<polygon fill="midnightblue" stroke="midnightblue" points="2289.37,-341.567 2297.75,-335.084 2287.15,-334.926 2289.37,-341.567"/>
</g>
<!-- Node3 -->
<g id="node5" class="node"><title>Node3</title>
<a xlink:href="mathUtils_8h.html" target="_top" xlink:title="mathUtils.h">
<polygon fill="white" stroke="black" points="614.5,-117 614.5,-137 679.5,-137 679.5,-117 614.5,-117"/>
<text text-anchor="middle" x="647" y="-124" font-family="FreeSans" font-size="10.00">mathUtils.h</text>
</a>
</g>
<!-- Node2&#45;&gt;Node3 -->
<g id="edge4" class="edge"><title>Node2&#45;&gt;Node3</title>
<path fill="none" stroke="midnightblue" d="M465.663,-314.786C485.404,-284.707 543.772,-197.117 569,-174 582.997,-161.174 601.024,-150.04 616.221,-141.832"/>
<polygon fill="midnightblue" stroke="midnightblue" points="618.015,-144.844 625.257,-137.111 614.773,-138.64 618.015,-144.844"/>
</g>
<!-- Node12 -->
<g id="node25" class="node"><title>Node12</title>
<a xlink:href="sundialsUtils_8h.html" target="_top" xlink:title="sundialsUtils.h">
<polygon fill="white" stroke="black" points="1057.5,-251 1057.5,-271 1134.5,-271 1134.5,-251 1057.5,-251"/>
<text text-anchor="middle" x="1096" y="-258" font-family="FreeSans" font-size="10.00">sundialsUtils.h</text>
</a>
</g>
<!-- Node2&#45;&gt;Node12 -->
<g id="edge26" class="edge"><title>Node2&#45;&gt;Node12</title>
<path fill="none" stroke="midnightblue" d="M510.589,-319.817C631.055,-307.713 929.55,-277.723 1047.21,-265.902"/>
<polygon fill="midnightblue" stroke="midnightblue" points="1047.76,-269.365 1057.36,-264.883 1047.06,-262.4 1047.76,-269.365"/>
</g>
<!-- Node24 -->
<g id="node51" class="node"><title>Node24</title>
<a xlink:href="grid_8h.html" target="_top" xlink:title="grid.h">
<polygon fill="white" stroke="black" points="56,-251 56,-271 96,-271 96,-251 56,-251"/>
<text text-anchor="middle" x="76" y="-258" font-family="FreeSans" font-size="10.00">grid.h</text>
</a>
</g>
<!-- Node2&#45;&gt;Node24 -->
<g id="edge54" class="edge"><title>Node2&#45;&gt;Node24</title>
<path fill="none" stroke="midnightblue" d="M407.248,-318.667C344.981,-310.717 237.399,-295.924 146,-278 132.769,-275.405 118.267,-271.981 105.911,-268.886"/>
<polygon fill="midnightblue" stroke="midnightblue" points="106.667,-265.467 96.1121,-266.389 104.938,-272.25 106.667,-265.467"/>
</g>
<!-- Node26 -->
<g id="node57" class="node"><title>Node26</title>
<a xlink:href="perfTimer_8h.html" target="_top" xlink:title="perfTimer.h">
<polygon fill="white" stroke="black" points="394.5,-251 394.5,-271 459.5,-271 459.5,-251 394.5,-251"/>
<text text-anchor="middle" x="427" y="-258" font-family="FreeSans" font-size="10.00">perfTimer.h</text>
</a>
</g>
<!-- Node2&#45;&gt;Node26 -->
<g id="edge62" class="edge"><title>Node2&#45;&gt;Node26</title>
<path fill="none" stroke="midnightblue" d="M453.859,-314.717C449.213,-305.425 442.254,-291.508 436.584,-280.168"/>
<polygon fill="midnightblue" stroke="midnightblue" points="439.626,-278.425 432.023,-271.046 433.365,-281.556 439.626,-278.425"/>
</g>
<!-- Node30 -->
<g id="node66" class="node"><title>Node30</title>
<a xlink:href="quasi2d_8h.html" target="_top" xlink:title="quasi2d.h">
<polygon fill="white" stroke="black" points="465.5,-181 465.5,-201 522.5,-201 522.5,-181 465.5,-181"/>
<text text-anchor="middle" x="494" y="-188" font-family="FreeSans" font-size="10.00">quasi2d.h</text>
</a>
</g>
<!-- Node2&#45;&gt;Node30 -->
<g id="edge72" class="edge"><title>Node2&#45;&gt;Node30</title>
<path fill="none" stroke="midnightblue" d="M461.631,-314.928C467.382,-292.908 481.167,-240.131 488.761,-211.057"/>
<polygon fill="midnightblue" stroke="midnightblue" points="492.198,-211.749 491.339,-201.189 485.425,-209.98 492.198,-211.749"/>
</g>
<!-- Node31 -->
<g id="node71" class="node"><title>Node31</title>
<polygon fill="white" stroke="#bfbfbf" points="155,-251 155,-271 261,-271 261,-251 155,-251"/>
<text text-anchor="middle" x="208" y="-258" font-family="FreeSans" font-size="10.00">boost/shared_ptr.hpp</text>
</g>
<!-- Node2&#45;&gt;Node31 -->
<g id="edge80" class="edge"><title>Node2&#45;&gt;Node31</title>
<path fill="none" stroke="midnightblue" d="M417.263,-314.924C378.917,-305.595 320.541,-291.211 270,-278 264.736,-276.624 259.228,-275.156 253.761,-273.68"/>
<polygon fill="midnightblue" stroke="midnightblue" points="254.592,-270.279 244.024,-271.034 252.756,-277.034 254.592,-270.279"/>
</g>
<!-- Node32 -->
<g id="node73" class="node"><title>Node32</title>
<polygon fill="white" stroke="#bfbfbf" points="278.5,-245 278.5,-277 377.5,-277 377.5,-245 278.5,-245"/>
<text text-anchor="start" x="286.5" y="-264" font-family="FreeSans" font-size="10.00">boost/ptr_container</text>
<text text-anchor="middle" x="328" y="-252" font-family="FreeSans" font-size="10.00">/ptr_vector.hpp</text>
</g>
<!-- Node2&#45;&gt;Node32 -->
<g id="edge82" class="edge"><title>Node2&#45;&gt;Node32</title>
<path fill="none" stroke="midnightblue" d="M438.243,-314.859C419.981,-305.937 392.831,-292.673 370.044,-281.541"/>
<polygon fill="midnightblue" stroke="midnightblue" points="371.43,-278.323 360.909,-277.078 368.358,-284.612 371.43,-278.323"/>
</g>
<!-- Node4 -->
<g id="node7" class="node"><title>Node4</title>
<polygon fill="white" stroke="#bfbfbf" points="847.5,-59 847.5,-79 890.5,-79 890.5,-59 847.5,-59"/>
<text text-anchor="middle" x="869" y="-66" font-family="FreeSans" font-size="10.00">vector</text>
</g>
<!-- Node3&#45;&gt;Node4 -->
<g id="edge6" class="edge"><title>Node3&#45;&gt;Node4</title>
<path fill="none" stroke="midnightblue" d="M679.583,-119.419C717.016,-110.57 780.203,-95.2005 834,-80 835.073,-79.6969 836.162,-79.3839 837.261,-79.0636"/>
<polygon fill="midnightblue" stroke="midnightblue" points="838.651,-82.3004 847.214,-76.0625 836.63,-75.5985 838.651,-82.3004"/>
</g>
<!-- Node5 -->
<g id="node9" class="node"><title>Node5</title>
<polygon fill="white" stroke="#bfbfbf" points="592,-59 592,-79 636,-79 636,-59 592,-59"/>
<text text-anchor="middle" x="614" y="-66" font-family="FreeSans" font-size="10.00">cmath</text>
</g>
<!-- Node3&#45;&gt;Node5 -->
<g id="edge8" class="edge"><title>Node3&#45;&gt;Node5</title>
<path fill="none" stroke="midnightblue" d="M641.252,-116.897C636.765,-109.01 630.398,-97.8209 624.947,-88.2401"/>
<polygon fill="midnightblue" stroke="midnightblue" points="627.892,-86.3384 619.904,-79.3776 621.808,-89.8001 627.892,-86.3384"/>
</g>
<!-- Node6 -->
<g id="node11" class="node"><title>Node6</title>
<polygon fill="white" stroke="#bfbfbf" points="915.5,-1 915.5,-21 968.5,-21 968.5,-1 915.5,-1"/>
<text text-anchor="middle" x="942" y="-8" font-family="FreeSans" font-size="10.00">iostream</text>
</g>
<!-- Node3&#45;&gt;Node6 -->
<g id="edge10" class="edge"><title>Node3&#45;&gt;Node6</title>
<path fill="none" stroke="midnightblue" d="M679.621,-119.359C711.333,-111.398 760.503,-97.6257 801,-80 818.894,-72.212 821.658,-66.95 839,-58 862.07,-46.0935 888.753,-33.9618 909.179,-25.0068"/>
<polygon fill="midnightblue" stroke="midnightblue" points="910.602,-28.2049 918.374,-21.0047 907.808,-21.7865 910.602,-28.2049"/>
</g>
<!-- Node7 -->
<g id="node13" class="node"><title>Node7</title>
<polygon fill="white" stroke="#bfbfbf" points="654,-59 654,-79 704,-79 704,-59 654,-59"/>
<text text-anchor="middle" x="679" y="-66" font-family="FreeSans" font-size="10.00">sstream</text>
</g>
<!-- Node3&#45;&gt;Node7 -->
<g id="edge12" class="edge"><title>Node3&#45;&gt;Node7</title>
<path fill="none" stroke="midnightblue" d="M652.574,-116.897C656.925,-109.01 663.099,-97.8209 668.385,-88.2401"/>
<polygon fill="midnightblue" stroke="midnightblue" points="671.508,-89.8242 673.274,-79.3776 665.379,-86.4426 671.508,-89.8242"/>
</g>
<!-- Node8 -->
<g id="node15" class="node"><title>Node8</title>
<polygon fill="white" stroke="#bfbfbf" points="499,-1 499,-21 539,-21 539,-1 499,-1"/>
<text text-anchor="middle" x="519" y="-8" font-family="FreeSans" font-size="10.00">string</text>
</g>
<!-- Node3&#45;&gt;Node8 -->
<g id="edge14" class="edge"><title>Node3&#45;&gt;Node8</title>
<path fill="none" stroke="midnightblue" d="M631.638,-116.937C618.27,-107.9 598.639,-93.9454 583,-80 565.058,-64.0017 546.601,-43.6022 534.146,-29.1443"/>
<polygon fill="midnightblue" stroke="midnightblue" points="536.701,-26.7461 527.556,-21.3965 531.369,-31.2814 536.701,-26.7461"/>
</g>
<!-- Node9 -->
<g id="node17" class="node"><title>Node9</title>
<polygon fill="white" stroke="#bfbfbf" points="501.5,-59 501.5,-79 536.5,-79 536.5,-59 501.5,-59"/>
<text text-anchor="middle" x="519" y="-66" font-family="FreeSans" font-size="10.00">map</text>
</g>
<!-- Node3&#45;&gt;Node9 -->
<g id="edge16" class="edge"><title>Node3&#45;&gt;Node9</title>
<path fill="none" stroke="midnightblue" d="M624.704,-116.897C602.768,-106.958 569.256,-91.7721 545.863,-81.1725"/>
<polygon fill="midnightblue" stroke="midnightblue" points="547.074,-77.8786 536.521,-76.9393 544.185,-84.2546 547.074,-77.8786"/>
</g>
<!-- Node3&#45;&gt;Node10 -->
<g id="edge18" class="edge"><title>Node3&#45;&gt;Node10</title>
<path fill="none" stroke="midnightblue" d="M679.76,-121.601C726.135,-113.805 813.773,-98.5033 897.401,-80.263"/>
<polygon fill="midnightblue" stroke="midnightblue" points="898.299,-83.6494 907.313,-78.0828 896.795,-76.8128 898.299,-83.6494"/>
</g>
<!-- Node11 -->
<g id="node23" class="node"><title>Node11</title>
<polygon fill="white" stroke="#bfbfbf" points="721.5,-59 721.5,-79 792.5,-79 792.5,-59 721.5,-59"/>
<text text-anchor="middle" x="757" y="-66" font-family="FreeSans" font-size="10.00">Eigen/Dense</text>
</g>
<!-- Node3&#45;&gt;Node11 -->
<g id="edge24" class="edge"><title>Node3&#45;&gt;Node11</title>
<path fill="none" stroke="midnightblue" d="M666.161,-116.897C683.405,-107.804 708.976,-94.3218 728.598,-83.9757"/>
<polygon fill="midnightblue" stroke="midnightblue" points="730.477,-86.9418 737.69,-79.1817 727.212,-80.7498 730.477,-86.9418"/>
</g>
<!-- Node10&#45;&gt;Node6 -->
<g id="edge22" class="edge"><title>Node10&#45;&gt;Node6</title>
<path fill="none" stroke="midnightblue" d="M942,-58.8972C942,-51.339 942,-40.7476 942,-31.4458"/>
<polygon fill="midnightblue" stroke="midnightblue" points="945.5,-31.3776 942,-21.3776 938.5,-31.3776 945.5,-31.3776"/>
</g>
<!-- Node10&#45;&gt;Node8 -->
<g id="edge20" class="edge"><title>Node10&#45;&gt;Node8</title>
<path fill="none" stroke="midnightblue" d="M907.351,-59.7325C904.535,-59.1028 901.726,-58.515 899,-58 770.258,-33.6737 614.505,-18.9457 549.647,-13.4561"/>
<polygon fill="midnightblue" stroke="midnightblue" points="549.583,-9.93862 539.327,-12.596 549.001,-16.9144 549.583,-9.93862"/>
</g>
<!-- Node12&#45;&gt;Node4 -->
<g id="edge48" class="edge"><title>Node12&#45;&gt;Node4</title>
<path fill="none" stroke="midnightblue" d="M1134.78,-260.244C1255.14,-257.503 1616.33,-246.139 1651,-208 1661.16,-196.818 1661,-185.328 1651,-174 1541.61,-50.0881 1080.24,-117.087 900.656,-79.8604"/>
<polygon fill="midnightblue" stroke="midnightblue" points="901.302,-76.4182 890.777,-77.6353 899.764,-83.2472 901.302,-76.4182"/>
</g>
<!-- Node12&#45;&gt;Node6 -->
<g id="edge46" class="edge"><title>Node12&#45;&gt;Node6</title>
<path fill="none" stroke="midnightblue" d="M1134.73,-260.369C1257.65,-257.971 1633.03,-247.45 1669,-208 1679.18,-196.834 1676.27,-187.249 1669,-174 1600.87,-49.7914 1117.08,-18.803 978.819,-12.4445"/>
<polygon fill="midnightblue" stroke="midnightblue" points="978.875,-8.94363 968.73,-11.9965 978.565,-15.9367 978.875,-8.94363"/>
</g>
<!-- Node13 -->
<g id="node27" class="node"><title>Node13</title>
<polygon fill="white" stroke="#bfbfbf" points="1098,-181 1098,-201 1216,-201 1216,-181 1098,-181"/>
<text text-anchor="middle" x="1157" y="-188" font-family="FreeSans" font-size="10.00">nvector/nvector_serial.h</text>
</g>
<!-- Node12&#45;&gt;Node13 -->
<g id="edge28" class="edge"><title>Node12&#45;&gt;Node13</title>
<path fill="none" stroke="midnightblue" d="M1104.74,-250.971C1114.34,-239.951 1129.95,-222.04 1141.61,-208.657"/>
<polygon fill="midnightblue" stroke="midnightblue" points="1144.35,-210.849 1148.28,-201.011 1139.07,-206.25 1144.35,-210.849"/>
</g>
<!-- Node14 -->
<g id="node29" class="node"><title>Node14</title>
<polygon fill="white" stroke="#bfbfbf" points="1233.5,-181 1233.5,-201 1360.5,-201 1360.5,-181 1233.5,-181"/>
<text text-anchor="middle" x="1297" y="-188" font-family="FreeSans" font-size="10.00">sundials/sundials_dense.h</text>
</g>
<!-- Node12&#45;&gt;Node14 -->
<g id="edge30" class="edge"><title>Node12&#45;&gt;Node14</title>
<path fill="none" stroke="midnightblue" d="M1124.8,-250.971C1160.02,-238.703 1219.77,-217.896 1258.8,-204.302"/>
<polygon fill="midnightblue" stroke="midnightblue" points="1259.96,-207.605 1268.26,-201.011 1257.66,-200.994 1259.96,-207.605"/>
</g>
<!-- Node15 -->
<g id="node31" class="node"><title>Node15</title>
<polygon fill="white" stroke="#bfbfbf" points="1378,-181 1378,-201 1500,-201 1500,-181 1378,-181"/>
<text text-anchor="middle" x="1439" y="-188" font-family="FreeSans" font-size="10.00">sundials/sundials_band.h</text>
</g>
<!-- Node12&#45;&gt;Node15 -->
<g id="edge32" class="edge"><title>Node12&#45;&gt;Node15</title>
<path fill="none" stroke="midnightblue" d="M1134.54,-254.101C1187.52,-244.485 1285.75,-226.18 1369,-208 1375.57,-206.566 1382.46,-204.985 1389.26,-203.381"/>
<polygon fill="midnightblue" stroke="midnightblue" points="1390.18,-206.759 1399.1,-201.03 1388.56,-199.951 1390.18,-206.759"/>
</g>
<!-- Node16 -->
<g id="node33" class="node"><title>Node16</title>
<polygon fill="white" stroke="#bfbfbf" points="1518,-181 1518,-201 1642,-201 1642,-181 1518,-181"/>
<text text-anchor="middle" x="1580" y="-188" font-family="FreeSans" font-size="10.00">sundials/sundials_types.h</text>
</g>
<!-- Node12&#45;&gt;Node16 -->
<g id="edge34" class="edge"><title>Node12&#45;&gt;Node16</title>
<path fill="none" stroke="midnightblue" d="M1134.65,-257.439C1208,-250.372 1372.3,-233.062 1509,-208 1516.37,-206.649 1524.12,-205.016 1531.68,-203.303"/>
<polygon fill="midnightblue" stroke="midnightblue" points="1532.52,-206.7 1541.47,-201.022 1530.94,-199.883 1532.52,-206.7"/>
</g>
<!-- Node17 -->
<g id="node35" class="node"><title>Node17</title>
<polygon fill="white" stroke="#bfbfbf" points="578,-181 578,-201 656,-201 656,-181 578,-181"/>
<text text-anchor="middle" x="617" y="-188" font-family="FreeSans" font-size="10.00">cvode/cvode.h</text>
</g>
<!-- Node12&#45;&gt;Node17 -->
<g id="edge36" class="edge"><title>Node12&#45;&gt;Node17</title>
<path fill="none" stroke="midnightblue" d="M1057.45,-259.081C981.47,-254.682 807.359,-241.538 665,-208 660.622,-206.969 656.089,-205.676 651.634,-204.266"/>
<polygon fill="midnightblue" stroke="midnightblue" points="652.695,-200.93 642.1,-201.05 650.457,-207.563 652.695,-200.93"/>
</g>
<!-- Node18 -->
<g id="node37" class="node"><title>Node18</title>
<polygon fill="white" stroke="#bfbfbf" points="673.5,-181 673.5,-201 782.5,-201 782.5,-181 673.5,-181"/>
<text text-anchor="middle" x="728" y="-188" font-family="FreeSans" font-size="10.00">cvode/cvode_dense.h</text>
</g>
<!-- Node12&#45;&gt;Node18 -->
<g id="edge38" class="edge"><title>Node12&#45;&gt;Node18</title>
<path fill="none" stroke="midnightblue" d="M1057.26,-255.431C999.12,-246.811 885.98,-229.021 791,-208 785.119,-206.698 778.963,-205.204 772.9,-203.653"/>
<polygon fill="midnightblue" stroke="midnightblue" points="773.41,-200.169 762.849,-201.014 771.632,-206.939 773.41,-200.169"/>
</g>
<!-- Node19 -->
<g id="node39" class="node"><title>Node19</title>
<polygon fill="white" stroke="#bfbfbf" points="800,-181 800,-201 904,-201 904,-181 800,-181"/>
<text text-anchor="middle" x="852" y="-188" font-family="FreeSans" font-size="10.00">cvode/cvode_band.h</text>
</g>
<!-- Node12&#45;&gt;Node19 -->
<g id="edge40" class="edge"><title>Node12&#45;&gt;Node19</title>
<path fill="none" stroke="midnightblue" d="M1061.04,-250.971C1017.74,-238.547 943.904,-217.366 896.572,-203.787"/>
<polygon fill="midnightblue" stroke="midnightblue" points="897.472,-200.404 886.894,-201.011 895.541,-207.133 897.472,-200.404"/>
</g>
<!-- Node20 -->
<g id="node41" class="node"><title>Node20</title>
<polygon fill="white" stroke="#bfbfbf" points="921.5,-181 921.5,-201 974.5,-201 974.5,-181 921.5,-181"/>
<text text-anchor="middle" x="948" y="-188" font-family="FreeSans" font-size="10.00">ida/ida.h</text>
</g>
<!-- Node12&#45;&gt;Node20 -->
<g id="edge42" class="edge"><title>Node12&#45;&gt;Node20</title>
<path fill="none" stroke="midnightblue" d="M1074.3,-250.927C1051.52,-240.329 1014.68,-223.122 983,-208 981.407,-207.24 979.775,-206.458 978.128,-205.666"/>
<polygon fill="midnightblue" stroke="midnightblue" points="979.233,-202.313 968.706,-201.115 976.188,-208.616 979.233,-202.313"/>
</g>
<!-- Node21 -->
<g id="node43" class="node"><title>Node21</title>
<polygon fill="white" stroke="#bfbfbf" points="992,-181 992,-201 1080,-201 1080,-181 992,-181"/>
<text text-anchor="middle" x="1036" y="-188" font-family="FreeSans" font-size="10.00">ida/ida_spbcgs.h</text>
</g>
<!-- Node12&#45;&gt;Node21 -->
<g id="edge44" class="edge"><title>Node12&#45;&gt;Node21</title>
<path fill="none" stroke="midnightblue" d="M1087.4,-250.971C1077.96,-239.951 1062.61,-222.04 1051.13,-208.657"/>
<polygon fill="midnightblue" stroke="midnightblue" points="1053.75,-206.325 1044.58,-201.011 1048.43,-210.881 1053.75,-206.325"/>
</g>
<!-- Node22 -->
<g id="node47" class="node"><title>Node22</title>
<polygon fill="white" stroke="#bfbfbf" points="405.5,-181 405.5,-201 448.5,-201 448.5,-181 405.5,-181"/>
<text text-anchor="middle" x="427" y="-188" font-family="FreeSans" font-size="10.00">time.h</text>
</g>
<!-- Node12&#45;&gt;Node22 -->
<g id="edge50" class="edge"><title>Node12&#45;&gt;Node22</title>
<path fill="none" stroke="midnightblue" d="M1057.14,-259.961C936.561,-256.396 570.156,-242.898 457,-208 455.069,-207.405 453.126,-206.671 451.208,-205.845"/>
<polygon fill="midnightblue" stroke="midnightblue" points="452.491,-202.572 441.989,-201.171 449.325,-208.815 452.491,-202.572"/>
</g>
<!-- Node23 -->
<g id="node49" class="node"><title>Node23</title>
<a xlink:href="config_8h.html" target="_top" xlink:title="config.h">
<polygon fill="white" stroke="black" points="1774,-181 1774,-201 1824,-201 1824,-181 1774,-181"/>
<text text-anchor="middle" x="1799" y="-188" font-family="FreeSans" font-size="10.00">config.h</text>
</a>
</g>
<!-- Node12&#45;&gt;Node23 -->
<g id="edge52" class="edge"><title>Node12&#45;&gt;Node23</title>
<path fill="none" stroke="midnightblue" d="M1134.68,-259.514C1233.16,-255.343 1501.22,-241.566 1722,-208 1735.78,-205.905 1750.77,-202.789 1763.84,-199.794"/>
<polygon fill="midnightblue" stroke="midnightblue" points="1764.91,-203.138 1773.84,-197.441 1763.31,-196.324 1764.91,-203.138"/>
</g>
<!-- Node25 -->
<g id="node53" class="node"><title>Node25</title>
<a xlink:href="readConfig_8h.html" target="_top" xlink:title="readConfig.h">
<polygon fill="white" stroke="black" points="0,-181 0,-201 70,-201 70,-181 0,-181"/>
<text text-anchor="middle" x="35" y="-188" font-family="FreeSans" font-size="10.00">readConfig.h</text>
</a>
</g>
<!-- Node24&#45;&gt;Node25 -->
<g id="edge56" class="edge"><title>Node24&#45;&gt;Node25</title>
<path fill="none" stroke="midnightblue" d="M70.1257,-250.971C63.8539,-240.263 53.7711,-223.048 46.0135,-209.803"/>
<polygon fill="midnightblue" stroke="midnightblue" points="48.9376,-207.871 40.8634,-201.011 42.8974,-211.408 48.9376,-207.871"/>
</g>
<!-- Node25&#45;&gt;Node3 -->
<g id="edge58" class="edge"><title>Node25&#45;&gt;Node3</title>
<path fill="none" stroke="midnightblue" d="M57.4477,-180.906C64.2457,-178.24 71.8165,-175.649 79,-174 179.067,-151.031 490.145,-134.416 604.373,-128.947"/>
<polygon fill="midnightblue" stroke="midnightblue" points="604.661,-132.437 614.483,-128.467 604.329,-125.445 604.661,-132.437"/>
</g>
<!-- Node25&#45;&gt;Node8 -->
<g id="edge60" class="edge"><title>Node25&#45;&gt;Node8</title>
<path fill="none" stroke="midnightblue" d="M61.0353,-180.872C66.9363,-178.596 73.179,-176.203 79,-174 232.952,-115.747 417.995,-47.9029 489.136,-21.9005"/>
<polygon fill="midnightblue" stroke="midnightblue" points="490.597,-25.0931 498.789,-18.3738 488.195,-18.5183 490.597,-25.0931"/>
</g>
<!-- Node26&#45;&gt;Node22 -->
<g id="edge70" class="edge"><title>Node26&#45;&gt;Node22</title>
<path fill="none" stroke="midnightblue" d="M427,-250.971C427,-240.679 427,-224.375 427,-211.364"/>
<polygon fill="midnightblue" stroke="midnightblue" points="430.5,-211.011 427,-201.011 423.5,-211.011 430.5,-211.011"/>
</g>
<!-- Node27 -->
<g id="node59" class="node"><title>Node27</title>
<polygon fill="white" stroke="#bfbfbf" points="298,-181 298,-201 388,-201 388,-181 298,-181"/>
<text text-anchor="middle" x="343" y="-188" font-family="FreeSans" font-size="10.00">tbb/combinable.h</text>
</g>
<!-- Node26&#45;&gt;Node27 -->
<g id="edge64" class="edge"><title>Node26&#45;&gt;Node27</title>
<path fill="none" stroke="midnightblue" d="M414.965,-250.971C401.367,-239.639 379.025,-221.021 362.838,-207.531"/>
<polygon fill="midnightblue" stroke="midnightblue" points="364.936,-204.724 355.013,-201.011 360.454,-210.101 364.936,-204.724"/>
</g>
<!-- Node28 -->
<g id="node61" class="node"><title>Node28</title>
<polygon fill="white" stroke="#bfbfbf" points="88,-175 88,-207 204,-207 204,-175 88,-175"/>
<text text-anchor="start" x="96" y="-194" font-family="FreeSans" font-size="10.00">tbb/enumerable_thread</text>
<text text-anchor="middle" x="146" y="-182" font-family="FreeSans" font-size="10.00">_specific.h</text>
</g>
<!-- Node26&#45;&gt;Node28 -->
<g id="edge66" class="edge"><title>Node26&#45;&gt;Node28</title>
<path fill="none" stroke="midnightblue" d="M404.723,-250.873C398.726,-248.393 392.185,-245.907 386,-244 314.029,-221.807 291.372,-225.315 214.267,-208.209"/>
<polygon fill="midnightblue" stroke="midnightblue" points="214.594,-204.694 204.067,-205.897 213.046,-211.521 214.594,-204.694"/>
</g>
<!-- Node29 -->
<g id="node63" class="node"><title>Node29</title>
<polygon fill="white" stroke="#bfbfbf" points="221.5,-181 221.5,-201 280.5,-201 280.5,-181 221.5,-181"/>
<text text-anchor="middle" x="251" y="-188" font-family="FreeSans" font-size="10.00">sys/time.h</text>
</g>
<!-- Node26&#45;&gt;Node29 -->
<g id="edge68" class="edge"><title>Node26&#45;&gt;Node29</title>
<path fill="none" stroke="midnightblue" d="M403.213,-250.959C397.586,-248.633 391.594,-246.197 386,-244 343.198,-227.191 331.566,-225.399 289,-208 286.799,-207.1 284.535,-206.151 282.262,-205.179"/>
<polygon fill="midnightblue" stroke="midnightblue" points="283.563,-201.928 272.998,-201.134 280.762,-208.343 283.563,-201.928"/>
</g>
<!-- Node30&#45;&gt;Node3 -->
<g id="edge74" class="edge"><title>Node30&#45;&gt;Node3</title>
<path fill="none" stroke="midnightblue" d="M518.243,-180.859C543.983,-170.092 584.84,-153.001 613.614,-140.965"/>
<polygon fill="midnightblue" stroke="midnightblue" points="614.995,-144.181 622.87,-137.094 612.294,-137.724 614.995,-144.181"/>
</g>
<!-- Node30&#45;&gt;Node8 -->
<g id="edge76" class="edge"><title>Node30&#45;&gt;Node8</title>
<path fill="none" stroke="midnightblue" d="M492.165,-180.773C488.489,-158.18 481.514,-102.492 493,-58 495.574,-48.0286 500.766,-37.9136 505.838,-29.6346"/>
<polygon fill="midnightblue" stroke="midnightblue" points="508.827,-31.4588 511.368,-21.173 502.967,-27.6295 508.827,-31.4588"/>
</g>
<!-- Node30&#45;&gt;Node9 -->
<g id="edge78" class="edge"><title>Node30&#45;&gt;Node9</title>
<path fill="none" stroke="midnightblue" d="M496.131,-180.598C500.285,-160.329 509.525,-115.238 514.902,-88.9969"/>
<polygon fill="midnightblue" stroke="midnightblue" points="518.365,-89.5314 516.944,-79.0324 511.508,-88.1262 518.365,-89.5314"/>
</g>
<!-- Node33&#45;&gt;Node3 -->
<g id="edge106" class="edge"><title>Node33&#45;&gt;Node3</title>
<path fill="none" stroke="midnightblue" d="M2115.76,-256.431C2048.86,-248.01 1913.6,-228.976 1871,-208 1850.67,-197.99 1854.01,-182.506 1833,-174 1779.03,-152.144 895.493,-132.237 689.632,-127.881"/>
<polygon fill="midnightblue" stroke="midnightblue" points="689.588,-124.379 679.516,-127.668 689.44,-131.378 689.588,-124.379"/>
</g>
<!-- Node33&#45;&gt;Node23 -->
<g id="edge104" class="edge"><title>Node33&#45;&gt;Node23</title>
<path fill="none" stroke="midnightblue" d="M2115.87,-257.646C2055.79,-251.688 1935.85,-237.054 1838,-208 1835.05,-207.124 1832.03,-206.083 1829.03,-204.954"/>
<polygon fill="midnightblue" stroke="midnightblue" points="1830.28,-201.682 1819.7,-201.142 1827.63,-208.162 1830.28,-201.682"/>
</g>
<!-- Node34 -->
<g id="node78" class="node"><title>Node34</title>
<polygon fill="white" stroke="#bfbfbf" points="2447.5,-181 2447.5,-201 2560.5,-201 2560.5,-181 2447.5,-181"/>
<text text-anchor="middle" x="2504" y="-188" font-family="FreeSans" font-size="10.00">cantera/IdealGasMix.h</text>
</g>
<!-- Node33&#45;&gt;Node34 -->
<g id="edge88" class="edge"><title>Node33&#45;&gt;Node34</title>
<path fill="none" stroke="midnightblue" d="M2179.08,-250.895C2186.09,-248.357 2193.77,-245.836 2201,-244 2304.69,-217.678 2334.21,-229.565 2439,-208 2445.3,-206.704 2451.9,-205.178 2458.38,-203.581"/>
<polygon fill="midnightblue" stroke="midnightblue" points="2459.57,-206.889 2468.4,-201.036 2457.84,-200.105 2459.57,-206.889"/>
</g>
<!-- Node35 -->
<g id="node80" class="node"><title>Node35</title>
<polygon fill="white" stroke="#bfbfbf" points="2578,-181 2578,-201 2684,-201 2684,-181 2578,-181"/>
<text text-anchor="middle" x="2631" y="-188" font-family="FreeSans" font-size="10.00">cantera/equilibrium.h</text>
</g>
<!-- Node33&#45;&gt;Node35 -->
<g id="edge90" class="edge"><title>Node33&#45;&gt;Node35</title>
<path fill="none" stroke="midnightblue" d="M2178.05,-250.998C2185.31,-248.334 2193.38,-245.722 2201,-244 2361.29,-207.77 2407.39,-237.836 2569,-208 2575.34,-206.83 2581.97,-205.322 2588.45,-203.69"/>
<polygon fill="midnightblue" stroke="midnightblue" points="2589.65,-206.992 2598.42,-201.051 2587.86,-200.225 2589.65,-206.992"/>
</g>
<!-- Node36 -->
<g id="node82" class="node"><title>Node36</title>
<polygon fill="white" stroke="#bfbfbf" points="2701.5,-181 2701.5,-201 2790.5,-201 2790.5,-181 2701.5,-181"/>
<text text-anchor="middle" x="2746" y="-188" font-family="FreeSans" font-size="10.00">cantera/thermo.h</text>
</g>
<!-- Node33&#45;&gt;Node36 -->
<g id="edge92" class="edge"><title>Node33&#45;&gt;Node36</title>
<path fill="none" stroke="midnightblue" d="M2178.02,-250.88C2185.29,-248.213 2193.36,-245.628 2201,-244 2415.43,-198.284 2477.77,-249.777 2693,-208 2698.2,-206.99 2703.61,-205.633 2708.89,-204.123"/>
<polygon fill="midnightblue" stroke="midnightblue" points="2710.28,-207.359 2718.82,-201.084 2708.23,-200.666 2710.28,-207.359"/>
</g>
<!-- Node37 -->
<g id="node84" class="node"><title>Node37</title>
<polygon fill="white" stroke="#bfbfbf" points="2807.5,-181 2807.5,-201 2904.5,-201 2904.5,-181 2807.5,-181"/>
<text text-anchor="middle" x="2856" y="-188" font-family="FreeSans" font-size="10.00">cantera/transport.h</text>
</g>
<!-- Node33&#45;&gt;Node37 -->
<g id="edge94" class="edge"><title>Node33&#45;&gt;Node37</title>
<path fill="none" stroke="midnightblue" d="M2177.53,-250.996C2184.91,-248.264 2193.18,-245.614 2201,-244 2461.76,-190.165 2536.81,-254.355 2799,-208 2804.93,-206.952 2811.11,-205.5 2817.13,-203.882"/>
<polygon fill="midnightblue" stroke="midnightblue" points="2818.37,-207.166 2827.02,-201.044 2816.44,-200.437 2818.37,-207.166"/>
</g>
<!-- Node38 -->
<g id="node86" class="node"><title>Node38</title>
<polygon fill="white" stroke="#bfbfbf" points="1880,-181 1880,-201 1972,-201 1972,-181 1880,-181"/>
<text text-anchor="middle" x="1926" y="-188" font-family="FreeSans" font-size="10.00">cantera/kinetics.h</text>
</g>
<!-- Node33&#45;&gt;Node38 -->
<g id="edge96" class="edge"><title>Node33&#45;&gt;Node38</title>
<path fill="none" stroke="midnightblue" d="M2121.15,-250.963C2086.34,-240.322 2029.79,-223.013 1981,-208 1976.92,-206.743 1972.66,-205.432 1968.41,-204.12"/>
<polygon fill="midnightblue" stroke="midnightblue" points="1969.16,-200.688 1958.57,-201.081 1967.09,-207.376 1969.16,-200.688"/>
</g>
<!-- Node39 -->
<g id="node88" class="node"><title>Node39</title>
<polygon fill="white" stroke="#bfbfbf" points="1990,-181 1990,-201 2148,-201 2148,-181 1990,-181"/>
<text text-anchor="middle" x="2069" y="-188" font-family="FreeSans" font-size="10.00">cantera/thermo/IdealGasPhase.h</text>
</g>
<!-- Node33&#45;&gt;Node39 -->
<g id="edge98" class="edge"><title>Node33&#45;&gt;Node39</title>
<path fill="none" stroke="midnightblue" d="M2141.82,-250.971C2128.06,-239.639 2105.45,-221.021 2089.07,-207.531"/>
<polygon fill="midnightblue" stroke="midnightblue" points="2091.1,-204.666 2081.16,-201.011 2086.65,-210.07 2091.1,-204.666"/>
</g>
<!-- Node40 -->
<g id="node90" class="node"><title>Node40</title>
<polygon fill="white" stroke="#bfbfbf" points="2165.5,-181 2165.5,-201 2312.5,-201 2312.5,-181 2165.5,-181"/>
<text text-anchor="middle" x="2239" y="-188" font-family="FreeSans" font-size="10.00">cantera/kinetics/GasKinetics.h</text>
</g>
<!-- Node33&#45;&gt;Node40 -->
<g id="edge100" class="edge"><title>Node33&#45;&gt;Node40</title>
<path fill="none" stroke="midnightblue" d="M2166.18,-250.971C2179.94,-239.639 2202.55,-221.021 2218.93,-207.531"/>
<polygon fill="midnightblue" stroke="midnightblue" points="2221.35,-210.07 2226.84,-201.011 2216.9,-204.666 2221.35,-210.07"/>
</g>
<!-- Node41 -->
<g id="node92" class="node"><title>Node41</title>
<polygon fill="white" stroke="#bfbfbf" points="2329.5,-181 2329.5,-201 2430.5,-201 2430.5,-181 2329.5,-181"/>
<text text-anchor="middle" x="2380" y="-188" font-family="FreeSans" font-size="10.00">cantera/base/ctml.h</text>
</g>
<!-- Node33&#45;&gt;Node41 -->
<g id="edge102" class="edge"><title>Node33&#45;&gt;Node41</title>
<path fill="none" stroke="midnightblue" d="M2181.24,-250.837C2187.7,-248.516 2194.57,-246.113 2201,-244 2225.98,-235.794 2291.18,-216.704 2335.6,-203.82"/>
<polygon fill="midnightblue" stroke="midnightblue" points="2336.66,-207.156 2345.29,-201.011 2334.71,-200.432 2336.66,-207.156"/>
</g>
<!-- Node43 -->
<g id="node98" class="node"><title>Node43</title>
<polygon fill="white" stroke="#bfbfbf" points="2316,-251 2316,-271 2420,-271 2420,-251 2316,-251"/>
<text text-anchor="middle" x="2368" y="-258" font-family="FreeSans" font-size="10.00">tbb/blocked_range.h</text>
</g>
<!-- Node42&#45;&gt;Node43 -->
<g id="edge110" class="edge"><title>Node42&#45;&gt;Node43</title>
<path fill="none" stroke="midnightblue" d="M2254.39,-314.859C2276.81,-304.233 2312.21,-287.446 2337.54,-275.439"/>
<polygon fill="midnightblue" stroke="midnightblue" points="2339.17,-278.54 2346.71,-271.094 2336.17,-272.215 2339.17,-278.54"/>
</g>
<!-- Node44 -->
<g id="node100" class="node"><title>Node44</title>
<polygon fill="white" stroke="#bfbfbf" points="2210,-251 2210,-271 2298,-271 2298,-251 2210,-251"/>
<text text-anchor="middle" x="2254" y="-258" font-family="FreeSans" font-size="10.00">tbb/parallel_for.h</text>
</g>
<!-- Node42&#45;&gt;Node44 -->
<g id="edge112" class="edge"><title>Node42&#45;&gt;Node44</title>
<path fill="none" stroke="midnightblue" d="M2236.37,-314.717C2239.36,-305.613 2243.81,-292.068 2247.48,-280.858"/>
<polygon fill="midnightblue" stroke="midnightblue" points="2250.91,-281.639 2250.7,-271.046 2244.26,-279.457 2250.91,-281.639"/>
</g>
</g>
</svg>
