<?xml version="1.0" encoding="UTF-8" standalone="no"?>
<!DOCTYPE svg PUBLIC "-//W3C//DTD SVG 1.1//EN"
 "http://www.w3.org/Graphics/SVG/1.1/DTD/svg11.dtd">
<!-- Generated by graphviz version 8.1.0 (20230707.2238)
 -->
<!-- Title: src/convectionSystem.h Pages: 1 -->
<svg width="275pt" height="142pt"
 viewBox="0.00 0.00 275.38 142.25" xmlns="http://www.w3.org/2000/svg" xmlns:xlink="http://www.w3.org/1999/xlink">
<g id="graph0" class="graph" transform="scale(1 1) rotate(0) translate(4 138.25)">
<title>src/convectionSystem.h</title>
<!-- Node1 -->
<g id="Node000001" class="node">
<title>Node1</title>
<g id="a_Node000001"><a xlink:title=" ">
<polygon fill="#999999" stroke="#666666" points="207.88,-134.25 75.62,-134.25 75.62,-113.5 207.88,-113.5 207.88,-134.25"/>
<text text-anchor="middle" x="141.75" y="-120.75" font-family="FreeSans" font-size="10.00">src/convectionSystem.h</text>
</a>
</g>
</g>
<!-- Node2 -->
<g id="Node000002" class="node">
<title>Node2</title>
<g id="a_Node000002"><a xlink:href="convectionSystem_8cpp.html" target="_top" xlink:title=" ">
<polygon fill="white" stroke="#666666" points="143.5,-77.5 0,-77.5 0,-56.75 143.5,-56.75 143.5,-77.5"/>
<text text-anchor="middle" x="71.75" y="-64" font-family="FreeSans" font-size="10.00">src/convectionSystem.cpp</text>
</a>
</g>
</g>
<!-- Node1&#45;&gt;Node2 -->
<g id="edge1_Node000001_Node000002" class="edge">
<title>Node1&#45;&gt;Node2</title>
<g id="a_edge1_Node000001_Node000002"><a xlink:title=" ">
<path fill="none" stroke="#63b8ff" d="M120.73,-106.44C108.8,-97.11 94.28,-85.75 84.16,-77.83"/>
<polygon fill="#63b8ff" stroke="#63b8ff" points="118.2,-109.68 128.24,-113.09 122.51,-104.17 118.2,-109.68"/>
</a>
</g>
</g>
<!-- Node3 -->
<g id="Node000003" class="node">
<title>Node3</title>
<g id="a_Node000003"><a xlink:href="flameSolver_8h.html" target="_top" xlink:title=" ">
<polygon fill="white" stroke="#666666" points="261.75,-77.5 161.75,-77.5 161.75,-56.75 261.75,-56.75 261.75,-77.5"/>
<text text-anchor="middle" x="211.75" y="-64" font-family="FreeSans" font-size="10.00">src/flameSolver.h</text>
</a>
</g>
</g>
<!-- Node1&#45;&gt;Node3 -->
<g id="edge2_Node000001_Node000003" class="edge">
<title>Node1&#45;&gt;Node3</title>
<g id="a_edge2_Node000001_Node000003"><a xlink:title=" ">
<path fill="none" stroke="#63b8ff" d="M162.77,-106.44C174.7,-97.11 189.22,-85.75 199.34,-77.83"/>
<polygon fill="#63b8ff" stroke="#63b8ff" points="160.99,-104.17 155.26,-113.09 165.3,-109.68 160.99,-104.17"/>
</a>
</g>
</g>
<!-- Node4 -->
<g id="Node000004" class="node">
<title>Node4</title>
<g id="a_Node000004"><a xlink:href="flameSolver_8cpp.html" target="_top" xlink:title=" ">
<polygon fill="white" stroke="#666666" points="267.38,-20.75 156.12,-20.75 156.12,0 267.38,0 267.38,-20.75"/>
<text text-anchor="middle" x="211.75" y="-7.25" font-family="FreeSans" font-size="10.00">src/flameSolver.cpp</text>
</a>
</g>
</g>
<!-- Node3&#45;&gt;Node4 -->
<g id="edge3_Node000003_Node000004" class="edge">
<title>Node3&#45;&gt;Node4</title>
<g id="a_edge3_Node000003_Node000004"><a xlink:title=" ">
<path fill="none" stroke="#63b8ff" d="M211.75,-45.46C211.75,-37.09 211.75,-27.83 211.75,-21.08"/>
<polygon fill="#63b8ff" stroke="#63b8ff" points="208.25,-45.34 211.75,-55.34 215.25,-45.34 208.25,-45.34"/>
</a>
</g>
</g>
</g>
</svg>
