<?xml version="1.0" encoding="UTF-8" standalone="no"?>
<!DOCTYPE svg PUBLIC "-//W3C//DTD SVG 1.1//EN"
 "http://www.w3.org/Graphics/SVG/1.1/DTD/svg11.dtd">
<!-- Generated by graphviz version 2.28.0 (20120425.2022)
 -->
<!-- Title: G Pages: 1 -->
<svg width="3000pt" height="332pt"
 viewBox="0.00 0.00 3000.00 332.00" xmlns="http://www.w3.org/2000/svg" xmlns:xlink="http://www.w3.org/1999/xlink">
<g id="graph1" class="graph" transform="scale(1 1) rotate(0) translate(4 328)">
<title>G</title>
<polygon fill="white" stroke="white" points="-4,5 -4,-328 2997,-328 2997,5 -4,5"/>
<!-- Node1 -->
<g id="node1" class="node"><title>Node1</title>
<polygon fill="#bfbfbf" stroke="black" points="2082.5,-304.5 2082.5,-323.5 2205.5,-323.5 2205.5,-304.5 2082.5,-304.5"/>
<text text-anchor="middle" x="2144" y="-311.5" font-family="FreeSans" font-size="10.00">src/convectionSystem.h</text>
</g>
<!-- Node2 -->
<g id="node3" class="node"><title>Node2</title>
<a xlink:href="mathUtils_8h.html" target="_top" xlink:title="mathUtils.h">
<polygon fill="white" stroke="black" points="255.5,-112.5 255.5,-131.5 320.5,-131.5 320.5,-112.5 255.5,-112.5"/>
<text text-anchor="middle" x="288" y="-119.5" font-family="FreeSans" font-size="10.00">mathUtils.h</text>
</a>
</g>
<!-- Node1&#45;&gt;Node2 -->
<g id="edge2" class="edge"><title>Node1&#45;&gt;Node2</title>
<path fill="none" stroke="midnightblue" d="M2082.12,-313.158C1818.02,-313.552 784.149,-312.182 462,-268 338.973,-251.127 267.378,-297.911 191,-200 182.252,-188.786 183.347,-179.987 191,-168 203.105,-149.04 225.483,-137.947 245.696,-131.521"/>
<polygon fill="midnightblue" stroke="midnightblue" points="246.751,-134.86 255.391,-128.728 244.813,-128.133 246.751,-134.86"/>
</g>
<!-- Node11 -->
<g id="node23" class="node"><title>Node11</title>
<a xlink:href="sundialsUtils_8h.html" target="_top" xlink:title="sundialsUtils.h">
<polygon fill="white" stroke="black" points="2104,-242.5 2104,-261.5 2184,-261.5 2184,-242.5 2104,-242.5"/>
<text text-anchor="middle" x="2144" y="-249.5" font-family="FreeSans" font-size="10.00">sundialsUtils.h</text>
</a>
</g>
<!-- Node1&#45;&gt;Node11 -->
<g id="edge24" class="edge"><title>Node1&#45;&gt;Node11</title>
<path fill="none" stroke="midnightblue" d="M2144,-304.403C2144,-295.938 2144,-282.728 2144,-271.82"/>
<polygon fill="midnightblue" stroke="midnightblue" points="2147.5,-271.581 2144,-261.581 2140.5,-271.581 2147.5,-271.581"/>
</g>
<!-- Node22 -->
<g id="node47" class="node"><title>Node22</title>
<a xlink:href="strainFunction_8h.html" target="_top" xlink:title="strainFunction.h">
<polygon fill="white" stroke="black" points="-0.5,-242.5 -0.5,-261.5 84.5,-261.5 84.5,-242.5 -0.5,-242.5"/>
<text text-anchor="middle" x="42" y="-249.5" font-family="FreeSans" font-size="10.00">strainFunction.h</text>
</a>
</g>
<!-- Node1&#45;&gt;Node22 -->
<g id="edge50" class="edge"><title>Node1&#45;&gt;Node22</title>
<path fill="none" stroke="midnightblue" d="M2082.43,-312.617C1762.15,-310.494 293.5,-299.122 93,-268 87.414,-267.133 81.5816,-265.822 75.9403,-264.329"/>
<polygon fill="midnightblue" stroke="midnightblue" points="76.6646,-260.896 66.0872,-261.503 74.7344,-267.625 76.6646,-260.896"/>
</g>
<!-- Node24 -->
<g id="node53" class="node"><title>Node24</title>
<a xlink:href="grid_8h.html" target="_top" xlink:title="grid.h">
<polygon fill="white" stroke="black" points="102.5,-242.5 102.5,-261.5 143.5,-261.5 143.5,-242.5 102.5,-242.5"/>
<text text-anchor="middle" x="123" y="-249.5" font-family="FreeSans" font-size="10.00">grid.h</text>
</a>
</g>
<!-- Node1&#45;&gt;Node24 -->
<g id="edge58" class="edge"><title>Node1&#45;&gt;Node24</title>
<path fill="none" stroke="midnightblue" d="M2082.25,-312.998C1767.54,-312.8 349.58,-309.59 158,-268 154.933,-267.334 151.801,-266.4 148.732,-265.319"/>
<polygon fill="midnightblue" stroke="midnightblue" points="149.888,-262.011 139.305,-261.518 147.27,-268.503 149.888,-262.011"/>
</g>
<!-- Node25 -->
<g id="node56" class="node"><title>Node25</title>
<a xlink:href="chemistry0d_8h.html" target="_top" xlink:title="chemistry0d.h">
<polygon fill="white" stroke="black" points="710,-242.5 710,-261.5 788,-261.5 788,-242.5 710,-242.5"/>
<text text-anchor="middle" x="749" y="-249.5" font-family="FreeSans" font-size="10.00">chemistry0d.h</text>
</a>
</g>
<!-- Node1&#45;&gt;Node25 -->
<g id="edge62" class="edge"><title>Node1&#45;&gt;Node25</title>
<path fill="none" stroke="midnightblue" d="M2082.26,-310.344C1847.23,-300.236 1010.98,-264.268 798.421,-255.126"/>
<polygon fill="midnightblue" stroke="midnightblue" points="798.336,-251.619 788.195,-254.686 798.035,-258.612 798.336,-251.619"/>
</g>
<!-- Node34 -->
<g id="node76" class="node"><title>Node34</title>
<a xlink:href="perfTimer_8h.html" target="_top" xlink:title="perfTimer.h">
<polygon fill="white" stroke="black" points="2202,-242.5 2202,-261.5 2270,-261.5 2270,-242.5 2202,-242.5"/>
<text text-anchor="middle" x="2236" y="-249.5" font-family="FreeSans" font-size="10.00">perfTimer.h</text>
</a>
</g>
<!-- Node1&#45;&gt;Node34 -->
<g id="edge84" class="edge"><title>Node1&#45;&gt;Node34</title>
<path fill="none" stroke="midnightblue" d="M2157.18,-304.403C2172.07,-294.691 2196.54,-278.732 2214.27,-267.17"/>
<polygon fill="midnightblue" stroke="midnightblue" points="2216.38,-269.975 2222.84,-261.581 2212.56,-264.112 2216.38,-269.975"/>
</g>
<!-- Node38 -->
<g id="node85" class="node"><title>Node38</title>
<a xlink:href="quasi2d_8h.html" target="_top" xlink:title="quasi2d.h">
<polygon fill="white" stroke="black" points="200,-174.5 200,-193.5 260,-193.5 260,-174.5 200,-174.5"/>
<text text-anchor="middle" x="230" y="-181.5" font-family="FreeSans" font-size="10.00">quasi2d.h</text>
</a>
</g>
<!-- Node1&#45;&gt;Node38 -->
<g id="edge94" class="edge"><title>Node1&#45;&gt;Node38</title>
<path fill="none" stroke="midnightblue" d="M2082.29,-312.159C1842.88,-308.726 975.255,-294.683 701,-268 515.411,-249.944 469.367,-238.882 287,-200 281.496,-198.826 275.726,-197.465 270.058,-196.05"/>
<polygon fill="midnightblue" stroke="midnightblue" points="270.603,-192.576 260.046,-193.475 268.859,-199.356 270.603,-192.576"/>
</g>
<!-- Node39 -->
<g id="node90" class="node"><title>Node39</title>
<polygon fill="white" stroke="#bfbfbf" points="2288.5,-242.5 2288.5,-261.5 2377.5,-261.5 2377.5,-242.5 2288.5,-242.5"/>
<text text-anchor="middle" x="2333" y="-249.5" font-family="FreeSans" font-size="10.00">tbb/parallel_for.h</text>
</g>
<!-- Node1&#45;&gt;Node39 -->
<g id="edge102" class="edge"><title>Node1&#45;&gt;Node39</title>
<path fill="none" stroke="midnightblue" d="M2171.08,-304.403C2203.92,-293.978 2259.43,-276.356 2296.15,-264.699"/>
<polygon fill="midnightblue" stroke="midnightblue" points="2297.5,-267.942 2305.97,-261.581 2295.38,-261.271 2297.5,-267.942"/>
</g>
<!-- Node40 -->
<g id="node92" class="node"><title>Node40</title>
<polygon fill="white" stroke="#bfbfbf" points="2395.5,-242.5 2395.5,-261.5 2502.5,-261.5 2502.5,-242.5 2395.5,-242.5"/>
<text text-anchor="middle" x="2449" y="-249.5" font-family="FreeSans" font-size="10.00">tbb/blocked_range.h</text>
</g>
<!-- Node1&#45;&gt;Node40 -->
<g id="edge104" class="edge"><title>Node1&#45;&gt;Node40</title>
<path fill="none" stroke="midnightblue" d="M2193.74,-304.499C2242.76,-295.945 2319.74,-282.04 2386,-268 2391.92,-266.746 2398.13,-265.356 2404.26,-263.943"/>
<polygon fill="midnightblue" stroke="midnightblue" points="2405.47,-267.253 2414.41,-261.564 2403.87,-260.438 2405.47,-267.253"/>
</g>
<!-- Node41 -->
<g id="node94" class="node"><title>Node41</title>
<polygon fill="white" stroke="#bfbfbf" points="2521,-242.5 2521,-261.5 2631,-261.5 2631,-242.5 2521,-242.5"/>
<text text-anchor="middle" x="2576" y="-249.5" font-family="FreeSans" font-size="10.00">boost/shared_ptr.hpp</text>
</g>
<!-- Node1&#45;&gt;Node41 -->
<g id="edge106" class="edge"><title>Node1&#45;&gt;Node41</title>
<path fill="none" stroke="midnightblue" d="M2205.66,-307.432C2278.81,-300.366 2404.32,-286.797 2511,-268 2517.82,-266.798 2525,-265.34 2532,-263.81"/>
<polygon fill="midnightblue" stroke="midnightblue" points="2533.08,-267.154 2542.07,-261.538 2531.54,-260.326 2533.08,-267.154"/>
</g>
<!-- Node42 -->
<g id="node96" class="node"><title>Node42</title>
<polygon fill="white" stroke="#bfbfbf" points="2649.5,-237 2649.5,-267 2750.5,-267 2750.5,-237 2649.5,-237"/>
<text text-anchor="start" x="2657.5" y="-255" font-family="FreeSans" font-size="10.00">boost/ptr_container</text>
<text text-anchor="middle" x="2700" y="-244" font-family="FreeSans" font-size="10.00">/ptr_vector.hpp</text>
</g>
<!-- Node1&#45;&gt;Node42 -->
<g id="edge108" class="edge"><title>Node1&#45;&gt;Node42</title>
<path fill="none" stroke="midnightblue" d="M2205.87,-310.46C2298.18,-305.994 2477.51,-294.711 2639.24,-267.942"/>
<polygon fill="midnightblue" stroke="midnightblue" points="2640.09,-271.348 2649.38,-266.24 2638.94,-264.444 2640.09,-271.348"/>
</g>
<!-- Node3 -->
<g id="node5" class="node"><title>Node3</title>
<polygon fill="white" stroke="#bfbfbf" points="2441,-56.5 2441,-75.5 2485,-75.5 2485,-56.5 2441,-56.5"/>
<text text-anchor="middle" x="2463" y="-63.5" font-family="FreeSans" font-size="10.00">vector</text>
</g>
<!-- Node2&#45;&gt;Node3 -->
<g id="edge4" class="edge"><title>Node2&#45;&gt;Node3</title>
<path fill="none" stroke="midnightblue" d="M320.863,-120.184C571.831,-113.953 2182.13,-73.9734 2430.78,-67.8"/>
<polygon fill="midnightblue" stroke="midnightblue" points="2431.04,-71.2946 2440.95,-67.5474 2430.87,-64.2967 2431.04,-71.2946"/>
</g>
<!-- Node4 -->
<g id="node7" class="node"><title>Node4</title>
<polygon fill="white" stroke="#bfbfbf" points="199,-56.5 199,-75.5 243,-75.5 243,-56.5 199,-56.5"/>
<text text-anchor="middle" x="221" y="-63.5" font-family="FreeSans" font-size="10.00">cmath</text>
</g>
<!-- Node2&#45;&gt;Node4 -->
<g id="edge6" class="edge"><title>Node2&#45;&gt;Node4</title>
<path fill="none" stroke="midnightblue" d="M277.235,-112.324C267.234,-104.263 252.113,-92.0765 240.07,-82.3695"/>
<polygon fill="midnightblue" stroke="midnightblue" points="241.943,-79.3841 231.961,-75.8339 237.55,-84.8343 241.943,-79.3841"/>
</g>
<!-- Node5 -->
<g id="node9" class="node"><title>Node5</title>
<polygon fill="white" stroke="#bfbfbf" points="497,-0.5 497,-19.5 553,-19.5 553,-0.5 497,-0.5"/>
<text text-anchor="middle" x="525" y="-7.5" font-family="FreeSans" font-size="10.00">iostream</text>
</g>
<!-- Node2&#45;&gt;Node5 -->
<g id="edge8" class="edge"><title>Node2&#45;&gt;Node5</title>
<path fill="none" stroke="midnightblue" d="M320.566,-118.273C374.316,-113.133 478.324,-100.279 505,-76 517.942,-64.2209 522.602,-44.2924 524.232,-29.5997"/>
<polygon fill="midnightblue" stroke="midnightblue" points="527.724,-29.8383 524.975,-19.6064 520.743,-29.3195 527.724,-29.8383"/>
</g>
<!-- Node6 -->
<g id="node11" class="node"><title>Node6</title>
<polygon fill="white" stroke="#bfbfbf" points="261.5,-56.5 261.5,-75.5 314.5,-75.5 314.5,-56.5 261.5,-56.5"/>
<text text-anchor="middle" x="288" y="-63.5" font-family="FreeSans" font-size="10.00">sstream</text>
</g>
<!-- Node2&#45;&gt;Node6 -->
<g id="edge10" class="edge"><title>Node2&#45;&gt;Node6</title>
<path fill="none" stroke="midnightblue" d="M288,-112.083C288,-105.006 288,-94.8611 288,-85.9865"/>
<polygon fill="midnightblue" stroke="midnightblue" points="291.5,-85.751 288,-75.7511 284.5,-85.7511 291.5,-85.751"/>
</g>
<!-- Node7 -->
<g id="node13" class="node"><title>Node7</title>
<polygon fill="white" stroke="#bfbfbf" points="131.5,-0.5 131.5,-19.5 172.5,-19.5 172.5,-0.5 131.5,-0.5"/>
<text text-anchor="middle" x="152" y="-7.5" font-family="FreeSans" font-size="10.00">string</text>
</g>
<!-- Node2&#45;&gt;Node7 -->
<g id="edge12" class="edge"><title>Node2&#45;&gt;Node7</title>
<path fill="none" stroke="midnightblue" d="M257.835,-112.495C236.912,-105.407 209.424,-93.5982 190,-76 175.657,-63.0053 165.194,-43.2989 158.92,-28.9913"/>
<polygon fill="midnightblue" stroke="midnightblue" points="162.139,-27.6162 155.097,-19.7005 155.666,-30.28 162.139,-27.6162"/>
</g>
<!-- Node8 -->
<g id="node15" class="node"><title>Node8</title>
<polygon fill="white" stroke="#bfbfbf" points="553,-56.5 553,-75.5 589,-75.5 589,-56.5 553,-56.5"/>
<text text-anchor="middle" x="571" y="-63.5" font-family="FreeSans" font-size="10.00">map</text>
</g>
<!-- Node2&#45;&gt;Node8 -->
<g id="edge14" class="edge"><title>Node2&#45;&gt;Node8</title>
<path fill="none" stroke="midnightblue" d="M320.696,-116.174C368.795,-108.84 461.334,-93.8397 539,-76 540.266,-75.7093 541.556,-75.4002 542.857,-75.0781"/>
<polygon fill="midnightblue" stroke="midnightblue" points="544.03,-78.3882 552.802,-72.447 542.24,-71.621 544.03,-78.3882"/>
</g>
<!-- Node9 -->
<g id="node17" class="node"><title>Node9</title>
<a xlink:href="debugUtils_8h.html" target="_top" xlink:title="debugUtils.h">
<polygon fill="white" stroke="red" points="425.5,-56.5 425.5,-75.5 496.5,-75.5 496.5,-56.5 425.5,-56.5"/>
<text text-anchor="middle" x="461" y="-63.5" font-family="FreeSans" font-size="10.00">debugUtils.h</text>
</a>
</g>
<!-- Node2&#45;&gt;Node9 -->
<g id="edge16" class="edge"><title>Node2&#45;&gt;Node9</title>
<path fill="none" stroke="midnightblue" d="M315.412,-112.444C344.769,-103.28 391.519,-88.6876 424.096,-78.5192"/>
<polygon fill="midnightblue" stroke="midnightblue" points="425.213,-81.8371 433.716,-75.5164 423.127,-75.1551 425.213,-81.8371"/>
</g>
<!-- Node10 -->
<g id="node21" class="node"><title>Node10</title>
<polygon fill="white" stroke="#bfbfbf" points="332.5,-56.5 332.5,-75.5 407.5,-75.5 407.5,-56.5 332.5,-56.5"/>
<text text-anchor="middle" x="370" y="-63.5" font-family="FreeSans" font-size="10.00">Eigen/Dense</text>
</g>
<!-- Node2&#45;&gt;Node10 -->
<g id="edge22" class="edge"><title>Node2&#45;&gt;Node10</title>
<path fill="none" stroke="midnightblue" d="M301.175,-112.324C313.847,-103.979 333.233,-91.2122 348.206,-81.3524"/>
<polygon fill="midnightblue" stroke="midnightblue" points="350.431,-84.0776 356.858,-75.6545 346.581,-78.2313 350.431,-84.0776"/>
</g>
<!-- Node9&#45;&gt;Node5 -->
<g id="edge20" class="edge"><title>Node9&#45;&gt;Node5</title>
<path fill="none" stroke="midnightblue" d="M471.283,-56.324C480.836,-48.2631 495.28,-36.0765 506.784,-26.3695"/>
<polygon fill="midnightblue" stroke="midnightblue" points="509.144,-28.9577 514.53,-19.8339 504.63,-23.6076 509.144,-28.9577"/>
</g>
<!-- Node9&#45;&gt;Node7 -->
<g id="edge18" class="edge"><title>Node9&#45;&gt;Node7</title>
<path fill="none" stroke="midnightblue" d="M425.156,-57.7354C422.062,-57.1372 418.977,-56.5513 416,-56 331.668,-40.3827 231.797,-23.9073 182.567,-15.9192"/>
<polygon fill="midnightblue" stroke="midnightblue" points="183.005,-12.4446 172.574,-14.3016 181.886,-19.3547 183.005,-12.4446"/>
</g>
<!-- Node11&#45;&gt;Node3 -->
<g id="edge46" class="edge"><title>Node11&#45;&gt;Node3</title>
<path fill="none" stroke="midnightblue" d="M2169.5,-242.432C2177.01,-240.116 2185.28,-237.765 2193,-236 2244.29,-224.269 2387.78,-235.068 2427,-200 2459.75,-170.722 2464.04,-115.017 2463.85,-85.8601"/>
<polygon fill="midnightblue" stroke="midnightblue" points="2467.34,-85.6838 2463.59,-75.7761 2460.35,-85.862 2467.34,-85.6838"/>
</g>
<!-- Node11&#45;&gt;Node5 -->
<g id="edge44" class="edge"><title>Node11&#45;&gt;Node5</title>
<path fill="none" stroke="midnightblue" d="M2169.78,-242.479C2177.22,-240.191 2185.39,-237.843 2193,-236 2284.25,-213.904 2456.55,-237.112 2393,-168 2264.54,-28.286 819.124,-12.8318 563.512,-11.189"/>
<polygon fill="midnightblue" stroke="midnightblue" points="563.262,-7.68751 553.241,-11.1264 563.219,-14.6874 563.262,-7.68751"/>
</g>
<!-- Node12 -->
<g id="node25" class="node"><title>Node12</title>
<polygon fill="white" stroke="#bfbfbf" points="2479.5,-174.5 2479.5,-193.5 2602.5,-193.5 2602.5,-174.5 2479.5,-174.5"/>
<text text-anchor="middle" x="2541" y="-181.5" font-family="FreeSans" font-size="10.00">nvector/nvector_serial.h</text>
</g>
<!-- Node11&#45;&gt;Node12 -->
<g id="edge26" class="edge"><title>Node11&#45;&gt;Node12</title>
<path fill="none" stroke="midnightblue" d="M2168.97,-242.485C2176.61,-240.115 2185.09,-237.722 2193,-236 2312.15,-210.064 2344.68,-219.816 2465,-200 2473.11,-198.664 2481.69,-197.11 2490.04,-195.519"/>
<polygon fill="midnightblue" stroke="midnightblue" points="2490.92,-198.914 2500.07,-193.572 2489.58,-192.042 2490.92,-198.914"/>
</g>
<!-- Node13 -->
<g id="node27" class="node"><title>Node13</title>
<polygon fill="white" stroke="#bfbfbf" points="1398,-174.5 1398,-193.5 1534,-193.5 1534,-174.5 1398,-174.5"/>
<text text-anchor="middle" x="1466" y="-181.5" font-family="FreeSans" font-size="10.00">sundials/sundials_dense.h</text>
</g>
<!-- Node11&#45;&gt;Node13 -->
<g id="edge28" class="edge"><title>Node11&#45;&gt;Node13</title>
<path fill="none" stroke="midnightblue" d="M2103.74,-249.085C2006.83,-244.149 1753.02,-229.28 1543,-200 1534.08,-198.757 1524.63,-197.155 1515.52,-195.463"/>
<polygon fill="midnightblue" stroke="midnightblue" points="1515.91,-191.973 1505.43,-193.529 1514.59,-198.848 1515.91,-191.973"/>
</g>
<!-- Node14 -->
<g id="node29" class="node"><title>Node14</title>
<polygon fill="white" stroke="#bfbfbf" points="1552,-174.5 1552,-193.5 1682,-193.5 1682,-174.5 1552,-174.5"/>
<text text-anchor="middle" x="1617" y="-181.5" font-family="FreeSans" font-size="10.00">sundials/sundials_band.h</text>
</g>
<!-- Node11&#45;&gt;Node14 -->
<g id="edge30" class="edge"><title>Node11&#45;&gt;Node14</title>
<path fill="none" stroke="midnightblue" d="M2103.85,-247.674C2024.61,-240.847 1842.67,-223.863 1691,-200 1682.81,-198.711 1674.14,-197.143 1665.74,-195.512"/>
<polygon fill="midnightblue" stroke="midnightblue" points="1666.16,-192.028 1655.67,-193.507 1664.8,-198.893 1666.16,-192.028"/>
</g>
<!-- Node15 -->
<g id="node31" class="node"><title>Node15</title>
<polygon fill="white" stroke="#bfbfbf" points="1700.5,-174.5 1700.5,-193.5 1831.5,-193.5 1831.5,-174.5 1700.5,-174.5"/>
<text text-anchor="middle" x="1766" y="-181.5" font-family="FreeSans" font-size="10.00">sundials/sundials_types.h</text>
</g>
<!-- Node11&#45;&gt;Node15 -->
<g id="edge32" class="edge"><title>Node11&#45;&gt;Node15</title>
<path fill="none" stroke="midnightblue" d="M2103.74,-244.626C2045.63,-235.335 1934.91,-217.29 1841,-200 1833.38,-198.597 1825.33,-197.054 1817.46,-195.508"/>
<polygon fill="midnightblue" stroke="midnightblue" points="1818.1,-192.067 1807.61,-193.558 1816.74,-198.934 1818.1,-192.067"/>
</g>
<!-- Node16 -->
<g id="node33" class="node"><title>Node16</title>
<polygon fill="white" stroke="#bfbfbf" points="1850,-174.5 1850,-193.5 1934,-193.5 1934,-174.5 1850,-174.5"/>
<text text-anchor="middle" x="1892" y="-181.5" font-family="FreeSans" font-size="10.00">cvode/cvode.h</text>
</g>
<!-- Node11&#45;&gt;Node16 -->
<g id="edge34" class="edge"><title>Node11&#45;&gt;Node16</title>
<path fill="none" stroke="midnightblue" d="M2108.67,-242.463C2068.45,-232.643 2000.81,-215.831 1943,-200 1938.84,-198.862 1934.51,-197.64 1930.2,-196.403"/>
<polygon fill="midnightblue" stroke="midnightblue" points="1930.85,-192.949 1920.27,-193.52 1928.9,-199.671 1930.85,-192.949"/>
</g>
<!-- Node17 -->
<g id="node35" class="node"><title>Node17</title>
<polygon fill="white" stroke="#bfbfbf" points="1952,-174.5 1952,-193.5 2070,-193.5 2070,-174.5 1952,-174.5"/>
<text text-anchor="middle" x="2011" y="-181.5" font-family="FreeSans" font-size="10.00">cvode/cvode_dense.h</text>
</g>
<!-- Node11&#45;&gt;Node17 -->
<g id="edge36" class="edge"><title>Node11&#45;&gt;Node17</title>
<path fill="none" stroke="midnightblue" d="M2126.61,-242.372C2103.91,-231.106 2063.96,-211.279 2037.48,-198.14"/>
<polygon fill="midnightblue" stroke="midnightblue" points="2038.91,-194.94 2028.39,-193.63 2035.79,-201.211 2038.91,-194.94"/>
</g>
<!-- Node18 -->
<g id="node37" class="node"><title>Node18</title>
<polygon fill="white" stroke="#bfbfbf" points="2088,-174.5 2088,-193.5 2200,-193.5 2200,-174.5 2088,-174.5"/>
<text text-anchor="middle" x="2144" y="-181.5" font-family="FreeSans" font-size="10.00">cvode/cvode_band.h</text>
</g>
<!-- Node11&#45;&gt;Node18 -->
<g id="edge38" class="edge"><title>Node11&#45;&gt;Node18</title>
<path fill="none" stroke="midnightblue" d="M2144,-242.372C2144,-232.643 2144,-216.528 2144,-203.85"/>
<polygon fill="midnightblue" stroke="midnightblue" points="2147.5,-203.841 2144,-193.841 2140.5,-203.841 2147.5,-203.841"/>
</g>
<!-- Node19 -->
<g id="node39" class="node"><title>Node19</title>
<polygon fill="white" stroke="#bfbfbf" points="2218,-174.5 2218,-193.5 2274,-193.5 2274,-174.5 2218,-174.5"/>
<text text-anchor="middle" x="2246" y="-181.5" font-family="FreeSans" font-size="10.00">ida/ida.h</text>
</g>
<!-- Node11&#45;&gt;Node19 -->
<g id="edge40" class="edge"><title>Node11&#45;&gt;Node19</title>
<path fill="none" stroke="midnightblue" d="M2157.33,-242.372C2174.29,-231.403 2203.78,-212.317 2224.07,-199.191"/>
<polygon fill="midnightblue" stroke="midnightblue" points="2226.17,-202.002 2232.66,-193.63 2222.36,-196.125 2226.17,-202.002"/>
</g>
<!-- Node20 -->
<g id="node41" class="node"><title>Node20</title>
<polygon fill="white" stroke="#bfbfbf" points="2291.5,-174.5 2291.5,-193.5 2384.5,-193.5 2384.5,-174.5 2291.5,-174.5"/>
<text text-anchor="middle" x="2338" y="-181.5" font-family="FreeSans" font-size="10.00">ida/ida_spbcgs.h</text>
</g>
<!-- Node11&#45;&gt;Node20 -->
<g id="edge42" class="edge"><title>Node11&#45;&gt;Node20</title>
<path fill="none" stroke="midnightblue" d="M2169.36,-242.372C2203.59,-230.728 2264.69,-209.939 2303.19,-196.841"/>
<polygon fill="midnightblue" stroke="midnightblue" points="2304.6,-200.06 2312.94,-193.526 2302.34,-193.433 2304.6,-200.06"/>
</g>
<!-- Node21 -->
<g id="node45" class="node"><title>Node21</title>
<polygon fill="white" stroke="#bfbfbf" points="2620.5,-174.5 2620.5,-193.5 2663.5,-193.5 2663.5,-174.5 2620.5,-174.5"/>
<text text-anchor="middle" x="2642" y="-181.5" font-family="FreeSans" font-size="10.00">time.h</text>
</g>
<!-- Node11&#45;&gt;Node21 -->
<g id="edge48" class="edge"><title>Node11&#45;&gt;Node21</title>
<path fill="none" stroke="midnightblue" d="M2168.17,-242.494C2176,-240.037 2184.79,-237.592 2193,-236 2376.06,-200.512 2431.21,-249.428 2611,-200 2613.2,-199.395 2615.44,-198.636 2617.64,-197.784"/>
<polygon fill="midnightblue" stroke="midnightblue" points="2619.27,-200.893 2626.98,-193.628 2616.42,-194.498 2619.27,-200.893"/>
</g>
<!-- Node23 -->
<g id="node49" class="node"><title>Node23</title>
<a xlink:href="readConfig_8h.html" target="_top" xlink:title="readConfig.h">
<polygon fill="white" stroke="black" points="70,-174.5 70,-193.5 144,-193.5 144,-174.5 70,-174.5"/>
<text text-anchor="middle" x="107" y="-181.5" font-family="FreeSans" font-size="10.00">readConfig.h</text>
</a>
</g>
<!-- Node22&#45;&gt;Node23 -->
<g id="edge52" class="edge"><title>Node22&#45;&gt;Node23</title>
<path fill="none" stroke="midnightblue" d="M50.4976,-242.372C60.7567,-231.955 78.2254,-214.217 91.0295,-201.216"/>
<polygon fill="midnightblue" stroke="midnightblue" points="93.7696,-203.422 98.2928,-193.841 88.7822,-198.51 93.7696,-203.422"/>
</g>
<!-- Node23&#45;&gt;Node2 -->
<g id="edge54" class="edge"><title>Node23&#45;&gt;Node2</title>
<path fill="none" stroke="midnightblue" d="M132.933,-174.403C164.25,-164.022 217.09,-146.506 252.256,-134.849"/>
<polygon fill="midnightblue" stroke="midnightblue" points="253.724,-138.049 262.115,-131.581 251.522,-131.405 253.724,-138.049"/>
</g>
<!-- Node23&#45;&gt;Node7 -->
<g id="edge56" class="edge"><title>Node23&#45;&gt;Node7</title>
<path fill="none" stroke="midnightblue" d="M106.275,-174.327C104.836,-153.257 103.016,-98.0207 119,-56 122.946,-45.6263 129.969,-35.5253 136.525,-27.5305"/>
<polygon fill="midnightblue" stroke="midnightblue" points="139.357,-29.6075 143.287,-19.7686 134.079,-25.0091 139.357,-29.6075"/>
</g>
<!-- Node24&#45;&gt;Node23 -->
<g id="edge60" class="edge"><title>Node24&#45;&gt;Node23</title>
<path fill="none" stroke="midnightblue" d="M120.908,-242.372C118.55,-232.643 114.643,-216.528 111.57,-203.85"/>
<polygon fill="midnightblue" stroke="midnightblue" points="114.901,-202.735 109.143,-193.841 108.098,-204.384 114.901,-202.735"/>
</g>
<!-- Node25&#45;&gt;Node2 -->
<g id="edge80" class="edge"><title>Node25&#45;&gt;Node2</title>
<path fill="none" stroke="midnightblue" d="M709.917,-249.013C607.476,-243.457 337.003,-226.415 307,-200 290.646,-185.602 287.25,-159.581 287.042,-141.808"/>
<polygon fill="midnightblue" stroke="midnightblue" points="290.542,-141.826 287.248,-131.756 283.543,-141.682 290.542,-141.826"/>
</g>
<!-- Node25&#45;&gt;Node23 -->
<g id="edge82" class="edge"><title>Node25&#45;&gt;Node23</title>
<path fill="none" stroke="midnightblue" d="M709.972,-248.587C618.836,-242.7 385.02,-226.141 191,-200 178.957,-198.377 166.007,-196.254 153.967,-194.118"/>
<polygon fill="midnightblue" stroke="midnightblue" points="154.573,-190.671 144.109,-192.332 153.324,-197.559 154.573,-190.671"/>
</g>
<!-- Node26 -->
<g id="node58" class="node"><title>Node26</title>
<polygon fill="white" stroke="#bfbfbf" points="438.5,-174.5 438.5,-193.5 557.5,-193.5 557.5,-174.5 438.5,-174.5"/>
<text text-anchor="middle" x="498" y="-181.5" font-family="FreeSans" font-size="10.00">cantera/IdealGasMix.h</text>
</g>
<!-- Node25&#45;&gt;Node26 -->
<g id="edge64" class="edge"><title>Node25&#45;&gt;Node26</title>
<path fill="none" stroke="midnightblue" d="M716.443,-242.439C671.397,-230.594 590.003,-209.192 540.298,-196.122"/>
<polygon fill="midnightblue" stroke="midnightblue" points="541.06,-192.704 530.499,-193.546 539.28,-199.474 541.06,-192.704"/>
</g>
<!-- Node27 -->
<g id="node60" class="node"><title>Node27</title>
<polygon fill="white" stroke="#bfbfbf" points="575.5,-174.5 575.5,-193.5 684.5,-193.5 684.5,-174.5 575.5,-174.5"/>
<text text-anchor="middle" x="630" y="-181.5" font-family="FreeSans" font-size="10.00">cantera/equilibrium.h</text>
</g>
<!-- Node25&#45;&gt;Node27 -->
<g id="edge66" class="edge"><title>Node25&#45;&gt;Node27</title>
<path fill="none" stroke="midnightblue" d="M733.443,-242.372C713.309,-231.205 678.009,-211.627 654.319,-198.488"/>
<polygon fill="midnightblue" stroke="midnightblue" points="656.004,-195.42 645.561,-193.63 652.608,-201.541 656.004,-195.42"/>
</g>
<!-- Node28 -->
<g id="node62" class="node"><title>Node28</title>
<polygon fill="white" stroke="#bfbfbf" points="703,-174.5 703,-193.5 795,-193.5 795,-174.5 703,-174.5"/>
<text text-anchor="middle" x="749" y="-181.5" font-family="FreeSans" font-size="10.00">cantera/thermo.h</text>
</g>
<!-- Node25&#45;&gt;Node28 -->
<g id="edge68" class="edge"><title>Node25&#45;&gt;Node28</title>
<path fill="none" stroke="midnightblue" d="M749,-242.372C749,-232.643 749,-216.528 749,-203.85"/>
<polygon fill="midnightblue" stroke="midnightblue" points="752.5,-203.841 749,-193.841 745.5,-203.841 752.5,-203.841"/>
</g>
<!-- Node29 -->
<g id="node64" class="node"><title>Node29</title>
<polygon fill="white" stroke="#bfbfbf" points="813.5,-174.5 813.5,-193.5 912.5,-193.5 912.5,-174.5 813.5,-174.5"/>
<text text-anchor="middle" x="863" y="-181.5" font-family="FreeSans" font-size="10.00">cantera/transport.h</text>
</g>
<!-- Node25&#45;&gt;Node29 -->
<g id="edge70" class="edge"><title>Node25&#45;&gt;Node29</title>
<path fill="none" stroke="midnightblue" d="M763.904,-242.372C783.106,-231.254 816.71,-211.8 839.401,-198.662"/>
<polygon fill="midnightblue" stroke="midnightblue" points="841.192,-201.67 848.093,-193.63 837.685,-195.612 841.192,-201.67"/>
</g>
<!-- Node30 -->
<g id="node66" class="node"><title>Node30</title>
<polygon fill="white" stroke="#bfbfbf" points="930.5,-174.5 930.5,-193.5 1025.5,-193.5 1025.5,-174.5 930.5,-174.5"/>
<text text-anchor="middle" x="978" y="-181.5" font-family="FreeSans" font-size="10.00">cantera/kinetics.h</text>
</g>
<!-- Node25&#45;&gt;Node30 -->
<g id="edge72" class="edge"><title>Node25&#45;&gt;Node30</title>
<path fill="none" stroke="midnightblue" d="M778.938,-242.372C819.852,-230.58 893.315,-209.407 938.642,-196.343"/>
<polygon fill="midnightblue" stroke="midnightblue" points="939.778,-199.658 948.418,-193.526 937.84,-192.932 939.778,-199.658"/>
</g>
<!-- Node31 -->
<g id="node68" class="node"><title>Node31</title>
<polygon fill="white" stroke="#bfbfbf" points="1044,-174.5 1044,-193.5 1210,-193.5 1210,-174.5 1044,-174.5"/>
<text text-anchor="middle" x="1127" y="-181.5" font-family="FreeSans" font-size="10.00">cantera/thermo/IdealGasPhase.h</text>
</g>
<!-- Node25&#45;&gt;Node31 -->
<g id="edge74" class="edge"><title>Node25&#45;&gt;Node31</title>
<path fill="none" stroke="midnightblue" d="M788.029,-244.185C854.462,-232.586 989.888,-208.94 1067.96,-195.309"/>
<polygon fill="midnightblue" stroke="midnightblue" points="1068.87,-198.703 1078.12,-193.535 1067.66,-191.808 1068.87,-198.703"/>
</g>
<!-- Node32 -->
<g id="node70" class="node"><title>Node32</title>
<polygon fill="white" stroke="#bfbfbf" points="1228,-174.5 1228,-193.5 1380,-193.5 1380,-174.5 1228,-174.5"/>
<text text-anchor="middle" x="1304" y="-181.5" font-family="FreeSans" font-size="10.00">cantera/kinetics/GasKinetics.h</text>
</g>
<!-- Node25&#45;&gt;Node32 -->
<g id="edge76" class="edge"><title>Node25&#45;&gt;Node32</title>
<path fill="none" stroke="midnightblue" d="M788.106,-247.644C868.839,-240.521 1059.74,-222.668 1219,-200 1228.79,-198.606 1239.18,-196.934 1249.22,-195.22"/>
<polygon fill="midnightblue" stroke="midnightblue" points="1249.84,-198.664 1259.09,-193.5 1248.64,-191.768 1249.84,-198.664"/>
</g>
<!-- Node33 -->
<g id="node72" class="node"><title>Node33</title>
<polygon fill="white" stroke="#bfbfbf" points="316,-174.5 316,-193.5 420,-193.5 420,-174.5 316,-174.5"/>
<text text-anchor="middle" x="368" y="-181.5" font-family="FreeSans" font-size="10.00">cantera/base/ctml.h</text>
</g>
<!-- Node25&#45;&gt;Node33 -->
<g id="edge78" class="edge"><title>Node25&#45;&gt;Node33</title>
<path fill="none" stroke="midnightblue" d="M709.898,-245.836C649.412,-237.607 529.63,-220.355 429,-200 423.042,-198.795 416.788,-197.404 410.647,-195.964"/>
<polygon fill="midnightblue" stroke="midnightblue" points="411.036,-192.458 400.495,-193.521 409.398,-199.264 411.036,-192.458"/>
</g>
<!-- Node34&#45;&gt;Node21 -->
<g id="edge92" class="edge"><title>Node34&#45;&gt;Node21</title>
<path fill="none" stroke="midnightblue" d="M2258.11,-242.4C2265.03,-239.999 2272.75,-237.609 2280,-236 2424.46,-203.931 2468.76,-240.823 2611,-200 2613.19,-199.37 2615.42,-198.594 2617.63,-197.73"/>
<polygon fill="midnightblue" stroke="midnightblue" points="2619.26,-200.835 2626.96,-193.555 2616.4,-194.445 2619.26,-200.835"/>
</g>
<!-- Node35 -->
<g id="node78" class="node"><title>Node35</title>
<polygon fill="white" stroke="#bfbfbf" points="2682,-174.5 2682,-193.5 2774,-193.5 2774,-174.5 2682,-174.5"/>
<text text-anchor="middle" x="2728" y="-181.5" font-family="FreeSans" font-size="10.00">tbb/combinable.h</text>
</g>
<!-- Node34&#45;&gt;Node35 -->
<g id="edge86" class="edge"><title>Node34&#45;&gt;Node35</title>
<path fill="none" stroke="midnightblue" d="M2257.65,-242.482C2264.68,-240.025 2272.58,-237.582 2280,-236 2451.11,-199.517 2499.77,-230.745 2672,-200 2677.84,-198.958 2683.96,-197.6 2689.92,-196.128"/>
<polygon fill="midnightblue" stroke="midnightblue" points="2690.93,-199.482 2699.72,-193.577 2689.16,-192.708 2690.93,-199.482"/>
</g>
<!-- Node36 -->
<g id="node80" class="node"><title>Node36</title>
<polygon fill="white" stroke="#bfbfbf" points="2792.5,-169 2792.5,-199 2911.5,-199 2911.5,-169 2792.5,-169"/>
<text text-anchor="start" x="2800.5" y="-187" font-family="FreeSans" font-size="10.00">tbb/enumerable_thread</text>
<text text-anchor="middle" x="2852" y="-176" font-family="FreeSans" font-size="10.00">_specific.h</text>
</g>
<!-- Node34&#45;&gt;Node36 -->
<g id="edge88" class="edge"><title>Node34&#45;&gt;Node36</title>
<path fill="none" stroke="midnightblue" d="M2257.63,-242.393C2264.66,-239.93 2272.56,-237.507 2280,-236 2496.44,-192.125 2559.32,-230.721 2782.21,-199.952"/>
<polygon fill="midnightblue" stroke="midnightblue" points="2782.84,-203.398 2792.26,-198.534 2781.86,-196.466 2782.84,-203.398"/>
</g>
<!-- Node37 -->
<g id="node82" class="node"><title>Node37</title>
<polygon fill="white" stroke="#bfbfbf" points="2930,-174.5 2930,-193.5 2992,-193.5 2992,-174.5 2930,-174.5"/>
<text text-anchor="middle" x="2961" y="-181.5" font-family="FreeSans" font-size="10.00">sys/time.h</text>
</g>
<!-- Node34&#45;&gt;Node37 -->
<g id="edge90" class="edge"><title>Node34&#45;&gt;Node37</title>
<path fill="none" stroke="midnightblue" d="M2257.17,-242.482C2264.31,-239.961 2272.4,-237.481 2280,-236 2559.64,-181.532 2640.98,-257.565 2920,-200 2923.9,-199.196 2927.92,-198.091 2931.85,-196.842"/>
<polygon fill="midnightblue" stroke="midnightblue" points="2933.04,-200.135 2941.32,-193.531 2930.73,-193.528 2933.04,-200.135"/>
</g>
<!-- Node38&#45;&gt;Node2 -->
<g id="edge96" class="edge"><title>Node38&#45;&gt;Node2</title>
<path fill="none" stroke="midnightblue" d="M238.31,-174.403C247.268,-165.136 261.723,-150.183 272.739,-138.788"/>
<polygon fill="midnightblue" stroke="midnightblue" points="275.272,-141.203 279.705,-131.581 270.239,-136.338 275.272,-141.203"/>
</g>
<!-- Node38&#45;&gt;Node7 -->
<g id="edge98" class="edge"><title>Node38&#45;&gt;Node7</title>
<path fill="none" stroke="midnightblue" d="M224.428,-174.449C213.069,-156.717 186.967,-114.39 171,-76 164.651,-60.7345 159.544,-42.6265 156.23,-29.4053"/>
<polygon fill="midnightblue" stroke="midnightblue" points="159.618,-28.5251 153.881,-19.6184 152.812,-30.1592 159.618,-28.5251"/>
</g>
<!-- Node38&#45;&gt;Node8 -->
<g id="edge100" class="edge"><title>Node38&#45;&gt;Node8</title>
<path fill="none" stroke="midnightblue" d="M255.075,-174.47C317.269,-153.313 478.283,-98.5401 543.231,-76.4464"/>
<polygon fill="midnightblue" stroke="midnightblue" points="544.46,-79.7253 552.8,-73.1912 542.206,-73.0982 544.46,-79.7253"/>
</g>
</g>
</svg>
