<?xml version="1.0" encoding="UTF-8" standalone="no"?>
<!DOCTYPE svg PUBLIC "-//W3C//DTD SVG 1.1//EN"
 "http://www.w3.org/Graphics/SVG/1.1/DTD/svg11.dtd">
<!-- Generated by graphviz version 2.28.0 (20120425.2022)
 -->
<!-- Title: G Pages: 1 -->
<svg width="260pt" height="140pt"
 viewBox="0.00 0.00 260.00 140.00" xmlns="http://www.w3.org/2000/svg" xmlns:xlink="http://www.w3.org/1999/xlink">
<g id="graph1" class="graph" transform="scale(1 1) rotate(0) translate(4 136)">
<title>G</title>
<polygon fill="white" stroke="white" points="-4,5 -4,-136 257,-136 257,5 -4,5"/>
<!-- Node1 -->
<g id="node1" class="node"><title>Node1</title>
<polygon fill="#bfbfbf" stroke="black" points="71.5,-112.5 71.5,-131.5 194.5,-131.5 194.5,-112.5 71.5,-112.5"/>
<text text-anchor="middle" x="133" y="-119.5" font-family="FreeSans" font-size="10.00">src/convectionSystem.h</text>
</g>
<!-- Node2 -->
<g id="node3" class="node"><title>Node2</title>
<a xlink:href="convectionSystem_8cpp.html" target="_top" xlink:title="src/convectionSystem.cpp">
<polygon fill="white" stroke="black" points="0,-56.5 0,-75.5 134,-75.5 134,-56.5 0,-56.5"/>
<text text-anchor="middle" x="67" y="-63.5" font-family="FreeSans" font-size="10.00">src/convectionSystem.cpp</text>
</a>
</g>
<!-- Node1&#45;&gt;Node2 -->
<g id="edge2" class="edge"><title>Node1&#45;&gt;Node2</title>
<path fill="none" stroke="midnightblue" d="M114.446,-105.82C102.622,-96.1452 87.7144,-83.9481 77.797,-75.8339"/>
<polygon fill="midnightblue" stroke="midnightblue" points="112.44,-108.7 122.396,-112.324 116.873,-103.283 112.44,-108.7"/>
</g>
<!-- Node3 -->
<g id="node5" class="node"><title>Node3</title>
<a xlink:href="flameSolver_8h.html" target="_top" xlink:title="src/flameSolver.h">
<polygon fill="white" stroke="black" points="152.5,-56.5 152.5,-75.5 247.5,-75.5 247.5,-56.5 152.5,-56.5"/>
<text text-anchor="middle" x="200" y="-63.5" font-family="FreeSans" font-size="10.00">src/flameSolver.h</text>
</a>
</g>
<!-- Node1&#45;&gt;Node3 -->
<g id="edge4" class="edge"><title>Node1&#45;&gt;Node3</title>
<path fill="none" stroke="midnightblue" d="M151.835,-105.82C163.838,-96.1452 178.972,-83.9481 189.039,-75.8339"/>
<polygon fill="midnightblue" stroke="midnightblue" points="149.354,-103.324 143.765,-112.324 153.747,-108.774 149.354,-103.324"/>
</g>
<!-- Node4 -->
<g id="node7" class="node"><title>Node4</title>
<a xlink:href="flameSolver_8cpp.html" target="_top" xlink:title="src/flameSolver.cpp">
<polygon fill="white" stroke="black" points="147.5,-0.5 147.5,-19.5 252.5,-19.5 252.5,-0.5 147.5,-0.5"/>
<text text-anchor="middle" x="200" y="-7.5" font-family="FreeSans" font-size="10.00">src/flameSolver.cpp</text>
</a>
</g>
<!-- Node3&#45;&gt;Node4 -->
<g id="edge6" class="edge"><title>Node3&#45;&gt;Node4</title>
<path fill="none" stroke="midnightblue" d="M200,-45.8045C200,-36.9102 200,-26.7798 200,-19.7511"/>
<polygon fill="midnightblue" stroke="midnightblue" points="196.5,-46.083 200,-56.083 203.5,-46.083 196.5,-46.083"/>
</g>
</g>
</svg>
