<?xml version="1.0" encoding="UTF-8" standalone="no"?>
<!DOCTYPE svg PUBLIC "-//W3C//DTD SVG 1.1//EN"
 "http://www.w3.org/Graphics/SVG/1.1/DTD/svg11.dtd">
<!-- Generated by graphviz version 8.1.0 (20230707.2238)
 -->
<!-- Title: src/convectionSystem.cpp Pages: 1 -->
<svg width="3454pt" height="395pt"
 viewBox="0.00 0.00 3454.38 394.75" xmlns="http://www.w3.org/2000/svg" xmlns:xlink="http://www.w3.org/1999/xlink">
<g id="graph0" class="graph" transform="scale(1 1) rotate(0) translate(4 390.75)">
<title>src/convectionSystem.cpp</title>
<!-- Node1 -->
<g id="Node000001" class="node">
<title>Node1</title>
<g id="a_Node000001"><a xlink:title=" ">
<polygon fill="#999999" stroke="#666666" points="2018.75,-386.75 1875.25,-386.75 1875.25,-366 2018.75,-366 2018.75,-386.75"/>
<text text-anchor="middle" x="1947" y="-373.25" font-family="FreeSans" font-size="10.00">src/convectionSystem.cpp</text>
</a>
</g>
</g>
<!-- Node2 -->
<g id="Node000002" class="node">
<title>Node2</title>
<g id="a_Node000002"><a xlink:href="convectionSystem_8h.html" target="_top" xlink:title=" ">
<polygon fill="white" stroke="#666666" points="1858.5,-330 1743.5,-330 1743.5,-309.25 1858.5,-309.25 1858.5,-330"/>
<text text-anchor="middle" x="1801" y="-316.5" font-family="FreeSans" font-size="10.00">convectionSystem.h</text>
</a>
</g>
</g>
<!-- Node1&#45;&gt;Node2 -->
<g id="edge1_Node000001_Node000002" class="edge">
<title>Node1&#45;&gt;Node2</title>
<g id="a_edge1_Node000001_Node000002"><a xlink:title=" ">
<path fill="none" stroke="#63b8ff" d="M1920.9,-365.59C1897.54,-356.83 1863.08,-343.9 1837.09,-334.16"/>
<polygon fill="#63b8ff" stroke="#63b8ff" points="1838.47,-330.56 1827.88,-330.33 1836.01,-337.12 1838.47,-330.56"/>
</a>
</g>
</g>
<!-- Node10 -->
<g id="Node000010" class="node">
<title>Node10</title>
<g id="a_Node000010"><a xlink:href="debugUtils_8h.html" target="_top" xlink:title=" ">
<polygon fill="#fff0f0" stroke="red" points="1357.75,-77.5 1280.25,-77.5 1280.25,-56.75 1357.75,-56.75 1357.75,-77.5"/>
<text text-anchor="middle" x="1319" y="-64" font-family="FreeSans" font-size="10.00">debugUtils.h</text>
</a>
</g>
</g>
<!-- Node1&#45;&gt;Node10 -->
<g id="edge47_Node000001_Node000010" class="edge">
<title>Node1&#45;&gt;Node10</title>
<g id="a_edge47_Node000001_Node000010"><a xlink:title=" ">
<path fill="none" stroke="#63b8ff" d="M1874.81,-374.85C1522.45,-371.85 0,-353.32 0,-257.5 0,-257.5 0,-257.5 0,-192.38 0,-150.63 14.7,-134.11 51,-113.5 104.78,-82.97 1040.08,-71.09 1268.83,-68.63"/>
<polygon fill="#63b8ff" stroke="#63b8ff" points="1268.84,-72.12 1278.8,-68.51 1268.76,-65.12 1268.84,-72.12"/>
</a>
</g>
</g>
<!-- Node34 -->
<g id="Node000034" class="node">
<title>Node34</title>
<g id="a_Node000034"><a xlink:href="tbb__tools_8h.html" target="_top" xlink:title=" ">
<polygon fill="#fff0f0" stroke="red" points="2097,-203.75 2027,-203.75 2027,-183 2097,-183 2097,-203.75"/>
<text text-anchor="middle" x="2062" y="-190.25" font-family="FreeSans" font-size="10.00">tbb_tools.h</text>
</a>
</g>
</g>
<!-- Node1&#45;&gt;Node34 -->
<g id="edge59_Node000001_Node000034" class="edge">
<title>Node1&#45;&gt;Node34</title>
<g id="a_edge59_Node000001_Node000034"><a xlink:title=" ">
<path fill="none" stroke="#63b8ff" d="M1953.73,-365.62C1966.13,-347.58 1993.31,-307.67 2015,-273.25 2027.69,-253.12 2041.56,-229.64 2050.92,-213.57"/>
<polygon fill="#63b8ff" stroke="#63b8ff" points="2054.38,-215.59 2056.37,-205.18 2048.32,-212.08 2054.38,-215.59"/>
</a>
</g>
</g>
<!-- Node45 -->
<g id="Node000045" class="node">
<title>Node45</title>
<g id="a_Node000045"><a xlink:href="chemistry0d_8h.html" target="_top" xlink:title=" ">
<polygon fill="white" stroke="#666666" points="2590.88,-203.75 2505.12,-203.75 2505.12,-183 2590.88,-183 2590.88,-203.75"/>
<text text-anchor="middle" x="2548" y="-190.25" font-family="FreeSans" font-size="10.00">chemistry0d.h</text>
</a>
</g>
</g>
<!-- Node1&#45;&gt;Node45 -->
<g id="edge48_Node000001_Node000045" class="edge">
<title>Node1&#45;&gt;Node45</title>
<g id="a_edge48_Node000001_Node000045"><a xlink:title=" ">
<path fill="none" stroke="#63b8ff" d="M1979.74,-365.52C2081.18,-334.96 2390.31,-241.86 2504.78,-207.39"/>
<polygon fill="#63b8ff" stroke="#63b8ff" points="2505.67,-210.48 2514.23,-204.24 2503.65,-203.78 2505.67,-210.48"/>
</a>
</g>
</g>
<!-- Node3 -->
<g id="Node000003" class="node">
<title>Node3</title>
<g id="a_Node000003"><a xlink:href="mathUtils_8h.html" target="_top" xlink:title=" ">
<polygon fill="white" stroke="#666666" points="1910.5,-140.62 1837.5,-140.62 1837.5,-119.88 1910.5,-119.88 1910.5,-140.62"/>
<text text-anchor="middle" x="1874" y="-127.12" font-family="FreeSans" font-size="10.00">mathUtils.h</text>
</a>
</g>
</g>
<!-- Node2&#45;&gt;Node3 -->
<g id="edge2_Node000002_Node000003" class="edge">
<title>Node2&#45;&gt;Node3</title>
<g id="a_edge2_Node000002_Node000003"><a xlink:title=" ">
<path fill="none" stroke="#63b8ff" d="M1765.84,-308.85C1748.18,-301.96 1728.39,-290.77 1718,-273.25 1710.41,-260.44 1713.59,-253.97 1718,-239.75 1727.07,-210.52 1733.45,-202.54 1757,-183 1769.88,-172.31 1808.15,-156.27 1837.45,-144.88"/>
<polygon fill="#63b8ff" stroke="#63b8ff" points="1838.31,-147.92 1846.39,-141.07 1835.8,-141.39 1838.31,-147.92"/>
</a>
</g>
</g>
<!-- Node16 -->
<g id="Node000016" class="node">
<title>Node16</title>
<g id="a_Node000016"><a xlink:href="sundialsUtils_8h.html" target="_top" xlink:title=" ">
<polygon fill="white" stroke="#666666" points="1020,-203.75 932,-203.75 932,-183 1020,-183 1020,-203.75"/>
<text text-anchor="middle" x="976" y="-190.25" font-family="FreeSans" font-size="10.00">sundialsUtils.h</text>
</a>
</g>
</g>
<!-- Node2&#45;&gt;Node16 -->
<g id="edge14_Node000002_Node000016" class="edge">
<title>Node2&#45;&gt;Node16</title>
<g id="a_edge14_Node000002_Node000016"><a xlink:title=" ">
<path fill="none" stroke="#63b8ff" d="M1743.32,-309.94C1591.17,-287.02 1180.45,-225.17 1031.18,-202.69"/>
<polygon fill="#63b8ff" stroke="#63b8ff" points="1031.88,-199.1 1021.47,-201.07 1030.84,-206.02 1031.88,-199.1"/>
</a>
</g>
</g>
<!-- Node31 -->
<g id="Node000031" class="node">
<title>Node31</title>
<g id="a_Node000031"><a xlink:href="grid_8h.html" target="_top" xlink:title=" ">
<polygon fill="white" stroke="#666666" points="1860.88,-266.88 1817.12,-266.88 1817.12,-246.12 1860.88,-246.12 1860.88,-266.88"/>
<text text-anchor="middle" x="1839" y="-253.38" font-family="FreeSans" font-size="10.00">grid.h</text>
</a>
</g>
</g>
<!-- Node2&#45;&gt;Node31 -->
<g id="edge32_Node000002_Node000031" class="edge">
<title>Node2&#45;&gt;Node31</title>
<g id="a_edge32_Node000002_Node000031"><a xlink:title=" ">
<path fill="none" stroke="#63b8ff" d="M1807.11,-308.8C1812.57,-300.02 1820.72,-286.91 1827.41,-276.14"/>
<polygon fill="#63b8ff" stroke="#63b8ff" points="1830.73,-278.44 1833.04,-268.09 1824.78,-274.74 1830.73,-278.44"/>
</a>
</g>
</g>
<!-- Node33 -->
<g id="Node000033" class="node">
<title>Node33</title>
<g id="a_Node000033"><a xlink:href="perfTimer_8h.html" target="_top" xlink:title=" ">
<polygon fill="white" stroke="#666666" points="1799.12,-266.88 1726.88,-266.88 1726.88,-246.12 1799.12,-246.12 1799.12,-266.88"/>
<text text-anchor="middle" x="1763" y="-253.38" font-family="FreeSans" font-size="10.00">perfTimer.h</text>
</a>
</g>
</g>
<!-- Node2&#45;&gt;Node33 -->
<g id="edge36_Node000002_Node000033" class="edge">
<title>Node2&#45;&gt;Node33</title>
<g id="a_edge36_Node000002_Node000033"><a xlink:title=" ">
<path fill="none" stroke="#63b8ff" d="M1794.89,-308.8C1789.43,-300.02 1781.28,-286.91 1774.59,-276.14"/>
<polygon fill="#63b8ff" stroke="#63b8ff" points="1777.22,-274.74 1768.96,-268.09 1771.27,-278.44 1777.22,-274.74"/>
</a>
</g>
</g>
<!-- Node42 -->
<g id="Node000042" class="node">
<title>Node42</title>
<g id="a_Node000042"><a xlink:href="quasi2d_8h.html" target="_top" xlink:title=" ">
<polygon fill="white" stroke="#666666" points="2008.62,-203.75 1945.38,-203.75 1945.38,-183 2008.62,-183 2008.62,-203.75"/>
<text text-anchor="middle" x="1977" y="-190.25" font-family="FreeSans" font-size="10.00">quasi2d.h</text>
</a>
</g>
</g>
<!-- Node2&#45;&gt;Node42 -->
<g id="edge41_Node000002_Node000042" class="edge">
<title>Node2&#45;&gt;Node42</title>
<g id="a_edge41_Node000002_Node000042"><a xlink:title=" ">
<path fill="none" stroke="#63b8ff" d="M1858.9,-313.19C1910.64,-306.99 1980.84,-294.81 1998,-273.25 2011.72,-256.01 2001.03,-230.62 1990.52,-213.33"/>
<polygon fill="#63b8ff" stroke="#63b8ff" points="1992.95,-211.66 1984.53,-205.22 1987.09,-215.5 1992.95,-211.66"/>
</a>
</g>
</g>
<!-- Node43 -->
<g id="Node000043" class="node">
<title>Node43</title>
<g id="a_Node000043"><a xlink:href="scalarFunction_8h.html" target="_top" xlink:title=" ">
<polygon fill="white" stroke="#666666" points="1670.75,-266.88 1575.25,-266.88 1575.25,-246.12 1670.75,-246.12 1670.75,-266.88"/>
<text text-anchor="middle" x="1623" y="-253.38" font-family="FreeSans" font-size="10.00">scalarFunction.h</text>
</a>
</g>
</g>
<!-- Node2&#45;&gt;Node43 -->
<g id="edge44_Node000002_Node000043" class="edge">
<title>Node2&#45;&gt;Node43</title>
<g id="a_edge44_Node000002_Node000043"><a xlink:title=" ">
<path fill="none" stroke="#63b8ff" d="M1772.4,-308.8C1742.43,-298.51 1695.15,-282.28 1661.82,-270.83"/>
<polygon fill="#63b8ff" stroke="#63b8ff" points="1663.12,-267.23 1652.53,-267.3 1660.85,-273.85 1663.12,-267.23"/>
</a>
</g>
</g>
<!-- Node44 -->
<g id="Node000044" class="node">
<title>Node44</title>
<g id="a_Node000044"><a xlink:title=" ">
<polygon fill="#e0e0e0" stroke="#999999" points="1989.25,-273.25 1878.75,-273.25 1878.75,-239.75 1989.25,-239.75 1989.25,-273.25"/>
<text text-anchor="start" x="1886.75" y="-259.75" font-family="FreeSans" font-size="10.00">boost/ptr_container</text>
<text text-anchor="middle" x="1934" y="-247" font-family="FreeSans" font-size="10.00">/ptr_vector.hpp</text>
</a>
</g>
</g>
<!-- Node2&#45;&gt;Node44 -->
<g id="edge46_Node000002_Node000044" class="edge">
<title>Node2&#45;&gt;Node44</title>
<g id="a_edge46_Node000002_Node000044"><a xlink:title=" ">
<path fill="none" stroke="#63b8ff" d="M1822.37,-308.8C1840.28,-300.57 1866.46,-288.54 1888.96,-278.2"/>
<polygon fill="#63b8ff" stroke="#63b8ff" points="1890.05,-281.09 1897.67,-273.73 1887.13,-274.73 1890.05,-281.09"/>
</a>
</g>
</g>
<!-- Node4 -->
<g id="Node000004" class="node">
<title>Node4</title>
<g id="a_Node000004"><a xlink:title=" ">
<polygon fill="#e0e0e0" stroke="#999999" points="1422.38,-77.5 1375.62,-77.5 1375.62,-56.75 1422.38,-56.75 1422.38,-77.5"/>
<text text-anchor="middle" x="1399" y="-64" font-family="FreeSans" font-size="10.00">vector</text>
</a>
</g>
</g>
<!-- Node3&#45;&gt;Node4 -->
<g id="edge3_Node000003_Node000004" class="edge">
<title>Node3&#45;&gt;Node4</title>
<g id="a_edge3_Node000003_Node000004"><a xlink:title=" ">
<path fill="none" stroke="#63b8ff" d="M1849.56,-119.47C1842.98,-117.18 1835.79,-114.97 1829,-113.5 1659.24,-76.69 1608.18,-108.55 1433.27,-77.36"/>
<polygon fill="#63b8ff" stroke="#63b8ff" points="1434.13,-73.78 1423.67,-75.42 1432.87,-80.66 1434.13,-73.78"/>
</a>
</g>
</g>
<!-- Node5 -->
<g id="Node000005" class="node">
<title>Node5</title>
<g id="a_Node000005"><a xlink:title=" ">
<polygon fill="#e0e0e0" stroke="#999999" points="1669.38,-77.5 1622.62,-77.5 1622.62,-56.75 1669.38,-56.75 1669.38,-77.5"/>
<text text-anchor="middle" x="1646" y="-64" font-family="FreeSans" font-size="10.00">cmath</text>
</a>
</g>
</g>
<!-- Node3&#45;&gt;Node5 -->
<g id="edge4_Node000003_Node000005" class="edge">
<title>Node3&#45;&gt;Node5</title>
<g id="a_edge4_Node000003_Node000005"><a xlink:title=" ">
<path fill="none" stroke="#63b8ff" d="M1847.5,-119.47C1841.45,-117.38 1835.04,-115.27 1829,-113.5 1766.03,-95.03 1746.57,-95.14 1680.31,-78"/>
<polygon fill="#63b8ff" stroke="#63b8ff" points="1681.29,-74.38 1670.73,-75.22 1679.51,-81.15 1681.29,-74.38"/>
</a>
</g>
</g>
<!-- Node6 -->
<g id="Node000006" class="node">
<title>Node6</title>
<g id="a_Node000006"><a xlink:title=" ">
<polygon fill="#e0e0e0" stroke="#999999" points="1348.75,-20.75 1289.25,-20.75 1289.25,0 1348.75,0 1348.75,-20.75"/>
<text text-anchor="middle" x="1319" y="-7.25" font-family="FreeSans" font-size="10.00">iostream</text>
</a>
</g>
</g>
<!-- Node3&#45;&gt;Node6 -->
<g id="edge5_Node000003_Node000006" class="edge">
<title>Node3&#45;&gt;Node6</title>
<g id="a_edge5_Node000003_Node000006"><a xlink:title=" ">
<path fill="none" stroke="#63b8ff" d="M1848.53,-119.49C1842.21,-117.3 1835.41,-115.15 1829,-113.5 1735.16,-89.41 1705.57,-109.16 1614,-77.5 1595.81,-71.21 1594.16,-63.12 1576,-56.75 1502.31,-30.91 1411.35,-19.3 1359.78,-14.47"/>
<polygon fill="#63b8ff" stroke="#63b8ff" points="1360.36,-10.91 1350.09,-13.51 1359.74,-17.89 1360.36,-10.91"/>
</a>
</g>
</g>
<!-- Node7 -->
<g id="Node000007" class="node">
<title>Node7</title>
<g id="a_Node000007"><a xlink:title=" ">
<polygon fill="#e0e0e0" stroke="#999999" points="1742.88,-77.5 1687.12,-77.5 1687.12,-56.75 1742.88,-56.75 1742.88,-77.5"/>
<text text-anchor="middle" x="1715" y="-64" font-family="FreeSans" font-size="10.00">sstream</text>
</a>
</g>
</g>
<!-- Node3&#45;&gt;Node7 -->
<g id="edge6_Node000003_Node000007" class="edge">
<title>Node3&#45;&gt;Node7</title>
<g id="a_edge6_Node000003_Node000007"><a xlink:title=" ">
<path fill="none" stroke="#63b8ff" d="M1848.45,-119.43C1821.91,-109.23 1780.18,-93.18 1750.45,-81.75"/>
<polygon fill="#63b8ff" stroke="#63b8ff" points="1752.07,-78.24 1741.48,-77.92 1749.56,-84.78 1752.07,-78.24"/>
</a>
</g>
</g>
<!-- Node8 -->
<g id="Node000008" class="node">
<title>Node8</title>
<g id="a_Node000008"><a xlink:title=" ">
<polygon fill="#e0e0e0" stroke="#999999" points="1922.88,-20.75 1879.12,-20.75 1879.12,0 1922.88,0 1922.88,-20.75"/>
<text text-anchor="middle" x="1901" y="-7.25" font-family="FreeSans" font-size="10.00">string</text>
</a>
</g>
</g>
<!-- Node3&#45;&gt;Node8 -->
<g id="edge7_Node000003_Node000008" class="edge">
<title>Node3&#45;&gt;Node8</title>
<g id="a_edge7_Node000003_Node000008"><a xlink:title=" ">
<path fill="none" stroke="#63b8ff" d="M1876.21,-119.6C1880.6,-100.44 1890.5,-57.2 1896.38,-31.55"/>
<polygon fill="#63b8ff" stroke="#63b8ff" points="1899.94,-32.68 1898.76,-22.15 1893.12,-31.12 1899.94,-32.68"/>
</a>
</g>
</g>
<!-- Node9 -->
<g id="Node000009" class="node">
<title>Node9</title>
<g id="a_Node000009"><a xlink:title=" ">
<polygon fill="#e0e0e0" stroke="#999999" points="2004.88,-77.5 1967.12,-77.5 1967.12,-56.75 2004.88,-56.75 2004.88,-77.5"/>
<text text-anchor="middle" x="1986" y="-64" font-family="FreeSans" font-size="10.00">map</text>
</a>
</g>
</g>
<!-- Node3&#45;&gt;Node9 -->
<g id="edge8_Node000003_Node000009" class="edge">
<title>Node3&#45;&gt;Node9</title>
<g id="a_edge8_Node000003_Node000009"><a xlink:title=" ">
<path fill="none" stroke="#63b8ff" d="M1891.99,-119.43C1909.96,-109.63 1937.79,-94.43 1958.52,-83.12"/>
<polygon fill="#63b8ff" stroke="#63b8ff" points="1959.95,-85.78 1967.05,-77.92 1956.6,-79.64 1959.95,-85.78"/>
</a>
</g>
</g>
<!-- Node3&#45;&gt;Node10 -->
<g id="edge9_Node000003_Node000010" class="edge">
<title>Node3&#45;&gt;Node10</title>
<g id="a_edge9_Node000003_Node000010"><a xlink:title=" ">
<path fill="none" stroke="#63b8ff" d="M1849.57,-119.41C1842.99,-117.12 1835.8,-114.93 1829,-113.5 1630.89,-71.85 1573.04,-104.14 1369.01,-77.61"/>
<polygon fill="#63b8ff" stroke="#63b8ff" points="1369.61,-74.02 1359.23,-76.17 1368.68,-80.96 1369.61,-74.02"/>
</a>
</g>
</g>
<!-- Node14 -->
<g id="Node000014" class="node">
<title>Node14</title>
<g id="a_Node000014"><a xlink:title=" ">
<polygon fill="#e0e0e0" stroke="#999999" points="1567.12,-77.5 1440.88,-77.5 1440.88,-56.75 1567.12,-56.75 1567.12,-77.5"/>
<text text-anchor="middle" x="1504" y="-64" font-family="FreeSans" font-size="10.00">cantera/base/ct_defs.h</text>
</a>
</g>
</g>
<!-- Node3&#45;&gt;Node14 -->
<g id="edge12_Node000003_Node000014" class="edge">
<title>Node3&#45;&gt;Node14</title>
<g id="a_edge12_Node000003_Node000014"><a xlink:title=" ">
<path fill="none" stroke="#63b8ff" d="M1849.04,-119.53C1842.58,-117.29 1835.6,-115.1 1829,-113.5 1805.18,-107.73 1666.55,-89.22 1578.21,-77.7"/>
<polygon fill="#63b8ff" stroke="#63b8ff" points="1578.8,-74.11 1568.43,-76.29 1577.89,-81.06 1578.8,-74.11"/>
</a>
</g>
</g>
<!-- Node15 -->
<g id="Node000015" class="node">
<title>Node15</title>
<g id="a_Node000015"><a xlink:title=" ">
<polygon fill="#e0e0e0" stroke="#999999" points="1873.38,-77.5 1760.62,-77.5 1760.62,-56.75 1873.38,-56.75 1873.38,-77.5"/>
<text text-anchor="middle" x="1817" y="-64" font-family="FreeSans" font-size="10.00">eigen3/Eigen/Dense</text>
</a>
</g>
</g>
<!-- Node3&#45;&gt;Node15 -->
<g id="edge13_Node000003_Node000015" class="edge">
<title>Node3&#45;&gt;Node15</title>
<g id="a_edge13_Node000003_Node000015"><a xlink:title=" ">
<path fill="none" stroke="#63b8ff" d="M1864.84,-119.43C1856.32,-110.29 1843.42,-96.45 1833.16,-85.45"/>
<polygon fill="#63b8ff" stroke="#63b8ff" points="1836.33,-83.65 1826.95,-78.72 1831.21,-88.42 1836.33,-83.65"/>
</a>
</g>
</g>
<!-- Node10&#45;&gt;Node6 -->
<g id="edge11_Node000010_Node000006" class="edge">
<title>Node10&#45;&gt;Node6</title>
<g id="a_edge11_Node000010_Node000006"><a xlink:title=" ">
<path fill="none" stroke="#63b8ff" d="M1319,-56.34C1319,-49.56 1319,-40.3 1319,-31.94"/>
<polygon fill="#63b8ff" stroke="#63b8ff" points="1322.5,-32.08 1319,-22.08 1315.5,-32.08 1322.5,-32.08"/>
</a>
</g>
</g>
<!-- Node10&#45;&gt;Node8 -->
<g id="edge10_Node000010_Node000008" class="edge">
<title>Node10&#45;&gt;Node8</title>
<g id="a_edge10_Node000010_Node000008"><a xlink:title=" ">
<path fill="none" stroke="#63b8ff" d="M1358.23,-58.1C1361.19,-57.61 1364.14,-57.15 1367,-56.75 1555.56,-30.4 1783.86,-17.19 1867.9,-12.94"/>
<polygon fill="#63b8ff" stroke="#63b8ff" points="1867.96,-16.39 1877.78,-12.4 1867.62,-9.4 1867.96,-16.39"/>
</a>
</g>
</g>
<!-- Node16&#45;&gt;Node4 -->
<g id="edge30_Node000016_Node000004" class="edge">
<title>Node16&#45;&gt;Node4</title>
<g id="a_edge30_Node000016_Node000004"><a xlink:title=" ">
<path fill="none" stroke="#63b8ff" d="M931.72,-191.85C752.93,-189.53 92.29,-178.83 62,-147 51.74,-136.21 51.62,-124.17 62,-113.5 110.99,-63.14 1222.54,-87.16 1364.72,-76.88"/>
<polygon fill="#63b8ff" stroke="#63b8ff" points="1364.8,-80.29 1374.39,-75.78 1364.08,-73.33 1364.8,-80.29"/>
</a>
</g>
</g>
<!-- Node16&#45;&gt;Node6 -->
<g id="edge29_Node000016_Node000006" class="edge">
<title>Node16&#45;&gt;Node6</title>
<g id="a_edge29_Node000016_Node000006"><a xlink:title=" ">
<path fill="none" stroke="#63b8ff" d="M931.8,-191.88C751.76,-189.66 81.7,-179.24 51,-147 40.73,-136.22 40.9,-124.44 51,-113.5 136.11,-21.26 1069.85,-12.31 1278.02,-11.46"/>
<polygon fill="#63b8ff" stroke="#63b8ff" points="1277.78,-14.96 1287.76,-11.42 1277.75,-7.96 1277.78,-14.96"/>
</a>
</g>
</g>
<!-- Node16&#45;&gt;Node14 -->
<g id="edge21_Node000016_Node000014" class="edge">
<title>Node16&#45;&gt;Node14</title>
<g id="a_edge21_Node000016_Node000014"><a xlink:title=" ">
<path fill="none" stroke="#63b8ff" d="M931.55,-191.77C756.66,-189.15 124.07,-177.61 95,-147 84.75,-136.2 84.61,-124.17 95,-113.5 119.88,-87.94 1296.43,-80.91 1429.79,-77.1"/>
<polygon fill="#63b8ff" stroke="#63b8ff" points="1429.88,-80.55 1439.73,-76.65 1429.6,-73.56 1429.88,-80.55"/>
</a>
</g>
</g>
<!-- Node17 -->
<g id="Node000017" class="node">
<title>Node17</title>
<g id="a_Node000017"><a xlink:href="config_8h.html" target="_top" xlink:title=" ">
<polygon fill="white" stroke="#666666" points="2059.12,-140.62 2004.88,-140.62 2004.88,-119.88 2059.12,-119.88 2059.12,-140.62"/>
<text text-anchor="middle" x="2032" y="-127.12" font-family="FreeSans" font-size="10.00">config.h</text>
</a>
</g>
</g>
<!-- Node16&#45;&gt;Node17 -->
<g id="edge15_Node000016_Node000017" class="edge">
<title>Node16&#45;&gt;Node17</title>
<g id="a_edge15_Node000016_Node000017"><a xlink:title=" ">
<path fill="none" stroke="#63b8ff" d="M1020.34,-191.69C1155.55,-189.28 1574.5,-179.53 1920,-147 1944.64,-144.68 1972.16,-140.83 1993.76,-137.51"/>
<polygon fill="#63b8ff" stroke="#63b8ff" points="1994.13,-140.84 2003.47,-135.84 1993.05,-133.93 1994.13,-140.84"/>
</a>
</g>
</g>
<!-- Node18 -->
<g id="Node000018" class="node">
<title>Node18</title>
<g id="a_Node000018"><a xlink:title=" ">
<polygon fill="#e0e0e0" stroke="#999999" points="237.88,-140.62 104.12,-140.62 104.12,-119.88 237.88,-119.88 237.88,-140.62"/>
<text text-anchor="middle" x="171" y="-127.12" font-family="FreeSans" font-size="10.00">nvector/nvector_serial.h</text>
</a>
</g>
</g>
<!-- Node16&#45;&gt;Node18 -->
<g id="edge16_Node000016_Node000018" class="edge">
<title>Node16&#45;&gt;Node18</title>
<g id="a_edge16_Node000016_Node000018"><a xlink:title=" ">
<path fill="none" stroke="#63b8ff" d="M931.82,-191.81C817.89,-189.88 504.96,-181.58 247,-147 239.47,-145.99 231.56,-144.66 223.82,-143.2"/>
<polygon fill="#63b8ff" stroke="#63b8ff" points="224.52,-139.57 214.03,-141.07 223.16,-146.44 224.52,-139.57"/>
</a>
</g>
</g>
<!-- Node19 -->
<g id="Node000019" class="node">
<title>Node19</title>
<g id="a_Node000019"><a xlink:title=" ">
<polygon fill="#e0e0e0" stroke="#999999" points="399.75,-140.62 256.25,-140.62 256.25,-119.88 399.75,-119.88 399.75,-140.62"/>
<text text-anchor="middle" x="328" y="-127.12" font-family="FreeSans" font-size="10.00">sundials/sundials_dense.h</text>
</a>
</g>
</g>
<!-- Node16&#45;&gt;Node19 -->
<g id="edge17_Node000016_Node000019" class="edge">
<title>Node16&#45;&gt;Node19</title>
<g id="a_edge17_Node000016_Node000019"><a xlink:title=" ">
<path fill="none" stroke="#63b8ff" d="M931.71,-190.52C835.96,-186.15 602.73,-173.5 409,-147 401.01,-145.91 392.61,-144.53 384.37,-143.05"/>
<polygon fill="#63b8ff" stroke="#63b8ff" points="385.16,-139.45 374.69,-141.06 383.88,-146.33 385.16,-139.45"/>
</a>
</g>
</g>
<!-- Node20 -->
<g id="Node000020" class="node">
<title>Node20</title>
<g id="a_Node000020"><a xlink:title=" ">
<polygon fill="#e0e0e0" stroke="#999999" points="556.12,-140.62 417.88,-140.62 417.88,-119.88 556.12,-119.88 556.12,-140.62"/>
<text text-anchor="middle" x="487" y="-127.12" font-family="FreeSans" font-size="10.00">sundials/sundials_band.h</text>
</a>
</g>
</g>
<!-- Node16&#45;&gt;Node20 -->
<g id="edge18_Node000016_Node000020" class="edge">
<title>Node16&#45;&gt;Node20</title>
<g id="a_edge18_Node000016_Node000020"><a xlink:title=" ">
<path fill="none" stroke="#63b8ff" d="M931.73,-188.79C856.23,-182.39 697.82,-167.7 565,-147 557.85,-145.89 550.35,-144.57 542.96,-143.17"/>
<polygon fill="#63b8ff" stroke="#63b8ff" points="543.73,-139.57 533.25,-141.1 542.4,-146.44 543.73,-139.57"/>
</a>
</g>
</g>
<!-- Node21 -->
<g id="Node000021" class="node">
<title>Node21</title>
<g id="a_Node000021"><a xlink:title=" ">
<polygon fill="#e0e0e0" stroke="#999999" points="715.62,-140.62 574.38,-140.62 574.38,-119.88 715.62,-119.88 715.62,-140.62"/>
<text text-anchor="middle" x="645" y="-127.12" font-family="FreeSans" font-size="10.00">sundials/sundials_types.h</text>
</a>
</g>
</g>
<!-- Node16&#45;&gt;Node21 -->
<g id="edge19_Node000016_Node000021" class="edge">
<title>Node16&#45;&gt;Node21</title>
<g id="a_edge19_Node000016_Node000021"><a xlink:title=" ">
<path fill="none" stroke="#63b8ff" d="M931.53,-184.55C881.33,-175.67 797.23,-160.64 725,-147 718.52,-145.78 711.75,-144.48 705,-143.17"/>
<polygon fill="#63b8ff" stroke="#63b8ff" points="705.97,-139.59 695.48,-141.12 704.63,-146.47 705.97,-139.59"/>
</a>
</g>
</g>
<!-- Node22 -->
<g id="Node000022" class="node">
<title>Node22</title>
<g id="a_Node000022"><a xlink:title=" ">
<polygon fill="#e0e0e0" stroke="#999999" points="820.25,-140.62 733.75,-140.62 733.75,-119.88 820.25,-119.88 820.25,-140.62"/>
<text text-anchor="middle" x="777" y="-127.12" font-family="FreeSans" font-size="10.00">cvode/cvode.h</text>
</a>
</g>
</g>
<!-- Node16&#45;&gt;Node22 -->
<g id="edge20_Node000016_Node000022" class="edge">
<title>Node16&#45;&gt;Node22</title>
<g id="a_edge20_Node000016_Node000022"><a xlink:title=" ">
<path fill="none" stroke="#63b8ff" d="M944.03,-182.55C910.08,-172.13 856.29,-155.6 818.96,-144.14"/>
<polygon fill="#63b8ff" stroke="#63b8ff" points="820.48,-140.64 809.89,-141.05 818.42,-147.33 820.48,-140.64"/>
</a>
</g>
</g>
<!-- Node23 -->
<g id="Node000023" class="node">
<title>Node23</title>
<g id="a_Node000023"><a xlink:title=" ">
<polygon fill="#e0e0e0" stroke="#999999" points="968,-140.62 838,-140.62 838,-119.88 968,-119.88 968,-140.62"/>
<text text-anchor="middle" x="903" y="-127.12" font-family="FreeSans" font-size="10.00">cvodes/cvodes_direct.h</text>
</a>
</g>
</g>
<!-- Node16&#45;&gt;Node23 -->
<g id="edge22_Node000016_Node000023" class="edge">
<title>Node16&#45;&gt;Node23</title>
<g id="a_edge22_Node000016_Node000023"><a xlink:title=" ">
<path fill="none" stroke="#63b8ff" d="M964.27,-182.55C953.03,-173.14 935.85,-158.76 922.55,-147.62"/>
<polygon fill="#63b8ff" stroke="#63b8ff" points="925.37,-144.58 915.46,-140.84 920.88,-149.95 925.37,-144.58"/>
</a>
</g>
</g>
<!-- Node24 -->
<g id="Node000024" class="node">
<title>Node24</title>
<g id="a_Node000024"><a xlink:title=" ">
<polygon fill="#e0e0e0" stroke="#999999" points="1110.38,-140.62 985.62,-140.62 985.62,-119.88 1110.38,-119.88 1110.38,-140.62"/>
<text text-anchor="middle" x="1048" y="-127.12" font-family="FreeSans" font-size="10.00">cvodes/cvodes_spils.h</text>
</a>
</g>
</g>
<!-- Node16&#45;&gt;Node24 -->
<g id="edge23_Node000016_Node000024" class="edge">
<title>Node16&#45;&gt;Node24</title>
<g id="a_edge23_Node000016_Node000024"><a xlink:title=" ">
<path fill="none" stroke="#63b8ff" d="M987.57,-182.55C998.55,-173.23 1015.27,-159.03 1028.35,-147.94"/>
<polygon fill="#63b8ff" stroke="#63b8ff" points="1030.34,-149.98 1035.7,-140.84 1025.81,-144.65 1030.34,-149.98"/>
</a>
</g>
</g>
<!-- Node25 -->
<g id="Node000025" class="node">
<title>Node25</title>
<g id="a_Node000025"><a xlink:title=" ">
<polygon fill="#e0e0e0" stroke="#999999" points="1234,-147 1128,-147 1128,-113.5 1234,-113.5 1234,-147"/>
<text text-anchor="start" x="1136" y="-133.5" font-family="FreeSans" font-size="10.00">sunlinsol/sunlinsol</text>
<text text-anchor="middle" x="1181" y="-120.75" font-family="FreeSans" font-size="10.00">_dense.h</text>
</a>
</g>
</g>
<!-- Node16&#45;&gt;Node25 -->
<g id="edge24_Node000016_Node000025" class="edge">
<title>Node16&#45;&gt;Node25</title>
<g id="a_edge24_Node000016_Node000025"><a xlink:title=" ">
<path fill="none" stroke="#63b8ff" d="M1008.94,-182.55C1038.09,-173.86 1081.46,-160.93 1117.36,-150.23"/>
<polygon fill="#63b8ff" stroke="#63b8ff" points="1118.17,-153.34 1126.75,-147.13 1116.17,-146.63 1118.17,-153.34"/>
</a>
</g>
</g>
<!-- Node26 -->
<g id="Node000026" class="node">
<title>Node26</title>
<g id="a_Node000026"><a xlink:title=" ">
<polygon fill="#e0e0e0" stroke="#999999" points="1358,-147 1252,-147 1252,-113.5 1358,-113.5 1358,-147"/>
<text text-anchor="start" x="1260" y="-133.5" font-family="FreeSans" font-size="10.00">sunlinsol/sunlinsol</text>
<text text-anchor="middle" x="1305" y="-120.75" font-family="FreeSans" font-size="10.00">_band.h</text>
</a>
</g>
</g>
<!-- Node16&#45;&gt;Node26 -->
<g id="edge25_Node000016_Node000026" class="edge">
<title>Node16&#45;&gt;Node26</title>
<g id="a_edge25_Node000016_Node000026"><a xlink:title=" ">
<path fill="none" stroke="#63b8ff" d="M1020.14,-185.99C1071.08,-178.37 1157.57,-164.68 1240.95,-147.34"/>
<polygon fill="#63b8ff" stroke="#63b8ff" points="1241.56,-150.58 1250.63,-145.1 1240.12,-143.73 1241.56,-150.58"/>
</a>
</g>
</g>
<!-- Node27 -->
<g id="Node000027" class="node">
<title>Node27</title>
<g id="a_Node000027"><a xlink:title=" ">
<polygon fill="#e0e0e0" stroke="#999999" points="1482,-147 1376,-147 1376,-113.5 1482,-113.5 1482,-147"/>
<text text-anchor="start" x="1384" y="-133.5" font-family="FreeSans" font-size="10.00">sunlinsol/sunlinsol</text>
<text text-anchor="middle" x="1429" y="-120.75" font-family="FreeSans" font-size="10.00">_spgmr.h</text>
</a>
</g>
</g>
<!-- Node16&#45;&gt;Node27 -->
<g id="edge26_Node000016_Node000027" class="edge">
<title>Node16&#45;&gt;Node27</title>
<g id="a_edge26_Node000016_Node000027"><a xlink:title=" ">
<path fill="none" stroke="#63b8ff" d="M1020.26,-189.17C1091.12,-183.62 1234.51,-170.67 1365.09,-147.21"/>
<polygon fill="#63b8ff" stroke="#63b8ff" points="1365.46,-150.52 1374.67,-145.28 1364.2,-143.63 1365.46,-150.52"/>
</a>
</g>
</g>
<!-- Node28 -->
<g id="Node000028" class="node">
<title>Node28</title>
<g id="a_Node000028"><a xlink:title=" ">
<polygon fill="#e0e0e0" stroke="#999999" points="1618,-147 1500,-147 1500,-113.5 1618,-113.5 1618,-147"/>
<text text-anchor="start" x="1508" y="-133.5" font-family="FreeSans" font-size="10.00">sunmatrix/sunmatrix</text>
<text text-anchor="middle" x="1559" y="-120.75" font-family="FreeSans" font-size="10.00">_dense.h</text>
</a>
</g>
</g>
<!-- Node16&#45;&gt;Node28 -->
<g id="edge27_Node000016_Node000028" class="edge">
<title>Node16&#45;&gt;Node28</title>
<g id="a_edge27_Node000016_Node000028"><a xlink:title=" ">
<path fill="none" stroke="#63b8ff" d="M1020.34,-190.56C1108.07,-186.51 1310.06,-174.96 1489.09,-147.17"/>
<polygon fill="#63b8ff" stroke="#63b8ff" points="1489.42,-150.5 1498.76,-145.49 1488.33,-143.58 1489.42,-150.5"/>
</a>
</g>
</g>
<!-- Node29 -->
<g id="Node000029" class="node">
<title>Node29</title>
<g id="a_Node000029"><a xlink:title=" ">
<polygon fill="#e0e0e0" stroke="#999999" points="1754,-147 1636,-147 1636,-113.5 1754,-113.5 1754,-147"/>
<text text-anchor="start" x="1644" y="-133.5" font-family="FreeSans" font-size="10.00">sunmatrix/sunmatrix</text>
<text text-anchor="middle" x="1695" y="-120.75" font-family="FreeSans" font-size="10.00">_band.h</text>
</a>
</g>
</g>
<!-- Node16&#45;&gt;Node29 -->
<g id="edge28_Node000016_Node000029" class="edge">
<title>Node16&#45;&gt;Node29</title>
<g id="a_edge28_Node000016_Node000029"><a xlink:title=" ">
<path fill="none" stroke="#63b8ff" d="M1020.47,-191.69C1124.59,-189.58 1392.4,-181.14 1625.07,-147.14"/>
<polygon fill="#63b8ff" stroke="#63b8ff" points="1625.39,-150.48 1634.77,-145.55 1624.36,-143.55 1625.39,-150.48"/>
</a>
</g>
</g>
<!-- Node30 -->
<g id="Node000030" class="node">
<title>Node30</title>
<g id="a_Node000030"><a xlink:title=" ">
<polygon fill="#e0e0e0" stroke="#999999" points="1819.75,-140.62 1772.25,-140.62 1772.25,-119.88 1819.75,-119.88 1819.75,-140.62"/>
<text text-anchor="middle" x="1796" y="-127.12" font-family="FreeSans" font-size="10.00">time.h</text>
</a>
</g>
</g>
<!-- Node16&#45;&gt;Node30 -->
<g id="edge31_Node000016_Node000030" class="edge">
<title>Node16&#45;&gt;Node30</title>
<g id="a_edge31_Node000016_Node000030"><a xlink:title=" ">
<path fill="none" stroke="#63b8ff" d="M1020.38,-192.06C1164.92,-190.69 1620.92,-183.5 1763,-147 1764.98,-146.49 1766.99,-145.86 1768.98,-145.15"/>
<polygon fill="#63b8ff" stroke="#63b8ff" points="1769.81,-148.17 1777.67,-141.06 1767.09,-141.72 1769.81,-148.17"/>
</a>
</g>
</g>
<!-- Node32 -->
<g id="Node000032" class="node">
<title>Node32</title>
<g id="a_Node000032"><a xlink:href="readConfig_8h.html" target="_top" xlink:title=" ">
<polygon fill="white" stroke="#666666" points="1927.75,-203.75 1850.25,-203.75 1850.25,-183 1927.75,-183 1927.75,-203.75"/>
<text text-anchor="middle" x="1889" y="-190.25" font-family="FreeSans" font-size="10.00">readConfig.h</text>
</a>
</g>
</g>
<!-- Node31&#45;&gt;Node32 -->
<g id="edge33_Node000031_Node000032" class="edge">
<title>Node31&#45;&gt;Node32</title>
<g id="a_edge33_Node000031_Node000032"><a xlink:title=" ">
<path fill="none" stroke="#63b8ff" d="M1847.03,-245.68C1854.37,-236.72 1865.39,-223.24 1874.29,-212.35"/>
<polygon fill="#63b8ff" stroke="#63b8ff" points="1877.53,-214.93 1881.15,-204.97 1872.11,-210.49 1877.53,-214.93"/>
</a>
</g>
</g>
<!-- Node32&#45;&gt;Node3 -->
<g id="edge34_Node000032_Node000003" class="edge">
<title>Node32&#45;&gt;Node3</title>
<g id="a_edge34_Node000032_Node000003"><a xlink:title=" ">
<path fill="none" stroke="#63b8ff" d="M1886.59,-182.55C1884.52,-174.13 1881.48,-161.72 1878.9,-151.22"/>
<polygon fill="#63b8ff" stroke="#63b8ff" points="1882.14,-150.72 1876.35,-141.84 1875.34,-152.39 1882.14,-150.72"/>
</a>
</g>
</g>
<!-- Node32&#45;&gt;Node8 -->
<g id="edge35_Node000032_Node000008" class="edge">
<title>Node32&#45;&gt;Node8</title>
<g id="a_edge35_Node000032_Node000008"><a xlink:title=" ">
<path fill="none" stroke="#63b8ff" d="M1898.37,-182.51C1905.86,-173.9 1915.78,-160.67 1920,-147 1932.34,-107.05 1918.76,-57.98 1909.05,-31.18"/>
<polygon fill="#63b8ff" stroke="#63b8ff" points="1912.05,-30.23 1905.21,-22.14 1905.51,-32.73 1912.05,-30.23"/>
</a>
</g>
</g>
<!-- Node33&#45;&gt;Node30 -->
<g id="edge40_Node000033_Node000030" class="edge">
<title>Node33&#45;&gt;Node30</title>
<g id="a_edge40_Node000033_Node000030"><a xlink:title=" ">
<path fill="none" stroke="#63b8ff" d="M1759.82,-245.82C1755.68,-231.64 1749.79,-204.56 1757,-183 1761.27,-170.23 1770.08,-158.08 1778.25,-148.77"/>
<polygon fill="#63b8ff" stroke="#63b8ff" points="1780.44,-151.48 1784.71,-141.78 1775.32,-146.7 1780.44,-151.48"/>
</a>
</g>
</g>
<!-- Node33&#45;&gt;Node34 -->
<g id="edge37_Node000033_Node000034" class="edge">
<title>Node33&#45;&gt;Node34</title>
<g id="a_edge37_Node000033_Node000034"><a xlink:title=" ">
<path fill="none" stroke="#63b8ff" d="M1788.47,-245.76C1794.79,-243.57 1801.59,-241.41 1808,-239.75 1896.36,-216.88 1923.09,-221.25 2016.2,-204.01"/>
<polygon fill="#63b8ff" stroke="#63b8ff" points="2016.79,-207.27 2025.96,-201.97 2015.49,-200.39 2016.79,-207.27"/>
</a>
</g>
</g>
<!-- Node41 -->
<g id="Node000041" class="node">
<title>Node41</title>
<g id="a_Node000041"><a xlink:title=" ">
<polygon fill="#e0e0e0" stroke="#999999" points="1832.5,-203.75 1765.5,-203.75 1765.5,-183 1832.5,-183 1832.5,-203.75"/>
<text text-anchor="middle" x="1799" y="-190.25" font-family="FreeSans" font-size="10.00">sys/time.h</text>
</a>
</g>
</g>
<!-- Node33&#45;&gt;Node41 -->
<g id="edge39_Node000033_Node000041" class="edge">
<title>Node33&#45;&gt;Node41</title>
<g id="a_edge39_Node000033_Node000041"><a xlink:title=" ">
<path fill="none" stroke="#63b8ff" d="M1768.78,-245.68C1773.91,-236.98 1781.52,-224.05 1787.83,-213.34"/>
<polygon fill="#63b8ff" stroke="#63b8ff" points="1791.29,-215.36 1793.35,-204.97 1785.26,-211.81 1791.29,-215.36"/>
</a>
</g>
</g>
<!-- Node34&#45;&gt;Node17 -->
<g id="edge38_Node000034_Node000017" class="edge">
<title>Node34&#45;&gt;Node17</title>
<g id="a_edge38_Node000034_Node000017"><a xlink:title=" ">
<path fill="none" stroke="#63b8ff" d="M2057.18,-182.55C2052.96,-173.95 2046.69,-161.19 2041.47,-150.55"/>
<polygon fill="#63b8ff" stroke="#63b8ff" points="2044.26,-149.28 2036.71,-141.84 2037.97,-152.36 2044.26,-149.28"/>
</a>
</g>
</g>
<!-- Node42&#45;&gt;Node3 -->
<g id="edge42_Node000042_Node000003" class="edge">
<title>Node42&#45;&gt;Node3</title>
<g id="a_edge42_Node000042_Node000003"><a xlink:title=" ">
<path fill="none" stroke="#63b8ff" d="M1960.45,-182.55C1944.08,-172.84 1918.8,-157.83 1899.79,-146.56"/>
<polygon fill="#63b8ff" stroke="#63b8ff" points="1901.89,-143.14 1891.51,-141.05 1898.32,-149.16 1901.89,-143.14"/>
</a>
</g>
</g>
<!-- Node42&#45;&gt;Node9 -->
<g id="edge43_Node000042_Node000009" class="edge">
<title>Node42&#45;&gt;Node9</title>
<g id="a_edge43_Node000042_Node000009"><a xlink:title=" ">
<path fill="none" stroke="#63b8ff" d="M1977.71,-182.63C1979.17,-162.48 1982.54,-115.9 1984.51,-88.76"/>
<polygon fill="#63b8ff" stroke="#63b8ff" points="1988.07,-89.06 1985.3,-78.83 1981.08,-88.55 1988.07,-89.06"/>
</a>
</g>
</g>
<!-- Node43&#45;&gt;Node3 -->
<g id="edge45_Node000043_Node000003" class="edge">
<title>Node43&#45;&gt;Node3</title>
<g id="a_edge45_Node000043_Node000003"><a xlink:title=" ">
<path fill="none" stroke="#63b8ff" d="M1628.5,-245.84C1637.95,-230.14 1658.81,-199.21 1685,-183 1741.1,-148.29 1765.8,-165.92 1829,-147 1831.64,-146.21 1834.35,-145.36 1837.07,-144.48"/>
<polygon fill="#63b8ff" stroke="#63b8ff" points="1838.12,-147.48 1846.48,-140.98 1835.89,-140.85 1838.12,-147.48"/>
</a>
</g>
</g>
<!-- Node45&#45;&gt;Node3 -->
<g id="edge50_Node000045_Node000003" class="edge">
<title>Node45&#45;&gt;Node3</title>
<g id="a_edge50_Node000045_Node000003"><a xlink:title=" ">
<path fill="none" stroke="#63b8ff" d="M2504.64,-189.5C2411.43,-183.16 2185.1,-166.97 1996,-147 1971.36,-144.4 1944,-140.92 1921.44,-137.89"/>
<polygon fill="#63b8ff" stroke="#63b8ff" points="1922.16,-134.32 1911.79,-136.45 1921.22,-141.26 1922.16,-134.32"/>
</a>
</g>
</g>
<!-- Node45&#45;&gt;Node17 -->
<g id="edge49_Node000045_Node000017" class="edge">
<title>Node45&#45;&gt;Node17</title>
<g id="a_edge49_Node000045_Node000017"><a xlink:title=" ">
<path fill="none" stroke="#63b8ff" d="M2504.63,-192.69C2419.66,-192.35 2225.87,-186.8 2069,-147 2066.69,-146.41 2064.34,-145.7 2062,-144.91"/>
<polygon fill="#63b8ff" stroke="#63b8ff" points="2063.56,-141.38 2052.97,-141.07 2061.05,-147.92 2063.56,-141.38"/>
</a>
</g>
</g>
<!-- Node46 -->
<g id="Node000046" class="node">
<title>Node46</title>
<g id="a_Node000046"><a xlink:title=" ">
<polygon fill="#e0e0e0" stroke="#999999" points="2252.5,-140.62 2077.5,-140.62 2077.5,-119.88 2252.5,-119.88 2252.5,-140.62"/>
<text text-anchor="middle" x="2165" y="-127.12" font-family="FreeSans" font-size="10.00">cantera/transport/MixTransport.h</text>
</a>
</g>
</g>
<!-- Node45&#45;&gt;Node46 -->
<g id="edge51_Node000045_Node000046" class="edge">
<title>Node45&#45;&gt;Node46</title>
<g id="a_edge51_Node000045_Node000046"><a xlink:title=" ">
<path fill="none" stroke="#63b8ff" d="M2504.71,-185.61C2448.52,-176.81 2347.41,-160.92 2261,-147 2252.73,-145.67 2244.07,-144.26 2235.47,-142.86"/>
<polygon fill="#63b8ff" stroke="#63b8ff" points="2236.08,-139.25 2225.65,-141.09 2234.96,-146.16 2236.08,-139.25"/>
</a>
</g>
</g>
<!-- Node47 -->
<g id="Node000047" class="node">
<title>Node47</title>
<g id="a_Node000047"><a xlink:title=" ">
<polygon fill="#e0e0e0" stroke="#999999" points="2451.88,-140.62 2270.12,-140.62 2270.12,-119.88 2451.88,-119.88 2451.88,-140.62"/>
<text text-anchor="middle" x="2361" y="-127.12" font-family="FreeSans" font-size="10.00">cantera/transport/MultiTransport.h</text>
</a>
</g>
</g>
<!-- Node45&#45;&gt;Node47 -->
<g id="edge52_Node000045_Node000047" class="edge">
<title>Node45&#45;&gt;Node47</title>
<g id="a_edge52_Node000045_Node000047"><a xlink:title=" ">
<path fill="none" stroke="#63b8ff" d="M2517.96,-182.55C2486.33,-172.22 2436.37,-155.89 2401.33,-144.43"/>
<polygon fill="#63b8ff" stroke="#63b8ff" points="2402.56,-140.83 2391.97,-141.05 2400.39,-147.48 2402.56,-140.83"/>
</a>
</g>
</g>
<!-- Node48 -->
<g id="Node000048" class="node">
<title>Node48</title>
<g id="a_Node000048"><a xlink:title=" ">
<polygon fill="#e0e0e0" stroke="#999999" points="2626.5,-147 2469.5,-147 2469.5,-113.5 2626.5,-113.5 2626.5,-147"/>
<text text-anchor="start" x="2477.5" y="-133.5" font-family="FreeSans" font-size="10.00">cantera/transport/UnityLewis</text>
<text text-anchor="middle" x="2548" y="-120.75" font-family="FreeSans" font-size="10.00">Transport.h</text>
</a>
</g>
</g>
<!-- Node45&#45;&gt;Node48 -->
<g id="edge53_Node000045_Node000048" class="edge">
<title>Node45&#45;&gt;Node48</title>
<g id="a_edge53_Node000045_Node000048"><a xlink:title=" ">
<path fill="none" stroke="#63b8ff" d="M2548,-182.55C2548,-175.98 2548,-166.99 2548,-158.37"/>
<polygon fill="#63b8ff" stroke="#63b8ff" points="2551.5,-158.48 2548,-148.48 2544.5,-158.48 2551.5,-158.48"/>
</a>
</g>
</g>
<!-- Node49 -->
<g id="Node000049" class="node">
<title>Node49</title>
<g id="a_Node000049"><a xlink:title=" ">
<polygon fill="#e0e0e0" stroke="#999999" points="2811.38,-140.62 2644.62,-140.62 2644.62,-119.88 2811.38,-119.88 2811.38,-140.62"/>
<text text-anchor="middle" x="2728" y="-127.12" font-family="FreeSans" font-size="10.00">cantera/kinetics/BulkKinetics.h</text>
</a>
</g>
</g>
<!-- Node45&#45;&gt;Node49 -->
<g id="edge54_Node000045_Node000049" class="edge">
<title>Node45&#45;&gt;Node49</title>
<g id="a_edge54_Node000045_Node000049"><a xlink:title=" ">
<path fill="none" stroke="#63b8ff" d="M2576.92,-182.55C2607.23,-172.26 2655.04,-156.03 2688.74,-144.58"/>
<polygon fill="#63b8ff" stroke="#63b8ff" points="2689.81,-147.58 2698.15,-141.05 2687.56,-140.95 2689.81,-147.58"/>
</a>
</g>
</g>
<!-- Node50 -->
<g id="Node000050" class="node">
<title>Node50</title>
<g id="a_Node000050"><a xlink:title=" ">
<polygon fill="#e0e0e0" stroke="#999999" points="2968.88,-147 2829.12,-147 2829.12,-113.5 2968.88,-113.5 2968.88,-147"/>
<text text-anchor="start" x="2837.12" y="-133.5" font-family="FreeSans" font-size="10.00">cantera/kinetics/Reaction</text>
<text text-anchor="middle" x="2899" y="-120.75" font-family="FreeSans" font-size="10.00">Rate.h</text>
</a>
</g>
</g>
<!-- Node45&#45;&gt;Node50 -->
<g id="edge55_Node000045_Node000050" class="edge">
<title>Node45&#45;&gt;Node50</title>
<g id="a_edge55_Node000045_Node000050"><a xlink:title=" ">
<path fill="none" stroke="#63b8ff" d="M2590.94,-185.64C2642.46,-177.46 2731.72,-163 2818.03,-147.33"/>
<polygon fill="#63b8ff" stroke="#63b8ff" points="2818.6,-150.6 2827.81,-145.36 2817.34,-143.71 2818.6,-150.6"/>
</a>
</g>
</g>
<!-- Node51 -->
<g id="Node000051" class="node">
<title>Node51</title>
<g id="a_Node000051"><a xlink:title=" ">
<polygon fill="#e0e0e0" stroke="#999999" points="3126.88,-147 2987.12,-147 2987.12,-113.5 3126.88,-113.5 3126.88,-147"/>
<text text-anchor="start" x="2995.12" y="-133.5" font-family="FreeSans" font-size="10.00">cantera/kinetics/Reaction</text>
<text text-anchor="middle" x="3057" y="-120.75" font-family="FreeSans" font-size="10.00">Data.h</text>
</a>
</g>
</g>
<!-- Node45&#45;&gt;Node51 -->
<g id="edge56_Node000045_Node000051" class="edge">
<title>Node45&#45;&gt;Node51</title>
<g id="a_edge56_Node000045_Node000051"><a xlink:title=" ">
<path fill="none" stroke="#63b8ff" d="M2591.2,-189.14C2667.05,-183.16 2829.34,-169.1 2976.29,-147.18"/>
<polygon fill="#63b8ff" stroke="#63b8ff" points="2976.48,-150.54 2985.85,-145.58 2975.44,-143.61 2976.48,-150.54"/>
</a>
</g>
</g>
<!-- Node52 -->
<g id="Node000052" class="node">
<title>Node52</title>
<g id="a_Node000052"><a xlink:title=" ">
<polygon fill="#e0e0e0" stroke="#999999" points="3297.25,-140.62 3144.75,-140.62 3144.75,-119.88 3297.25,-119.88 3297.25,-140.62"/>
<text text-anchor="middle" x="3221" y="-127.12" font-family="FreeSans" font-size="10.00">cantera/kinetics/Arrhenius.h</text>
</a>
</g>
</g>
<!-- Node45&#45;&gt;Node52 -->
<g id="edge57_Node000045_Node000052" class="edge">
<title>Node45&#45;&gt;Node52</title>
<g id="a_edge57_Node000045_Node000052"><a xlink:title=" ">
<path fill="none" stroke="#63b8ff" d="M2591.32,-190.61C2688.89,-186.29 2933.21,-173.54 3136,-147 3144.57,-145.88 3153.58,-144.46 3162.41,-142.95"/>
<polygon fill="#63b8ff" stroke="#63b8ff" points="3162.81,-146.25 3172.04,-141.06 3161.58,-139.36 3162.81,-146.25"/>
</a>
</g>
</g>
<!-- Node53 -->
<g id="Node000053" class="node">
<title>Node53</title>
<g id="a_Node000053"><a xlink:title=" ">
<polygon fill="#e0e0e0" stroke="#999999" points="3446.38,-140.62 3315.62,-140.62 3315.62,-119.88 3446.38,-119.88 3446.38,-140.62"/>
<text text-anchor="middle" x="3381" y="-127.12" font-family="FreeSans" font-size="10.00">cantera/base/Solution.h</text>
</a>
</g>
</g>
<!-- Node45&#45;&gt;Node53 -->
<g id="edge58_Node000045_Node000053" class="edge">
<title>Node45&#45;&gt;Node53</title>
<g id="a_edge58_Node000045_Node000053"><a xlink:title=" ">
<path fill="none" stroke="#63b8ff" d="M2591.37,-192.01C2707.66,-190.54 3035.86,-183.25 3306,-147 3313.44,-146 3321.24,-144.68 3328.89,-143.22"/>
<polygon fill="#63b8ff" stroke="#63b8ff" points="3329.41,-146.49 3338.53,-141.09 3328.04,-139.62 3329.41,-146.49"/>
</a>
</g>
</g>
</g>
</svg>
