<?xml version="1.0" encoding="UTF-8" standalone="no"?>
<!DOCTYPE svg PUBLIC "-//W3C//DTD SVG 1.1//EN"
 "http://www.w3.org/Graphics/SVG/1.1/DTD/svg11.dtd">
<!-- Generated by graphviz version 2.36.0 (20140111.2315)
 -->
<!-- Title: src/convectionSystem.cpp Pages: 1 -->
<svg width="2513pt" height="376pt"
 viewBox="0.00 0.00 2512.53 376.00" xmlns="http://www.w3.org/2000/svg" xmlns:xlink="http://www.w3.org/1999/xlink">
<g id="graph0" class="graph" transform="scale(1 1) rotate(0) translate(4 372)">
<title>src/convectionSystem.cpp</title>
<polygon fill="white" stroke="none" points="-4,4 -4,-372 2508.53,-372 2508.53,4 -4,4"/>
<!-- Node1 -->
<g id="node1" class="node"><title>Node1</title>
<polygon fill="#bfbfbf" stroke="black" points="1220.03,-348.5 1220.03,-367.5 1349.03,-367.5 1349.03,-348.5 1220.03,-348.5"/>
<text text-anchor="middle" x="1284.53" y="-355.5" font-family="FreeSans" font-size="10.00">src/convectionSystem.cpp</text>
</g>
<!-- Node2 -->
<g id="node2" class="node"><title>Node2</title>
<g id="a_node2"><a xlink:href="convectionSystem_8h.html" target="_top" xlink:title="convectionSystem.h">
<polygon fill="white" stroke="black" points="1135.03,-292.5 1135.03,-311.5 1238.03,-311.5 1238.03,-292.5 1135.03,-292.5"/>
<text text-anchor="middle" x="1186.53" y="-299.5" font-family="FreeSans" font-size="10.00">convectionSystem.h</text>
</a>
</g>
</g>
<!-- Node1&#45;&gt;Node2 -->
<g id="edge1" class="edge"><title>Node1&#45;&gt;Node2</title>
<path fill="none" stroke="midnightblue" d="M1268.79,-348.324C1253.22,-339.743 1229.16,-326.486 1211.08,-316.522"/>
<polygon fill="midnightblue" stroke="midnightblue" points="1212.69,-313.415 1202.24,-311.655 1209.31,-319.546 1212.69,-313.415"/>
</g>
<!-- Node10 -->
<g id="node10" class="node"><title>Node10</title>
<g id="a_node10"><a xlink:href="debugUtils_8h.html" target="_top" xlink:title="debugUtils.h">
<polygon fill="white" stroke="red" points="1003.03,-56.5 1003.03,-75.5 1072.03,-75.5 1072.03,-56.5 1003.03,-56.5"/>
<text text-anchor="middle" x="1037.53" y="-63.5" font-family="FreeSans" font-size="10.00">debugUtils.h</text>
</a>
</g>
</g>
<!-- Node1&#45;&gt;Node10 -->
<g id="edge41" class="edge"><title>Node1&#45;&gt;Node10</title>
<path fill="none" stroke="midnightblue" d="M1286.78,-348.436C1295.3,-313.713 1322.12,-181.946 1258.53,-112 1257.04,-110.354 1146.24,-88.3573 1082.12,-75.7401"/>
<polygon fill="midnightblue" stroke="midnightblue" points="1082.74,-72.2952 1072.25,-73.8002 1081.39,-79.1637 1082.74,-72.2952"/>
</g>
<!-- Node27 -->
<g id="node27" class="node"><title>Node27</title>
<g id="a_node27"><a xlink:href="tbb__tools_8h.html" target="_top" xlink:title="tbb_tools.h">
<polygon fill="white" stroke="red" points="882.034,-168.5 882.034,-187.5 945.034,-187.5 945.034,-168.5 882.034,-168.5"/>
<text text-anchor="middle" x="913.534" y="-175.5" font-family="FreeSans" font-size="10.00">tbb_tools.h</text>
</a>
</g>
</g>
<!-- Node1&#45;&gt;Node27 -->
<g id="edge53" class="edge"><title>Node1&#45;&gt;Node27</title>
<path fill="none" stroke="midnightblue" d="M1219.85,-349.419C1121.11,-336.366 940.147,-306.115 901.534,-256 888.542,-239.137 896.053,-213.915 903.773,-196.98"/>
<polygon fill="midnightblue" stroke="midnightblue" points="907.092,-198.165 908.424,-187.655 900.829,-195.041 907.092,-198.165"/>
</g>
<!-- Node32 -->
<g id="node32" class="node"><title>Node32</title>
<g id="a_node32"><a xlink:href="chemistry0d_8h.html" target="_top" xlink:title="chemistry0d.h">
<polygon fill="white" stroke="black" points="1741.53,-168.5 1741.53,-187.5 1817.53,-187.5 1817.53,-168.5 1741.53,-168.5"/>
<text text-anchor="middle" x="1779.53" y="-175.5" font-family="FreeSans" font-size="10.00">chemistry0d.h</text>
</a>
</g>
</g>
<!-- Node1&#45;&gt;Node32 -->
<g id="edge42" class="edge"><title>Node1&#45;&gt;Node32</title>
<path fill="none" stroke="midnightblue" d="M1303.78,-348.293C1332.74,-335.326 1389.37,-310.489 1438.53,-292 1547.14,-251.158 1677.99,-209.998 1741.39,-190.553"/>
<polygon fill="midnightblue" stroke="midnightblue" points="1742.44,-193.893 1750.98,-187.622 1740.39,-187.2 1742.44,-193.893"/>
</g>
<!-- Node41 -->
<g id="node41" class="node"><title>Node41</title>
<polygon fill="white" stroke="#bfbfbf" points="1447.03,-292.5 1447.03,-311.5 1540.03,-311.5 1540.03,-292.5 1447.03,-292.5"/>
<text text-anchor="middle" x="1493.53" y="-299.5" font-family="FreeSans" font-size="10.00">boost/foreach.hpp</text>
</g>
<!-- Node1&#45;&gt;Node41 -->
<g id="edge54" class="edge"><title>Node1&#45;&gt;Node41</title>
<path fill="none" stroke="midnightblue" d="M1317.65,-348.444C1353.65,-339.142 1411.3,-324.246 1450.72,-314.062"/>
<polygon fill="midnightblue" stroke="midnightblue" points="1451.77,-317.407 1460.57,-311.516 1450.01,-310.629 1451.77,-317.407"/>
</g>
<!-- Node3 -->
<g id="node3" class="node"><title>Node3</title>
<g id="a_node3"><a xlink:href="mathUtils_8h.html" target="_top" xlink:title="mathUtils.h">
<polygon fill="white" stroke="black" points="1309.03,-112.5 1309.03,-131.5 1374.03,-131.5 1374.03,-112.5 1309.03,-112.5"/>
<text text-anchor="middle" x="1341.53" y="-119.5" font-family="FreeSans" font-size="10.00">mathUtils.h</text>
</a>
</g>
</g>
<!-- Node2&#45;&gt;Node3 -->
<g id="edge2" class="edge"><title>Node2&#45;&gt;Node3</title>
<path fill="none" stroke="midnightblue" d="M1194.24,-292.404C1202.32,-283.371 1215.37,-268.733 1226.53,-256 1263.08,-214.32 1305.64,-164.85 1327.3,-139.614"/>
<polygon fill="midnightblue" stroke="midnightblue" points="1330.19,-141.619 1334.04,-131.75 1324.87,-137.062 1330.19,-141.619"/>
</g>
<!-- Node12 -->
<g id="node12" class="node"><title>Node12</title>
<g id="a_node12"><a xlink:href="sundialsUtils_8h.html" target="_top" xlink:title="sundialsUtils.h">
<polygon fill="white" stroke="black" points="674.034,-168.5 674.034,-187.5 751.034,-187.5 751.034,-168.5 674.034,-168.5"/>
<text text-anchor="middle" x="712.534" y="-175.5" font-family="FreeSans" font-size="10.00">sundialsUtils.h</text>
</a>
</g>
</g>
<!-- Node2&#45;&gt;Node12 -->
<g id="edge13" class="edge"><title>Node2&#45;&gt;Node12</title>
<path fill="none" stroke="midnightblue" d="M1134.81,-296.447C1077.11,-290.54 981.395,-278.252 901.534,-256 841.634,-239.31 775.038,-209.316 739.078,-192.102"/>
<polygon fill="midnightblue" stroke="midnightblue" points="740.305,-188.808 729.778,-187.608 737.259,-195.111 740.305,-188.808"/>
</g>
<!-- Node24 -->
<g id="node24" class="node"><title>Node24</title>
<g id="a_node24"><a xlink:href="grid_8h.html" target="_top" xlink:title="grid.h">
<polygon fill="white" stroke="black" points="1350.53,-230.5 1350.53,-249.5 1390.53,-249.5 1390.53,-230.5 1350.53,-230.5"/>
<text text-anchor="middle" x="1370.53" y="-237.5" font-family="FreeSans" font-size="10.00">grid.h</text>
</a>
</g>
</g>
<!-- Node2&#45;&gt;Node24 -->
<g id="edge27" class="edge"><title>Node2&#45;&gt;Node24</title>
<path fill="none" stroke="midnightblue" d="M1219.1,-292.486C1249.75,-284.18 1296.74,-270.682 1336.53,-256 1338.65,-255.22 1340.82,-254.373 1342.99,-253.493"/>
<polygon fill="midnightblue" stroke="midnightblue" points="1344.52,-256.648 1352.35,-249.518 1341.78,-250.204 1344.52,-256.648"/>
</g>
<!-- Node26 -->
<g id="node26" class="node"><title>Node26</title>
<g id="a_node26"><a xlink:href="perfTimer_8h.html" target="_top" xlink:title="perfTimer.h">
<polygon fill="white" stroke="black" points="911.034,-230.5 911.034,-249.5 976.034,-249.5 976.034,-230.5 911.034,-230.5"/>
<text text-anchor="middle" x="943.534" y="-237.5" font-family="FreeSans" font-size="10.00">perfTimer.h</text>
</a>
</g>
</g>
<!-- Node2&#45;&gt;Node26 -->
<g id="edge31" class="edge"><title>Node2&#45;&gt;Node26</title>
<path fill="none" stroke="midnightblue" d="M1141.03,-292.472C1100.02,-284.395 1038.26,-271.256 985.534,-256 982.336,-255.075 979.027,-254.037 975.735,-252.951"/>
<polygon fill="midnightblue" stroke="midnightblue" points="976.632,-249.558 966.037,-249.611 974.352,-256.176 976.632,-249.558"/>
</g>
<!-- Node29 -->
<g id="node29" class="node"><title>Node29</title>
<g id="a_node29"><a xlink:href="quasi2d_8h.html" target="_top" xlink:title="quasi2d.h">
<polygon fill="white" stroke="black" points="1313.03,-168.5 1313.03,-187.5 1370.03,-187.5 1370.03,-168.5 1313.03,-168.5"/>
<text text-anchor="middle" x="1341.53" y="-175.5" font-family="FreeSans" font-size="10.00">quasi2d.h</text>
</a>
</g>
</g>
<!-- Node2&#45;&gt;Node29 -->
<g id="edge36" class="edge"><title>Node2&#45;&gt;Node29</title>
<path fill="none" stroke="midnightblue" d="M1202.76,-292.452C1218.2,-284.022 1241.79,-270.347 1260.53,-256 1285.2,-237.122 1310.69,-211.742 1326.33,-195.375"/>
<polygon fill="midnightblue" stroke="midnightblue" points="1329.24,-197.395 1333.56,-187.72 1324.15,-192.591 1329.24,-197.395"/>
</g>
<!-- Node30 -->
<g id="node30" class="node"><title>Node30</title>
<polygon fill="white" stroke="#bfbfbf" points="994.534,-230.5 994.534,-249.5 1100.53,-249.5 1100.53,-230.5 994.534,-230.5"/>
<text text-anchor="middle" x="1047.53" y="-237.5" font-family="FreeSans" font-size="10.00">boost/shared_ptr.hpp</text>
</g>
<!-- Node2&#45;&gt;Node30 -->
<g id="edge39" class="edge"><title>Node2&#45;&gt;Node30</title>
<path fill="none" stroke="midnightblue" d="M1166.62,-292.403C1143.09,-282.245 1103.72,-265.255 1076.74,-253.607"/>
<polygon fill="midnightblue" stroke="midnightblue" points="1077.98,-250.33 1067.41,-249.581 1075.21,-256.757 1077.98,-250.33"/>
</g>
<!-- Node31 -->
<g id="node31" class="node"><title>Node31</title>
<polygon fill="white" stroke="#bfbfbf" points="1119.03,-225 1119.03,-255 1218.03,-255 1218.03,-225 1119.03,-225"/>
<text text-anchor="start" x="1127.03" y="-243" font-family="FreeSans" font-size="10.00">boost/ptr_container</text>
<text text-anchor="middle" x="1168.53" y="-232" font-family="FreeSans" font-size="10.00">/ptr_vector.hpp</text>
</g>
<!-- Node2&#45;&gt;Node31 -->
<g id="edge40" class="edge"><title>Node2&#45;&gt;Node31</title>
<path fill="none" stroke="midnightblue" d="M1183.96,-292.403C1181.79,-285.189 1178.59,-274.528 1175.67,-264.782"/>
<polygon fill="midnightblue" stroke="midnightblue" points="1179,-263.713 1172.78,-255.141 1172.3,-265.725 1179,-263.713"/>
</g>
<!-- Node4 -->
<g id="node4" class="node"><title>Node4</title>
<polygon fill="white" stroke="#bfbfbf" points="942.034,-56.5 942.034,-75.5 985.034,-75.5 985.034,-56.5 942.034,-56.5"/>
<text text-anchor="middle" x="963.534" y="-63.5" font-family="FreeSans" font-size="10.00">vector</text>
</g>
<!-- Node3&#45;&gt;Node4 -->
<g id="edge3" class="edge"><title>Node3&#45;&gt;Node4</title>
<path fill="none" stroke="midnightblue" d="M1308.82,-117.459C1237.59,-109.644 1069.51,-90.5969 994.938,-75.9498"/>
<polygon fill="midnightblue" stroke="midnightblue" points="995.556,-72.5037 985.056,-73.9138 994.144,-79.3597 995.556,-72.5037"/>
</g>
<!-- Node5 -->
<g id="node5" class="node"><title>Node5</title>
<polygon fill="white" stroke="#bfbfbf" points="1218.53,-56.5 1218.53,-75.5 1262.53,-75.5 1262.53,-56.5 1218.53,-56.5"/>
<text text-anchor="middle" x="1240.53" y="-63.5" font-family="FreeSans" font-size="10.00">cmath</text>
</g>
<!-- Node3&#45;&gt;Node5 -->
<g id="edge4" class="edge"><title>Node3&#45;&gt;Node5</title>
<path fill="none" stroke="midnightblue" d="M1325.31,-112.324C1309.18,-103.703 1284.23,-90.3643 1265.57,-80.3855"/>
<polygon fill="midnightblue" stroke="midnightblue" points="1267.19,-77.283 1256.72,-75.6545 1263.89,-83.456 1267.19,-77.283"/>
</g>
<!-- Node6 -->
<g id="node6" class="node"><title>Node6</title>
<polygon fill="white" stroke="#bfbfbf" points="1011.03,-0.5 1011.03,-19.5 1064.03,-19.5 1064.03,-0.5 1011.03,-0.5"/>
<text text-anchor="middle" x="1037.53" y="-7.5" font-family="FreeSans" font-size="10.00">iostream</text>
</g>
<!-- Node3&#45;&gt;Node6 -->
<g id="edge5" class="edge"><title>Node3&#45;&gt;Node6</title>
<path fill="none" stroke="midnightblue" d="M1308.6,-114.529C1247.83,-102.561 1123.84,-77.9996 1119.53,-76 1093.44,-63.8712 1068.25,-41.8685 1052.83,-26.8531"/>
<polygon fill="midnightblue" stroke="midnightblue" points="1055.25,-24.3237 1045.7,-19.7272 1050.3,-29.2733 1055.25,-24.3237"/>
</g>
<!-- Node7 -->
<g id="node7" class="node"><title>Node7</title>
<polygon fill="white" stroke="#bfbfbf" points="1280.53,-56.5 1280.53,-75.5 1330.53,-75.5 1330.53,-56.5 1280.53,-56.5"/>
<text text-anchor="middle" x="1305.53" y="-63.5" font-family="FreeSans" font-size="10.00">sstream</text>
</g>
<!-- Node3&#45;&gt;Node7 -->
<g id="edge6" class="edge"><title>Node3&#45;&gt;Node7</title>
<path fill="none" stroke="midnightblue" d="M1335.59,-112.083C1330.56,-104.534 1323.2,-93.4948 1317.02,-84.2298"/>
<polygon fill="midnightblue" stroke="midnightblue" points="1319.83,-82.1301 1311.37,-75.7511 1314,-86.0131 1319.83,-82.1301"/>
</g>
<!-- Node8 -->
<g id="node8" class="node"><title>Node8</title>
<polygon fill="white" stroke="#bfbfbf" points="1338.53,-0.5 1338.53,-19.5 1378.53,-19.5 1378.53,-0.5 1338.53,-0.5"/>
<text text-anchor="middle" x="1358.53" y="-7.5" font-family="FreeSans" font-size="10.00">string</text>
</g>
<!-- Node3&#45;&gt;Node8 -->
<g id="edge7" class="edge"><title>Node3&#45;&gt;Node8</title>
<path fill="none" stroke="midnightblue" d="M1342.87,-112.368C1345.61,-94.617 1351.94,-53.6664 1355.66,-29.5974"/>
<polygon fill="midnightblue" stroke="midnightblue" points="1359.14,-30.0087 1357.21,-19.5914 1352.22,-28.9395 1359.14,-30.0087"/>
</g>
<!-- Node9 -->
<g id="node9" class="node"><title>Node9</title>
<polygon fill="white" stroke="#bfbfbf" points="1387.03,-56.5 1387.03,-75.5 1422.03,-75.5 1422.03,-56.5 1387.03,-56.5"/>
<text text-anchor="middle" x="1404.53" y="-63.5" font-family="FreeSans" font-size="10.00">map</text>
</g>
<!-- Node3&#45;&gt;Node9 -->
<g id="edge8" class="edge"><title>Node3&#45;&gt;Node9</title>
<path fill="none" stroke="midnightblue" d="M1351.66,-112.324C1361.06,-104.263 1375.28,-92.0765 1386.6,-82.3695"/>
<polygon fill="midnightblue" stroke="midnightblue" points="1388.91,-84.9993 1394.23,-75.8339 1384.36,-79.6844 1388.91,-84.9993"/>
</g>
<!-- Node3&#45;&gt;Node10 -->
<g id="edge9" class="edge"><title>Node3&#45;&gt;Node10</title>
<path fill="none" stroke="midnightblue" d="M1308.93,-114.679C1304.11,-113.766 1299.19,-112.849 1294.53,-112 1202.24,-95.177 1178.9,-92.4745 1086.53,-76 1085.07,-75.739 1083.58,-75.4724 1082.08,-75.2022"/>
<polygon fill="midnightblue" stroke="midnightblue" points="1082.52,-71.7256 1072.06,-73.3874 1081.28,-78.6135 1082.52,-71.7256"/>
</g>
<!-- Node11 -->
<g id="node11" class="node"><title>Node11</title>
<polygon fill="white" stroke="#bfbfbf" points="1129.03,-56.5 1129.03,-75.5 1200.03,-75.5 1200.03,-56.5 1129.03,-56.5"/>
<text text-anchor="middle" x="1164.53" y="-63.5" font-family="FreeSans" font-size="10.00">Eigen/Dense</text>
</g>
<!-- Node3&#45;&gt;Node11 -->
<g id="edge12" class="edge"><title>Node3&#45;&gt;Node11</title>
<path fill="none" stroke="midnightblue" d="M1313.49,-112.444C1283.45,-103.28 1235.62,-88.6876 1202.29,-78.5192"/>
<polygon fill="midnightblue" stroke="midnightblue" points="1203.04,-75.0869 1192.45,-75.5164 1200.99,-81.7822 1203.04,-75.0869"/>
</g>
<!-- Node10&#45;&gt;Node6 -->
<g id="edge11" class="edge"><title>Node10&#45;&gt;Node6</title>
<path fill="none" stroke="midnightblue" d="M1037.53,-56.083C1037.53,-49.0059 1037.53,-38.8611 1037.53,-29.9865"/>
<polygon fill="midnightblue" stroke="midnightblue" points="1041.03,-29.751 1037.53,-19.7511 1034.03,-29.7511 1041.03,-29.751"/>
</g>
<!-- Node10&#45;&gt;Node8 -->
<g id="edge10" class="edge"><title>Node10&#45;&gt;Node8</title>
<path fill="none" stroke="midnightblue" d="M1072.19,-59.1697C1135.51,-48.5187 1268.84,-26.0889 1328.53,-16.0473"/>
<polygon fill="midnightblue" stroke="midnightblue" points="1329.17,-19.4883 1338.46,-14.3778 1328.01,-12.5853 1329.17,-19.4883"/>
</g>
<!-- Node12&#45;&gt;Node4 -->
<g id="edge24" class="edge"><title>Node12&#45;&gt;Node4</title>
<path fill="none" stroke="midnightblue" d="M751.331,-174.388C810.091,-169.648 917.766,-157.647 945.534,-132 958.284,-120.224 962.304,-100.295 963.429,-85.6015"/>
<polygon fill="midnightblue" stroke="midnightblue" points="966.926,-85.7371 963.822,-75.6074 959.932,-85.4622 966.926,-85.7371"/>
</g>
<!-- Node12&#45;&gt;Node6 -->
<g id="edge23" class="edge"><title>Node12&#45;&gt;Node6</title>
<path fill="none" stroke="midnightblue" d="M673.887,-175.992C529.337,-172.039 27.6069,-156.586 4.53433,-132 -1.54845,-125.518 -1.43742,-118.584 4.53433,-112 72.8982,-36.626 824.879,-15.6314 1000.85,-11.735"/>
<polygon fill="midnightblue" stroke="midnightblue" points="1000.98,-15.2331 1010.9,-11.5173 1000.83,-8.23474 1000.98,-15.2331"/>
</g>
<!-- Node13 -->
<g id="node13" class="node"><title>Node13</title>
<polygon fill="white" stroke="#bfbfbf" points="818.534,-112.5 818.534,-131.5 936.534,-131.5 936.534,-112.5 818.534,-112.5"/>
<text text-anchor="middle" x="877.534" y="-119.5" font-family="FreeSans" font-size="10.00">nvector/nvector_serial.h</text>
</g>
<!-- Node12&#45;&gt;Node13 -->
<g id="edge14" class="edge"><title>Node12&#45;&gt;Node13</title>
<path fill="none" stroke="midnightblue" d="M738.679,-168.444C766.558,-159.32 810.883,-144.813 841.934,-134.651"/>
<polygon fill="midnightblue" stroke="midnightblue" points="843.097,-137.953 851.512,-131.516 840.919,-131.3 843.097,-137.953"/>
</g>
<!-- Node14 -->
<g id="node14" class="node"><title>Node14</title>
<polygon fill="white" stroke="#bfbfbf" points="993.034,-112.5 993.034,-131.5 1120.03,-131.5 1120.03,-112.5 993.034,-112.5"/>
<text text-anchor="middle" x="1056.53" y="-119.5" font-family="FreeSans" font-size="10.00">sundials/sundials_dense.h</text>
</g>
<!-- Node12&#45;&gt;Node14 -->
<g id="edge15" class="edge"><title>Node12&#45;&gt;Node14</title>
<path fill="none" stroke="midnightblue" d="M751.327,-170.91C809.86,-161.722 921.423,-144.209 992.235,-133.094"/>
<polygon fill="midnightblue" stroke="midnightblue" points="993.039,-136.51 1002.38,-131.502 991.954,-129.595 993.039,-136.51"/>
</g>
<!-- Node15 -->
<g id="node15" class="node"><title>Node15</title>
<polygon fill="white" stroke="#bfbfbf" points="13.5343,-112.5 13.5343,-131.5 135.534,-131.5 135.534,-112.5 13.5343,-112.5"/>
<text text-anchor="middle" x="74.5343" y="-119.5" font-family="FreeSans" font-size="10.00">sundials/sundials_band.h</text>
</g>
<!-- Node12&#45;&gt;Node15 -->
<g id="edge16" class="edge"><title>Node12&#45;&gt;Node15</title>
<path fill="none" stroke="midnightblue" d="M673.907,-174.593C583.51,-168.819 350.94,-153.153 145.66,-132.069"/>
<polygon fill="midnightblue" stroke="midnightblue" points="145.904,-128.576 135.597,-131.029 145.184,-135.539 145.904,-128.576"/>
</g>
<!-- Node16 -->
<g id="node16" class="node"><title>Node16</title>
<polygon fill="white" stroke="#bfbfbf" points="153.534,-112.5 153.534,-131.5 277.534,-131.5 277.534,-112.5 153.534,-112.5"/>
<text text-anchor="middle" x="215.534" y="-119.5" font-family="FreeSans" font-size="10.00">sundials/sundials_types.h</text>
</g>
<!-- Node12&#45;&gt;Node16 -->
<g id="edge17" class="edge"><title>Node12&#45;&gt;Node16</title>
<path fill="none" stroke="midnightblue" d="M674.029,-173.204C600.954,-165.941 436.882,-149.354 288.094,-132.161"/>
<polygon fill="midnightblue" stroke="midnightblue" points="288.2,-128.65 277.863,-130.975 287.394,-135.604 288.2,-128.65"/>
</g>
<!-- Node17 -->
<g id="node17" class="node"><title>Node17</title>
<polygon fill="white" stroke="#bfbfbf" points="295.534,-112.5 295.534,-131.5 373.534,-131.5 373.534,-112.5 295.534,-112.5"/>
<text text-anchor="middle" x="334.534" y="-119.5" font-family="FreeSans" font-size="10.00">cvode/cvode.h</text>
</g>
<!-- Node12&#45;&gt;Node17 -->
<g id="edge18" class="edge"><title>Node12&#45;&gt;Node17</title>
<path fill="none" stroke="midnightblue" d="M673.83,-172.357C613.899,-165.029 494.803,-149.916 383.585,-132.102"/>
<polygon fill="midnightblue" stroke="midnightblue" points="383.968,-128.618 373.539,-130.481 382.854,-135.529 383.968,-128.618"/>
</g>
<!-- Node18 -->
<g id="node18" class="node"><title>Node18</title>
<polygon fill="white" stroke="#bfbfbf" points="392.034,-112.5 392.034,-131.5 501.034,-131.5 501.034,-112.5 392.034,-112.5"/>
<text text-anchor="middle" x="446.534" y="-119.5" font-family="FreeSans" font-size="10.00">cvode/cvode_dense.h</text>
</g>
<!-- Node12&#45;&gt;Node18 -->
<g id="edge19" class="edge"><title>Node12&#45;&gt;Node18</title>
<path fill="none" stroke="midnightblue" d="M673.856,-169.148C627.657,-159.769 550.175,-144.04 498.707,-133.591"/>
<polygon fill="midnightblue" stroke="midnightblue" points="499.273,-130.135 488.777,-131.576 497.881,-136.995 499.273,-130.135"/>
</g>
<!-- Node19 -->
<g id="node19" class="node"><title>Node19</title>
<polygon fill="white" stroke="#bfbfbf" points="519.534,-112.5 519.534,-131.5 623.534,-131.5 623.534,-112.5 519.534,-112.5"/>
<text text-anchor="middle" x="571.534" y="-119.5" font-family="FreeSans" font-size="10.00">cvode/cvode_band.h</text>
</g>
<!-- Node12&#45;&gt;Node19 -->
<g id="edge20" class="edge"><title>Node12&#45;&gt;Node19</title>
<path fill="none" stroke="midnightblue" d="M690.192,-168.444C666.781,-159.478 629.799,-145.314 603.345,-135.183"/>
<polygon fill="midnightblue" stroke="midnightblue" points="604.362,-131.824 593.772,-131.516 601.858,-138.361 604.362,-131.824"/>
</g>
<!-- Node20 -->
<g id="node20" class="node"><title>Node20</title>
<polygon fill="white" stroke="#bfbfbf" points="642.034,-112.5 642.034,-131.5 695.034,-131.5 695.034,-112.5 642.034,-112.5"/>
<text text-anchor="middle" x="668.534" y="-119.5" font-family="FreeSans" font-size="10.00">ida/ida.h</text>
</g>
<!-- Node12&#45;&gt;Node20 -->
<g id="edge21" class="edge"><title>Node12&#45;&gt;Node20</title>
<path fill="none" stroke="midnightblue" d="M705.269,-168.083C698.989,-160.377 689.747,-149.033 682.103,-139.653"/>
<polygon fill="midnightblue" stroke="midnightblue" points="684.695,-137.293 675.665,-131.751 679.268,-141.714 684.695,-137.293"/>
</g>
<!-- Node21 -->
<g id="node21" class="node"><title>Node21</title>
<polygon fill="white" stroke="#bfbfbf" points="712.534,-112.5 712.534,-131.5 800.534,-131.5 800.534,-112.5 712.534,-112.5"/>
<text text-anchor="middle" x="756.534" y="-119.5" font-family="FreeSans" font-size="10.00">ida/ida_spbcgs.h</text>
</g>
<!-- Node12&#45;&gt;Node21 -->
<g id="edge22" class="edge"><title>Node12&#45;&gt;Node21</title>
<path fill="none" stroke="midnightblue" d="M719.8,-168.083C726.079,-160.377 735.322,-149.033 742.965,-139.653"/>
<polygon fill="midnightblue" stroke="midnightblue" points="745.8,-141.714 749.404,-131.751 740.374,-137.293 745.8,-141.714"/>
</g>
<!-- Node22 -->
<g id="node22" class="node"><title>Node22</title>
<polygon fill="white" stroke="#bfbfbf" points="1138.03,-112.5 1138.03,-131.5 1181.03,-131.5 1181.03,-112.5 1138.03,-112.5"/>
<text text-anchor="middle" x="1159.53" y="-119.5" font-family="FreeSans" font-size="10.00">time.h</text>
</g>
<!-- Node12&#45;&gt;Node22 -->
<g id="edge25" class="edge"><title>Node12&#45;&gt;Node22</title>
<path fill="none" stroke="midnightblue" d="M751.301,-175.073C823.597,-170.991 983.935,-159.643 1128.06,-131.732"/>
<polygon fill="midnightblue" stroke="midnightblue" points="1128.84,-135.148 1137.97,-129.782 1127.49,-128.279 1128.84,-135.148"/>
</g>
<!-- Node23 -->
<g id="node23" class="node"><title>Node23</title>
<g id="a_node23"><a xlink:href="config_8h.html" target="_top" xlink:title="config.h">
<polygon fill="white" stroke="black" points="1199.53,-112.5 1199.53,-131.5 1249.53,-131.5 1249.53,-112.5 1199.53,-112.5"/>
<text text-anchor="middle" x="1224.53" y="-119.5" font-family="FreeSans" font-size="10.00">config.h</text>
</a>
</g>
</g>
<!-- Node12&#45;&gt;Node23 -->
<g id="edge26" class="edge"><title>Node12&#45;&gt;Node23</title>
<path fill="none" stroke="midnightblue" d="M751.068,-174.154C848.947,-166.798 1105.34,-146.702 1189.53,-132 1189.63,-131.982 1189.74,-131.965 1189.84,-131.947"/>
<polygon fill="midnightblue" stroke="midnightblue" points="1190.32,-135.421 1199.4,-129.968 1188.9,-128.566 1190.32,-135.421"/>
</g>
<!-- Node25 -->
<g id="node25" class="node"><title>Node25</title>
<g id="a_node25"><a xlink:href="readConfig_8h.html" target="_top" xlink:title="readConfig.h">
<polygon fill="white" stroke="black" points="1388.53,-168.5 1388.53,-187.5 1458.53,-187.5 1458.53,-168.5 1388.53,-168.5"/>
<text text-anchor="middle" x="1423.53" y="-175.5" font-family="FreeSans" font-size="10.00">readConfig.h</text>
</a>
</g>
</g>
<!-- Node24&#45;&gt;Node25 -->
<g id="edge28" class="edge"><title>Node24&#45;&gt;Node25</title>
<path fill="none" stroke="midnightblue" d="M1378.13,-230.403C1386.24,-221.225 1399.27,-206.47 1409.3,-195.117"/>
<polygon fill="midnightblue" stroke="midnightblue" points="1411.96,-197.392 1415.95,-187.581 1406.71,-192.758 1411.96,-197.392"/>
</g>
<!-- Node25&#45;&gt;Node3 -->
<g id="edge29" class="edge"><title>Node25&#45;&gt;Node3</title>
<path fill="none" stroke="midnightblue" d="M1410.36,-168.324C1397.69,-159.979 1378.3,-147.212 1363.33,-137.352"/>
<polygon fill="midnightblue" stroke="midnightblue" points="1364.95,-134.231 1354.68,-131.655 1361.1,-140.078 1364.95,-134.231"/>
</g>
<!-- Node25&#45;&gt;Node8 -->
<g id="edge30" class="edge"><title>Node25&#45;&gt;Node8</title>
<path fill="none" stroke="midnightblue" d="M1426.97,-168.393C1434.71,-147.554 1451.24,-93.3607 1430.53,-56 1421.48,-39.6645 1403.75,-28.4758 1388.15,-21.3408"/>
<polygon fill="midnightblue" stroke="midnightblue" points="1389.39,-18.0629 1378.81,-17.4123 1386.67,-24.5155 1389.39,-18.0629"/>
</g>
<!-- Node26&#45;&gt;Node22 -->
<g id="edge35" class="edge"><title>Node26&#45;&gt;Node22</title>
<path fill="none" stroke="midnightblue" d="M947.194,-230.06C953.871,-214.893 969.5,-184.193 992.534,-168 1041.19,-133.796 1065.82,-147.215 1127.99,-131.948"/>
<polygon fill="midnightblue" stroke="midnightblue" points="1129.09,-135.28 1137.87,-129.36 1127.31,-128.508 1129.09,-135.28"/>
</g>
<!-- Node26&#45;&gt;Node27 -->
<g id="edge32" class="edge"><title>Node26&#45;&gt;Node27</title>
<path fill="none" stroke="midnightblue" d="M939.236,-230.403C934.87,-221.671 927.979,-207.889 922.431,-196.794"/>
<polygon fill="midnightblue" stroke="midnightblue" points="925.427,-194.96 917.825,-187.581 919.166,-198.09 925.427,-194.96"/>
</g>
<!-- Node28 -->
<g id="node28" class="node"><title>Node28</title>
<polygon fill="white" stroke="#bfbfbf" points="1002.03,-168.5 1002.03,-187.5 1061.03,-187.5 1061.03,-168.5 1002.03,-168.5"/>
<text text-anchor="middle" x="1031.53" y="-175.5" font-family="FreeSans" font-size="10.00">sys/time.h</text>
</g>
<!-- Node26&#45;&gt;Node28 -->
<g id="edge34" class="edge"><title>Node26&#45;&gt;Node28</title>
<path fill="none" stroke="midnightblue" d="M956.143,-230.403C970.258,-220.78 993.366,-205.024 1010.28,-193.489"/>
<polygon fill="midnightblue" stroke="midnightblue" points="1012.66,-196.106 1018.95,-187.581 1008.72,-190.322 1012.66,-196.106"/>
</g>
<!-- Node27&#45;&gt;Node23 -->
<g id="edge33" class="edge"><title>Node27&#45;&gt;Node23</title>
<path fill="none" stroke="midnightblue" d="M945.163,-172.789C996.638,-165.723 1101.63,-150.429 1189.53,-132 1189.63,-131.979 1189.73,-131.958 1189.83,-131.937"/>
<polygon fill="midnightblue" stroke="midnightblue" points="1190.39,-135.4 1199.36,-129.762 1188.83,-128.575 1190.39,-135.4"/>
</g>
<!-- Node29&#45;&gt;Node3 -->
<g id="edge37" class="edge"><title>Node29&#45;&gt;Node3</title>
<path fill="none" stroke="midnightblue" d="M1341.53,-168.083C1341.53,-161.006 1341.53,-150.861 1341.53,-141.986"/>
<polygon fill="midnightblue" stroke="midnightblue" points="1345.03,-141.751 1341.53,-131.751 1338.03,-141.751 1345.03,-141.751"/>
</g>
<!-- Node29&#45;&gt;Node9 -->
<g id="edge38" class="edge"><title>Node29&#45;&gt;Node9</title>
<path fill="none" stroke="midnightblue" d="M1351.58,-168.267C1360.77,-159.807 1374.16,-146.203 1382.53,-132 1391.04,-117.567 1396.84,-99.3773 1400.34,-85.9128"/>
<polygon fill="midnightblue" stroke="midnightblue" points="1403.81,-86.4415 1402.75,-75.9003 1397.01,-84.8049 1403.81,-86.4415"/>
</g>
<!-- Node32&#45;&gt;Node3 -->
<g id="edge52" class="edge"><title>Node32&#45;&gt;Node3</title>
<path fill="none" stroke="midnightblue" d="M1741.43,-172.302C1660.01,-162.265 1469.57,-138.785 1384.23,-128.263"/>
<polygon fill="midnightblue" stroke="midnightblue" points="1384.46,-124.766 1374.11,-127.016 1383.61,-131.714 1384.46,-124.766"/>
</g>
<!-- Node32&#45;&gt;Node23 -->
<g id="edge51" class="edge"><title>Node32&#45;&gt;Node23</title>
<path fill="none" stroke="midnightblue" d="M1741.23,-173.749C1659.85,-166.767 1463.7,-149.542 1299.53,-132 1286.6,-130.617 1272.42,-128.955 1259.91,-127.437"/>
<polygon fill="midnightblue" stroke="midnightblue" points="1260.21,-123.947 1249.86,-126.205 1259.36,-130.895 1260.21,-123.947"/>
</g>
<!-- Node33 -->
<g id="node33" class="node"><title>Node33</title>
<polygon fill="white" stroke="#bfbfbf" points="2161.03,-112.5 2161.03,-131.5 2274.03,-131.5 2274.03,-112.5 2161.03,-112.5"/>
<text text-anchor="middle" x="2217.53" y="-119.5" font-family="FreeSans" font-size="10.00">cantera/IdealGasMix.h</text>
</g>
<!-- Node32&#45;&gt;Node33 -->
<g id="edge43" class="edge"><title>Node32&#45;&gt;Node33</title>
<path fill="none" stroke="midnightblue" d="M1817.58,-172.59C1883.23,-164.939 2022.29,-148.549 2150.98,-132.054"/>
<polygon fill="midnightblue" stroke="midnightblue" points="2151.54,-135.51 2161.02,-130.764 2150.65,-128.567 2151.54,-135.51"/>
</g>
<!-- Node34 -->
<g id="node34" class="node"><title>Node34</title>
<polygon fill="white" stroke="#bfbfbf" points="2292.53,-112.5 2292.53,-131.5 2398.53,-131.5 2398.53,-112.5 2292.53,-112.5"/>
<text text-anchor="middle" x="2345.53" y="-119.5" font-family="FreeSans" font-size="10.00">cantera/equilibrium.h</text>
</g>
<!-- Node32&#45;&gt;Node34 -->
<g id="edge44" class="edge"><title>Node32&#45;&gt;Node34</title>
<path fill="none" stroke="midnightblue" d="M1817.78,-174.27C1900.37,-168.224 2101.78,-152.683 2282.08,-131.988"/>
<polygon fill="midnightblue" stroke="midnightblue" points="2282.75,-135.433 2292.28,-130.808 2281.95,-128.48 2282.75,-135.433"/>
</g>
<!-- Node35 -->
<g id="node35" class="node"><title>Node35</title>
<polygon fill="white" stroke="#bfbfbf" points="2416.03,-112.5 2416.03,-131.5 2505.03,-131.5 2505.03,-112.5 2416.03,-112.5"/>
<text text-anchor="middle" x="2460.53" y="-119.5" font-family="FreeSans" font-size="10.00">cantera/thermo.h</text>
</g>
<!-- Node32&#45;&gt;Node35 -->
<g id="edge45" class="edge"><title>Node32&#45;&gt;Node35</title>
<path fill="none" stroke="midnightblue" d="M1817.82,-175.5C1914.52,-171.446 2176.55,-158.805 2405.6,-131.993"/>
<polygon fill="midnightblue" stroke="midnightblue" points="2406.27,-135.438 2415.79,-130.788 2405.45,-128.487 2406.27,-135.438"/>
</g>
<!-- Node36 -->
<g id="node36" class="node"><title>Node36</title>
<polygon fill="white" stroke="#bfbfbf" points="1475.03,-112.5 1475.03,-131.5 1572.03,-131.5 1572.03,-112.5 1475.03,-112.5"/>
<text text-anchor="middle" x="1523.53" y="-119.5" font-family="FreeSans" font-size="10.00">cantera/transport.h</text>
</g>
<!-- Node32&#45;&gt;Node36 -->
<g id="edge46" class="edge"><title>Node32&#45;&gt;Node36</title>
<path fill="none" stroke="midnightblue" d="M1741.48,-168.974C1696.92,-159.574 1622.94,-143.968 1573.71,-133.584"/>
<polygon fill="midnightblue" stroke="midnightblue" points="1574.41,-130.156 1563.91,-131.516 1572.97,-137.005 1574.41,-130.156"/>
</g>
<!-- Node37 -->
<g id="node37" class="node"><title>Node37</title>
<polygon fill="white" stroke="#bfbfbf" points="1590.53,-112.5 1590.53,-131.5 1682.53,-131.5 1682.53,-112.5 1590.53,-112.5"/>
<text text-anchor="middle" x="1636.53" y="-119.5" font-family="FreeSans" font-size="10.00">cantera/kinetics.h</text>
</g>
<!-- Node32&#45;&gt;Node37 -->
<g id="edge47" class="edge"><title>Node32&#45;&gt;Node37</title>
<path fill="none" stroke="midnightblue" d="M1756.88,-168.444C1733.13,-159.478 1695.63,-145.314 1668.8,-135.183"/>
<polygon fill="midnightblue" stroke="midnightblue" points="1669.68,-131.775 1659.09,-131.516 1667.21,-138.324 1669.68,-131.775"/>
</g>
<!-- Node38 -->
<g id="node38" class="node"><title>Node38</title>
<polygon fill="white" stroke="#bfbfbf" points="1700.53,-112.5 1700.53,-131.5 1858.53,-131.5 1858.53,-112.5 1700.53,-112.5"/>
<text text-anchor="middle" x="1779.53" y="-119.5" font-family="FreeSans" font-size="10.00">cantera/thermo/IdealGasPhase.h</text>
</g>
<!-- Node32&#45;&gt;Node38 -->
<g id="edge48" class="edge"><title>Node32&#45;&gt;Node38</title>
<path fill="none" stroke="midnightblue" d="M1779.53,-168.083C1779.53,-161.006 1779.53,-150.861 1779.53,-141.986"/>
<polygon fill="midnightblue" stroke="midnightblue" points="1783.03,-141.751 1779.53,-131.751 1776.03,-141.751 1783.03,-141.751"/>
</g>
<!-- Node39 -->
<g id="node39" class="node"><title>Node39</title>
<polygon fill="white" stroke="#bfbfbf" points="1877.03,-112.5 1877.03,-131.5 2024.03,-131.5 2024.03,-112.5 1877.03,-112.5"/>
<text text-anchor="middle" x="1950.53" y="-119.5" font-family="FreeSans" font-size="10.00">cantera/kinetics/GasKinetics.h</text>
</g>
<!-- Node32&#45;&gt;Node39 -->
<g id="edge49" class="edge"><title>Node32&#45;&gt;Node39</title>
<path fill="none" stroke="midnightblue" d="M1806.63,-168.444C1835.52,-159.32 1881.46,-144.813 1913.64,-134.651"/>
<polygon fill="midnightblue" stroke="midnightblue" points="1915.08,-137.865 1923.57,-131.516 1912.98,-131.19 1915.08,-137.865"/>
</g>
<!-- Node40 -->
<g id="node40" class="node"><title>Node40</title>
<polygon fill="white" stroke="#bfbfbf" points="2042.03,-112.5 2042.03,-131.5 2143.03,-131.5 2143.03,-112.5 2042.03,-112.5"/>
<text text-anchor="middle" x="2092.53" y="-119.5" font-family="FreeSans" font-size="10.00">cantera/base/ctml.h</text>
</g>
<!-- Node32&#45;&gt;Node40 -->
<g id="edge50" class="edge"><title>Node32&#45;&gt;Node40</title>
<path fill="none" stroke="midnightblue" d="M1817.6,-170.433C1871.23,-161.18 1969.54,-144.219 2032.92,-133.285"/>
<polygon fill="midnightblue" stroke="midnightblue" points="2033.9,-136.667 2043.16,-131.518 2032.71,-129.769 2033.9,-136.667"/>
</g>
</g>
</svg>
