<?xml version="1.0" encoding="UTF-8" standalone="no"?>
<!DOCTYPE svg PUBLIC "-//W3C//DTD SVG 1.1//EN"
 "http://www.w3.org/Graphics/SVG/1.1/DTD/svg11.dtd">
<!-- Generated by graphviz version 2.38.0 (20140413.2041)
 -->
<!-- Title: src/convectionSystem.h Pages: 1 -->
<svg width="1624pt" height="319pt"
 viewBox="0.00 0.00 1623.50 319.00" xmlns="http://www.w3.org/2000/svg" xmlns:xlink="http://www.w3.org/1999/xlink">
<g id="graph0" class="graph" transform="scale(1 1) rotate(0) translate(4 315)">
<title>src/convectionSystem.h</title>
<polygon fill="white" stroke="none" points="-4,4 -4,-315 1619.5,-315 1619.5,4 -4,4"/>
<!-- Node1 -->
<g id="node1" class="node"><title>Node1</title>
<polygon fill="#bfbfbf" stroke="black" points="579.5,-291.5 579.5,-310.5 698.5,-310.5 698.5,-291.5 579.5,-291.5"/>
<text text-anchor="middle" x="639" y="-298.5" font-family="FreeSans" font-size="10.00">src/convectionSystem.h</text>
</g>
<!-- Node2 -->
<g id="node2" class="node"><title>Node2</title>
<g id="a_node2"><a xlink:href="mathUtils_8h.html" target="_top" xlink:title="mathUtils.h">
<polygon fill="white" stroke="black" points="141.5,-112.5 141.5,-131.5 206.5,-131.5 206.5,-112.5 141.5,-112.5"/>
<text text-anchor="middle" x="174" y="-119.5" font-family="FreeSans" font-size="10.00">mathUtils.h</text>
</a>
</g>
</g>
<!-- Node1&#45;&gt;Node2 -->
<g id="edge1" class="edge"><title>Node1&#45;&gt;Node2</title>
<path fill="none" stroke="midnightblue" d="M593.679,-291.463C555.998,-283.763 501.254,-271.172 455,-255 387.986,-231.57 374.25,-218.196 310,-188 272.243,-170.255 228.77,-149.403 201.342,-136.196"/>
<polygon fill="midnightblue" stroke="midnightblue" points="202.532,-132.884 192.004,-131.696 199.493,-139.19 202.532,-132.884"/>
</g>
<!-- Node14 -->
<g id="node14" class="node"><title>Node14</title>
<g id="a_node14"><a xlink:href="sundialsUtils_8h.html" target="_top" xlink:title="sundialsUtils.h">
<polygon fill="white" stroke="black" points="757.5,-168.5 757.5,-187.5 834.5,-187.5 834.5,-168.5 757.5,-168.5"/>
<text text-anchor="middle" x="796" y="-175.5" font-family="FreeSans" font-size="10.00">sundialsUtils.h</text>
</a>
</g>
</g>
<!-- Node1&#45;&gt;Node14 -->
<g id="edge15" class="edge"><title>Node1&#45;&gt;Node14</title>
<path fill="none" stroke="midnightblue" d="M650.291,-291.298C676.882,-270.804 743.694,-219.312 776.797,-193.8"/>
<polygon fill="midnightblue" stroke="midnightblue" points="779.027,-196.5 784.811,-187.623 774.754,-190.955 779.027,-196.5"/>
</g>
<!-- Node26 -->
<g id="node26" class="node"><title>Node26</title>
<g id="a_node26"><a xlink:href="grid_8h.html" target="_top" xlink:title="grid.h">
<polygon fill="white" stroke="black" points="117,-230 117,-249 157,-249 157,-230 117,-230"/>
<text text-anchor="middle" x="137" y="-237" font-family="FreeSans" font-size="10.00">grid.h</text>
</a>
</g>
</g>
<!-- Node1&#45;&gt;Node26 -->
<g id="edge29" class="edge"><title>Node1&#45;&gt;Node26</title>
<path fill="none" stroke="midnightblue" d="M579.367,-297.061C470.123,-291.226 242.122,-276.827 166,-255 164.326,-254.52 162.633,-253.944 160.95,-253.303"/>
<polygon fill="midnightblue" stroke="midnightblue" points="162.181,-250.019 151.624,-249.122 159.318,-256.407 162.181,-250.019"/>
</g>
<!-- Node28 -->
<g id="node28" class="node"><title>Node28</title>
<g id="a_node28"><a xlink:href="perfTimer_8h.html" target="_top" xlink:title="perfTimer.h">
<polygon fill="white" stroke="black" points="790.5,-230 790.5,-249 855.5,-249 855.5,-230 790.5,-230"/>
<text text-anchor="middle" x="823" y="-237" font-family="FreeSans" font-size="10.00">perfTimer.h</text>
</a>
</g>
</g>
<!-- Node1&#45;&gt;Node28 -->
<g id="edge33" class="edge"><title>Node1&#45;&gt;Node28</title>
<path fill="none" stroke="midnightblue" d="M665.363,-291.475C697.335,-281.136 751.376,-263.661 787.122,-252.102"/>
<polygon fill="midnightblue" stroke="midnightblue" points="788.248,-255.416 796.686,-249.009 786.094,-248.756 788.248,-255.416"/>
</g>
<!-- Node32 -->
<g id="node32" class="node"><title>Node32</title>
<g id="a_node32"><a xlink:href="quasi2d_8h.html" target="_top" xlink:title="quasi2d.h">
<polygon fill="white" stroke="black" points="319.5,-168.5 319.5,-187.5 376.5,-187.5 376.5,-168.5 319.5,-168.5"/>
<text text-anchor="middle" x="348" y="-175.5" font-family="FreeSans" font-size="10.00">quasi2d.h</text>
</a>
</g>
</g>
<!-- Node1&#45;&gt;Node32 -->
<g id="edge39" class="edge"><title>Node1&#45;&gt;Node32</title>
<path fill="none" stroke="midnightblue" d="M618.537,-291.492C568.152,-270.541 437.878,-216.372 378.41,-191.645"/>
<polygon fill="midnightblue" stroke="midnightblue" points="379.407,-188.269 368.829,-187.661 376.719,-194.732 379.407,-188.269"/>
</g>
<!-- Node33 -->
<g id="node33" class="node"><title>Node33</title>
<g id="a_node33"><a xlink:href="scalarFunction_8h.html" target="_top" xlink:title="scalarFunction.h">
<polygon fill="white" stroke="black" points="175.5,-230 175.5,-249 262.5,-249 262.5,-230 175.5,-230"/>
<text text-anchor="middle" x="219" y="-237" font-family="FreeSans" font-size="10.00">scalarFunction.h</text>
</a>
</g>
</g>
<!-- Node1&#45;&gt;Node33 -->
<g id="edge42" class="edge"><title>Node1&#45;&gt;Node33</title>
<path fill="none" stroke="midnightblue" d="M579.404,-294.828C507.378,-288.063 382.683,-274.704 277,-255 271.516,-253.977 265.777,-252.745 260.134,-251.436"/>
<polygon fill="midnightblue" stroke="midnightblue" points="260.695,-247.971 250.152,-249.026 259.051,-254.775 260.695,-247.971"/>
</g>
<!-- Node34 -->
<g id="node34" class="node"><title>Node34</title>
<polygon fill="white" stroke="#bfbfbf" points="874,-230 874,-249 980,-249 980,-230 874,-230"/>
<text text-anchor="middle" x="927" y="-237" font-family="FreeSans" font-size="10.00">boost/shared_ptr.hpp</text>
</g>
<!-- Node1&#45;&gt;Node34 -->
<g id="edge44" class="edge"><title>Node1&#45;&gt;Node34</title>
<path fill="none" stroke="midnightblue" d="M684.115,-291.474C729.798,-282.733 802.438,-268.54 865,-255 870.335,-253.845 875.918,-252.597 881.455,-251.333"/>
<polygon fill="midnightblue" stroke="midnightblue" points="882.352,-254.719 891.309,-249.06 880.779,-247.898 882.352,-254.719"/>
</g>
<!-- Node35 -->
<g id="node35" class="node"><title>Node35</title>
<polygon fill="white" stroke="#bfbfbf" points="998.5,-224.5 998.5,-254.5 1097.5,-254.5 1097.5,-224.5 998.5,-224.5"/>
<text text-anchor="start" x="1006.5" y="-242.5" font-family="FreeSans" font-size="10.00">boost/ptr_container</text>
<text text-anchor="middle" x="1048" y="-231.5" font-family="FreeSans" font-size="10.00">/ptr_vector.hpp</text>
</g>
<!-- Node1&#45;&gt;Node35 -->
<g id="edge45" class="edge"><title>Node1&#45;&gt;Node35</title>
<path fill="none" stroke="midnightblue" d="M698.772,-294.394C766.59,-287.569 880.655,-274.685 988.146,-255.022"/>
<polygon fill="midnightblue" stroke="midnightblue" points="988.998,-258.424 998.193,-253.161 987.722,-251.541 988.998,-258.424"/>
</g>
<!-- Node3 -->
<g id="node3" class="node"><title>Node3</title>
<polygon fill="white" stroke="#bfbfbf" points="604.5,-56.5 604.5,-75.5 647.5,-75.5 647.5,-56.5 604.5,-56.5"/>
<text text-anchor="middle" x="626" y="-63.5" font-family="FreeSans" font-size="10.00">vector</text>
</g>
<!-- Node2&#45;&gt;Node3 -->
<g id="edge2" class="edge"><title>Node2&#45;&gt;Node3</title>
<path fill="none" stroke="midnightblue" d="M206.507,-117.116C290.087,-107.131 511.682,-80.6575 594.331,-70.7835"/>
<polygon fill="midnightblue" stroke="midnightblue" points="594.861,-74.2451 604.375,-69.5835 594.031,-67.2946 594.861,-74.2451"/>
</g>
<!-- Node4 -->
<g id="node4" class="node"><title>Node4</title>
<polygon fill="white" stroke="#bfbfbf" points="48,-56.5 48,-75.5 92,-75.5 92,-56.5 48,-56.5"/>
<text text-anchor="middle" x="70" y="-63.5" font-family="FreeSans" font-size="10.00">cmath</text>
</g>
<!-- Node2&#45;&gt;Node4 -->
<g id="edge3" class="edge"><title>Node2&#45;&gt;Node4</title>
<path fill="none" stroke="midnightblue" d="M157.291,-112.324C140.688,-103.703 114.998,-90.3643 95.7795,-80.3855"/>
<polygon fill="midnightblue" stroke="midnightblue" points="97.1558,-77.1565 86.6679,-75.6545 93.93,-83.3689 97.1558,-77.1565"/>
</g>
<!-- Node5 -->
<g id="node5" class="node"><title>Node5</title>
<polygon fill="white" stroke="#bfbfbf" points="409.5,-0.5 409.5,-19.5 462.5,-19.5 462.5,-0.5 409.5,-0.5"/>
<text text-anchor="middle" x="436" y="-7.5" font-family="FreeSans" font-size="10.00">iostream</text>
</g>
<!-- Node2&#45;&gt;Node5 -->
<g id="edge4" class="edge"><title>Node2&#45;&gt;Node5</title>
<path fill="none" stroke="midnightblue" d="M206.722,-116.029C242.064,-109.841 299.424,-97.3887 345,-76 372.943,-62.8865 401.276,-40.9915 418.737,-26.2799"/>
<polygon fill="midnightblue" stroke="midnightblue" points="421.085,-28.8775 426.387,-19.7048 416.522,-23.569 421.085,-28.8775"/>
</g>
<!-- Node6 -->
<g id="node6" class="node"><title>Node6</title>
<polygon fill="white" stroke="#bfbfbf" points="110,-56.5 110,-75.5 160,-75.5 160,-56.5 110,-56.5"/>
<text text-anchor="middle" x="135" y="-63.5" font-family="FreeSans" font-size="10.00">sstream</text>
</g>
<!-- Node2&#45;&gt;Node6 -->
<g id="edge5" class="edge"><title>Node2&#45;&gt;Node6</title>
<path fill="none" stroke="midnightblue" d="M167.56,-112.083C162.051,-104.455 153.969,-93.2645 147.235,-83.9408"/>
<polygon fill="midnightblue" stroke="midnightblue" points="150.013,-81.8087 141.32,-75.7511 144.338,-85.9071 150.013,-81.8087"/>
</g>
<!-- Node7 -->
<g id="node7" class="node"><title>Node7</title>
<polygon fill="white" stroke="#bfbfbf" points="0,-0.5 0,-19.5 40,-19.5 40,-0.5 0,-0.5"/>
<text text-anchor="middle" x="20" y="-7.5" font-family="FreeSans" font-size="10.00">string</text>
</g>
<!-- Node2&#45;&gt;Node7 -->
<g id="edge6" class="edge"><title>Node2&#45;&gt;Node7</title>
<path fill="none" stroke="midnightblue" d="M141.411,-118.587C110.873,-114.598 65.9953,-104.023 39,-76 27.1576,-63.7066 22.6364,-44.4503 20.9413,-30.0831"/>
<polygon fill="midnightblue" stroke="midnightblue" points="24.4067,-29.5163 20.1019,-19.8355 17.4301,-30.0879 24.4067,-29.5163"/>
</g>
<!-- Node8 -->
<g id="node8" class="node"><title>Node8</title>
<polygon fill="white" stroke="#bfbfbf" points="393.5,-56.5 393.5,-75.5 428.5,-75.5 428.5,-56.5 393.5,-56.5"/>
<text text-anchor="middle" x="411" y="-63.5" font-family="FreeSans" font-size="10.00">map</text>
</g>
<!-- Node2&#45;&gt;Node8 -->
<g id="edge7" class="edge"><title>Node2&#45;&gt;Node8</title>
<path fill="none" stroke="midnightblue" d="M206.801,-114.412C247.393,-106.119 318.554,-91.1209 379,-76 380.47,-75.6324 381.974,-75.2455 383.491,-74.8472"/>
<polygon fill="midnightblue" stroke="midnightblue" points="384.715,-78.1414 393.444,-72.1357 382.875,-71.3875 384.715,-78.1414"/>
</g>
<!-- Node9 -->
<g id="node9" class="node"><title>Node9</title>
<g id="a_node9"><a xlink:href="debugUtils_8h.html" target="_top" xlink:title="debugUtils.h">
<polygon fill="white" stroke="black" points="267.5,-56.5 267.5,-75.5 336.5,-75.5 336.5,-56.5 267.5,-56.5"/>
<text text-anchor="middle" x="302" y="-63.5" font-family="FreeSans" font-size="10.00">debugUtils.h</text>
</a>
</g>
</g>
<!-- Node2&#45;&gt;Node9 -->
<g id="edge8" class="edge"><title>Node2&#45;&gt;Node9</title>
<path fill="none" stroke="midnightblue" d="M194.282,-112.444C215.347,-103.557 248.517,-89.5632 272.486,-79.4514"/>
<polygon fill="midnightblue" stroke="midnightblue" points="273.96,-82.6283 281.813,-75.5164 271.239,-76.1787 273.96,-82.6283"/>
</g>
<!-- Node13 -->
<g id="node13" class="node"><title>Node13</title>
<polygon fill="white" stroke="#bfbfbf" points="178.5,-56.5 178.5,-75.5 249.5,-75.5 249.5,-56.5 178.5,-56.5"/>
<text text-anchor="middle" x="214" y="-63.5" font-family="FreeSans" font-size="10.00">Eigen/Dense</text>
</g>
<!-- Node2&#45;&gt;Node13 -->
<g id="edge14" class="edge"><title>Node2&#45;&gt;Node13</title>
<path fill="none" stroke="midnightblue" d="M180.605,-112.083C186.255,-104.455 194.545,-93.2645 201.451,-83.9408"/>
<polygon fill="midnightblue" stroke="midnightblue" points="204.378,-85.87 207.518,-75.7511 198.753,-81.7034 204.378,-85.87"/>
</g>
<!-- Node9&#45;&gt;Node5 -->
<g id="edge10" class="edge"><title>Node9&#45;&gt;Node5</title>
<path fill="none" stroke="midnightblue" d="M323.233,-56.4435C345.384,-47.5171 380.319,-33.4387 405.436,-23.3168"/>
<polygon fill="midnightblue" stroke="midnightblue" points="406.9,-26.5006 414.867,-19.5164 404.283,-20.0079 406.9,-26.5006"/>
</g>
<!-- Node9&#45;&gt;Node7 -->
<g id="edge9" class="edge"><title>Node9&#45;&gt;Node7</title>
<path fill="none" stroke="midnightblue" d="M267.423,-57.8767C264.238,-57.236 261.06,-56.6022 258,-56 183.323,-41.3037 95.2766,-24.895 50.0913,-16.541"/>
<polygon fill="midnightblue" stroke="midnightblue" points="50.5487,-13.0663 40.0794,-14.6921 49.2775,-19.95 50.5487,-13.0663"/>
</g>
<!-- Node10 -->
<g id="node10" class="node"><title>Node10</title>
<polygon fill="white" stroke="#bfbfbf" points="159.5,-0.5 159.5,-19.5 208.5,-19.5 208.5,-0.5 159.5,-0.5"/>
<text text-anchor="middle" x="184" y="-7.5" font-family="FreeSans" font-size="10.00">fstream</text>
</g>
<!-- Node9&#45;&gt;Node10 -->
<g id="edge11" class="edge"><title>Node9&#45;&gt;Node10</title>
<path fill="none" stroke="midnightblue" d="M283.303,-56.4435C264.056,-47.6356 233.848,-33.8116 211.8,-23.722"/>
<polygon fill="midnightblue" stroke="midnightblue" points="213.16,-20.4951 202.61,-19.5164 210.247,-26.8603 213.16,-20.4951"/>
</g>
<!-- Node11 -->
<g id="node11" class="node"><title>Node11</title>
<polygon fill="white" stroke="#bfbfbf" points="227,-0.5 227,-19.5 285,-19.5 285,-0.5 227,-0.5"/>
<text text-anchor="middle" x="256" y="-7.5" font-family="FreeSans" font-size="10.00">exception</text>
</g>
<!-- Node9&#45;&gt;Node11 -->
<g id="edge12" class="edge"><title>Node9&#45;&gt;Node11</title>
<path fill="none" stroke="midnightblue" d="M294.404,-56.083C287.773,-48.2982 277.979,-36.8015 269.942,-27.3665"/>
<polygon fill="midnightblue" stroke="midnightblue" points="272.604,-25.0939 263.455,-19.7511 267.275,-29.6332 272.604,-25.0939"/>
</g>
<!-- Node12 -->
<g id="node12" class="node"><title>Node12</title>
<polygon fill="white" stroke="#bfbfbf" points="302.5,-0.5 302.5,-19.5 391.5,-19.5 391.5,-0.5 302.5,-0.5"/>
<text text-anchor="middle" x="347" y="-7.5" font-family="FreeSans" font-size="10.00">boost/format.hpp</text>
</g>
<!-- Node9&#45;&gt;Node12 -->
<g id="edge13" class="edge"><title>Node9&#45;&gt;Node12</title>
<path fill="none" stroke="midnightblue" d="M309.431,-56.083C315.853,-48.3768 325.306,-37.0333 333.122,-27.6531"/>
<polygon fill="midnightblue" stroke="midnightblue" points="335.994,-29.674 339.707,-19.7511 330.617,-25.1927 335.994,-29.674"/>
</g>
<!-- Node14&#45;&gt;Node3 -->
<g id="edge26" class="edge"><title>Node14&#45;&gt;Node3</title>
<path fill="none" stroke="midnightblue" d="M795.957,-168.107C795.397,-154.206 792.256,-127.337 777,-112 745.318,-80.151 692.143,-70.6458 658.089,-67.9239"/>
<polygon fill="midnightblue" stroke="midnightblue" points="657.96,-64.4084 647.756,-67.2588 657.51,-71.394 657.96,-64.4084"/>
</g>
<!-- Node14&#45;&gt;Node5 -->
<g id="edge25" class="edge"><title>Node14&#45;&gt;Node5</title>
<path fill="none" stroke="midnightblue" d="M798.886,-168.109C802.657,-154.685 807.514,-129.007 796,-112 759.312,-57.8104 557.1,-26.3284 472.857,-15.3997"/>
<polygon fill="midnightblue" stroke="midnightblue" points="473.079,-11.8998 462.718,-14.11 472.196,-18.8439 473.079,-11.8998"/>
</g>
<!-- Node15 -->
<g id="node15" class="node"><title>Node15</title>
<polygon fill="white" stroke="#bfbfbf" points="862,-112.5 862,-131.5 980,-131.5 980,-112.5 862,-112.5"/>
<text text-anchor="middle" x="921" y="-119.5" font-family="FreeSans" font-size="10.00">nvector/nvector_serial.h</text>
</g>
<!-- Node14&#45;&gt;Node15 -->
<g id="edge16" class="edge"><title>Node14&#45;&gt;Node15</title>
<path fill="none" stroke="midnightblue" d="M815.807,-168.444C836.287,-159.596 868.483,-145.687 891.865,-135.586"/>
<polygon fill="midnightblue" stroke="midnightblue" points="893.494,-138.695 901.286,-131.516 890.718,-132.269 893.494,-138.695"/>
</g>
<!-- Node16 -->
<g id="node16" class="node"><title>Node16</title>
<polygon fill="white" stroke="#bfbfbf" points="998.5,-112.5 998.5,-131.5 1125.5,-131.5 1125.5,-112.5 998.5,-112.5"/>
<text text-anchor="middle" x="1062" y="-119.5" font-family="FreeSans" font-size="10.00">sundials/sundials_dense.h</text>
</g>
<!-- Node14&#45;&gt;Node16 -->
<g id="edge17" class="edge"><title>Node14&#45;&gt;Node16</title>
<path fill="none" stroke="midnightblue" d="M834.679,-169.148C880.878,-159.769 958.36,-144.04 1009.83,-133.591"/>
<polygon fill="midnightblue" stroke="midnightblue" points="1010.65,-136.995 1019.76,-131.576 1009.26,-130.135 1010.65,-136.995"/>
</g>
<!-- Node17 -->
<g id="node17" class="node"><title>Node17</title>
<polygon fill="white" stroke="#bfbfbf" points="1144,-112.5 1144,-131.5 1266,-131.5 1266,-112.5 1144,-112.5"/>
<text text-anchor="middle" x="1205" y="-119.5" font-family="FreeSans" font-size="10.00">sundials/sundials_band.h</text>
</g>
<!-- Node14&#45;&gt;Node17 -->
<g id="edge18" class="edge"><title>Node14&#45;&gt;Node17</title>
<path fill="none" stroke="midnightblue" d="M834.737,-169.523C837.867,-168.984 840.984,-168.469 844,-168 969.629,-148.471 1004.04,-148.305 1133.98,-132.117"/>
<polygon fill="midnightblue" stroke="midnightblue" points="1134.43,-135.588 1143.92,-130.871 1133.56,-128.642 1134.43,-135.588"/>
</g>
<!-- Node18 -->
<g id="node18" class="node"><title>Node18</title>
<polygon fill="white" stroke="#bfbfbf" points="1284,-112.5 1284,-131.5 1408,-131.5 1408,-112.5 1284,-112.5"/>
<text text-anchor="middle" x="1346" y="-119.5" font-family="FreeSans" font-size="10.00">sundials/sundials_types.h</text>
</g>
<!-- Node14&#45;&gt;Node18 -->
<g id="edge19" class="edge"><title>Node14&#45;&gt;Node18</title>
<path fill="none" stroke="midnightblue" d="M834.718,-169.39C837.852,-168.881 840.975,-168.409 844,-168 1031.24,-142.694 1082.1,-151.765 1273.56,-132.105"/>
<polygon fill="midnightblue" stroke="midnightblue" points="1274.1,-135.568 1283.68,-131.053 1273.37,-128.606 1274.1,-135.568"/>
</g>
<!-- Node19 -->
<g id="node19" class="node"><title>Node19</title>
<polygon fill="white" stroke="#bfbfbf" points="263,-112.5 263,-131.5 341,-131.5 341,-112.5 263,-112.5"/>
<text text-anchor="middle" x="302" y="-119.5" font-family="FreeSans" font-size="10.00">cvode/cvode.h</text>
</g>
<!-- Node14&#45;&gt;Node19 -->
<g id="edge20" class="edge"><title>Node14&#45;&gt;Node19</title>
<path fill="none" stroke="midnightblue" d="M757.387,-174.213C681.563,-168.5 507.698,-154.223 351.509,-132.107"/>
<polygon fill="midnightblue" stroke="midnightblue" points="351.643,-128.591 341.248,-130.639 350.651,-135.52 351.643,-128.591"/>
</g>
<!-- Node20 -->
<g id="node20" class="node"><title>Node20</title>
<polygon fill="white" stroke="#bfbfbf" points="359.5,-112.5 359.5,-131.5 468.5,-131.5 468.5,-112.5 359.5,-112.5"/>
<text text-anchor="middle" x="414" y="-119.5" font-family="FreeSans" font-size="10.00">cvode/cvode_dense.h</text>
</g>
<!-- Node14&#45;&gt;Node20 -->
<g id="edge21" class="edge"><title>Node14&#45;&gt;Node20</title>
<path fill="none" stroke="midnightblue" d="M757.27,-171.525C691.786,-162.268 558.54,-143.432 478.687,-132.144"/>
<polygon fill="midnightblue" stroke="midnightblue" points="479.135,-128.673 468.744,-130.739 478.156,-135.604 479.135,-128.673"/>
</g>
<!-- Node21 -->
<g id="node21" class="node"><title>Node21</title>
<polygon fill="white" stroke="#bfbfbf" points="487,-112.5 487,-131.5 591,-131.5 591,-112.5 487,-112.5"/>
<text text-anchor="middle" x="539" y="-119.5" font-family="FreeSans" font-size="10.00">cvode/cvode_band.h</text>
</g>
<!-- Node14&#45;&gt;Node21 -->
<g id="edge22" class="edge"><title>Node14&#45;&gt;Node21</title>
<path fill="none" stroke="midnightblue" d="M757.246,-168.857C712.511,-159.458 638.792,-143.968 589.576,-133.627"/>
<polygon fill="midnightblue" stroke="midnightblue" points="590.277,-130.198 579.771,-131.567 588.837,-137.048 590.277,-130.198"/>
</g>
<!-- Node22 -->
<g id="node22" class="node"><title>Node22</title>
<polygon fill="white" stroke="#bfbfbf" points="609.5,-112.5 609.5,-131.5 662.5,-131.5 662.5,-112.5 609.5,-112.5"/>
<text text-anchor="middle" x="636" y="-119.5" font-family="FreeSans" font-size="10.00">ida/ida.h</text>
</g>
<!-- Node14&#45;&gt;Node22 -->
<g id="edge23" class="edge"><title>Node14&#45;&gt;Node22</title>
<path fill="none" stroke="midnightblue" d="M770.648,-168.444C743.731,-159.359 701.004,-144.939 670.913,-134.783"/>
<polygon fill="midnightblue" stroke="midnightblue" points="671.828,-131.398 661.234,-131.516 669.59,-138.031 671.828,-131.398"/>
</g>
<!-- Node23 -->
<g id="node23" class="node"><title>Node23</title>
<polygon fill="white" stroke="#bfbfbf" points="680,-112.5 680,-131.5 768,-131.5 768,-112.5 680,-112.5"/>
<text text-anchor="middle" x="724" y="-119.5" font-family="FreeSans" font-size="10.00">ida/ida_spbcgs.h</text>
</g>
<!-- Node14&#45;&gt;Node23 -->
<g id="edge24" class="edge"><title>Node14&#45;&gt;Node23</title>
<path fill="none" stroke="midnightblue" d="M784.432,-168.324C773.58,-160.185 757.119,-147.839 744.117,-138.087"/>
<polygon fill="midnightblue" stroke="midnightblue" points="745.879,-135.034 735.779,-131.834 741.679,-140.634 745.879,-135.034"/>
</g>
<!-- Node24 -->
<g id="node24" class="node"><title>Node24</title>
<polygon fill="white" stroke="#bfbfbf" points="1426.5,-112.5 1426.5,-131.5 1469.5,-131.5 1469.5,-112.5 1426.5,-112.5"/>
<text text-anchor="middle" x="1448" y="-119.5" font-family="FreeSans" font-size="10.00">time.h</text>
</g>
<!-- Node14&#45;&gt;Node24 -->
<g id="edge27" class="edge"><title>Node14&#45;&gt;Node24</title>
<path fill="none" stroke="midnightblue" d="M834.709,-169.321C837.845,-168.827 840.971,-168.378 844,-168 1093.87,-136.845 1163.79,-174.81 1416.25,-131.682"/>
<polygon fill="midnightblue" stroke="midnightblue" points="1417.21,-135.067 1426.46,-129.909 1416.01,-128.17 1417.21,-135.067"/>
</g>
<!-- Node25 -->
<g id="node25" class="node"><title>Node25</title>
<g id="a_node25"><a xlink:href="config_8h.html" target="_top" xlink:title="config.h">
<polygon fill="white" stroke="black" points="1488,-112.5 1488,-131.5 1538,-131.5 1538,-112.5 1488,-112.5"/>
<text text-anchor="middle" x="1513" y="-119.5" font-family="FreeSans" font-size="10.00">config.h</text>
</a>
</g>
</g>
<!-- Node14&#45;&gt;Node25 -->
<g id="edge28" class="edge"><title>Node14&#45;&gt;Node25</title>
<path fill="none" stroke="midnightblue" d="M834.706,-169.3C837.843,-168.811 840.97,-168.368 844,-168 1121.32,-134.282 1198.04,-175.408 1477.83,-131.844"/>
<polygon fill="midnightblue" stroke="midnightblue" points="1478.54,-135.275 1487.87,-130.258 1477.45,-128.361 1478.54,-135.275"/>
</g>
<!-- Node27 -->
<g id="node27" class="node"><title>Node27</title>
<g id="a_node27"><a xlink:href="readConfig_8h.html" target="_top" xlink:title="readConfig.h">
<polygon fill="white" stroke="black" points="102,-168.5 102,-187.5 172,-187.5 172,-168.5 102,-168.5"/>
<text text-anchor="middle" x="137" y="-175.5" font-family="FreeSans" font-size="10.00">readConfig.h</text>
</a>
</g>
</g>
<!-- Node26&#45;&gt;Node27 -->
<g id="edge30" class="edge"><title>Node26&#45;&gt;Node27</title>
<path fill="none" stroke="midnightblue" d="M137,-229.975C137,-221.58 137,-208.481 137,-197.663"/>
<polygon fill="midnightblue" stroke="midnightblue" points="140.5,-197.509 137,-187.509 133.5,-197.509 140.5,-197.509"/>
</g>
<!-- Node27&#45;&gt;Node2 -->
<g id="edge31" class="edge"><title>Node27&#45;&gt;Node2</title>
<path fill="none" stroke="midnightblue" d="M143.11,-168.083C148.282,-160.534 155.846,-149.495 162.194,-140.23"/>
<polygon fill="midnightblue" stroke="midnightblue" points="165.239,-141.979 168.004,-131.751 159.464,-138.022 165.239,-141.979"/>
</g>
<!-- Node27&#45;&gt;Node7 -->
<g id="edge32" class="edge"><title>Node27&#45;&gt;Node7</title>
<path fill="none" stroke="midnightblue" d="M121.063,-168.353C95.3282,-153.4 45.3509,-120.038 24,-76 16.9868,-61.5346 16.5302,-43.086 17.5103,-29.5414"/>
<polygon fill="midnightblue" stroke="midnightblue" points="21,-29.8222 18.5592,-19.5124 14.0379,-29.094 21,-29.8222"/>
</g>
<!-- Node28&#45;&gt;Node24 -->
<g id="edge38" class="edge"><title>Node28&#45;&gt;Node24</title>
<path fill="none" stroke="midnightblue" d="M845.459,-229.971C851.721,-227.806 858.57,-225.633 865,-224 1102.88,-163.566 1172.65,-186.582 1416.54,-131.856"/>
<polygon fill="midnightblue" stroke="midnightblue" points="1417.42,-135.244 1426.4,-129.621 1415.88,-128.417 1417.42,-135.244"/>
</g>
<!-- Node29 -->
<g id="node29" class="node"><title>Node29</title>
<g id="a_node29"><a xlink:href="tbb__tools_8h.html" target="_top" xlink:title="tbb_tools.h">
<polygon fill="white" stroke="black" points="1481.5,-168.5 1481.5,-187.5 1544.5,-187.5 1544.5,-168.5 1481.5,-168.5"/>
<text text-anchor="middle" x="1513" y="-175.5" font-family="FreeSans" font-size="10.00">tbb_tools.h</text>
</a>
</g>
</g>
<!-- Node28&#45;&gt;Node29 -->
<g id="edge34" class="edge"><title>Node28&#45;&gt;Node29</title>
<path fill="none" stroke="midnightblue" d="M844.495,-229.864C850.986,-227.589 858.197,-225.385 865,-224 981.635,-200.25 1346.53,-185.07 1470.95,-180.476"/>
<polygon fill="midnightblue" stroke="midnightblue" points="1471.34,-183.964 1481.2,-180.101 1471.08,-176.969 1471.34,-183.964"/>
</g>
<!-- Node31 -->
<g id="node31" class="node"><title>Node31</title>
<polygon fill="white" stroke="#bfbfbf" points="852.5,-168.5 852.5,-187.5 911.5,-187.5 911.5,-168.5 852.5,-168.5"/>
<text text-anchor="middle" x="882" y="-175.5" font-family="FreeSans" font-size="10.00">sys/time.h</text>
</g>
<!-- Node28&#45;&gt;Node31 -->
<g id="edge37" class="edge"><title>Node28&#45;&gt;Node31</title>
<path fill="none" stroke="midnightblue" d="M831.453,-229.975C840.566,-220.785 855.27,-205.956 866.476,-194.656"/>
<polygon fill="midnightblue" stroke="midnightblue" points="869.007,-197.074 873.562,-187.509 864.036,-192.146 869.007,-197.074"/>
</g>
<!-- Node29&#45;&gt;Node25 -->
<g id="edge35" class="edge"><title>Node29&#45;&gt;Node25</title>
<path fill="none" stroke="midnightblue" d="M1513,-168.083C1513,-161.006 1513,-150.861 1513,-141.986"/>
<polygon fill="midnightblue" stroke="midnightblue" points="1516.5,-141.751 1513,-131.751 1509.5,-141.751 1516.5,-141.751"/>
</g>
<!-- Node30 -->
<g id="node30" class="node"><title>Node30</title>
<g id="a_node30"><a xlink:href="tbb__real_8h.html" target="_top" xlink:title="tbb_real.h">
<polygon fill="white" stroke="red" points="1556.5,-112.5 1556.5,-131.5 1615.5,-131.5 1615.5,-112.5 1556.5,-112.5"/>
<text text-anchor="middle" x="1586" y="-119.5" font-family="FreeSans" font-size="10.00">tbb_real.h</text>
</a>
</g>
</g>
<!-- Node29&#45;&gt;Node30 -->
<g id="edge36" class="edge"><title>Node29&#45;&gt;Node30</title>
<path fill="none" stroke="midnightblue" d="M1524.73,-168.324C1535.84,-160.107 1552.74,-147.602 1565.98,-137.807"/>
<polygon fill="midnightblue" stroke="midnightblue" points="1568.1,-140.595 1574.06,-131.834 1563.94,-134.967 1568.1,-140.595"/>
</g>
<!-- Node32&#45;&gt;Node2 -->
<g id="edge40" class="edge"><title>Node32&#45;&gt;Node2</title>
<path fill="none" stroke="midnightblue" d="M320.429,-168.444C290.903,-159.28 243.882,-144.688 211.117,-134.519"/>
<polygon fill="midnightblue" stroke="midnightblue" points="212.03,-131.138 201.442,-131.516 209.955,-137.823 212.03,-131.138"/>
</g>
<!-- Node32&#45;&gt;Node8 -->
<g id="edge41" class="edge"><title>Node32&#45;&gt;Node8</title>
<path fill="none" stroke="midnightblue" d="M319.447,-169.924C284.702,-159.922 233.102,-139.729 254,-112 254.501,-111.335 338.817,-87.4119 383.663,-74.7247"/>
<polygon fill="midnightblue" stroke="midnightblue" points="384.696,-78.07 393.366,-71.9807 382.791,-71.3341 384.696,-78.07"/>
</g>
<!-- Node33&#45;&gt;Node2 -->
<g id="edge43" class="edge"><title>Node33&#45;&gt;Node2</title>
<path fill="none" stroke="midnightblue" d="M215.618,-229.819C208.321,-211.09 190.966,-166.546 181.127,-141.292"/>
<polygon fill="midnightblue" stroke="midnightblue" points="184.313,-139.829 177.422,-131.782 177.791,-142.37 184.313,-139.829"/>
</g>
</g>
</svg>
