<?xml version="1.0" encoding="UTF-8" standalone="no"?>
<!DOCTYPE svg PUBLIC "-//W3C//DTD SVG 1.1//EN"
 "http://www.w3.org/Graphics/SVG/1.1/DTD/svg11.dtd">
<!-- Generated by graphviz version 2.28.0 (20120425.2022)
 -->
<!-- Title: src/convectionSystem.h Pages: 1 -->
<svg width="1810pt" height="332pt"
 viewBox="0.00 0.00 1810.00 332.00" xmlns="http://www.w3.org/2000/svg" xmlns:xlink="http://www.w3.org/1999/xlink">
<g id="graph1" class="graph" transform="scale(1 1) rotate(0) translate(4 328)">
<title>src/convectionSystem.h</title>
<polygon fill="white" stroke="white" points="-4,5 -4,-328 1807,-328 1807,5 -4,5"/>
<!-- Node1 -->
<g id="node1" class="node"><title>Node1</title>
<polygon fill="#bfbfbf" stroke="black" points="1376.5,-304.5 1376.5,-323.5 1499.5,-323.5 1499.5,-304.5 1376.5,-304.5"/>
<text text-anchor="middle" x="1438" y="-311.5" font-family="FreeSans" font-size="10.00">src/convectionSystem.h</text>
</g>
<!-- Node2 -->
<g id="node3" class="node"><title>Node2</title>
<a xlink:href="mathUtils_8h.html" target="_top" xlink:title="mathUtils.h">
<polygon fill="white" stroke="black" points="1281.5,-112.5 1281.5,-131.5 1346.5,-131.5 1346.5,-112.5 1281.5,-112.5"/>
<text text-anchor="middle" x="1314" y="-119.5" font-family="FreeSans" font-size="10.00">mathUtils.h</text>
</a>
</g>
<!-- Node1&#45;&gt;Node2 -->
<g id="edge2" class="edge"><title>Node1&#45;&gt;Node2</title>
<path fill="none" stroke="midnightblue" d="M1406.11,-304.416C1362.06,-290.644 1284.27,-258.973 1251,-200 1244.01,-187.613 1244.49,-180.646 1251,-168 1258.08,-154.247 1271.52,-143.766 1284.18,-136.394"/>
<polygon fill="midnightblue" stroke="midnightblue" points="1286,-139.389 1293.15,-131.573 1282.69,-133.222 1286,-139.389"/>
</g>
<!-- Node11 -->
<g id="node23" class="node"><title>Node11</title>
<a xlink:href="sundialsUtils_8h.html" target="_top" xlink:title="sundialsUtils.h">
<polygon fill="white" stroke="black" points="784,-242.5 784,-261.5 864,-261.5 864,-242.5 784,-242.5"/>
<text text-anchor="middle" x="824" y="-249.5" font-family="FreeSans" font-size="10.00">sundialsUtils.h</text>
</a>
</g>
<!-- Node1&#45;&gt;Node11 -->
<g id="edge24" class="edge"><title>Node1&#45;&gt;Node11</title>
<path fill="none" stroke="midnightblue" d="M1376.32,-306.972C1254.67,-295.085 985.974,-268.828 874.252,-257.911"/>
<polygon fill="midnightblue" stroke="midnightblue" points="874.55,-254.423 864.257,-256.934 873.869,-261.39 874.55,-254.423"/>
</g>
<!-- Node22 -->
<g id="node47" class="node"><title>Node22</title>
<a xlink:href="grid_8h.html" target="_top" xlink:title="grid.h">
<polygon fill="white" stroke="black" points="1490.5,-242.5 1490.5,-261.5 1531.5,-261.5 1531.5,-242.5 1490.5,-242.5"/>
<text text-anchor="middle" x="1511" y="-249.5" font-family="FreeSans" font-size="10.00">grid.h</text>
</a>
</g>
<!-- Node1&#45;&gt;Node22 -->
<g id="edge50" class="edge"><title>Node1&#45;&gt;Node22</title>
<path fill="none" stroke="midnightblue" d="M1448.46,-304.403C1459.95,-294.958 1478.63,-279.606 1492.59,-268.134"/>
<polygon fill="midnightblue" stroke="midnightblue" points="1495.06,-270.634 1500.56,-261.581 1490.61,-265.226 1495.06,-270.634"/>
</g>
<!-- Node24 -->
<g id="node53" class="node"><title>Node24</title>
<a xlink:href="perfTimer_8h.html" target="_top" xlink:title="perfTimer.h">
<polygon fill="white" stroke="black" points="1404,-242.5 1404,-261.5 1472,-261.5 1472,-242.5 1404,-242.5"/>
<text text-anchor="middle" x="1438" y="-249.5" font-family="FreeSans" font-size="10.00">perfTimer.h</text>
</a>
</g>
<!-- Node1&#45;&gt;Node24 -->
<g id="edge58" class="edge"><title>Node1&#45;&gt;Node24</title>
<path fill="none" stroke="midnightblue" d="M1438,-304.403C1438,-295.938 1438,-282.728 1438,-271.82"/>
<polygon fill="midnightblue" stroke="midnightblue" points="1441.5,-271.581 1438,-261.581 1434.5,-271.581 1441.5,-271.581"/>
</g>
<!-- Node28 -->
<g id="node62" class="node"><title>Node28</title>
<a xlink:href="quasi2d_8h.html" target="_top" xlink:title="quasi2d.h">
<polygon fill="white" stroke="black" points="1322,-174.5 1322,-193.5 1382,-193.5 1382,-174.5 1322,-174.5"/>
<text text-anchor="middle" x="1352" y="-181.5" font-family="FreeSans" font-size="10.00">quasi2d.h</text>
</a>
</g>
<!-- Node1&#45;&gt;Node28 -->
<g id="edge68" class="edge"><title>Node1&#45;&gt;Node28</title>
<path fill="none" stroke="midnightblue" d="M1428.28,-304.373C1418.98,-295.778 1404.92,-281.892 1395,-268 1380.16,-247.223 1367.32,-220.632 1359.62,-203.222"/>
<polygon fill="midnightblue" stroke="midnightblue" points="1362.69,-201.505 1355.53,-193.703 1356.26,-204.272 1362.69,-201.505"/>
</g>
<!-- Node29 -->
<g id="node67" class="node"><title>Node29</title>
<polygon fill="white" stroke="#bfbfbf" points="1550,-242.5 1550,-261.5 1660,-261.5 1660,-242.5 1550,-242.5"/>
<text text-anchor="middle" x="1605" y="-249.5" font-family="FreeSans" font-size="10.00">boost/shared_ptr.hpp</text>
</g>
<!-- Node1&#45;&gt;Node29 -->
<g id="edge76" class="edge"><title>Node1&#45;&gt;Node29</title>
<path fill="none" stroke="midnightblue" d="M1461.93,-304.403C1490.7,-294.067 1539.16,-276.656 1571.6,-264.999"/>
<polygon fill="midnightblue" stroke="midnightblue" points="1572.89,-268.256 1581.12,-261.581 1570.52,-261.668 1572.89,-268.256"/>
</g>
<!-- Node30 -->
<g id="node69" class="node"><title>Node30</title>
<polygon fill="white" stroke="#bfbfbf" points="1678.5,-237 1678.5,-267 1779.5,-267 1779.5,-237 1678.5,-237"/>
<text text-anchor="start" x="1686.5" y="-255" font-family="FreeSans" font-size="10.00">boost/ptr_container</text>
<text text-anchor="middle" x="1729" y="-244" font-family="FreeSans" font-size="10.00">/ptr_vector.hpp</text>
</g>
<!-- Node1&#45;&gt;Node30 -->
<g id="edge78" class="edge"><title>Node1&#45;&gt;Node30</title>
<path fill="none" stroke="midnightblue" d="M1485.93,-304.423C1530.56,-296.265 1599.18,-283.293 1668.13,-268.126"/>
<polygon fill="midnightblue" stroke="midnightblue" points="1669.3,-271.452 1678.31,-265.873 1667.79,-264.618 1669.3,-271.452"/>
</g>
<!-- Node3 -->
<g id="node5" class="node"><title>Node3</title>
<polygon fill="white" stroke="#bfbfbf" points="1048,-56.5 1048,-75.5 1092,-75.5 1092,-56.5 1048,-56.5"/>
<text text-anchor="middle" x="1070" y="-63.5" font-family="FreeSans" font-size="10.00">vector</text>
</g>
<!-- Node2&#45;&gt;Node3 -->
<g id="edge4" class="edge"><title>Node2&#45;&gt;Node3</title>
<path fill="none" stroke="midnightblue" d="M1281.14,-114.23C1240.09,-105.692 1167.71,-90.385 1106,-76 1104.73,-75.7038 1103.43,-75.3982 1102.13,-75.0865"/>
<polygon fill="midnightblue" stroke="midnightblue" points="1102.6,-71.5998 1092.06,-72.6327 1100.94,-78.4008 1102.6,-71.5998"/>
</g>
<!-- Node4 -->
<g id="node7" class="node"><title>Node4</title>
<polygon fill="white" stroke="#bfbfbf" points="1369,-56.5 1369,-75.5 1413,-75.5 1413,-56.5 1369,-56.5"/>
<text text-anchor="middle" x="1391" y="-63.5" font-family="FreeSans" font-size="10.00">cmath</text>
</g>
<!-- Node2&#45;&gt;Node4 -->
<g id="edge6" class="edge"><title>Node2&#45;&gt;Node4</title>
<path fill="none" stroke="midnightblue" d="M1326.37,-112.324C1338.16,-104.058 1356.13,-91.4527 1370.14,-81.6322"/>
<polygon fill="midnightblue" stroke="midnightblue" points="1372.48,-84.2619 1378.66,-75.6545 1368.46,-78.5307 1372.48,-84.2619"/>
</g>
<!-- Node5 -->
<g id="node9" class="node"><title>Node5</title>
<polygon fill="white" stroke="#bfbfbf" points="1092,-0.5 1092,-19.5 1148,-19.5 1148,-0.5 1092,-0.5"/>
<text text-anchor="middle" x="1120" y="-7.5" font-family="FreeSans" font-size="10.00">iostream</text>
</g>
<!-- Node2&#45;&gt;Node5 -->
<g id="edge8" class="edge"><title>Node2&#45;&gt;Node5</title>
<path fill="none" stroke="midnightblue" d="M1281.34,-121.742C1242.3,-120.808 1177.43,-113.197 1139,-76 1126.6,-63.9998 1122.17,-44.3952 1120.65,-29.8495"/>
<polygon fill="midnightblue" stroke="midnightblue" points="1124.12,-29.2542 1119.96,-19.5108 1117.14,-29.7225 1124.12,-29.2542"/>
</g>
<!-- Node6 -->
<g id="node11" class="node"><title>Node6</title>
<polygon fill="white" stroke="#bfbfbf" points="1431.5,-56.5 1431.5,-75.5 1484.5,-75.5 1484.5,-56.5 1431.5,-56.5"/>
<text text-anchor="middle" x="1458" y="-63.5" font-family="FreeSans" font-size="10.00">sstream</text>
</g>
<!-- Node2&#45;&gt;Node6 -->
<g id="edge10" class="edge"><title>Node2&#45;&gt;Node6</title>
<path fill="none" stroke="midnightblue" d="M1336.82,-112.444C1360.83,-103.438 1398.83,-89.1891 1425.87,-79.049"/>
<polygon fill="midnightblue" stroke="midnightblue" points="1427.16,-82.3049 1435.29,-75.5164 1424.7,-75.7506 1427.16,-82.3049"/>
</g>
<!-- Node7 -->
<g id="node13" class="node"><title>Node7</title>
<polygon fill="white" stroke="#bfbfbf" points="1386.5,-0.5 1386.5,-19.5 1427.5,-19.5 1427.5,-0.5 1386.5,-0.5"/>
<text text-anchor="middle" x="1407" y="-7.5" font-family="FreeSans" font-size="10.00">string</text>
</g>
<!-- Node2&#45;&gt;Node7 -->
<g id="edge12" class="edge"><title>Node2&#45;&gt;Node7</title>
<path fill="none" stroke="midnightblue" d="M1299.82,-112.363C1281.15,-99.8964 1252.32,-76.1432 1267,-56 1291.9,-21.8397 1343.16,-13.0434 1376.26,-11.0912"/>
<polygon fill="midnightblue" stroke="midnightblue" points="1376.47,-14.5857 1386.31,-10.6744 1376.18,-7.59172 1376.47,-14.5857"/>
</g>
<!-- Node8 -->
<g id="node15" class="node"><title>Node8</title>
<polygon fill="white" stroke="#bfbfbf" points="1503,-56.5 1503,-75.5 1539,-75.5 1539,-56.5 1503,-56.5"/>
<text text-anchor="middle" x="1521" y="-63.5" font-family="FreeSans" font-size="10.00">map</text>
</g>
<!-- Node2&#45;&gt;Node8 -->
<g id="edge14" class="edge"><title>Node2&#45;&gt;Node8</title>
<path fill="none" stroke="midnightblue" d="M1346.51,-113.497C1382.5,-105.033 1442.17,-90.5425 1493,-76 1493.1,-75.971 1493.2,-75.9419 1493.3,-75.9128"/>
<polygon fill="midnightblue" stroke="midnightblue" points="1494.42,-79.2312 1502.98,-72.9821 1492.39,-72.5319 1494.42,-79.2312"/>
</g>
<!-- Node9 -->
<g id="node17" class="node"><title>Node9</title>
<a xlink:href="debugUtils_8h.html" target="_top" xlink:title="debugUtils.h">
<polygon fill="white" stroke="red" points="1148.5,-56.5 1148.5,-75.5 1219.5,-75.5 1219.5,-56.5 1148.5,-56.5"/>
<text text-anchor="middle" x="1184" y="-63.5" font-family="FreeSans" font-size="10.00">debugUtils.h</text>
</a>
</g>
<!-- Node2&#45;&gt;Node9 -->
<g id="edge16" class="edge"><title>Node2&#45;&gt;Node9</title>
<path fill="none" stroke="midnightblue" d="M1293.4,-112.444C1272.01,-103.557 1238.32,-89.5632 1213.98,-79.4514"/>
<polygon fill="midnightblue" stroke="midnightblue" points="1215.08,-76.1203 1204.5,-75.5164 1212.39,-82.5848 1215.08,-76.1203"/>
</g>
<!-- Node10 -->
<g id="node21" class="node"><title>Node10</title>
<polygon fill="white" stroke="#bfbfbf" points="1276.5,-56.5 1276.5,-75.5 1351.5,-75.5 1351.5,-56.5 1276.5,-56.5"/>
<text text-anchor="middle" x="1314" y="-63.5" font-family="FreeSans" font-size="10.00">Eigen/Dense</text>
</g>
<!-- Node2&#45;&gt;Node10 -->
<g id="edge22" class="edge"><title>Node2&#45;&gt;Node10</title>
<path fill="none" stroke="midnightblue" d="M1314,-112.083C1314,-105.006 1314,-94.8611 1314,-85.9865"/>
<polygon fill="midnightblue" stroke="midnightblue" points="1317.5,-85.751 1314,-75.7511 1310.5,-85.7511 1317.5,-85.751"/>
</g>
<!-- Node9&#45;&gt;Node5 -->
<g id="edge20" class="edge"><title>Node9&#45;&gt;Node5</title>
<path fill="none" stroke="midnightblue" d="M1173.72,-56.324C1164.16,-48.2631 1149.72,-36.0765 1138.22,-26.3695"/>
<polygon fill="midnightblue" stroke="midnightblue" points="1140.37,-23.6076 1130.47,-19.8339 1135.86,-28.9577 1140.37,-23.6076"/>
</g>
<!-- Node9&#45;&gt;Node7 -->
<g id="edge18" class="edge"><title>Node9&#45;&gt;Node7</title>
<path fill="none" stroke="midnightblue" d="M1219.34,-56.4435C1262.61,-45.9655 1335.19,-28.3888 1376.25,-18.445"/>
<polygon fill="midnightblue" stroke="midnightblue" points="1377.33,-21.7868 1386.22,-16.0315 1375.68,-14.9834 1377.33,-21.7868"/>
</g>
<!-- Node11&#45;&gt;Node3 -->
<g id="edge46" class="edge"><title>Node11&#45;&gt;Node3</title>
<path fill="none" stroke="midnightblue" d="M864.4,-246.109C918.416,-238.768 1010.15,-223.236 1034,-200 1065.32,-169.484 1070.27,-114.727 1070.54,-85.9132"/>
<polygon fill="midnightblue" stroke="midnightblue" points="1074.03,-85.5778 1070.44,-75.612 1067.03,-85.6452 1074.03,-85.5778"/>
</g>
<!-- Node11&#45;&gt;Node5 -->
<g id="edge44" class="edge"><title>Node11&#45;&gt;Node5</title>
<path fill="none" stroke="midnightblue" d="M864.264,-250.208C904.12,-247.219 964.214,-236.42 1000,-200 1046.47,-152.705 998.133,-108.214 1039,-56 1050.41,-41.4179 1067.94,-30.8512 1083.77,-23.6371"/>
<polygon fill="midnightblue" stroke="midnightblue" points="1085.51,-26.7031 1093.34,-19.5726 1082.77,-20.2601 1085.51,-26.7031"/>
</g>
<!-- Node12 -->
<g id="node25" class="node"><title>Node12</title>
<polygon fill="white" stroke="#bfbfbf" points="314.5,-174.5 314.5,-193.5 437.5,-193.5 437.5,-174.5 314.5,-174.5"/>
<text text-anchor="middle" x="376" y="-181.5" font-family="FreeSans" font-size="10.00">nvector/nvector_serial.h</text>
</g>
<!-- Node11&#45;&gt;Node12 -->
<g id="edge26" class="edge"><title>Node11&#45;&gt;Node12</title>
<path fill="none" stroke="midnightblue" d="M783.954,-246.566C714.93,-238.705 569.189,-221.142 447,-200 439.49,-198.701 431.566,-197.178 423.841,-195.61"/>
<polygon fill="midnightblue" stroke="midnightblue" points="424.356,-192.142 413.853,-193.537 422.933,-198.996 424.356,-192.142"/>
</g>
<!-- Node13 -->
<g id="node27" class="node"><title>Node13</title>
<polygon fill="white" stroke="#bfbfbf" points="456,-174.5 456,-193.5 592,-193.5 592,-174.5 456,-174.5"/>
<text text-anchor="middle" x="524" y="-181.5" font-family="FreeSans" font-size="10.00">sundials/sundials_dense.h</text>
</g>
<!-- Node11&#45;&gt;Node13 -->
<g id="edge28" class="edge"><title>Node11&#45;&gt;Node13</title>
<path fill="none" stroke="midnightblue" d="M785.088,-242.439C730.685,-230.471 631.929,-208.744 572.708,-195.716"/>
<polygon fill="midnightblue" stroke="midnightblue" points="573.362,-192.276 562.843,-193.546 571.858,-199.112 573.362,-192.276"/>
</g>
<!-- Node14 -->
<g id="node29" class="node"><title>Node14</title>
<polygon fill="white" stroke="#bfbfbf" points="610,-174.5 610,-193.5 740,-193.5 740,-174.5 610,-174.5"/>
<text text-anchor="middle" x="675" y="-181.5" font-family="FreeSans" font-size="10.00">sundials/sundials_band.h</text>
</g>
<!-- Node11&#45;&gt;Node14 -->
<g id="edge30" class="edge"><title>Node11&#45;&gt;Node14</title>
<path fill="none" stroke="midnightblue" d="M804.521,-242.372C778.865,-231.007 733.541,-210.931 703.888,-197.796"/>
<polygon fill="midnightblue" stroke="midnightblue" points="705.045,-194.48 694.484,-193.63 702.21,-200.881 705.045,-194.48"/>
</g>
<!-- Node15 -->
<g id="node31" class="node"><title>Node15</title>
<polygon fill="white" stroke="#bfbfbf" points="758.5,-174.5 758.5,-193.5 889.5,-193.5 889.5,-174.5 758.5,-174.5"/>
<text text-anchor="middle" x="824" y="-181.5" font-family="FreeSans" font-size="10.00">sundials/sundials_types.h</text>
</g>
<!-- Node11&#45;&gt;Node15 -->
<g id="edge32" class="edge"><title>Node11&#45;&gt;Node15</title>
<path fill="none" stroke="midnightblue" d="M824,-242.372C824,-232.643 824,-216.528 824,-203.85"/>
<polygon fill="midnightblue" stroke="midnightblue" points="827.5,-203.841 824,-193.841 820.5,-203.841 827.5,-203.841"/>
</g>
<!-- Node16 -->
<g id="node33" class="node"><title>Node16</title>
<polygon fill="white" stroke="#bfbfbf" points="908,-174.5 908,-193.5 992,-193.5 992,-174.5 908,-174.5"/>
<text text-anchor="middle" x="950" y="-181.5" font-family="FreeSans" font-size="10.00">cvode/cvode.h</text>
</g>
<!-- Node11&#45;&gt;Node16 -->
<g id="edge34" class="edge"><title>Node11&#45;&gt;Node16</title>
<path fill="none" stroke="midnightblue" d="M840.472,-242.372C861.885,-231.156 899.499,-211.453 924.583,-198.314"/>
<polygon fill="midnightblue" stroke="midnightblue" points="926.289,-201.371 933.524,-193.63 923.041,-195.17 926.289,-201.371"/>
</g>
<!-- Node17 -->
<g id="node35" class="node"><title>Node17</title>
<polygon fill="white" stroke="#bfbfbf" points="1086,-174.5 1086,-193.5 1204,-193.5 1204,-174.5 1086,-174.5"/>
<text text-anchor="middle" x="1145" y="-181.5" font-family="FreeSans" font-size="10.00">cvode/cvode_dense.h</text>
</g>
<!-- Node11&#45;&gt;Node17 -->
<g id="edge36" class="edge"><title>Node11&#45;&gt;Node17</title>
<path fill="none" stroke="midnightblue" d="M864.006,-242.775C922.075,-230.835 1029.74,-208.699 1093.61,-195.566"/>
<polygon fill="midnightblue" stroke="midnightblue" points="1094.38,-198.981 1103.47,-193.539 1092.97,-192.124 1094.38,-198.981"/>
</g>
<!-- Node18 -->
<g id="node37" class="node"><title>Node18</title>
<polygon fill="white" stroke="#bfbfbf" points="0,-174.5 0,-193.5 112,-193.5 112,-174.5 0,-174.5"/>
<text text-anchor="middle" x="56" y="-181.5" font-family="FreeSans" font-size="10.00">cvode/cvode_band.h</text>
</g>
<!-- Node11&#45;&gt;Node18 -->
<g id="edge38" class="edge"><title>Node11&#45;&gt;Node18</title>
<path fill="none" stroke="midnightblue" d="M783.732,-250.251C675.786,-247.774 371.173,-237.71 121,-200 113.678,-198.896 105.959,-197.408 98.4975,-195.797"/>
<polygon fill="midnightblue" stroke="midnightblue" points="99.0702,-192.338 88.5446,-193.547 97.5269,-199.166 99.0702,-192.338"/>
</g>
<!-- Node19 -->
<g id="node39" class="node"><title>Node19</title>
<polygon fill="white" stroke="#bfbfbf" points="130,-174.5 130,-193.5 186,-193.5 186,-174.5 130,-174.5"/>
<text text-anchor="middle" x="158" y="-181.5" font-family="FreeSans" font-size="10.00">ida/ida.h</text>
</g>
<!-- Node11&#45;&gt;Node19 -->
<g id="edge40" class="edge"><title>Node11&#45;&gt;Node19</title>
<path fill="none" stroke="midnightblue" d="M783.733,-249.39C663.221,-244.313 306.777,-227.334 194,-200 191.004,-199.274 187.935,-198.331 184.913,-197.273"/>
<polygon fill="midnightblue" stroke="midnightblue" points="186.16,-194.002 175.572,-193.617 183.609,-200.521 186.16,-194.002"/>
</g>
<!-- Node20 -->
<g id="node41" class="node"><title>Node20</title>
<polygon fill="white" stroke="#bfbfbf" points="203.5,-174.5 203.5,-193.5 296.5,-193.5 296.5,-174.5 203.5,-174.5"/>
<text text-anchor="middle" x="250" y="-181.5" font-family="FreeSans" font-size="10.00">ida/ida_spbcgs.h</text>
</g>
<!-- Node11&#45;&gt;Node20 -->
<g id="edge42" class="edge"><title>Node11&#45;&gt;Node20</title>
<path fill="none" stroke="midnightblue" d="M783.963,-249.363C696.437,-245.283 481.747,-232.546 305,-200 299.403,-198.969 293.546,-197.645 287.827,-196.211"/>
<polygon fill="midnightblue" stroke="midnightblue" points="288.333,-192.724 277.77,-193.55 286.543,-199.491 288.333,-192.724"/>
</g>
<!-- Node21 -->
<g id="node45" class="node"><title>Node21</title>
<polygon fill="white" stroke="#bfbfbf" points="1260.5,-174.5 1260.5,-193.5 1303.5,-193.5 1303.5,-174.5 1260.5,-174.5"/>
<text text-anchor="middle" x="1282" y="-181.5" font-family="FreeSans" font-size="10.00">time.h</text>
</g>
<!-- Node11&#45;&gt;Node21 -->
<g id="edge48" class="edge"><title>Node11&#45;&gt;Node21</title>
<path fill="none" stroke="midnightblue" d="M864.207,-246.852C934.986,-239.299 1086.34,-222.031 1213,-200 1225.33,-197.855 1238.8,-195.036 1250.54,-192.42"/>
<polygon fill="midnightblue" stroke="midnightblue" points="1251.36,-195.823 1260.34,-190.197 1249.81,-188.997 1251.36,-195.823"/>
</g>
<!-- Node23 -->
<g id="node49" class="node"><title>Node23</title>
<a xlink:href="readConfig_8h.html" target="_top" xlink:title="readConfig.h">
<polygon fill="white" stroke="black" points="1728,-174.5 1728,-193.5 1802,-193.5 1802,-174.5 1728,-174.5"/>
<text text-anchor="middle" x="1765" y="-181.5" font-family="FreeSans" font-size="10.00">readConfig.h</text>
</a>
</g>
<!-- Node22&#45;&gt;Node23 -->
<g id="edge52" class="edge"><title>Node22&#45;&gt;Node23</title>
<path fill="none" stroke="midnightblue" d="M1526.23,-242.414C1530.87,-240.07 1536.05,-237.709 1541,-236 1616.89,-209.823 1640.31,-220.233 1718,-200 1721.9,-198.985 1725.95,-197.836 1729.97,-196.638"/>
<polygon fill="midnightblue" stroke="midnightblue" points="1731.26,-199.902 1739.78,-193.603 1729.19,-193.215 1731.26,-199.902"/>
</g>
<!-- Node23&#45;&gt;Node2 -->
<g id="edge54" class="edge"><title>Node23&#45;&gt;Node2</title>
<path fill="none" stroke="midnightblue" d="M1741.34,-174.441C1733.94,-172.041 1725.71,-169.642 1718,-168 1588.23,-140.351 1431.18,-129.042 1356.9,-124.986"/>
<polygon fill="midnightblue" stroke="midnightblue" points="1356.73,-121.472 1346.55,-124.439 1356.36,-128.462 1356.73,-121.472"/>
</g>
<!-- Node23&#45;&gt;Node7 -->
<g id="edge56" class="edge"><title>Node23&#45;&gt;Node7</title>
<path fill="none" stroke="midnightblue" d="M1753.87,-174.338C1724.46,-151.819 1641.6,-90.7755 1564,-56 1522.04,-37.1949 1470.24,-24.157 1437.9,-17.1257"/>
<polygon fill="midnightblue" stroke="midnightblue" points="1438.23,-13.6182 1427.73,-14.9718 1436.78,-20.4665 1438.23,-13.6182"/>
</g>
<!-- Node24&#45;&gt;Node21 -->
<g id="edge66" class="edge"><title>Node24&#45;&gt;Node21</title>
<path fill="none" stroke="midnightblue" d="M1415.69,-242.391C1390.55,-232.575 1348.54,-215.83 1313,-200 1311.6,-199.377 1310.17,-198.728 1308.73,-198.065"/>
<polygon fill="midnightblue" stroke="midnightblue" points="1309.83,-194.711 1299.29,-193.604 1306.84,-201.041 1309.83,-194.711"/>
</g>
<!-- Node25 -->
<g id="node55" class="node"><title>Node25</title>
<polygon fill="white" stroke="#bfbfbf" points="1400,-174.5 1400,-193.5 1492,-193.5 1492,-174.5 1400,-174.5"/>
<text text-anchor="middle" x="1446" y="-181.5" font-family="FreeSans" font-size="10.00">tbb/combinable.h</text>
</g>
<!-- Node24&#45;&gt;Node25 -->
<g id="edge60" class="edge"><title>Node24&#45;&gt;Node25</title>
<path fill="none" stroke="midnightblue" d="M1439.05,-242.372C1440.23,-232.643 1442.18,-216.528 1443.72,-203.85"/>
<polygon fill="midnightblue" stroke="midnightblue" points="1447.2,-204.19 1444.93,-193.841 1440.25,-203.347 1447.2,-204.19"/>
</g>
<!-- Node26 -->
<g id="node57" class="node"><title>Node26</title>
<polygon fill="white" stroke="#bfbfbf" points="1510.5,-169 1510.5,-199 1629.5,-199 1629.5,-169 1510.5,-169"/>
<text text-anchor="start" x="1518.5" y="-187" font-family="FreeSans" font-size="10.00">tbb/enumerable_thread</text>
<text text-anchor="middle" x="1570" y="-176" font-family="FreeSans" font-size="10.00">_specific.h</text>
</g>
<!-- Node24&#45;&gt;Node26 -->
<g id="edge62" class="edge"><title>Node24&#45;&gt;Node26</title>
<path fill="none" stroke="midnightblue" d="M1455.26,-242.372C1474.86,-232.569 1507.43,-216.283 1532.87,-203.563"/>
<polygon fill="midnightblue" stroke="midnightblue" points="1534.51,-206.659 1541.89,-199.056 1531.38,-200.398 1534.51,-206.659"/>
</g>
<!-- Node27 -->
<g id="node59" class="node"><title>Node27</title>
<polygon fill="white" stroke="#bfbfbf" points="1648,-174.5 1648,-193.5 1710,-193.5 1710,-174.5 1648,-174.5"/>
<text text-anchor="middle" x="1679" y="-181.5" font-family="FreeSans" font-size="10.00">sys/time.h</text>
</g>
<!-- Node24&#45;&gt;Node27 -->
<g id="edge64" class="edge"><title>Node24&#45;&gt;Node27</title>
<path fill="none" stroke="midnightblue" d="M1461.06,-242.431C1467.47,-240.193 1474.47,-237.882 1481,-236 1549.79,-216.18 1569.36,-220.338 1638,-200 1641.12,-199.074 1644.36,-198.036 1647.57,-196.95"/>
<polygon fill="midnightblue" stroke="midnightblue" points="1648.77,-200.237 1657.04,-193.609 1646.45,-193.635 1648.77,-200.237"/>
</g>
<!-- Node28&#45;&gt;Node2 -->
<g id="edge70" class="edge"><title>Node28&#45;&gt;Node2</title>
<path fill="none" stroke="midnightblue" d="M1346.56,-174.403C1340.91,-165.493 1331.94,-151.325 1324.84,-140.118"/>
<polygon fill="midnightblue" stroke="midnightblue" points="1327.74,-138.156 1319.43,-131.581 1321.83,-141.901 1327.74,-138.156"/>
</g>
<!-- Node28&#45;&gt;Node7 -->
<g id="edge72" class="edge"><title>Node28&#45;&gt;Node7</title>
<path fill="none" stroke="midnightblue" d="M1373.99,-174.436C1421.08,-155.591 1528.94,-109.538 1548,-76 1572.88,-32.224 1486.38,-17.7249 1437.8,-13.0849"/>
<polygon fill="midnightblue" stroke="midnightblue" points="1438.04,-9.59283 1427.77,-12.2151 1437.43,-16.5666 1438.04,-9.59283"/>
</g>
<!-- Node28&#45;&gt;Node8 -->
<g id="edge74" class="edge"><title>Node28&#45;&gt;Node8</title>
<path fill="none" stroke="midnightblue" d="M1364.43,-174.47C1393.12,-154.778 1464.23,-105.964 1499.9,-81.484"/>
<polygon fill="midnightblue" stroke="midnightblue" points="1502.29,-84.087 1508.55,-75.5423 1498.33,-78.3157 1502.29,-84.087"/>
</g>
</g>
</svg>
