<?xml version="1.0" encoding="UTF-8" standalone="no"?>
<!DOCTYPE svg PUBLIC "-//W3C//DTD SVG 1.1//EN"
 "http://www.w3.org/Graphics/SVG/1.1/DTD/svg11.dtd">
<!-- Generated by graphviz version 2.28.0 (20120425.2022)
 -->
<!-- Title: src/dataFile.cpp Pages: 1 -->
<svg width="185pt" height="252pt"
 viewBox="0.00 0.00 184.70 252.00" xmlns="http://www.w3.org/2000/svg" xmlns:xlink="http://www.w3.org/1999/xlink">
<g id="graph1" class="graph" transform="scale(1 1) rotate(0) translate(4 248)">
<title>src/dataFile.cpp</title>
<polygon fill="white" stroke="white" points="-4,5 -4,-248 181.704,-248 181.704,5 -4,5"/>
<!-- Node1 -->
<g id="node1" class="node"><title>Node1</title>
<polygon fill="#bfbfbf" stroke="black" points="88.7044,-224.5 88.7044,-243.5 176.704,-243.5 176.704,-224.5 88.7044,-224.5"/>
<text text-anchor="middle" x="132.704" y="-231.5" font-family="FreeSans" font-size="10.00">src/dataFile.cpp</text>
</g>
<!-- Node2 -->
<g id="node3" class="node"><title>Node2</title>
<a xlink:href="dataFile_8h.html" target="_top" xlink:title="dataFile.h">
<polygon fill="white" stroke="black" points="36.2044,-168.5 36.2044,-187.5 97.2044,-187.5 97.2044,-168.5 36.2044,-168.5"/>
<text text-anchor="middle" x="66.7044" y="-175.5" font-family="FreeSans" font-size="10.00">dataFile.h</text>
</a>
</g>
<!-- Node1&#45;&gt;Node2 -->
<g id="edge2" class="edge"><title>Node1&#45;&gt;Node2</title>
<path fill="none" stroke="midnightblue" d="M122.1,-224.324C112.248,-216.263 97.3534,-204.077 85.4893,-194.369"/>
<polygon fill="midnightblue" stroke="midnightblue" points="87.4573,-191.457 77.5014,-187.834 83.0246,-196.875 87.4573,-191.457"/>
</g>
<!-- Node6 -->
<g id="node12" class="node"><title>Node6</title>
<a xlink:href="debugUtils_8h.html" target="_top" xlink:title="debugUtils.h">
<polygon fill="white" stroke="red" points="100.204,-56.5 100.204,-75.5 171.204,-75.5 171.204,-56.5 100.204,-56.5"/>
<text text-anchor="middle" x="135.704" y="-63.5" font-family="FreeSans" font-size="10.00">debugUtils.h</text>
</a>
</g>
<!-- Node1&#45;&gt;Node6 -->
<g id="edge16" class="edge"><title>Node1&#45;&gt;Node6</title>
<path fill="none" stroke="midnightblue" d="M135.069,-224.488C140.258,-204.726 151.787,-154.201 146.704,-112 145.633,-103.107 143.412,-93.4344 141.244,-85.344"/>
<polygon fill="midnightblue" stroke="midnightblue" points="144.548,-84.1668 138.434,-75.5139 137.818,-86.0908 144.548,-84.1668"/>
</g>
<!-- Node3 -->
<g id="node5" class="node"><title>Node3</title>
<polygon fill="white" stroke="#bfbfbf" points="51.2044,-0.5 51.2044,-19.5 92.2044,-19.5 92.2044,-0.5 51.2044,-0.5"/>
<text text-anchor="middle" x="71.7044" y="-7.5" font-family="FreeSans" font-size="10.00">string</text>
</g>
<!-- Node2&#45;&gt;Node3 -->
<g id="edge4" class="edge"><title>Node2&#45;&gt;Node3</title>
<path fill="none" stroke="midnightblue" d="M45.2218,-168.36C30.3128,-161.09 11.5936,-149.117 2.70437,-132 -1.39235,-124.111 0.0803288,-120.493 2.70437,-112 13.1346,-78.2424 39.1524,-45.7025 56.0908,-27.0564"/>
<polygon fill="midnightblue" stroke="midnightblue" points="58.6642,-29.4287 62.9341,-19.7323 53.5495,-24.6496 58.6642,-29.4287"/>
</g>
<!-- Node4 -->
<g id="node7" class="node"><title>Node4</title>
<polygon fill="white" stroke="#bfbfbf" points="12.2044,-112.5 12.2044,-131.5 55.2044,-131.5 55.2044,-112.5 12.2044,-112.5"/>
<text text-anchor="middle" x="33.7044" y="-119.5" font-family="FreeSans" font-size="10.00">hdf5.h</text>
</g>
<!-- Node2&#45;&gt;Node4 -->
<g id="edge6" class="edge"><title>Node2&#45;&gt;Node4</title>
<path fill="none" stroke="midnightblue" d="M61.2551,-168.083C56.6899,-160.613 50.036,-149.724 44.411,-140.52"/>
<polygon fill="midnightblue" stroke="midnightblue" points="47.2533,-138.459 39.0523,-131.751 41.2803,-142.109 47.2533,-138.459"/>
</g>
<!-- Node5 -->
<g id="node9" class="node"><title>Node5</title>
<a xlink:href="mathUtils_8h.html" target="_top" xlink:title="mathUtils.h">
<polygon fill="white" stroke="red" points="73.2044,-112.5 73.2044,-131.5 138.204,-131.5 138.204,-112.5 73.2044,-112.5"/>
<text text-anchor="middle" x="105.704" y="-119.5" font-family="FreeSans" font-size="10.00">mathUtils.h</text>
</a>
</g>
<!-- Node2&#45;&gt;Node5 -->
<g id="edge8" class="edge"><title>Node2&#45;&gt;Node5</title>
<path fill="none" stroke="midnightblue" d="M73.1444,-168.083C78.6532,-160.455 86.7356,-149.264 93.4693,-139.941"/>
<polygon fill="midnightblue" stroke="midnightblue" points="96.3666,-141.907 99.3842,-131.751 90.6918,-137.809 96.3666,-141.907"/>
</g>
<!-- Node5&#45;&gt;Node3 -->
<g id="edge10" class="edge"><title>Node5&#45;&gt;Node3</title>
<path fill="none" stroke="midnightblue" d="M102.733,-112.404C99.6351,-103.371 94.6859,-88.7329 90.7044,-76 85.8249,-60.3956 80.6401,-42.564 76.9215,-29.5295"/>
<polygon fill="midnightblue" stroke="midnightblue" points="80.276,-28.5294 74.1816,-19.8629 73.5413,-30.4384 80.276,-28.5294"/>
</g>
<!-- Node5&#45;&gt;Node6 -->
<g id="edge12" class="edge"><title>Node5&#45;&gt;Node6</title>
<path fill="none" stroke="midnightblue" d="M110.658,-112.083C114.808,-104.613 120.857,-93.7244 125.971,-84.5199"/>
<polygon fill="midnightblue" stroke="midnightblue" points="129.046,-86.1924 130.843,-75.7511 122.927,-82.7929 129.046,-86.1924"/>
</g>
<!-- Node6&#45;&gt;Node3 -->
<g id="edge14" class="edge"><title>Node6&#45;&gt;Node3</title>
<path fill="none" stroke="midnightblue" d="M125.422,-56.324C115.868,-48.2631 101.425,-36.0765 89.92,-26.3695"/>
<polygon fill="midnightblue" stroke="midnightblue" points="92.0742,-23.6076 82.1742,-19.8339 87.5601,-28.9577 92.0742,-23.6076"/>
</g>
</g>
</svg>
