<?xml version="1.0" encoding="UTF-8" standalone="no"?>
<!DOCTYPE svg PUBLIC "-//W3C//DTD SVG 1.1//EN"
 "http://www.w3.org/Graphics/SVG/1.1/DTD/svg11.dtd">
<!-- Generated by graphviz version 2.28.0 (20120425.2022)
 -->
<!-- Title: G Pages: 1 -->
<svg width="490pt" height="196pt"
 viewBox="0.00 0.00 490.42 196.00" xmlns="http://www.w3.org/2000/svg" xmlns:xlink="http://www.w3.org/1999/xlink">
<g id="graph1" class="graph" transform="scale(1 1) rotate(0) translate(4 192)">
<title>G</title>
<polygon fill="white" stroke="white" points="-4,5 -4,-192 487.415,-192 487.415,5 -4,5"/>
<!-- Node1 -->
<g id="node1" class="node"><title>Node1</title>
<polygon fill="#bfbfbf" stroke="black" points="346.58,-168.5 346.58,-187.5 423.58,-187.5 423.58,-168.5 346.58,-168.5"/>
<text text-anchor="middle" x="385.08" y="-175.5" font-family="FreeSans" font-size="10.00">src/dataFile.h</text>
</g>
<!-- Node2 -->
<g id="node3" class="node"><title>Node2</title>
<polygon fill="white" stroke="#bfbfbf" points="342.58,-0.5 342.58,-19.5 383.58,-19.5 383.58,-0.5 342.58,-0.5"/>
<text text-anchor="middle" x="363.08" y="-7.5" font-family="FreeSans" font-size="10.00">string</text>
</g>
<!-- Node1&#45;&gt;Node2 -->
<g id="edge2" class="edge"><title>Node1&#45;&gt;Node2</title>
<path fill="none" stroke="midnightblue" d="M400.325,-168.391C432.977,-148.832 504.402,-99.3814 475.08,-56 457.054,-29.3313 420.336,-18.465 393.847,-14.039"/>
<polygon fill="midnightblue" stroke="midnightblue" points="394.307,-10.5691 383.907,-12.595 393.3,-17.4963 394.307,-10.5691"/>
</g>
<!-- Node3 -->
<g id="node5" class="node"><title>Node3</title>
<polygon fill="white" stroke="#bfbfbf" points="363.58,-112.5 363.58,-131.5 406.58,-131.5 406.58,-112.5 363.58,-112.5"/>
<text text-anchor="middle" x="385.08" y="-119.5" font-family="FreeSans" font-size="10.00">hdf5.h</text>
</g>
<!-- Node1&#45;&gt;Node3 -->
<g id="edge4" class="edge"><title>Node1&#45;&gt;Node3</title>
<path fill="none" stroke="midnightblue" d="M385.08,-168.083C385.08,-161.006 385.08,-150.861 385.08,-141.986"/>
<polygon fill="midnightblue" stroke="midnightblue" points="388.58,-141.751 385.08,-131.751 381.58,-141.751 388.58,-141.751"/>
</g>
<!-- Node4 -->
<g id="node7" class="node"><title>Node4</title>
<a xlink:href="mathUtils_8h.html" target="_top" xlink:title="mathUtils.h">
<polygon fill="white" stroke="black" points="221.58,-112.5 221.58,-131.5 286.58,-131.5 286.58,-112.5 221.58,-112.5"/>
<text text-anchor="middle" x="254.08" y="-119.5" font-family="FreeSans" font-size="10.00">mathUtils.h</text>
</a>
</g>
<!-- Node1&#45;&gt;Node4 -->
<g id="edge6" class="edge"><title>Node1&#45;&gt;Node4</title>
<path fill="none" stroke="midnightblue" d="M364.323,-168.444C342.764,-159.557 308.817,-145.563 284.286,-135.451"/>
<polygon fill="midnightblue" stroke="midnightblue" points="285.319,-132.092 274.74,-131.516 282.652,-138.563 285.319,-132.092"/>
</g>
<!-- Node4&#45;&gt;Node2 -->
<g id="edge16" class="edge"><title>Node4&#45;&gt;Node2</title>
<path fill="none" stroke="midnightblue" d="M285.261,-112.476C304.762,-105.626 328.964,-94.1018 344.08,-76 355.021,-62.898 359.663,-43.7503 361.632,-29.6286"/>
<polygon fill="midnightblue" stroke="midnightblue" points="365.122,-29.9082 362.707,-19.5923 358.162,-29.1627 365.122,-29.9082"/>
</g>
<!-- Node5 -->
<g id="node9" class="node"><title>Node5</title>
<polygon fill="white" stroke="#bfbfbf" points="14.08,-56.5 14.08,-75.5 58.08,-75.5 58.08,-56.5 14.08,-56.5"/>
<text text-anchor="middle" x="36.08" y="-63.5" font-family="FreeSans" font-size="10.00">vector</text>
</g>
<!-- Node4&#45;&gt;Node5 -->
<g id="edge8" class="edge"><title>Node4&#45;&gt;Node5</title>
<path fill="none" stroke="midnightblue" d="M221.534,-113.651C186.108,-105.545 127.569,-91.844 68.2983,-76.2368"/>
<polygon fill="midnightblue" stroke="midnightblue" points="68.9594,-72.7912 58.3965,-73.6131 67.1665,-79.5577 68.9594,-72.7912"/>
</g>
<!-- Node6 -->
<g id="node11" class="node"><title>Node6</title>
<polygon fill="white" stroke="#bfbfbf" points="76.08,-56.5 76.08,-75.5 120.08,-75.5 120.08,-56.5 76.08,-56.5"/>
<text text-anchor="middle" x="98.08" y="-63.5" font-family="FreeSans" font-size="10.00">cmath</text>
</g>
<!-- Node4&#45;&gt;Node6 -->
<g id="edge10" class="edge"><title>Node4&#45;&gt;Node6</title>
<path fill="none" stroke="midnightblue" d="M229.361,-112.444C202.463,-103.133 159.371,-88.2163 129.949,-78.0315"/>
<polygon fill="midnightblue" stroke="midnightblue" points="130.755,-74.607 120.161,-74.6433 128.466,-81.222 130.755,-74.607"/>
</g>
<!-- Node7 -->
<g id="node13" class="node"><title>Node7</title>
<polygon fill="white" stroke="#bfbfbf" points="52.08,-0.5 52.08,-19.5 108.08,-19.5 108.08,-0.5 52.08,-0.5"/>
<text text-anchor="middle" x="80.08" y="-7.5" font-family="FreeSans" font-size="10.00">iostream</text>
</g>
<!-- Node4&#45;&gt;Node7 -->
<g id="edge12" class="edge"><title>Node4&#45;&gt;Node7</title>
<path fill="none" stroke="midnightblue" d="M221.2,-120.076C159.983,-117.589 32.2598,-108.532 5.07999,-76 -12.115,-55.4189 19.3241,-35.8362 46.6145,-23.646"/>
<polygon fill="midnightblue" stroke="midnightblue" points="48.1742,-26.7861 56.0079,-19.6529 45.4356,-20.344 48.1742,-26.7861"/>
</g>
<!-- Node8 -->
<g id="node15" class="node"><title>Node8</title>
<polygon fill="white" stroke="#bfbfbf" points="227.58,-56.5 227.58,-75.5 280.58,-75.5 280.58,-56.5 227.58,-56.5"/>
<text text-anchor="middle" x="254.08" y="-63.5" font-family="FreeSans" font-size="10.00">sstream</text>
</g>
<!-- Node4&#45;&gt;Node8 -->
<g id="edge14" class="edge"><title>Node4&#45;&gt;Node8</title>
<path fill="none" stroke="midnightblue" d="M254.08,-112.083C254.08,-105.006 254.08,-94.8611 254.08,-85.9865"/>
<polygon fill="midnightblue" stroke="midnightblue" points="257.58,-85.751 254.08,-75.7511 250.58,-85.7511 257.58,-85.751"/>
</g>
<!-- Node9 -->
<g id="node18" class="node"><title>Node9</title>
<polygon fill="white" stroke="#bfbfbf" points="299.08,-56.5 299.08,-75.5 335.08,-75.5 335.08,-56.5 299.08,-56.5"/>
<text text-anchor="middle" x="317.08" y="-63.5" font-family="FreeSans" font-size="10.00">map</text>
</g>
<!-- Node4&#45;&gt;Node9 -->
<g id="edge18" class="edge"><title>Node4&#45;&gt;Node9</title>
<path fill="none" stroke="midnightblue" d="M264.202,-112.324C273.606,-104.263 287.824,-92.0765 299.149,-82.3695"/>
<polygon fill="midnightblue" stroke="midnightblue" points="301.459,-84.9993 306.774,-75.8339 296.903,-79.6844 301.459,-84.9993"/>
</g>
<!-- Node10 -->
<g id="node20" class="node"><title>Node10</title>
<a xlink:href="debugUtils_8h.html" target="_top" xlink:title="debugUtils.h">
<polygon fill="white" stroke="red" points="138.58,-56.5 138.58,-75.5 209.58,-75.5 209.58,-56.5 138.58,-56.5"/>
<text text-anchor="middle" x="174.08" y="-63.5" font-family="FreeSans" font-size="10.00">debugUtils.h</text>
</a>
</g>
<!-- Node4&#45;&gt;Node10 -->
<g id="edge20" class="edge"><title>Node4&#45;&gt;Node10</title>
<path fill="none" stroke="midnightblue" d="M241.227,-112.324C228.864,-103.979 209.95,-91.2122 195.343,-81.3524"/>
<polygon fill="midnightblue" stroke="midnightblue" points="197.148,-78.3483 186.901,-75.6545 193.232,-84.1503 197.148,-78.3483"/>
</g>
<!-- Node11 -->
<g id="node24" class="node"><title>Node11</title>
<polygon fill="white" stroke="#bfbfbf" points="391.58,-56.5 391.58,-75.5 466.58,-75.5 466.58,-56.5 391.58,-56.5"/>
<text text-anchor="middle" x="429.08" y="-63.5" font-family="FreeSans" font-size="10.00">Eigen/Dense</text>
</g>
<!-- Node4&#45;&gt;Node11 -->
<g id="edge26" class="edge"><title>Node4&#45;&gt;Node11</title>
<path fill="none" stroke="midnightblue" d="M281.809,-112.444C311.506,-103.28 358.796,-88.6876 391.749,-78.5192"/>
<polygon fill="midnightblue" stroke="midnightblue" points="392.957,-81.8094 401.48,-75.5164 390.893,-75.1206 392.957,-81.8094"/>
</g>
<!-- Node10&#45;&gt;Node2 -->
<g id="edge22" class="edge"><title>Node10&#45;&gt;Node2</title>
<path fill="none" stroke="midnightblue" d="M204.028,-56.4435C239.175,-46.4015 297.142,-29.8394 332.542,-19.7251"/>
<polygon fill="midnightblue" stroke="midnightblue" points="333.669,-23.0434 342.322,-16.9308 331.745,-16.3127 333.669,-23.0434"/>
</g>
<!-- Node10&#45;&gt;Node7 -->
<g id="edge24" class="edge"><title>Node10&#45;&gt;Node7</title>
<path fill="none" stroke="midnightblue" d="M158.977,-56.324C144.177,-47.8215 121.386,-34.7288 104.098,-24.7975"/>
<polygon fill="midnightblue" stroke="midnightblue" points="105.56,-21.6009 95.1452,-19.6545 102.073,-27.6707 105.56,-21.6009"/>
</g>
</g>
</svg>
