<?xml version="1.0" encoding="UTF-8" standalone="no"?>
<!DOCTYPE svg PUBLIC "-//W3C//DTD SVG 1.1//EN"
 "http://www.w3.org/Graphics/SVG/1.1/DTD/svg11.dtd">
<!-- Generated by graphviz version 2.28.0 (20120425.2022)
 -->
<!-- Title: G Pages: 1 -->
<svg width="310pt" height="252pt"
 viewBox="0.00 0.00 309.75 252.00" xmlns="http://www.w3.org/2000/svg" xmlns:xlink="http://www.w3.org/1999/xlink">
<g id="graph1" class="graph" transform="scale(1 1) rotate(0) translate(4 248)">
<title>G</title>
<polygon fill="white" stroke="white" points="-4,5 -4,-248 306.746,-248 306.746,5 -4,5"/>
<!-- Node1 -->
<g id="node1" class="node"><title>Node1</title>
<polygon fill="#bfbfbf" stroke="black" points="122.746,-224.5 122.746,-243.5 210.746,-243.5 210.746,-224.5 122.746,-224.5"/>
<text text-anchor="middle" x="166.746" y="-231.5" font-family="FreeSans" font-size="10.00">src/dataFile.cpp</text>
</g>
<!-- Node2 -->
<g id="node3" class="node"><title>Node2</title>
<a xlink:href="dataFile_8h.html" target="_top" xlink:title="dataFile.h">
<polygon fill="white" stroke="black" points="39.2464,-168.5 39.2464,-187.5 100.246,-187.5 100.246,-168.5 39.2464,-168.5"/>
<text text-anchor="middle" x="69.7464" y="-175.5" font-family="FreeSans" font-size="10.00">dataFile.h</text>
</a>
</g>
<!-- Node1&#45;&gt;Node2 -->
<g id="edge2" class="edge"><title>Node1&#45;&gt;Node2</title>
<path fill="none" stroke="midnightblue" d="M151.162,-224.324C135.747,-215.743 111.934,-202.486 94.0367,-192.522"/>
<polygon fill="midnightblue" stroke="midnightblue" points="95.7323,-189.461 85.2925,-187.655 92.3274,-195.577 95.7323,-189.461"/>
</g>
<!-- Node6 -->
<g id="node12" class="node"><title>Node6</title>
<a xlink:href="debugUtils_8h.html" target="_top" xlink:title="debugUtils.h">
<polygon fill="white" stroke="red" points="100.246,-56.5 100.246,-75.5 171.246,-75.5 171.246,-56.5 100.246,-56.5"/>
<text text-anchor="middle" x="135.746" y="-63.5" font-family="FreeSans" font-size="10.00">debugUtils.h</text>
</a>
</g>
<!-- Node1&#45;&gt;Node6 -->
<g id="edge16" class="edge"><title>Node1&#45;&gt;Node6</title>
<path fill="none" stroke="midnightblue" d="M165.561,-224.451C162.761,-204.609 155.323,-153.929 146.746,-112 144.951,-103.224 142.636,-93.5671 140.593,-85.4564"/>
<polygon fill="midnightblue" stroke="midnightblue" points="143.934,-84.3941 138.05,-75.583 137.155,-86.1399 143.934,-84.3941"/>
</g>
<!-- Node7 -->
<g id="node16" class="node"><title>Node7</title>
<polygon fill="white" stroke="#bfbfbf" points="195.246,-168.5 195.246,-187.5 302.246,-187.5 302.246,-168.5 195.246,-168.5"/>
<text text-anchor="middle" x="248.746" y="-175.5" font-family="FreeSans" font-size="10.00">boost/filesystem.hpp</text>
</g>
<!-- Node1&#45;&gt;Node7 -->
<g id="edge18" class="edge"><title>Node1&#45;&gt;Node7</title>
<path fill="none" stroke="midnightblue" d="M179.921,-224.324C192.593,-215.979 211.98,-203.212 226.952,-193.352"/>
<polygon fill="midnightblue" stroke="midnightblue" points="229.178,-196.078 235.604,-187.655 225.328,-190.231 229.178,-196.078"/>
</g>
<!-- Node3 -->
<g id="node5" class="node"><title>Node3</title>
<polygon fill="white" stroke="#bfbfbf" points="51.2464,-0.5 51.2464,-19.5 92.2464,-19.5 92.2464,-0.5 51.2464,-0.5"/>
<text text-anchor="middle" x="71.7464" y="-7.5" font-family="FreeSans" font-size="10.00">string</text>
</g>
<!-- Node2&#45;&gt;Node3 -->
<g id="edge4" class="edge"><title>Node2&#45;&gt;Node3</title>
<path fill="none" stroke="midnightblue" d="M46.958,-168.471C31.4203,-161.316 12.039,-149.435 2.74642,-132 -1.4344,-124.156 0.122378,-120.493 2.74642,-112 13.1767,-78.2424 39.1944,-45.7025 56.1328,-27.0564"/>
<polygon fill="midnightblue" stroke="midnightblue" points="58.7063,-29.4287 62.9762,-19.7323 53.5915,-24.6496 58.7063,-29.4287"/>
</g>
<!-- Node4 -->
<g id="node7" class="node"><title>Node4</title>
<polygon fill="white" stroke="#bfbfbf" points="12.2464,-112.5 12.2464,-131.5 55.2464,-131.5 55.2464,-112.5 12.2464,-112.5"/>
<text text-anchor="middle" x="33.7464" y="-119.5" font-family="FreeSans" font-size="10.00">hdf5.h</text>
</g>
<!-- Node2&#45;&gt;Node4 -->
<g id="edge6" class="edge"><title>Node2&#45;&gt;Node4</title>
<path fill="none" stroke="midnightblue" d="M63.8018,-168.083C58.7691,-160.534 51.4096,-149.495 45.2329,-140.23"/>
<polygon fill="midnightblue" stroke="midnightblue" points="48.0397,-138.13 39.5805,-131.751 42.2153,-142.013 48.0397,-138.13"/>
</g>
<!-- Node5 -->
<g id="node9" class="node"><title>Node5</title>
<a xlink:href="mathUtils_8h.html" target="_top" xlink:title="mathUtils.h">
<polygon fill="white" stroke="red" points="73.2464,-112.5 73.2464,-131.5 138.246,-131.5 138.246,-112.5 73.2464,-112.5"/>
<text text-anchor="middle" x="105.746" y="-119.5" font-family="FreeSans" font-size="10.00">mathUtils.h</text>
</a>
</g>
<!-- Node2&#45;&gt;Node5 -->
<g id="edge8" class="edge"><title>Node2&#45;&gt;Node5</title>
<path fill="none" stroke="midnightblue" d="M75.6911,-168.083C80.7237,-160.534 88.0832,-149.495 94.2599,-140.23"/>
<polygon fill="midnightblue" stroke="midnightblue" points="97.2775,-142.013 99.9124,-131.751 91.4531,-138.13 97.2775,-142.013"/>
</g>
<!-- Node5&#45;&gt;Node3 -->
<g id="edge10" class="edge"><title>Node5&#45;&gt;Node3</title>
<path fill="none" stroke="midnightblue" d="M102.775,-112.404C99.6772,-103.371 94.728,-88.7329 90.7464,-76 85.8669,-60.3956 80.6821,-42.564 76.9635,-29.5295"/>
<polygon fill="midnightblue" stroke="midnightblue" points="80.318,-28.5294 74.2237,-19.8629 73.5833,-30.4384 80.318,-28.5294"/>
</g>
<!-- Node5&#45;&gt;Node6 -->
<g id="edge12" class="edge"><title>Node5&#45;&gt;Node6</title>
<path fill="none" stroke="midnightblue" d="M110.7,-112.083C114.85,-104.613 120.9,-93.7244 126.013,-84.5199"/>
<polygon fill="midnightblue" stroke="midnightblue" points="129.088,-86.1924 130.885,-75.7511 122.969,-82.7929 129.088,-86.1924"/>
</g>
<!-- Node6&#45;&gt;Node3 -->
<g id="edge14" class="edge"><title>Node6&#45;&gt;Node3</title>
<path fill="none" stroke="midnightblue" d="M125.464,-56.324C115.91,-48.2631 101.467,-36.0765 89.9621,-26.3695"/>
<polygon fill="midnightblue" stroke="midnightblue" points="92.1162,-23.6076 82.2162,-19.8339 87.6021,-28.9577 92.1162,-23.6076"/>
</g>
</g>
</svg>
