<?xml version="1.0" encoding="UTF-8" standalone="no"?>
<!DOCTYPE svg PUBLIC "-//W3C//DTD SVG 1.1//EN"
 "http://www.w3.org/Graphics/SVG/1.1/DTD/svg11.dtd">
<!-- Generated by graphviz version 8.1.0 (20230707.2238)
 -->
<!-- Title: src/debugUtils.h Pages: 1 -->
<svg width="2032pt" height="369pt"
 viewBox="0.00 0.00 2031.88 369.25" xmlns="http://www.w3.org/2000/svg" xmlns:xlink="http://www.w3.org/1999/xlink">
<g id="graph0" class="graph" transform="scale(1 1) rotate(0) translate(4 365.25)">
<title>src/debugUtils.h</title>
<!-- Node1 -->
<g id="Node000001" class="node">
<title>Node1</title>
<g id="a_Node000001"><a xlink:title=" ">
<polygon fill="#999999" stroke="#666666" points="1514.12,-361.25 1419.38,-361.25 1419.38,-340.5 1514.12,-340.5 1514.12,-361.25"/>
<text text-anchor="middle" x="1466.75" y="-347.75" font-family="FreeSans" font-size="10.00">src/debugUtils.h</text>
</a>
</g>
</g>
<!-- Node2 -->
<g id="Node000002" class="node">
<title>Node2</title>
<g id="a_Node000002"><a xlink:href="chemistry0d_8cpp.html" target="_top" xlink:title=" ">
<polygon fill="white" stroke="#666666" points="327.88,-191 213.62,-191 213.62,-170.25 327.88,-170.25 327.88,-191"/>
<text text-anchor="middle" x="270.75" y="-177.5" font-family="FreeSans" font-size="10.00">src/chemistry0d.cpp</text>
</a>
</g>
</g>
<!-- Node1&#45;&gt;Node2 -->
<g id="edge1_Node000001_Node000002" class="edge">
<title>Node1&#45;&gt;Node2</title>
<g id="a_edge1_Node000001_Node000002"><a xlink:title=" ">
<path fill="none" stroke="#63b8ff" d="M1408.24,-346.97C1259.28,-338.83 854.09,-312.07 522.75,-247.75 442.6,-232.19 350.2,-205.7 302.66,-191.43"/>
<polygon fill="#63b8ff" stroke="#63b8ff" points="1407.76,-350.5 1417.93,-347.54 1408.14,-343.51 1407.76,-350.5"/>
</a>
</g>
</g>
<!-- Node3 -->
<g id="Node000003" class="node">
<title>Node3</title>
<g id="a_Node000003"><a xlink:href="convectionSystem_8cpp.html" target="_top" xlink:title=" ">
<polygon fill="white" stroke="#666666" points="143.5,-77.5 0,-77.5 0,-56.75 143.5,-56.75 143.5,-77.5"/>
<text text-anchor="middle" x="71.75" y="-64" font-family="FreeSans" font-size="10.00">src/convectionSystem.cpp</text>
</a>
</g>
</g>
<!-- Node1&#45;&gt;Node3 -->
<g id="edge2_Node000001_Node000003" class="edge">
<title>Node1&#45;&gt;Node3</title>
<g id="a_edge2_Node000001_Node000003"><a xlink:title=" ">
<path fill="none" stroke="#63b8ff" d="M1408.38,-348.44C1139.56,-341.47 33.75,-308.52 33.75,-238.38 33.75,-238.38 33.75,-238.38 33.75,-179.62 33.75,-140.15 55.35,-96.82 65.98,-77.89"/>
<polygon fill="#63b8ff" stroke="#63b8ff" points="1407.98,-351.96 1418.07,-348.72 1408.16,-344.96 1407.98,-351.96"/>
</a>
</g>
</g>
<!-- Node4 -->
<g id="Node000004" class="node">
<title>Node4</title>
<g id="a_Node000004"><a xlink:href="debugUtils_8cpp.html" target="_top" xlink:title=" ">
<polygon fill="white" stroke="#666666" points="1921.75,-304.5 1815.75,-304.5 1815.75,-283.75 1921.75,-283.75 1921.75,-304.5"/>
<text text-anchor="middle" x="1868.75" y="-291" font-family="FreeSans" font-size="10.00">src/debugUtils.cpp</text>
</a>
</g>
</g>
<!-- Node1&#45;&gt;Node4 -->
<g id="edge3_Node000001_Node000004" class="edge">
<title>Node1&#45;&gt;Node4</title>
<g id="a_edge3_Node000001_Node000004"><a xlink:title=" ">
<path fill="none" stroke="#63b8ff" d="M1525.2,-342.04C1592.06,-333.05 1704.82,-317.85 1801.75,-304.5 1806.17,-303.89 1810.76,-303.26 1815.36,-302.62"/>
<polygon fill="#63b8ff" stroke="#63b8ff" points="1524.91,-338.68 1515.47,-343.48 1525.85,-345.62 1524.91,-338.68"/>
</a>
</g>
</g>
<!-- Node5 -->
<g id="Node000005" class="node">
<title>Node5</title>
<g id="a_Node000005"><a xlink:href="grid_8cpp.html" target="_top" xlink:title=" ">
<polygon fill="white" stroke="#666666" points="1788.88,-134.25 1716.62,-134.25 1716.62,-113.5 1788.88,-113.5 1788.88,-134.25"/>
<text text-anchor="middle" x="1752.75" y="-120.75" font-family="FreeSans" font-size="10.00">src/grid.cpp</text>
</a>
</g>
</g>
<!-- Node1&#45;&gt;Node5 -->
<g id="edge4_Node000001_Node000005" class="edge">
<title>Node1&#45;&gt;Node5</title>
<g id="a_edge4_Node000001_Node000005"><a xlink:title=" ">
<path fill="none" stroke="#63b8ff" d="M1524.9,-339.11C1597.75,-322.08 1719.04,-281.11 1768.75,-191 1778.91,-172.59 1767.2,-147.81 1759.13,-134.42"/>
<polygon fill="#63b8ff" stroke="#63b8ff" points="1524.5,-335.84 1515.52,-341.45 1526.04,-342.67 1524.5,-335.84"/>
</a>
</g>
</g>
<!-- Node6 -->
<g id="Node000006" class="node">
<title>Node6</title>
<g id="a_Node000006"><a xlink:href="integrator_8cpp.html" target="_top" xlink:title=" ">
<polygon fill="white" stroke="#666666" points="1760.12,-191 1659.38,-191 1659.38,-170.25 1760.12,-170.25 1760.12,-191"/>
<text text-anchor="middle" x="1709.75" y="-177.5" font-family="FreeSans" font-size="10.00">src/integrator.cpp</text>
</a>
</g>
</g>
<!-- Node1&#45;&gt;Node6 -->
<g id="edge5_Node000001_Node000006" class="edge">
<title>Node1&#45;&gt;Node6</title>
<g id="a_edge5_Node000001_Node000006"><a xlink:title=" ">
<path fill="none" stroke="#63b8ff" d="M1498.1,-335.39C1535.2,-317.5 1597.96,-284.85 1645.75,-247.75 1668.21,-230.31 1690.38,-205.15 1701.8,-191.44"/>
<polygon fill="#63b8ff" stroke="#63b8ff" points="1496.87,-332.57 1489.35,-340.03 1499.89,-338.89 1496.87,-332.57"/>
</a>
</g>
</g>
<!-- Node7 -->
<g id="Node000007" class="node">
<title>Node7</title>
<g id="a_Node000007"><a xlink:href="mathUtils_8h.html" target="_top" xlink:title=" ">
<polygon fill="white" stroke="#666666" points="1066.88,-304.5 976.62,-304.5 976.62,-283.75 1066.88,-283.75 1066.88,-304.5"/>
<text text-anchor="middle" x="1021.75" y="-291" font-family="FreeSans" font-size="10.00">src/mathUtils.h</text>
</a>
</g>
</g>
<!-- Node1&#45;&gt;Node7 -->
<g id="edge6_Node000001_Node000007" class="edge">
<title>Node1&#45;&gt;Node7</title>
<g id="a_edge6_Node000001_Node000007"><a xlink:title=" ">
<path fill="none" stroke="#63b8ff" d="M1408.33,-342.69C1318.59,-331.65 1148.69,-310.74 1067.37,-300.74"/>
<polygon fill="#63b8ff" stroke="#63b8ff" points="1407.77,-346.27 1418.13,-344.02 1408.63,-339.32 1407.77,-346.27"/>
</a>
</g>
</g>
<!-- Node21 -->
<g id="Node000021" class="node">
<title>Node21</title>
<g id="a_Node000021"><a xlink:href="qssintegrator_8cpp.html" target="_top" xlink:title=" ">
<polygon fill="white" stroke="#666666" points="1097.38,-191 980.12,-191 980.12,-170.25 1097.38,-170.25 1097.38,-191"/>
<text text-anchor="middle" x="1038.75" y="-177.5" font-family="FreeSans" font-size="10.00">src/qssintegrator.cpp</text>
</a>
</g>
</g>
<!-- Node1&#45;&gt;Node21 -->
<g id="edge61_Node000001_Node000021" class="edge">
<title>Node1&#45;&gt;Node21</title>
<g id="a_edge61_Node000001_Node000021"><a xlink:title=" ">
<path fill="none" stroke="#63b8ff" d="M1466.82,-329.54C1465.73,-301.72 1459.27,-252.36 1428.75,-227 1403.81,-206.28 1200.55,-191.3 1097.78,-184.97"/>
<polygon fill="#63b8ff" stroke="#63b8ff" points="1463.34,-329.39 1467.02,-339.33 1470.34,-329.27 1463.34,-329.39"/>
</a>
</g>
</g>
<!-- Node26 -->
<g id="Node000026" class="node">
<title>Node26</title>
<g id="a_Node000026"><a xlink:href="readConfig_8cpp.html" target="_top" xlink:title=" ">
<polygon fill="white" stroke="#666666" points="1447.75,-191 1341.75,-191 1341.75,-170.25 1447.75,-170.25 1447.75,-191"/>
<text text-anchor="middle" x="1394.75" y="-177.5" font-family="FreeSans" font-size="10.00">src/readConfig.cpp</text>
</a>
</g>
</g>
<!-- Node1&#45;&gt;Node26 -->
<g id="edge62_Node000001_Node000026" class="edge">
<title>Node1&#45;&gt;Node26</title>
<g id="a_edge62_Node000001_Node000026"><a xlink:title=" ">
<path fill="none" stroke="#63b8ff" d="M1471.21,-329.52C1475.7,-303.86 1479.68,-259.21 1461.75,-227 1452.52,-210.43 1434.4,-198.72 1419.32,-191.35"/>
<polygon fill="#63b8ff" stroke="#63b8ff" points="1467.61,-328.68 1469.12,-339.16 1474.48,-330.03 1467.61,-328.68"/>
</a>
</g>
</g>
<!-- Node31 -->
<g id="Node000031" class="node">
<title>Node31</title>
<g id="a_Node000031"><a xlink:href="sundialsUtils_8cpp.html" target="_top" xlink:title=" ">
<polygon fill="white" stroke="#666666" points="1420,-247.75 1303.5,-247.75 1303.5,-227 1420,-227 1420,-247.75"/>
<text text-anchor="middle" x="1361.75" y="-234.25" font-family="FreeSans" font-size="10.00">src/sundialsUtils.cpp</text>
</a>
</g>
</g>
<!-- Node1&#45;&gt;Node31 -->
<g id="edge63_Node000001_Node000031" class="edge">
<title>Node1&#45;&gt;Node31</title>
<g id="a_edge63_Node000001_Node000031"><a xlink:title=" ">
<path fill="none" stroke="#63b8ff" d="M1450.41,-332.52C1428.08,-308.81 1388.78,-267.08 1370.98,-248.18"/>
<polygon fill="#63b8ff" stroke="#63b8ff" points="1447.39,-334.49 1456.8,-339.37 1452.49,-329.69 1447.39,-334.49"/>
</a>
</g>
</g>
<!-- Node32 -->
<g id="Node000032" class="node">
<title>Node32</title>
<g id="a_Node000032"><a xlink:href="tbb__fake_8h.html" target="_top" xlink:title=" ">
<polygon fill="white" stroke="#666666" points="2023.88,-304.5 1939.62,-304.5 1939.62,-283.75 2023.88,-283.75 2023.88,-304.5"/>
<text text-anchor="middle" x="1981.75" y="-291" font-family="FreeSans" font-size="10.00">src/tbb_fake.h</text>
</a>
</g>
</g>
<!-- Node1&#45;&gt;Node32 -->
<g id="edge64_Node000001_Node000032" class="edge">
<title>Node1&#45;&gt;Node32</title>
<g id="a_edge64_Node000001_Node000032"><a xlink:title=" ">
<path fill="none" stroke="#63b8ff" d="M1525.17,-345.75C1613.32,-339.17 1785.48,-324.92 1930.75,-304.5 1933.51,-304.11 1936.36,-303.68 1939.22,-303.22"/>
<polygon fill="#63b8ff" stroke="#63b8ff" points="1525.05,-342.32 1515.33,-346.55 1525.56,-349.31 1525.05,-342.32"/>
</a>
</g>
</g>
<!-- Node8 -->
<g id="Node000008" class="node">
<title>Node8</title>
<g id="a_Node000008"><a xlink:href="callback_8h.html" target="_top" xlink:title=" ">
<polygon fill="white" stroke="#666666" points="833.12,-247.75 750.38,-247.75 750.38,-227 833.12,-227 833.12,-247.75"/>
<text text-anchor="middle" x="791.75" y="-234.25" font-family="FreeSans" font-size="10.00">src/callback.h</text>
</a>
</g>
</g>
<!-- Node7&#45;&gt;Node8 -->
<g id="edge7_Node000007_Node000008" class="edge">
<title>Node7&#45;&gt;Node8</title>
<g id="a_edge7_Node000007_Node000008"><a xlink:title=" ">
<path fill="none" stroke="#63b8ff" d="M969.69,-280.73C928.39,-270.9 871.44,-257.34 833.19,-248.24"/>
<polygon fill="#63b8ff" stroke="#63b8ff" points="968.83,-284.36 979.36,-283.27 970.45,-277.55 968.83,-284.36"/>
</a>
</g>
</g>
<!-- Node12 -->
<g id="Node000012" class="node">
<title>Node12</title>
<g id="a_Node000012"><a xlink:href="sourceSystem_8h.html" target="_top" xlink:title=" ">
<polygon fill="white" stroke="#666666" points="923.38,-191 812.12,-191 812.12,-170.25 923.38,-170.25 923.38,-191"/>
<text text-anchor="middle" x="867.75" y="-177.5" font-family="FreeSans" font-size="10.00">src/sourceSystem.h</text>
</a>
</g>
</g>
<!-- Node7&#45;&gt;Node12 -->
<g id="edge58_Node000007_Node000012" class="edge">
<title>Node7&#45;&gt;Node12</title>
<g id="a_edge58_Node000007_Node000012"><a xlink:title=" ">
<path fill="none" stroke="#63b8ff" d="M965.98,-281.65C943.64,-274.81 918.95,-264.15 900.75,-247.75 883.4,-232.12 874.04,-205.29 870.08,-191.09"/>
<polygon fill="#63b8ff" stroke="#63b8ff" points="964.8,-285.24 975.37,-284.62 966.72,-278.51 964.8,-285.24"/>
</a>
</g>
</g>
<!-- Node14 -->
<g id="Node000014" class="node">
<title>Node14</title>
<g id="a_Node000014"><a xlink:href="chemistry0d_8h.html" target="_top" xlink:title=" ">
<polygon fill="white" stroke="#666666" points="279.25,-247.75 176.25,-247.75 176.25,-227 279.25,-227 279.25,-247.75"/>
<text text-anchor="middle" x="227.75" y="-234.25" font-family="FreeSans" font-size="10.00">src/chemistry0d.h</text>
</a>
</g>
</g>
<!-- Node7&#45;&gt;Node14 -->
<g id="edge14_Node000007_Node000014" class="edge">
<title>Node7&#45;&gt;Node14</title>
<g id="a_edge14_Node000007_Node000014"><a xlink:title=" ">
<path fill="none" stroke="#63b8ff" d="M965.63,-289.25C818.32,-279.1 422.22,-251.78 279.72,-241.96"/>
<polygon fill="#63b8ff" stroke="#63b8ff" points="964.99,-292.79 975.21,-289.98 965.47,-285.81 964.99,-292.79"/>
</a>
</g>
</g>
<!-- Node15 -->
<g id="Node000015" class="node">
<title>Node15</title>
<g id="a_Node000015"><a xlink:href="convectionSystem_8h.html" target="_top" xlink:title=" ">
<polygon fill="white" stroke="#666666" points="463.88,-134.25 331.62,-134.25 331.62,-113.5 463.88,-113.5 463.88,-134.25"/>
<text text-anchor="middle" x="397.75" y="-120.75" font-family="FreeSans" font-size="10.00">src/convectionSystem.h</text>
</a>
</g>
</g>
<!-- Node7&#45;&gt;Node15 -->
<g id="edge19_Node000007_Node000015" class="edge">
<title>Node7&#45;&gt;Node15</title>
<g id="a_edge19_Node000007_Node000015"><a xlink:title=" ">
<path fill="none" stroke="#63b8ff" d="M965.44,-292.24C779.48,-289.04 195.22,-276.72 167.75,-247.75 147.02,-225.89 171.94,-188.45 194.75,-170.25 215.68,-153.56 280.44,-140.98 331.26,-133.35"/>
<polygon fill="#63b8ff" stroke="#63b8ff" points="965.27,-295.75 975.33,-292.42 965.39,-288.75 965.27,-295.75"/>
</a>
</g>
</g>
<!-- Node16 -->
<g id="Node000016" class="node">
<title>Node16</title>
<g id="a_Node000016"><a xlink:href="diffusionSystem_8h.html" target="_top" xlink:title=" ">
<polygon fill="white" stroke="#666666" points="1663.25,-134.25 1542.25,-134.25 1542.25,-113.5 1663.25,-113.5 1663.25,-134.25"/>
<text text-anchor="middle" x="1602.75" y="-120.75" font-family="FreeSans" font-size="10.00">src/diffusionSystem.h</text>
</a>
</g>
</g>
<!-- Node7&#45;&gt;Node16 -->
<g id="edge22_Node000007_Node000016" class="edge">
<title>Node7&#45;&gt;Node16</title>
<g id="a_edge22_Node000007_Node000016"><a xlink:title=" ">
<path fill="none" stroke="#63b8ff" d="M1078.11,-293.05C1218.82,-292.27 1576.88,-286.48 1612.75,-247.75 1642.13,-216.03 1618.92,-157.86 1607.82,-134.74"/>
<polygon fill="#63b8ff" stroke="#63b8ff" points="1078.15,-289.55 1068.16,-293.1 1078.18,-296.55 1078.15,-289.55"/>
</a>
</g>
</g>
<!-- Node18 -->
<g id="Node000018" class="node">
<title>Node18</title>
<g id="a_Node000018"><a xlink:href="integrator_8h.html" target="_top" xlink:title=" ">
<polygon fill="white" stroke="#666666" points="1603.5,-247.75 1514,-247.75 1514,-227 1603.5,-227 1603.5,-247.75"/>
<text text-anchor="middle" x="1558.75" y="-234.25" font-family="FreeSans" font-size="10.00">src/integrator.h</text>
</a>
</g>
</g>
<!-- Node7&#45;&gt;Node18 -->
<g id="edge25_Node000007_Node000018" class="edge">
<title>Node7&#45;&gt;Node18</title>
<g id="a_edge25_Node000007_Node000018"><a xlink:title=" ">
<path fill="none" stroke="#63b8ff" d="M1077.96,-287.39C1184.99,-276.48 1416.09,-252.92 1513.74,-242.96"/>
<polygon fill="#63b8ff" stroke="#63b8ff" points="1077.66,-284.01 1068.07,-288.5 1078.37,-290.97 1077.66,-284.01"/>
</a>
</g>
</g>
<!-- Node19 -->
<g id="Node000019" class="node">
<title>Node19</title>
<g id="a_Node000019"><a xlink:href="mathUtils_8cpp.html" target="_top" xlink:title=" ">
<polygon fill="white" stroke="#666666" points="1285.5,-247.75 1184,-247.75 1184,-227 1285.5,-227 1285.5,-247.75"/>
<text text-anchor="middle" x="1234.75" y="-234.25" font-family="FreeSans" font-size="10.00">src/mathUtils.cpp</text>
</a>
</g>
</g>
<!-- Node7&#45;&gt;Node19 -->
<g id="edge29_Node000007_Node000019" class="edge">
<title>Node7&#45;&gt;Node19</title>
<g id="a_edge29_Node000007_Node000019"><a xlink:title=" ">
<path fill="none" stroke="#63b8ff" d="M1070.23,-280.66C1108.55,-270.81 1161.3,-257.25 1196.64,-248.17"/>
<polygon fill="#63b8ff" stroke="#63b8ff" points="1069.64,-277.46 1060.83,-283.34 1071.39,-284.24 1069.64,-277.46"/>
</a>
</g>
</g>
<!-- Node20 -->
<g id="Node000020" class="node">
<title>Node20</title>
<g id="a_Node000020"><a xlink:href="qssintegrator_8h.html" target="_top" xlink:title=" ">
<polygon fill="white" stroke="#666666" points="1015.75,-247.75 909.75,-247.75 909.75,-227 1015.75,-227 1015.75,-247.75"/>
<text text-anchor="middle" x="962.75" y="-234.25" font-family="FreeSans" font-size="10.00">src/qssintegrator.h</text>
</a>
</g>
</g>
<!-- Node7&#45;&gt;Node20 -->
<g id="edge30_Node000007_Node000020" class="edge">
<title>Node7&#45;&gt;Node20</title>
<g id="a_edge30_Node000007_Node000020"><a xlink:title=" ">
<path fill="none" stroke="#63b8ff" d="M1003.14,-275.86C993.26,-266.69 981.49,-255.76 973.21,-248.08"/>
<polygon fill="#63b8ff" stroke="#63b8ff" points="1000.49,-278.1 1010.2,-282.34 1005.25,-272.97 1000.49,-278.1"/>
</a>
</g>
</g>
<!-- Node22 -->
<g id="Node000022" class="node">
<title>Node22</title>
<g id="a_Node000022"><a xlink:href="quasi2d_8h.html" target="_top" xlink:title=" ">
<polygon fill="white" stroke="#666666" points="674,-247.75 593.5,-247.75 593.5,-227 674,-227 674,-247.75"/>
<text text-anchor="middle" x="633.75" y="-234.25" font-family="FreeSans" font-size="10.00">src/quasi2d.h</text>
</a>
</g>
</g>
<!-- Node7&#45;&gt;Node22 -->
<g id="edge33_Node000007_Node000022" class="edge">
<title>Node7&#45;&gt;Node22</title>
<g id="a_edge33_Node000007_Node000022"><a xlink:title=" ">
<path fill="none" stroke="#63b8ff" d="M965.75,-285.22C886.64,-274.06 744.04,-253.94 674.33,-244.1"/>
<polygon fill="#63b8ff" stroke="#63b8ff" points="965.09,-288.81 975.48,-286.74 966.07,-281.87 965.09,-288.81"/>
</a>
</g>
</g>
<!-- Node24 -->
<g id="Node000024" class="node">
<title>Node24</title>
<g id="a_Node000024"><a xlink:href="readConfig_8h.html" target="_top" xlink:title=" ">
<polygon fill="white" stroke="#666666" points="1128.12,-247.75 1033.38,-247.75 1033.38,-227 1128.12,-227 1128.12,-247.75"/>
<text text-anchor="middle" x="1080.75" y="-234.25" font-family="FreeSans" font-size="10.00">src/readConfig.h</text>
</a>
</g>
</g>
<!-- Node7&#45;&gt;Node24 -->
<g id="edge38_Node000007_Node000024" class="edge">
<title>Node7&#45;&gt;Node24</title>
<g id="a_edge38_Node000007_Node000024"><a xlink:title=" ">
<path fill="none" stroke="#63b8ff" d="M1040.36,-275.86C1050.24,-266.69 1062.01,-255.76 1070.29,-248.08"/>
<polygon fill="#63b8ff" stroke="#63b8ff" points="1038.25,-272.97 1033.3,-282.34 1043.01,-278.1 1038.25,-272.97"/>
</a>
</g>
</g>
<!-- Node29 -->
<g id="Node000029" class="node">
<title>Node29</title>
<g id="a_Node000029"><a xlink:href="splitSolver_8h.html" target="_top" xlink:title=" ">
<polygon fill="white" stroke="#666666" points="1323.38,-191 1230.12,-191 1230.12,-170.25 1323.38,-170.25 1323.38,-191"/>
<text text-anchor="middle" x="1276.75" y="-177.5" font-family="FreeSans" font-size="10.00">src/splitSolver.h</text>
</a>
</g>
</g>
<!-- Node7&#45;&gt;Node29 -->
<g id="edge59_Node000007_Node000029" class="edge">
<title>Node7&#45;&gt;Node29</title>
<g id="a_edge59_Node000007_Node000029"><a xlink:title=" ">
<path fill="none" stroke="#63b8ff" d="M1059.35,-279.64C1082.06,-271.16 1111.41,-259.61 1136.75,-247.75 1154.18,-239.59 1157.5,-235.53 1174.75,-227 1201.33,-213.86 1232.57,-200.22 1253.41,-191.37"/>
<polygon fill="#63b8ff" stroke="#63b8ff" points="1058.27,-276.67 1050.1,-283.42 1060.7,-283.24 1058.27,-276.67"/>
</a>
</g>
</g>
<!-- Node30 -->
<g id="Node000030" class="node">
<title>Node30</title>
<g id="a_Node000030"><a xlink:href="scalarFunction_8h.html" target="_top" xlink:title=" ">
<polygon fill="white" stroke="#666666" points="496.12,-191 383.38,-191 383.38,-170.25 496.12,-170.25 496.12,-191"/>
<text text-anchor="middle" x="439.75" y="-177.5" font-family="FreeSans" font-size="10.00">src/scalarFunction.h</text>
</a>
</g>
</g>
<!-- Node7&#45;&gt;Node30 -->
<g id="edge53_Node000007_Node000030" class="edge">
<title>Node7&#45;&gt;Node30</title>
<g id="a_edge53_Node000007_Node000030"><a xlink:title=" ">
<path fill="none" stroke="#63b8ff" d="M965.34,-293.05C881.04,-291.66 717.88,-283.97 584.75,-247.75 535.89,-234.46 482.79,-206.38 456.48,-191.45"/>
<polygon fill="#63b8ff" stroke="#63b8ff" points="965.16,-296.57 975.2,-293.21 965.25,-289.57 965.16,-296.57"/>
</a>
</g>
</g>
<!-- Node7&#45;&gt;Node31 -->
<g id="edge60_Node000007_Node000031" class="edge">
<title>Node7&#45;&gt;Node31</title>
<g id="a_edge60_Node000007_Node000031"><a xlink:title=" ">
<path fill="none" stroke="#63b8ff" d="M1078.04,-284.06C1140.25,-274.04 1239.99,-257.98 1303.13,-247.81"/>
<polygon fill="#63b8ff" stroke="#63b8ff" points="1077.57,-280.75 1068.25,-285.8 1078.68,-287.66 1077.57,-280.75"/>
</a>
</g>
</g>
<!-- Node9 -->
<g id="Node000009" class="node">
<title>Node9</title>
<g id="a_Node000009"><a xlink:href="callback_8cpp.html" target="_top" xlink:title=" ">
<polygon fill="white" stroke="#666666" points="755.75,-191 661.75,-191 661.75,-170.25 755.75,-170.25 755.75,-191"/>
<text text-anchor="middle" x="708.75" y="-177.5" font-family="FreeSans" font-size="10.00">src/callback.cpp</text>
</a>
</g>
</g>
<!-- Node8&#45;&gt;Node9 -->
<g id="edge8_Node000008_Node000009" class="edge">
<title>Node8&#45;&gt;Node9</title>
<g id="a_edge8_Node000008_Node000009"><a xlink:title=" ">
<path fill="none" stroke="#63b8ff" d="M768.07,-220.76C753.7,-211.28 735.82,-199.48 723.46,-191.33"/>
<polygon fill="#63b8ff" stroke="#63b8ff" points="765.64,-224 775.91,-226.59 769.49,-218.16 765.64,-224"/>
</a>
</g>
</g>
<!-- Node10 -->
<g id="Node000010" class="node">
<title>Node10</title>
<g id="a_Node000010"><a xlink:href="flameSolver_8h.html" target="_top" xlink:title=" ">
<polygon fill="white" stroke="#666666" points="1011.75,-77.5 911.75,-77.5 911.75,-56.75 1011.75,-56.75 1011.75,-77.5"/>
<text text-anchor="middle" x="961.75" y="-64" font-family="FreeSans" font-size="10.00">src/flameSolver.h</text>
</a>
</g>
</g>
<!-- Node8&#45;&gt;Node10 -->
<g id="edge9_Node000008_Node000010" class="edge">
<title>Node8&#45;&gt;Node10</title>
<g id="a_edge9_Node000008_Node000010"><a xlink:title=" ">
<path fill="none" stroke="#63b8ff" d="M787.2,-216.01C782.5,-189.29 778.84,-142.41 802.75,-113.5 828.91,-81.87 875.46,-71.42 911.45,-68.35"/>
<polygon fill="#63b8ff" stroke="#63b8ff" points="783.95,-216.61 789.33,-225.73 790.81,-215.24 783.95,-216.61"/>
</a>
</g>
</g>
<!-- Node8&#45;&gt;Node12 -->
<g id="edge11_Node000008_Node000012" class="edge">
<title>Node8&#45;&gt;Node12</title>
<g id="a_edge11_Node000008_Node000012"><a xlink:title=" ">
<path fill="none" stroke="#63b8ff" d="M814.19,-220.21C827.21,-210.83 843.18,-199.32 854.28,-191.33"/>
<polygon fill="#63b8ff" stroke="#63b8ff" points="812.41,-217.9 806.34,-226.59 816.5,-223.58 812.41,-217.9"/>
</a>
</g>
</g>
<!-- Node11 -->
<g id="Node000011" class="node">
<title>Node11</title>
<g id="a_Node000011"><a xlink:href="flameSolver_8cpp.html" target="_top" xlink:title=" ">
<polygon fill="white" stroke="#666666" points="792.38,-20.75 681.12,-20.75 681.12,0 792.38,0 792.38,-20.75"/>
<text text-anchor="middle" x="736.75" y="-7.25" font-family="FreeSans" font-size="10.00">src/flameSolver.cpp</text>
</a>
</g>
</g>
<!-- Node10&#45;&gt;Node11 -->
<g id="edge10_Node000010_Node000011" class="edge">
<title>Node10&#45;&gt;Node11</title>
<g id="a_edge10_Node000010_Node000011"><a xlink:title=" ">
<path fill="none" stroke="#63b8ff" d="M910.82,-53.73C870.42,-43.9 814.7,-30.34 777.29,-21.24"/>
<polygon fill="#63b8ff" stroke="#63b8ff" points="909.72,-57.31 920.26,-56.27 911.38,-50.51 909.72,-57.31"/>
</a>
</g>
</g>
<!-- Node12&#45;&gt;Node10 -->
<g id="edge12_Node000012_Node000010" class="edge">
<title>Node12&#45;&gt;Node10</title>
<g id="a_edge12_Node000012_Node000010"><a xlink:title=" ">
<path fill="none" stroke="#63b8ff" d="M902.99,-165.26C917.16,-157.88 932.53,-147.6 942.75,-134.25 955.82,-117.18 959.9,-91.42 961.18,-77.63"/>
<polygon fill="#63b8ff" stroke="#63b8ff" points="901.91,-162.37 894.45,-169.9 904.97,-168.67 901.91,-162.37"/>
</a>
</g>
</g>
<!-- Node13 -->
<g id="Node000013" class="node">
<title>Node13</title>
<g id="a_Node000013"><a xlink:href="sourceSystem_8cpp.html" target="_top" xlink:title=" ">
<polygon fill="white" stroke="#666666" points="934,-134.25 811.5,-134.25 811.5,-113.5 934,-113.5 934,-134.25"/>
<text text-anchor="middle" x="872.75" y="-120.75" font-family="FreeSans" font-size="10.00">src/sourceSystem.cpp</text>
</a>
</g>
</g>
<!-- Node12&#45;&gt;Node13 -->
<g id="edge13_Node000012_Node000013" class="edge">
<title>Node12&#45;&gt;Node13</title>
<g id="a_edge13_Node000012_Node000013"><a xlink:title=" ">
<path fill="none" stroke="#63b8ff" d="M869.64,-158.96C870.4,-150.59 871.25,-141.33 871.86,-134.58"/>
<polygon fill="#63b8ff" stroke="#63b8ff" points="866.07,-158.56 868.64,-168.84 873.04,-159.2 866.07,-158.56"/>
</a>
</g>
</g>
<!-- Node14&#45;&gt;Node2 -->
<g id="edge15_Node000014_Node000002" class="edge">
<title>Node14&#45;&gt;Node2</title>
<g id="a_edge15_Node000014_Node000002"><a xlink:title=" ">
<path fill="none" stroke="#63b8ff" d="M242.19,-217.99C249.2,-209.06 257.34,-198.7 263.13,-191.33"/>
<polygon fill="#63b8ff" stroke="#63b8ff" points="238.86,-215.56 235.44,-225.59 244.37,-219.88 238.86,-215.56"/>
</a>
</g>
</g>
<!-- Node14&#45;&gt;Node3 -->
<g id="edge16_Node000014_Node000003" class="edge">
<title>Node14&#45;&gt;Node3</title>
<g id="a_edge16_Node000014_Node000003"><a xlink:title=" ">
<path fill="none" stroke="#63b8ff" d="M165.46,-228.67C140.42,-222.45 113.36,-211.23 95.75,-191 66.92,-157.88 68.65,-100.52 70.65,-77.8"/>
<polygon fill="#63b8ff" stroke="#63b8ff" points="164.52,-232.27 175.04,-231.04 166.05,-225.44 164.52,-232.27"/>
</a>
</g>
</g>
<!-- Node14&#45;&gt;Node10 -->
<g id="edge17_Node000014_Node000010" class="edge">
<title>Node14&#45;&gt;Node10</title>
<g id="a_edge17_Node000014_Node000010"><a xlink:title=" ">
<path fill="none" stroke="#63b8ff" d="M208.99,-218.87C196.66,-205.19 184.55,-185.93 194.75,-170.25 228.68,-118.09 262.37,-128.54 322.75,-113.5 434.04,-85.78 780.78,-73.27 911.34,-69.46"/>
<polygon fill="#63b8ff" stroke="#63b8ff" points="206.01,-220.85 215.49,-225.58 211.03,-215.97 206.01,-220.85"/>
</a>
</g>
</g>
<!-- Node14&#45;&gt;Node13 -->
<g id="edge18_Node000014_Node000013" class="edge">
<title>Node14&#45;&gt;Node13</title>
<g id="a_edge18_Node000014_Node000013"><a xlink:title=" ">
<path fill="none" stroke="#63b8ff" d="M212.29,-217.91C202.03,-203.35 192.5,-183.36 204.75,-170.25 225.3,-148.26 649.88,-132.15 811.25,-126.8"/>
<polygon fill="#63b8ff" stroke="#63b8ff" points="210.07,-219.76 218.92,-225.58 215.63,-215.51 210.07,-219.76"/>
</a>
</g>
</g>
<!-- Node15&#45;&gt;Node3 -->
<g id="edge20_Node000015_Node000003" class="edge">
<title>Node15&#45;&gt;Node3</title>
<g id="a_edge20_Node000015_Node000003"><a xlink:title=" ">
<path fill="none" stroke="#63b8ff" d="M328.4,-111.23C269.56,-101.35 186.08,-87.33 130.49,-77.99"/>
<polygon fill="#63b8ff" stroke="#63b8ff" points="327.65,-114.82 338.09,-113.02 328.81,-107.92 327.65,-114.82"/>
</a>
</g>
</g>
<!-- Node15&#45;&gt;Node10 -->
<g id="edge21_Node000015_Node000010" class="edge">
<title>Node15&#45;&gt;Node10</title>
<g id="a_edge21_Node000015_Node000010"><a xlink:title=" ">
<path fill="none" stroke="#63b8ff" d="M474.79,-115.4C592.12,-104.01 812.41,-82.62 911.37,-73.02"/>
<polygon fill="#63b8ff" stroke="#63b8ff" points="474.72,-111.98 465.11,-116.43 475.4,-118.95 474.72,-111.98"/>
</a>
</g>
</g>
<!-- Node16&#45;&gt;Node10 -->
<g id="edge24_Node000016_Node000010" class="edge">
<title>Node16&#45;&gt;Node10</title>
<g id="a_edge24_Node000016_Node000010"><a xlink:title=" ">
<path fill="none" stroke="#63b8ff" d="M1531.2,-113.86C1530.04,-113.74 1528.89,-113.62 1527.75,-113.5 1337.75,-94.02 1111.14,-78.03 1012.17,-71.41"/>
<polygon fill="#63b8ff" stroke="#63b8ff" points="1530.46,-117.41 1540.79,-115.03 1531.23,-110.45 1530.46,-117.41"/>
</a>
</g>
</g>
<!-- Node17 -->
<g id="Node000017" class="node">
<title>Node17</title>
<g id="a_Node000017"><a xlink:href="diffusionSystem_8cpp.html" target="_top" xlink:title=" ">
<polygon fill="white" stroke="#666666" points="1668.88,-77.5 1536.62,-77.5 1536.62,-56.75 1668.88,-56.75 1668.88,-77.5"/>
<text text-anchor="middle" x="1602.75" y="-64" font-family="FreeSans" font-size="10.00">src/diffusionSystem.cpp</text>
</a>
</g>
</g>
<!-- Node16&#45;&gt;Node17 -->
<g id="edge23_Node000016_Node000017" class="edge">
<title>Node16&#45;&gt;Node17</title>
<g id="a_edge23_Node000016_Node000017"><a xlink:title=" ">
<path fill="none" stroke="#63b8ff" d="M1602.75,-102.21C1602.75,-93.84 1602.75,-84.58 1602.75,-77.83"/>
<polygon fill="#63b8ff" stroke="#63b8ff" points="1599.25,-102.09 1602.75,-112.09 1606.25,-102.09 1599.25,-102.09"/>
</a>
</g>
</g>
<!-- Node18&#45;&gt;Node6 -->
<g id="edge28_Node000018_Node000006" class="edge">
<title>Node18&#45;&gt;Node6</title>
<g id="a_edge28_Node000018_Node000006"><a xlink:title=" ">
<path fill="none" stroke="#63b8ff" d="M1595.94,-222.89C1622.83,-213.14 1658.54,-200.19 1682.73,-191.42"/>
<polygon fill="#63b8ff" stroke="#63b8ff" points="1594.95,-219.89 1586.75,-226.59 1597.34,-226.47 1594.95,-219.89"/>
</a>
</g>
</g>
<!-- Node18&#45;&gt;Node10 -->
<g id="edge27_Node000018_Node000010" class="edge">
<title>Node18&#45;&gt;Node10</title>
<g id="a_edge27_Node000018_Node000010"><a xlink:title=" ">
<path fill="none" stroke="#63b8ff" d="M1536.63,-220.37C1516.43,-206.17 1485.44,-185.38 1456.75,-170.25 1398.81,-139.7 1384.04,-130.37 1320.75,-113.5 1213.16,-84.82 1082.45,-74.1 1012.22,-70.22"/>
<polygon fill="#63b8ff" stroke="#63b8ff" points="1534.19,-223.64 1544.37,-226.58 1538.24,-217.93 1534.19,-223.64"/>
</a>
</g>
</g>
<!-- Node18&#45;&gt;Node16 -->
<g id="edge26_Node000018_Node000016" class="edge">
<title>Node18&#45;&gt;Node16</title>
<g id="a_edge26_Node000018_Node000016"><a xlink:title=" ">
<path fill="none" stroke="#63b8ff" d="M1566.48,-216.79C1575.96,-192.77 1591.65,-153 1598.88,-134.68"/>
<polygon fill="#63b8ff" stroke="#63b8ff" points="1562.92,-215.28 1562.5,-225.87 1569.43,-217.85 1562.92,-215.28"/>
</a>
</g>
</g>
<!-- Node20&#45;&gt;Node12 -->
<g id="edge32_Node000020_Node000012" class="edge">
<title>Node20&#45;&gt;Node12</title>
<g id="a_edge32_Node000020_Node000012"><a xlink:title=" ">
<path fill="none" stroke="#63b8ff" d="M936.58,-221.29C919.98,-211.73 899,-199.63 884.59,-191.33"/>
<polygon fill="#63b8ff" stroke="#63b8ff" points="934.35,-224.63 944.77,-226.59 937.85,-218.56 934.35,-224.63"/>
</a>
</g>
</g>
<!-- Node20&#45;&gt;Node21 -->
<g id="edge31_Node000020_Node000021" class="edge">
<title>Node20&#45;&gt;Node21</title>
<g id="a_edge31_Node000020_Node000021"><a xlink:title=" ">
<path fill="none" stroke="#63b8ff" d="M985.19,-220.21C998.21,-210.83 1014.18,-199.32 1025.28,-191.33"/>
<polygon fill="#63b8ff" stroke="#63b8ff" points="983.41,-217.9 977.34,-226.59 987.5,-223.58 983.41,-217.9"/>
</a>
</g>
</g>
<!-- Node22&#45;&gt;Node10 -->
<g id="edge35_Node000022_Node000010" class="edge">
<title>Node22&#45;&gt;Node10</title>
<g id="a_edge35_Node000022_Node000010"><a xlink:title=" ">
<path fill="none" stroke="#63b8ff" d="M635.06,-215.85C636.98,-201.54 641.61,-182.82 652.75,-170.25 719.35,-95.08 842.43,-75.06 911.46,-69.85"/>
<polygon fill="#63b8ff" stroke="#63b8ff" points="631.5,-215.31 634.01,-225.61 638.47,-215.99 631.5,-215.31"/>
</a>
</g>
</g>
<!-- Node22&#45;&gt;Node12 -->
<g id="edge37_Node000022_Node000012" class="edge">
<title>Node22&#45;&gt;Node12</title>
<g id="a_edge37_Node000022_Node000012"><a xlink:title=" ">
<path fill="none" stroke="#63b8ff" d="M684.86,-224.42C727.08,-214.54 786.29,-200.68 825.78,-191.44"/>
<polygon fill="#63b8ff" stroke="#63b8ff" points="684.18,-221.21 675.24,-226.9 685.78,-228.03 684.18,-221.21"/>
</a>
</g>
</g>
<!-- Node22&#45;&gt;Node15 -->
<g id="edge34_Node000022_Node000015" class="edge">
<title>Node22&#45;&gt;Node15</title>
<g id="a_edge34_Node000022_Node000015"><a xlink:title=" ">
<path fill="none" stroke="#63b8ff" d="M582.29,-234.91C514.47,-231.77 400.72,-221.92 374.75,-191 360.68,-174.25 377.77,-148.36 389.15,-134.47"/>
<polygon fill="#63b8ff" stroke="#63b8ff" points="582.03,-238.45 592.17,-235.38 582.32,-231.45 582.03,-238.45"/>
</a>
</g>
</g>
<!-- Node23 -->
<g id="Node000023" class="node">
<title>Node23</title>
<g id="a_Node000023"><a xlink:href="quasi2d_8cpp.html" target="_top" xlink:title=" ">
<polygon fill="white" stroke="#666666" points="605.62,-191 513.88,-191 513.88,-170.25 605.62,-170.25 605.62,-191"/>
<text text-anchor="middle" x="559.75" y="-177.5" font-family="FreeSans" font-size="10.00">src/quasi2d.cpp</text>
</a>
</g>
</g>
<!-- Node22&#45;&gt;Node23 -->
<g id="edge36_Node000022_Node000023" class="edge">
<title>Node22&#45;&gt;Node23</title>
<g id="a_edge36_Node000022_Node000023"><a xlink:title=" ">
<path fill="none" stroke="#63b8ff" d="M611.9,-220.21C599.22,-210.83 583.67,-199.32 572.87,-191.33"/>
<polygon fill="#63b8ff" stroke="#63b8ff" points="609.4,-223.45 619.52,-226.59 613.56,-217.83 609.4,-223.45"/>
</a>
</g>
</g>
<!-- Node24&#45;&gt;Node2 -->
<g id="edge39_Node000024_Node000002" class="edge">
<title>Node24&#45;&gt;Node2</title>
<g id="a_edge39_Node000024_Node000002"><a xlink:title=" ">
<path fill="none" stroke="#63b8ff" d="M1022.4,-226.85C735.35,-195.47 659.8,-211.74 374.75,-191 359.65,-189.9 343.34,-188.52 328.21,-187.16"/>
<polygon fill="#63b8ff" stroke="#63b8ff" points="1021.82,-230.42 1032.14,-228.04 1022.59,-223.46 1021.82,-230.42"/>
</a>
</g>
</g>
<!-- Node24&#45;&gt;Node10 -->
<g id="edge40_Node000024_Node000010" class="edge">
<title>Node24&#45;&gt;Node10</title>
<g id="a_edge40_Node000024_Node000010"><a xlink:title=" ">
<path fill="none" stroke="#63b8ff" d="M1098.86,-218.94C1122.83,-193.75 1159.23,-146.57 1133.75,-113.5 1118.91,-94.23 1057.22,-81.5 1011.95,-74.55"/>
<polygon fill="#63b8ff" stroke="#63b8ff" points="1096.85,-216.01 1092.32,-225.59 1101.83,-220.93 1096.85,-216.01"/>
</a>
</g>
</g>
<!-- Node24&#45;&gt;Node13 -->
<g id="edge48_Node000024_Node000013" class="edge">
<title>Node24&#45;&gt;Node13</title>
<g id="a_edge48_Node000024_Node000013"><a xlink:title=" ">
<path fill="none" stroke="#63b8ff" d="M1042.37,-222.74C1020.83,-214.55 993.75,-203.34 970.75,-191 938.56,-173.73 903.75,-148.51 885.53,-134.74"/>
<polygon fill="#63b8ff" stroke="#63b8ff" points="1040.87,-226.29 1051.46,-226.51 1043.32,-219.73 1040.87,-226.29"/>
</a>
</g>
</g>
<!-- Node25 -->
<g id="Node000025" class="node">
<title>Node25</title>
<g id="a_Node000025"><a xlink:href="grid_8h.html" target="_top" xlink:title=" ">
<polygon fill="white" stroke="#666666" points="1565.25,-191 1504.25,-191 1504.25,-170.25 1565.25,-170.25 1565.25,-191"/>
<text text-anchor="middle" x="1534.75" y="-177.5" font-family="FreeSans" font-size="10.00">src/grid.h</text>
</a>
</g>
</g>
<!-- Node24&#45;&gt;Node25 -->
<g id="edge41_Node000024_Node000025" class="edge">
<title>Node24&#45;&gt;Node25</title>
<g id="a_edge41_Node000024_Node000025"><a xlink:title=" ">
<path fill="none" stroke="#63b8ff" d="M1139.32,-229.31C1236.81,-217.55 1429.08,-194.37 1503.92,-185.34"/>
<polygon fill="#63b8ff" stroke="#63b8ff" points="1138.99,-225.95 1129.48,-230.62 1139.83,-232.9 1138.99,-225.95"/>
</a>
</g>
</g>
<!-- Node24&#45;&gt;Node26 -->
<g id="edge46_Node000024_Node000026" class="edge">
<title>Node24&#45;&gt;Node26</title>
<g id="a_edge46_Node000024_Node000026"><a xlink:title=" ">
<path fill="none" stroke="#63b8ff" d="M1139.26,-226.17C1197.22,-216.07 1285.23,-200.72 1341.35,-190.94"/>
<polygon fill="#63b8ff" stroke="#63b8ff" points="1138.69,-222.89 1129.44,-228.06 1139.89,-229.79 1138.69,-222.89"/>
</a>
</g>
</g>
<!-- Node27 -->
<g id="Node000027" class="node">
<title>Node27</title>
<g id="a_Node000027"><a xlink:href="scalarFunction_8cpp.html" target="_top" xlink:title=" ">
<polygon fill="white" stroke="#666666" points="1124.75,-134.25 1000.75,-134.25 1000.75,-113.5 1124.75,-113.5 1124.75,-134.25"/>
<text text-anchor="middle" x="1062.75" y="-120.75" font-family="FreeSans" font-size="10.00">src/scalarFunction.cpp</text>
</a>
</g>
</g>
<!-- Node24&#45;&gt;Node27 -->
<g id="edge47_Node000024_Node000027" class="edge">
<title>Node24&#45;&gt;Node27</title>
<g id="a_edge47_Node000024_Node000027"><a xlink:title=" ">
<path fill="none" stroke="#63b8ff" d="M1095.61,-218.27C1104.66,-204.96 1113.31,-186.44 1106.75,-170.25 1100.73,-155.4 1087.27,-142.73 1076.81,-134.58"/>
<polygon fill="#63b8ff" stroke="#63b8ff" points="1092.33,-215.82 1089.17,-225.93 1097.94,-220 1092.33,-215.82"/>
</a>
</g>
</g>
<!-- Node28 -->
<g id="Node000028" class="node">
<title>Node28</title>
<g id="a_Node000028"><a xlink:href="splitSolver_8cpp.html" target="_top" xlink:title=" ">
<polygon fill="white" stroke="#666666" points="1296,-134.25 1191.5,-134.25 1191.5,-113.5 1296,-113.5 1296,-134.25"/>
<text text-anchor="middle" x="1243.75" y="-120.75" font-family="FreeSans" font-size="10.00">src/splitSolver.cpp</text>
</a>
</g>
</g>
<!-- Node24&#45;&gt;Node28 -->
<g id="edge49_Node000024_Node000028" class="edge">
<title>Node24&#45;&gt;Node28</title>
<g id="a_edge49_Node000024_Node000028"><a xlink:title=" ">
<path fill="none" stroke="#63b8ff" d="M1118.02,-222.54C1136.79,-214.71 1159.39,-203.89 1177.75,-191 1201.65,-174.23 1224.57,-148.35 1236.07,-134.46"/>
<polygon fill="#63b8ff" stroke="#63b8ff" points="1117,-219.59 1109.04,-226.58 1119.63,-226.07 1117,-219.59"/>
</a>
</g>
</g>
<!-- Node24&#45;&gt;Node29 -->
<g id="edge50_Node000024_Node000029" class="edge">
<title>Node24&#45;&gt;Node29</title>
<g id="a_edge50_Node000024_Node000029"><a xlink:title=" ">
<path fill="none" stroke="#63b8ff" d="M1126.27,-223.66C1161.45,-213.83 1209.44,-200.43 1241.68,-191.42"/>
<polygon fill="#63b8ff" stroke="#63b8ff" points="1125.48,-220.53 1116.79,-226.59 1127.36,-227.27 1125.48,-220.53"/>
</a>
</g>
</g>
<!-- Node25&#45;&gt;Node5 -->
<g id="edge45_Node000025_Node000005" class="edge">
<title>Node25&#45;&gt;Node5</title>
<g id="a_edge45_Node000025_Node000005"><a xlink:title=" ">
<path fill="none" stroke="#63b8ff" d="M1576.1,-169.24C1616.57,-159.07 1677.63,-143.74 1716.32,-134.02"/>
<polygon fill="#63b8ff" stroke="#63b8ff" points="1575.37,-166.07 1566.52,-171.9 1577.07,-172.86 1575.37,-166.07"/>
</a>
</g>
</g>
<!-- Node25&#45;&gt;Node10 -->
<g id="edge44_Node000025_Node000010" class="edge">
<title>Node25&#45;&gt;Node10</title>
<g id="a_edge44_Node000025_Node000010"><a xlink:title=" ">
<path fill="none" stroke="#63b8ff" d="M1527.17,-160.26C1520,-144.78 1507.67,-123.99 1489.75,-113.5 1449.1,-89.71 1135.72,-74.95 1011.87,-69.99"/>
<polygon fill="#63b8ff" stroke="#63b8ff" points="1524.16,-161.12 1531.31,-168.94 1530.59,-158.37 1524.16,-161.12"/>
</a>
</g>
</g>
<!-- Node25&#45;&gt;Node15 -->
<g id="edge42_Node000025_Node000015" class="edge">
<title>Node25&#45;&gt;Node15</title>
<g id="a_edge42_Node000025_Node000015"><a xlink:title=" ">
<path fill="none" stroke="#63b8ff" d="M1493.18,-174.03C1481.42,-172.61 1468.6,-171.21 1456.75,-170.25 1082.12,-139.76 631.16,-129.04 464.15,-125.95"/>
<polygon fill="#63b8ff" stroke="#63b8ff" points="1492.7,-177.62 1503.06,-175.38 1493.57,-170.67 1492.7,-177.62"/>
</a>
</g>
</g>
<!-- Node25&#45;&gt;Node16 -->
<g id="edge43_Node000025_Node000016" class="edge">
<title>Node25&#45;&gt;Node16</title>
<g id="a_edge43_Node000025_Node000016"><a xlink:title=" ">
<path fill="none" stroke="#63b8ff" d="M1555.17,-163.19C1566.76,-153.86 1580.87,-142.5 1590.7,-134.58"/>
<polygon fill="#63b8ff" stroke="#63b8ff" points="1553.5,-160.84 1547.91,-169.84 1557.89,-166.29 1553.5,-160.84"/>
</a>
</g>
</g>
<!-- Node29&#45;&gt;Node10 -->
<g id="edge51_Node000029_Node000010" class="edge">
<title>Node29&#45;&gt;Node10</title>
<g id="a_edge51_Node000029_Node000010"><a xlink:title=" ">
<path fill="none" stroke="#63b8ff" d="M1293.74,-161.97C1305.49,-147.6 1317,-127.48 1304.75,-113.5 1285.77,-91.84 1102.79,-77.17 1012.13,-71.17"/>
<polygon fill="#63b8ff" stroke="#63b8ff" points="1291.59,-159.25 1287.6,-169.06 1296.84,-163.88 1291.59,-159.25"/>
</a>
</g>
</g>
<!-- Node29&#45;&gt;Node28 -->
<g id="edge52_Node000029_Node000028" class="edge">
<title>Node29&#45;&gt;Node28</title>
<g id="a_edge52_Node000029_Node000028"><a xlink:title=" ">
<path fill="none" stroke="#63b8ff" d="M1265.33,-160.67C1260.03,-151.88 1253.95,-141.8 1249.6,-134.58"/>
<polygon fill="#63b8ff" stroke="#63b8ff" points="1262.69,-162.08 1270.85,-168.84 1268.69,-158.47 1262.69,-162.08"/>
</a>
</g>
</g>
<!-- Node30&#45;&gt;Node11 -->
<g id="edge55_Node000030_Node000011" class="edge">
<title>Node30&#45;&gt;Node11</title>
<g id="a_edge55_Node000030_Node000011"><a xlink:title=" ">
<path fill="none" stroke="#63b8ff" d="M466.52,-164.46C526.4,-130.54 669.77,-49.32 719.45,-21.18"/>
<polygon fill="#63b8ff" stroke="#63b8ff" points="464.98,-161.88 458,-169.85 468.43,-167.97 464.98,-161.88"/>
</a>
</g>
</g>
<!-- Node30&#45;&gt;Node13 -->
<g id="edge57_Node000030_Node000013" class="edge">
<title>Node30&#45;&gt;Node13</title>
<g id="a_edge57_Node000030_Node000013"><a xlink:title=" ">
<path fill="none" stroke="#63b8ff" d="M507.36,-169.92C620.22,-154.91 740.33,-140.45 811.17,-132.08"/>
<polygon fill="#63b8ff" stroke="#63b8ff" points="506.91,-166.58 497.46,-171.38 507.84,-173.52 506.91,-166.58"/>
</a>
</g>
</g>
<!-- Node30&#45;&gt;Node15 -->
<g id="edge54_Node000030_Node000015" class="edge">
<title>Node30&#45;&gt;Node15</title>
<g id="a_edge54_Node000030_Node000015"><a xlink:title=" ">
<path fill="none" stroke="#63b8ff" d="M425.65,-161.24C418.8,-152.31 410.85,-141.95 405.19,-134.58"/>
<polygon fill="#63b8ff" stroke="#63b8ff" points="423.38,-163.03 432.24,-168.84 428.93,-158.77 423.38,-163.03"/>
</a>
</g>
</g>
<!-- Node30&#45;&gt;Node27 -->
<g id="edge56_Node000030_Node000027" class="edge">
<title>Node30&#45;&gt;Node27</title>
<g id="a_edge56_Node000030_Node000027"><a xlink:title=" ">
<path fill="none" stroke="#63b8ff" d="M507.16,-170.17C573.4,-163.96 869.59,-140.27 1000.43,-129.84"/>
<polygon fill="#63b8ff" stroke="#63b8ff" points="507.05,-166.76 497.44,-171.24 507.74,-173.72 507.05,-166.76"/>
</a>
</g>
</g>
</g>
</svg>
