<?xml version="1.0" encoding="UTF-8" standalone="no"?>
<!DOCTYPE svg PUBLIC "-//W3C//DTD SVG 1.1//EN"
 "http://www.w3.org/Graphics/SVG/1.1/DTD/svg11.dtd">
<!-- Generated by graphviz version 2.36.0 (20140111.2315)
 -->
<!-- Title: src/debugUtils.h Pages: 1 -->
<svg width="1892pt" height="364pt"
 viewBox="0.00 0.00 1892.00 364.00" xmlns="http://www.w3.org/2000/svg" xmlns:xlink="http://www.w3.org/1999/xlink">
<g id="graph0" class="graph" transform="scale(1 1) rotate(0) translate(4 360)">
<title>src/debugUtils.h</title>
<polygon fill="white" stroke="none" points="-4,4 -4,-360 1888,-360 1888,4 -4,4"/>
<!-- Node1 -->
<g id="node1" class="node"><title>Node1</title>
<polygon fill="#bfbfbf" stroke="black" points="1203.5,-336.5 1203.5,-355.5 1288.5,-355.5 1288.5,-336.5 1203.5,-336.5"/>
<text text-anchor="middle" x="1246" y="-343.5" font-family="FreeSans" font-size="10.00">src/debugUtils.h</text>
</g>
<!-- Node2 -->
<g id="node2" class="node"><title>Node2</title>
<g id="a_node2"><a xlink:href="mathUtils_8h.html" target="_top" xlink:title="src/mathUtils.h">
<polygon fill="white" stroke="black" points="1002,-280.5 1002,-299.5 1082,-299.5 1082,-280.5 1002,-280.5"/>
<text text-anchor="middle" x="1042" y="-287.5" font-family="FreeSans" font-size="10.00">src/mathUtils.h</text>
</a>
</g>
</g>
<!-- Node1&#45;&gt;Node2 -->
<g id="edge1" class="edge"><title>Node1&#45;&gt;Node2</title>
<path fill="none" stroke="midnightblue" d="M1203.8,-333.829C1165.28,-323.633 1109.18,-308.782 1074.17,-299.516"/>
<polygon fill="midnightblue" stroke="midnightblue" points="1203.11,-337.268 1213.68,-336.444 1204.9,-330.501 1203.11,-337.268"/>
</g>
<!-- Node4 -->
<g id="node4" class="node"><title>Node4</title>
<g id="a_node4"><a xlink:href="chemistry0d_8cpp.html" target="_top" xlink:title="src/chemistry0d.cpp">
<polygon fill="white" stroke="black" points="569,-168.5 569,-187.5 671,-187.5 671,-168.5 569,-168.5"/>
<text text-anchor="middle" x="620" y="-175.5" font-family="FreeSans" font-size="10.00">src/chemistry0d.cpp</text>
</a>
</g>
</g>
<!-- Node1&#45;&gt;Node4 -->
<g id="edge50" class="edge"><title>Node1&#45;&gt;Node4</title>
<path fill="none" stroke="midnightblue" d="M1193.41,-345.076C1053.93,-344.048 680.002,-332.893 604,-244 590.104,-227.747 604.449,-201.279 613.617,-187.676"/>
<polygon fill="midnightblue" stroke="midnightblue" points="1193.42,-348.576 1203.44,-345.135 1193.46,-341.576 1193.42,-348.576"/>
</g>
<!-- Node5 -->
<g id="node5" class="node"><title>Node5</title>
<g id="a_node5"><a xlink:href="convectionSystem_8cpp.html" target="_top" xlink:title="src/convectionSystem.cpp">
<polygon fill="white" stroke="black" points="-0.5,-56.5 -0.5,-75.5 128.5,-75.5 128.5,-56.5 -0.5,-56.5"/>
<text text-anchor="middle" x="64" y="-63.5" font-family="FreeSans" font-size="10.00">src/convectionSystem.cpp</text>
</a>
</g>
</g>
<!-- Node1&#45;&gt;Node5 -->
<g id="edge60" class="edge"><title>Node1&#45;&gt;Node5</title>
<path fill="none" stroke="midnightblue" d="M1193.32,-344.57C1013.38,-342.8 423.965,-334.452 238,-300 148.174,-283.359 43,-326.355 43,-235 43,-235 43,-235 43,-177 43,-138.699 55.4357,-94.206 61.1678,-75.7319"/>
<polygon fill="midnightblue" stroke="midnightblue" points="1193.3,-348.07 1203.33,-344.666 1193.36,-341.07 1193.3,-348.07"/>
</g>
<!-- Node13 -->
<g id="node13" class="node"><title>Node13</title>
<g id="a_node13"><a xlink:href="grid_8cpp.html" target="_top" xlink:title="src/grid.cpp">
<polygon fill="white" stroke="black" points="1426,-112.5 1426,-131.5 1492,-131.5 1492,-112.5 1426,-112.5"/>
<text text-anchor="middle" x="1459" y="-119.5" font-family="FreeSans" font-size="10.00">src/grid.cpp</text>
</a>
</g>
</g>
<!-- Node1&#45;&gt;Node13 -->
<g id="edge62" class="edge"><title>Node1&#45;&gt;Node13</title>
<path fill="none" stroke="midnightblue" d="M1298.72,-341.509C1382.45,-335.41 1541.7,-321.389 1594,-300 1669.7,-269.043 1704.07,-261.467 1740,-188 1743.91,-180.015 1745.77,-174.764 1740,-168 1708.47,-131.015 1559.42,-124.299 1492.12,-123.172"/>
<polygon fill="midnightblue" stroke="midnightblue" points="1298.38,-338.024 1288.66,-342.23 1298.88,-345.006 1298.38,-338.024"/>
</g>
<!-- Node16 -->
<g id="node16" class="node"><title>Node16</title>
<g id="a_node16"><a xlink:href="readConfig_8cpp.html" target="_top" xlink:title="src/readConfig.cpp">
<polygon fill="white" stroke="black" points="1526,-168.5 1526,-187.5 1622,-187.5 1622,-168.5 1526,-168.5"/>
<text text-anchor="middle" x="1574" y="-175.5" font-family="FreeSans" font-size="10.00">src/readConfig.cpp</text>
</a>
</g>
</g>
<!-- Node1&#45;&gt;Node16 -->
<g id="edge65" class="edge"><title>Node1&#45;&gt;Node16</title>
<path fill="none" stroke="midnightblue" d="M1298.67,-338.999C1393.97,-326.936 1588.89,-296.333 1629,-244 1645.01,-223.115 1612.16,-199.848 1590.66,-187.609"/>
<polygon fill="midnightblue" stroke="midnightblue" points="1298.15,-335.536 1288.66,-340.244 1299.02,-342.482 1298.15,-335.536"/>
</g>
<!-- Node22 -->
<g id="node22" class="node"><title>Node22</title>
<g id="a_node22"><a xlink:href="integrator_8cpp.html" target="_top" xlink:title="src/integrator.cpp">
<polygon fill="white" stroke="black" points="1640.5,-168.5 1640.5,-187.5 1731.5,-187.5 1731.5,-168.5 1640.5,-168.5"/>
<text text-anchor="middle" x="1686" y="-175.5" font-family="FreeSans" font-size="10.00">src/integrator.cpp</text>
</a>
</g>
</g>
<!-- Node1&#45;&gt;Node22 -->
<g id="edge63" class="edge"><title>Node1&#45;&gt;Node22</title>
<path fill="none" stroke="midnightblue" d="M1298.73,-344.001C1361.94,-341.318 1470.19,-331.951 1557,-300 1600.86,-283.858 1613.12,-277.21 1646,-244 1662.97,-226.863 1676.03,-201.24 1682.16,-187.858"/>
<polygon fill="midnightblue" stroke="midnightblue" points="1298.47,-340.509 1288.61,-344.39 1298.74,-347.504 1298.47,-340.509"/>
</g>
<!-- Node24 -->
<g id="node24" class="node"><title>Node24</title>
<g id="a_node24"><a xlink:href="qssintegrator_8cpp.html" target="_top" xlink:title="src/qssintegrator.cpp">
<polygon fill="white" stroke="black" points="1024.5,-168.5 1024.5,-187.5 1129.5,-187.5 1129.5,-168.5 1024.5,-168.5"/>
<text text-anchor="middle" x="1077" y="-175.5" font-family="FreeSans" font-size="10.00">src/qssintegrator.cpp</text>
</a>
</g>
</g>
<!-- Node1&#45;&gt;Node24 -->
<g id="edge64" class="edge"><title>Node1&#45;&gt;Node24</title>
<path fill="none" stroke="midnightblue" d="M1229.36,-328.651C1194.02,-293.939 1112.53,-213.898 1085.72,-187.568"/>
<polygon fill="midnightblue" stroke="midnightblue" points="1227.33,-331.565 1236.91,-336.075 1232.23,-326.571 1227.33,-331.565"/>
</g>
<!-- Node27 -->
<g id="node27" class="node"><title>Node27</title>
<g id="a_node27"><a xlink:href="sundialsUtils_8cpp.html" target="_top" xlink:title="src/sundialsUtils.cpp">
<polygon fill="white" stroke="black" points="1516,-224.5 1516,-243.5 1620,-243.5 1620,-224.5 1516,-224.5"/>
<text text-anchor="middle" x="1568" y="-231.5" font-family="FreeSans" font-size="10.00">src/sundialsUtils.cpp</text>
</a>
</g>
</g>
<!-- Node1&#45;&gt;Node27 -->
<g id="edge66" class="edge"><title>Node1&#45;&gt;Node27</title>
<path fill="none" stroke="midnightblue" d="M1280.82,-333.104C1346.15,-310.786 1485.65,-263.132 1542.8,-243.61"/>
<polygon fill="midnightblue" stroke="midnightblue" points="1279.33,-329.915 1271,-336.46 1281.59,-336.539 1279.33,-329.915"/>
</g>
<!-- Node28 -->
<g id="node28" class="node"><title>Node28</title>
<g id="a_node28"><a xlink:href="tbb__fake_8h.html" target="_top" xlink:title="src/tbb_fake.h">
<polygon fill="white" stroke="black" points="247.5,-280.5 247.5,-299.5 324.5,-299.5 324.5,-280.5 247.5,-280.5"/>
<text text-anchor="middle" x="286" y="-287.5" font-family="FreeSans" font-size="10.00">src/tbb_fake.h</text>
</a>
</g>
</g>
<!-- Node1&#45;&gt;Node28 -->
<g id="edge51" class="edge"><title>Node1&#45;&gt;Node28</title>
<path fill="none" stroke="midnightblue" d="M1193.08,-342.023C1020.19,-332.298 474.534,-301.605 324.504,-293.166"/>
<polygon fill="midnightblue" stroke="midnightblue" points="1193.02,-345.525 1203.2,-342.592 1193.41,-338.536 1193.02,-345.525"/>
</g>
<!-- Node31 -->
<g id="node31" class="node"><title>Node31</title>
<g id="a_node31"><a xlink:href="debugUtils_8cpp.html" target="_top" xlink:title="src/debugUtils.cpp">
<polygon fill="white" stroke="black" points="1788.5,-280.5 1788.5,-299.5 1883.5,-299.5 1883.5,-280.5 1788.5,-280.5"/>
<text text-anchor="middle" x="1836" y="-287.5" font-family="FreeSans" font-size="10.00">src/debugUtils.cpp</text>
</a>
</g>
</g>
<!-- Node1&#45;&gt;Node31 -->
<g id="edge61" class="edge"><title>Node1&#45;&gt;Node31</title>
<path fill="none" stroke="midnightblue" d="M1298.74,-341.542C1393.87,-335.074 1600.46,-319.974 1774,-300 1778.65,-299.465 1783.48,-298.856 1788.31,-298.213"/>
<polygon fill="midnightblue" stroke="midnightblue" points="1298.26,-338.067 1288.52,-342.233 1298.73,-345.051 1298.26,-338.067"/>
</g>
<!-- Node3 -->
<g id="node3" class="node"><title>Node3</title>
<g id="a_node3"><a xlink:href="chemistry0d_8h.html" target="_top" xlink:title="src/chemistry0d.h">
<polygon fill="white" stroke="black" points="363,-224.5 363,-243.5 455,-243.5 455,-224.5 363,-224.5"/>
<text text-anchor="middle" x="409" y="-231.5" font-family="FreeSans" font-size="10.00">src/chemistry0d.h</text>
</a>
</g>
</g>
<!-- Node2&#45;&gt;Node3 -->
<g id="edge2" class="edge"><title>Node2&#45;&gt;Node3</title>
<path fill="none" stroke="midnightblue" d="M991.929,-284.729C872.23,-274.517 570.883,-248.81 455.206,-238.942"/>
<polygon fill="midnightblue" stroke="midnightblue" points="991.661,-288.218 1001.92,-285.581 992.257,-281.244 991.661,-288.218"/>
</g>
<!-- Node9 -->
<g id="node9" class="node"><title>Node9</title>
<g id="a_node9"><a xlink:href="readConfig_8h.html" target="_top" xlink:title="src/readConfig.h">
<polygon fill="white" stroke="black" points="1153,-224.5 1153,-243.5 1239,-243.5 1239,-224.5 1153,-224.5"/>
<text text-anchor="middle" x="1196" y="-231.5" font-family="FreeSans" font-size="10.00">src/readConfig.h</text>
</a>
</g>
</g>
<!-- Node2&#45;&gt;Node9 -->
<g id="edge8" class="edge"><title>Node2&#45;&gt;Node9</title>
<path fill="none" stroke="midnightblue" d="M1076.11,-277.039C1105.09,-266.879 1145.96,-252.546 1171.71,-243.516"/>
<polygon fill="midnightblue" stroke="midnightblue" points="1074.68,-273.832 1066.4,-280.444 1077,-280.437 1074.68,-273.832"/>
</g>
<!-- Node11 -->
<g id="node11" class="node"><title>Node11</title>
<g id="a_node11"><a xlink:href="convectionSystem_8h.html" target="_top" xlink:title="src/convectionSystem.h">
<polygon fill="white" stroke="black" points="658.5,-112.5 658.5,-131.5 777.5,-131.5 777.5,-112.5 658.5,-112.5"/>
<text text-anchor="middle" x="718" y="-119.5" font-family="FreeSans" font-size="10.00">src/convectionSystem.h</text>
</a>
</g>
</g>
<!-- Node2&#45;&gt;Node11 -->
<g id="edge26" class="edge"><title>Node2&#45;&gt;Node11</title>
<path fill="none" stroke="midnightblue" d="M991.544,-282.904C947.952,-276.551 883.83,-264.575 831,-244 785.329,-226.213 765.823,-226.894 736,-188 723.032,-171.088 719.405,-145.37 718.392,-131.914"/>
<polygon fill="midnightblue" stroke="midnightblue" points="991.224,-286.394 1001.62,-284.325 992.202,-279.462 991.224,-286.394"/>
</g>
<!-- Node12 -->
<g id="node12" class="node"><title>Node12</title>
<g id="a_node12"><a xlink:href="diffusionSystem_8h.html" target="_top" xlink:title="src/diffusionSystem.h">
<polygon fill="white" stroke="red" points="1300.5,-112.5 1300.5,-131.5 1407.5,-131.5 1407.5,-112.5 1300.5,-112.5"/>
<text text-anchor="middle" x="1354" y="-119.5" font-family="FreeSans" font-size="10.00">src/diffusionSystem.h</text>
</a>
</g>
</g>
<!-- Node2&#45;&gt;Node12 -->
<g id="edge34" class="edge"><title>Node2&#45;&gt;Node12</title>
<path fill="none" stroke="midnightblue" d="M1092.28,-282.845C1182.87,-270.555 1367.33,-239.63 1402,-188 1415.92,-167.271 1387.28,-143.943 1368.53,-131.652"/>
<polygon fill="midnightblue" stroke="midnightblue" points="1091.69,-279.393 1082.24,-284.183 1092.61,-286.331 1091.69,-279.393"/>
</g>
<!-- Node14 -->
<g id="node14" class="node"><title>Node14</title>
<g id="a_node14"><a xlink:href="splitSolver_8h.html" target="_top" xlink:title="src/splitSolver.h">
<polygon fill="white" stroke="black" points="1122,-112.5 1122,-131.5 1206,-131.5 1206,-112.5 1122,-112.5"/>
<text text-anchor="middle" x="1164" y="-119.5" font-family="FreeSans" font-size="10.00">src/splitSolver.h</text>
</a>
</g>
</g>
<!-- Node2&#45;&gt;Node14 -->
<g id="edge39" class="edge"><title>Node2&#45;&gt;Node14</title>
<path fill="none" stroke="midnightblue" d="M1092.21,-285.12C1146.79,-279.736 1228.8,-267.841 1248,-244 1263.72,-224.477 1240.7,-186.996 1226,-168 1213.79,-152.223 1194.6,-139.485 1180.81,-131.641"/>
<polygon fill="midnightblue" stroke="midnightblue" points="1091.65,-281.657 1082.03,-286.081 1092.31,-288.626 1091.65,-281.657"/>
</g>
<!-- Node18 -->
<g id="node18" class="node"><title>Node18</title>
<g id="a_node18"><a xlink:href="quasi2d_8h.html" target="_top" xlink:title="src/quasi2d.h">
<polygon fill="white" stroke="black" points="840.5,-224.5 840.5,-243.5 913.5,-243.5 913.5,-224.5 840.5,-224.5"/>
<text text-anchor="middle" x="877" y="-231.5" font-family="FreeSans" font-size="10.00">src/quasi2d.h</text>
</a>
</g>
</g>
<!-- Node2&#45;&gt;Node18 -->
<g id="edge27" class="edge"><title>Node2&#45;&gt;Node18</title>
<path fill="none" stroke="midnightblue" d="M1006.26,-277.304C975.173,-267.129 930.853,-252.625 903.022,-243.516"/>
<polygon fill="midnightblue" stroke="midnightblue" points="1005.26,-280.659 1015.86,-280.444 1007.44,-274.007 1005.26,-280.659"/>
</g>
<!-- Node19 -->
<g id="node19" class="node"><title>Node19</title>
<g id="a_node19"><a xlink:href="sourceSystem_8h.html" target="_top" xlink:title="src/sourceSystem.h">
<polygon fill="white" stroke="black" points="905.5,-168.5 905.5,-187.5 1006.5,-187.5 1006.5,-168.5 905.5,-168.5"/>
<text text-anchor="middle" x="956" y="-175.5" font-family="FreeSans" font-size="10.00">src/sourceSystem.h</text>
</a>
</g>
</g>
<!-- Node2&#45;&gt;Node19 -->
<g id="edge40" class="edge"><title>Node2&#45;&gt;Node19</title>
<path fill="none" stroke="midnightblue" d="M1018.68,-274.492C1007.38,-266.565 994.284,-255.936 985,-244 971.192,-226.248 962.36,-200.884 958.407,-187.704"/>
<polygon fill="midnightblue" stroke="midnightblue" points="1016.99,-277.576 1027.25,-280.244 1020.89,-271.764 1016.99,-277.576"/>
</g>
<!-- Node21 -->
<g id="node21" class="node"><title>Node21</title>
<g id="a_node21"><a xlink:href="integrator_8h.html" target="_top" xlink:title="src/integrator.h">
<polygon fill="white" stroke="black" points="1418,-224.5 1418,-243.5 1498,-243.5 1498,-224.5 1418,-224.5"/>
<text text-anchor="middle" x="1458" y="-231.5" font-family="FreeSans" font-size="10.00">src/integrator.h</text>
</a>
</g>
</g>
<!-- Node2&#45;&gt;Node21 -->
<g id="edge35" class="edge"><title>Node2&#45;&gt;Node21</title>
<path fill="none" stroke="midnightblue" d="M1092.55,-283.386C1162.61,-275.454 1293.12,-260.124 1404,-244 1408.51,-243.343 1413.23,-242.617 1417.92,-241.869"/>
<polygon fill="midnightblue" stroke="midnightblue" points="1091.79,-279.949 1082.25,-284.549 1092.58,-286.905 1091.79,-279.949"/>
</g>
<!-- Node23 -->
<g id="node23" class="node"><title>Node23</title>
<g id="a_node23"><a xlink:href="qssintegrator_8h.html" target="_top" xlink:title="src/qssintegrator.h">
<polygon fill="white" stroke="black" points="994.5,-224.5 994.5,-243.5 1089.5,-243.5 1089.5,-224.5 994.5,-224.5"/>
<text text-anchor="middle" x="1042" y="-231.5" font-family="FreeSans" font-size="10.00">src/qssintegrator.h</text>
</a>
</g>
</g>
<!-- Node2&#45;&gt;Node23 -->
<g id="edge41" class="edge"><title>Node2&#45;&gt;Node23</title>
<path fill="none" stroke="midnightblue" d="M1042,-269.805C1042,-260.91 1042,-250.78 1042,-243.751"/>
<polygon fill="midnightblue" stroke="midnightblue" points="1038.5,-270.083 1042,-280.083 1045.5,-270.083 1038.5,-270.083"/>
</g>
<!-- Node25 -->
<g id="node25" class="node"><title>Node25</title>
<g id="a_node25"><a xlink:href="scalarFunction_8h.html" target="_top" xlink:title="src/scalarFunction.h">
<polygon fill="white" stroke="black" points="225.5,-224.5 225.5,-243.5 328.5,-243.5 328.5,-224.5 225.5,-224.5"/>
<text text-anchor="middle" x="277" y="-231.5" font-family="FreeSans" font-size="10.00">src/scalarFunction.h</text>
</a>
</g>
</g>
<!-- Node2&#45;&gt;Node25 -->
<g id="edge44" class="edge"><title>Node2&#45;&gt;Node25</title>
<path fill="none" stroke="midnightblue" d="M991.459,-286.58C877.552,-280.93 592.131,-265.69 354,-244 345.824,-243.255 337.172,-242.354 328.736,-241.414"/>
<polygon fill="midnightblue" stroke="midnightblue" points="991.459,-290.084 1001.62,-287.08 991.804,-283.092 991.459,-290.084"/>
</g>
<!-- Node26 -->
<g id="node26" class="node"><title>Node26</title>
<g id="a_node26"><a xlink:href="mathUtils_8cpp.html" target="_top" xlink:title="src/mathUtils.cpp">
<polygon fill="white" stroke="black" points="613.5,-224.5 613.5,-243.5 704.5,-243.5 704.5,-224.5 613.5,-224.5"/>
<text text-anchor="middle" x="659" y="-231.5" font-family="FreeSans" font-size="10.00">src/mathUtils.cpp</text>
</a>
</g>
</g>
<!-- Node2&#45;&gt;Node26 -->
<g id="edge48" class="edge"><title>Node2&#45;&gt;Node26</title>
<path fill="none" stroke="midnightblue" d="M991.807,-282.173C928.273,-273.493 815.473,-257.955 719,-244 714.309,-243.321 709.413,-242.603 704.529,-241.881"/>
<polygon fill="midnightblue" stroke="midnightblue" points="991.567,-285.672 1001.95,-283.557 992.514,-278.737 991.567,-285.672"/>
</g>
<!-- Node2&#45;&gt;Node27 -->
<g id="edge49" class="edge"><title>Node2&#45;&gt;Node27</title>
<path fill="none" stroke="midnightblue" d="M1092.39,-284.955C1177.82,-277.911 1356.49,-262.375 1507,-244 1509.87,-243.65 1512.81,-243.273 1515.78,-242.88"/>
<polygon fill="midnightblue" stroke="midnightblue" points="1091.87,-281.485 1082.19,-285.792 1092.45,-288.462 1091.87,-281.485"/>
</g>
<!-- Node3&#45;&gt;Node4 -->
<g id="edge3" class="edge"><title>Node3&#45;&gt;Node4</title>
<path fill="none" stroke="midnightblue" d="M452.142,-221.959C491.994,-211.76 550.363,-196.822 586.723,-187.516"/>
<polygon fill="midnightblue" stroke="midnightblue" points="451.254,-218.573 442.434,-224.444 452.989,-225.355 451.254,-218.573"/>
</g>
<!-- Node3&#45;&gt;Node5 -->
<g id="edge4" class="edge"><title>Node3&#45;&gt;Node5</title>
<path fill="none" stroke="midnightblue" d="M371.345,-221.324C345.971,-213.028 311.971,-201.073 283,-188 202.427,-151.641 111.566,-96.6272 77.6878,-75.592"/>
<polygon fill="midnightblue" stroke="midnightblue" points="370.371,-224.687 380.962,-224.429 372.521,-218.026 370.371,-224.687"/>
</g>
<!-- Node6 -->
<g id="node6" class="node"><title>Node6</title>
<g id="a_node6"><a xlink:href="flameSolver_8h.html" target="_top" xlink:title="src/flameSolver.h">
<polygon fill="white" stroke="black" points="861,-56.5 861,-75.5 951,-75.5 951,-56.5 861,-56.5"/>
<text text-anchor="middle" x="906" y="-63.5" font-family="FreeSans" font-size="10.00">src/flameSolver.h</text>
</a>
</g>
</g>
<!-- Node3&#45;&gt;Node6 -->
<g id="edge5" class="edge"><title>Node3&#45;&gt;Node6</title>
<path fill="none" stroke="midnightblue" d="M409.642,-214.139C411.156,-199.586 415.58,-179.978 428,-168 489.968,-108.237 754.225,-79.7456 860.987,-70.51"/>
<polygon fill="midnightblue" stroke="midnightblue" points="406.125,-214.273 408.954,-224.483 413.11,-214.737 406.125,-214.273"/>
</g>
<!-- Node8 -->
<g id="node8" class="node"><title>Node8</title>
<g id="a_node8"><a xlink:href="sourceSystem_8cpp.html" target="_top" xlink:title="src/sourceSystem.cpp">
<polygon fill="white" stroke="black" points="299.5,-112.5 299.5,-131.5 410.5,-131.5 410.5,-112.5 299.5,-112.5"/>
<text text-anchor="middle" x="355" y="-119.5" font-family="FreeSans" font-size="10.00">src/sourceSystem.cpp</text>
</a>
</g>
</g>
<!-- Node3&#45;&gt;Node8 -->
<g id="edge7" class="edge"><title>Node3&#45;&gt;Node8</title>
<path fill="none" stroke="midnightblue" d="M352.835,-225.905C329.367,-219.856 304.282,-208.67 290,-188 274.124,-165.023 310.328,-143.085 334.828,-131.503"/>
<polygon fill="midnightblue" stroke="midnightblue" points="352.226,-229.356 362.757,-228.195 353.8,-222.536 352.226,-229.356"/>
</g>
<!-- Node7 -->
<g id="node7" class="node"><title>Node7</title>
<g id="a_node7"><a xlink:href="flameSolver_8cpp.html" target="_top" xlink:title="src/flameSolver.cpp">
<polygon fill="white" stroke="black" points="480.5,-0.5 480.5,-19.5 581.5,-19.5 581.5,-0.5 480.5,-0.5"/>
<text text-anchor="middle" x="531" y="-7.5" font-family="FreeSans" font-size="10.00">src/flameSolver.cpp</text>
</a>
</g>
</g>
<!-- Node6&#45;&gt;Node7 -->
<g id="edge6" class="edge"><title>Node6&#45;&gt;Node7</title>
<path fill="none" stroke="midnightblue" d="M850.463,-57.0027C777.913,-46.5554 651.899,-28.4095 581.78,-18.3123"/>
<polygon fill="midnightblue" stroke="midnightblue" points="850.369,-60.5252 860.766,-58.4863 851.367,-53.5967 850.369,-60.5252"/>
</g>
<!-- Node9&#45;&gt;Node4 -->
<g id="edge9" class="edge"><title>Node9&#45;&gt;Node4</title>
<path fill="none" stroke="midnightblue" d="M1142.46,-227.98C1031.89,-217.615 779.614,-193.964 671.136,-183.794"/>
<polygon fill="midnightblue" stroke="midnightblue" points="1142.42,-231.492 1152.71,-228.941 1143.08,-224.523 1142.42,-231.492"/>
</g>
<!-- Node9&#45;&gt;Node6 -->
<g id="edge18" class="edge"><title>Node9&#45;&gt;Node6</title>
<path fill="none" stroke="midnightblue" d="M1191.52,-214.378C1187.19,-199.988 1179.28,-180.481 1166,-168 1131.33,-135.415 996.699,-93.346 935.989,-75.551"/>
<polygon fill="midnightblue" stroke="midnightblue" points="1188.18,-215.442 1194.17,-224.184 1194.94,-213.618 1188.18,-215.442"/>
</g>
<!-- Node9&#45;&gt;Node8 -->
<g id="edge24" class="edge"><title>Node9&#45;&gt;Node8</title>
<path fill="none" stroke="midnightblue" d="M1186.03,-215.597C1176.07,-200.064 1159.2,-178.238 1138,-168 1105.33,-152.228 584.37,-131.528 410.783,-125.037"/>
<polygon fill="midnightblue" stroke="midnightblue" points="1183.13,-217.567 1191.32,-224.295 1189.11,-213.932 1183.13,-217.567"/>
</g>
<!-- Node10 -->
<g id="node10" class="node"><title>Node10</title>
<g id="a_node10"><a xlink:href="grid_8h.html" target="_top" xlink:title="src/grid.h">
<polygon fill="white" stroke="black" points="1338,-168.5 1338,-187.5 1394,-187.5 1394,-168.5 1338,-168.5"/>
<text text-anchor="middle" x="1366" y="-175.5" font-family="FreeSans" font-size="10.00">src/grid.h</text>
</a>
</g>
</g>
<!-- Node9&#45;&gt;Node10 -->
<g id="edge10" class="edge"><title>Node9&#45;&gt;Node10</title>
<path fill="none" stroke="midnightblue" d="M1232.82,-221.304C1264.85,-211.129 1310.52,-196.625 1339.19,-187.516"/>
<polygon fill="midnightblue" stroke="midnightblue" points="1231.41,-218.08 1222.94,-224.444 1233.53,-224.752 1231.41,-218.08"/>
</g>
<!-- Node9&#45;&gt;Node14 -->
<g id="edge19" class="edge"><title>Node9&#45;&gt;Node14</title>
<path fill="none" stroke="midnightblue" d="M1205.46,-215.203C1211.25,-201.828 1216.42,-183.262 1210,-168 1203.5,-152.553 1188.83,-139.759 1177.79,-131.811"/>
<polygon fill="midnightblue" stroke="midnightblue" points="1202.28,-213.75 1201.1,-224.279 1208.59,-216.784 1202.28,-213.75"/>
</g>
<!-- Node15 -->
<g id="node15" class="node"><title>Node15</title>
<g id="a_node15"><a xlink:href="splitSolver_8cpp.html" target="_top" xlink:title="src/splitSolver.cpp">
<polygon fill="white" stroke="black" points="1170.5,-56.5 1170.5,-75.5 1265.5,-75.5 1265.5,-56.5 1170.5,-56.5"/>
<text text-anchor="middle" x="1218" y="-63.5" font-family="FreeSans" font-size="10.00">src/splitSolver.cpp</text>
</a>
</g>
</g>
<!-- Node9&#45;&gt;Node15 -->
<g id="edge25" class="edge"><title>Node9&#45;&gt;Node15</title>
<path fill="none" stroke="midnightblue" d="M1210.5,-216.398C1216.55,-208.388 1222.88,-198.295 1226,-188 1238.26,-147.5 1226.34,-96.0046 1220.65,-75.7472"/>
<polygon fill="midnightblue" stroke="midnightblue" points="1207.77,-214.203 1204.21,-224.182 1213.22,-218.601 1207.77,-214.203"/>
</g>
<!-- Node9&#45;&gt;Node16 -->
<g id="edge22" class="edge"><title>Node9&#45;&gt;Node16</title>
<path fill="none" stroke="midnightblue" d="M1249.36,-225.377C1323.07,-214.847 1454.94,-196.008 1525.81,-185.885"/>
<polygon fill="midnightblue" stroke="midnightblue" points="1248.77,-221.926 1239.36,-226.806 1249.76,-228.856 1248.77,-221.926"/>
</g>
<!-- Node17 -->
<g id="node17" class="node"><title>Node17</title>
<g id="a_node17"><a xlink:href="scalarFunction_8cpp.html" target="_top" xlink:title="src/scalarFunction.cpp">
<polygon fill="white" stroke="black" points="437.5,-168.5 437.5,-187.5 550.5,-187.5 550.5,-168.5 437.5,-168.5"/>
<text text-anchor="middle" x="494" y="-175.5" font-family="FreeSans" font-size="10.00">src/scalarFunction.cpp</text>
</a>
</g>
</g>
<!-- Node9&#45;&gt;Node17 -->
<g id="edge23" class="edge"><title>Node9&#45;&gt;Node17</title>
<path fill="none" stroke="midnightblue" d="M1142.36,-227.832C1127.96,-226.511 1112.39,-225.142 1098,-224 859.105,-205.041 798.42,-212.204 560,-188 557.009,-187.696 553.944,-187.361 550.852,-187.005"/>
<polygon fill="midnightblue" stroke="midnightblue" points="1142.32,-231.343 1152.6,-228.782 1142.97,-224.373 1142.32,-231.343"/>
</g>
<!-- Node10&#45;&gt;Node6 -->
<g id="edge16" class="edge"><title>Node10&#45;&gt;Node6</title>
<path fill="none" stroke="midnightblue" d="M1340.45,-163.635C1310.83,-148.728 1260.16,-125.005 1214,-112 1122.71,-86.2841 1011.84,-74.6783 951.133,-69.9221"/>
<polygon fill="midnightblue" stroke="midnightblue" points="1339.15,-166.902 1349.65,-168.325 1342.33,-160.665 1339.15,-166.902"/>
</g>
<!-- Node10&#45;&gt;Node11 -->
<g id="edge11" class="edge"><title>Node10&#45;&gt;Node11</title>
<path fill="none" stroke="midnightblue" d="M1327.57,-173.797C1218.9,-164.742 908.839,-138.903 777.713,-127.976"/>
<polygon fill="midnightblue" stroke="midnightblue" points="1327.48,-177.302 1337.74,-174.645 1328.06,-170.327 1327.48,-177.302"/>
</g>
<!-- Node10&#45;&gt;Node12 -->
<g id="edge14" class="edge"><title>Node10&#45;&gt;Node12</title>
<path fill="none" stroke="midnightblue" d="M1361.8,-158.101C1359.81,-149.136 1357.52,-138.858 1355.94,-131.751"/>
<polygon fill="midnightblue" stroke="midnightblue" points="1358.43,-159.08 1364.02,-168.083 1365.27,-157.562 1358.43,-159.08"/>
</g>
<!-- Node10&#45;&gt;Node13 -->
<g id="edge17" class="edge"><title>Node10&#45;&gt;Node13</title>
<path fill="none" stroke="midnightblue" d="M1389.81,-163.177C1406.92,-153.241 1429.47,-140.149 1444.1,-131.655"/>
<polygon fill="midnightblue" stroke="midnightblue" points="1387.83,-160.276 1380.94,-168.324 1391.35,-166.329 1387.83,-160.276"/>
</g>
<!-- Node11&#45;&gt;Node5 -->
<g id="edge12" class="edge"><title>Node11&#45;&gt;Node5</title>
<path fill="none" stroke="midnightblue" d="M648.191,-115.236C520.757,-104.714 252.215,-82.5406 128.679,-72.3405"/>
<polygon fill="midnightblue" stroke="midnightblue" points="647.974,-118.73 658.228,-116.065 648.55,-111.754 647.974,-118.73"/>
</g>
<!-- Node11&#45;&gt;Node6 -->
<g id="edge13" class="edge"><title>Node11&#45;&gt;Node6</title>
<path fill="none" stroke="midnightblue" d="M757.801,-109.568C793.266,-99.381 844.366,-84.7034 876.35,-75.5164"/>
<polygon fill="midnightblue" stroke="midnightblue" points="756.434,-106.319 747.789,-112.444 758.367,-113.047 756.434,-106.319"/>
</g>
<!-- Node12&#45;&gt;Node6 -->
<g id="edge15" class="edge"><title>Node12&#45;&gt;Node6</title>
<path fill="none" stroke="midnightblue" d="M1290.42,-113.336C1198.67,-102.278 1031.42,-82.117 951.229,-72.4517"/>
<polygon fill="midnightblue" stroke="midnightblue" points="1290.06,-116.818 1300.41,-114.54 1290.9,-109.868 1290.06,-116.818"/>
</g>
<!-- Node14&#45;&gt;Node6 -->
<g id="edge20" class="edge"><title>Node14&#45;&gt;Node6</title>
<path fill="none" stroke="midnightblue" d="M1113.1,-110.346C1064.34,-100.141 991.713,-84.94 946.69,-75.5164"/>
<polygon fill="midnightblue" stroke="midnightblue" points="1112.61,-113.821 1123.12,-112.444 1114.05,-106.969 1112.61,-113.821"/>
</g>
<!-- Node14&#45;&gt;Node15 -->
<g id="edge21" class="edge"><title>Node14&#45;&gt;Node15</title>
<path fill="none" stroke="midnightblue" d="M1180,-105.002C1189.57,-95.4329 1201.36,-83.6389 1209.25,-75.7511"/>
<polygon fill="midnightblue" stroke="midnightblue" points="1177.51,-102.537 1172.92,-112.083 1182.46,-107.487 1177.51,-102.537"/>
</g>
<!-- Node18&#45;&gt;Node6 -->
<g id="edge32" class="edge"><title>Node18&#45;&gt;Node6</title>
<path fill="none" stroke="midnightblue" d="M880.332,-213.93C886.622,-177.92 900.02,-101.231 904.503,-75.5681"/>
<polygon fill="midnightblue" stroke="midnightblue" points="876.832,-213.622 878.559,-224.075 883.728,-214.827 876.832,-213.622"/>
</g>
<!-- Node18&#45;&gt;Node11 -->
<g id="edge28" class="edge"><title>Node18&#45;&gt;Node11</title>
<path fill="none" stroke="midnightblue" d="M830.591,-223.695C806.295,-216.984 777.263,-205.87 756,-188 737.587,-172.525 726.012,-145.716 720.957,-131.86"/>
<polygon fill="midnightblue" stroke="midnightblue" points="829.772,-227.099 840.331,-226.225 831.532,-220.324 829.772,-227.099"/>
</g>
<!-- Node18&#45;&gt;Node19 -->
<g id="edge29" class="edge"><title>Node18&#45;&gt;Node19</title>
<path fill="none" stroke="midnightblue" d="M898.034,-218.622C912.466,-208.757 931.141,-195.992 943.339,-187.655"/>
<polygon fill="midnightblue" stroke="midnightblue" points="895.973,-215.791 889.693,-224.324 899.923,-221.57 895.973,-215.791"/>
</g>
<!-- Node20 -->
<g id="node20" class="node"><title>Node20</title>
<g id="a_node20"><a xlink:href="quasi2d_8cpp.html" target="_top" xlink:title="src/quasi2d.cpp">
<polygon fill="white" stroke="black" points="765.5,-168.5 765.5,-187.5 848.5,-187.5 848.5,-168.5 765.5,-168.5"/>
<text text-anchor="middle" x="807" y="-175.5" font-family="FreeSans" font-size="10.00">src/quasi2d.cpp</text>
</a>
</g>
</g>
<!-- Node18&#45;&gt;Node20 -->
<g id="edge33" class="edge"><title>Node18&#45;&gt;Node20</title>
<path fill="none" stroke="midnightblue" d="M857.686,-218.101C845.088,-208.382 829.072,-196.027 818.451,-187.834"/>
<polygon fill="midnightblue" stroke="midnightblue" points="855.698,-220.987 865.753,-224.324 859.973,-215.445 855.698,-220.987"/>
</g>
<!-- Node19&#45;&gt;Node6 -->
<g id="edge30" class="edge"><title>Node19&#45;&gt;Node6</title>
<path fill="none" stroke="midnightblue" d="M947.817,-158.998C936.908,-134.997 918.031,-93.4683 909.905,-75.5914"/>
<polygon fill="midnightblue" stroke="midnightblue" points="944.752,-160.713 952.077,-168.368 951.125,-157.816 944.752,-160.713"/>
</g>
<!-- Node19&#45;&gt;Node8 -->
<g id="edge31" class="edge"><title>Node19&#45;&gt;Node8</title>
<path fill="none" stroke="midnightblue" d="M895.373,-171.476C882.694,-170.325 869.41,-169.12 857,-168 694.905,-153.367 503.352,-136.242 410.716,-127.971"/>
<polygon fill="midnightblue" stroke="midnightblue" points="895.107,-174.966 905.383,-172.386 895.741,-167.995 895.107,-174.966"/>
</g>
<!-- Node21&#45;&gt;Node6 -->
<g id="edge37" class="edge"><title>Node21&#45;&gt;Node6</title>
<path fill="none" stroke="midnightblue" d="M1472.85,-216.882C1494.41,-191.525 1528.92,-142.109 1501,-112 1482.33,-91.8696 1086.54,-74.2196 951.034,-68.7471"/>
<polygon fill="midnightblue" stroke="midnightblue" points="1470.12,-214.679 1466.14,-224.497 1475.38,-219.306 1470.12,-214.679"/>
</g>
<!-- Node21&#45;&gt;Node12 -->
<g id="edge36" class="edge"><title>Node21&#45;&gt;Node12</title>
<path fill="none" stroke="midnightblue" d="M1455.45,-214.458C1452.7,-200.383 1447.11,-181.256 1436,-168 1421.4,-150.577 1398.24,-138.752 1380.26,-131.613"/>
<polygon fill="midnightblue" stroke="midnightblue" points="1452.02,-215.158 1457.1,-224.454 1458.92,-214.017 1452.02,-215.158"/>
</g>
<!-- Node21&#45;&gt;Node22 -->
<g id="edge38" class="edge"><title>Node21&#45;&gt;Node22</title>
<path fill="none" stroke="midnightblue" d="M1504.07,-222.088C1547.15,-211.887 1610.59,-196.861 1650.04,-187.516"/>
<polygon fill="midnightblue" stroke="midnightblue" points="1503.05,-218.733 1494.13,-224.444 1504.66,-225.545 1503.05,-218.733"/>
</g>
<!-- Node23&#45;&gt;Node19 -->
<g id="edge42" class="edge"><title>Node23&#45;&gt;Node19</title>
<path fill="none" stroke="midnightblue" d="M1019.55,-218.901C1003.78,-208.999 983.186,-196.071 969.783,-187.655"/>
<polygon fill="midnightblue" stroke="midnightblue" points="1017.85,-221.97 1028.18,-224.324 1021.57,-216.042 1017.85,-221.97"/>
</g>
<!-- Node23&#45;&gt;Node24 -->
<g id="edge43" class="edge"><title>Node23&#45;&gt;Node24</title>
<path fill="none" stroke="midnightblue" d="M1053.3,-215.566C1059.32,-206.275 1066.47,-195.248 1071.33,-187.751"/>
<polygon fill="midnightblue" stroke="midnightblue" points="1050.28,-213.788 1047.78,-224.083 1056.16,-217.595 1050.28,-213.788"/>
</g>
<!-- Node25&#45;&gt;Node7 -->
<g id="edge45" class="edge"><title>Node25&#45;&gt;Node7</title>
<path fill="none" stroke="midnightblue" d="M271.447,-214.512C264.894,-188.589 257.611,-141.335 281,-112 330.1,-50.4185 422.647,-26.1564 480.323,-16.759"/>
<polygon fill="midnightblue" stroke="midnightblue" points="268.087,-215.491 274.119,-224.201 274.835,-213.63 268.087,-215.491"/>
</g>
<!-- Node25&#45;&gt;Node8 -->
<g id="edge47" class="edge"><title>Node25&#45;&gt;Node8</title>
<path fill="none" stroke="midnightblue" d="M274.492,-214.016C273.634,-200.251 274.548,-181.719 283,-168 293.824,-150.43 314.342,-138.619 330.715,-131.522"/>
<polygon fill="midnightblue" stroke="midnightblue" points="271.036,-214.641 275.502,-224.248 278.003,-213.953 271.036,-214.641"/>
</g>
<!-- Node25&#45;&gt;Node17 -->
<g id="edge46" class="edge"><title>Node25&#45;&gt;Node17</title>
<path fill="none" stroke="midnightblue" d="M321.108,-222.024C362.1,-211.823 422.304,-196.841 459.777,-187.516"/>
<polygon fill="midnightblue" stroke="midnightblue" points="320.243,-218.632 311.384,-224.444 321.934,-225.425 320.243,-218.632"/>
</g>
<!-- Node29 -->
<g id="node29" class="node"><title>Node29</title>
<g id="a_node29"><a xlink:href="tbb__tools_8h.html" target="_top" xlink:title="src/tbb_tools.h">
<polygon fill="white" stroke="black" points="96.5,-224.5 96.5,-243.5 175.5,-243.5 175.5,-224.5 96.5,-224.5"/>
<text text-anchor="middle" x="136" y="-231.5" font-family="FreeSans" font-size="10.00">src/tbb_tools.h</text>
</a>
</g>
</g>
<!-- Node28&#45;&gt;Node29 -->
<g id="edge52" class="edge"><title>Node28&#45;&gt;Node29</title>
<path fill="none" stroke="midnightblue" d="M252.775,-277.039C224.552,-266.879 184.738,-252.546 159.657,-243.516"/>
<polygon fill="midnightblue" stroke="midnightblue" points="251.638,-280.349 262.232,-280.444 254.009,-273.763 251.638,-280.349"/>
</g>
<!-- Node29&#45;&gt;Node5 -->
<g id="edge58" class="edge"><title>Node29&#45;&gt;Node5</title>
<path fill="none" stroke="midnightblue" d="M122.986,-216.487C116.939,-208.261 109.998,-197.964 105,-188 84.9103,-147.953 70.9973,-95.768 66.0216,-75.5346"/>
<polygon fill="midnightblue" stroke="midnightblue" points="120.226,-218.64 129.063,-224.486 125.8,-214.405 120.226,-218.64"/>
</g>
<!-- Node29&#45;&gt;Node6 -->
<g id="edge59" class="edge"><title>Node29&#45;&gt;Node6</title>
<path fill="none" stroke="midnightblue" d="M149.613,-216.275C173.099,-188.811 224.21,-134.923 281,-112 386.293,-69.4988 735.446,-66.3894 860.746,-66.6895"/>
<polygon fill="midnightblue" stroke="midnightblue" points="146.722,-214.276 142.986,-224.19 152.089,-218.769 146.722,-214.276"/>
</g>
<!-- Node30 -->
<g id="node30" class="node"><title>Node30</title>
<g id="a_node30"><a xlink:href="perfTimer_8h.html" target="_top" xlink:title="src/perfTimer.h">
<polygon fill="white" stroke="red" points="299.5,-168.5 299.5,-187.5 380.5,-187.5 380.5,-168.5 299.5,-168.5"/>
<text text-anchor="middle" x="340" y="-175.5" font-family="FreeSans" font-size="10.00">src/perfTimer.h</text>
</a>
</g>
</g>
<!-- Node29&#45;&gt;Node30 -->
<g id="edge53" class="edge"><title>Node29&#45;&gt;Node30</title>
<path fill="none" stroke="midnightblue" d="M178.201,-221.829C216.718,-211.633 272.822,-196.782 307.827,-187.516"/>
<polygon fill="midnightblue" stroke="midnightblue" points="177.096,-218.501 168.324,-224.444 178.887,-225.268 177.096,-218.501"/>
</g>
<!-- Node30&#45;&gt;Node6 -->
<g id="edge56" class="edge"><title>Node30&#45;&gt;Node6</title>
<path fill="none" stroke="midnightblue" d="M316.771,-162.874C297.225,-149.286 274.716,-128.441 290,-112 328.649,-70.4249 724.813,-66.8395 860.613,-66.8422"/>
<polygon fill="midnightblue" stroke="midnightblue" points="314.849,-165.799 325.122,-168.392 318.708,-159.959 314.849,-165.799"/>
</g>
<!-- Node30&#45;&gt;Node8 -->
<g id="edge57" class="edge"><title>Node30&#45;&gt;Node8</title>
<path fill="none" stroke="midnightblue" d="M345.168,-158.396C347.677,-149.362 350.573,-138.936 352.569,-131.751"/>
<polygon fill="midnightblue" stroke="midnightblue" points="341.781,-157.511 342.477,-168.083 348.526,-159.385 341.781,-157.511"/>
</g>
<!-- Node30&#45;&gt;Node11 -->
<g id="edge54" class="edge"><title>Node30&#45;&gt;Node11</title>
<path fill="none" stroke="midnightblue" d="M391.074,-169.704C460.61,-159.77 584.824,-142.025 658.49,-131.501"/>
<polygon fill="midnightblue" stroke="midnightblue" points="390.216,-166.291 380.812,-171.17 391.206,-173.22 390.216,-166.291"/>
</g>
<!-- Node30&#45;&gt;Node14 -->
<g id="edge55" class="edge"><title>Node30&#45;&gt;Node14</title>
<path fill="none" stroke="midnightblue" d="M390.733,-171.454C402.929,-170.22 415.922,-168.986 428,-168 691.477,-146.481 1008.78,-130.398 1121.64,-124.983"/>
<polygon fill="midnightblue" stroke="midnightblue" points="390.302,-167.98 380.713,-172.486 391.019,-174.943 390.302,-167.98"/>
</g>
</g>
</svg>
