<?xml version="1.0" encoding="UTF-8" standalone="no"?>
<!DOCTYPE svg PUBLIC "-//W3C//DTD SVG 1.1//EN"
 "http://www.w3.org/Graphics/SVG/1.1/DTD/svg11.dtd">
<!-- Generated by graphviz version 2.26.3 (20100126.1600)
 -->
<!-- Title: src/debugUtils.h Pages: 1 -->
<svg width="1714pt" height="378pt"
 viewBox="0.00 0.00 1714.00 378.00" xmlns="http://www.w3.org/2000/svg" xmlns:xlink="http://www.w3.org/1999/xlink">
<g id="graph1" class="graph" transform="scale(1 1) rotate(0) translate(4 374)">
<title>src/debugUtils.h</title>
<polygon fill="white" stroke="white" points="-4,5 -4,-374 1711,-374 1711,5 -4,5"/>
<!-- Node1 -->
<g id="node1" class="node"><title>Node1</title>
<polygon fill="#bfbfbf" stroke="black" points="1011.5,-349 1011.5,-369 1096.5,-369 1096.5,-349 1011.5,-349"/>
<text text-anchor="middle" x="1054" y="-356" font-family="FreeSans" font-size="10.00">src/debugUtils.h</text>
</g>
<!-- Node2 -->
<g id="node3" class="node"><title>Node2</title>
<a xlink:href="mathUtils_8h.html" target="_top" xlink:title="src/mathUtils.h">
<polygon fill="white" stroke="black" points="791,-291 791,-311 871,-311 871,-291 791,-291"/>
<text text-anchor="middle" x="831" y="-298" font-family="FreeSans" font-size="10.00">src/mathUtils.h</text>
</a>
</g>
<!-- Node1&#45;&gt;Node2 -->
<g id="edge2" class="edge"><title>Node1&#45;&gt;Node2</title>
<path fill="none" stroke="midnightblue" d="M1005.68,-346.433C964.88,-335.821 907.229,-320.826 869.49,-311.011"/>
<polygon fill="midnightblue" stroke="midnightblue" points="1004.85,-349.833 1015.41,-348.963 1006.61,-343.059 1004.85,-349.833"/>
</g>
<!-- Node4 -->
<g id="node7" class="node"><title>Node4</title>
<a xlink:href="chemistry0d_8cpp.html" target="_top" xlink:title="src/chemistry0d.cpp">
<polygon fill="white" stroke="black" points="168,-175 168,-195 270,-195 270,-175 168,-175"/>
<text text-anchor="middle" x="219" y="-182" font-family="FreeSans" font-size="10.00">src/chemistry0d.cpp</text>
</a>
</g>
<!-- Node1&#45;&gt;Node4 -->
<g id="edge100" class="edge"><title>Node1&#45;&gt;Node4</title>
<path fill="none" stroke="midnightblue" d="M1001.34,-354.677C854.578,-342.128 443.487,-303.424 318,-254 282.328,-239.95 247.067,-210.728 229.857,-195.205"/>
<polygon fill="midnightblue" stroke="midnightblue" points="1001.18,-358.176 1011.44,-355.535 1001.78,-351.201 1001.18,-358.176"/>
</g>
<!-- Node5 -->
<g id="node9" class="node"><title>Node5</title>
<a xlink:href="convectionSystem_8cpp.html" target="_top" xlink:title="src/convectionSystem.cpp">
<polygon fill="white" stroke="black" points="-0.5,-59 -0.5,-79 128.5,-79 128.5,-59 -0.5,-59"/>
<text text-anchor="middle" x="64" y="-66" font-family="FreeSans" font-size="10.00">src/convectionSystem.cpp</text>
</a>
</g>
<!-- Node1&#45;&gt;Node5 -->
<g id="edge102" class="edge"><title>Node1&#45;&gt;Node5</title>
<path fill="none" stroke="midnightblue" d="M1001.31,-358.65C791.4,-356.57 26,-342.185 26,-243 26,-243 26,-243 26,-185 26,-144.1 47.5982,-98.9379 58.2286,-79.1868"/>
<polygon fill="midnightblue" stroke="midnightblue" points="1001.43,-362.151 1011.46,-358.745 1001.49,-355.151 1001.43,-362.151"/>
</g>
<!-- Node13 -->
<g id="node30" class="node"><title>Node13</title>
<a xlink:href="grid_8cpp.html" target="_top" xlink:title="src/grid.cpp">
<polygon fill="white" stroke="black" points="1344,-117 1344,-137 1410,-137 1410,-117 1344,-117"/>
<text text-anchor="middle" x="1377" y="-124" font-family="FreeSans" font-size="10.00">src/grid.cpp</text>
</a>
</g>
<!-- Node1&#45;&gt;Node13 -->
<g id="edge106" class="edge"><title>Node1&#45;&gt;Node13</title>
<path fill="none" stroke="midnightblue" d="M1106.69,-355.56C1199.23,-349.052 1387.01,-333.623 1449,-312 1495.35,-295.831 1511.74,-291.853 1543,-254 1566.48,-225.566 1587.69,-203.065 1565,-174 1546.16,-149.869 1459.09,-136.294 1410.32,-130.462"/>
<polygon fill="midnightblue" stroke="midnightblue" points="1106.43,-352.07 1096.7,-356.255 1106.92,-359.053 1106.43,-352.07"/>
</g>
<!-- Node16 -->
<g id="node38" class="node"><title>Node16</title>
<a xlink:href="readConfig_8cpp.html" target="_top" xlink:title="src/readConfig.cpp">
<polygon fill="white" stroke="black" points="748,-175 748,-195 844,-195 844,-175 748,-175"/>
<text text-anchor="middle" x="796" y="-182" font-family="FreeSans" font-size="10.00">src/readConfig.cpp</text>
</a>
</g>
<!-- Node1&#45;&gt;Node16 -->
<g id="edge112" class="edge"><title>Node1&#45;&gt;Node16</title>
<path fill="none" stroke="midnightblue" d="M1033.89,-342.224C1002.96,-316.816 941.379,-267.753 885,-232 862.718,-217.869 835.757,-204.057 817.389,-195.103"/>
<polygon fill="midnightblue" stroke="midnightblue" points="1031.83,-345.063 1041.77,-348.733 1036.29,-339.666 1031.83,-345.063"/>
</g>
<!-- Node22 -->
<g id="node60" class="node"><title>Node22</title>
<a xlink:href="integrator_8cpp.html" target="_top" xlink:title="src/integrator.cpp">
<polygon fill="white" stroke="black" points="1465.5,-175 1465.5,-195 1556.5,-195 1556.5,-175 1465.5,-175"/>
<text text-anchor="middle" x="1511" y="-182" font-family="FreeSans" font-size="10.00">src/integrator.cpp</text>
</a>
</g>
<!-- Node1&#45;&gt;Node22 -->
<g id="edge108" class="edge"><title>Node1&#45;&gt;Node22</title>
<path fill="none" stroke="midnightblue" d="M1106.91,-355.378C1219.12,-346.476 1474.96,-319.314 1527,-254 1540.79,-236.688 1527.28,-209.608 1518.04,-195.056"/>
<polygon fill="midnightblue" stroke="midnightblue" points="1106.53,-351.896 1096.83,-356.158 1107.07,-358.875 1106.53,-351.896"/>
</g>
<!-- Node24 -->
<g id="node67" class="node"><title>Node24</title>
<a xlink:href="qssintegrator_8cpp.html" target="_top" xlink:title="src/qssintegrator.cpp">
<polygon fill="white" stroke="black" points="979.5,-175 979.5,-195 1084.5,-195 1084.5,-175 979.5,-175"/>
<text text-anchor="middle" x="1032" y="-182" font-family="FreeSans" font-size="10.00">src/qssintegrator.cpp</text>
</a>
</g>
<!-- Node1&#45;&gt;Node24 -->
<g id="edge110" class="edge"><title>Node1&#45;&gt;Node24</title>
<path fill="none" stroke="midnightblue" d="M1051.44,-338.724C1046.72,-301.389 1036.81,-223.039 1033.28,-195.135"/>
<polygon fill="midnightblue" stroke="midnightblue" points="1048,-339.411 1052.72,-348.893 1054.94,-338.533 1048,-339.411"/>
</g>
<!-- Node27 -->
<g id="node76" class="node"><title>Node27</title>
<a xlink:href="sundialsUtils_8cpp.html" target="_top" xlink:title="src/sundialsUtils.cpp">
<polygon fill="white" stroke="black" points="1414,-233 1414,-253 1518,-253 1518,-233 1414,-233"/>
<text text-anchor="middle" x="1466" y="-240" font-family="FreeSans" font-size="10.00">src/sundialsUtils.cpp</text>
</a>
</g>
<!-- Node1&#45;&gt;Node27 -->
<g id="edge114" class="edge"><title>Node1&#45;&gt;Node27</title>
<path fill="none" stroke="midnightblue" d="M1099.71,-346.13C1182.46,-322.832 1355.42,-274.134 1430.24,-253.068"/>
<polygon fill="midnightblue" stroke="midnightblue" points="1098.52,-342.829 1089.84,-348.909 1100.42,-349.567 1098.52,-342.829"/>
</g>
<!-- Node28 -->
<g id="node80" class="node"><title>Node28</title>
<a xlink:href="debugUtils_8cpp.html" target="_top" xlink:title="src/debugUtils.cpp">
<polygon fill="white" stroke="black" points="1611.5,-291 1611.5,-311 1706.5,-311 1706.5,-291 1611.5,-291"/>
<text text-anchor="middle" x="1659" y="-298" font-family="FreeSans" font-size="10.00">src/debugUtils.cpp</text>
</a>
</g>
<!-- Node1&#45;&gt;Node28 -->
<g id="edge104" class="edge"><title>Node1&#45;&gt;Node28</title>
<path fill="none" stroke="midnightblue" d="M1107,-356.05C1204.49,-350.261 1418.71,-335.859 1598,-312 1602.37,-311.418 1606.91,-310.74 1611.45,-310.012"/>
<polygon fill="midnightblue" stroke="midnightblue" points="1106.59,-352.567 1096.82,-356.648 1107,-359.555 1106.59,-352.567"/>
</g>
<!-- Node3 -->
<g id="node5" class="node"><title>Node3</title>
<a xlink:href="chemistry0d_8h.html" target="_top" xlink:title="src/chemistry0d.h">
<polygon fill="white" stroke="black" points="94,-233 94,-253 186,-253 186,-233 94,-233"/>
<text text-anchor="middle" x="140" y="-240" font-family="FreeSans" font-size="10.00">src/chemistry0d.h</text>
</a>
</g>
<!-- Node2&#45;&gt;Node3 -->
<g id="edge4" class="edge"><title>Node2&#45;&gt;Node3</title>
<path fill="none" stroke="midnightblue" d="M780.865,-296.792C651.944,-285.971 310.33,-257.297 186.042,-246.865"/>
<polygon fill="midnightblue" stroke="midnightblue" points="780.604,-300.282 790.862,-297.631 781.19,-293.307 780.604,-300.282"/>
</g>
<!-- Node9 -->
<g id="node17" class="node"><title>Node9</title>
<a xlink:href="readConfig_8h.html" target="_top" xlink:title="src/readConfig.h">
<polygon fill="white" stroke="black" points="568,-233 568,-253 654,-253 654,-233 568,-233"/>
<text text-anchor="middle" x="611" y="-240" font-family="FreeSans" font-size="10.00">src/readConfig.h</text>
</a>
</g>
<!-- Node2&#45;&gt;Node9 -->
<g id="edge16" class="edge"><title>Node2&#45;&gt;Node9</title>
<path fill="none" stroke="midnightblue" d="M782.85,-288.306C742.726,-277.728 686.337,-262.862 649.25,-253.084"/>
<polygon fill="midnightblue" stroke="midnightblue" points="782.117,-291.732 792.679,-290.897 783.902,-284.963 782.117,-291.732"/>
</g>
<!-- Node11 -->
<g id="node22" class="node"><title>Node11</title>
<a xlink:href="convectionSystem_8h.html" target="_top" xlink:title="src/convectionSystem.h">
<polygon fill="white" stroke="black" points="939.5,-117 939.5,-137 1058.5,-137 1058.5,-117 939.5,-117"/>
<text text-anchor="middle" x="999" y="-124" font-family="FreeSans" font-size="10.00">src/convectionSystem.h</text>
</a>
</g>
<!-- Node2&#45;&gt;Node11 -->
<g id="edge52" class="edge"><title>Node2&#45;&gt;Node11</title>
<path fill="none" stroke="midnightblue" d="M805.027,-285.233C767.789,-260.699 707.058,-212.234 739,-174 764.035,-144.034 870.763,-133.138 939.454,-129.201"/>
<polygon fill="midnightblue" stroke="midnightblue" points="803.61,-288.482 813.917,-290.934 807.388,-282.59 803.61,-288.482"/>
</g>
<!-- Node12 -->
<g id="node26" class="node"><title>Node12</title>
<a xlink:href="diffusionSystem_8h.html" target="_top" xlink:title="src/diffusionSystem.h">
<polygon fill="white" stroke="red" points="1219.5,-117 1219.5,-137 1326.5,-137 1326.5,-117 1219.5,-117"/>
<text text-anchor="middle" x="1273" y="-124" font-family="FreeSans" font-size="10.00">src/diffusionSystem.h</text>
</a>
</g>
<!-- Node2&#45;&gt;Node12 -->
<g id="edge68" class="edge"><title>Node2&#45;&gt;Node12</title>
<path fill="none" stroke="midnightblue" d="M881.413,-298.518C996.168,-291.644 1270.83,-267.856 1321,-196 1335.62,-175.061 1307.82,-150.506 1288.77,-137.063"/>
<polygon fill="midnightblue" stroke="midnightblue" points="880.925,-295.04 871.145,-299.113 881.331,-302.028 880.925,-295.04"/>
</g>
<!-- Node14 -->
<g id="node33" class="node"><title>Node14</title>
<a xlink:href="splitSolver_8h.html" target="_top" xlink:title="src/splitSolver.h">
<polygon fill="white" stroke="black" points="570,-175 570,-195 654,-195 654,-175 570,-175"/>
<text text-anchor="middle" x="612" y="-182" font-family="FreeSans" font-size="10.00">src/splitSolver.h</text>
</a>
</g>
<!-- Node2&#45;&gt;Node14 -->
<g id="edge78" class="edge"><title>Node2&#45;&gt;Node14</title>
<path fill="none" stroke="midnightblue" d="M786.979,-287.737C762.429,-279.539 731.712,-267.927 706,-254 673.959,-236.644 640.504,-209.583 623.463,-195.044"/>
<polygon fill="midnightblue" stroke="midnightblue" points="786.153,-291.149 796.746,-290.928 788.327,-284.496 786.153,-291.149"/>
</g>
<!-- Node18 -->
<g id="node45" class="node"><title>Node18</title>
<a xlink:href="quasi2d_8h.html" target="_top" xlink:title="src/quasi2d.h">
<polygon fill="white" stroke="black" points="1081.5,-233 1081.5,-253 1154.5,-253 1154.5,-233 1081.5,-233"/>
<text text-anchor="middle" x="1118" y="-240" font-family="FreeSans" font-size="10.00">src/quasi2d.h</text>
</a>
</g>
<!-- Node2&#45;&gt;Node18 -->
<g id="edge54" class="edge"><title>Node2&#45;&gt;Node18</title>
<path fill="none" stroke="midnightblue" d="M881.109,-290.874C938.262,-279.323 1030.36,-260.712 1081.24,-250.428"/>
<polygon fill="midnightblue" stroke="midnightblue" points="880.317,-287.463 871.208,-292.874 881.703,-294.324 880.317,-287.463"/>
</g>
<!-- Node19 -->
<g id="node48" class="node"><title>Node19</title>
<a xlink:href="sourceSystem_8h.html" target="_top" xlink:title="src/sourceSystem.h">
<polygon fill="white" stroke="black" points="861.5,-175 861.5,-195 962.5,-195 962.5,-175 861.5,-175"/>
<text text-anchor="middle" x="912" y="-182" font-family="FreeSans" font-size="10.00">src/sourceSystem.h</text>
</a>
</g>
<!-- Node2&#45;&gt;Node19 -->
<g id="edge80" class="edge"><title>Node2&#45;&gt;Node19</title>
<path fill="none" stroke="midnightblue" d="M804.706,-285.304C785.032,-271.52 763.643,-250.793 777,-232 787.639,-217.031 831.097,-203.661 865.872,-195.044"/>
<polygon fill="midnightblue" stroke="midnightblue" points="802.939,-288.332 813.209,-290.938 806.806,-282.496 802.939,-288.332"/>
</g>
<!-- Node21 -->
<g id="node56" class="node"><title>Node21</title>
<a xlink:href="integrator_8h.html" target="_top" xlink:title="src/integrator.h">
<polygon fill="white" stroke="black" points="1316,-233 1316,-253 1396,-253 1396,-233 1316,-233"/>
<text text-anchor="middle" x="1356" y="-240" font-family="FreeSans" font-size="10.00">src/integrator.h</text>
</a>
</g>
<!-- Node2&#45;&gt;Node21 -->
<g id="edge70" class="edge"><title>Node2&#45;&gt;Node21</title>
<path fill="none" stroke="midnightblue" d="M881.228,-297.67C967.568,-291.571 1149.55,-277.072 1302,-254 1306.54,-253.313 1311.28,-252.497 1315.98,-251.624"/>
<polygon fill="midnightblue" stroke="midnightblue" points="880.913,-294.183 871.181,-298.372 881.401,-301.166 880.913,-294.183"/>
</g>
<!-- Node23 -->
<g id="node64" class="node"><title>Node23</title>
<a xlink:href="qssintegrator_8h.html" target="_top" xlink:title="src/qssintegrator.h">
<polygon fill="white" stroke="black" points="931.5,-233 931.5,-253 1026.5,-253 1026.5,-233 931.5,-233"/>
<text text-anchor="middle" x="979" y="-240" font-family="FreeSans" font-size="10.00">src/qssintegrator.h</text>
</a>
</g>
<!-- Node2&#45;&gt;Node23 -->
<g id="edge82" class="edge"><title>Node2&#45;&gt;Node23</title>
<path fill="none" stroke="midnightblue" d="M866.143,-287.228C892.822,-276.773 928.907,-262.631 953.019,-253.182"/>
<polygon fill="midnightblue" stroke="midnightblue" points="864.813,-283.99 856.78,-290.897 867.367,-290.507 864.813,-283.99"/>
</g>
<!-- Node25 -->
<g id="node69" class="node"><title>Node25</title>
<a xlink:href="scalarFunction_8h.html" target="_top" xlink:title="src/scalarFunction.h">
<polygon fill="white" stroke="black" points="326.5,-233 326.5,-253 429.5,-253 429.5,-233 326.5,-233"/>
<text text-anchor="middle" x="378" y="-240" font-family="FreeSans" font-size="10.00">src/scalarFunction.h</text>
</a>
</g>
<!-- Node2&#45;&gt;Node25 -->
<g id="edge88" class="edge"><title>Node2&#45;&gt;Node25</title>
<path fill="none" stroke="midnightblue" d="M780.687,-294.558C694.012,-283.461 517.421,-260.851 429.758,-249.627"/>
<polygon fill="midnightblue" stroke="midnightblue" points="780.436,-298.054 790.799,-295.853 781.325,-291.111 780.436,-298.054"/>
</g>
<!-- Node26 -->
<g id="node74" class="node"><title>Node26</title>
<a xlink:href="mathUtils_8cpp.html" target="_top" xlink:title="src/mathUtils.cpp">
<polygon fill="white" stroke="black" points="785.5,-233 785.5,-253 876.5,-253 876.5,-233 785.5,-233"/>
<text text-anchor="middle" x="831" y="-240" font-family="FreeSans" font-size="10.00">src/mathUtils.cpp</text>
</a>
</g>
<!-- Node2&#45;&gt;Node26 -->
<g id="edge96" class="edge"><title>Node2&#45;&gt;Node26</title>
<path fill="none" stroke="midnightblue" d="M831,-280.89C831,-271.62 831,-261.008 831,-253.378"/>
<polygon fill="midnightblue" stroke="midnightblue" points="827.5,-280.897 831,-290.897 834.5,-280.897 827.5,-280.897"/>
</g>
<!-- Node2&#45;&gt;Node27 -->
<g id="edge98" class="edge"><title>Node2&#45;&gt;Node27</title>
<path fill="none" stroke="midnightblue" d="M881.277,-298.522C981.319,-293.23 1212.3,-279.204 1405,-254 1407.88,-253.623 1410.83,-253.204 1413.81,-252.754"/>
<polygon fill="midnightblue" stroke="midnightblue" points="880.959,-295.034 871.155,-299.051 881.324,-302.024 880.959,-295.034"/>
</g>
<!-- Node3&#45;&gt;Node4 -->
<g id="edge6" class="edge"><title>Node3&#45;&gt;Node4</title>
<path fill="none" stroke="midnightblue" d="M161.827,-226.975C175.671,-216.811 193.164,-203.968 205.132,-195.182"/>
<polygon fill="midnightblue" stroke="midnightblue" points="159.75,-224.158 153.761,-232.897 163.893,-229.8 159.75,-224.158"/>
</g>
<!-- Node3&#45;&gt;Node5 -->
<g id="edge8" class="edge"><title>Node3&#45;&gt;Node5</title>
<path fill="none" stroke="midnightblue" d="M115.615,-226.507C105.552,-218.461 94.6989,-207.939 88,-196 66.15,-157.058 63.7676,-101.917 63.7899,-79.2929"/>
<polygon fill="midnightblue" stroke="midnightblue" points="113.682,-229.432 123.773,-232.659 117.896,-223.843 113.682,-229.432"/>
</g>
<!-- Node6 -->
<g id="node11" class="node"><title>Node6</title>
<a xlink:href="flameSolver_8h.html" target="_top" xlink:title="src/flameSolver.h">
<polygon fill="white" stroke="black" points="910,-59 910,-79 1000,-79 1000,-59 910,-59"/>
<text text-anchor="middle" x="955" y="-66" font-family="FreeSans" font-size="10.00">src/flameSolver.h</text>
</a>
</g>
<!-- Node3&#45;&gt;Node6 -->
<g id="edge10" class="edge"><title>Node3&#45;&gt;Node6</title>
<path fill="none" stroke="midnightblue" d="M134.779,-223.022C132.109,-207.99 131.347,-187.705 142,-174 199.585,-99.9155 252.643,-132.577 345,-116 453.597,-96.508 787.664,-77.6996 909.734,-71.3022"/>
<polygon fill="midnightblue" stroke="midnightblue" points="131.375,-223.844 136.924,-232.87 138.215,-222.354 131.375,-223.844"/>
</g>
<!-- Node8 -->
<g id="node15" class="node"><title>Node8</title>
<a xlink:href="sourceSystem_8cpp.html" target="_top" xlink:title="src/sourceSystem.cpp">
<polygon fill="white" stroke="black" points="353.5,-117 353.5,-137 464.5,-137 464.5,-117 353.5,-117"/>
<text text-anchor="middle" x="409" y="-124" font-family="FreeSans" font-size="10.00">src/sourceSystem.cpp</text>
</a>
</g>
<!-- Node3&#45;&gt;Node8 -->
<g id="edge14" class="edge"><title>Node3&#45;&gt;Node8</title>
<path fill="none" stroke="midnightblue" d="M140.105,-222.678C141.323,-207.129 145.611,-186.323 159,-174 186.702,-148.504 288.398,-136.121 353.238,-130.694"/>
<polygon fill="midnightblue" stroke="midnightblue" points="136.599,-222.737 139.674,-232.876 143.593,-223.032 136.599,-222.737"/>
</g>
<!-- Node7 -->
<g id="node13" class="node"><title>Node7</title>
<a xlink:href="flameSolver_8cpp.html" target="_top" xlink:title="src/flameSolver.cpp">
<polygon fill="white" stroke="black" points="575.5,-1 575.5,-21 676.5,-21 676.5,-1 575.5,-1"/>
<text text-anchor="middle" x="626" y="-8" font-family="FreeSans" font-size="10.00">src/flameSolver.cpp</text>
</a>
</g>
<!-- Node6&#45;&gt;Node7 -->
<g id="edge12" class="edge"><title>Node6&#45;&gt;Node7</title>
<path fill="none" stroke="midnightblue" d="M899.914,-59.2888C837.647,-48.3116 737.113,-30.5882 676.71,-19.9397"/>
<polygon fill="midnightblue" stroke="midnightblue" points="899.488,-62.7676 909.944,-61.057 900.703,-55.8739 899.488,-62.7676"/>
</g>
<!-- Node9&#45;&gt;Node4 -->
<g id="edge18" class="edge"><title>Node9&#45;&gt;Node4</title>
<path fill="none" stroke="midnightblue" d="M557.681,-235.111C482.065,-223.923 344.609,-203.585 270.18,-192.572"/>
<polygon fill="midnightblue" stroke="midnightblue" points="557.523,-238.626 567.928,-236.627 558.548,-231.701 557.523,-238.626"/>
</g>
<!-- Node9&#45;&gt;Node6 -->
<g id="edge36" class="edge"><title>Node9&#45;&gt;Node6</title>
<path fill="none" stroke="midnightblue" d="M635.347,-227.499C658.529,-212.986 694.592,-191.041 727,-174 799.708,-135.769 888.959,-96.9101 930.97,-79.0763"/>
<polygon fill="midnightblue" stroke="midnightblue" points="633.433,-224.568 626.835,-232.857 637.162,-230.492 633.433,-224.568"/>
</g>
<!-- Node9&#45;&gt;Node8 -->
<g id="edge48" class="edge"><title>Node9&#45;&gt;Node8</title>
<path fill="none" stroke="midnightblue" d="M584.633,-227.859C542.79,-203.83 462.28,-157.596 426.676,-137.151"/>
<polygon fill="midnightblue" stroke="midnightblue" points="583.012,-230.964 593.427,-232.909 586.498,-224.894 583.012,-230.964"/>
</g>
<!-- Node10 -->
<g id="node20" class="node"><title>Node10</title>
<a xlink:href="grid_8h.html" target="_top" xlink:title="src/grid.h">
<polygon fill="white" stroke="black" points="1140,-175 1140,-195 1196,-195 1196,-175 1140,-175"/>
<text text-anchor="middle" x="1168" y="-182" font-family="FreeSans" font-size="10.00">src/grid.h</text>
</a>
</g>
<!-- Node9&#45;&gt;Node10 -->
<g id="edge20" class="edge"><title>Node9&#45;&gt;Node10</title>
<path fill="none" stroke="midnightblue" d="M664.4,-238.644C753.405,-231.192 937.658,-214.954 1093,-196 1108.55,-194.103 1125.84,-191.593 1139.91,-189.449"/>
<polygon fill="midnightblue" stroke="midnightblue" points="663.958,-235.168 654.283,-239.487 664.539,-242.144 663.958,-235.168"/>
</g>
<!-- Node9&#45;&gt;Node14 -->
<g id="edge38" class="edge"><title>Node9&#45;&gt;Node14</title>
<path fill="none" stroke="midnightblue" d="M611.347,-222.89C611.507,-213.62 611.69,-203.008 611.821,-195.378"/>
<polygon fill="midnightblue" stroke="midnightblue" points="607.847,-222.838 611.174,-232.897 614.846,-222.959 607.847,-222.838"/>
</g>
<!-- Node15 -->
<g id="node36" class="node"><title>Node15</title>
<a xlink:href="splitSolver_8cpp.html" target="_top" xlink:title="src/splitSolver.cpp">
<polygon fill="white" stroke="black" points="501.5,-117 501.5,-137 596.5,-137 596.5,-117 501.5,-117"/>
<text text-anchor="middle" x="549" y="-124" font-family="FreeSans" font-size="10.00">src/splitSolver.cpp</text>
</a>
</g>
<!-- Node9&#45;&gt;Node15 -->
<g id="edge50" class="edge"><title>Node9&#45;&gt;Node15</title>
<path fill="none" stroke="midnightblue" d="M587.878,-226.709C578.074,-218.596 567.446,-207.963 561,-196 550.733,-176.947 548.942,-151.031 548.804,-137.007"/>
<polygon fill="midnightblue" stroke="midnightblue" points="585.774,-229.507 595.809,-232.906 590.084,-223.991 585.774,-229.507"/>
</g>
<!-- Node9&#45;&gt;Node16 -->
<g id="edge44" class="edge"><title>Node9&#45;&gt;Node16</title>
<path fill="none" stroke="midnightblue" d="M652.783,-229.9C686.433,-219.351 733.045,-204.737 763.835,-195.084"/>
<polygon fill="midnightblue" stroke="midnightblue" points="651.72,-226.566 643.225,-232.897 653.814,-233.245 651.72,-226.566"/>
</g>
<!-- Node17 -->
<g id="node40" class="node"><title>Node17</title>
<a xlink:href="scalarFunction_8cpp.html" target="_top" xlink:title="src/scalarFunction.cpp">
<polygon fill="white" stroke="black" points="363.5,-175 363.5,-195 476.5,-195 476.5,-175 363.5,-175"/>
<text text-anchor="middle" x="420" y="-182" font-family="FreeSans" font-size="10.00">src/scalarFunction.cpp</text>
</a>
</g>
<!-- Node9&#45;&gt;Node17 -->
<g id="edge46" class="edge"><title>Node9&#45;&gt;Node17</title>
<path fill="none" stroke="midnightblue" d="M567.862,-229.9C533.121,-219.351 484.997,-204.737 453.208,-195.084"/>
<polygon fill="midnightblue" stroke="midnightblue" points="567.145,-233.34 577.73,-232.897 569.179,-226.642 567.145,-233.34"/>
</g>
<!-- Node10&#45;&gt;Node6 -->
<g id="edge32" class="edge"><title>Node10&#45;&gt;Node6</title>
<path fill="none" stroke="midnightblue" d="M1147.1,-168.867C1127.21,-153.972 1096.09,-131.826 1067,-116 1039.59,-101.083 1006.44,-87.7053 983.345,-79.0725"/>
<polygon fill="midnightblue" stroke="midnightblue" points="1145.06,-171.714 1155.15,-174.959 1149.29,-166.133 1145.06,-171.714"/>
</g>
<!-- Node10&#45;&gt;Node11 -->
<g id="edge22" class="edge"><title>Node10&#45;&gt;Node11</title>
<path fill="none" stroke="midnightblue" d="M1130.16,-172.015C1099.34,-161.438 1056.46,-146.719 1028.23,-137.032"/>
<polygon fill="midnightblue" stroke="midnightblue" points="1129.12,-175.356 1139.71,-175.292 1131.39,-168.735 1129.12,-175.356"/>
</g>
<!-- Node10&#45;&gt;Node12 -->
<g id="edge28" class="edge"><title>Node10&#45;&gt;Node12</title>
<path fill="none" stroke="midnightblue" d="M1195.2,-169.973C1213.87,-159.663 1238.14,-146.258 1254.57,-137.182"/>
<polygon fill="midnightblue" stroke="midnightblue" points="1193.35,-166.998 1186.29,-174.897 1196.74,-173.126 1193.35,-166.998"/>
</g>
<!-- Node10&#45;&gt;Node13 -->
<g id="edge34" class="edge"><title>Node10&#45;&gt;Node13</title>
<path fill="none" stroke="midnightblue" d="M1205.93,-173.772C1259.51,-158.545 1311.26,-144.551 1343.97,-135.793"/>
<polygon fill="midnightblue" stroke="midnightblue" points="1204.92,-170.42 1196.26,-176.527 1206.84,-177.152 1204.92,-170.42"/>
</g>
<!-- Node11&#45;&gt;Node5 -->
<g id="edge24" class="edge"><title>Node11&#45;&gt;Node5</title>
<path fill="none" stroke="midnightblue" d="M929.327,-122.678C754.33,-111.823 298.23,-83.5298 128.697,-73.0133"/>
<polygon fill="midnightblue" stroke="midnightblue" points="929.249,-126.18 939.446,-123.306 929.682,-119.193 929.249,-126.18"/>
</g>
<!-- Node11&#45;&gt;Node6 -->
<g id="edge26" class="edge"><title>Node11&#45;&gt;Node6</title>
<path fill="none" stroke="midnightblue" d="M985.106,-108.686C977.771,-99.0169 969.039,-87.5059 962.873,-79.3776"/>
<polygon fill="midnightblue" stroke="midnightblue" points="982.503,-111.046 991.336,-116.897 988.08,-106.815 982.503,-111.046"/>
</g>
<!-- Node12&#45;&gt;Node6 -->
<g id="edge30" class="edge"><title>Node12&#45;&gt;Node6</title>
<path fill="none" stroke="midnightblue" d="M1209.36,-115.393C1147.39,-104.089 1054.75,-87.1943 1000.05,-77.2162"/>
<polygon fill="midnightblue" stroke="midnightblue" points="1208.95,-118.875 1219.42,-117.227 1210.21,-111.989 1208.95,-118.875"/>
</g>
<!-- Node14&#45;&gt;Node6 -->
<g id="edge40" class="edge"><title>Node14&#45;&gt;Node6</title>
<path fill="none" stroke="midnightblue" d="M622.26,-165.772C631.872,-149.754 647.776,-127.732 668,-116 708.289,-92.6278 839.576,-78.532 909.77,-72.4814"/>
<polygon fill="midnightblue" stroke="midnightblue" points="619.013,-164.402 617.106,-174.824 625.096,-167.865 619.013,-164.402"/>
</g>
<!-- Node14&#45;&gt;Node15 -->
<g id="edge42" class="edge"><title>Node14&#45;&gt;Node15</title>
<path fill="none" stroke="midnightblue" d="M593.382,-167.86C582.631,-157.962 569.462,-145.838 560.272,-137.378"/>
<polygon fill="midnightblue" stroke="midnightblue" points="591.299,-170.699 601.026,-174.897 596.04,-165.549 591.299,-170.699"/>
</g>
<!-- Node18&#45;&gt;Node6 -->
<g id="edge64" class="edge"><title>Node18&#45;&gt;Node6</title>
<path fill="none" stroke="midnightblue" d="M1165.01,-237.747C1214.61,-231.122 1287.94,-217.873 1305,-196 1311.01,-188.289 1310.84,-181.845 1305,-174 1295.4,-161.101 1081.47,-102.772 992.885,-79.0649"/>
<polygon fill="midnightblue" stroke="midnightblue" points="1164.28,-234.312 1154.81,-239.061 1165.18,-241.254 1164.28,-234.312"/>
</g>
<!-- Node18&#45;&gt;Node11 -->
<g id="edge56" class="edge"><title>Node18&#45;&gt;Node11</title>
<path fill="none" stroke="midnightblue" d="M1114.8,-222.628C1111.53,-207.666 1105.15,-187.65 1093,-174 1077.23,-156.283 1053.23,-144.44 1033.44,-137.074"/>
<polygon fill="midnightblue" stroke="midnightblue" points="1111.44,-223.716 1116.73,-232.896 1118.32,-222.421 1111.44,-223.716"/>
</g>
<!-- Node18&#45;&gt;Node19 -->
<g id="edge58" class="edge"><title>Node18&#45;&gt;Node19</title>
<path fill="none" stroke="midnightblue" d="M1072.44,-230.171C1034.9,-219.602 982.396,-204.82 947.816,-195.084"/>
<polygon fill="midnightblue" stroke="midnightblue" points="1071.54,-233.556 1082.12,-232.897 1073.44,-226.818 1071.54,-233.556"/>
</g>
<!-- Node20 -->
<g id="node53" class="node"><title>Node20</title>
<a xlink:href="quasi2d_8cpp.html" target="_top" xlink:title="src/quasi2d.cpp">
<polygon fill="white" stroke="black" points="1213.5,-175 1213.5,-195 1296.5,-195 1296.5,-175 1213.5,-175"/>
<text text-anchor="middle" x="1255" y="-182" font-family="FreeSans" font-size="10.00">src/quasi2d.cpp</text>
</a>
</g>
<!-- Node18&#45;&gt;Node20 -->
<g id="edge66" class="edge"><title>Node18&#45;&gt;Node20</title>
<path fill="none" stroke="midnightblue" d="M1151.18,-228.952C1175.81,-218.525 1208.83,-204.548 1230.95,-195.182"/>
<polygon fill="midnightblue" stroke="midnightblue" points="1149.71,-225.775 1141.86,-232.897 1152.44,-232.222 1149.71,-225.775"/>
</g>
<!-- Node19&#45;&gt;Node6 -->
<g id="edge60" class="edge"><title>Node19&#45;&gt;Node6</title>
<path fill="none" stroke="midnightblue" d="M916.37,-164.987C919.693,-151.024 924.754,-132.085 931,-116 936.108,-102.847 943.755,-88.5108 949.039,-79.1743"/>
<polygon fill="midnightblue" stroke="midnightblue" points="912.904,-164.44 914.088,-174.969 919.728,-166 912.904,-164.44"/>
</g>
<!-- Node19&#45;&gt;Node8 -->
<g id="edge62" class="edge"><title>Node19&#45;&gt;Node8</title>
<path fill="none" stroke="midnightblue" d="M851.056,-173.805C692.085,-151.447 649.461,-156.063 493,-138 483.795,-136.937 474.034,-135.731 464.547,-134.517"/>
<polygon fill="midnightblue" stroke="midnightblue" points="850.803,-177.305 861.196,-175.246 851.788,-170.374 850.803,-177.305"/>
</g>
<!-- Node21&#45;&gt;Node6 -->
<g id="edge74" class="edge"><title>Node21&#45;&gt;Node6</title>
<path fill="none" stroke="midnightblue" d="M1375.9,-225.98C1404.12,-199.851 1449.17,-149.381 1419,-116 1391.21,-85.2524 1111.06,-73.6236 1000,-70.1999"/>
<polygon fill="midnightblue" stroke="midnightblue" points="1373.56,-223.38 1368.46,-232.67 1378.24,-228.584 1373.56,-223.38"/>
</g>
<!-- Node21&#45;&gt;Node12 -->
<g id="edge72" class="edge"><title>Node21&#45;&gt;Node12</title>
<path fill="none" stroke="midnightblue" d="M1369.36,-224.218C1377.96,-209.61 1385.85,-189.319 1376,-174 1363.94,-155.234 1342.32,-143.87 1322,-137.032"/>
<polygon fill="midnightblue" stroke="midnightblue" points="1366.25,-222.583 1363.78,-232.888 1372.13,-226.369 1366.25,-222.583"/>
</g>
<!-- Node21&#45;&gt;Node22 -->
<g id="edge76" class="edge"><title>Node21&#45;&gt;Node22</title>
<path fill="none" stroke="midnightblue" d="M1392.47,-229.354C1420.54,-218.85 1458.7,-204.572 1484.05,-195.084"/>
<polygon fill="midnightblue" stroke="midnightblue" points="1391.14,-226.114 1383,-232.897 1393.59,-232.671 1391.14,-226.114"/>
</g>
<!-- Node23&#45;&gt;Node19 -->
<g id="edge84" class="edge"><title>Node23&#45;&gt;Node19</title>
<path fill="none" stroke="midnightblue" d="M959.536,-226.15C948.042,-216.2 933.857,-203.921 923.988,-195.378"/>
<polygon fill="midnightblue" stroke="midnightblue" points="957.478,-228.998 967.329,-232.897 962.06,-223.706 957.478,-228.998"/>
</g>
<!-- Node23&#45;&gt;Node24 -->
<g id="edge86" class="edge"><title>Node23&#45;&gt;Node24</title>
<path fill="none" stroke="midnightblue" d="M995.197,-225.275C1004.14,-215.488 1014.94,-203.672 1022.52,-195.378"/>
<polygon fill="midnightblue" stroke="midnightblue" points="992.394,-223.154 988.232,-232.897 997.561,-227.876 992.394,-223.154"/>
</g>
<!-- Node25&#45;&gt;Node7 -->
<g id="edge90" class="edge"><title>Node25&#45;&gt;Node7</title>
<path fill="none" stroke="midnightblue" d="M364.503,-224.494C347.123,-198.194 321.766,-149.485 345,-116 372.759,-75.9933 509.901,-38.4075 581.813,-21.0528"/>
<polygon fill="midnightblue" stroke="midnightblue" points="361.67,-226.551 370.225,-232.801 367.434,-222.58 361.67,-226.551"/>
</g>
<!-- Node25&#45;&gt;Node8 -->
<g id="edge94" class="edge"><title>Node25&#45;&gt;Node8</title>
<path fill="none" stroke="midnightblue" d="M364.386,-224.548C355.727,-210.415 347.445,-190.591 355,-174 362.314,-157.938 378.129,-145.234 390.763,-137.105"/>
<polygon fill="midnightblue" stroke="midnightblue" points="361.509,-226.542 369.967,-232.922 367.333,-222.66 361.509,-226.542"/>
</g>
<!-- Node25&#45;&gt;Node17 -->
<g id="edge92" class="edge"><title>Node25&#45;&gt;Node17</title>
<path fill="none" stroke="midnightblue" d="M391.262,-224.686C398.264,-215.017 406.599,-203.506 412.485,-195.378"/>
<polygon fill="midnightblue" stroke="midnightblue" points="388.346,-222.745 385.316,-232.897 394.016,-226.851 388.346,-222.745"/>
</g>
</g>
</svg>
