<?xml version="1.0" encoding="UTF-8" standalone="no"?>
<!DOCTYPE svg PUBLIC "-//W3C//DTD SVG 1.1//EN"
 "http://www.w3.org/Graphics/SVG/1.1/DTD/svg11.dtd">
<!-- Generated by graphviz version 2.38.0 (20140413.2041)
 -->
<!-- Title: src/debugUtils.h Pages: 1 -->
<svg width="1942pt" height="364pt"
 viewBox="0.00 0.00 1942.00 364.00" xmlns="http://www.w3.org/2000/svg" xmlns:xlink="http://www.w3.org/1999/xlink">
<g id="graph0" class="graph" transform="scale(1 1) rotate(0) translate(4 360)">
<title>src/debugUtils.h</title>
<polygon fill="white" stroke="none" points="-4,4 -4,-360 1938,-360 1938,4 -4,4"/>
<!-- Node1 -->
<g id="node1" class="node"><title>Node1</title>
<polygon fill="#bfbfbf" stroke="black" points="1457,-336.5 1457,-355.5 1542,-355.5 1542,-336.5 1457,-336.5"/>
<text text-anchor="middle" x="1499.5" y="-343.5" font-family="FreeSans" font-size="10.00">src/debugUtils.h</text>
</g>
<!-- Node2 -->
<g id="node2" class="node"><title>Node2</title>
<g id="a_node2"><a xlink:href="mathUtils_8h.html" target="_top" xlink:title="src/mathUtils.h">
<polygon fill="white" stroke="black" points="869.5,-280.5 869.5,-299.5 949.5,-299.5 949.5,-280.5 869.5,-280.5"/>
<text text-anchor="middle" x="909.5" y="-287.5" font-family="FreeSans" font-size="10.00">src/mathUtils.h</text>
</a>
</g>
</g>
<!-- Node1&#45;&gt;Node2 -->
<g id="edge1" class="edge"><title>Node1&#45;&gt;Node2</title>
<path fill="none" stroke="midnightblue" d="M1446.48,-340.147C1329.81,-329.469 1053.04,-304.137 949.505,-294.661"/>
<polygon fill="midnightblue" stroke="midnightblue" points="1446.32,-343.647 1456.59,-341.073 1446.95,-336.676 1446.32,-343.647"/>
</g>
<!-- Node10 -->
<g id="node10" class="node"><title>Node10</title>
<g id="a_node10"><a xlink:href="chemistry0d_8cpp.html" target="_top" xlink:title="src/chemistry0d.cpp">
<polygon fill="white" stroke="black" points="355.5,-168.5 355.5,-187.5 457.5,-187.5 457.5,-168.5 355.5,-168.5"/>
<text text-anchor="middle" x="406.5" y="-175.5" font-family="FreeSans" font-size="10.00">src/chemistry0d.cpp</text>
</a>
</g>
</g>
<!-- Node1&#45;&gt;Node10 -->
<g id="edge55" class="edge"><title>Node1&#45;&gt;Node10</title>
<path fill="none" stroke="midnightblue" d="M1446.67,-342.831C1268.92,-335.026 693.992,-305.511 520.5,-244 480.345,-229.763 438.025,-201.643 418.13,-187.518"/>
<polygon fill="midnightblue" stroke="midnightblue" points="1446.67,-346.334 1456.81,-343.272 1446.97,-339.341 1446.67,-346.334"/>
</g>
<!-- Node11 -->
<g id="node11" class="node"><title>Node11</title>
<g id="a_node11"><a xlink:href="convectionSystem_8cpp.html" target="_top" xlink:title="src/convectionSystem.cpp">
<polygon fill="white" stroke="black" points="0,-56.5 0,-75.5 129,-75.5 129,-56.5 0,-56.5"/>
<text text-anchor="middle" x="64.5" y="-63.5" font-family="FreeSans" font-size="10.00">src/convectionSystem.cpp</text>
</a>
</g>
</g>
<!-- Node1&#45;&gt;Node11 -->
<g id="edge56" class="edge"><title>Node1&#45;&gt;Node11</title>
<path fill="none" stroke="midnightblue" d="M1446.27,-343.793C1185.3,-337.533 53.5,-306.277 53.5,-235 53.5,-235 53.5,-235 53.5,-177 53.5,-138.999 60.0803,-93.9781 63.0619,-75.5287"/>
<polygon fill="midnightblue" stroke="midnightblue" points="1446.54,-347.3 1456.62,-344.039 1446.7,-340.302 1446.54,-347.3"/>
</g>
<!-- Node16 -->
<g id="node16" class="node"><title>Node16</title>
<g id="a_node16"><a xlink:href="grid_8cpp.html" target="_top" xlink:title="src/grid.cpp">
<polygon fill="white" stroke="black" points="1308.5,-112.5 1308.5,-131.5 1374.5,-131.5 1374.5,-112.5 1308.5,-112.5"/>
<text text-anchor="middle" x="1341.5" y="-119.5" font-family="FreeSans" font-size="10.00">src/grid.cpp</text>
</a>
</g>
</g>
<!-- Node1&#45;&gt;Node16 -->
<g id="edge58" class="edge"><title>Node1&#45;&gt;Node16</title>
<path fill="none" stroke="midnightblue" d="M1533.15,-332.82C1603.72,-305.535 1755.85,-236.51 1695.5,-168 1674.44,-144.088 1458.56,-129.545 1374.63,-124.757"/>
<polygon fill="midnightblue" stroke="midnightblue" points="1531.87,-329.563 1523.77,-336.389 1534.36,-336.106 1531.87,-329.563"/>
</g>
<!-- Node19 -->
<g id="node19" class="node"><title>Node19</title>
<g id="a_node19"><a xlink:href="readConfig_8cpp.html" target="_top" xlink:title="src/readConfig.cpp">
<polygon fill="white" stroke="black" points="1215.5,-168.5 1215.5,-187.5 1311.5,-187.5 1311.5,-168.5 1215.5,-168.5"/>
<text text-anchor="middle" x="1263.5" y="-175.5" font-family="FreeSans" font-size="10.00">src/readConfig.cpp</text>
</a>
</g>
</g>
<!-- Node1&#45;&gt;Node19 -->
<g id="edge61" class="edge"><title>Node1&#45;&gt;Node19</title>
<path fill="none" stroke="midnightblue" d="M1499.13,-326.196C1497.54,-299.473 1490.54,-250.787 1461.5,-224 1450.49,-213.843 1366.79,-197.332 1311.79,-187.384"/>
<polygon fill="midnightblue" stroke="midnightblue" points="1495.64,-326.62 1499.53,-336.475 1502.64,-326.345 1495.64,-326.62"/>
</g>
<!-- Node25 -->
<g id="node25" class="node"><title>Node25</title>
<g id="a_node25"><a xlink:href="integrator_8cpp.html" target="_top" xlink:title="src/integrator.cpp">
<polygon fill="white" stroke="black" points="1434,-168.5 1434,-187.5 1525,-187.5 1525,-168.5 1434,-168.5"/>
<text text-anchor="middle" x="1479.5" y="-175.5" font-family="FreeSans" font-size="10.00">src/integrator.cpp</text>
</a>
</g>
</g>
<!-- Node1&#45;&gt;Node25 -->
<g id="edge59" class="edge"><title>Node1&#45;&gt;Node25</title>
<path fill="none" stroke="midnightblue" d="M1500.34,-326.261C1501.04,-302.325 1501.06,-259.72 1494.5,-224 1492.12,-211.04 1486.86,-196.702 1483.24,-187.771"/>
<polygon fill="midnightblue" stroke="midnightblue" points="1496.84,-326.278 1499.96,-336.4 1503.83,-326.536 1496.84,-326.278"/>
</g>
<!-- Node27 -->
<g id="node27" class="node"><title>Node27</title>
<g id="a_node27"><a xlink:href="qssintegrator_8cpp.html" target="_top" xlink:title="src/qssintegrator.cpp">
<polygon fill="white" stroke="black" points="1582,-168.5 1582,-187.5 1687,-187.5 1687,-168.5 1582,-168.5"/>
<text text-anchor="middle" x="1634.5" y="-175.5" font-family="FreeSans" font-size="10.00">src/qssintegrator.cpp</text>
</a>
</g>
</g>
<!-- Node1&#45;&gt;Node27 -->
<g id="edge60" class="edge"><title>Node1&#45;&gt;Node27</title>
<path fill="none" stroke="midnightblue" d="M1513.15,-328.21C1541.57,-293.264 1606.21,-213.787 1627.53,-187.568"/>
<polygon fill="midnightblue" stroke="midnightblue" points="1510.35,-326.108 1506.76,-336.075 1515.78,-330.525 1510.35,-326.108"/>
</g>
<!-- Node29 -->
<g id="node29" class="node"><title>Node29</title>
<g id="a_node29"><a xlink:href="sundialsUtils_8cpp.html" target="_top" xlink:title="src/sundialsUtils.cpp">
<polygon fill="white" stroke="black" points="1348.5,-224.5 1348.5,-243.5 1452.5,-243.5 1452.5,-224.5 1348.5,-224.5"/>
<text text-anchor="middle" x="1400.5" y="-231.5" font-family="FreeSans" font-size="10.00">src/sundialsUtils.cpp</text>
</a>
</g>
</g>
<!-- Node1&#45;&gt;Node29 -->
<g id="edge62" class="edge"><title>Node1&#45;&gt;Node29</title>
<path fill="none" stroke="midnightblue" d="M1485.01,-328.897C1463.72,-305.249 1424.75,-261.949 1408.23,-243.591"/>
<polygon fill="midnightblue" stroke="midnightblue" points="1482.44,-331.277 1491.73,-336.368 1487.64,-326.594 1482.44,-331.277"/>
</g>
<!-- Node30 -->
<g id="node30" class="node"><title>Node30</title>
<g id="a_node30"><a xlink:href="debugUtils_8cpp.html" target="_top" xlink:title="src/debugUtils.cpp">
<polygon fill="white" stroke="black" points="1744,-280.5 1744,-299.5 1839,-299.5 1839,-280.5 1744,-280.5"/>
<text text-anchor="middle" x="1791.5" y="-287.5" font-family="FreeSans" font-size="10.00">src/debugUtils.cpp</text>
</a>
</g>
</g>
<!-- Node1&#45;&gt;Node30 -->
<g id="edge57" class="edge"><title>Node1&#45;&gt;Node30</title>
<path fill="none" stroke="midnightblue" d="M1552.18,-335.258C1607.22,-325.079 1692.72,-309.268 1745.24,-299.556"/>
<polygon fill="midnightblue" stroke="midnightblue" points="1551.47,-331.83 1542.27,-337.09 1552.74,-338.713 1551.47,-331.83"/>
</g>
<!-- Node31 -->
<g id="node31" class="node"><title>Node31</title>
<g id="a_node31"><a xlink:href="tbb__fake_8h.html" target="_top" xlink:title="src/tbb_fake.h">
<polygon fill="white" stroke="black" points="1857,-280.5 1857,-299.5 1934,-299.5 1934,-280.5 1857,-280.5"/>
<text text-anchor="middle" x="1895.5" y="-287.5" font-family="FreeSans" font-size="10.00">src/tbb_fake.h</text>
</a>
</g>
</g>
<!-- Node1&#45;&gt;Node31 -->
<g id="edge63" class="edge"><title>Node1&#45;&gt;Node31</title>
<path fill="none" stroke="midnightblue" d="M1552.28,-339.12C1620.58,-331.294 1743.19,-316.509 1847.5,-300 1850.51,-299.523 1853.63,-299.002 1856.76,-298.459"/>
<polygon fill="midnightblue" stroke="midnightblue" points="1551.74,-335.659 1542.2,-340.269 1552.53,-342.613 1551.74,-335.659"/>
</g>
<!-- Node3 -->
<g id="node3" class="node"><title>Node3</title>
<g id="a_node3"><a xlink:href="callback_8h.html" target="_top" xlink:title="src/callback.h">
<polygon fill="white" stroke="black" points="1140.5,-224.5 1140.5,-243.5 1216.5,-243.5 1216.5,-224.5 1140.5,-224.5"/>
<text text-anchor="middle" x="1178.5" y="-231.5" font-family="FreeSans" font-size="10.00">src/callback.h</text>
</a>
</g>
</g>
<!-- Node2&#45;&gt;Node3 -->
<g id="edge2" class="edge"><title>Node2&#45;&gt;Node3</title>
<path fill="none" stroke="midnightblue" d="M959.833,-278.896C1012.12,-268.4 1092.78,-252.208 1140.13,-242.702"/>
<polygon fill="midnightblue" stroke="midnightblue" points="958.888,-275.516 949.772,-280.916 960.265,-282.379 958.888,-275.516"/>
</g>
<!-- Node5 -->
<g id="node5" class="node"><title>Node5</title>
<g id="a_node5"><a xlink:href="sourceSystem_8h.html" target="_top" xlink:title="src/sourceSystem.h">
<polygon fill="white" stroke="black" points="1096,-168.5 1096,-187.5 1197,-187.5 1197,-168.5 1096,-168.5"/>
<text text-anchor="middle" x="1146.5" y="-175.5" font-family="FreeSans" font-size="10.00">src/sourceSystem.h</text>
</a>
</g>
</g>
<!-- Node2&#45;&gt;Node5 -->
<g id="edge49" class="edge"><title>Node2&#45;&gt;Node5</title>
<path fill="none" stroke="midnightblue" d="M959.771,-285.411C998.798,-280.663 1052.92,-269.631 1093.5,-244 1116.4,-229.538 1134,-201.778 1141.92,-187.678"/>
<polygon fill="midnightblue" stroke="midnightblue" points="959.239,-281.949 949.69,-286.54 960.017,-288.906 959.239,-281.949"/>
</g>
<!-- Node9 -->
<g id="node9" class="node"><title>Node9</title>
<g id="a_node9"><a xlink:href="chemistry0d_8h.html" target="_top" xlink:title="src/chemistry0d.h">
<polygon fill="white" stroke="black" points="281.5,-224.5 281.5,-243.5 373.5,-243.5 373.5,-224.5 281.5,-224.5"/>
<text text-anchor="middle" x="327.5" y="-231.5" font-family="FreeSans" font-size="10.00">src/chemistry0d.h</text>
</a>
</g>
</g>
<!-- Node2&#45;&gt;Node9 -->
<g id="edge9" class="edge"><title>Node2&#45;&gt;Node9</title>
<path fill="none" stroke="midnightblue" d="M859.205,-284.333C747.749,-273.992 481.356,-249.275 373.756,-239.292"/>
<polygon fill="midnightblue" stroke="midnightblue" points="859.216,-287.849 869.497,-285.288 859.863,-280.879 859.216,-287.849"/>
</g>
<!-- Node12 -->
<g id="node12" class="node"><title>Node12</title>
<g id="a_node12"><a xlink:href="readConfig_8h.html" target="_top" xlink:title="src/readConfig.h">
<polygon fill="white" stroke="black" points="799.5,-224.5 799.5,-243.5 885.5,-243.5 885.5,-224.5 799.5,-224.5"/>
<text text-anchor="middle" x="842.5" y="-231.5" font-family="FreeSans" font-size="10.00">src/readConfig.h</text>
</a>
</g>
</g>
<!-- Node2&#45;&gt;Node12 -->
<g id="edge14" class="edge"><title>Node2&#45;&gt;Node12</title>
<path fill="none" stroke="midnightblue" d="M890.665,-273.82C878.662,-264.145 863.528,-251.948 853.461,-243.834"/>
<polygon fill="midnightblue" stroke="midnightblue" points="888.753,-276.774 898.735,-280.324 893.146,-271.324 888.753,-276.774"/>
</g>
<!-- Node14 -->
<g id="node14" class="node"><title>Node14</title>
<g id="a_node14"><a xlink:href="convectionSystem_8h.html" target="_top" xlink:title="src/convectionSystem.h">
<polygon fill="white" stroke="black" points="186,-112.5 186,-131.5 305,-131.5 305,-112.5 186,-112.5"/>
<text text-anchor="middle" x="245.5" y="-119.5" font-family="FreeSans" font-size="10.00">src/convectionSystem.h</text>
</a>
</g>
</g>
<!-- Node2&#45;&gt;Node14 -->
<g id="edge32" class="edge"><title>Node2&#45;&gt;Node14</title>
<path fill="none" stroke="midnightblue" d="M859.223,-288.663C724.282,-287.276 356.592,-280.187 241.5,-244 190.578,-227.989 119.775,-212.992 148.5,-168 160.588,-149.067 182.919,-137.978 203.11,-131.549"/>
<polygon fill="midnightblue" stroke="midnightblue" points="859.253,-292.164 869.287,-288.76 859.321,-285.164 859.253,-292.164"/>
</g>
<!-- Node15 -->
<g id="node15" class="node"><title>Node15</title>
<g id="a_node15"><a xlink:href="diffusionSystem_8h.html" target="_top" xlink:title="src/diffusionSystem.h">
<polygon fill="white" stroke="red" points="938,-112.5 938,-131.5 1045,-131.5 1045,-112.5 938,-112.5"/>
<text text-anchor="middle" x="991.5" y="-119.5" font-family="FreeSans" font-size="10.00">src/diffusionSystem.h</text>
</a>
</g>
</g>
<!-- Node2&#45;&gt;Node15 -->
<g id="edge43" class="edge"><title>Node2&#45;&gt;Node15</title>
<path fill="none" stroke="midnightblue" d="M922.031,-272.152C935.986,-252.727 958.427,-219.425 972.5,-188 981.149,-168.686 987.029,-144.397 989.758,-131.678"/>
<polygon fill="midnightblue" stroke="midnightblue" points="919.172,-270.132 916.106,-280.274 924.827,-274.258 919.172,-270.132"/>
</g>
<!-- Node17 -->
<g id="node17" class="node"><title>Node17</title>
<g id="a_node17"><a xlink:href="splitSolver_8h.html" target="_top" xlink:title="src/splitSolver.h">
<polygon fill="white" stroke="black" points="729.5,-168.5 729.5,-187.5 813.5,-187.5 813.5,-168.5 729.5,-168.5"/>
<text text-anchor="middle" x="771.5" y="-175.5" font-family="FreeSans" font-size="10.00">src/splitSolver.h</text>
</a>
</g>
</g>
<!-- Node2&#45;&gt;Node17 -->
<g id="edge48" class="edge"><title>Node2&#45;&gt;Node17</title>
<path fill="none" stroke="midnightblue" d="M859.338,-280.773C835.523,-274.45 808.421,-263.36 790.5,-244 775.805,-228.125 772.418,-201.491 771.676,-187.765"/>
<polygon fill="midnightblue" stroke="midnightblue" points="858.762,-284.235 869.306,-283.201 860.419,-277.434 858.762,-284.235"/>
</g>
<!-- Node21 -->
<g id="node21" class="node"><title>Node21</title>
<g id="a_node21"><a xlink:href="quasi2d_8h.html" target="_top" xlink:title="src/quasi2d.h">
<polygon fill="white" stroke="black" points="639,-224.5 639,-243.5 712,-243.5 712,-224.5 639,-224.5"/>
<text text-anchor="middle" x="675.5" y="-231.5" font-family="FreeSans" font-size="10.00">src/quasi2d.h</text>
</a>
</g>
</g>
<!-- Node2&#45;&gt;Node21 -->
<g id="edge33" class="edge"><title>Node2&#45;&gt;Node21</title>
<path fill="none" stroke="midnightblue" d="M862.465,-278.146C818.113,-267.911 752.56,-252.783 712.019,-243.428"/>
<polygon fill="midnightblue" stroke="midnightblue" points="861.891,-281.605 872.422,-280.444 863.465,-274.784 861.891,-281.605"/>
</g>
<!-- Node23 -->
<g id="node23" class="node"><title>Node23</title>
<g id="a_node23"><a xlink:href="scalarFunction_8h.html" target="_top" xlink:title="src/scalarFunction.h">
<polygon fill="white" stroke="black" points="158,-168.5 158,-187.5 261,-187.5 261,-168.5 158,-168.5"/>
<text text-anchor="middle" x="209.5" y="-175.5" font-family="FreeSans" font-size="10.00">src/scalarFunction.h</text>
</a>
</g>
</g>
<!-- Node2&#45;&gt;Node23 -->
<g id="edge38" class="edge"><title>Node2&#45;&gt;Node23</title>
<path fill="none" stroke="midnightblue" d="M859.309,-287.512C718.256,-283.042 325.141,-268.511 272.5,-244 245.716,-231.529 224.295,-202.32 214.804,-187.682"/>
<polygon fill="midnightblue" stroke="midnightblue" points="859.311,-291.013 869.416,-287.828 859.531,-284.017 859.311,-291.013"/>
</g>
<!-- Node24 -->
<g id="node24" class="node"><title>Node24</title>
<g id="a_node24"><a xlink:href="integrator_8h.html" target="_top" xlink:title="src/integrator.h">
<polygon fill="white" stroke="black" points="1004.5,-224.5 1004.5,-243.5 1084.5,-243.5 1084.5,-224.5 1004.5,-224.5"/>
<text text-anchor="middle" x="1044.5" y="-231.5" font-family="FreeSans" font-size="10.00">src/integrator.h</text>
</a>
</g>
</g>
<!-- Node2&#45;&gt;Node24 -->
<g id="edge44" class="edge"><title>Node2&#45;&gt;Node24</title>
<path fill="none" stroke="midnightblue" d="M940.406,-276.638C965.74,-266.504 1000.93,-252.427 1023.21,-243.516"/>
<polygon fill="midnightblue" stroke="midnightblue" points="938.876,-273.48 930.891,-280.444 941.476,-279.979 938.876,-273.48"/>
</g>
<!-- Node26 -->
<g id="node26" class="node"><title>Node26</title>
<g id="a_node26"><a xlink:href="qssintegrator_8h.html" target="_top" xlink:title="src/qssintegrator.h">
<polygon fill="white" stroke="black" points="1235,-224.5 1235,-243.5 1330,-243.5 1330,-224.5 1235,-224.5"/>
<text text-anchor="middle" x="1282.5" y="-231.5" font-family="FreeSans" font-size="10.00">src/qssintegrator.h</text>
</a>
</g>
</g>
<!-- Node2&#45;&gt;Node26 -->
<g id="edge50" class="edge"><title>Node2&#45;&gt;Node26</title>
<path fill="none" stroke="midnightblue" d="M959.906,-282.062C1022.3,-273.418 1131.8,-258.068 1225.5,-244 1228.57,-243.539 1231.73,-243.057 1234.92,-242.567"/>
<polygon fill="midnightblue" stroke="midnightblue" points="959.359,-278.604 949.933,-283.442 960.319,-285.538 959.359,-278.604"/>
</g>
<!-- Node28 -->
<g id="node28" class="node"><title>Node28</title>
<g id="a_node28"><a xlink:href="mathUtils_8cpp.html" target="_top" xlink:title="src/mathUtils.cpp">
<polygon fill="white" stroke="black" points="530,-224.5 530,-243.5 621,-243.5 621,-224.5 530,-224.5"/>
<text text-anchor="middle" x="575.5" y="-231.5" font-family="FreeSans" font-size="10.00">src/mathUtils.cpp</text>
</a>
</g>
</g>
<!-- Node2&#45;&gt;Node28 -->
<g id="edge53" class="edge"><title>Node2&#45;&gt;Node28</title>
<path fill="none" stroke="midnightblue" d="M859.124,-280.994C803.059,-272.063 709.776,-257.14 629.5,-244 626.78,-243.555 623.983,-243.095 621.162,-242.629"/>
<polygon fill="midnightblue" stroke="midnightblue" points="858.722,-284.474 869.148,-282.59 859.823,-277.561 858.722,-284.474"/>
</g>
<!-- Node2&#45;&gt;Node29 -->
<g id="edge54" class="edge"><title>Node2&#45;&gt;Node29</title>
<path fill="none" stroke="midnightblue" d="M960.096,-284.348C1040.41,-276.816 1201.96,-261.065 1338.5,-244 1341.74,-243.595 1345.07,-243.162 1348.43,-242.712"/>
<polygon fill="midnightblue" stroke="midnightblue" points="959.411,-280.897 949.78,-285.312 960.062,-287.866 959.411,-280.897"/>
</g>
<!-- Node4 -->
<g id="node4" class="node"><title>Node4</title>
<g id="a_node4"><a xlink:href="callback_8cpp.html" target="_top" xlink:title="src/callback.cpp">
<polygon fill="white" stroke="black" points="1329.5,-168.5 1329.5,-187.5 1415.5,-187.5 1415.5,-168.5 1329.5,-168.5"/>
<text text-anchor="middle" x="1372.5" y="-175.5" font-family="FreeSans" font-size="10.00">src/callback.cpp</text>
</a>
</g>
</g>
<!-- Node3&#45;&gt;Node4 -->
<g id="edge3" class="edge"><title>Node3&#45;&gt;Node4</title>
<path fill="none" stroke="midnightblue" d="M1219.1,-221.699C1255.72,-211.507 1308.76,-196.743 1341.9,-187.516"/>
<polygon fill="midnightblue" stroke="midnightblue" points="1217.94,-218.39 1209.24,-224.444 1219.81,-225.134 1217.94,-218.39"/>
</g>
<!-- Node3&#45;&gt;Node5 -->
<g id="edge4" class="edge"><title>Node3&#45;&gt;Node5</title>
<path fill="none" stroke="midnightblue" d="M1168,-215.275C1162.53,-206.045 1156.08,-195.17 1151.69,-187.751"/>
<polygon fill="midnightblue" stroke="midnightblue" points="1165.11,-217.264 1173.22,-224.083 1171.13,-213.696 1165.11,-217.264"/>
</g>
<!-- Node6 -->
<g id="node6" class="node"><title>Node6</title>
<g id="a_node6"><a xlink:href="flameSolver_8h.html" target="_top" xlink:title="src/flameSolver.h">
<polygon fill="white" stroke="black" points="826.5,-56.5 826.5,-75.5 916.5,-75.5 916.5,-56.5 826.5,-56.5"/>
<text text-anchor="middle" x="871.5" y="-63.5" font-family="FreeSans" font-size="10.00">src/flameSolver.h</text>
</a>
</g>
</g>
<!-- Node3&#45;&gt;Node6 -->
<g id="edge8" class="edge"><title>Node3&#45;&gt;Node6</title>
<path fill="none" stroke="midnightblue" d="M1226.72,-224.163C1309.28,-215.513 1489.57,-237.366 1533.5,-188 1539.41,-181.36 1538.57,-175.302 1533.5,-168 1492.92,-109.541 1452.91,-127.702 1383.5,-112 1214.22,-73.704 1006.62,-67.624 916.641,-66.9129"/>
<polygon fill="midnightblue" stroke="midnightblue" points="1226.15,-220.706 1216.68,-225.448 1227.04,-227.65 1226.15,-220.706"/>
</g>
<!-- Node5&#45;&gt;Node6 -->
<g id="edge5" class="edge"><title>Node5&#45;&gt;Node6</title>
<path fill="none" stroke="midnightblue" d="M1135.57,-159.825C1125.09,-144.817 1107.88,-123.655 1087.5,-112 1033.97,-81.3797 962.336,-71.4755 916.544,-68.3414"/>
<polygon fill="midnightblue" stroke="midnightblue" points="1132.73,-161.868 1141.2,-168.235 1138.55,-157.977 1132.73,-161.868"/>
</g>
<!-- Node8 -->
<g id="node8" class="node"><title>Node8</title>
<g id="a_node8"><a xlink:href="sourceSystem_8cpp.html" target="_top" xlink:title="src/sourceSystem.cpp">
<polygon fill="white" stroke="black" points="493,-112.5 493,-131.5 604,-131.5 604,-112.5 493,-112.5"/>
<text text-anchor="middle" x="548.5" y="-119.5" font-family="FreeSans" font-size="10.00">src/sourceSystem.cpp</text>
</a>
</g>
</g>
<!-- Node5&#45;&gt;Node8 -->
<g id="edge7" class="edge"><title>Node5&#45;&gt;Node8</title>
<path fill="none" stroke="midnightblue" d="M1085.61,-171.501C969.135,-160.984 716.414,-138.163 604.161,-128.026"/>
<polygon fill="midnightblue" stroke="midnightblue" points="1085.5,-175.006 1095.77,-172.419 1086.13,-168.034 1085.5,-175.006"/>
</g>
<!-- Node7 -->
<g id="node7" class="node"><title>Node7</title>
<g id="a_node7"><a xlink:href="flameSolver_8cpp.html" target="_top" xlink:title="src/flameSolver.cpp">
<polygon fill="white" stroke="black" points="464,-0.5 464,-19.5 565,-19.5 565,-0.5 464,-0.5"/>
<text text-anchor="middle" x="514.5" y="-7.5" font-family="FreeSans" font-size="10.00">src/flameSolver.cpp</text>
</a>
</g>
</g>
<!-- Node6&#45;&gt;Node7 -->
<g id="edge6" class="edge"><title>Node6&#45;&gt;Node7</title>
<path fill="none" stroke="midnightblue" d="M816.101,-56.6203C747.45,-46.2361 631.441,-28.6886 565.093,-18.6527"/>
<polygon fill="midnightblue" stroke="midnightblue" points="815.875,-60.1258 826.286,-58.1609 816.922,-53.2046 815.875,-60.1258"/>
</g>
<!-- Node9&#45;&gt;Node6 -->
<g id="edge12" class="edge"><title>Node9&#45;&gt;Node6</title>
<path fill="none" stroke="midnightblue" d="M324.715,-214.339C321.78,-186.625 321.232,-135.352 352.5,-112 390.045,-83.9598 706.954,-71.8274 826.29,-68.2236"/>
<polygon fill="midnightblue" stroke="midnightblue" points="321.251,-214.841 325.987,-224.318 328.194,-213.956 321.251,-214.841"/>
</g>
<!-- Node9&#45;&gt;Node8 -->
<g id="edge13" class="edge"><title>Node9&#45;&gt;Node8</title>
<path fill="none" stroke="midnightblue" d="M328.048,-214.04C329.509,-199.432 333.908,-179.797 346.5,-168 357.545,-157.652 441.563,-141.431 497.707,-131.551"/>
<polygon fill="midnightblue" stroke="midnightblue" points="324.529,-214.235 327.405,-224.432 331.516,-214.667 324.529,-214.235"/>
</g>
<!-- Node9&#45;&gt;Node10 -->
<g id="edge10" class="edge"><title>Node9&#45;&gt;Node10</title>
<path fill="none" stroke="midnightblue" d="M348.534,-218.622C362.966,-208.757 381.641,-195.992 393.839,-187.655"/>
<polygon fill="midnightblue" stroke="midnightblue" points="346.473,-215.791 340.193,-224.324 350.423,-221.57 346.473,-215.791"/>
</g>
<!-- Node9&#45;&gt;Node11 -->
<g id="edge11" class="edge"><title>Node9&#45;&gt;Node11</title>
<path fill="none" stroke="midnightblue" d="M270.918,-229.069C233.408,-224.122 184.633,-212.993 148.5,-188 105.175,-158.032 77.1841,-97.9436 67.9031,-75.6148"/>
<polygon fill="midnightblue" stroke="midnightblue" points="270.832,-232.584 281.179,-230.307 271.67,-225.635 270.832,-232.584"/>
</g>
<!-- Node12&#45;&gt;Node6 -->
<g id="edge24" class="edge"><title>Node12&#45;&gt;Node6</title>
<path fill="none" stroke="midnightblue" d="M845.832,-213.93C852.122,-177.92 865.52,-101.231 870.003,-75.5681"/>
<polygon fill="midnightblue" stroke="midnightblue" points="842.332,-213.622 844.059,-224.075 849.228,-214.827 842.332,-213.622"/>
</g>
<!-- Node12&#45;&gt;Node8 -->
<g id="edge30" class="edge"><title>Node12&#45;&gt;Node8</title>
<path fill="none" stroke="midnightblue" d="M807.893,-221.088C783.308,-212.419 749.627,-200.121 720.5,-188 701.041,-179.902 697.03,-175.925 677.5,-168 642.774,-153.908 601.774,-140.069 575.472,-131.539"/>
<polygon fill="midnightblue" stroke="midnightblue" points="806.906,-224.45 817.501,-224.454 809.221,-217.844 806.906,-224.45"/>
</g>
<!-- Node12&#45;&gt;Node10 -->
<g id="edge15" class="edge"><title>Node12&#45;&gt;Node10</title>
<path fill="none" stroke="midnightblue" d="M788.938,-226.366C704.338,-215.888 540.876,-195.643 457.743,-185.347"/>
<polygon fill="midnightblue" stroke="midnightblue" points="788.746,-229.869 799.101,-227.625 789.607,-222.922 788.746,-229.869"/>
</g>
<!-- Node13 -->
<g id="node13" class="node"><title>Node13</title>
<g id="a_node13"><a xlink:href="grid_8h.html" target="_top" xlink:title="src/grid.h">
<polygon fill="white" stroke="black" points="907.5,-168.5 907.5,-187.5 963.5,-187.5 963.5,-168.5 907.5,-168.5"/>
<text text-anchor="middle" x="935.5" y="-175.5" font-family="FreeSans" font-size="10.00">src/grid.h</text>
</a>
</g>
</g>
<!-- Node12&#45;&gt;Node13 -->
<g id="edge16" class="edge"><title>Node12&#45;&gt;Node13</title>
<path fill="none" stroke="midnightblue" d="M866.306,-219.177C883.419,-209.241 905.965,-196.149 920.595,-187.655"/>
<polygon fill="midnightblue" stroke="midnightblue" points="864.332,-216.276 857.442,-224.324 867.847,-222.329 864.332,-216.276"/>
</g>
<!-- Node12&#45;&gt;Node17 -->
<g id="edge25" class="edge"><title>Node12&#45;&gt;Node17</title>
<path fill="none" stroke="midnightblue" d="M822.91,-218.101C810.132,-208.382 793.887,-196.027 783.115,-187.834"/>
<polygon fill="midnightblue" stroke="midnightblue" points="821.014,-221.056 831.093,-224.324 825.252,-215.484 821.014,-221.056"/>
</g>
<!-- Node18 -->
<g id="node18" class="node"><title>Node18</title>
<g id="a_node18"><a xlink:href="splitSolver_8cpp.html" target="_top" xlink:title="src/splitSolver.cpp">
<polygon fill="white" stroke="black" points="748,-112.5 748,-131.5 843,-131.5 843,-112.5 748,-112.5"/>
<text text-anchor="middle" x="795.5" y="-119.5" font-family="FreeSans" font-size="10.00">src/splitSolver.cpp</text>
</a>
</g>
</g>
<!-- Node12&#45;&gt;Node18 -->
<g id="edge31" class="edge"><title>Node12&#45;&gt;Node18</title>
<path fill="none" stroke="midnightblue" d="M838.095,-214.533C834.63,-201.282 829.262,-183.164 822.5,-168 816.563,-154.686 807.5,-140.437 801.538,-131.622"/>
<polygon fill="midnightblue" stroke="midnightblue" points="834.728,-215.494 840.547,-224.347 841.519,-213.797 834.728,-215.494"/>
</g>
<!-- Node12&#45;&gt;Node19 -->
<g id="edge28" class="edge"><title>Node12&#45;&gt;Node19</title>
<path fill="none" stroke="midnightblue" d="M895.593,-226.934C966.37,-218.729 1095.5,-203.349 1205.5,-188 1208.73,-187.549 1212.06,-187.071 1215.41,-186.578"/>
<polygon fill="midnightblue" stroke="midnightblue" points="895.114,-223.466 885.583,-228.092 895.919,-230.419 895.114,-223.466"/>
</g>
<!-- Node20 -->
<g id="node20" class="node"><title>Node20</title>
<g id="a_node20"><a xlink:href="scalarFunction_8cpp.html" target="_top" xlink:title="src/scalarFunction.cpp">
<polygon fill="white" stroke="black" points="362,-112.5 362,-131.5 475,-131.5 475,-112.5 362,-112.5"/>
<text text-anchor="middle" x="418.5" y="-119.5" font-family="FreeSans" font-size="10.00">src/scalarFunction.cpp</text>
</a>
</g>
</g>
<!-- Node12&#45;&gt;Node20 -->
<g id="edge29" class="edge"><title>Node12&#45;&gt;Node20</title>
<path fill="none" stroke="midnightblue" d="M789.519,-222.325C756.557,-214.769 713.701,-203.262 677.5,-188 661.345,-181.189 659.879,-174.251 643.5,-168 612.749,-156.265 527.945,-140.929 471.684,-131.531"/>
<polygon fill="midnightblue" stroke="midnightblue" points="788.89,-225.771 799.413,-224.543 790.421,-218.94 788.89,-225.771"/>
</g>
<!-- Node13&#45;&gt;Node6 -->
<g id="edge22" class="edge"><title>Node13&#45;&gt;Node6</title>
<path fill="none" stroke="midnightblue" d="M925.399,-159.64C911.496,-135.744 886.993,-93.6286 876.499,-75.5914"/>
<polygon fill="midnightblue" stroke="midnightblue" points="922.424,-161.485 930.478,-168.368 928.474,-157.965 922.424,-161.485"/>
</g>
<!-- Node13&#45;&gt;Node14 -->
<g id="edge17" class="edge"><title>Node13&#45;&gt;Node14</title>
<path fill="none" stroke="midnightblue" d="M896.971,-173.902C875.127,-172.153 847.286,-169.936 822.5,-168 613.636,-151.683 561.328,-148.78 352.5,-132 337.17,-130.768 320.608,-129.396 305.2,-128.101"/>
<polygon fill="midnightblue" stroke="midnightblue" points="896.926,-177.41 907.174,-174.72 897.486,-170.432 896.926,-177.41"/>
</g>
<!-- Node13&#45;&gt;Node15 -->
<g id="edge20" class="edge"><title>Node13&#45;&gt;Node15</title>
<path fill="none" stroke="midnightblue" d="M951.83,-161.253C961.765,-151.673 974.088,-139.791 982.339,-131.834"/>
<polygon fill="midnightblue" stroke="midnightblue" points="949.266,-158.863 944.497,-168.324 954.125,-163.902 949.266,-158.863"/>
</g>
<!-- Node13&#45;&gt;Node16 -->
<g id="edge23" class="edge"><title>Node13&#45;&gt;Node16</title>
<path fill="none" stroke="midnightblue" d="M973.767,-171.91C1053.01,-161.37 1233.89,-137.313 1308.44,-127.397"/>
<polygon fill="midnightblue" stroke="midnightblue" points="973.178,-168.458 963.727,-173.246 974.101,-175.397 973.178,-168.458"/>
</g>
<!-- Node14&#45;&gt;Node6 -->
<g id="edge19" class="edge"><title>Node14&#45;&gt;Node6</title>
<path fill="none" stroke="midnightblue" d="M315.554,-112.407C316.88,-112.268 318.196,-112.132 319.5,-112 507.471,-92.9151 732.102,-76.6156 826.367,-70.0698"/>
<polygon fill="midnightblue" stroke="midnightblue" points="314.815,-108.967 305.252,-113.527 315.571,-115.926 314.815,-108.967"/>
</g>
<!-- Node14&#45;&gt;Node11 -->
<g id="edge18" class="edge"><title>Node14&#45;&gt;Node11</title>
<path fill="none" stroke="midnightblue" d="M207.181,-109.568C173.036,-99.381 123.839,-84.7034 93.0458,-75.5164"/>
<polygon fill="midnightblue" stroke="midnightblue" points="206.237,-112.938 216.82,-112.444 208.238,-106.231 206.237,-112.938"/>
</g>
<!-- Node15&#45;&gt;Node6 -->
<g id="edge21" class="edge"><title>Node15&#45;&gt;Node6</title>
<path fill="none" stroke="midnightblue" d="M963.127,-108.232C940.68,-98.1312 909.965,-84.3091 890.425,-75.5164"/>
<polygon fill="midnightblue" stroke="midnightblue" points="961.93,-111.532 972.486,-112.444 964.803,-105.148 961.93,-111.532"/>
</g>
<!-- Node17&#45;&gt;Node6 -->
<g id="edge26" class="edge"><title>Node17&#45;&gt;Node6</title>
<path fill="none" stroke="midnightblue" d="M753.641,-160.858C740.749,-147.213 727.4,-127.473 738.5,-112 758.321,-84.3692 796.033,-73.4894 826.252,-69.3093"/>
<polygon fill="midnightblue" stroke="midnightblue" points="751.414,-163.577 760.991,-168.109 756.33,-158.595 751.414,-163.577"/>
</g>
<!-- Node17&#45;&gt;Node18 -->
<g id="edge27" class="edge"><title>Node17&#45;&gt;Node18</title>
<path fill="none" stroke="midnightblue" d="M779.638,-158.69C783.683,-149.589 788.383,-139.014 791.611,-131.751"/>
<polygon fill="midnightblue" stroke="midnightblue" points="776.326,-157.523 775.463,-168.083 782.723,-160.366 776.326,-157.523"/>
</g>
<!-- Node21&#45;&gt;Node5 -->
<g id="edge35" class="edge"><title>Node21&#45;&gt;Node5</title>
<path fill="none" stroke="midnightblue" d="M722.114,-227.656C810.92,-217.474 1003.69,-195.373 1095.68,-184.827"/>
<polygon fill="midnightblue" stroke="midnightblue" points="721.603,-224.191 712.067,-228.808 722.4,-231.146 721.603,-224.191"/>
</g>
<!-- Node21&#45;&gt;Node6 -->
<g id="edge36" class="edge"><title>Node21&#45;&gt;Node6</title>
<path fill="none" stroke="midnightblue" d="M629.054,-223.313C594.98,-215.155 552.91,-202.512 542.5,-188 537.319,-180.777 537.217,-175.148 542.5,-168 560.367,-143.825 753.466,-95.241 835.244,-75.5657"/>
<polygon fill="midnightblue" stroke="midnightblue" points="628.34,-226.74 638.872,-225.596 629.925,-219.922 628.34,-226.74"/>
</g>
<!-- Node21&#45;&gt;Node14 -->
<g id="edge34" class="edge"><title>Node21&#45;&gt;Node14</title>
<path fill="none" stroke="midnightblue" d="M628.663,-222.566C595.041,-214.531 548.9,-202.384 509.5,-188 489.701,-180.772 486.52,-174.592 466.5,-168 413.131,-150.426 350.153,-138.414 305.107,-131.251"/>
<polygon fill="midnightblue" stroke="midnightblue" points="628.138,-226.038 638.674,-224.925 629.743,-219.224 628.138,-226.038"/>
</g>
<!-- Node22 -->
<g id="node22" class="node"><title>Node22</title>
<g id="a_node22"><a xlink:href="quasi2d_8cpp.html" target="_top" xlink:title="src/quasi2d.cpp">
<polygon fill="white" stroke="black" points="552,-168.5 552,-187.5 635,-187.5 635,-168.5 552,-168.5"/>
<text text-anchor="middle" x="593.5" y="-175.5" font-family="FreeSans" font-size="10.00">src/quasi2d.cpp</text>
</a>
</g>
</g>
<!-- Node21&#45;&gt;Node22 -->
<g id="edge37" class="edge"><title>Node21&#45;&gt;Node22</title>
<path fill="none" stroke="midnightblue" d="M653.667,-218.622C638.687,-208.757 619.303,-195.992 606.642,-187.655"/>
<polygon fill="midnightblue" stroke="midnightblue" points="652.049,-221.747 662.325,-224.324 655.899,-215.901 652.049,-221.747"/>
</g>
<!-- Node23&#45;&gt;Node7 -->
<g id="edge40" class="edge"><title>Node23&#45;&gt;Node7</title>
<path fill="none" stroke="midnightblue" d="M191.933,-161.21C178.823,-147.487 164.998,-127.442 176.5,-112 211.027,-65.6467 378.383,-32.741 463.928,-18.6514"/>
<polygon fill="midnightblue" stroke="midnightblue" points="189.773,-163.993 199.373,-168.477 194.665,-158.985 189.773,-163.993"/>
</g>
<!-- Node23&#45;&gt;Node8 -->
<g id="edge42" class="edge"><title>Node23&#45;&gt;Node8</title>
<path fill="none" stroke="midnightblue" d="M271.314,-167.154C335.297,-156.961 434.224,-141.203 494.971,-131.527"/>
<polygon fill="midnightblue" stroke="midnightblue" points="270.681,-163.71 261.356,-168.74 271.782,-170.623 270.681,-163.71"/>
</g>
<!-- Node23&#45;&gt;Node14 -->
<g id="edge39" class="edge"><title>Node23&#45;&gt;Node14</title>
<path fill="none" stroke="midnightblue" d="M221.123,-159.566C227.317,-150.275 234.668,-139.248 239.666,-131.751"/>
<polygon fill="midnightblue" stroke="midnightblue" points="218.08,-157.821 215.445,-168.083 223.904,-161.704 218.08,-157.821"/>
</g>
<!-- Node23&#45;&gt;Node20 -->
<g id="edge41" class="edge"><title>Node23&#45;&gt;Node20</title>
<path fill="none" stroke="midnightblue" d="M252.484,-165.894C291.952,-155.697 349.6,-140.802 385.538,-131.516"/>
<polygon fill="midnightblue" stroke="midnightblue" points="251.423,-162.553 242.617,-168.444 253.174,-169.331 251.423,-162.553"/>
</g>
<!-- Node24&#45;&gt;Node6 -->
<g id="edge46" class="edge"><title>Node24&#45;&gt;Node6</title>
<path fill="none" stroke="midnightblue" d="M1052.71,-214.931C1063.04,-189.175 1076.78,-141.74 1053.5,-112 1036.8,-90.6637 964.833,-78.0459 916.557,-71.8312"/>
<polygon fill="midnightblue" stroke="midnightblue" points="1049.44,-213.668 1048.74,-224.239 1055.88,-216.413 1049.44,-213.668"/>
</g>
<!-- Node24&#45;&gt;Node15 -->
<g id="edge45" class="edge"><title>Node24&#45;&gt;Node15</title>
<path fill="none" stroke="midnightblue" d="M1035.98,-215.32C1024.44,-191.37 1004.29,-149.548 995.64,-131.591"/>
<polygon fill="midnightblue" stroke="midnightblue" points="1032.85,-216.879 1040.34,-224.368 1039.15,-213.84 1032.85,-216.879"/>
</g>
<!-- Node24&#45;&gt;Node25 -->
<g id="edge47" class="edge"><title>Node24&#45;&gt;Node25</title>
<path fill="none" stroke="midnightblue" d="M1094.77,-227.765C1167.59,-220.018 1306.63,-204.615 1424.5,-188 1427.57,-187.568 1430.72,-187.103 1433.91,-186.621"/>
<polygon fill="midnightblue" stroke="midnightblue" points="1094.09,-224.317 1084.51,-228.852 1094.83,-231.278 1094.09,-224.317"/>
</g>
<!-- Node26&#45;&gt;Node5 -->
<g id="edge51" class="edge"><title>Node26&#45;&gt;Node5</title>
<path fill="none" stroke="midnightblue" d="M1251.37,-220.638C1225.84,-210.504 1190.39,-196.427 1167.95,-187.516"/>
<polygon fill="midnightblue" stroke="midnightblue" points="1250.36,-224.006 1260.95,-224.444 1252.95,-217.5 1250.36,-224.006"/>
</g>
<!-- Node26&#45;&gt;Node27 -->
<g id="edge52" class="edge"><title>Node26&#45;&gt;Node27</title>
<path fill="none" stroke="midnightblue" d="M1340.04,-223.923C1431.24,-209.783 1525.07,-195.535 1582,-186.924"/>
<polygon fill="midnightblue" stroke="midnightblue" points="1339.43,-220.476 1330.08,-225.468 1340.5,-227.393 1339.43,-220.476"/>
</g>
</g>
</svg>
