<?xml version="1.0" encoding="UTF-8" standalone="no"?>
<!DOCTYPE svg PUBLIC "-//W3C//DTD SVG 1.1//EN"
 "http://www.w3.org/Graphics/SVG/1.1/DTD/svg11.dtd">
<!-- Generated by graphviz version 2.28.0 (20120425.2022)
 -->
<!-- Title: G Pages: 1 -->
<svg width="1347pt" height="308pt"
 viewBox="0.00 0.00 1347.00 308.00" xmlns="http://www.w3.org/2000/svg" xmlns:xlink="http://www.w3.org/1999/xlink">
<g id="graph1" class="graph" transform="scale(1 1) rotate(0) translate(4 304)">
<title>G</title>
<polygon fill="white" stroke="white" points="-4,5 -4,-304 1344,-304 1344,5 -4,5"/>
<!-- Node1 -->
<g id="node1" class="node"><title>Node1</title>
<polygon fill="#bfbfbf" stroke="black" points="807,-280.5 807,-299.5 895,-299.5 895,-280.5 807,-280.5"/>
<text text-anchor="middle" x="851" y="-287.5" font-family="FreeSans" font-size="10.00">src/debugUtils.h</text>
</g>
<!-- Node2 -->
<g id="node3" class="node"><title>Node2</title>
<a xlink:href="mathUtils_8h.html" target="_top" xlink:title="src/mathUtils.h">
<polygon fill="white" stroke="black" points="519.5,-224.5 519.5,-243.5 600.5,-243.5 600.5,-224.5 519.5,-224.5"/>
<text text-anchor="middle" x="560" y="-231.5" font-family="FreeSans" font-size="10.00">src/mathUtils.h</text>
</a>
</g>
<!-- Node1&#45;&gt;Node2 -->
<g id="edge2" class="edge"><title>Node1&#45;&gt;Node2</title>
<path fill="none" stroke="midnightblue" d="M796.926,-278.966C740.132,-268.427 652.094,-252.09 600.845,-242.58"/>
<polygon fill="midnightblue" stroke="midnightblue" points="796.333,-282.415 806.803,-280.799 797.61,-275.533 796.333,-282.415"/>
</g>
<!-- Node4 -->
<g id="node7" class="node"><title>Node4</title>
<a xlink:href="chemistry0d_8cpp.html" target="_top" xlink:title="src/chemistry0d.cpp">
<polygon fill="white" stroke="black" points="38.5,-56.5 38.5,-75.5 143.5,-75.5 143.5,-56.5 38.5,-56.5"/>
<text text-anchor="middle" x="91" y="-63.5" font-family="FreeSans" font-size="10.00">src/chemistry0d.cpp</text>
</a>
</g>
<!-- Node1&#45;&gt;Node4 -->
<g id="edge58" class="edge"><title>Node1&#45;&gt;Node4</title>
<path fill="none" stroke="midnightblue" d="M796.933,-287.82C663.431,-284.487 321.024,-273.266 211,-244 129.213,-222.245 81.8566,-212.899 57,-132 54.3893,-123.503 54.1741,-120.428 57,-112 61.8561,-97.5174 73.4193,-83.9752 81.7121,-75.6053"/>
<polygon fill="midnightblue" stroke="midnightblue" points="796.851,-291.319 806.934,-288.065 797.023,-284.321 796.851,-291.319"/>
</g>
<!-- Node6 -->
<g id="node11" class="node"><title>Node6</title>
<a xlink:href="convectionSystem_8cpp.html" target="_top" xlink:title="src/convectionSystem.cpp">
<polygon fill="white" stroke="black" points="118,-0.5 118,-19.5 252,-19.5 252,-0.5 118,-0.5"/>
<text text-anchor="middle" x="185" y="-7.5" font-family="FreeSans" font-size="10.00">src/convectionSystem.cpp</text>
</a>
</g>
<!-- Node1&#45;&gt;Node6 -->
<g id="edge60" class="edge"><title>Node1&#45;&gt;Node6</title>
<path fill="none" stroke="midnightblue" d="M796.523,-288.177C652.324,-285.582 263.24,-275.759 139,-244 72.9259,-227.11 0,-247.199 0,-179 0,-179 0,-179 0,-121 0,-89.3663 5.13418,-76.7633 29,-56 53.5622,-34.6309 87.7156,-23.384 117.806,-17.4755"/>
<polygon fill="midnightblue" stroke="midnightblue" points="796.821,-291.683 806.881,-288.359 796.944,-284.684 796.821,-291.683"/>
</g>
<!-- Node10 -->
<g id="node20" class="node"><title>Node10</title>
<a xlink:href="readConfig_8cpp.html" target="_top" xlink:title="src/readConfig.cpp">
<polygon fill="white" stroke="black" points="406.5,-112.5 406.5,-131.5 507.5,-131.5 507.5,-112.5 406.5,-112.5"/>
<text text-anchor="middle" x="457" y="-119.5" font-family="FreeSans" font-size="10.00">src/readConfig.cpp</text>
</a>
</g>
<!-- Node1&#45;&gt;Node10 -->
<g id="edge74" class="edge"><title>Node1&#45;&gt;Node10</title>
<path fill="none" stroke="midnightblue" d="M821.106,-276.405C744.473,-244.118 542.477,-159.013 477.468,-131.624"/>
<polygon fill="midnightblue" stroke="midnightblue" points="820.072,-279.767 830.647,-280.425 822.79,-273.317 820.072,-279.767"/>
</g>
<!-- Node13 -->
<g id="node29" class="node"><title>Node13</title>
<a xlink:href="dataFile_8cpp.html" target="_top" xlink:title="src/dataFile.cpp">
<polygon fill="white" stroke="black" points="861,-112.5 861,-131.5 949,-131.5 949,-112.5 861,-112.5"/>
<text text-anchor="middle" x="905" y="-119.5" font-family="FreeSans" font-size="10.00">src/dataFile.cpp</text>
</a>
</g>
<!-- Node1&#45;&gt;Node13 -->
<g id="edge62" class="edge"><title>Node1&#45;&gt;Node13</title>
<path fill="none" stroke="midnightblue" d="M902.017,-277.125C919.324,-270.397 936.835,-259.99 947,-244 965.12,-215.494 959.386,-199.425 947,-168 941.043,-152.888 927.354,-139.857 917.214,-131.764"/>
<polygon fill="midnightblue" stroke="midnightblue" points="900.734,-273.866 892.471,-280.497 903.065,-280.467 900.734,-273.866"/>
</g>
<!-- Node14 -->
<g id="node31" class="node"><title>Node14</title>
<a xlink:href="flameSolver_8cpp.html" target="_top" xlink:title="src/flameSolver.cpp">
<polygon fill="white" stroke="black" points="688.5,-112.5 688.5,-131.5 793.5,-131.5 793.5,-112.5 688.5,-112.5"/>
<text text-anchor="middle" x="741" y="-119.5" font-family="FreeSans" font-size="10.00">src/flameSolver.cpp</text>
</a>
</g>
<!-- Node1&#45;&gt;Node14 -->
<g id="edge66" class="edge"><title>Node1&#45;&gt;Node14</title>
<path fill="none" stroke="midnightblue" d="M869.266,-273.816C895.915,-249.83 939.537,-202.372 913,-168 898.429,-149.126 838.798,-136.643 793.803,-129.712"/>
<polygon fill="midnightblue" stroke="midnightblue" points="866.876,-271.256 861.637,-280.466 871.475,-276.533 866.876,-271.256"/>
</g>
<!-- Node16 -->
<g id="node37" class="node"><title>Node16</title>
<a xlink:href="integrator_8cpp.html" target="_top" xlink:title="src/integrator.cpp">
<polygon fill="white" stroke="black" points="66.5,-112.5 66.5,-131.5 159.5,-131.5 159.5,-112.5 66.5,-112.5"/>
<text text-anchor="middle" x="113" y="-119.5" font-family="FreeSans" font-size="10.00">src/integrator.cpp</text>
</a>
</g>
<!-- Node1&#45;&gt;Node16 -->
<g id="edge70" class="edge"><title>Node1&#45;&gt;Node16</title>
<path fill="none" stroke="midnightblue" d="M796.428,-285.699C632.11,-275.208 150.496,-240.22 105,-188 91.2573,-172.226 101.403,-145.548 108.196,-131.789"/>
<polygon fill="midnightblue" stroke="midnightblue" points="796.583,-289.216 806.784,-286.354 797.025,-282.23 796.583,-289.216"/>
</g>
<!-- Node18 -->
<g id="node43" class="node"><title>Node18</title>
<a xlink:href="qssintegrator_8cpp.html" target="_top" xlink:title="src/qssintegrator.cpp">
<polygon fill="white" stroke="black" points="1033,-112.5 1033,-131.5 1143,-131.5 1143,-112.5 1033,-112.5"/>
<text text-anchor="middle" x="1088" y="-119.5" font-family="FreeSans" font-size="10.00">src/qssintegrator.cpp</text>
</a>
</g>
<!-- Node1&#45;&gt;Node18 -->
<g id="edge72" class="edge"><title>Node1&#45;&gt;Node18</title>
<path fill="none" stroke="midnightblue" d="M905.197,-284.915C965.993,-277.099 1061.97,-254.33 1107,-188 1119.02,-170.296 1104.34,-144.912 1094.86,-131.716"/>
<polygon fill="midnightblue" stroke="midnightblue" points="904.532,-281.469 895.015,-286.127 905.359,-288.42 904.532,-281.469"/>
</g>
<!-- Node20 -->
<g id="node48" class="node"><title>Node20</title>
<a xlink:href="sundialsUtils_8cpp.html" target="_top" xlink:title="src/sundialsUtils.cpp">
<polygon fill="white" stroke="black" points="797.5,-168.5 797.5,-187.5 904.5,-187.5 904.5,-168.5 797.5,-168.5"/>
<text text-anchor="middle" x="851" y="-175.5" font-family="FreeSans" font-size="10.00">src/sundialsUtils.cpp</text>
</a>
</g>
<!-- Node1&#45;&gt;Node20 -->
<g id="edge76" class="edge"><title>Node1&#45;&gt;Node20</title>
<path fill="none" stroke="midnightblue" d="M851,-270.348C851,-246.254 851,-205.308 851,-187.591"/>
<polygon fill="midnightblue" stroke="midnightblue" points="847.5,-270.368 851,-280.368 854.5,-270.369 847.5,-270.368"/>
</g>
<!-- Node21 -->
<g id="node53" class="node"><title>Node21</title>
<a xlink:href="debugUtils_8cpp.html" target="_top" xlink:title="src/debugUtils.cpp">
<polygon fill="white" stroke="black" points="1155,-224.5 1155,-243.5 1253,-243.5 1253,-224.5 1155,-224.5"/>
<text text-anchor="middle" x="1204" y="-231.5" font-family="FreeSans" font-size="10.00">src/debugUtils.cpp</text>
</a>
</g>
<!-- Node1&#45;&gt;Node21 -->
<g id="edge64" class="edge"><title>Node1&#45;&gt;Node21</title>
<path fill="none" stroke="midnightblue" d="M905.449,-280.671C973.55,-270.253 1089.15,-252.569 1154.73,-242.537"/>
<polygon fill="midnightblue" stroke="midnightblue" points="904.706,-277.244 895.35,-282.216 905.765,-284.163 904.706,-277.244"/>
</g>
<!-- Node22 -->
<g id="node56" class="node"><title>Node22</title>
<a xlink:href="grid_8cpp.html" target="_top" xlink:title="src/grid.cpp">
<polygon fill="white" stroke="black" points="1271,-224.5 1271,-243.5 1339,-243.5 1339,-224.5 1271,-224.5"/>
<text text-anchor="middle" x="1305" y="-231.5" font-family="FreeSans" font-size="10.00">src/grid.cpp</text>
</a>
</g>
<!-- Node1&#45;&gt;Node22 -->
<g id="edge68" class="edge"><title>Node1&#45;&gt;Node22</title>
<path fill="none" stroke="midnightblue" d="M905.326,-284.648C984.03,-277.978 1134.22,-263.879 1261,-244 1264.24,-243.493 1267.59,-242.91 1270.95,-242.289"/>
<polygon fill="midnightblue" stroke="midnightblue" points="904.838,-281.176 895.166,-285.501 905.424,-288.152 904.838,-281.176"/>
</g>
<!-- Node3 -->
<g id="node5" class="node"><title>Node3</title>
<a xlink:href="chemistry0d_8h.html" target="_top" xlink:title="src/chemistry0d.h">
<polygon fill="white" stroke="red" points="254.5,-112.5 254.5,-131.5 349.5,-131.5 349.5,-112.5 254.5,-112.5"/>
<text text-anchor="middle" x="302" y="-119.5" font-family="FreeSans" font-size="10.00">src/chemistry0d.h</text>
</a>
</g>
<!-- Node2&#45;&gt;Node3 -->
<g id="edge4" class="edge"><title>Node2&#45;&gt;Node3</title>
<path fill="none" stroke="midnightblue" d="M509.221,-232.301C437.342,-230.115 311.471,-221.47 283,-188 268.983,-171.522 284.931,-145.152 295.01,-131.622"/>
<polygon fill="midnightblue" stroke="midnightblue" points="509.325,-235.805 519.416,-232.579 509.516,-228.808 509.325,-235.805"/>
</g>
<!-- Node5 -->
<g id="node9" class="node"><title>Node5</title>
<a xlink:href="convectionSystem_8h.html" target="_top" xlink:title="src/convectionSystem.h">
<polygon fill="white" stroke="red" points="308.5,-56.5 308.5,-75.5 431.5,-75.5 431.5,-56.5 308.5,-56.5"/>
<text text-anchor="middle" x="370" y="-63.5" font-family="FreeSans" font-size="10.00">src/convectionSystem.h</text>
</a>
</g>
<!-- Node2&#45;&gt;Node5 -->
<g id="edge22" class="edge"><title>Node2&#45;&gt;Node5</title>
<path fill="none" stroke="midnightblue" d="M509.349,-223.855C483.76,-217.247 453.462,-206.179 431,-188 393.329,-157.513 376.786,-97.7407 371.761,-75.5553"/>
<polygon fill="midnightblue" stroke="midnightblue" points="508.718,-227.303 519.261,-226.257 510.367,-220.5 508.718,-227.303"/>
</g>
<!-- Node7 -->
<g id="node13" class="node"><title>Node7</title>
<a xlink:href="diffusionSystem_8h.html" target="_top" xlink:title="src/diffusionSystem.h">
<polygon fill="white" stroke="red" points="170.5,-56.5 170.5,-75.5 281.5,-75.5 281.5,-56.5 170.5,-56.5"/>
<text text-anchor="middle" x="226" y="-63.5" font-family="FreeSans" font-size="10.00">src/diffusionSystem.h</text>
</a>
</g>
<!-- Node2&#45;&gt;Node7 -->
<g id="edge36" class="edge"><title>Node2&#45;&gt;Node7</title>
<path fill="none" stroke="midnightblue" d="M509.218,-230.461C437.382,-225.97 310.727,-214.471 274,-188 236.049,-160.647 228.088,-98.4163 226.431,-75.5957"/>
<polygon fill="midnightblue" stroke="midnightblue" points="509.21,-233.967 519.402,-231.073 509.631,-226.979 509.21,-233.967"/>
</g>
<!-- Node8 -->
<g id="node15" class="node"><title>Node8</title>
<a xlink:href="sourceSystem_8h.html" target="_top" xlink:title="src/sourceSystem.h">
<polygon fill="white" stroke="red" points="544.5,-56.5 544.5,-75.5 649.5,-75.5 649.5,-56.5 544.5,-56.5"/>
<text text-anchor="middle" x="597" y="-63.5" font-family="FreeSans" font-size="10.00">src/sourceSystem.h</text>
</a>
</g>
<!-- Node2&#45;&gt;Node8 -->
<g id="edge44" class="edge"><title>Node2&#45;&gt;Node8</title>
<path fill="none" stroke="midnightblue" d="M571.709,-216.04C584.277,-196.715 603.452,-163.694 611,-132 615.76,-112.012 607.132,-88.3947 601.433,-75.8588"/>
<polygon fill="midnightblue" stroke="midnightblue" points="568.795,-214.102 566.15,-224.361 574.616,-217.99 568.795,-214.102"/>
</g>
<!-- Node9 -->
<g id="node17" class="node"><title>Node9</title>
<a xlink:href="readConfig_8h.html" target="_top" xlink:title="src/readConfig.h">
<polygon fill="white" stroke="red" points="292.5,-168.5 292.5,-187.5 383.5,-187.5 383.5,-168.5 292.5,-168.5"/>
<text text-anchor="middle" x="338" y="-175.5" font-family="FreeSans" font-size="10.00">src/readConfig.h</text>
</a>
</g>
<!-- Node2&#45;&gt;Node9 -->
<g id="edge16" class="edge"><title>Node2&#45;&gt;Node9</title>
<path fill="none" stroke="midnightblue" d="M514.875,-222.024C472.94,-211.823 411.348,-196.841 373.012,-187.516"/>
<polygon fill="midnightblue" stroke="midnightblue" points="514.28,-225.481 524.823,-224.444 515.934,-218.679 514.28,-225.481"/>
</g>
<!-- Node11 -->
<g id="node23" class="node"><title>Node11</title>
<a xlink:href="quasi2d_8h.html" target="_top" xlink:title="src/quasi2d.h">
<polygon fill="white" stroke="red" points="525.5,-112.5 525.5,-131.5 602.5,-131.5 602.5,-112.5 525.5,-112.5"/>
<text text-anchor="middle" x="564" y="-119.5" font-family="FreeSans" font-size="10.00">src/quasi2d.h</text>
</a>
</g>
<!-- Node2&#45;&gt;Node11 -->
<g id="edge24" class="edge"><title>Node2&#45;&gt;Node11</title>
<path fill="none" stroke="midnightblue" d="M560.678,-214.348C561.554,-190.254 563.043,-149.308 563.688,-131.591"/>
<polygon fill="midnightblue" stroke="midnightblue" points="557.18,-214.248 560.314,-224.368 564.175,-214.502 557.18,-214.248"/>
</g>
<!-- Node12 -->
<g id="node27" class="node"><title>Node12</title>
<a xlink:href="dataFile_8h.html" target="_top" xlink:title="src/dataFile.h">
<polygon fill="white" stroke="red" points="702.5,-168.5 702.5,-187.5 779.5,-187.5 779.5,-168.5 702.5,-168.5"/>
<text text-anchor="middle" x="741" y="-175.5" font-family="FreeSans" font-size="10.00">src/dataFile.h</text>
</a>
</g>
<!-- Node2&#45;&gt;Node12 -->
<g id="edge30" class="edge"><title>Node2&#45;&gt;Node12</title>
<path fill="none" stroke="midnightblue" d="M598.319,-221.568C632.464,-211.381 681.661,-196.703 712.454,-187.516"/>
<polygon fill="midnightblue" stroke="midnightblue" points="597.262,-218.231 588.68,-224.444 599.263,-224.938 597.262,-218.231"/>
</g>
<!-- Node2&#45;&gt;Node14 -->
<g id="edge52" class="edge"><title>Node2&#45;&gt;Node14</title>
<path fill="none" stroke="midnightblue" d="M583.022,-219.009C621.015,-195.919 695.733,-150.51 726.863,-131.591"/>
<polygon fill="midnightblue" stroke="midnightblue" points="580.931,-216.184 574.203,-224.368 584.566,-222.166 580.931,-216.184"/>
</g>
<!-- Node15 -->
<g id="node34" class="node"><title>Node15</title>
<a xlink:href="integrator_8h.html" target="_top" xlink:title="src/integrator.h">
<polygon fill="white" stroke="red" points="114.5,-168.5 114.5,-187.5 197.5,-187.5 197.5,-168.5 114.5,-168.5"/>
<text text-anchor="middle" x="156" y="-175.5" font-family="FreeSans" font-size="10.00">src/integrator.h</text>
</a>
</g>
<!-- Node2&#45;&gt;Node15 -->
<g id="edge38" class="edge"><title>Node2&#45;&gt;Node15</title>
<path fill="none" stroke="midnightblue" d="M509.511,-226.965C441.745,-218.753 317.659,-203.318 212,-188 207.322,-187.322 202.43,-186.582 197.568,-185.826"/>
<polygon fill="midnightblue" stroke="midnightblue" points="509.144,-230.446 519.492,-228.172 509.984,-223.497 509.144,-230.446"/>
</g>
<!-- Node17 -->
<g id="node40" class="node"><title>Node17</title>
<a xlink:href="qssintegrator_8h.html" target="_top" xlink:title="src/qssintegrator.h">
<polygon fill="white" stroke="black" points="999.5,-168.5 999.5,-187.5 1098.5,-187.5 1098.5,-168.5 999.5,-168.5"/>
<text text-anchor="middle" x="1049" y="-175.5" font-family="FreeSans" font-size="10.00">src/qssintegrator.h</text>
</a>
</g>
<!-- Node2&#45;&gt;Node17 -->
<g id="edge46" class="edge"><title>Node2&#45;&gt;Node17</title>
<path fill="none" stroke="midnightblue" d="M611,-227.368C705.334,-216.951 905.944,-194.798 999.295,-184.489"/>
<polygon fill="midnightblue" stroke="midnightblue" points="610.406,-223.912 600.851,-228.489 611.175,-230.87 610.406,-223.912"/>
</g>
<!-- Node19 -->
<g id="node46" class="node"><title>Node19</title>
<a xlink:href="mathUtils_8cpp.html" target="_top" xlink:title="src/mathUtils.cpp">
<polygon fill="white" stroke="black" points="440,-168.5 440,-187.5 532,-187.5 532,-168.5 440,-168.5"/>
<text text-anchor="middle" x="486" y="-175.5" font-family="FreeSans" font-size="10.00">src/mathUtils.cpp</text>
</a>
</g>
<!-- Node2&#45;&gt;Node19 -->
<g id="edge54" class="edge"><title>Node2&#45;&gt;Node19</title>
<path fill="none" stroke="midnightblue" d="M539.966,-218.38C526.591,-208.62 509.441,-196.106 498.106,-187.834"/>
<polygon fill="midnightblue" stroke="midnightblue" points="537.97,-221.257 548.111,-224.324 542.096,-215.602 537.97,-221.257"/>
</g>
<!-- Node2&#45;&gt;Node20 -->
<g id="edge56" class="edge"><title>Node2&#45;&gt;Node20</title>
<path fill="none" stroke="midnightblue" d="M610.941,-223.547C665.674,-213.39 751.896,-197.39 804.745,-187.583"/>
<polygon fill="midnightblue" stroke="midnightblue" points="609.962,-220.169 600.769,-225.435 611.239,-227.051 609.962,-220.169"/>
</g>
<!-- Node3&#45;&gt;Node4 -->
<g id="edge6" class="edge"><title>Node3&#45;&gt;Node4</title>
<path fill="none" stroke="midnightblue" d="M258.858,-109.959C219.006,-99.7598 160.637,-84.8217 124.277,-75.5164"/>
<polygon fill="midnightblue" stroke="midnightblue" points="258.011,-113.355 268.566,-112.444 259.746,-106.573 258.011,-113.355"/>
</g>
<!-- Node3&#45;&gt;Node5 -->
<g id="edge8" class="edge"><title>Node3&#45;&gt;Node5</title>
<path fill="none" stroke="midnightblue" d="M320.762,-106.101C333,-96.3824 348.559,-84.0269 358.876,-75.8339"/>
<polygon fill="midnightblue" stroke="midnightblue" points="318.58,-103.364 312.925,-112.324 322.933,-108.846 318.58,-103.364"/>
</g>
<!-- Node3&#45;&gt;Node7 -->
<g id="edge12" class="edge"><title>Node3&#45;&gt;Node7</title>
<path fill="none" stroke="midnightblue" d="M281.424,-106.38C267.688,-96.6204 250.075,-84.1057 238.433,-75.8339"/>
<polygon fill="midnightblue" stroke="midnightblue" points="279.61,-109.385 289.789,-112.324 283.665,-103.679 279.61,-109.385"/>
</g>
<!-- Node3&#45;&gt;Node8 -->
<g id="edge14" class="edge"><title>Node3&#45;&gt;Node8</title>
<path fill="none" stroke="midnightblue" d="M358.811,-110.601C414.563,-100.395 498.564,-85.0189 550.475,-75.5164"/>
<polygon fill="midnightblue" stroke="midnightblue" points="357.95,-107.2 348.744,-112.444 359.21,-114.086 357.95,-107.2"/>
</g>
<!-- Node5&#45;&gt;Node6 -->
<g id="edge10" class="edge"><title>Node5&#45;&gt;Node6</title>
<path fill="none" stroke="midnightblue" d="M330.834,-53.5677C295.935,-43.381 245.651,-28.7034 214.177,-19.5164"/>
<polygon fill="midnightblue" stroke="midnightblue" points="330.106,-57.0013 340.686,-56.4435 332.067,-50.2817 330.106,-57.0013"/>
</g>
<!-- Node9&#45;&gt;Node3 -->
<g id="edge18" class="edge"><title>Node9&#45;&gt;Node3</title>
<path fill="none" stroke="midnightblue" d="M326.377,-159.566C320.183,-150.275 312.832,-139.248 307.834,-131.751"/>
<polygon fill="midnightblue" stroke="midnightblue" points="323.596,-161.704 332.055,-168.083 329.42,-157.821 323.596,-161.704"/>
</g>
<!-- Node9&#45;&gt;Node10 -->
<g id="edge20" class="edge"><title>Node9&#45;&gt;Node10</title>
<path fill="none" stroke="midnightblue" d="M366.137,-164.232C388.396,-154.131 418.856,-140.309 438.232,-131.516"/>
<polygon fill="midnightblue" stroke="midnightblue" points="364.516,-161.124 356.856,-168.444 367.409,-167.498 364.516,-161.124"/>
</g>
<!-- Node11&#45;&gt;Node5 -->
<g id="edge26" class="edge"><title>Node11&#45;&gt;Node5</title>
<path fill="none" stroke="midnightblue" d="M523.399,-109.699C486.785,-99.507 433.743,-84.7429 400.596,-75.5164"/>
<polygon fill="midnightblue" stroke="midnightblue" points="522.688,-113.134 533.26,-112.444 524.565,-106.39 522.688,-113.134"/>
</g>
<!-- Node11&#45;&gt;Node8 -->
<g id="edge28" class="edge"><title>Node11&#45;&gt;Node8</title>
<path fill="none" stroke="midnightblue" d="M574.832,-103.275C580.472,-94.0454 587.118,-83.1703 591.652,-75.7511"/>
<polygon fill="midnightblue" stroke="midnightblue" points="571.677,-101.725 569.449,-112.083 577.65,-105.375 571.677,-101.725"/>
</g>
<!-- Node12&#45;&gt;Node13 -->
<g id="edge32" class="edge"><title>Node12&#45;&gt;Node13</title>
<path fill="none" stroke="midnightblue" d="M776.52,-165.304C807.422,-155.129 851.473,-140.625 879.135,-131.516"/>
<polygon fill="midnightblue" stroke="midnightblue" points="775.39,-161.992 766.986,-168.444 777.579,-168.64 775.39,-161.992"/>
</g>
<!-- Node12&#45;&gt;Node14 -->
<g id="edge34" class="edge"><title>Node12&#45;&gt;Node14</title>
<path fill="none" stroke="midnightblue" d="M741,-157.805C741,-148.91 741,-138.78 741,-131.751"/>
<polygon fill="midnightblue" stroke="midnightblue" points="737.5,-158.083 741,-168.083 744.5,-158.083 737.5,-158.083"/>
</g>
<!-- Node15&#45;&gt;Node7 -->
<g id="edge40" class="edge"><title>Node15&#45;&gt;Node7</title>
<path fill="none" stroke="midnightblue" d="M167.048,-159.64C182.254,-135.744 209.055,-93.6286 220.533,-75.5914"/>
<polygon fill="midnightblue" stroke="midnightblue" points="163.909,-158.053 161.493,-168.368 169.814,-161.811 163.909,-158.053"/>
</g>
<!-- Node15&#45;&gt;Node16 -->
<g id="edge42" class="edge"><title>Node15&#45;&gt;Node16</title>
<path fill="none" stroke="midnightblue" d="M142.578,-160.144C135.086,-150.736 126.063,-139.405 119.968,-131.751"/>
<polygon fill="midnightblue" stroke="midnightblue" points="139.932,-162.44 148.899,-168.083 145.408,-158.08 139.932,-162.44"/>
</g>
<!-- Node17&#45;&gt;Node8 -->
<g id="edge48" class="edge"><title>Node17&#45;&gt;Node8</title>
<path fill="none" stroke="midnightblue" d="M1032.71,-161.651C1015.38,-146.313 986.461,-123.417 957,-112 902.161,-90.7473 735.754,-76.5548 649.738,-70.4316"/>
<polygon fill="midnightblue" stroke="midnightblue" points="1030.48,-164.355 1040.23,-168.49 1035.18,-159.174 1030.48,-164.355"/>
</g>
<!-- Node17&#45;&gt;Node18 -->
<g id="edge50" class="edge"><title>Node17&#45;&gt;Node18</title>
<path fill="none" stroke="midnightblue" d="M1061.38,-159.855C1068.14,-150.505 1076.21,-139.327 1081.68,-131.751"/>
<polygon fill="midnightblue" stroke="midnightblue" points="1058.46,-157.927 1055.44,-168.083 1064.13,-162.025 1058.46,-157.927"/>
</g>
</g>
</svg>
