<?xml version="1.0" encoding="UTF-8" standalone="no"?>
<!DOCTYPE svg PUBLIC "-//W3C//DTD SVG 1.1//EN"
 "http://www.w3.org/Graphics/SVG/1.1/DTD/svg11.dtd">
<!-- Generated by graphviz version 2.28.0 (20120425.2022)
 -->
<!-- Title: src/debugUtils.h Pages: 1 -->
<svg width="1577pt" height="252pt"
 viewBox="0.00 0.00 1576.85 252.00" xmlns="http://www.w3.org/2000/svg" xmlns:xlink="http://www.w3.org/1999/xlink">
<g id="graph1" class="graph" transform="scale(1 1) rotate(0) translate(4 248)">
<title>src/debugUtils.h</title>
<polygon fill="white" stroke="white" points="-4,5 -4,-248 1573.85,-248 1573.85,5 -4,5"/>
<!-- Node1 -->
<g id="node1" class="node"><title>Node1</title>
<polygon fill="#bfbfbf" stroke="black" points="1110.85,-224.5 1110.85,-243.5 1198.85,-243.5 1198.85,-224.5 1110.85,-224.5"/>
<text text-anchor="middle" x="1154.85" y="-231.5" font-family="FreeSans" font-size="10.00">src/debugUtils.h</text>
</g>
<!-- Node2 -->
<g id="node3" class="node"><title>Node2</title>
<a xlink:href="mathUtils_8h.html" target="_top" xlink:title="src/mathUtils.h">
<polygon fill="white" stroke="black" points="686.352,-168.5 686.352,-187.5 767.352,-187.5 767.352,-168.5 686.352,-168.5"/>
<text text-anchor="middle" x="726.852" y="-175.5" font-family="FreeSans" font-size="10.00">src/mathUtils.h</text>
</a>
</g>
<!-- Node1&#45;&gt;Node2 -->
<g id="edge2" class="edge"><title>Node1&#45;&gt;Node2</title>
<path fill="none" stroke="midnightblue" d="M1100.74,-226.172C1013.86,-215.212 845.202,-193.932 767.654,-184.148"/>
<polygon fill="midnightblue" stroke="midnightblue" points="1100.3,-229.645 1110.66,-227.424 1101.18,-222.7 1100.3,-229.645"/>
</g>
<!-- Node4 -->
<g id="node7" class="node"><title>Node4</title>
<a xlink:href="chemistry0d_8cpp.html" target="_top" xlink:title="src/chemistry0d.cpp">
<polygon fill="white" stroke="black" points="132.352,-56.5 132.352,-75.5 237.352,-75.5 237.352,-56.5 132.352,-56.5"/>
<text text-anchor="middle" x="184.852" y="-63.5" font-family="FreeSans" font-size="10.00">src/chemistry0d.cpp</text>
</a>
</g>
<!-- Node1&#45;&gt;Node4 -->
<g id="edge56" class="edge"><title>Node1&#45;&gt;Node4</title>
<path fill="none" stroke="midnightblue" d="M1100.6,-228.009C1011.94,-219.825 830.468,-202.967 676.852,-188 429.661,-163.916 287.438,-316.207 120.852,-132 101.944,-111.092 140.271,-87.8344 165.382,-75.6027"/>
<polygon fill="midnightblue" stroke="midnightblue" points="1100.41,-231.506 1110.69,-228.939 1101.05,-224.535 1100.41,-231.506"/>
</g>
<!-- Node5 -->
<g id="node9" class="node"><title>Node5</title>
<a xlink:href="convectionSystem_8cpp.html" target="_top" xlink:title="src/convectionSystem.cpp">
<polygon fill="white" stroke="black" points="303.852,-0.5 303.852,-19.5 437.852,-19.5 437.852,-0.5 303.852,-0.5"/>
<text text-anchor="middle" x="370.852" y="-7.5" font-family="FreeSans" font-size="10.00">src/convectionSystem.cpp</text>
</a>
</g>
<!-- Node1&#45;&gt;Node5 -->
<g id="edge58" class="edge"><title>Node1&#45;&gt;Node5</title>
<path fill="none" stroke="midnightblue" d="M1100.63,-232.751C901.722,-231.547 218.971,-224.751 128.852,-188 59.7804,-159.832 34.2747,-144.108 3.85159,-76 0.226256,-67.884 -2.03892,-62.6569 3.85159,-56 23.3399,-33.9762 202.978,-20.4246 303.504,-14.5011"/>
<polygon fill="midnightblue" stroke="midnightblue" points="1100.82,-236.252 1110.84,-232.81 1100.86,-229.252 1100.82,-236.252"/>
</g>
<!-- Node8 -->
<g id="node16" class="node"><title>Node8</title>
<a xlink:href="readConfig_8cpp.html" target="_top" xlink:title="src/readConfig.cpp">
<polygon fill="white" stroke="black" points="13.3516,-56.5 13.3516,-75.5 114.352,-75.5 114.352,-56.5 13.3516,-56.5"/>
<text text-anchor="middle" x="63.8516" y="-63.5" font-family="FreeSans" font-size="10.00">src/readConfig.cpp</text>
</a>
</g>
<!-- Node1&#45;&gt;Node8 -->
<g id="edge70" class="edge"><title>Node1&#45;&gt;Node8</title>
<path fill="none" stroke="midnightblue" d="M1100.79,-233.05C905.634,-232.889 244.502,-229.276 159.852,-188 109.718,-163.554 77.6764,-98.954 67.4234,-75.5883"/>
<polygon fill="midnightblue" stroke="midnightblue" points="1100.81,-236.55 1110.81,-233.055 1100.82,-229.55 1100.81,-236.55"/>
</g>
<!-- Node13 -->
<g id="node28" class="node"><title>Node13</title>
<a xlink:href="dataFile_8cpp.html" target="_top" xlink:title="src/dataFile.cpp">
<polygon fill="white" stroke="black" points="1259.85,-56.5 1259.85,-75.5 1347.85,-75.5 1347.85,-56.5 1259.85,-56.5"/>
<text text-anchor="middle" x="1303.85" y="-63.5" font-family="FreeSans" font-size="10.00">src/dataFile.cpp</text>
</a>
</g>
<!-- Node1&#45;&gt;Node13 -->
<g id="edge60" class="edge"><title>Node1&#45;&gt;Node13</title>
<path fill="none" stroke="midnightblue" d="M1203.46,-221.55C1226.39,-214.497 1253.18,-203.723 1273.85,-188 1298.4,-169.328 1305.27,-161.319 1314.85,-132 1321.25,-112.419 1313.21,-88.2386 1307.88,-75.6074"/>
<polygon fill="midnightblue" stroke="midnightblue" points="1202.18,-218.276 1193.57,-224.441 1204.15,-224.995 1202.18,-218.276"/>
</g>
<!-- Node16 -->
<g id="node35" class="node"><title>Node16</title>
<a xlink:href="integrator_8cpp.html" target="_top" xlink:title="src/integrator.cpp">
<polygon fill="white" stroke="black" points="1132.35,-56.5 1132.35,-75.5 1225.35,-75.5 1225.35,-56.5 1132.35,-56.5"/>
<text text-anchor="middle" x="1178.85" y="-63.5" font-family="FreeSans" font-size="10.00">src/integrator.cpp</text>
</a>
</g>
<!-- Node1&#45;&gt;Node16 -->
<g id="edge66" class="edge"><title>Node1&#45;&gt;Node16</title>
<path fill="none" stroke="midnightblue" d="M1187.99,-220.604C1222.81,-205.572 1275.67,-176.574 1298.85,-132 1316.18,-98.6824 1266.05,-81.7046 1225.35,-73.6051"/>
<polygon fill="midnightblue" stroke="midnightblue" points="1186.57,-217.401 1178.68,-224.474 1189.26,-223.864 1186.57,-217.401"/>
</g>
<!-- Node18 -->
<g id="node42" class="node"><title>Node18</title>
<a xlink:href="qssintegrator_8cpp.html" target="_top" xlink:title="src/qssintegrator.cpp">
<polygon fill="white" stroke="black" points="805.852,-56.5 805.852,-75.5 915.852,-75.5 915.852,-56.5 805.852,-56.5"/>
<text text-anchor="middle" x="860.852" y="-63.5" font-family="FreeSans" font-size="10.00">src/qssintegrator.cpp</text>
</a>
</g>
<!-- Node1&#45;&gt;Node18 -->
<g id="edge68" class="edge"><title>Node1&#45;&gt;Node18</title>
<path fill="none" stroke="midnightblue" d="M1163.49,-215.011C1174.6,-188.971 1189.66,-140.754 1164.85,-112 1163.84,-110.824 1003.39,-87.5403 916.03,-74.9396"/>
<polygon fill="midnightblue" stroke="midnightblue" points="1160.18,-213.848 1159.25,-224.402 1166.56,-216.733 1160.18,-213.848"/>
</g>
<!-- Node21 -->
<g id="node48" class="node"><title>Node21</title>
<a xlink:href="sundialsUtils_8cpp.html" target="_top" xlink:title="src/sundialsUtils.cpp">
<polygon fill="white" stroke="black" points="1049.35,-112.5 1049.35,-131.5 1156.35,-131.5 1156.35,-112.5 1049.35,-112.5"/>
<text text-anchor="middle" x="1102.85" y="-119.5" font-family="FreeSans" font-size="10.00">src/sundialsUtils.cpp</text>
</a>
</g>
<!-- Node1&#45;&gt;Node21 -->
<g id="edge72" class="edge"><title>Node1&#45;&gt;Node21</title>
<path fill="none" stroke="midnightblue" d="M1146.49,-215.32C1135.17,-191.37 1115.4,-149.548 1106.91,-131.591"/>
<polygon fill="midnightblue" stroke="midnightblue" points="1143.33,-216.824 1150.77,-224.368 1149.66,-213.832 1143.33,-216.824"/>
</g>
<!-- Node22 -->
<g id="node53" class="node"><title>Node22</title>
<a xlink:href="debugUtils_8cpp.html" target="_top" xlink:title="src/debugUtils.cpp">
<polygon fill="white" stroke="black" points="1384.85,-168.5 1384.85,-187.5 1482.85,-187.5 1482.85,-168.5 1384.85,-168.5"/>
<text text-anchor="middle" x="1433.85" y="-175.5" font-family="FreeSans" font-size="10.00">src/debugUtils.cpp</text>
</a>
</g>
<!-- Node1&#45;&gt;Node22 -->
<g id="edge62" class="edge"><title>Node1&#45;&gt;Node22</title>
<path fill="none" stroke="midnightblue" d="M1208.91,-222.537C1261.64,-212.332 1340.86,-196.999 1389.85,-187.516"/>
<polygon fill="midnightblue" stroke="midnightblue" points="1208.21,-219.107 1199.06,-224.444 1209.54,-225.979 1208.21,-219.107"/>
</g>
<!-- Node23 -->
<g id="node55" class="node"><title>Node23</title>
<a xlink:href="grid_8cpp.html" target="_top" xlink:title="src/grid.cpp">
<polygon fill="white" stroke="black" points="1500.85,-168.5 1500.85,-187.5 1568.85,-187.5 1568.85,-168.5 1500.85,-168.5"/>
<text text-anchor="middle" x="1534.85" y="-175.5" font-family="FreeSans" font-size="10.00">src/grid.cpp</text>
</a>
</g>
<!-- Node1&#45;&gt;Node23 -->
<g id="edge64" class="edge"><title>Node1&#45;&gt;Node23</title>
<path fill="none" stroke="midnightblue" d="M1209.28,-226.875C1275.88,-219.113 1391.98,-204.713 1490.85,-188 1494.08,-187.454 1497.43,-186.845 1500.79,-186.209"/>
<polygon fill="midnightblue" stroke="midnightblue" points="1208.56,-223.435 1199.03,-228.063 1209.36,-230.389 1208.56,-223.435"/>
</g>
<!-- Node3 -->
<g id="node5" class="node"><title>Node3</title>
<a xlink:href="chemistry0d_8h.html" target="_top" xlink:title="src/chemistry0d.h">
<polygon fill="white" stroke="red" points="239.352,-112.5 239.352,-131.5 334.352,-131.5 334.352,-112.5 239.352,-112.5"/>
<text text-anchor="middle" x="286.852" y="-119.5" font-family="FreeSans" font-size="10.00">src/chemistry0d.h</text>
</a>
</g>
<!-- Node2&#45;&gt;Node3 -->
<g id="edge4" class="edge"><title>Node2&#45;&gt;Node3</title>
<path fill="none" stroke="midnightblue" d="M676.02,-171.368C603.396,-163.226 465.786,-147.445 348.852,-132 344.215,-131.388 339.387,-130.727 334.562,-130.052"/>
<polygon fill="midnightblue" stroke="midnightblue" points="675.926,-174.879 686.253,-172.513 676.704,-167.923 675.926,-174.879"/>
</g>
<!-- Node6 -->
<g id="node11" class="node"><title>Node6</title>
<a xlink:href="readConfig_8h.html" target="_top" xlink:title="src/readConfig.h">
<polygon fill="white" stroke="red" points="130.352,-112.5 130.352,-131.5 221.352,-131.5 221.352,-112.5 130.352,-112.5"/>
<text text-anchor="middle" x="175.852" y="-119.5" font-family="FreeSans" font-size="10.00">src/readConfig.h</text>
</a>
</g>
<!-- Node2&#45;&gt;Node6 -->
<g id="edge10" class="edge"><title>Node2&#45;&gt;Node6</title>
<path fill="none" stroke="midnightblue" d="M675.939,-173.654C585.791,-167.448 392.277,-152.859 229.852,-132 227.118,-131.649 224.31,-131.262 221.481,-130.852"/>
<polygon fill="midnightblue" stroke="midnightblue" points="675.937,-177.162 686.153,-174.352 676.415,-170.178 675.937,-177.162"/>
</g>
<!-- Node7 -->
<g id="node14" class="node"><title>Node7</title>
<a xlink:href="splitSolver_8h.html" target="_top" xlink:title="src/splitSolver.h">
<polygon fill="white" stroke="red" points="255.352,-56.5 255.352,-75.5 342.352,-75.5 342.352,-56.5 255.352,-56.5"/>
<text text-anchor="middle" x="298.852" y="-63.5" font-family="FreeSans" font-size="10.00">src/splitSolver.h</text>
</a>
</g>
<!-- Node2&#45;&gt;Node7 -->
<g id="edge40" class="edge"><title>Node2&#45;&gt;Node7</title>
<path fill="none" stroke="midnightblue" d="M676.038,-175.63C612.6,-172.6 501.521,-162.909 411.852,-132 371.84,-118.208 329.988,-89.8822 310.334,-75.6148"/>
<polygon fill="midnightblue" stroke="midnightblue" points="676.033,-179.133 686.178,-176.077 676.341,-172.14 676.033,-179.133"/>
</g>
<!-- Node9 -->
<g id="node18" class="node"><title>Node9</title>
<a xlink:href="convectionSystem_8h.html" target="_top" xlink:title="src/convectionSystem.h">
<polygon fill="white" stroke="red" points="399.352,-56.5 399.352,-75.5 522.352,-75.5 522.352,-56.5 399.352,-56.5"/>
<text text-anchor="middle" x="460.852" y="-63.5" font-family="FreeSans" font-size="10.00">src/convectionSystem.h</text>
</a>
</g>
<!-- Node2&#45;&gt;Node9 -->
<g id="edge18" class="edge"><title>Node2&#45;&gt;Node9</title>
<path fill="none" stroke="midnightblue" d="M675.947,-177.229C597.41,-176.375 452.337,-169.594 419.852,-132 403.975,-113.627 431.396,-88.5248 448.575,-75.548"/>
<polygon fill="midnightblue" stroke="midnightblue" points="676.079,-180.73 686.107,-177.31 676.135,-173.73 676.079,-180.73"/>
</g>
<!-- Node10 -->
<g id="node21" class="node"><title>Node10</title>
<a xlink:href="quasi2d_8h.html" target="_top" xlink:title="src/quasi2d.h">
<polygon fill="white" stroke="red" points="429.352,-112.5 429.352,-131.5 506.352,-131.5 506.352,-112.5 429.352,-112.5"/>
<text text-anchor="middle" x="467.852" y="-119.5" font-family="FreeSans" font-size="10.00">src/quasi2d.h</text>
</a>
</g>
<!-- Node2&#45;&gt;Node10 -->
<g id="edge22" class="edge"><title>Node2&#45;&gt;Node10</title>
<path fill="none" stroke="midnightblue" d="M676.203,-166.44C626.519,-156.081 551.832,-140.509 506.675,-131.094"/>
<polygon fill="midnightblue" stroke="midnightblue" points="675.594,-169.888 686.098,-168.503 677.023,-163.036 675.594,-169.888"/>
</g>
<!-- Node11 -->
<g id="node24" class="node"><title>Node11</title>
<a xlink:href="sourceSystem_8h.html" target="_top" xlink:title="src/sourceSystem.h">
<polygon fill="white" stroke="red" points="682.352,-56.5 682.352,-75.5 787.352,-75.5 787.352,-56.5 682.352,-56.5"/>
<text text-anchor="middle" x="734.852" y="-63.5" font-family="FreeSans" font-size="10.00">src/sourceSystem.h</text>
</a>
</g>
<!-- Node2&#45;&gt;Node11 -->
<g id="edge42" class="edge"><title>Node2&#45;&gt;Node11</title>
<path fill="none" stroke="midnightblue" d="M735.791,-159.195C739.369,-151.111 743.061,-141.295 744.852,-132 748.695,-112.044 742.359,-88.4142 738.141,-75.8677"/>
<polygon fill="midnightblue" stroke="midnightblue" points="732.578,-157.802 731.473,-168.339 738.908,-160.791 732.578,-157.802"/>
</g>
<!-- Node12 -->
<g id="node26" class="node"><title>Node12</title>
<a xlink:href="dataFile_8h.html" target="_top" xlink:title="src/dataFile.h">
<polygon fill="white" stroke="red" points="1213.35,-112.5 1213.35,-131.5 1290.35,-131.5 1290.35,-112.5 1213.35,-112.5"/>
<text text-anchor="middle" x="1251.85" y="-119.5" font-family="FreeSans" font-size="10.00">src/dataFile.h</text>
</a>
</g>
<!-- Node2&#45;&gt;Node12 -->
<g id="edge28" class="edge"><title>Node2&#45;&gt;Node12</title>
<path fill="none" stroke="midnightblue" d="M777.615,-171.796C859.225,-163.428 1024.66,-146.453 1164.85,-132 1180.71,-130.365 1198.2,-128.557 1213.31,-126.993"/>
<polygon fill="midnightblue" stroke="midnightblue" points="777.203,-168.32 767.613,-172.822 777.917,-175.283 777.203,-168.32"/>
</g>
<!-- Node14 -->
<g id="node30" class="node"><title>Node14</title>
<a xlink:href="diffusionSystem_8h.html" target="_top" xlink:title="src/diffusionSystem.h">
<polygon fill="white" stroke="red" points="934.352,-56.5 934.352,-75.5 1045.35,-75.5 1045.35,-56.5 934.352,-56.5"/>
<text text-anchor="middle" x="989.852" y="-63.5" font-family="FreeSans" font-size="10.00">src/diffusionSystem.h</text>
</a>
</g>
<!-- Node2&#45;&gt;Node14 -->
<g id="edge32" class="edge"><title>Node2&#45;&gt;Node14</title>
<path fill="none" stroke="midnightblue" d="M777.578,-168.944C812.999,-162.104 860.751,-150.407 899.852,-132 931.938,-116.895 964.394,-89.9244 980.113,-75.9482"/>
<polygon fill="midnightblue" stroke="midnightblue" points="776.658,-165.555 767.469,-170.829 777.941,-172.437 776.658,-165.555"/>
</g>
<!-- Node15 -->
<g id="node32" class="node"><title>Node15</title>
<a xlink:href="integrator_8h.html" target="_top" xlink:title="src/integrator.h">
<polygon fill="white" stroke="red" points="948.352,-112.5 948.352,-131.5 1031.35,-131.5 1031.35,-112.5 948.352,-112.5"/>
<text text-anchor="middle" x="989.852" y="-119.5" font-family="FreeSans" font-size="10.00">src/integrator.h</text>
</a>
</g>
<!-- Node2&#45;&gt;Node15 -->
<g id="edge34" class="edge"><title>Node2&#45;&gt;Node15</title>
<path fill="none" stroke="midnightblue" d="M777.266,-166.649C826.985,-156.44 902.07,-141.023 948.42,-131.507"/>
<polygon fill="midnightblue" stroke="midnightblue" points="776.461,-163.241 767.369,-168.681 777.869,-170.098 776.461,-163.241"/>
</g>
<!-- Node17 -->
<g id="node39" class="node"><title>Node17</title>
<a xlink:href="qssintegrator_8h.html" target="_top" xlink:title="src/qssintegrator.h">
<polygon fill="white" stroke="black" points="792.352,-112.5 792.352,-131.5 891.352,-131.5 891.352,-112.5 792.352,-112.5"/>
<text text-anchor="middle" x="841.852" y="-119.5" font-family="FreeSans" font-size="10.00">src/qssintegrator.h</text>
</a>
</g>
<!-- Node2&#45;&gt;Node17 -->
<g id="edge44" class="edge"><title>Node2&#45;&gt;Node17</title>
<path fill="none" stroke="midnightblue" d="M754.332,-164.096C775.817,-154.007 805.073,-140.27 823.715,-131.516"/>
<polygon fill="midnightblue" stroke="midnightblue" points="752.638,-161.025 745.074,-168.444 755.613,-167.361 752.638,-161.025"/>
</g>
<!-- Node19 -->
<g id="node44" class="node"><title>Node19</title>
<a xlink:href="strainFunction_8h.html" target="_top" xlink:title="src/strainFunction.h">
<polygon fill="white" stroke="red" points="524.352,-112.5 524.352,-131.5 625.352,-131.5 625.352,-112.5 524.352,-112.5"/>
<text text-anchor="middle" x="574.852" y="-119.5" font-family="FreeSans" font-size="10.00">src/strainFunction.h</text>
</a>
</g>
<!-- Node2&#45;&gt;Node19 -->
<g id="edge50" class="edge"><title>Node2&#45;&gt;Node19</title>
<path fill="none" stroke="midnightblue" d="M693.184,-165.039C664.584,-154.879 624.24,-140.546 598.824,-131.516"/>
<polygon fill="midnightblue" stroke="midnightblue" points="692.172,-168.394 702.767,-168.444 694.515,-161.798 692.172,-168.394"/>
</g>
<!-- Node20 -->
<g id="node46" class="node"><title>Node20</title>
<a xlink:href="mathUtils_8cpp.html" target="_top" xlink:title="src/mathUtils.cpp">
<polygon fill="white" stroke="black" points="643.852,-112.5 643.852,-131.5 735.852,-131.5 735.852,-112.5 643.852,-112.5"/>
<text text-anchor="middle" x="689.852" y="-119.5" font-family="FreeSans" font-size="10.00">src/mathUtils.cpp</text>
</a>
</g>
<!-- Node2&#45;&gt;Node20 -->
<g id="edge52" class="edge"><title>Node2&#45;&gt;Node20</title>
<path fill="none" stroke="midnightblue" d="M714.906,-159.566C708.54,-150.275 700.985,-139.248 695.848,-131.751"/>
<polygon fill="midnightblue" stroke="midnightblue" points="712.202,-161.812 720.742,-168.083 717.977,-157.855 712.202,-161.812"/>
</g>
<!-- Node2&#45;&gt;Node21 -->
<g id="edge54" class="edge"><title>Node2&#45;&gt;Node21</title>
<path fill="none" stroke="midnightblue" d="M777.477,-169.729C848.372,-159.548 976.655,-141.124 1049.16,-130.711"/>
<polygon fill="midnightblue" stroke="midnightblue" points="776.848,-166.284 767.447,-171.17 777.843,-173.213 776.848,-166.284"/>
</g>
<!-- Node3&#45;&gt;Node4 -->
<g id="edge6" class="edge"><title>Node3&#45;&gt;Node4</title>
<path fill="none" stroke="midnightblue" d="M261.521,-107.59C242.661,-97.6052 217.467,-84.2672 201.199,-75.6545"/>
<polygon fill="midnightblue" stroke="midnightblue" points="259.988,-110.738 270.464,-112.324 263.263,-104.552 259.988,-110.738"/>
</g>
<!-- Node3&#45;&gt;Node5 -->
<g id="edge8" class="edge"><title>Node3&#45;&gt;Node5</title>
<path fill="none" stroke="midnightblue" d="M314.029,-107.385C326.832,-99.7372 341.344,-89.0876 350.852,-76 363.481,-58.6145 368.261,-33.0959 369.97,-19.7957"/>
<polygon fill="midnightblue" stroke="midnightblue" points="312.098,-104.456 305.104,-112.415 315.535,-110.554 312.098,-104.456"/>
</g>
<!-- Node6&#45;&gt;Node4 -->
<g id="edge12" class="edge"><title>Node6&#45;&gt;Node4</title>
<path fill="none" stroke="midnightblue" d="M179.001,-102.101C180.496,-93.1357 182.209,-82.8579 183.393,-75.7511"/>
<polygon fill="midnightblue" stroke="midnightblue" points="175.529,-101.644 177.338,-112.083 182.434,-102.794 175.529,-101.644"/>
</g>
<!-- Node6&#45;&gt;Node7 -->
<g id="edge14" class="edge"><title>Node6&#45;&gt;Node7</title>
<path fill="none" stroke="midnightblue" d="M204.625,-108.368C227.659,-98.2553 259.335,-84.3486 279.453,-75.5164"/>
<polygon fill="midnightblue" stroke="midnightblue" points="203.091,-105.219 195.341,-112.444 205.905,-111.628 203.091,-105.219"/>
</g>
<!-- Node6&#45;&gt;Node8 -->
<g id="edge16" class="edge"><title>Node6&#45;&gt;Node8</title>
<path fill="none" stroke="midnightblue" d="M148.603,-107.862C127.835,-97.8492 99.8281,-84.3458 81.8017,-75.6545"/>
<polygon fill="midnightblue" stroke="midnightblue" points="147.329,-111.134 157.857,-112.324 150.369,-104.828 147.329,-111.134"/>
</g>
<!-- Node9&#45;&gt;Node5 -->
<g id="edge20" class="edge"><title>Node9&#45;&gt;Node5</title>
<path fill="none" stroke="midnightblue" d="M437.814,-51.1774C421.253,-41.2407 399.434,-28.1492 385.276,-19.6545"/>
<polygon fill="midnightblue" stroke="midnightblue" points="436.016,-54.1802 446.392,-56.324 439.617,-48.1777 436.016,-54.1802"/>
</g>
<!-- Node10&#45;&gt;Node9 -->
<g id="edge24" class="edge"><title>Node10&#45;&gt;Node9</title>
<path fill="none" stroke="midnightblue" d="M465.402,-102.101C464.24,-93.1357 462.907,-82.8579 461.986,-75.7511"/>
<polygon fill="midnightblue" stroke="midnightblue" points="461.939,-102.616 466.696,-112.083 468.881,-101.716 461.939,-102.616"/>
</g>
<!-- Node10&#45;&gt;Node11 -->
<g id="edge26" class="edge"><title>Node10&#45;&gt;Node11</title>
<path fill="none" stroke="midnightblue" d="M516.4,-111.181C566.829,-100.982 644.922,-85.1881 692.801,-75.5047"/>
<polygon fill="midnightblue" stroke="midnightblue" points="515.498,-107.793 506.391,-113.206 516.886,-114.654 515.498,-107.793"/>
</g>
<!-- Node12&#45;&gt;Node13 -->
<g id="edge30" class="edge"><title>Node12&#45;&gt;Node13</title>
<path fill="none" stroke="midnightblue" d="M1267.53,-104.718C1276.7,-95.1997 1287.9,-83.5608 1295.42,-75.7511"/>
<polygon fill="midnightblue" stroke="midnightblue" points="1264.85,-102.452 1260.44,-112.083 1269.9,-107.308 1264.85,-102.452"/>
</g>
<!-- Node15&#45;&gt;Node14 -->
<g id="edge36" class="edge"><title>Node15&#45;&gt;Node14</title>
<path fill="none" stroke="midnightblue" d="M989.852,-101.805C989.852,-92.9102 989.852,-82.7798 989.852,-75.7511"/>
<polygon fill="midnightblue" stroke="midnightblue" points="986.352,-102.083 989.852,-112.083 993.352,-102.083 986.352,-102.083"/>
</g>
<!-- Node15&#45;&gt;Node16 -->
<g id="edge38" class="edge"><title>Node15&#45;&gt;Node16</title>
<path fill="none" stroke="midnightblue" d="M1029.86,-109.568C1065.52,-99.381 1116.89,-84.7034 1149.04,-75.5164"/>
<polygon fill="midnightblue" stroke="midnightblue" points="1028.45,-106.331 1019.8,-112.444 1030.38,-113.062 1028.45,-106.331"/>
</g>
<!-- Node17&#45;&gt;Node11 -->
<g id="edge46" class="edge"><title>Node17&#45;&gt;Node11</title>
<path fill="none" stroke="midnightblue" d="M815.55,-107.726C795.737,-97.7271 769.144,-84.3065 752,-75.6545"/>
<polygon fill="midnightblue" stroke="midnightblue" points="814.156,-110.943 824.66,-112.324 817.31,-104.694 814.156,-110.943"/>
</g>
<!-- Node17&#45;&gt;Node18 -->
<g id="edge48" class="edge"><title>Node17&#45;&gt;Node18</title>
<path fill="none" stroke="midnightblue" d="M848.398,-102.396C851.576,-93.362 855.244,-82.936 857.773,-75.7511"/>
<polygon fill="midnightblue" stroke="midnightblue" points="845.007,-101.488 844.989,-112.083 851.61,-103.812 845.007,-101.488"/>
</g>
</g>
</svg>
