<?xml version="1.0" encoding="UTF-8" standalone="no"?>
<!DOCTYPE svg PUBLIC "-//W3C//DTD SVG 1.1//EN"
 "http://www.w3.org/Graphics/SVG/1.1/DTD/svg11.dtd">
<!-- Generated by graphviz version 2.28.0 (20120425.2022)
 -->
<!-- Title: src/debugUtils.h Pages: 1 -->
<svg width="377pt" height="84pt"
 viewBox="0.00 0.00 377.00 84.00" xmlns="http://www.w3.org/2000/svg" xmlns:xlink="http://www.w3.org/1999/xlink">
<g id="graph1" class="graph" transform="scale(1 1) rotate(0) translate(4 80)">
<title>src/debugUtils.h</title>
<polygon fill="white" stroke="white" points="-4,5 -4,-80 374,-80 374,5 -4,5"/>
<!-- Node1 -->
<g id="node1" class="node"><title>Node1</title>
<polygon fill="#bfbfbf" stroke="black" points="114,-56.5 114,-75.5 202,-75.5 202,-56.5 114,-56.5"/>
<text text-anchor="middle" x="158" y="-63.5" font-family="FreeSans" font-size="10.00">src/debugUtils.h</text>
</g>
<!-- Node2 -->
<g id="node3" class="node"><title>Node2</title>
<polygon fill="white" stroke="#bfbfbf" points="-0.5,-0.5 -0.5,-19.5 40.5,-19.5 40.5,-0.5 -0.5,-0.5"/>
<text text-anchor="middle" x="20" y="-7.5" font-family="FreeSans" font-size="10.00">string</text>
</g>
<!-- Node1&#45;&gt;Node2 -->
<g id="edge2" class="edge"><title>Node1&#45;&gt;Node2</title>
<path fill="none" stroke="midnightblue" d="M136.133,-56.4435C112.951,-47.3721 76.1712,-32.98 50.2241,-22.8268"/>
<polygon fill="midnightblue" stroke="midnightblue" points="51.4487,-19.5477 40.8609,-19.1629 48.8979,-26.0664 51.4487,-19.5477"/>
</g>
<!-- Node3 -->
<g id="node5" class="node"><title>Node3</title>
<polygon fill="white" stroke="#bfbfbf" points="59,-0.5 59,-19.5 115,-19.5 115,-0.5 59,-0.5"/>
<text text-anchor="middle" x="87" y="-7.5" font-family="FreeSans" font-size="10.00">iostream</text>
</g>
<!-- Node1&#45;&gt;Node3 -->
<g id="edge4" class="edge"><title>Node1&#45;&gt;Node3</title>
<path fill="none" stroke="midnightblue" d="M146.593,-56.324C135.891,-48.1849 119.659,-35.8395 106.837,-26.0874"/>
<polygon fill="midnightblue" stroke="midnightblue" points="108.693,-23.1018 98.6149,-19.8339 104.456,-28.6734 108.693,-23.1018"/>
</g>
<!-- Node4 -->
<g id="node7" class="node"><title>Node4</title>
<polygon fill="white" stroke="#bfbfbf" points="133,-0.5 133,-19.5 183,-19.5 183,-0.5 133,-0.5"/>
<text text-anchor="middle" x="158" y="-7.5" font-family="FreeSans" font-size="10.00">fstream</text>
</g>
<!-- Node1&#45;&gt;Node4 -->
<g id="edge6" class="edge"><title>Node1&#45;&gt;Node4</title>
<path fill="none" stroke="midnightblue" d="M158,-56.083C158,-49.0059 158,-38.8611 158,-29.9865"/>
<polygon fill="midnightblue" stroke="midnightblue" points="161.5,-29.751 158,-19.7511 154.5,-29.7511 161.5,-29.751"/>
</g>
<!-- Node5 -->
<g id="node9" class="node"><title>Node5</title>
<polygon fill="white" stroke="#bfbfbf" points="201,-0.5 201,-19.5 261,-19.5 261,-0.5 201,-0.5"/>
<text text-anchor="middle" x="231" y="-7.5" font-family="FreeSans" font-size="10.00">exception</text>
</g>
<!-- Node1&#45;&gt;Node5 -->
<g id="edge8" class="edge"><title>Node1&#45;&gt;Node5</title>
<path fill="none" stroke="midnightblue" d="M169.729,-56.324C180.837,-48.1066 197.742,-35.6017 210.983,-25.8069"/>
<polygon fill="midnightblue" stroke="midnightblue" points="213.1,-28.5948 219.058,-19.8339 208.937,-22.9671 213.1,-28.5948"/>
</g>
<!-- Node6 -->
<g id="node11" class="node"><title>Node6</title>
<polygon fill="white" stroke="#bfbfbf" points="279,-0.5 279,-19.5 369,-19.5 369,-0.5 279,-0.5"/>
<text text-anchor="middle" x="324" y="-7.5" font-family="FreeSans" font-size="10.00">boost/format.hpp</text>
</g>
<!-- Node1&#45;&gt;Node6 -->
<g id="edge10" class="edge"><title>Node1&#45;&gt;Node6</title>
<path fill="none" stroke="midnightblue" d="M184.303,-56.4435C212.351,-47.3196 256.944,-32.8133 288.184,-22.6509"/>
<polygon fill="midnightblue" stroke="midnightblue" points="289.393,-25.9383 297.82,-19.5164 287.228,-19.2816 289.393,-25.9383"/>
</g>
</g>
</svg>
