<?xml version="1.0" encoding="UTF-8" standalone="no"?>
<!DOCTYPE svg PUBLIC "-//W3C//DTD SVG 1.1//EN"
 "http://www.w3.org/Graphics/SVG/1.1/DTD/svg11.dtd">
<!-- Generated by graphviz version 8.1.0 (20230707.2238)
 -->
<!-- Title: src/debugUtils.cpp Pages: 1 -->
<svg width="402pt" height="142pt"
 viewBox="0.00 0.00 401.88 142.25" xmlns="http://www.w3.org/2000/svg" xmlns:xlink="http://www.w3.org/1999/xlink">
<g id="graph0" class="graph" transform="scale(1 1) rotate(0) translate(4 138.25)">
<title>src/debugUtils.cpp</title>
<!-- Node1 -->
<g id="Node000001" class="node">
<title>Node1</title>
<g id="a_Node000001"><a xlink:title=" ">
<polygon fill="#999999" stroke="#666666" points="219.88,-134.25 113.88,-134.25 113.88,-113.5 219.88,-113.5 219.88,-134.25"/>
<text text-anchor="middle" x="166.88" y="-120.75" font-family="FreeSans" font-size="10.00">src/debugUtils.cpp</text>
</a>
</g>
</g>
<!-- Node2 -->
<g id="Node000002" class="node">
<title>Node2</title>
<g id="a_Node000002"><a xlink:href="debugUtils_8h.html" target="_top" xlink:title=" ">
<polygon fill="white" stroke="#666666" points="205.62,-77.5 128.12,-77.5 128.12,-56.75 205.62,-56.75 205.62,-77.5"/>
<text text-anchor="middle" x="166.88" y="-64" font-family="FreeSans" font-size="10.00">debugUtils.h</text>
</a>
</g>
</g>
<!-- Node1&#45;&gt;Node2 -->
<g id="edge1_Node000001_Node000002" class="edge">
<title>Node1&#45;&gt;Node2</title>
<g id="a_edge1_Node000001_Node000002"><a xlink:title=" ">
<path fill="none" stroke="#63b8ff" d="M166.88,-113.09C166.88,-106.31 166.88,-97.05 166.88,-88.69"/>
<polygon fill="#63b8ff" stroke="#63b8ff" points="170.38,-88.83 166.88,-78.83 163.38,-88.83 170.38,-88.83"/>
</a>
</g>
</g>
<!-- Node3 -->
<g id="Node000003" class="node">
<title>Node3</title>
<g id="a_Node000003"><a xlink:title=" ">
<polygon fill="#e0e0e0" stroke="#999999" points="43.75,-20.75 0,-20.75 0,0 43.75,0 43.75,-20.75"/>
<text text-anchor="middle" x="21.88" y="-7.25" font-family="FreeSans" font-size="10.00">string</text>
</a>
</g>
</g>
<!-- Node2&#45;&gt;Node3 -->
<g id="edge2_Node000002_Node000003" class="edge">
<title>Node2&#45;&gt;Node3</title>
<g id="a_edge2_Node000002_Node000003"><a xlink:title=" ">
<path fill="none" stroke="#63b8ff" d="M140.95,-56.34C116.75,-47.2 80.55,-33.53 54.42,-23.66"/>
<polygon fill="#63b8ff" stroke="#63b8ff" points="55.84,-20.08 45.25,-19.82 53.36,-26.63 55.84,-20.08"/>
</a>
</g>
</g>
<!-- Node4 -->
<g id="Node000004" class="node">
<title>Node4</title>
<g id="a_Node000004"><a xlink:title=" ">
<polygon fill="#e0e0e0" stroke="#999999" points="121.62,-20.75 62.12,-20.75 62.12,0 121.62,0 121.62,-20.75"/>
<text text-anchor="middle" x="91.88" y="-7.25" font-family="FreeSans" font-size="10.00">iostream</text>
</a>
</g>
</g>
<!-- Node2&#45;&gt;Node4 -->
<g id="edge3_Node000002_Node000004" class="edge">
<title>Node2&#45;&gt;Node4</title>
<g id="a_edge3_Node000002_Node000004"><a xlink:title=" ">
<path fill="none" stroke="#63b8ff" d="M153.47,-56.34C142.48,-48.32 126.71,-36.81 113.88,-27.44"/>
<polygon fill="#63b8ff" stroke="#63b8ff" points="116.31,-24.15 106.17,-21.08 112.18,-29.8 116.31,-24.15"/>
</a>
</g>
</g>
<!-- Node5 -->
<g id="Node000005" class="node">
<title>Node5</title>
<g id="a_Node000005"><a xlink:title=" ">
<polygon fill="#e0e0e0" stroke="#999999" points="194,-20.75 139.75,-20.75 139.75,0 194,0 194,-20.75"/>
<text text-anchor="middle" x="166.88" y="-7.25" font-family="FreeSans" font-size="10.00">fstream</text>
</a>
</g>
</g>
<!-- Node2&#45;&gt;Node5 -->
<g id="edge4_Node000002_Node000005" class="edge">
<title>Node2&#45;&gt;Node5</title>
<g id="a_edge4_Node000002_Node000005"><a xlink:title=" ">
<path fill="none" stroke="#63b8ff" d="M166.88,-56.34C166.88,-49.56 166.88,-40.3 166.88,-31.94"/>
<polygon fill="#63b8ff" stroke="#63b8ff" points="170.38,-32.08 166.88,-22.08 163.38,-32.08 170.38,-32.08"/>
</a>
</g>
</g>
<!-- Node6 -->
<g id="Node000006" class="node">
<title>Node6</title>
<g id="a_Node000006"><a xlink:title=" ">
<polygon fill="#e0e0e0" stroke="#999999" points="275.88,-20.75 211.88,-20.75 211.88,0 275.88,0 275.88,-20.75"/>
<text text-anchor="middle" x="243.88" y="-7.25" font-family="FreeSans" font-size="10.00">exception</text>
</a>
</g>
</g>
<!-- Node2&#45;&gt;Node6 -->
<g id="edge5_Node000002_Node000006" class="edge">
<title>Node2&#45;&gt;Node6</title>
<g id="a_edge5_Node000002_Node000006"><a xlink:title=" ">
<path fill="none" stroke="#63b8ff" d="M180.64,-56.34C191.92,-48.32 208.11,-36.81 221.28,-27.44"/>
<polygon fill="#63b8ff" stroke="#63b8ff" points="223.11,-29.73 229.23,-21.08 219.05,-24.02 223.11,-29.73"/>
</a>
</g>
</g>
<!-- Node7 -->
<g id="Node000007" class="node">
<title>Node7</title>
<g id="a_Node000007"><a xlink:title=" ">
<polygon fill="#e0e0e0" stroke="#999999" points="393.88,-20.75 293.88,-20.75 293.88,0 393.88,0 393.88,-20.75"/>
<text text-anchor="middle" x="343.88" y="-7.25" font-family="FreeSans" font-size="10.00">boost/format.hpp</text>
</a>
</g>
</g>
<!-- Node2&#45;&gt;Node7 -->
<g id="edge6_Node000002_Node000007" class="edge">
<title>Node2&#45;&gt;Node7</title>
<g id="a_edge6_Node000002_Node000007"><a xlink:title=" ">
<path fill="none" stroke="#63b8ff" d="M198.52,-56.34C227.38,-47.41 270.22,-34.16 301.92,-24.35"/>
<polygon fill="#63b8ff" stroke="#63b8ff" points="302.69,-27.47 311.21,-21.17 300.62,-20.78 302.69,-27.47"/>
</a>
</g>
</g>
</g>
</svg>
