<?xml version="1.0" encoding="UTF-8" standalone="no"?>
<!DOCTYPE svg PUBLIC "-//W3C//DTD SVG 1.1//EN"
 "http://www.w3.org/Graphics/SVG/1.1/DTD/svg11.dtd">
<!-- Generated by graphviz version 2.28.0 (20120425.2022)
 -->
<!-- Title: src/diffusionSystem.cpp Pages: 1 -->
<svg width="173pt" height="196pt"
 viewBox="0.00 0.00 173.00 196.00" xmlns="http://www.w3.org/2000/svg" xmlns:xlink="http://www.w3.org/1999/xlink">
<g id="graph1" class="graph" transform="scale(1 1) rotate(0) translate(4 192)">
<title>src/diffusionSystem.cpp</title>
<polygon fill="white" stroke="white" points="-4,5 -4,-192 170,-192 170,5 -4,5"/>
<!-- Node1 -->
<g id="node1" class="node"><title>Node1</title>
<polygon fill="#bfbfbf" stroke="black" points="32,-168.5 32,-187.5 154,-187.5 154,-168.5 32,-168.5"/>
<text text-anchor="middle" x="93" y="-175.5" font-family="FreeSans" font-size="10.00">src/diffusionSystem.cpp</text>
</g>
<!-- Node2 -->
<g id="node3" class="node"><title>Node2</title>
<a xlink:href="diffusionSystem_8h.html" target="_top" xlink:title="diffusionSystem.h">
<polygon fill="white" stroke="black" points="-0.5,-112.5 -0.5,-131.5 94.5,-131.5 94.5,-112.5 -0.5,-112.5"/>
<text text-anchor="middle" x="47" y="-119.5" font-family="FreeSans" font-size="10.00">diffusionSystem.h</text>
</a>
</g>
<!-- Node1&#45;&gt;Node2 -->
<g id="edge2" class="edge"><title>Node1&#45;&gt;Node2</title>
<path fill="none" stroke="midnightblue" d="M85.404,-168.083C78.7725,-160.298 68.979,-148.801 60.9419,-139.367"/>
<polygon fill="midnightblue" stroke="midnightblue" points="63.6037,-137.094 54.4546,-131.751 58.275,-141.633 63.6037,-137.094"/>
</g>
<!-- Node6 -->
<g id="node12" class="node"><title>Node6</title>
<polygon fill="white" stroke="#bfbfbf" points="113,-112.5 113,-131.5 165,-131.5 165,-112.5 113,-112.5"/>
<text text-anchor="middle" x="139" y="-119.5" font-family="FreeSans" font-size="10.00">assert.h</text>
</g>
<!-- Node1&#45;&gt;Node6 -->
<g id="edge12" class="edge"><title>Node1&#45;&gt;Node6</title>
<path fill="none" stroke="midnightblue" d="M100.596,-168.083C107.227,-160.298 117.021,-148.801 125.058,-139.367"/>
<polygon fill="midnightblue" stroke="midnightblue" points="127.725,-141.633 131.545,-131.751 122.396,-137.094 127.725,-141.633"/>
</g>
<!-- Node3 -->
<g id="node5" class="node"><title>Node3</title>
<a xlink:href="mathUtils_8h.html" target="_top" xlink:title="mathUtils.h">
<polygon fill="white" stroke="red" points="25.5,-0.5 25.5,-19.5 90.5,-19.5 90.5,-0.5 25.5,-0.5"/>
<text text-anchor="middle" x="58" y="-7.5" font-family="FreeSans" font-size="10.00">mathUtils.h</text>
</a>
</g>
<!-- Node2&#45;&gt;Node3 -->
<g id="edge4" class="edge"><title>Node2&#45;&gt;Node3</title>
<path fill="none" stroke="midnightblue" d="M38.1171,-112.32C26.6356,-99.9964 9.01111,-76.6302 17,-56 21.454,-44.498 30.3677,-34.1311 38.7494,-26.2546"/>
<polygon fill="midnightblue" stroke="midnightblue" points="41.2371,-28.7286 46.4594,-19.5103 36.6283,-23.4599 41.2371,-28.7286"/>
</g>
<!-- Node4 -->
<g id="node7" class="node"><title>Node4</title>
<a xlink:href="grid_8h.html" target="_top" xlink:title="grid.h">
<polygon fill="white" stroke="red" points="26.5,-56.5 26.5,-75.5 67.5,-75.5 67.5,-56.5 26.5,-56.5"/>
<text text-anchor="middle" x="47" y="-63.5" font-family="FreeSans" font-size="10.00">grid.h</text>
</a>
</g>
<!-- Node2&#45;&gt;Node4 -->
<g id="edge6" class="edge"><title>Node2&#45;&gt;Node4</title>
<path fill="none" stroke="midnightblue" d="M47,-112.083C47,-105.006 47,-94.8611 47,-85.9865"/>
<polygon fill="midnightblue" stroke="midnightblue" points="50.5001,-85.751 47,-75.7511 43.5001,-85.7511 50.5001,-85.751"/>
</g>
<!-- Node5 -->
<g id="node9" class="node"><title>Node5</title>
<a xlink:href="integrator_8h.html" target="_top" xlink:title="integrator.h">
<polygon fill="white" stroke="black" points="86,-56.5 86,-75.5 152,-75.5 152,-56.5 86,-56.5"/>
<text text-anchor="middle" x="119" y="-63.5" font-family="FreeSans" font-size="10.00">integrator.h</text>
</a>
</g>
<!-- Node2&#45;&gt;Node5 -->
<g id="edge8" class="edge"><title>Node2&#45;&gt;Node5</title>
<path fill="none" stroke="midnightblue" d="M58.568,-112.324C69.4202,-104.185 85.8807,-91.8395 98.8834,-82.0874"/>
<polygon fill="midnightblue" stroke="midnightblue" points="101.321,-84.6339 107.221,-75.8339 97.1214,-79.0339 101.321,-84.6339"/>
</g>
<!-- Node5&#45;&gt;Node3 -->
<g id="edge10" class="edge"><title>Node5&#45;&gt;Node3</title>
<path fill="none" stroke="midnightblue" d="M109.199,-56.324C100.182,-48.3414 86.594,-36.3128 75.682,-26.6529"/>
<polygon fill="midnightblue" stroke="midnightblue" points="77.7866,-23.8416 67.979,-19.8339 73.1467,-29.083 77.7866,-23.8416"/>
</g>
</g>
</svg>
