<?xml version="1.0" encoding="UTF-8" standalone="no"?>
<!DOCTYPE svg PUBLIC "-//W3C//DTD SVG 1.1//EN"
 "http://www.w3.org/Graphics/SVG/1.1/DTD/svg11.dtd">
<!-- Generated by graphviz version 8.1.0 (20230707.2238)
 -->
<!-- Title: src/diffusionSystem.h Pages: 1 -->
<svg width="264pt" height="142pt"
 viewBox="0.00 0.00 263.75 142.25" xmlns="http://www.w3.org/2000/svg" xmlns:xlink="http://www.w3.org/1999/xlink">
<g id="graph0" class="graph" transform="scale(1 1) rotate(0) translate(4 138.25)">
<title>src/diffusionSystem.h</title>
<!-- Node1 -->
<g id="Node000001" class="node">
<title>Node1</title>
<g id="a_Node000001"><a xlink:title=" ">
<polygon fill="#999999" stroke="#666666" points="193.62,-134.25 72.62,-134.25 72.62,-113.5 193.62,-113.5 193.62,-134.25"/>
<text text-anchor="middle" x="133.12" y="-120.75" font-family="FreeSans" font-size="10.00">src/diffusionSystem.h</text>
</a>
</g>
</g>
<!-- Node2 -->
<g id="Node000002" class="node">
<title>Node2</title>
<g id="a_Node000002"><a xlink:href="diffusionSystem_8cpp.html" target="_top" xlink:title=" ">
<polygon fill="white" stroke="#666666" points="132.25,-77.5 0,-77.5 0,-56.75 132.25,-56.75 132.25,-77.5"/>
<text text-anchor="middle" x="66.12" y="-64" font-family="FreeSans" font-size="10.00">src/diffusionSystem.cpp</text>
</a>
</g>
</g>
<!-- Node1&#45;&gt;Node2 -->
<g id="edge1_Node000001_Node000002" class="edge">
<title>Node1&#45;&gt;Node2</title>
<g id="a_edge1_Node000001_Node000002"><a xlink:title=" ">
<path fill="none" stroke="#63b8ff" d="M112.67,-106.16C101.32,-96.88 87.59,-85.67 78,-77.83"/>
<polygon fill="#63b8ff" stroke="#63b8ff" points="110.19,-109.47 120.15,-113.09 114.62,-104.05 110.19,-109.47"/>
</a>
</g>
</g>
<!-- Node3 -->
<g id="Node000003" class="node">
<title>Node3</title>
<g id="a_Node000003"><a xlink:href="flameSolver_8h.html" target="_top" xlink:title=" ">
<polygon fill="white" stroke="#666666" points="250.12,-77.5 150.12,-77.5 150.12,-56.75 250.12,-56.75 250.12,-77.5"/>
<text text-anchor="middle" x="200.12" y="-64" font-family="FreeSans" font-size="10.00">src/flameSolver.h</text>
</a>
</g>
</g>
<!-- Node1&#45;&gt;Node3 -->
<g id="edge2_Node000001_Node000003" class="edge">
<title>Node1&#45;&gt;Node3</title>
<g id="a_edge2_Node000001_Node000003"><a xlink:title=" ">
<path fill="none" stroke="#63b8ff" d="M153.58,-106.16C164.93,-96.88 178.66,-85.67 188.25,-77.83"/>
<polygon fill="#63b8ff" stroke="#63b8ff" points="151.63,-104.05 146.1,-113.09 156.06,-109.47 151.63,-104.05"/>
</a>
</g>
</g>
<!-- Node4 -->
<g id="Node000004" class="node">
<title>Node4</title>
<g id="a_Node000004"><a xlink:href="flameSolver_8cpp.html" target="_top" xlink:title=" ">
<polygon fill="white" stroke="#666666" points="255.75,-20.75 144.5,-20.75 144.5,0 255.75,0 255.75,-20.75"/>
<text text-anchor="middle" x="200.12" y="-7.25" font-family="FreeSans" font-size="10.00">src/flameSolver.cpp</text>
</a>
</g>
</g>
<!-- Node3&#45;&gt;Node4 -->
<g id="edge3_Node000003_Node000004" class="edge">
<title>Node3&#45;&gt;Node4</title>
<g id="a_edge3_Node000003_Node000004"><a xlink:title=" ">
<path fill="none" stroke="#63b8ff" d="M200.12,-45.46C200.12,-37.09 200.12,-27.83 200.12,-21.08"/>
<polygon fill="#63b8ff" stroke="#63b8ff" points="196.63,-45.34 200.12,-55.34 203.63,-45.34 196.63,-45.34"/>
</a>
</g>
</g>
</g>
</svg>
