<?xml version="1.0" encoding="UTF-8" standalone="no"?>
<!DOCTYPE svg PUBLIC "-//W3C//DTD SVG 1.1//EN"
 "http://www.w3.org/Graphics/SVG/1.1/DTD/svg11.dtd">
<!-- Generated by graphviz version 2.38.0 (20140413.2041)
 -->
<!-- Title: src/diffusionSystem.cpp Pages: 1 -->
<svg width="497pt" height="364pt"
 viewBox="0.00 0.00 497.00 364.00" xmlns="http://www.w3.org/2000/svg" xmlns:xlink="http://www.w3.org/1999/xlink">
<g id="graph0" class="graph" transform="scale(1 1) rotate(0) translate(4 360)">
<title>src/diffusionSystem.cpp</title>
<polygon fill="white" stroke="none" points="-4,4 -4,-360 493,-360 493,4 -4,4"/>
<!-- Node1 -->
<g id="node1" class="node"><title>Node1</title>
<polygon fill="#bfbfbf" stroke="black" points="289.5,-336.5 289.5,-355.5 406.5,-355.5 406.5,-336.5 289.5,-336.5"/>
<text text-anchor="middle" x="348" y="-343.5" font-family="FreeSans" font-size="10.00">src/diffusionSystem.cpp</text>
</g>
<!-- Node2 -->
<g id="node2" class="node"><title>Node2</title>
<g id="a_node2"><a xlink:href="diffusionSystem_8h.html" target="_top" xlink:title="diffusionSystem.h">
<polygon fill="white" stroke="black" points="258.5,-280.5 258.5,-299.5 349.5,-299.5 349.5,-280.5 258.5,-280.5"/>
<text text-anchor="middle" x="304" y="-287.5" font-family="FreeSans" font-size="10.00">diffusionSystem.h</text>
</a>
</g>
</g>
<!-- Node1&#45;&gt;Node2 -->
<g id="edge1" class="edge"><title>Node1&#45;&gt;Node2</title>
<path fill="none" stroke="midnightblue" d="M340.734,-336.083C334.455,-328.377 325.212,-317.033 317.569,-307.653"/>
<polygon fill="midnightblue" stroke="midnightblue" points="320.161,-305.293 311.131,-299.751 314.734,-309.714 320.161,-305.293"/>
</g>
<!-- Node15 -->
<g id="node15" class="node"><title>Node15</title>
<polygon fill="white" stroke="#bfbfbf" points="368,-280.5 368,-299.5 418,-299.5 418,-280.5 368,-280.5"/>
<text text-anchor="middle" x="393" y="-287.5" font-family="FreeSans" font-size="10.00">assert.h</text>
</g>
<!-- Node1&#45;&gt;Node15 -->
<g id="edge19" class="edge"><title>Node1&#45;&gt;Node15</title>
<path fill="none" stroke="midnightblue" d="M355.431,-336.083C361.853,-328.377 371.306,-317.033 379.122,-307.653"/>
<polygon fill="midnightblue" stroke="midnightblue" points="381.994,-309.674 385.707,-299.751 376.617,-305.193 381.994,-309.674"/>
</g>
<!-- Node3 -->
<g id="node3" class="node"><title>Node3</title>
<g id="a_node3"><a xlink:href="mathUtils_8h.html" target="_top" xlink:title="mathUtils.h">
<polygon fill="white" stroke="black" points="240.5,-112.5 240.5,-131.5 305.5,-131.5 305.5,-112.5 240.5,-112.5"/>
<text text-anchor="middle" x="273" y="-119.5" font-family="FreeSans" font-size="10.00">mathUtils.h</text>
</a>
</g>
</g>
<!-- Node2&#45;&gt;Node3 -->
<g id="edge2" class="edge"><title>Node2&#45;&gt;Node3</title>
<path fill="none" stroke="midnightblue" d="M299.072,-280.454C289.613,-263.502 269.212,-224.128 262,-188 258.884,-172.392 262.399,-154.561 266.261,-141.527"/>
<polygon fill="midnightblue" stroke="midnightblue" points="269.64,-142.455 269.448,-131.862 262.992,-140.263 269.64,-142.455"/>
</g>
<!-- Node12 -->
<g id="node12" class="node"><title>Node12</title>
<g id="a_node12"><a xlink:href="grid_8h.html" target="_top" xlink:title="grid.h">
<polygon fill="white" stroke="black" points="351,-224.5 351,-243.5 391,-243.5 391,-224.5 351,-224.5"/>
<text text-anchor="middle" x="371" y="-231.5" font-family="FreeSans" font-size="10.00">grid.h</text>
</a>
</g>
</g>
<!-- Node2&#45;&gt;Node12 -->
<g id="edge13" class="edge"><title>Node2&#45;&gt;Node12</title>
<path fill="none" stroke="midnightblue" d="M314.765,-280.324C324.766,-272.263 339.887,-260.077 351.93,-250.369"/>
<polygon fill="midnightblue" stroke="midnightblue" points="354.45,-252.834 360.039,-243.834 350.057,-247.384 354.45,-252.834"/>
</g>
<!-- Node14 -->
<g id="node14" class="node"><title>Node14</title>
<g id="a_node14"><a xlink:href="integrator_8h.html" target="_top" xlink:title="integrator.h">
<polygon fill="white" stroke="black" points="271.5,-168.5 271.5,-187.5 336.5,-187.5 336.5,-168.5 271.5,-168.5"/>
<text text-anchor="middle" x="304" y="-175.5" font-family="FreeSans" font-size="10.00">integrator.h</text>
</a>
</g>
</g>
<!-- Node2&#45;&gt;Node14 -->
<g id="edge17" class="edge"><title>Node2&#45;&gt;Node14</title>
<path fill="none" stroke="midnightblue" d="M304,-280.368C304,-262.617 304,-221.666 304,-197.597"/>
<polygon fill="midnightblue" stroke="midnightblue" points="307.5,-197.591 304,-187.591 300.5,-197.591 307.5,-197.591"/>
</g>
<!-- Node4 -->
<g id="node4" class="node"><title>Node4</title>
<polygon fill="white" stroke="#bfbfbf" points="397.5,-56.5 397.5,-75.5 440.5,-75.5 440.5,-56.5 397.5,-56.5"/>
<text text-anchor="middle" x="419" y="-63.5" font-family="FreeSans" font-size="10.00">vector</text>
</g>
<!-- Node3&#45;&gt;Node4 -->
<g id="edge3" class="edge"><title>Node3&#45;&gt;Node4</title>
<path fill="none" stroke="midnightblue" d="M296.134,-112.444C320.912,-103.279 360.371,-88.6846 387.864,-78.5161"/>
<polygon fill="midnightblue" stroke="midnightblue" points="389.237,-81.74 397.402,-74.9883 386.809,-75.1747 389.237,-81.74"/>
</g>
<!-- Node5 -->
<g id="node5" class="node"><title>Node5</title>
<polygon fill="white" stroke="#bfbfbf" points="0,-56.5 0,-75.5 44,-75.5 44,-56.5 0,-56.5"/>
<text text-anchor="middle" x="22" y="-63.5" font-family="FreeSans" font-size="10.00">cmath</text>
</g>
<!-- Node3&#45;&gt;Node5 -->
<g id="edge4" class="edge"><title>Node3&#45;&gt;Node5</title>
<path fill="none" stroke="midnightblue" d="M240.497,-114.604C198.319,-106.211 122.487,-90.8037 58,-76 56.7285,-75.7081 55.4329,-75.4061 54.125,-75.0974"/>
<polygon fill="midnightblue" stroke="midnightblue" points="54.5954,-71.6101 44.0523,-72.6563 52.9466,-78.4132 54.5954,-71.6101"/>
</g>
<!-- Node6 -->
<g id="node6" class="node"><title>Node6</title>
<polygon fill="white" stroke="#bfbfbf" points="111.5,-0.5 111.5,-19.5 164.5,-19.5 164.5,-0.5 111.5,-0.5"/>
<text text-anchor="middle" x="138" y="-7.5" font-family="FreeSans" font-size="10.00">iostream</text>
</g>
<!-- Node3&#45;&gt;Node6 -->
<g id="edge5" class="edge"><title>Node3&#45;&gt;Node6</title>
<path fill="none" stroke="midnightblue" d="M240.357,-117.694C193.082,-112.157 109.208,-99.2585 91,-76 77.7212,-59.0381 97.6502,-38.8421 115.504,-25.5134"/>
<polygon fill="midnightblue" stroke="midnightblue" points="117.787,-28.1863 123.947,-19.5662 113.756,-22.4635 117.787,-28.1863"/>
</g>
<!-- Node7 -->
<g id="node7" class="node"><title>Node7</title>
<polygon fill="white" stroke="#bfbfbf" points="100,-56.5 100,-75.5 150,-75.5 150,-56.5 100,-56.5"/>
<text text-anchor="middle" x="125" y="-63.5" font-family="FreeSans" font-size="10.00">sstream</text>
</g>
<!-- Node3&#45;&gt;Node7 -->
<g id="edge6" class="edge"><title>Node3&#45;&gt;Node7</title>
<path fill="none" stroke="midnightblue" d="M249.549,-112.444C224.867,-103.438 185.815,-89.1891 158.023,-79.049"/>
<polygon fill="midnightblue" stroke="midnightblue" points="158.935,-75.6561 148.341,-75.5164 156.536,-82.2321 158.935,-75.6561"/>
</g>
<!-- Node8 -->
<g id="node8" class="node"><title>Node8</title>
<polygon fill="white" stroke="#bfbfbf" points="449,-0.5 449,-19.5 489,-19.5 489,-0.5 449,-0.5"/>
<text text-anchor="middle" x="469" y="-7.5" font-family="FreeSans" font-size="10.00">string</text>
</g>
<!-- Node3&#45;&gt;Node8 -->
<g id="edge7" class="edge"><title>Node3&#45;&gt;Node8</title>
<path fill="none" stroke="midnightblue" d="M305.68,-121.865C345.12,-121.082 410.989,-113.653 450,-76 462.415,-64.0168 466.84,-44.4096 468.356,-29.8588"/>
<polygon fill="midnightblue" stroke="midnightblue" points="471.872,-29.7261 469.044,-19.5156 464.888,-29.2609 471.872,-29.7261"/>
</g>
<!-- Node9 -->
<g id="node9" class="node"><title>Node9</title>
<polygon fill="white" stroke="#bfbfbf" points="255.5,-56.5 255.5,-75.5 290.5,-75.5 290.5,-56.5 255.5,-56.5"/>
<text text-anchor="middle" x="273" y="-63.5" font-family="FreeSans" font-size="10.00">map</text>
</g>
<!-- Node3&#45;&gt;Node9 -->
<g id="edge8" class="edge"><title>Node3&#45;&gt;Node9</title>
<path fill="none" stroke="midnightblue" d="M273,-112.083C273,-105.006 273,-94.8611 273,-85.9865"/>
<polygon fill="midnightblue" stroke="midnightblue" points="276.5,-85.751 273,-75.7511 269.5,-85.7511 276.5,-85.751"/>
</g>
<!-- Node10 -->
<g id="node10" class="node"><title>Node10</title>
<g id="a_node10"><a xlink:href="debugUtils_8h.html" target="_top" xlink:title="debugUtils.h">
<polygon fill="white" stroke="red" points="168.5,-56.5 168.5,-75.5 237.5,-75.5 237.5,-56.5 168.5,-56.5"/>
<text text-anchor="middle" x="203" y="-63.5" font-family="FreeSans" font-size="10.00">debugUtils.h</text>
</a>
</g>
</g>
<!-- Node3&#45;&gt;Node10 -->
<g id="edge9" class="edge"><title>Node3&#45;&gt;Node10</title>
<path fill="none" stroke="midnightblue" d="M261.753,-112.324C251.203,-104.185 235.199,-91.8395 222.558,-82.0874"/>
<polygon fill="midnightblue" stroke="midnightblue" points="224.507,-79.1707 214.451,-75.8339 220.231,-84.7132 224.507,-79.1707"/>
</g>
<!-- Node11 -->
<g id="node11" class="node"><title>Node11</title>
<polygon fill="white" stroke="#bfbfbf" points="308.5,-56.5 308.5,-75.5 379.5,-75.5 379.5,-56.5 308.5,-56.5"/>
<text text-anchor="middle" x="344" y="-63.5" font-family="FreeSans" font-size="10.00">Eigen/Dense</text>
</g>
<!-- Node3&#45;&gt;Node11 -->
<g id="edge12" class="edge"><title>Node3&#45;&gt;Node11</title>
<path fill="none" stroke="midnightblue" d="M284.407,-112.324C295.109,-104.185 311.341,-91.8395 324.163,-82.0874"/>
<polygon fill="midnightblue" stroke="midnightblue" points="326.544,-84.6734 332.385,-75.8339 322.307,-79.1018 326.544,-84.6734"/>
</g>
<!-- Node10&#45;&gt;Node6 -->
<g id="edge11" class="edge"><title>Node10&#45;&gt;Node6</title>
<path fill="none" stroke="midnightblue" d="M192.557,-56.324C182.854,-48.2631 168.185,-36.0765 156.5,-26.3695"/>
<polygon fill="midnightblue" stroke="midnightblue" points="158.562,-23.532 148.633,-19.8339 154.089,-28.9163 158.562,-23.532"/>
</g>
<!-- Node10&#45;&gt;Node8 -->
<g id="edge10" class="edge"><title>Node10&#45;&gt;Node8</title>
<path fill="none" stroke="midnightblue" d="M237.729,-57.7087C240.527,-57.1281 243.31,-56.5528 246,-56 314.832,-41.8518 395.704,-25.6332 438.631,-17.0562"/>
<polygon fill="midnightblue" stroke="midnightblue" points="439.576,-20.4367 448.697,-15.0462 438.205,-13.5722 439.576,-20.4367"/>
</g>
<!-- Node13 -->
<g id="node13" class="node"><title>Node13</title>
<g id="a_node13"><a xlink:href="readConfig_8h.html" target="_top" xlink:title="readConfig.h">
<polygon fill="white" stroke="black" points="355,-168.5 355,-187.5 425,-187.5 425,-168.5 355,-168.5"/>
<text text-anchor="middle" x="390" y="-175.5" font-family="FreeSans" font-size="10.00">readConfig.h</text>
</a>
</g>
</g>
<!-- Node12&#45;&gt;Node13 -->
<g id="edge14" class="edge"><title>Node12&#45;&gt;Node13</title>
<path fill="none" stroke="midnightblue" d="M374.137,-224.083C376.683,-216.849 380.356,-206.409 383.527,-197.397"/>
<polygon fill="midnightblue" stroke="midnightblue" points="386.903,-198.346 386.921,-187.751 380.3,-196.023 386.903,-198.346"/>
</g>
<!-- Node13&#45;&gt;Node3 -->
<g id="edge15" class="edge"><title>Node13&#45;&gt;Node3</title>
<path fill="none" stroke="midnightblue" d="M371.461,-168.444C352.377,-159.636 322.425,-145.812 300.564,-135.722"/>
<polygon fill="midnightblue" stroke="midnightblue" points="301.999,-132.529 291.452,-131.516 299.065,-138.885 301.999,-132.529"/>
</g>
<!-- Node13&#45;&gt;Node8 -->
<g id="edge16" class="edge"><title>Node13&#45;&gt;Node8</title>
<path fill="none" stroke="midnightblue" d="M400.425,-168.326C418.729,-152.332 456.029,-116.139 470,-76 475.165,-61.1609 474.416,-43.2381 472.659,-29.9742"/>
<polygon fill="midnightblue" stroke="midnightblue" points="476.048,-29.0146 470.978,-19.712 469.14,-30.1463 476.048,-29.0146"/>
</g>
<!-- Node14&#45;&gt;Node3 -->
<g id="edge18" class="edge"><title>Node14&#45;&gt;Node3</title>
<path fill="none" stroke="midnightblue" d="M298.881,-168.083C294.592,-160.613 288.342,-149.724 283.058,-140.52"/>
<polygon fill="midnightblue" stroke="midnightblue" points="286.038,-138.681 278.024,-131.751 279.967,-142.166 286.038,-138.681"/>
</g>
</g>
</svg>
