<?xml version="1.0" encoding="UTF-8" standalone="no"?>
<!DOCTYPE svg PUBLIC "-//W3C//DTD SVG 1.1//EN"
 "http://www.w3.org/Graphics/SVG/1.1/DTD/svg11.dtd">
<!-- Generated by graphviz version 2.26.3 (20100126.1600)
 -->
<!-- Title: src/diffusionSystem.h Pages: 1 -->
<svg width="492pt" height="320pt"
 viewBox="0.00 0.00 492.00 320.00" xmlns="http://www.w3.org/2000/svg" xmlns:xlink="http://www.w3.org/1999/xlink">
<g id="graph1" class="graph" transform="scale(1 1) rotate(0) translate(4 316)">
<title>src/diffusionSystem.h</title>
<polygon fill="white" stroke="white" points="-4,5 -4,-316 489,-316 489,5 -4,5"/>
<!-- Node1 -->
<g id="node1" class="node"><title>Node1</title>
<polygon fill="#bfbfbf" stroke="black" points="247.5,-291 247.5,-311 354.5,-311 354.5,-291 247.5,-291"/>
<text text-anchor="middle" x="301" y="-298" font-family="FreeSans" font-size="10.00">src/diffusionSystem.h</text>
</g>
<!-- Node2 -->
<g id="node3" class="node"><title>Node2</title>
<a xlink:href="mathUtils_8h.html" target="_top" xlink:title="mathUtils.h">
<polygon fill="white" stroke="black" points="238.5,-117 238.5,-137 303.5,-137 303.5,-117 238.5,-117"/>
<text text-anchor="middle" x="271" y="-124" font-family="FreeSans" font-size="10.00">mathUtils.h</text>
</a>
</g>
<!-- Node1&#45;&gt;Node2 -->
<g id="edge2" class="edge"><title>Node1&#45;&gt;Node2</title>
<path fill="none" stroke="midnightblue" d="M295.602,-290.948C286.133,-272.679 266.881,-232.54 260,-196 256.918,-179.633 260.306,-160.975 264.11,-147.191"/>
<polygon fill="midnightblue" stroke="midnightblue" points="267.552,-147.905 267.135,-137.318 260.859,-145.854 267.552,-147.905"/>
</g>
<!-- Node14 -->
<g id="node29" class="node"><title>Node14</title>
<a xlink:href="grid_8h.html" target="_top" xlink:title="grid.h">
<polygon fill="white" stroke="black" points="347,-233 347,-253 387,-253 387,-233 347,-233"/>
<text text-anchor="middle" x="367" y="-240" font-family="FreeSans" font-size="10.00">grid.h</text>
</a>
</g>
<!-- Node1&#45;&gt;Node14 -->
<g id="edge30" class="edge"><title>Node1&#45;&gt;Node14</title>
<path fill="none" stroke="midnightblue" d="M312.496,-290.897C322.125,-282.435 336.081,-270.172 347.46,-260.172"/>
<polygon fill="midnightblue" stroke="midnightblue" points="349.99,-262.608 355.191,-253.378 345.369,-257.35 349.99,-262.608"/>
</g>
<!-- Node16 -->
<g id="node35" class="node"><title>Node16</title>
<a xlink:href="integrator_8h.html" target="_top" xlink:title="integrator.h">
<polygon fill="white" stroke="black" points="268.5,-175 268.5,-195 333.5,-195 333.5,-175 268.5,-175"/>
<text text-anchor="middle" x="301" y="-182" font-family="FreeSans" font-size="10.00">integrator.h</text>
</a>
</g>
<!-- Node1&#45;&gt;Node16 -->
<g id="edge38" class="edge"><title>Node1&#45;&gt;Node16</title>
<path fill="none" stroke="midnightblue" d="M301,-290.706C301,-271.568 301,-230.198 301,-205.265"/>
<polygon fill="midnightblue" stroke="midnightblue" points="304.5,-205.105 301,-195.106 297.5,-205.106 304.5,-205.105"/>
</g>
<!-- Node3 -->
<g id="node5" class="node"><title>Node3</title>
<polygon fill="white" stroke="#bfbfbf" points="393.5,-59 393.5,-79 436.5,-79 436.5,-59 393.5,-59"/>
<text text-anchor="middle" x="415" y="-66" font-family="FreeSans" font-size="10.00">vector</text>
</g>
<!-- Node2&#45;&gt;Node3 -->
<g id="edge4" class="edge"><title>Node2&#45;&gt;Node3</title>
<path fill="none" stroke="midnightblue" d="M296.083,-116.897C320.519,-107.055 357.727,-92.0683 384.004,-81.4845"/>
<polygon fill="midnightblue" stroke="midnightblue" points="385.522,-84.6463 393.49,-77.6636 382.907,-78.1532 385.522,-84.6463"/>
</g>
<!-- Node4 -->
<g id="node7" class="node"><title>Node4</title>
<polygon fill="white" stroke="#bfbfbf" points="0,-59 0,-79 44,-79 44,-59 0,-59"/>
<text text-anchor="middle" x="22" y="-66" font-family="FreeSans" font-size="10.00">cmath</text>
</g>
<!-- Node2&#45;&gt;Node4 -->
<g id="edge6" class="edge"><title>Node2&#45;&gt;Node4</title>
<path fill="none" stroke="midnightblue" d="M238.33,-120.631C196.36,-112.256 121.364,-96.6433 58,-80 56.5778,-79.6264 55.1275,-79.2336 53.6651,-78.8277"/>
<polygon fill="midnightblue" stroke="midnightblue" points="54.5848,-75.4503 44.0057,-76.0265 52.6351,-82.1733 54.5848,-75.4503"/>
</g>
<!-- Node5 -->
<g id="node9" class="node"><title>Node5</title>
<polygon fill="white" stroke="#bfbfbf" points="45.5,-1 45.5,-21 98.5,-21 98.5,-1 45.5,-1"/>
<text text-anchor="middle" x="72" y="-8" font-family="FreeSans" font-size="10.00">iostream</text>
</g>
<!-- Node2&#45;&gt;Node5 -->
<g id="edge8" class="edge"><title>Node2&#45;&gt;Node5</title>
<path fill="none" stroke="midnightblue" d="M238.297,-122.431C192.274,-115.359 111.69,-100.417 91,-80 78.19,-67.3592 73.7933,-46.934 72.3903,-31.5798"/>
<polygon fill="midnightblue" stroke="midnightblue" points="75.8783,-31.2665 71.8203,-21.4796 68.8894,-31.661 75.8783,-31.2665"/>
</g>
<!-- Node6 -->
<g id="node11" class="node"><title>Node6</title>
<polygon fill="white" stroke="#bfbfbf" points="100,-59 100,-79 150,-79 150,-59 100,-59"/>
<text text-anchor="middle" x="125" y="-66" font-family="FreeSans" font-size="10.00">sstream</text>
</g>
<!-- Node2&#45;&gt;Node6 -->
<g id="edge10" class="edge"><title>Node2&#45;&gt;Node6</title>
<path fill="none" stroke="midnightblue" d="M245.569,-116.897C221.807,-107.458 186.135,-93.2867 159.752,-82.8057"/>
<polygon fill="midnightblue" stroke="midnightblue" points="160.726,-79.4263 150.14,-78.9871 158.141,-85.9318 160.726,-79.4263"/>
</g>
<!-- Node7 -->
<g id="node13" class="node"><title>Node7</title>
<polygon fill="white" stroke="#bfbfbf" points="444,-1 444,-21 484,-21 484,-1 444,-1"/>
<text text-anchor="middle" x="464" y="-8" font-family="FreeSans" font-size="10.00">string</text>
</g>
<!-- Node2&#45;&gt;Node7 -->
<g id="edge12" class="edge"><title>Node2&#45;&gt;Node7</title>
<path fill="none" stroke="midnightblue" d="M303.742,-122.102C348.419,-114.778 425.204,-99.6992 445,-80 457.757,-67.3054 462.16,-46.8873 463.58,-31.5494"/>
<polygon fill="midnightblue" stroke="midnightblue" points="467.08,-31.6471 464.162,-21.4619 460.091,-31.2434 467.08,-31.6471"/>
</g>
<!-- Node8 -->
<g id="node15" class="node"><title>Node8</title>
<polygon fill="white" stroke="#bfbfbf" points="253.5,-59 253.5,-79 288.5,-79 288.5,-59 253.5,-59"/>
<text text-anchor="middle" x="271" y="-66" font-family="FreeSans" font-size="10.00">map</text>
</g>
<!-- Node2&#45;&gt;Node8 -->
<g id="edge14" class="edge"><title>Node2&#45;&gt;Node8</title>
<path fill="none" stroke="midnightblue" d="M271,-116.897C271,-109.339 271,-98.7476 271,-89.4458"/>
<polygon fill="midnightblue" stroke="midnightblue" points="274.5,-89.3776 271,-79.3776 267.5,-89.3776 274.5,-89.3776"/>
</g>
<!-- Node9 -->
<g id="node17" class="node"><title>Node9</title>
<a xlink:href="debugUtils_8h.html" target="_top" xlink:title="debugUtils.h">
<polygon fill="white" stroke="black" points="167.5,-59 167.5,-79 236.5,-79 236.5,-59 167.5,-59"/>
<text text-anchor="middle" x="202" y="-66" font-family="FreeSans" font-size="10.00">debugUtils.h</text>
</a>
</g>
<!-- Node2&#45;&gt;Node9 -->
<g id="edge16" class="edge"><title>Node2&#45;&gt;Node9</title>
<path fill="none" stroke="midnightblue" d="M258.981,-116.897C248.817,-108.353 234.041,-95.933 222.083,-85.8813"/>
<polygon fill="midnightblue" stroke="midnightblue" points="224.253,-83.133 214.346,-79.3776 219.749,-88.4914 224.253,-83.133"/>
</g>
<!-- Node13 -->
<g id="node27" class="node"><title>Node13</title>
<polygon fill="white" stroke="#bfbfbf" points="305.5,-59 305.5,-79 376.5,-79 376.5,-59 305.5,-59"/>
<text text-anchor="middle" x="341" y="-66" font-family="FreeSans" font-size="10.00">Eigen/Dense</text>
</g>
<!-- Node2&#45;&gt;Node13 -->
<g id="edge28" class="edge"><title>Node2&#45;&gt;Node13</title>
<path fill="none" stroke="midnightblue" d="M283.193,-116.897C293.505,-108.353 308.495,-95.933 320.626,-85.8813"/>
<polygon fill="midnightblue" stroke="midnightblue" points="323.008,-88.4529 328.475,-79.3776 318.542,-83.0627 323.008,-88.4529"/>
</g>
<!-- Node9&#45;&gt;Node5 -->
<g id="edge20" class="edge"><title>Node9&#45;&gt;Node5</title>
<path fill="none" stroke="midnightblue" d="M179.356,-58.8972C158.512,-49.5978 127.377,-35.7066 103.996,-25.2752"/>
<polygon fill="midnightblue" stroke="midnightblue" points="105.379,-22.0598 94.821,-21.1817 102.527,-28.4524 105.379,-22.0598"/>
</g>
<!-- Node9&#45;&gt;Node7 -->
<g id="edge18" class="edge"><title>Node9&#45;&gt;Node7</title>
<path fill="none" stroke="midnightblue" d="M236.705,-59.9981C239.508,-59.3088 242.3,-58.6349 245,-58 312.177,-42.2055 391.456,-25.7236 433.778,-17.097"/>
<polygon fill="midnightblue" stroke="midnightblue" points="434.609,-20.4998 443.712,-15.0783 433.215,-13.64 434.609,-20.4998"/>
</g>
<!-- Node10 -->
<g id="node21" class="node"><title>Node10</title>
<polygon fill="white" stroke="#bfbfbf" points="115.5,-1 115.5,-21 164.5,-21 164.5,-1 115.5,-1"/>
<text text-anchor="middle" x="140" y="-8" font-family="FreeSans" font-size="10.00">fstream</text>
</g>
<!-- Node9&#45;&gt;Node10 -->
<g id="edge22" class="edge"><title>Node9&#45;&gt;Node10</title>
<path fill="none" stroke="midnightblue" d="M191.2,-58.8972C182.243,-50.5175 169.3,-38.4093 158.668,-28.4638"/>
<polygon fill="midnightblue" stroke="midnightblue" points="160.787,-25.6532 151.093,-21.3776 156.005,-30.7652 160.787,-25.6532"/>
</g>
<!-- Node11 -->
<g id="node23" class="node"><title>Node11</title>
<polygon fill="white" stroke="#bfbfbf" points="182,-1 182,-21 240,-21 240,-1 182,-1"/>
<text text-anchor="middle" x="211" y="-8" font-family="FreeSans" font-size="10.00">exception</text>
</g>
<!-- Node9&#45;&gt;Node11 -->
<g id="edge24" class="edge"><title>Node9&#45;&gt;Node11</title>
<path fill="none" stroke="midnightblue" d="M203.568,-58.8972C204.74,-51.339 206.384,-40.7476 207.827,-31.4458"/>
<polygon fill="midnightblue" stroke="midnightblue" points="211.315,-31.7961 209.39,-21.3776 204.398,-30.7226 211.315,-31.7961"/>
</g>
<!-- Node12 -->
<g id="node25" class="node"><title>Node12</title>
<polygon fill="white" stroke="#bfbfbf" points="257.5,-1 257.5,-21 346.5,-21 346.5,-1 257.5,-1"/>
<text text-anchor="middle" x="302" y="-8" font-family="FreeSans" font-size="10.00">boost/format.hpp</text>
</g>
<!-- Node9&#45;&gt;Node12 -->
<g id="edge26" class="edge"><title>Node9&#45;&gt;Node12</title>
<path fill="none" stroke="midnightblue" d="M219.419,-58.8972C234.953,-49.8871 257.92,-36.5665 275.692,-26.2586"/>
<polygon fill="midnightblue" stroke="midnightblue" points="277.551,-29.2265 284.445,-21.1817 274.039,-23.1713 277.551,-29.2265"/>
</g>
<!-- Node15 -->
<g id="node31" class="node"><title>Node15</title>
<a xlink:href="readConfig_8h.html" target="_top" xlink:title="readConfig.h">
<polygon fill="white" stroke="black" points="351,-175 351,-195 421,-195 421,-175 351,-175"/>
<text text-anchor="middle" x="386" y="-182" font-family="FreeSans" font-size="10.00">readConfig.h</text>
</a>
</g>
<!-- Node14&#45;&gt;Node15 -->
<g id="edge32" class="edge"><title>Node14&#45;&gt;Node15</title>
<path fill="none" stroke="midnightblue" d="M370.31,-232.897C372.812,-225.257 376.331,-214.517 379.401,-205.143"/>
<polygon fill="midnightblue" stroke="midnightblue" points="382.813,-205.97 382.6,-195.378 376.161,-203.791 382.813,-205.97"/>
</g>
<!-- Node15&#45;&gt;Node2 -->
<g id="edge34" class="edge"><title>Node15&#45;&gt;Node2</title>
<path fill="none" stroke="midnightblue" d="M365.969,-174.897C347.776,-165.722 320.72,-152.076 300.135,-141.694"/>
<polygon fill="midnightblue" stroke="midnightblue" points="301.693,-138.56 291.188,-137.182 298.54,-144.81 301.693,-138.56"/>
</g>
<!-- Node15&#45;&gt;Node7 -->
<g id="edge36" class="edge"><title>Node15&#45;&gt;Node7</title>
<path fill="none" stroke="midnightblue" d="M397.473,-174.768C415.942,-157.437 451.551,-120.244 465,-80 470.273,-64.22 469.531,-45.255 467.748,-31.2044"/>
<polygon fill="midnightblue" stroke="midnightblue" points="471.179,-30.491 466.19,-21.1445 464.262,-31.5624 471.179,-30.491"/>
</g>
<!-- Node16&#45;&gt;Node2 -->
<g id="edge40" class="edge"><title>Node16&#45;&gt;Node2</title>
<path fill="none" stroke="midnightblue" d="M295.774,-174.897C291.738,-167.093 286.028,-156.054 281.107,-146.54"/>
<polygon fill="midnightblue" stroke="midnightblue" points="284.071,-144.652 276.368,-137.378 277.853,-147.868 284.071,-144.652"/>
</g>
</g>
</svg>
