<?xml version="1.0" encoding="UTF-8" standalone="no"?>
<!DOCTYPE svg PUBLIC "-//W3C//DTD SVG 1.1//EN"
 "http://www.w3.org/Graphics/SVG/1.1/DTD/svg11.dtd">
<!-- Generated by graphviz version 2.38.0 (20140413.2041)
 -->
<!-- Title: src/diffusionSystem.h Pages: 1 -->
<svg width="239pt" height="140pt"
 viewBox="0.00 0.00 239.00 140.00" xmlns="http://www.w3.org/2000/svg" xmlns:xlink="http://www.w3.org/1999/xlink">
<g id="graph0" class="graph" transform="scale(1 1) rotate(0) translate(4 136)">
<title>src/diffusionSystem.h</title>
<polygon fill="white" stroke="none" points="-4,4 -4,-136 235,-136 235,4 -4,4"/>
<!-- Node1 -->
<g id="node1" class="node"><title>Node1</title>
<polygon fill="#bfbfbf" stroke="black" points="66,-112.5 66,-131.5 173,-131.5 173,-112.5 66,-112.5"/>
<text text-anchor="middle" x="119.5" y="-119.5" font-family="FreeSans" font-size="10.00">src/diffusionSystem.h</text>
</g>
<!-- Node2 -->
<g id="node2" class="node"><title>Node2</title>
<g id="a_node2"><a xlink:href="diffusionSystem_8cpp.html" target="_top" xlink:title="src/diffusionSystem.cpp">
<polygon fill="white" stroke="black" points="0,-56.5 0,-75.5 117,-75.5 117,-56.5 0,-56.5"/>
<text text-anchor="middle" x="58.5" y="-63.5" font-family="FreeSans" font-size="10.00">src/diffusionSystem.cpp</text>
</a>
</g>
</g>
<!-- Node1&#45;&gt;Node2 -->
<g id="edge1" class="edge"><title>Node1&#45;&gt;Node2</title>
<path fill="none" stroke="midnightblue" d="M102.033,-105.537C91.1562,-95.9087 77.5561,-83.8694 68.479,-75.8339"/>
<polygon fill="midnightblue" stroke="midnightblue" points="99.8917,-108.316 109.699,-112.324 104.532,-103.075 99.8917,-108.316"/>
</g>
<!-- Node3 -->
<g id="node3" class="node"><title>Node3</title>
<g id="a_node3"><a xlink:href="flameSolver_8h.html" target="_top" xlink:title="src/flameSolver.h">
<polygon fill="white" stroke="black" points="135.5,-56.5 135.5,-75.5 225.5,-75.5 225.5,-56.5 135.5,-56.5"/>
<text text-anchor="middle" x="180.5" y="-63.5" font-family="FreeSans" font-size="10.00">src/flameSolver.h</text>
</a>
</g>
</g>
<!-- Node1&#45;&gt;Node3 -->
<g id="edge2" class="edge"><title>Node1&#45;&gt;Node3</title>
<path fill="none" stroke="midnightblue" d="M136.967,-105.537C147.844,-95.9087 161.444,-83.8694 170.521,-75.8339"/>
<polygon fill="midnightblue" stroke="midnightblue" points="134.468,-103.075 129.301,-112.324 139.108,-108.316 134.468,-103.075"/>
</g>
<!-- Node4 -->
<g id="node4" class="node"><title>Node4</title>
<g id="a_node4"><a xlink:href="flameSolver_8cpp.html" target="_top" xlink:title="src/flameSolver.cpp">
<polygon fill="white" stroke="black" points="130,-0.5 130,-19.5 231,-19.5 231,-0.5 130,-0.5"/>
<text text-anchor="middle" x="180.5" y="-7.5" font-family="FreeSans" font-size="10.00">src/flameSolver.cpp</text>
</a>
</g>
</g>
<!-- Node3&#45;&gt;Node4 -->
<g id="edge3" class="edge"><title>Node3&#45;&gt;Node4</title>
<path fill="none" stroke="midnightblue" d="M180.5,-45.8045C180.5,-36.9102 180.5,-26.7798 180.5,-19.7511"/>
<polygon fill="midnightblue" stroke="midnightblue" points="177,-46.083 180.5,-56.083 184,-46.083 177,-46.083"/>
</g>
</g>
</svg>
