<?xml version="1.0" encoding="UTF-8" standalone="no"?>
<!DOCTYPE svg PUBLIC "-//W3C//DTD SVG 1.1//EN"
 "http://www.w3.org/Graphics/SVG/1.1/DTD/svg11.dtd">
<!-- Generated by graphviz version 2.28.0 (20120425.2022)
 -->
<!-- Title: src/diffusionSystem.h Pages: 1 -->
<svg width="508pt" height="308pt"
 viewBox="0.00 0.00 508.00 308.00" xmlns="http://www.w3.org/2000/svg" xmlns:xlink="http://www.w3.org/1999/xlink">
<g id="graph1" class="graph" transform="scale(1 1) rotate(0) translate(4 304)">
<title>src/diffusionSystem.h</title>
<polygon fill="white" stroke="white" points="-4,5 -4,-304 505,-304 505,5 -4,5"/>
<!-- Node1 -->
<g id="node1" class="node"><title>Node1</title>
<polygon fill="#bfbfbf" stroke="black" points="254.5,-280.5 254.5,-299.5 365.5,-299.5 365.5,-280.5 254.5,-280.5"/>
<text text-anchor="middle" x="310" y="-287.5" font-family="FreeSans" font-size="10.00">src/diffusionSystem.h</text>
</g>
<!-- Node2 -->
<g id="node3" class="node"><title>Node2</title>
<a xlink:href="mathUtils_8h.html" target="_top" xlink:title="mathUtils.h">
<polygon fill="white" stroke="black" points="246.5,-112.5 246.5,-131.5 311.5,-131.5 311.5,-112.5 246.5,-112.5"/>
<text text-anchor="middle" x="279" y="-119.5" font-family="FreeSans" font-size="10.00">mathUtils.h</text>
</a>
</g>
<!-- Node1&#45;&gt;Node2 -->
<g id="edge2" class="edge"><title>Node1&#45;&gt;Node2</title>
<path fill="none" stroke="midnightblue" d="M305.072,-280.454C295.613,-263.502 275.212,-224.128 268,-188 264.884,-172.392 268.399,-154.561 272.261,-141.527"/>
<polygon fill="midnightblue" stroke="midnightblue" points="275.64,-142.455 275.448,-131.862 268.992,-140.263 275.64,-142.455"/>
</g>
<!-- Node11 -->
<g id="node23" class="node"><title>Node11</title>
<a xlink:href="grid_8h.html" target="_top" xlink:title="grid.h">
<polygon fill="white" stroke="black" points="357.5,-224.5 357.5,-243.5 398.5,-243.5 398.5,-224.5 357.5,-224.5"/>
<text text-anchor="middle" x="378" y="-231.5" font-family="FreeSans" font-size="10.00">grid.h</text>
</a>
</g>
<!-- Node1&#45;&gt;Node11 -->
<g id="edge24" class="edge"><title>Node1&#45;&gt;Node11</title>
<path fill="none" stroke="midnightblue" d="M320.925,-280.324C331.175,-272.185 346.721,-259.839 359.001,-250.087"/>
<polygon fill="midnightblue" stroke="midnightblue" points="361.221,-252.794 366.876,-243.834 356.868,-247.312 361.221,-252.794"/>
</g>
<!-- Node13 -->
<g id="node29" class="node"><title>Node13</title>
<a xlink:href="integrator_8h.html" target="_top" xlink:title="integrator.h">
<polygon fill="white" stroke="black" points="277,-168.5 277,-187.5 343,-187.5 343,-168.5 277,-168.5"/>
<text text-anchor="middle" x="310" y="-175.5" font-family="FreeSans" font-size="10.00">integrator.h</text>
</a>
</g>
<!-- Node1&#45;&gt;Node13 -->
<g id="edge32" class="edge"><title>Node1&#45;&gt;Node13</title>
<path fill="none" stroke="midnightblue" d="M310,-280.368C310,-262.617 310,-221.666 310,-197.597"/>
<polygon fill="midnightblue" stroke="midnightblue" points="313.5,-197.591 310,-187.591 306.5,-197.591 313.5,-197.591"/>
</g>
<!-- Node3 -->
<g id="node5" class="node"><title>Node3</title>
<polygon fill="white" stroke="#bfbfbf" points="408,-56.5 408,-75.5 452,-75.5 452,-56.5 408,-56.5"/>
<text text-anchor="middle" x="430" y="-63.5" font-family="FreeSans" font-size="10.00">vector</text>
</g>
<!-- Node2&#45;&gt;Node3 -->
<g id="edge4" class="edge"><title>Node2&#45;&gt;Node3</title>
<path fill="none" stroke="midnightblue" d="M302.926,-112.444C328.665,-103.239 369.722,-88.5565 398.171,-78.3826"/>
<polygon fill="midnightblue" stroke="midnightblue" points="399.425,-81.6513 407.662,-74.9883 397.068,-75.0601 399.425,-81.6513"/>
</g>
<!-- Node4 -->
<g id="node7" class="node"><title>Node4</title>
<polygon fill="white" stroke="#bfbfbf" points="0,-56.5 0,-75.5 44,-75.5 44,-56.5 0,-56.5"/>
<text text-anchor="middle" x="22" y="-63.5" font-family="FreeSans" font-size="10.00">cmath</text>
</g>
<!-- Node2&#45;&gt;Node4 -->
<g id="edge6" class="edge"><title>Node2&#45;&gt;Node4</title>
<path fill="none" stroke="midnightblue" d="M246.326,-114.814C203.112,-106.527 124.635,-91.1058 58,-76 56.7277,-75.7116 55.4314,-75.4125 54.123,-75.1062"/>
<polygon fill="midnightblue" stroke="midnightblue" points="54.5899,-71.6185 44.048,-72.6754 52.9481,-78.4232 54.5899,-71.6185"/>
</g>
<!-- Node5 -->
<g id="node9" class="node"><title>Node5</title>
<polygon fill="white" stroke="#bfbfbf" points="112,-0.5 112,-19.5 168,-19.5 168,-0.5 112,-0.5"/>
<text text-anchor="middle" x="140" y="-7.5" font-family="FreeSans" font-size="10.00">iostream</text>
</g>
<!-- Node2&#45;&gt;Node5 -->
<g id="edge8" class="edge"><title>Node2&#45;&gt;Node5</title>
<path fill="none" stroke="midnightblue" d="M246.497,-117.991C197.915,-112.745 110.019,-100.109 91,-76 77.399,-58.7592 98.3631,-38.4998 116.942,-25.2386"/>
<polygon fill="midnightblue" stroke="midnightblue" points="119.11,-27.9982 125.443,-19.5044 115.195,-22.195 119.11,-27.9982"/>
</g>
<!-- Node6 -->
<g id="node11" class="node"><title>Node6</title>
<polygon fill="white" stroke="#bfbfbf" points="100.5,-56.5 100.5,-75.5 153.5,-75.5 153.5,-56.5 100.5,-56.5"/>
<text text-anchor="middle" x="127" y="-63.5" font-family="FreeSans" font-size="10.00">sstream</text>
</g>
<!-- Node2&#45;&gt;Node6 -->
<g id="edge10" class="edge"><title>Node2&#45;&gt;Node6</title>
<path fill="none" stroke="midnightblue" d="M254.915,-112.444C229.455,-103.399 189.106,-89.064 160.541,-78.9158"/>
<polygon fill="midnightblue" stroke="midnightblue" points="161.567,-75.5661 150.972,-75.5164 159.223,-82.1622 161.567,-75.5661"/>
</g>
<!-- Node7 -->
<g id="node13" class="node"><title>Node7</title>
<polygon fill="white" stroke="#bfbfbf" points="459.5,-0.5 459.5,-19.5 500.5,-19.5 500.5,-0.5 459.5,-0.5"/>
<text text-anchor="middle" x="480" y="-7.5" font-family="FreeSans" font-size="10.00">string</text>
</g>
<!-- Node2&#45;&gt;Node7 -->
<g id="edge12" class="edge"><title>Node2&#45;&gt;Node7</title>
<path fill="none" stroke="midnightblue" d="M311.79,-116.754C357.95,-110.143 438.836,-96.0341 460,-76 472.584,-64.0874 477.313,-44.4699 479.057,-29.8974"/>
<polygon fill="midnightblue" stroke="midnightblue" points="482.578,-29.7889 479.909,-19.5356 475.601,-29.2152 482.578,-29.7889"/>
</g>
<!-- Node8 -->
<g id="node15" class="node"><title>Node8</title>
<polygon fill="white" stroke="#bfbfbf" points="261,-56.5 261,-75.5 297,-75.5 297,-56.5 261,-56.5"/>
<text text-anchor="middle" x="279" y="-63.5" font-family="FreeSans" font-size="10.00">map</text>
</g>
<!-- Node2&#45;&gt;Node8 -->
<g id="edge14" class="edge"><title>Node2&#45;&gt;Node8</title>
<path fill="none" stroke="midnightblue" d="M279,-112.083C279,-105.006 279,-94.8611 279,-85.9865"/>
<polygon fill="midnightblue" stroke="midnightblue" points="282.5,-85.751 279,-75.7511 275.5,-85.7511 282.5,-85.751"/>
</g>
<!-- Node9 -->
<g id="node17" class="node"><title>Node9</title>
<a xlink:href="debugUtils_8h.html" target="_top" xlink:title="debugUtils.h">
<polygon fill="white" stroke="red" points="171.5,-56.5 171.5,-75.5 242.5,-75.5 242.5,-56.5 171.5,-56.5"/>
<text text-anchor="middle" x="207" y="-63.5" font-family="FreeSans" font-size="10.00">debugUtils.h</text>
</a>
</g>
<!-- Node2&#45;&gt;Node9 -->
<g id="edge16" class="edge"><title>Node2&#45;&gt;Node9</title>
<path fill="none" stroke="midnightblue" d="M267.432,-112.324C256.58,-104.185 240.119,-91.8395 227.117,-82.0874"/>
<polygon fill="midnightblue" stroke="midnightblue" points="228.879,-79.0339 218.779,-75.8339 224.679,-84.6339 228.879,-79.0339"/>
</g>
<!-- Node10 -->
<g id="node21" class="node"><title>Node10</title>
<polygon fill="white" stroke="#bfbfbf" points="315.5,-56.5 315.5,-75.5 390.5,-75.5 390.5,-56.5 315.5,-56.5"/>
<text text-anchor="middle" x="353" y="-63.5" font-family="FreeSans" font-size="10.00">Eigen/Dense</text>
</g>
<!-- Node2&#45;&gt;Node10 -->
<g id="edge22" class="edge"><title>Node2&#45;&gt;Node10</title>
<path fill="none" stroke="midnightblue" d="M290.889,-112.324C302.15,-104.107 319.287,-91.6017 332.709,-81.8069"/>
<polygon fill="midnightblue" stroke="midnightblue" points="334.88,-84.5559 340.894,-75.8339 330.753,-78.9014 334.88,-84.5559"/>
</g>
<!-- Node9&#45;&gt;Node5 -->
<g id="edge20" class="edge"><title>Node9&#45;&gt;Node5</title>
<path fill="none" stroke="midnightblue" d="M196.235,-56.324C186.234,-48.2631 171.113,-36.0765 159.07,-26.3695"/>
<polygon fill="midnightblue" stroke="midnightblue" points="160.943,-23.3841 150.961,-19.8339 156.55,-28.8343 160.943,-23.3841"/>
</g>
<!-- Node9&#45;&gt;Node7 -->
<g id="edge18" class="edge"><title>Node9&#45;&gt;Node7</title>
<path fill="none" stroke="midnightblue" d="M242.86,-57.8196C245.951,-57.2031 249.031,-56.59 252,-56 322.559,-41.9811 405.431,-25.6612 449.238,-17.0458"/>
<polygon fill="midnightblue" stroke="midnightblue" points="450.111,-20.4411 459.248,-15.0775 448.761,-13.5727 450.111,-20.4411"/>
</g>
<!-- Node12 -->
<g id="node25" class="node"><title>Node12</title>
<a xlink:href="readConfig_8h.html" target="_top" xlink:title="readConfig.h">
<polygon fill="white" stroke="black" points="361,-168.5 361,-187.5 435,-187.5 435,-168.5 361,-168.5"/>
<text text-anchor="middle" x="398" y="-175.5" font-family="FreeSans" font-size="10.00">readConfig.h</text>
</a>
</g>
<!-- Node11&#45;&gt;Node12 -->
<g id="edge26" class="edge"><title>Node11&#45;&gt;Node12</title>
<path fill="none" stroke="midnightblue" d="M381.303,-224.083C383.982,-216.849 387.849,-206.409 391.186,-197.397"/>
<polygon fill="midnightblue" stroke="midnightblue" points="394.568,-198.344 394.759,-187.751 388.004,-195.913 394.568,-198.344"/>
</g>
<!-- Node12&#45;&gt;Node2 -->
<g id="edge28" class="edge"><title>Node12&#45;&gt;Node2</title>
<path fill="none" stroke="midnightblue" d="M379.144,-168.444C359.734,-159.636 329.27,-145.812 307.035,-135.722"/>
<polygon fill="midnightblue" stroke="midnightblue" points="308.32,-132.462 297.768,-131.516 305.428,-138.836 308.32,-132.462"/>
</g>
<!-- Node12&#45;&gt;Node7 -->
<g id="edge30" class="edge"><title>Node12&#45;&gt;Node7</title>
<path fill="none" stroke="midnightblue" d="M408.679,-168.386C427.431,-152.489 465.65,-116.443 480,-76 485.254,-61.194 484.793,-43.2684 483.28,-29.9949"/>
<polygon fill="midnightblue" stroke="midnightblue" points="486.69,-29.1201 481.796,-19.7233 479.762,-30.121 486.69,-29.1201"/>
</g>
<!-- Node13&#45;&gt;Node2 -->
<g id="edge34" class="edge"><title>Node13&#45;&gt;Node2</title>
<path fill="none" stroke="midnightblue" d="M304.881,-168.083C300.592,-160.613 294.342,-149.724 289.058,-140.52"/>
<polygon fill="midnightblue" stroke="midnightblue" points="292.038,-138.681 284.024,-131.751 285.967,-142.166 292.038,-138.681"/>
</g>
</g>
</svg>
