<?xml version="1.0" encoding="UTF-8" standalone="no"?>
<!DOCTYPE svg PUBLIC "-//W3C//DTD SVG 1.1//EN"
 "http://www.w3.org/Graphics/SVG/1.1/DTD/svg11.dtd">
<!-- Generated by graphviz version 2.28.0 (20120425.2022)
 -->
<!-- Title: G Pages: 1 -->
<svg width="243pt" height="196pt"
 viewBox="0.00 0.00 242.66 196.00" xmlns="http://www.w3.org/2000/svg" xmlns:xlink="http://www.w3.org/1999/xlink">
<g id="graph1" class="graph" transform="scale(1 1) rotate(0) translate(4 192)">
<title>G</title>
<polygon fill="white" stroke="white" points="-4,5 -4,-192 239.664,-192 239.664,5 -4,5"/>
<!-- Node1 -->
<g id="node1" class="node"><title>Node1</title>
<polygon fill="#bfbfbf" stroke="black" points="75.6637,-168.5 75.6637,-187.5 197.664,-187.5 197.664,-168.5 75.6637,-168.5"/>
<text text-anchor="middle" x="136.664" y="-175.5" font-family="FreeSans" font-size="10.00">src/diffusionSystem.cpp</text>
</g>
<!-- Node2 -->
<g id="node3" class="node"><title>Node2</title>
<a xlink:href="diffusionSystem_8h.html" target="_top" xlink:title="diffusionSystem.h">
<polygon fill="white" stroke="black" points="43.1637,-112.5 43.1637,-131.5 138.164,-131.5 138.164,-112.5 43.1637,-112.5"/>
<text text-anchor="middle" x="90.6637" y="-119.5" font-family="FreeSans" font-size="10.00">diffusionSystem.h</text>
</a>
</g>
<!-- Node1&#45;&gt;Node2 -->
<g id="edge2" class="edge"><title>Node1&#45;&gt;Node2</title>
<path fill="none" stroke="midnightblue" d="M129.068,-168.083C122.436,-160.298 112.643,-148.801 104.606,-139.367"/>
<polygon fill="midnightblue" stroke="midnightblue" points="107.267,-137.094 98.1183,-131.751 101.939,-141.633 107.267,-137.094"/>
</g>
<!-- Node7 -->
<g id="node15" class="node"><title>Node7</title>
<polygon fill="white" stroke="#bfbfbf" points="156.664,-112.5 156.664,-131.5 208.664,-131.5 208.664,-112.5 156.664,-112.5"/>
<text text-anchor="middle" x="182.664" y="-119.5" font-family="FreeSans" font-size="10.00">assert.h</text>
</g>
<!-- Node1&#45;&gt;Node7 -->
<g id="edge16" class="edge"><title>Node1&#45;&gt;Node7</title>
<path fill="none" stroke="midnightblue" d="M144.26,-168.083C150.891,-160.298 160.685,-148.801 168.722,-139.367"/>
<polygon fill="midnightblue" stroke="midnightblue" points="171.389,-141.633 175.209,-131.751 166.06,-137.094 171.389,-141.633"/>
</g>
<!-- Node3 -->
<g id="node5" class="node"><title>Node3</title>
<a xlink:href="mathUtils_8h.html" target="_top" xlink:title="mathUtils.h">
<polygon fill="white" stroke="red" points="19.1637,-0.5 19.1637,-19.5 84.1637,-19.5 84.1637,-0.5 19.1637,-0.5"/>
<text text-anchor="middle" x="51.6637" y="-7.5" font-family="FreeSans" font-size="10.00">mathUtils.h</text>
</a>
</g>
<!-- Node2&#45;&gt;Node3 -->
<g id="edge4" class="edge"><title>Node2&#45;&gt;Node3</title>
<path fill="none" stroke="midnightblue" d="M55.6509,-112.445C36.7299,-105.844 14.9799,-94.5936 3.66369,-76 -7.42986,-57.7723 11.6059,-38.2575 28.8832,-25.4204"/>
<polygon fill="midnightblue" stroke="midnightblue" points="30.8916,-28.2869 37.0838,-19.6899 26.882,-22.549 30.8916,-28.2869"/>
</g>
<!-- Node4 -->
<g id="node7" class="node"><title>Node4</title>
<a xlink:href="chemistry0d_8h.html" target="_top" xlink:title="chemistry0d.h">
<polygon fill="white" stroke="red" points="12.6637,-56.5 12.6637,-75.5 90.6637,-75.5 90.6637,-56.5 12.6637,-56.5"/>
<text text-anchor="middle" x="51.6637" y="-63.5" font-family="FreeSans" font-size="10.00">chemistry0d.h</text>
</a>
</g>
<!-- Node2&#45;&gt;Node4 -->
<g id="edge6" class="edge"><title>Node2&#45;&gt;Node4</title>
<path fill="none" stroke="midnightblue" d="M84.2236,-112.083C78.7148,-104.455 70.6325,-93.2645 63.8987,-83.9408"/>
<polygon fill="midnightblue" stroke="midnightblue" points="66.6762,-81.8087 57.9839,-75.7511 61.0015,-85.9071 66.6762,-81.8087"/>
</g>
<!-- Node5 -->
<g id="node10" class="node"><title>Node5</title>
<a xlink:href="grid_8h.html" target="_top" xlink:title="grid.h">
<polygon fill="white" stroke="red" points="109.164,-56.5 109.164,-75.5 150.164,-75.5 150.164,-56.5 109.164,-56.5"/>
<text text-anchor="middle" x="129.664" y="-63.5" font-family="FreeSans" font-size="10.00">grid.h</text>
</a>
</g>
<!-- Node2&#45;&gt;Node5 -->
<g id="edge10" class="edge"><title>Node2&#45;&gt;Node5</title>
<path fill="none" stroke="midnightblue" d="M97.1038,-112.083C102.613,-104.455 110.695,-93.2645 117.429,-83.9408"/>
<polygon fill="midnightblue" stroke="midnightblue" points="120.326,-85.9071 123.343,-75.7511 114.651,-81.8087 120.326,-85.9071"/>
</g>
<!-- Node6 -->
<g id="node12" class="node"><title>Node6</title>
<a xlink:href="integrator_8h.html" target="_top" xlink:title="integrator.h">
<polygon fill="white" stroke="black" points="168.664,-56.5 168.664,-75.5 234.664,-75.5 234.664,-56.5 168.664,-56.5"/>
<text text-anchor="middle" x="201.664" y="-63.5" font-family="FreeSans" font-size="10.00">integrator.h</text>
</a>
</g>
<!-- Node2&#45;&gt;Node6 -->
<g id="edge12" class="edge"><title>Node2&#45;&gt;Node6</title>
<path fill="none" stroke="midnightblue" d="M108.498,-112.324C126.38,-103.625 154.139,-90.1202 174.709,-80.113"/>
<polygon fill="midnightblue" stroke="midnightblue" points="176.413,-83.1765 183.874,-75.6545 173.35,-76.8819 176.413,-83.1765"/>
</g>
<!-- Node4&#45;&gt;Node3 -->
<g id="edge8" class="edge"><title>Node4&#45;&gt;Node3</title>
<path fill="none" stroke="midnightblue" d="M51.6637,-56.083C51.6637,-49.0059 51.6637,-38.8611 51.6637,-29.9865"/>
<polygon fill="midnightblue" stroke="midnightblue" points="55.1638,-29.751 51.6637,-19.7511 48.1638,-29.7511 55.1638,-29.751"/>
</g>
<!-- Node6&#45;&gt;Node3 -->
<g id="edge14" class="edge"><title>Node6&#45;&gt;Node3</title>
<path fill="none" stroke="midnightblue" d="M177.896,-56.4435C152.771,-47.3986 112.953,-33.064 84.7633,-22.9158"/>
<polygon fill="midnightblue" stroke="midnightblue" points="85.9149,-19.6106 75.3204,-19.5164 83.5438,-26.1968 85.9149,-19.6106"/>
</g>
</g>
</svg>
