<?xml version="1.0" encoding="UTF-8" standalone="no"?>
<!DOCTYPE svg PUBLIC "-//W3C//DTD SVG 1.1//EN"
 "http://www.w3.org/Graphics/SVG/1.1/DTD/svg11.dtd">
<!-- Generated by graphviz version 8.1.0 (20230707.2238)
 -->
<!-- Title: src/diffusionSystem.h Pages: 1 -->
<svg width="718pt" height="313pt"
 viewBox="0.00 0.00 718.46 312.50" xmlns="http://www.w3.org/2000/svg" xmlns:xlink="http://www.w3.org/1999/xlink">
<g id="graph0" class="graph" transform="scale(1 1) rotate(0) translate(4 308.5)">
<title>src/diffusionSystem.h</title>
<!-- Node1 -->
<g id="Node000001" class="node">
<title>Node1</title>
<g id="a_Node000001"><a xlink:title=" ">
<polygon fill="#999999" stroke="#666666" points="407.88,-304.5 286.88,-304.5 286.88,-283.75 407.88,-283.75 407.88,-304.5"/>
<text text-anchor="middle" x="347.38" y="-291" font-family="FreeSans" font-size="10.00">src/diffusionSystem.h</text>
</a>
</g>
</g>
<!-- Node2 -->
<g id="Node000002" class="node">
<title>Node2</title>
<g id="a_Node000002"><a xlink:href="mathUtils_8h.html" target="_top" xlink:title=" ">
<polygon fill="white" stroke="#666666" points="351.88,-134.25 278.88,-134.25 278.88,-113.5 351.88,-113.5 351.88,-134.25"/>
<text text-anchor="middle" x="315.38" y="-120.75" font-family="FreeSans" font-size="10.00">mathUtils.h</text>
</a>
</g>
</g>
<!-- Node1&#45;&gt;Node2 -->
<g id="edge1_Node000001_Node000002" class="edge">
<title>Node1&#45;&gt;Node2</title>
<g id="a_edge1_Node000001_Node000002"><a xlink:title=" ">
<path fill="none" stroke="#63b8ff" d="M341.46,-283.44C331.07,-265.83 309.96,-227.02 302.38,-191 299.09,-175.42 302.98,-157.71 307.33,-144.54"/>
<polygon fill="#63b8ff" stroke="#63b8ff" points="310.93,-145.9 311.12,-135.31 304.37,-143.47 310.93,-145.9"/>
</a>
</g>
</g>
<!-- Node15 -->
<g id="Node000015" class="node">
<title>Node15</title>
<g id="a_Node000015"><a xlink:href="grid_8h.html" target="_top" xlink:title=" ">
<polygon fill="white" stroke="#666666" points="440.25,-247.75 396.5,-247.75 396.5,-227 440.25,-227 440.25,-247.75"/>
<text text-anchor="middle" x="418.38" y="-234.25" font-family="FreeSans" font-size="10.00">grid.h</text>
</a>
</g>
</g>
<!-- Node1&#45;&gt;Node15 -->
<g id="edge16_Node000001_Node000015" class="edge">
<title>Node1&#45;&gt;Node15</title>
<g id="a_edge16_Node000001_Node000015"><a xlink:title=" ">
<path fill="none" stroke="#63b8ff" d="M360.07,-283.34C370.37,-275.4 385.11,-264.03 397.19,-254.71"/>
<polygon fill="#63b8ff" stroke="#63b8ff" points="399.01,-256.96 404.79,-248.08 394.74,-251.41 399.01,-256.96"/>
</a>
</g>
</g>
<!-- Node17 -->
<g id="Node000017" class="node">
<title>Node17</title>
<g id="a_Node000017"><a xlink:href="integrator_8h.html" target="_top" xlink:title=" ">
<polygon fill="white" stroke="#666666" points="383.5,-191 311.25,-191 311.25,-170.25 383.5,-170.25 383.5,-191"/>
<text text-anchor="middle" x="347.38" y="-177.5" font-family="FreeSans" font-size="10.00">integrator.h</text>
</a>
</g>
</g>
<!-- Node1&#45;&gt;Node17 -->
<g id="edge20_Node000001_Node000017" class="edge">
<title>Node1&#45;&gt;Node17</title>
<g id="a_edge20_Node000001_Node000017"><a xlink:title=" ">
<path fill="none" stroke="#63b8ff" d="M347.38,-283.62C347.38,-265.69 347.38,-226.5 347.38,-202.26"/>
<polygon fill="#63b8ff" stroke="#63b8ff" points="350.88,-202.43 347.38,-192.43 343.88,-202.43 350.88,-202.43"/>
</a>
</g>
</g>
<!-- Node3 -->
<g id="Node000003" class="node">
<title>Node3</title>
<g id="a_Node000003"><a xlink:title=" ">
<polygon fill="#e0e0e0" stroke="#999999" points="688.75,-77.5 642,-77.5 642,-56.75 688.75,-56.75 688.75,-77.5"/>
<text text-anchor="middle" x="665.38" y="-64" font-family="FreeSans" font-size="10.00">vector</text>
</a>
</g>
</g>
<!-- Node2&#45;&gt;Node3 -->
<g id="edge2_Node000002_Node000003" class="edge">
<title>Node2&#45;&gt;Node3</title>
<g id="a_edge2_Node000002_Node000003"><a xlink:title=" ">
<path fill="none" stroke="#63b8ff" d="M352.27,-119.23C409.76,-113.18 524.35,-99.73 631.05,-77.52"/>
<polygon fill="#63b8ff" stroke="#63b8ff" points="631.62,-80.76 640.68,-75.27 630.17,-73.92 631.62,-80.76"/>
</a>
</g>
</g>
<!-- Node4 -->
<g id="Node000004" class="node">
<title>Node4</title>
<g id="a_Node000004"><a xlink:title=" ">
<polygon fill="#e0e0e0" stroke="#999999" points="46.75,-77.5 0,-77.5 0,-56.75 46.75,-56.75 46.75,-77.5"/>
<text text-anchor="middle" x="23.38" y="-64" font-family="FreeSans" font-size="10.00">cmath</text>
</a>
</g>
</g>
<!-- Node2&#45;&gt;Node4 -->
<g id="edge3_Node000002_Node000004" class="edge">
<title>Node2&#45;&gt;Node4</title>
<g id="a_edge3_Node000002_Node000004"><a xlink:title=" ">
<path fill="none" stroke="#63b8ff" d="M278.47,-117.17C228.74,-109.27 137.52,-94.11 60.38,-77.5 59.44,-77.3 58.49,-77.09 57.54,-76.88"/>
<polygon fill="#63b8ff" stroke="#63b8ff" points="58.74,-73.33 48.2,-74.43 57.13,-80.14 58.74,-73.33"/>
</a>
</g>
</g>
<!-- Node5 -->
<g id="Node000005" class="node">
<title>Node5</title>
<g id="a_Node000005"><a xlink:title=" ">
<polygon fill="#e0e0e0" stroke="#999999" points="98.12,-20.75 38.62,-20.75 38.62,0 98.12,0 98.12,-20.75"/>
<text text-anchor="middle" x="68.38" y="-7.25" font-family="FreeSans" font-size="10.00">iostream</text>
</a>
</g>
</g>
<!-- Node2&#45;&gt;Node5 -->
<g id="edge4_Node000002_Node000005" class="edge">
<title>Node2&#45;&gt;Node5</title>
<g id="a_edge4_Node000002_Node000005"><a xlink:title=" ">
<path fill="none" stroke="#63b8ff" d="M278.66,-119.65C223,-114.07 120.85,-100.9 93.38,-77.5 79.96,-66.07 73.73,-46.66 70.84,-31.81"/>
<polygon fill="#63b8ff" stroke="#63b8ff" points="74.17,-31.47 69.17,-22.13 67.26,-32.55 74.17,-31.47"/>
</a>
</g>
</g>
<!-- Node6 -->
<g id="Node000006" class="node">
<title>Node6</title>
<g id="a_Node000006"><a xlink:title=" ">
<polygon fill="#e0e0e0" stroke="#999999" points="158.25,-77.5 102.5,-77.5 102.5,-56.75 158.25,-56.75 158.25,-77.5"/>
<text text-anchor="middle" x="130.38" y="-64" font-family="FreeSans" font-size="10.00">sstream</text>
</a>
</g>
</g>
<!-- Node2&#45;&gt;Node6 -->
<g id="edge5_Node000002_Node000006" class="edge">
<title>Node2&#45;&gt;Node6</title>
<g id="a_edge5_Node000002_Node000006"><a xlink:title=" ">
<path fill="none" stroke="#63b8ff" d="M282.3,-113.09C250.51,-103.68 202.48,-89.46 168.96,-79.54"/>
<polygon fill="#63b8ff" stroke="#63b8ff" points="170.2,-75.97 159.62,-76.48 168.22,-82.68 170.2,-75.97"/>
</a>
</g>
</g>
<!-- Node7 -->
<g id="Node000007" class="node">
<title>Node7</title>
<g id="a_Node000007"><a xlink:title=" ">
<polygon fill="#e0e0e0" stroke="#999999" points="432.25,-20.75 388.5,-20.75 388.5,0 432.25,0 432.25,-20.75"/>
<text text-anchor="middle" x="410.38" y="-7.25" font-family="FreeSans" font-size="10.00">string</text>
</a>
</g>
</g>
<!-- Node2&#45;&gt;Node7 -->
<g id="edge6_Node000002_Node000007" class="edge">
<title>Node2&#45;&gt;Node7</title>
<g id="a_edge6_Node000002_Node000007"><a xlink:title=" ">
<path fill="none" stroke="#63b8ff" d="M320.28,-113.29C327.41,-99.86 341.52,-75.04 357.38,-56.75 366.49,-46.24 378.09,-36.03 388.12,-27.96"/>
<polygon fill="#63b8ff" stroke="#63b8ff" points="390.03,-30.12 395.76,-21.21 385.73,-24.61 390.03,-30.12"/>
</a>
</g>
</g>
<!-- Node8 -->
<g id="Node000008" class="node">
<title>Node8</title>
<g id="a_Node000008"><a xlink:title=" ">
<polygon fill="#e0e0e0" stroke="#999999" points="310.25,-77.5 272.5,-77.5 272.5,-56.75 310.25,-56.75 310.25,-77.5"/>
<text text-anchor="middle" x="291.38" y="-64" font-family="FreeSans" font-size="10.00">map</text>
</a>
</g>
</g>
<!-- Node2&#45;&gt;Node8 -->
<g id="edge7_Node000002_Node000008" class="edge">
<title>Node2&#45;&gt;Node8</title>
<g id="a_edge7_Node000002_Node000008"><a xlink:title=" ">
<path fill="none" stroke="#63b8ff" d="M311.08,-113.09C308.01,-106.08 303.77,-96.41 300.01,-87.83"/>
<polygon fill="#63b8ff" stroke="#63b8ff" points="302.85,-86.58 295.63,-78.83 296.44,-89.39 302.85,-86.58"/>
</a>
</g>
</g>
<!-- Node9 -->
<g id="Node000009" class="node">
<title>Node9</title>
<g id="a_Node000009"><a xlink:href="debugUtils_8h.html" target="_top" xlink:title=" ">
<polygon fill="white" stroke="#666666" points="254.12,-77.5 176.62,-77.5 176.62,-56.75 254.12,-56.75 254.12,-77.5"/>
<text text-anchor="middle" x="215.38" y="-64" font-family="FreeSans" font-size="10.00">debugUtils.h</text>
</a>
</g>
</g>
<!-- Node2&#45;&gt;Node9 -->
<g id="edge8_Node000002_Node000009" class="edge">
<title>Node2&#45;&gt;Node9</title>
<g id="a_edge8_Node000002_Node000009"><a xlink:title=" ">
<path fill="none" stroke="#63b8ff" d="M297.5,-113.09C282.28,-104.76 260.18,-92.66 242.74,-83.11"/>
<polygon fill="#63b8ff" stroke="#63b8ff" points="244.55,-79.56 234.1,-77.83 241.19,-85.7 244.55,-79.56"/>
</a>
</g>
</g>
<!-- Node13 -->
<g id="Node000013" class="node">
<title>Node13</title>
<g id="a_Node000013"><a xlink:title=" ">
<polygon fill="#e0e0e0" stroke="#999999" points="492.5,-77.5 366.25,-77.5 366.25,-56.75 492.5,-56.75 492.5,-77.5"/>
<text text-anchor="middle" x="429.38" y="-64" font-family="FreeSans" font-size="10.00">cantera/base/ct_defs.h</text>
</a>
</g>
</g>
<!-- Node2&#45;&gt;Node13 -->
<g id="edge14_Node000002_Node000013" class="edge">
<title>Node2&#45;&gt;Node13</title>
<g id="a_edge14_Node000002_Node000013"><a xlink:title=" ">
<path fill="none" stroke="#63b8ff" d="M335.76,-113.09C353.43,-104.6 379.24,-92.2 399.29,-82.58"/>
<polygon fill="#63b8ff" stroke="#63b8ff" points="400.67,-85.31 408.17,-77.83 397.64,-79 400.67,-85.31"/>
</a>
</g>
</g>
<!-- Node14 -->
<g id="Node000014" class="node">
<title>Node14</title>
<g id="a_Node000014"><a xlink:title=" ">
<polygon fill="#e0e0e0" stroke="#999999" points="623.75,-77.5 511,-77.5 511,-56.75 623.75,-56.75 623.75,-77.5"/>
<text text-anchor="middle" x="567.38" y="-64" font-family="FreeSans" font-size="10.00">eigen3/Eigen/Dense</text>
</a>
</g>
</g>
<!-- Node2&#45;&gt;Node14 -->
<g id="edge15_Node000002_Node000014" class="edge">
<title>Node2&#45;&gt;Node14</title>
<g id="a_edge15_Node000002_Node000014"><a xlink:title=" ">
<path fill="none" stroke="#63b8ff" d="M352.29,-114.86C394.23,-105.74 463.14,-90.77 511.63,-80.24"/>
<polygon fill="#63b8ff" stroke="#63b8ff" points="512.24,-83.47 521.26,-77.93 510.75,-76.63 512.24,-83.47"/>
</a>
</g>
</g>
<!-- Node9&#45;&gt;Node5 -->
<g id="edge10_Node000009_Node000005" class="edge">
<title>Node9&#45;&gt;Node5</title>
<g id="a_edge10_Node000009_Node000005"><a xlink:title=" ">
<path fill="none" stroke="#63b8ff" d="M189.09,-56.34C165.58,-47.58 130.88,-34.65 104.71,-24.91"/>
<polygon fill="#63b8ff" stroke="#63b8ff" points="106.02,-21.29 95.43,-21.08 103.58,-27.85 106.02,-21.29"/>
</a>
</g>
</g>
<!-- Node9&#45;&gt;Node7 -->
<g id="edge9_Node000009_Node000007" class="edge">
<title>Node9&#45;&gt;Node7</title>
<g id="a_edge9_Node000009_Node000007"><a xlink:title=" ">
<path fill="none" stroke="#63b8ff" d="M251.92,-56.28C282.99,-47.85 329.05,-35.22 377.64,-21.21"/>
<polygon fill="#63b8ff" stroke="#63b8ff" points="378.41,-24.34 387.04,-18.2 376.46,-17.62 378.41,-24.34"/>
</a>
</g>
</g>
<!-- Node10 -->
<g id="Node000010" class="node">
<title>Node10</title>
<g id="a_Node000010"><a xlink:title=" ">
<polygon fill="#e0e0e0" stroke="#999999" points="170.5,-20.75 116.25,-20.75 116.25,0 170.5,0 170.5,-20.75"/>
<text text-anchor="middle" x="143.38" y="-7.25" font-family="FreeSans" font-size="10.00">fstream</text>
</a>
</g>
</g>
<!-- Node9&#45;&gt;Node10 -->
<g id="edge11_Node000009_Node000010" class="edge">
<title>Node9&#45;&gt;Node10</title>
<g id="a_edge11_Node000009_Node000010"><a xlink:title=" ">
<path fill="none" stroke="#63b8ff" d="M202.5,-56.34C192.06,-48.4 177.11,-37.03 164.86,-27.71"/>
<polygon fill="#63b8ff" stroke="#63b8ff" points="167.21,-24.35 157.14,-21.08 162.98,-29.92 167.21,-24.35"/>
</a>
</g>
</g>
<!-- Node11 -->
<g id="Node000011" class="node">
<title>Node11</title>
<g id="a_Node000011"><a xlink:title=" ">
<polygon fill="#e0e0e0" stroke="#999999" points="252.38,-20.75 188.38,-20.75 188.38,0 252.38,0 252.38,-20.75"/>
<text text-anchor="middle" x="220.38" y="-7.25" font-family="FreeSans" font-size="10.00">exception</text>
</a>
</g>
</g>
<!-- Node9&#45;&gt;Node11 -->
<g id="edge12_Node000009_Node000011" class="edge">
<title>Node9&#45;&gt;Node11</title>
<g id="a_edge12_Node000009_Node000011"><a xlink:title=" ">
<path fill="none" stroke="#63b8ff" d="M216.27,-56.34C216.89,-49.56 217.73,-40.3 218.5,-31.94"/>
<polygon fill="#63b8ff" stroke="#63b8ff" points="222.06,-32.36 219.49,-22.08 215.09,-31.72 222.06,-32.36"/>
</a>
</g>
</g>
<!-- Node12 -->
<g id="Node000012" class="node">
<title>Node12</title>
<g id="a_Node000012"><a xlink:title=" ">
<polygon fill="#e0e0e0" stroke="#999999" points="370.38,-20.75 270.38,-20.75 270.38,0 370.38,0 370.38,-20.75"/>
<text text-anchor="middle" x="320.38" y="-7.25" font-family="FreeSans" font-size="10.00">boost/format.hpp</text>
</a>
</g>
</g>
<!-- Node9&#45;&gt;Node12 -->
<g id="edge13_Node000009_Node000012" class="edge">
<title>Node9&#45;&gt;Node12</title>
<g id="a_edge13_Node000009_Node000012"><a xlink:title=" ">
<path fill="none" stroke="#63b8ff" d="M234.15,-56.34C250.27,-47.93 273.76,-35.68 292.15,-26.09"/>
<polygon fill="#63b8ff" stroke="#63b8ff" points="293.52,-28.81 300.77,-21.08 290.28,-22.6 293.52,-28.81"/>
</a>
</g>
</g>
<!-- Node16 -->
<g id="Node000016" class="node">
<title>Node16</title>
<g id="a_Node000016"><a xlink:href="readConfig_8h.html" target="_top" xlink:title=" ">
<polygon fill="white" stroke="#666666" points="479.12,-191 401.62,-191 401.62,-170.25 479.12,-170.25 479.12,-191"/>
<text text-anchor="middle" x="440.38" y="-177.5" font-family="FreeSans" font-size="10.00">readConfig.h</text>
</a>
</g>
</g>
<!-- Node15&#45;&gt;Node16 -->
<g id="edge17_Node000015_Node000016" class="edge">
<title>Node15&#45;&gt;Node16</title>
<g id="a_edge17_Node000015_Node000016"><a xlink:title=" ">
<path fill="none" stroke="#63b8ff" d="M422.31,-226.59C425.12,-219.58 429.01,-209.91 432.46,-201.33"/>
<polygon fill="#63b8ff" stroke="#63b8ff" points="435.99,-202.91 436.48,-192.33 429.5,-200.3 435.99,-202.91"/>
</a>
</g>
</g>
<!-- Node16&#45;&gt;Node2 -->
<g id="edge18_Node000016_Node000002" class="edge">
<title>Node16&#45;&gt;Node2</title>
<g id="a_edge18_Node000016_Node000002"><a xlink:title=" ">
<path fill="none" stroke="#63b8ff" d="M418.03,-169.84C398.39,-161.23 369.57,-148.61 347.46,-138.93"/>
<polygon fill="#63b8ff" stroke="#63b8ff" points="349.09,-135.38 338.53,-134.58 346.28,-141.8 349.09,-135.38"/>
</a>
</g>
</g>
<!-- Node16&#45;&gt;Node7 -->
<g id="edge19_Node000016_Node000007" class="edge">
<title>Node16&#45;&gt;Node7</title>
<g id="a_edge19_Node000016_Node000007"><a xlink:title=" ">
<path fill="none" stroke="#63b8ff" d="M479.48,-175.55C566.2,-165.06 762.02,-132.42 697.38,-56.75 665.01,-18.86 511.66,-12.43 443.34,-11.47"/>
<polygon fill="#63b8ff" stroke="#63b8ff" points="443.42,-7.96 433.38,-11.35 443.34,-14.96 443.42,-7.96"/>
</a>
</g>
</g>
<!-- Node17&#45;&gt;Node2 -->
<g id="edge21_Node000017_Node000002" class="edge">
<title>Node17&#45;&gt;Node2</title>
<g id="a_edge21_Node000017_Node000002"><a xlink:title=" ">
<path fill="none" stroke="#63b8ff" d="M341.65,-169.84C337.47,-162.67 331.65,-152.73 326.56,-144.01"/>
<polygon fill="#63b8ff" stroke="#63b8ff" points="329.11,-142.45 321.05,-135.58 323.07,-145.98 329.11,-142.45"/>
</a>
</g>
</g>
</g>
</svg>
