<?xml version="1.0" encoding="UTF-8" standalone="no"?>
<!DOCTYPE svg PUBLIC "-//W3C//DTD SVG 1.1//EN"
 "http://www.w3.org/Graphics/SVG/1.1/DTD/svg11.dtd">
<!-- Generated by graphviz version 8.1.0 (20230707.2238)
 -->
<!-- Title: src/diffusionSystem.cpp Pages: 1 -->
<svg width="719pt" height="369pt"
 viewBox="0.00 0.00 718.86 369.25" xmlns="http://www.w3.org/2000/svg" xmlns:xlink="http://www.w3.org/1999/xlink">
<g id="graph0" class="graph" transform="scale(1 1) rotate(0) translate(4 365.25)">
<title>src/diffusionSystem.cpp</title>
<!-- Node1 -->
<g id="Node000001" class="node">
<title>Node1</title>
<g id="a_Node000001"><a xlink:title=" ">
<polygon fill="#999999" stroke="#666666" points="461.5,-361.25 329.25,-361.25 329.25,-340.5 461.5,-340.5 461.5,-361.25"/>
<text text-anchor="middle" x="395.38" y="-347.75" font-family="FreeSans" font-size="10.00">src/diffusionSystem.cpp</text>
</a>
</g>
</g>
<!-- Node2 -->
<g id="Node000002" class="node">
<title>Node2</title>
<g id="a_Node000002"><a xlink:href="diffusionSystem_8h.html" target="_top" xlink:title=" ">
<polygon fill="white" stroke="#666666" points="399.25,-304.5 295.5,-304.5 295.5,-283.75 399.25,-283.75 399.25,-304.5"/>
<text text-anchor="middle" x="347.38" y="-291" font-family="FreeSans" font-size="10.00">diffusionSystem.h</text>
</a>
</g>
</g>
<!-- Node1&#45;&gt;Node2 -->
<g id="edge1_Node000001_Node000002" class="edge">
<title>Node1&#45;&gt;Node2</title>
<g id="a_edge1_Node000001_Node000002"><a xlink:title=" ">
<path fill="none" stroke="#63b8ff" d="M386.79,-340.09C380.17,-332.53 370.84,-321.89 362.91,-312.85"/>
<polygon fill="#63b8ff" stroke="#63b8ff" points="365.11,-311.04 355.88,-305.83 359.84,-315.66 365.11,-311.04"/>
</a>
</g>
</g>
<!-- Node19 -->
<g id="Node000019" class="node">
<title>Node19</title>
<g id="a_Node000019"><a xlink:title=" ">
<polygon fill="#e0e0e0" stroke="#999999" points="471.88,-304.5 416.88,-304.5 416.88,-283.75 471.88,-283.75 471.88,-304.5"/>
<text text-anchor="middle" x="444.38" y="-291" font-family="FreeSans" font-size="10.00">assert.h</text>
</a>
</g>
</g>
<!-- Node1&#45;&gt;Node19 -->
<g id="edge20_Node000001_Node000019" class="edge">
<title>Node1&#45;&gt;Node19</title>
<g id="a_edge20_Node000001_Node000019"><a xlink:title=" ">
<path fill="none" stroke="#63b8ff" d="M404.14,-340.09C410.89,-332.53 420.42,-321.89 428.51,-312.85"/>
<polygon fill="#63b8ff" stroke="#63b8ff" points="430.63,-315.61 434.69,-305.83 425.41,-310.95 430.63,-315.61"/>
</a>
</g>
</g>
<!-- Node3 -->
<g id="Node000003" class="node">
<title>Node3</title>
<g id="a_Node000003"><a xlink:href="mathUtils_8h.html" target="_top" xlink:title=" ">
<polygon fill="white" stroke="#666666" points="351.88,-134.25 278.88,-134.25 278.88,-113.5 351.88,-113.5 351.88,-134.25"/>
<text text-anchor="middle" x="315.38" y="-120.75" font-family="FreeSans" font-size="10.00">mathUtils.h</text>
</a>
</g>
</g>
<!-- Node2&#45;&gt;Node3 -->
<g id="edge2_Node000002_Node000003" class="edge">
<title>Node2&#45;&gt;Node3</title>
<g id="a_edge2_Node000002_Node000003"><a xlink:title=" ">
<path fill="none" stroke="#63b8ff" d="M341.46,-283.44C331.07,-265.83 309.96,-227.02 302.38,-191 299.09,-175.42 302.98,-157.71 307.33,-144.54"/>
<polygon fill="#63b8ff" stroke="#63b8ff" points="310.93,-145.9 311.12,-135.31 304.37,-143.47 310.93,-145.9"/>
</a>
</g>
</g>
<!-- Node16 -->
<g id="Node000016" class="node">
<title>Node16</title>
<g id="a_Node000016"><a xlink:href="grid_8h.html" target="_top" xlink:title=" ">
<polygon fill="white" stroke="#666666" points="440.25,-247.75 396.5,-247.75 396.5,-227 440.25,-227 440.25,-247.75"/>
<text text-anchor="middle" x="418.38" y="-234.25" font-family="FreeSans" font-size="10.00">grid.h</text>
</a>
</g>
</g>
<!-- Node2&#45;&gt;Node16 -->
<g id="edge14_Node000002_Node000016" class="edge">
<title>Node2&#45;&gt;Node16</title>
<g id="a_edge14_Node000002_Node000016"><a xlink:title=" ">
<path fill="none" stroke="#63b8ff" d="M360.07,-283.34C370.37,-275.4 385.11,-264.03 397.19,-254.71"/>
<polygon fill="#63b8ff" stroke="#63b8ff" points="399.01,-256.96 404.79,-248.08 394.74,-251.41 399.01,-256.96"/>
</a>
</g>
</g>
<!-- Node18 -->
<g id="Node000018" class="node">
<title>Node18</title>
<g id="a_Node000018"><a xlink:href="integrator_8h.html" target="_top" xlink:title=" ">
<polygon fill="white" stroke="#666666" points="383.5,-191 311.25,-191 311.25,-170.25 383.5,-170.25 383.5,-191"/>
<text text-anchor="middle" x="347.38" y="-177.5" font-family="FreeSans" font-size="10.00">integrator.h</text>
</a>
</g>
</g>
<!-- Node2&#45;&gt;Node18 -->
<g id="edge18_Node000002_Node000018" class="edge">
<title>Node2&#45;&gt;Node18</title>
<g id="a_edge18_Node000002_Node000018"><a xlink:title=" ">
<path fill="none" stroke="#63b8ff" d="M347.38,-283.62C347.38,-265.69 347.38,-226.5 347.38,-202.26"/>
<polygon fill="#63b8ff" stroke="#63b8ff" points="350.88,-202.43 347.38,-192.43 343.88,-202.43 350.88,-202.43"/>
</a>
</g>
</g>
<!-- Node4 -->
<g id="Node000004" class="node">
<title>Node4</title>
<g id="a_Node000004"><a xlink:title=" ">
<polygon fill="#e0e0e0" stroke="#999999" points="688.75,-77.5 642,-77.5 642,-56.75 688.75,-56.75 688.75,-77.5"/>
<text text-anchor="middle" x="665.38" y="-64" font-family="FreeSans" font-size="10.00">vector</text>
</a>
</g>
</g>
<!-- Node3&#45;&gt;Node4 -->
<g id="edge3_Node000003_Node000004" class="edge">
<title>Node3&#45;&gt;Node4</title>
<g id="a_edge3_Node000003_Node000004"><a xlink:title=" ">
<path fill="none" stroke="#63b8ff" d="M352.27,-119.23C409.76,-113.18 524.35,-99.73 631.05,-77.52"/>
<polygon fill="#63b8ff" stroke="#63b8ff" points="631.62,-80.76 640.68,-75.27 630.17,-73.92 631.62,-80.76"/>
</a>
</g>
</g>
<!-- Node5 -->
<g id="Node000005" class="node">
<title>Node5</title>
<g id="a_Node000005"><a xlink:title=" ">
<polygon fill="#e0e0e0" stroke="#999999" points="46.75,-77.5 0,-77.5 0,-56.75 46.75,-56.75 46.75,-77.5"/>
<text text-anchor="middle" x="23.38" y="-64" font-family="FreeSans" font-size="10.00">cmath</text>
</a>
</g>
</g>
<!-- Node3&#45;&gt;Node5 -->
<g id="edge4_Node000003_Node000005" class="edge">
<title>Node3&#45;&gt;Node5</title>
<g id="a_edge4_Node000003_Node000005"><a xlink:title=" ">
<path fill="none" stroke="#63b8ff" d="M278.47,-117.17C228.74,-109.27 137.52,-94.11 60.38,-77.5 59.44,-77.3 58.49,-77.09 57.54,-76.88"/>
<polygon fill="#63b8ff" stroke="#63b8ff" points="58.74,-73.33 48.2,-74.43 57.13,-80.14 58.74,-73.33"/>
</a>
</g>
</g>
<!-- Node6 -->
<g id="Node000006" class="node">
<title>Node6</title>
<g id="a_Node000006"><a xlink:title=" ">
<polygon fill="#e0e0e0" stroke="#999999" points="175.12,-20.75 115.62,-20.75 115.62,0 175.12,0 175.12,-20.75"/>
<text text-anchor="middle" x="145.38" y="-7.25" font-family="FreeSans" font-size="10.00">iostream</text>
</a>
</g>
</g>
<!-- Node3&#45;&gt;Node6 -->
<g id="edge5_Node000003_Node000006" class="edge">
<title>Node3&#45;&gt;Node6</title>
<g id="a_edge5_Node000003_Node000006"><a xlink:title=" ">
<path fill="none" stroke="#63b8ff" d="M278.47,-120.81C221.5,-116.77 116.32,-105.61 93.38,-77.5 79.49,-60.49 99.86,-40.64 119.04,-27.16"/>
<polygon fill="#63b8ff" stroke="#63b8ff" points="120.79,-29.54 127.2,-21.1 116.93,-23.7 120.79,-29.54"/>
</a>
</g>
</g>
<!-- Node7 -->
<g id="Node000007" class="node">
<title>Node7</title>
<g id="a_Node000007"><a xlink:title=" ">
<polygon fill="#e0e0e0" stroke="#999999" points="158.25,-77.5 102.5,-77.5 102.5,-56.75 158.25,-56.75 158.25,-77.5"/>
<text text-anchor="middle" x="130.38" y="-64" font-family="FreeSans" font-size="10.00">sstream</text>
</a>
</g>
</g>
<!-- Node3&#45;&gt;Node7 -->
<g id="edge6_Node000003_Node000007" class="edge">
<title>Node3&#45;&gt;Node7</title>
<g id="a_edge6_Node000003_Node000007"><a xlink:title=" ">
<path fill="none" stroke="#63b8ff" d="M282.3,-113.09C250.51,-103.68 202.48,-89.46 168.96,-79.54"/>
<polygon fill="#63b8ff" stroke="#63b8ff" points="170.2,-75.97 159.62,-76.48 168.22,-82.68 170.2,-75.97"/>
</a>
</g>
</g>
<!-- Node8 -->
<g id="Node000008" class="node">
<title>Node8</title>
<g id="a_Node000008"><a xlink:title=" ">
<polygon fill="#e0e0e0" stroke="#999999" points="360.25,-20.75 316.5,-20.75 316.5,0 360.25,0 360.25,-20.75"/>
<text text-anchor="middle" x="338.38" y="-7.25" font-family="FreeSans" font-size="10.00">string</text>
</a>
</g>
</g>
<!-- Node3&#45;&gt;Node8 -->
<g id="edge7_Node000003_Node000008" class="edge">
<title>Node3&#45;&gt;Node8</title>
<g id="a_edge7_Node000003_Node000008"><a xlink:title=" ">
<path fill="none" stroke="#63b8ff" d="M317.34,-113.37C321.05,-95.36 329.19,-55.89 334.19,-31.68"/>
<polygon fill="#63b8ff" stroke="#63b8ff" points="337.76,-32.68 336.35,-22.18 330.91,-31.26 337.76,-32.68"/>
</a>
</g>
</g>
<!-- Node9 -->
<g id="Node000009" class="node">
<title>Node9</title>
<g id="a_Node000009"><a xlink:title=" ">
<polygon fill="#e0e0e0" stroke="#999999" points="310.25,-77.5 272.5,-77.5 272.5,-56.75 310.25,-56.75 310.25,-77.5"/>
<text text-anchor="middle" x="291.38" y="-64" font-family="FreeSans" font-size="10.00">map</text>
</a>
</g>
</g>
<!-- Node3&#45;&gt;Node9 -->
<g id="edge8_Node000003_Node000009" class="edge">
<title>Node3&#45;&gt;Node9</title>
<g id="a_edge8_Node000003_Node000009"><a xlink:title=" ">
<path fill="none" stroke="#63b8ff" d="M311.08,-113.09C308.01,-106.08 303.77,-96.41 300.01,-87.83"/>
<polygon fill="#63b8ff" stroke="#63b8ff" points="302.85,-86.58 295.63,-78.83 296.44,-89.39 302.85,-86.58"/>
</a>
</g>
</g>
<!-- Node10 -->
<g id="Node000010" class="node">
<title>Node10</title>
<g id="a_Node000010"><a xlink:href="debugUtils_8h.html" target="_top" xlink:title=" ">
<polygon fill="#fff0f0" stroke="red" points="254.12,-77.5 176.62,-77.5 176.62,-56.75 254.12,-56.75 254.12,-77.5"/>
<text text-anchor="middle" x="215.38" y="-64" font-family="FreeSans" font-size="10.00">debugUtils.h</text>
</a>
</g>
</g>
<!-- Node3&#45;&gt;Node10 -->
<g id="edge9_Node000003_Node000010" class="edge">
<title>Node3&#45;&gt;Node10</title>
<g id="a_edge9_Node000003_Node000010"><a xlink:title=" ">
<path fill="none" stroke="#63b8ff" d="M297.5,-113.09C282.28,-104.76 260.18,-92.66 242.74,-83.11"/>
<polygon fill="#63b8ff" stroke="#63b8ff" points="244.55,-79.56 234.1,-77.83 241.19,-85.7 244.55,-79.56"/>
</a>
</g>
</g>
<!-- Node14 -->
<g id="Node000014" class="node">
<title>Node14</title>
<g id="a_Node000014"><a xlink:title=" ">
<polygon fill="#e0e0e0" stroke="#999999" points="492.5,-77.5 366.25,-77.5 366.25,-56.75 492.5,-56.75 492.5,-77.5"/>
<text text-anchor="middle" x="429.38" y="-64" font-family="FreeSans" font-size="10.00">cantera/base/ct_defs.h</text>
</a>
</g>
</g>
<!-- Node3&#45;&gt;Node14 -->
<g id="edge12_Node000003_Node000014" class="edge">
<title>Node3&#45;&gt;Node14</title>
<g id="a_edge12_Node000003_Node000014"><a xlink:title=" ">
<path fill="none" stroke="#63b8ff" d="M335.76,-113.09C353.43,-104.6 379.24,-92.2 399.29,-82.58"/>
<polygon fill="#63b8ff" stroke="#63b8ff" points="400.67,-85.31 408.17,-77.83 397.64,-79 400.67,-85.31"/>
</a>
</g>
</g>
<!-- Node15 -->
<g id="Node000015" class="node">
<title>Node15</title>
<g id="a_Node000015"><a xlink:title=" ">
<polygon fill="#e0e0e0" stroke="#999999" points="623.75,-77.5 511,-77.5 511,-56.75 623.75,-56.75 623.75,-77.5"/>
<text text-anchor="middle" x="567.38" y="-64" font-family="FreeSans" font-size="10.00">eigen3/Eigen/Dense</text>
</a>
</g>
</g>
<!-- Node3&#45;&gt;Node15 -->
<g id="edge13_Node000003_Node000015" class="edge">
<title>Node3&#45;&gt;Node15</title>
<g id="a_edge13_Node000003_Node000015"><a xlink:title=" ">
<path fill="none" stroke="#63b8ff" d="M352.29,-114.86C394.23,-105.74 463.14,-90.77 511.63,-80.24"/>
<polygon fill="#63b8ff" stroke="#63b8ff" points="512.24,-83.47 521.26,-77.93 510.75,-76.63 512.24,-83.47"/>
</a>
</g>
</g>
<!-- Node10&#45;&gt;Node6 -->
<g id="edge11_Node000010_Node000006" class="edge">
<title>Node10&#45;&gt;Node6</title>
<g id="a_edge11_Node000010_Node000006"><a xlink:title=" ">
<path fill="none" stroke="#63b8ff" d="M202.86,-56.34C192.71,-48.4 178.18,-37.03 166.26,-27.71"/>
<polygon fill="#63b8ff" stroke="#63b8ff" points="168.81,-24.48 158.78,-21.08 164.5,-30 168.81,-24.48"/>
</a>
</g>
</g>
<!-- Node10&#45;&gt;Node8 -->
<g id="edge10_Node000010_Node000008" class="edge">
<title>Node10&#45;&gt;Node8</title>
<g id="a_edge10_Node000010_Node000008"><a xlink:title=" ">
<path fill="none" stroke="#63b8ff" d="M237.36,-56.34C256.69,-47.73 285.05,-35.11 306.8,-25.43"/>
<polygon fill="#63b8ff" stroke="#63b8ff" points="307.86,-28.34 315.58,-21.08 305.02,-21.95 307.86,-28.34"/>
</a>
</g>
</g>
<!-- Node17 -->
<g id="Node000017" class="node">
<title>Node17</title>
<g id="a_Node000017"><a xlink:href="readConfig_8h.html" target="_top" xlink:title=" ">
<polygon fill="white" stroke="#666666" points="479.12,-191 401.62,-191 401.62,-170.25 479.12,-170.25 479.12,-191"/>
<text text-anchor="middle" x="440.38" y="-177.5" font-family="FreeSans" font-size="10.00">readConfig.h</text>
</a>
</g>
</g>
<!-- Node16&#45;&gt;Node17 -->
<g id="edge15_Node000016_Node000017" class="edge">
<title>Node16&#45;&gt;Node17</title>
<g id="a_edge15_Node000016_Node000017"><a xlink:title=" ">
<path fill="none" stroke="#63b8ff" d="M422.31,-226.59C425.12,-219.58 429.01,-209.91 432.46,-201.33"/>
<polygon fill="#63b8ff" stroke="#63b8ff" points="435.99,-202.91 436.48,-192.33 429.5,-200.3 435.99,-202.91"/>
</a>
</g>
</g>
<!-- Node17&#45;&gt;Node3 -->
<g id="edge16_Node000017_Node000003" class="edge">
<title>Node17&#45;&gt;Node3</title>
<g id="a_edge16_Node000017_Node000003"><a xlink:title=" ">
<path fill="none" stroke="#63b8ff" d="M418.03,-169.84C398.39,-161.23 369.57,-148.61 347.46,-138.93"/>
<polygon fill="#63b8ff" stroke="#63b8ff" points="349.09,-135.38 338.53,-134.58 346.28,-141.8 349.09,-135.38"/>
</a>
</g>
</g>
<!-- Node17&#45;&gt;Node8 -->
<g id="edge17_Node000017_Node000008" class="edge">
<title>Node17&#45;&gt;Node8</title>
<g id="a_edge17_Node000017_Node000008"><a xlink:title=" ">
<path fill="none" stroke="#63b8ff" d="M479.32,-175.45C566.21,-164.7 763.27,-131.5 697.38,-56.75 675.95,-32.45 455.98,-17.85 371.33,-13.1"/>
<polygon fill="#63b8ff" stroke="#63b8ff" points="371.72,-9.56 361.55,-12.5 371.34,-16.55 371.72,-9.56"/>
</a>
</g>
</g>
<!-- Node18&#45;&gt;Node3 -->
<g id="edge19_Node000018_Node000003" class="edge">
<title>Node18&#45;&gt;Node3</title>
<g id="a_edge19_Node000018_Node000003"><a xlink:title=" ">
<path fill="none" stroke="#63b8ff" d="M341.65,-169.84C337.47,-162.67 331.65,-152.73 326.56,-144.01"/>
<polygon fill="#63b8ff" stroke="#63b8ff" points="329.11,-142.45 321.05,-135.58 323.07,-145.98 329.11,-142.45"/>
</a>
</g>
</g>
</g>
</svg>
