<?xml version="1.0" encoding="UTF-8" standalone="no"?>
<!DOCTYPE svg PUBLIC "-//W3C//DTD SVG 1.1//EN"
 "http://www.w3.org/Graphics/SVG/1.1/DTD/svg11.dtd">
<!-- Generated by graphviz version 2.28.0 (20120425.2022)
 -->
<!-- Title: G Pages: 1 -->
<svg width="1472pt" height="308pt"
 viewBox="0.00 0.00 1472.00 308.00" xmlns="http://www.w3.org/2000/svg" xmlns:xlink="http://www.w3.org/1999/xlink">
<g id="graph1" class="graph" transform="scale(1 1) rotate(0) translate(4 304)">
<title>G</title>
<polygon fill="white" stroke="white" points="-4,5 -4,-304 1469,-304 1469,5 -4,5"/>
<!-- Node1 -->
<g id="node1" class="node"><title>Node1</title>
<polygon fill="#bfbfbf" stroke="black" points="235.5,-280.5 235.5,-299.5 346.5,-299.5 346.5,-280.5 235.5,-280.5"/>
<text text-anchor="middle" x="291" y="-287.5" font-family="FreeSans" font-size="10.00">src/diffusionSystem.h</text>
</g>
<!-- Node2 -->
<g id="node3" class="node"><title>Node2</title>
<a xlink:href="mathUtils_8h.html" target="_top" xlink:title="mathUtils.h">
<polygon fill="white" stroke="black" points="210.5,-112.5 210.5,-131.5 275.5,-131.5 275.5,-112.5 210.5,-112.5"/>
<text text-anchor="middle" x="243" y="-119.5" font-family="FreeSans" font-size="10.00">mathUtils.h</text>
</a>
</g>
<!-- Node1&#45;&gt;Node2 -->
<g id="edge2" class="edge"><title>Node1&#45;&gt;Node2</title>
<path fill="none" stroke="midnightblue" d="M261.879,-280.441C244.357,-273.62 223.477,-262.141 213,-244 193.601,-210.413 216.064,-164.553 231.285,-140.064"/>
<polygon fill="midnightblue" stroke="midnightblue" points="234.325,-141.809 236.849,-131.519 228.459,-137.989 234.325,-141.809"/>
</g>
<!-- Node11 -->
<g id="node23" class="node"><title>Node11</title>
<a xlink:href="chemistry0d_8h.html" target="_top" xlink:title="chemistry0d.h">
<polygon fill="white" stroke="black" points="810,-224.5 810,-243.5 888,-243.5 888,-224.5 810,-224.5"/>
<text text-anchor="middle" x="849" y="-231.5" font-family="FreeSans" font-size="10.00">chemistry0d.h</text>
</a>
</g>
<!-- Node1&#45;&gt;Node11 -->
<g id="edge24" class="edge"><title>Node1&#45;&gt;Node11</title>
<path fill="none" stroke="midnightblue" d="M346.543,-283.625C455.546,-273.076 695.875,-249.819 799.667,-239.774"/>
<polygon fill="midnightblue" stroke="midnightblue" points="800.25,-243.234 809.867,-238.787 799.576,-236.267 800.25,-243.234"/>
</g>
<!-- Node21 -->
<g id="node46" class="node"><title>Node21</title>
<a xlink:href="grid_8h.html" target="_top" xlink:title="grid.h">
<polygon fill="white" stroke="black" points="306.5,-224.5 306.5,-243.5 347.5,-243.5 347.5,-224.5 306.5,-224.5"/>
<text text-anchor="middle" x="327" y="-231.5" font-family="FreeSans" font-size="10.00">grid.h</text>
</a>
</g>
<!-- Node1&#45;&gt;Node21 -->
<g id="edge50" class="edge"><title>Node1&#45;&gt;Node21</title>
<path fill="none" stroke="midnightblue" d="M296.945,-280.083C301.977,-272.534 309.337,-261.495 315.513,-252.23"/>
<polygon fill="midnightblue" stroke="midnightblue" points="318.531,-254.013 321.166,-243.751 312.707,-250.13 318.531,-254.013"/>
</g>
<!-- Node22 -->
<g id="node49" class="node"><title>Node22</title>
<a xlink:href="integrator_8h.html" target="_top" xlink:title="integrator.h">
<polygon fill="white" stroke="black" points="222,-224.5 222,-243.5 288,-243.5 288,-224.5 222,-224.5"/>
<text text-anchor="middle" x="255" y="-231.5" font-family="FreeSans" font-size="10.00">integrator.h</text>
</a>
</g>
<!-- Node1&#45;&gt;Node22 -->
<g id="edge54" class="edge"><title>Node1&#45;&gt;Node22</title>
<path fill="none" stroke="midnightblue" d="M285.055,-280.083C280.023,-272.534 272.663,-261.495 266.487,-252.23"/>
<polygon fill="midnightblue" stroke="midnightblue" points="269.293,-250.13 260.834,-243.751 263.469,-254.013 269.293,-250.13"/>
</g>
<!-- Node3 -->
<g id="node5" class="node"><title>Node3</title>
<polygon fill="white" stroke="#bfbfbf" points="372,-56.5 372,-75.5 416,-75.5 416,-56.5 372,-56.5"/>
<text text-anchor="middle" x="394" y="-63.5" font-family="FreeSans" font-size="10.00">vector</text>
</g>
<!-- Node2&#45;&gt;Node3 -->
<g id="edge4" class="edge"><title>Node2&#45;&gt;Node3</title>
<path fill="none" stroke="midnightblue" d="M266.926,-112.444C292.665,-103.239 333.722,-88.5565 362.171,-78.3826"/>
<polygon fill="midnightblue" stroke="midnightblue" points="363.425,-81.6513 371.662,-74.9883 361.068,-75.0601 363.425,-81.6513"/>
</g>
<!-- Node4 -->
<g id="node7" class="node"><title>Node4</title>
<polygon fill="white" stroke="#bfbfbf" points="434,-56.5 434,-75.5 478,-75.5 478,-56.5 434,-56.5"/>
<text text-anchor="middle" x="456" y="-63.5" font-family="FreeSans" font-size="10.00">cmath</text>
</g>
<!-- Node2&#45;&gt;Node4 -->
<g id="edge6" class="edge"><title>Node2&#45;&gt;Node4</title>
<path fill="none" stroke="midnightblue" d="M275.775,-113.17C312.092,-104.419 372.354,-89.6795 424,-76 424.101,-75.9732 424.202,-75.9464 424.304,-75.9194"/>
<polygon fill="midnightblue" stroke="midnightblue" points="425.259,-79.2869 433.99,-73.2854 423.422,-72.5322 425.259,-79.2869"/>
</g>
<!-- Node5 -->
<g id="node9" class="node"><title>Node5</title>
<polygon fill="white" stroke="#bfbfbf" points="0,-0.5 0,-19.5 56,-19.5 56,-0.5 0,-0.5"/>
<text text-anchor="middle" x="28" y="-7.5" font-family="FreeSans" font-size="10.00">iostream</text>
</g>
<!-- Node2&#45;&gt;Node5 -->
<g id="edge8" class="edge"><title>Node2&#45;&gt;Node5</title>
<path fill="none" stroke="midnightblue" d="M210.346,-119.451C153.531,-115.997 40.223,-105.496 16,-76 5.2169,-62.8694 10.9212,-43.1843 17.6483,-28.9188"/>
<polygon fill="midnightblue" stroke="midnightblue" points="20.9591,-30.1417 22.5063,-19.6604 14.7606,-26.8892 20.9591,-30.1417"/>
</g>
<!-- Node6 -->
<g id="node11" class="node"><title>Node6</title>
<polygon fill="white" stroke="#bfbfbf" points="153.5,-56.5 153.5,-75.5 206.5,-75.5 206.5,-56.5 153.5,-56.5"/>
<text text-anchor="middle" x="180" y="-63.5" font-family="FreeSans" font-size="10.00">sstream</text>
</g>
<!-- Node2&#45;&gt;Node6 -->
<g id="edge10" class="edge"><title>Node2&#45;&gt;Node6</title>
<path fill="none" stroke="midnightblue" d="M232.878,-112.324C223.474,-104.263 209.256,-92.0765 197.931,-82.3695"/>
<polygon fill="midnightblue" stroke="midnightblue" points="200.177,-79.6844 190.306,-75.8339 195.621,-84.9993 200.177,-79.6844"/>
</g>
<!-- Node7 -->
<g id="node13" class="node"><title>Node7</title>
<polygon fill="white" stroke="#bfbfbf" points="104.5,-0.5 104.5,-19.5 145.5,-19.5 145.5,-0.5 104.5,-0.5"/>
<text text-anchor="middle" x="125" y="-7.5" font-family="FreeSans" font-size="10.00">string</text>
</g>
<!-- Node2&#45;&gt;Node7 -->
<g id="edge12" class="edge"><title>Node2&#45;&gt;Node7</title>
<path fill="none" stroke="midnightblue" d="M210.167,-113.679C188.502,-107.224 161.067,-95.6856 144,-76 132.818,-63.1028 128.208,-43.9276 126.313,-29.7437"/>
<polygon fill="midnightblue" stroke="midnightblue" points="129.781,-29.2546 125.301,-19.6539 122.816,-29.9533 129.781,-29.2546"/>
</g>
<!-- Node8 -->
<g id="node15" class="node"><title>Node8</title>
<polygon fill="white" stroke="#bfbfbf" points="225,-56.5 225,-75.5 261,-75.5 261,-56.5 225,-56.5"/>
<text text-anchor="middle" x="243" y="-63.5" font-family="FreeSans" font-size="10.00">map</text>
</g>
<!-- Node2&#45;&gt;Node8 -->
<g id="edge14" class="edge"><title>Node2&#45;&gt;Node8</title>
<path fill="none" stroke="midnightblue" d="M243,-112.083C243,-105.006 243,-94.8611 243,-85.9865"/>
<polygon fill="midnightblue" stroke="midnightblue" points="246.5,-85.751 243,-75.7511 239.5,-85.7511 246.5,-85.751"/>
</g>
<!-- Node9 -->
<g id="node17" class="node"><title>Node9</title>
<a xlink:href="debugUtils_8h.html" target="_top" xlink:title="debugUtils.h">
<polygon fill="white" stroke="red" points="25.5,-56.5 25.5,-75.5 96.5,-75.5 96.5,-56.5 25.5,-56.5"/>
<text text-anchor="middle" x="61" y="-63.5" font-family="FreeSans" font-size="10.00">debugUtils.h</text>
</a>
</g>
<!-- Node2&#45;&gt;Node9 -->
<g id="edge16" class="edge"><title>Node2&#45;&gt;Node9</title>
<path fill="none" stroke="midnightblue" d="M214.162,-112.444C183.144,-103.241 133.671,-88.5617 99.3816,-78.3879"/>
<polygon fill="midnightblue" stroke="midnightblue" points="100.286,-75.0055 89.7035,-75.5164 98.2949,-81.7164 100.286,-75.0055"/>
</g>
<!-- Node10 -->
<g id="node21" class="node"><title>Node10</title>
<polygon fill="white" stroke="#bfbfbf" points="279.5,-56.5 279.5,-75.5 354.5,-75.5 354.5,-56.5 279.5,-56.5"/>
<text text-anchor="middle" x="317" y="-63.5" font-family="FreeSans" font-size="10.00">Eigen/Dense</text>
</g>
<!-- Node2&#45;&gt;Node10 -->
<g id="edge22" class="edge"><title>Node2&#45;&gt;Node10</title>
<path fill="none" stroke="midnightblue" d="M254.889,-112.324C266.15,-104.107 283.287,-91.6017 296.709,-81.8069"/>
<polygon fill="midnightblue" stroke="midnightblue" points="298.88,-84.5559 304.894,-75.8339 294.753,-78.9014 298.88,-84.5559"/>
</g>
<!-- Node9&#45;&gt;Node5 -->
<g id="edge20" class="edge"><title>Node9&#45;&gt;Node5</title>
<path fill="none" stroke="midnightblue" d="M55.5507,-56.083C50.9855,-48.6127 44.3316,-37.7244 38.7066,-28.5199"/>
<polygon fill="midnightblue" stroke="midnightblue" points="41.5489,-26.4588 33.3479,-19.7511 35.5759,-30.109 41.5489,-26.4588"/>
</g>
<!-- Node9&#45;&gt;Node7 -->
<g id="edge18" class="edge"><title>Node9&#45;&gt;Node7</title>
<path fill="none" stroke="midnightblue" d="M71.2827,-56.324C80.8363,-48.2631 95.2797,-36.0765 106.784,-26.3695"/>
<polygon fill="midnightblue" stroke="midnightblue" points="109.144,-28.9577 114.53,-19.8339 104.63,-23.6076 109.144,-28.9577"/>
</g>
<!-- Node11&#45;&gt;Node2 -->
<g id="edge42" class="edge"><title>Node11&#45;&gt;Node2</title>
<path fill="none" stroke="midnightblue" d="M849.325,-224.168C849.318,-209.846 846.984,-181.775 830,-168 787.969,-133.909 413.7,-125.426 285.702,-123.512"/>
<polygon fill="midnightblue" stroke="midnightblue" points="285.553,-120.01 275.503,-123.366 285.452,-127.009 285.553,-120.01"/>
</g>
<!-- Node12 -->
<g id="node25" class="node"><title>Node12</title>
<polygon fill="white" stroke="#bfbfbf" points="877.5,-168.5 877.5,-187.5 996.5,-187.5 996.5,-168.5 877.5,-168.5"/>
<text text-anchor="middle" x="937" y="-175.5" font-family="FreeSans" font-size="10.00">cantera/IdealGasMix.h</text>
</g>
<!-- Node11&#45;&gt;Node12 -->
<g id="edge26" class="edge"><title>Node11&#45;&gt;Node12</title>
<path fill="none" stroke="midnightblue" d="M863.139,-224.324C876.866,-215.9 897.936,-202.971 914.064,-193.074"/>
<polygon fill="midnightblue" stroke="midnightblue" points="916.204,-195.868 922.896,-187.655 912.543,-189.902 916.204,-195.868"/>
</g>
<!-- Node13 -->
<g id="node27" class="node"><title>Node13</title>
<polygon fill="white" stroke="#bfbfbf" points="1014.5,-168.5 1014.5,-187.5 1123.5,-187.5 1123.5,-168.5 1014.5,-168.5"/>
<text text-anchor="middle" x="1069" y="-175.5" font-family="FreeSans" font-size="10.00">cantera/equilibrium.h</text>
</g>
<!-- Node11&#45;&gt;Node13 -->
<g id="edge28" class="edge"><title>Node11&#45;&gt;Node13</title>
<path fill="none" stroke="midnightblue" d="M883.86,-224.444C921.916,-215.102 982.958,-200.119 1024.46,-189.933"/>
<polygon fill="midnightblue" stroke="midnightblue" points="1025.43,-193.299 1034.3,-187.516 1023.76,-186.501 1025.43,-193.299"/>
</g>
<!-- Node14 -->
<g id="node29" class="node"><title>Node14</title>
<polygon fill="white" stroke="#bfbfbf" points="1142,-168.5 1142,-187.5 1234,-187.5 1234,-168.5 1142,-168.5"/>
<text text-anchor="middle" x="1188" y="-175.5" font-family="FreeSans" font-size="10.00">cantera/thermo.h</text>
</g>
<!-- Node11&#45;&gt;Node14 -->
<g id="edge30" class="edge"><title>Node11&#45;&gt;Node14</title>
<path fill="none" stroke="midnightblue" d="M888.376,-226.76C941.18,-218.387 1038.13,-202.998 1131.91,-188.011"/>
<polygon fill="midnightblue" stroke="midnightblue" points="1132.53,-191.457 1141.86,-186.422 1131.43,-184.545 1132.53,-191.457"/>
</g>
<!-- Node15 -->
<g id="node31" class="node"><title>Node15</title>
<polygon fill="white" stroke="#bfbfbf" points="1252.5,-168.5 1252.5,-187.5 1351.5,-187.5 1351.5,-168.5 1252.5,-168.5"/>
<text text-anchor="middle" x="1302" y="-175.5" font-family="FreeSans" font-size="10.00">cantera/transport.h</text>
</g>
<!-- Node11&#45;&gt;Node15 -->
<g id="edge32" class="edge"><title>Node11&#45;&gt;Node15</title>
<path fill="none" stroke="midnightblue" d="M888.206,-229.016C957.38,-221.881 1105.86,-206.084 1242.23,-188.055"/>
<polygon fill="midnightblue" stroke="midnightblue" points="1242.99,-191.485 1252.44,-186.698 1242.07,-184.546 1242.99,-191.485"/>
</g>
<!-- Node16 -->
<g id="node33" class="node"><title>Node16</title>
<polygon fill="white" stroke="#bfbfbf" points="1369.5,-168.5 1369.5,-187.5 1464.5,-187.5 1464.5,-168.5 1369.5,-168.5"/>
<text text-anchor="middle" x="1417" y="-175.5" font-family="FreeSans" font-size="10.00">cantera/kinetics.h</text>
</g>
<!-- Node11&#45;&gt;Node16 -->
<g id="edge34" class="edge"><title>Node11&#45;&gt;Node16</title>
<path fill="none" stroke="midnightblue" d="M888.202,-230.471C972.401,-224.841 1176.97,-210.098 1359.4,-187.987"/>
<polygon fill="midnightblue" stroke="midnightblue" points="1359.95,-191.446 1369.45,-186.759 1359.1,-184.498 1359.95,-191.446"/>
</g>
<!-- Node17 -->
<g id="node35" class="node"><title>Node17</title>
<polygon fill="white" stroke="#bfbfbf" points="363,-168.5 363,-187.5 529,-187.5 529,-168.5 363,-168.5"/>
<text text-anchor="middle" x="446" y="-175.5" font-family="FreeSans" font-size="10.00">cantera/thermo/IdealGasPhase.h</text>
</g>
<!-- Node11&#45;&gt;Node17 -->
<g id="edge36" class="edge"><title>Node11&#45;&gt;Node17</title>
<path fill="none" stroke="midnightblue" d="M809.992,-227.773C743.082,-218.807 605.388,-200.357 519.856,-188.896"/>
<polygon fill="midnightblue" stroke="midnightblue" points="520.068,-185.394 509.692,-187.534 519.138,-192.332 520.068,-185.394"/>
</g>
<!-- Node18 -->
<g id="node37" class="node"><title>Node18</title>
<polygon fill="white" stroke="#bfbfbf" points="547,-168.5 547,-187.5 699,-187.5 699,-168.5 547,-168.5"/>
<text text-anchor="middle" x="623" y="-175.5" font-family="FreeSans" font-size="10.00">cantera/kinetics/GasKinetics.h</text>
</g>
<!-- Node11&#45;&gt;Node18 -->
<g id="edge38" class="edge"><title>Node11&#45;&gt;Node18</title>
<path fill="none" stroke="midnightblue" d="M813.19,-224.444C774.012,-215.083 711.123,-200.056 668.485,-189.868"/>
<polygon fill="midnightblue" stroke="midnightblue" points="669.182,-186.436 658.643,-187.516 667.556,-193.245 669.182,-186.436"/>
</g>
<!-- Node19 -->
<g id="node39" class="node"><title>Node19</title>
<polygon fill="white" stroke="#bfbfbf" points="717,-168.5 717,-187.5 821,-187.5 821,-168.5 717,-168.5"/>
<text text-anchor="middle" x="769" y="-175.5" font-family="FreeSans" font-size="10.00">cantera/base/ctml.h</text>
</g>
<!-- Node11&#45;&gt;Node19 -->
<g id="edge40" class="edge"><title>Node11&#45;&gt;Node19</title>
<path fill="none" stroke="midnightblue" d="M836.147,-224.324C823.784,-215.979 804.87,-203.212 790.263,-193.352"/>
<polygon fill="midnightblue" stroke="midnightblue" points="792.068,-190.348 781.821,-187.655 788.152,-196.15 792.068,-190.348"/>
</g>
<!-- Node20 -->
<g id="node42" class="node"><title>Node20</title>
<a xlink:href="readConfig_8h.html" target="_top" xlink:title="readConfig.h">
<polygon fill="white" stroke="black" points="271,-168.5 271,-187.5 345,-187.5 345,-168.5 271,-168.5"/>
<text text-anchor="middle" x="308" y="-175.5" font-family="FreeSans" font-size="10.00">readConfig.h</text>
</a>
</g>
<!-- Node11&#45;&gt;Node20 -->
<g id="edge44" class="edge"><title>Node11&#45;&gt;Node20</title>
<path fill="none" stroke="midnightblue" d="M809.698,-230.801C727.283,-225.895 530.205,-212.614 355.013,-188.006"/>
<polygon fill="midnightblue" stroke="midnightblue" points="355.494,-184.539 345.102,-186.598 354.51,-191.47 355.494,-184.539"/>
</g>
<!-- Node20&#45;&gt;Node2 -->
<g id="edge46" class="edge"><title>Node20&#45;&gt;Node2</title>
<path fill="none" stroke="midnightblue" d="M297.557,-168.324C287.854,-160.263 273.185,-148.077 261.5,-138.369"/>
<polygon fill="midnightblue" stroke="midnightblue" points="263.562,-135.532 253.633,-131.834 259.089,-140.916 263.562,-135.532"/>
</g>
<!-- Node20&#45;&gt;Node7 -->
<g id="edge48" class="edge"><title>Node20&#45;&gt;Node7</title>
<path fill="none" stroke="midnightblue" d="M343.708,-168.444C408.325,-151.38 533.737,-110.057 486,-56 464.247,-31.3673 239.256,-17.0439 155.869,-12.5482"/>
<polygon fill="midnightblue" stroke="midnightblue" points="155.92,-9.04608 145.749,-12.0136 155.55,-16.0363 155.92,-9.04608"/>
</g>
<!-- Node21&#45;&gt;Node20 -->
<g id="edge52" class="edge"><title>Node21&#45;&gt;Node20</title>
<path fill="none" stroke="midnightblue" d="M323.863,-224.083C321.317,-216.849 317.644,-206.409 314.473,-197.397"/>
<polygon fill="midnightblue" stroke="midnightblue" points="317.7,-196.023 311.079,-187.751 311.097,-198.346 317.7,-196.023"/>
</g>
<!-- Node22&#45;&gt;Node2 -->
<g id="edge56" class="edge"><title>Node22&#45;&gt;Node2</title>
<path fill="none" stroke="midnightblue" d="M254.058,-224.368C252.122,-206.617 247.655,-165.666 245.029,-141.597"/>
<polygon fill="midnightblue" stroke="midnightblue" points="248.501,-141.153 243.937,-131.591 241.542,-141.912 248.501,-141.153"/>
</g>
</g>
</svg>
