<?xml version="1.0" encoding="UTF-8" standalone="no"?>
<!DOCTYPE svg PUBLIC "-//W3C//DTD SVG 1.1//EN"
 "http://www.w3.org/Graphics/SVG/1.1/DTD/svg11.dtd">
<!-- Generated by graphviz version 2.26.3 (20100126.1600)
 -->
<!-- Title: src/flameSolver.cpp Pages: 1 -->
<svg width="2531pt" height="414pt"
 viewBox="0.00 0.00 2531.00 414.00" xmlns="http://www.w3.org/2000/svg" xmlns:xlink="http://www.w3.org/1999/xlink">
<g id="graph1" class="graph" transform="scale(1 1) rotate(0) translate(4 410)">
<title>src/flameSolver.cpp</title>
<polygon fill="white" stroke="white" points="-4,5 -4,-410 2528,-410 2528,5 -4,5"/>
<!-- Node1 -->
<g id="node1" class="node"><title>Node1</title>
<polygon fill="#bfbfbf" stroke="black" points="1891.5,-385 1891.5,-405 1992.5,-405 1992.5,-385 1891.5,-385"/>
<text text-anchor="middle" x="1942" y="-392" font-family="FreeSans" font-size="10.00">src/flameSolver.cpp</text>
</g>
<!-- Node2 -->
<g id="node3" class="node"><title>Node2</title>
<a xlink:href="flameSolver_8h.html" target="_top" xlink:title="flameSolver.h">
<polygon fill="white" stroke="black" points="1729,-327 1729,-347 1803,-347 1803,-327 1729,-327"/>
<text text-anchor="middle" x="1766" y="-334" font-family="FreeSans" font-size="10.00">flameSolver.h</text>
</a>
</g>
<!-- Node1&#45;&gt;Node2 -->
<g id="edge2" class="edge"><title>Node1&#45;&gt;Node2</title>
<path fill="none" stroke="midnightblue" d="M1911.34,-384.897C1882.16,-375.279 1838.07,-360.749 1806.1,-350.215"/>
<polygon fill="midnightblue" stroke="midnightblue" points="1807.19,-346.89 1796.6,-347.084 1805,-353.538 1807.19,-346.89"/>
</g>
<!-- Node34 -->
<g id="node94" class="node"><title>Node34</title>
<a xlink:href="scalarFunction_8h.html" target="_top" xlink:title="scalarFunction.h">
<polygon fill="white" stroke="black" points="1386.5,-327 1386.5,-347 1473.5,-347 1473.5,-327 1386.5,-327"/>
<text text-anchor="middle" x="1430" y="-334" font-family="FreeSans" font-size="10.00">scalarFunction.h</text>
</a>
</g>
<!-- Node1&#45;&gt;Node34 -->
<g id="edge120" class="edge"><title>Node1&#45;&gt;Node34</title>
<path fill="none" stroke="midnightblue" d="M1891.04,-389.227C1793.93,-378.226 1583.23,-354.359 1483.89,-343.105"/>
<polygon fill="midnightblue" stroke="midnightblue" points="1484.1,-339.607 1473.77,-341.959 1483.32,-346.562 1484.1,-339.607"/>
</g>
<!-- Node35 -->
<g id="node97" class="node"><title>Node35</title>
<a xlink:href="tbb__tools_8h.html" target="_top" xlink:title="tbb_tools.h">
<polygon fill="white" stroke="black" points="2086.5,-327 2086.5,-347 2149.5,-347 2149.5,-327 2086.5,-327"/>
<text text-anchor="middle" x="2118" y="-334" font-family="FreeSans" font-size="10.00">tbb_tools.h</text>
</a>
</g>
<!-- Node1&#45;&gt;Node35 -->
<g id="edge124" class="edge"><title>Node1&#45;&gt;Node35</title>
<path fill="none" stroke="midnightblue" d="M1972.66,-384.897C2001.84,-375.279 2045.93,-360.749 2077.9,-350.215"/>
<polygon fill="midnightblue" stroke="midnightblue" points="2079,-353.538 2087.4,-347.084 2076.81,-346.89 2079,-353.538"/>
</g>
<!-- Node38 -->
<g id="node103" class="node"><title>Node38</title>
<polygon fill="white" stroke="#bfbfbf" points="2166.5,-327 2166.5,-347 2259.5,-347 2259.5,-327 2166.5,-327"/>
<text text-anchor="middle" x="2213" y="-334" font-family="FreeSans" font-size="10.00">boost/foreach.hpp</text>
</g>
<!-- Node1&#45;&gt;Node38 -->
<g id="edge130" class="edge"><title>Node1&#45;&gt;Node38</title>
<path fill="none" stroke="midnightblue" d="M1988.9,-384.963C2035.38,-375.014 2106.65,-359.762 2156.29,-349.138"/>
<polygon fill="midnightblue" stroke="midnightblue" points="2157.18,-352.526 2166.23,-347.011 2155.71,-345.681 2157.18,-352.526"/>
</g>
<!-- Node3 -->
<g id="node5" class="node"><title>Node3</title>
<a xlink:href="readConfig_8h.html" target="_top" xlink:title="readConfig.h">
<polygon fill="white" stroke="black" points="1974,-123 1974,-143 2044,-143 2044,-123 1974,-123"/>
<text text-anchor="middle" x="2009" y="-130" font-family="FreeSans" font-size="10.00">readConfig.h</text>
</a>
</g>
<!-- Node2&#45;&gt;Node3 -->
<g id="edge4" class="edge"><title>Node2&#45;&gt;Node3</title>
<path fill="none" stroke="midnightblue" d="M1803.26,-336.323C1913.93,-333.932 2234.96,-324.089 2266,-290 2276.69,-278.253 2285.47,-210.779 2265,-186 2238.73,-154.197 2120.69,-140.837 2054.46,-135.762"/>
<polygon fill="midnightblue" stroke="midnightblue" points="2054.52,-132.258 2044.29,-135.017 2054.01,-139.239 2054.52,-132.258"/>
</g>
<!-- Node5 -->
<g id="node9" class="node"><title>Node5</title>
<polygon fill="white" stroke="#bfbfbf" points="1332.5,-1 1332.5,-21 1385.5,-21 1385.5,-1 1332.5,-1"/>
<text text-anchor="middle" x="1359" y="-8" font-family="FreeSans" font-size="10.00">iostream</text>
</g>
<!-- Node2&#45;&gt;Node5 -->
<g id="edge108" class="edge"><title>Node2&#45;&gt;Node5</title>
<path fill="none" stroke="midnightblue" d="M1728.71,-335.177C1473.94,-322.608 0,-247.945 0,-203 0,-203 0,-203 0,-133 0,-121.669 8.58127,-120.455 19,-116 141.983,-63.4157 1119.48,-20.8003 1322.25,-12.475"/>
<polygon fill="midnightblue" stroke="midnightblue" points="1322.54,-15.9665 1332.38,-12.0612 1322.25,-8.97235 1322.54,-15.9665"/>
</g>
<!-- Node7 -->
<g id="node14" class="node"><title>Node7</title>
<a xlink:href="chemistry0d_8h.html" target="_top" xlink:title="chemistry0d.h">
<polygon fill="white" stroke="black" points="710,-193 710,-213 786,-213 786,-193 710,-193"/>
<text text-anchor="middle" x="748" y="-200" font-family="FreeSans" font-size="10.00">chemistry0d.h</text>
</a>
</g>
<!-- Node2&#45;&gt;Node7 -->
<g id="edge14" class="edge"><title>Node2&#45;&gt;Node7</title>
<path fill="none" stroke="midnightblue" d="M1728.9,-335.338C1637.92,-330.957 1396.58,-317.495 1197,-290 1049.76,-269.715 877.776,-232.578 795.962,-214.08"/>
<polygon fill="midnightblue" stroke="midnightblue" points="796.731,-210.666 786.204,-211.866 795.182,-217.492 796.731,-210.666"/>
</g>
<!-- Node17 -->
<g id="node35" class="node"><title>Node17</title>
<a xlink:href="grid_8h.html" target="_top" xlink:title="grid.h">
<polygon fill="white" stroke="black" points="1985,-193 1985,-213 2025,-213 2025,-193 1985,-193"/>
<text text-anchor="middle" x="2005" y="-200" font-family="FreeSans" font-size="10.00">grid.h</text>
</a>
</g>
<!-- Node2&#45;&gt;Node17 -->
<g id="edge36" class="edge"><title>Node2&#45;&gt;Node17</title>
<path fill="none" stroke="midnightblue" d="M1803,-334.686C1888.08,-328.991 2091.86,-313.058 2112,-290 2121.94,-278.618 2119.97,-268.839 2112,-256 2103.2,-241.819 2063.14,-224.51 2034.63,-213.618"/>
<polygon fill="midnightblue" stroke="midnightblue" points="2035.68,-210.277 2025.09,-210.048 2033.23,-216.832 2035.68,-210.277"/>
</g>
<!-- Node18 -->
<g id="node38" class="node"><title>Node18</title>
<a xlink:href="splitSolver_8h.html" target="_top" xlink:title="splitSolver.h">
<polygon fill="white" stroke="black" points="1391,-263 1391,-283 1459,-283 1459,-263 1391,-263"/>
<text text-anchor="middle" x="1425" y="-270" font-family="FreeSans" font-size="10.00">splitSolver.h</text>
</a>
</g>
<!-- Node2&#45;&gt;Node18 -->
<g id="edge40" class="edge"><title>Node2&#45;&gt;Node18</title>
<path fill="none" stroke="midnightblue" d="M1728.75,-333.781C1671.78,-328.266 1559.96,-315.1 1468,-290 1464.57,-289.063 1461.03,-287.94 1457.53,-286.724"/>
<polygon fill="midnightblue" stroke="midnightblue" points="1458.48,-283.343 1447.89,-283.129 1456.04,-289.902 1458.48,-283.343"/>
</g>
<!-- Node19 -->
<g id="node41" class="node"><title>Node19</title>
<a xlink:href="perfTimer_8h.html" target="_top" xlink:title="perfTimer.h">
<polygon fill="white" stroke="red" points="1238.5,-193 1238.5,-213 1303.5,-213 1303.5,-193 1238.5,-193"/>
<text text-anchor="middle" x="1271" y="-200" font-family="FreeSans" font-size="10.00">perfTimer.h</text>
</a>
</g>
<!-- Node2&#45;&gt;Node19 -->
<g id="edge50" class="edge"><title>Node2&#45;&gt;Node19</title>
<path fill="none" stroke="midnightblue" d="M1728.76,-334.987C1645.01,-330.054 1444.27,-315.835 1382,-290 1343.67,-274.096 1307.43,-241.112 1287.33,-220.639"/>
<polygon fill="midnightblue" stroke="midnightblue" points="1289.65,-218.008 1280.2,-213.216 1284.6,-222.855 1289.65,-218.008"/>
</g>
<!-- Node20 -->
<g id="node43" class="node"><title>Node20</title>
<polygon fill="white" stroke="#bfbfbf" points="1214,-117 1214,-149 1330,-149 1330,-117 1214,-117"/>
<text text-anchor="start" x="1222" y="-136" font-family="FreeSans" font-size="10.00">tbb/enumerable_thread</text>
<text text-anchor="middle" x="1272" y="-124" font-family="FreeSans" font-size="10.00">_specific.h</text>
</g>
<!-- Node2&#45;&gt;Node20 -->
<g id="edge114" class="edge"><title>Node2&#45;&gt;Node20</title>
<path fill="none" stroke="midnightblue" d="M1728.98,-335.507C1636.84,-331.4 1399.38,-318.31 1326,-290 1276.73,-270.992 1253.93,-267.07 1230,-220 1219.19,-198.737 1233.35,-174.249 1248.08,-156.681"/>
<polygon fill="midnightblue" stroke="midnightblue" points="1250.76,-158.929 1254.8,-149.132 1245.53,-154.276 1250.76,-158.929"/>
</g>
<!-- Node21 -->
<g id="node47" class="node"><title>Node21</title>
<a xlink:href="integrator_8h.html" target="_top" xlink:title="integrator.h">
<polygon fill="white" stroke="black" points="1860.5,-193 1860.5,-213 1925.5,-213 1925.5,-193 1860.5,-193"/>
<text text-anchor="middle" x="1893" y="-200" font-family="FreeSans" font-size="10.00">integrator.h</text>
</a>
</g>
<!-- Node2&#45;&gt;Node21 -->
<g id="edge52" class="edge"><title>Node2&#45;&gt;Node21</title>
<path fill="none" stroke="midnightblue" d="M1768.62,-326.946C1773.33,-310.468 1784.6,-277.41 1804,-256 1819.01,-239.431 1840.44,-226.455 1858.5,-217.49"/>
<polygon fill="midnightblue" stroke="midnightblue" points="1860.06,-220.624 1867.59,-213.17 1857.06,-214.302 1860.06,-220.624"/>
</g>
<!-- Node22 -->
<g id="node50" class="node"><title>Node22</title>
<a xlink:href="sourceSystem_8h.html" target="_top" xlink:title="sourceSystem.h">
<polygon fill="white" stroke="black" points="1476.5,-263 1476.5,-283 1561.5,-283 1561.5,-263 1476.5,-263"/>
<text text-anchor="middle" x="1519" y="-270" font-family="FreeSans" font-size="10.00">sourceSystem.h</text>
</a>
</g>
<!-- Node2&#45;&gt;Node22 -->
<g id="edge56" class="edge"><title>Node2&#45;&gt;Node22</title>
<path fill="none" stroke="midnightblue" d="M1728.88,-328.485C1690.28,-319.487 1628.18,-304.604 1575,-290 1570.35,-288.722 1565.49,-287.333 1560.67,-285.918"/>
<polygon fill="midnightblue" stroke="midnightblue" points="1561.48,-282.508 1550.9,-283.005 1559.48,-289.216 1561.48,-282.508"/>
</g>
<!-- Node25 -->
<g id="node60" class="node"><title>Node25</title>
<a xlink:href="quasi2d_8h.html" target="_top" xlink:title="quasi2d.h">
<polygon fill="white" stroke="red" points="1624.5,-193 1624.5,-213 1681.5,-213 1681.5,-193 1624.5,-193"/>
<text text-anchor="middle" x="1653" y="-200" font-family="FreeSans" font-size="10.00">quasi2d.h</text>
</a>
</g>
<!-- Node2&#45;&gt;Node25 -->
<g id="edge102" class="edge"><title>Node2&#45;&gt;Node25</title>
<path fill="none" stroke="midnightblue" d="M1728.67,-331.121C1686.68,-323.658 1622.46,-309.385 1608,-290 1591.45,-267.815 1614.13,-238.675 1632.85,-220.39"/>
<polygon fill="midnightblue" stroke="midnightblue" points="1635.57,-222.644 1640.5,-213.27 1630.8,-217.519 1635.57,-222.644"/>
</g>
<!-- Node26 -->
<g id="node64" class="node"><title>Node26</title>
<polygon fill="white" stroke="#bfbfbf" points="1737,-193 1737,-213 1843,-213 1843,-193 1737,-193"/>
<text text-anchor="middle" x="1790" y="-200" font-family="FreeSans" font-size="10.00">boost/shared_ptr.hpp</text>
</g>
<!-- Node2&#45;&gt;Node26 -->
<g id="edge112" class="edge"><title>Node2&#45;&gt;Node26</title>
<path fill="none" stroke="midnightblue" d="M1765.72,-326.904C1765.49,-311.46 1765.83,-281.116 1771,-256 1773.34,-244.631 1777.6,-232.405 1781.49,-222.564"/>
<polygon fill="midnightblue" stroke="midnightblue" points="1784.73,-223.885 1785.32,-213.307 1778.26,-221.21 1784.73,-223.885"/>
</g>
<!-- Node27 -->
<g id="node66" class="node"><title>Node27</title>
<a xlink:href="diffusionSystem_8h.html" target="_top" xlink:title="diffusionSystem.h">
<polygon fill="white" stroke="black" points="1812.5,-263 1812.5,-283 1903.5,-283 1903.5,-263 1812.5,-263"/>
<text text-anchor="middle" x="1858" y="-270" font-family="FreeSans" font-size="10.00">diffusionSystem.h</text>
</a>
</g>
<!-- Node2&#45;&gt;Node27 -->
<g id="edge78" class="edge"><title>Node2&#45;&gt;Node27</title>
<path fill="none" stroke="midnightblue" d="M1780.78,-326.717C1795.49,-316.487 1818.25,-300.649 1835.26,-288.817"/>
<polygon fill="midnightblue" stroke="midnightblue" points="1837.35,-291.63 1843.56,-283.046 1833.35,-285.884 1837.35,-291.63"/>
</g>
<!-- Node28 -->
<g id="node71" class="node"><title>Node28</title>
<a xlink:href="convectionSystem_8h.html" target="_top" xlink:title="convectionSystem.h">
<polygon fill="white" stroke="black" points="1616.5,-263 1616.5,-283 1719.5,-283 1719.5,-263 1616.5,-263"/>
<text text-anchor="middle" x="1668" y="-270" font-family="FreeSans" font-size="10.00">convectionSystem.h</text>
</a>
</g>
<!-- Node2&#45;&gt;Node28 -->
<g id="edge86" class="edge"><title>Node2&#45;&gt;Node28</title>
<path fill="none" stroke="midnightblue" d="M1750.25,-326.717C1734.59,-316.487 1710.34,-300.649 1692.22,-288.817"/>
<polygon fill="midnightblue" stroke="midnightblue" points="1693.67,-285.584 1683.38,-283.046 1689.84,-291.445 1693.67,-285.584"/>
</g>
<!-- Node29 -->
<g id="node79" class="node"><title>Node29</title>
<polygon fill="white" stroke="#bfbfbf" points="2064.5,-187 2064.5,-219 2163.5,-219 2163.5,-187 2064.5,-187"/>
<text text-anchor="start" x="2072.5" y="-206" font-family="FreeSans" font-size="10.00">boost/ptr_container</text>
<text text-anchor="middle" x="2114" y="-194" font-family="FreeSans" font-size="10.00">/ptr_vector.hpp</text>
</g>
<!-- Node2&#45;&gt;Node29 -->
<g id="edge110" class="edge"><title>Node2&#45;&gt;Node29</title>
<path fill="none" stroke="midnightblue" d="M1803.17,-334.925C1891.4,-329.622 2107.68,-314.254 2129,-290 2143.71,-273.257 2136.87,-247.46 2128.21,-228.3"/>
<polygon fill="midnightblue" stroke="midnightblue" points="2131.31,-226.669 2123.76,-219.232 2125.03,-229.751 2131.31,-226.669"/>
</g>
<!-- Node30 -->
<g id="node82" class="node"><title>Node30</title>
<a xlink:href="callback_8h.html" target="_top" xlink:title="callback.h">
<polygon fill="white" stroke="black" points="2197,-263 2197,-283 2257,-283 2257,-263 2197,-263"/>
<text text-anchor="middle" x="2227" y="-270" font-family="FreeSans" font-size="10.00">callback.h</text>
</a>
</g>
<!-- Node2&#45;&gt;Node30 -->
<g id="edge104" class="edge"><title>Node2&#45;&gt;Node30</title>
<path fill="none" stroke="midnightblue" d="M1803.09,-335.998C1876.6,-333.32 2045.55,-323.704 2183,-290 2186.83,-289.061 2190.77,-287.875 2194.65,-286.567"/>
<polygon fill="midnightblue" stroke="midnightblue" points="2195.87,-289.849 2204.07,-283.137 2193.47,-283.272 2195.87,-289.849"/>
</g>
<!-- Node32 -->
<g id="node90" class="node"><title>Node32</title>
<polygon fill="white" stroke="#bfbfbf" points="1920.5,-263 1920.5,-283 1987.5,-283 1987.5,-263 1920.5,-263"/>
<text text-anchor="middle" x="1954" y="-270" font-family="FreeSans" font-size="10.00">tbb/mutex.h</text>
</g>
<!-- Node2&#45;&gt;Node32 -->
<g id="edge116" class="edge"><title>Node2&#45;&gt;Node32</title>
<path fill="none" stroke="midnightblue" d="M1799.58,-326.956C1829.32,-317.877 1873.83,-303.849 1912,-290 1914.87,-288.96 1917.83,-287.846 1920.79,-286.703"/>
<polygon fill="midnightblue" stroke="midnightblue" points="1922.11,-289.942 1930.13,-283.014 1919.54,-283.431 1922.11,-289.942"/>
</g>
<!-- Node33 -->
<g id="node92" class="node"><title>Node33</title>
<polygon fill="white" stroke="#bfbfbf" points="2005,-257 2005,-289 2103,-289 2103,-257 2005,-257"/>
<text text-anchor="start" x="2013" y="-276" font-family="FreeSans" font-size="10.00">tbb/task_scheduler</text>
<text text-anchor="middle" x="2054" y="-264" font-family="FreeSans" font-size="10.00">_init.h</text>
</g>
<!-- Node2&#45;&gt;Node33 -->
<g id="edge118" class="edge"><title>Node2&#45;&gt;Node33</title>
<path fill="none" stroke="midnightblue" d="M1803.26,-330.377C1846.97,-322.391 1921.78,-308.044 1994.88,-290.177"/>
<polygon fill="midnightblue" stroke="midnightblue" points="1995.85,-293.545 2004.72,-287.75 1994.17,-286.749 1995.85,-293.545"/>
</g>
<!-- Node4 -->
<g id="node7" class="node"><title>Node4</title>
<a xlink:href="mathUtils_8h.html" target="_top" xlink:title="mathUtils.h">
<polygon fill="white" stroke="red" points="1572.5,-59 1572.5,-79 1637.5,-79 1637.5,-59 1572.5,-59"/>
<text text-anchor="middle" x="1605" y="-66" font-family="FreeSans" font-size="10.00">mathUtils.h</text>
</a>
</g>
<!-- Node3&#45;&gt;Node4 -->
<g id="edge6" class="edge"><title>Node3&#45;&gt;Node4</title>
<path fill="none" stroke="midnightblue" d="M1983.1,-122.918C1975.72,-120.349 1967.62,-117.807 1960,-116 1849.18,-89.7257 1715.17,-76.9869 1647.91,-71.8665"/>
<polygon fill="midnightblue" stroke="midnightblue" points="1647.94,-68.3588 1637.7,-71.1092 1647.42,-75.3396 1647.94,-68.3588"/>
</g>
<!-- Node6 -->
<g id="node11" class="node"><title>Node6</title>
<polygon fill="white" stroke="#bfbfbf" points="1727,-1 1727,-21 1767,-21 1767,-1 1727,-1"/>
<text text-anchor="middle" x="1747" y="-8" font-family="FreeSans" font-size="10.00">string</text>
</g>
<!-- Node3&#45;&gt;Node6 -->
<g id="edge12" class="edge"><title>Node3&#45;&gt;Node6</title>
<path fill="none" stroke="midnightblue" d="M1987.11,-122.808C1940.11,-100.92 1829.47,-49.4035 1776.4,-24.6919"/>
<polygon fill="midnightblue" stroke="midnightblue" points="1777.74,-21.4513 1767.19,-20.4029 1774.78,-27.7971 1777.74,-21.4513"/>
</g>
<!-- Node4&#45;&gt;Node5 -->
<g id="edge8" class="edge"><title>Node4&#45;&gt;Node5</title>
<path fill="none" stroke="midnightblue" d="M1572.33,-61.298C1526.55,-50.5037 1443.55,-30.9356 1395.7,-19.652"/>
<polygon fill="midnightblue" stroke="midnightblue" points="1396.29,-16.1971 1385.76,-17.3088 1394.69,-23.0102 1396.29,-16.1971"/>
</g>
<!-- Node4&#45;&gt;Node6 -->
<g id="edge10" class="edge"><title>Node4&#45;&gt;Node6</title>
<path fill="none" stroke="midnightblue" d="M1629.73,-58.8972C1654.11,-48.9396 1691.38,-33.7171 1717.34,-23.115"/>
<polygon fill="midnightblue" stroke="midnightblue" points="1718.75,-26.3199 1726.68,-19.2984 1716.1,-19.8396 1718.75,-26.3199"/>
</g>
<!-- Node7&#45;&gt;Node4 -->
<g id="edge34" class="edge"><title>Node7&#45;&gt;Node4</title>
<path fill="none" stroke="midnightblue" d="M786.269,-199.203C858.718,-191.577 1012.96,-173.137 1061,-150 1081.42,-140.167 1078.23,-125.06 1099,-116 1181.76,-79.9046 1455.65,-71.4832 1562.13,-69.5574"/>
<polygon fill="midnightblue" stroke="midnightblue" points="1562.26,-73.0558 1572.2,-69.3858 1562.14,-66.0568 1562.26,-73.0558"/>
</g>
<!-- Node8 -->
<g id="node16" class="node"><title>Node8</title>
<polygon fill="white" stroke="#bfbfbf" points="815.5,-123 815.5,-143 928.5,-143 928.5,-123 815.5,-123"/>
<text text-anchor="middle" x="872" y="-130" font-family="FreeSans" font-size="10.00">cantera/IdealGasMix.h</text>
</g>
<!-- Node7&#45;&gt;Node8 -->
<g id="edge16" class="edge"><title>Node7&#45;&gt;Node8</title>
<path fill="none" stroke="midnightblue" d="M765.766,-192.971C786.576,-181.223 821.259,-161.644 845.309,-148.068"/>
<polygon fill="midnightblue" stroke="midnightblue" points="847.279,-150.975 854.267,-143.011 843.838,-144.879 847.279,-150.975"/>
</g>
<!-- Node9 -->
<g id="node18" class="node"><title>Node9</title>
<polygon fill="white" stroke="#bfbfbf" points="946,-123 946,-143 1052,-143 1052,-123 946,-123"/>
<text text-anchor="middle" x="999" y="-130" font-family="FreeSans" font-size="10.00">cantera/equilibrium.h</text>
</g>
<!-- Node7&#45;&gt;Node9 -->
<g id="edge18" class="edge"><title>Node7&#45;&gt;Node9</title>
<path fill="none" stroke="midnightblue" d="M783.962,-192.971C828.602,-180.521 904.777,-159.277 953.455,-145.702"/>
<polygon fill="midnightblue" stroke="midnightblue" points="954.412,-149.068 963.105,-143.011 952.532,-142.326 954.412,-149.068"/>
</g>
<!-- Node10 -->
<g id="node20" class="node"><title>Node10</title>
<polygon fill="white" stroke="#bfbfbf" points="27.5,-123 27.5,-143 116.5,-143 116.5,-123 27.5,-123"/>
<text text-anchor="middle" x="72" y="-130" font-family="FreeSans" font-size="10.00">cantera/thermo.h</text>
</g>
<!-- Node7&#45;&gt;Node10 -->
<g id="edge20" class="edge"><title>Node7&#45;&gt;Node10</title>
<path fill="none" stroke="midnightblue" d="M709.945,-200.891C592.698,-194.214 238.09,-172.645 125,-150 119.804,-148.959 114.401,-147.585 109.119,-146.066"/>
<polygon fill="midnightblue" stroke="midnightblue" points="109.784,-142.609 99.1973,-143.02 107.73,-149.301 109.784,-142.609"/>
</g>
<!-- Node11 -->
<g id="node22" class="node"><title>Node11</title>
<polygon fill="white" stroke="#bfbfbf" points="133.5,-123 133.5,-143 230.5,-143 230.5,-123 133.5,-123"/>
<text text-anchor="middle" x="182" y="-130" font-family="FreeSans" font-size="10.00">cantera/transport.h</text>
</g>
<!-- Node7&#45;&gt;Node11 -->
<g id="edge22" class="edge"><title>Node7&#45;&gt;Node11</title>
<path fill="none" stroke="midnightblue" d="M709.965,-201.459C624.845,-197.485 412.826,-184.657 239,-150 233.43,-148.889 227.622,-147.471 221.936,-145.929"/>
<polygon fill="midnightblue" stroke="midnightblue" points="222.487,-142.446 211.91,-143.059 220.561,-149.176 222.487,-142.446"/>
</g>
<!-- Node12 -->
<g id="node24" class="node"><title>Node12</title>
<polygon fill="white" stroke="#bfbfbf" points="248,-123 248,-143 340,-143 340,-123 248,-123"/>
<text text-anchor="middle" x="294" y="-130" font-family="FreeSans" font-size="10.00">cantera/kinetics.h</text>
</g>
<!-- Node7&#45;&gt;Node12 -->
<g id="edge24" class="edge"><title>Node7&#45;&gt;Node12</title>
<path fill="none" stroke="midnightblue" d="M709.95,-200.085C638.55,-194.145 479.882,-178.707 349,-150 343.824,-148.865 338.434,-147.471 333.139,-145.974"/>
<polygon fill="midnightblue" stroke="midnightblue" points="333.74,-142.501 323.157,-143.009 331.746,-149.211 333.74,-142.501"/>
</g>
<!-- Node13 -->
<g id="node26" class="node"><title>Node13</title>
<polygon fill="white" stroke="#bfbfbf" points="358,-123 358,-143 516,-143 516,-123 358,-123"/>
<text text-anchor="middle" x="437" y="-130" font-family="FreeSans" font-size="10.00">cantera/thermo/IdealGasPhase.h</text>
</g>
<!-- Node7&#45;&gt;Node13 -->
<g id="edge26" class="edge"><title>Node7&#45;&gt;Node13</title>
<path fill="none" stroke="midnightblue" d="M709.865,-194.417C655.167,-182.105 554.15,-159.368 491.558,-145.28"/>
<polygon fill="midnightblue" stroke="midnightblue" points="492.001,-141.792 481.476,-143.011 490.463,-148.621 492.001,-141.792"/>
</g>
<!-- Node14 -->
<g id="node28" class="node"><title>Node14</title>
<polygon fill="white" stroke="#bfbfbf" points="533.5,-123 533.5,-143 680.5,-143 680.5,-123 533.5,-123"/>
<text text-anchor="middle" x="607" y="-130" font-family="FreeSans" font-size="10.00">cantera/kinetics/GasKinetics.h</text>
</g>
<!-- Node7&#45;&gt;Node14 -->
<g id="edge28" class="edge"><title>Node7&#45;&gt;Node14</title>
<path fill="none" stroke="midnightblue" d="M727.798,-192.971C703.821,-181.067 663.648,-161.123 636.268,-147.53"/>
<polygon fill="midnightblue" stroke="midnightblue" points="637.678,-144.323 627.164,-143.011 634.565,-150.592 637.678,-144.323"/>
</g>
<!-- Node15 -->
<g id="node30" class="node"><title>Node15</title>
<polygon fill="white" stroke="#bfbfbf" points="697.5,-123 697.5,-143 798.5,-143 798.5,-123 697.5,-123"/>
<text text-anchor="middle" x="748" y="-130" font-family="FreeSans" font-size="10.00">cantera/base/ctml.h</text>
</g>
<!-- Node7&#45;&gt;Node15 -->
<g id="edge30" class="edge"><title>Node7&#45;&gt;Node15</title>
<path fill="none" stroke="midnightblue" d="M748,-192.971C748,-182.679 748,-166.375 748,-153.364"/>
<polygon fill="midnightblue" stroke="midnightblue" points="751.5,-153.011 748,-143.011 744.5,-153.011 751.5,-153.011"/>
</g>
<!-- Node16 -->
<g id="node32" class="node"><title>Node16</title>
<a xlink:href="config_8h.html" target="_top" xlink:title="config.h">
<polygon fill="white" stroke="black" points="1108,-123 1108,-143 1158,-143 1158,-123 1108,-123"/>
<text text-anchor="middle" x="1133" y="-130" font-family="FreeSans" font-size="10.00">config.h</text>
</a>
</g>
<!-- Node7&#45;&gt;Node16 -->
<g id="edge32" class="edge"><title>Node7&#45;&gt;Node16</title>
<path fill="none" stroke="midnightblue" d="M786.066,-200.406C850.532,-195.299 984.834,-181.572 1094,-150 1097.02,-149.125 1100.12,-148.071 1103.19,-146.92"/>
<polygon fill="midnightblue" stroke="midnightblue" points="1104.79,-150.045 1112.72,-143.022 1102.14,-143.566 1104.79,-150.045"/>
</g>
<!-- Node17&#45;&gt;Node3 -->
<g id="edge38" class="edge"><title>Node17&#45;&gt;Node3</title>
<path fill="none" stroke="midnightblue" d="M2005.57,-192.971C2006.16,-182.679 2007.09,-166.375 2007.84,-153.364"/>
<polygon fill="midnightblue" stroke="midnightblue" points="2011.35,-153.194 2008.43,-143.011 2004.36,-152.795 2011.35,-153.194"/>
</g>
<!-- Node18&#45;&gt;Node3 -->
<g id="edge48" class="edge"><title>Node18&#45;&gt;Node3</title>
<path fill="none" stroke="midnightblue" d="M1432.51,-262.724C1447,-243.784 1480.88,-203.694 1520,-186 1598.69,-150.414 1858.29,-137.975 1963.81,-134.321"/>
<polygon fill="midnightblue" stroke="midnightblue" points="1963.95,-137.819 1973.83,-133.985 1963.71,-130.823 1963.95,-137.819"/>
</g>
<!-- Node18&#45;&gt;Node4 -->
<g id="edge42" class="edge"><title>Node18&#45;&gt;Node4</title>
<path fill="none" stroke="midnightblue" d="M1430.35,-262.865C1444.65,-236.409 1486.04,-163.995 1535,-116 1547.48,-103.761 1563.56,-92.7116 1577.15,-84.406"/>
<polygon fill="midnightblue" stroke="midnightblue" points="1579.27,-87.2191 1586.09,-79.1134 1575.7,-81.1953 1579.27,-87.2191"/>
</g>
<!-- Node18&#45;&gt;Node19 -->
<g id="edge44" class="edge"><title>Node18&#45;&gt;Node19</title>
<path fill="none" stroke="midnightblue" d="M1402.94,-262.971C1376.52,-250.963 1332.1,-230.774 1302.19,-217.176"/>
<polygon fill="midnightblue" stroke="midnightblue" points="1303.58,-213.962 1293.02,-213.011 1300.68,-220.335 1303.58,-213.962"/>
</g>
<!-- Node19&#45;&gt;Node20 -->
<g id="edge46" class="edge"><title>Node19&#45;&gt;Node20</title>
<path fill="none" stroke="midnightblue" d="M1271.14,-192.971C1271.27,-184.23 1271.45,-171.153 1271.62,-159.439"/>
<polygon fill="midnightblue" stroke="midnightblue" points="1275.12,-159.277 1271.77,-149.228 1268.13,-159.177 1275.12,-159.277"/>
</g>
<!-- Node21&#45;&gt;Node4 -->
<g id="edge54" class="edge"><title>Node21&#45;&gt;Node4</title>
<path fill="none" stroke="midnightblue" d="M1874.42,-192.759C1843.45,-175.863 1779.15,-141.484 1723,-116 1696.29,-103.88 1665.49,-91.6674 1642.05,-82.7299"/>
<polygon fill="midnightblue" stroke="midnightblue" points="1643.08,-79.3779 1632.49,-79.1099 1640.6,-85.9243 1643.08,-79.3779"/>
</g>
<!-- Node22&#45;&gt;Node4 -->
<g id="edge58" class="edge"><title>Node22&#45;&gt;Node4</title>
<path fill="none" stroke="midnightblue" d="M1517.16,-262.757C1514.6,-246.148 1511.21,-212.527 1520,-186 1533.3,-145.846 1565.91,-107.87 1586.65,-86.5959"/>
<polygon fill="midnightblue" stroke="midnightblue" points="1589.36,-88.8371 1593.96,-79.2906 1584.41,-83.888 1589.36,-88.8371"/>
</g>
<!-- Node23 -->
<g id="node53" class="node"><title>Node23</title>
<a xlink:href="sundialsUtils_8h.html" target="_top" xlink:title="sundialsUtils.h">
<polygon fill="white" stroke="red" points="1320.5,-193 1320.5,-213 1397.5,-213 1397.5,-193 1320.5,-193"/>
<text text-anchor="middle" x="1359" y="-200" font-family="FreeSans" font-size="10.00">sundialsUtils.h</text>
</a>
</g>
<!-- Node22&#45;&gt;Node23 -->
<g id="edge60" class="edge"><title>Node22&#45;&gt;Node23</title>
<path fill="none" stroke="midnightblue" d="M1496.08,-262.971C1468.63,-250.963 1422.48,-230.774 1391.4,-217.176"/>
<polygon fill="midnightblue" stroke="midnightblue" points="1392.45,-213.812 1381.88,-213.011 1389.64,-220.225 1392.45,-213.812"/>
</g>
<!-- Node24 -->
<g id="node57" class="node"><title>Node24</title>
<a xlink:href="qssintegrator_8h.html" target="_top" xlink:title="qssintegrator.h">
<polygon fill="white" stroke="black" points="1528.5,-193 1528.5,-213 1607.5,-213 1607.5,-193 1528.5,-193"/>
<text text-anchor="middle" x="1568" y="-200" font-family="FreeSans" font-size="10.00">qssintegrator.h</text>
</a>
</g>
<!-- Node22&#45;&gt;Node24 -->
<g id="edge66" class="edge"><title>Node22&#45;&gt;Node24</title>
<path fill="none" stroke="midnightblue" d="M1526.02,-262.971C1533.59,-252.159 1545.8,-234.713 1555.11,-221.419"/>
<polygon fill="midnightblue" stroke="midnightblue" points="1558.13,-223.21 1560.99,-213.011 1552.39,-219.196 1558.13,-223.21"/>
</g>
<!-- Node22&#45;&gt;Node25 -->
<g id="edge70" class="edge"><title>Node22&#45;&gt;Node25</title>
<path fill="none" stroke="midnightblue" d="M1538.2,-262.971C1560.89,-251.119 1598.83,-231.297 1624.84,-217.709"/>
<polygon fill="midnightblue" stroke="midnightblue" points="1626.59,-220.743 1633.84,-213.011 1623.35,-214.539 1626.59,-220.743"/>
</g>
<!-- Node22&#45;&gt;Node26 -->
<g id="edge76" class="edge"><title>Node22&#45;&gt;Node26</title>
<path fill="none" stroke="midnightblue" d="M1557.83,-262.971C1606.23,-250.469 1688.96,-229.1 1741.48,-215.532"/>
<polygon fill="midnightblue" stroke="midnightblue" points="1742.44,-218.9 1751.24,-213.011 1740.69,-212.123 1742.44,-218.9"/>
</g>
<!-- Node23&#45;&gt;Node5 -->
<g id="edge62" class="edge"><title>Node23&#45;&gt;Node5</title>
<path fill="none" stroke="midnightblue" d="M1359,-192.948C1359,-162.762 1359,-72.4761 1359,-31.5591"/>
<polygon fill="midnightblue" stroke="midnightblue" points="1362.5,-31.4185 1359,-21.4185 1355.5,-31.4186 1362.5,-31.4185"/>
</g>
<!-- Node23&#45;&gt;Node16 -->
<g id="edge64" class="edge"><title>Node23&#45;&gt;Node16</title>
<path fill="none" stroke="midnightblue" d="M1331.76,-192.837C1325.3,-190.516 1318.43,-188.113 1312,-186 1262.4,-169.702 1204.34,-152.928 1168.11,-142.731"/>
<polygon fill="midnightblue" stroke="midnightblue" points="1168.62,-139.24 1158.05,-139.911 1166.73,-145.98 1168.62,-139.24"/>
</g>
<!-- Node24&#45;&gt;Node4 -->
<g id="edge68" class="edge"><title>Node24&#45;&gt;Node4</title>
<path fill="none" stroke="midnightblue" d="M1570.78,-192.928C1576.86,-170.908 1591.43,-118.131 1599.46,-89.0573"/>
<polygon fill="midnightblue" stroke="midnightblue" points="1602.9,-89.7595 1602.19,-79.1887 1596.15,-87.8964 1602.9,-89.7595"/>
</g>
<!-- Node25&#45;&gt;Node4 -->
<g id="edge72" class="edge"><title>Node25&#45;&gt;Node4</title>
<path fill="none" stroke="midnightblue" d="M1649.39,-192.928C1641.47,-170.811 1622.43,-117.665 1612.05,-88.6744"/>
<polygon fill="midnightblue" stroke="midnightblue" points="1615.32,-87.4226 1608.65,-79.1887 1608.73,-89.7832 1615.32,-87.4226"/>
</g>
<!-- Node25&#45;&gt;Node6 -->
<g id="edge74" class="edge"><title>Node25&#45;&gt;Node6</title>
<path fill="none" stroke="midnightblue" d="M1657.92,-192.948C1672.83,-162.504 1717.66,-70.9284 1737.44,-30.5209"/>
<polygon fill="midnightblue" stroke="midnightblue" points="1740.65,-31.939 1741.9,-21.4185 1734.36,-28.8609 1740.65,-31.939"/>
</g>
<!-- Node27&#45;&gt;Node4 -->
<g id="edge80" class="edge"><title>Node27&#45;&gt;Node4</title>
<path fill="none" stroke="midnightblue" d="M1883.5,-262.878C1901.21,-254.343 1923.43,-240.251 1934,-220 1940.99,-206.603 1942.31,-198.618 1934,-186 1901.61,-136.847 1729.05,-94.9408 1647.61,-77.571"/>
<polygon fill="midnightblue" stroke="midnightblue" points="1648.18,-74.1155 1637.68,-75.4783 1646.74,-80.9651 1648.18,-74.1155"/>
</g>
<!-- Node27&#45;&gt;Node17 -->
<g id="edge82" class="edge"><title>Node27&#45;&gt;Node17</title>
<path fill="none" stroke="midnightblue" d="M1879.06,-262.971C1904.45,-250.879 1947.27,-230.492 1975.83,-216.891"/>
<polygon fill="midnightblue" stroke="midnightblue" points="1977.4,-220.021 1984.92,-212.561 1974.39,-213.701 1977.4,-220.021"/>
</g>
<!-- Node27&#45;&gt;Node21 -->
<g id="edge84" class="edge"><title>Node27&#45;&gt;Node21</title>
<path fill="none" stroke="midnightblue" d="M1863.01,-262.971C1868.32,-252.367 1876.81,-235.382 1883.4,-222.19"/>
<polygon fill="midnightblue" stroke="midnightblue" points="1886.65,-223.52 1887.99,-213.011 1880.39,-220.39 1886.65,-223.52"/>
</g>
<!-- Node28&#45;&gt;Node4 -->
<g id="edge88" class="edge"><title>Node28&#45;&gt;Node4</title>
<path fill="none" stroke="midnightblue" d="M1674.11,-262.989C1683.24,-246.705 1698.53,-213.53 1690,-186 1677.48,-145.596 1644.62,-107.699 1623.62,-86.5083"/>
<polygon fill="midnightblue" stroke="midnightblue" points="1625.81,-83.7474 1616.22,-79.2344 1620.9,-88.74 1625.81,-83.7474"/>
</g>
<!-- Node28&#45;&gt;Node17 -->
<g id="edge92" class="edge"><title>Node28&#45;&gt;Node17</title>
<path fill="none" stroke="midnightblue" d="M1719.61,-263.324C1773.29,-253.118 1859.72,-236.287 1934,-220 1947.44,-217.052 1962.26,-213.546 1974.86,-210.486"/>
<polygon fill="midnightblue" stroke="midnightblue" points="1975.97,-213.819 1984.85,-208.043 1974.3,-207.019 1975.97,-213.819"/>
</g>
<!-- Node28&#45;&gt;Node19 -->
<g id="edge94" class="edge"><title>Node28&#45;&gt;Node19</title>
<path fill="none" stroke="midnightblue" d="M1616.43,-263.724C1601.47,-261.123 1585.1,-258.362 1570,-256 1455.61,-238.103 1423.71,-250.418 1312,-220 1308.63,-219.081 1305.16,-217.954 1301.74,-216.722"/>
<polygon fill="midnightblue" stroke="midnightblue" points="1302.93,-213.429 1292.34,-213.053 1300.39,-219.95 1302.93,-213.429"/>
</g>
<!-- Node28&#45;&gt;Node23 -->
<g id="edge90" class="edge"><title>Node28&#45;&gt;Node23</title>
<path fill="none" stroke="midnightblue" d="M1623.73,-262.971C1566.46,-249.998 1467.05,-227.477 1407.7,-214.033"/>
<polygon fill="midnightblue" stroke="midnightblue" points="1408.35,-210.59 1397.82,-211.794 1406.8,-217.417 1408.35,-210.59"/>
</g>
<!-- Node28&#45;&gt;Node25 -->
<g id="edge96" class="edge"><title>Node28&#45;&gt;Node25</title>
<path fill="none" stroke="midnightblue" d="M1665.85,-262.971C1663.62,-252.575 1660.08,-236.045 1657.28,-222.971"/>
<polygon fill="midnightblue" stroke="midnightblue" points="1660.66,-222.055 1655.15,-213.011 1653.82,-223.522 1660.66,-222.055"/>
</g>
<!-- Node28&#45;&gt;Node26 -->
<g id="edge98" class="edge"><title>Node28&#45;&gt;Node26</title>
<path fill="none" stroke="midnightblue" d="M1685.48,-262.971C1705.95,-251.223 1740.08,-231.644 1763.74,-218.068"/>
<polygon fill="midnightblue" stroke="midnightblue" points="1765.62,-221.023 1772.55,-213.011 1762.14,-214.952 1765.62,-221.023"/>
</g>
<!-- Node28&#45;&gt;Node29 -->
<g id="edge100" class="edge"><title>Node28&#45;&gt;Node29</title>
<path fill="none" stroke="midnightblue" d="M1719.69,-266.601C1790.74,-257.558 1922.44,-239.908 2034,-220 2040.57,-218.827 2047.43,-217.511 2054.25,-216.144"/>
<polygon fill="midnightblue" stroke="midnightblue" points="2055.07,-219.549 2064.17,-214.117 2053.67,-212.69 2055.07,-219.549"/>
</g>
<!-- Node31 -->
<g id="node84" class="node"><title>Node31</title>
<polygon fill="white" stroke="#bfbfbf" points="2198,-193 2198,-213 2256,-213 2256,-193 2198,-193"/>
<text text-anchor="middle" x="2227" y="-200" font-family="FreeSans" font-size="10.00">stdexcept</text>
</g>
<!-- Node30&#45;&gt;Node31 -->
<g id="edge106" class="edge"><title>Node30&#45;&gt;Node31</title>
<path fill="none" stroke="midnightblue" d="M2227,-262.971C2227,-252.679 2227,-236.375 2227,-223.364"/>
<polygon fill="midnightblue" stroke="midnightblue" points="2230.5,-223.011 2227,-213.011 2223.5,-223.011 2230.5,-223.011"/>
</g>
<!-- Node34&#45;&gt;Node4 -->
<g id="edge122" class="edge"><title>Node34&#45;&gt;Node4</title>
<path fill="none" stroke="midnightblue" d="M1386.33,-329.907C1340.64,-321.719 1272.85,-307.152 1253,-290 1192.31,-237.543 1151.69,-175.944 1205,-116 1228.45,-89.6288 1463.7,-75.6204 1562.09,-70.877"/>
<polygon fill="midnightblue" stroke="midnightblue" points="1562.46,-74.3635 1572.29,-70.3952 1562.13,-67.3713 1562.46,-74.3635"/>
</g>
<!-- Node36 -->
<g id="node99" class="node"><title>Node36</title>
<polygon fill="white" stroke="#bfbfbf" points="2313,-263 2313,-283 2417,-283 2417,-263 2313,-263"/>
<text text-anchor="middle" x="2365" y="-270" font-family="FreeSans" font-size="10.00">tbb/blocked_range.h</text>
</g>
<!-- Node35&#45;&gt;Node36 -->
<g id="edge126" class="edge"><title>Node35&#45;&gt;Node36</title>
<path fill="none" stroke="midnightblue" d="M2149.86,-328.181C2152.61,-327.437 2155.35,-326.701 2158,-326 2220.52,-309.425 2236.35,-306.066 2299,-290 2304.44,-288.604 2310.14,-287.141 2315.81,-285.683"/>
<polygon fill="midnightblue" stroke="midnightblue" points="2317.1,-288.963 2325.92,-283.082 2315.36,-282.184 2317.1,-288.963"/>
</g>
<!-- Node37 -->
<g id="node101" class="node"><title>Node37</title>
<polygon fill="white" stroke="#bfbfbf" points="2435,-263 2435,-283 2523,-283 2523,-263 2435,-263"/>
<text text-anchor="middle" x="2479" y="-270" font-family="FreeSans" font-size="10.00">tbb/parallel_for.h</text>
</g>
<!-- Node35&#45;&gt;Node37 -->
<g id="edge128" class="edge"><title>Node35&#45;&gt;Node37</title>
<path fill="none" stroke="midnightblue" d="M2149.78,-327.844C2152.55,-327.173 2155.32,-326.546 2158,-326 2275.76,-302.012 2308.77,-316.457 2426,-290 2431,-288.872 2436.2,-287.482 2441.3,-285.988"/>
<polygon fill="midnightblue" stroke="midnightblue" points="2442.4,-289.313 2450.92,-283.025 2440.34,-282.623 2442.4,-289.313"/>
</g>
</g>
</svg>
