<?xml version="1.0" encoding="UTF-8" standalone="no"?>
<!DOCTYPE svg PUBLIC "-//W3C//DTD SVG 1.1//EN"
 "http://www.w3.org/Graphics/SVG/1.1/DTD/svg11.dtd">
<!-- Generated by graphviz version 2.36.0 (20140111.2315)
 -->
<!-- Title: src/flameSolver.h Pages: 1 -->
<svg width="2865pt" height="376pt"
 viewBox="0.00 0.00 2865.00 376.00" xmlns="http://www.w3.org/2000/svg" xmlns:xlink="http://www.w3.org/1999/xlink">
<g id="graph0" class="graph" transform="scale(1 1) rotate(0) translate(4 372)">
<title>src/flameSolver.h</title>
<polygon fill="white" stroke="none" points="-4,4 -4,-372 2861,-372 2861,4 -4,4"/>
<!-- Node1 -->
<g id="node1" class="node"><title>Node1</title>
<polygon fill="#bfbfbf" stroke="black" points="1384,-348.5 1384,-367.5 1474,-367.5 1474,-348.5 1384,-348.5"/>
<text text-anchor="middle" x="1429" y="-355.5" font-family="FreeSans" font-size="10.00">src/flameSolver.h</text>
</g>
<!-- Node2 -->
<g id="node2" class="node"><title>Node2</title>
<g id="a_node2"><a xlink:href="readConfig_8h.html" target="_top" xlink:title="readConfig.h">
<polygon fill="white" stroke="black" points="915,-168.5 915,-187.5 985,-187.5 985,-168.5 915,-168.5"/>
<text text-anchor="middle" x="950" y="-175.5" font-family="FreeSans" font-size="10.00">readConfig.h</text>
</a>
</g>
</g>
<!-- Node1&#45;&gt;Node2 -->
<g id="edge1" class="edge"><title>Node1&#45;&gt;Node2</title>
<path fill="none" stroke="midnightblue" d="M1383.98,-356.914C1283.44,-356.031 1043.98,-349.888 974,-312 945.922,-296.798 939.601,-286.118 929,-256 921.98,-236.058 930.788,-212.535 939.05,-196.783"/>
<polygon fill="midnightblue" stroke="midnightblue" points="942.331,-198.094 944.229,-187.67 936.245,-194.635 942.331,-198.094"/>
</g>
<!-- Node6 -->
<g id="node6" class="node"><title>Node6</title>
<polygon fill="white" stroke="#bfbfbf" points="1949.5,-0.5 1949.5,-19.5 2002.5,-19.5 2002.5,-0.5 1949.5,-0.5"/>
<text text-anchor="middle" x="1976" y="-7.5" font-family="FreeSans" font-size="10.00">iostream</text>
</g>
<!-- Node1&#45;&gt;Node6 -->
<g id="edge75" class="edge"><title>Node1&#45;&gt;Node6</title>
<path fill="none" stroke="midnightblue" d="M1474.35,-355.503C1708.42,-347.483 2769,-307.477 2769,-241 2769,-241 2769,-241 2769,-121 2769,-43.6391 2169.24,-17.6394 2012.9,-12.1762"/>
<polygon fill="midnightblue" stroke="midnightblue" points="2012.95,-8.67607 2002.84,-11.8318 2012.71,-15.672 2012.95,-8.67607"/>
</g>
<!-- Node12 -->
<g id="node12" class="node"><title>Node12</title>
<g id="a_node12"><a xlink:href="chemistry0d_8h.html" target="_top" xlink:title="chemistry0d.h">
<polygon fill="white" stroke="black" points="628,-168.5 628,-187.5 704,-187.5 704,-168.5 628,-168.5"/>
<text text-anchor="middle" x="666" y="-175.5" font-family="FreeSans" font-size="10.00">chemistry0d.h</text>
</a>
</g>
</g>
<!-- Node1&#45;&gt;Node12 -->
<g id="edge14" class="edge"><title>Node1&#45;&gt;Node12</title>
<path fill="none" stroke="midnightblue" d="M1383.97,-354.852C1280.07,-349.57 1026.23,-334.702 944,-312 842.918,-284.093 733.662,-220.958 687.999,-192.895"/>
<polygon fill="midnightblue" stroke="midnightblue" points="689.833,-189.914 679.49,-187.618 686.143,-195.863 689.833,-189.914"/>
</g>
<!-- Node22 -->
<g id="node22" class="node"><title>Node22</title>
<g id="a_node22"><a xlink:href="grid_8h.html" target="_top" xlink:title="grid.h">
<polygon fill="white" stroke="black" points="938,-230.5 938,-249.5 978,-249.5 978,-230.5 938,-230.5"/>
<text text-anchor="middle" x="958" y="-237.5" font-family="FreeSans" font-size="10.00">grid.h</text>
</a>
</g>
</g>
<!-- Node1&#45;&gt;Node22 -->
<g id="edge25" class="edge"><title>Node1&#45;&gt;Node22</title>
<path fill="none" stroke="midnightblue" d="M1383.68,-357.599C1285.58,-358.066 1057.42,-354.416 995,-312 977.082,-299.824 967.267,-276.157 962.33,-259.504"/>
<polygon fill="midnightblue" stroke="midnightblue" points="965.695,-258.537 959.754,-249.764 958.928,-260.327 965.695,-258.537"/>
</g>
<!-- Node23 -->
<g id="node23" class="node"><title>Node23</title>
<g id="a_node23"><a xlink:href="splitSolver_8h.html" target="_top" xlink:title="splitSolver.h">
<polygon fill="white" stroke="black" points="1138,-292.5 1138,-311.5 1206,-311.5 1206,-292.5 1138,-292.5"/>
<text text-anchor="middle" x="1172" y="-299.5" font-family="FreeSans" font-size="10.00">splitSolver.h</text>
</a>
</g>
</g>
<!-- Node1&#45;&gt;Node23 -->
<g id="edge27" class="edge"><title>Node1&#45;&gt;Node23</title>
<path fill="none" stroke="midnightblue" d="M1388.28,-348.444C1341.37,-338.587 1264.57,-322.45 1216.23,-312.293"/>
<polygon fill="midnightblue" stroke="midnightblue" points="1216.87,-308.851 1206.36,-310.22 1215.43,-315.702 1216.87,-308.851"/>
</g>
<!-- Node24 -->
<g id="node24" class="node"><title>Node24</title>
<g id="a_node24"><a xlink:href="perfTimer_8h.html" target="_top" xlink:title="perfTimer.h">
<polygon fill="white" stroke="black" points="1700.5,-230.5 1700.5,-249.5 1765.5,-249.5 1765.5,-230.5 1700.5,-230.5"/>
<text text-anchor="middle" x="1733" y="-237.5" font-family="FreeSans" font-size="10.00">perfTimer.h</text>
</a>
</g>
</g>
<!-- Node1&#45;&gt;Node24 -->
<g id="edge35" class="edge"><title>Node1&#45;&gt;Node24</title>
<path fill="none" stroke="midnightblue" d="M1464.07,-348.44C1495.63,-340.342 1543.03,-327.189 1583,-312 1628.25,-294.803 1678.71,-269.598 1708.06,-254.303"/>
<polygon fill="midnightblue" stroke="midnightblue" points="1709.93,-257.27 1717.16,-249.522 1706.68,-251.073 1709.93,-257.27"/>
</g>
<!-- Node25 -->
<g id="node25" class="node"><title>Node25</title>
<g id="a_node25"><a xlink:href="tbb__tools_8h.html" target="_top" xlink:title="tbb_tools.h">
<polygon fill="white" stroke="red" points="2677.5,-168.5 2677.5,-187.5 2740.5,-187.5 2740.5,-168.5 2677.5,-168.5"/>
<text text-anchor="middle" x="2709" y="-175.5" font-family="FreeSans" font-size="10.00">tbb_tools.h</text>
</a>
</g>
</g>
<!-- Node1&#45;&gt;Node25 -->
<g id="edge78" class="edge"><title>Node1&#45;&gt;Node25</title>
<path fill="none" stroke="midnightblue" d="M1474.21,-352.166C1635.28,-334.662 2196.15,-271.31 2667.2,-188.015"/>
<polygon fill="midnightblue" stroke="midnightblue" points="2668.03,-191.423 2677.27,-186.23 2666.81,-184.531 2668.03,-191.423"/>
</g>
<!-- Node28 -->
<g id="node28" class="node"><title>Node28</title>
<g id="a_node28"><a xlink:href="integrator_8h.html" target="_top" xlink:title="integrator.h">
<polygon fill="white" stroke="black" points="1110.5,-230.5 1110.5,-249.5 1175.5,-249.5 1175.5,-230.5 1110.5,-230.5"/>
<text text-anchor="middle" x="1143" y="-237.5" font-family="FreeSans" font-size="10.00">integrator.h</text>
</a>
</g>
</g>
<!-- Node1&#45;&gt;Node28 -->
<g id="edge36" class="edge"><title>Node1&#45;&gt;Node28</title>
<path fill="none" stroke="midnightblue" d="M1404.33,-348.466C1379.38,-339.718 1339.78,-325.52 1306,-312 1258.22,-292.872 1203.52,-268.539 1171.2,-253.897"/>
<polygon fill="midnightblue" stroke="midnightblue" points="1172.47,-250.63 1161.92,-249.681 1169.57,-257.003 1172.47,-250.63"/>
</g>
<!-- Node29 -->
<g id="node29" class="node"><title>Node29</title>
<g id="a_node29"><a xlink:href="sourceSystem_8h.html" target="_top" xlink:title="sourceSystem.h">
<polygon fill="white" stroke="black" points="1315.5,-292.5 1315.5,-311.5 1400.5,-311.5 1400.5,-292.5 1315.5,-292.5"/>
<text text-anchor="middle" x="1358" y="-299.5" font-family="FreeSans" font-size="10.00">sourceSystem.h</text>
</a>
</g>
</g>
<!-- Node1&#45;&gt;Node29 -->
<g id="edge38" class="edge"><title>Node1&#45;&gt;Node29</title>
<path fill="none" stroke="midnightblue" d="M1417.59,-348.324C1406.89,-340.185 1390.66,-327.839 1377.84,-318.087"/>
<polygon fill="midnightblue" stroke="midnightblue" points="1379.69,-315.102 1369.61,-311.834 1375.46,-320.673 1379.69,-315.102"/>
</g>
<!-- Node41 -->
<g id="node41" class="node"><title>Node41</title>
<g id="a_node41"><a xlink:href="quasi2d_8h.html" target="_top" xlink:title="quasi2d.h">
<polygon fill="white" stroke="black" points="1329.5,-230.5 1329.5,-249.5 1386.5,-249.5 1386.5,-230.5 1329.5,-230.5"/>
<text text-anchor="middle" x="1358" y="-237.5" font-family="FreeSans" font-size="10.00">quasi2d.h</text>
</a>
</g>
</g>
<!-- Node1&#45;&gt;Node41 -->
<g id="edge72" class="edge"><title>Node1&#45;&gt;Node41</title>
<path fill="none" stroke="midnightblue" d="M1427.73,-348.461C1425.52,-335.496 1420.08,-310.409 1409,-292 1400.66,-278.152 1387.76,-265.301 1377.03,-255.964"/>
<polygon fill="midnightblue" stroke="midnightblue" points="1379.27,-253.274 1369.35,-249.55 1374.78,-258.646 1379.27,-253.274"/>
</g>
<!-- Node42 -->
<g id="node42" class="node"><title>Node42</title>
<polygon fill="white" stroke="#bfbfbf" points="1784,-230.5 1784,-249.5 1890,-249.5 1890,-230.5 1784,-230.5"/>
<text text-anchor="middle" x="1837" y="-237.5" font-family="FreeSans" font-size="10.00">boost/shared_ptr.hpp</text>
</g>
<!-- Node1&#45;&gt;Node42 -->
<g id="edge77" class="edge"><title>Node1&#45;&gt;Node42</title>
<path fill="none" stroke="midnightblue" d="M1470.09,-348.459C1509.15,-340.083 1569.42,-326.493 1621,-312 1686.44,-293.614 1761.57,-267.839 1803.75,-252.934"/>
<polygon fill="midnightblue" stroke="midnightblue" points="1804.98,-256.21 1813.24,-249.568 1802.64,-249.613 1804.98,-256.21"/>
</g>
<!-- Node43 -->
<g id="node43" class="node"><title>Node43</title>
<g id="a_node43"><a xlink:href="diffusionSystem_8h.html" target="_top" xlink:title="diffusionSystem.h">
<polygon fill="white" stroke="black" points="1004.5,-292.5 1004.5,-311.5 1095.5,-311.5 1095.5,-292.5 1004.5,-292.5"/>
<text text-anchor="middle" x="1050" y="-299.5" font-family="FreeSans" font-size="10.00">diffusionSystem.h</text>
</a>
</g>
</g>
<!-- Node1&#45;&gt;Node43 -->
<g id="edge60" class="edge"><title>Node1&#45;&gt;Node43</title>
<path fill="none" stroke="midnightblue" d="M1383.66,-350.54C1314.13,-340.634 1181.34,-321.713 1105.93,-310.969"/>
<polygon fill="midnightblue" stroke="midnightblue" points="1106.08,-307.455 1095.69,-309.51 1105.09,-314.385 1106.08,-307.455"/>
</g>
<!-- Node44 -->
<g id="node44" class="node"><title>Node44</title>
<g id="a_node44"><a xlink:href="convectionSystem_8h.html" target="_top" xlink:title="convectionSystem.h">
<polygon fill="white" stroke="black" points="1471.5,-292.5 1471.5,-311.5 1574.5,-311.5 1574.5,-292.5 1471.5,-292.5"/>
<text text-anchor="middle" x="1523" y="-299.5" font-family="FreeSans" font-size="10.00">convectionSystem.h</text>
</a>
</g>
</g>
<!-- Node1&#45;&gt;Node44 -->
<g id="edge64" class="edge"><title>Node1&#45;&gt;Node44</title>
<path fill="none" stroke="midnightblue" d="M1444.1,-348.324C1458.9,-339.822 1481.69,-326.729 1498.98,-316.797"/>
<polygon fill="midnightblue" stroke="midnightblue" points="1501.01,-319.671 1507.93,-311.655 1497.52,-313.601 1501.01,-319.671"/>
</g>
<!-- Node45 -->
<g id="node45" class="node"><title>Node45</title>
<polygon fill="white" stroke="#bfbfbf" points="1908.5,-225 1908.5,-255 2007.5,-255 2007.5,-225 1908.5,-225"/>
<text text-anchor="start" x="1916.5" y="-243" font-family="FreeSans" font-size="10.00">boost/ptr_container</text>
<text text-anchor="middle" x="1958" y="-232" font-family="FreeSans" font-size="10.00">/ptr_vector.hpp</text>
</g>
<!-- Node1&#45;&gt;Node45 -->
<g id="edge76" class="edge"><title>Node1&#45;&gt;Node45</title>
<path fill="none" stroke="midnightblue" d="M1474.07,-349.244C1522.23,-340.788 1600.73,-326.513 1668,-312 1770.84,-289.814 1795.85,-281.203 1898,-256 1898.1,-255.974 1898.21,-255.949 1898.31,-255.923"/>
<polygon fill="midnightblue" stroke="midnightblue" points="1899.37,-259.266 1908.24,-253.465 1897.69,-252.471 1899.37,-259.266"/>
</g>
<!-- Node46 -->
<g id="node46" class="node"><title>Node46</title>
<g id="a_node46"><a xlink:href="callback_8h.html" target="_top" xlink:title="callback.h">
<polygon fill="white" stroke="black" points="2797,-292.5 2797,-311.5 2857,-311.5 2857,-292.5 2797,-292.5"/>
<text text-anchor="middle" x="2827" y="-299.5" font-family="FreeSans" font-size="10.00">callback.h</text>
</a>
</g>
</g>
<!-- Node1&#45;&gt;Node46 -->
<g id="edge73" class="edge"><title>Node1&#45;&gt;Node46</title>
<path fill="none" stroke="midnightblue" d="M1474.23,-356.522C1679.07,-354.198 2521.1,-342.914 2783,-312 2784.26,-311.851 2785.54,-311.684 2786.84,-311.503"/>
<polygon fill="midnightblue" stroke="midnightblue" points="2787.51,-314.94 2796.81,-309.872 2786.38,-308.031 2787.51,-314.94"/>
</g>
<!-- Node3 -->
<g id="node3" class="node"><title>Node3</title>
<g id="a_node3"><a xlink:href="mathUtils_8h.html" target="_top" xlink:title="mathUtils.h">
<polygon fill="white" stroke="black" points="1163.5,-112.5 1163.5,-131.5 1228.5,-131.5 1228.5,-112.5 1163.5,-112.5"/>
<text text-anchor="middle" x="1196" y="-119.5" font-family="FreeSans" font-size="10.00">mathUtils.h</text>
</a>
</g>
</g>
<!-- Node2&#45;&gt;Node3 -->
<g id="edge2" class="edge"><title>Node2&#45;&gt;Node3</title>
<path fill="none" stroke="midnightblue" d="M985.246,-169.263C1029.56,-159.536 1105.57,-142.85 1153.18,-132.399"/>
<polygon fill="midnightblue" stroke="midnightblue" points="1154.16,-135.768 1163.18,-130.205 1152.66,-128.93 1154.16,-135.768"/>
</g>
<!-- Node8 -->
<g id="node8" class="node"><title>Node8</title>
<polygon fill="white" stroke="#bfbfbf" points="1076,-0.5 1076,-19.5 1116,-19.5 1116,-0.5 1076,-0.5"/>
<text text-anchor="middle" x="1096" y="-7.5" font-family="FreeSans" font-size="10.00">string</text>
</g>
<!-- Node2&#45;&gt;Node8 -->
<g id="edge13" class="edge"><title>Node2&#45;&gt;Node8</title>
<path fill="none" stroke="midnightblue" d="M977.097,-168.405C996.132,-161.218 1021.11,-149.327 1038,-132 1066.89,-102.354 1083.62,-55.5621 1091.15,-29.7129"/>
<polygon fill="midnightblue" stroke="midnightblue" points="1094.62,-30.307 1093.9,-19.7365 1087.87,-28.448 1094.62,-30.307"/>
</g>
<!-- Node4 -->
<g id="node4" class="node"><title>Node4</title>
<polygon fill="white" stroke="#bfbfbf" points="1981.5,-56.5 1981.5,-75.5 2024.5,-75.5 2024.5,-56.5 1981.5,-56.5"/>
<text text-anchor="middle" x="2003" y="-63.5" font-family="FreeSans" font-size="10.00">vector</text>
</g>
<!-- Node3&#45;&gt;Node4 -->
<g id="edge3" class="edge"><title>Node3&#45;&gt;Node4</title>
<path fill="none" stroke="midnightblue" d="M1228.63,-118.816C1359.14,-110.084 1842.59,-77.7336 1971.33,-69.119"/>
<polygon fill="midnightblue" stroke="midnightblue" points="1971.59,-72.6098 1981.33,-68.4498 1971.12,-65.6254 1971.59,-72.6098"/>
</g>
<!-- Node5 -->
<g id="node5" class="node"><title>Node5</title>
<polygon fill="white" stroke="#bfbfbf" points="1212,-56.5 1212,-75.5 1256,-75.5 1256,-56.5 1212,-56.5"/>
<text text-anchor="middle" x="1234" y="-63.5" font-family="FreeSans" font-size="10.00">cmath</text>
</g>
<!-- Node3&#45;&gt;Node5 -->
<g id="edge4" class="edge"><title>Node3&#45;&gt;Node5</title>
<path fill="none" stroke="midnightblue" d="M1202.27,-112.083C1207.64,-104.455 1215.52,-93.2645 1222.08,-83.9408"/>
<polygon fill="midnightblue" stroke="midnightblue" points="1224.95,-85.9434 1227.84,-75.7511 1219.22,-81.9149 1224.95,-85.9434"/>
</g>
<!-- Node3&#45;&gt;Node6 -->
<g id="edge5" class="edge"><title>Node3&#45;&gt;Node6</title>
<path fill="none" stroke="midnightblue" d="M1228.71,-115.637C1282.37,-106.644 1386.68,-88.3049 1422,-76 1440.4,-69.5921 1442.28,-61.3928 1461,-56 1551.06,-30.0529 1836.96,-16.4911 1939.2,-12.3762"/>
<polygon fill="midnightblue" stroke="midnightblue" points="1939.5,-15.8675 1949.35,-11.9747 1939.22,-8.87292 1939.5,-15.8675"/>
</g>
<!-- Node7 -->
<g id="node7" class="node"><title>Node7</title>
<polygon fill="white" stroke="#bfbfbf" points="1274,-56.5 1274,-75.5 1324,-75.5 1324,-56.5 1274,-56.5"/>
<text text-anchor="middle" x="1299" y="-63.5" font-family="FreeSans" font-size="10.00">sstream</text>
</g>
<!-- Node3&#45;&gt;Node7 -->
<g id="edge6" class="edge"><title>Node3&#45;&gt;Node7</title>
<path fill="none" stroke="midnightblue" d="M1212.55,-112.324C1228.99,-103.703 1254.43,-90.3643 1273.47,-80.3855"/>
<polygon fill="midnightblue" stroke="midnightblue" points="1275.26,-83.3977 1282.49,-75.6545 1272.01,-77.198 1275.26,-83.3977"/>
</g>
<!-- Node3&#45;&gt;Node8 -->
<g id="edge7" class="edge"><title>Node3&#45;&gt;Node8</title>
<path fill="none" stroke="midnightblue" d="M1169.84,-112.494C1151.96,-105.405 1129.06,-93.5963 1115,-76 1104.35,-62.6634 1099.67,-43.5472 1097.61,-29.4967"/>
<polygon fill="midnightblue" stroke="midnightblue" points="1101.08,-29.055 1096.46,-19.5218 1094.13,-29.8569 1101.08,-29.055"/>
</g>
<!-- Node9 -->
<g id="node9" class="node"><title>Node9</title>
<polygon fill="white" stroke="#bfbfbf" points="1470.5,-56.5 1470.5,-75.5 1505.5,-75.5 1505.5,-56.5 1470.5,-56.5"/>
<text text-anchor="middle" x="1488" y="-63.5" font-family="FreeSans" font-size="10.00">map</text>
</g>
<!-- Node3&#45;&gt;Node9 -->
<g id="edge8" class="edge"><title>Node3&#45;&gt;Node9</title>
<path fill="none" stroke="midnightblue" d="M1228.58,-115.791C1288.3,-106.171 1413.11,-85.7162 1456,-76 1457.48,-75.6653 1458.99,-75.3046 1460.51,-74.9268"/>
<polygon fill="midnightblue" stroke="midnightblue" points="1461.71,-78.2291 1470.48,-72.2785 1459.91,-71.4638 1461.71,-78.2291"/>
</g>
<!-- Node10 -->
<g id="node10" class="node"><title>Node10</title>
<g id="a_node10"><a xlink:href="debugUtils_8h.html" target="_top" xlink:title="debugUtils.h">
<polygon fill="white" stroke="red" points="1124.5,-56.5 1124.5,-75.5 1193.5,-75.5 1193.5,-56.5 1124.5,-56.5"/>
<text text-anchor="middle" x="1159" y="-63.5" font-family="FreeSans" font-size="10.00">debugUtils.h</text>
</a>
</g>
</g>
<!-- Node3&#45;&gt;Node10 -->
<g id="edge9" class="edge"><title>Node3&#45;&gt;Node10</title>
<path fill="none" stroke="midnightblue" d="M1189.89,-112.083C1184.72,-104.534 1177.15,-93.4948 1170.81,-84.2298"/>
<polygon fill="midnightblue" stroke="midnightblue" points="1173.54,-82.0221 1165,-75.7511 1167.76,-85.9787 1173.54,-82.0221"/>
</g>
<!-- Node11 -->
<g id="node11" class="node"><title>Node11</title>
<polygon fill="white" stroke="#bfbfbf" points="1342.5,-56.5 1342.5,-75.5 1413.5,-75.5 1413.5,-56.5 1342.5,-56.5"/>
<text text-anchor="middle" x="1378" y="-63.5" font-family="FreeSans" font-size="10.00">Eigen/Dense</text>
</g>
<!-- Node3&#45;&gt;Node11 -->
<g id="edge12" class="edge"><title>Node3&#45;&gt;Node11</title>
<path fill="none" stroke="midnightblue" d="M1224.84,-112.444C1255.86,-103.241 1305.33,-88.5617 1339.62,-78.3879"/>
<polygon fill="midnightblue" stroke="midnightblue" points="1340.71,-81.7164 1349.3,-75.5164 1338.71,-75.0055 1340.71,-81.7164"/>
</g>
<!-- Node10&#45;&gt;Node6 -->
<g id="edge11" class="edge"><title>Node10&#45;&gt;Node6</title>
<path fill="none" stroke="midnightblue" d="M1193.51,-57.4537C1196.71,-56.9018 1199.91,-56.4042 1203,-56 1484.5,-19.2098 1827.61,-12.4953 1939.11,-11.2719"/>
<polygon fill="midnightblue" stroke="midnightblue" points="1939.2,-14.7713 1949.17,-11.1699 1939.13,-7.77164 1939.2,-14.7713"/>
</g>
<!-- Node10&#45;&gt;Node8 -->
<g id="edge10" class="edge"><title>Node10&#45;&gt;Node8</title>
<path fill="none" stroke="midnightblue" d="M1148.88,-56.324C1139.47,-48.2631 1125.26,-36.0765 1113.93,-26.3695"/>
<polygon fill="midnightblue" stroke="midnightblue" points="1116.18,-23.6844 1106.31,-19.8339 1111.62,-28.9993 1116.18,-23.6844"/>
</g>
<!-- Node12&#45;&gt;Node3 -->
<g id="edge24" class="edge"><title>Node12&#45;&gt;Node3</title>
<path fill="none" stroke="midnightblue" d="M704.116,-173.116C800.282,-163.318 1052.27,-137.644 1153.25,-127.356"/>
<polygon fill="midnightblue" stroke="midnightblue" points="1153.79,-130.819 1163.39,-126.323 1153.08,-123.855 1153.79,-130.819"/>
</g>
<!-- Node13 -->
<g id="node13" class="node"><title>Node13</title>
<polygon fill="white" stroke="#bfbfbf" points="-0.5,-112.5 -0.5,-131.5 112.5,-131.5 112.5,-112.5 -0.5,-112.5"/>
<text text-anchor="middle" x="56" y="-119.5" font-family="FreeSans" font-size="10.00">cantera/IdealGasMix.h</text>
</g>
<!-- Node12&#45;&gt;Node13 -->
<g id="edge15" class="edge"><title>Node12&#45;&gt;Node13</title>
<path fill="none" stroke="midnightblue" d="M627.68,-174.531C540.242,-168.748 319.082,-153.268 122.72,-132.019"/>
<polygon fill="midnightblue" stroke="midnightblue" points="122.822,-128.509 112.501,-130.905 122.063,-135.468 122.822,-128.509"/>
</g>
<!-- Node14 -->
<g id="node14" class="node"><title>Node14</title>
<polygon fill="white" stroke="#bfbfbf" points="131,-112.5 131,-131.5 237,-131.5 237,-112.5 131,-112.5"/>
<text text-anchor="middle" x="184" y="-119.5" font-family="FreeSans" font-size="10.00">cantera/equilibrium.h</text>
</g>
<!-- Node12&#45;&gt;Node14 -->
<g id="edge16" class="edge"><title>Node12&#45;&gt;Node14</title>
<path fill="none" stroke="midnightblue" d="M627.916,-173.444C555.649,-166.585 393.419,-150.656 247.261,-132.251"/>
<polygon fill="midnightblue" stroke="midnightblue" points="247.573,-128.763 237.213,-130.979 246.694,-135.708 247.573,-128.763"/>
</g>
<!-- Node15 -->
<g id="node15" class="node"><title>Node15</title>
<polygon fill="white" stroke="#bfbfbf" points="254.5,-112.5 254.5,-131.5 343.5,-131.5 343.5,-112.5 254.5,-112.5"/>
<text text-anchor="middle" x="299" y="-119.5" font-family="FreeSans" font-size="10.00">cantera/thermo.h</text>
</g>
<!-- Node12&#45;&gt;Node15 -->
<g id="edge17" class="edge"><title>Node12&#45;&gt;Node15</title>
<path fill="none" stroke="midnightblue" d="M627.767,-171.845C570.445,-164.046 458.57,-148.551 353.649,-132.228"/>
<polygon fill="midnightblue" stroke="midnightblue" points="353.94,-128.731 343.519,-130.646 352.86,-135.647 353.94,-128.731"/>
</g>
<!-- Node16 -->
<g id="node16" class="node"><title>Node16</title>
<polygon fill="white" stroke="#bfbfbf" points="361.5,-112.5 361.5,-131.5 458.5,-131.5 458.5,-112.5 361.5,-112.5"/>
<text text-anchor="middle" x="410" y="-119.5" font-family="FreeSans" font-size="10.00">cantera/transport.h</text>
</g>
<!-- Node12&#45;&gt;Node16 -->
<g id="edge18" class="edge"><title>Node12&#45;&gt;Node16</title>
<path fill="none" stroke="midnightblue" d="M627.951,-168.974C583.386,-159.574 509.405,-143.968 460.177,-133.584"/>
<polygon fill="midnightblue" stroke="midnightblue" points="460.88,-130.156 450.373,-131.516 459.435,-137.005 460.88,-130.156"/>
</g>
<!-- Node17 -->
<g id="node17" class="node"><title>Node17</title>
<polygon fill="white" stroke="#bfbfbf" points="477,-112.5 477,-131.5 569,-131.5 569,-112.5 477,-112.5"/>
<text text-anchor="middle" x="523" y="-119.5" font-family="FreeSans" font-size="10.00">cantera/kinetics.h</text>
</g>
<!-- Node12&#45;&gt;Node17 -->
<g id="edge19" class="edge"><title>Node12&#45;&gt;Node17</title>
<path fill="none" stroke="midnightblue" d="M643.341,-168.444C619.598,-159.478 582.091,-145.314 555.262,-135.183"/>
<polygon fill="midnightblue" stroke="midnightblue" points="556.144,-131.775 545.553,-131.516 553.671,-138.324 556.144,-131.775"/>
</g>
<!-- Node18 -->
<g id="node18" class="node"><title>Node18</title>
<polygon fill="white" stroke="#bfbfbf" points="587,-112.5 587,-131.5 745,-131.5 745,-112.5 587,-112.5"/>
<text text-anchor="middle" x="666" y="-119.5" font-family="FreeSans" font-size="10.00">cantera/thermo/IdealGasPhase.h</text>
</g>
<!-- Node12&#45;&gt;Node18 -->
<g id="edge20" class="edge"><title>Node12&#45;&gt;Node18</title>
<path fill="none" stroke="midnightblue" d="M666,-168.083C666,-161.006 666,-150.861 666,-141.986"/>
<polygon fill="midnightblue" stroke="midnightblue" points="669.5,-141.751 666,-131.751 662.5,-141.751 669.5,-141.751"/>
</g>
<!-- Node19 -->
<g id="node19" class="node"><title>Node19</title>
<polygon fill="white" stroke="#bfbfbf" points="763.5,-112.5 763.5,-131.5 910.5,-131.5 910.5,-112.5 763.5,-112.5"/>
<text text-anchor="middle" x="837" y="-119.5" font-family="FreeSans" font-size="10.00">cantera/kinetics/GasKinetics.h</text>
</g>
<!-- Node12&#45;&gt;Node19 -->
<g id="edge21" class="edge"><title>Node12&#45;&gt;Node19</title>
<path fill="none" stroke="midnightblue" d="M693.095,-168.444C721.988,-159.32 767.925,-144.813 800.105,-134.651"/>
<polygon fill="midnightblue" stroke="midnightblue" points="801.549,-137.865 810.031,-131.516 799.441,-131.19 801.549,-137.865"/>
</g>
<!-- Node20 -->
<g id="node20" class="node"><title>Node20</title>
<polygon fill="white" stroke="#bfbfbf" points="928.5,-112.5 928.5,-131.5 1029.5,-131.5 1029.5,-112.5 928.5,-112.5"/>
<text text-anchor="middle" x="979" y="-119.5" font-family="FreeSans" font-size="10.00">cantera/base/ctml.h</text>
</g>
<!-- Node12&#45;&gt;Node20 -->
<g id="edge22" class="edge"><title>Node12&#45;&gt;Node20</title>
<path fill="none" stroke="midnightblue" d="M704.067,-170.433C757.696,-161.18 856.009,-144.219 919.382,-133.285"/>
<polygon fill="midnightblue" stroke="midnightblue" points="920.368,-136.667 929.628,-131.518 919.178,-129.769 920.368,-136.667"/>
</g>
<!-- Node21 -->
<g id="node21" class="node"><title>Node21</title>
<g id="a_node21"><a xlink:href="config_8h.html" target="_top" xlink:title="config.h">
<polygon fill="white" stroke="black" points="2395,-112.5 2395,-131.5 2445,-131.5 2445,-112.5 2395,-112.5"/>
<text text-anchor="middle" x="2420" y="-119.5" font-family="FreeSans" font-size="10.00">config.h</text>
</a>
</g>
</g>
<!-- Node12&#45;&gt;Node21 -->
<g id="edge23" class="edge"><title>Node12&#45;&gt;Node21</title>
<path fill="none" stroke="midnightblue" d="M704.238,-175.474C751.595,-173.606 834.74,-170.395 906,-168 1496.84,-148.141 2217.55,-128.458 2384.37,-123.957"/>
<polygon fill="midnightblue" stroke="midnightblue" points="2384.65,-127.45 2394.55,-123.682 2384.46,-120.453 2384.65,-127.45"/>
</g>
<!-- Node22&#45;&gt;Node2 -->
<g id="edge26" class="edge"><title>Node22&#45;&gt;Node2</title>
<path fill="none" stroke="midnightblue" d="M956.854,-230.403C955.725,-221.938 953.964,-208.728 952.509,-197.82"/>
<polygon fill="midnightblue" stroke="midnightblue" points="955.935,-197.03 951.144,-187.581 948.997,-197.955 955.935,-197.03"/>
</g>
<!-- Node23&#45;&gt;Node2 -->
<g id="edge34" class="edge"><title>Node23&#45;&gt;Node2</title>
<path fill="none" stroke="midnightblue" d="M1149.16,-292.417C1127.74,-284.063 1095.03,-270.532 1068,-256 1032.05,-236.674 992.836,-209.831 969.884,-193.479"/>
<polygon fill="midnightblue" stroke="midnightblue" points="971.813,-190.555 961.649,-187.564 967.729,-196.24 971.813,-190.555"/>
</g>
<!-- Node23&#45;&gt;Node3 -->
<g id="edge28" class="edge"><title>Node23&#45;&gt;Node3</title>
<path fill="none" stroke="midnightblue" d="M1146.84,-292.378C1130.58,-285.343 1110.71,-273.645 1101,-256 1094.14,-243.539 1097.17,-237.696 1101,-224 1108.85,-195.96 1115.36,-189.494 1135,-168 1145.89,-156.078 1160.36,-145.246 1172.47,-137.198"/>
<polygon fill="midnightblue" stroke="midnightblue" points="1174.65,-139.959 1181.18,-131.614 1170.87,-134.068 1174.65,-139.959"/>
</g>
<!-- Node23&#45;&gt;Node24 -->
<g id="edge29" class="edge"><title>Node23&#45;&gt;Node24</title>
<path fill="none" stroke="midnightblue" d="M1206.26,-298.542C1314.36,-290.715 1643.84,-266.288 1691,-256 1694.89,-255.152 1698.91,-254.039 1702.85,-252.803"/>
<polygon fill="midnightblue" stroke="midnightblue" points="1704.04,-256.096 1712.37,-249.555 1701.78,-249.471 1704.04,-256.096"/>
</g>
<!-- Node24&#45;&gt;Node25 -->
<g id="edge30" class="edge"><title>Node24&#45;&gt;Node25</title>
<path fill="none" stroke="midnightblue" d="M1753.16,-230.405C1759.97,-227.879 1767.7,-225.416 1775,-224 2161.7,-148.965 2272.22,-237.288 2667.33,-187.804"/>
<polygon fill="midnightblue" stroke="midnightblue" points="2667.84,-191.268 2677.31,-186.532 2666.95,-184.324 2667.84,-191.268"/>
</g>
<!-- Node26 -->
<g id="node26" class="node"><title>Node26</title>
<polygon fill="white" stroke="#bfbfbf" points="2600.5,-168.5 2600.5,-187.5 2659.5,-187.5 2659.5,-168.5 2600.5,-168.5"/>
<text text-anchor="middle" x="2630" y="-175.5" font-family="FreeSans" font-size="10.00">sys/time.h</text>
</g>
<!-- Node24&#45;&gt;Node26 -->
<g id="edge32" class="edge"><title>Node24&#45;&gt;Node26</title>
<path fill="none" stroke="midnightblue" d="M1753.16,-230.422C1759.98,-227.897 1767.71,-225.43 1775,-224 2128.02,-154.804 2229.48,-235.534 2590.36,-187.782"/>
<polygon fill="midnightblue" stroke="midnightblue" points="2590.85,-191.248 2600.29,-186.444 2589.92,-184.311 2590.85,-191.248"/>
</g>
<!-- Node27 -->
<g id="node27" class="node"><title>Node27</title>
<polygon fill="white" stroke="#bfbfbf" points="2539.5,-168.5 2539.5,-187.5 2582.5,-187.5 2582.5,-168.5 2539.5,-168.5"/>
<text text-anchor="middle" x="2561" y="-175.5" font-family="FreeSans" font-size="10.00">time.h</text>
</g>
<!-- Node24&#45;&gt;Node27 -->
<g id="edge33" class="edge"><title>Node24&#45;&gt;Node27</title>
<path fill="none" stroke="midnightblue" d="M1753.17,-230.438C1759.98,-227.914 1767.71,-225.444 1775,-224 2102.36,-159.175 2194.86,-236.705 2525,-188 2526.47,-187.783 2527.98,-187.531 2529.49,-187.253"/>
<polygon fill="midnightblue" stroke="midnightblue" points="2530.39,-190.639 2539.44,-185.124 2528.93,-183.794 2530.39,-190.639"/>
</g>
<!-- Node25&#45;&gt;Node21 -->
<g id="edge31" class="edge"><title>Node25&#45;&gt;Node21</title>
<path fill="none" stroke="midnightblue" d="M2677.24,-169.908C2674.12,-169.248 2671,-168.601 2668,-168 2592.25,-152.819 2503.03,-137.175 2454.95,-128.927"/>
<polygon fill="midnightblue" stroke="midnightblue" points="2455.5,-125.47 2445.05,-127.233 2454.32,-132.369 2455.5,-125.47"/>
</g>
<!-- Node28&#45;&gt;Node3 -->
<g id="edge37" class="edge"><title>Node28&#45;&gt;Node3</title>
<path fill="none" stroke="midnightblue" d="M1140.92,-230.19C1138.1,-216.245 1134.43,-188.563 1144,-168 1149.83,-155.486 1161,-145.096 1171.5,-137.465"/>
<polygon fill="midnightblue" stroke="midnightblue" points="1173.69,-140.208 1180.03,-131.717 1169.78,-134.403 1173.69,-140.208"/>
</g>
<!-- Node29&#45;&gt;Node3 -->
<g id="edge39" class="edge"><title>Node29&#45;&gt;Node3</title>
<path fill="none" stroke="midnightblue" d="M1318.91,-292.441C1283.89,-284.001 1236.08,-270.321 1223,-256 1194.09,-224.347 1192.64,-170.511 1194.21,-142.008"/>
<polygon fill="midnightblue" stroke="midnightblue" points="1197.72,-142.027 1194.97,-131.794 1190.74,-141.507 1197.72,-142.027"/>
</g>
<!-- Node30 -->
<g id="node30" class="node"><title>Node30</title>
<g id="a_node30"><a xlink:href="sundialsUtils_8h.html" target="_top" xlink:title="sundialsUtils.h">
<polygon fill="white" stroke="black" points="1605.5,-230.5 1605.5,-249.5 1682.5,-249.5 1682.5,-230.5 1605.5,-230.5"/>
<text text-anchor="middle" x="1644" y="-237.5" font-family="FreeSans" font-size="10.00">sundialsUtils.h</text>
</a>
</g>
</g>
<!-- Node29&#45;&gt;Node30 -->
<g id="edge40" class="edge"><title>Node29&#45;&gt;Node30</title>
<path fill="none" stroke="midnightblue" d="M1398.67,-292.467C1450.5,-281.594 1539.99,-262.819 1595.37,-251.202"/>
<polygon fill="midnightblue" stroke="midnightblue" points="1596.23,-254.598 1605.3,-249.119 1594.79,-247.747 1596.23,-254.598"/>
</g>
<!-- Node40 -->
<g id="node40" class="node"><title>Node40</title>
<g id="a_node40"><a xlink:href="qssintegrator_8h.html" target="_top" xlink:title="qssintegrator.h">
<polygon fill="white" stroke="black" points="1232.5,-230.5 1232.5,-249.5 1311.5,-249.5 1311.5,-230.5 1232.5,-230.5"/>
<text text-anchor="middle" x="1272" y="-237.5" font-family="FreeSans" font-size="10.00">qssintegrator.h</text>
</a>
</g>
</g>
<!-- Node29&#45;&gt;Node40 -->
<g id="edge54" class="edge"><title>Node29&#45;&gt;Node40</title>
<path fill="none" stroke="midnightblue" d="M1345.68,-292.403C1331.88,-282.78 1309.3,-267.024 1292.77,-255.489"/>
<polygon fill="midnightblue" stroke="midnightblue" points="1294.5,-252.432 1284.3,-249.581 1290.5,-258.173 1294.5,-252.432"/>
</g>
<!-- Node29&#45;&gt;Node41 -->
<g id="edge56" class="edge"><title>Node29&#45;&gt;Node41</title>
<path fill="none" stroke="midnightblue" d="M1358,-292.403C1358,-283.938 1358,-270.728 1358,-259.82"/>
<polygon fill="midnightblue" stroke="midnightblue" points="1361.5,-259.581 1358,-249.581 1354.5,-259.581 1361.5,-259.581"/>
</g>
<!-- Node29&#45;&gt;Node42 -->
<g id="edge59" class="edge"><title>Node29&#45;&gt;Node42</title>
<path fill="none" stroke="midnightblue" d="M1400.78,-297.063C1491.97,-288.559 1702.95,-268.251 1774,-256 1780.7,-254.845 1787.75,-253.398 1794.61,-251.863"/>
<polygon fill="midnightblue" stroke="midnightblue" points="1795.52,-255.246 1804.46,-249.573 1793.93,-248.428 1795.52,-255.246"/>
</g>
<!-- Node30&#45;&gt;Node4 -->
<g id="edge51" class="edge"><title>Node30&#45;&gt;Node4</title>
<path fill="none" stroke="midnightblue" d="M1666.65,-230.458C1674.28,-227.936 1682.91,-225.461 1691,-224 1772.45,-209.294 2368.91,-237.825 2435,-188 2462.8,-167.039 2477.37,-137.813 2454,-112 2425.91,-80.9685 2132.96,-70.4342 2034.83,-67.7615"/>
<polygon fill="midnightblue" stroke="midnightblue" points="2034.73,-64.2577 2024.64,-67.4934 2034.54,-71.2553 2034.73,-64.2577"/>
</g>
<!-- Node30&#45;&gt;Node6 -->
<g id="edge50" class="edge"><title>Node30&#45;&gt;Node6</title>
<path fill="none" stroke="midnightblue" d="M1666.65,-230.451C1674.27,-227.928 1682.91,-225.455 1691,-224 1775.19,-208.867 2393.83,-242.204 2460,-188 2611.61,-63.8124 2149.43,-22.5594 2012.83,-13.2368"/>
<polygon fill="midnightblue" stroke="midnightblue" points="2013.04,-9.7434 2002.83,-12.5723 2012.58,-16.728 2013.04,-9.7434"/>
</g>
<!-- Node30&#45;&gt;Node21 -->
<g id="edge53" class="edge"><title>Node30&#45;&gt;Node21</title>
<path fill="none" stroke="midnightblue" d="M1666.65,-230.464C1674.28,-227.942 1682.91,-225.466 1691,-224 1770.36,-209.618 2358.63,-244.693 2416,-188 2427.92,-176.221 2427.38,-156.292 2424.81,-141.6"/>
<polygon fill="midnightblue" stroke="midnightblue" points="2428.18,-140.627 2422.62,-131.606 2421.34,-142.124 2428.18,-140.627"/>
</g>
<!-- Node30&#45;&gt;Node27 -->
<g id="edge52" class="edge"><title>Node30&#45;&gt;Node27</title>
<path fill="none" stroke="midnightblue" d="M1666.64,-230.434C1674.27,-227.909 1682.9,-225.44 1691,-224 2056.28,-159.026 2157.83,-241.263 2525,-188 2526.47,-187.786 2527.98,-187.537 2529.49,-187.262"/>
<polygon fill="midnightblue" stroke="midnightblue" points="2530.39,-190.649 2539.44,-185.141 2528.93,-183.803 2530.39,-190.649"/>
</g>
<!-- Node31 -->
<g id="node31" class="node"><title>Node31</title>
<polygon fill="white" stroke="#bfbfbf" points="1515,-168.5 1515,-187.5 1633,-187.5 1633,-168.5 1515,-168.5"/>
<text text-anchor="middle" x="1574" y="-175.5" font-family="FreeSans" font-size="10.00">nvector/nvector_serial.h</text>
</g>
<!-- Node30&#45;&gt;Node31 -->
<g id="edge41" class="edge"><title>Node30&#45;&gt;Node31</title>
<path fill="none" stroke="midnightblue" d="M1633.97,-230.403C1622.95,-220.958 1605.04,-205.606 1591.66,-194.134"/>
<polygon fill="midnightblue" stroke="midnightblue" points="1593.88,-191.431 1584.01,-187.581 1589.33,-196.746 1593.88,-191.431"/>
</g>
<!-- Node32 -->
<g id="node32" class="node"><title>Node32</title>
<polygon fill="white" stroke="#bfbfbf" points="1651.5,-168.5 1651.5,-187.5 1778.5,-187.5 1778.5,-168.5 1651.5,-168.5"/>
<text text-anchor="middle" x="1715" y="-175.5" font-family="FreeSans" font-size="10.00">sundials/sundials_dense.h</text>
</g>
<!-- Node30&#45;&gt;Node32 -->
<g id="edge42" class="edge"><title>Node30&#45;&gt;Node32</title>
<path fill="none" stroke="midnightblue" d="M1654.17,-230.403C1665.35,-220.958 1683.52,-205.606 1697.09,-194.134"/>
<polygon fill="midnightblue" stroke="midnightblue" points="1699.47,-196.709 1704.85,-187.581 1694.95,-191.362 1699.47,-196.709"/>
</g>
<!-- Node33 -->
<g id="node33" class="node"><title>Node33</title>
<polygon fill="white" stroke="#bfbfbf" points="1797,-168.5 1797,-187.5 1919,-187.5 1919,-168.5 1797,-168.5"/>
<text text-anchor="middle" x="1858" y="-175.5" font-family="FreeSans" font-size="10.00">sundials/sundials_band.h</text>
</g>
<!-- Node30&#45;&gt;Node33 -->
<g id="edge43" class="edge"><title>Node30&#45;&gt;Node33</title>
<path fill="none" stroke="midnightblue" d="M1670.28,-230.378C1677.02,-228.233 1684.26,-225.982 1691,-224 1732.77,-211.714 1780.8,-198.909 1814.6,-190.114"/>
<polygon fill="midnightblue" stroke="midnightblue" points="1815.8,-193.417 1824.6,-187.519 1814.05,-186.641 1815.8,-193.417"/>
</g>
<!-- Node34 -->
<g id="node34" class="node"><title>Node34</title>
<polygon fill="white" stroke="#bfbfbf" points="1937,-168.5 1937,-187.5 2061,-187.5 2061,-168.5 1937,-168.5"/>
<text text-anchor="middle" x="1999" y="-175.5" font-family="FreeSans" font-size="10.00">sundials/sundials_types.h</text>
</g>
<!-- Node30&#45;&gt;Node34 -->
<g id="edge44" class="edge"><title>Node30&#45;&gt;Node34</title>
<path fill="none" stroke="midnightblue" d="M1668.18,-230.447C1675.45,-228.104 1683.49,-225.735 1691,-224 1734.53,-213.946 1850.29,-198.11 1926.84,-188.153"/>
<polygon fill="midnightblue" stroke="midnightblue" points="1927.43,-191.605 1936.9,-186.849 1926.53,-184.663 1927.43,-191.605"/>
</g>
<!-- Node35 -->
<g id="node35" class="node"><title>Node35</title>
<polygon fill="white" stroke="#bfbfbf" points="2079,-168.5 2079,-187.5 2157,-187.5 2157,-168.5 2079,-168.5"/>
<text text-anchor="middle" x="2118" y="-175.5" font-family="FreeSans" font-size="10.00">cvode/cvode.h</text>
</g>
<!-- Node30&#45;&gt;Node35 -->
<g id="edge45" class="edge"><title>Node30&#45;&gt;Node35</title>
<path fill="none" stroke="midnightblue" d="M1667.65,-230.365C1675.04,-227.962 1683.28,-225.581 1691,-224 1853.18,-190.796 1900.07,-210.481 2068.77,-187.886"/>
<polygon fill="midnightblue" stroke="midnightblue" points="2069.3,-191.346 2078.73,-186.522 2068.35,-184.411 2069.3,-191.346"/>
</g>
<!-- Node36 -->
<g id="node36" class="node"><title>Node36</title>
<polygon fill="white" stroke="#bfbfbf" points="2175.5,-168.5 2175.5,-187.5 2284.5,-187.5 2284.5,-168.5 2175.5,-168.5"/>
<text text-anchor="middle" x="2230" y="-175.5" font-family="FreeSans" font-size="10.00">cvode/cvode_dense.h</text>
</g>
<!-- Node30&#45;&gt;Node36 -->
<g id="edge46" class="edge"><title>Node30&#45;&gt;Node36</title>
<path fill="none" stroke="midnightblue" d="M1667.15,-230.43C1674.66,-227.97 1683.1,-225.539 1691,-224 1895.57,-184.172 1953.7,-209.919 2165.04,-188.019"/>
<polygon fill="midnightblue" stroke="midnightblue" points="2165.64,-191.474 2175.22,-186.939 2164.9,-184.513 2165.64,-191.474"/>
</g>
<!-- Node37 -->
<g id="node37" class="node"><title>Node37</title>
<polygon fill="white" stroke="#bfbfbf" points="2303,-168.5 2303,-187.5 2407,-187.5 2407,-168.5 2303,-168.5"/>
<text text-anchor="middle" x="2355" y="-175.5" font-family="FreeSans" font-size="10.00">cvode/cvode_band.h</text>
</g>
<!-- Node30&#45;&gt;Node37 -->
<g id="edge47" class="edge"><title>Node30&#45;&gt;Node37</title>
<path fill="none" stroke="midnightblue" d="M1667.13,-230.355C1674.65,-227.89 1683.09,-225.476 1691,-224 1954.49,-174.873 2026.36,-215.277 2293,-188 2293.1,-187.99 2293.2,-187.979 2293.3,-187.969"/>
<polygon fill="midnightblue" stroke="midnightblue" points="2293.4,-191.48 2302.94,-186.882 2292.62,-184.524 2293.4,-191.48"/>
</g>
<!-- Node38 -->
<g id="node38" class="node"><title>Node38</title>
<polygon fill="white" stroke="#bfbfbf" points="1338.5,-168.5 1338.5,-187.5 1391.5,-187.5 1391.5,-168.5 1338.5,-168.5"/>
<text text-anchor="middle" x="1365" y="-175.5" font-family="FreeSans" font-size="10.00">ida/ida.h</text>
</g>
<!-- Node30&#45;&gt;Node38 -->
<g id="edge48" class="edge"><title>Node30&#45;&gt;Node38</title>
<path fill="none" stroke="midnightblue" d="M1605.42,-231.502C1559.2,-222.394 1479.19,-206.234 1401.65,-188.314"/>
<polygon fill="midnightblue" stroke="midnightblue" points="1402.25,-184.86 1391.72,-186.005 1400.67,-191.678 1402.25,-184.86"/>
</g>
<!-- Node39 -->
<g id="node39" class="node"><title>Node39</title>
<polygon fill="white" stroke="#bfbfbf" points="1409,-168.5 1409,-187.5 1497,-187.5 1497,-168.5 1409,-168.5"/>
<text text-anchor="middle" x="1453" y="-175.5" font-family="FreeSans" font-size="10.00">ida/ida_spbcgs.h</text>
</g>
<!-- Node30&#45;&gt;Node39 -->
<g id="edge49" class="edge"><title>Node30&#45;&gt;Node39</title>
<path fill="none" stroke="midnightblue" d="M1616.63,-230.403C1583.45,-219.978 1527.35,-202.356 1490.24,-190.699"/>
<polygon fill="midnightblue" stroke="midnightblue" points="1490.9,-187.239 1480.31,-187.581 1488.81,-193.917 1490.9,-187.239"/>
</g>
<!-- Node40&#45;&gt;Node3 -->
<g id="edge55" class="edge"><title>Node40&#45;&gt;Node3</title>
<path fill="none" stroke="midnightblue" d="M1260.62,-230.377C1249,-221.052 1231.13,-205.197 1220,-188 1210.71,-173.641 1204.33,-155.18 1200.5,-141.604"/>
<polygon fill="midnightblue" stroke="midnightblue" points="1203.79,-140.337 1197.87,-131.546 1197.02,-142.106 1203.79,-140.337"/>
</g>
<!-- Node41&#45;&gt;Node3 -->
<g id="edge57" class="edge"><title>Node41&#45;&gt;Node3</title>
<path fill="none" stroke="midnightblue" d="M1336.11,-230.389C1315,-221.512 1282.69,-206.397 1258,-188 1239.15,-173.957 1221.01,-153.919 1209.27,-139.813"/>
<polygon fill="midnightblue" stroke="midnightblue" points="1211.86,-137.456 1202.84,-131.903 1206.43,-141.871 1211.86,-137.456"/>
</g>
<!-- Node41&#45;&gt;Node9 -->
<g id="edge58" class="edge"><title>Node41&#45;&gt;Node9</title>
<path fill="none" stroke="midnightblue" d="M1349.61,-230.406C1337.34,-216.757 1317.2,-189.472 1329,-168 1357.07,-116.914 1423.13,-88.0039 1460.67,-75.1545"/>
<polygon fill="midnightblue" stroke="midnightblue" points="1462.04,-78.3908 1470.45,-71.9511 1459.86,-71.7387 1462.04,-78.3908"/>
</g>
<!-- Node43&#45;&gt;Node3 -->
<g id="edge61" class="edge"><title>Node43&#45;&gt;Node3</title>
<path fill="none" stroke="midnightblue" d="M1052.13,-292.478C1058.19,-269.695 1077.51,-206.495 1114,-168 1127.45,-153.814 1146.38,-143.019 1162.66,-135.563"/>
<polygon fill="midnightblue" stroke="midnightblue" points="1164.11,-138.752 1171.89,-131.558 1161.32,-132.332 1164.11,-138.752"/>
</g>
<!-- Node43&#45;&gt;Node22 -->
<g id="edge62" class="edge"><title>Node43&#45;&gt;Node22</title>
<path fill="none" stroke="midnightblue" d="M1036.82,-292.403C1021.93,-282.691 997.456,-266.732 979.727,-255.17"/>
<polygon fill="midnightblue" stroke="midnightblue" points="981.445,-252.112 971.157,-249.581 977.621,-257.975 981.445,-252.112"/>
</g>
<!-- Node43&#45;&gt;Node28 -->
<g id="edge63" class="edge"><title>Node43&#45;&gt;Node28</title>
<path fill="none" stroke="midnightblue" d="M1063.32,-292.403C1078.38,-282.691 1103.12,-266.732 1121.04,-255.17"/>
<polygon fill="midnightblue" stroke="midnightblue" points="1123.19,-257.943 1129.7,-249.581 1119.4,-252.061 1123.19,-257.943"/>
</g>
<!-- Node44&#45;&gt;Node3 -->
<g id="edge65" class="edge"><title>Node44&#45;&gt;Node3</title>
<path fill="none" stroke="midnightblue" d="M1509.36,-292.353C1486.17,-277.748 1437.43,-247.488 1395,-224 1334.54,-190.526 1261.71,-154.662 1223.11,-135.992"/>
<polygon fill="midnightblue" stroke="midnightblue" points="1224.59,-132.82 1214.06,-131.628 1221.55,-139.125 1224.59,-132.82"/>
</g>
<!-- Node44&#45;&gt;Node22 -->
<g id="edge67" class="edge"><title>Node44&#45;&gt;Node22</title>
<path fill="none" stroke="midnightblue" d="M1471.36,-295.516C1355.93,-283.258 1079.96,-253.951 988.226,-244.21"/>
<polygon fill="midnightblue" stroke="midnightblue" points="988.531,-240.723 978.218,-243.147 987.792,-247.684 988.531,-240.723"/>
</g>
<!-- Node44&#45;&gt;Node24 -->
<g id="edge68" class="edge"><title>Node44&#45;&gt;Node24</title>
<path fill="none" stroke="midnightblue" d="M1558.31,-292.43C1592.47,-283.931 1645.6,-270.162 1691,-256 1694.1,-255.032 1697.32,-253.977 1700.53,-252.891"/>
<polygon fill="midnightblue" stroke="midnightblue" points="1701.71,-256.185 1710.01,-249.592 1699.41,-249.574 1701.71,-256.185"/>
</g>
<!-- Node44&#45;&gt;Node30 -->
<g id="edge66" class="edge"><title>Node44&#45;&gt;Node30</title>
<path fill="none" stroke="midnightblue" d="M1540.34,-292.403C1560.55,-282.379 1594.19,-265.701 1617.64,-254.07"/>
<polygon fill="midnightblue" stroke="midnightblue" points="1619.29,-257.159 1626.7,-249.581 1616.18,-250.887 1619.29,-257.159"/>
</g>
<!-- Node44&#45;&gt;Node41 -->
<g id="edge69" class="edge"><title>Node44&#45;&gt;Node41</title>
<path fill="none" stroke="midnightblue" d="M1499.36,-292.403C1470.93,-282.067 1423.06,-264.656 1391,-252.999"/>
<polygon fill="midnightblue" stroke="midnightblue" points="1392.19,-249.709 1381.6,-249.581 1389.8,-256.287 1392.19,-249.709"/>
</g>
<!-- Node44&#45;&gt;Node42 -->
<g id="edge70" class="edge"><title>Node44&#45;&gt;Node42</title>
<path fill="none" stroke="midnightblue" d="M1574.6,-292.623C1625.46,-284.161 1705.31,-270.323 1774,-256 1780.14,-254.72 1786.59,-253.285 1792.94,-251.825"/>
<polygon fill="midnightblue" stroke="midnightblue" points="1793.81,-255.215 1802.75,-249.526 1792.21,-248.4 1793.81,-255.215"/>
</g>
<!-- Node44&#45;&gt;Node45 -->
<g id="edge71" class="edge"><title>Node44&#45;&gt;Node45</title>
<path fill="none" stroke="midnightblue" d="M1574.56,-296.877C1647.14,-290.605 1783.38,-277.119 1898,-256 1898.11,-255.981 1898.21,-255.961 1898.32,-255.941"/>
<polygon fill="midnightblue" stroke="midnightblue" points="1899.23,-259.329 1908.34,-253.925 1897.85,-252.466 1899.23,-259.329"/>
</g>
<!-- Node47 -->
<g id="node47" class="node"><title>Node47</title>
<polygon fill="white" stroke="#bfbfbf" points="2798,-230.5 2798,-249.5 2856,-249.5 2856,-230.5 2798,-230.5"/>
<text text-anchor="middle" x="2827" y="-237.5" font-family="FreeSans" font-size="10.00">stdexcept</text>
</g>
<!-- Node46&#45;&gt;Node47 -->
<g id="edge74" class="edge"><title>Node46&#45;&gt;Node47</title>
<path fill="none" stroke="midnightblue" d="M2827,-292.403C2827,-283.938 2827,-270.728 2827,-259.82"/>
<polygon fill="midnightblue" stroke="midnightblue" points="2830.5,-259.581 2827,-249.581 2823.5,-259.581 2830.5,-259.581"/>
</g>
</g>
</svg>
