<?xml version="1.0" encoding="UTF-8" standalone="no"?>
<!DOCTYPE svg PUBLIC "-//W3C//DTD SVG 1.1//EN"
 "http://www.w3.org/Graphics/SVG/1.1/DTD/svg11.dtd">
<!-- Generated by graphviz version 2.26.3 (20100126.1600)
 -->
<!-- Title: src/flameSolver.h Pages: 1 -->
<svg width="3142pt" height="414pt"
 viewBox="0.00 0.00 3142.00 414.00" xmlns="http://www.w3.org/2000/svg" xmlns:xlink="http://www.w3.org/1999/xlink">
<g id="graph1" class="graph" transform="scale(1 1) rotate(0) translate(4 410)">
<title>src/flameSolver.h</title>
<polygon fill="white" stroke="white" points="-4,5 -4,-410 3139,-410 3139,5 -4,5"/>
<!-- Node1 -->
<g id="node1" class="node"><title>Node1</title>
<polygon fill="#bfbfbf" stroke="black" points="748,-385 748,-405 838,-405 838,-385 748,-385"/>
<text text-anchor="middle" x="793" y="-392" font-family="FreeSans" font-size="10.00">src/flameSolver.h</text>
</g>
<!-- Node2 -->
<g id="node3" class="node"><title>Node2</title>
<a xlink:href="readConfig_8h.html" target="_top" xlink:title="readConfig.h">
<polygon fill="white" stroke="black" points="0,-181 0,-201 70,-201 70,-181 0,-181"/>
<text text-anchor="middle" x="35" y="-188" font-family="FreeSans" font-size="10.00">readConfig.h</text>
</a>
</g>
<!-- Node1&#45;&gt;Node2 -->
<g id="edge2" class="edge"><title>Node1&#45;&gt;Node2</title>
<path fill="none" stroke="midnightblue" d="M747.546,-393.936C606.331,-390.334 181.4,-377.162 127,-348 74.0103,-319.594 48.9622,-246.655 39.5968,-211.095"/>
<polygon fill="midnightblue" stroke="midnightblue" points="42.9842,-210.213 37.1802,-201.35 36.19,-211.898 42.9842,-210.213"/>
</g>
<!-- Node6 -->
<g id="node11" class="node"><title>Node6</title>
<polygon fill="white" stroke="#bfbfbf" points="1155.5,-1 1155.5,-21 1208.5,-21 1208.5,-1 1155.5,-1"/>
<text text-anchor="middle" x="1182" y="-8" font-family="FreeSans" font-size="10.00">iostream</text>
</g>
<!-- Node1&#45;&gt;Node6 -->
<g id="edge152" class="edge"><title>Node1&#45;&gt;Node6</title>
<path fill="none" stroke="midnightblue" d="M838.12,-392.728C1066.26,-380.948 2082,-324.911 2082,-261 2082,-261 2082,-261 2082,-127 2082,-38.5078 1388.74,-15.9944 1219.11,-11.8103"/>
<polygon fill="midnightblue" stroke="midnightblue" points="1219.02,-8.30705 1208.94,-11.5659 1218.85,-15.305 1219.02,-8.30705"/>
</g>
<!-- Node12 -->
<g id="node26" class="node"><title>Node12</title>
<a xlink:href="chemistry0d_8h.html" target="_top" xlink:title="chemistry0d.h">
<polygon fill="white" stroke="black" points="2309,-251 2309,-271 2385,-271 2385,-251 2309,-251"/>
<text text-anchor="middle" x="2347" y="-258" font-family="FreeSans" font-size="10.00">chemistry0d.h</text>
</a>
</g>
<!-- Node1&#45;&gt;Node12 -->
<g id="edge28" class="edge"><title>Node1&#45;&gt;Node12</title>
<path fill="none" stroke="midnightblue" d="M838.154,-394.16C1061.06,-389.914 2035.82,-370.142 2096,-348 2118.87,-339.587 2117.16,-324.8 2139,-314 2190.49,-288.537 2255.38,-274.522 2298.87,-267.401"/>
<polygon fill="midnightblue" stroke="midnightblue" points="2299.57,-270.835 2308.9,-265.819 2298.48,-263.92 2299.57,-270.835"/>
</g>
<!-- Node22 -->
<g id="node47" class="node"><title>Node22</title>
<a xlink:href="grid_8h.html" target="_top" xlink:title="grid.h">
<polygon fill="white" stroke="black" points="202,-251 202,-271 242,-271 242,-251 202,-251"/>
<text text-anchor="middle" x="222" y="-258" font-family="FreeSans" font-size="10.00">grid.h</text>
</a>
</g>
<!-- Node1&#45;&gt;Node22 -->
<g id="edge50" class="edge"><title>Node1&#45;&gt;Node22</title>
<path fill="none" stroke="midnightblue" d="M747.663,-391.41C658.718,-384.066 464.405,-366.458 400,-348 341.97,-331.369 279.849,-296.653 246.519,-276.464"/>
<polygon fill="midnightblue" stroke="midnightblue" points="248.263,-273.428 237.909,-271.182 244.603,-279.395 248.263,-273.428"/>
</g>
<!-- Node23 -->
<g id="node50" class="node"><title>Node23</title>
<a xlink:href="splitSolver_8h.html" target="_top" xlink:title="splitSolver.h">
<polygon fill="white" stroke="black" points="1062,-321 1062,-341 1130,-341 1130,-321 1062,-321"/>
<text text-anchor="middle" x="1096" y="-328" font-family="FreeSans" font-size="10.00">splitSolver.h</text>
</a>
</g>
<!-- Node1&#45;&gt;Node23 -->
<g id="edge54" class="edge"><title>Node1&#45;&gt;Node23</title>
<path fill="none" stroke="midnightblue" d="M838.035,-385.488C895.732,-373.301 995.087,-352.315 1052.19,-340.254"/>
<polygon fill="midnightblue" stroke="midnightblue" points="1052.94,-343.673 1062,-338.182 1051.49,-336.824 1052.94,-343.673"/>
</g>
<!-- Node24 -->
<g id="node53" class="node"><title>Node24</title>
<a xlink:href="perfTimer_8h.html" target="_top" xlink:title="perfTimer.h">
<polygon fill="white" stroke="black" points="1647.5,-251 1647.5,-271 1712.5,-271 1712.5,-251 1647.5,-251"/>
<text text-anchor="middle" x="1680" y="-258" font-family="FreeSans" font-size="10.00">perfTimer.h</text>
</a>
</g>
<!-- Node1&#45;&gt;Node24 -->
<g id="edge70" class="edge"><title>Node1&#45;&gt;Node24</title>
<path fill="none" stroke="midnightblue" d="M838.075,-388.957C904.121,-380.085 1031.07,-362.962 1139,-348 1359.08,-317.491 1418.57,-332.376 1634,-278 1637.88,-277.02 1641.89,-275.826 1645.85,-274.531"/>
<polygon fill="midnightblue" stroke="midnightblue" points="1647.19,-277.768 1655.48,-271.163 1644.88,-271.16 1647.19,-277.768"/>
</g>
<!-- Node26 -->
<g id="node57" class="node"><title>Node26</title>
<polygon fill="white" stroke="#bfbfbf" points="1900,-175 1900,-207 2016,-207 2016,-175 1900,-175"/>
<text text-anchor="start" x="1908" y="-194" font-family="FreeSans" font-size="10.00">tbb/enumerable_thread</text>
<text text-anchor="middle" x="1958" y="-182" font-family="FreeSans" font-size="10.00">_specific.h</text>
</g>
<!-- Node1&#45;&gt;Node26 -->
<g id="edge158" class="edge"><title>Node1&#45;&gt;Node26</title>
<path fill="none" stroke="midnightblue" d="M838.247,-393.586C974.162,-388.433 1389.87,-366.037 1721,-278 1788.77,-259.983 1864.39,-230.509 1911.59,-210.933"/>
<polygon fill="midnightblue" stroke="midnightblue" points="1913.04,-214.118 1920.92,-207.035 1910.35,-207.658 1913.04,-214.118"/>
</g>
<!-- Node29 -->
<g id="node65" class="node"><title>Node29</title>
<a xlink:href="integrator_8h.html" target="_top" xlink:title="integrator.h">
<polygon fill="white" stroke="black" points="81.5,-251 81.5,-271 146.5,-271 146.5,-251 81.5,-251"/>
<text text-anchor="middle" x="114" y="-258" font-family="FreeSans" font-size="10.00">integrator.h</text>
</a>
</g>
<!-- Node1&#45;&gt;Node29 -->
<g id="edge72" class="edge"><title>Node1&#45;&gt;Node29</title>
<path fill="none" stroke="midnightblue" d="M747.809,-394.251C610.509,-391.62 204.652,-381.095 156,-348 133.43,-332.647 122.583,-301.653 117.674,-281.11"/>
<polygon fill="midnightblue" stroke="midnightblue" points="121.071,-280.253 115.57,-271.198 114.223,-281.707 121.071,-280.253"/>
</g>
<!-- Node30 -->
<g id="node68" class="node"><title>Node30</title>
<a xlink:href="sourceSystem_8h.html" target="_top" xlink:title="sourceSystem.h">
<polygon fill="white" stroke="black" points="750.5,-321 750.5,-341 835.5,-341 835.5,-321 750.5,-321"/>
<text text-anchor="middle" x="793" y="-328" font-family="FreeSans" font-size="10.00">sourceSystem.h</text>
</a>
</g>
<!-- Node1&#45;&gt;Node30 -->
<g id="edge76" class="edge"><title>Node1&#45;&gt;Node30</title>
<path fill="none" stroke="midnightblue" d="M793,-384.717C793,-375.707 793,-362.347 793,-351.205"/>
<polygon fill="midnightblue" stroke="midnightblue" points="796.5,-351.046 793,-341.046 789.5,-351.046 796.5,-351.046"/>
</g>
<!-- Node42 -->
<g id="node98" class="node"><title>Node42</title>
<a xlink:href="quasi2d_8h.html" target="_top" xlink:title="quasi2d.h">
<polygon fill="white" stroke="black" points="375.5,-251 375.5,-271 432.5,-271 432.5,-251 375.5,-251"/>
<text text-anchor="middle" x="404" y="-258" font-family="FreeSans" font-size="10.00">quasi2d.h</text>
</a>
</g>
<!-- Node1&#45;&gt;Node42 -->
<g id="edge146" class="edge"><title>Node1&#45;&gt;Node42</title>
<path fill="none" stroke="midnightblue" d="M747.612,-391.666C696.224,-386.728 610.718,-374.954 542,-348 496.755,-330.253 450.16,-297.207 424.355,-277.346"/>
<polygon fill="midnightblue" stroke="midnightblue" points="426.468,-274.555 416.432,-271.158 422.158,-280.072 426.468,-274.555"/>
</g>
<!-- Node43 -->
<g id="node103" class="node"><title>Node43</title>
<polygon fill="white" stroke="#bfbfbf" points="592,-251 592,-271 698,-271 698,-251 592,-251"/>
<text text-anchor="middle" x="645" y="-258" font-family="FreeSans" font-size="10.00">boost/shared_ptr.hpp</text>
</g>
<!-- Node1&#45;&gt;Node43 -->
<g id="edge156" class="edge"><title>Node1&#45;&gt;Node43</title>
<path fill="none" stroke="midnightblue" d="M781.876,-384.928C756.698,-362.132 695.113,-306.373 663.858,-278.074"/>
<polygon fill="midnightblue" stroke="midnightblue" points="666.015,-275.306 656.253,-271.189 661.317,-280.495 666.015,-275.306"/>
</g>
<!-- Node44 -->
<g id="node105" class="node"><title>Node44</title>
<a xlink:href="diffusionSystem_8h.html" target="_top" xlink:title="diffusionSystem.h">
<polygon fill="white" stroke="black" points="164.5,-321 164.5,-341 255.5,-341 255.5,-321 164.5,-321"/>
<text text-anchor="middle" x="210" y="-328" font-family="FreeSans" font-size="10.00">diffusionSystem.h</text>
</a>
</g>
<!-- Node1&#45;&gt;Node44 -->
<g id="edge122" class="edge"><title>Node1&#45;&gt;Node44</title>
<path fill="none" stroke="midnightblue" d="M747.738,-390.031C642.301,-378.457 380.574,-349.725 265.633,-337.107"/>
<polygon fill="midnightblue" stroke="midnightblue" points="265.957,-333.622 255.635,-336.01 265.193,-340.58 265.957,-333.622"/>
</g>
<!-- Node45 -->
<g id="node110" class="node"><title>Node45</title>
<a xlink:href="convectionSystem_8h.html" target="_top" xlink:title="convectionSystem.h">
<polygon fill="white" stroke="black" points="550.5,-321 550.5,-341 653.5,-341 653.5,-321 550.5,-321"/>
<text text-anchor="middle" x="602" y="-328" font-family="FreeSans" font-size="10.00">convectionSystem.h</text>
</a>
</g>
<!-- Node1&#45;&gt;Node45 -->
<g id="edge130" class="edge"><title>Node1&#45;&gt;Node45</title>
<path fill="none" stroke="midnightblue" d="M762.735,-384.859C730.045,-373.905 677.818,-356.405 641.817,-344.342"/>
<polygon fill="midnightblue" stroke="midnightblue" points="642.717,-340.952 632.123,-341.094 640.493,-347.589 642.717,-340.952"/>
</g>
<!-- Node46 -->
<g id="node118" class="node"><title>Node46</title>
<polygon fill="white" stroke="#bfbfbf" points="259.5,-245 259.5,-277 358.5,-277 358.5,-245 259.5,-245"/>
<text text-anchor="start" x="267.5" y="-264" font-family="FreeSans" font-size="10.00">boost/ptr_container</text>
<text text-anchor="middle" x="309" y="-252" font-family="FreeSans" font-size="10.00">/ptr_vector.hpp</text>
</g>
<!-- Node1&#45;&gt;Node46 -->
<g id="edge154" class="edge"><title>Node1&#45;&gt;Node46</title>
<path fill="none" stroke="midnightblue" d="M747.94,-393.087C685.317,-389.371 569.061,-378.622 475,-348 449.113,-339.572 386.137,-304.987 345.623,-282.043"/>
<polygon fill="midnightblue" stroke="midnightblue" points="347.265,-278.951 336.842,-277.054 343.807,-285.037 347.265,-278.951"/>
</g>
<!-- Node47 -->
<g id="node121" class="node"><title>Node47</title>
<a xlink:href="callback_8h.html" target="_top" xlink:title="callback.h">
<polygon fill="white" stroke="black" points="2148,-321 2148,-341 2208,-341 2208,-321 2148,-321"/>
<text text-anchor="middle" x="2178" y="-328" font-family="FreeSans" font-size="10.00">callback.h</text>
</a>
</g>
<!-- Node1&#45;&gt;Node47 -->
<g id="edge148" class="edge"><title>Node1&#45;&gt;Node47</title>
<path fill="none" stroke="midnightblue" d="M838.254,-394.308C1057.61,-390.833 2004.98,-374.404 2134,-348 2138.15,-347.15 2142.42,-345.949 2146.6,-344.574"/>
<polygon fill="midnightblue" stroke="midnightblue" points="2147.85,-347.842 2156.05,-341.132 2145.46,-341.264 2147.85,-347.842"/>
</g>
<!-- Node49 -->
<g id="node129" class="node"><title>Node49</title>
<polygon fill="white" stroke="#bfbfbf" points="2225.5,-321 2225.5,-341 2292.5,-341 2292.5,-321 2225.5,-321"/>
<text text-anchor="middle" x="2259" y="-328" font-family="FreeSans" font-size="10.00">tbb/mutex.h</text>
</g>
<!-- Node1&#45;&gt;Node49 -->
<g id="edge160" class="edge"><title>Node1&#45;&gt;Node49</title>
<path fill="none" stroke="midnightblue" d="M838.018,-394.452C1065.12,-391.563 2079.6,-377.114 2217,-348 2220.87,-347.18 2224.84,-346.025 2228.73,-344.699"/>
<polygon fill="midnightblue" stroke="midnightblue" points="2229.98,-347.966 2238.09,-341.144 2227.5,-341.422 2229.98,-347.966"/>
</g>
<!-- Node50 -->
<g id="node131" class="node"><title>Node50</title>
<polygon fill="white" stroke="#bfbfbf" points="2310,-315 2310,-347 2408,-347 2408,-315 2310,-315"/>
<text text-anchor="start" x="2318" y="-334" font-family="FreeSans" font-size="10.00">tbb/task_scheduler</text>
<text text-anchor="middle" x="2359" y="-322" font-family="FreeSans" font-size="10.00">_init.h</text>
</g>
<!-- Node1&#45;&gt;Node50 -->
<g id="edge162" class="edge"><title>Node1&#45;&gt;Node50</title>
<path fill="none" stroke="midnightblue" d="M838.269,-394.274C1069.28,-390.477 2112.82,-372.214 2299.92,-347.764"/>
<polygon fill="midnightblue" stroke="midnightblue" points="2300.44,-351.226 2309.83,-346.333 2299.44,-344.298 2300.44,-351.226"/>
</g>
<!-- Node3 -->
<g id="node5" class="node"><title>Node3</title>
<a xlink:href="mathUtils_8h.html" target="_top" xlink:title="mathUtils.h">
<polygon fill="white" stroke="black" points="293.5,-117 293.5,-137 358.5,-137 358.5,-117 293.5,-117"/>
<text text-anchor="middle" x="326" y="-124" font-family="FreeSans" font-size="10.00">mathUtils.h</text>
</a>
</g>
<!-- Node2&#45;&gt;Node3 -->
<g id="edge4" class="edge"><title>Node2&#45;&gt;Node3</title>
<path fill="none" stroke="midnightblue" d="M61.744,-180.952C68.9099,-178.472 76.6962,-175.966 84,-174 152.728,-155.504 234.284,-141.205 283,-133.455"/>
<polygon fill="midnightblue" stroke="midnightblue" points="283.84,-136.866 293.175,-131.856 282.753,-129.951 283.84,-136.866"/>
</g>
<!-- Node8 -->
<g id="node15" class="node"><title>Node8</title>
<polygon fill="white" stroke="#bfbfbf" points="168,-1 168,-21 208,-21 208,-1 168,-1"/>
<text text-anchor="middle" x="188" y="-8" font-family="FreeSans" font-size="10.00">string</text>
</g>
<!-- Node2&#45;&gt;Node8 -->
<g id="edge26" class="edge"><title>Node2&#45;&gt;Node8</title>
<path fill="none" stroke="midnightblue" d="M39.9998,-180.757C51.853,-157.171 83.5673,-97.9831 122,-58 133.722,-45.805 148.994,-34.6964 161.895,-26.3443"/>
<polygon fill="midnightblue" stroke="midnightblue" points="163.765,-29.3031 170.375,-21.023 160.044,-23.3739 163.765,-29.3031"/>
</g>
<!-- Node4 -->
<g id="node7" class="node"><title>Node4</title>
<polygon fill="white" stroke="#bfbfbf" points="1010.5,-59 1010.5,-79 1053.5,-79 1053.5,-59 1010.5,-59"/>
<text text-anchor="middle" x="1032" y="-66" font-family="FreeSans" font-size="10.00">vector</text>
</g>
<!-- Node3&#45;&gt;Node4 -->
<g id="edge6" class="edge"><title>Node3&#45;&gt;Node4</title>
<path fill="none" stroke="midnightblue" d="M358.636,-124.319C477.108,-114.586 883.637,-81.1885 1000.4,-71.5956"/>
<polygon fill="midnightblue" stroke="midnightblue" points="1000.8,-75.0754 1010.48,-70.7683 1000.22,-68.0989 1000.8,-75.0754"/>
</g>
<!-- Node5 -->
<g id="node9" class="node"><title>Node5</title>
<polygon fill="white" stroke="#bfbfbf" points="355,-59 355,-79 399,-79 399,-59 355,-59"/>
<text text-anchor="middle" x="377" y="-66" font-family="FreeSans" font-size="10.00">cmath</text>
</g>
<!-- Node3&#45;&gt;Node5 -->
<g id="edge8" class="edge"><title>Node3&#45;&gt;Node5</title>
<path fill="none" stroke="midnightblue" d="M334.884,-116.897C342.107,-108.682 352.482,-96.8827 361.127,-87.0513"/>
<polygon fill="midnightblue" stroke="midnightblue" points="363.9,-89.1985 367.875,-79.3776 358.643,-84.5761 363.9,-89.1985"/>
</g>
<!-- Node3&#45;&gt;Node6 -->
<g id="edge10" class="edge"><title>Node3&#45;&gt;Node6</title>
<path fill="none" stroke="midnightblue" d="M358.511,-122.594C492.729,-104.406 1003.31,-35.2148 1145.22,-15.9848"/>
<polygon fill="midnightblue" stroke="midnightblue" points="1145.73,-19.4478 1155.17,-14.6365 1144.79,-12.5112 1145.73,-19.4478"/>
</g>
<!-- Node7 -->
<g id="node13" class="node"><title>Node7</title>
<polygon fill="white" stroke="#bfbfbf" points="417,-59 417,-79 467,-79 467,-59 417,-59"/>
<text text-anchor="middle" x="442" y="-66" font-family="FreeSans" font-size="10.00">sstream</text>
</g>
<!-- Node3&#45;&gt;Node7 -->
<g id="edge12" class="edge"><title>Node3&#45;&gt;Node7</title>
<path fill="none" stroke="midnightblue" d="M346.206,-116.897C364.556,-107.722 391.848,-94.0762 412.611,-83.6943"/>
<polygon fill="midnightblue" stroke="midnightblue" points="414.258,-86.7844 421.637,-79.1817 411.127,-80.5234 414.258,-86.7844"/>
</g>
<!-- Node3&#45;&gt;Node8 -->
<g id="edge14" class="edge"><title>Node3&#45;&gt;Node8</title>
<path fill="none" stroke="midnightblue" d="M310.596,-116.962C296.915,-107.832 276.579,-93.7241 260,-80 240.195,-63.6053 219.14,-43.0132 204.949,-28.61"/>
<polygon fill="midnightblue" stroke="midnightblue" points="207.313,-26.0212 197.823,-21.3108 202.304,-30.9112 207.313,-26.0212"/>
</g>
<!-- Node9 -->
<g id="node17" class="node"><title>Node9</title>
<polygon fill="white" stroke="#bfbfbf" points="178.5,-59 178.5,-79 213.5,-79 213.5,-59 178.5,-59"/>
<text text-anchor="middle" x="196" y="-66" font-family="FreeSans" font-size="10.00">map</text>
</g>
<!-- Node3&#45;&gt;Node9 -->
<g id="edge16" class="edge"><title>Node3&#45;&gt;Node9</title>
<path fill="none" stroke="midnightblue" d="M303.356,-116.897C280.978,-106.913 246.737,-91.6364 222.966,-81.0308"/>
<polygon fill="midnightblue" stroke="midnightblue" points="224.353,-77.8174 213.795,-76.9393 221.501,-84.21 224.353,-77.8174"/>
</g>
<!-- Node10 -->
<g id="node19" class="node"><title>Node10</title>
<a xlink:href="debugUtils_8h.html" target="_top" xlink:title="debugUtils.h">
<polygon fill="white" stroke="red" points="268.5,-59 268.5,-79 337.5,-79 337.5,-59 268.5,-59"/>
<text text-anchor="middle" x="303" y="-66" font-family="FreeSans" font-size="10.00">debugUtils.h</text>
</a>
</g>
<!-- Node3&#45;&gt;Node10 -->
<g id="edge18" class="edge"><title>Node3&#45;&gt;Node10</title>
<path fill="none" stroke="midnightblue" d="M321.994,-116.897C318.931,-109.175 314.613,-98.2857 310.868,-88.841"/>
<polygon fill="midnightblue" stroke="midnightblue" points="314.055,-87.3832 307.115,-79.3776 307.548,-89.9636 314.055,-87.3832"/>
</g>
<!-- Node11 -->
<g id="node23" class="node"><title>Node11</title>
<polygon fill="white" stroke="#bfbfbf" points="484.5,-59 484.5,-79 555.5,-79 555.5,-59 484.5,-59"/>
<text text-anchor="middle" x="520" y="-66" font-family="FreeSans" font-size="10.00">Eigen/Dense</text>
</g>
<!-- Node3&#45;&gt;Node11 -->
<g id="edge24" class="edge"><title>Node3&#45;&gt;Node11</title>
<path fill="none" stroke="midnightblue" d="M358.909,-117.161C391.32,-107.471 441.01,-92.6155 476.63,-81.9664"/>
<polygon fill="midnightblue" stroke="midnightblue" points="477.699,-85.3 486.277,-79.0821 475.693,-78.5933 477.699,-85.3"/>
</g>
<!-- Node10&#45;&gt;Node6 -->
<g id="edge22" class="edge"><title>Node10&#45;&gt;Node6</title>
<path fill="none" stroke="midnightblue" d="M337.614,-59.5299C340.438,-58.9456 343.258,-58.4236 346,-58 503.517,-33.6613 1004.59,-16.5331 1145.07,-12.1209"/>
<polygon fill="midnightblue" stroke="midnightblue" points="1145.42,-15.6119 1155.3,-11.8021 1145.2,-8.61533 1145.42,-15.6119"/>
</g>
<!-- Node10&#45;&gt;Node8 -->
<g id="edge20" class="edge"><title>Node10&#45;&gt;Node8</title>
<path fill="none" stroke="midnightblue" d="M282.969,-58.8972C264.776,-49.7218 237.72,-36.0762 217.135,-25.6943"/>
<polygon fill="midnightblue" stroke="midnightblue" points="218.693,-22.5598 208.188,-21.1817 215.54,-28.8099 218.693,-22.5598"/>
</g>
<!-- Node12&#45;&gt;Node3 -->
<g id="edge48" class="edge"><title>Node12&#45;&gt;Node3</title>
<path fill="none" stroke="midnightblue" d="M2308.84,-255.316C2259.92,-247.455 2172.83,-231.519 2101,-208 2065.83,-196.485 2061.08,-182.225 2025,-174 1859.35,-136.233 616.565,-128.379 368.869,-127.184"/>
<polygon fill="midnightblue" stroke="midnightblue" points="368.834,-123.684 358.817,-127.136 368.801,-130.684 368.834,-123.684"/>
</g>
<!-- Node13 -->
<g id="node28" class="node"><title>Node13</title>
<polygon fill="white" stroke="#bfbfbf" points="2227.5,-181 2227.5,-201 2340.5,-201 2340.5,-181 2227.5,-181"/>
<text text-anchor="middle" x="2284" y="-188" font-family="FreeSans" font-size="10.00">cantera/IdealGasMix.h</text>
</g>
<!-- Node12&#45;&gt;Node13 -->
<g id="edge30" class="edge"><title>Node12&#45;&gt;Node13</title>
<path fill="none" stroke="midnightblue" d="M2337.97,-250.971C2328.06,-239.951 2311.94,-222.04 2299.89,-208.657"/>
<polygon fill="midnightblue" stroke="midnightblue" points="2302.3,-206.102 2293.01,-201.011 2297.1,-210.785 2302.3,-206.102"/>
</g>
<!-- Node14 -->
<g id="node30" class="node"><title>Node14</title>
<polygon fill="white" stroke="#bfbfbf" points="2358,-181 2358,-201 2464,-201 2464,-181 2358,-181"/>
<text text-anchor="middle" x="2411" y="-188" font-family="FreeSans" font-size="10.00">cantera/equilibrium.h</text>
</g>
<!-- Node12&#45;&gt;Node14 -->
<g id="edge32" class="edge"><title>Node12&#45;&gt;Node14</title>
<path fill="none" stroke="midnightblue" d="M2356.17,-250.971C2366.24,-239.951 2382.62,-222.04 2394.86,-208.657"/>
<polygon fill="midnightblue" stroke="midnightblue" points="2397.68,-210.753 2401.85,-201.011 2392.52,-206.029 2397.68,-210.753"/>
</g>
<!-- Node15 -->
<g id="node32" class="node"><title>Node15</title>
<polygon fill="white" stroke="#bfbfbf" points="2481.5,-181 2481.5,-201 2570.5,-201 2570.5,-181 2481.5,-181"/>
<text text-anchor="middle" x="2526" y="-188" font-family="FreeSans" font-size="10.00">cantera/thermo.h</text>
</g>
<!-- Node12&#45;&gt;Node15 -->
<g id="edge34" class="edge"><title>Node12&#45;&gt;Node15</title>
<path fill="none" stroke="midnightblue" d="M2372.65,-250.971C2403.62,-238.859 2455.87,-218.424 2490.65,-204.824"/>
<polygon fill="midnightblue" stroke="midnightblue" points="2492.36,-207.912 2500.4,-201.011 2489.81,-201.393 2492.36,-207.912"/>
</g>
<!-- Node16 -->
<g id="node34" class="node"><title>Node16</title>
<polygon fill="white" stroke="#bfbfbf" points="2587.5,-181 2587.5,-201 2684.5,-201 2684.5,-181 2587.5,-181"/>
<text text-anchor="middle" x="2636" y="-188" font-family="FreeSans" font-size="10.00">cantera/transport.h</text>
</g>
<!-- Node12&#45;&gt;Node16 -->
<g id="edge36" class="edge"><title>Node12&#45;&gt;Node16</title>
<path fill="none" stroke="midnightblue" d="M2372.63,-250.919C2379.5,-248.439 2386.97,-245.942 2394,-244 2474.74,-221.687 2497.66,-227.994 2579,-208 2584.01,-206.768 2589.24,-205.37 2594.4,-203.916"/>
<polygon fill="midnightblue" stroke="midnightblue" points="2595.56,-207.225 2604.19,-201.084 2593.62,-200.501 2595.56,-207.225"/>
</g>
<!-- Node17 -->
<g id="node36" class="node"><title>Node17</title>
<polygon fill="white" stroke="#bfbfbf" points="2702,-181 2702,-201 2794,-201 2794,-181 2702,-181"/>
<text text-anchor="middle" x="2748" y="-188" font-family="FreeSans" font-size="10.00">cantera/kinetics.h</text>
</g>
<!-- Node12&#45;&gt;Node17 -->
<g id="edge38" class="edge"><title>Node12&#45;&gt;Node17</title>
<path fill="none" stroke="midnightblue" d="M2371.56,-250.927C2378.7,-248.327 2386.57,-245.766 2394,-244 2524.22,-213.037 2562.09,-235.876 2693,-208 2698.18,-206.896 2703.58,-205.521 2708.87,-204.033"/>
<polygon fill="midnightblue" stroke="midnightblue" points="2710.26,-207.272 2718.86,-201.077 2708.28,-200.56 2710.26,-207.272"/>
</g>
<!-- Node18 -->
<g id="node38" class="node"><title>Node18</title>
<polygon fill="white" stroke="#bfbfbf" points="2812,-181 2812,-201 2970,-201 2970,-181 2812,-181"/>
<text text-anchor="middle" x="2891" y="-188" font-family="FreeSans" font-size="10.00">cantera/thermo/IdealGasPhase.h</text>
</g>
<!-- Node12&#45;&gt;Node18 -->
<g id="edge40" class="edge"><title>Node12&#45;&gt;Node18</title>
<path fill="none" stroke="midnightblue" d="M2371.04,-250.951C2378.3,-248.286 2386.37,-245.685 2394,-244 2572.18,-204.636 2622.29,-233.34 2803,-208 2812.94,-206.606 2823.46,-204.836 2833.63,-202.967"/>
<polygon fill="midnightblue" stroke="midnightblue" points="2834.48,-206.369 2843.65,-201.075 2833.18,-199.49 2834.48,-206.369"/>
</g>
<!-- Node19 -->
<g id="node40" class="node"><title>Node19</title>
<polygon fill="white" stroke="#bfbfbf" points="2987.5,-181 2987.5,-201 3134.5,-201 3134.5,-181 2987.5,-181"/>
<text text-anchor="middle" x="3061" y="-188" font-family="FreeSans" font-size="10.00">cantera/kinetics/GasKinetics.h</text>
</g>
<!-- Node12&#45;&gt;Node19 -->
<g id="edge42" class="edge"><title>Node12&#45;&gt;Node19</title>
<path fill="none" stroke="midnightblue" d="M2371.01,-250.824C2378.27,-248.155 2386.35,-245.584 2394,-244 2649.08,-191.161 2720.81,-242.528 2979,-208 2988.52,-206.727 2998.58,-204.979 3008.28,-203.086"/>
<polygon fill="midnightblue" stroke="midnightblue" points="3009.11,-206.49 3018.22,-201.075 3007.72,-199.629 3009.11,-206.49"/>
</g>
<!-- Node20 -->
<g id="node42" class="node"><title>Node20</title>
<polygon fill="white" stroke="#bfbfbf" points="2109.5,-181 2109.5,-201 2210.5,-201 2210.5,-181 2109.5,-181"/>
<text text-anchor="middle" x="2160" y="-188" font-family="FreeSans" font-size="10.00">cantera/base/ctml.h</text>
</g>
<!-- Node12&#45;&gt;Node20 -->
<g id="edge44" class="edge"><title>Node12&#45;&gt;Node20</title>
<path fill="none" stroke="midnightblue" d="M2320.21,-250.971C2287.71,-238.807 2232.79,-218.248 2196.46,-204.649"/>
<polygon fill="midnightblue" stroke="midnightblue" points="2197.34,-201.239 2186.74,-201.011 2194.88,-207.794 2197.34,-201.239"/>
</g>
<!-- Node21 -->
<g id="node44" class="node"><title>Node21</title>
<a xlink:href="config_8h.html" target="_top" xlink:title="config.h">
<polygon fill="white" stroke="black" points="1832,-181 1832,-201 1882,-201 1882,-181 1832,-181"/>
<text text-anchor="middle" x="1857" y="-188" font-family="FreeSans" font-size="10.00">config.h</text>
</a>
</g>
<!-- Node12&#45;&gt;Node21 -->
<g id="edge46" class="edge"><title>Node12&#45;&gt;Node21</title>
<path fill="none" stroke="midnightblue" d="M2308.89,-258.28C2214.01,-251.235 1969.19,-231.306 1891,-208 1888.51,-207.258 1885.98,-206.342 1883.48,-205.323"/>
<polygon fill="midnightblue" stroke="midnightblue" points="1884.72,-202.036 1874.17,-201.034 1881.79,-208.395 1884.72,-202.036"/>
</g>
<!-- Node22&#45;&gt;Node2 -->
<g id="edge52" class="edge"><title>Node22&#45;&gt;Node2</title>
<path fill="none" stroke="midnightblue" d="M201.988,-253.509C170.805,-241.836 110.164,-219.136 71.1759,-204.542"/>
<polygon fill="midnightblue" stroke="midnightblue" points="72.3539,-201.246 61.7615,-201.018 69.8998,-207.801 72.3539,-201.246"/>
</g>
<!-- Node23&#45;&gt;Node2 -->
<g id="edge68" class="edge"><title>Node23&#45;&gt;Node2</title>
<path fill="none" stroke="midnightblue" d="M1061.83,-328.34C985.002,-321.962 800.97,-304.342 745,-278 724.495,-268.35 727.835,-252.915 707,-244 678.171,-231.665 226.471,-202.828 80.2747,-193.772"/>
<polygon fill="midnightblue" stroke="midnightblue" points="80.4834,-190.278 70.2865,-193.155 80.0515,-197.265 80.4834,-190.278"/>
</g>
<!-- Node23&#45;&gt;Node3 -->
<g id="edge56" class="edge"><title>Node23&#45;&gt;Node3</title>
<path fill="none" stroke="midnightblue" d="M1116.25,-320.872C1122.17,-318.271 1128.73,-315.723 1135,-314 1258.1,-280.148 1298.8,-318.136 1420,-278 1488.28,-255.388 1593.87,-225.833 1544,-174 1523.19,-152.373 582.277,-132.158 368.776,-127.844"/>
<polygon fill="midnightblue" stroke="midnightblue" points="368.661,-124.342 358.593,-127.64 368.52,-131.34 368.661,-124.342"/>
</g>
<!-- Node23&#45;&gt;Node24 -->
<g id="edge58" class="edge"><title>Node23&#45;&gt;Node24</title>
<path fill="none" stroke="midnightblue" d="M1130.35,-328.769C1233.16,-321.911 1537.27,-300.25 1634,-278 1638.2,-277.034 1642.54,-275.785 1646.8,-274.403"/>
<polygon fill="midnightblue" stroke="midnightblue" points="1648.2,-277.619 1656.48,-271.007 1645.88,-271.014 1648.2,-277.619"/>
</g>
<!-- Node25 -->
<g id="node55" class="node"><title>Node25</title>
<polygon fill="white" stroke="#bfbfbf" points="1648,-181 1648,-201 1738,-201 1738,-181 1648,-181"/>
<text text-anchor="middle" x="1693" y="-188" font-family="FreeSans" font-size="10.00">tbb/combinable.h</text>
</g>
<!-- Node24&#45;&gt;Node25 -->
<g id="edge60" class="edge"><title>Node24&#45;&gt;Node25</title>
<path fill="none" stroke="midnightblue" d="M1681.86,-250.971C1683.79,-240.575 1686.86,-224.045 1689.29,-210.971"/>
<polygon fill="midnightblue" stroke="midnightblue" points="1692.76,-211.482 1691.14,-201.011 1685.87,-210.203 1692.76,-211.482"/>
</g>
<!-- Node24&#45;&gt;Node26 -->
<g id="edge62" class="edge"><title>Node24&#45;&gt;Node26</title>
<path fill="none" stroke="midnightblue" d="M1712.54,-252.853C1752.13,-242.934 1821.26,-225.596 1890.18,-208.205"/>
<polygon fill="midnightblue" stroke="midnightblue" points="1891.06,-211.592 1899.9,-205.751 1889.34,-204.805 1891.06,-211.592"/>
</g>
<!-- Node27 -->
<g id="node59" class="node"><title>Node27</title>
<polygon fill="white" stroke="#bfbfbf" points="1755.5,-181 1755.5,-201 1814.5,-201 1814.5,-181 1755.5,-181"/>
<text text-anchor="middle" x="1785" y="-188" font-family="FreeSans" font-size="10.00">sys/time.h</text>
</g>
<!-- Node24&#45;&gt;Node27 -->
<g id="edge64" class="edge"><title>Node24&#45;&gt;Node27</title>
<path fill="none" stroke="midnightblue" d="M1695.04,-250.971C1712.43,-239.379 1741.26,-220.163 1761.58,-206.611"/>
<polygon fill="midnightblue" stroke="midnightblue" points="1763.6,-209.47 1769.98,-201.011 1759.72,-203.646 1763.6,-209.47"/>
</g>
<!-- Node28 -->
<g id="node61" class="node"><title>Node28</title>
<polygon fill="white" stroke="#bfbfbf" points="1473.5,-181 1473.5,-201 1516.5,-201 1516.5,-181 1473.5,-181"/>
<text text-anchor="middle" x="1495" y="-188" font-family="FreeSans" font-size="10.00">time.h</text>
</g>
<!-- Node24&#45;&gt;Node28 -->
<g id="edge66" class="edge"><title>Node24&#45;&gt;Node28</title>
<path fill="none" stroke="midnightblue" d="M1653.49,-250.971C1619.8,-238.22 1561.71,-216.243 1526,-202.729"/>
<polygon fill="midnightblue" stroke="midnightblue" points="1527.15,-199.422 1516.56,-199.157 1524.67,-205.969 1527.15,-199.422"/>
</g>
<!-- Node29&#45;&gt;Node3 -->
<g id="edge74" class="edge"><title>Node29&#45;&gt;Node3</title>
<path fill="none" stroke="midnightblue" d="M116.484,-250.991C121.51,-232.851 134.629,-194.524 160,-174 178.918,-158.697 240.688,-143.887 283.296,-135.108"/>
<polygon fill="midnightblue" stroke="midnightblue" points="284.035,-138.53 293.142,-133.116 282.647,-131.669 284.035,-138.53"/>
</g>
<!-- Node30&#45;&gt;Node3 -->
<g id="edge78" class="edge"><title>Node30&#45;&gt;Node3</title>
<path fill="none" stroke="midnightblue" d="M835.599,-328.82C1005.99,-319.36 1624.6,-277.584 1525,-174 1504.54,-152.727 580.287,-132.278 368.794,-127.872"/>
<polygon fill="midnightblue" stroke="midnightblue" points="368.771,-124.37 358.7,-127.662 368.626,-131.369 368.771,-124.37"/>
</g>
<!-- Node31 -->
<g id="node71" class="node"><title>Node31</title>
<a xlink:href="sundialsUtils_8h.html" target="_top" xlink:title="sundialsUtils.h">
<polygon fill="white" stroke="black" points="1022.5,-251 1022.5,-271 1099.5,-271 1099.5,-251 1022.5,-251"/>
<text text-anchor="middle" x="1061" y="-258" font-family="FreeSans" font-size="10.00">sundialsUtils.h</text>
</a>
</g>
<!-- Node30&#45;&gt;Node31 -->
<g id="edge80" class="edge"><title>Node30&#45;&gt;Node31</title>
<path fill="none" stroke="midnightblue" d="M831.398,-320.971C879.16,-308.495 960.736,-287.188 1012.7,-273.617"/>
<polygon fill="midnightblue" stroke="midnightblue" points="1013.88,-276.924 1022.67,-271.011 1012.11,-270.152 1013.88,-276.924"/>
</g>
<!-- Node41 -->
<g id="node95" class="node"><title>Node41</title>
<a xlink:href="qssintegrator_8h.html" target="_top" xlink:title="qssintegrator.h">
<polygon fill="white" stroke="black" points="753.5,-251 753.5,-271 832.5,-271 832.5,-251 753.5,-251"/>
<text text-anchor="middle" x="793" y="-258" font-family="FreeSans" font-size="10.00">qssintegrator.h</text>
</a>
</g>
<!-- Node30&#45;&gt;Node41 -->
<g id="edge108" class="edge"><title>Node30&#45;&gt;Node41</title>
<path fill="none" stroke="midnightblue" d="M793,-320.971C793,-310.679 793,-294.375 793,-281.364"/>
<polygon fill="midnightblue" stroke="midnightblue" points="796.5,-281.011 793,-271.011 789.5,-281.011 796.5,-281.011"/>
</g>
<!-- Node30&#45;&gt;Node42 -->
<g id="edge112" class="edge"><title>Node30&#45;&gt;Node42</title>
<path fill="none" stroke="midnightblue" d="M750.257,-323.309C674.071,-309.599 515.944,-281.144 442.739,-267.971"/>
<polygon fill="midnightblue" stroke="midnightblue" points="443.036,-264.468 432.574,-266.142 441.796,-271.358 443.036,-264.468"/>
</g>
<!-- Node30&#45;&gt;Node43 -->
<g id="edge120" class="edge"><title>Node30&#45;&gt;Node43</title>
<path fill="none" stroke="midnightblue" d="M771.795,-320.971C746.518,-309.015 704.092,-288.949 675.345,-275.352"/>
<polygon fill="midnightblue" stroke="midnightblue" points="676.702,-272.122 666.165,-271.011 673.709,-278.45 676.702,-272.122"/>
</g>
<!-- Node31&#45;&gt;Node4 -->
<g id="edge102" class="edge"><title>Node31&#45;&gt;Node4</title>
<path fill="none" stroke="midnightblue" d="M1099.82,-258.218C1189.63,-251.388 1405.75,-232.545 1427,-208 1436.89,-196.575 1436.21,-185.979 1427,-174 1382.05,-115.538 1149.68,-82.7895 1063.88,-72.5405"/>
<polygon fill="midnightblue" stroke="midnightblue" points="1064.04,-69.0355 1053.7,-71.3487 1063.23,-75.988 1064.04,-69.0355"/>
</g>
<!-- Node31&#45;&gt;Node6 -->
<g id="edge100" class="edge"><title>Node31&#45;&gt;Node6</title>
<path fill="none" stroke="midnightblue" d="M1099.71,-259.477C1206.08,-254.896 1496.83,-239.572 1525,-208 1621.57,-99.774 1325.3,-36.0307 1218.68,-17.0408"/>
<polygon fill="midnightblue" stroke="midnightblue" points="1219.14,-13.5674 1208.68,-15.2926 1217.93,-20.4628 1219.14,-13.5674"/>
</g>
<!-- Node31&#45;&gt;Node21 -->
<g id="edge106" class="edge"><title>Node31&#45;&gt;Node21</title>
<path fill="none" stroke="midnightblue" d="M1099.93,-260.305C1235.27,-257.575 1684.52,-245.811 1823,-208 1825.65,-207.275 1828.35,-206.336 1830.99,-205.271"/>
<polygon fill="midnightblue" stroke="midnightblue" points="1832.61,-208.381 1840.23,-201.022 1829.68,-202.021 1832.61,-208.381"/>
</g>
<!-- Node31&#45;&gt;Node28 -->
<g id="edge104" class="edge"><title>Node31&#45;&gt;Node28</title>
<path fill="none" stroke="midnightblue" d="M1099.53,-259.952C1171.74,-257.103 1331.68,-246.586 1460,-208 1462.49,-207.251 1465.02,-206.343 1467.53,-205.34"/>
<polygon fill="midnightblue" stroke="midnightblue" points="1469.22,-208.42 1476.92,-201.143 1466.36,-202.029 1469.22,-208.42"/>
</g>
<!-- Node32 -->
<g id="node73" class="node"><title>Node32</title>
<polygon fill="white" stroke="#bfbfbf" points="460,-181 460,-201 578,-201 578,-181 460,-181"/>
<text text-anchor="middle" x="519" y="-188" font-family="FreeSans" font-size="10.00">nvector/nvector_serial.h</text>
</g>
<!-- Node31&#45;&gt;Node32 -->
<g id="edge82" class="edge"><title>Node31&#45;&gt;Node32</title>
<path fill="none" stroke="midnightblue" d="M1022.35,-258.437C941.2,-252.671 747.339,-236.873 587,-208 579.919,-206.725 572.482,-205.132 565.23,-203.436"/>
<polygon fill="midnightblue" stroke="midnightblue" points="566.051,-200.034 555.508,-201.08 564.402,-206.837 566.051,-200.034"/>
</g>
<!-- Node33 -->
<g id="node75" class="node"><title>Node33</title>
<polygon fill="white" stroke="#bfbfbf" points="595.5,-181 595.5,-201 722.5,-201 722.5,-181 595.5,-181"/>
<text text-anchor="middle" x="659" y="-188" font-family="FreeSans" font-size="10.00">sundials/sundials_dense.h</text>
</g>
<!-- Node31&#45;&gt;Node33 -->
<g id="edge84" class="edge"><title>Node31&#45;&gt;Node33</title>
<path fill="none" stroke="midnightblue" d="M1022.23,-255.704C960.391,-247.05 835.733,-228.746 731,-208 723.897,-206.593 716.431,-204.981 709.106,-203.323"/>
<polygon fill="midnightblue" stroke="midnightblue" points="709.784,-199.888 699.253,-201.049 708.209,-206.708 709.784,-199.888"/>
</g>
<!-- Node34 -->
<g id="node77" class="node"><title>Node34</title>
<polygon fill="white" stroke="#bfbfbf" points="740,-181 740,-201 862,-201 862,-181 740,-181"/>
<text text-anchor="middle" x="801" y="-188" font-family="FreeSans" font-size="10.00">sundials/sundials_band.h</text>
</g>
<!-- Node31&#45;&gt;Node34 -->
<g id="edge86" class="edge"><title>Node31&#45;&gt;Node34</title>
<path fill="none" stroke="midnightblue" d="M1023.75,-250.971C977.411,-238.495 898.272,-217.188 847.863,-203.617"/>
<polygon fill="midnightblue" stroke="midnightblue" points="848.749,-200.231 838.183,-201.011 846.929,-206.99 848.749,-200.231"/>
</g>
<!-- Node35 -->
<g id="node79" class="node"><title>Node35</title>
<polygon fill="white" stroke="#bfbfbf" points="880,-181 880,-201 1004,-201 1004,-181 880,-181"/>
<text text-anchor="middle" x="942" y="-188" font-family="FreeSans" font-size="10.00">sundials/sundials_types.h</text>
</g>
<!-- Node31&#45;&gt;Node35 -->
<g id="edge88" class="edge"><title>Node31&#45;&gt;Node35</title>
<path fill="none" stroke="midnightblue" d="M1043.95,-250.971C1024.07,-239.275 990.989,-219.817 967.922,-206.248"/>
<polygon fill="midnightblue" stroke="midnightblue" points="969.412,-203.064 959.018,-201.011 965.863,-209.098 969.412,-203.064"/>
</g>
<!-- Node36 -->
<g id="node81" class="node"><title>Node36</title>
<polygon fill="white" stroke="#bfbfbf" points="1022,-181 1022,-201 1100,-201 1100,-181 1022,-181"/>
<text text-anchor="middle" x="1061" y="-188" font-family="FreeSans" font-size="10.00">cvode/cvode.h</text>
</g>
<!-- Node31&#45;&gt;Node36 -->
<g id="edge90" class="edge"><title>Node31&#45;&gt;Node36</title>
<path fill="none" stroke="midnightblue" d="M1061,-250.971C1061,-240.679 1061,-224.375 1061,-211.364"/>
<polygon fill="midnightblue" stroke="midnightblue" points="1064.5,-211.011 1061,-201.011 1057.5,-211.011 1064.5,-211.011"/>
</g>
<!-- Node37 -->
<g id="node83" class="node"><title>Node37</title>
<polygon fill="white" stroke="#bfbfbf" points="1117.5,-181 1117.5,-201 1226.5,-201 1226.5,-181 1117.5,-181"/>
<text text-anchor="middle" x="1172" y="-188" font-family="FreeSans" font-size="10.00">cvode/cvode_dense.h</text>
</g>
<!-- Node31&#45;&gt;Node37 -->
<g id="edge92" class="edge"><title>Node31&#45;&gt;Node37</title>
<path fill="none" stroke="midnightblue" d="M1076.9,-250.971C1095.37,-239.327 1126.03,-219.99 1147.53,-206.429"/>
<polygon fill="midnightblue" stroke="midnightblue" points="1149.53,-209.305 1156.13,-201.011 1145.8,-203.384 1149.53,-209.305"/>
</g>
<!-- Node38 -->
<g id="node85" class="node"><title>Node38</title>
<polygon fill="white" stroke="#bfbfbf" points="1244,-181 1244,-201 1348,-201 1348,-181 1244,-181"/>
<text text-anchor="middle" x="1296" y="-188" font-family="FreeSans" font-size="10.00">cvode/cvode_band.h</text>
</g>
<!-- Node31&#45;&gt;Node38 -->
<g id="edge94" class="edge"><title>Node31&#45;&gt;Node38</title>
<path fill="none" stroke="midnightblue" d="M1094.67,-250.971C1136.29,-238.573 1207.19,-217.454 1252.79,-203.872"/>
<polygon fill="midnightblue" stroke="midnightblue" points="1253.81,-207.22 1262.39,-201.011 1251.81,-200.511 1253.81,-207.22"/>
</g>
<!-- Node39 -->
<g id="node87" class="node"><title>Node39</title>
<polygon fill="white" stroke="#bfbfbf" points="1365.5,-181 1365.5,-201 1418.5,-201 1418.5,-181 1365.5,-181"/>
<text text-anchor="middle" x="1392" y="-188" font-family="FreeSans" font-size="10.00">ida/ida.h</text>
</g>
<!-- Node31&#45;&gt;Node39 -->
<g id="edge96" class="edge"><title>Node31&#45;&gt;Node39</title>
<path fill="none" stroke="midnightblue" d="M1099.67,-257.5C1156.99,-251.551 1267.39,-237.165 1357,-208 1359.42,-207.213 1361.88,-206.291 1364.32,-205.289"/>
<polygon fill="midnightblue" stroke="midnightblue" points="1365.82,-208.452 1373.5,-201.155 1362.95,-202.069 1365.82,-208.452"/>
</g>
<!-- Node40 -->
<g id="node89" class="node"><title>Node40</title>
<polygon fill="white" stroke="#bfbfbf" points="354,-181 354,-201 442,-201 442,-181 354,-181"/>
<text text-anchor="middle" x="398" y="-188" font-family="FreeSans" font-size="10.00">ida/ida_spbcgs.h</text>
</g>
<!-- Node31&#45;&gt;Node40 -->
<g id="edge98" class="edge"><title>Node31&#45;&gt;Node40</title>
<path fill="none" stroke="midnightblue" d="M1022.14,-257.864C892.142,-247.344 479.073,-213.648 451,-208 445.804,-206.955 440.403,-205.577 435.121,-204.058"/>
<polygon fill="midnightblue" stroke="midnightblue" points="435.786,-200.601 425.199,-201.01 433.731,-207.292 435.786,-200.601"/>
</g>
<!-- Node41&#45;&gt;Node3 -->
<g id="edge110" class="edge"><title>Node41&#45;&gt;Node3</title>
<path fill="none" stroke="midnightblue" d="M765.523,-250.924C757.401,-248.291 748.428,-245.714 740,-244 653.627,-226.434 411.518,-265.83 345,-208 327.858,-193.097 324.607,-165.939 324.649,-147.206"/>
<polygon fill="midnightblue" stroke="midnightblue" points="328.152,-147.172 324.99,-137.06 321.156,-146.937 328.152,-147.172"/>
</g>
<!-- Node42&#45;&gt;Node3 -->
<g id="edge114" class="edge"><title>Node42&#45;&gt;Node3</title>
<path fill="none" stroke="midnightblue" d="M382.577,-250.887C377.497,-248.564 372.079,-246.147 367,-244 326.177,-226.74 299.053,-244.562 274,-208 265.459,-195.535 267.867,-187.811 274,-174 279.518,-161.575 290.123,-151.044 300.324,-143.12"/>
<polygon fill="midnightblue" stroke="midnightblue" points="302.616,-145.782 308.678,-137.092 298.52,-140.105 302.616,-145.782"/>
</g>
<!-- Node42&#45;&gt;Node8 -->
<g id="edge116" class="edge"><title>Node42&#45;&gt;Node8</title>
<path fill="none" stroke="midnightblue" d="M383.51,-250.851C378.205,-248.428 372.45,-245.974 367,-244 309.423,-223.144 281.395,-246.779 234,-208 184.774,-167.723 184.613,-141.902 170,-80 166.056,-63.2935 171.665,-44.4426 177.635,-30.6712"/>
<polygon fill="midnightblue" stroke="midnightblue" points="180.982,-31.7836 182.119,-21.2499 174.661,-28.7753 180.982,-31.7836"/>
</g>
<!-- Node42&#45;&gt;Node9 -->
<g id="edge118" class="edge"><title>Node42&#45;&gt;Node9</title>
<path fill="none" stroke="midnightblue" d="M383.014,-250.954C377.82,-248.58 372.241,-246.124 367,-244 322.445,-225.946 300.994,-239.867 265,-208 228.35,-175.552 208.967,-119.148 200.802,-89.1356"/>
<polygon fill="midnightblue" stroke="midnightblue" points="204.17,-88.1794 198.291,-79.3658 197.391,-89.9224 204.17,-88.1794"/>
</g>
<!-- Node44&#45;&gt;Node3 -->
<g id="edge124" class="edge"><title>Node44&#45;&gt;Node3</title>
<path fill="none" stroke="midnightblue" d="M204.383,-320.957C195.882,-304.347 181.86,-270.368 193,-244 213.098,-196.429 264.056,-160.925 296.741,-142.125"/>
<polygon fill="midnightblue" stroke="midnightblue" points="298.81,-144.979 305.838,-137.051 295.4,-138.865 298.81,-144.979"/>
</g>
<!-- Node44&#45;&gt;Node22 -->
<g id="edge126" class="edge"><title>Node44&#45;&gt;Node22</title>
<path fill="none" stroke="midnightblue" d="M211.719,-320.971C213.501,-310.575 216.335,-294.045 218.576,-280.971"/>
<polygon fill="midnightblue" stroke="midnightblue" points="222.044,-281.458 220.284,-271.011 215.144,-280.276 222.044,-281.458"/>
</g>
<!-- Node44&#45;&gt;Node29 -->
<g id="edge128" class="edge"><title>Node44&#45;&gt;Node29</title>
<path fill="none" stroke="midnightblue" d="M196.246,-320.971C180.491,-309.483 154.466,-290.507 135.912,-276.977"/>
<polygon fill="midnightblue" stroke="midnightblue" points="137.871,-274.074 127.729,-271.011 133.747,-279.73 137.871,-274.074"/>
</g>
<!-- Node45&#45;&gt;Node3 -->
<g id="edge132" class="edge"><title>Node45&#45;&gt;Node3</title>
<path fill="none" stroke="midnightblue" d="M585.616,-320.734C557.093,-303.188 496.085,-267.093 441,-244 390.825,-222.966 356.323,-251.764 324,-208 311.067,-190.489 314.501,-164.548 319.241,-146.769"/>
<polygon fill="midnightblue" stroke="midnightblue" points="322.609,-147.721 322.147,-137.136 315.908,-145.699 322.609,-147.721"/>
</g>
<!-- Node45&#45;&gt;Node22 -->
<g id="edge136" class="edge"><title>Node45&#45;&gt;Node22</title>
<path fill="none" stroke="midnightblue" d="M550.251,-329.29C480.449,-325.628 353.11,-314.125 251,-278 249.336,-277.411 247.66,-276.724 245.998,-275.97"/>
<polygon fill="midnightblue" stroke="midnightblue" points="247.3,-272.7 236.82,-271.142 244.041,-278.895 247.3,-272.7"/>
</g>
<!-- Node45&#45;&gt;Node24 -->
<g id="edge138" class="edge"><title>Node45&#45;&gt;Node24</title>
<path fill="none" stroke="midnightblue" d="M653.775,-323.906C680.144,-320.499 712.734,-316.601 742,-314 1086.44,-283.388 1503.7,-267.129 1636.94,-262.445"/>
<polygon fill="midnightblue" stroke="midnightblue" points="1637.26,-265.937 1647.13,-262.09 1637.01,-258.941 1637.26,-265.937"/>
</g>
<!-- Node45&#45;&gt;Node31 -->
<g id="edge134" class="edge"><title>Node45&#45;&gt;Node31</title>
<path fill="none" stroke="midnightblue" d="M653.761,-323.106C743.181,-309.469 925.359,-281.686 1012.48,-268.4"/>
<polygon fill="midnightblue" stroke="midnightblue" points="1013.01,-271.859 1022.37,-266.891 1011.96,-264.939 1013.01,-271.859"/>
</g>
<!-- Node45&#45;&gt;Node42 -->
<g id="edge140" class="edge"><title>Node45&#45;&gt;Node42</title>
<path fill="none" stroke="midnightblue" d="M570.737,-320.961C539.109,-310.668 488.895,-293.953 446,-278 443.304,-276.997 440.522,-275.934 437.732,-274.849"/>
<polygon fill="midnightblue" stroke="midnightblue" points="438.924,-271.556 428.338,-271.125 436.345,-278.064 438.924,-271.556"/>
</g>
<!-- Node45&#45;&gt;Node43 -->
<g id="edge142" class="edge"><title>Node45&#45;&gt;Node43</title>
<path fill="none" stroke="midnightblue" d="M608.161,-320.971C614.739,-310.263 625.313,-293.048 633.449,-279.803"/>
<polygon fill="midnightblue" stroke="midnightblue" points="636.599,-281.363 638.851,-271.011 630.634,-277.699 636.599,-281.363"/>
</g>
<!-- Node45&#45;&gt;Node46 -->
<g id="edge144" class="edge"><title>Node45&#45;&gt;Node46</title>
<path fill="none" stroke="midnightblue" d="M553.176,-320.931C507.635,-311.327 437.611,-296.023 368.378,-278.286"/>
<polygon fill="midnightblue" stroke="midnightblue" points="369.174,-274.877 358.617,-275.767 367.425,-281.655 369.174,-274.877"/>
</g>
<!-- Node48 -->
<g id="node123" class="node"><title>Node48</title>
<polygon fill="white" stroke="#bfbfbf" points="2403,-251 2403,-271 2461,-271 2461,-251 2403,-251"/>
<text text-anchor="middle" x="2432" y="-258" font-family="FreeSans" font-size="10.00">stdexcept</text>
</g>
<!-- Node47&#45;&gt;Node48 -->
<g id="edge150" class="edge"><title>Node47&#45;&gt;Node48</title>
<path fill="none" stroke="midnightblue" d="M2198.74,-320.997C2204.55,-318.459 2210.94,-315.913 2217,-314 2293.55,-289.828 2317.57,-302.54 2394,-278 2396.77,-277.109 2399.62,-276.078 2402.44,-274.971"/>
<polygon fill="midnightblue" stroke="midnightblue" points="2403.96,-278.129 2411.81,-271.02 2401.24,-271.679 2403.96,-278.129"/>
</g>
</g>
</svg>
