<?xml version="1.0" encoding="UTF-8" standalone="no"?>
<!DOCTYPE svg PUBLIC "-//W3C//DTD SVG 1.1//EN"
 "http://www.w3.org/Graphics/SVG/1.1/DTD/svg11.dtd">
<!-- Generated by graphviz version 2.36.0 (20140111.2315)
 -->
<!-- Title: src/flameSolver.cpp Pages: 1 -->
<svg width="1988pt" height="376pt"
 viewBox="0.00 0.00 1987.79 376.00" xmlns="http://www.w3.org/2000/svg" xmlns:xlink="http://www.w3.org/1999/xlink">
<g id="graph0" class="graph" transform="scale(1 1) rotate(0) translate(4 372)">
<title>src/flameSolver.cpp</title>
<polygon fill="white" stroke="none" points="-4,4 -4,-372 1983.79,-372 1983.79,4 -4,4"/>
<!-- Node1 -->
<g id="node1" class="node"><title>Node1</title>
<polygon fill="#bfbfbf" stroke="black" points="456.288,-348.5 456.288,-367.5 557.288,-367.5 557.288,-348.5 456.288,-348.5"/>
<text text-anchor="middle" x="506.788" y="-355.5" font-family="FreeSans" font-size="10.00">src/flameSolver.cpp</text>
</g>
<!-- Node2 -->
<g id="node2" class="node"><title>Node2</title>
<g id="a_node2"><a xlink:href="flameSolver_8h.html" target="_top" xlink:title="flameSolver.h">
<polygon fill="white" stroke="black" points="469.788,-292.5 469.788,-311.5 543.788,-311.5 543.788,-292.5 469.788,-292.5"/>
<text text-anchor="middle" x="506.788" y="-299.5" font-family="FreeSans" font-size="10.00">flameSolver.h</text>
</a>
</g>
</g>
<!-- Node1&#45;&gt;Node2 -->
<g id="edge1" class="edge"><title>Node1&#45;&gt;Node2</title>
<path fill="none" stroke="midnightblue" d="M506.788,-348.083C506.788,-341.006 506.788,-330.861 506.788,-321.986"/>
<polygon fill="midnightblue" stroke="midnightblue" points="510.288,-321.751 506.788,-311.751 503.288,-321.751 510.288,-321.751"/>
</g>
<!-- Node32 -->
<g id="node32" class="node"><title>Node32</title>
<g id="a_node32"><a xlink:href="scalarFunction_8h.html" target="_top" xlink:title="scalarFunction.h">
<polygon fill="white" stroke="black" points="176.288,-292.5 176.288,-311.5 263.288,-311.5 263.288,-292.5 176.288,-292.5"/>
<text text-anchor="middle" x="219.788" y="-299.5" font-family="FreeSans" font-size="10.00">scalarFunction.h</text>
</a>
</g>
</g>
<!-- Node1&#45;&gt;Node32 -->
<g id="edge58" class="edge"><title>Node1&#45;&gt;Node32</title>
<path fill="none" stroke="midnightblue" d="M461.312,-348.444C410.38,-338.861 327.891,-323.34 273.74,-313.151"/>
<polygon fill="midnightblue" stroke="midnightblue" points="274.114,-309.66 263.639,-311.251 272.82,-316.54 274.114,-309.66"/>
</g>
<!-- Node33 -->
<g id="node33" class="node"><title>Node33</title>
<polygon fill="white" stroke="#bfbfbf" points="562.288,-292.5 562.288,-311.5 655.288,-311.5 655.288,-292.5 562.288,-292.5"/>
<text text-anchor="middle" x="608.788" y="-299.5" font-family="FreeSans" font-size="10.00">boost/foreach.hpp</text>
</g>
<!-- Node1&#45;&gt;Node33 -->
<g id="edge60" class="edge"><title>Node1&#45;&gt;Node33</title>
<path fill="none" stroke="midnightblue" d="M523.176,-348.324C539.459,-339.703 564.655,-326.364 583.504,-316.386"/>
<polygon fill="midnightblue" stroke="midnightblue" points="585.24,-319.427 592.44,-311.655 581.965,-313.24 585.24,-319.427"/>
</g>
<!-- Node3 -->
<g id="node3" class="node"><title>Node3</title>
<g id="a_node3"><a xlink:href="readConfig_8h.html" target="_top" xlink:title="readConfig.h">
<polygon fill="white" stroke="black" points="29.7878,-112.5 29.7878,-131.5 99.7878,-131.5 99.7878,-112.5 29.7878,-112.5"/>
<text text-anchor="middle" x="64.7878" y="-119.5" font-family="FreeSans" font-size="10.00">readConfig.h</text>
</a>
</g>
</g>
<!-- Node2&#45;&gt;Node3 -->
<g id="edge2" class="edge"><title>Node2&#45;&gt;Node3</title>
<path fill="none" stroke="midnightblue" d="M469.731,-300.286C381.049,-298.054 159.127,-289.216 93.7878,-256 63.7792,-240.745 54.9407,-231.393 42.7878,-200 35.0568,-180.029 44.5936,-156.215 53.4175,-140.412"/>
<polygon fill="midnightblue" stroke="midnightblue" points="56.4954,-142.085 58.6587,-131.714 50.4997,-138.473 56.4954,-142.085"/>
</g>
<!-- Node5 -->
<g id="node5" class="node"><title>Node5</title>
<polygon fill="white" stroke="#bfbfbf" points="692.288,-0.5 692.288,-19.5 745.288,-19.5 745.288,-0.5 692.288,-0.5"/>
<text text-anchor="middle" x="718.788" y="-7.5" font-family="FreeSans" font-size="10.00">iostream</text>
</g>
<!-- Node2&#45;&gt;Node5 -->
<g id="edge54" class="edge"><title>Node2&#45;&gt;Node5</title>
<path fill="none" stroke="midnightblue" d="M543.914,-293.563C546.913,-293.015 549.899,-292.487 552.788,-292 705.041,-266.334 816.085,-336.743 887.788,-200 894.392,-187.404 893.471,-181.037 887.788,-168 858.082,-99.8578 782.605,-47.9918 743.349,-24.6238"/>
<polygon fill="midnightblue" stroke="midnightblue" points="745.052,-21.5651 734.649,-19.5594 741.531,-27.6149 745.052,-21.5651"/>
</g>
<!-- Node7 -->
<g id="node7" class="node"><title>Node7</title>
<g id="a_node7"><a xlink:href="chemistry0d_8h.html" target="_top" xlink:title="chemistry0d.h">
<polygon fill="white" stroke="black" points="1191.79,-112.5 1191.79,-131.5 1267.79,-131.5 1267.79,-112.5 1191.79,-112.5"/>
<text text-anchor="middle" x="1229.79" y="-119.5" font-family="FreeSans" font-size="10.00">chemistry0d.h</text>
</a>
</g>
</g>
<!-- Node2&#45;&gt;Node7 -->
<g id="edge7" class="edge"><title>Node2&#45;&gt;Node7</title>
<path fill="none" stroke="midnightblue" d="M543.882,-293.347C546.888,-292.847 549.884,-292.389 552.788,-292 660.781,-277.513 939.233,-292.809 1041.79,-256 1114.02,-230.074 1183.63,-168.252 1213.94,-138.94"/>
<polygon fill="midnightblue" stroke="midnightblue" points="1216.74,-141.098 1221.41,-131.592 1211.83,-136.106 1216.74,-141.098"/>
</g>
<!-- Node17 -->
<g id="node17" class="node"><title>Node17</title>
<g id="a_node17"><a xlink:href="grid_8h.html" target="_top" xlink:title="grid.h">
<polygon fill="white" stroke="black" points="51.7878,-174.5 51.7878,-193.5 91.7878,-193.5 91.7878,-174.5 51.7878,-174.5"/>
<text text-anchor="middle" x="71.7878" y="-181.5" font-family="FreeSans" font-size="10.00">grid.h</text>
</a>
</g>
</g>
<!-- Node2&#45;&gt;Node17 -->
<g id="edge18" class="edge"><title>Node2&#45;&gt;Node17</title>
<path fill="none" stroke="midnightblue" d="M469.515,-300.717C383.692,-299.437 175.026,-292.544 116.788,-256 97.5211,-243.91 85.0345,-220.224 78.2137,-203.543"/>
<polygon fill="midnightblue" stroke="midnightblue" points="81.3377,-201.908 74.5353,-193.785 74.7877,-204.377 81.3377,-201.908"/>
</g>
<!-- Node18 -->
<g id="node18" class="node"><title>Node18</title>
<g id="a_node18"><a xlink:href="splitSolver_8h.html" target="_top" xlink:title="splitSolver.h">
<polygon fill="white" stroke="black" points="702.788,-236.5 702.788,-255.5 770.788,-255.5 770.788,-236.5 702.788,-236.5"/>
<text text-anchor="middle" x="736.788" y="-243.5" font-family="FreeSans" font-size="10.00">splitSolver.h</text>
</a>
</g>
</g>
<!-- Node2&#45;&gt;Node18 -->
<g id="edge20" class="edge"><title>Node2&#45;&gt;Node18</title>
<path fill="none" stroke="midnightblue" d="M543.232,-292.444C583.806,-282.917 649.371,-267.524 692.776,-257.333"/>
<polygon fill="midnightblue" stroke="midnightblue" points="693.828,-260.681 702.764,-254.988 692.228,-253.867 693.828,-260.681"/>
</g>
<!-- Node19 -->
<g id="node19" class="node"><title>Node19</title>
<g id="a_node19"><a xlink:href="perfTimer_8h.html" target="_top" xlink:title="perfTimer.h">
<polygon fill="white" stroke="red" points="814.288,-174.5 814.288,-193.5 879.288,-193.5 879.288,-174.5 814.288,-174.5"/>
<text text-anchor="middle" x="846.788" y="-181.5" font-family="FreeSans" font-size="10.00">perfTimer.h</text>
</a>
</g>
</g>
<!-- Node2&#45;&gt;Node19 -->
<g id="edge26" class="edge"><title>Node2&#45;&gt;Node19</title>
<path fill="none" stroke="midnightblue" d="M543.924,-293.616C546.92,-293.056 549.903,-292.511 552.788,-292 653.373,-274.19 689.458,-303.698 779.788,-256 803.814,-243.313 824.023,-218.673 835.774,-202.026"/>
<polygon fill="midnightblue" stroke="midnightblue" points="838.686,-203.967 841.402,-193.726 832.893,-200.038 838.686,-203.967"/>
</g>
<!-- Node20 -->
<g id="node20" class="node"><title>Node20</title>
<g id="a_node20"><a xlink:href="tbb__tools_8h.html" target="_top" xlink:title="tbb_tools.h">
<polygon fill="white" stroke="red" points="883.288,-112.5 883.288,-131.5 946.288,-131.5 946.288,-112.5 883.288,-112.5"/>
<text text-anchor="middle" x="914.788" y="-119.5" font-family="FreeSans" font-size="10.00">tbb_tools.h</text>
</a>
</g>
</g>
<!-- Node2&#45;&gt;Node20 -->
<g id="edge57" class="edge"><title>Node2&#45;&gt;Node20</title>
<path fill="none" stroke="midnightblue" d="M543.892,-293.423C546.896,-292.907 549.889,-292.424 552.788,-292 593.549,-286.038 894.109,-286.51 921.788,-256 950.442,-224.415 934.174,-169.306 922.84,-140.964"/>
<polygon fill="midnightblue" stroke="midnightblue" points="925.963,-139.362 918.842,-131.517 919.517,-142.09 925.963,-139.362"/>
</g>
<!-- Node21 -->
<g id="node21" class="node"><title>Node21</title>
<g id="a_node21"><a xlink:href="integrator_8h.html" target="_top" xlink:title="integrator.h">
<polygon fill="white" stroke="black" points="148.288,-174.5 148.288,-193.5 213.288,-193.5 213.288,-174.5 148.288,-174.5"/>
<text text-anchor="middle" x="180.788" y="-181.5" font-family="FreeSans" font-size="10.00">integrator.h</text>
</a>
</g>
</g>
<!-- Node2&#45;&gt;Node21 -->
<g id="edge27" class="edge"><title>Node2&#45;&gt;Node21</title>
<path fill="none" stroke="midnightblue" d="M472.196,-292.452C439.928,-284.172 390.62,-270.734 348.788,-256 298.445,-238.268 241.562,-213.105 208.577,-197.984"/>
<polygon fill="midnightblue" stroke="midnightblue" points="209.688,-194.643 199.141,-193.634 206.757,-200.999 209.688,-194.643"/>
</g>
<!-- Node22 -->
<g id="node22" class="node"><title>Node22</title>
<g id="a_node22"><a xlink:href="sourceSystem_8h.html" target="_top" xlink:title="sourceSystem.h">
<polygon fill="white" stroke="black" points="585.288,-236.5 585.288,-255.5 670.288,-255.5 670.288,-236.5 585.288,-236.5"/>
<text text-anchor="middle" x="627.788" y="-243.5" font-family="FreeSans" font-size="10.00">sourceSystem.h</text>
</a>
</g>
</g>
<!-- Node2&#45;&gt;Node22 -->
<g id="edge29" class="edge"><title>Node2&#45;&gt;Node22</title>
<path fill="none" stroke="midnightblue" d="M525.961,-292.444C545.697,-283.636 576.673,-269.812 599.281,-259.722"/>
<polygon fill="midnightblue" stroke="midnightblue" points="600.999,-262.788 608.705,-255.516 598.146,-256.396 600.999,-262.788"/>
</g>
<!-- Node25 -->
<g id="node25" class="node"><title>Node25</title>
<g id="a_node25"><a xlink:href="quasi2d_8h.html" target="_top" xlink:title="quasi2d.h">
<polygon fill="white" stroke="red" points="348.288,-174.5 348.288,-193.5 405.288,-193.5 405.288,-174.5 348.288,-174.5"/>
<text text-anchor="middle" x="376.788" y="-181.5" font-family="FreeSans" font-size="10.00">quasi2d.h</text>
</a>
</g>
</g>
<!-- Node2&#45;&gt;Node25 -->
<g id="edge51" class="edge"><title>Node2&#45;&gt;Node25</title>
<path fill="none" stroke="midnightblue" d="M469.591,-293.083C447.24,-286.568 419.743,-275.188 401.788,-256 388.28,-241.565 382.006,-219.396 379.134,-203.675"/>
<polygon fill="midnightblue" stroke="midnightblue" points="382.561,-202.926 377.589,-193.57 375.641,-203.984 382.561,-202.926"/>
</g>
<!-- Node26 -->
<g id="node26" class="node"><title>Node26</title>
<polygon fill="white" stroke="#bfbfbf" points="499.788,-174.5 499.788,-193.5 605.788,-193.5 605.788,-174.5 499.788,-174.5"/>
<text text-anchor="middle" x="552.788" y="-181.5" font-family="FreeSans" font-size="10.00">boost/shared_ptr.hpp</text>
</g>
<!-- Node2&#45;&gt;Node26 -->
<g id="edge56" class="edge"><title>Node2&#45;&gt;Node26</title>
<path fill="none" stroke="midnightblue" d="M510.245,-292.281C517.741,-273.379 535.619,-228.295 545.65,-203"/>
<polygon fill="midnightblue" stroke="midnightblue" points="548.982,-204.091 549.415,-193.505 542.475,-201.51 548.982,-204.091"/>
</g>
<!-- Node27 -->
<g id="node27" class="node"><title>Node27</title>
<g id="a_node27"><a xlink:href="diffusionSystem_8h.html" target="_top" xlink:title="diffusionSystem.h">
<polygon fill="white" stroke="black" points="126.288,-236.5 126.288,-255.5 217.288,-255.5 217.288,-236.5 126.288,-236.5"/>
<text text-anchor="middle" x="171.788" y="-243.5" font-family="FreeSans" font-size="10.00">diffusionSystem.h</text>
</a>
</g>
</g>
<!-- Node2&#45;&gt;Node27 -->
<g id="edge39" class="edge"><title>Node2&#45;&gt;Node27</title>
<path fill="none" stroke="midnightblue" d="M469.657,-295.015C410.919,-285.547 296.205,-267.055 227.546,-255.988"/>
<polygon fill="midnightblue" stroke="midnightblue" points="227.78,-252.48 217.35,-254.344 226.666,-259.391 227.78,-252.48"/>
</g>
<!-- Node28 -->
<g id="node28" class="node"><title>Node28</title>
<g id="a_node28"><a xlink:href="convectionSystem_8h.html" target="_top" xlink:title="convectionSystem.h">
<polygon fill="white" stroke="black" points="411.288,-236.5 411.288,-255.5 514.288,-255.5 514.288,-236.5 411.288,-236.5"/>
<text text-anchor="middle" x="462.788" y="-243.5" font-family="FreeSans" font-size="10.00">convectionSystem.h</text>
</a>
</g>
</g>
<!-- Node2&#45;&gt;Node28 -->
<g id="edge43" class="edge"><title>Node2&#45;&gt;Node28</title>
<path fill="none" stroke="midnightblue" d="M499.522,-292.083C493.243,-284.377 484,-273.033 476.357,-263.653"/>
<polygon fill="midnightblue" stroke="midnightblue" points="478.948,-261.293 469.918,-255.751 473.522,-265.714 478.948,-261.293"/>
</g>
<!-- Node29 -->
<g id="node29" class="node"><title>Node29</title>
<polygon fill="white" stroke="#bfbfbf" points="231.288,-169 231.288,-199 330.288,-199 330.288,-169 231.288,-169"/>
<text text-anchor="start" x="239.288" y="-187" font-family="FreeSans" font-size="10.00">boost/ptr_container</text>
<text text-anchor="middle" x="280.788" y="-176" font-family="FreeSans" font-size="10.00">/ptr_vector.hpp</text>
</g>
<!-- Node2&#45;&gt;Node29 -->
<g id="edge55" class="edge"><title>Node2&#45;&gt;Node29</title>
<path fill="none" stroke="midnightblue" d="M478.102,-292.473C453.056,-284.531 416.079,-271.59 385.788,-256 357.539,-241.461 327.757,-220.739 307.156,-205.432"/>
<polygon fill="midnightblue" stroke="midnightblue" points="309.016,-202.452 298.92,-199.238 304.808,-208.046 309.016,-202.452"/>
</g>
<!-- Node30 -->
<g id="node30" class="node"><title>Node30</title>
<g id="a_node30"><a xlink:href="callback_8h.html" target="_top" xlink:title="callback.h">
<polygon fill="white" stroke="black" points="973.788,-236.5 973.788,-255.5 1033.79,-255.5 1033.79,-236.5 973.788,-236.5"/>
<text text-anchor="middle" x="1003.79" y="-243.5" font-family="FreeSans" font-size="10.00">callback.h</text>
</a>
</g>
</g>
<!-- Node2&#45;&gt;Node30 -->
<g id="edge52" class="edge"><title>Node2&#45;&gt;Node30</title>
<path fill="none" stroke="midnightblue" d="M543.888,-293.394C546.893,-292.884 549.887,-292.411 552.788,-292 732.588,-266.531 780.098,-282.238 959.788,-256 961.046,-255.816 962.323,-255.619 963.611,-255.412"/>
<polygon fill="midnightblue" stroke="midnightblue" points="964.333,-258.838 973.571,-253.651 963.114,-251.945 964.333,-258.838"/>
</g>
<!-- Node4 -->
<g id="node4" class="node"><title>Node4</title>
<g id="a_node4"><a xlink:href="mathUtils_8h.html" target="_top" xlink:title="mathUtils.h">
<polygon fill="white" stroke="red" points="378.288,-56.5 378.288,-75.5 443.288,-75.5 443.288,-56.5 378.288,-56.5"/>
<text text-anchor="middle" x="410.788" y="-63.5" font-family="FreeSans" font-size="10.00">mathUtils.h</text>
</a>
</g>
</g>
<!-- Node3&#45;&gt;Node4 -->
<g id="edge3" class="edge"><title>Node3&#45;&gt;Node4</title>
<path fill="none" stroke="midnightblue" d="M99.8282,-114.427C104.517,-113.587 109.267,-112.758 113.788,-112 204.092,-96.8694 310.227,-81.3265 368.003,-73.0537"/>
<polygon fill="midnightblue" stroke="midnightblue" points="368.809,-76.4742 378.213,-71.5954 367.819,-69.5446 368.809,-76.4742"/>
</g>
<!-- Node6 -->
<g id="node6" class="node"><title>Node6</title>
<polygon fill="white" stroke="#bfbfbf" points="283.788,-0.5 283.788,-19.5 323.788,-19.5 323.788,-0.5 283.788,-0.5"/>
<text text-anchor="middle" x="303.788" y="-7.5" font-family="FreeSans" font-size="10.00">string</text>
</g>
<!-- Node3&#45;&gt;Node6 -->
<g id="edge6" class="edge"><title>Node3&#45;&gt;Node6</title>
<path fill="none" stroke="midnightblue" d="M83.5418,-112.368C125.427,-93.0908 226.757,-46.4536 276,-23.7894"/>
<polygon fill="midnightblue" stroke="midnightblue" points="277.5,-26.9518 285.121,-19.5914 274.574,-20.593 277.5,-26.9518"/>
</g>
<!-- Node4&#45;&gt;Node5 -->
<g id="edge4" class="edge"><title>Node4&#45;&gt;Node5</title>
<path fill="none" stroke="midnightblue" d="M443.458,-59.2722C501.413,-49.1111 621.804,-28.0037 682.351,-17.3883"/>
<polygon fill="midnightblue" stroke="midnightblue" points="682.989,-20.8299 692.234,-15.6555 681.78,-13.9351 682.989,-20.8299"/>
</g>
<!-- Node4&#45;&gt;Node6 -->
<g id="edge5" class="edge"><title>Node4&#45;&gt;Node6</title>
<path fill="none" stroke="midnightblue" d="M393.596,-56.324C376.437,-47.6641 349.842,-34.2424 330.041,-24.249"/>
<polygon fill="midnightblue" stroke="midnightblue" points="331.441,-21.0354 320.937,-19.6545 328.287,-27.2847 331.441,-21.0354"/>
</g>
<!-- Node7&#45;&gt;Node4 -->
<g id="edge17" class="edge"><title>Node7&#45;&gt;Node4</title>
<path fill="none" stroke="midnightblue" d="M1191.66,-118.486C1055.95,-109.538 596.938,-79.2736 453.79,-69.8353"/>
<polygon fill="midnightblue" stroke="midnightblue" points="453.855,-66.3321 443.647,-69.1665 453.395,-73.3169 453.855,-66.3321"/>
</g>
<!-- Node8 -->
<g id="node8" class="node"><title>Node8</title>
<polygon fill="white" stroke="#bfbfbf" points="1867.29,-56.5 1867.29,-75.5 1980.29,-75.5 1980.29,-56.5 1867.29,-56.5"/>
<text text-anchor="middle" x="1923.79" y="-63.5" font-family="FreeSans" font-size="10.00">cantera/IdealGasMix.h</text>
</g>
<!-- Node7&#45;&gt;Node8 -->
<g id="edge8" class="edge"><title>Node7&#45;&gt;Node8</title>
<path fill="none" stroke="midnightblue" d="M1268.09,-119.111C1364.84,-114.157 1627.07,-99.5929 1856.71,-76.0441"/>
<polygon fill="midnightblue" stroke="midnightblue" points="1857.35,-79.4975 1866.93,-74.9879 1856.63,-72.5346 1857.35,-79.4975"/>
</g>
<!-- Node9 -->
<g id="node9" class="node"><title>Node9</title>
<polygon fill="white" stroke="#bfbfbf" points="950.788,-56.5 950.788,-75.5 1056.79,-75.5 1056.79,-56.5 950.788,-56.5"/>
<text text-anchor="middle" x="1003.79" y="-63.5" font-family="FreeSans" font-size="10.00">cantera/equilibrium.h</text>
</g>
<!-- Node7&#45;&gt;Node9 -->
<g id="edge9" class="edge"><title>Node7&#45;&gt;Node9</title>
<path fill="none" stroke="midnightblue" d="M1193.98,-112.444C1154.8,-103.083 1091.91,-88.0561 1049.27,-77.868"/>
<polygon fill="midnightblue" stroke="midnightblue" points="1049.97,-74.4363 1039.43,-75.5164 1048.34,-81.2446 1049.97,-74.4363"/>
</g>
<!-- Node10 -->
<g id="node10" class="node"><title>Node10</title>
<polygon fill="white" stroke="#bfbfbf" points="1074.29,-56.5 1074.29,-75.5 1163.29,-75.5 1163.29,-56.5 1074.29,-56.5"/>
<text text-anchor="middle" x="1118.79" y="-63.5" font-family="FreeSans" font-size="10.00">cantera/thermo.h</text>
</g>
<!-- Node7&#45;&gt;Node10 -->
<g id="edge10" class="edge"><title>Node7&#45;&gt;Node10</title>
<path fill="none" stroke="midnightblue" d="M1211.95,-112.324C1194.07,-103.625 1166.31,-90.1202 1145.74,-80.113"/>
<polygon fill="midnightblue" stroke="midnightblue" points="1147.1,-76.8819 1136.58,-75.6545 1144.04,-83.1765 1147.1,-76.8819"/>
</g>
<!-- Node11 -->
<g id="node11" class="node"><title>Node11</title>
<polygon fill="white" stroke="#bfbfbf" points="1181.29,-56.5 1181.29,-75.5 1278.29,-75.5 1278.29,-56.5 1181.29,-56.5"/>
<text text-anchor="middle" x="1229.79" y="-63.5" font-family="FreeSans" font-size="10.00">cantera/transport.h</text>
</g>
<!-- Node7&#45;&gt;Node11 -->
<g id="edge11" class="edge"><title>Node7&#45;&gt;Node11</title>
<path fill="none" stroke="midnightblue" d="M1229.79,-112.083C1229.79,-105.006 1229.79,-94.8611 1229.79,-85.9865"/>
<polygon fill="midnightblue" stroke="midnightblue" points="1233.29,-85.751 1229.79,-75.7511 1226.29,-85.7511 1233.29,-85.751"/>
</g>
<!-- Node12 -->
<g id="node12" class="node"><title>Node12</title>
<polygon fill="white" stroke="#bfbfbf" points="1296.79,-56.5 1296.79,-75.5 1388.79,-75.5 1388.79,-56.5 1296.79,-56.5"/>
<text text-anchor="middle" x="1342.79" y="-63.5" font-family="FreeSans" font-size="10.00">cantera/kinetics.h</text>
</g>
<!-- Node7&#45;&gt;Node12 -->
<g id="edge12" class="edge"><title>Node7&#45;&gt;Node12</title>
<path fill="none" stroke="midnightblue" d="M1247.69,-112.444C1266.04,-103.675 1294.79,-89.9355 1315.88,-79.8579"/>
<polygon fill="midnightblue" stroke="midnightblue" points="1317.45,-82.9862 1324.97,-75.5164 1314.43,-76.6703 1317.45,-82.9862"/>
</g>
<!-- Node13 -->
<g id="node13" class="node"><title>Node13</title>
<polygon fill="white" stroke="#bfbfbf" points="1406.79,-56.5 1406.79,-75.5 1564.79,-75.5 1564.79,-56.5 1406.79,-56.5"/>
<text text-anchor="middle" x="1485.79" y="-63.5" font-family="FreeSans" font-size="10.00">cantera/thermo/IdealGasPhase.h</text>
</g>
<!-- Node7&#45;&gt;Node13 -->
<g id="edge13" class="edge"><title>Node7&#45;&gt;Node13</title>
<path fill="none" stroke="midnightblue" d="M1267.84,-112.974C1312.4,-103.574 1386.38,-87.9683 1435.61,-77.5843"/>
<polygon fill="midnightblue" stroke="midnightblue" points="1436.35,-81.0049 1445.41,-75.5162 1434.91,-74.1556 1436.35,-81.0049"/>
</g>
<!-- Node14 -->
<g id="node14" class="node"><title>Node14</title>
<polygon fill="white" stroke="#bfbfbf" points="1583.29,-56.5 1583.29,-75.5 1730.29,-75.5 1730.29,-56.5 1583.29,-56.5"/>
<text text-anchor="middle" x="1656.79" y="-63.5" font-family="FreeSans" font-size="10.00">cantera/kinetics/GasKinetics.h</text>
</g>
<!-- Node7&#45;&gt;Node14 -->
<g id="edge14" class="edge"><title>Node7&#45;&gt;Node14</title>
<path fill="none" stroke="midnightblue" d="M1268.06,-116.16C1337.9,-107.327 1487.3,-88.4342 1579.2,-76.8126"/>
<polygon fill="midnightblue" stroke="midnightblue" points="1579.8,-80.2642 1589.28,-75.5371 1578.92,-73.3195 1579.8,-80.2642"/>
</g>
<!-- Node15 -->
<g id="node15" class="node"><title>Node15</title>
<polygon fill="white" stroke="#bfbfbf" points="1748.29,-56.5 1748.29,-75.5 1849.29,-75.5 1849.29,-56.5 1748.29,-56.5"/>
<text text-anchor="middle" x="1798.79" y="-63.5" font-family="FreeSans" font-size="10.00">cantera/base/ctml.h</text>
</g>
<!-- Node7&#45;&gt;Node15 -->
<g id="edge15" class="edge"><title>Node7&#45;&gt;Node15</title>
<path fill="none" stroke="midnightblue" d="M1267.86,-118.428C1351.09,-112.634 1555.7,-97.4646 1738.04,-76.0177"/>
<polygon fill="midnightblue" stroke="midnightblue" points="1738.56,-79.4804 1748.08,-74.8276 1737.74,-72.5291 1738.56,-79.4804"/>
</g>
<!-- Node16 -->
<g id="node16" class="node"><title>Node16</title>
<g id="a_node16"><a xlink:href="config_8h.html" target="_top" xlink:title="config.h">
<polygon fill="white" stroke="black" points="882.788,-56.5 882.788,-75.5 932.788,-75.5 932.788,-56.5 882.788,-56.5"/>
<text text-anchor="middle" x="907.788" y="-63.5" font-family="FreeSans" font-size="10.00">config.h</text>
</a>
</g>
</g>
<!-- Node7&#45;&gt;Node16 -->
<g id="edge16" class="edge"><title>Node7&#45;&gt;Node16</title>
<path fill="none" stroke="midnightblue" d="M1191.36,-116.286C1137.82,-109.437 1037.59,-95.5958 942.99,-76.0713"/>
<polygon fill="midnightblue" stroke="midnightblue" points="943.474,-72.5969 932.969,-73.9771 942.042,-79.4489 943.474,-72.5969"/>
</g>
<!-- Node17&#45;&gt;Node3 -->
<g id="edge19" class="edge"><title>Node17&#45;&gt;Node3</title>
<path fill="none" stroke="midnightblue" d="M70.7849,-174.403C69.7973,-165.938 68.2561,-152.728 66.9835,-141.82"/>
<polygon fill="midnightblue" stroke="midnightblue" points="70.4242,-141.108 65.7889,-131.581 63.4714,-141.919 70.4242,-141.108"/>
</g>
<!-- Node18&#45;&gt;Node3 -->
<g id="edge25" class="edge"><title>Node18&#45;&gt;Node3</title>
<path fill="none" stroke="midnightblue" d="M726.801,-236.348C706.892,-219.679 660.173,-183.4 613.788,-168 520.714,-137.099 224.394,-126.828 110.234,-123.965"/>
<polygon fill="midnightblue" stroke="midnightblue" points="110.169,-120.462 100.086,-123.718 109.998,-127.46 110.169,-120.462"/>
</g>
<!-- Node18&#45;&gt;Node4 -->
<g id="edge21" class="edge"><title>Node18&#45;&gt;Node4</title>
<path fill="none" stroke="midnightblue" d="M743.123,-236.281C759.208,-213.009 798.131,-148.702 765.788,-112 745.416,-88.8823 543.409,-74.5694 453.529,-69.2985"/>
<polygon fill="midnightblue" stroke="midnightblue" points="453.583,-65.796 443.399,-68.715 453.181,-72.7844 453.583,-65.796"/>
</g>
<!-- Node18&#45;&gt;Node19 -->
<g id="edge22" class="edge"><title>Node18&#45;&gt;Node19</title>
<path fill="none" stroke="midnightblue" d="M752.548,-236.403C770.764,-226.468 800.961,-209.997 822.256,-198.381"/>
<polygon fill="midnightblue" stroke="midnightblue" points="823.954,-201.442 831.057,-193.581 820.602,-195.297 823.954,-201.442"/>
</g>
<!-- Node19&#45;&gt;Node20 -->
<g id="edge23" class="edge"><title>Node19&#45;&gt;Node20</title>
<path fill="none" stroke="midnightblue" d="M856.531,-174.403C867.135,-165.047 884.307,-149.895 897.267,-138.46"/>
<polygon fill="midnightblue" stroke="midnightblue" points="899.88,-140.821 905.063,-131.581 895.249,-135.572 899.88,-140.821"/>
</g>
<!-- Node20&#45;&gt;Node16 -->
<g id="edge24" class="edge"><title>Node20&#45;&gt;Node16</title>
<path fill="none" stroke="midnightblue" d="M913.632,-112.083C912.704,-104.927 911.37,-94.6353 910.211,-85.6911"/>
<polygon fill="midnightblue" stroke="midnightblue" points="913.679,-85.2181 908.922,-75.7511 906.737,-86.1181 913.679,-85.2181"/>
</g>
<!-- Node21&#45;&gt;Node4 -->
<g id="edge28" class="edge"><title>Node21&#45;&gt;Node4</title>
<path fill="none" stroke="midnightblue" d="M197.7,-174.47C237.493,-154.401 337.259,-104.084 384.804,-80.1048"/>
<polygon fill="midnightblue" stroke="midnightblue" points="386.498,-83.1705 393.851,-75.5423 383.346,-76.9204 386.498,-83.1705"/>
</g>
<!-- Node22&#45;&gt;Node4 -->
<g id="edge30" class="edge"><title>Node22&#45;&gt;Node4</title>
<path fill="none" stroke="midnightblue" d="M628.569,-236.4C629.497,-221.056 629.298,-188.637 613.788,-168 591.848,-138.807 495.076,-98.8756 443.469,-79.1067"/>
<polygon fill="midnightblue" stroke="midnightblue" points="444.677,-75.8216 434.086,-75.5439 442.192,-82.3658 444.677,-75.8216"/>
</g>
<!-- Node23 -->
<g id="node23" class="node"><title>Node23</title>
<g id="a_node23"><a xlink:href="sundialsUtils_8h.html" target="_top" xlink:title="sundialsUtils.h">
<polygon fill="white" stroke="red" points="680.288,-112.5 680.288,-131.5 757.288,-131.5 757.288,-112.5 680.288,-112.5"/>
<text text-anchor="middle" x="718.788" y="-119.5" font-family="FreeSans" font-size="10.00">sundialsUtils.h</text>
</a>
</g>
</g>
<!-- Node22&#45;&gt;Node23 -->
<g id="edge31" class="edge"><title>Node22&#45;&gt;Node23</title>
<path fill="none" stroke="midnightblue" d="M634.83,-236.483C642.192,-227.514 654.011,-212.927 663.788,-200 679.051,-179.817 695.858,-156.046 706.826,-140.311"/>
<polygon fill="midnightblue" stroke="midnightblue" points="710.007,-141.867 712.834,-131.656 704.256,-137.875 710.007,-141.867"/>
</g>
<!-- Node24 -->
<g id="node24" class="node"><title>Node24</title>
<g id="a_node24"><a xlink:href="qssintegrator_8h.html" target="_top" xlink:title="qssintegrator.h">
<polygon fill="white" stroke="black" points="583.288,-112.5 583.288,-131.5 662.288,-131.5 662.288,-112.5 583.288,-112.5"/>
<text text-anchor="middle" x="622.788" y="-119.5" font-family="FreeSans" font-size="10.00">qssintegrator.h</text>
</a>
</g>
</g>
<!-- Node22&#45;&gt;Node24 -->
<g id="edge34" class="edge"><title>Node22&#45;&gt;Node24</title>
<path fill="none" stroke="midnightblue" d="M632.918,-236.407C637.846,-227.614 644.948,-213.381 647.788,-200 650.74,-186.088 651.355,-181.768 647.788,-168 645.242,-158.175 640.035,-148.212 635.029,-140.166"/>
<polygon fill="midnightblue" stroke="midnightblue" points="637.868,-138.114 629.417,-131.725 632.039,-141.99 637.868,-138.114"/>
</g>
<!-- Node22&#45;&gt;Node25 -->
<g id="edge36" class="edge"><title>Node22&#45;&gt;Node25</title>
<path fill="none" stroke="midnightblue" d="M592.092,-236.467C545.214,-225.261 463.229,-205.663 415.09,-194.156"/>
<polygon fill="midnightblue" stroke="midnightblue" points="415.896,-190.75 405.356,-191.829 414.268,-197.558 415.896,-190.75"/>
</g>
<!-- Node22&#45;&gt;Node26 -->
<g id="edge38" class="edge"><title>Node22&#45;&gt;Node26</title>
<path fill="none" stroke="midnightblue" d="M617.042,-236.403C605.235,-226.958 586.045,-211.606 571.706,-200.134"/>
<polygon fill="midnightblue" stroke="midnightblue" points="573.509,-197.095 563.514,-193.581 569.136,-202.561 573.509,-197.095"/>
</g>
<!-- Node23&#45;&gt;Node5 -->
<g id="edge32" class="edge"><title>Node23&#45;&gt;Node5</title>
<path fill="none" stroke="midnightblue" d="M718.788,-112.368C718.788,-94.617 718.788,-53.6664 718.788,-29.5974"/>
<polygon fill="midnightblue" stroke="midnightblue" points="722.288,-29.5914 718.788,-19.5914 715.288,-29.5915 722.288,-29.5914"/>
</g>
<!-- Node23&#45;&gt;Node16 -->
<g id="edge33" class="edge"><title>Node23&#45;&gt;Node16</title>
<path fill="none" stroke="midnightblue" d="M748.735,-112.444C782.367,-102.835 836.893,-87.2558 872.548,-77.0686"/>
<polygon fill="midnightblue" stroke="midnightblue" points="873.863,-80.3329 882.517,-74.2203 871.94,-73.6023 873.863,-80.3329"/>
</g>
<!-- Node24&#45;&gt;Node4 -->
<g id="edge35" class="edge"><title>Node24&#45;&gt;Node4</title>
<path fill="none" stroke="midnightblue" d="M589.196,-112.444C552.385,-103.067 493.259,-88.0068 453.258,-77.818"/>
<polygon fill="midnightblue" stroke="midnightblue" points="454.081,-74.4157 443.526,-75.339 452.353,-81.1991 454.081,-74.4157"/>
</g>
<!-- Node25&#45;&gt;Node4 -->
<g id="edge37" class="edge"><title>Node25&#45;&gt;Node4</title>
<path fill="none" stroke="midnightblue" d="M379.343,-174.281C384.859,-155.463 397.98,-110.697 405.412,-85.3399"/>
<polygon fill="midnightblue" stroke="midnightblue" points="408.841,-86.0855 408.295,-75.5048 402.124,-84.1166 408.841,-86.0855"/>
</g>
<!-- Node27&#45;&gt;Node4 -->
<g id="edge40" class="edge"><title>Node27&#45;&gt;Node4</title>
<path fill="none" stroke="midnightblue" d="M162.795,-236.38C148.441,-221.555 123.459,-190.642 138.788,-168 190.016,-92.334 305.218,-73.1883 368.009,-68.4553"/>
<polygon fill="midnightblue" stroke="midnightblue" points="368.242,-71.9476 377.988,-67.7916 367.777,-64.9631 368.242,-71.9476"/>
</g>
<!-- Node27&#45;&gt;Node17 -->
<g id="edge41" class="edge"><title>Node27&#45;&gt;Node17</title>
<path fill="none" stroke="midnightblue" d="M157.46,-236.403C141.124,-226.601 114.185,-210.439 94.8755,-198.853"/>
<polygon fill="midnightblue" stroke="midnightblue" points="96.4645,-195.724 86.0888,-193.581 92.863,-201.727 96.4645,-195.724"/>
</g>
<!-- Node27&#45;&gt;Node21 -->
<g id="edge42" class="edge"><title>Node27&#45;&gt;Node21</title>
<path fill="none" stroke="midnightblue" d="M173.077,-236.403C174.36,-227.849 176.37,-214.45 178.016,-203.476"/>
<polygon fill="midnightblue" stroke="midnightblue" points="181.479,-203.989 179.501,-193.581 174.556,-202.951 181.479,-203.989"/>
</g>
<!-- Node28&#45;&gt;Node4 -->
<g id="edge44" class="edge"><title>Node28&#45;&gt;Node4</title>
<path fill="none" stroke="midnightblue" d="M460.28,-236.415C452.303,-209.11 427.39,-123.832 416.258,-85.7237"/>
<polygon fill="midnightblue" stroke="midnightblue" points="419.557,-84.5358 413.393,-75.9185 412.838,-86.4987 419.557,-84.5358"/>
</g>
<!-- Node28&#45;&gt;Node17 -->
<g id="edge46" class="edge"><title>Node28&#45;&gt;Node17</title>
<path fill="none" stroke="midnightblue" d="M411.235,-239.167C347.136,-231.61 234.485,-217.328 138.788,-200 126.665,-197.805 113.409,-194.937 101.912,-192.298"/>
<polygon fill="midnightblue" stroke="midnightblue" points="102.464,-188.833 91.9301,-189.964 100.871,-195.649 102.464,-188.833"/>
</g>
<!-- Node28&#45;&gt;Node19 -->
<g id="edge47" class="edge"><title>Node28&#45;&gt;Node19</title>
<path fill="none" stroke="midnightblue" d="M514.576,-236.908C591.161,-224.942 733.189,-202.75 804.139,-191.664"/>
<polygon fill="midnightblue" stroke="midnightblue" points="804.736,-195.113 814.075,-190.111 803.655,-188.197 804.736,-195.113"/>
</g>
<!-- Node28&#45;&gt;Node23 -->
<g id="edge45" class="edge"><title>Node28&#45;&gt;Node23</title>
<path fill="none" stroke="midnightblue" d="M463.274,-236.301C464.668,-220.197 470.049,-185.77 490.788,-168 492.507,-166.527 603.951,-144.988 670.374,-132.252"/>
<polygon fill="midnightblue" stroke="midnightblue" points="671.064,-135.684 680.226,-130.364 669.746,-128.809 671.064,-135.684"/>
</g>
<!-- Node28&#45;&gt;Node25 -->
<g id="edge48" class="edge"><title>Node28&#45;&gt;Node25</title>
<path fill="none" stroke="midnightblue" d="M450.466,-236.403C436.672,-226.78 414.089,-211.024 397.555,-199.489"/>
<polygon fill="midnightblue" stroke="midnightblue" points="399.291,-196.432 389.087,-193.581 395.285,-202.173 399.291,-196.432"/>
</g>
<!-- Node28&#45;&gt;Node26 -->
<g id="edge49" class="edge"><title>Node28&#45;&gt;Node26</title>
<path fill="none" stroke="midnightblue" d="M475.683,-236.403C490.252,-226.691 514.19,-210.732 531.533,-199.17"/>
<polygon fill="midnightblue" stroke="midnightblue" points="533.538,-202.04 539.917,-193.581 529.655,-196.215 533.538,-202.04"/>
</g>
<!-- Node28&#45;&gt;Node29 -->
<g id="edge50" class="edge"><title>Node28&#45;&gt;Node29</title>
<path fill="none" stroke="midnightblue" d="M436.712,-236.403C409.784,-227.526 367.032,-213.432 333.099,-202.245"/>
<polygon fill="midnightblue" stroke="midnightblue" points="333.924,-198.832 323.331,-199.025 331.733,-205.48 333.924,-198.832"/>
</g>
<!-- Node31 -->
<g id="node31" class="node"><title>Node31</title>
<polygon fill="white" stroke="#bfbfbf" points="974.788,-174.5 974.788,-193.5 1032.79,-193.5 1032.79,-174.5 974.788,-174.5"/>
<text text-anchor="middle" x="1003.79" y="-181.5" font-family="FreeSans" font-size="10.00">stdexcept</text>
</g>
<!-- Node30&#45;&gt;Node31 -->
<g id="edge53" class="edge"><title>Node30&#45;&gt;Node31</title>
<path fill="none" stroke="midnightblue" d="M1003.79,-236.403C1003.79,-227.938 1003.79,-214.728 1003.79,-203.82"/>
<polygon fill="midnightblue" stroke="midnightblue" points="1007.29,-203.581 1003.79,-193.581 1000.29,-203.581 1007.29,-203.581"/>
</g>
<!-- Node32&#45;&gt;Node4 -->
<g id="edge59" class="edge"><title>Node32&#45;&gt;Node4</title>
<path fill="none" stroke="midnightblue" d="M176.125,-298.974C140.828,-295.148 91.8943,-284.596 59.7878,-256 10.2738,-211.9 -23.3285,-161.499 20.7878,-112 43.5989,-86.4055 271.472,-73.2454 367.972,-68.7845"/>
<polygon fill="midnightblue" stroke="midnightblue" points="368.422,-72.2678 378.253,-68.3193 368.105,-65.275 368.422,-72.2678"/>
</g>
</g>
</svg>
