<?xml version="1.0" encoding="UTF-8" standalone="no"?>
<!DOCTYPE svg PUBLIC "-//W3C//DTD SVG 1.1//EN"
 "http://www.w3.org/Graphics/SVG/1.1/DTD/svg11.dtd">
<!-- Generated by graphviz version 2.28.0 (20120425.2022)
 -->
<!-- Title: G Pages: 1 -->
<svg width="3091pt" height="344pt"
 viewBox="0.00 0.00 3090.99 344.00" xmlns="http://www.w3.org/2000/svg" xmlns:xlink="http://www.w3.org/1999/xlink">
<g id="graph1" class="graph" transform="scale(1 1) rotate(0) translate(4 340)">
<title>G</title>
<polygon fill="white" stroke="white" points="-4,5 -4,-340 3087.99,-340 3087.99,5 -4,5"/>
<!-- Node1 -->
<g id="node1" class="node"><title>Node1</title>
<polygon fill="#bfbfbf" stroke="black" points="1653.74,-316.5 1653.74,-335.5 1748.74,-335.5 1748.74,-316.5 1653.74,-316.5"/>
<text text-anchor="middle" x="1701.24" y="-323.5" font-family="FreeSans" font-size="10.00">src/flameSolver.h</text>
</g>
<!-- Node2 -->
<g id="node3" class="node"><title>Node2</title>
<a xlink:href="readConfig_8h.html" target="_top" xlink:title="readConfig.h">
<polygon fill="white" stroke="black" points="21.2375,-118.5 21.2375,-137.5 95.2375,-137.5 95.2375,-118.5 21.2375,-118.5"/>
<text text-anchor="middle" x="58.2375" y="-125.5" font-family="FreeSans" font-size="10.00">readConfig.h</text>
</a>
</g>
<!-- Node1&#45;&gt;Node2 -->
<g id="edge2" class="edge"><title>Node1&#45;&gt;Node2</title>
<path fill="none" stroke="midnightblue" d="M1653.69,-325.521C1514.65,-326.45 1096.95,-324.993 754.237,-280 501.573,-246.829 204.621,-169.196 98.4591,-140.193"/>
<polygon fill="midnightblue" stroke="midnightblue" points="99.3585,-136.811 88.7889,-137.541 97.5072,-143.562 99.3585,-136.811"/>
</g>
<!-- Node5 -->
<g id="node9" class="node"><title>Node5</title>
<polygon fill="white" stroke="#bfbfbf" points="2628.24,-0.5 2628.24,-19.5 2684.24,-19.5 2684.24,-0.5 2628.24,-0.5"/>
<text text-anchor="middle" x="2656.24" y="-7.5" font-family="FreeSans" font-size="10.00">iostream</text>
</g>
<!-- Node1&#45;&gt;Node5 -->
<g id="edge144" class="edge"><title>Node1&#45;&gt;Node5</title>
<path fill="none" stroke="midnightblue" d="M1748.93,-321.245C1833.8,-314.379 2016.58,-298.766 2170.24,-280 2269.97,-267.82 2998.89,-220.326 3064.24,-144 3167.71,-23.1399 2814.63,-11.3694 2694.7,-10.7888"/>
<polygon fill="midnightblue" stroke="midnightblue" points="2694.51,-7.2884 2684.5,-10.7641 2694.49,-14.2884 2694.51,-7.2884"/>
</g>
<!-- Node7 -->
<g id="node14" class="node"><title>Node7</title>
<a xlink:href="sundialsUtils_8h.html" target="_top" xlink:title="sundialsUtils.h">
<polygon fill="white" stroke="black" points="1713.24,-186.5 1713.24,-205.5 1793.24,-205.5 1793.24,-186.5 1713.24,-186.5"/>
<text text-anchor="middle" x="1753.24" y="-193.5" font-family="FreeSans" font-size="10.00">sundialsUtils.h</text>
</a>
</g>
<!-- Node1&#45;&gt;Node7 -->
<g id="edge14" class="edge"><title>Node1&#45;&gt;Node7</title>
<path fill="none" stroke="midnightblue" d="M1704.81,-316.202C1713.28,-295.367 1734.68,-242.681 1745.98,-214.852"/>
<polygon fill="midnightblue" stroke="midnightblue" points="1749.25,-216.104 1749.78,-205.522 1742.77,-213.47 1749.25,-216.104"/>
</g>
<!-- Node18 -->
<g id="node38" class="node"><title>Node18</title>
<a xlink:href="chemistry0d_8h.html" target="_top" xlink:title="chemistry0d.h">
<polygon fill="white" stroke="black" points="983.237,-186.5 983.237,-205.5 1061.24,-205.5 1061.24,-186.5 983.237,-186.5"/>
<text text-anchor="middle" x="1022.24" y="-193.5" font-family="FreeSans" font-size="10.00">chemistry0d.h</text>
</a>
</g>
<!-- Node1&#45;&gt;Node18 -->
<g id="edge40" class="edge"><title>Node1&#45;&gt;Node18</title>
<path fill="none" stroke="midnightblue" d="M1653.7,-319.408C1592.02,-311.875 1481.19,-297.385 1387.24,-280 1270.23,-258.35 1133.88,-225.21 1065.71,-208.091"/>
<polygon fill="midnightblue" stroke="midnightblue" points="1066.32,-204.634 1055.76,-205.585 1064.61,-211.422 1066.32,-204.634"/>
</g>
<!-- Node27 -->
<g id="node58" class="node"><title>Node27</title>
<a xlink:href="grid_8h.html" target="_top" xlink:title="grid.h">
<polygon fill="white" stroke="black" points="735.737,-186.5 735.737,-205.5 776.737,-205.5 776.737,-186.5 735.737,-186.5"/>
<text text-anchor="middle" x="756.237" y="-193.5" font-family="FreeSans" font-size="10.00">grid.h</text>
</a>
</g>
<!-- Node1&#45;&gt;Node27 -->
<g id="edge62" class="edge"><title>Node1&#45;&gt;Node27</title>
<path fill="none" stroke="midnightblue" d="M1653.46,-324.267C1468.66,-321.226 809.172,-308.418 775.237,-280 756.763,-264.529 754.112,-235.108 754.624,-215.775"/>
<polygon fill="midnightblue" stroke="midnightblue" points="758.121,-215.922 755.195,-205.739 751.133,-215.524 758.121,-215.922"/>
</g>
<!-- Node28 -->
<g id="node61" class="node"><title>Node28</title>
<a xlink:href="perfTimer_8h.html" target="_top" xlink:title="perfTimer.h">
<polygon fill="white" stroke="black" points="1811.24,-186.5 1811.24,-205.5 1879.24,-205.5 1879.24,-186.5 1811.24,-186.5"/>
<text text-anchor="middle" x="1845.24" y="-193.5" font-family="FreeSans" font-size="10.00">perfTimer.h</text>
</a>
</g>
<!-- Node1&#45;&gt;Node28 -->
<g id="edge66" class="edge"><title>Node1&#45;&gt;Node28</title>
<path fill="none" stroke="midnightblue" d="M1711.14,-316.202C1735.3,-294.725 1797.54,-239.401 1827.97,-212.351"/>
<polygon fill="midnightblue" stroke="midnightblue" points="1830.5,-214.782 1835.65,-205.522 1825.85,-209.55 1830.5,-214.782"/>
</g>
<!-- Node30 -->
<g id="node65" class="node"><title>Node30</title>
<polygon fill="white" stroke="#bfbfbf" points="2936.74,-113 2936.74,-143 3055.74,-143 3055.74,-113 2936.74,-113"/>
<text text-anchor="start" x="2944.74" y="-131" font-family="FreeSans" font-size="10.00">tbb/enumerable_thread</text>
<text text-anchor="middle" x="2996.24" y="-120" font-family="FreeSans" font-size="10.00">_specific.h</text>
</g>
<!-- Node1&#45;&gt;Node30 -->
<g id="edge154" class="edge"><title>Node1&#45;&gt;Node30</title>
<path fill="none" stroke="midnightblue" d="M1749,-319.069C1913.28,-298.428 2470.08,-226.486 2926.24,-144 2926.45,-143.961 2926.67,-143.922 2926.88,-143.883"/>
<polygon fill="midnightblue" stroke="midnightblue" points="2927.54,-147.321 2936.72,-142.027 2926.24,-140.443 2927.54,-147.321"/>
</g>
<!-- Node32 -->
<g id="node70" class="node"><title>Node32</title>
<a xlink:href="integrator_8h.html" target="_top" xlink:title="integrator.h">
<polygon fill="white" stroke="black" points="795.237,-186.5 795.237,-205.5 861.237,-205.5 861.237,-186.5 795.237,-186.5"/>
<text text-anchor="middle" x="828.237" y="-193.5" font-family="FreeSans" font-size="10.00">integrator.h</text>
</a>
</g>
<!-- Node1&#45;&gt;Node32 -->
<g id="edge76" class="edge"><title>Node1&#45;&gt;Node32</title>
<path fill="none" stroke="midnightblue" d="M1653.39,-325.079C1550.03,-324.462 1298.55,-318.715 1092.24,-280 1005.61,-263.744 907.568,-228.164 858.956,-209.303"/>
<polygon fill="midnightblue" stroke="midnightblue" points="859.942,-205.931 849.355,-205.545 857.391,-212.449 859.942,-205.931"/>
</g>
<!-- Node33 -->
<g id="node73" class="node"><title>Node33</title>
<a xlink:href="sourceSystem_8h.html" target="_top" xlink:title="sourceSystem.h">
<polygon fill="white" stroke="black" points="1396.74,-254.5 1396.74,-273.5 1485.74,-273.5 1485.74,-254.5 1396.74,-254.5"/>
<text text-anchor="middle" x="1441.24" y="-261.5" font-family="FreeSans" font-size="10.00">sourceSystem.h</text>
</a>
</g>
<!-- Node1&#45;&gt;Node33 -->
<g id="edge80" class="edge"><title>Node1&#45;&gt;Node33</title>
<path fill="none" stroke="midnightblue" d="M1662.29,-316.42C1622.14,-307.52 1557.74,-293.098 1502.24,-280 1496.8,-278.716 1491.09,-277.345 1485.44,-275.974"/>
<polygon fill="midnightblue" stroke="midnightblue" points="1485.95,-272.495 1475.41,-273.522 1484.29,-279.295 1485.95,-272.495"/>
</g>
<!-- Node34 -->
<g id="node78" class="node"><title>Node34</title>
<a xlink:href="strainFunction_8h.html" target="_top" xlink:title="strainFunction.h">
<polygon fill="white" stroke="black" points="879.737,-186.5 879.737,-205.5 964.737,-205.5 964.737,-186.5 879.737,-186.5"/>
<text text-anchor="middle" x="922.237" y="-193.5" font-family="FreeSans" font-size="10.00">strainFunction.h</text>
</a>
</g>
<!-- Node1&#45;&gt;Node34 -->
<g id="edge140" class="edge"><title>Node1&#45;&gt;Node34</title>
<path fill="none" stroke="midnightblue" d="M1653.73,-322.96C1568.79,-318.752 1385.52,-307.13 1233.24,-280 1131.77,-261.923 1015.09,-226.815 957.78,-208.597"/>
<polygon fill="midnightblue" stroke="midnightblue" points="958.706,-205.218 948.115,-205.505 956.573,-211.885 958.706,-205.218"/>
</g>
<!-- Node36 -->
<g id="node85" class="node"><title>Node36</title>
<a xlink:href="quasi2d_8h.html" target="_top" xlink:title="quasi2d.h">
<polygon fill="white" stroke="red" points="1411.24,-186.5 1411.24,-205.5 1471.24,-205.5 1471.24,-186.5 1411.24,-186.5"/>
<text text-anchor="middle" x="1441.24" y="-193.5" font-family="FreeSans" font-size="10.00">quasi2d.h</text>
</a>
</g>
<!-- Node1&#45;&gt;Node36 -->
<g id="edge142" class="edge"><title>Node1&#45;&gt;Node36</title>
<path fill="none" stroke="midnightblue" d="M1665.02,-316.499C1636.06,-308.97 1594.9,-296.596 1561.24,-280 1522.53,-260.914 1482.19,-230.468 1459.54,-212.237"/>
<polygon fill="midnightblue" stroke="midnightblue" points="1461.46,-209.287 1451.5,-205.678 1457.03,-214.711 1461.46,-209.287"/>
</g>
<!-- Node37 -->
<g id="node89" class="node"><title>Node37</title>
<polygon fill="white" stroke="#bfbfbf" points="1489.24,-186.5 1489.24,-205.5 1599.24,-205.5 1599.24,-186.5 1489.24,-186.5"/>
<text text-anchor="middle" x="1544.24" y="-193.5" font-family="FreeSans" font-size="10.00">boost/shared_ptr.hpp</text>
</g>
<!-- Node1&#45;&gt;Node37 -->
<g id="edge148" class="edge"><title>Node1&#45;&gt;Node37</title>
<path fill="none" stroke="midnightblue" d="M1661.18,-316.426C1637.71,-309.735 1608.75,-298.401 1588.24,-280 1568.55,-262.339 1556.15,-233.746 1549.7,-215.159"/>
<polygon fill="midnightblue" stroke="midnightblue" points="1552.99,-213.965 1546.59,-205.529 1546.34,-216.121 1552.99,-213.965"/>
</g>
<!-- Node38 -->
<g id="node91" class="node"><title>Node38</title>
<a xlink:href="diffusionSystem_8h.html" target="_top" xlink:title="diffusionSystem.h">
<polygon fill="white" stroke="black" points="784.737,-254.5 784.737,-273.5 879.737,-273.5 879.737,-254.5 784.737,-254.5"/>
<text text-anchor="middle" x="832.237" y="-261.5" font-family="FreeSans" font-size="10.00">diffusionSystem.h</text>
</a>
</g>
<!-- Node1&#45;&gt;Node38 -->
<g id="edge106" class="edge"><title>Node1&#45;&gt;Node38</title>
<path fill="none" stroke="midnightblue" d="M1653.33,-324.828C1528.97,-323.834 1185.9,-317.607 903.237,-280 894.8,-278.877 885.871,-277.303 877.297,-275.592"/>
<polygon fill="midnightblue" stroke="midnightblue" points="877.95,-272.153 867.446,-273.542 876.523,-279.006 877.95,-272.153"/>
</g>
<!-- Node39 -->
<g id="node97" class="node"><title>Node39</title>
<a xlink:href="convectionSystem_8h.html" target="_top" xlink:title="convectionSystem.h">
<polygon fill="white" stroke="black" points="1597.74,-254.5 1597.74,-273.5 1704.74,-273.5 1704.74,-254.5 1597.74,-254.5"/>
<text text-anchor="middle" x="1651.24" y="-261.5" font-family="FreeSans" font-size="10.00">convectionSystem.h</text>
</a>
</g>
<!-- Node1&#45;&gt;Node39 -->
<g id="edge116" class="edge"><title>Node1&#45;&gt;Node39</title>
<path fill="none" stroke="midnightblue" d="M1694.07,-316.403C1686.5,-307.314 1674.37,-292.756 1664.94,-281.449"/>
<polygon fill="midnightblue" stroke="midnightblue" points="1667.48,-279.022 1658.39,-273.581 1662.1,-283.503 1667.48,-279.022"/>
</g>
<!-- Node40 -->
<g id="node106" class="node"><title>Node40</title>
<polygon fill="white" stroke="#bfbfbf" points="1897.74,-186.5 1897.74,-205.5 1986.74,-205.5 1986.74,-186.5 1897.74,-186.5"/>
<text text-anchor="middle" x="1942.24" y="-193.5" font-family="FreeSans" font-size="10.00">tbb/parallel_for.h</text>
</g>
<!-- Node1&#45;&gt;Node40 -->
<g id="edge150" class="edge"><title>Node1&#45;&gt;Node40</title>
<path fill="none" stroke="midnightblue" d="M1717.42,-316.403C1758.58,-294.542 1867.48,-236.705 1917.04,-210.384"/>
<polygon fill="midnightblue" stroke="midnightblue" points="1918.93,-213.342 1926.12,-205.56 1915.65,-207.159 1918.93,-213.342"/>
</g>
<!-- Node41 -->
<g id="node108" class="node"><title>Node41</title>
<polygon fill="white" stroke="#bfbfbf" points="2004.74,-186.5 2004.74,-205.5 2111.74,-205.5 2111.74,-186.5 2004.74,-186.5"/>
<text text-anchor="middle" x="2058.24" y="-193.5" font-family="FreeSans" font-size="10.00">tbb/blocked_range.h</text>
</g>
<!-- Node1&#45;&gt;Node41 -->
<g id="edge152" class="edge"><title>Node1&#45;&gt;Node41</title>
<path fill="none" stroke="midnightblue" d="M1725.8,-316.443C1751.59,-307.442 1793.3,-292.83 1829.24,-280 1899.22,-255.018 1981.02,-225.228 2025.44,-208.999"/>
<polygon fill="midnightblue" stroke="midnightblue" points="2026.67,-212.278 2034.86,-205.558 2024.26,-205.703 2026.67,-212.278"/>
</g>
<!-- Node42 -->
<g id="node111" class="node"><title>Node42</title>
<polygon fill="white" stroke="#bfbfbf" points="2129.74,-181 2129.74,-211 2230.74,-211 2230.74,-181 2129.74,-181"/>
<text text-anchor="start" x="2137.74" y="-199" font-family="FreeSans" font-size="10.00">boost/ptr_container</text>
<text text-anchor="middle" x="2180.24" y="-188" font-family="FreeSans" font-size="10.00">/ptr_vector.hpp</text>
</g>
<!-- Node1&#45;&gt;Node42 -->
<g id="edge146" class="edge"><title>Node1&#45;&gt;Node42</title>
<path fill="none" stroke="midnightblue" d="M1738.6,-316.481C1776.43,-307.746 1836.56,-293.557 1888.24,-280 1970.28,-258.478 2064.57,-231.213 2123.29,-213.931"/>
<polygon fill="midnightblue" stroke="midnightblue" points="2124.51,-217.22 2133.11,-211.035 2122.53,-210.506 2124.51,-217.22"/>
</g>
<!-- Node43 -->
<g id="node121" class="node"><title>Node43</title>
<polygon fill="white" stroke="#bfbfbf" points="2616.74,-254.5 2616.74,-273.5 2683.74,-273.5 2683.74,-254.5 2616.74,-254.5"/>
<text text-anchor="middle" x="2650.24" y="-261.5" font-family="FreeSans" font-size="10.00">tbb/mutex.h</text>
</g>
<!-- Node1&#45;&gt;Node43 -->
<g id="edge156" class="edge"><title>Node1&#45;&gt;Node43</title>
<path fill="none" stroke="midnightblue" d="M1749,-324.206C1910.59,-321.271 2436,-309.631 2602.24,-280 2607.14,-279.127 2612.23,-277.899 2617.2,-276.517"/>
<polygon fill="midnightblue" stroke="midnightblue" points="2618.53,-279.77 2627.09,-273.53 2616.51,-273.069 2618.53,-279.77"/>
</g>
<!-- Node44 -->
<g id="node123" class="node"><title>Node44</title>
<polygon fill="white" stroke="#bfbfbf" points="2701.74,-249 2701.74,-279 2802.74,-279 2802.74,-249 2701.74,-249"/>
<text text-anchor="start" x="2709.74" y="-267" font-family="FreeSans" font-size="10.00">tbb/task_scheduler</text>
<text text-anchor="middle" x="2752.24" y="-256" font-family="FreeSans" font-size="10.00">_init.h</text>
</g>
<!-- Node1&#45;&gt;Node44 -->
<g id="edge158" class="edge"><title>Node1&#45;&gt;Node44</title>
<path fill="none" stroke="midnightblue" d="M1748.87,-324.097C1917.63,-320.705 2487.45,-307.558 2691.62,-279.821"/>
<polygon fill="midnightblue" stroke="midnightblue" points="2692.23,-283.269 2701.64,-278.404 2691.25,-276.338 2692.23,-283.269"/>
</g>
<!-- Node45 -->
<g id="node125" class="node"><title>Node45</title>
<polygon fill="white" stroke="#bfbfbf" points="2820.74,-254.5 2820.74,-273.5 2921.74,-273.5 2921.74,-254.5 2820.74,-254.5"/>
<text text-anchor="middle" x="2871.24" y="-261.5" font-family="FreeSans" font-size="10.00">tbb/tbb_exception.h</text>
</g>
<!-- Node1&#45;&gt;Node45 -->
<g id="edge160" class="edge"><title>Node1&#45;&gt;Node45</title>
<path fill="none" stroke="midnightblue" d="M1748.77,-324.367C1933.17,-321.709 2601.36,-310.165 2811.24,-280 2818.09,-279.015 2825.3,-277.574 2832.25,-275.969"/>
<polygon fill="midnightblue" stroke="midnightblue" points="2833.3,-279.316 2842.18,-273.535 2831.63,-272.518 2833.3,-279.316"/>
</g>
<!-- Node3 -->
<g id="node5" class="node"><title>Node3</title>
<a xlink:href="mathUtils_8h.html" target="_top" xlink:title="mathUtils.h">
<polygon fill="white" stroke="red" points="1267.74,-56.5 1267.74,-75.5 1332.74,-75.5 1332.74,-56.5 1267.74,-56.5"/>
<text text-anchor="middle" x="1300.24" y="-63.5" font-family="FreeSans" font-size="10.00">mathUtils.h</text>
</a>
</g>
<!-- Node2&#45;&gt;Node3 -->
<g id="edge4" class="edge"><title>Node2&#45;&gt;Node3</title>
<path fill="none" stroke="midnightblue" d="M82.5952,-118.499C90.9404,-115.946 100.402,-113.443 109.237,-112 336.98,-74.8009 1071.97,-68.2627 1257.43,-67.1958"/>
<polygon fill="midnightblue" stroke="midnightblue" points="1257.62,-70.6949 1267.6,-67.1397 1257.58,-63.695 1257.62,-70.6949"/>
</g>
<!-- Node6 -->
<g id="node11" class="node"><title>Node6</title>
<polygon fill="white" stroke="#bfbfbf" points="1279.74,-0.5 1279.74,-19.5 1320.74,-19.5 1320.74,-0.5 1279.74,-0.5"/>
<text text-anchor="middle" x="1300.24" y="-7.5" font-family="FreeSans" font-size="10.00">string</text>
</g>
<!-- Node2&#45;&gt;Node6 -->
<g id="edge12" class="edge"><title>Node2&#45;&gt;Node6</title>
<path fill="none" stroke="midnightblue" d="M93.1785,-118.494C104.038,-116.096 116.086,-113.685 127.237,-112 578.346,-43.8324 1134.53,-17.7545 1269.63,-12.1917"/>
<polygon fill="midnightblue" stroke="midnightblue" points="1269.82,-15.6871 1279.67,-11.7845 1269.53,-8.69281 1269.82,-15.6871"/>
</g>
<!-- Node4 -->
<g id="node7" class="node"><title>Node4</title>
<polygon fill="white" stroke="#bfbfbf" points="1629.24,-0.5 1629.24,-19.5 1673.24,-19.5 1673.24,-0.5 1629.24,-0.5"/>
<text text-anchor="middle" x="1651.24" y="-7.5" font-family="FreeSans" font-size="10.00">vector</text>
</g>
<!-- Node3&#45;&gt;Node4 -->
<g id="edge6" class="edge"><title>Node3&#45;&gt;Node4</title>
<path fill="none" stroke="midnightblue" d="M1332.94,-59.9683C1399.98,-49.6543 1552.28,-26.2242 1618.96,-15.9661"/>
<polygon fill="midnightblue" stroke="midnightblue" points="1619.55,-19.4168 1628.9,-14.4368 1618.48,-12.4982 1619.55,-19.4168"/>
</g>
<!-- Node3&#45;&gt;Node5 -->
<g id="edge8" class="edge"><title>Node3&#45;&gt;Node5</title>
<path fill="none" stroke="midnightblue" d="M1332.75,-63.7052C1516.16,-56.4014 2420.24,-20.3982 2617.98,-12.5235"/>
<polygon fill="midnightblue" stroke="midnightblue" points="2618.32,-16.013 2628.17,-12.1178 2618.04,-9.01859 2618.32,-16.013"/>
</g>
<!-- Node3&#45;&gt;Node6 -->
<g id="edge10" class="edge"><title>Node3&#45;&gt;Node6</title>
<path fill="none" stroke="midnightblue" d="M1300.24,-56.083C1300.24,-49.0059 1300.24,-38.8611 1300.24,-29.9865"/>
<polygon fill="midnightblue" stroke="midnightblue" points="1303.74,-29.751 1300.24,-19.7511 1296.74,-29.7511 1303.74,-29.751"/>
</g>
<!-- Node7&#45;&gt;Node4 -->
<g id="edge36" class="edge"><title>Node7&#45;&gt;Node4</title>
<path fill="none" stroke="midnightblue" d="M1780.76,-186.488C1822.8,-173.356 1898.57,-149.13 1902.24,-144 1910.51,-132.429 1910.2,-123.785 1902.24,-112 1852.46,-38.3187 1739.06,-18.3793 1683.34,-12.9908"/>
<polygon fill="midnightblue" stroke="midnightblue" points="1683.58,-9.49888 1673.32,-12.1197 1682.98,-16.4726 1683.58,-9.49888"/>
</g>
<!-- Node7&#45;&gt;Node5 -->
<g id="edge34" class="edge"><title>Node7&#45;&gt;Node5</title>
<path fill="none" stroke="midnightblue" d="M1776.87,-186.44C1784.82,-183.917 1793.82,-181.446 1802.24,-180 1893.65,-164.299 2567.27,-206.016 2636.24,-144 2668.27,-115.195 2664.52,-58.8235 2659.92,-29.5849"/>
<polygon fill="midnightblue" stroke="midnightblue" points="2663.33,-28.7362 2658.13,-19.5034 2656.44,-29.9618 2663.33,-28.7362"/>
</g>
<!-- Node8 -->
<g id="node16" class="node"><title>Node8</title>
<polygon fill="white" stroke="#bfbfbf" points="1950.74,-118.5 1950.74,-137.5 2073.74,-137.5 2073.74,-118.5 1950.74,-118.5"/>
<text text-anchor="middle" x="2012.24" y="-125.5" font-family="FreeSans" font-size="10.00">nvector/nvector_serial.h</text>
</g>
<!-- Node7&#45;&gt;Node8 -->
<g id="edge16" class="edge"><title>Node7&#45;&gt;Node8</title>
<path fill="none" stroke="midnightblue" d="M1780.11,-186.462C1787.28,-184.271 1795.03,-181.976 1802.24,-180 1857.51,-164.843 1921.59,-149.616 1964.29,-139.799"/>
<polygon fill="midnightblue" stroke="midnightblue" points="1965.16,-143.189 1974.13,-137.545 1963.6,-136.366 1965.16,-143.189"/>
</g>
<!-- Node9 -->
<g id="node18" class="node"><title>Node9</title>
<polygon fill="white" stroke="#bfbfbf" points="2092.24,-118.5 2092.24,-137.5 2228.24,-137.5 2228.24,-118.5 2092.24,-118.5"/>
<text text-anchor="middle" x="2160.24" y="-125.5" font-family="FreeSans" font-size="10.00">sundials/sundials_dense.h</text>
</g>
<!-- Node7&#45;&gt;Node9 -->
<g id="edge18" class="edge"><title>Node7&#45;&gt;Node9</title>
<path fill="none" stroke="midnightblue" d="M1778.2,-186.466C1785.84,-184.096 1794.32,-181.707 1802.24,-180 1924.88,-153.542 1958.35,-163.857 2082.24,-144 2090.65,-142.651 2099.55,-141.079 2108.21,-139.47"/>
<polygon fill="midnightblue" stroke="midnightblue" points="2109.05,-142.874 2118.22,-137.576 2107.75,-135.996 2109.05,-142.874"/>
</g>
<!-- Node10 -->
<g id="node20" class="node"><title>Node10</title>
<polygon fill="white" stroke="#bfbfbf" points="2246.24,-118.5 2246.24,-137.5 2376.24,-137.5 2376.24,-118.5 2246.24,-118.5"/>
<text text-anchor="middle" x="2311.24" y="-125.5" font-family="FreeSans" font-size="10.00">sundials/sundials_band.h</text>
</g>
<!-- Node7&#45;&gt;Node10 -->
<g id="edge20" class="edge"><title>Node7&#45;&gt;Node10</title>
<path fill="none" stroke="midnightblue" d="M1777.4,-186.478C1785.24,-184.019 1794.02,-181.578 1802.24,-180 1992.75,-143.397 2045.18,-171.317 2237.24,-144 2245.73,-142.793 2254.71,-141.223 2263.38,-139.555"/>
<polygon fill="midnightblue" stroke="midnightblue" points="2264.24,-142.953 2273.36,-137.568 2262.87,-136.088 2264.24,-142.953"/>
</g>
<!-- Node11 -->
<g id="node22" class="node"><title>Node11</title>
<polygon fill="white" stroke="#bfbfbf" points="2394.74,-118.5 2394.74,-137.5 2525.74,-137.5 2525.74,-118.5 2394.74,-118.5"/>
<text text-anchor="middle" x="2460.24" y="-125.5" font-family="FreeSans" font-size="10.00">sundials/sundials_types.h</text>
</g>
<!-- Node7&#45;&gt;Node11 -->
<g id="edge22" class="edge"><title>Node7&#45;&gt;Node11</title>
<path fill="none" stroke="midnightblue" d="M1777.13,-186.453C1785.03,-183.962 1793.92,-181.508 1802.24,-180 2057.68,-133.685 2127.81,-177.534 2385.24,-144 2394.13,-142.841 2403.56,-141.249 2412.62,-139.533"/>
<polygon fill="midnightblue" stroke="midnightblue" points="2413.5,-142.926 2422.63,-137.559 2412.15,-136.058 2413.5,-142.926"/>
</g>
<!-- Node12 -->
<g id="node24" class="node"><title>Node12</title>
<polygon fill="white" stroke="#bfbfbf" points="2544.24,-118.5 2544.24,-137.5 2628.24,-137.5 2628.24,-118.5 2544.24,-118.5"/>
<text text-anchor="middle" x="2586.24" y="-125.5" font-family="FreeSans" font-size="10.00">cvode/cvode.h</text>
</g>
<!-- Node7&#45;&gt;Node12 -->
<g id="edge24" class="edge"><title>Node7&#45;&gt;Node12</title>
<path fill="none" stroke="midnightblue" d="M1776.87,-186.47C1784.83,-183.948 1793.82,-181.471 1802.24,-180 2123.1,-123.897 2212.93,-197.498 2534.24,-144 2539.8,-143.074 2545.61,-141.758 2551.25,-140.286"/>
<polygon fill="midnightblue" stroke="midnightblue" points="2552.43,-143.588 2561.12,-137.518 2550.54,-136.848 2552.43,-143.588"/>
</g>
<!-- Node13 -->
<g id="node26" class="node"><title>Node13</title>
<polygon fill="white" stroke="#bfbfbf" points="1461.24,-118.5 1461.24,-137.5 1579.24,-137.5 1579.24,-118.5 1461.24,-118.5"/>
<text text-anchor="middle" x="1520.24" y="-125.5" font-family="FreeSans" font-size="10.00">cvode/cvode_dense.h</text>
</g>
<!-- Node7&#45;&gt;Node13 -->
<g id="edge26" class="edge"><title>Node7&#45;&gt;Node13</title>
<path fill="none" stroke="midnightblue" d="M1722.78,-186.372C1681.06,-174.555 1606.09,-153.318 1559.99,-140.261"/>
<polygon fill="midnightblue" stroke="midnightblue" points="1560.91,-136.884 1550.34,-137.526 1559,-143.619 1560.91,-136.884"/>
</g>
<!-- Node14 -->
<g id="node28" class="node"><title>Node14</title>
<polygon fill="white" stroke="#bfbfbf" points="1597.24,-118.5 1597.24,-137.5 1709.24,-137.5 1709.24,-118.5 1597.24,-118.5"/>
<text text-anchor="middle" x="1653.24" y="-125.5" font-family="FreeSans" font-size="10.00">cvode/cvode_band.h</text>
</g>
<!-- Node7&#45;&gt;Node14 -->
<g id="edge28" class="edge"><title>Node7&#45;&gt;Node14</title>
<path fill="none" stroke="midnightblue" d="M1740.16,-186.372C1723.54,-175.403 1694.63,-156.317 1674.74,-143.191"/>
<polygon fill="midnightblue" stroke="midnightblue" points="1676.59,-140.218 1666.31,-137.63 1672.73,-146.06 1676.59,-140.218"/>
</g>
<!-- Node15 -->
<g id="node30" class="node"><title>Node15</title>
<polygon fill="white" stroke="#bfbfbf" points="1727.24,-118.5 1727.24,-137.5 1783.24,-137.5 1783.24,-118.5 1727.24,-118.5"/>
<text text-anchor="middle" x="1755.24" y="-125.5" font-family="FreeSans" font-size="10.00">ida/ida.h</text>
</g>
<!-- Node7&#45;&gt;Node15 -->
<g id="edge30" class="edge"><title>Node7&#45;&gt;Node15</title>
<path fill="none" stroke="midnightblue" d="M1753.5,-186.372C1753.79,-176.643 1754.28,-160.528 1754.67,-147.85"/>
<polygon fill="midnightblue" stroke="midnightblue" points="1758.16,-147.943 1754.97,-137.841 1751.17,-147.73 1758.16,-147.943"/>
</g>
<!-- Node16 -->
<g id="node32" class="node"><title>Node16</title>
<polygon fill="white" stroke="#bfbfbf" points="1800.74,-118.5 1800.74,-137.5 1893.74,-137.5 1893.74,-118.5 1800.74,-118.5"/>
<text text-anchor="middle" x="1847.24" y="-125.5" font-family="FreeSans" font-size="10.00">ida/ida_spbcgs.h</text>
</g>
<!-- Node7&#45;&gt;Node16 -->
<g id="edge32" class="edge"><title>Node7&#45;&gt;Node16</title>
<path fill="none" stroke="midnightblue" d="M1765.53,-186.372C1781.01,-175.502 1807.84,-156.66 1826.52,-143.547"/>
<polygon fill="midnightblue" stroke="midnightblue" points="1828.77,-146.241 1834.95,-137.63 1824.75,-140.512 1828.77,-146.241"/>
</g>
<!-- Node17 -->
<g id="node36" class="node"><title>Node17</title>
<polygon fill="white" stroke="#bfbfbf" points="2684.74,-118.5 2684.74,-137.5 2727.74,-137.5 2727.74,-118.5 2684.74,-118.5"/>
<text text-anchor="middle" x="2706.24" y="-125.5" font-family="FreeSans" font-size="10.00">time.h</text>
</g>
<!-- Node7&#45;&gt;Node17 -->
<g id="edge38" class="edge"><title>Node7&#45;&gt;Node17</title>
<path fill="none" stroke="midnightblue" d="M1776.87,-186.432C1784.82,-183.908 1793.82,-181.439 1802.24,-180 2182.83,-114.96 2293.28,-227.552 2670.24,-144 2673.31,-143.319 2676.46,-142.39 2679.54,-141.326"/>
<polygon fill="midnightblue" stroke="midnightblue" points="2681.02,-144.506 2689.06,-137.606 2678.48,-137.986 2681.02,-144.506"/>
</g>
<!-- Node18&#45;&gt;Node2 -->
<g id="edge60" class="edge"><title>Node18&#45;&gt;Node2</title>
<path fill="none" stroke="midnightblue" d="M998.605,-186.441C990.65,-183.917 981.655,-181.446 973.237,-180 608.898,-117.391 509.683,-184.583 142.237,-144 130.159,-142.666 117.196,-140.647 105.156,-138.518"/>
<polygon fill="midnightblue" stroke="midnightblue" points="105.765,-135.072 95.2989,-136.717 104.507,-141.958 105.765,-135.072"/>
</g>
<!-- Node18&#45;&gt;Node3 -->
<g id="edge58" class="edge"><title>Node18&#45;&gt;Node3</title>
<path fill="none" stroke="midnightblue" d="M997.809,-186.46C990.039,-184.032 981.353,-181.611 973.237,-180 890.473,-163.567 652.004,-206.43 595.237,-144 585.669,-133.477 585.506,-122.372 595.237,-112 617.978,-87.7614 1107.81,-72.3034 1257.3,-68.1374"/>
<polygon fill="midnightblue" stroke="midnightblue" points="1257.57,-71.6316 1267.47,-67.857 1257.37,-64.6342 1257.57,-71.6316"/>
</g>
<!-- Node19 -->
<g id="node40" class="node"><title>Node19</title>
<polygon fill="white" stroke="#bfbfbf" points="896.737,-118.5 896.737,-137.5 1015.74,-137.5 1015.74,-118.5 896.737,-118.5"/>
<text text-anchor="middle" x="956.237" y="-125.5" font-family="FreeSans" font-size="10.00">cantera/IdealGasMix.h</text>
</g>
<!-- Node18&#45;&gt;Node19 -->
<g id="edge42" class="edge"><title>Node18&#45;&gt;Node19</title>
<path fill="none" stroke="midnightblue" d="M1013.61,-186.372C1003.19,-175.955 985.455,-158.217 972.454,-145.216"/>
<polygon fill="midnightblue" stroke="midnightblue" points="974.625,-142.437 965.079,-137.841 969.675,-147.387 974.625,-142.437"/>
</g>
<!-- Node20 -->
<g id="node42" class="node"><title>Node20</title>
<polygon fill="white" stroke="#bfbfbf" points="1033.74,-118.5 1033.74,-137.5 1142.74,-137.5 1142.74,-118.5 1033.74,-118.5"/>
<text text-anchor="middle" x="1088.24" y="-125.5" font-family="FreeSans" font-size="10.00">cantera/equilibrium.h</text>
</g>
<!-- Node18&#45;&gt;Node20 -->
<g id="edge44" class="edge"><title>Node18&#45;&gt;Node20</title>
<path fill="none" stroke="midnightblue" d="M1030.87,-186.372C1041.28,-175.955 1059.02,-158.217 1072.02,-145.216"/>
<polygon fill="midnightblue" stroke="midnightblue" points="1074.8,-147.387 1079.4,-137.841 1069.85,-142.437 1074.8,-147.387"/>
</g>
<!-- Node21 -->
<g id="node44" class="node"><title>Node21</title>
<polygon fill="white" stroke="#bfbfbf" points="1161.24,-118.5 1161.24,-137.5 1253.24,-137.5 1253.24,-118.5 1161.24,-118.5"/>
<text text-anchor="middle" x="1207.24" y="-125.5" font-family="FreeSans" font-size="10.00">cantera/thermo.h</text>
</g>
<!-- Node18&#45;&gt;Node21 -->
<g id="edge46" class="edge"><title>Node18&#45;&gt;Node21</title>
<path fill="none" stroke="midnightblue" d="M1046.42,-186.372C1078.92,-174.778 1136.84,-154.116 1173.58,-141.009"/>
<polygon fill="midnightblue" stroke="midnightblue" points="1175.1,-144.183 1183.34,-137.526 1172.74,-137.59 1175.1,-144.183"/>
</g>
<!-- Node22 -->
<g id="node46" class="node"><title>Node22</title>
<polygon fill="white" stroke="#bfbfbf" points="151.737,-118.5 151.737,-137.5 250.737,-137.5 250.737,-118.5 151.737,-118.5"/>
<text text-anchor="middle" x="201.237" y="-125.5" font-family="FreeSans" font-size="10.00">cantera/transport.h</text>
</g>
<!-- Node18&#45;&gt;Node22 -->
<g id="edge48" class="edge"><title>Node18&#45;&gt;Node22</title>
<path fill="none" stroke="midnightblue" d="M998.599,-186.476C990.643,-183.955 981.65,-181.476 973.237,-180 660.283,-125.08 573.324,-192.024 259.237,-144 252.828,-143.02 246.1,-141.628 239.59,-140.082"/>
<polygon fill="midnightblue" stroke="midnightblue" points="240.167,-136.618 229.614,-137.564 238.454,-143.405 240.167,-136.618"/>
</g>
<!-- Node23 -->
<g id="node48" class="node"><title>Node23</title>
<polygon fill="white" stroke="#bfbfbf" points="268.737,-118.5 268.737,-137.5 363.737,-137.5 363.737,-118.5 268.737,-118.5"/>
<text text-anchor="middle" x="316.237" y="-125.5" font-family="FreeSans" font-size="10.00">cantera/kinetics.h</text>
</g>
<!-- Node18&#45;&gt;Node23 -->
<g id="edge50" class="edge"><title>Node18&#45;&gt;Node23</title>
<path fill="none" stroke="midnightblue" d="M998.342,-186.444C990.447,-183.953 981.555,-181.501 973.237,-180 710.336,-132.568 637.03,-186.199 373.237,-144 366.938,-142.992 360.326,-141.586 353.928,-140.034"/>
<polygon fill="midnightblue" stroke="midnightblue" points="354.681,-136.614 344.125,-137.514 352.938,-143.394 354.681,-136.614"/>
</g>
<!-- Node24 -->
<g id="node50" class="node"><title>Node24</title>
<polygon fill="white" stroke="#bfbfbf" points="382.237,-118.5 382.237,-137.5 548.237,-137.5 548.237,-118.5 382.237,-118.5"/>
<text text-anchor="middle" x="465.237" y="-125.5" font-family="FreeSans" font-size="10.00">cantera/thermo/IdealGasPhase.h</text>
</g>
<!-- Node18&#45;&gt;Node24 -->
<g id="edge52" class="edge"><title>Node18&#45;&gt;Node24</title>
<path fill="none" stroke="midnightblue" d="M997.817,-186.423C990.046,-183.992 981.359,-181.581 973.237,-180 793.248,-144.971 744.276,-166.023 562.237,-144 550.541,-142.585 538.087,-140.84 526.138,-139.047"/>
<polygon fill="midnightblue" stroke="midnightblue" points="526.661,-135.586 516.247,-137.535 525.603,-142.506 526.661,-135.586"/>
</g>
<!-- Node25 -->
<g id="node52" class="node"><title>Node25</title>
<polygon fill="white" stroke="#bfbfbf" points="604.237,-118.5 604.237,-137.5 756.237,-137.5 756.237,-118.5 604.237,-118.5"/>
<text text-anchor="middle" x="680.237" y="-125.5" font-family="FreeSans" font-size="10.00">cantera/kinetics/GasKinetics.h</text>
</g>
<!-- Node18&#45;&gt;Node25 -->
<g id="edge54" class="edge"><title>Node18&#45;&gt;Node25</title>
<path fill="none" stroke="midnightblue" d="M996.466,-186.446C989.023,-184.157 980.853,-181.817 973.237,-180 881.98,-158.226 857.655,-160.152 765.237,-144 756.55,-142.482 747.365,-140.869 738.37,-139.285"/>
<polygon fill="midnightblue" stroke="midnightblue" points="738.787,-135.805 728.332,-137.516 737.572,-142.698 738.787,-135.805"/>
</g>
<!-- Node26 -->
<g id="node54" class="node"><title>Node26</title>
<polygon fill="white" stroke="#bfbfbf" points="774.237,-118.5 774.237,-137.5 878.237,-137.5 878.237,-118.5 774.237,-118.5"/>
<text text-anchor="middle" x="826.237" y="-125.5" font-family="FreeSans" font-size="10.00">cantera/base/ctml.h</text>
</g>
<!-- Node18&#45;&gt;Node26 -->
<g id="edge56" class="edge"><title>Node18&#45;&gt;Node26</title>
<path fill="none" stroke="midnightblue" d="M996.614,-186.372C962.037,-174.728 900.3,-153.939 861.402,-140.841"/>
<polygon fill="midnightblue" stroke="midnightblue" points="862.151,-137.4 851.557,-137.526 859.917,-144.034 862.151,-137.4"/>
</g>
<!-- Node27&#45;&gt;Node2 -->
<g id="edge64" class="edge"><title>Node27&#45;&gt;Node2</title>
<path fill="none" stroke="midnightblue" d="M735.64,-194.923C654.937,-194.296 352.735,-188.902 109.237,-144 104.039,-143.041 98.6128,-141.761 93.322,-140.35"/>
<polygon fill="midnightblue" stroke="midnightblue" points="93.9854,-136.9 83.4092,-137.528 92.0686,-143.632 93.9854,-136.9"/>
</g>
<!-- Node28&#45;&gt;Node17 -->
<g id="edge74" class="edge"><title>Node28&#45;&gt;Node17</title>
<path fill="none" stroke="midnightblue" d="M1865.9,-186.433C1872.88,-183.909 1880.79,-181.44 1888.24,-180 2229.85,-114.011 2330.73,-220.062 2670.24,-144 2673.31,-143.312 2676.45,-142.379 2679.54,-141.312"/>
<polygon fill="midnightblue" stroke="midnightblue" points="2681.02,-144.491 2689.06,-137.589 2678.47,-137.972 2681.02,-144.491"/>
</g>
<!-- Node29 -->
<g id="node63" class="node"><title>Node29</title>
<polygon fill="white" stroke="#bfbfbf" points="2746.24,-118.5 2746.24,-137.5 2838.24,-137.5 2838.24,-118.5 2746.24,-118.5"/>
<text text-anchor="middle" x="2792.24" y="-125.5" font-family="FreeSans" font-size="10.00">tbb/combinable.h</text>
</g>
<!-- Node28&#45;&gt;Node29 -->
<g id="edge68" class="edge"><title>Node28&#45;&gt;Node29</title>
<path fill="none" stroke="midnightblue" d="M1865.9,-186.418C1872.87,-183.892 1880.78,-181.426 1888.24,-180 2258.75,-109.115 2363.36,-201.144 2736.24,-144 2742.51,-143.039 2749.08,-141.643 2755.43,-140.084"/>
<polygon fill="midnightblue" stroke="midnightblue" points="2756.36,-143.458 2765.15,-137.539 2754.59,-136.686 2756.36,-143.458"/>
</g>
<!-- Node28&#45;&gt;Node30 -->
<g id="edge70" class="edge"><title>Node28&#45;&gt;Node30</title>
<path fill="none" stroke="midnightblue" d="M1865.89,-186.384C1872.86,-183.856 1880.78,-181.397 1888.24,-180 2341.96,-95.0187 2468.11,-200.58 2926.24,-144 2926.34,-143.987 2926.45,-143.974 2926.55,-143.961"/>
<polygon fill="midnightblue" stroke="midnightblue" points="2927,-147.432 2936.4,-142.547 2926.01,-140.503 2927,-147.432"/>
</g>
<!-- Node31 -->
<g id="node67" class="node"><title>Node31</title>
<polygon fill="white" stroke="#bfbfbf" points="2856.24,-118.5 2856.24,-137.5 2918.24,-137.5 2918.24,-118.5 2856.24,-118.5"/>
<text text-anchor="middle" x="2887.24" y="-125.5" font-family="FreeSans" font-size="10.00">sys/time.h</text>
</g>
<!-- Node28&#45;&gt;Node31 -->
<g id="edge72" class="edge"><title>Node28&#45;&gt;Node31</title>
<path fill="none" stroke="midnightblue" d="M1865.89,-186.396C1872.87,-183.869 1880.78,-181.408 1888.24,-180 2307.36,-100.88 2429.06,-227.962 2847.24,-144 2850.95,-143.255 2854.76,-142.212 2858.5,-141.019"/>
<polygon fill="midnightblue" stroke="midnightblue" points="2859.83,-144.262 2868.07,-137.611 2857.48,-137.668 2859.83,-144.262"/>
</g>
<!-- Node32&#45;&gt;Node3 -->
<g id="edge78" class="edge"><title>Node32&#45;&gt;Node3</title>
<path fill="none" stroke="midnightblue" d="M807.568,-186.476C800.591,-183.955 792.683,-181.477 785.237,-180 644.297,-152.048 42.6285,-215.555 142.237,-112 161.944,-91.5123 1049.9,-72.1167 1257.26,-67.8614"/>
<polygon fill="midnightblue" stroke="midnightblue" points="1257.52,-71.3568 1267.45,-67.6532 1257.38,-64.3583 1257.52,-71.3568"/>
</g>
<!-- Node33&#45;&gt;Node3 -->
<g id="edge82" class="edge"><title>Node33&#45;&gt;Node3</title>
<path fill="none" stroke="midnightblue" d="M1396.59,-259.927C1363.98,-255.071 1321.84,-242.791 1300.24,-212 1273.44,-173.811 1285.44,-114.925 1294.11,-85.3207"/>
<polygon fill="midnightblue" stroke="midnightblue" points="1297.53,-86.1018 1297.18,-75.5128 1290.85,-84.0098 1297.53,-86.1018"/>
</g>
<!-- Node33&#45;&gt;Node7 -->
<g id="edge84" class="edge"><title>Node33&#45;&gt;Node7</title>
<path fill="none" stroke="midnightblue" d="M1481.71,-254.439C1538.4,-242.446 1641.42,-220.654 1702.96,-207.635"/>
<polygon fill="midnightblue" stroke="midnightblue" points="1703.78,-211.039 1712.84,-205.546 1702.33,-204.191 1703.78,-211.039"/>
</g>
<!-- Node33&#45;&gt;Node18 -->
<g id="edge86" class="edge"><title>Node33&#45;&gt;Node18</title>
<path fill="none" stroke="midnightblue" d="M1396.4,-255.937C1317.34,-243.484 1153.77,-217.718 1071.6,-204.776"/>
<polygon fill="midnightblue" stroke="midnightblue" points="1071.94,-201.286 1061.52,-203.188 1070.85,-208.201 1071.94,-201.286"/>
</g>
<!-- Node33&#45;&gt;Node28 -->
<g id="edge92" class="edge"><title>Node33&#45;&gt;Node28</title>
<path fill="none" stroke="midnightblue" d="M1485.92,-257.794C1568.74,-247.962 1743.03,-226.363 1802.24,-212 1805.91,-211.109 1809.71,-210.027 1813.47,-208.858"/>
<polygon fill="midnightblue" stroke="midnightblue" points="1814.79,-212.107 1823.17,-205.626 1812.57,-205.466 1814.79,-212.107"/>
</g>
<!-- Node33&#45;&gt;Node34 -->
<g id="edge88" class="edge"><title>Node33&#45;&gt;Node34</title>
<path fill="none" stroke="midnightblue" d="M1396.42,-260.677C1312.77,-255.773 1127.47,-242.234 974.237,-212 969.07,-210.98 963.671,-209.688 958.391,-208.291"/>
<polygon fill="midnightblue" stroke="midnightblue" points="959.049,-204.841 948.476,-205.52 957.165,-211.582 959.049,-204.841"/>
</g>
<!-- Node35 -->
<g id="node82" class="node"><title>Node35</title>
<a xlink:href="qssintegrator_8h.html" target="_top" xlink:title="qssintegrator.h">
<polygon fill="white" stroke="black" points="1309.74,-186.5 1309.74,-205.5 1392.74,-205.5 1392.74,-186.5 1309.74,-186.5"/>
<text text-anchor="middle" x="1351.24" y="-193.5" font-family="FreeSans" font-size="10.00">qssintegrator.h</text>
</a>
</g>
<!-- Node33&#45;&gt;Node35 -->
<g id="edge94" class="edge"><title>Node33&#45;&gt;Node35</title>
<path fill="none" stroke="midnightblue" d="M1429.47,-254.372C1414.65,-243.502 1388.96,-224.66 1371.07,-211.547"/>
<polygon fill="midnightblue" stroke="midnightblue" points="1373.14,-208.722 1363.01,-205.63 1369,-214.367 1373.14,-208.722"/>
</g>
<!-- Node33&#45;&gt;Node36 -->
<g id="edge98" class="edge"><title>Node33&#45;&gt;Node36</title>
<path fill="none" stroke="midnightblue" d="M1441.24,-254.372C1441.24,-244.643 1441.24,-228.528 1441.24,-215.85"/>
<polygon fill="midnightblue" stroke="midnightblue" points="1444.74,-215.841 1441.24,-205.841 1437.74,-215.841 1444.74,-215.841"/>
</g>
<!-- Node33&#45;&gt;Node37 -->
<g id="edge104" class="edge"><title>Node33&#45;&gt;Node37</title>
<path fill="none" stroke="midnightblue" d="M1454.7,-254.372C1471.82,-243.403 1501.61,-224.317 1522.09,-211.191"/>
<polygon fill="midnightblue" stroke="midnightblue" points="1524.24,-213.973 1530.77,-205.63 1520.46,-208.079 1524.24,-213.973"/>
</g>
<!-- Node34&#45;&gt;Node2 -->
<g id="edge90" class="edge"><title>Node34&#45;&gt;Node2</title>
<path fill="none" stroke="midnightblue" d="M897.117,-186.484C888.672,-183.963 879.135,-181.483 870.237,-180 550.693,-126.751 464.12,-180.548 142.237,-144 130.163,-142.629 117.202,-140.596 105.162,-138.467"/>
<polygon fill="midnightblue" stroke="midnightblue" points="105.77,-135.02 95.3044,-136.668 104.513,-141.907 105.77,-135.02"/>
</g>
<!-- Node35&#45;&gt;Node3 -->
<g id="edge96" class="edge"><title>Node35&#45;&gt;Node3</title>
<path fill="none" stroke="midnightblue" d="M1347.73,-186.202C1339.43,-165.367 1318.44,-112.681 1307.35,-84.8524"/>
<polygon fill="midnightblue" stroke="midnightblue" points="1310.59,-83.5167 1303.63,-75.5224 1304.08,-86.1077 1310.59,-83.5167"/>
</g>
<!-- Node36&#45;&gt;Node3 -->
<g id="edge100" class="edge"><title>Node36&#45;&gt;Node3</title>
<path fill="none" stroke="midnightblue" d="M1430.46,-186.148C1418.33,-176.112 1398.11,-159.173 1381.24,-144 1358.38,-123.453 1332.8,-98.8557 1316.62,-83.0851"/>
<polygon fill="midnightblue" stroke="midnightblue" points="1318.67,-80.1988 1309.07,-75.711 1313.78,-85.2043 1318.67,-80.1988"/>
</g>
<!-- Node36&#45;&gt;Node6 -->
<g id="edge102" class="edge"><title>Node36&#45;&gt;Node6</title>
<path fill="none" stroke="midnightblue" d="M1435.48,-186.284C1420.65,-163.995 1379.62,-103.338 1341.24,-56 1333.17,-46.0459 1323.54,-35.4262 1315.65,-27.0044"/>
<polygon fill="midnightblue" stroke="midnightblue" points="1318.14,-24.543 1308.72,-19.6968 1313.06,-29.3606 1318.14,-24.543"/>
</g>
<!-- Node38&#45;&gt;Node3 -->
<g id="edge108" class="edge"><title>Node38&#45;&gt;Node3</title>
<path fill="none" stroke="midnightblue" d="M784.539,-261.766C593.747,-256.028 -98.9378,-227.127 12.2375,-112 56.4416,-66.2245 1039.47,-66.2707 1257.61,-66.8473"/>
<polygon fill="midnightblue" stroke="midnightblue" points="1257.7,-70.3475 1267.71,-66.8759 1257.72,-63.3475 1257.7,-70.3475"/>
</g>
<!-- Node38&#45;&gt;Node18 -->
<g id="edge110" class="edge"><title>Node38&#45;&gt;Node18</title>
<path fill="none" stroke="midnightblue" d="M857.077,-254.372C890.595,-242.728 950.442,-221.939 988.149,-208.841"/>
<polygon fill="midnightblue" stroke="midnightblue" points="989.395,-212.114 997.693,-205.526 987.098,-205.501 989.395,-212.114"/>
</g>
<!-- Node38&#45;&gt;Node27 -->
<g id="edge112" class="edge"><title>Node38&#45;&gt;Node27</title>
<path fill="none" stroke="midnightblue" d="M822.302,-254.372C810.08,-243.758 789.108,-225.545 774.069,-212.485"/>
<polygon fill="midnightblue" stroke="midnightblue" points="776.263,-209.755 766.418,-205.841 771.674,-215.041 776.263,-209.755"/>
</g>
<!-- Node38&#45;&gt;Node32 -->
<g id="edge114" class="edge"><title>Node38&#45;&gt;Node32</title>
<path fill="none" stroke="midnightblue" d="M831.715,-254.372C831.125,-244.643 830.148,-228.528 829.38,-215.85"/>
<polygon fill="midnightblue" stroke="midnightblue" points="832.872,-215.611 828.773,-205.841 825.885,-216.035 832.872,-215.611"/>
</g>
<!-- Node39&#45;&gt;Node3 -->
<g id="edge118" class="edge"><title>Node39&#45;&gt;Node3</title>
<path fill="none" stroke="midnightblue" d="M1649.34,-254.412C1645.1,-237.402 1633.24,-199.398 1608.24,-180 1552.02,-136.385 1519.13,-168.255 1452.24,-144 1404.52,-126.696 1352.47,-97.9924 1323.35,-80.9468"/>
<polygon fill="midnightblue" stroke="midnightblue" points="1324.77,-77.7255 1314.39,-75.6464 1321.21,-83.7503 1324.77,-77.7255"/>
</g>
<!-- Node39&#45;&gt;Node7 -->
<g id="edge120" class="edge"><title>Node39&#45;&gt;Node7</title>
<path fill="none" stroke="midnightblue" d="M1664.57,-254.372C1681.52,-243.403 1711.02,-224.317 1731.31,-211.191"/>
<polygon fill="midnightblue" stroke="midnightblue" points="1733.41,-214.002 1739.9,-205.63 1729.6,-208.125 1733.41,-214.002"/>
</g>
<!-- Node39&#45;&gt;Node18 -->
<g id="edge126" class="edge"><title>Node39&#45;&gt;Node18</title>
<path fill="none" stroke="midnightblue" d="M1597.61,-257.373C1477.35,-244.755 1187.62,-214.353 1071.54,-202.174"/>
<polygon fill="midnightblue" stroke="midnightblue" points="1071.83,-198.684 1061.52,-201.122 1071.1,-205.646 1071.83,-198.684"/>
</g>
<!-- Node39&#45;&gt;Node27 -->
<g id="edge124" class="edge"><title>Node39&#45;&gt;Node27</title>
<path fill="none" stroke="midnightblue" d="M1597.52,-257.272C1567.22,-254.19 1528.65,-250.517 1494.24,-248 1337.12,-236.506 938.591,-252.077 786.237,-212 784.041,-211.422 781.818,-210.672 779.627,-209.816"/>
<polygon fill="midnightblue" stroke="midnightblue" points="780.958,-206.577 770.41,-205.587 778.039,-212.939 780.958,-206.577"/>
</g>
<!-- Node39&#45;&gt;Node28 -->
<g id="edge128" class="edge"><title>Node39&#45;&gt;Node28</title>
<path fill="none" stroke="midnightblue" d="M1676.91,-254.414C1706.98,-244.34 1758.27,-227.093 1802.24,-212 1805.14,-211.005 1808.14,-209.968 1811.16,-208.924"/>
<polygon fill="midnightblue" stroke="midnightblue" points="1812.4,-212.198 1820.69,-205.609 1810.1,-205.586 1812.4,-212.198"/>
</g>
<!-- Node39&#45;&gt;Node34 -->
<g id="edge122" class="edge"><title>Node39&#45;&gt;Node34</title>
<path fill="none" stroke="midnightblue" d="M1597.5,-257.515C1567.19,-254.51 1528.62,-250.832 1494.24,-248 1263.36,-228.982 1202.36,-252.33 974.237,-212 968.802,-211.039 963.122,-209.729 957.597,-208.281"/>
<polygon fill="midnightblue" stroke="midnightblue" points="958.478,-204.893 947.905,-205.571 956.593,-211.635 958.478,-204.893"/>
</g>
<!-- Node39&#45;&gt;Node36 -->
<g id="edge130" class="edge"><title>Node39&#45;&gt;Node36</title>
<path fill="none" stroke="midnightblue" d="M1619.8,-254.413C1585.33,-244.812 1528.47,-228.442 1480.24,-212 1477.62,-211.109 1474.93,-210.152 1472.22,-209.167"/>
<polygon fill="midnightblue" stroke="midnightblue" points="1473.18,-205.786 1462.59,-205.552 1470.72,-212.341 1473.18,-205.786"/>
</g>
<!-- Node39&#45;&gt;Node37 -->
<g id="edge136" class="edge"><title>Node39&#45;&gt;Node37</title>
<path fill="none" stroke="midnightblue" d="M1637.25,-254.372C1619.39,-243.353 1588.25,-224.145 1566.96,-211.014"/>
<polygon fill="midnightblue" stroke="midnightblue" points="1568.58,-207.901 1558.23,-205.63 1564.9,-213.859 1568.58,-207.901"/>
</g>
<!-- Node39&#45;&gt;Node40 -->
<g id="edge132" class="edge"><title>Node39&#45;&gt;Node40</title>
<path fill="none" stroke="midnightblue" d="M1694.66,-254.456C1742.32,-244.892 1821.01,-228.555 1888.24,-212 1892.95,-210.84 1897.88,-209.562 1902.75,-208.257"/>
<polygon fill="midnightblue" stroke="midnightblue" points="1903.88,-211.576 1912.61,-205.568 1902.04,-204.823 1903.88,-211.576"/>
</g>
<!-- Node39&#45;&gt;Node41 -->
<g id="edge134" class="edge"><title>Node39&#45;&gt;Node41</title>
<path fill="none" stroke="midnightblue" d="M1704.81,-256.518C1772.68,-247.971 1893.12,-231.688 1995.24,-212 2001.54,-210.785 2008.17,-209.365 2014.66,-207.894"/>
<polygon fill="midnightblue" stroke="midnightblue" points="2015.73,-211.237 2024.68,-205.559 2014.14,-204.419 2015.73,-211.237"/>
</g>
<!-- Node39&#45;&gt;Node42 -->
<g id="edge138" class="edge"><title>Node39&#45;&gt;Node42</title>
<path fill="none" stroke="midnightblue" d="M1705.03,-259.552C1790.69,-253.536 1963.45,-239.258 2119.36,-211.99"/>
<polygon fill="midnightblue" stroke="midnightblue" points="2120.37,-215.366 2129.6,-210.175 2119.15,-208.474 2120.37,-215.366"/>
</g>
</g>
</svg>
