<?xml version="1.0" encoding="UTF-8" standalone="no"?>
<!DOCTYPE svg PUBLIC "-//W3C//DTD SVG 1.1//EN"
 "http://www.w3.org/Graphics/SVG/1.1/DTD/svg11.dtd">
<!-- Generated by graphviz version 2.28.0 (20120425.2022)
 -->
<!-- Title: src/flameSolver.h Pages: 1 -->
<svg width="2095pt" height="344pt"
 viewBox="0.00 0.00 2095.00 344.00" xmlns="http://www.w3.org/2000/svg" xmlns:xlink="http://www.w3.org/1999/xlink">
<g id="graph1" class="graph" transform="scale(1 1) rotate(0) translate(4 340)">
<title>src/flameSolver.h</title>
<polygon fill="white" stroke="white" points="-4,5 -4,-340 2092,-340 2092,5 -4,5"/>
<!-- Node1 -->
<g id="node1" class="node"><title>Node1</title>
<polygon fill="#bfbfbf" stroke="black" points="652.5,-316.5 652.5,-335.5 747.5,-335.5 747.5,-316.5 652.5,-316.5"/>
<text text-anchor="middle" x="700" y="-323.5" font-family="FreeSans" font-size="10.00">src/flameSolver.h</text>
</g>
<!-- Node2 -->
<g id="node3" class="node"><title>Node2</title>
<a xlink:href="readConfig_8h.html" target="_top" xlink:title="readConfig.h">
<polygon fill="white" stroke="black" points="894,-118.5 894,-137.5 968,-137.5 968,-118.5 894,-118.5"/>
<text text-anchor="middle" x="931" y="-125.5" font-family="FreeSans" font-size="10.00">readConfig.h</text>
</a>
</g>
<!-- Node1&#45;&gt;Node2 -->
<g id="edge2" class="edge"><title>Node1&#45;&gt;Node2</title>
<path fill="none" stroke="midnightblue" d="M747.751,-322.943C810.161,-319.138 914.322,-308.575 938,-280 969.455,-242.04 950.978,-178.483 938.911,-147.335"/>
<polygon fill="midnightblue" stroke="midnightblue" points="942.024,-145.698 935.003,-137.764 935.543,-148.345 942.024,-145.698"/>
</g>
<!-- Node4 -->
<g id="node7" class="node"><title>Node4</title>
<polygon fill="white" stroke="#bfbfbf" points="184,-0.5 184,-19.5 240,-19.5 240,-0.5 184,-0.5"/>
<text text-anchor="middle" x="212" y="-7.5" font-family="FreeSans" font-size="10.00">iostream</text>
</g>
<!-- Node1&#45;&gt;Node4 -->
<g id="edge98" class="edge"><title>Node1&#45;&gt;Node4</title>
<path fill="none" stroke="midnightblue" d="M652.416,-324.031C533.952,-321.17 228.43,-310.931 132,-280 66.011,-258.834 0,-266.301 0,-197 0,-197 0,-197 0,-127 0,-48.6703 112.756,-22.8945 173.804,-14.6793"/>
<polygon fill="midnightblue" stroke="midnightblue" points="174.36,-18.1371 183.848,-13.423 173.491,-11.1912 174.36,-18.1371"/>
</g>
<!-- Node6 -->
<g id="node12" class="node"><title>Node6</title>
<a xlink:href="chemistry0d_8h.html" target="_top" xlink:title="chemistry0d.h">
<polygon fill="white" stroke="black" points="1202,-254.5 1202,-273.5 1280,-273.5 1280,-254.5 1202,-254.5"/>
<text text-anchor="middle" x="1241" y="-261.5" font-family="FreeSans" font-size="10.00">chemistry0d.h</text>
</a>
</g>
<!-- Node1&#45;&gt;Node6 -->
<g id="edge12" class="edge"><title>Node1&#45;&gt;Node6</title>
<path fill="none" stroke="midnightblue" d="M747.536,-319.728C849.491,-308.421 1088.29,-281.936 1191.76,-270.461"/>
<polygon fill="midnightblue" stroke="midnightblue" points="1192.37,-273.914 1201.93,-269.333 1191.6,-266.957 1192.37,-273.914"/>
</g>
<!-- Node15 -->
<g id="node31" class="node"><title>Node15</title>
<a xlink:href="grid_8h.html" target="_top" xlink:title="grid.h">
<polygon fill="white" stroke="black" points="688.5,-186.5 688.5,-205.5 729.5,-205.5 729.5,-186.5 688.5,-186.5"/>
<text text-anchor="middle" x="709" y="-193.5" font-family="FreeSans" font-size="10.00">grid.h</text>
</a>
</g>
<!-- Node1&#45;&gt;Node15 -->
<g id="edge32" class="edge"><title>Node1&#45;&gt;Node15</title>
<path fill="none" stroke="midnightblue" d="M704.621,-316.339C709.059,-307.493 715.454,-293.22 718,-280 722.227,-258.051 718.095,-232.425 714.141,-215.519"/>
<polygon fill="midnightblue" stroke="midnightblue" points="717.523,-214.617 711.658,-205.794 710.741,-216.349 717.523,-214.617"/>
</g>
<!-- Node16 -->
<g id="node34" class="node"><title>Node16</title>
<a xlink:href="splitSolver_8h.html" target="_top" xlink:title="splitSolver.h">
<polygon fill="white" stroke="black" points="858.5,-254.5 858.5,-273.5 929.5,-273.5 929.5,-254.5 858.5,-254.5"/>
<text text-anchor="middle" x="894" y="-261.5" font-family="FreeSans" font-size="10.00">splitSolver.h</text>
</a>
</g>
<!-- Node1&#45;&gt;Node16 -->
<g id="edge36" class="edge"><title>Node1&#45;&gt;Node16</title>
<path fill="none" stroke="midnightblue" d="M727.795,-316.403C761.65,-305.933 818.971,-288.205 856.655,-276.55"/>
<polygon fill="midnightblue" stroke="midnightblue" points="857.737,-279.879 866.256,-273.581 855.668,-273.192 857.737,-279.879"/>
</g>
<!-- Node17 -->
<g id="node37" class="node"><title>Node17</title>
<a xlink:href="perfTimer_8h.html" target="_top" xlink:title="perfTimer.h">
<polygon fill="white" stroke="red" points="748,-186.5 748,-205.5 816,-205.5 816,-186.5 748,-186.5"/>
<text text-anchor="middle" x="782" y="-193.5" font-family="FreeSans" font-size="10.00">perfTimer.h</text>
</a>
</g>
<!-- Node1&#45;&gt;Node17 -->
<g id="edge46" class="edge"><title>Node1&#45;&gt;Node17</title>
<path fill="none" stroke="midnightblue" d="M706.841,-316.221C713.709,-307.283 724.466,-292.94 733,-280 747.478,-258.047 762.647,-231.768 772.201,-214.747"/>
<polygon fill="midnightblue" stroke="midnightblue" points="775.322,-216.338 777.131,-205.899 769.207,-212.931 775.322,-216.338"/>
</g>
<!-- Node18 -->
<g id="node39" class="node"><title>Node18</title>
<polygon fill="white" stroke="#bfbfbf" points="718.5,-113 718.5,-143 837.5,-143 837.5,-113 718.5,-113"/>
<text text-anchor="start" x="726.5" y="-131" font-family="FreeSans" font-size="10.00">tbb/enumerable_thread</text>
<text text-anchor="middle" x="778" y="-120" font-family="FreeSans" font-size="10.00">_specific.h</text>
</g>
<!-- Node1&#45;&gt;Node18 -->
<g id="edge104" class="edge"><title>Node1&#45;&gt;Node18</title>
<path fill="none" stroke="midnightblue" d="M716.857,-316.328C745.792,-300.33 803.841,-263.082 825,-212 830.443,-198.86 830.173,-193.248 825,-180 820.641,-168.837 812.566,-158.645 804.325,-150.356"/>
<polygon fill="midnightblue" stroke="midnightblue" points="806.499,-147.596 796.811,-143.306 801.709,-152.701 806.499,-147.596"/>
</g>
<!-- Node19 -->
<g id="node43" class="node"><title>Node19</title>
<a xlink:href="integrator_8h.html" target="_top" xlink:title="integrator.h">
<polygon fill="white" stroke="black" points="566,-186.5 566,-205.5 632,-205.5 632,-186.5 566,-186.5"/>
<text text-anchor="middle" x="599" y="-193.5" font-family="FreeSans" font-size="10.00">integrator.h</text>
</a>
</g>
<!-- Node1&#45;&gt;Node19 -->
<g id="edge48" class="edge"><title>Node1&#45;&gt;Node19</title>
<path fill="none" stroke="midnightblue" d="M660.953,-316.497C640.838,-309.994 617.886,-298.824 605,-280 592.024,-261.045 592.852,-233.618 595.343,-215.554"/>
<polygon fill="midnightblue" stroke="midnightblue" points="598.797,-216.118 597,-205.677 591.893,-214.96 598.797,-216.118"/>
</g>
<!-- Node20 -->
<g id="node46" class="node"><title>Node20</title>
<a xlink:href="sourceSystem_8h.html" target="_top" xlink:title="sourceSystem.h">
<polygon fill="white" stroke="black" points="193.5,-254.5 193.5,-273.5 282.5,-273.5 282.5,-254.5 193.5,-254.5"/>
<text text-anchor="middle" x="238" y="-261.5" font-family="FreeSans" font-size="10.00">sourceSystem.h</text>
</a>
</g>
<!-- Node1&#45;&gt;Node20 -->
<g id="edge52" class="edge"><title>Node1&#45;&gt;Node20</title>
<path fill="none" stroke="midnightblue" d="M652.292,-318.906C585.077,-310.307 458.673,-294.088 351,-280 331.96,-277.509 311.119,-274.751 292.578,-272.287"/>
<polygon fill="midnightblue" stroke="midnightblue" points="292.915,-268.801 282.541,-270.952 291.992,-275.74 292.915,-268.801"/>
</g>
<!-- Node23 -->
<g id="node55" class="node"><title>Node23</title>
<a xlink:href="quasi2d_8h.html" target="_top" xlink:title="quasi2d.h">
<polygon fill="white" stroke="red" points="330,-186.5 330,-205.5 390,-205.5 390,-186.5 330,-186.5"/>
<text text-anchor="middle" x="360" y="-193.5" font-family="FreeSans" font-size="10.00">quasi2d.h</text>
</a>
</g>
<!-- Node1&#45;&gt;Node23 -->
<g id="edge96" class="edge"><title>Node1&#45;&gt;Node23</title>
<path fill="none" stroke="midnightblue" d="M652.291,-324.148C574.786,-321.804 426.222,-313.006 387,-280 368.189,-264.17 362.377,-235.067 360.643,-215.873"/>
<polygon fill="midnightblue" stroke="midnightblue" points="364.121,-215.419 360.017,-205.651 357.134,-215.846 364.121,-215.419"/>
</g>
<!-- Node24 -->
<g id="node59" class="node"><title>Node24</title>
<polygon fill="white" stroke="#bfbfbf" points="28,-186.5 28,-205.5 138,-205.5 138,-186.5 28,-186.5"/>
<text text-anchor="middle" x="83" y="-193.5" font-family="FreeSans" font-size="10.00">boost/shared_ptr.hpp</text>
</g>
<!-- Node1&#45;&gt;Node24 -->
<g id="edge102" class="edge"><title>Node1&#45;&gt;Node24</title>
<path fill="none" stroke="midnightblue" d="M652.445,-324.425C541.423,-322.514 268.195,-314.357 184,-280 147.778,-265.219 114.543,-232.712 96.6955,-213.052"/>
<polygon fill="midnightblue" stroke="midnightblue" points="99.2689,-210.679 90.0248,-205.502 94.0231,-215.313 99.2689,-210.679"/>
</g>
<!-- Node25 -->
<g id="node61" class="node"><title>Node25</title>
<a xlink:href="diffusionSystem_8h.html" target="_top" xlink:title="diffusionSystem.h">
<polygon fill="white" stroke="black" points="614.5,-254.5 614.5,-273.5 709.5,-273.5 709.5,-254.5 614.5,-254.5"/>
<text text-anchor="middle" x="662" y="-261.5" font-family="FreeSans" font-size="10.00">diffusionSystem.h</text>
</a>
</g>
<!-- Node1&#45;&gt;Node25 -->
<g id="edge72" class="edge"><title>Node1&#45;&gt;Node25</title>
<path fill="none" stroke="midnightblue" d="M694.556,-316.403C688.912,-307.493 679.939,-293.325 672.841,-282.118"/>
<polygon fill="midnightblue" stroke="midnightblue" points="675.742,-280.156 667.434,-273.581 669.828,-283.901 675.742,-280.156"/>
</g>
<!-- Node26 -->
<g id="node66" class="node"><title>Node26</title>
<a xlink:href="convectionSystem_8h.html" target="_top" xlink:title="convectionSystem.h">
<polygon fill="white" stroke="black" points="396.5,-254.5 396.5,-273.5 503.5,-273.5 503.5,-254.5 396.5,-254.5"/>
<text text-anchor="middle" x="450" y="-261.5" font-family="FreeSans" font-size="10.00">convectionSystem.h</text>
</a>
</g>
<!-- Node1&#45;&gt;Node26 -->
<g id="edge80" class="edge"><title>Node1&#45;&gt;Node26</title>
<path fill="none" stroke="midnightblue" d="M664.447,-316.467C620.02,-305.805 543.938,-287.545 495.358,-275.886"/>
<polygon fill="midnightblue" stroke="midnightblue" points="495.971,-272.434 485.431,-273.503 494.338,-279.241 495.971,-272.434"/>
</g>
<!-- Node27 -->
<g id="node74" class="node"><title>Node27</title>
<polygon fill="white" stroke="#bfbfbf" points="446.5,-181 446.5,-211 547.5,-211 547.5,-181 446.5,-181"/>
<text text-anchor="start" x="454.5" y="-199" font-family="FreeSans" font-size="10.00">boost/ptr_container</text>
<text text-anchor="middle" x="497" y="-188" font-family="FreeSans" font-size="10.00">/ptr_vector.hpp</text>
</g>
<!-- Node1&#45;&gt;Node27 -->
<g id="edge100" class="edge"><title>Node1&#45;&gt;Node27</title>
<path fill="none" stroke="midnightblue" d="M672.359,-316.445C649.565,-308.734 616.887,-296.137 591,-280 563.033,-262.566 535.274,-236.729 517.255,-218.523"/>
<polygon fill="midnightblue" stroke="midnightblue" points="519.641,-215.956 510.157,-211.234 514.626,-220.84 519.641,-215.956"/>
</g>
<!-- Node28 -->
<g id="node81" class="node"><title>Node28</title>
<polygon fill="white" stroke="#bfbfbf" points="1298.5,-254.5 1298.5,-273.5 1365.5,-273.5 1365.5,-254.5 1298.5,-254.5"/>
<text text-anchor="middle" x="1332" y="-261.5" font-family="FreeSans" font-size="10.00">tbb/mutex.h</text>
</g>
<!-- Node1&#45;&gt;Node28 -->
<g id="edge106" class="edge"><title>Node1&#45;&gt;Node28</title>
<path fill="none" stroke="midnightblue" d="M747.538,-325.514C848.435,-325.702 1090.99,-321.367 1289,-280 1292.98,-279.169 1297.09,-278.067 1301.13,-276.836"/>
<polygon fill="midnightblue" stroke="midnightblue" points="1302.49,-280.071 1310.87,-273.592 1300.28,-273.429 1302.49,-280.071"/>
</g>
<!-- Node29 -->
<g id="node83" class="node"><title>Node29</title>
<polygon fill="white" stroke="#bfbfbf" points="1383.5,-249 1383.5,-279 1484.5,-279 1484.5,-249 1383.5,-249"/>
<text text-anchor="start" x="1391.5" y="-267" font-family="FreeSans" font-size="10.00">tbb/task_scheduler</text>
<text text-anchor="middle" x="1434" y="-256" font-family="FreeSans" font-size="10.00">_init.h</text>
</g>
<!-- Node1&#45;&gt;Node29 -->
<g id="edge108" class="edge"><title>Node1&#45;&gt;Node29</title>
<path fill="none" stroke="midnightblue" d="M747.718,-324.727C856.926,-323.477 1133.44,-316.769 1373.43,-279.878"/>
<polygon fill="midnightblue" stroke="midnightblue" points="1374.05,-283.324 1383.39,-278.326 1372.97,-276.408 1374.05,-283.324"/>
</g>
<!-- Node3 -->
<g id="node5" class="node"><title>Node3</title>
<a xlink:href="mathUtils_8h.html" target="_top" xlink:title="mathUtils.h">
<polygon fill="white" stroke="red" points="447.5,-56.5 447.5,-75.5 512.5,-75.5 512.5,-56.5 447.5,-56.5"/>
<text text-anchor="middle" x="480" y="-63.5" font-family="FreeSans" font-size="10.00">mathUtils.h</text>
</a>
</g>
<!-- Node2&#45;&gt;Node3 -->
<g id="edge4" class="edge"><title>Node2&#45;&gt;Node3</title>
<path fill="none" stroke="midnightblue" d="M905.273,-118.486C897.251,-116.088 888.323,-113.679 880,-112 751.538,-86.0879 596.641,-73.9916 522.97,-69.3745"/>
<polygon fill="midnightblue" stroke="midnightblue" points="522.898,-65.8637 512.703,-68.7468 522.471,-72.8506 522.898,-65.8637"/>
</g>
<!-- Node5 -->
<g id="node9" class="node"><title>Node5</title>
<polygon fill="white" stroke="#bfbfbf" points="459.5,-0.5 459.5,-19.5 500.5,-19.5 500.5,-0.5 459.5,-0.5"/>
<text text-anchor="middle" x="480" y="-7.5" font-family="FreeSans" font-size="10.00">string</text>
</g>
<!-- Node2&#45;&gt;Node5 -->
<g id="edge10" class="edge"><title>Node2&#45;&gt;Node5</title>
<path fill="none" stroke="midnightblue" d="M902.731,-118.474C895.348,-116.305 887.389,-114.019 880,-112 742.931,-74.5528 578.087,-34.4899 510.832,-18.354"/>
<polygon fill="midnightblue" stroke="midnightblue" points="511.436,-14.8996 500.895,-15.9738 509.805,-21.7071 511.436,-14.8996"/>
</g>
<!-- Node3&#45;&gt;Node4 -->
<g id="edge6" class="edge"><title>Node3&#45;&gt;Node4</title>
<path fill="none" stroke="midnightblue" d="M447.406,-58.4325C397.71,-48.4192 303.202,-29.3765 250.302,-18.7176"/>
<polygon fill="midnightblue" stroke="midnightblue" points="250.797,-15.247 240.302,-16.7027 249.414,-22.1091 250.797,-15.247"/>
</g>
<!-- Node3&#45;&gt;Node5 -->
<g id="edge8" class="edge"><title>Node3&#45;&gt;Node5</title>
<path fill="none" stroke="midnightblue" d="M480,-56.083C480,-49.0059 480,-38.8611 480,-29.9865"/>
<polygon fill="midnightblue" stroke="midnightblue" points="483.5,-29.751 480,-19.7511 476.5,-29.7511 483.5,-29.751"/>
</g>
<!-- Node6&#45;&gt;Node3 -->
<g id="edge30" class="edge"><title>Node6&#45;&gt;Node3</title>
<path fill="none" stroke="midnightblue" d="M1201.72,-258.635C1144.65,-251.561 1042.57,-235.926 1015,-212 979.093,-180.836 1014.88,-140.735 977,-112 941.19,-84.8349 636.848,-72.141 522.866,-68.3075"/>
<polygon fill="midnightblue" stroke="midnightblue" points="522.871,-64.8059 512.761,-67.9742 522.64,-71.8021 522.871,-64.8059"/>
</g>
<!-- Node7 -->
<g id="node14" class="node"><title>Node7</title>
<polygon fill="white" stroke="#bfbfbf" points="1841.5,-186.5 1841.5,-205.5 1960.5,-205.5 1960.5,-186.5 1841.5,-186.5"/>
<text text-anchor="middle" x="1901" y="-193.5" font-family="FreeSans" font-size="10.00">cantera/IdealGasMix.h</text>
</g>
<!-- Node6&#45;&gt;Node7 -->
<g id="edge14" class="edge"><title>Node6&#45;&gt;Node7</title>
<path fill="none" stroke="midnightblue" d="M1264.9,-254.476C1272.8,-251.987 1281.69,-249.527 1290,-248 1527.45,-204.377 1592.95,-245.734 1832,-212 1839.94,-210.88 1848.32,-209.353 1856.41,-207.701"/>
<polygon fill="midnightblue" stroke="midnightblue" points="1857.38,-211.072 1866.43,-205.562 1855.92,-204.226 1857.38,-211.072"/>
</g>
<!-- Node8 -->
<g id="node16" class="node"><title>Node8</title>
<polygon fill="white" stroke="#bfbfbf" points="1978.5,-186.5 1978.5,-205.5 2087.5,-205.5 2087.5,-186.5 1978.5,-186.5"/>
<text text-anchor="middle" x="2033" y="-193.5" font-family="FreeSans" font-size="10.00">cantera/equilibrium.h</text>
</g>
<!-- Node6&#45;&gt;Node8 -->
<g id="edge16" class="edge"><title>Node6&#45;&gt;Node8</title>
<path fill="none" stroke="midnightblue" d="M1264.64,-254.489C1272.6,-251.968 1281.59,-249.487 1290,-248 1587.59,-195.379 1669.82,-254.647 1969,-212 1976.38,-210.948 1984.16,-209.457 1991.65,-207.818"/>
<polygon fill="midnightblue" stroke="midnightblue" points="1992.67,-211.175 2001.63,-205.521 1991.1,-204.353 1992.67,-211.175"/>
</g>
<!-- Node9 -->
<g id="node18" class="node"><title>Node9</title>
<polygon fill="white" stroke="#bfbfbf" points="1024,-186.5 1024,-205.5 1116,-205.5 1116,-186.5 1024,-186.5"/>
<text text-anchor="middle" x="1070" y="-193.5" font-family="FreeSans" font-size="10.00">cantera/thermo.h</text>
</g>
<!-- Node6&#45;&gt;Node9 -->
<g id="edge18" class="edge"><title>Node6&#45;&gt;Node9</title>
<path fill="none" stroke="midnightblue" d="M1218.64,-254.372C1188.73,-242.827 1135.53,-222.293 1101.55,-209.177"/>
<polygon fill="midnightblue" stroke="midnightblue" points="1102.68,-205.861 1092.09,-205.526 1100.16,-212.392 1102.68,-205.861"/>
</g>
<!-- Node10 -->
<g id="node20" class="node"><title>Node10</title>
<polygon fill="white" stroke="#bfbfbf" points="1134.5,-186.5 1134.5,-205.5 1233.5,-205.5 1233.5,-186.5 1134.5,-186.5"/>
<text text-anchor="middle" x="1184" y="-193.5" font-family="FreeSans" font-size="10.00">cantera/transport.h</text>
</g>
<!-- Node6&#45;&gt;Node10 -->
<g id="edge20" class="edge"><title>Node6&#45;&gt;Node10</title>
<path fill="none" stroke="midnightblue" d="M1233.55,-254.372C1224.64,-244.053 1209.52,-226.551 1198.32,-213.585"/>
<polygon fill="midnightblue" stroke="midnightblue" points="1200.82,-211.122 1191.64,-205.841 1195.52,-215.697 1200.82,-211.122"/>
</g>
<!-- Node11 -->
<g id="node22" class="node"><title>Node11</title>
<polygon fill="white" stroke="#bfbfbf" points="1251.5,-186.5 1251.5,-205.5 1346.5,-205.5 1346.5,-186.5 1251.5,-186.5"/>
<text text-anchor="middle" x="1299" y="-193.5" font-family="FreeSans" font-size="10.00">cantera/kinetics.h</text>
</g>
<!-- Node6&#45;&gt;Node11 -->
<g id="edge22" class="edge"><title>Node6&#45;&gt;Node11</title>
<path fill="none" stroke="midnightblue" d="M1248.58,-254.372C1257.65,-244.053 1273.03,-226.551 1284.42,-213.585"/>
<polygon fill="midnightblue" stroke="midnightblue" points="1287.26,-215.663 1291.23,-205.841 1282,-211.042 1287.26,-215.663"/>
</g>
<!-- Node12 -->
<g id="node24" class="node"><title>Node12</title>
<polygon fill="white" stroke="#bfbfbf" points="1365,-186.5 1365,-205.5 1531,-205.5 1531,-186.5 1365,-186.5"/>
<text text-anchor="middle" x="1448" y="-193.5" font-family="FreeSans" font-size="10.00">cantera/thermo/IdealGasPhase.h</text>
</g>
<!-- Node6&#45;&gt;Node12 -->
<g id="edge24" class="edge"><title>Node6&#45;&gt;Node12</title>
<path fill="none" stroke="midnightblue" d="M1268.06,-254.372C1304.81,-242.654 1370.61,-221.674 1411.65,-208.591"/>
<polygon fill="midnightblue" stroke="midnightblue" points="1412.8,-211.898 1421.26,-205.526 1410.67,-205.229 1412.8,-211.898"/>
</g>
<!-- Node13 -->
<g id="node26" class="node"><title>Node13</title>
<polygon fill="white" stroke="#bfbfbf" points="1549,-186.5 1549,-205.5 1701,-205.5 1701,-186.5 1549,-186.5"/>
<text text-anchor="middle" x="1625" y="-193.5" font-family="FreeSans" font-size="10.00">cantera/kinetics/GasKinetics.h</text>
</g>
<!-- Node6&#45;&gt;Node13 -->
<g id="edge26" class="edge"><title>Node6&#45;&gt;Node13</title>
<path fill="none" stroke="midnightblue" d="M1266.23,-254.463C1273.81,-252.12 1282.19,-249.748 1290,-248 1399.55,-223.498 1429.16,-229.757 1540,-212 1549.13,-210.538 1558.79,-208.909 1568.2,-207.28"/>
<polygon fill="midnightblue" stroke="midnightblue" points="1569.03,-210.688 1578.28,-205.519 1567.83,-203.792 1569.03,-210.688"/>
</g>
<!-- Node14 -->
<g id="node28" class="node"><title>Node14</title>
<polygon fill="white" stroke="#bfbfbf" points="1719,-186.5 1719,-205.5 1823,-205.5 1823,-186.5 1719,-186.5"/>
<text text-anchor="middle" x="1771" y="-193.5" font-family="FreeSans" font-size="10.00">cantera/base/ctml.h</text>
</g>
<!-- Node6&#45;&gt;Node14 -->
<g id="edge28" class="edge"><title>Node6&#45;&gt;Node14</title>
<path fill="none" stroke="midnightblue" d="M1265.17,-254.492C1273,-252.035 1281.79,-249.59 1290,-248 1473.93,-212.381 1525.14,-242.461 1710,-212 1716.65,-210.904 1723.65,-209.463 1730.43,-207.907"/>
<polygon fill="midnightblue" stroke="midnightblue" points="1731.25,-211.309 1740.16,-205.572 1729.62,-204.503 1731.25,-211.309"/>
</g>
<!-- Node15&#45;&gt;Node2 -->
<g id="edge34" class="edge"><title>Node15&#45;&gt;Node2</title>
<path fill="none" stroke="midnightblue" d="M724.61,-186.441C729.164,-184.152 734.207,-181.813 739,-180 787.222,-161.759 844.595,-147.431 883.989,-138.666"/>
<polygon fill="midnightblue" stroke="midnightblue" points="884.832,-142.065 893.85,-136.505 883.333,-135.227 884.832,-142.065"/>
</g>
<!-- Node16&#45;&gt;Node2 -->
<g id="edge44" class="edge"><title>Node16&#45;&gt;Node2</title>
<path fill="none" stroke="midnightblue" d="M896.428,-254.208C902.387,-232.627 917.836,-176.675 925.912,-147.426"/>
<polygon fill="midnightblue" stroke="midnightblue" points="929.324,-148.221 928.611,-137.65 922.576,-146.358 929.324,-148.221"/>
</g>
<!-- Node16&#45;&gt;Node3 -->
<g id="edge38" class="edge"><title>Node16&#45;&gt;Node3</title>
<path fill="none" stroke="midnightblue" d="M894.211,-254.452C894.344,-228.356 890.877,-149.241 846,-112 821.481,-91.6527 613.763,-75.7383 522.602,-69.6671"/>
<polygon fill="midnightblue" stroke="midnightblue" points="522.807,-66.1731 512.599,-69.0094 522.348,-73.1581 522.807,-66.1731"/>
</g>
<!-- Node16&#45;&gt;Node17 -->
<g id="edge40" class="edge"><title>Node16&#45;&gt;Node17</title>
<path fill="none" stroke="midnightblue" d="M879.358,-254.372C860.576,-243.304 827.771,-223.972 805.483,-210.838"/>
<polygon fill="midnightblue" stroke="midnightblue" points="807.038,-207.692 796.646,-205.63 803.484,-213.723 807.038,-207.692"/>
</g>
<!-- Node17&#45;&gt;Node18 -->
<g id="edge42" class="edge"><title>Node17&#45;&gt;Node18</title>
<path fill="none" stroke="midnightblue" d="M781.477,-186.372C780.968,-177.971 780.17,-164.811 779.467,-153.213"/>
<polygon fill="midnightblue" stroke="midnightblue" points="782.958,-152.951 778.859,-143.181 775.971,-153.375 782.958,-152.951"/>
</g>
<!-- Node19&#45;&gt;Node3 -->
<g id="edge50" class="edge"><title>Node19&#45;&gt;Node3</title>
<path fill="none" stroke="midnightblue" d="M590.821,-186.202C571.024,-164.908 520.296,-110.344 494.922,-83.0504"/>
<polygon fill="midnightblue" stroke="midnightblue" points="497.295,-80.4632 487.923,-75.5224 492.169,-85.2294 497.295,-80.4632"/>
</g>
<!-- Node20&#45;&gt;Node3 -->
<g id="edge54" class="edge"><title>Node20&#45;&gt;Node3</title>
<path fill="none" stroke="midnightblue" d="M232.728,-254.367C227.054,-244.527 218.39,-227.763 215,-212 205.537,-167.996 198.352,-142.984 231,-112 260.052,-84.4289 374.052,-73.3039 437.243,-69.1846"/>
<polygon fill="midnightblue" stroke="midnightblue" points="437.537,-72.6732 447.3,-68.5602 437.103,-65.6867 437.537,-72.6732"/>
</g>
<!-- Node21 -->
<g id="node49" class="node"><title>Node21</title>
<a xlink:href="sundialsUtils_8h.html" target="_top" xlink:title="sundialsUtils.h">
<polygon fill="white" stroke="red" points="232,-186.5 232,-205.5 312,-205.5 312,-186.5 232,-186.5"/>
<text text-anchor="middle" x="272" y="-193.5" font-family="FreeSans" font-size="10.00">sundialsUtils.h</text>
</a>
</g>
<!-- Node20&#45;&gt;Node21 -->
<g id="edge56" class="edge"><title>Node20&#45;&gt;Node21</title>
<path fill="none" stroke="midnightblue" d="M242.445,-254.372C247.558,-244.446 256.095,-227.874 262.683,-215.086"/>
<polygon fill="midnightblue" stroke="midnightblue" points="265.977,-216.334 267.445,-205.841 259.754,-213.128 265.977,-216.334"/>
</g>
<!-- Node22 -->
<g id="node52" class="node"><title>Node22</title>
<a xlink:href="qssintegrator_8h.html" target="_top" xlink:title="qssintegrator.h">
<polygon fill="white" stroke="black" points="240.5,-118.5 240.5,-137.5 323.5,-137.5 323.5,-118.5 240.5,-118.5"/>
<text text-anchor="middle" x="282" y="-125.5" font-family="FreeSans" font-size="10.00">qssintegrator.h</text>
</a>
</g>
<!-- Node20&#45;&gt;Node22 -->
<g id="edge60" class="edge"><title>Node20&#45;&gt;Node22</title>
<path fill="none" stroke="midnightblue" d="M233.215,-254.339C225.295,-238.766 211.427,-205.301 223,-180 230.093,-164.494 244.485,-151.902 257.279,-143.109"/>
<polygon fill="midnightblue" stroke="midnightblue" points="259.26,-145.997 265.772,-137.64 255.469,-140.112 259.26,-145.997"/>
</g>
<!-- Node20&#45;&gt;Node23 -->
<g id="edge64" class="edge"><title>Node20&#45;&gt;Node23</title>
<path fill="none" stroke="midnightblue" d="M253.949,-254.372C274.591,-243.205 310.781,-223.627 335.068,-210.488"/>
<polygon fill="midnightblue" stroke="midnightblue" points="336.917,-213.467 344.047,-205.63 333.586,-207.31 336.917,-213.467"/>
</g>
<!-- Node20&#45;&gt;Node24 -->
<g id="edge70" class="edge"><title>Node20&#45;&gt;Node24</title>
<path fill="none" stroke="midnightblue" d="M217.736,-254.372C190.932,-242.958 143.488,-222.756 112.65,-209.625"/>
<polygon fill="midnightblue" stroke="midnightblue" points="113.84,-206.328 103.269,-205.63 111.098,-212.768 113.84,-206.328"/>
</g>
<!-- Node21&#45;&gt;Node4 -->
<g id="edge58" class="edge"><title>Node21&#45;&gt;Node4</title>
<path fill="none" stroke="midnightblue" d="M262.44,-186.25C252.8,-176.821 238.328,-160.882 231,-144 214.416,-105.792 211.723,-56.1728 211.612,-29.6537"/>
<polygon fill="midnightblue" stroke="midnightblue" points="215.113,-29.5384 211.695,-19.51 208.113,-29.4809 215.113,-29.5384"/>
</g>
<!-- Node22&#45;&gt;Node3 -->
<g id="edge62" class="edge"><title>Node22&#45;&gt;Node3</title>
<path fill="none" stroke="midnightblue" d="M310.369,-118.403C344.921,-107.933 403.424,-90.2049 441.885,-78.5501"/>
<polygon fill="midnightblue" stroke="midnightblue" points="443.129,-81.8303 451.684,-75.5806 441.099,-75.1311 443.129,-81.8303"/>
</g>
<!-- Node23&#45;&gt;Node3 -->
<g id="edge66" class="edge"><title>Node23&#45;&gt;Node3</title>
<path fill="none" stroke="midnightblue" d="M364.109,-186.454C372.082,-170.483 390.914,-135.59 414,-112 425.942,-99.7969 441.663,-88.9233 454.766,-80.9229"/>
<polygon fill="midnightblue" stroke="midnightblue" points="456.914,-83.7196 463.752,-75.6273 453.36,-77.6888 456.914,-83.7196"/>
</g>
<!-- Node23&#45;&gt;Node5 -->
<g id="edge68" class="edge"><title>Node23&#45;&gt;Node5</title>
<path fill="none" stroke="midnightblue" d="M361.237,-186.479C363.784,-170.843 370.626,-136.892 385,-112 405.298,-76.8493 440.071,-44.1861 461.445,-25.9832"/>
<polygon fill="midnightblue" stroke="midnightblue" points="463.747,-28.6206 469.183,-19.5266 459.263,-23.2458 463.747,-28.6206"/>
</g>
<!-- Node25&#45;&gt;Node3 -->
<g id="edge74" class="edge"><title>Node25&#45;&gt;Node3</title>
<path fill="none" stroke="midnightblue" d="M661.677,-254.49C660.701,-238.578 656.777,-203.781 641,-180 608.592,-131.153 547.255,-97.0058 510.357,-79.8079"/>
<polygon fill="midnightblue" stroke="midnightblue" points="511.642,-76.5475 501.089,-75.605 508.751,-82.9226 511.642,-76.5475"/>
</g>
<!-- Node25&#45;&gt;Node15 -->
<g id="edge76" class="edge"><title>Node25&#45;&gt;Node15</title>
<path fill="none" stroke="midnightblue" d="M668.144,-254.372C675.353,-244.25 687.483,-227.215 696.658,-214.331"/>
<polygon fill="midnightblue" stroke="midnightblue" points="699.754,-216.017 702.704,-205.841 694.052,-211.957 699.754,-216.017"/>
</g>
<!-- Node25&#45;&gt;Node19 -->
<g id="edge78" class="edge"><title>Node25&#45;&gt;Node19</title>
<path fill="none" stroke="midnightblue" d="M653.764,-254.372C643.82,-243.955 626.889,-226.217 614.479,-213.216"/>
<polygon fill="midnightblue" stroke="midnightblue" points="616.876,-210.658 607.439,-205.841 611.812,-215.491 616.876,-210.658"/>
</g>
<!-- Node26&#45;&gt;Node3 -->
<g id="edge82" class="edge"><title>Node26&#45;&gt;Node3</title>
<path fill="none" stroke="midnightblue" d="M446.686,-254.251C441.377,-239.09 432.042,-206.969 437,-180 443.454,-144.891 460.31,-106.56 470.899,-84.7819"/>
<polygon fill="midnightblue" stroke="midnightblue" points="474.067,-86.2708 475.392,-75.7591 467.801,-83.1504 474.067,-86.2708"/>
</g>
<!-- Node26&#45;&gt;Node15 -->
<g id="edge86" class="edge"><title>Node26&#45;&gt;Node15</title>
<path fill="none" stroke="midnightblue" d="M483.594,-254.439C534.218,-241.539 629.328,-217.302 678.234,-204.84"/>
<polygon fill="midnightblue" stroke="midnightblue" points="679.392,-208.157 688.218,-202.296 677.663,-201.374 679.392,-208.157"/>
</g>
<!-- Node26&#45;&gt;Node17 -->
<g id="edge88" class="edge"><title>Node26&#45;&gt;Node17</title>
<path fill="none" stroke="midnightblue" d="M503.605,-256.016C561.839,-247.849 657.353,-232.757 738,-212 741.654,-211.06 745.441,-209.962 749.19,-208.797"/>
<polygon fill="midnightblue" stroke="midnightblue" points="750.495,-212.052 758.909,-205.614 748.317,-205.4 750.495,-212.052"/>
</g>
<!-- Node26&#45;&gt;Node21 -->
<g id="edge84" class="edge"><title>Node26&#45;&gt;Node21</title>
<path fill="none" stroke="midnightblue" d="M426.73,-254.372C395.462,-242.778 339.738,-222.116 304.387,-209.009"/>
<polygon fill="midnightblue" stroke="midnightblue" points="305.587,-205.721 294.994,-205.526 303.153,-212.284 305.587,-205.721"/>
</g>
<!-- Node26&#45;&gt;Node23 -->
<g id="edge90" class="edge"><title>Node26&#45;&gt;Node23</title>
<path fill="none" stroke="midnightblue" d="M438.234,-254.372C423.411,-243.502 397.718,-224.66 379.837,-211.547"/>
<polygon fill="midnightblue" stroke="midnightblue" points="381.903,-208.722 371.769,-205.63 377.763,-214.367 381.903,-208.722"/>
</g>
<!-- Node26&#45;&gt;Node24 -->
<g id="edge92" class="edge"><title>Node26&#45;&gt;Node24</title>
<path fill="none" stroke="midnightblue" d="M402.397,-254.439C335.295,-242.372 213.032,-220.384 140.8,-207.395"/>
<polygon fill="midnightblue" stroke="midnightblue" points="140.98,-203.871 130.518,-205.546 139.741,-210.76 140.98,-203.871"/>
</g>
<!-- Node26&#45;&gt;Node27 -->
<g id="edge94" class="edge"><title>Node26&#45;&gt;Node27</title>
<path fill="none" stroke="midnightblue" d="M456.144,-254.372C462.432,-245.543 472.463,-231.456 481.013,-219.45"/>
<polygon fill="midnightblue" stroke="midnightblue" points="483.951,-221.357 486.901,-211.181 478.249,-217.297 483.951,-221.357"/>
</g>
</g>
</svg>
