<?xml version="1.0" encoding="UTF-8" standalone="no"?>
<!DOCTYPE svg PUBLIC "-//W3C//DTD SVG 1.1//EN"
 "http://www.w3.org/Graphics/SVG/1.1/DTD/svg11.dtd">
<!-- Generated by graphviz version 2.38.0 (20140413.2041)
 -->
<!-- Title: src/flameSolver.h Pages: 1 -->
<svg width="2541pt" height="386pt"
 viewBox="0.00 0.00 2540.50 386.00" xmlns="http://www.w3.org/2000/svg" xmlns:xlink="http://www.w3.org/1999/xlink">
<g id="graph0" class="graph" transform="scale(1 1) rotate(0) translate(4 382)">
<title>src/flameSolver.h</title>
<polygon fill="white" stroke="none" points="-4,4 -4,-382 2536.5,-382 2536.5,4 -4,4"/>
<!-- Node1 -->
<g id="node1" class="node"><title>Node1</title>
<polygon fill="#bfbfbf" stroke="black" points="915.5,-358.5 915.5,-377.5 1005.5,-377.5 1005.5,-358.5 915.5,-358.5"/>
<text text-anchor="middle" x="960.5" y="-365.5" font-family="FreeSans" font-size="10.00">src/flameSolver.h</text>
</g>
<!-- Node2 -->
<g id="node2" class="node"><title>Node2</title>
<g id="a_node2"><a xlink:href="readConfig_8h.html" target="_top" xlink:title="readConfig.h">
<polygon fill="white" stroke="black" points="556.5,-179.5 556.5,-198.5 626.5,-198.5 626.5,-179.5 556.5,-179.5"/>
<text text-anchor="middle" x="591.5" y="-186.5" font-family="FreeSans" font-size="10.00">readConfig.h</text>
</a>
</g>
</g>
<!-- Node1&#45;&gt;Node2 -->
<g id="edge1" class="edge"><title>Node1&#45;&gt;Node2</title>
<path fill="none" stroke="midnightblue" d="M915.448,-364.855C843.331,-360.648 706.053,-349.233 666.5,-322 626.268,-294.299 604.981,-237.528 596.294,-208.293"/>
<polygon fill="midnightblue" stroke="midnightblue" points="599.634,-207.242 593.568,-198.555 592.893,-209.128 599.634,-207.242"/>
</g>
<!-- Node6 -->
<g id="node6" class="node"><title>Node6</title>
<polygon fill="white" stroke="#bfbfbf" points="2114,-0.5 2114,-19.5 2167,-19.5 2167,-0.5 2114,-0.5"/>
<text text-anchor="middle" x="2140.5" y="-7.5" font-family="FreeSans" font-size="10.00">iostream</text>
</g>
<!-- Node1&#45;&gt;Node6 -->
<g id="edge76" class="edge"><title>Node1&#45;&gt;Node6</title>
<path fill="none" stroke="midnightblue" d="M1005.79,-366.387C1230.82,-363.228 2223.31,-347.922 2358.5,-322 2440.45,-306.288 2532.5,-334.94 2532.5,-251.5 2532.5,-251.5 2532.5,-251.5 2532.5,-126.5 2532.5,-52.8265 2274.51,-22.6742 2177.12,-13.9168"/>
<polygon fill="midnightblue" stroke="midnightblue" points="2177.4,-10.4281 2167.14,-13.0437 2176.79,-17.4015 2177.4,-10.4281"/>
</g>
<!-- Node12 -->
<g id="node12" class="node"><title>Node12</title>
<g id="a_node12"><a xlink:href="chemistry0d_8h.html" target="_top" xlink:title="chemistry0d.h">
<polygon fill="white" stroke="black" points="462.5,-179.5 462.5,-198.5 538.5,-198.5 538.5,-179.5 462.5,-179.5"/>
<text text-anchor="middle" x="500.5" y="-186.5" font-family="FreeSans" font-size="10.00">chemistry0d.h</text>
</a>
</g>
</g>
<!-- Node1&#45;&gt;Node12 -->
<g id="edge14" class="edge"><title>Node1&#45;&gt;Node12</title>
<path fill="none" stroke="midnightblue" d="M915.277,-363.987C839.132,-358.36 688.988,-344.723 641.5,-322 584.456,-294.705 534.938,-235.989 512.815,-206.96"/>
<polygon fill="midnightblue" stroke="midnightblue" points="515.405,-204.578 506.62,-198.655 509.794,-208.764 515.405,-204.578"/>
</g>
<!-- Node19 -->
<g id="node19" class="node"><title>Node19</title>
<g id="a_node19"><a xlink:href="grid_8h.html" target="_top" xlink:title="grid.h">
<polygon fill="white" stroke="black" points="668.5,-241 668.5,-260 708.5,-260 708.5,-241 668.5,-241"/>
<text text-anchor="middle" x="688.5" y="-248" font-family="FreeSans" font-size="10.00">grid.h</text>
</a>
</g>
</g>
<!-- Node1&#45;&gt;Node19 -->
<g id="edge22" class="edge"><title>Node1&#45;&gt;Node19</title>
<path fill="none" stroke="midnightblue" d="M915.476,-364.682C851.099,-360.447 737.226,-349.24 707.5,-322 693.362,-309.044 689.298,-286.781 688.339,-270.735"/>
<polygon fill="midnightblue" stroke="midnightblue" points="691.83,-270.285 688.091,-260.372 684.832,-270.453 691.83,-270.285"/>
</g>
<!-- Node20 -->
<g id="node20" class="node"><title>Node20</title>
<g id="a_node20"><a xlink:href="splitSolver_8h.html" target="_top" xlink:title="splitSolver.h">
<polygon fill="white" stroke="black" points="864.5,-302.5 864.5,-321.5 932.5,-321.5 932.5,-302.5 864.5,-302.5"/>
<text text-anchor="middle" x="898.5" y="-309.5" font-family="FreeSans" font-size="10.00">splitSolver.h</text>
</a>
</g>
</g>
<!-- Node1&#45;&gt;Node20 -->
<g id="edge24" class="edge"><title>Node1&#45;&gt;Node20</title>
<path fill="none" stroke="midnightblue" d="M950.539,-358.324C941.373,-350.341 927.563,-338.313 916.472,-328.653"/>
<polygon fill="midnightblue" stroke="midnightblue" points="918.482,-325.762 908.643,-321.834 913.885,-331.041 918.482,-325.762"/>
</g>
<!-- Node21 -->
<g id="node21" class="node"><title>Node21</title>
<g id="a_node21"><a xlink:href="perfTimer_8h.html" target="_top" xlink:title="perfTimer.h">
<polygon fill="white" stroke="black" points="925,-241 925,-260 990,-260 990,-241 925,-241"/>
<text text-anchor="middle" x="957.5" y="-248" font-family="FreeSans" font-size="10.00">perfTimer.h</text>
</a>
</g>
</g>
<!-- Node1&#45;&gt;Node21 -->
<g id="edge32" class="edge"><title>Node1&#45;&gt;Node21</title>
<path fill="none" stroke="midnightblue" d="M960.275,-358.319C959.792,-339.757 958.652,-295.839 957.993,-270.473"/>
<polygon fill="midnightblue" stroke="midnightblue" points="961.487,-270.188 957.728,-260.282 954.489,-270.37 961.487,-270.188"/>
</g>
<!-- Node22 -->
<g id="node22" class="node"><title>Node22</title>
<g id="a_node22"><a xlink:href="tbb__tools_8h.html" target="_top" xlink:title="tbb_tools.h">
<polygon fill="white" stroke="red" points="645,-179.5 645,-198.5 708,-198.5 708,-179.5 645,-179.5"/>
<text text-anchor="middle" x="676.5" y="-186.5" font-family="FreeSans" font-size="10.00">tbb_tools.h</text>
</a>
</g>
</g>
<!-- Node1&#45;&gt;Node22 -->
<g id="edge79" class="edge"><title>Node1&#45;&gt;Node22</title>
<path fill="none" stroke="midnightblue" d="M915.476,-364.111C848.564,-359.056 726.947,-346.706 691.5,-322 657.7,-298.442 652.1,-275.529 659.5,-235 661.188,-225.757 664.675,-215.948 668.054,-207.855"/>
<polygon fill="midnightblue" stroke="midnightblue" points="671.263,-209.252 672.134,-198.693 664.869,-206.405 671.263,-209.252"/>
</g>
<!-- Node25 -->
<g id="node25" class="node"><title>Node25</title>
<g id="a_node25"><a xlink:href="integrator_8h.html" target="_top" xlink:title="integrator.h">
<polygon fill="white" stroke="black" points="765,-241 765,-260 830,-260 830,-241 765,-241"/>
<text text-anchor="middle" x="797.5" y="-248" font-family="FreeSans" font-size="10.00">integrator.h</text>
</a>
</g>
</g>
<!-- Node1&#45;&gt;Node25 -->
<g id="edge33" class="edge"><title>Node1&#45;&gt;Node25</title>
<path fill="none" stroke="midnightblue" d="M930.447,-358.385C908.291,-351.066 878.186,-339.019 855.5,-322 835.972,-307.35 818.946,-284.806 808.481,-269.172"/>
<polygon fill="midnightblue" stroke="midnightblue" points="811.218,-266.959 802.849,-260.463 805.34,-270.76 811.218,-266.959"/>
</g>
<!-- Node26 -->
<g id="node26" class="node"><title>Node26</title>
<g id="a_node26"><a xlink:href="sourceSystem_8h.html" target="_top" xlink:title="sourceSystem.h">
<polygon fill="white" stroke="black" points="2221,-302.5 2221,-321.5 2306,-321.5 2306,-302.5 2221,-302.5"/>
<text text-anchor="middle" x="2263.5" y="-309.5" font-family="FreeSans" font-size="10.00">sourceSystem.h</text>
</a>
</g>
</g>
<!-- Node1&#45;&gt;Node26 -->
<g id="edge35" class="edge"><title>Node1&#45;&gt;Node26</title>
<path fill="none" stroke="midnightblue" d="M1005.73,-365.126C1204.19,-356.901 1997.49,-324.024 2210.58,-315.193"/>
<polygon fill="midnightblue" stroke="midnightblue" points="2211.02,-318.678 2220.87,-314.767 2210.73,-311.684 2211.02,-318.678"/>
</g>
<!-- Node38 -->
<g id="node38" class="node"><title>Node38</title>
<g id="a_node38"><a xlink:href="quasi2d_8h.html" target="_top" xlink:title="quasi2d.h">
<polygon fill="white" stroke="black" points="2447,-241 2447,-260 2504,-260 2504,-241 2447,-241"/>
<text text-anchor="middle" x="2475.5" y="-248" font-family="FreeSans" font-size="10.00">quasi2d.h</text>
</a>
</g>
</g>
<!-- Node1&#45;&gt;Node38 -->
<g id="edge74" class="edge"><title>Node1&#45;&gt;Node38</title>
<path fill="none" stroke="midnightblue" d="M1005.52,-366.521C1225.9,-364.039 2185.63,-351.604 2315.5,-322 2366.77,-310.312 2421.93,-282.155 2452.23,-265.173"/>
<polygon fill="midnightblue" stroke="midnightblue" points="2454.2,-268.078 2461.15,-260.087 2450.73,-261.996 2454.2,-268.078"/>
</g>
<!-- Node39 -->
<g id="node39" class="node"><title>Node39</title>
<g id="a_node39"><a xlink:href="callback_8h.html" target="_top" xlink:title="callback.h">
<polygon fill="white" stroke="black" points="2233.5,-241 2233.5,-260 2293.5,-260 2293.5,-241 2233.5,-241"/>
<text text-anchor="middle" x="2263.5" y="-248" font-family="FreeSans" font-size="10.00">callback.h</text>
</a>
</g>
</g>
<!-- Node1&#45;&gt;Node39 -->
<g id="edge75" class="edge"><title>Node1&#45;&gt;Node39</title>
<path fill="none" stroke="midnightblue" d="M1005.71,-364.764C1115.26,-359.186 1403.53,-343.537 1643.5,-322 1862.64,-302.333 2124.31,-269.498 2223.09,-256.768"/>
<polygon fill="midnightblue" stroke="midnightblue" points="2223.76,-260.21 2233.23,-255.458 2222.86,-253.268 2223.76,-260.21"/>
</g>
<!-- Node41 -->
<g id="node41" class="node"><title>Node41</title>
<polygon fill="white" stroke="#bfbfbf" points="1767.5,-241 1767.5,-260 1873.5,-260 1873.5,-241 1767.5,-241"/>
<text text-anchor="middle" x="1820.5" y="-248" font-family="FreeSans" font-size="10.00">boost/shared_ptr.hpp</text>
</g>
<!-- Node1&#45;&gt;Node41 -->
<g id="edge78" class="edge"><title>Node1&#45;&gt;Node41</title>
<path fill="none" stroke="midnightblue" d="M1005.63,-367.256C1109.68,-367.091 1374.1,-362.355 1590.5,-322 1663.06,-308.468 1745.05,-280.02 1788.87,-263.7"/>
<polygon fill="midnightblue" stroke="midnightblue" points="1790.27,-266.915 1798.39,-260.119 1787.8,-260.363 1790.27,-266.915"/>
</g>
<!-- Node42 -->
<g id="node42" class="node"><title>Node42</title>
<g id="a_node42"><a xlink:href="diffusionSystem_8h.html" target="_top" xlink:title="diffusionSystem.h">
<polygon fill="white" stroke="black" points="717,-302.5 717,-321.5 808,-321.5 808,-302.5 717,-302.5"/>
<text text-anchor="middle" x="762.5" y="-309.5" font-family="FreeSans" font-size="10.00">diffusionSystem.h</text>
</a>
</g>
</g>
<!-- Node1&#45;&gt;Node42 -->
<g id="edge60" class="edge"><title>Node1&#45;&gt;Node42</title>
<path fill="none" stroke="midnightblue" d="M929.126,-358.444C895.237,-349.201 841.097,-334.436 803.776,-324.257"/>
<polygon fill="midnightblue" stroke="midnightblue" points="804.295,-320.771 793.727,-321.516 802.454,-327.524 804.295,-320.771"/>
</g>
<!-- Node43 -->
<g id="node43" class="node"><title>Node43</title>
<g id="a_node43"><a xlink:href="convectionSystem_8h.html" target="_top" xlink:title="convectionSystem.h">
<polygon fill="white" stroke="black" points="1437,-302.5 1437,-321.5 1540,-321.5 1540,-302.5 1437,-302.5"/>
<text text-anchor="middle" x="1488.5" y="-309.5" font-family="FreeSans" font-size="10.00">convectionSystem.h</text>
</a>
</g>
</g>
<!-- Node1&#45;&gt;Node43 -->
<g id="edge64" class="edge"><title>Node1&#45;&gt;Node43</title>
<path fill="none" stroke="midnightblue" d="M1005.52,-362.396C1099.98,-352.735 1319.02,-330.333 1426.61,-319.33"/>
<polygon fill="midnightblue" stroke="midnightblue" points="1427.07,-322.801 1436.66,-318.302 1426.36,-315.837 1427.07,-322.801"/>
</g>
<!-- Node45 -->
<g id="node45" class="node"><title>Node45</title>
<polygon fill="white" stroke="#bfbfbf" points="1650,-235.5 1650,-265.5 1749,-265.5 1749,-235.5 1650,-235.5"/>
<text text-anchor="start" x="1658" y="-253.5" font-family="FreeSans" font-size="10.00">boost/ptr_container</text>
<text text-anchor="middle" x="1699.5" y="-242.5" font-family="FreeSans" font-size="10.00">/ptr_vector.hpp</text>
</g>
<!-- Node1&#45;&gt;Node45 -->
<g id="edge77" class="edge"><title>Node1&#45;&gt;Node45</title>
<path fill="none" stroke="midnightblue" d="M1005.61,-365.641C1124.81,-361.717 1446,-348.893 1548.5,-322 1591.68,-310.67 1637.67,-287.386 1667.39,-270.674"/>
<polygon fill="midnightblue" stroke="midnightblue" points="1669.49,-273.502 1676.44,-265.503 1666.02,-267.423 1669.49,-273.502"/>
</g>
<!-- Node3 -->
<g id="node3" class="node"><title>Node3</title>
<g id="a_node3"><a xlink:href="mathUtils_8h.html" target="_top" xlink:title="mathUtils.h">
<polygon fill="white" stroke="black" points="1940,-118 1940,-137 2005,-137 2005,-118 1940,-118"/>
<text text-anchor="middle" x="1972.5" y="-125" font-family="FreeSans" font-size="10.00">mathUtils.h</text>
</a>
</g>
</g>
<!-- Node2&#45;&gt;Node3 -->
<g id="edge2" class="edge"><title>Node2&#45;&gt;Node3</title>
<path fill="none" stroke="midnightblue" d="M626.96,-180.227C629.84,-179.754 632.713,-179.335 635.5,-179 894.918,-147.783 1730.95,-132.432 1929.78,-129.17"/>
<polygon fill="midnightblue" stroke="midnightblue" points="1929.89,-132.669 1939.83,-129.006 1929.78,-125.67 1929.89,-132.669"/>
</g>
<!-- Node8 -->
<g id="node8" class="node"><title>Node8</title>
<polygon fill="white" stroke="#bfbfbf" points="1725.5,-0.5 1725.5,-19.5 1765.5,-19.5 1765.5,-0.5 1725.5,-0.5"/>
<text text-anchor="middle" x="1745.5" y="-7.5" font-family="FreeSans" font-size="10.00">string</text>
</g>
<!-- Node2&#45;&gt;Node8 -->
<g id="edge13" class="edge"><title>Node2&#45;&gt;Node8</title>
<path fill="none" stroke="midnightblue" d="M626.55,-180.753C629.575,-180.151 632.59,-179.559 635.5,-179 724.193,-161.949 753.212,-180.227 835.5,-143 855.674,-133.873 854.05,-120.49 874.5,-112 1031.92,-46.6428 1580.41,-18.3442 1715.34,-12.2806"/>
<polygon fill="midnightblue" stroke="midnightblue" points="1715.54,-15.7752 1725.38,-11.8366 1715.23,-8.78205 1715.54,-15.7752"/>
</g>
<!-- Node4 -->
<g id="node4" class="node"><title>Node4</title>
<polygon fill="white" stroke="#bfbfbf" points="2119,-56.5 2119,-75.5 2162,-75.5 2162,-56.5 2119,-56.5"/>
<text text-anchor="middle" x="2140.5" y="-63.5" font-family="FreeSans" font-size="10.00">vector</text>
</g>
<!-- Node3&#45;&gt;Node4 -->
<g id="edge3" class="edge"><title>Node3&#45;&gt;Node4</title>
<path fill="none" stroke="midnightblue" d="M1996.57,-117.975C2026.25,-107.462 2076.77,-89.5718 2109.37,-78.0241"/>
<polygon fill="midnightblue" stroke="midnightblue" points="2110.62,-81.2969 2118.87,-74.6591 2108.28,-74.6985 2110.62,-81.2969"/>
</g>
<!-- Node5 -->
<g id="node5" class="node"><title>Node5</title>
<polygon fill="white" stroke="#bfbfbf" points="1950.5,-56.5 1950.5,-75.5 1994.5,-75.5 1994.5,-56.5 1950.5,-56.5"/>
<text text-anchor="middle" x="1972.5" y="-63.5" font-family="FreeSans" font-size="10.00">cmath</text>
</g>
<!-- Node3&#45;&gt;Node5 -->
<g id="edge4" class="edge"><title>Node3&#45;&gt;Node5</title>
<path fill="none" stroke="midnightblue" d="M1972.5,-117.975C1972.5,-109.58 1972.5,-96.4806 1972.5,-85.6631"/>
<polygon fill="midnightblue" stroke="midnightblue" points="1976,-85.5091 1972.5,-75.5091 1969,-85.5091 1976,-85.5091"/>
</g>
<!-- Node3&#45;&gt;Node6 -->
<g id="edge5" class="edge"><title>Node3&#45;&gt;Node6</title>
<path fill="none" stroke="midnightblue" d="M1993.57,-117.852C2014.3,-108.868 2046.42,-93.6656 2071.5,-76 2091.97,-61.582 2112.48,-41.3438 2125.75,-27.2955"/>
<polygon fill="midnightblue" stroke="midnightblue" points="2128.44,-29.5425 2132.68,-19.8302 2123.31,-24.7826 2128.44,-29.5425"/>
</g>
<!-- Node7 -->
<g id="node7" class="node"><title>Node7</title>
<polygon fill="white" stroke="#bfbfbf" points="2012.5,-56.5 2012.5,-75.5 2062.5,-75.5 2062.5,-56.5 2012.5,-56.5"/>
<text text-anchor="middle" x="2037.5" y="-63.5" font-family="FreeSans" font-size="10.00">sstream</text>
</g>
<!-- Node3&#45;&gt;Node7 -->
<g id="edge6" class="edge"><title>Node3&#45;&gt;Node7</title>
<path fill="none" stroke="midnightblue" d="M1981.81,-117.975C1991.95,-108.697 2008.36,-93.6706 2020.75,-82.331"/>
<polygon fill="midnightblue" stroke="midnightblue" points="2023.19,-84.8429 2028.2,-75.5091 2018.46,-79.6795 2023.19,-84.8429"/>
</g>
<!-- Node3&#45;&gt;Node8 -->
<g id="edge7" class="edge"><title>Node3&#45;&gt;Node8</title>
<path fill="none" stroke="midnightblue" d="M1939.96,-122.591C1887.97,-115.71 1789.49,-99.8659 1764.5,-76 1752.02,-64.0839 1747.6,-44.4669 1746.11,-29.8954"/>
<polygon fill="midnightblue" stroke="midnightblue" points="1749.58,-29.2871 1745.44,-19.5346 1742.59,-29.7402 1749.58,-29.2871"/>
</g>
<!-- Node9 -->
<g id="node9" class="node"><title>Node9</title>
<polygon fill="white" stroke="#bfbfbf" points="2344,-56.5 2344,-75.5 2379,-75.5 2379,-56.5 2344,-56.5"/>
<text text-anchor="middle" x="2361.5" y="-63.5" font-family="FreeSans" font-size="10.00">map</text>
</g>
<!-- Node3&#45;&gt;Node9 -->
<g id="edge8" class="edge"><title>Node3&#45;&gt;Node9</title>
<path fill="none" stroke="midnightblue" d="M2005.33,-121.478C2080.44,-109.99 2263.7,-81.9587 2333.7,-71.2524"/>
<polygon fill="midnightblue" stroke="midnightblue" points="2334.57,-74.6598 2343.93,-69.688 2333.51,-67.7403 2334.57,-74.6598"/>
</g>
<!-- Node10 -->
<g id="node10" class="node"><title>Node10</title>
<g id="a_node10"><a xlink:href="debugUtils_8h.html" target="_top" xlink:title="debugUtils.h">
<polygon fill="white" stroke="red" points="1774,-56.5 1774,-75.5 1843,-75.5 1843,-56.5 1774,-56.5"/>
<text text-anchor="middle" x="1808.5" y="-63.5" font-family="FreeSans" font-size="10.00">debugUtils.h</text>
</a>
</g>
</g>
<!-- Node3&#45;&gt;Node10 -->
<g id="edge9" class="edge"><title>Node3&#45;&gt;Node10</title>
<path fill="none" stroke="midnightblue" d="M1949,-117.975C1920.87,-107.769 1873.57,-90.608 1841.71,-79.0492"/>
<polygon fill="midnightblue" stroke="midnightblue" points="1842.55,-75.6295 1831.95,-75.5091 1840.16,-82.2098 1842.55,-75.6295"/>
</g>
<!-- Node11 -->
<g id="node11" class="node"><title>Node11</title>
<polygon fill="white" stroke="#bfbfbf" points="1861,-56.5 1861,-75.5 1932,-75.5 1932,-56.5 1861,-56.5"/>
<text text-anchor="middle" x="1896.5" y="-63.5" font-family="FreeSans" font-size="10.00">Eigen/Dense</text>
</g>
<!-- Node3&#45;&gt;Node11 -->
<g id="edge12" class="edge"><title>Node3&#45;&gt;Node11</title>
<path fill="none" stroke="midnightblue" d="M1961.61,-117.975C1949.53,-108.52 1929.83,-93.0961 1915.26,-81.6871"/>
<polygon fill="midnightblue" stroke="midnightblue" points="1917.4,-78.9177 1907.37,-75.5091 1913.09,-84.4295 1917.4,-78.9177"/>
</g>
<!-- Node10&#45;&gt;Node6 -->
<g id="edge11" class="edge"><title>Node10&#45;&gt;Node6</title>
<path fill="none" stroke="midnightblue" d="M1843.2,-57.5754C1846.01,-57.0247 1848.8,-56.4926 1851.5,-56 1941.84,-39.524 2048.76,-23.8695 2103.76,-16.0979"/>
<polygon fill="midnightblue" stroke="midnightblue" points="2104.31,-19.5547 2113.73,-14.6955 2103.34,-12.623 2104.31,-19.5547"/>
</g>
<!-- Node10&#45;&gt;Node8 -->
<g id="edge10" class="edge"><title>Node10&#45;&gt;Node8</title>
<path fill="none" stroke="midnightblue" d="M1798.38,-56.324C1788.97,-48.2631 1774.76,-36.0765 1763.43,-26.3695"/>
<polygon fill="midnightblue" stroke="midnightblue" points="1765.68,-23.6844 1755.81,-19.8339 1761.12,-28.9993 1765.68,-23.6844"/>
</g>
<!-- Node12&#45;&gt;Node3 -->
<g id="edge16" class="edge"><title>Node12&#45;&gt;Node3</title>
<path fill="none" stroke="midnightblue" d="M538.644,-180.187C541.633,-179.731 544.611,-179.326 547.5,-179 825.405,-147.656 1722.81,-132.302 1929.68,-129.129"/>
<polygon fill="midnightblue" stroke="midnightblue" points="1929.9,-132.626 1939.84,-128.974 1929.79,-125.627 1929.9,-132.626"/>
</g>
<!-- Node13 -->
<g id="node13" class="node"><title>Node13</title>
<g id="a_node13"><a xlink:href="config_8h.html" target="_top" xlink:title="config.h">
<polygon fill="white" stroke="black" points="883.5,-118 883.5,-137 933.5,-137 933.5,-118 883.5,-118"/>
<text text-anchor="middle" x="908.5" y="-125" font-family="FreeSans" font-size="10.00">config.h</text>
</a>
</g>
</g>
<!-- Node12&#45;&gt;Node13 -->
<g id="edge15" class="edge"><title>Node12&#45;&gt;Node13</title>
<path fill="none" stroke="midnightblue" d="M538.683,-180.474C541.663,-179.952 544.628,-179.454 547.5,-179 674.914,-158.859 708.156,-163.579 835.5,-143 847.832,-141.007 861.261,-138.451 873.2,-136.042"/>
<polygon fill="midnightblue" stroke="midnightblue" points="874.151,-139.42 883.243,-133.981 872.743,-132.563 874.151,-139.42"/>
</g>
<!-- Node14 -->
<g id="node14" class="node"><title>Node14</title>
<polygon fill="white" stroke="#bfbfbf" points="0,-118 0,-137 155,-137 155,-118 0,-118"/>
<text text-anchor="middle" x="77.5" y="-125" font-family="FreeSans" font-size="10.00">cantera/transport/MixTransport.h</text>
</g>
<!-- Node12&#45;&gt;Node14 -->
<g id="edge17" class="edge"><title>Node12&#45;&gt;Node14</title>
<path fill="none" stroke="midnightblue" d="M462.282,-183.33C399.73,-175.589 271.62,-159.329 163.5,-143 154.798,-141.686 145.614,-140.221 136.615,-138.741"/>
<polygon fill="midnightblue" stroke="midnightblue" points="137.009,-135.259 126.57,-137.072 135.861,-142.164 137.009,-135.259"/>
</g>
<!-- Node15 -->
<g id="node15" class="node"><title>Node15</title>
<polygon fill="white" stroke="#bfbfbf" points="173,-118 173,-137 334,-137 334,-118 173,-118"/>
<text text-anchor="middle" x="253.5" y="-125" font-family="FreeSans" font-size="10.00">cantera/transport/MultiTransport.h</text>
</g>
<!-- Node12&#45;&gt;Node15 -->
<g id="edge18" class="edge"><title>Node12&#45;&gt;Node15</title>
<path fill="none" stroke="midnightblue" d="M465.111,-179.475C421.274,-168.915 346.534,-150.911 298.62,-139.369"/>
<polygon fill="midnightblue" stroke="midnightblue" points="299.365,-135.948 288.823,-137.009 297.726,-142.754 299.365,-135.948"/>
</g>
<!-- Node16 -->
<g id="node16" class="node"><title>Node16</title>
<polygon fill="white" stroke="#bfbfbf" points="352,-112.5 352,-142.5 485,-142.5 485,-112.5 352,-112.5"/>
<text text-anchor="start" x="360" y="-130.5" font-family="FreeSans" font-size="10.00">cantera/transport/Transport</text>
<text text-anchor="middle" x="418.5" y="-119.5" font-family="FreeSans" font-size="10.00">Factory.h</text>
</g>
<!-- Node12&#45;&gt;Node16 -->
<g id="edge19" class="edge"><title>Node12&#45;&gt;Node16</title>
<path fill="none" stroke="midnightblue" d="M488.751,-179.475C477.646,-171.417 460.565,-159.023 446.027,-148.474"/>
<polygon fill="midnightblue" stroke="midnightblue" points="447.975,-145.563 437.826,-142.523 443.864,-151.229 447.975,-145.563"/>
</g>
<!-- Node17 -->
<g id="node17" class="node"><title>Node17</title>
<polygon fill="white" stroke="#bfbfbf" points="503.5,-118 503.5,-137 661.5,-137 661.5,-118 503.5,-118"/>
<text text-anchor="middle" x="582.5" y="-125" font-family="FreeSans" font-size="10.00">cantera/thermo/IdealGasPhase.h</text>
</g>
<!-- Node12&#45;&gt;Node17 -->
<g id="edge20" class="edge"><title>Node12&#45;&gt;Node17</title>
<path fill="none" stroke="midnightblue" d="M512.249,-179.475C525.279,-170.02 546.536,-154.596 562.259,-143.187"/>
<polygon fill="midnightblue" stroke="midnightblue" points="564.735,-145.715 570.773,-137.009 560.624,-140.049 564.735,-145.715"/>
</g>
<!-- Node18 -->
<g id="node18" class="node"><title>Node18</title>
<polygon fill="white" stroke="#bfbfbf" points="680,-118 680,-137 827,-137 827,-118 680,-118"/>
<text text-anchor="middle" x="753.5" y="-125" font-family="FreeSans" font-size="10.00">cantera/kinetics/GasKinetics.h</text>
</g>
<!-- Node12&#45;&gt;Node18 -->
<g id="edge21" class="edge"><title>Node12&#45;&gt;Node18</title>
<path fill="none" stroke="midnightblue" d="M536.749,-179.475C581.65,-168.915 658.206,-150.911 707.284,-139.369"/>
<polygon fill="midnightblue" stroke="midnightblue" points="708.385,-142.706 717.319,-137.009 706.783,-135.891 708.385,-142.706"/>
</g>
<!-- Node19&#45;&gt;Node2 -->
<g id="edge23" class="edge"><title>Node19&#45;&gt;Node2</title>
<path fill="none" stroke="midnightblue" d="M674.602,-240.975C658.828,-231.299 632.863,-215.372 614.151,-203.894"/>
<polygon fill="midnightblue" stroke="midnightblue" points="615.726,-200.754 605.372,-198.509 612.066,-206.721 615.726,-200.754"/>
</g>
<!-- Node20&#45;&gt;Node2 -->
<g id="edge31" class="edge"><title>Node20&#45;&gt;Node2</title>
<path fill="none" stroke="midnightblue" d="M894.319,-302.231C886.1,-286.034 866.2,-251.567 838.5,-235 762.549,-189.575 727.905,-214.342 636.473,-199.036"/>
<polygon fill="midnightblue" stroke="midnightblue" points="637.009,-195.576 626.548,-197.255 635.773,-202.466 637.009,-195.576"/>
</g>
<!-- Node20&#45;&gt;Node3 -->
<g id="edge25" class="edge"><title>Node20&#45;&gt;Node3</title>
<path fill="none" stroke="midnightblue" d="M896.568,-302.436C892.969,-287.719 884.238,-257.084 869.5,-235 852.804,-209.981 810.707,-200.734 831.5,-179 870.153,-138.599 1726.7,-130.187 1929.66,-128.758"/>
<polygon fill="midnightblue" stroke="midnightblue" points="1929.94,-132.256 1939.91,-128.688 1929.89,-125.257 1929.94,-132.256"/>
</g>
<!-- Node20&#45;&gt;Node21 -->
<g id="edge26" class="edge"><title>Node20&#45;&gt;Node21</title>
<path fill="none" stroke="midnightblue" d="M906.953,-302.475C916.066,-293.285 930.77,-278.456 941.976,-267.156"/>
<polygon fill="midnightblue" stroke="midnightblue" points="944.507,-269.574 949.062,-260.009 939.536,-264.646 944.507,-269.574"/>
</g>
<!-- Node21&#45;&gt;Node22 -->
<g id="edge27" class="edge"><title>Node21&#45;&gt;Node22</title>
<path fill="none" stroke="midnightblue" d="M924.991,-242.616C873.854,-231.788 774.655,-210.784 718.291,-198.849"/>
<polygon fill="midnightblue" stroke="midnightblue" points="718.794,-195.378 708.286,-196.73 717.344,-202.226 718.794,-195.378"/>
</g>
<!-- Node23 -->
<g id="node23" class="node"><title>Node23</title>
<polygon fill="white" stroke="#bfbfbf" points="841,-179.5 841,-198.5 900,-198.5 900,-179.5 841,-179.5"/>
<text text-anchor="middle" x="870.5" y="-186.5" font-family="FreeSans" font-size="10.00">sys/time.h</text>
</g>
<!-- Node21&#45;&gt;Node23 -->
<g id="edge29" class="edge"><title>Node21&#45;&gt;Node23</title>
<path fill="none" stroke="midnightblue" d="M945.035,-240.975C931.081,-231.431 908.235,-215.807 891.509,-204.368"/>
<polygon fill="midnightblue" stroke="midnightblue" points="893.172,-201.265 882.942,-198.509 889.22,-207.043 893.172,-201.265"/>
</g>
<!-- Node24 -->
<g id="node24" class="node"><title>Node24</title>
<polygon fill="white" stroke="#bfbfbf" points="918,-179.5 918,-198.5 961,-198.5 961,-179.5 918,-179.5"/>
<text text-anchor="middle" x="939.5" y="-186.5" font-family="FreeSans" font-size="10.00">time.h</text>
</g>
<!-- Node21&#45;&gt;Node24 -->
<g id="edge30" class="edge"><title>Node21&#45;&gt;Node24</title>
<path fill="none" stroke="midnightblue" d="M954.921,-240.975C952.355,-232.492 948.335,-219.204 945.043,-208.322"/>
<polygon fill="midnightblue" stroke="midnightblue" points="948.32,-207.067 942.074,-198.509 941.62,-209.094 948.32,-207.067"/>
</g>
<!-- Node22&#45;&gt;Node13 -->
<g id="edge28" class="edge"><title>Node22&#45;&gt;Node13</title>
<path fill="none" stroke="midnightblue" d="M708.247,-181.887C746.763,-174.176 813.495,-159.866 869.5,-143 872.07,-142.226 874.716,-141.371 877.361,-140.475"/>
<polygon fill="midnightblue" stroke="midnightblue" points="878.549,-143.768 886.801,-137.123 876.207,-137.171 878.549,-143.768"/>
</g>
<!-- Node25&#45;&gt;Node3 -->
<g id="edge34" class="edge"><title>Node25&#45;&gt;Node3</title>
<path fill="none" stroke="midnightblue" d="M794.28,-240.713C789.441,-225.789 782.464,-195.505 798.5,-179 838.673,-137.652 1723.42,-129.95 1929.76,-128.714"/>
<polygon fill="midnightblue" stroke="midnightblue" points="1929.92,-132.213 1939.9,-128.655 1929.88,-125.213 1929.92,-132.213"/>
</g>
<!-- Node26&#45;&gt;Node3 -->
<g id="edge36" class="edge"><title>Node26&#45;&gt;Node3</title>
<path fill="none" stroke="midnightblue" d="M2273.36,-302.295C2301.91,-276.625 2381.37,-201.621 2361.5,-179 2338.89,-153.27 2111.6,-136.794 2015.28,-130.916"/>
<polygon fill="midnightblue" stroke="midnightblue" points="2015.48,-127.422 2005.29,-130.316 2015.06,-134.41 2015.48,-127.422"/>
</g>
<!-- Node27 -->
<g id="node27" class="node"><title>Node27</title>
<g id="a_node27"><a xlink:href="sundialsUtils_8h.html" target="_top" xlink:title="sundialsUtils.h">
<polygon fill="white" stroke="black" points="1450,-241 1450,-260 1527,-260 1527,-241 1450,-241"/>
<text text-anchor="middle" x="1488.5" y="-248" font-family="FreeSans" font-size="10.00">sundialsUtils.h</text>
</a>
</g>
</g>
<!-- Node26&#45;&gt;Node27 -->
<g id="edge37" class="edge"><title>Node26&#45;&gt;Node27</title>
<path fill="none" stroke="midnightblue" d="M2220.96,-309.697C2086,-305.356 1668.48,-290.266 1535.5,-266 1531.25,-265.224 1526.84,-264.188 1522.5,-263.025"/>
<polygon fill="midnightblue" stroke="midnightblue" points="1523.2,-259.583 1512.62,-260.143 1521.24,-266.303 1523.2,-259.583"/>
</g>
<!-- Node37 -->
<g id="node37" class="node"><title>Node37</title>
<g id="a_node37"><a xlink:href="qssintegrator_8h.html" target="_top" xlink:title="qssintegrator.h">
<polygon fill="white" stroke="black" points="2350,-241 2350,-260 2429,-260 2429,-241 2350,-241"/>
<text text-anchor="middle" x="2389.5" y="-248" font-family="FreeSans" font-size="10.00">qssintegrator.h</text>
</a>
</g>
</g>
<!-- Node26&#45;&gt;Node37 -->
<g id="edge51" class="edge"><title>Node26&#45;&gt;Node37</title>
<path fill="none" stroke="midnightblue" d="M2281.55,-302.475C2302.7,-292.49 2337.94,-275.848 2362.38,-264.307"/>
<polygon fill="midnightblue" stroke="midnightblue" points="2363.93,-267.444 2371.48,-260.009 2360.94,-261.114 2363.93,-267.444"/>
</g>
<!-- Node26&#45;&gt;Node38 -->
<g id="edge53" class="edge"><title>Node26&#45;&gt;Node38</title>
<path fill="none" stroke="midnightblue" d="M2302.12,-302.496C2337.84,-294.296 2392.23,-280.953 2438.5,-266 2440.77,-265.266 2443.1,-264.466 2445.44,-263.63"/>
<polygon fill="midnightblue" stroke="midnightblue" points="2446.78,-266.865 2454.92,-260.079 2444.33,-260.311 2446.78,-266.865"/>
</g>
<!-- Node26&#45;&gt;Node39 -->
<g id="edge56" class="edge"><title>Node26&#45;&gt;Node39</title>
<path fill="none" stroke="midnightblue" d="M2263.5,-302.475C2263.5,-294.08 2263.5,-280.981 2263.5,-270.163"/>
<polygon fill="midnightblue" stroke="midnightblue" points="2267,-270.009 2263.5,-260.009 2260,-270.009 2267,-270.009"/>
</g>
<!-- Node26&#45;&gt;Node41 -->
<g id="edge59" class="edge"><title>Node26&#45;&gt;Node41</title>
<path fill="none" stroke="midnightblue" d="M2220.62,-305.241C2142.14,-294.699 1975.05,-272.258 1883.58,-259.973"/>
<polygon fill="midnightblue" stroke="midnightblue" points="1884,-256.497 1873.62,-258.635 1883.07,-263.435 1884,-256.497"/>
</g>
<!-- Node27&#45;&gt;Node4 -->
<g id="edge48" class="edge"><title>Node27&#45;&gt;Node4</title>
<path fill="none" stroke="midnightblue" d="M1512.62,-240.849C1519.88,-238.574 1527.94,-236.374 1535.5,-235 1600.88,-223.12 2085.5,-245.983 2132.5,-199 2162.31,-169.194 2153.47,-114.233 2146.09,-85.5389"/>
<polygon fill="midnightblue" stroke="midnightblue" points="2149.38,-84.3115 2143.32,-75.6208 2142.64,-86.1936 2149.38,-84.3115"/>
</g>
<!-- Node27&#45;&gt;Node6 -->
<g id="edge47" class="edge"><title>Node27&#45;&gt;Node6</title>
<path fill="none" stroke="midnightblue" d="M1512.13,-240.991C1519.52,-238.662 1527.77,-236.397 1535.5,-235 1603.19,-222.773 2100.91,-243.334 2153.5,-199 2202.43,-157.747 2189.05,-117.257 2170.5,-56 2167.38,-45.7048 2161.05,-35.612 2155,-27.6023"/>
<polygon fill="midnightblue" stroke="midnightblue" points="2157.72,-25.3995 2148.71,-19.8175 2152.27,-29.7968 2157.72,-25.3995"/>
</g>
<!-- Node27&#45;&gt;Node13 -->
<g id="edge50" class="edge"><title>Node27&#45;&gt;Node13</title>
<path fill="none" stroke="midnightblue" d="M1449.73,-249.675C1371.67,-249.033 1190.69,-242.504 1046.5,-199 1002.91,-185.849 956.653,-159.28 930.297,-142.778"/>
<polygon fill="midnightblue" stroke="midnightblue" points="931.845,-139.615 921.53,-137.197 928.086,-145.52 931.845,-139.615"/>
</g>
<!-- Node27&#45;&gt;Node24 -->
<g id="edge49" class="edge"><title>Node27&#45;&gt;Node24</title>
<path fill="none" stroke="midnightblue" d="M1449.95,-247.643C1364.16,-243.088 1151.2,-229.44 975.5,-199 974.032,-198.746 972.536,-198.464 971.028,-198.162"/>
<polygon fill="midnightblue" stroke="midnightblue" points="971.615,-194.707 961.092,-195.945 970.09,-201.539 971.615,-194.707"/>
</g>
<!-- Node28 -->
<g id="node28" class="node"><title>Node28</title>
<polygon fill="white" stroke="#bfbfbf" points="1860.5,-179.5 1860.5,-198.5 1978.5,-198.5 1978.5,-179.5 1860.5,-179.5"/>
<text text-anchor="middle" x="1919.5" y="-186.5" font-family="FreeSans" font-size="10.00">nvector/nvector_serial.h</text>
</g>
<!-- Node27&#45;&gt;Node28 -->
<g id="edge38" class="edge"><title>Node27&#45;&gt;Node28</title>
<path fill="none" stroke="midnightblue" d="M1513.15,-240.951C1520.29,-238.734 1528.14,-236.54 1535.5,-235 1670.61,-206.718 1709.4,-215.816 1849.88,-199.161"/>
<polygon fill="midnightblue" stroke="midnightblue" points="1850.66,-202.592 1860.17,-197.917 1849.82,-195.643 1850.66,-202.592"/>
</g>
<!-- Node29 -->
<g id="node29" class="node"><title>Node29</title>
<polygon fill="white" stroke="#bfbfbf" points="1997,-179.5 1997,-198.5 2124,-198.5 2124,-179.5 1997,-179.5"/>
<text text-anchor="middle" x="2060.5" y="-186.5" font-family="FreeSans" font-size="10.00">sundials/sundials_dense.h</text>
</g>
<!-- Node27&#45;&gt;Node29 -->
<g id="edge39" class="edge"><title>Node27&#45;&gt;Node29</title>
<path fill="none" stroke="midnightblue" d="M1512.64,-240.941C1519.9,-238.668 1527.95,-236.447 1535.5,-235 1730.23,-197.678 1785.24,-218.632 1986.8,-199.013"/>
<polygon fill="midnightblue" stroke="midnightblue" points="1987.21,-202.488 1996.82,-198.016 1986.52,-195.523 1987.21,-202.488"/>
</g>
<!-- Node30 -->
<g id="node30" class="node"><title>Node30</title>
<polygon fill="white" stroke="#bfbfbf" points="1055.5,-179.5 1055.5,-198.5 1177.5,-198.5 1177.5,-179.5 1055.5,-179.5"/>
<text text-anchor="middle" x="1116.5" y="-186.5" font-family="FreeSans" font-size="10.00">sundials/sundials_band.h</text>
</g>
<!-- Node27&#45;&gt;Node30 -->
<g id="edge40" class="edge"><title>Node27&#45;&gt;Node30</title>
<path fill="none" stroke="midnightblue" d="M1449.74,-243.301C1385.72,-233.06 1257.26,-212.514 1179.88,-200.137"/>
<polygon fill="midnightblue" stroke="midnightblue" points="1180.2,-196.645 1169.77,-198.521 1179.1,-203.557 1180.2,-196.645"/>
</g>
<!-- Node31 -->
<g id="node31" class="node"><title>Node31</title>
<polygon fill="white" stroke="#bfbfbf" points="1195.5,-179.5 1195.5,-198.5 1319.5,-198.5 1319.5,-179.5 1195.5,-179.5"/>
<text text-anchor="middle" x="1257.5" y="-186.5" font-family="FreeSans" font-size="10.00">sundials/sundials_types.h</text>
</g>
<!-- Node27&#45;&gt;Node31 -->
<g id="edge41" class="edge"><title>Node27&#45;&gt;Node31</title>
<path fill="none" stroke="midnightblue" d="M1455.4,-240.975C1414.58,-230.459 1345.09,-212.562 1300.26,-201.014"/>
<polygon fill="midnightblue" stroke="midnightblue" points="1301.09,-197.614 1290.54,-198.509 1299.35,-204.393 1301.09,-197.614"/>
</g>
<!-- Node32 -->
<g id="node32" class="node"><title>Node32</title>
<polygon fill="white" stroke="#bfbfbf" points="1337.5,-179.5 1337.5,-198.5 1415.5,-198.5 1415.5,-179.5 1337.5,-179.5"/>
<text text-anchor="middle" x="1376.5" y="-186.5" font-family="FreeSans" font-size="10.00">cvode/cvode.h</text>
</g>
<!-- Node27&#45;&gt;Node32 -->
<g id="edge42" class="edge"><title>Node27&#45;&gt;Node32</title>
<path fill="none" stroke="midnightblue" d="M1472.45,-240.975C1453.91,-231.122 1423.16,-214.788 1401.48,-203.27"/>
<polygon fill="midnightblue" stroke="midnightblue" points="1402.99,-200.11 1392.52,-198.509 1399.71,-206.292 1402.99,-200.11"/>
</g>
<!-- Node33 -->
<g id="node33" class="node"><title>Node33</title>
<polygon fill="white" stroke="#bfbfbf" points="1434,-179.5 1434,-198.5 1543,-198.5 1543,-179.5 1434,-179.5"/>
<text text-anchor="middle" x="1488.5" y="-186.5" font-family="FreeSans" font-size="10.00">cvode/cvode_dense.h</text>
</g>
<!-- Node27&#45;&gt;Node33 -->
<g id="edge43" class="edge"><title>Node27&#45;&gt;Node33</title>
<path fill="none" stroke="midnightblue" d="M1488.5,-240.975C1488.5,-232.58 1488.5,-219.481 1488.5,-208.663"/>
<polygon fill="midnightblue" stroke="midnightblue" points="1492,-208.509 1488.5,-198.509 1485,-208.509 1492,-208.509"/>
</g>
<!-- Node34 -->
<g id="node34" class="node"><title>Node34</title>
<polygon fill="white" stroke="#bfbfbf" points="1561.5,-179.5 1561.5,-198.5 1665.5,-198.5 1665.5,-179.5 1561.5,-179.5"/>
<text text-anchor="middle" x="1613.5" y="-186.5" font-family="FreeSans" font-size="10.00">cvode/cvode_band.h</text>
</g>
<!-- Node27&#45;&gt;Node34 -->
<g id="edge44" class="edge"><title>Node27&#45;&gt;Node34</title>
<path fill="none" stroke="midnightblue" d="M1506.41,-240.975C1527.39,-230.99 1562.35,-214.348 1586.59,-202.807"/>
<polygon fill="midnightblue" stroke="midnightblue" points="1588.1,-205.967 1595.62,-198.509 1585.09,-199.647 1588.1,-205.967"/>
</g>
<!-- Node35 -->
<g id="node35" class="node"><title>Node35</title>
<polygon fill="white" stroke="#bfbfbf" points="1684,-179.5 1684,-198.5 1737,-198.5 1737,-179.5 1684,-179.5"/>
<text text-anchor="middle" x="1710.5" y="-186.5" font-family="FreeSans" font-size="10.00">ida/ida.h</text>
</g>
<!-- Node27&#45;&gt;Node35 -->
<g id="edge45" class="edge"><title>Node27&#45;&gt;Node35</title>
<path fill="none" stroke="midnightblue" d="M1515.28,-240.998C1521.87,-238.971 1528.93,-236.858 1535.5,-235 1561.28,-227.713 1630.56,-210.117 1673.82,-199.213"/>
<polygon fill="midnightblue" stroke="midnightblue" points="1674.85,-202.564 1683.69,-196.728 1673.14,-195.776 1674.85,-202.564"/>
</g>
<!-- Node36 -->
<g id="node36" class="node"><title>Node36</title>
<polygon fill="white" stroke="#bfbfbf" points="1754.5,-179.5 1754.5,-198.5 1842.5,-198.5 1842.5,-179.5 1754.5,-179.5"/>
<text text-anchor="middle" x="1798.5" y="-186.5" font-family="FreeSans" font-size="10.00">ida/ida_spbcgs.h</text>
</g>
<!-- Node27&#45;&gt;Node36 -->
<g id="edge46" class="edge"><title>Node27&#45;&gt;Node36</title>
<path fill="none" stroke="midnightblue" d="M1514.19,-240.915C1521.06,-238.799 1528.52,-236.666 1535.5,-235 1538.05,-234.392 1668.29,-212.178 1744.51,-199.193"/>
<polygon fill="midnightblue" stroke="midnightblue" points="1745.16,-202.633 1754.43,-197.503 1743.99,-195.732 1745.16,-202.633"/>
</g>
<!-- Node37&#45;&gt;Node3 -->
<g id="edge52" class="edge"><title>Node37&#45;&gt;Node3</title>
<path fill="none" stroke="midnightblue" d="M2393.61,-240.872C2399.94,-226.187 2409.81,-196.254 2394.5,-179 2369.58,-150.922 2117.59,-135.572 2015.3,-130.457"/>
<polygon fill="midnightblue" stroke="midnightblue" points="2015.47,-126.961 2005.31,-129.966 2015.13,-133.953 2015.47,-126.961"/>
</g>
<!-- Node38&#45;&gt;Node3 -->
<g id="edge54" class="edge"><title>Node38&#45;&gt;Node3</title>
<path fill="none" stroke="midnightblue" d="M2470.5,-240.718C2461.16,-225.228 2439.44,-193.339 2411.5,-179 2343,-143.848 2112.03,-132.773 2015.48,-129.63"/>
<polygon fill="midnightblue" stroke="midnightblue" points="2015.31,-126.123 2005.2,-129.309 2015.09,-133.119 2015.31,-126.123"/>
</g>
<!-- Node38&#45;&gt;Node9 -->
<g id="edge55" class="edge"><title>Node38&#45;&gt;Node9</title>
<path fill="none" stroke="midnightblue" d="M2471.1,-240.657C2464.29,-227.141 2450.63,-200.636 2437.5,-179 2416.38,-144.193 2389.04,-105.202 2373.57,-83.6312"/>
<polygon fill="midnightblue" stroke="midnightblue" points="2376.41,-81.5809 2367.72,-75.5163 2370.73,-85.6748 2376.41,-81.5809"/>
</g>
<!-- Node39&#45;&gt;Node3 -->
<g id="edge58" class="edge"><title>Node39&#45;&gt;Node3</title>
<path fill="none" stroke="midnightblue" d="M2263.62,-240.621C2263.3,-225.556 2260.34,-195.067 2242.5,-179 2209.7,-149.466 2083.18,-136.24 2015.61,-131.179"/>
<polygon fill="midnightblue" stroke="midnightblue" points="2015.52,-127.664 2005.3,-130.436 2015.02,-134.646 2015.52,-127.664"/>
</g>
<!-- Node40 -->
<g id="node40" class="node"><title>Node40</title>
<polygon fill="white" stroke="#bfbfbf" points="2294.5,-179.5 2294.5,-198.5 2352.5,-198.5 2352.5,-179.5 2294.5,-179.5"/>
<text text-anchor="middle" x="2323.5" y="-186.5" font-family="FreeSans" font-size="10.00">stdexcept</text>
</g>
<!-- Node39&#45;&gt;Node40 -->
<g id="edge57" class="edge"><title>Node39&#45;&gt;Node40</title>
<path fill="none" stroke="midnightblue" d="M2272.1,-240.975C2281.36,-231.785 2296.32,-216.956 2307.71,-205.656"/>
<polygon fill="midnightblue" stroke="midnightblue" points="2310.28,-208.036 2314.92,-198.509 2305.35,-203.065 2310.28,-208.036"/>
</g>
<!-- Node42&#45;&gt;Node3 -->
<g id="edge61" class="edge"><title>Node42&#45;&gt;Node3</title>
<path fill="none" stroke="midnightblue" d="M760.761,-302.419C759.028,-293.399 756.487,-278.77 755.5,-266 752.347,-225.221 750.863,-200.752 785.5,-179 834.861,-148.002 1722.71,-132.37 1929.64,-129.138"/>
<polygon fill="midnightblue" stroke="midnightblue" points="1929.86,-132.635 1939.81,-128.981 1929.76,-125.636 1929.86,-132.635"/>
</g>
<!-- Node42&#45;&gt;Node19 -->
<g id="edge62" class="edge"><title>Node42&#45;&gt;Node19</title>
<path fill="none" stroke="midnightblue" d="M751.898,-302.475C740.248,-293.108 721.314,-277.884 707.165,-266.508"/>
<polygon fill="midnightblue" stroke="midnightblue" points="709.069,-263.548 699.083,-260.009 704.683,-269.003 709.069,-263.548"/>
</g>
<!-- Node42&#45;&gt;Node25 -->
<g id="edge63" class="edge"><title>Node42&#45;&gt;Node25</title>
<path fill="none" stroke="midnightblue" d="M767.515,-302.475C772.661,-293.727 780.812,-279.869 787.318,-268.809"/>
<polygon fill="midnightblue" stroke="midnightblue" points="790.441,-270.403 792.495,-260.009 784.408,-266.854 790.441,-270.403"/>
</g>
<!-- Node43&#45;&gt;Node3 -->
<g id="edge65" class="edge"><title>Node43&#45;&gt;Node3</title>
<path fill="none" stroke="midnightblue" d="M1436.89,-311.575C1297.53,-311.566 931.62,-300.316 1046.5,-179 1077.25,-146.53 1752.23,-132.381 1929.94,-129.21"/>
<polygon fill="midnightblue" stroke="midnightblue" points="1930.02,-132.71 1939.96,-129.034 1929.9,-125.711 1930.02,-132.71"/>
</g>
<!-- Node43&#45;&gt;Node19 -->
<g id="edge67" class="edge"><title>Node43&#45;&gt;Node19</title>
<path fill="none" stroke="midnightblue" d="M1436.69,-310.515C1316.45,-308.804 1009.36,-301.056 755.5,-266 743.315,-264.317 730.047,-261.63 718.558,-259.023"/>
<polygon fill="midnightblue" stroke="midnightblue" points="719.123,-255.561 708.588,-256.683 717.523,-262.375 719.123,-255.561"/>
</g>
<!-- Node43&#45;&gt;Node21 -->
<g id="edge68" class="edge"><title>Node43&#45;&gt;Node21</title>
<path fill="none" stroke="midnightblue" d="M1436.83,-308.796C1349.19,-304.46 1166.06,-292.803 1013.5,-266 1008.06,-265.044 1002.37,-263.83 996.795,-262.512"/>
<polygon fill="midnightblue" stroke="midnightblue" points="997.501,-259.081 986.952,-260.062 995.81,-265.874 997.501,-259.081"/>
</g>
<!-- Node43&#45;&gt;Node27 -->
<g id="edge66" class="edge"><title>Node43&#45;&gt;Node27</title>
<path fill="none" stroke="midnightblue" d="M1488.5,-302.475C1488.5,-294.08 1488.5,-280.981 1488.5,-270.163"/>
<polygon fill="midnightblue" stroke="midnightblue" points="1492,-270.009 1488.5,-260.009 1485,-270.009 1492,-270.009"/>
</g>
<!-- Node43&#45;&gt;Node38 -->
<g id="edge69" class="edge"><title>Node43&#45;&gt;Node38</title>
<path fill="none" stroke="midnightblue" d="M1540.14,-310.762C1712.19,-309.623 2264.81,-303.095 2438.5,-266 2441.51,-265.358 2444.59,-264.5 2447.63,-263.521"/>
<polygon fill="midnightblue" stroke="midnightblue" points="2448.84,-266.803 2457.04,-260.096 2446.45,-260.224 2448.84,-266.803"/>
</g>
<!-- Node43&#45;&gt;Node41 -->
<g id="edge72" class="edge"><title>Node43&#45;&gt;Node41</title>
<path fill="none" stroke="midnightblue" d="M1540.24,-303.296C1594.52,-294.99 1682.26,-280.937 1757.5,-266 1763.28,-264.852 1769.35,-263.564 1775.33,-262.243"/>
<polygon fill="midnightblue" stroke="midnightblue" points="1776.27,-265.618 1785.26,-260.006 1774.74,-258.789 1776.27,-265.618"/>
</g>
<!-- Node44 -->
<g id="node44" class="node"><title>Node44</title>
<g id="a_node44"><a xlink:href="scalarFunction_8h.html" target="_top" xlink:title="scalarFunction.h">
<polygon fill="white" stroke="black" points="1545,-241 1545,-260 1632,-260 1632,-241 1545,-241"/>
<text text-anchor="middle" x="1588.5" y="-248" font-family="FreeSans" font-size="10.00">scalarFunction.h</text>
</a>
</g>
</g>
<!-- Node43&#45;&gt;Node44 -->
<g id="edge70" class="edge"><title>Node43&#45;&gt;Node44</title>
<path fill="none" stroke="midnightblue" d="M1502.83,-302.475C1519.16,-292.755 1546.1,-276.727 1565.41,-265.237"/>
<polygon fill="midnightblue" stroke="midnightblue" points="1567.39,-268.13 1574.2,-260.009 1563.82,-262.115 1567.39,-268.13"/>
</g>
<!-- Node43&#45;&gt;Node45 -->
<g id="edge73" class="edge"><title>Node43&#45;&gt;Node45</title>
<path fill="none" stroke="midnightblue" d="M1518.73,-302.475C1550.25,-293.588 1600.46,-279.429 1639.97,-268.286"/>
<polygon fill="midnightblue" stroke="midnightblue" points="1641.1,-271.606 1649.77,-265.523 1639.2,-264.868 1641.1,-271.606"/>
</g>
<!-- Node44&#45;&gt;Node3 -->
<g id="edge71" class="edge"><title>Node44&#45;&gt;Node3</title>
<path fill="none" stroke="midnightblue" d="M1615.26,-240.943C1623.3,-238.67 1632.19,-236.448 1640.5,-235 1694.5,-225.592 2095.18,-239.148 2132.5,-199 2169.83,-158.835 2074.8,-140.249 2015.62,-132.788"/>
<polygon fill="midnightblue" stroke="midnightblue" points="2015.73,-129.277 2005.39,-131.563 2014.9,-136.227 2015.73,-129.277"/>
</g>
</g>
</svg>
