<?xml version="1.0" encoding="UTF-8" standalone="no"?>
<!DOCTYPE svg PUBLIC "-//W3C//DTD SVG 1.1//EN"
 "http://www.w3.org/Graphics/SVG/1.1/DTD/svg11.dtd">
<!-- Generated by graphviz version 2.38.0 (20140413.2041)
 -->
<!-- Title: src/flameSolver.cpp Pages: 1 -->
<svg width="1888pt" height="386pt"
 viewBox="0.00 0.00 1887.50 386.00" xmlns="http://www.w3.org/2000/svg" xmlns:xlink="http://www.w3.org/1999/xlink">
<g id="graph0" class="graph" transform="scale(1 1) rotate(0) translate(4 382)">
<title>src/flameSolver.cpp</title>
<polygon fill="white" stroke="none" points="-4,4 -4,-382 1883.5,-382 1883.5,4 -4,4"/>
<!-- Node1 -->
<g id="node1" class="node"><title>Node1</title>
<polygon fill="#bfbfbf" stroke="black" points="1707.5,-358.5 1707.5,-377.5 1808.5,-377.5 1808.5,-358.5 1707.5,-358.5"/>
<text text-anchor="middle" x="1758" y="-365.5" font-family="FreeSans" font-size="10.00">src/flameSolver.cpp</text>
</g>
<!-- Node2 -->
<g id="node2" class="node"><title>Node2</title>
<g id="a_node2"><a xlink:href="flameSolver_8h.html" target="_top" xlink:title="flameSolver.h">
<polygon fill="white" stroke="black" points="1043,-302.5 1043,-321.5 1117,-321.5 1117,-302.5 1043,-302.5"/>
<text text-anchor="middle" x="1080" y="-309.5" font-family="FreeSans" font-size="10.00">flameSolver.h</text>
</a>
</g>
</g>
<!-- Node1&#45;&gt;Node2 -->
<g id="edge1" class="edge"><title>Node1&#45;&gt;Node2</title>
<path fill="none" stroke="midnightblue" d="M1707.32,-362.963C1580.51,-352.864 1250.88,-326.61 1127.52,-316.785"/>
<polygon fill="midnightblue" stroke="midnightblue" points="1127.51,-313.273 1117.27,-315.968 1126.96,-320.251 1127.51,-313.273"/>
</g>
<!-- Node27 -->
<g id="node27" class="node"><title>Node27</title>
<g id="a_node27"><a xlink:href="scalarFunction_8h.html" target="_top" xlink:title="scalarFunction.h">
<polygon fill="white" stroke="black" points="1521.5,-185 1521.5,-204 1608.5,-204 1608.5,-185 1521.5,-185"/>
<text text-anchor="middle" x="1565" y="-192" font-family="FreeSans" font-size="10.00">scalarFunction.h</text>
</a>
</g>
</g>
<!-- Node1&#45;&gt;Node27 -->
<g id="edge58" class="edge"><title>Node1&#45;&gt;Node27</title>
<path fill="none" stroke="midnightblue" d="M1748.43,-358.495C1717.75,-331.236 1621.59,-245.783 1582.14,-210.732"/>
<polygon fill="midnightblue" stroke="midnightblue" points="1584.43,-208.082 1574.63,-204.056 1579.78,-213.315 1584.43,-208.082"/>
</g>
<!-- Node29 -->
<g id="node29" class="node"><title>Node29</title>
<polygon fill="white" stroke="#bfbfbf" points="1786.5,-302.5 1786.5,-321.5 1879.5,-321.5 1879.5,-302.5 1786.5,-302.5"/>
<text text-anchor="middle" x="1833" y="-309.5" font-family="FreeSans" font-size="10.00">boost/foreach.hpp</text>
</g>
<!-- Node1&#45;&gt;Node29 -->
<g id="edge59" class="edge"><title>Node1&#45;&gt;Node29</title>
<path fill="none" stroke="midnightblue" d="M1770.05,-358.324C1781.46,-350.107 1798.83,-337.602 1812.43,-327.807"/>
<polygon fill="midnightblue" stroke="midnightblue" points="1814.66,-330.517 1820.73,-321.834 1810.57,-324.837 1814.66,-330.517"/>
</g>
<!-- Node3 -->
<g id="node3" class="node"><title>Node3</title>
<g id="a_node3"><a xlink:href="readConfig_8h.html" target="_top" xlink:title="readConfig.h">
<polygon fill="white" stroke="black" points="620,-123.5 620,-142.5 690,-142.5 690,-123.5 620,-123.5"/>
<text text-anchor="middle" x="655" y="-130.5" font-family="FreeSans" font-size="10.00">readConfig.h</text>
</a>
</g>
</g>
<!-- Node2&#45;&gt;Node3 -->
<g id="edge2" class="edge"><title>Node2&#45;&gt;Node3</title>
<path fill="none" stroke="midnightblue" d="M1042.89,-309.88C943.656,-306.506 677.965,-294.838 652,-266 623.847,-234.732 637.607,-180.443 647.651,-152.219"/>
<polygon fill="midnightblue" stroke="midnightblue" points="650.957,-153.373 651.223,-142.781 644.41,-150.895 650.957,-153.373"/>
</g>
<!-- Node5 -->
<g id="node5" class="node"><title>Node5</title>
<polygon fill="white" stroke="#bfbfbf" points="1140.5,-0.5 1140.5,-19.5 1193.5,-19.5 1193.5,-0.5 1140.5,-0.5"/>
<text text-anchor="middle" x="1167" y="-7.5" font-family="FreeSans" font-size="10.00">iostream</text>
</g>
<!-- Node2&#45;&gt;Node5 -->
<g id="edge54" class="edge"><title>Node2&#45;&gt;Node5</title>
<path fill="none" stroke="midnightblue" d="M1117.35,-309.321C1218.04,-304.529 1493.41,-289.593 1581,-266 1647.89,-247.984 1720,-264.77 1720,-195.5 1720,-195.5 1720,-195.5 1720,-132 1720,-26.0005 1327.36,-12.7246 1203.78,-11.1713"/>
<polygon fill="midnightblue" stroke="midnightblue" points="1203.71,-7.67051 1193.67,-11.0634 1203.63,-14.6701 1203.71,-7.67051"/>
</g>
<!-- Node7 -->
<g id="node7" class="node"><title>Node7</title>
<g id="a_node7"><a xlink:href="chemistry0d_8h.html" target="_top" xlink:title="chemistry0d.h">
<polygon fill="white" stroke="black" points="526,-123.5 526,-142.5 602,-142.5 602,-123.5 526,-123.5"/>
<text text-anchor="middle" x="564" y="-130.5" font-family="FreeSans" font-size="10.00">chemistry0d.h</text>
</a>
</g>
</g>
<!-- Node2&#45;&gt;Node7 -->
<g id="edge7" class="edge"><title>Node2&#45;&gt;Node7</title>
<path fill="none" stroke="midnightblue" d="M1042.82,-311.546C948.616,-312.261 703.292,-309.758 637,-266 596.496,-239.264 576.379,-182.061 568.358,-152.514"/>
<polygon fill="midnightblue" stroke="midnightblue" points="571.711,-151.497 565.859,-142.665 564.926,-153.219 571.711,-151.497"/>
</g>
<!-- Node14 -->
<g id="node14" class="node"><title>Node14</title>
<g id="a_node14"><a xlink:href="grid_8h.html" target="_top" xlink:title="grid.h">
<polygon fill="white" stroke="black" points="1231,-185 1231,-204 1271,-204 1271,-185 1231,-185"/>
<text text-anchor="middle" x="1251" y="-192" font-family="FreeSans" font-size="10.00">grid.h</text>
</a>
</g>
</g>
<!-- Node2&#45;&gt;Node14 -->
<g id="edge15" class="edge"><title>Node2&#45;&gt;Node14</title>
<path fill="none" stroke="midnightblue" d="M1092.85,-302.319C1122.07,-282.586 1193.71,-234.199 1229.67,-209.907"/>
<polygon fill="midnightblue" stroke="midnightblue" points="1231.67,-212.78 1238,-204.282 1227.75,-206.979 1231.67,-212.78"/>
</g>
<!-- Node15 -->
<g id="node15" class="node"><title>Node15</title>
<g id="a_node15"><a xlink:href="splitSolver_8h.html" target="_top" xlink:title="splitSolver.h">
<polygon fill="white" stroke="black" points="661,-246.5 661,-265.5 729,-265.5 729,-246.5 661,-246.5"/>
<text text-anchor="middle" x="695" y="-253.5" font-family="FreeSans" font-size="10.00">splitSolver.h</text>
</a>
</g>
</g>
<!-- Node2&#45;&gt;Node15 -->
<g id="edge17" class="edge"><title>Node2&#45;&gt;Node15</title>
<path fill="none" stroke="midnightblue" d="M1042.82,-306.043C982.268,-297.93 858.6,-281.196 754,-266 749.251,-265.31 744.29,-264.575 739.348,-263.834"/>
<polygon fill="midnightblue" stroke="midnightblue" points="739.716,-260.35 729.306,-262.317 738.671,-267.272 739.716,-260.35"/>
</g>
<!-- Node16 -->
<g id="node16" class="node"><title>Node16</title>
<g id="a_node16"><a xlink:href="perfTimer_8h.html" target="_top" xlink:title="perfTimer.h">
<polygon fill="white" stroke="red" points="717.5,-185 717.5,-204 782.5,-204 782.5,-185 717.5,-185"/>
<text text-anchor="middle" x="750" y="-192" font-family="FreeSans" font-size="10.00">perfTimer.h</text>
</a>
</g>
</g>
<!-- Node2&#45;&gt;Node16 -->
<g id="edge23" class="edge"><title>Node2&#45;&gt;Node16</title>
<path fill="none" stroke="midnightblue" d="M1042.79,-308.767C975.565,-304.139 837.098,-291.715 797,-266 777.701,-253.623 764.48,-230.185 757.09,-213.742"/>
<polygon fill="midnightblue" stroke="midnightblue" points="760.158,-212.008 753.07,-204.133 753.7,-214.709 760.158,-212.008"/>
</g>
<!-- Node17 -->
<g id="node17" class="node"><title>Node17</title>
<g id="a_node17"><a xlink:href="tbb__tools_8h.html" target="_top" xlink:title="tbb_tools.h">
<polygon fill="white" stroke="red" points="779.5,-123.5 779.5,-142.5 842.5,-142.5 842.5,-123.5 779.5,-123.5"/>
<text text-anchor="middle" x="811" y="-130.5" font-family="FreeSans" font-size="10.00">tbb_tools.h</text>
</a>
</g>
</g>
<!-- Node2&#45;&gt;Node17 -->
<g id="edge57" class="edge"><title>Node2&#45;&gt;Node17</title>
<path fill="none" stroke="midnightblue" d="M1042.94,-307.508C987.087,-300.116 882.304,-277.547 830,-210 817.281,-193.574 812.976,-169.692 811.572,-153.1"/>
<polygon fill="midnightblue" stroke="midnightblue" points="815.057,-152.744 810.996,-142.959 808.069,-153.141 815.057,-152.744"/>
</g>
<!-- Node18 -->
<g id="node18" class="node"><title>Node18</title>
<g id="a_node18"><a xlink:href="integrator_8h.html" target="_top" xlink:title="integrator.h">
<polygon fill="white" stroke="black" points="1626.5,-185 1626.5,-204 1691.5,-204 1691.5,-185 1626.5,-185"/>
<text text-anchor="middle" x="1659" y="-192" font-family="FreeSans" font-size="10.00">integrator.h</text>
</a>
</g>
</g>
<!-- Node2&#45;&gt;Node18 -->
<g id="edge24" class="edge"><title>Node2&#45;&gt;Node18</title>
<path fill="none" stroke="midnightblue" d="M1117.31,-309.598C1213.29,-305.644 1466.72,-292.893 1546,-266 1582.76,-253.531 1619.9,-227.099 1641.11,-210.379"/>
<polygon fill="midnightblue" stroke="midnightblue" points="1643.34,-213.081 1648.93,-204.083 1638.95,-207.629 1643.34,-213.081"/>
</g>
<!-- Node19 -->
<g id="node19" class="node"><title>Node19</title>
<g id="a_node19"><a xlink:href="sourceSystem_8h.html" target="_top" xlink:title="sourceSystem.h">
<polygon fill="white" stroke="black" points="998.5,-246.5 998.5,-265.5 1083.5,-265.5 1083.5,-246.5 998.5,-246.5"/>
<text text-anchor="middle" x="1041" y="-253.5" font-family="FreeSans" font-size="10.00">sourceSystem.h</text>
</a>
</g>
</g>
<!-- Node2&#45;&gt;Node19 -->
<g id="edge26" class="edge"><title>Node2&#45;&gt;Node19</title>
<path fill="none" stroke="midnightblue" d="M1073.56,-302.083C1068.05,-294.455 1059.97,-283.264 1053.24,-273.941"/>
<polygon fill="midnightblue" stroke="midnightblue" points="1056.01,-271.809 1047.32,-265.751 1050.34,-275.907 1056.01,-271.809"/>
</g>
<!-- Node22 -->
<g id="node22" class="node"><title>Node22</title>
<g id="a_node22"><a xlink:href="quasi2d_8h.html" target="_top" xlink:title="quasi2d.h">
<polygon fill="white" stroke="red" points="917.5,-185 917.5,-204 974.5,-204 974.5,-185 917.5,-185"/>
<text text-anchor="middle" x="946" y="-192" font-family="FreeSans" font-size="10.00">quasi2d.h</text>
</a>
</g>
</g>
<!-- Node2&#45;&gt;Node22 -->
<g id="edge52" class="edge"><title>Node2&#45;&gt;Node22</title>
<path fill="none" stroke="midnightblue" d="M1054.08,-302.418C1034.76,-295.052 1008.61,-282.93 990,-266 973.873,-251.326 961.453,-229.409 953.983,-213.913"/>
<polygon fill="midnightblue" stroke="midnightblue" points="956.963,-212.015 949.618,-204.38 950.599,-214.929 956.963,-212.015"/>
</g>
<!-- Node23 -->
<g id="node23" class="node"><title>Node23</title>
<g id="a_node23"><a xlink:href="callback_8h.html" target="_top" xlink:title="callback.h">
<polygon fill="white" stroke="red" points="839,-185 839,-204 899,-204 899,-185 839,-185"/>
<text text-anchor="middle" x="869" y="-192" font-family="FreeSans" font-size="10.00">callback.h</text>
</a>
</g>
</g>
<!-- Node2&#45;&gt;Node23 -->
<g id="edge53" class="edge"><title>Node2&#45;&gt;Node23</title>
<path fill="none" stroke="midnightblue" d="M1054.12,-302.41C1031.12,-294.339 996.926,-281.242 969,-266 938.926,-249.585 907.051,-225.868 887.583,-210.567"/>
<polygon fill="midnightblue" stroke="midnightblue" points="889.567,-207.673 879.563,-204.185 885.209,-213.15 889.567,-207.673"/>
</g>
<!-- Node24 -->
<g id="node24" class="node"><title>Node24</title>
<polygon fill="white" stroke="#bfbfbf" points="1107,-185 1107,-204 1213,-204 1213,-185 1107,-185"/>
<text text-anchor="middle" x="1160" y="-192" font-family="FreeSans" font-size="10.00">boost/shared_ptr.hpp</text>
</g>
<!-- Node2&#45;&gt;Node24 -->
<g id="edge56" class="edge"><title>Node2&#45;&gt;Node24</title>
<path fill="none" stroke="midnightblue" d="M1086.01,-302.319C1099.16,-283.339 1130.67,-237.848 1148.03,-212.788"/>
<polygon fill="midnightblue" stroke="midnightblue" points="1151.1,-214.496 1153.92,-204.282 1145.35,-210.51 1151.1,-214.496"/>
</g>
<!-- Node25 -->
<g id="node25" class="node"><title>Node25</title>
<g id="a_node25"><a xlink:href="diffusionSystem_8h.html" target="_top" xlink:title="diffusionSystem.h">
<polygon fill="white" stroke="black" points="1445.5,-246.5 1445.5,-265.5 1536.5,-265.5 1536.5,-246.5 1445.5,-246.5"/>
<text text-anchor="middle" x="1491" y="-253.5" font-family="FreeSans" font-size="10.00">diffusionSystem.h</text>
</a>
</g>
</g>
<!-- Node2&#45;&gt;Node25 -->
<g id="edge38" class="edge"><title>Node2&#45;&gt;Node25</title>
<path fill="none" stroke="midnightblue" d="M1117.2,-306.113C1189.64,-296.595 1349.98,-275.528 1435.21,-264.33"/>
<polygon fill="midnightblue" stroke="midnightblue" points="1435.76,-267.788 1445.22,-263.015 1434.85,-260.848 1435.76,-267.788"/>
</g>
<!-- Node26 -->
<g id="node26" class="node"><title>Node26</title>
<g id="a_node26"><a xlink:href="convectionSystem_8h.html" target="_top" xlink:title="convectionSystem.h">
<polygon fill="white" stroke="black" points="1199.5,-246.5 1199.5,-265.5 1302.5,-265.5 1302.5,-246.5 1199.5,-246.5"/>
<text text-anchor="middle" x="1251" y="-253.5" font-family="FreeSans" font-size="10.00">convectionSystem.h</text>
</a>
</g>
</g>
<!-- Node2&#45;&gt;Node26 -->
<g id="edge42" class="edge"><title>Node2&#45;&gt;Node26</title>
<path fill="none" stroke="midnightblue" d="M1107.1,-302.444C1135.99,-293.32 1181.92,-278.813 1214.11,-268.651"/>
<polygon fill="midnightblue" stroke="midnightblue" points="1215.55,-271.865 1224.03,-265.516 1213.44,-265.19 1215.55,-271.865"/>
</g>
<!-- Node28 -->
<g id="node28" class="node"><title>Node28</title>
<polygon fill="white" stroke="#bfbfbf" points="1365.5,-179.5 1365.5,-209.5 1464.5,-209.5 1464.5,-179.5 1365.5,-179.5"/>
<text text-anchor="start" x="1373.5" y="-197.5" font-family="FreeSans" font-size="10.00">boost/ptr_container</text>
<text text-anchor="middle" x="1415" y="-186.5" font-family="FreeSans" font-size="10.00">/ptr_vector.hpp</text>
</g>
<!-- Node2&#45;&gt;Node28 -->
<g id="edge55" class="edge"><title>Node2&#45;&gt;Node28</title>
<path fill="none" stroke="midnightblue" d="M1117.1,-308.472C1164.06,-304.237 1246.7,-293.294 1312,-266 1341.39,-253.716 1370.99,-232.293 1390.87,-216.278"/>
<polygon fill="midnightblue" stroke="midnightblue" points="1393.26,-218.842 1398.76,-209.788 1388.81,-213.434 1393.26,-218.842"/>
</g>
<!-- Node4 -->
<g id="node4" class="node"><title>Node4</title>
<g id="a_node4"><a xlink:href="mathUtils_8h.html" target="_top" xlink:title="mathUtils.h">
<polygon fill="white" stroke="red" points="970.5,-62 970.5,-81 1035.5,-81 1035.5,-62 970.5,-62"/>
<text text-anchor="middle" x="1003" y="-69" font-family="FreeSans" font-size="10.00">mathUtils.h</text>
</a>
</g>
</g>
<!-- Node3&#45;&gt;Node4 -->
<g id="edge3" class="edge"><title>Node3&#45;&gt;Node4</title>
<path fill="none" stroke="midnightblue" d="M690.04,-125.425C694.729,-124.586 699.479,-123.757 704,-123 809.512,-105.335 836.98,-107.388 942,-87 947.887,-85.8571 954.066,-84.5345 960.137,-83.1626"/>
<polygon fill="midnightblue" stroke="midnightblue" points="961.235,-86.5009 970.185,-80.8301 959.652,-79.6823 961.235,-86.5009"/>
</g>
<!-- Node6 -->
<g id="node6" class="node"><title>Node6</title>
<polygon fill="white" stroke="#bfbfbf" points="909,-0.5 909,-19.5 949,-19.5 949,-0.5 909,-0.5"/>
<text text-anchor="middle" x="929" y="-7.5" font-family="FreeSans" font-size="10.00">string</text>
</g>
<!-- Node3&#45;&gt;Node6 -->
<g id="edge6" class="edge"><title>Node3&#45;&gt;Node6</title>
<path fill="none" stroke="midnightblue" d="M690.081,-125.112C734.923,-115.986 809.775,-99.5745 835,-87 837.14,-85.9334 883.886,-47.8573 910.634,-26.0144"/>
<polygon fill="midnightblue" stroke="midnightblue" points="913.004,-28.5977 918.534,-19.5604 908.575,-23.1768 913.004,-28.5977"/>
</g>
<!-- Node4&#45;&gt;Node5 -->
<g id="edge4" class="edge"><title>Node4&#45;&gt;Node5</title>
<path fill="none" stroke="midnightblue" d="M1026.5,-61.9751C1054.63,-51.7687 1101.93,-34.608 1133.79,-23.0492"/>
<polygon fill="midnightblue" stroke="midnightblue" points="1135.34,-26.2098 1143.55,-19.5091 1132.95,-19.6295 1135.34,-26.2098"/>
</g>
<!-- Node4&#45;&gt;Node6 -->
<g id="edge5" class="edge"><title>Node4&#45;&gt;Node6</title>
<path fill="none" stroke="midnightblue" d="M992.398,-61.9751C980.748,-52.6082 961.814,-37.3839 947.665,-26.0081"/>
<polygon fill="midnightblue" stroke="midnightblue" points="949.569,-23.0477 939.583,-19.5091 945.183,-28.503 949.569,-23.0477"/>
</g>
<!-- Node7&#45;&gt;Node4 -->
<g id="edge9" class="edge"><title>Node7&#45;&gt;Node4</title>
<path fill="none" stroke="midnightblue" d="M602.175,-124.422C605.156,-123.912 608.124,-123.431 611,-123 757.344,-101.067 796.176,-112.16 942,-87 947.979,-85.9685 954.245,-84.6988 960.391,-83.3436"/>
<polygon fill="midnightblue" stroke="midnightblue" points="961.586,-86.6603 970.548,-81.0091 960.018,-79.8381 961.586,-86.6603"/>
</g>
<!-- Node8 -->
<g id="node8" class="node"><title>Node8</title>
<g id="a_node8"><a xlink:href="config_8h.html" target="_top" xlink:title="config.h">
<polygon fill="white" stroke="black" points="883,-62 883,-81 933,-81 933,-62 883,-62"/>
<text text-anchor="middle" x="908" y="-69" font-family="FreeSans" font-size="10.00">config.h</text>
</a>
</g>
</g>
<!-- Node7&#45;&gt;Node8 -->
<g id="edge8" class="edge"><title>Node7&#45;&gt;Node8</title>
<path fill="none" stroke="midnightblue" d="M602.202,-124.586C605.177,-124.039 608.136,-123.504 611,-123 710.306,-105.516 735.755,-104.825 835,-87 847.295,-84.7916 860.716,-82.1832 872.657,-79.7919"/>
<polygon fill="midnightblue" stroke="midnightblue" points="873.596,-83.1729 882.705,-77.7618 872.21,-76.3115 873.596,-83.1729"/>
</g>
<!-- Node9 -->
<g id="node9" class="node"><title>Node9</title>
<polygon fill="white" stroke="#bfbfbf" points="341.5,-62 341.5,-81 496.5,-81 496.5,-62 341.5,-62"/>
<text text-anchor="middle" x="419" y="-69" font-family="FreeSans" font-size="10.00">cantera/transport/MixTransport.h</text>
</g>
<!-- Node7&#45;&gt;Node9 -->
<g id="edge10" class="edge"><title>Node7&#45;&gt;Node9</title>
<path fill="none" stroke="midnightblue" d="M543.225,-123.475C518.568,-113.357 477.255,-96.4046 449.098,-84.8507"/>
<polygon fill="midnightblue" stroke="midnightblue" points="450.317,-81.5674 439.736,-81.0091 447.659,-88.0434 450.317,-81.5674"/>
</g>
<!-- Node10 -->
<g id="node10" class="node"><title>Node10</title>
<polygon fill="white" stroke="#bfbfbf" points="514.5,-62 514.5,-81 675.5,-81 675.5,-62 514.5,-62"/>
<text text-anchor="middle" x="595" y="-69" font-family="FreeSans" font-size="10.00">cantera/transport/MultiTransport.h</text>
</g>
<!-- Node7&#45;&gt;Node10 -->
<g id="edge11" class="edge"><title>Node7&#45;&gt;Node10</title>
<path fill="none" stroke="midnightblue" d="M568.442,-123.475C572.953,-114.815 580.074,-101.149 585.807,-90.1453"/>
<polygon fill="midnightblue" stroke="midnightblue" points="589.05,-91.4948 590.567,-81.0091 582.842,-88.2604 589.05,-91.4948"/>
</g>
<!-- Node11 -->
<g id="node11" class="node"><title>Node11</title>
<polygon fill="white" stroke="#bfbfbf" points="693.5,-56.5 693.5,-86.5 826.5,-86.5 826.5,-56.5 693.5,-56.5"/>
<text text-anchor="start" x="701.5" y="-74.5" font-family="FreeSans" font-size="10.00">cantera/transport/Transport</text>
<text text-anchor="middle" x="760" y="-63.5" font-family="FreeSans" font-size="10.00">Factory.h</text>
</g>
<!-- Node7&#45;&gt;Node11 -->
<g id="edge12" class="edge"><title>Node7&#45;&gt;Node11</title>
<path fill="none" stroke="midnightblue" d="M592.082,-123.475C621.108,-114.664 667.21,-100.668 703.77,-89.5698"/>
<polygon fill="midnightblue" stroke="midnightblue" points="705.255,-92.7769 713.807,-86.523 703.221,-86.0788 705.255,-92.7769"/>
</g>
<!-- Node12 -->
<g id="node12" class="node"><title>Node12</title>
<polygon fill="white" stroke="#bfbfbf" points="0,-62 0,-81 158,-81 158,-62 0,-62"/>
<text text-anchor="middle" x="79" y="-69" font-family="FreeSans" font-size="10.00">cantera/thermo/IdealGasPhase.h</text>
</g>
<!-- Node7&#45;&gt;Node12 -->
<g id="edge13" class="edge"><title>Node7&#45;&gt;Node12</title>
<path fill="none" stroke="midnightblue" d="M525.873,-128.324C455.04,-121.352 298.398,-105.261 167,-87 157.666,-85.7029 147.797,-84.203 138.174,-82.6701"/>
<polygon fill="midnightblue" stroke="midnightblue" points="138.699,-79.2096 128.268,-81.0678 137.581,-86.1198 138.699,-79.2096"/>
</g>
<!-- Node13 -->
<g id="node13" class="node"><title>Node13</title>
<polygon fill="white" stroke="#bfbfbf" points="176.5,-62 176.5,-81 323.5,-81 323.5,-62 176.5,-62"/>
<text text-anchor="middle" x="250" y="-69" font-family="FreeSans" font-size="10.00">cantera/kinetics/GasKinetics.h</text>
</g>
<!-- Node7&#45;&gt;Node13 -->
<g id="edge14" class="edge"><title>Node7&#45;&gt;Node13</title>
<path fill="none" stroke="midnightblue" d="M525.811,-124.764C470.695,-114.32 368.532,-94.9607 305.207,-82.9612"/>
<polygon fill="midnightblue" stroke="midnightblue" points="305.484,-79.4514 295.007,-81.0284 304.18,-86.329 305.484,-79.4514"/>
</g>
<!-- Node14&#45;&gt;Node3 -->
<g id="edge16" class="edge"><title>Node14&#45;&gt;Node3</title>
<path fill="none" stroke="midnightblue" d="M1236.69,-184.981C1232.14,-182.652 1226.99,-180.388 1222,-179 1220.43,-178.563 835.251,-148.196 700.722,-137.6"/>
<polygon fill="midnightblue" stroke="midnightblue" points="700.6,-134.08 690.356,-136.784 700.05,-141.058 700.6,-134.08"/>
</g>
<!-- Node15&#45;&gt;Node3 -->
<g id="edge22" class="edge"><title>Node15&#45;&gt;Node3</title>
<path fill="none" stroke="midnightblue" d="M690.584,-246.206C686.212,-237.258 679.533,-222.906 675,-210 668.233,-190.733 662.542,-168.017 658.982,-152.47"/>
<polygon fill="midnightblue" stroke="midnightblue" points="662.368,-151.572 656.782,-142.569 655.535,-153.09 662.368,-151.572"/>
</g>
<!-- Node15&#45;&gt;Node4 -->
<g id="edge18" class="edge"><title>Node15&#45;&gt;Node4</title>
<path fill="none" stroke="midnightblue" d="M694.697,-246.429C694.546,-231.702 695.873,-201.051 708,-179 725.893,-146.464 736.902,-139.832 770,-123 839.616,-87.5972 865.779,-104.032 942,-87 947.921,-85.6769 954.155,-84.2427 960.285,-82.8083"/>
<polygon fill="midnightblue" stroke="midnightblue" points="961.502,-86.1175 970.43,-80.4141 959.894,-79.3046 961.502,-86.1175"/>
</g>
<!-- Node15&#45;&gt;Node16 -->
<g id="edge19" class="edge"><title>Node15&#45;&gt;Node16</title>
<path fill="none" stroke="midnightblue" d="M702.88,-246.475C711.294,-237.373 724.819,-222.741 735.226,-211.483"/>
<polygon fill="midnightblue" stroke="midnightblue" points="737.917,-213.728 742.134,-204.009 732.776,-208.977 737.917,-213.728"/>
</g>
<!-- Node16&#45;&gt;Node17 -->
<g id="edge20" class="edge"><title>Node16&#45;&gt;Node17</title>
<path fill="none" stroke="midnightblue" d="M758.74,-184.975C768.162,-175.785 783.364,-160.956 794.949,-149.656"/>
<polygon fill="midnightblue" stroke="midnightblue" points="797.562,-151.997 802.276,-142.509 792.674,-146.986 797.562,-151.997"/>
</g>
<!-- Node17&#45;&gt;Node8 -->
<g id="edge21" class="edge"><title>Node17&#45;&gt;Node8</title>
<path fill="none" stroke="midnightblue" d="M824.898,-123.475C840.672,-113.799 866.637,-97.8721 885.349,-86.3941"/>
<polygon fill="midnightblue" stroke="midnightblue" points="887.434,-89.2213 894.128,-81.0091 883.774,-83.2544 887.434,-89.2213"/>
</g>
<!-- Node18&#45;&gt;Node4 -->
<g id="edge25" class="edge"><title>Node18&#45;&gt;Node4</title>
<path fill="none" stroke="midnightblue" d="M1647.59,-184.932C1626.35,-169.489 1578.7,-137.266 1533,-123 1442.18,-94.652 1154.71,-79.2402 1045.58,-74.2905"/>
<polygon fill="midnightblue" stroke="midnightblue" points="1045.73,-70.794 1035.59,-73.8441 1045.42,-77.787 1045.73,-70.794"/>
</g>
<!-- Node19&#45;&gt;Node4 -->
<g id="edge27" class="edge"><title>Node19&#45;&gt;Node4</title>
<path fill="none" stroke="midnightblue" d="M1039.17,-246.198C1033.31,-218.073 1014.96,-129.958 1006.88,-91.1575"/>
<polygon fill="midnightblue" stroke="midnightblue" points="1010.28,-90.2906 1004.81,-81.214 1003.43,-91.7176 1010.28,-90.2906"/>
</g>
<!-- Node20 -->
<g id="node20" class="node"><title>Node20</title>
<g id="a_node20"><a xlink:href="sundialsUtils_8h.html" target="_top" xlink:title="sundialsUtils.h">
<polygon fill="white" stroke="red" points="1128.5,-123.5 1128.5,-142.5 1205.5,-142.5 1205.5,-123.5 1128.5,-123.5"/>
<text text-anchor="middle" x="1167" y="-130.5" font-family="FreeSans" font-size="10.00">sundialsUtils.h</text>
</a>
</g>
</g>
<!-- Node19&#45;&gt;Node20 -->
<g id="edge28" class="edge"><title>Node19&#45;&gt;Node20</title>
<path fill="none" stroke="midnightblue" d="M1046.14,-246.248C1055.24,-231.247 1075.37,-200.194 1098,-179 1111.06,-166.768 1127.84,-155.743 1141.58,-147.667"/>
<polygon fill="midnightblue" stroke="midnightblue" points="1143.57,-150.562 1150.52,-142.569 1140.1,-144.48 1143.57,-150.562"/>
</g>
<!-- Node21 -->
<g id="node21" class="node"><title>Node21</title>
<g id="a_node21"><a xlink:href="qssintegrator_8h.html" target="_top" xlink:title="qssintegrator.h">
<polygon fill="white" stroke="black" points="1031.5,-123.5 1031.5,-142.5 1110.5,-142.5 1110.5,-123.5 1031.5,-123.5"/>
<text text-anchor="middle" x="1071" y="-130.5" font-family="FreeSans" font-size="10.00">qssintegrator.h</text>
</a>
</g>
</g>
<!-- Node19&#45;&gt;Node21 -->
<g id="edge31" class="edge"><title>Node19&#45;&gt;Node21</title>
<path fill="none" stroke="midnightblue" d="M1043.16,-246.298C1048,-226.763 1059.83,-179.065 1066.4,-152.547"/>
<polygon fill="midnightblue" stroke="midnightblue" points="1069.85,-153.172 1068.86,-142.623 1063.06,-151.487 1069.85,-153.172"/>
</g>
<!-- Node19&#45;&gt;Node22 -->
<g id="edge33" class="edge"><title>Node19&#45;&gt;Node22</title>
<path fill="none" stroke="midnightblue" d="M1027.39,-246.475C1011.94,-236.799 986.51,-220.872 968.184,-209.394"/>
<polygon fill="midnightblue" stroke="midnightblue" points="969.919,-206.351 959.586,-204.009 966.203,-212.283 969.919,-206.351"/>
</g>
<!-- Node19&#45;&gt;Node23 -->
<g id="edge35" class="edge"><title>Node19&#45;&gt;Node23</title>
<path fill="none" stroke="midnightblue" d="M1014.93,-246.432C988.054,-237.543 944.984,-223.129 908,-210 905.76,-209.205 903.451,-208.374 901.129,-207.531"/>
<polygon fill="midnightblue" stroke="midnightblue" points="902.237,-204.21 891.643,-204.048 899.824,-210.781 902.237,-204.21"/>
</g>
<!-- Node19&#45;&gt;Node24 -->
<g id="edge37" class="edge"><title>Node19&#45;&gt;Node24</title>
<path fill="none" stroke="midnightblue" d="M1058.05,-246.475C1077.84,-236.578 1110.72,-220.142 1133.77,-208.615"/>
<polygon fill="midnightblue" stroke="midnightblue" points="1135.6,-211.612 1142.98,-204.009 1132.47,-205.351 1135.6,-211.612"/>
</g>
<!-- Node20&#45;&gt;Node5 -->
<g id="edge29" class="edge"><title>Node20&#45;&gt;Node5</title>
<path fill="none" stroke="midnightblue" d="M1167,-123.298C1167,-103.85 1167,-56.49 1167,-29.9036"/>
<polygon fill="midnightblue" stroke="midnightblue" points="1170.5,-29.6231 1167,-19.6232 1163.5,-29.6232 1170.5,-29.6231"/>
</g>
<!-- Node20&#45;&gt;Node8 -->
<g id="edge30" class="edge"><title>Node20&#45;&gt;Node8</title>
<path fill="none" stroke="midnightblue" d="M1128.34,-124.07C1087.03,-115.468 1019.7,-101.072 962,-87 955.811,-85.4907 949.247,-83.8023 942.906,-82.1259"/>
<polygon fill="midnightblue" stroke="midnightblue" points="943.777,-78.736 933.212,-79.5288 941.966,-85.4975 943.777,-78.736"/>
</g>
<!-- Node21&#45;&gt;Node4 -->
<g id="edge32" class="edge"><title>Node21&#45;&gt;Node4</title>
<path fill="none" stroke="midnightblue" d="M1061.26,-123.475C1050.65,-114.197 1033.48,-99.1706 1020.52,-87.831"/>
<polygon fill="midnightblue" stroke="midnightblue" points="1022.56,-84.9601 1012.72,-81.0091 1017.95,-90.2282 1022.56,-84.9601"/>
</g>
<!-- Node22&#45;&gt;Node4 -->
<g id="edge34" class="edge"><title>Node22&#45;&gt;Node4</title>
<path fill="none" stroke="midnightblue" d="M950.099,-184.798C959.384,-165.089 982.173,-116.711 994.595,-90.342"/>
<polygon fill="midnightblue" stroke="midnightblue" points="997.842,-91.6612 998.938,-81.1232 991.51,-88.6781 997.842,-91.6612"/>
</g>
<!-- Node23&#45;&gt;Node4 -->
<g id="edge36" class="edge"><title>Node23&#45;&gt;Node4</title>
<path fill="none" stroke="midnightblue" d="M878.637,-184.798C901.14,-164.478 957.389,-113.686 985.883,-87.9566"/>
<polygon fill="midnightblue" stroke="midnightblue" points="988.374,-90.4228 993.45,-81.1232 983.683,-85.2274 988.374,-90.4228"/>
</g>
<!-- Node25&#45;&gt;Node4 -->
<g id="edge39" class="edge"><title>Node25&#45;&gt;Node4</title>
<path fill="none" stroke="midnightblue" d="M1491.71,-246.404C1492.51,-230.798 1491.82,-197.692 1474,-179 1414.93,-117.033 1150.33,-86.1552 1045.74,-76.2015"/>
<polygon fill="midnightblue" stroke="midnightblue" points="1045.83,-72.6944 1035.54,-75.2495 1045.18,-79.6641 1045.83,-72.6944"/>
</g>
<!-- Node25&#45;&gt;Node14 -->
<g id="edge40" class="edge"><title>Node25&#45;&gt;Node14</title>
<path fill="none" stroke="midnightblue" d="M1456.61,-246.475C1409.58,-234.814 1325.92,-214.074 1281.19,-202.984"/>
<polygon fill="midnightblue" stroke="midnightblue" points="1281.77,-199.521 1271.22,-200.512 1280.08,-206.316 1281.77,-199.521"/>
</g>
<!-- Node25&#45;&gt;Node18 -->
<g id="edge41" class="edge"><title>Node25&#45;&gt;Node18</title>
<path fill="none" stroke="midnightblue" d="M1515.07,-246.475C1544.01,-236.225 1592.76,-218.959 1625.4,-207.399"/>
<polygon fill="midnightblue" stroke="midnightblue" points="1626.72,-210.647 1634.97,-204.009 1624.38,-204.048 1626.72,-210.647"/>
</g>
<!-- Node26&#45;&gt;Node4 -->
<g id="edge43" class="edge"><title>Node26&#45;&gt;Node4</title>
<path fill="none" stroke="midnightblue" d="M1264.06,-246.436C1274.91,-238.471 1289.57,-225.515 1296,-210 1301.27,-197.271 1302.4,-191.202 1296,-179 1249.14,-89.6368 1115.14,-73.9488 1045.77,-72.0219"/>
<polygon fill="midnightblue" stroke="midnightblue" points="1045.69,-68.5196 1035.62,-71.8258 1045.55,-75.5183 1045.69,-68.5196"/>
</g>
<!-- Node26&#45;&gt;Node14 -->
<g id="edge45" class="edge"><title>Node26&#45;&gt;Node14</title>
<path fill="none" stroke="midnightblue" d="M1251,-246.475C1251,-238.08 1251,-224.981 1251,-214.163"/>
<polygon fill="midnightblue" stroke="midnightblue" points="1254.5,-214.009 1251,-204.009 1247.5,-214.009 1254.5,-214.009"/>
</g>
<!-- Node26&#45;&gt;Node16 -->
<g id="edge46" class="edge"><title>Node26&#45;&gt;Node16</title>
<path fill="none" stroke="midnightblue" d="M1199.33,-250.698C1119.77,-243.799 962.6,-229.078 830,-210 817.775,-208.241 804.561,-205.991 792.462,-203.79"/>
<polygon fill="midnightblue" stroke="midnightblue" points="793.078,-200.345 782.608,-201.965 791.803,-207.228 793.078,-200.345"/>
</g>
<!-- Node26&#45;&gt;Node20 -->
<g id="edge44" class="edge"><title>Node26&#45;&gt;Node20</title>
<path fill="none" stroke="midnightblue" d="M1259.21,-246.413C1272.28,-231.661 1294.9,-200.974 1280,-179 1265.53,-157.667 1239.17,-146.447 1215.55,-140.546"/>
<polygon fill="midnightblue" stroke="midnightblue" points="1216.16,-137.096 1205.63,-138.329 1214.63,-143.927 1216.16,-137.096"/>
</g>
<!-- Node26&#45;&gt;Node22 -->
<g id="edge47" class="edge"><title>Node26&#45;&gt;Node22</title>
<path fill="none" stroke="midnightblue" d="M1207.3,-246.475C1147.6,-234.829 1041.48,-214.127 984.58,-203.026"/>
<polygon fill="midnightblue" stroke="midnightblue" points="985.035,-199.549 974.55,-201.07 983.695,-206.42 985.035,-199.549"/>
</g>
<!-- Node26&#45;&gt;Node24 -->
<g id="edge50" class="edge"><title>Node26&#45;&gt;Node24</title>
<path fill="none" stroke="midnightblue" d="M1237.96,-246.475C1223.23,-236.843 1199.03,-221.017 1181.49,-209.552"/>
<polygon fill="midnightblue" stroke="midnightblue" points="1183.3,-206.552 1173.01,-204.009 1179.47,-212.411 1183.3,-206.552"/>
</g>
<!-- Node26&#45;&gt;Node27 -->
<g id="edge48" class="edge"><title>Node26&#45;&gt;Node27</title>
<path fill="none" stroke="midnightblue" d="M1295.99,-246.475C1352.82,-235.707 1450.5,-217.197 1511.21,-205.693"/>
<polygon fill="midnightblue" stroke="midnightblue" points="1512.19,-209.07 1521.36,-203.77 1510.88,-202.193 1512.19,-209.07"/>
</g>
<!-- Node26&#45;&gt;Node28 -->
<g id="edge51" class="edge"><title>Node26&#45;&gt;Node28</title>
<path fill="none" stroke="midnightblue" d="M1274.5,-246.475C1298.47,-237.776 1336.37,-224.026 1366.77,-212.998"/>
<polygon fill="midnightblue" stroke="midnightblue" points="1368.14,-216.224 1376.35,-209.523 1365.75,-209.643 1368.14,-216.224"/>
</g>
<!-- Node27&#45;&gt;Node4 -->
<g id="edge49" class="edge"><title>Node27&#45;&gt;Node4</title>
<path fill="none" stroke="midnightblue" d="M1560.72,-184.69C1552.64,-169.157 1533.55,-137.202 1507,-123 1427.55,-80.5059 1152.34,-73.6844 1045.69,-72.6539"/>
<polygon fill="midnightblue" stroke="midnightblue" points="1045.64,-69.1535 1035.61,-72.5692 1045.58,-76.1532 1045.64,-69.1535"/>
</g>
</g>
</svg>
