<?xml version="1.0" encoding="UTF-8" standalone="no"?>
<!DOCTYPE svg PUBLIC "-//W3C//DTD SVG 1.1//EN"
 "http://www.w3.org/Graphics/SVG/1.1/DTD/svg11.dtd">
<!-- Generated by graphviz version 2.28.0 (20120425.2022)
 -->
<!-- Title: G Pages: 1 -->
<svg width="1537pt" height="456pt"
 viewBox="0.00 0.00 1537.00 456.00" xmlns="http://www.w3.org/2000/svg" xmlns:xlink="http://www.w3.org/1999/xlink">
<g id="graph1" class="graph" transform="scale(1 1) rotate(0) translate(4 452)">
<title>G</title>
<polygon fill="white" stroke="white" points="-4,5 -4,-452 1534,-452 1534,5 -4,5"/>
<!-- Node1 -->
<g id="node1" class="node"><title>Node1</title>
<polygon fill="#bfbfbf" stroke="black" points="1022.5,-428.5 1022.5,-447.5 1127.5,-447.5 1127.5,-428.5 1022.5,-428.5"/>
<text text-anchor="middle" x="1075" y="-435.5" font-family="FreeSans" font-size="10.00">src/flameSolver.cpp</text>
</g>
<!-- Node2 -->
<g id="node3" class="node"><title>Node2</title>
<a xlink:href="flameSolver_8h.html" target="_top" xlink:title="flameSolver.h">
<polygon fill="white" stroke="black" points="784,-372.5 784,-391.5 862,-391.5 862,-372.5 784,-372.5"/>
<text text-anchor="middle" x="823" y="-379.5" font-family="FreeSans" font-size="10.00">flameSolver.h</text>
</a>
</g>
<!-- Node1&#45;&gt;Node2 -->
<g id="edge2" class="edge"><title>Node1&#45;&gt;Node2</title>
<path fill="none" stroke="midnightblue" d="M1035.07,-428.444C990.98,-418.996 919.957,-403.776 872.398,-393.585"/>
<polygon fill="midnightblue" stroke="midnightblue" points="872.84,-390.101 862.329,-391.428 871.373,-396.945 872.84,-390.101"/>
</g>
<!-- Node4 -->
<g id="node7" class="node"><title>Node4</title>
<a xlink:href="mathUtils_8h.html" target="_top" xlink:title="mathUtils.h">
<polygon fill="white" stroke="red" points="291.5,-112.5 291.5,-131.5 356.5,-131.5 356.5,-112.5 291.5,-112.5"/>
<text text-anchor="middle" x="324" y="-119.5" font-family="FreeSans" font-size="10.00">mathUtils.h</text>
</a>
</g>
<!-- Node1&#45;&gt;Node4 -->
<g id="edge132" class="edge"><title>Node1&#45;&gt;Node4</title>
<path fill="none" stroke="midnightblue" d="M1022.34,-436.14C823.15,-432.203 127,-411.937 127,-321 127,-321 127,-321 127,-251 127,-212.474 124.263,-194.738 152,-168 186.43,-134.81 242.185,-125.312 280.842,-122.984"/>
<polygon fill="midnightblue" stroke="midnightblue" points="281.432,-126.461 291.26,-122.504 281.109,-119.468 281.432,-126.461"/>
</g>
<!-- Node7 -->
<g id="node13" class="node"><title>Node7</title>
<a xlink:href="debugUtils_8h.html" target="_top" xlink:title="debugUtils.h">
<polygon fill="white" stroke="red" points="288.5,-56.5 288.5,-75.5 359.5,-75.5 359.5,-56.5 288.5,-56.5"/>
<text text-anchor="middle" x="324" y="-63.5" font-family="FreeSans" font-size="10.00">debugUtils.h</text>
</a>
</g>
<!-- Node1&#45;&gt;Node7 -->
<g id="edge120" class="edge"><title>Node1&#45;&gt;Node7</title>
<path fill="none" stroke="midnightblue" d="M1022.35,-437.204C860.754,-437.364 373.703,-434.234 222,-392 157.448,-374.029 89,-388.007 89,-321 89,-321 89,-321 89,-251 89,-153.905 214.904,-100.369 282.399,-78.6447"/>
<polygon fill="midnightblue" stroke="midnightblue" points="283.806,-81.8721 292.307,-75.549 281.718,-75.1907 283.806,-81.8721"/>
</g>
<!-- Node11 -->
<g id="node28" class="node"><title>Node11</title>
<a xlink:href="perfTimer_8h.html" target="_top" xlink:title="perfTimer.h">
<polygon fill="white" stroke="red" points="955,-242.5 955,-261.5 1023,-261.5 1023,-242.5 955,-242.5"/>
<text text-anchor="middle" x="989" y="-249.5" font-family="FreeSans" font-size="10.00">perfTimer.h</text>
</a>
</g>
<!-- Node1&#45;&gt;Node11 -->
<g id="edge122" class="edge"><title>Node1&#45;&gt;Node11</title>
<path fill="none" stroke="midnightblue" d="M1075.1,-428.16C1075.73,-414.331 1078.97,-387.559 1094,-372 1129.45,-335.306 1173.11,-377.347 1203,-336 1211.33,-324.474 1211.96,-315.044 1203,-304 1154.06,-243.69 1106.82,-288.833 1032,-268 1028.62,-267.06 1025.12,-265.995 1021.65,-264.877"/>
<polygon fill="midnightblue" stroke="midnightblue" points="1022.63,-261.514 1012.04,-261.646 1020.4,-268.15 1022.63,-261.514"/>
</g>
<!-- Node26 -->
<g id="node88" class="node"><title>Node26</title>
<a xlink:href="dataFile_8h.html" target="_top" xlink:title="dataFile.h">
<polygon fill="white" stroke="black" points="-0.5,-174.5 -0.5,-193.5 60.5,-193.5 60.5,-174.5 -0.5,-174.5"/>
<text text-anchor="middle" x="30" y="-181.5" font-family="FreeSans" font-size="10.00">dataFile.h</text>
</a>
</g>
<!-- Node1&#45;&gt;Node26 -->
<g id="edge124" class="edge"><title>Node1&#45;&gt;Node26</title>
<path fill="none" stroke="midnightblue" d="M1022.38,-436.396C821.372,-433.864 111.464,-422.767 75,-392 18.9898,-344.742 22.9097,-245.637 27.3981,-204.031"/>
<polygon fill="midnightblue" stroke="midnightblue" points="30.8958,-204.261 28.6298,-193.911 23.9471,-203.415 30.8958,-204.261"/>
</g>
<!-- Node28 -->
<g id="node95" class="node"><title>Node28</title>
<a xlink:href="gilReleaser_8h.html" target="_top" xlink:title="gilReleaser.h">
<polygon fill="white" stroke="black" points="1103,-372.5 1103,-391.5 1179,-391.5 1179,-372.5 1103,-372.5"/>
<text text-anchor="middle" x="1141" y="-379.5" font-family="FreeSans" font-size="10.00">gilReleaser.h</text>
</a>
</g>
<!-- Node1&#45;&gt;Node28 -->
<g id="edge134" class="edge"><title>Node1&#45;&gt;Node28</title>
<path fill="none" stroke="midnightblue" d="M1085.6,-428.324C1095.46,-420.263 1110.35,-408.077 1122.22,-398.369"/>
<polygon fill="midnightblue" stroke="midnightblue" points="1124.68,-400.875 1130.2,-391.834 1120.25,-395.457 1124.68,-400.875"/>
</g>
<!-- Node29 -->
<g id="node97" class="node"><title>Node29</title>
<polygon fill="white" stroke="#bfbfbf" points="1197.5,-372.5 1197.5,-391.5 1304.5,-391.5 1304.5,-372.5 1197.5,-372.5"/>
<text text-anchor="middle" x="1251" y="-379.5" font-family="FreeSans" font-size="10.00">boost/filesystem.hpp</text>
</g>
<!-- Node1&#45;&gt;Node29 -->
<g id="edge136" class="edge"><title>Node1&#45;&gt;Node29</title>
<path fill="none" stroke="midnightblue" d="M1102.89,-428.444C1132.75,-419.28 1180.31,-404.688 1213.46,-394.519"/>
<polygon fill="midnightblue" stroke="midnightblue" points="1214.71,-397.796 1223.24,-391.516 1212.66,-391.104 1214.71,-397.796"/>
</g>
<!-- Node30 -->
<g id="node99" class="node"><title>Node30</title>
<polygon fill="white" stroke="#bfbfbf" points="1323,-372.5 1323,-391.5 1419,-391.5 1419,-372.5 1323,-372.5"/>
<text text-anchor="middle" x="1371" y="-379.5" font-family="FreeSans" font-size="10.00">boost/foreach.hpp</text>
</g>
<!-- Node1&#45;&gt;Node30 -->
<g id="edge138" class="edge"><title>Node1&#45;&gt;Node30</title>
<path fill="none" stroke="midnightblue" d="M1121.9,-428.444C1174.08,-418.925 1258.37,-403.547 1314.23,-393.356"/>
<polygon fill="midnightblue" stroke="midnightblue" points="1315.11,-396.754 1324.32,-391.516 1313.85,-389.868 1315.11,-396.754"/>
</g>
<!-- Node31 -->
<g id="node101" class="node"><title>Node31</title>
<polygon fill="white" stroke="#bfbfbf" points="1437,-372.5 1437,-391.5 1529,-391.5 1529,-372.5 1437,-372.5"/>
<text text-anchor="middle" x="1483" y="-379.5" font-family="FreeSans" font-size="10.00">boost/python.hpp</text>
</g>
<!-- Node1&#45;&gt;Node31 -->
<g id="edge140" class="edge"><title>Node1&#45;&gt;Node31</title>
<path fill="none" stroke="midnightblue" d="M1127.71,-430.871C1194.75,-422.944 1314.35,-408.365 1426.66,-392.153"/>
<polygon fill="midnightblue" stroke="midnightblue" points="1427.41,-395.581 1436.8,-390.681 1426.41,-388.653 1427.41,-395.581"/>
</g>
<!-- Node3 -->
<g id="node5" class="node"><title>Node3</title>
<a xlink:href="readConfig_8h.html" target="_top" xlink:title="readConfig.h">
<polygon fill="white" stroke="black" points="161,-174.5 161,-193.5 235,-193.5 235,-174.5 161,-174.5"/>
<text text-anchor="middle" x="198" y="-181.5" font-family="FreeSans" font-size="10.00">readConfig.h</text>
</a>
</g>
<!-- Node2&#45;&gt;Node3 -->
<g id="edge4" class="edge"><title>Node2&#45;&gt;Node3</title>
<path fill="none" stroke="midnightblue" d="M783.57,-379.909C659.24,-376.206 280.82,-362.827 233,-336 200.512,-317.774 195.442,-303.45 184,-268 177.012,-246.349 183.701,-220.334 190.017,-203.272"/>
<polygon fill="midnightblue" stroke="midnightblue" points="193.292,-204.507 193.775,-193.923 186.798,-201.896 193.292,-204.507"/>
</g>
<!-- Node5 -->
<g id="node9" class="node"><title>Node5</title>
<polygon fill="white" stroke="#bfbfbf" points="665,-0.5 665,-19.5 721,-19.5 721,-0.5 665,-0.5"/>
<text text-anchor="middle" x="693" y="-7.5" font-family="FreeSans" font-size="10.00">iostream</text>
</g>
<!-- Node2&#45;&gt;Node5 -->
<g id="edge102" class="edge"><title>Node2&#45;&gt;Node5</title>
<path fill="none" stroke="midnightblue" d="M862.055,-380.224C965.194,-377.747 1242.78,-368.195 1328,-336 1386.29,-313.979 1441,-315.314 1441,-253 1441,-253 1441,-253 1441,-121 1441,-48.5775 885.046,-19.2711 731.738,-12.5664"/>
<polygon fill="midnightblue" stroke="midnightblue" points="731.55,-9.05522 721.409,-12.1225 731.25,-16.0488 731.55,-9.05522"/>
</g>
<!-- Node8 -->
<g id="node18" class="node"><title>Node8</title>
<a xlink:href="sundialsUtils_8h.html" target="_top" xlink:title="sundialsUtils.h">
<polygon fill="white" stroke="red" points="857,-242.5 857,-261.5 937,-261.5 937,-242.5 857,-242.5"/>
<text text-anchor="middle" x="897" y="-249.5" font-family="FreeSans" font-size="10.00">sundialsUtils.h</text>
</a>
</g>
<!-- Node2&#45;&gt;Node8 -->
<g id="edge20" class="edge"><title>Node2&#45;&gt;Node8</title>
<path fill="none" stroke="midnightblue" d="M824.321,-372.37C826.881,-357.53 833.492,-326.595 847,-304 855.133,-290.396 867.61,-277.662 878.066,-268.321"/>
<polygon fill="midnightblue" stroke="midnightblue" points="880.584,-270.772 885.896,-261.605 876.027,-265.459 880.584,-270.772"/>
</g>
<!-- Node9 -->
<g id="node21" class="node"><title>Node9</title>
<a xlink:href="chemistry0d_8h.html" target="_top" xlink:title="chemistry0d.h">
<polygon fill="white" stroke="red" points="375,-242.5 375,-261.5 453,-261.5 453,-242.5 375,-242.5"/>
<text text-anchor="middle" x="414" y="-249.5" font-family="FreeSans" font-size="10.00">chemistry0d.h</text>
</a>
</g>
<!-- Node2&#45;&gt;Node9 -->
<g id="edge24" class="edge"><title>Node2&#45;&gt;Node9</title>
<path fill="none" stroke="midnightblue" d="M783.834,-378.351C710.108,-372.893 553.745,-358.949 505,-336 472.117,-320.519 442.785,-289.007 426.783,-269.576"/>
<polygon fill="midnightblue" stroke="midnightblue" points="429.383,-267.223 420.404,-261.599 423.916,-271.595 429.383,-267.223"/>
</g>
<!-- Node10 -->
<g id="node25" class="node"><title>Node10</title>
<a xlink:href="grid_8h.html" target="_top" xlink:title="grid.h">
<polygon fill="white" stroke="black" points="193.5,-242.5 193.5,-261.5 234.5,-261.5 234.5,-242.5 193.5,-242.5"/>
<text text-anchor="middle" x="214" y="-249.5" font-family="FreeSans" font-size="10.00">grid.h</text>
</a>
</g>
<!-- Node2&#45;&gt;Node10 -->
<g id="edge30" class="edge"><title>Node2&#45;&gt;Node10</title>
<path fill="none" stroke="midnightblue" d="M783.612,-379.848C663.926,-376.068 309.998,-362.726 266,-336 241.966,-321.401 227.284,-291.027 219.9,-271.351"/>
<polygon fill="midnightblue" stroke="midnightblue" points="223.13,-269.983 216.536,-261.689 216.519,-272.284 223.13,-269.983"/>
</g>
<!-- Node2&#45;&gt;Node11 -->
<g id="edge34" class="edge"><title>Node2&#45;&gt;Node11</title>
<path fill="none" stroke="midnightblue" d="M827.535,-372.275C835.989,-356.731 855.539,-324.008 880,-304 892.658,-293.646 930.593,-276.885 958.159,-265.424"/>
<polygon fill="midnightblue" stroke="midnightblue" points="959.505,-268.655 967.418,-261.61 956.839,-262.182 959.505,-268.655"/>
</g>
<!-- Node12 -->
<g id="node30" class="node"><title>Node12</title>
<polygon fill="white" stroke="#bfbfbf" points="1111.5,-169 1111.5,-199 1230.5,-199 1230.5,-169 1111.5,-169"/>
<text text-anchor="start" x="1119.5" y="-187" font-family="FreeSans" font-size="10.00">tbb/enumerable_thread</text>
<text text-anchor="middle" x="1171" y="-176" font-family="FreeSans" font-size="10.00">_specific.h</text>
</g>
<!-- Node2&#45;&gt;Node12 -->
<g id="edge112" class="edge"><title>Node2&#45;&gt;Node12</title>
<path fill="none" stroke="midnightblue" d="M862.211,-379.375C957.34,-375.066 1198.13,-361.871 1274,-336 1328.04,-317.573 1355.3,-317.929 1383,-268 1415.14,-210.067 1314.31,-192.415 1240.85,-187.132"/>
<polygon fill="midnightblue" stroke="midnightblue" points="1240.89,-183.628 1230.69,-186.466 1240.44,-190.613 1240.89,-183.628"/>
</g>
<!-- Node13 -->
<g id="node32" class="node"><title>Node13</title>
<a xlink:href="integrator_8h.html" target="_top" xlink:title="integrator.h">
<polygon fill="white" stroke="black" points="291,-242.5 291,-261.5 357,-261.5 357,-242.5 291,-242.5"/>
<text text-anchor="middle" x="324" y="-249.5" font-family="FreeSans" font-size="10.00">integrator.h</text>
</a>
</g>
<!-- Node2&#45;&gt;Node13 -->
<g id="edge38" class="edge"><title>Node2&#45;&gt;Node13</title>
<path fill="none" stroke="midnightblue" d="M783.931,-381.603C715.759,-381.481 571.519,-375.979 458,-336 412.943,-320.132 367.028,-287.312 342.375,-268.037"/>
<polygon fill="midnightblue" stroke="midnightblue" points="344.299,-265.095 334.295,-261.605 339.939,-270.571 344.299,-265.095"/>
</g>
<!-- Node14 -->
<g id="node35" class="node"><title>Node14</title>
<a xlink:href="sourceSystem_8h.html" target="_top" xlink:title="sourceSystem.h">
<polygon fill="white" stroke="red" points="541.5,-310.5 541.5,-329.5 630.5,-329.5 630.5,-310.5 541.5,-310.5"/>
<text text-anchor="middle" x="586" y="-317.5" font-family="FreeSans" font-size="10.00">sourceSystem.h</text>
</a>
</g>
<!-- Node2&#45;&gt;Node14 -->
<g id="edge42" class="edge"><title>Node2&#45;&gt;Node14</title>
<path fill="none" stroke="midnightblue" d="M789.204,-372.47C753.397,-363.43 695.208,-348.729 645,-336 640.006,-334.734 634.774,-333.406 629.576,-332.086"/>
<polygon fill="midnightblue" stroke="midnightblue" points="630.248,-328.645 619.694,-329.575 628.524,-335.43 630.248,-328.645"/>
</g>
<!-- Node15 -->
<g id="node40" class="node"><title>Node15</title>
<a xlink:href="strainFunction_8h.html" target="_top" xlink:title="strainFunction.h">
<polygon fill="white" stroke="black" points="471.5,-242.5 471.5,-261.5 556.5,-261.5 556.5,-242.5 471.5,-242.5"/>
<text text-anchor="middle" x="514" y="-249.5" font-family="FreeSans" font-size="10.00">strainFunction.h</text>
</a>
</g>
<!-- Node2&#45;&gt;Node15 -->
<g id="edge98" class="edge"><title>Node2&#45;&gt;Node15</title>
<path fill="none" stroke="midnightblue" d="M783.946,-380.889C710.753,-379.798 557.144,-373.033 522,-336 505.915,-319.05 506.933,-290.478 509.882,-271.677"/>
<polygon fill="midnightblue" stroke="midnightblue" points="513.357,-272.139 511.779,-261.662 506.479,-270.836 513.357,-272.139"/>
</g>
<!-- Node16 -->
<g id="node44" class="node"><title>Node16</title>
<a xlink:href="quasi2d_8h.html" target="_top" xlink:title="quasi2d.h">
<polygon fill="white" stroke="red" points="613,-242.5 613,-261.5 673,-261.5 673,-242.5 613,-242.5"/>
<text text-anchor="middle" x="643" y="-249.5" font-family="FreeSans" font-size="10.00">quasi2d.h</text>
</a>
</g>
<!-- Node2&#45;&gt;Node16 -->
<g id="edge100" class="edge"><title>Node2&#45;&gt;Node16</title>
<path fill="none" stroke="midnightblue" d="M783.8,-380.959C712.043,-379.96 563.982,-373.308 532,-336 505.685,-305.303 561.735,-279.145 603.364,-264.793"/>
<polygon fill="midnightblue" stroke="midnightblue" points="604.663,-268.049 613.048,-261.572 602.454,-261.407 604.663,-268.049"/>
</g>
<!-- Node17 -->
<g id="node48" class="node"><title>Node17</title>
<polygon fill="white" stroke="#bfbfbf" points="691,-242.5 691,-261.5 801,-261.5 801,-242.5 691,-242.5"/>
<text text-anchor="middle" x="746" y="-249.5" font-family="FreeSans" font-size="10.00">boost/shared_ptr.hpp</text>
</g>
<!-- Node2&#45;&gt;Node17 -->
<g id="edge106" class="edge"><title>Node2&#45;&gt;Node17</title>
<path fill="none" stroke="midnightblue" d="M783.752,-380.825C749.658,-378.327 702.076,-368.68 678,-336 669.564,-324.55 671.64,-316.721 678,-304 686.252,-287.495 702.667,-274.946 717.302,-266.426"/>
<polygon fill="midnightblue" stroke="midnightblue" points="718.983,-269.496 726.095,-261.642 715.638,-263.347 718.983,-269.496"/>
</g>
<!-- Node18 -->
<g id="node50" class="node"><title>Node18</title>
<a xlink:href="diffusionSystem_8h.html" target="_top" xlink:title="diffusionSystem.h">
<polygon fill="white" stroke="black" points="275.5,-310.5 275.5,-329.5 370.5,-329.5 370.5,-310.5 275.5,-310.5"/>
<text text-anchor="middle" x="323" y="-317.5" font-family="FreeSans" font-size="10.00">diffusionSystem.h</text>
</a>
</g>
<!-- Node2&#45;&gt;Node18 -->
<g id="edge64" class="edge"><title>Node2&#45;&gt;Node18</title>
<path fill="none" stroke="midnightblue" d="M783.794,-378.753C706.878,-373.953 530.974,-361.039 385,-336 378.326,-334.855 371.304,-333.402 364.48,-331.852"/>
<polygon fill="midnightblue" stroke="midnightblue" points="365.225,-328.432 354.688,-329.538 363.615,-335.244 365.225,-328.432"/>
</g>
<!-- Node19 -->
<g id="node56" class="node"><title>Node19</title>
<a xlink:href="convectionSystem_8h.html" target="_top" xlink:title="convectionSystem.h">
<polygon fill="white" stroke="black" points="687.5,-310.5 687.5,-329.5 794.5,-329.5 794.5,-310.5 687.5,-310.5"/>
<text text-anchor="middle" x="741" y="-317.5" font-family="FreeSans" font-size="10.00">convectionSystem.h</text>
</a>
</g>
<!-- Node2&#45;&gt;Node19 -->
<g id="edge74" class="edge"><title>Node2&#45;&gt;Node19</title>
<path fill="none" stroke="midnightblue" d="M811.251,-372.403C798.099,-362.78 776.566,-347.024 760.802,-335.489"/>
<polygon fill="midnightblue" stroke="midnightblue" points="762.864,-332.661 752.727,-329.581 758.73,-338.31 762.864,-332.661"/>
</g>
<!-- Node20 -->
<g id="node65" class="node"><title>Node20</title>
<polygon fill="white" stroke="#bfbfbf" points="1041.5,-242.5 1041.5,-261.5 1130.5,-261.5 1130.5,-242.5 1041.5,-242.5"/>
<text text-anchor="middle" x="1086" y="-249.5" font-family="FreeSans" font-size="10.00">tbb/parallel_for.h</text>
</g>
<!-- Node2&#45;&gt;Node20 -->
<g id="edge108" class="edge"><title>Node2&#45;&gt;Node20</title>
<path fill="none" stroke="midnightblue" d="M862.239,-379.253C954.784,-374.732 1180.61,-361.203 1203,-336 1230.84,-304.673 1171.53,-278.668 1127.61,-264.524"/>
<polygon fill="midnightblue" stroke="midnightblue" points="1128.54,-261.148 1117.95,-261.521 1126.46,-267.833 1128.54,-261.148"/>
</g>
<!-- Node21 -->
<g id="node67" class="node"><title>Node21</title>
<polygon fill="white" stroke="#bfbfbf" points="1148.5,-242.5 1148.5,-261.5 1255.5,-261.5 1255.5,-242.5 1148.5,-242.5"/>
<text text-anchor="middle" x="1202" y="-249.5" font-family="FreeSans" font-size="10.00">tbb/blocked_range.h</text>
</g>
<!-- Node2&#45;&gt;Node21 -->
<g id="edge110" class="edge"><title>Node2&#45;&gt;Node21</title>
<path fill="none" stroke="midnightblue" d="M862.316,-379.473C958.083,-375.352 1197.34,-362.481 1221,-336 1237.19,-317.881 1224.76,-288.818 1213.79,-270.33"/>
<polygon fill="midnightblue" stroke="midnightblue" points="1216.65,-268.312 1208.34,-261.74 1210.74,-272.06 1216.65,-268.312"/>
</g>
<!-- Node22 -->
<g id="node70" class="node"><title>Node22</title>
<polygon fill="white" stroke="#bfbfbf" points="1273.5,-237 1273.5,-267 1374.5,-267 1374.5,-237 1273.5,-237"/>
<text text-anchor="start" x="1281.5" y="-255" font-family="FreeSans" font-size="10.00">boost/ptr_container</text>
<text text-anchor="middle" x="1324" y="-244" font-family="FreeSans" font-size="10.00">/ptr_vector.hpp</text>
</g>
<!-- Node2&#45;&gt;Node22 -->
<g id="edge104" class="edge"><title>Node2&#45;&gt;Node22</title>
<path fill="none" stroke="midnightblue" d="M862.197,-380.005C952.54,-377.195 1172.72,-367.254 1239,-336 1267.93,-322.36 1292.99,-294.794 1308.27,-275.176"/>
<polygon fill="midnightblue" stroke="midnightblue" points="1311.16,-277.152 1314.38,-267.059 1305.57,-272.939 1311.16,-277.152"/>
</g>
<!-- Node23 -->
<g id="node80" class="node"><title>Node23</title>
<polygon fill="white" stroke="#bfbfbf" points="889.5,-310.5 889.5,-329.5 956.5,-329.5 956.5,-310.5 889.5,-310.5"/>
<text text-anchor="middle" x="923" y="-317.5" font-family="FreeSans" font-size="10.00">tbb/mutex.h</text>
</g>
<!-- Node2&#45;&gt;Node23 -->
<g id="edge114" class="edge"><title>Node2&#45;&gt;Node23</title>
<path fill="none" stroke="midnightblue" d="M837.328,-372.403C853.664,-362.601 880.602,-346.439 899.912,-334.853"/>
<polygon fill="midnightblue" stroke="midnightblue" points="901.925,-337.727 908.699,-329.581 898.323,-331.724 901.925,-337.727"/>
</g>
<!-- Node24 -->
<g id="node82" class="node"><title>Node24</title>
<polygon fill="white" stroke="#bfbfbf" points="974.5,-305 974.5,-335 1075.5,-335 1075.5,-305 974.5,-305"/>
<text text-anchor="start" x="982.5" y="-323" font-family="FreeSans" font-size="10.00">tbb/task_scheduler</text>
<text text-anchor="middle" x="1025" y="-312" font-family="FreeSans" font-size="10.00">_init.h</text>
</g>
<!-- Node2&#45;&gt;Node24 -->
<g id="edge116" class="edge"><title>Node2&#45;&gt;Node24</title>
<path fill="none" stroke="midnightblue" d="M851.942,-372.403C882.085,-363.45 930.095,-349.19 967.908,-337.958"/>
<polygon fill="midnightblue" stroke="midnightblue" points="969.192,-341.228 977.781,-335.025 967.199,-334.518 969.192,-341.228"/>
</g>
<!-- Node25 -->
<g id="node84" class="node"><title>Node25</title>
<polygon fill="white" stroke="#bfbfbf" points="1093.5,-310.5 1093.5,-329.5 1194.5,-329.5 1194.5,-310.5 1093.5,-310.5"/>
<text text-anchor="middle" x="1144" y="-317.5" font-family="FreeSans" font-size="10.00">tbb/tbb_exception.h</text>
</g>
<!-- Node2&#45;&gt;Node25 -->
<g id="edge118" class="edge"><title>Node2&#45;&gt;Node25</title>
<path fill="none" stroke="midnightblue" d="M862.085,-375.189C913.273,-367.366 1005.72,-352.511 1084,-336 1089.79,-334.779 1095.86,-333.389 1101.84,-331.959"/>
<polygon fill="midnightblue" stroke="midnightblue" points="1102.84,-335.317 1111.72,-329.538 1101.17,-328.518 1102.84,-335.317"/>
</g>
<!-- Node3&#45;&gt;Node4 -->
<g id="edge6" class="edge"><title>Node3&#45;&gt;Node4</title>
<path fill="none" stroke="midnightblue" d="M216.053,-174.403C237.198,-164.334 272.44,-147.552 296.878,-135.915"/>
<polygon fill="midnightblue" stroke="midnightblue" points="298.457,-139.04 305.981,-131.581 295.447,-132.72 298.457,-139.04"/>
</g>
<!-- Node6 -->
<g id="node11" class="node"><title>Node6</title>
<polygon fill="white" stroke="#bfbfbf" points="239.5,-0.5 239.5,-19.5 280.5,-19.5 280.5,-0.5 239.5,-0.5"/>
<text text-anchor="middle" x="260" y="-7.5" font-family="FreeSans" font-size="10.00">string</text>
</g>
<!-- Node3&#45;&gt;Node6 -->
<g id="edge18" class="edge"><title>Node3&#45;&gt;Node6</title>
<path fill="none" stroke="midnightblue" d="M201.16,-174.234C210.821,-147.433 240.11,-66.1778 253.362,-29.4153"/>
<polygon fill="midnightblue" stroke="midnightblue" points="256.822,-30.1386 256.92,-19.5442 250.236,-27.7648 256.822,-30.1386"/>
</g>
<!-- Node4&#45;&gt;Node5 -->
<g id="edge8" class="edge"><title>Node4&#45;&gt;Node5</title>
<path fill="none" stroke="midnightblue" d="M352.648,-112.46C418.551,-92.8141 580.925,-44.41 655.026,-22.3203"/>
<polygon fill="midnightblue" stroke="midnightblue" points="656.293,-25.5947 664.876,-19.3837 654.293,-18.8864 656.293,-25.5947"/>
</g>
<!-- Node4&#45;&gt;Node6 -->
<g id="edge10" class="edge"><title>Node4&#45;&gt;Node6</title>
<path fill="none" stroke="midnightblue" d="M312.392,-112.233C302.196,-103.949 287.673,-90.6382 279,-76 270.479,-61.618 265.562,-43.1602 262.874,-29.5908"/>
<polygon fill="midnightblue" stroke="midnightblue" points="266.286,-28.7839 261.111,-19.5391 259.391,-29.9935 266.286,-28.7839"/>
</g>
<!-- Node4&#45;&gt;Node7 -->
<g id="edge12" class="edge"><title>Node4&#45;&gt;Node7</title>
<path fill="none" stroke="midnightblue" d="M324,-112.083C324,-105.006 324,-94.8611 324,-85.9865"/>
<polygon fill="midnightblue" stroke="midnightblue" points="327.5,-85.751 324,-75.7511 320.5,-85.7511 327.5,-85.751"/>
</g>
<!-- Node7&#45;&gt;Node5 -->
<g id="edge16" class="edge"><title>Node7&#45;&gt;Node5</title>
<path fill="none" stroke="midnightblue" d="M359.717,-59.7732C429.362,-49.5811 582.761,-27.1325 654.543,-16.6278"/>
<polygon fill="midnightblue" stroke="midnightblue" points="655.134,-20.0787 664.522,-15.1675 654.121,-13.1525 655.134,-20.0787"/>
</g>
<!-- Node7&#45;&gt;Node6 -->
<g id="edge14" class="edge"><title>Node7&#45;&gt;Node6</title>
<path fill="none" stroke="midnightblue" d="M313.717,-56.324C304.164,-48.2631 289.72,-36.0765 278.216,-26.3695"/>
<polygon fill="midnightblue" stroke="midnightblue" points="280.37,-23.6076 270.47,-19.8339 275.856,-28.9577 280.37,-23.6076"/>
</g>
<!-- Node8&#45;&gt;Node5 -->
<g id="edge22" class="edge"><title>Node8&#45;&gt;Node5</title>
<path fill="none" stroke="midnightblue" d="M889.74,-242.458C859.938,-207.398 746.71,-74.1877 706.924,-27.3813"/>
<polygon fill="midnightblue" stroke="midnightblue" points="709.53,-25.0428 700.387,-19.6902 704.196,-29.5764 709.53,-25.0428"/>
</g>
<!-- Node9&#45;&gt;Node3 -->
<g id="edge28" class="edge"><title>Node9&#45;&gt;Node3</title>
<path fill="none" stroke="midnightblue" d="M386.85,-242.473C380.046,-240.348 372.759,-238.082 366,-236 321.517,-222.298 270.326,-206.796 236.257,-196.517"/>
<polygon fill="midnightblue" stroke="midnightblue" points="236.845,-193.039 226.26,-193.502 234.824,-199.74 236.845,-193.039"/>
</g>
<!-- Node9&#45;&gt;Node4 -->
<g id="edge26" class="edge"><title>Node9&#45;&gt;Node4</title>
<path fill="none" stroke="midnightblue" d="M407.814,-242.202C392.971,-221.092 355.136,-167.282 335.786,-139.762"/>
<polygon fill="midnightblue" stroke="midnightblue" points="338.607,-137.69 329.992,-131.522 332.881,-141.716 338.607,-137.69"/>
</g>
<!-- Node10&#45;&gt;Node3 -->
<g id="edge32" class="edge"><title>Node10&#45;&gt;Node3</title>
<path fill="none" stroke="midnightblue" d="M211.908,-242.372C209.55,-232.643 205.643,-216.528 202.57,-203.85"/>
<polygon fill="midnightblue" stroke="midnightblue" points="205.901,-202.735 200.143,-193.841 199.098,-204.384 205.901,-202.735"/>
</g>
<!-- Node11&#45;&gt;Node12 -->
<g id="edge36" class="edge"><title>Node11&#45;&gt;Node12</title>
<path fill="none" stroke="midnightblue" d="M1012.79,-242.372C1040.54,-232.311 1087.11,-215.422 1122.56,-202.566"/>
<polygon fill="midnightblue" stroke="midnightblue" points="1124.03,-205.756 1132.24,-199.056 1121.64,-199.175 1124.03,-205.756"/>
</g>
<!-- Node13&#45;&gt;Node4 -->
<g id="edge40" class="edge"><title>Node13&#45;&gt;Node4</title>
<path fill="none" stroke="midnightblue" d="M324,-242.202C324,-221.551 324,-169.606 324,-141.594"/>
<polygon fill="midnightblue" stroke="midnightblue" points="327.5,-141.522 324,-131.522 320.5,-141.522 327.5,-141.522"/>
</g>
<!-- Node14&#45;&gt;Node4 -->
<g id="edge44" class="edge"><title>Node14&#45;&gt;Node4</title>
<path fill="none" stroke="midnightblue" d="M586.125,-310.158C585.896,-293.692 583.168,-258.009 565,-236 513.872,-174.062 421.087,-144.141 366.772,-131.312"/>
<polygon fill="midnightblue" stroke="midnightblue" points="367.298,-127.842 356.772,-129.041 365.748,-134.669 367.298,-127.842"/>
</g>
<!-- Node14&#45;&gt;Node8 -->
<g id="edge46" class="edge"><title>Node14&#45;&gt;Node8</title>
<path fill="none" stroke="midnightblue" d="M626.339,-310.439C682.853,-298.446 785.537,-276.654 846.886,-263.635"/>
<polygon fill="midnightblue" stroke="midnightblue" points="847.677,-267.045 856.732,-261.546 846.224,-260.198 847.677,-267.045"/>
</g>
<!-- Node14&#45;&gt;Node9 -->
<g id="edge48" class="edge"><title>Node14&#45;&gt;Node9</title>
<path fill="none" stroke="midnightblue" d="M563.514,-310.372C533.429,-298.827 479.914,-278.293 445.734,-265.177"/>
<polygon fill="midnightblue" stroke="midnightblue" points="446.809,-261.841 436.219,-261.526 444.301,-268.376 446.809,-261.841"/>
</g>
<!-- Node14&#45;&gt;Node11 -->
<g id="edge54" class="edge"><title>Node14&#45;&gt;Node11</title>
<path fill="none" stroke="midnightblue" d="M630.882,-311.423C645.854,-308.965 662.633,-306.284 678,-304 796.875,-286.329 829.111,-295.935 946,-268 949.677,-267.121 953.48,-266.048 957.234,-264.882"/>
<polygon fill="midnightblue" stroke="midnightblue" points="958.553,-268.132 966.937,-261.655 956.344,-261.49 958.553,-268.132"/>
</g>
<!-- Node14&#45;&gt;Node15 -->
<g id="edge50" class="edge"><title>Node14&#45;&gt;Node15</title>
<path fill="none" stroke="midnightblue" d="M576.587,-310.372C565.116,-299.856 545.508,-281.882 531.29,-268.85"/>
<polygon fill="midnightblue" stroke="midnightblue" points="533.381,-266.018 523.645,-261.841 528.651,-271.178 533.381,-266.018"/>
</g>
<!-- Node14&#45;&gt;Node16 -->
<g id="edge56" class="edge"><title>Node14&#45;&gt;Node16</title>
<path fill="none" stroke="midnightblue" d="M593.452,-310.372C602.363,-300.053 617.478,-282.551 628.676,-269.585"/>
<polygon fill="midnightblue" stroke="midnightblue" points="631.477,-271.697 635.364,-261.841 626.179,-267.122 631.477,-271.697"/>
</g>
<!-- Node14&#45;&gt;Node17 -->
<g id="edge62" class="edge"><title>Node14&#45;&gt;Node17</title>
<path fill="none" stroke="midnightblue" d="M606.917,-310.372C634.783,-298.877 684.258,-278.469 716.069,-265.346"/>
<polygon fill="midnightblue" stroke="midnightblue" points="717.421,-268.575 725.331,-261.526 714.752,-262.104 717.421,-268.575"/>
</g>
<!-- Node15&#45;&gt;Node3 -->
<g id="edge52" class="edge"><title>Node15&#45;&gt;Node3</title>
<path fill="none" stroke="midnightblue" d="M486.056,-242.439C478.303,-240.2 469.857,-237.888 462,-236 386.896,-217.952 298.586,-201.928 245.519,-192.852"/>
<polygon fill="midnightblue" stroke="midnightblue" points="245.834,-189.355 235.389,-191.131 244.662,-196.257 245.834,-189.355"/>
</g>
<!-- Node16&#45;&gt;Node4 -->
<g id="edge58" class="edge"><title>Node16&#45;&gt;Node4</title>
<path fill="none" stroke="midnightblue" d="M641.096,-242.268C636.84,-224.998 624.833,-186.55 599,-168 562.632,-141.884 435.09,-130.009 367.23,-125.434"/>
<polygon fill="midnightblue" stroke="midnightblue" points="367.081,-121.917 356.875,-124.761 366.627,-128.902 367.081,-121.917"/>
</g>
<!-- Node16&#45;&gt;Node6 -->
<g id="edge60" class="edge"><title>Node16&#45;&gt;Node6</title>
<path fill="none" stroke="midnightblue" d="M643.68,-242.143C644.459,-225.653 643.794,-189.93 626,-168 538.156,-59.7325 361.613,-24.6159 290.609,-14.585"/>
<polygon fill="midnightblue" stroke="midnightblue" points="290.912,-11.0943 280.535,-13.232 289.98,-18.032 290.912,-11.0943"/>
</g>
<!-- Node18&#45;&gt;Node4 -->
<g id="edge66" class="edge"><title>Node18&#45;&gt;Node4</title>
<path fill="none" stroke="midnightblue" d="M312.948,-310.443C302.907,-301.171 288.113,-285.359 282,-268 265.96,-222.447 294.773,-167.343 312.179,-140.042"/>
<polygon fill="midnightblue" stroke="midnightblue" points="315.162,-141.875 317.767,-131.605 309.327,-138.009 315.162,-141.875"/>
</g>
<!-- Node18&#45;&gt;Node9 -->
<g id="edge68" class="edge"><title>Node18&#45;&gt;Node9</title>
<path fill="none" stroke="midnightblue" d="M334.897,-310.372C349.884,-299.502 375.862,-280.66 393.942,-267.547"/>
<polygon fill="midnightblue" stroke="midnightblue" points="396.06,-270.335 402.1,-261.63 391.95,-264.668 396.06,-270.335"/>
</g>
<!-- Node18&#45;&gt;Node10 -->
<g id="edge70" class="edge"><title>Node18&#45;&gt;Node10</title>
<path fill="none" stroke="midnightblue" d="M308.75,-310.372C290.472,-299.304 258.545,-279.972 236.854,-266.838"/>
<polygon fill="midnightblue" stroke="midnightblue" points="238.62,-263.816 228.253,-261.63 234.995,-269.804 238.62,-263.816"/>
</g>
<!-- Node18&#45;&gt;Node13 -->
<g id="edge72" class="edge"><title>Node18&#45;&gt;Node13</title>
<path fill="none" stroke="midnightblue" d="M323.131,-310.372C323.278,-300.643 323.522,-284.528 323.714,-271.85"/>
<polygon fill="midnightblue" stroke="midnightblue" points="327.214,-271.893 323.866,-261.841 320.215,-271.787 327.214,-271.893"/>
</g>
<!-- Node19&#45;&gt;Node4 -->
<g id="edge76" class="edge"><title>Node19&#45;&gt;Node4</title>
<path fill="none" stroke="midnightblue" d="M761.189,-310.435C777.684,-302.218 799.87,-288.083 810,-268 816.405,-255.302 818.129,-247.67 810,-236 759.038,-162.836 475.771,-134.27 366.763,-125.886"/>
<polygon fill="midnightblue" stroke="midnightblue" points="367.006,-122.395 356.772,-125.137 366.482,-129.375 367.006,-122.395"/>
</g>
<!-- Node19&#45;&gt;Node8 -->
<g id="edge78" class="edge"><title>Node19&#45;&gt;Node8</title>
<path fill="none" stroke="midnightblue" d="M761.394,-310.372C788.372,-298.958 836.122,-278.756 867.159,-265.625"/>
<polygon fill="midnightblue" stroke="midnightblue" points="868.755,-268.75 876.601,-261.63 866.027,-262.304 868.755,-268.75"/>
</g>
<!-- Node19&#45;&gt;Node9 -->
<g id="edge84" class="edge"><title>Node19&#45;&gt;Node9</title>
<path fill="none" stroke="midnightblue" d="M687.362,-311.189C630.883,-302.5 539.567,-287.133 462,-268 457.804,-266.965 453.436,-265.769 449.12,-264.514"/>
<polygon fill="midnightblue" stroke="midnightblue" points="449.831,-261.073 439.246,-261.524 447.802,-267.772 449.831,-261.073"/>
</g>
<!-- Node19&#45;&gt;Node10 -->
<g id="edge82" class="edge"><title>Node19&#45;&gt;Node10</title>
<path fill="none" stroke="midnightblue" d="M687.332,-310.64C671.762,-308.341 654.72,-305.947 639,-304 480.738,-284.394 439.465,-293.219 282,-268 269.753,-266.039 256.401,-263.24 244.797,-260.591"/>
<polygon fill="midnightblue" stroke="midnightblue" points="245.247,-257.102 234.713,-258.228 243.65,-263.917 245.247,-257.102"/>
</g>
<!-- Node19&#45;&gt;Node11 -->
<g id="edge86" class="edge"><title>Node19&#45;&gt;Node11</title>
<path fill="none" stroke="midnightblue" d="M779.825,-310.46C821.267,-301.085 888.711,-285.079 946,-268 949.182,-267.051 952.478,-266.01 955.764,-264.932"/>
<polygon fill="midnightblue" stroke="midnightblue" points="957.121,-268.168 965.47,-261.645 954.876,-261.538 957.121,-268.168"/>
</g>
<!-- Node19&#45;&gt;Node15 -->
<g id="edge80" class="edge"><title>Node19&#45;&gt;Node15</title>
<path fill="none" stroke="midnightblue" d="M711.324,-310.372C670.767,-298.58 597.946,-277.407 553.014,-264.343"/>
<polygon fill="midnightblue" stroke="midnightblue" points="553.903,-260.957 543.324,-261.526 551.949,-267.679 553.903,-260.957"/>
</g>
<!-- Node19&#45;&gt;Node16 -->
<g id="edge88" class="edge"><title>Node19&#45;&gt;Node16</title>
<path fill="none" stroke="midnightblue" d="M728.188,-310.372C711.974,-299.452 683.817,-280.489 664.336,-267.369"/>
<polygon fill="midnightblue" stroke="midnightblue" points="666.064,-264.313 655.815,-261.63 662.154,-270.12 666.064,-264.313"/>
</g>
<!-- Node19&#45;&gt;Node17 -->
<g id="edge94" class="edge"><title>Node19&#45;&gt;Node17</title>
<path fill="none" stroke="midnightblue" d="M741.654,-310.372C742.391,-300.643 743.612,-284.528 744.572,-271.85"/>
<polygon fill="midnightblue" stroke="midnightblue" points="748.065,-272.077 745.33,-261.841 741.085,-271.548 748.065,-272.077"/>
</g>
<!-- Node19&#45;&gt;Node20 -->
<g id="edge90" class="edge"><title>Node19&#45;&gt;Node20</title>
<path fill="none" stroke="midnightblue" d="M794.678,-311.198C853.307,-302.303 949.826,-286.567 1032,-268 1037.03,-266.863 1042.3,-265.554 1047.48,-264.192"/>
<polygon fill="midnightblue" stroke="midnightblue" points="1048.53,-267.534 1057.27,-261.541 1046.7,-260.777 1048.53,-267.534"/>
</g>
<!-- Node19&#45;&gt;Node21 -->
<g id="edge92" class="edge"><title>Node19&#45;&gt;Node21</title>
<path fill="none" stroke="midnightblue" d="M794.839,-312.821C887.676,-302.046 1074.15,-279.84 1139,-268 1145.61,-266.792 1152.58,-265.331 1159.36,-263.799"/>
<polygon fill="midnightblue" stroke="midnightblue" points="1160.17,-267.204 1169.12,-261.527 1158.58,-260.387 1160.17,-267.204"/>
</g>
<!-- Node19&#45;&gt;Node22 -->
<g id="edge96" class="edge"><title>Node19&#45;&gt;Node22</title>
<path fill="none" stroke="midnightblue" d="M794.778,-313.019C820.552,-310.198 851.866,-306.837 880,-304 1047.3,-287.131 1093.29,-296.496 1263.33,-267.936"/>
<polygon fill="midnightblue" stroke="midnightblue" points="1264.1,-271.355 1273.38,-266.229 1262.93,-264.454 1264.1,-271.355"/>
</g>
<!-- Node26&#45;&gt;Node4 -->
<g id="edge130" class="edge"><title>Node26&#45;&gt;Node4</title>
<path fill="none" stroke="midnightblue" d="M60.6311,-176.749C113.323,-165.995 221.232,-143.973 281.281,-131.718"/>
<polygon fill="midnightblue" stroke="midnightblue" points="282.104,-135.123 291.202,-129.694 280.704,-128.264 282.104,-135.123"/>
</g>
<!-- Node26&#45;&gt;Node6 -->
<g id="edge126" class="edge"><title>Node26&#45;&gt;Node6</title>
<path fill="none" stroke="midnightblue" d="M26.0573,-174.285C20.2379,-159.983 11.3289,-131.205 24,-112 70.2668,-41.8736 176.365,-20.2588 229.09,-13.736"/>
<polygon fill="midnightblue" stroke="midnightblue" points="229.648,-17.1953 239.19,-12.5919 228.86,-10.2398 229.648,-17.1953"/>
</g>
<!-- Node27 -->
<g id="node91" class="node"><title>Node27</title>
<polygon fill="white" stroke="#bfbfbf" points="33.5,-112.5 33.5,-131.5 76.5,-131.5 76.5,-112.5 33.5,-112.5"/>
<text text-anchor="middle" x="55" y="-119.5" font-family="FreeSans" font-size="10.00">hdf5.h</text>
</g>
<!-- Node26&#45;&gt;Node27 -->
<g id="edge128" class="edge"><title>Node26&#45;&gt;Node27</title>
<path fill="none" stroke="midnightblue" d="M33.5819,-174.403C37.1834,-165.76 42.8458,-152.17 47.4441,-141.134"/>
<polygon fill="midnightblue" stroke="midnightblue" points="50.8093,-142.158 51.4248,-131.581 44.3478,-139.465 50.8093,-142.158"/>
</g>
</g>
</svg>
