<?xml version="1.0" encoding="UTF-8" standalone="no"?>
<!DOCTYPE svg PUBLIC "-//W3C//DTD SVG 1.1//EN"
 "http://www.w3.org/Graphics/SVG/1.1/DTD/svg11.dtd">
<!-- Generated by graphviz version 2.28.0 (20120425.2022)
 -->
<!-- Title: src/flameSolver.cpp Pages: 1 -->
<svg width="1322pt" height="400pt"
 viewBox="0.00 0.00 1322.00 400.00" xmlns="http://www.w3.org/2000/svg" xmlns:xlink="http://www.w3.org/1999/xlink">
<g id="graph1" class="graph" transform="scale(1 1) rotate(0) translate(4 396)">
<title>src/flameSolver.cpp</title>
<polygon fill="white" stroke="white" points="-4,5 -4,-396 1319,-396 1319,5 -4,5"/>
<!-- Node1 -->
<g id="node1" class="node"><title>Node1</title>
<polygon fill="#bfbfbf" stroke="black" points="1018.5,-372.5 1018.5,-391.5 1123.5,-391.5 1123.5,-372.5 1018.5,-372.5"/>
<text text-anchor="middle" x="1071" y="-379.5" font-family="FreeSans" font-size="10.00">src/flameSolver.cpp</text>
</g>
<!-- Node2 -->
<g id="node3" class="node"><title>Node2</title>
<a xlink:href="flameSolver_8h.html" target="_top" xlink:title="flameSolver.h">
<polygon fill="white" stroke="black" points="577,-316.5 577,-335.5 655,-335.5 655,-316.5 577,-316.5"/>
<text text-anchor="middle" x="616" y="-323.5" font-family="FreeSans" font-size="10.00">flameSolver.h</text>
</a>
</g>
<!-- Node1&#45;&gt;Node2 -->
<g id="edge2" class="edge"><title>Node1&#45;&gt;Node2</title>
<path fill="none" stroke="midnightblue" d="M1018.36,-374.753C929.682,-364.228 751.744,-343.11 665.337,-332.855"/>
<polygon fill="midnightblue" stroke="midnightblue" points="665.609,-329.363 655.266,-331.66 664.784,-336.314 665.609,-329.363"/>
</g>
<!-- Node21 -->
<g id="node64" class="node"><title>Node21</title>
<a xlink:href="dataFile_8h.html" target="_top" xlink:title="dataFile.h">
<polygon fill="white" stroke="black" points="1040.5,-118.5 1040.5,-137.5 1101.5,-137.5 1101.5,-118.5 1040.5,-118.5"/>
<text text-anchor="middle" x="1071" y="-125.5" font-family="FreeSans" font-size="10.00">dataFile.h</text>
</a>
</g>
<!-- Node1&#45;&gt;Node21 -->
<g id="edge86" class="edge"><title>Node1&#45;&gt;Node21</title>
<path fill="none" stroke="midnightblue" d="M1071,-372.326C1071,-336.355 1071,-198.44 1071,-147.795"/>
<polygon fill="midnightblue" stroke="midnightblue" points="1074.5,-147.638 1071,-137.638 1067.5,-147.638 1074.5,-147.638"/>
</g>
<!-- Node23 -->
<g id="node70" class="node"><title>Node23</title>
<a xlink:href="strainFunction_8h.html" target="_top" xlink:title="strainFunction.h">
<polygon fill="white" stroke="black" points="234.5,-316.5 234.5,-335.5 319.5,-335.5 319.5,-316.5 234.5,-316.5"/>
<text text-anchor="middle" x="277" y="-323.5" font-family="FreeSans" font-size="10.00">strainFunction.h</text>
</a>
</g>
<!-- Node1&#45;&gt;Node23 -->
<g id="edge94" class="edge"><title>Node1&#45;&gt;Node23</title>
<path fill="none" stroke="midnightblue" d="M1018.29,-377.415C874.172,-367.614 474.722,-340.447 330.122,-330.613"/>
<polygon fill="midnightblue" stroke="midnightblue" points="329.968,-327.094 319.753,-329.908 329.493,-334.078 329.968,-327.094"/>
</g>
<!-- Node24 -->
<g id="node73" class="node"><title>Node24</title>
<a xlink:href="tbb__tools_8h.html" target="_top" xlink:title="tbb_tools.h">
<polygon fill="white" stroke="black" points="1110,-316.5 1110,-335.5 1174,-335.5 1174,-316.5 1110,-316.5"/>
<text text-anchor="middle" x="1142" y="-323.5" font-family="FreeSans" font-size="10.00">tbb_tools.h</text>
</a>
</g>
<!-- Node1&#45;&gt;Node24 -->
<g id="edge98" class="edge"><title>Node1&#45;&gt;Node24</title>
<path fill="none" stroke="midnightblue" d="M1082.41,-372.324C1093.11,-364.185 1109.34,-351.839 1122.16,-342.087"/>
<polygon fill="midnightblue" stroke="midnightblue" points="1124.54,-344.673 1130.39,-335.834 1120.31,-339.102 1124.54,-344.673"/>
</g>
<!-- Node27 -->
<g id="node79" class="node"><title>Node27</title>
<polygon fill="white" stroke="#bfbfbf" points="1192,-316.5 1192,-335.5 1288,-335.5 1288,-316.5 1192,-316.5"/>
<text text-anchor="middle" x="1240" y="-323.5" font-family="FreeSans" font-size="10.00">boost/foreach.hpp</text>
</g>
<!-- Node1&#45;&gt;Node27 -->
<g id="edge104" class="edge"><title>Node1&#45;&gt;Node27</title>
<path fill="none" stroke="midnightblue" d="M1097.78,-372.444C1126.33,-363.32 1171.73,-348.813 1203.54,-338.651"/>
<polygon fill="midnightblue" stroke="midnightblue" points="1204.89,-341.894 1213.35,-335.516 1202.76,-335.226 1204.89,-341.894"/>
</g>
<!-- Node3 -->
<g id="node5" class="node"><title>Node3</title>
<a xlink:href="readConfig_8h.html" target="_top" xlink:title="readConfig.h">
<polygon fill="white" stroke="black" points="811,-118.5 811,-137.5 885,-137.5 885,-118.5 811,-118.5"/>
<text text-anchor="middle" x="848" y="-125.5" font-family="FreeSans" font-size="10.00">readConfig.h</text>
</a>
</g>
<!-- Node2&#45;&gt;Node3 -->
<g id="edge4" class="edge"><title>Node2&#45;&gt;Node3</title>
<path fill="none" stroke="midnightblue" d="M655.169,-324.407C732.655,-322.489 901.919,-314.371 947,-280 983.8,-251.943 1001.97,-218.302 976,-180 970.494,-171.879 919.467,-153.218 883.531,-140.864"/>
<polygon fill="midnightblue" stroke="midnightblue" points="884.44,-137.476 873.845,-137.561 882.18,-144.101 884.44,-137.476"/>
</g>
<!-- Node5 -->
<g id="node9" class="node"><title>Node5</title>
<polygon fill="white" stroke="#bfbfbf" points="252,-0.5 252,-19.5 308,-19.5 308,-0.5 252,-0.5"/>
<text text-anchor="middle" x="280" y="-7.5" font-family="FreeSans" font-size="10.00">iostream</text>
</g>
<!-- Node2&#45;&gt;Node5 -->
<g id="edge74" class="edge"><title>Node2&#45;&gt;Node5</title>
<path fill="none" stroke="midnightblue" d="M576.66,-323.199C461.33,-317.707 129.38,-300.301 85,-280 36.9841,-258.036 0,-249.801 0,-197 0,-197 0,-197 0,-127 0,-23.6025 164.982,-10.5927 241.663,-10.1301"/>
<polygon fill="midnightblue" stroke="midnightblue" points="241.867,-13.6302 251.871,-10.14 241.874,-6.63018 241.867,-13.6302"/>
</g>
<!-- Node7 -->
<g id="node14" class="node"><title>Node7</title>
<a xlink:href="chemistry0d_8h.html" target="_top" xlink:title="chemistry0d.h">
<polygon fill="white" stroke="red" points="520,-118.5 520,-137.5 598,-137.5 598,-118.5 520,-118.5"/>
<text text-anchor="middle" x="559" y="-125.5" font-family="FreeSans" font-size="10.00">chemistry0d.h</text>
</a>
</g>
<!-- Node2&#45;&gt;Node7 -->
<g id="edge14" class="edge"><title>Node2&#45;&gt;Node7</title>
<path fill="none" stroke="midnightblue" d="M610.397,-316.498C600.573,-301.85 579.257,-271.197 558,-248 541.841,-230.366 527.731,-233.849 518,-212 512.214,-199.008 513.276,-193.415 518,-180 522.728,-166.574 532.649,-154.073 541.548,-144.808"/>
<polygon fill="midnightblue" stroke="midnightblue" points="544.255,-147.056 548.948,-137.557 539.356,-142.056 544.255,-147.056"/>
</g>
<!-- Node8 -->
<g id="node17" class="node"><title>Node8</title>
<a xlink:href="grid_8h.html" target="_top" xlink:title="grid.h">
<polygon fill="white" stroke="black" points="763.5,-186.5 763.5,-205.5 804.5,-205.5 804.5,-186.5 763.5,-186.5"/>
<text text-anchor="middle" x="784" y="-193.5" font-family="FreeSans" font-size="10.00">grid.h</text>
</a>
</g>
<!-- Node2&#45;&gt;Node8 -->
<g id="edge18" class="edge"><title>Node2&#45;&gt;Node8</title>
<path fill="none" stroke="midnightblue" d="M655.246,-319.235C697.745,-312.133 761.552,-298.672 777,-280 791.803,-262.108 790.789,-234.004 787.977,-215.54"/>
<polygon fill="midnightblue" stroke="midnightblue" points="791.418,-214.902 786.169,-205.699 784.534,-216.167 791.418,-214.902"/>
</g>
<!-- Node9 -->
<g id="node20" class="node"><title>Node9</title>
<a xlink:href="splitSolver_8h.html" target="_top" xlink:title="splitSolver.h">
<polygon fill="white" stroke="black" points="846.5,-254.5 846.5,-273.5 917.5,-273.5 917.5,-254.5 846.5,-254.5"/>
<text text-anchor="middle" x="882" y="-261.5" font-family="FreeSans" font-size="10.00">splitSolver.h</text>
</a>
</g>
<!-- Node2&#45;&gt;Node9 -->
<g id="edge22" class="edge"><title>Node2&#45;&gt;Node9</title>
<path fill="none" stroke="midnightblue" d="M655.253,-317.875C698.715,-309.742 770.737,-295.54 832,-280 836.368,-278.892 840.925,-277.649 845.433,-276.364"/>
<polygon fill="midnightblue" stroke="midnightblue" points="846.518,-279.694 855.131,-273.524 844.551,-272.976 846.518,-279.694"/>
</g>
<!-- Node10 -->
<g id="node23" class="node"><title>Node10</title>
<a xlink:href="perfTimer_8h.html" target="_top" xlink:title="perfTimer.h">
<polygon fill="white" stroke="red" points="899,-186.5 899,-205.5 967,-205.5 967,-186.5 899,-186.5"/>
<text text-anchor="middle" x="933" y="-193.5" font-family="FreeSans" font-size="10.00">perfTimer.h</text>
</a>
</g>
<!-- Node2&#45;&gt;Node10 -->
<g id="edge32" class="edge"><title>Node2&#45;&gt;Node10</title>
<path fill="none" stroke="midnightblue" d="M655.088,-325.12C730.045,-324.46 889.788,-318.453 926,-280 942.003,-263.007 940.608,-234.445 937.393,-215.66"/>
<polygon fill="midnightblue" stroke="midnightblue" points="940.78,-214.752 935.351,-205.653 933.921,-216.151 940.78,-214.752"/>
</g>
<!-- Node11 -->
<g id="node25" class="node"><title>Node11</title>
<polygon fill="white" stroke="#bfbfbf" points="903.5,-113 903.5,-143 1022.5,-143 1022.5,-113 903.5,-113"/>
<text text-anchor="start" x="911.5" y="-131" font-family="FreeSans" font-size="10.00">tbb/enumerable_thread</text>
<text text-anchor="middle" x="963" y="-120" font-family="FreeSans" font-size="10.00">_specific.h</text>
</g>
<!-- Node2&#45;&gt;Node11 -->
<g id="edge80" class="edge"><title>Node2&#45;&gt;Node11</title>
<path fill="none" stroke="midnightblue" d="M655.226,-325.353C738.498,-325.29 929.233,-320.592 977,-280 1011.54,-250.65 1010.13,-223.38 997,-180 993.933,-169.871 988.118,-159.915 982.152,-151.526"/>
<polygon fill="midnightblue" stroke="midnightblue" points="984.825,-149.258 975.99,-143.41 979.25,-153.491 984.825,-149.258"/>
</g>
<!-- Node12 -->
<g id="node29" class="node"><title>Node12</title>
<a xlink:href="integrator_8h.html" target="_top" xlink:title="integrator.h">
<polygon fill="white" stroke="black" points="119,-186.5 119,-205.5 185,-205.5 185,-186.5 119,-186.5"/>
<text text-anchor="middle" x="152" y="-193.5" font-family="FreeSans" font-size="10.00">integrator.h</text>
</a>
</g>
<!-- Node2&#45;&gt;Node12 -->
<g id="edge34" class="edge"><title>Node2&#45;&gt;Node12</title>
<path fill="none" stroke="midnightblue" d="M576.978,-323.062C458.706,-317 111.283,-297.75 95,-280 74.8985,-258.087 106.68,-228.648 130.268,-211.36"/>
<polygon fill="midnightblue" stroke="midnightblue" points="132.318,-214.198 138.477,-205.577 128.286,-208.475 132.318,-214.198"/>
</g>
<!-- Node13 -->
<g id="node32" class="node"><title>Node13</title>
<a xlink:href="sourceSystem_8h.html" target="_top" xlink:title="sourceSystem.h">
<polygon fill="white" stroke="red" points="460.5,-254.5 460.5,-273.5 549.5,-273.5 549.5,-254.5 460.5,-254.5"/>
<text text-anchor="middle" x="505" y="-261.5" font-family="FreeSans" font-size="10.00">sourceSystem.h</text>
</a>
</g>
<!-- Node2&#45;&gt;Node13 -->
<g id="edge38" class="edge"><title>Node2&#45;&gt;Node13</title>
<path fill="none" stroke="midnightblue" d="M600.096,-316.403C581.715,-306.468 551.244,-289.997 529.755,-278.381"/>
<polygon fill="midnightblue" stroke="midnightblue" points="531.335,-275.257 520.874,-273.581 528.007,-281.415 531.335,-275.257"/>
</g>
<!-- Node14 -->
<g id="node35" class="node"><title>Node14</title>
<a xlink:href="quasi2d_8h.html" target="_top" xlink:title="quasi2d.h">
<polygon fill="white" stroke="red" points="685,-186.5 685,-205.5 745,-205.5 745,-186.5 685,-186.5"/>
<text text-anchor="middle" x="715" y="-193.5" font-family="FreeSans" font-size="10.00">quasi2d.h</text>
</a>
</g>
<!-- Node2&#45;&gt;Node14 -->
<g id="edge72" class="edge"><title>Node2&#45;&gt;Node14</title>
<path fill="none" stroke="midnightblue" d="M655.315,-324.714C689.157,-322.119 736.185,-312.393 760,-280 776.142,-258.044 752.34,-229.601 733.667,-212.356"/>
<polygon fill="midnightblue" stroke="midnightblue" points="735.928,-209.683 726.109,-205.702 731.302,-214.937 735.928,-209.683"/>
</g>
<!-- Node15 -->
<g id="node39" class="node"><title>Node15</title>
<polygon fill="white" stroke="#bfbfbf" points="323,-186.5 323,-205.5 433,-205.5 433,-186.5 323,-186.5"/>
<text text-anchor="middle" x="378" y="-193.5" font-family="FreeSans" font-size="10.00">boost/shared_ptr.hpp</text>
</g>
<!-- Node2&#45;&gt;Node15 -->
<g id="edge78" class="edge"><title>Node2&#45;&gt;Node15</title>
<path fill="none" stroke="midnightblue" d="M576.891,-323.113C486.4,-318.346 268.632,-304.431 247,-280 217.361,-246.527 281.295,-221.556 329.877,-208.141"/>
<polygon fill="midnightblue" stroke="midnightblue" points="330.902,-211.49 339.664,-205.534 329.1,-204.726 330.902,-211.49"/>
</g>
<!-- Node16 -->
<g id="node41" class="node"><title>Node16</title>
<a xlink:href="diffusionSystem_8h.html" target="_top" xlink:title="diffusionSystem.h">
<polygon fill="white" stroke="black" points="104.5,-254.5 104.5,-273.5 199.5,-273.5 199.5,-254.5 104.5,-254.5"/>
<text text-anchor="middle" x="152" y="-261.5" font-family="FreeSans" font-size="10.00">diffusionSystem.h</text>
</a>
</g>
<!-- Node2&#45;&gt;Node16 -->
<g id="edge50" class="edge"><title>Node2&#45;&gt;Node16</title>
<path fill="none" stroke="midnightblue" d="M576.96,-322.272C504.857,-316.87 346.099,-303.278 214,-280 207.558,-278.865 200.789,-277.455 194.186,-275.958"/>
<polygon fill="midnightblue" stroke="midnightblue" points="194.554,-272.449 184.017,-273.56 192.947,-279.262 194.554,-272.449"/>
</g>
<!-- Node17 -->
<g id="node46" class="node"><title>Node17</title>
<a xlink:href="convectionSystem_8h.html" target="_top" xlink:title="convectionSystem.h">
<polygon fill="white" stroke="red" points="644.5,-254.5 644.5,-273.5 751.5,-273.5 751.5,-254.5 644.5,-254.5"/>
<text text-anchor="middle" x="698" y="-261.5" font-family="FreeSans" font-size="10.00">convectionSystem.h</text>
</a>
</g>
<!-- Node2&#45;&gt;Node17 -->
<g id="edge58" class="edge"><title>Node2&#45;&gt;Node17</title>
<path fill="none" stroke="midnightblue" d="M627.749,-316.403C640.901,-306.78 662.434,-291.024 678.198,-279.489"/>
<polygon fill="midnightblue" stroke="midnightblue" points="680.27,-282.31 686.273,-273.581 676.136,-276.661 680.27,-282.31"/>
</g>
<!-- Node18 -->
<g id="node53" class="node"><title>Node18</title>
<polygon fill="white" stroke="#bfbfbf" points="527.5,-181 527.5,-211 628.5,-211 628.5,-181 527.5,-181"/>
<text text-anchor="start" x="535.5" y="-199" font-family="FreeSans" font-size="10.00">boost/ptr_container</text>
<text text-anchor="middle" x="578" y="-188" font-family="FreeSans" font-size="10.00">/ptr_vector.hpp</text>
</g>
<!-- Node2&#45;&gt;Node18 -->
<g id="edge76" class="edge"><title>Node2&#45;&gt;Node18</title>
<path fill="none" stroke="midnightblue" d="M613.388,-316.202C607.624,-296.785 593.646,-249.701 585.083,-220.859"/>
<polygon fill="midnightblue" stroke="midnightblue" points="588.4,-219.733 582.199,-211.143 581.69,-221.726 588.4,-219.733"/>
</g>
<!-- Node19 -->
<g id="node60" class="node"><title>Node19</title>
<polygon fill="white" stroke="#bfbfbf" points="256.5,-254.5 256.5,-273.5 323.5,-273.5 323.5,-254.5 256.5,-254.5"/>
<text text-anchor="middle" x="290" y="-261.5" font-family="FreeSans" font-size="10.00">tbb/mutex.h</text>
</g>
<!-- Node2&#45;&gt;Node19 -->
<g id="edge82" class="edge"><title>Node2&#45;&gt;Node19</title>
<path fill="none" stroke="midnightblue" d="M576.949,-321.138C521.766,-315.157 418.095,-301.991 332,-280 328.413,-279.084 324.701,-277.987 321.036,-276.808"/>
<polygon fill="midnightblue" stroke="midnightblue" points="322.155,-273.492 311.56,-273.566 319.889,-280.115 322.155,-273.492"/>
</g>
<!-- Node20 -->
<g id="node62" class="node"><title>Node20</title>
<polygon fill="white" stroke="#bfbfbf" points="341.5,-249 341.5,-279 442.5,-279 442.5,-249 341.5,-249"/>
<text text-anchor="start" x="349.5" y="-267" font-family="FreeSans" font-size="10.00">tbb/task_scheduler</text>
<text text-anchor="middle" x="392" y="-256" font-family="FreeSans" font-size="10.00">_init.h</text>
</g>
<!-- Node2&#45;&gt;Node20 -->
<g id="edge84" class="edge"><title>Node2&#45;&gt;Node20</title>
<path fill="none" stroke="midnightblue" d="M583.906,-316.403C549.748,-307.254 494.899,-292.562 452.57,-281.224"/>
<polygon fill="midnightblue" stroke="midnightblue" points="453.213,-277.773 442.648,-278.566 451.401,-284.535 453.213,-277.773"/>
</g>
<!-- Node4 -->
<g id="node7" class="node"><title>Node4</title>
<a xlink:href="mathUtils_8h.html" target="_top" xlink:title="mathUtils.h">
<polygon fill="white" stroke="red" points="575.5,-56.5 575.5,-75.5 640.5,-75.5 640.5,-56.5 575.5,-56.5"/>
<text text-anchor="middle" x="608" y="-63.5" font-family="FreeSans" font-size="10.00">mathUtils.h</text>
</a>
</g>
<!-- Node3&#45;&gt;Node4 -->
<g id="edge6" class="edge"><title>Node3&#45;&gt;Node4</title>
<path fill="none" stroke="midnightblue" d="M813.869,-118.467C770.947,-107.737 697.246,-89.3116 650.653,-77.6634"/>
<polygon fill="midnightblue" stroke="midnightblue" points="651.408,-74.2444 640.858,-75.2145 649.71,-81.0354 651.408,-74.2444"/>
</g>
<!-- Node6 -->
<g id="node11" class="node"><title>Node6</title>
<polygon fill="white" stroke="#bfbfbf" points="788.5,-0.5 788.5,-19.5 829.5,-19.5 829.5,-0.5 788.5,-0.5"/>
<text text-anchor="middle" x="809" y="-7.5" font-family="FreeSans" font-size="10.00">string</text>
</g>
<!-- Node3&#45;&gt;Node6 -->
<g id="edge12" class="edge"><title>Node3&#45;&gt;Node6</title>
<path fill="none" stroke="midnightblue" d="M845.069,-118.281C838.714,-99.3787 823.556,-54.295 815.052,-29"/>
<polygon fill="midnightblue" stroke="midnightblue" points="818.364,-27.868 811.859,-19.5048 811.729,-30.0988 818.364,-27.868"/>
</g>
<!-- Node4&#45;&gt;Node5 -->
<g id="edge8" class="edge"><title>Node4&#45;&gt;Node5</title>
<path fill="none" stroke="midnightblue" d="M575.351,-59.6249C514.414,-49.5926 383.654,-28.065 318.516,-17.3411"/>
<polygon fill="midnightblue" stroke="midnightblue" points="318.707,-13.8254 308.271,-15.6544 317.57,-20.7325 318.707,-13.8254"/>
</g>
<!-- Node4&#45;&gt;Node6 -->
<g id="edge10" class="edge"><title>Node4&#45;&gt;Node6</title>
<path fill="none" stroke="midnightblue" d="M639.849,-56.4435C677.894,-46.2225 741.081,-29.2468 778.514,-19.1904"/>
<polygon fill="midnightblue" stroke="midnightblue" points="779.597,-22.5236 788.346,-16.5488 777.781,-15.7633 779.597,-22.5236"/>
</g>
<!-- Node7&#45;&gt;Node4 -->
<g id="edge16" class="edge"><title>Node7&#45;&gt;Node4</title>
<path fill="none" stroke="midnightblue" d="M566.021,-118.403C573.443,-109.314 585.333,-94.7559 594.567,-83.4489"/>
<polygon fill="midnightblue" stroke="midnightblue" points="597.378,-85.5398 600.993,-75.5806 591.956,-81.1121 597.378,-85.5398"/>
</g>
<!-- Node8&#45;&gt;Node3 -->
<g id="edge20" class="edge"><title>Node8&#45;&gt;Node3</title>
<path fill="none" stroke="midnightblue" d="M792.367,-186.372C802.468,-175.955 819.668,-158.217 832.275,-145.216"/>
<polygon fill="midnightblue" stroke="midnightblue" points="834.978,-147.457 839.427,-137.841 829.953,-142.584 834.978,-147.457"/>
</g>
<!-- Node9&#45;&gt;Node3 -->
<g id="edge30" class="edge"><title>Node9&#45;&gt;Node3</title>
<path fill="none" stroke="midnightblue" d="M879.769,-254.208C874.293,-232.627 860.097,-176.675 852.675,-147.426"/>
<polygon fill="midnightblue" stroke="midnightblue" points="856.047,-146.482 850.195,-137.65 849.262,-148.204 856.047,-146.482"/>
</g>
<!-- Node9&#45;&gt;Node4 -->
<g id="edge24" class="edge"><title>Node9&#45;&gt;Node4</title>
<path fill="none" stroke="midnightblue" d="M876.37,-254.387C865.55,-238.302 840.475,-203.229 813,-180 758.153,-133.628 681.331,-97.4272 639.016,-79.4547"/>
<polygon fill="midnightblue" stroke="midnightblue" points="640.358,-76.2224 629.783,-75.5905 637.656,-82.6798 640.358,-76.2224"/>
</g>
<!-- Node9&#45;&gt;Node10 -->
<g id="edge26" class="edge"><title>Node9&#45;&gt;Node10</title>
<path fill="none" stroke="midnightblue" d="M888.667,-254.372C896.565,-244.151 909.908,-226.884 919.897,-213.957"/>
<polygon fill="midnightblue" stroke="midnightblue" points="922.823,-215.894 926.168,-205.841 917.284,-211.614 922.823,-215.894"/>
</g>
<!-- Node10&#45;&gt;Node11 -->
<g id="edge28" class="edge"><title>Node10&#45;&gt;Node11</title>
<path fill="none" stroke="midnightblue" d="M936.922,-186.372C940.818,-177.8 946.967,-164.272 952.316,-152.504"/>
<polygon fill="midnightblue" stroke="midnightblue" points="955.602,-153.733 956.554,-143.181 949.23,-150.837 955.602,-153.733"/>
</g>
<!-- Node12&#45;&gt;Node4 -->
<g id="edge36" class="edge"><title>Node12&#45;&gt;Node4</title>
<path fill="none" stroke="midnightblue" d="M158.096,-186.342C170.95,-168.853 202.739,-129.493 240,-112 296.91,-85.2829 481.255,-73.1371 565.407,-68.8817"/>
<polygon fill="midnightblue" stroke="midnightblue" points="565.581,-72.3774 575.397,-68.3899 565.237,-65.3859 565.581,-72.3774"/>
</g>
<!-- Node13&#45;&gt;Node4 -->
<g id="edge40" class="edge"><title>Node13&#45;&gt;Node4</title>
<path fill="none" stroke="midnightblue" d="M502.456,-254.213C495.831,-229.396 480.581,-157.622 511,-112 523.391,-93.417 545.559,-82.3616 565.579,-75.8629"/>
<polygon fill="midnightblue" stroke="midnightblue" points="566.583,-79.2158 575.181,-73.0256 564.599,-72.5027 566.583,-79.2158"/>
</g>
<!-- Node13&#45;&gt;Node14 -->
<g id="edge42" class="edge"><title>Node13&#45;&gt;Node14</title>
<path fill="none" stroke="midnightblue" d="M532.454,-254.372C569.737,-242.654 636.493,-221.674 678.119,-208.591"/>
<polygon fill="midnightblue" stroke="midnightblue" points="679.382,-211.863 687.872,-205.526 677.283,-205.185 679.382,-211.863"/>
</g>
<!-- Node13&#45;&gt;Node15 -->
<g id="edge48" class="edge"><title>Node13&#45;&gt;Node15</title>
<path fill="none" stroke="midnightblue" d="M488.397,-254.372C466.815,-243.156 428.902,-223.453 403.619,-210.314"/>
<polygon fill="midnightblue" stroke="midnightblue" points="405.094,-207.136 394.607,-205.63 401.866,-213.348 405.094,-207.136"/>
</g>
<!-- Node14&#45;&gt;Node4 -->
<g id="edge44" class="edge"><title>Node14&#45;&gt;Node4</title>
<path fill="none" stroke="midnightblue" d="M711.992,-186.449C706.062,-170.469 691.624,-135.563 671,-112 660.172,-99.6293 645.309,-88.8072 632.739,-80.8778"/>
<polygon fill="midnightblue" stroke="midnightblue" points="634.449,-77.8213 624.082,-75.6345 630.822,-83.8087 634.449,-77.8213"/>
</g>
<!-- Node14&#45;&gt;Node6 -->
<g id="edge46" class="edge"><title>Node14&#45;&gt;Node6</title>
<path fill="none" stroke="midnightblue" d="M719.534,-186.125C734.144,-157.526 780.187,-67.4003 799.899,-28.8145"/>
<polygon fill="midnightblue" stroke="midnightblue" points="803.079,-30.2832 804.512,-19.7857 796.845,-27.0986 803.079,-30.2832"/>
</g>
<!-- Node16&#45;&gt;Node4 -->
<g id="edge52" class="edge"><title>Node16&#45;&gt;Node4</title>
<path fill="none" stroke="midnightblue" d="M167.37,-254.427C195.837,-238.707 258.892,-204.624 314,-180 406.119,-138.839 518.179,-98.3091 573.579,-78.8838"/>
<polygon fill="midnightblue" stroke="midnightblue" points="574.96,-82.1088 583.246,-75.5068 572.651,-75.5004 574.96,-82.1088"/>
</g>
<!-- Node16&#45;&gt;Node8 -->
<g id="edge54" class="edge"><title>Node16&#45;&gt;Node8</title>
<path fill="none" stroke="midnightblue" d="M199.733,-254.645C214.816,-252.225 231.572,-249.764 247,-248 470.999,-222.395 535.169,-270.145 753,-212 755.34,-211.376 757.715,-210.573 760.056,-209.665"/>
<polygon fill="midnightblue" stroke="midnightblue" points="761.613,-212.803 769.307,-205.519 758.75,-206.415 761.613,-212.803"/>
</g>
<!-- Node16&#45;&gt;Node12 -->
<g id="edge56" class="edge"><title>Node16&#45;&gt;Node12</title>
<path fill="none" stroke="midnightblue" d="M152,-254.372C152,-244.643 152,-228.528 152,-215.85"/>
<polygon fill="midnightblue" stroke="midnightblue" points="155.5,-215.841 152,-205.841 148.5,-215.841 155.5,-215.841"/>
</g>
<!-- Node17&#45;&gt;Node4 -->
<g id="edge60" class="edge"><title>Node17&#45;&gt;Node4</title>
<path fill="none" stroke="midnightblue" d="M694.017,-254.325C680.31,-224.474 634.905,-125.594 616.182,-84.8182"/>
<polygon fill="midnightblue" stroke="midnightblue" points="619.291,-83.2018 611.937,-75.5746 612.93,-86.1229 619.291,-83.2018"/>
</g>
<!-- Node17&#45;&gt;Node8 -->
<g id="edge62" class="edge"><title>Node17&#45;&gt;Node8</title>
<path fill="none" stroke="midnightblue" d="M709.243,-254.372C723.278,-243.6 747.512,-225.002 764.576,-211.906"/>
<polygon fill="midnightblue" stroke="midnightblue" points="766.952,-214.495 772.754,-205.63 762.69,-208.942 766.952,-214.495"/>
</g>
<!-- Node17&#45;&gt;Node10 -->
<g id="edge64" class="edge"><title>Node17&#45;&gt;Node10</title>
<path fill="none" stroke="midnightblue" d="M728.722,-254.372C770.797,-242.555 846.413,-221.318 892.904,-208.261"/>
<polygon fill="midnightblue" stroke="midnightblue" points="893.962,-211.599 902.643,-205.526 892.069,-204.86 893.962,-211.599"/>
</g>
<!-- Node17&#45;&gt;Node14 -->
<g id="edge66" class="edge"><title>Node17&#45;&gt;Node14</title>
<path fill="none" stroke="midnightblue" d="M700.222,-254.372C702.728,-244.643 706.879,-228.528 710.145,-215.85"/>
<polygon fill="midnightblue" stroke="midnightblue" points="713.618,-216.398 712.723,-205.841 706.839,-214.652 713.618,-216.398"/>
</g>
<!-- Node17&#45;&gt;Node15 -->
<g id="edge68" class="edge"><title>Node17&#45;&gt;Node15</title>
<path fill="none" stroke="midnightblue" d="M656.494,-254.439C598.344,-242.446 492.688,-220.654 429.564,-207.635"/>
<polygon fill="midnightblue" stroke="midnightblue" points="429.934,-204.138 419.433,-205.546 428.52,-210.993 429.934,-204.138"/>
</g>
<!-- Node17&#45;&gt;Node18 -->
<g id="edge70" class="edge"><title>Node17&#45;&gt;Node18</title>
<path fill="none" stroke="midnightblue" d="M682.312,-254.372C664.701,-244.686 635.583,-228.671 612.58,-216.019"/>
<polygon fill="midnightblue" stroke="midnightblue" points="614.233,-212.934 603.784,-211.181 610.86,-219.067 614.233,-212.934"/>
</g>
<!-- Node21&#45;&gt;Node4 -->
<g id="edge92" class="edge"><title>Node21&#45;&gt;Node4</title>
<path fill="none" stroke="midnightblue" d="M1050.96,-118.354C1044.67,-115.951 1037.64,-113.571 1031,-112 894.581,-79.7161 727.9,-70.5672 650.839,-67.9945"/>
<polygon fill="midnightblue" stroke="midnightblue" points="650.677,-64.4879 640.573,-67.6735 650.458,-71.4844 650.677,-64.4879"/>
</g>
<!-- Node21&#45;&gt;Node6 -->
<g id="edge88" class="edge"><title>Node21&#45;&gt;Node6</title>
<path fill="none" stroke="midnightblue" d="M1051.73,-118.47C1006.12,-98.2752 891.333,-47.4527 837.588,-23.6574"/>
<polygon fill="midnightblue" stroke="midnightblue" points="838.855,-20.3904 828.294,-19.5423 836.021,-26.7911 838.855,-20.3904"/>
</g>
<!-- Node22 -->
<g id="node67" class="node"><title>Node22</title>
<polygon fill="white" stroke="#bfbfbf" points="1049.5,-56.5 1049.5,-75.5 1092.5,-75.5 1092.5,-56.5 1049.5,-56.5"/>
<text text-anchor="middle" x="1071" y="-63.5" font-family="FreeSans" font-size="10.00">hdf5.h</text>
</g>
<!-- Node21&#45;&gt;Node22 -->
<g id="edge90" class="edge"><title>Node21&#45;&gt;Node22</title>
<path fill="none" stroke="midnightblue" d="M1071,-118.403C1071,-109.938 1071,-96.7283 1071,-85.8199"/>
<polygon fill="midnightblue" stroke="midnightblue" points="1074.5,-85.5806 1071,-75.5806 1067.5,-85.5806 1074.5,-85.5806"/>
</g>
<!-- Node23&#45;&gt;Node4 -->
<g id="edge96" class="edge"><title>Node23&#45;&gt;Node4</title>
<path fill="none" stroke="midnightblue" d="M234.458,-321.097C183.675,-315.455 103.291,-303.073 85,-280 65.244,-255.078 103.512,-189.063 110,-180 137.959,-140.943 149.655,-130.457 194,-112 260.36,-84.3809 473.391,-72.5184 565.219,-68.5978"/>
<polygon fill="midnightblue" stroke="midnightblue" points="565.434,-72.092 575.28,-68.1795 565.143,-65.098 565.434,-72.092"/>
</g>
<!-- Node25 -->
<g id="node75" class="node"><title>Node25</title>
<polygon fill="white" stroke="#bfbfbf" points="1099.5,-254.5 1099.5,-273.5 1206.5,-273.5 1206.5,-254.5 1099.5,-254.5"/>
<text text-anchor="middle" x="1153" y="-261.5" font-family="FreeSans" font-size="10.00">tbb/blocked_range.h</text>
</g>
<!-- Node24&#45;&gt;Node25 -->
<g id="edge100" class="edge"><title>Node24&#45;&gt;Node25</title>
<path fill="none" stroke="midnightblue" d="M1143.58,-316.403C1145.14,-307.849 1147.6,-294.45 1149.61,-283.476"/>
<polygon fill="midnightblue" stroke="midnightblue" points="1153.07,-284.048 1151.43,-273.581 1146.18,-282.785 1153.07,-284.048"/>
</g>
<!-- Node26 -->
<g id="node77" class="node"><title>Node26</title>
<polygon fill="white" stroke="#bfbfbf" points="1224.5,-254.5 1224.5,-273.5 1313.5,-273.5 1313.5,-254.5 1224.5,-254.5"/>
<text text-anchor="middle" x="1269" y="-261.5" font-family="FreeSans" font-size="10.00">tbb/parallel_for.h</text>
</g>
<!-- Node24&#45;&gt;Node26 -->
<g id="edge102" class="edge"><title>Node24&#45;&gt;Node26</title>
<path fill="none" stroke="midnightblue" d="M1160.2,-316.403C1181.51,-306.334 1217.03,-289.552 1241.66,-277.915"/>
<polygon fill="midnightblue" stroke="midnightblue" points="1243.29,-281.017 1250.84,-273.581 1240.3,-274.688 1243.29,-281.017"/>
</g>
</g>
</svg>
