<?xml version="1.0" encoding="UTF-8" standalone="no"?>
<!DOCTYPE svg PUBLIC "-//W3C//DTD SVG 1.1//EN"
 "http://www.w3.org/Graphics/SVG/1.1/DTD/svg11.dtd">
<!-- Generated by graphviz version 8.1.0 (20230707.2238)
 -->
<!-- Title: src/flameSolver.cpp Pages: 1 -->
<svg width="2302pt" height="395pt"
 viewBox="0.00 0.00 2301.53 394.75" xmlns="http://www.w3.org/2000/svg" xmlns:xlink="http://www.w3.org/1999/xlink">
<g id="graph0" class="graph" transform="scale(1 1) rotate(0) translate(4 390.75)">
<title>src/flameSolver.cpp</title>
<!-- Node1 -->
<g id="Node000001" class="node">
<title>Node1</title>
<g id="a_Node000001"><a xlink:title=" ">
<polygon fill="#999999" stroke="#666666" points="771.28,-386.75 660.03,-386.75 660.03,-366 771.28,-366 771.28,-386.75"/>
<text text-anchor="middle" x="715.65" y="-373.25" font-family="FreeSans" font-size="10.00">src/flameSolver.cpp</text>
</a>
</g>
</g>
<!-- Node2 -->
<g id="Node000002" class="node">
<title>Node2</title>
<g id="a_Node000002"><a xlink:href="flameSolver_8h.html" target="_top" xlink:title=" ">
<polygon fill="white" stroke="#666666" points="458.03,-330 375.28,-330 375.28,-309.25 458.03,-309.25 458.03,-330"/>
<text text-anchor="middle" x="416.65" y="-316.5" font-family="FreeSans" font-size="10.00">flameSolver.h</text>
</a>
</g>
</g>
<!-- Node1&#45;&gt;Node2 -->
<g id="edge1_Node000001_Node000002" class="edge">
<title>Node1&#45;&gt;Node2</title>
<g id="a_edge1_Node000001_Node000002"><a xlink:title=" ">
<path fill="none" stroke="#63b8ff" d="M661.85,-365.52C607.27,-355.53 523.33,-340.16 469.2,-330.25"/>
<polygon fill="#63b8ff" stroke="#63b8ff" points="469.93,-326.64 459.46,-328.28 468.67,-333.52 469.93,-326.64"/>
</a>
</g>
</g>
<!-- Node60 -->
<g id="Node000060" class="node">
<title>Node60</title>
<g id="a_Node000060"><a xlink:href="scalarFunction_8h.html" target="_top" xlink:title=" ">
<polygon fill="white" stroke="#666666" points="910.4,-210.12 814.9,-210.12 814.9,-189.38 910.4,-189.38 910.4,-210.12"/>
<text text-anchor="middle" x="862.65" y="-196.62" font-family="FreeSans" font-size="10.00">scalarFunction.h</text>
</a>
</g>
</g>
<!-- Node1&#45;&gt;Node60 -->
<g id="edge58_Node000001_Node000060" class="edge">
<title>Node1&#45;&gt;Node60</title>
<g id="a_edge58_Node000001_Node000060"><a xlink:title=" ">
<path fill="none" stroke="#63b8ff" d="M723.77,-365.74C747.4,-337.66 816.49,-255.59 847.4,-218.87"/>
<polygon fill="#63b8ff" stroke="#63b8ff" points="850.62,-221.48 854.39,-211.57 845.27,-216.97 850.62,-221.48"/>
</a>
</g>
</g>
<!-- Node3 -->
<g id="Node000003" class="node">
<title>Node3</title>
<g id="a_Node000003"><a xlink:href="readConfig_8h.html" target="_top" xlink:title=" ">
<polygon fill="white" stroke="#666666" points="126.4,-147 48.9,-147 48.9,-126.25 126.4,-126.25 126.4,-147"/>
<text text-anchor="middle" x="87.65" y="-133.5" font-family="FreeSans" font-size="10.00">readConfig.h</text>
</a>
</g>
</g>
<!-- Node2&#45;&gt;Node3 -->
<g id="edge2_Node000002_Node000003" class="edge">
<title>Node2&#45;&gt;Node3</title>
<g id="a_edge2_Node000002_Node000003"><a xlink:title=" ">
<path fill="none" stroke="#63b8ff" d="M374.95,-317.03C276.57,-312.84 36.53,-299.95 12.65,-273.25 0.6,-259.77 -10.66,-233.42 19.65,-183 27.52,-169.92 40.79,-159.81 53.52,-152.5"/>
<polygon fill="#63b8ff" stroke="#63b8ff" points="54.86,-155.22 62.06,-147.45 51.58,-149.04 54.86,-155.22"/>
</a>
</g>
</g>
<!-- Node7 -->
<g id="Node000007" class="node">
<title>Node7</title>
<g id="a_Node000007"><a xlink:title=" ">
<polygon fill="#e0e0e0" stroke="#999999" points="604.4,-20.75 544.9,-20.75 544.9,0 604.4,0 604.4,-20.75"/>
<text text-anchor="middle" x="574.65" y="-7.25" font-family="FreeSans" font-size="10.00">iostream</text>
</a>
</g>
</g>
<!-- Node2&#45;&gt;Node7 -->
<g id="edge55_Node000002_Node000007" class="edge">
<title>Node2&#45;&gt;Node7</title>
<g id="a_edge55_Node000002_Node000007"><a xlink:title=" ">
<path fill="none" stroke="#63b8ff" d="M458.29,-316.87C568.48,-311.26 863.18,-289.56 919.65,-216.5 980.67,-137.57 933.57,-133.93 787.65,-56.75 732.5,-27.58 659.95,-17.16 615.35,-13.44"/>
<polygon fill="#63b8ff" stroke="#63b8ff" points="615.87,-9.9 605.64,-12.63 615.34,-16.88 615.87,-9.9"/>
</a>
</g>
</g>
<!-- Node17 -->
<g id="Node000017" class="node">
<title>Node17</title>
<g id="a_Node000017"><a xlink:href="chemistry0d_8h.html" target="_top" xlink:title=" ">
<polygon fill="white" stroke="#666666" points="1361.53,-147 1275.78,-147 1275.78,-126.25 1361.53,-126.25 1361.53,-147"/>
<text text-anchor="middle" x="1318.65" y="-133.5" font-family="FreeSans" font-size="10.00">chemistry0d.h</text>
</a>
</g>
</g>
<!-- Node2&#45;&gt;Node17 -->
<g id="edge7_Node000002_Node000017" class="edge">
<title>Node2&#45;&gt;Node17</title>
<g id="a_edge7_Node000002_Node000017"><a xlink:title=" ">
<path fill="none" stroke="#63b8ff" d="M458.25,-318.9C549.12,-318.68 771.73,-313.64 952.65,-273.25 1081.76,-244.43 1226.78,-180.7 1288.38,-152.06"/>
<polygon fill="#63b8ff" stroke="#63b8ff" points="1289.64,-154.87 1297.21,-147.46 1286.67,-148.53 1289.64,-154.87"/>
</a>
</g>
</g>
<!-- Node27 -->
<g id="Node000027" class="node">
<title>Node27</title>
<g id="a_Node000027"><a xlink:href="grid_8h.html" target="_top" xlink:title=" ">
<polygon fill="white" stroke="#666666" points="72.53,-210.12 28.78,-210.12 28.78,-189.38 72.53,-189.38 72.53,-210.12"/>
<text text-anchor="middle" x="50.65" y="-196.62" font-family="FreeSans" font-size="10.00">grid.h</text>
</a>
</g>
</g>
<!-- Node2&#45;&gt;Node27 -->
<g id="edge18_Node000002_Node000027" class="edge">
<title>Node2&#45;&gt;Node27</title>
<g id="a_edge18_Node000002_Node000027"><a xlink:title=" ">
<path fill="none" stroke="#63b8ff" d="M374.8,-316.91C277.95,-312.51 44.88,-299.3 21.65,-273.25 7.72,-257.63 21.15,-234.48 34,-218.56"/>
<polygon fill="#63b8ff" stroke="#63b8ff" points="37.02,-221.42 40.9,-211.56 31.72,-216.84 37.02,-221.42"/>
</a>
</g>
</g>
<!-- Node28 -->
<g id="Node000028" class="node">
<title>Node28</title>
<g id="a_Node000028"><a xlink:href="splitSolver_8h.html" target="_top" xlink:title=" ">
<polygon fill="white" stroke="#666666" points="266.65,-273.25 190.65,-273.25 190.65,-252.5 266.65,-252.5 266.65,-273.25"/>
<text text-anchor="middle" x="228.65" y="-259.75" font-family="FreeSans" font-size="10.00">splitSolver.h</text>
</a>
</g>
</g>
<!-- Node2&#45;&gt;Node28 -->
<g id="edge20_Node000002_Node000028" class="edge">
<title>Node2&#45;&gt;Node28</title>
<g id="a_edge20_Node000002_Node000028"><a xlink:title=" ">
<path fill="none" stroke="#63b8ff" d="M383.04,-308.84C352.26,-299.87 306.5,-286.54 272.78,-276.73"/>
<polygon fill="#63b8ff" stroke="#63b8ff" points="273.87,-273.11 263.29,-273.67 271.91,-279.83 273.87,-273.11"/>
</a>
</g>
</g>
<!-- Node29 -->
<g id="Node000029" class="node">
<title>Node29</title>
<g id="a_Node000029"><a xlink:href="perfTimer_8h.html" target="_top" xlink:title=" ">
<polygon fill="#fff0f0" stroke="red" points="516.78,-210.12 444.53,-210.12 444.53,-189.38 516.78,-189.38 516.78,-210.12"/>
<text text-anchor="middle" x="480.65" y="-196.62" font-family="FreeSans" font-size="10.00">perfTimer.h</text>
</a>
</g>
</g>
<!-- Node2&#45;&gt;Node29 -->
<g id="edge26_Node000002_Node000029" class="edge">
<title>Node2&#45;&gt;Node29</title>
<g id="a_edge26_Node000002_Node000029"><a xlink:title=" ">
<path fill="none" stroke="#63b8ff" d="M421.89,-308.98C432.44,-289.55 456.41,-245.4 470.26,-219.89"/>
<polygon fill="#63b8ff" stroke="#63b8ff" points="473.65,-221.99 475.34,-211.53 467.5,-218.65 473.65,-221.99"/>
</a>
</g>
</g>
<!-- Node30 -->
<g id="Node000030" class="node">
<title>Node30</title>
<g id="a_Node000030"><a xlink:href="tbb__tools_8h.html" target="_top" xlink:title=" ">
<polygon fill="#fff0f0" stroke="red" points="786.65,-147 716.65,-147 716.65,-126.25 786.65,-126.25 786.65,-147"/>
<text text-anchor="middle" x="751.65" y="-133.5" font-family="FreeSans" font-size="10.00">tbb_tools.h</text>
</a>
</g>
</g>
<!-- Node2&#45;&gt;Node30 -->
<g id="edge57_Node000002_Node000030" class="edge">
<title>Node2&#45;&gt;Node30</title>
<g id="a_edge57_Node000002_Node000030"><a xlink:title=" ">
<path fill="none" stroke="#63b8ff" d="M458.39,-313.35C544.06,-301.5 734.52,-269.6 767.65,-216.5 779.05,-198.24 770.94,-173.4 762.67,-156.51"/>
<polygon fill="#63b8ff" stroke="#63b8ff" points="765.47,-155.32 757.68,-148.15 759.3,-158.62 765.47,-155.32"/>
</a>
</g>
</g>
<!-- Node39 -->
<g id="Node000039" class="node">
<title>Node39</title>
<g id="a_Node000039"><a xlink:href="integrator_8h.html" target="_top" xlink:title=" ">
<polygon fill="white" stroke="#666666" points="162.78,-210.12 90.53,-210.12 90.53,-189.38 162.78,-189.38 162.78,-210.12"/>
<text text-anchor="middle" x="126.65" y="-196.62" font-family="FreeSans" font-size="10.00">integrator.h</text>
</a>
</g>
</g>
<!-- Node2&#45;&gt;Node39 -->
<g id="edge27_Node000002_Node000039" class="edge">
<title>Node2&#45;&gt;Node39</title>
<g id="a_edge27_Node000002_Node000039"><a xlink:title=" ">
<path fill="none" stroke="#63b8ff" d="M374.78,-319.32C325.1,-318.27 241.47,-310.44 181.65,-273.25 160.99,-260.4 145.28,-236.77 136.04,-219.98"/>
<polygon fill="#63b8ff" stroke="#63b8ff" points="138.87,-218.82 131.14,-211.57 132.66,-222.05 138.87,-218.82"/>
</a>
</g>
</g>
<!-- Node40 -->
<g id="Node000040" class="node">
<title>Node40</title>
<g id="a_Node000040"><a xlink:href="sourceSystem_8h.html" target="_top" xlink:title=" ">
<polygon fill="white" stroke="#666666" points="388.65,-210.12 294.65,-210.12 294.65,-189.38 388.65,-189.38 388.65,-210.12"/>
<text text-anchor="middle" x="341.65" y="-196.62" font-family="FreeSans" font-size="10.00">sourceSystem.h</text>
</a>
</g>
</g>
<!-- Node2&#45;&gt;Node40 -->
<g id="edge29_Node000002_Node000040" class="edge">
<title>Node2&#45;&gt;Node40</title>
<g id="a_edge29_Node000002_Node000040"><a xlink:title=" ">
<path fill="none" stroke="#63b8ff" d="M410.52,-308.98C398.1,-289.47 369.81,-245 353.62,-219.56"/>
<polygon fill="#63b8ff" stroke="#63b8ff" points="356.2,-218.09 347.88,-211.53 350.29,-221.85 356.2,-218.09"/>
</a>
</g>
</g>
<!-- Node55 -->
<g id="Node000055" class="node">
<title>Node55</title>
<g id="a_Node000055"><a xlink:href="quasi2d_8h.html" target="_top" xlink:title=" ">
<polygon fill="#fff0f0" stroke="red" points="512.28,-147 449.03,-147 449.03,-126.25 512.28,-126.25 512.28,-147"/>
<text text-anchor="middle" x="480.65" y="-133.5" font-family="FreeSans" font-size="10.00">quasi2d.h</text>
</a>
</g>
</g>
<!-- Node2&#45;&gt;Node55 -->
<g id="edge53_Node000002_Node000055" class="edge">
<title>Node2&#45;&gt;Node55</title>
<g id="a_edge53_Node000002_Node000055"><a xlink:title=" ">
<path fill="none" stroke="#63b8ff" d="M415.99,-308.81C414.83,-285.6 414.32,-226.03 435.65,-183 441.12,-171.97 450.31,-161.97 458.96,-154.19"/>
<polygon fill="#63b8ff" stroke="#63b8ff" points="460.88,-156.3 466.28,-147.18 456.38,-150.95 460.88,-156.3"/>
</a>
</g>
</g>
<!-- Node56 -->
<g id="Node000056" class="node">
<title>Node56</title>
<g id="a_Node000056"><a xlink:href="callback_8h.html" target="_top" xlink:title=" ">
<polygon fill="#fff0f0" stroke="red" points="286.4,-147 220.9,-147 220.9,-126.25 286.4,-126.25 286.4,-147"/>
<text text-anchor="middle" x="253.65" y="-133.5" font-family="FreeSans" font-size="10.00">callback.h</text>
</a>
</g>
</g>
<!-- Node2&#45;&gt;Node56 -->
<g id="edge54_Node000002_Node000056" class="edge">
<title>Node2&#45;&gt;Node56</title>
<g id="a_edge54_Node000002_Node000056"><a xlink:title=" ">
<path fill="none" stroke="#63b8ff" d="M398.99,-308.98C371.32,-293.07 317.64,-258.84 285.65,-216.5 272.26,-198.78 263.57,-174.67 258.67,-157.79"/>
<polygon fill="#63b8ff" stroke="#63b8ff" points="261.85,-157.17 255.87,-148.43 255.1,-158.99 261.85,-157.17"/>
</a>
</g>
</g>
<!-- Node58 -->
<g id="Node000058" class="node">
<title>Node58</title>
<g id="a_Node000058"><a xlink:href="diffusionSystem_8h.html" target="_top" xlink:title=" ">
<polygon fill="white" stroke="#666666" points="134.53,-273.25 30.78,-273.25 30.78,-252.5 134.53,-252.5 134.53,-273.25"/>
<text text-anchor="middle" x="82.65" y="-259.75" font-family="FreeSans" font-size="10.00">diffusionSystem.h</text>
</a>
</g>
</g>
<!-- Node2&#45;&gt;Node58 -->
<g id="edge40_Node000002_Node000058" class="edge">
<title>Node2&#45;&gt;Node58</title>
<g id="a_edge40_Node000002_Node000058"><a xlink:title=" ">
<path fill="none" stroke="#63b8ff" d="M375.03,-311.8C317.35,-302.35 212.64,-285.18 145.44,-274.17"/>
<polygon fill="#63b8ff" stroke="#63b8ff" points="146.42,-270.62 135.98,-272.45 145.29,-277.52 146.42,-270.62"/>
</a>
</g>
</g>
<!-- Node59 -->
<g id="Node000059" class="node">
<title>Node59</title>
<g id="a_Node000059"><a xlink:href="convectionSystem_8h.html" target="_top" xlink:title=" ">
<polygon fill="white" stroke="#666666" points="614.15,-273.25 499.15,-273.25 499.15,-252.5 614.15,-252.5 614.15,-273.25"/>
<text text-anchor="middle" x="556.65" y="-259.75" font-family="FreeSans" font-size="10.00">convectionSystem.h</text>
</a>
</g>
</g>
<!-- Node2&#45;&gt;Node59 -->
<g id="edge44_Node000002_Node000059" class="edge">
<title>Node2&#45;&gt;Node59</title>
<g id="a_edge44_Node000002_Node000059"><a xlink:title=" ">
<path fill="none" stroke="#63b8ff" d="M441.68,-308.84C463.98,-300.12 496.84,-287.27 521.72,-277.54"/>
<polygon fill="#63b8ff" stroke="#63b8ff" points="522.8,-280.48 530.84,-273.58 520.25,-273.96 522.8,-280.48"/>
</a>
</g>
</g>
<!-- Node61 -->
<g id="Node000061" class="node">
<title>Node61</title>
<g id="a_Node000061"><a xlink:title=" ">
<polygon fill="#e0e0e0" stroke="#999999" points="758.9,-216.5 648.4,-216.5 648.4,-183 758.9,-183 758.9,-216.5"/>
<text text-anchor="start" x="656.4" y="-203" font-family="FreeSans" font-size="10.00">boost/ptr_container</text>
<text text-anchor="middle" x="703.65" y="-190.25" font-family="FreeSans" font-size="10.00">/ptr_vector.hpp</text>
</a>
</g>
</g>
<!-- Node2&#45;&gt;Node61 -->
<g id="edge56_Node000002_Node000061" class="edge">
<title>Node2&#45;&gt;Node61</title>
<g id="a_edge56_Node000002_Node000061"><a xlink:title=" ">
<path fill="none" stroke="#63b8ff" d="M458.22,-315.71C501.39,-311.29 569.85,-300.3 622.65,-273.25 645.97,-261.31 667.81,-241 682.93,-224.91"/>
<polygon fill="#63b8ff" stroke="#63b8ff" points="685.04,-227.7 689.19,-217.95 679.87,-222.98 685.04,-227.7"/>
</a>
</g>
</g>
<!-- Node4 -->
<g id="Node000004" class="node">
<title>Node4</title>
<g id="a_Node000004"><a xlink:href="mathUtils_8h.html" target="_top" xlink:title=" ">
<polygon fill="#fff0f0" stroke="red" points="385.15,-83.88 312.15,-83.88 312.15,-63.12 385.15,-63.12 385.15,-83.88"/>
<text text-anchor="middle" x="348.65" y="-70.38" font-family="FreeSans" font-size="10.00">mathUtils.h</text>
</a>
</g>
</g>
<!-- Node3&#45;&gt;Node4 -->
<g id="edge3_Node000003_Node000004" class="edge">
<title>Node3&#45;&gt;Node4</title>
<g id="a_edge3_Node000003_Node000004"><a xlink:title=" ">
<path fill="none" stroke="#63b8ff" d="M126.73,-126.47C173.36,-115.55 251.3,-97.3 301.31,-85.59"/>
<polygon fill="#63b8ff" stroke="#63b8ff" points="301.91,-88.81 310.85,-83.12 300.31,-81.99 301.91,-88.81"/>
</a>
</g>
</g>
<!-- Node9 -->
<g id="Node000009" class="node">
<title>Node9</title>
<g id="a_Node000009"><a xlink:title=" ">
<polygon fill="#e0e0e0" stroke="#999999" points="289.53,-20.75 245.78,-20.75 245.78,0 289.53,0 289.53,-20.75"/>
<text text-anchor="middle" x="267.65" y="-7.25" font-family="FreeSans" font-size="10.00">string</text>
</a>
</g>
</g>
<!-- Node3&#45;&gt;Node9 -->
<g id="edge6_Node000003_Node000009" class="edge">
<title>Node3&#45;&gt;Node9</title>
<g id="a_edge6_Node000003_Node000009"><a xlink:title=" ">
<path fill="none" stroke="#63b8ff" d="M101.78,-125.88C132.8,-104.46 207.11,-53.17 244.84,-27.12"/>
<polygon fill="#63b8ff" stroke="#63b8ff" points="246.35,-29.64 252.6,-21.08 242.38,-23.88 246.35,-29.64"/>
</a>
</g>
</g>
<!-- Node4&#45;&gt;Node7 -->
<g id="edge4_Node000004_Node000007" class="edge">
<title>Node4&#45;&gt;Node7</title>
<g id="a_edge4_Node000004_Node000007"><a xlink:title=" ">
<path fill="none" stroke="#63b8ff" d="M384.97,-62.68C425.71,-51.66 491.65,-33.82 534.07,-22.35"/>
<polygon fill="#63b8ff" stroke="#63b8ff" points="534.84,-25.5 543.58,-19.51 533.01,-18.74 534.84,-25.5"/>
</a>
</g>
</g>
<!-- Node4&#45;&gt;Node9 -->
<g id="edge5_Node000004_Node000009" class="edge">
<title>Node4&#45;&gt;Node9</title>
<g id="a_edge5_Node000004_Node000009"><a xlink:title=" ">
<path fill="none" stroke="#63b8ff" d="M335.64,-62.68C323.12,-53.23 303.97,-38.78 289.18,-27.62"/>
<polygon fill="#63b8ff" stroke="#63b8ff" points="291.73,-24.4 281.64,-21.17 287.51,-29.99 291.73,-24.4"/>
</a>
</g>
</g>
<!-- Node17&#45;&gt;Node4 -->
<g id="edge9_Node000017_Node000004" class="edge">
<title>Node17&#45;&gt;Node4</title>
<g id="a_edge9_Node000017_Node000004"><a xlink:title=" ">
<path fill="none" stroke="#63b8ff" d="M1275.41,-132.9C1116.11,-122.86 562.7,-87.99 396.33,-77.5"/>
<polygon fill="#63b8ff" stroke="#63b8ff" points="396.68,-73.96 386.48,-76.82 396.24,-80.94 396.68,-73.96"/>
</a>
</g>
</g>
<!-- Node18 -->
<g id="Node000018" class="node">
<title>Node18</title>
<g id="a_Node000018"><a xlink:href="config_8h.html" target="_top" xlink:title=" ">
<polygon fill="white" stroke="#666666" points="778.78,-83.88 724.53,-83.88 724.53,-63.12 778.78,-63.12 778.78,-83.88"/>
<text text-anchor="middle" x="751.65" y="-70.38" font-family="FreeSans" font-size="10.00">config.h</text>
</a>
</g>
</g>
<!-- Node17&#45;&gt;Node18 -->
<g id="edge8_Node000017_Node000018" class="edge">
<title>Node17&#45;&gt;Node18</title>
<g id="a_edge8_Node000017_Node000018"><a xlink:title=" ">
<path fill="none" stroke="#63b8ff" d="M1275.57,-130.98C1168.46,-119.43 891.45,-89.57 789.79,-78.61"/>
<polygon fill="#63b8ff" stroke="#63b8ff" points="790.43,-75.05 780.11,-77.46 789.68,-82.01 790.43,-75.05"/>
</a>
</g>
</g>
<!-- Node19 -->
<g id="Node000019" class="node">
<title>Node19</title>
<g id="a_Node000019"><a xlink:title=" ">
<polygon fill="#e0e0e0" stroke="#999999" points="1577.15,-83.88 1402.15,-83.88 1402.15,-63.12 1577.15,-63.12 1577.15,-83.88"/>
<text text-anchor="middle" x="1489.65" y="-70.38" font-family="FreeSans" font-size="10.00">cantera/transport/MixTransport.h</text>
</a>
</g>
</g>
<!-- Node17&#45;&gt;Node19 -->
<g id="edge10_Node000017_Node000019" class="edge">
<title>Node17&#45;&gt;Node19</title>
<g id="a_edge10_Node000017_Node000019"><a xlink:title=" ">
<path fill="none" stroke="#63b8ff" d="M1346.13,-125.8C1374.8,-115.56 1419.95,-99.42 1451.94,-87.98"/>
<polygon fill="#63b8ff" stroke="#63b8ff" points="1453.01,-90.96 1461.25,-84.3 1450.65,-84.37 1453.01,-90.96"/>
</a>
</g>
</g>
<!-- Node20 -->
<g id="Node000020" class="node">
<title>Node20</title>
<g id="a_Node000020"><a xlink:title=" ">
<polygon fill="#e0e0e0" stroke="#999999" points="1776.53,-83.88 1594.78,-83.88 1594.78,-63.12 1776.53,-63.12 1776.53,-83.88"/>
<text text-anchor="middle" x="1685.65" y="-70.38" font-family="FreeSans" font-size="10.00">cantera/transport/MultiTransport.h</text>
</a>
</g>
</g>
<!-- Node17&#45;&gt;Node20 -->
<g id="edge11_Node000017_Node000020" class="edge">
<title>Node17&#45;&gt;Node20</title>
<g id="a_edge11_Node000017_Node000020"><a xlink:title=" ">
<path fill="none" stroke="#63b8ff" d="M1361.83,-128.43C1424.41,-118.01 1540.99,-98.59 1615.87,-86.12"/>
<polygon fill="#63b8ff" stroke="#63b8ff" points="1616.31,-89.43 1625.6,-84.34 1615.16,-82.53 1616.31,-89.43"/>
</a>
</g>
</g>
<!-- Node21 -->
<g id="Node000021" class="node">
<title>Node21</title>
<g id="a_Node000021"><a xlink:title=" ">
<polygon fill="#e0e0e0" stroke="#999999" points="1951.15,-90.25 1794.15,-90.25 1794.15,-56.75 1951.15,-56.75 1951.15,-90.25"/>
<text text-anchor="start" x="1802.15" y="-76.75" font-family="FreeSans" font-size="10.00">cantera/transport/UnityLewis</text>
<text text-anchor="middle" x="1872.65" y="-64" font-family="FreeSans" font-size="10.00">Transport.h</text>
</a>
</g>
</g>
<!-- Node17&#45;&gt;Node21 -->
<g id="edge12_Node000017_Node000021" class="edge">
<title>Node17&#45;&gt;Node21</title>
<g id="a_edge12_Node000017_Node000021"><a xlink:title=" ">
<path fill="none" stroke="#63b8ff" d="M1361.93,-132.62C1442.77,-126.73 1622.4,-112.45 1783.4,-90.5"/>
<polygon fill="#63b8ff" stroke="#63b8ff" points="1783.55,-93.87 1792.98,-89.04 1782.6,-86.94 1783.55,-93.87"/>
</a>
</g>
</g>
<!-- Node22 -->
<g id="Node000022" class="node">
<title>Node22</title>
<g id="a_Node000022"><a xlink:title=" ">
<polygon fill="#e0e0e0" stroke="#999999" points="2136.03,-83.88 1969.28,-83.88 1969.28,-63.12 2136.03,-63.12 2136.03,-83.88"/>
<text text-anchor="middle" x="2052.65" y="-70.38" font-family="FreeSans" font-size="10.00">cantera/kinetics/BulkKinetics.h</text>
</a>
</g>
</g>
<!-- Node17&#45;&gt;Node22 -->
<g id="edge13_Node000017_Node000022" class="edge">
<title>Node17&#45;&gt;Node22</title>
<g id="a_edge13_Node000017_Node000022"><a xlink:title=" ">
<path fill="none" stroke="#63b8ff" d="M1362,-134.04C1465.73,-129.94 1736.29,-117.32 1960.65,-90.25 1970.22,-89.1 1980.31,-87.63 1990.17,-86.05"/>
<polygon fill="#63b8ff" stroke="#63b8ff" points="1990.43,-89.39 1999.73,-84.31 1989.29,-82.49 1990.43,-89.39"/>
</a>
</g>
</g>
<!-- Node23 -->
<g id="Node000023" class="node">
<title>Node23</title>
<g id="a_Node000023"><a xlink:title=" ">
<polygon fill="#e0e0e0" stroke="#999999" points="2293.53,-90.25 2153.78,-90.25 2153.78,-56.75 2293.53,-56.75 2293.53,-90.25"/>
<text text-anchor="start" x="2161.78" y="-76.75" font-family="FreeSans" font-size="10.00">cantera/kinetics/Reaction</text>
<text text-anchor="middle" x="2223.65" y="-64" font-family="FreeSans" font-size="10.00">Rate.h</text>
</a>
</g>
</g>
<!-- Node17&#45;&gt;Node23 -->
<g id="edge14_Node000017_Node000023" class="edge">
<title>Node17&#45;&gt;Node23</title>
<g id="a_edge14_Node000017_Node000023"><a xlink:title=" ">
<path fill="none" stroke="#63b8ff" d="M1361.84,-135.41C1483.32,-134.34 1838.41,-128.07 2142.72,-90.37"/>
<polygon fill="#63b8ff" stroke="#63b8ff" points="2143.04,-93.73 2152.53,-89.02 2142.17,-86.79 2143.04,-93.73"/>
</a>
</g>
</g>
<!-- Node24 -->
<g id="Node000024" class="node">
<title>Node24</title>
<g id="a_Node000024"><a xlink:title=" ">
<polygon fill="#e0e0e0" stroke="#999999" points="1064.53,-90.25 924.78,-90.25 924.78,-56.75 1064.53,-56.75 1064.53,-90.25"/>
<text text-anchor="start" x="932.78" y="-76.75" font-family="FreeSans" font-size="10.00">cantera/kinetics/Reaction</text>
<text text-anchor="middle" x="994.65" y="-64" font-family="FreeSans" font-size="10.00">Data.h</text>
</a>
</g>
</g>
<!-- Node17&#45;&gt;Node24 -->
<g id="edge15_Node000017_Node000024" class="edge">
<title>Node17&#45;&gt;Node24</title>
<g id="a_edge15_Node000017_Node000024"><a xlink:title=" ">
<path fill="none" stroke="#63b8ff" d="M1275.69,-127.85C1228.95,-119.35 1151.72,-105.19 1075.59,-90.61"/>
<polygon fill="#63b8ff" stroke="#63b8ff" points="1076.34,-87 1065.86,-88.55 1075.02,-93.87 1076.34,-87"/>
</a>
</g>
</g>
<!-- Node25 -->
<g id="Node000025" class="node">
<title>Node25</title>
<g id="a_Node000025"><a xlink:title=" ">
<polygon fill="#e0e0e0" stroke="#999999" points="1234.9,-83.88 1082.4,-83.88 1082.4,-63.12 1234.9,-63.12 1234.9,-83.88"/>
<text text-anchor="middle" x="1158.65" y="-70.38" font-family="FreeSans" font-size="10.00">cantera/kinetics/Arrhenius.h</text>
</a>
</g>
</g>
<!-- Node17&#45;&gt;Node25 -->
<g id="edge16_Node000017_Node000025" class="edge">
<title>Node17&#45;&gt;Node25</title>
<g id="a_edge16_Node000017_Node000025"><a xlink:title=" ">
<path fill="none" stroke="#63b8ff" d="M1292.95,-125.8C1266.24,-115.6 1224.24,-99.56 1194.33,-88.13"/>
<polygon fill="#63b8ff" stroke="#63b8ff" points="1195.89,-84.6 1185.3,-84.3 1193.39,-91.13 1195.89,-84.6"/>
</a>
</g>
</g>
<!-- Node26 -->
<g id="Node000026" class="node">
<title>Node26</title>
<g id="a_Node000026"><a xlink:title=" ">
<polygon fill="#e0e0e0" stroke="#999999" points="1384.03,-83.88 1253.28,-83.88 1253.28,-63.12 1384.03,-63.12 1384.03,-83.88"/>
<text text-anchor="middle" x="1318.65" y="-70.38" font-family="FreeSans" font-size="10.00">cantera/base/Solution.h</text>
</a>
</g>
</g>
<!-- Node17&#45;&gt;Node26 -->
<g id="edge17_Node000017_Node000026" class="edge">
<title>Node17&#45;&gt;Node26</title>
<g id="a_edge17_Node000017_Node000026"><a xlink:title=" ">
<path fill="none" stroke="#63b8ff" d="M1318.65,-125.8C1318.65,-117.47 1318.65,-105.23 1318.65,-94.8"/>
<polygon fill="#63b8ff" stroke="#63b8ff" points="1322.15,-95.09 1318.65,-85.09 1315.15,-95.09 1322.15,-95.09"/>
</a>
</g>
</g>
<!-- Node27&#45;&gt;Node3 -->
<g id="edge19_Node000027_Node000003" class="edge">
<title>Node27&#45;&gt;Node3</title>
<g id="a_edge19_Node000027_Node000003"><a xlink:title=" ">
<path fill="none" stroke="#63b8ff" d="M56.6,-188.93C61.86,-180.23 69.69,-167.3 76.17,-156.59"/>
<polygon fill="#63b8ff" stroke="#63b8ff" points="79.66,-158.59 81.85,-148.22 73.67,-154.96 79.66,-158.59"/>
</a>
</g>
</g>
<!-- Node28&#45;&gt;Node3 -->
<g id="edge25_Node000028_Node000003" class="edge">
<title>Node28&#45;&gt;Node3</title>
<g id="a_edge25_Node000028_Node000003"><a xlink:title=" ">
<path fill="none" stroke="#63b8ff" d="M223.5,-252.06C214.66,-235.97 195.28,-203.72 171.65,-183 157,-170.15 138.09,-159.53 121.92,-151.8"/>
<polygon fill="#63b8ff" stroke="#63b8ff" points="123.81,-148.36 113.27,-147.37 120.89,-154.72 123.81,-148.36"/>
</a>
</g>
</g>
<!-- Node28&#45;&gt;Node4 -->
<g id="edge21_Node000028_Node000004" class="edge">
<title>Node28&#45;&gt;Node4</title>
<g id="a_edge21_Node000028_Node000004"><a xlink:title=" ">
<path fill="none" stroke="#63b8ff" d="M225.83,-252.3C218,-224.88 197.49,-146.75 211.65,-126.25 231.63,-97.34 269.97,-84.57 301.02,-78.93"/>
<polygon fill="#63b8ff" stroke="#63b8ff" points="301.34,-82.26 310.66,-77.22 300.23,-75.35 301.34,-82.26"/>
</a>
</g>
</g>
<!-- Node28&#45;&gt;Node29 -->
<g id="edge22_Node000028_Node000029" class="edge">
<title>Node28&#45;&gt;Node29</title>
<g id="a_edge22_Node000028_Node000029"><a xlink:title=" ">
<path fill="none" stroke="#63b8ff" d="M266.93,-252.59C311.6,-241.76 385.49,-223.83 433.62,-212.16"/>
<polygon fill="#63b8ff" stroke="#63b8ff" points="434.18,-215.38 443.07,-209.62 432.53,-208.58 434.18,-215.38"/>
</a>
</g>
</g>
<!-- Node29&#45;&gt;Node30 -->
<g id="edge23_Node000029_Node000030" class="edge">
<title>Node29&#45;&gt;Node30</title>
<g id="a_edge23_Node000029_Node000030"><a xlink:title=" ">
<path fill="none" stroke="#63b8ff" d="M517.2,-190.51C566.13,-179.47 652.91,-159.9 706.06,-147.91"/>
<polygon fill="#63b8ff" stroke="#63b8ff" points="706.56,-151.16 715.54,-145.54 705.02,-144.33 706.56,-151.16"/>
</a>
</g>
</g>
<!-- Node30&#45;&gt;Node18 -->
<g id="edge24_Node000030_Node000018" class="edge">
<title>Node30&#45;&gt;Node18</title>
<g id="a_edge24_Node000030_Node000018"><a xlink:title=" ">
<path fill="none" stroke="#63b8ff" d="M751.65,-125.8C751.65,-117.47 751.65,-105.23 751.65,-94.8"/>
<polygon fill="#63b8ff" stroke="#63b8ff" points="755.15,-95.09 751.65,-85.09 748.15,-95.09 755.15,-95.09"/>
</a>
</g>
</g>
<!-- Node39&#45;&gt;Node4 -->
<g id="edge28_Node000039_Node000004" class="edge">
<title>Node39&#45;&gt;Node4</title>
<g id="a_edge28_Node000039_Node000004"><a xlink:title=" ">
<path fill="none" stroke="#63b8ff" d="M130.94,-189.22C138.4,-173.7 155.24,-143.04 178.65,-126.25 215.01,-100.18 264.72,-87.04 300.99,-80.55"/>
<polygon fill="#63b8ff" stroke="#63b8ff" points="301.51,-83.84 310.79,-78.74 300.35,-76.94 301.51,-83.84"/>
</a>
</g>
</g>
<!-- Node40&#45;&gt;Node4 -->
<g id="edge30_Node000040_Node000004" class="edge">
<title>Node40&#45;&gt;Node4</title>
<g id="a_edge30_Node000040_Node000004"><a xlink:title=" ">
<path fill="none" stroke="#63b8ff" d="M359.86,-188.95C374.19,-180.11 393.12,-165.63 401.65,-147 411.42,-125.68 391.42,-104.39 373.26,-90.45"/>
<polygon fill="#63b8ff" stroke="#63b8ff" points="375.79,-87.24 365.63,-84.23 371.69,-92.92 375.79,-87.24"/>
</a>
</g>
</g>
<!-- Node41 -->
<g id="Node000041" class="node">
<title>Node41</title>
<g id="a_Node000041"><a xlink:href="sundialsUtils_8h.html" target="_top" xlink:title=" ">
<polygon fill="#fff0f0" stroke="red" points="618.65,-147 530.65,-147 530.65,-126.25 618.65,-126.25 618.65,-147"/>
<text text-anchor="middle" x="574.65" y="-133.5" font-family="FreeSans" font-size="10.00">sundialsUtils.h</text>
</a>
</g>
</g>
<!-- Node40&#45;&gt;Node41 -->
<g id="edge31_Node000040_Node000041" class="edge">
<title>Node40&#45;&gt;Node41</title>
<g id="a_edge31_Node000040_Node000041"><a xlink:title=" ">
<path fill="none" stroke="#63b8ff" d="M379.09,-188.93C419.26,-178.39 483.17,-161.62 526.92,-150.15"/>
<polygon fill="#63b8ff" stroke="#63b8ff" points="527.53,-153.34 536.31,-147.42 525.75,-146.57 527.53,-153.34"/>
</a>
</g>
</g>
<!-- Node54 -->
<g id="Node000054" class="node">
<title>Node54</title>
<g id="a_Node000054"><a xlink:href="qssintegrator_8h.html" target="_top" xlink:title=" ">
<polygon fill="white" stroke="#666666" points="393.03,-147 304.28,-147 304.28,-126.25 393.03,-126.25 393.03,-147"/>
<text text-anchor="middle" x="348.65" y="-133.5" font-family="FreeSans" font-size="10.00">qssintegrator.h</text>
</a>
</g>
</g>
<!-- Node40&#45;&gt;Node54 -->
<g id="edge34_Node000040_Node000054" class="edge">
<title>Node40&#45;&gt;Node54</title>
<g id="a_edge34_Node000040_Node000054"><a xlink:title=" ">
<path fill="none" stroke="#63b8ff" d="M342.78,-188.93C343.73,-180.59 345.14,-168.36 346.33,-157.93"/>
<polygon fill="#63b8ff" stroke="#63b8ff" points="349.9,-158.55 347.56,-148.22 342.94,-157.76 349.9,-158.55"/>
</a>
</g>
</g>
<!-- Node40&#45;&gt;Node55 -->
<g id="edge36_Node000040_Node000055" class="edge">
<title>Node40&#45;&gt;Node55</title>
<g id="a_edge36_Node000040_Node000055"><a xlink:title=" ">
<path fill="none" stroke="#63b8ff" d="M363.99,-188.93C386.89,-178.86 422.72,-163.1 448.64,-151.71"/>
<polygon fill="#63b8ff" stroke="#63b8ff" points="449.63,-154.65 457.38,-147.42 446.81,-148.24 449.63,-154.65"/>
</a>
</g>
</g>
<!-- Node40&#45;&gt;Node56 -->
<g id="edge38_Node000040_Node000056" class="edge">
<title>Node40&#45;&gt;Node56</title>
<g id="a_edge38_Node000040_Node000056"><a xlink:title=" ">
<path fill="none" stroke="#63b8ff" d="M327.52,-188.93C313.79,-179.39 292.72,-164.76 276.59,-153.56"/>
<polygon fill="#63b8ff" stroke="#63b8ff" points="278.97,-150.25 268.76,-147.42 274.97,-156 278.97,-150.25"/>
</a>
</g>
</g>
<!-- Node41&#45;&gt;Node7 -->
<g id="edge33_Node000041_Node000007" class="edge">
<title>Node41&#45;&gt;Node7</title>
<g id="a_edge33_Node000041_Node000007"><a xlink:title=" ">
<path fill="none" stroke="#63b8ff" d="M574.65,-125.88C574.65,-105.73 574.65,-59.15 574.65,-32.01"/>
<polygon fill="#63b8ff" stroke="#63b8ff" points="578.15,-32.08 574.65,-22.08 571.15,-32.08 578.15,-32.08"/>
</a>
</g>
</g>
<!-- Node41&#45;&gt;Node18 -->
<g id="edge32_Node000041_Node000018" class="edge">
<title>Node41&#45;&gt;Node18</title>
<g id="a_edge32_Node000041_Node000018"><a xlink:title=" ">
<path fill="none" stroke="#63b8ff" d="M603.09,-125.8C633.16,-115.42 680.75,-98.99 713.93,-87.53"/>
<polygon fill="#63b8ff" stroke="#63b8ff" points="714.85,-90.57 723.16,-83.99 712.57,-83.95 714.85,-90.57"/>
</a>
</g>
</g>
<!-- Node54&#45;&gt;Node4 -->
<g id="edge35_Node000054_Node000004" class="edge">
<title>Node54&#45;&gt;Node4</title>
<g id="a_edge35_Node000054_Node000004"><a xlink:title=" ">
<path fill="none" stroke="#63b8ff" d="M348.65,-125.8C348.65,-117.47 348.65,-105.23 348.65,-94.8"/>
<polygon fill="#63b8ff" stroke="#63b8ff" points="352.15,-95.09 348.65,-85.09 345.15,-95.09 352.15,-95.09"/>
</a>
</g>
</g>
<!-- Node55&#45;&gt;Node4 -->
<g id="edge37_Node000055_Node000004" class="edge">
<title>Node55&#45;&gt;Node4</title>
<g id="a_edge37_Node000055_Node000004"><a xlink:title=" ">
<path fill="none" stroke="#63b8ff" d="M459.45,-125.8C437.89,-115.82 404.27,-100.25 379.72,-88.88"/>
<polygon fill="#63b8ff" stroke="#63b8ff" points="381.35,-85.32 370.81,-84.3 378.41,-91.67 381.35,-85.32"/>
</a>
</g>
</g>
<!-- Node56&#45;&gt;Node4 -->
<g id="edge39_Node000056_Node000004" class="edge">
<title>Node56&#45;&gt;Node4</title>
<g id="a_edge39_Node000056_Node000004"><a xlink:title=" ">
<path fill="none" stroke="#63b8ff" d="M268.92,-125.8C283.88,-116.18 306.91,-101.36 324.38,-90.12"/>
<polygon fill="#63b8ff" stroke="#63b8ff" points="325.91,-92.65 332.43,-84.3 322.13,-86.76 325.91,-92.65"/>
</a>
</g>
</g>
<!-- Node58&#45;&gt;Node4 -->
<g id="edge41_Node000058_Node000004" class="edge">
<title>Node58&#45;&gt;Node4</title>
<g id="a_edge41_Node000058_Node000004"><a xlink:title=" ">
<path fill="none" stroke="#63b8ff" d="M59.61,-252.07C45.27,-244.6 28.01,-232.82 19.65,-216.5 0.93,-179.93 8.2,-152.68 39.65,-126.25 78.45,-93.64 224.48,-81.09 301.08,-76.67"/>
<polygon fill="#63b8ff" stroke="#63b8ff" points="301.07,-80.12 310.86,-76.07 300.68,-73.13 301.07,-80.12"/>
</a>
</g>
</g>
<!-- Node58&#45;&gt;Node27 -->
<g id="edge42_Node000058_Node000027" class="edge">
<title>Node58&#45;&gt;Node27</title>
<g id="a_edge42_Node000058_Node000027"><a xlink:title=" ">
<path fill="none" stroke="#63b8ff" d="M77.51,-252.05C73.01,-243.45 66.33,-230.69 60.76,-220.05"/>
<polygon fill="#63b8ff" stroke="#63b8ff" points="63.42,-218.58 55.68,-211.34 57.21,-221.83 63.42,-218.58"/>
</a>
</g>
</g>
<!-- Node58&#45;&gt;Node39 -->
<g id="edge43_Node000058_Node000039" class="edge">
<title>Node58&#45;&gt;Node39</title>
<g id="a_edge43_Node000058_Node000039"><a xlink:title=" ">
<path fill="none" stroke="#63b8ff" d="M89.72,-252.05C96.11,-243.18 105.68,-229.89 113.48,-219.06"/>
<polygon fill="#63b8ff" stroke="#63b8ff" points="116.75,-221.51 119.75,-211.34 111.06,-217.42 116.75,-221.51"/>
</a>
</g>
</g>
<!-- Node59&#45;&gt;Node4 -->
<g id="edge45_Node000059_Node000004" class="edge">
<title>Node59&#45;&gt;Node4</title>
<g id="a_edge45_Node000059_Node000004"><a xlink:title=" ">
<path fill="none" stroke="#63b8ff" d="M568.96,-252.18C597.29,-228.71 662.15,-167.73 627.65,-126.25 598.74,-91.48 467.83,-79.97 396.07,-76.23"/>
<polygon fill="#63b8ff" stroke="#63b8ff" points="396.66,-72.71 386.51,-75.72 396.32,-79.7 396.66,-72.71"/>
</a>
</g>
</g>
<!-- Node59&#45;&gt;Node27 -->
<g id="edge47_Node000059_Node000027" class="edge">
<title>Node59&#45;&gt;Node27</title>
<g id="a_edge47_Node000059_Node000027"><a xlink:title=" ">
<path fill="none" stroke="#63b8ff" d="M498.88,-259.06C390.02,-253.3 158.52,-238.83 81.65,-216.5 80.13,-216.06 78.6,-215.54 77.07,-214.97"/>
<polygon fill="#63b8ff" stroke="#63b8ff" points="78.8,-211.46 68.24,-210.61 75.96,-217.86 78.8,-211.46"/>
</a>
</g>
</g>
<!-- Node59&#45;&gt;Node29 -->
<g id="edge48_Node000059_Node000029" class="edge">
<title>Node59&#45;&gt;Node29</title>
<g id="a_edge48_Node000059_Node000029"><a xlink:title=" ">
<path fill="none" stroke="#63b8ff" d="M544.44,-252.05C532.74,-242.64 514.86,-228.26 501,-217.12"/>
<polygon fill="#63b8ff" stroke="#63b8ff" points="503.57,-213.88 493.58,-210.34 499.18,-219.34 503.57,-213.88"/>
</a>
</g>
</g>
<!-- Node59&#45;&gt;Node41 -->
<g id="edge46_Node000059_Node000041" class="edge">
<title>Node59&#45;&gt;Node41</title>
<g id="a_edge46_Node000059_Node000041"><a xlink:title=" ">
<path fill="none" stroke="#63b8ff" d="M558.07,-252.13C561,-231.89 567.79,-184.98 571.72,-157.9"/>
<polygon fill="#63b8ff" stroke="#63b8ff" points="575.28,-158.73 573.25,-148.33 568.35,-157.72 575.28,-158.73"/>
</a>
</g>
</g>
<!-- Node59&#45;&gt;Node55 -->
<g id="edge49_Node000059_Node000055" class="edge">
<title>Node59&#45;&gt;Node55</title>
<g id="a_edge49_Node000059_Node000055"><a xlink:title=" ">
<path fill="none" stroke="#63b8ff" d="M554.19,-252.05C549.99,-236.5 540.44,-205.68 525.65,-183 518.84,-172.55 509.32,-162.52 500.79,-154.56"/>
<polygon fill="#63b8ff" stroke="#63b8ff" points="503.52,-152.41 493.74,-148.35 498.86,-157.63 503.52,-152.41"/>
</a>
</g>
</g>
<!-- Node59&#45;&gt;Node60 -->
<g id="edge50_Node000059_Node000060" class="edge">
<title>Node59&#45;&gt;Node60</title>
<g id="a_edge50_Node000059_Node000060"><a xlink:title=" ">
<path fill="none" stroke="#63b8ff" d="M605.82,-252.05C659.78,-241.27 746.37,-223.98 803.88,-212.49"/>
<polygon fill="#63b8ff" stroke="#63b8ff" points="804.5,-215.74 813.62,-210.34 803.13,-208.87 804.5,-215.74"/>
</a>
</g>
</g>
<!-- Node59&#45;&gt;Node61 -->
<g id="edge52_Node000059_Node000061" class="edge">
<title>Node59&#45;&gt;Node61</title>
<g id="a_edge52_Node000059_Node000061"><a xlink:title=" ">
<path fill="none" stroke="#63b8ff" d="M580.27,-252.05C600.25,-243.75 629.52,-231.58 654.55,-221.17"/>
<polygon fill="#63b8ff" stroke="#63b8ff" points="655.72,-224.06 663.61,-216.98 653.03,-217.59 655.72,-224.06"/>
</a>
</g>
</g>
<!-- Node60&#45;&gt;Node4 -->
<g id="edge51_Node000060_Node000004" class="edge">
<title>Node60&#45;&gt;Node4</title>
<g id="a_edge51_Node000060_Node000004"><a xlink:title=" ">
<path fill="none" stroke="#63b8ff" d="M856.9,-188.95C846.81,-172.76 824.23,-140.77 795.65,-126.25 726.67,-91.21 496.84,-79.41 396.36,-75.87"/>
<polygon fill="#63b8ff" stroke="#63b8ff" points="396.73,-72.34 386.62,-75.5 396.5,-79.34 396.73,-72.34"/>
</a>
</g>
</g>
</g>
</svg>
