<?xml version="1.0" encoding="UTF-8" standalone="no"?>
<!DOCTYPE svg PUBLIC "-//W3C//DTD SVG 1.1//EN"
 "http://www.w3.org/Graphics/SVG/1.1/DTD/svg11.dtd">
<!-- Generated by graphviz version 2.28.0 (20120425.2022)
 -->
<!-- Title: G Pages: 1 -->
<svg width="232pt" height="84pt"
 viewBox="0.00 0.00 232.00 84.00" xmlns="http://www.w3.org/2000/svg" xmlns:xlink="http://www.w3.org/1999/xlink">
<g id="graph1" class="graph" transform="scale(1 1) rotate(0) translate(4 80)">
<title>G</title>
<polygon fill="white" stroke="white" points="-4,5 -4,-80 229,-80 229,5 -4,5"/>
<!-- Node1 -->
<g id="node1" class="node"><title>Node1</title>
<polygon fill="#bfbfbf" stroke="black" points="70.5,-56.5 70.5,-75.5 173.5,-75.5 173.5,-56.5 70.5,-56.5"/>
<text text-anchor="middle" x="122" y="-63.5" font-family="FreeSans" font-size="10.00">src/gilReleaser.cpp</text>
</g>
<!-- Node2 -->
<g id="node3" class="node"><title>Node2</title>
<a xlink:href="gilReleaser_8h.html" target="_top" xlink:title="gilReleaser.h">
<polygon fill="white" stroke="black" points="0,-0.5 0,-19.5 76,-19.5 76,-0.5 0,-0.5"/>
<text text-anchor="middle" x="38" y="-7.5" font-family="FreeSans" font-size="10.00">gilReleaser.h</text>
</a>
</g>
<!-- Node1&#45;&gt;Node2 -->
<g id="edge2" class="edge"><title>Node1&#45;&gt;Node2</title>
<path fill="none" stroke="midnightblue" d="M108.504,-56.324C95.4004,-47.9002 75.2881,-34.9709 59.8931,-25.0741"/>
<polygon fill="midnightblue" stroke="midnightblue" points="61.767,-22.118 51.4626,-19.6545 57.9817,-28.0063 61.767,-22.118"/>
</g>
<!-- Node3 -->
<g id="node5" class="node"><title>Node3</title>
<polygon fill="white" stroke="#bfbfbf" points="94.5,-0.5 94.5,-19.5 149.5,-19.5 149.5,-0.5 94.5,-0.5"/>
<text text-anchor="middle" x="122" y="-7.5" font-family="FreeSans" font-size="10.00">Python.h</text>
</g>
<!-- Node1&#45;&gt;Node3 -->
<g id="edge4" class="edge"><title>Node1&#45;&gt;Node3</title>
<path fill="none" stroke="midnightblue" d="M122,-56.083C122,-49.0059 122,-38.8611 122,-29.9865"/>
<polygon fill="midnightblue" stroke="midnightblue" points="125.5,-29.751 122,-19.7511 118.5,-29.7511 125.5,-29.751"/>
</g>
<!-- Node4 -->
<g id="node7" class="node"><title>Node4</title>
<polygon fill="white" stroke="#bfbfbf" points="168,-0.5 168,-19.5 224,-19.5 224,-0.5 168,-0.5"/>
<text text-anchor="middle" x="196" y="-7.5" font-family="FreeSans" font-size="10.00">iostream</text>
</g>
<!-- Node1&#45;&gt;Node4 -->
<g id="edge6" class="edge"><title>Node1&#45;&gt;Node4</title>
<path fill="none" stroke="midnightblue" d="M133.889,-56.324C145.15,-48.1066 162.287,-35.6017 175.709,-25.8069"/>
<polygon fill="midnightblue" stroke="midnightblue" points="177.88,-28.5559 183.894,-19.8339 173.753,-22.9014 177.88,-28.5559"/>
</g>
</g>
</svg>
