<?xml version="1.0" encoding="UTF-8" standalone="no"?>
<!DOCTYPE svg PUBLIC "-//W3C//DTD SVG 1.1//EN"
 "http://www.w3.org/Graphics/SVG/1.1/DTD/svg11.dtd">
<!-- Generated by graphviz version 2.28.0 (20120425.2022)
 -->
<!-- Title: src/gilReleaser.h Pages: 1 -->
<svg width="233pt" height="84pt"
 viewBox="0.00 0.00 233.00 84.00" xmlns="http://www.w3.org/2000/svg" xmlns:xlink="http://www.w3.org/1999/xlink">
<g id="graph1" class="graph" transform="scale(1 1) rotate(0) translate(4 80)">
<title>src/gilReleaser.h</title>
<polygon fill="white" stroke="white" points="-4,5 -4,-80 230,-80 230,5 -4,5"/>
<!-- Node1 -->
<g id="node1" class="node"><title>Node1</title>
<polygon fill="#bfbfbf" stroke="black" points="67,-56.5 67,-75.5 159,-75.5 159,-56.5 67,-56.5"/>
<text text-anchor="middle" x="113" y="-63.5" font-family="FreeSans" font-size="10.00">src/gilReleaser.h</text>
</g>
<!-- Node2 -->
<g id="node3" class="node"><title>Node2</title>
<a xlink:href="flameSolver_8cpp.html" target="_top" xlink:title="src/flameSolver.cpp">
<polygon fill="white" stroke="black" points="-0.5,-0.5 -0.5,-19.5 104.5,-19.5 104.5,-0.5 -0.5,-0.5"/>
<text text-anchor="middle" x="52" y="-7.5" font-family="FreeSans" font-size="10.00">src/flameSolver.cpp</text>
</a>
</g>
<!-- Node1&#45;&gt;Node2 -->
<g id="edge2" class="edge"><title>Node1&#45;&gt;Node2</title>
<path fill="none" stroke="midnightblue" d="M95.5328,-49.5372C84.6562,-39.9087 71.0561,-27.8694 61.979,-19.8339"/>
<polygon fill="midnightblue" stroke="midnightblue" points="93.3917,-52.3162 103.199,-56.324 98.0316,-47.0749 93.3917,-52.3162"/>
</g>
<!-- Node3 -->
<g id="node5" class="node"><title>Node3</title>
<a xlink:href="gilReleaser_8cpp.html" target="_top" xlink:title="src/gilReleaser.cpp">
<polygon fill="white" stroke="black" points="122.5,-0.5 122.5,-19.5 225.5,-19.5 225.5,-0.5 122.5,-0.5"/>
<text text-anchor="middle" x="174" y="-7.5" font-family="FreeSans" font-size="10.00">src/gilReleaser.cpp</text>
</a>
</g>
<!-- Node1&#45;&gt;Node3 -->
<g id="edge4" class="edge"><title>Node1&#45;&gt;Node3</title>
<path fill="none" stroke="midnightblue" d="M130.467,-49.5372C141.344,-39.9087 154.944,-27.8694 164.021,-19.8339"/>
<polygon fill="midnightblue" stroke="midnightblue" points="127.968,-47.0749 122.801,-56.324 132.608,-52.3162 127.968,-47.0749"/>
</g>
</g>
</svg>
