<?xml version="1.0" encoding="UTF-8" standalone="no"?>
<!DOCTYPE svg PUBLIC "-//W3C//DTD SVG 1.1//EN"
 "http://www.w3.org/Graphics/SVG/1.1/DTD/svg11.dtd">
<!-- Generated by graphviz version 2.26.3 (20100126.1600)
 -->
<!-- Title: src/grid.h Pages: 1 -->
<svg width="417pt" height="204pt"
 viewBox="0.00 0.00 417.00 204.00" xmlns="http://www.w3.org/2000/svg" xmlns:xlink="http://www.w3.org/1999/xlink">
<g id="graph1" class="graph" transform="scale(1 1) rotate(0) translate(4 200)">
<title>src/grid.h</title>
<polygon fill="white" stroke="white" points="-4,5 -4,-200 414,-200 414,5 -4,5"/>
<!-- Node1 -->
<g id="node1" class="node"><title>Node1</title>
<polygon fill="#bfbfbf" stroke="black" points="203,-175 203,-195 259,-195 259,-175 203,-175"/>
<text text-anchor="middle" x="231" y="-182" font-family="FreeSans" font-size="10.00">src/grid.h</text>
</g>
<!-- Node2 -->
<g id="node3" class="node"><title>Node2</title>
<a xlink:href="convectionSystem_8h.html" target="_top" xlink:title="src/convectionSystem.h">
<polygon fill="white" stroke="black" points="44.5,-117 44.5,-137 163.5,-137 163.5,-117 44.5,-117"/>
<text text-anchor="middle" x="104" y="-124" font-family="FreeSans" font-size="10.00">src/convectionSystem.h</text>
</a>
</g>
<!-- Node1&#45;&gt;Node2 -->
<g id="edge2" class="edge"><title>Node1&#45;&gt;Node2</title>
<path fill="none" stroke="midnightblue" d="M199.631,-170.674C176.867,-160.278 146.623,-146.465 126.294,-137.182"/>
<polygon fill="midnightblue" stroke="midnightblue" points="198.328,-173.927 208.878,-174.897 201.236,-167.559 198.328,-173.927"/>
</g>
<!-- Node4 -->
<g id="node7" class="node"><title>Node4</title>
<a xlink:href="flameSolver_8h.html" target="_top" xlink:title="src/flameSolver.h">
<polygon fill="white" stroke="black" points="146,-59 146,-79 236,-79 236,-59 146,-59"/>
<text text-anchor="middle" x="191" y="-66" font-family="FreeSans" font-size="10.00">src/flameSolver.h</text>
</a>
</g>
<!-- Node1&#45;&gt;Node4 -->
<g id="edge16" class="edge"><title>Node1&#45;&gt;Node4</title>
<path fill="none" stroke="midnightblue" d="M221.484,-165.487C217.623,-157.139 213.304,-147.21 210,-138 202.7,-117.65 196.546,-93.0872 193.352,-79.4393"/>
<polygon fill="midnightblue" stroke="midnightblue" points="218.421,-167.196 225.869,-174.732 224.746,-164.196 218.421,-167.196"/>
</g>
<!-- Node6 -->
<g id="node11" class="node"><title>Node6</title>
<a xlink:href="diffusionSystem_8h.html" target="_top" xlink:title="src/diffusionSystem.h">
<polygon fill="white" stroke="black" points="218.5,-117 218.5,-137 325.5,-137 325.5,-117 218.5,-117"/>
<text text-anchor="middle" x="272" y="-124" font-family="FreeSans" font-size="10.00">src/diffusionSystem.h</text>
</a>
</g>
<!-- Node1&#45;&gt;Node6 -->
<g id="edge10" class="edge"><title>Node1&#45;&gt;Node6</title>
<path fill="none" stroke="midnightblue" d="M243.946,-166.686C250.781,-157.017 258.918,-145.506 264.664,-137.378"/>
<polygon fill="midnightblue" stroke="midnightblue" points="241.056,-164.711 238.142,-174.897 246.772,-168.752 241.056,-164.711"/>
</g>
<!-- Node8 -->
<g id="node17" class="node"><title>Node8</title>
<a xlink:href="grid_8cpp.html" target="_top" xlink:title="src/grid.cpp">
<polygon fill="white" stroke="black" points="343,-117 343,-137 409,-137 409,-117 343,-117"/>
<text text-anchor="middle" x="376" y="-124" font-family="FreeSans" font-size="10.00">src/grid.cpp</text>
</a>
</g>
<!-- Node1&#45;&gt;Node8 -->
<g id="edge18" class="edge"><title>Node1&#45;&gt;Node8</title>
<path fill="none" stroke="midnightblue" d="M265.775,-171.09C291.879,-160.649 327.026,-146.59 350.546,-137.182"/>
<polygon fill="midnightblue" stroke="midnightblue" points="264.242,-167.934 256.257,-174.897 266.842,-174.433 264.242,-167.934"/>
</g>
<!-- Node3 -->
<g id="node5" class="node"><title>Node3</title>
<a xlink:href="convectionSystem_8cpp.html" target="_top" xlink:title="src/convectionSystem.cpp">
<polygon fill="white" stroke="black" points="-0.5,-59 -0.5,-79 128.5,-79 128.5,-59 -0.5,-59"/>
<text text-anchor="middle" x="64" y="-66" font-family="FreeSans" font-size="10.00">src/convectionSystem.cpp</text>
</a>
</g>
<!-- Node2&#45;&gt;Node3 -->
<g id="edge4" class="edge"><title>Node2&#45;&gt;Node3</title>
<path fill="none" stroke="midnightblue" d="M91.1649,-108.389C84.5396,-98.7824 76.7055,-87.423 71.157,-79.3776"/>
<polygon fill="midnightblue" stroke="midnightblue" points="88.4739,-110.652 97.0325,-116.897 94.2364,-106.678 88.4739,-110.652"/>
</g>
<!-- Node2&#45;&gt;Node4 -->
<g id="edge6" class="edge"><title>Node2&#45;&gt;Node4</title>
<path fill="none" stroke="midnightblue" d="M127.607,-111.262C142.92,-101.054 162.424,-88.051 175.728,-79.1817"/>
<polygon fill="midnightblue" stroke="midnightblue" points="125.533,-108.438 119.154,-116.897 129.416,-114.262 125.533,-108.438"/>
</g>
<!-- Node5 -->
<g id="node9" class="node"><title>Node5</title>
<a xlink:href="flameSolver_8cpp.html" target="_top" xlink:title="src/flameSolver.cpp">
<polygon fill="white" stroke="black" points="140.5,-1 140.5,-21 241.5,-21 241.5,-1 140.5,-1"/>
<text text-anchor="middle" x="191" y="-8" font-family="FreeSans" font-size="10.00">src/flameSolver.cpp</text>
</a>
</g>
<!-- Node4&#45;&gt;Node5 -->
<g id="edge8" class="edge"><title>Node4&#45;&gt;Node5</title>
<path fill="none" stroke="midnightblue" d="M191,-48.8902C191,-39.6201 191,-29.0083 191,-21.3776"/>
<polygon fill="midnightblue" stroke="midnightblue" points="187.5,-48.8971 191,-58.8972 194.5,-48.8972 187.5,-48.8971"/>
</g>
<!-- Node6&#45;&gt;Node4 -->
<g id="edge14" class="edge"><title>Node6&#45;&gt;Node4</title>
<path fill="none" stroke="midnightblue" d="M249.62,-110.975C235.426,-100.811 217.49,-87.9681 205.219,-79.1817"/>
<polygon fill="midnightblue" stroke="midnightblue" points="247.723,-113.921 257.891,-116.897 251.798,-108.23 247.723,-113.921"/>
</g>
<!-- Node7 -->
<g id="node13" class="node"><title>Node7</title>
<a xlink:href="diffusionSystem_8cpp.html" target="_top" xlink:title="src/diffusionSystem.cpp">
<polygon fill="white" stroke="black" points="253.5,-59 253.5,-79 370.5,-79 370.5,-59 253.5,-59"/>
<text text-anchor="middle" x="312" y="-66" font-family="FreeSans" font-size="10.00">src/diffusionSystem.cpp</text>
</a>
</g>
<!-- Node6&#45;&gt;Node7 -->
<g id="edge12" class="edge"><title>Node6&#45;&gt;Node7</title>
<path fill="none" stroke="midnightblue" d="M284.835,-108.389C291.46,-98.7824 299.294,-87.423 304.843,-79.3776"/>
<polygon fill="midnightblue" stroke="midnightblue" points="281.764,-106.678 278.967,-116.897 287.526,-110.652 281.764,-106.678"/>
</g>
</g>
</svg>
