<?xml version="1.0" encoding="UTF-8" standalone="no"?>
<!DOCTYPE svg PUBLIC "-//W3C//DTD SVG 1.1//EN"
 "http://www.w3.org/Graphics/SVG/1.1/DTD/svg11.dtd">
<!-- Generated by graphviz version 2.38.0 (20140413.2041)
 -->
<!-- Title: src/grid.h Pages: 1 -->
<svg width="421pt" height="196pt"
 viewBox="0.00 0.00 420.50 196.00" xmlns="http://www.w3.org/2000/svg" xmlns:xlink="http://www.w3.org/1999/xlink">
<g id="graph0" class="graph" transform="scale(1 1) rotate(0) translate(4 192)">
<title>src/grid.h</title>
<polygon fill="white" stroke="none" points="-4,4 -4,-192 416.5,-192 416.5,4 -4,4"/>
<!-- Node1 -->
<g id="node1" class="node"><title>Node1</title>
<polygon fill="#bfbfbf" stroke="black" points="205.5,-168.5 205.5,-187.5 261.5,-187.5 261.5,-168.5 205.5,-168.5"/>
<text text-anchor="middle" x="233.5" y="-175.5" font-family="FreeSans" font-size="10.00">src/grid.h</text>
</g>
<!-- Node2 -->
<g id="node2" class="node"><title>Node2</title>
<g id="a_node2"><a xlink:href="convectionSystem_8h.html" target="_top" xlink:title="src/convectionSystem.h">
<polygon fill="white" stroke="black" points="45,-112.5 45,-131.5 164,-131.5 164,-112.5 45,-112.5"/>
<text text-anchor="middle" x="104.5" y="-119.5" font-family="FreeSans" font-size="10.00">src/convectionSystem.h</text>
</a>
</g>
</g>
<!-- Node1&#45;&gt;Node2 -->
<g id="edge1" class="edge"><title>Node1&#45;&gt;Node2</title>
<path fill="none" stroke="midnightblue" d="M203.646,-164.503C179.462,-154.38 146.038,-140.388 124.845,-131.516"/>
<polygon fill="midnightblue" stroke="midnightblue" points="202.484,-167.811 213.06,-168.444 205.187,-161.354 202.484,-167.811"/>
</g>
<!-- Node4 -->
<g id="node4" class="node"><title>Node4</title>
<g id="a_node4"><a xlink:href="flameSolver_8h.html" target="_top" xlink:title="src/flameSolver.h">
<polygon fill="white" stroke="black" points="147.5,-56.5 147.5,-75.5 237.5,-75.5 237.5,-56.5 147.5,-56.5"/>
<text text-anchor="middle" x="192.5" y="-63.5" font-family="FreeSans" font-size="10.00">src/flameSolver.h</text>
</a>
</g>
</g>
<!-- Node1&#45;&gt;Node4 -->
<g id="edge8" class="edge"><title>Node1&#45;&gt;Node4</title>
<path fill="none" stroke="midnightblue" d="M224.387,-158.965C220.463,-150.838 215.985,-141.051 212.5,-132 204.863,-112.167 198.078,-88.0893 194.722,-75.541"/>
<polygon fill="midnightblue" stroke="midnightblue" points="221.379,-160.777 228.947,-168.192 227.655,-157.677 221.379,-160.777"/>
</g>
<!-- Node6 -->
<g id="node6" class="node"><title>Node6</title>
<g id="a_node6"><a xlink:href="diffusionSystem_8h.html" target="_top" xlink:title="src/diffusionSystem.h">
<polygon fill="white" stroke="black" points="221,-112.5 221,-131.5 328,-131.5 328,-112.5 221,-112.5"/>
<text text-anchor="middle" x="274.5" y="-119.5" font-family="FreeSans" font-size="10.00">src/diffusionSystem.h</text>
</a>
</g>
</g>
<!-- Node1&#45;&gt;Node6 -->
<g id="edge5" class="edge"><title>Node1&#45;&gt;Node6</title>
<path fill="none" stroke="midnightblue" d="M246.517,-159.855C253.617,-150.505 262.104,-139.327 267.856,-131.751"/>
<polygon fill="midnightblue" stroke="midnightblue" points="243.53,-158.002 240.27,-168.083 249.105,-162.235 243.53,-158.002"/>
</g>
<!-- Node8 -->
<g id="node8" class="node"><title>Node8</title>
<g id="a_node8"><a xlink:href="grid_8cpp.html" target="_top" xlink:title="src/grid.cpp">
<polygon fill="white" stroke="black" points="346.5,-112.5 346.5,-131.5 412.5,-131.5 412.5,-112.5 346.5,-112.5"/>
<text text-anchor="middle" x="379.5" y="-119.5" font-family="FreeSans" font-size="10.00">src/grid.cpp</text>
</a>
</g>
</g>
<!-- Node1&#45;&gt;Node8 -->
<g id="edge9" class="edge"><title>Node1&#45;&gt;Node8</title>
<path fill="none" stroke="midnightblue" d="M266.199,-164.906C293.648,-154.754 332.168,-140.506 356.474,-131.516"/>
<polygon fill="midnightblue" stroke="midnightblue" points="264.799,-161.692 256.634,-168.444 267.227,-168.257 264.799,-161.692"/>
</g>
<!-- Node3 -->
<g id="node3" class="node"><title>Node3</title>
<g id="a_node3"><a xlink:href="convectionSystem_8cpp.html" target="_top" xlink:title="src/convectionSystem.cpp">
<polygon fill="white" stroke="black" points="0,-56.5 0,-75.5 129,-75.5 129,-56.5 0,-56.5"/>
<text text-anchor="middle" x="64.5" y="-63.5" font-family="FreeSans" font-size="10.00">src/convectionSystem.cpp</text>
</a>
</g>
</g>
<!-- Node2&#45;&gt;Node3 -->
<g id="edge2" class="edge"><title>Node2&#45;&gt;Node3</title>
<path fill="none" stroke="midnightblue" d="M91.8003,-103.855C84.874,-94.5048 76.5937,-83.3265 70.9823,-75.7511"/>
<polygon fill="midnightblue" stroke="midnightblue" points="89.13,-106.131 97.8948,-112.083 94.755,-101.964 89.13,-106.131"/>
</g>
<!-- Node2&#45;&gt;Node4 -->
<g id="edge3" class="edge"><title>Node2&#45;&gt;Node4</title>
<path fill="none" stroke="midnightblue" d="M127.477,-106.901C143.613,-96.9986 164.681,-84.0705 178.396,-75.6545"/>
<polygon fill="midnightblue" stroke="midnightblue" points="125.331,-104.111 118.639,-112.324 128.993,-110.077 125.331,-104.111"/>
</g>
<!-- Node5 -->
<g id="node5" class="node"><title>Node5</title>
<g id="a_node5"><a xlink:href="flameSolver_8cpp.html" target="_top" xlink:title="src/flameSolver.cpp">
<polygon fill="white" stroke="black" points="142,-0.5 142,-19.5 243,-19.5 243,-0.5 142,-0.5"/>
<text text-anchor="middle" x="192.5" y="-7.5" font-family="FreeSans" font-size="10.00">src/flameSolver.cpp</text>
</a>
</g>
</g>
<!-- Node4&#45;&gt;Node5 -->
<g id="edge4" class="edge"><title>Node4&#45;&gt;Node5</title>
<path fill="none" stroke="midnightblue" d="M192.5,-45.8045C192.5,-36.9102 192.5,-26.7798 192.5,-19.7511"/>
<polygon fill="midnightblue" stroke="midnightblue" points="189,-46.083 192.5,-56.083 196,-46.083 189,-46.083"/>
</g>
<!-- Node6&#45;&gt;Node4 -->
<g id="edge7" class="edge"><title>Node6&#45;&gt;Node4</title>
<path fill="none" stroke="midnightblue" d="M252.667,-106.622C237.687,-96.7574 218.303,-83.9919 205.642,-75.6545"/>
<polygon fill="midnightblue" stroke="midnightblue" points="251.049,-109.747 261.325,-112.324 254.899,-103.901 251.049,-109.747"/>
</g>
<!-- Node7 -->
<g id="node7" class="node"><title>Node7</title>
<g id="a_node7"><a xlink:href="diffusionSystem_8cpp.html" target="_top" xlink:title="src/diffusionSystem.cpp">
<polygon fill="white" stroke="black" points="256,-56.5 256,-75.5 373,-75.5 373,-56.5 256,-56.5"/>
<text text-anchor="middle" x="314.5" y="-63.5" font-family="FreeSans" font-size="10.00">src/diffusionSystem.cpp</text>
</a>
</g>
</g>
<!-- Node6&#45;&gt;Node7 -->
<g id="edge6" class="edge"><title>Node6&#45;&gt;Node7</title>
<path fill="none" stroke="midnightblue" d="M287.2,-103.855C294.126,-94.5048 302.406,-83.3265 308.018,-75.7511"/>
<polygon fill="midnightblue" stroke="midnightblue" points="284.245,-101.964 281.105,-112.083 289.87,-106.131 284.245,-101.964"/>
</g>
</g>
</svg>
