<?xml version="1.0" encoding="UTF-8" standalone="no"?>
<!DOCTYPE svg PUBLIC "-//W3C//DTD SVG 1.1//EN"
 "http://www.w3.org/Graphics/SVG/1.1/DTD/svg11.dtd">
<!-- Generated by graphviz version 8.1.0 (20230707.2238)
 -->
<!-- Title: src/grid.cpp Pages: 1 -->
<svg width="208pt" height="313pt"
 viewBox="0.00 0.00 207.56 312.50" xmlns="http://www.w3.org/2000/svg" xmlns:xlink="http://www.w3.org/1999/xlink">
<g id="graph0" class="graph" transform="scale(1 1) rotate(0) translate(4 308.5)">
<title>src/grid.cpp</title>
<!-- Node1 -->
<g id="Node000001" class="node">
<title>Node1</title>
<g id="a_Node000001"><a xlink:title=" ">
<polygon fill="#999999" stroke="#666666" points="152.18,-304.5 79.93,-304.5 79.93,-283.75 152.18,-283.75 152.18,-304.5"/>
<text text-anchor="middle" x="116.06" y="-291" font-family="FreeSans" font-size="10.00">src/grid.cpp</text>
</a>
</g>
</g>
<!-- Node2 -->
<g id="Node000002" class="node">
<title>Node2</title>
<g id="a_Node000002"><a xlink:href="grid_8h.html" target="_top" xlink:title=" ">
<polygon fill="white" stroke="#666666" points="79.93,-247.75 36.18,-247.75 36.18,-227 79.93,-227 79.93,-247.75"/>
<text text-anchor="middle" x="58.06" y="-234.25" font-family="FreeSans" font-size="10.00">grid.h</text>
</a>
</g>
</g>
<!-- Node1&#45;&gt;Node2 -->
<g id="edge1_Node000001_Node000002" class="edge">
<title>Node1&#45;&gt;Node2</title>
<g id="a_edge1_Node000001_Node000002"><a xlink:title=" ">
<path fill="none" stroke="#63b8ff" d="M105.69,-283.34C97.52,-275.63 85.94,-264.7 76.24,-255.54"/>
<polygon fill="#63b8ff" stroke="#63b8ff" points="79.01,-253.4 69.34,-249.08 74.21,-258.49 79.01,-253.4"/>
</a>
</g>
</g>
<!-- Node11 -->
<g id="Node000011" class="node">
<title>Node11</title>
<g id="a_Node000011"><a xlink:href="debugUtils_8h.html" target="_top" xlink:title=" ">
<polygon fill="#fff0f0" stroke="red" points="141.81,-77.5 64.31,-77.5 64.31,-56.75 141.81,-56.75 141.81,-77.5"/>
<text text-anchor="middle" x="103.06" y="-64" font-family="FreeSans" font-size="10.00">debugUtils.h</text>
</a>
</g>
</g>
<!-- Node1&#45;&gt;Node11 -->
<g id="edge8_Node000001_Node000011" class="edge">
<title>Node1&#45;&gt;Node11</title>
<g id="a_edge8_Node000001_Node000011"><a xlink:title=" ">
<path fill="none" stroke="#63b8ff" d="M115.5,-283.46C113.54,-249.56 106.96,-135.62 104.24,-88.64"/>
<polygon fill="#63b8ff" stroke="#63b8ff" points="107.69,-88.54 103.62,-78.76 100.7,-88.94 107.69,-88.54"/>
</a>
</g>
</g>
<!-- Node17 -->
<g id="Node000017" class="node">
<title>Node17</title>
<g id="a_Node000017"><a xlink:title=" ">
<polygon fill="#e0e0e0" stroke="#999999" points="199.56,-247.75 144.56,-247.75 144.56,-227 199.56,-227 199.56,-247.75"/>
<text text-anchor="middle" x="172.06" y="-234.25" font-family="FreeSans" font-size="10.00">assert.h</text>
</a>
</g>
</g>
<!-- Node1&#45;&gt;Node17 -->
<g id="edge9_Node000001_Node000017" class="edge">
<title>Node1&#45;&gt;Node17</title>
<g id="a_edge9_Node000001_Node000017"><a xlink:title=" ">
<path fill="none" stroke="#63b8ff" d="M126.07,-283.34C133.95,-275.63 145.14,-264.7 154.5,-255.54"/>
<polygon fill="#63b8ff" stroke="#63b8ff" points="156.43,-258.57 161.13,-249.08 151.54,-253.57 156.43,-258.57"/>
</a>
</g>
</g>
<!-- Node3 -->
<g id="Node000003" class="node">
<title>Node3</title>
<g id="a_Node000003"><a xlink:href="readConfig_8h.html" target="_top" xlink:title=" ">
<polygon fill="white" stroke="#666666" points="87.81,-191 10.31,-191 10.31,-170.25 87.81,-170.25 87.81,-191"/>
<text text-anchor="middle" x="49.06" y="-177.5" font-family="FreeSans" font-size="10.00">readConfig.h</text>
</a>
</g>
</g>
<!-- Node2&#45;&gt;Node3 -->
<g id="edge2_Node000002_Node000003" class="edge">
<title>Node2&#45;&gt;Node3</title>
<g id="a_edge2_Node000002_Node000003"><a xlink:title=" ">
<path fill="none" stroke="#63b8ff" d="M56.45,-226.59C55.32,-219.74 53.78,-210.34 52.39,-201.9"/>
<polygon fill="#63b8ff" stroke="#63b8ff" points="55.73,-201.63 50.65,-192.33 48.82,-202.76 55.73,-201.63"/>
</a>
</g>
</g>
<!-- Node4 -->
<g id="Node000004" class="node">
<title>Node4</title>
<g id="a_Node000004"><a xlink:href="mathUtils_8h.html" target="_top" xlink:title=" ">
<polygon fill="#fff0f0" stroke="red" points="87.56,-134.25 14.56,-134.25 14.56,-113.5 87.56,-113.5 87.56,-134.25"/>
<text text-anchor="middle" x="51.06" y="-120.75" font-family="FreeSans" font-size="10.00">mathUtils.h</text>
</a>
</g>
</g>
<!-- Node3&#45;&gt;Node4 -->
<g id="edge3_Node000003_Node000004" class="edge">
<title>Node3&#45;&gt;Node4</title>
<g id="a_edge3_Node000003_Node000004"><a xlink:title=" ">
<path fill="none" stroke="#63b8ff" d="M49.42,-169.84C49.66,-163.06 50,-153.8 50.31,-145.44"/>
<polygon fill="#63b8ff" stroke="#63b8ff" points="53.84,-145.7 50.7,-135.58 46.84,-145.44 53.84,-145.7"/>
</a>
</g>
</g>
<!-- Node9 -->
<g id="Node000009" class="node">
<title>Node9</title>
<g id="a_Node000009"><a xlink:title=" ">
<polygon fill="#e0e0e0" stroke="#999999" points="57.93,-20.75 14.18,-20.75 14.18,0 57.93,0 57.93,-20.75"/>
<text text-anchor="middle" x="36.06" y="-7.25" font-family="FreeSans" font-size="10.00">string</text>
</a>
</g>
</g>
<!-- Node3&#45;&gt;Node9 -->
<g id="edge7_Node000003_Node000009" class="edge">
<title>Node3&#45;&gt;Node9</title>
<g id="a_edge7_Node000003_Node000009"><a xlink:title=" ">
<path fill="none" stroke="#63b8ff" d="M35,-169.92C24.54,-161.77 11.08,-149.1 5.06,-134.25 -9.26,-98.92 10,-55.14 23.95,-30.52"/>
<polygon fill="#63b8ff" stroke="#63b8ff" points="27.38,-32.6 29.49,-22.22 21.36,-29.02 27.38,-32.6"/>
</a>
</g>
</g>
<!-- Node4&#45;&gt;Node9 -->
<g id="edge4_Node000004_Node000009" class="edge">
<title>Node4&#45;&gt;Node9</title>
<g id="a_edge4_Node000004_Node000009"><a xlink:title=" ">
<path fill="none" stroke="#63b8ff" d="M49.78,-113.37C47.37,-95.44 42.1,-56.25 38.84,-32.01"/>
<polygon fill="#63b8ff" stroke="#63b8ff" points="42.18,-31.62 37.38,-22.18 35.24,-32.55 42.18,-31.62"/>
</a>
</g>
</g>
<!-- Node4&#45;&gt;Node11 -->
<g id="edge5_Node000004_Node000011" class="edge">
<title>Node4&#45;&gt;Node11</title>
<g id="a_edge5_Node000004_Node000011"><a xlink:title=" ">
<path fill="none" stroke="#63b8ff" d="M60.36,-113.09C67.6,-105.46 77.85,-94.67 86.49,-85.57"/>
<polygon fill="#63b8ff" stroke="#63b8ff" points="88.49,-88.49 92.84,-78.83 83.42,-83.67 88.49,-88.49"/>
</a>
</g>
</g>
<!-- Node11&#45;&gt;Node9 -->
<g id="edge6_Node000011_Node000009" class="edge">
<title>Node11&#45;&gt;Node9</title>
<g id="a_edge6_Node000011_Node000009"><a xlink:title=" ">
<path fill="none" stroke="#63b8ff" d="M91.08,-56.34C81.46,-48.47 67.73,-37.25 56.39,-27.99"/>
<polygon fill="#63b8ff" stroke="#63b8ff" points="58.89,-24.7 48.93,-21.08 54.46,-30.12 58.89,-24.7"/>
</a>
</g>
</g>
</g>
</svg>
