<?xml version="1.0" encoding="UTF-8" standalone="no"?>
<!DOCTYPE svg PUBLIC "-//W3C//DTD SVG 1.1//EN"
 "http://www.w3.org/Graphics/SVG/1.1/DTD/svg11.dtd">
<!-- Generated by graphviz version 2.28.0 (20120425.2022)
 -->
<!-- Title: src/grid.h Pages: 1 -->
<svg width="434pt" height="140pt"
 viewBox="0.00 0.00 434.00 140.00" xmlns="http://www.w3.org/2000/svg" xmlns:xlink="http://www.w3.org/1999/xlink">
<g id="graph1" class="graph" transform="scale(1 1) rotate(0) translate(4 136)">
<title>src/grid.h</title>
<polygon fill="white" stroke="white" points="-4,5 -4,-136 431,-136 431,5 -4,5"/>
<!-- Node1 -->
<g id="node1" class="node"><title>Node1</title>
<polygon fill="#bfbfbf" stroke="black" points="213,-112.5 213,-131.5 271,-131.5 271,-112.5 213,-112.5"/>
<text text-anchor="middle" x="242" y="-119.5" font-family="FreeSans" font-size="10.00">src/grid.h</text>
</g>
<!-- Node2 -->
<g id="node3" class="node"><title>Node2</title>
<a xlink:href="convectionSystem_8h.html" target="_top" xlink:title="src/convectionSystem.h">
<polygon fill="white" stroke="black" points="48.5,-56.5 48.5,-75.5 171.5,-75.5 171.5,-56.5 48.5,-56.5"/>
<text text-anchor="middle" x="110" y="-63.5" font-family="FreeSans" font-size="10.00">src/convectionSystem.h</text>
</a>
</g>
<!-- Node1&#45;&gt;Node2 -->
<g id="edge2" class="edge"><title>Node1&#45;&gt;Node2</title>
<path fill="none" stroke="midnightblue" d="M211.781,-108.638C187.01,-98.504 152.6,-84.4274 130.818,-75.5164"/>
<polygon fill="midnightblue" stroke="midnightblue" points="210.503,-111.897 221.084,-112.444 213.154,-105.418 210.503,-111.897"/>
</g>
<!-- Node4 -->
<g id="node7" class="node"><title>Node4</title>
<a xlink:href="flameSolver_8h.html" target="_top" xlink:title="src/flameSolver.h">
<polygon fill="white" stroke="red" points="152.5,-0.5 152.5,-19.5 247.5,-19.5 247.5,-0.5 152.5,-0.5"/>
<text text-anchor="middle" x="200" y="-7.5" font-family="FreeSans" font-size="10.00">src/flameSolver.h</text>
</a>
</g>
<!-- Node1&#45;&gt;Node4 -->
<g id="edge14" class="edge"><title>Node1&#45;&gt;Node4</title>
<path fill="none" stroke="midnightblue" d="M232.54,-103.279C228.386,-95.1073 223.638,-85.1986 220,-76 212.184,-56.2371 205.472,-32.1308 202.175,-19.5594"/>
<polygon fill="midnightblue" stroke="midnightblue" points="229.474,-104.968 237.198,-112.22 235.682,-101.734 229.474,-104.968"/>
</g>
<!-- Node5 -->
<g id="node9" class="node"><title>Node5</title>
<a xlink:href="diffusionSystem_8h.html" target="_top" xlink:title="src/diffusionSystem.h">
<polygon fill="white" stroke="black" points="228.5,-56.5 228.5,-75.5 339.5,-75.5 339.5,-56.5 228.5,-56.5"/>
<text text-anchor="middle" x="284" y="-63.5" font-family="FreeSans" font-size="10.00">src/diffusionSystem.h</text>
</a>
</g>
<!-- Node1&#45;&gt;Node5 -->
<g id="edge8" class="edge"><title>Node1&#45;&gt;Node5</title>
<path fill="none" stroke="midnightblue" d="M255.11,-104.144C262.428,-94.7357 271.241,-83.4046 277.194,-75.7511"/>
<polygon fill="midnightblue" stroke="midnightblue" points="252.312,-102.041 248.935,-112.083 257.838,-106.338 252.312,-102.041"/>
</g>
<!-- Node7 -->
<g id="node15" class="node"><title>Node7</title>
<a xlink:href="grid_8cpp.html" target="_top" xlink:title="src/grid.cpp">
<polygon fill="white" stroke="black" points="358,-56.5 358,-75.5 426,-75.5 426,-56.5 358,-56.5"/>
<text text-anchor="middle" x="392" y="-63.5" font-family="FreeSans" font-size="10.00">src/grid.cpp</text>
</a>
</g>
<!-- Node1&#45;&gt;Node7 -->
<g id="edge16" class="edge"><title>Node1&#45;&gt;Node7</title>
<path fill="none" stroke="midnightblue" d="M275.225,-109.039C303.448,-98.8786 343.262,-84.5457 368.343,-75.5164"/>
<polygon fill="midnightblue" stroke="midnightblue" points="273.991,-105.763 265.768,-112.444 276.362,-112.349 273.991,-105.763"/>
</g>
<!-- Node3 -->
<g id="node5" class="node"><title>Node3</title>
<a xlink:href="convectionSystem_8cpp.html" target="_top" xlink:title="src/convectionSystem.cpp">
<polygon fill="white" stroke="black" points="0,-0.5 0,-19.5 134,-19.5 134,-0.5 0,-0.5"/>
<text text-anchor="middle" x="67" y="-7.5" font-family="FreeSans" font-size="10.00">src/convectionSystem.cpp</text>
</a>
</g>
<!-- Node2&#45;&gt;Node3 -->
<g id="edge4" class="edge"><title>Node2&#45;&gt;Node3</title>
<path fill="none" stroke="midnightblue" d="M96.5776,-48.144C89.0858,-38.7357 80.0629,-27.4046 73.9685,-19.7511"/>
<polygon fill="midnightblue" stroke="midnightblue" points="93.9321,-50.4404 102.899,-56.083 99.4081,-46.0799 93.9321,-50.4404"/>
</g>
<!-- Node2&#45;&gt;Node4 -->
<g id="edge6" class="edge"><title>Node2&#45;&gt;Node4</title>
<path fill="none" stroke="midnightblue" d="M133.038,-51.1774C149.599,-41.2407 171.418,-28.1492 185.576,-19.6545"/>
<polygon fill="midnightblue" stroke="midnightblue" points="131.234,-48.1777 124.46,-56.324 134.836,-54.1802 131.234,-48.1777"/>
</g>
<!-- Node5&#45;&gt;Node4 -->
<g id="edge12" class="edge"><title>Node5&#45;&gt;Node4</title>
<path fill="none" stroke="midnightblue" d="M262.068,-50.9005C246.665,-40.9986 226.554,-28.0705 213.463,-19.6545"/>
<polygon fill="midnightblue" stroke="midnightblue" points="260.199,-53.8605 270.504,-56.324 263.985,-47.9722 260.199,-53.8605"/>
</g>
<!-- Node6 -->
<g id="node11" class="node"><title>Node6</title>
<a xlink:href="diffusionSystem_8cpp.html" target="_top" xlink:title="src/diffusionSystem.cpp">
<polygon fill="white" stroke="black" points="266,-0.5 266,-19.5 388,-19.5 388,-0.5 266,-0.5"/>
<text text-anchor="middle" x="327" y="-7.5" font-family="FreeSans" font-size="10.00">src/diffusionSystem.cpp</text>
</a>
</g>
<!-- Node5&#45;&gt;Node6 -->
<g id="edge10" class="edge"><title>Node5&#45;&gt;Node6</title>
<path fill="none" stroke="midnightblue" d="M297.422,-48.144C304.914,-38.7357 313.937,-27.4046 320.032,-19.7511"/>
<polygon fill="midnightblue" stroke="midnightblue" points="294.592,-46.0799 291.101,-56.083 300.068,-50.4404 294.592,-46.0799"/>
</g>
</g>
</svg>
