<?xml version="1.0" encoding="UTF-8" standalone="no"?>
<!DOCTYPE svg PUBLIC "-//W3C//DTD SVG 1.1//EN"
 "http://www.w3.org/Graphics/SVG/1.1/DTD/svg11.dtd">
<!-- Generated by graphviz version 2.38.0 (20140413.2041)
 -->
<!-- Title: src/grid.cpp Pages: 1 -->
<svg width="305pt" height="308pt"
 viewBox="0.00 0.00 305.24 308.00" xmlns="http://www.w3.org/2000/svg" xmlns:xlink="http://www.w3.org/1999/xlink">
<g id="graph0" class="graph" transform="scale(1 1) rotate(0) translate(4 304)">
<title>src/grid.cpp</title>
<polygon fill="white" stroke="none" points="-4,4 -4,-304 301.236,-304 301.236,4 -4,4"/>
<!-- Node1 -->
<g id="node1" class="node"><title>Node1</title>
<polygon fill="#bfbfbf" stroke="black" points="100.736,-280.5 100.736,-299.5 166.736,-299.5 166.736,-280.5 100.736,-280.5"/>
<text text-anchor="middle" x="133.736" y="-287.5" font-family="FreeSans" font-size="10.00">src/grid.cpp</text>
</g>
<!-- Node2 -->
<g id="node2" class="node"><title>Node2</title>
<g id="a_node2"><a xlink:href="grid_8h.html" target="_top" xlink:title="grid.h">
<polygon fill="white" stroke="black" points="32.7359,-224.5 32.7359,-243.5 72.7359,-243.5 72.7359,-224.5 32.7359,-224.5"/>
<text text-anchor="middle" x="52.7359" y="-231.5" font-family="FreeSans" font-size="10.00">grid.h</text>
</a>
</g>
</g>
<!-- Node1&#45;&gt;Node2 -->
<g id="edge1" class="edge"><title>Node1&#45;&gt;Node2</title>
<path fill="none" stroke="midnightblue" d="M120.722,-280.324C108.204,-271.979 89.0542,-259.212 74.2645,-249.352"/>
<polygon fill="midnightblue" stroke="midnightblue" points="75.9796,-246.289 65.7177,-243.655 72.0967,-252.114 75.9796,-246.289"/>
</g>
<!-- Node6 -->
<g id="node6" class="node"><title>Node6</title>
<g id="a_node6"><a xlink:href="debugUtils_8h.html" target="_top" xlink:title="debugUtils.h">
<polygon fill="white" stroke="red" points="62.2359,-56.5 62.2359,-75.5 131.236,-75.5 131.236,-56.5 62.2359,-56.5"/>
<text text-anchor="middle" x="96.7359" y="-63.5" font-family="FreeSans" font-size="10.00">debugUtils.h</text>
</a>
</g>
</g>
<!-- Node1&#45;&gt;Node6 -->
<g id="edge8" class="edge"><title>Node1&#45;&gt;Node6</title>
<path fill="none" stroke="midnightblue" d="M132.285,-280.297C126.841,-247.633 107.547,-131.866 99.8954,-85.9573"/>
<polygon fill="midnightblue" stroke="midnightblue" points="103.313,-85.1723 98.2165,-75.8837 96.4082,-86.3231 103.313,-85.1723"/>
</g>
<!-- Node7 -->
<g id="node7" class="node"><title>Node7</title>
<polygon fill="white" stroke="#bfbfbf" points="135.736,-224.5 135.736,-243.5 185.736,-243.5 185.736,-224.5 135.736,-224.5"/>
<text text-anchor="middle" x="160.736" y="-231.5" font-family="FreeSans" font-size="10.00">assert.h</text>
</g>
<!-- Node1&#45;&gt;Node7 -->
<g id="edge9" class="edge"><title>Node1&#45;&gt;Node7</title>
<path fill="none" stroke="midnightblue" d="M138.194,-280.083C141.89,-272.691 147.259,-261.953 151.83,-252.811"/>
<polygon fill="midnightblue" stroke="midnightblue" points="155.019,-254.261 156.36,-243.751 148.758,-251.13 155.019,-254.261"/>
</g>
<!-- Node8 -->
<g id="node8" class="node"><title>Node8</title>
<polygon fill="white" stroke="#bfbfbf" points="204.236,-224.5 204.236,-243.5 297.236,-243.5 297.236,-224.5 204.236,-224.5"/>
<text text-anchor="middle" x="250.736" y="-231.5" font-family="FreeSans" font-size="10.00">boost/foreach.hpp</text>
</g>
<!-- Node1&#45;&gt;Node8 -->
<g id="edge10" class="edge"><title>Node1&#45;&gt;Node8</title>
<path fill="none" stroke="midnightblue" d="M152.275,-280.444C171.359,-271.636 201.311,-257.812 223.172,-247.722"/>
<polygon fill="midnightblue" stroke="midnightblue" points="224.671,-250.885 232.284,-243.516 221.737,-244.529 224.671,-250.885"/>
</g>
<!-- Node3 -->
<g id="node3" class="node"><title>Node3</title>
<g id="a_node3"><a xlink:href="readConfig_8h.html" target="_top" xlink:title="readConfig.h">
<polygon fill="white" stroke="black" points="9.7359,-168.5 9.7359,-187.5 79.7359,-187.5 79.7359,-168.5 9.7359,-168.5"/>
<text text-anchor="middle" x="44.7359" y="-175.5" font-family="FreeSans" font-size="10.00">readConfig.h</text>
</a>
</g>
</g>
<!-- Node2&#45;&gt;Node3 -->
<g id="edge2" class="edge"><title>Node2&#45;&gt;Node3</title>
<path fill="none" stroke="midnightblue" d="M51.4149,-224.083C50.3548,-216.927 48.83,-206.635 47.505,-197.691"/>
<polygon fill="midnightblue" stroke="midnightblue" points="50.9601,-197.13 46.0324,-187.751 44.0357,-198.156 50.9601,-197.13"/>
</g>
<!-- Node4 -->
<g id="node4" class="node"><title>Node4</title>
<g id="a_node4"><a xlink:href="mathUtils_8h.html" target="_top" xlink:title="mathUtils.h">
<polygon fill="white" stroke="red" points="14.2359,-112.5 14.2359,-131.5 79.2359,-131.5 79.2359,-112.5 14.2359,-112.5"/>
<text text-anchor="middle" x="46.7359" y="-119.5" font-family="FreeSans" font-size="10.00">mathUtils.h</text>
</a>
</g>
</g>
<!-- Node3&#45;&gt;Node4 -->
<g id="edge3" class="edge"><title>Node3&#45;&gt;Node4</title>
<path fill="none" stroke="midnightblue" d="M45.0662,-168.083C45.3283,-161.006 45.704,-150.861 46.0327,-141.986"/>
<polygon fill="midnightblue" stroke="midnightblue" points="49.5392,-141.874 46.4118,-131.751 42.544,-141.615 49.5392,-141.874"/>
</g>
<!-- Node5 -->
<g id="node5" class="node"><title>Node5</title>
<polygon fill="white" stroke="#bfbfbf" points="13.7359,-0.5 13.7359,-19.5 53.7359,-19.5 53.7359,-0.5 13.7359,-0.5"/>
<text text-anchor="middle" x="33.7359" y="-7.5" font-family="FreeSans" font-size="10.00">string</text>
</g>
<!-- Node3&#45;&gt;Node5 -->
<g id="edge7" class="edge"><title>Node3&#45;&gt;Node5</title>
<path fill="none" stroke="midnightblue" d="M33.4703,-168.427C23.7696,-160.275 10.4566,-147.046 4.7359,-132 -8.76581,-96.4878 9.97172,-52.66 23.0236,-28.7037"/>
<polygon fill="midnightblue" stroke="midnightblue" points="26.227,-30.1527 28.1586,-19.7355 20.1523,-26.6745 26.227,-30.1527"/>
</g>
<!-- Node4&#45;&gt;Node5 -->
<g id="edge4" class="edge"><title>Node4&#45;&gt;Node5</title>
<path fill="none" stroke="midnightblue" d="M45.7158,-112.368C43.6179,-94.617 38.7783,-53.6664 35.9338,-29.5974"/>
<polygon fill="midnightblue" stroke="midnightblue" points="39.4008,-29.1115 34.7513,-19.5914 32.4492,-29.9331 39.4008,-29.1115"/>
</g>
<!-- Node4&#45;&gt;Node6 -->
<g id="edge5" class="edge"><title>Node4&#45;&gt;Node6</title>
<path fill="none" stroke="midnightblue" d="M54.9924,-112.083C62.2006,-104.298 72.8457,-92.8015 81.5817,-83.3665"/>
<polygon fill="midnightblue" stroke="midnightblue" points="84.4071,-85.4666 88.6331,-75.7511 79.2708,-80.7108 84.4071,-85.4666"/>
</g>
<!-- Node6&#45;&gt;Node5 -->
<g id="edge6" class="edge"><title>Node6&#45;&gt;Node5</title>
<path fill="none" stroke="midnightblue" d="M86.6139,-56.324C77.2095,-48.2631 62.9918,-36.0765 51.6669,-26.3695"/>
<polygon fill="midnightblue" stroke="midnightblue" points="53.9125,-23.6844 44.0421,-19.8339 49.3569,-28.9993 53.9125,-23.6844"/>
</g>
</g>
</svg>
