<?xml version="1.0" encoding="UTF-8" standalone="no"?>
<!DOCTYPE svg PUBLIC "-//W3C//DTD SVG 1.1//EN"
 "http://www.w3.org/Graphics/SVG/1.1/DTD/svg11.dtd">
<!-- Generated by graphviz version 2.28.0 (20120425.2022)
 -->
<!-- Title: G Pages: 1 -->
<svg width="107pt" height="196pt"
 viewBox="0.00 0.00 107.00 196.00" xmlns="http://www.w3.org/2000/svg" xmlns:xlink="http://www.w3.org/1999/xlink">
<g id="graph1" class="graph" transform="scale(1 1) rotate(0) translate(4 192)">
<title>G</title>
<polygon fill="white" stroke="white" points="-4,5 -4,-192 104,-192 104,5 -4,5"/>
<!-- Node1 -->
<g id="node1" class="node"><title>Node1</title>
<polygon fill="#bfbfbf" stroke="black" points="33,-168.5 33,-187.5 91,-187.5 91,-168.5 33,-168.5"/>
<text text-anchor="middle" x="62" y="-175.5" font-family="FreeSans" font-size="10.00">src/grid.h</text>
</g>
<!-- Node2 -->
<g id="node3" class="node"><title>Node2</title>
<a xlink:href="readConfig_8h.html" target="_top" xlink:title="readConfig.h">
<polygon fill="white" stroke="black" points="25,-112.5 25,-131.5 99,-131.5 99,-112.5 25,-112.5"/>
<text text-anchor="middle" x="62" y="-119.5" font-family="FreeSans" font-size="10.00">readConfig.h</text>
</a>
</g>
<!-- Node1&#45;&gt;Node2 -->
<g id="edge2" class="edge"><title>Node1&#45;&gt;Node2</title>
<path fill="none" stroke="midnightblue" d="M62,-168.083C62,-161.006 62,-150.861 62,-141.986"/>
<polygon fill="midnightblue" stroke="midnightblue" points="65.5001,-141.751 62,-131.751 58.5001,-141.751 65.5001,-141.751"/>
</g>
<!-- Node3 -->
<g id="node5" class="node"><title>Node3</title>
<a xlink:href="mathUtils_8h.html" target="_top" xlink:title="mathUtils.h">
<polygon fill="white" stroke="red" points="-0.5,-56.5 -0.5,-75.5 64.5,-75.5 64.5,-56.5 -0.5,-56.5"/>
<text text-anchor="middle" x="32" y="-63.5" font-family="FreeSans" font-size="10.00">mathUtils.h</text>
</a>
</g>
<!-- Node2&#45;&gt;Node3 -->
<g id="edge4" class="edge"><title>Node2&#45;&gt;Node3</title>
<path fill="none" stroke="midnightblue" d="M57.0461,-112.083C52.8959,-104.613 46.8469,-93.7244 41.7333,-84.5199"/>
<polygon fill="midnightblue" stroke="midnightblue" points="44.7777,-82.7929 36.8617,-75.7511 38.6586,-86.1924 44.7777,-82.7929"/>
</g>
<!-- Node4 -->
<g id="node7" class="node"><title>Node4</title>
<polygon fill="white" stroke="#bfbfbf" points="41.5,-0.5 41.5,-19.5 82.5,-19.5 82.5,-0.5 41.5,-0.5"/>
<text text-anchor="middle" x="62" y="-7.5" font-family="FreeSans" font-size="10.00">string</text>
</g>
<!-- Node2&#45;&gt;Node4 -->
<g id="edge8" class="edge"><title>Node2&#45;&gt;Node4</title>
<path fill="none" stroke="midnightblue" d="M64.7299,-112.486C67.4508,-103.52 71.4419,-88.9354 73,-76 74.9033,-60.1983 71.4929,-42.3837 67.9802,-29.4059"/>
<polygon fill="midnightblue" stroke="midnightblue" points="71.3264,-28.3791 65.1198,-19.7925 64.617,-30.3754 71.3264,-28.3791"/>
</g>
<!-- Node3&#45;&gt;Node4 -->
<g id="edge6" class="edge"><title>Node3&#45;&gt;Node4</title>
<path fill="none" stroke="midnightblue" d="M36.9539,-56.083C41.1041,-48.6127 47.1531,-37.7244 52.2667,-28.5199"/>
<polygon fill="midnightblue" stroke="midnightblue" points="55.3414,-30.1924 57.1383,-19.7511 49.2223,-26.7929 55.3414,-30.1924"/>
</g>
</g>
</svg>
