<?xml version="1.0" encoding="UTF-8" standalone="no"?>
<!DOCTYPE svg PUBLIC "-//W3C//DTD SVG 1.1//EN"
 "http://www.w3.org/Graphics/SVG/1.1/DTD/svg11.dtd">
<!-- Generated by graphviz version 2.38.0 (20140413.2041)
 -->
<!-- Title: src/grid.h Pages: 1 -->
<svg width="497pt" height="252pt"
 viewBox="0.00 0.00 497.00 252.00" xmlns="http://www.w3.org/2000/svg" xmlns:xlink="http://www.w3.org/1999/xlink">
<g id="graph0" class="graph" transform="scale(1 1) rotate(0) translate(4 248)">
<title>src/grid.h</title>
<polygon fill="white" stroke="none" points="-4,4 -4,-248 493,-248 493,4 -4,4"/>
<!-- Node1 -->
<g id="node1" class="node"><title>Node1</title>
<polygon fill="#bfbfbf" stroke="black" points="362,-224.5 362,-243.5 418,-243.5 418,-224.5 362,-224.5"/>
<text text-anchor="middle" x="390" y="-231.5" font-family="FreeSans" font-size="10.00">src/grid.h</text>
</g>
<!-- Node2 -->
<g id="node2" class="node"><title>Node2</title>
<g id="a_node2"><a xlink:href="readConfig_8h.html" target="_top" xlink:title="readConfig.h">
<polygon fill="white" stroke="black" points="355,-168.5 355,-187.5 425,-187.5 425,-168.5 355,-168.5"/>
<text text-anchor="middle" x="390" y="-175.5" font-family="FreeSans" font-size="10.00">readConfig.h</text>
</a>
</g>
</g>
<!-- Node1&#45;&gt;Node2 -->
<g id="edge1" class="edge"><title>Node1&#45;&gt;Node2</title>
<path fill="none" stroke="midnightblue" d="M390,-224.083C390,-217.006 390,-206.861 390,-197.986"/>
<polygon fill="midnightblue" stroke="midnightblue" points="393.5,-197.751 390,-187.751 386.5,-197.751 393.5,-197.751"/>
</g>
<!-- Node3 -->
<g id="node3" class="node"><title>Node3</title>
<g id="a_node3"><a xlink:href="mathUtils_8h.html" target="_top" xlink:title="mathUtils.h">
<polygon fill="white" stroke="black" points="240.5,-112.5 240.5,-131.5 305.5,-131.5 305.5,-112.5 240.5,-112.5"/>
<text text-anchor="middle" x="273" y="-119.5" font-family="FreeSans" font-size="10.00">mathUtils.h</text>
</a>
</g>
</g>
<!-- Node2&#45;&gt;Node3 -->
<g id="edge2" class="edge"><title>Node2&#45;&gt;Node3</title>
<path fill="none" stroke="midnightblue" d="M371.461,-168.444C352.377,-159.636 322.425,-145.812 300.564,-135.722"/>
<polygon fill="midnightblue" stroke="midnightblue" points="301.999,-132.529 291.452,-131.516 299.065,-138.885 301.999,-132.529"/>
</g>
<!-- Node8 -->
<g id="node8" class="node"><title>Node8</title>
<polygon fill="white" stroke="#bfbfbf" points="449,-0.5 449,-19.5 489,-19.5 489,-0.5 449,-0.5"/>
<text text-anchor="middle" x="469" y="-7.5" font-family="FreeSans" font-size="10.00">string</text>
</g>
<!-- Node2&#45;&gt;Node8 -->
<g id="edge13" class="edge"><title>Node2&#45;&gt;Node8</title>
<path fill="none" stroke="midnightblue" d="M400.425,-168.326C418.729,-152.332 456.029,-116.139 470,-76 475.165,-61.1609 474.416,-43.2381 472.659,-29.9742"/>
<polygon fill="midnightblue" stroke="midnightblue" points="476.048,-29.0146 470.978,-19.712 469.14,-30.1463 476.048,-29.0146"/>
</g>
<!-- Node4 -->
<g id="node4" class="node"><title>Node4</title>
<polygon fill="white" stroke="#bfbfbf" points="397.5,-56.5 397.5,-75.5 440.5,-75.5 440.5,-56.5 397.5,-56.5"/>
<text text-anchor="middle" x="419" y="-63.5" font-family="FreeSans" font-size="10.00">vector</text>
</g>
<!-- Node3&#45;&gt;Node4 -->
<g id="edge3" class="edge"><title>Node3&#45;&gt;Node4</title>
<path fill="none" stroke="midnightblue" d="M296.134,-112.444C320.912,-103.279 360.371,-88.6846 387.864,-78.5161"/>
<polygon fill="midnightblue" stroke="midnightblue" points="389.237,-81.74 397.402,-74.9883 386.809,-75.1747 389.237,-81.74"/>
</g>
<!-- Node5 -->
<g id="node5" class="node"><title>Node5</title>
<polygon fill="white" stroke="#bfbfbf" points="0,-56.5 0,-75.5 44,-75.5 44,-56.5 0,-56.5"/>
<text text-anchor="middle" x="22" y="-63.5" font-family="FreeSans" font-size="10.00">cmath</text>
</g>
<!-- Node3&#45;&gt;Node5 -->
<g id="edge4" class="edge"><title>Node3&#45;&gt;Node5</title>
<path fill="none" stroke="midnightblue" d="M240.497,-114.604C198.319,-106.211 122.487,-90.8037 58,-76 56.7285,-75.7081 55.4329,-75.4061 54.125,-75.0974"/>
<polygon fill="midnightblue" stroke="midnightblue" points="54.5954,-71.6101 44.0523,-72.6563 52.9466,-78.4132 54.5954,-71.6101"/>
</g>
<!-- Node6 -->
<g id="node6" class="node"><title>Node6</title>
<polygon fill="white" stroke="#bfbfbf" points="110.5,-0.5 110.5,-19.5 163.5,-19.5 163.5,-0.5 110.5,-0.5"/>
<text text-anchor="middle" x="137" y="-7.5" font-family="FreeSans" font-size="10.00">iostream</text>
</g>
<!-- Node3&#45;&gt;Node6 -->
<g id="edge5" class="edge"><title>Node3&#45;&gt;Node6</title>
<path fill="none" stroke="midnightblue" d="M240.357,-117.694C193.082,-112.157 109.208,-99.2585 91,-76 77.8175,-59.1612 97.3614,-38.9395 114.895,-25.5712"/>
<polygon fill="midnightblue" stroke="midnightblue" points="117.115,-28.2854 123.189,-19.604 113.027,-22.6033 117.115,-28.2854"/>
</g>
<!-- Node7 -->
<g id="node7" class="node"><title>Node7</title>
<polygon fill="white" stroke="#bfbfbf" points="100,-56.5 100,-75.5 150,-75.5 150,-56.5 100,-56.5"/>
<text text-anchor="middle" x="125" y="-63.5" font-family="FreeSans" font-size="10.00">sstream</text>
</g>
<!-- Node3&#45;&gt;Node7 -->
<g id="edge6" class="edge"><title>Node3&#45;&gt;Node7</title>
<path fill="none" stroke="midnightblue" d="M249.549,-112.444C224.867,-103.438 185.815,-89.1891 158.023,-79.049"/>
<polygon fill="midnightblue" stroke="midnightblue" points="158.935,-75.6561 148.341,-75.5164 156.536,-82.2321 158.935,-75.6561"/>
</g>
<!-- Node3&#45;&gt;Node8 -->
<g id="edge7" class="edge"><title>Node3&#45;&gt;Node8</title>
<path fill="none" stroke="midnightblue" d="M305.756,-121.708C344.928,-120.74 410.072,-113.096 449,-76 461.545,-64.0457 466.279,-44.4343 468.035,-29.8746"/>
<polygon fill="midnightblue" stroke="midnightblue" points="471.555,-29.7799 468.898,-19.5238 464.579,-29.1986 471.555,-29.7799"/>
</g>
<!-- Node9 -->
<g id="node9" class="node"><title>Node9</title>
<polygon fill="white" stroke="#bfbfbf" points="255.5,-56.5 255.5,-75.5 290.5,-75.5 290.5,-56.5 255.5,-56.5"/>
<text text-anchor="middle" x="273" y="-63.5" font-family="FreeSans" font-size="10.00">map</text>
</g>
<!-- Node3&#45;&gt;Node9 -->
<g id="edge8" class="edge"><title>Node3&#45;&gt;Node9</title>
<path fill="none" stroke="midnightblue" d="M273,-112.083C273,-105.006 273,-94.8611 273,-85.9865"/>
<polygon fill="midnightblue" stroke="midnightblue" points="276.5,-85.751 273,-75.7511 269.5,-85.7511 276.5,-85.751"/>
</g>
<!-- Node10 -->
<g id="node10" class="node"><title>Node10</title>
<g id="a_node10"><a xlink:href="debugUtils_8h.html" target="_top" xlink:title="debugUtils.h">
<polygon fill="white" stroke="red" points="168.5,-56.5 168.5,-75.5 237.5,-75.5 237.5,-56.5 168.5,-56.5"/>
<text text-anchor="middle" x="203" y="-63.5" font-family="FreeSans" font-size="10.00">debugUtils.h</text>
</a>
</g>
</g>
<!-- Node3&#45;&gt;Node10 -->
<g id="edge9" class="edge"><title>Node3&#45;&gt;Node10</title>
<path fill="none" stroke="midnightblue" d="M261.753,-112.324C251.203,-104.185 235.199,-91.8395 222.558,-82.0874"/>
<polygon fill="midnightblue" stroke="midnightblue" points="224.507,-79.1707 214.451,-75.8339 220.231,-84.7132 224.507,-79.1707"/>
</g>
<!-- Node11 -->
<g id="node11" class="node"><title>Node11</title>
<polygon fill="white" stroke="#bfbfbf" points="308.5,-56.5 308.5,-75.5 379.5,-75.5 379.5,-56.5 308.5,-56.5"/>
<text text-anchor="middle" x="344" y="-63.5" font-family="FreeSans" font-size="10.00">Eigen/Dense</text>
</g>
<!-- Node3&#45;&gt;Node11 -->
<g id="edge12" class="edge"><title>Node3&#45;&gt;Node11</title>
<path fill="none" stroke="midnightblue" d="M284.407,-112.324C295.109,-104.185 311.341,-91.8395 324.163,-82.0874"/>
<polygon fill="midnightblue" stroke="midnightblue" points="326.544,-84.6734 332.385,-75.8339 322.307,-79.1018 326.544,-84.6734"/>
</g>
<!-- Node10&#45;&gt;Node6 -->
<g id="edge11" class="edge"><title>Node10&#45;&gt;Node6</title>
<path fill="none" stroke="midnightblue" d="M192.396,-56.324C182.544,-48.2631 167.649,-36.0765 155.785,-26.3695"/>
<polygon fill="midnightblue" stroke="midnightblue" points="157.753,-23.4575 147.797,-19.8339 153.32,-28.8752 157.753,-23.4575"/>
</g>
<!-- Node10&#45;&gt;Node8 -->
<g id="edge10" class="edge"><title>Node10&#45;&gt;Node8</title>
<path fill="none" stroke="midnightblue" d="M237.729,-57.7087C240.527,-57.1281 243.31,-56.5528 246,-56 314.832,-41.8518 395.704,-25.6332 438.631,-17.0562"/>
<polygon fill="midnightblue" stroke="midnightblue" points="439.576,-20.4367 448.697,-15.0462 438.205,-13.5722 439.576,-20.4367"/>
</g>
</g>
</svg>
