<?xml version="1.0" encoding="UTF-8" standalone="no"?>
<!DOCTYPE svg PUBLIC "-//W3C//DTD SVG 1.1//EN"
 "http://www.w3.org/Graphics/SVG/1.1/DTD/svg11.dtd">
<!-- Generated by graphviz version 2.26.3 (20100126.1600)
 -->
<!-- Title: src/grid.cpp Pages: 1 -->
<svg width="302pt" height="320pt"
 viewBox="0.00 0.00 301.62 320.00" xmlns="http://www.w3.org/2000/svg" xmlns:xlink="http://www.w3.org/1999/xlink">
<g id="graph1" class="graph" transform="scale(1 1) rotate(0) translate(4 316)">
<title>src/grid.cpp</title>
<polygon fill="white" stroke="white" points="-4,5 -4,-316 298.621,-316 298.621,5 -4,5"/>
<!-- Node1 -->
<g id="node1" class="node"><title>Node1</title>
<polygon fill="#bfbfbf" stroke="black" points="98.6208,-291 98.6208,-311 164.621,-311 164.621,-291 98.6208,-291"/>
<text text-anchor="middle" x="131.621" y="-298" font-family="FreeSans" font-size="10.00">src/grid.cpp</text>
</g>
<!-- Node2 -->
<g id="node3" class="node"><title>Node2</title>
<a xlink:href="grid_8h.html" target="_top" xlink:title="grid.h">
<polygon fill="white" stroke="black" points="30.6208,-233 30.6208,-253 70.6208,-253 70.6208,-233 30.6208,-233"/>
<text text-anchor="middle" x="50.6208" y="-240" font-family="FreeSans" font-size="10.00">grid.h</text>
</a>
</g>
<!-- Node1&#45;&gt;Node2 -->
<g id="edge2" class="edge"><title>Node1&#45;&gt;Node2</title>
<path fill="none" stroke="midnightblue" d="M117.512,-290.897C105.275,-282.135 87.3453,-269.297 73.1283,-259.116"/>
<polygon fill="midnightblue" stroke="midnightblue" points="75.0083,-256.158 64.84,-253.182 70.9329,-261.849 75.0083,-256.158"/>
</g>
<!-- Node6 -->
<g id="node11" class="node"><title>Node6</title>
<a xlink:href="debugUtils_8h.html" target="_top" xlink:title="debugUtils.h">
<polygon fill="white" stroke="red" points="61.1208,-59 61.1208,-79 130.121,-79 130.121,-59 61.1208,-59"/>
<text text-anchor="middle" x="95.6208" y="-66" font-family="FreeSans" font-size="10.00">debugUtils.h</text>
</a>
</g>
<!-- Node1&#45;&gt;Node6 -->
<g id="edge16" class="edge"><title>Node1&#45;&gt;Node6</title>
<path fill="none" stroke="midnightblue" d="M130.027,-290.732C124.51,-255.173 106.151,-136.861 98.7518,-89.1771"/>
<polygon fill="midnightblue" stroke="midnightblue" points="102.188,-88.4946 97.1957,-79.1495 95.2706,-89.568 102.188,-88.4946"/>
</g>
<!-- Node7 -->
<g id="node16" class="node"><title>Node7</title>
<polygon fill="white" stroke="#bfbfbf" points="133.621,-233 133.621,-253 183.621,-253 183.621,-233 133.621,-233"/>
<text text-anchor="middle" x="158.621" y="-240" font-family="FreeSans" font-size="10.00">assert.h</text>
</g>
<!-- Node1&#45;&gt;Node7 -->
<g id="edge18" class="edge"><title>Node1&#45;&gt;Node7</title>
<path fill="none" stroke="midnightblue" d="M136.324,-290.897C139.957,-283.093 145.096,-272.054 149.525,-262.54"/>
<polygon fill="midnightblue" stroke="midnightblue" points="152.743,-263.921 153.79,-253.378 146.396,-260.966 152.743,-263.921"/>
</g>
<!-- Node8 -->
<g id="node18" class="node"><title>Node8</title>
<polygon fill="white" stroke="#bfbfbf" points="201.121,-233 201.121,-253 294.121,-253 294.121,-233 201.121,-233"/>
<text text-anchor="middle" x="247.621" y="-240" font-family="FreeSans" font-size="10.00">boost/foreach.hpp</text>
</g>
<!-- Node1&#45;&gt;Node8 -->
<g id="edge20" class="edge"><title>Node1&#45;&gt;Node8</title>
<path fill="none" stroke="midnightblue" d="M151.826,-290.897C170.177,-281.722 197.468,-268.076 218.232,-257.694"/>
<polygon fill="midnightblue" stroke="midnightblue" points="219.878,-260.784 227.257,-253.182 216.748,-254.523 219.878,-260.784"/>
</g>
<!-- Node3 -->
<g id="node5" class="node"><title>Node3</title>
<a xlink:href="readConfig_8h.html" target="_top" xlink:title="readConfig.h">
<polygon fill="white" stroke="black" points="7.62082,-175 7.62082,-195 77.6208,-195 77.6208,-175 7.62082,-175"/>
<text text-anchor="middle" x="42.6208" y="-182" font-family="FreeSans" font-size="10.00">readConfig.h</text>
</a>
</g>
<!-- Node2&#45;&gt;Node3 -->
<g id="edge4" class="edge"><title>Node2&#45;&gt;Node3</title>
<path fill="none" stroke="midnightblue" d="M49.2273,-232.897C48.1848,-225.339 46.7239,-214.748 45.4409,-205.446"/>
<polygon fill="midnightblue" stroke="midnightblue" points="48.8858,-204.806 44.0522,-195.378 41.9515,-205.762 48.8858,-204.806"/>
</g>
<!-- Node4 -->
<g id="node7" class="node"><title>Node4</title>
<a xlink:href="mathUtils_8h.html" target="_top" xlink:title="mathUtils.h">
<polygon fill="white" stroke="red" points="13.1208,-117 13.1208,-137 78.1208,-137 78.1208,-117 13.1208,-117"/>
<text text-anchor="middle" x="45.6208" y="-124" font-family="FreeSans" font-size="10.00">mathUtils.h</text>
</a>
</g>
<!-- Node3&#45;&gt;Node4 -->
<g id="edge6" class="edge"><title>Node3&#45;&gt;Node4</title>
<path fill="none" stroke="midnightblue" d="M43.1434,-174.897C43.5343,-167.339 44.0822,-156.748 44.5633,-147.446"/>
<polygon fill="midnightblue" stroke="midnightblue" points="48.0627,-147.545 45.084,-137.378 41.0721,-147.183 48.0627,-147.545"/>
</g>
<!-- Node5 -->
<g id="node9" class="node"><title>Node5</title>
<polygon fill="white" stroke="#bfbfbf" points="13.6208,-1 13.6208,-21 53.6208,-21 53.6208,-1 13.6208,-1"/>
<text text-anchor="middle" x="33.6208" y="-8" font-family="FreeSans" font-size="10.00">string</text>
</g>
<!-- Node3&#45;&gt;Node5 -->
<g id="edge14" class="edge"><title>Node3&#45;&gt;Node5</title>
<path fill="none" stroke="midnightblue" d="M30.8026,-174.78C21.6907,-166.062 9.79912,-152.641 4.62082,-138 -8.56099,-100.73 9.77856,-55.1466 22.7395,-29.9783"/>
<polygon fill="midnightblue" stroke="midnightblue" points="25.8606,-31.5644 27.5302,-21.1019 19.7005,-28.2396 25.8606,-31.5644"/>
</g>
<!-- Node4&#45;&gt;Node5 -->
<g id="edge8" class="edge"><title>Node4&#45;&gt;Node5</title>
<path fill="none" stroke="midnightblue" d="M44.5559,-116.706C42.5762,-97.5683 38.2965,-56.1978 35.7172,-31.2654"/>
<polygon fill="midnightblue" stroke="midnightblue" points="39.1767,-30.6923 34.6662,-21.1055 32.2139,-31.4126 39.1767,-30.6923"/>
</g>
<!-- Node4&#45;&gt;Node6 -->
<g id="edge10" class="edge"><title>Node4&#45;&gt;Node6</title>
<path fill="none" stroke="midnightblue" d="M54.3302,-116.897C61.4124,-108.682 71.584,-96.8827 80.0594,-87.0513"/>
<polygon fill="midnightblue" stroke="midnightblue" points="82.7961,-89.237 86.6746,-79.3776 77.4942,-84.6664 82.7961,-89.237"/>
</g>
<!-- Node6&#45;&gt;Node5 -->
<g id="edge12" class="edge"><title>Node6&#45;&gt;Node5</title>
<path fill="none" stroke="midnightblue" d="M84.8212,-58.8972C75.8636,-50.5175 62.9204,-38.4093 52.289,-28.4638"/>
<polygon fill="midnightblue" stroke="midnightblue" points="54.4079,-25.6532 44.7141,-21.3776 49.6258,-30.7652 54.4079,-25.6532"/>
</g>
</g>
</svg>
