<?xml version="1.0" encoding="UTF-8" standalone="no"?>
<!DOCTYPE svg PUBLIC "-//W3C//DTD SVG 1.1//EN"
 "http://www.w3.org/Graphics/SVG/1.1/DTD/svg11.dtd">
<!-- Generated by graphviz version 2.28.0 (20120425.2022)
 -->
<!-- Title: src/grid.cpp Pages: 1 -->
<svg width="339pt" height="140pt"
 viewBox="0.00 0.00 339.00 140.00" xmlns="http://www.w3.org/2000/svg" xmlns:xlink="http://www.w3.org/1999/xlink">
<g id="graph1" class="graph" transform="scale(1 1) rotate(0) translate(4 136)">
<title>src/grid.cpp</title>
<polygon fill="white" stroke="white" points="-4,5 -4,-136 336,-136 336,5 -4,5"/>
<!-- Node1 -->
<g id="node1" class="node"><title>Node1</title>
<polygon fill="#bfbfbf" stroke="black" points="117,-112.5 117,-131.5 185,-131.5 185,-112.5 117,-112.5"/>
<text text-anchor="middle" x="151" y="-119.5" font-family="FreeSans" font-size="10.00">src/grid.cpp</text>
</g>
<!-- Node2 -->
<g id="node3" class="node"><title>Node2</title>
<a xlink:href="grid_8h.html" target="_top" xlink:title="grid.h">
<polygon fill="white" stroke="black" points="16.5,-56.5 16.5,-75.5 57.5,-75.5 57.5,-56.5 16.5,-56.5"/>
<text text-anchor="middle" x="37" y="-63.5" font-family="FreeSans" font-size="10.00">grid.h</text>
</a>
</g>
<!-- Node1&#45;&gt;Node2 -->
<g id="edge2" class="edge"><title>Node1&#45;&gt;Node2</title>
<path fill="none" stroke="midnightblue" d="M132.936,-112.444C114.425,-103.675 85.4193,-89.9355 64.1445,-79.8579"/>
<polygon fill="midnightblue" stroke="midnightblue" points="65.5148,-76.6343 54.9791,-75.5164 62.5182,-82.9604 65.5148,-76.6343"/>
</g>
<!-- Node4 -->
<g id="node7" class="node"><title>Node4</title>
<a xlink:href="debugUtils_8h.html" target="_top" xlink:title="debugUtils.h">
<polygon fill="white" stroke="red" points="75.5,-56.5 75.5,-75.5 146.5,-75.5 146.5,-56.5 75.5,-56.5"/>
<text text-anchor="middle" x="111" y="-63.5" font-family="FreeSans" font-size="10.00">debugUtils.h</text>
</a>
</g>
<!-- Node1&#45;&gt;Node4 -->
<g id="edge6" class="edge"><title>Node1&#45;&gt;Node4</title>
<path fill="none" stroke="midnightblue" d="M144.395,-112.083C138.745,-104.455 130.455,-93.2645 123.549,-83.9408"/>
<polygon fill="midnightblue" stroke="midnightblue" points="126.247,-81.7034 117.482,-75.7511 120.622,-85.87 126.247,-81.7034"/>
</g>
<!-- Node5 -->
<g id="node9" class="node"><title>Node5</title>
<polygon fill="white" stroke="#bfbfbf" points="165,-56.5 165,-75.5 217,-75.5 217,-56.5 165,-56.5"/>
<text text-anchor="middle" x="191" y="-63.5" font-family="FreeSans" font-size="10.00">assert.h</text>
</g>
<!-- Node1&#45;&gt;Node5 -->
<g id="edge8" class="edge"><title>Node1&#45;&gt;Node5</title>
<path fill="none" stroke="midnightblue" d="M157.605,-112.083C163.255,-104.455 171.545,-93.2645 178.451,-83.9408"/>
<polygon fill="midnightblue" stroke="midnightblue" points="181.378,-85.87 184.518,-75.7511 175.753,-81.7034 181.378,-85.87"/>
</g>
<!-- Node6 -->
<g id="node11" class="node"><title>Node6</title>
<polygon fill="white" stroke="#bfbfbf" points="235,-56.5 235,-75.5 331,-75.5 331,-56.5 235,-56.5"/>
<text text-anchor="middle" x="283" y="-63.5" font-family="FreeSans" font-size="10.00">boost/foreach.hpp</text>
</g>
<!-- Node1&#45;&gt;Node6 -->
<g id="edge10" class="edge"><title>Node1&#45;&gt;Node6</title>
<path fill="none" stroke="midnightblue" d="M171.916,-112.444C193.736,-103.517 228.15,-89.4387 252.892,-79.3168"/>
<polygon fill="midnightblue" stroke="midnightblue" points="254.252,-82.5422 262.182,-75.5164 251.601,-76.0634 254.252,-82.5422"/>
</g>
<!-- Node3 -->
<g id="node5" class="node"><title>Node3</title>
<a xlink:href="readConfig_8h.html" target="_top" xlink:title="readConfig.h">
<polygon fill="white" stroke="red" points="0,-0.5 0,-19.5 74,-19.5 74,-0.5 0,-0.5"/>
<text text-anchor="middle" x="37" y="-7.5" font-family="FreeSans" font-size="10.00">readConfig.h</text>
</a>
</g>
<!-- Node2&#45;&gt;Node3 -->
<g id="edge4" class="edge"><title>Node2&#45;&gt;Node3</title>
<path fill="none" stroke="midnightblue" d="M37,-56.083C37,-49.0059 37,-38.8611 37,-29.9865"/>
<polygon fill="midnightblue" stroke="midnightblue" points="40.5001,-29.751 37,-19.7511 33.5001,-29.7511 40.5001,-29.751"/>
</g>
</g>
</svg>
