<?xml version="1.0" encoding="UTF-8" standalone="no"?>
<!DOCTYPE svg PUBLIC "-//W3C//DTD SVG 1.1//EN"
 "http://www.w3.org/Graphics/SVG/1.1/DTD/svg11.dtd">
<!-- Generated by graphviz version 8.1.0 (20230707.2238)
 -->
<!-- Title: src/grid.h Pages: 1 -->
<svg width="717pt" height="256pt"
 viewBox="0.00 0.00 716.66 255.75" xmlns="http://www.w3.org/2000/svg" xmlns:xlink="http://www.w3.org/1999/xlink">
<g id="graph0" class="graph" transform="scale(1 1) rotate(0) translate(4 251.75)">
<title>src/grid.h</title>
<!-- Node1 -->
<g id="Node000001" class="node">
<title>Node1</title>
<g id="a_Node000001"><a xlink:title=" ">
<polygon fill="#999999" stroke="#666666" points="534.88,-247.75 473.88,-247.75 473.88,-227 534.88,-227 534.88,-247.75"/>
<text text-anchor="middle" x="504.38" y="-234.25" font-family="FreeSans" font-size="10.00">src/grid.h</text>
</a>
</g>
</g>
<!-- Node2 -->
<g id="Node000002" class="node">
<title>Node2</title>
<g id="a_Node000002"><a xlink:href="readConfig_8h.html" target="_top" xlink:title=" ">
<polygon fill="white" stroke="#666666" points="543.12,-191 465.62,-191 465.62,-170.25 543.12,-170.25 543.12,-191"/>
<text text-anchor="middle" x="504.38" y="-177.5" font-family="FreeSans" font-size="10.00">readConfig.h</text>
</a>
</g>
</g>
<!-- Node1&#45;&gt;Node2 -->
<g id="edge1_Node000001_Node000002" class="edge">
<title>Node1&#45;&gt;Node2</title>
<g id="a_edge1_Node000001_Node000002"><a xlink:title=" ">
<path fill="none" stroke="#63b8ff" d="M504.38,-226.59C504.38,-219.81 504.38,-210.55 504.38,-202.19"/>
<polygon fill="#63b8ff" stroke="#63b8ff" points="507.88,-202.33 504.38,-192.33 500.88,-202.33 507.88,-202.33"/>
</a>
</g>
</g>
<!-- Node3 -->
<g id="Node000003" class="node">
<title>Node3</title>
<g id="a_Node000003"><a xlink:href="mathUtils_8h.html" target="_top" xlink:title=" ">
<polygon fill="white" stroke="#666666" points="351.88,-134.25 278.88,-134.25 278.88,-113.5 351.88,-113.5 351.88,-134.25"/>
<text text-anchor="middle" x="315.38" y="-120.75" font-family="FreeSans" font-size="10.00">mathUtils.h</text>
</a>
</g>
</g>
<!-- Node2&#45;&gt;Node3 -->
<g id="edge2_Node000002_Node000003" class="edge">
<title>Node2&#45;&gt;Node3</title>
<g id="a_edge2_Node000002_Node000003"><a xlink:title=" ">
<path fill="none" stroke="#63b8ff" d="M470.59,-169.84C439.64,-160.87 393.63,-147.54 359.73,-137.73"/>
<polygon fill="#63b8ff" stroke="#63b8ff" points="360.77,-134.09 350.19,-134.67 358.82,-140.81 360.77,-134.09"/>
</a>
</g>
</g>
<!-- Node8 -->
<g id="Node000008" class="node">
<title>Node8</title>
<g id="a_Node000008"><a xlink:title=" ">
<polygon fill="#e0e0e0" stroke="#999999" points="360.25,-20.75 316.5,-20.75 316.5,0 360.25,0 360.25,-20.75"/>
<text text-anchor="middle" x="338.38" y="-7.25" font-family="FreeSans" font-size="10.00">string</text>
</a>
</g>
</g>
<!-- Node2&#45;&gt;Node8 -->
<g id="edge14_Node000002_Node000008" class="edge">
<title>Node2&#45;&gt;Node8</title>
<g id="a_edge14_Node000002_Node000008"><a xlink:title=" ">
<path fill="none" stroke="#63b8ff" d="M543.44,-171.28C613.33,-154.68 747.94,-114.11 697.38,-56.75 675.95,-32.45 455.98,-17.85 371.33,-13.1"/>
<polygon fill="#63b8ff" stroke="#63b8ff" points="371.72,-9.56 361.55,-12.5 371.34,-16.55 371.72,-9.56"/>
</a>
</g>
</g>
<!-- Node4 -->
<g id="Node000004" class="node">
<title>Node4</title>
<g id="a_Node000004"><a xlink:title=" ">
<polygon fill="#e0e0e0" stroke="#999999" points="688.75,-77.5 642,-77.5 642,-56.75 688.75,-56.75 688.75,-77.5"/>
<text text-anchor="middle" x="665.38" y="-64" font-family="FreeSans" font-size="10.00">vector</text>
</a>
</g>
</g>
<!-- Node3&#45;&gt;Node4 -->
<g id="edge3_Node000003_Node000004" class="edge">
<title>Node3&#45;&gt;Node4</title>
<g id="a_edge3_Node000003_Node000004"><a xlink:title=" ">
<path fill="none" stroke="#63b8ff" d="M352.27,-119.23C409.76,-113.18 524.35,-99.73 631.05,-77.52"/>
<polygon fill="#63b8ff" stroke="#63b8ff" points="631.62,-80.76 640.68,-75.27 630.17,-73.92 631.62,-80.76"/>
</a>
</g>
</g>
<!-- Node5 -->
<g id="Node000005" class="node">
<title>Node5</title>
<g id="a_Node000005"><a xlink:title=" ">
<polygon fill="#e0e0e0" stroke="#999999" points="46.75,-77.5 0,-77.5 0,-56.75 46.75,-56.75 46.75,-77.5"/>
<text text-anchor="middle" x="23.38" y="-64" font-family="FreeSans" font-size="10.00">cmath</text>
</a>
</g>
</g>
<!-- Node3&#45;&gt;Node5 -->
<g id="edge4_Node000003_Node000005" class="edge">
<title>Node3&#45;&gt;Node5</title>
<g id="a_edge4_Node000003_Node000005"><a xlink:title=" ">
<path fill="none" stroke="#63b8ff" d="M278.47,-117.17C228.74,-109.27 137.52,-94.11 60.38,-77.5 59.44,-77.3 58.49,-77.09 57.54,-76.88"/>
<polygon fill="#63b8ff" stroke="#63b8ff" points="58.74,-73.33 48.2,-74.43 57.13,-80.14 58.74,-73.33"/>
</a>
</g>
</g>
<!-- Node6 -->
<g id="Node000006" class="node">
<title>Node6</title>
<g id="a_Node000006"><a xlink:title=" ">
<polygon fill="#e0e0e0" stroke="#999999" points="175.12,-20.75 115.62,-20.75 115.62,0 175.12,0 175.12,-20.75"/>
<text text-anchor="middle" x="145.38" y="-7.25" font-family="FreeSans" font-size="10.00">iostream</text>
</a>
</g>
</g>
<!-- Node3&#45;&gt;Node6 -->
<g id="edge5_Node000003_Node000006" class="edge">
<title>Node3&#45;&gt;Node6</title>
<g id="a_edge5_Node000003_Node000006"><a xlink:title=" ">
<path fill="none" stroke="#63b8ff" d="M278.47,-120.81C221.5,-116.77 116.32,-105.61 93.38,-77.5 79.49,-60.49 99.86,-40.64 119.04,-27.16"/>
<polygon fill="#63b8ff" stroke="#63b8ff" points="120.79,-29.54 127.2,-21.1 116.93,-23.7 120.79,-29.54"/>
</a>
</g>
</g>
<!-- Node7 -->
<g id="Node000007" class="node">
<title>Node7</title>
<g id="a_Node000007"><a xlink:title=" ">
<polygon fill="#e0e0e0" stroke="#999999" points="158.25,-77.5 102.5,-77.5 102.5,-56.75 158.25,-56.75 158.25,-77.5"/>
<text text-anchor="middle" x="130.38" y="-64" font-family="FreeSans" font-size="10.00">sstream</text>
</a>
</g>
</g>
<!-- Node3&#45;&gt;Node7 -->
<g id="edge6_Node000003_Node000007" class="edge">
<title>Node3&#45;&gt;Node7</title>
<g id="a_edge6_Node000003_Node000007"><a xlink:title=" ">
<path fill="none" stroke="#63b8ff" d="M282.3,-113.09C250.51,-103.68 202.48,-89.46 168.96,-79.54"/>
<polygon fill="#63b8ff" stroke="#63b8ff" points="170.2,-75.97 159.62,-76.48 168.22,-82.68 170.2,-75.97"/>
</a>
</g>
</g>
<!-- Node3&#45;&gt;Node8 -->
<g id="edge7_Node000003_Node000008" class="edge">
<title>Node3&#45;&gt;Node8</title>
<g id="a_edge7_Node000003_Node000008"><a xlink:title=" ">
<path fill="none" stroke="#63b8ff" d="M317.34,-113.37C321.05,-95.36 329.19,-55.89 334.19,-31.68"/>
<polygon fill="#63b8ff" stroke="#63b8ff" points="337.76,-32.68 336.35,-22.18 330.91,-31.26 337.76,-32.68"/>
</a>
</g>
</g>
<!-- Node9 -->
<g id="Node000009" class="node">
<title>Node9</title>
<g id="a_Node000009"><a xlink:title=" ">
<polygon fill="#e0e0e0" stroke="#999999" points="310.25,-77.5 272.5,-77.5 272.5,-56.75 310.25,-56.75 310.25,-77.5"/>
<text text-anchor="middle" x="291.38" y="-64" font-family="FreeSans" font-size="10.00">map</text>
</a>
</g>
</g>
<!-- Node3&#45;&gt;Node9 -->
<g id="edge8_Node000003_Node000009" class="edge">
<title>Node3&#45;&gt;Node9</title>
<g id="a_edge8_Node000003_Node000009"><a xlink:title=" ">
<path fill="none" stroke="#63b8ff" d="M311.08,-113.09C308.01,-106.08 303.77,-96.41 300.01,-87.83"/>
<polygon fill="#63b8ff" stroke="#63b8ff" points="302.85,-86.58 295.63,-78.83 296.44,-89.39 302.85,-86.58"/>
</a>
</g>
</g>
<!-- Node10 -->
<g id="Node000010" class="node">
<title>Node10</title>
<g id="a_Node000010"><a xlink:href="debugUtils_8h.html" target="_top" xlink:title=" ">
<polygon fill="#fff0f0" stroke="red" points="254.12,-77.5 176.62,-77.5 176.62,-56.75 254.12,-56.75 254.12,-77.5"/>
<text text-anchor="middle" x="215.38" y="-64" font-family="FreeSans" font-size="10.00">debugUtils.h</text>
</a>
</g>
</g>
<!-- Node3&#45;&gt;Node10 -->
<g id="edge9_Node000003_Node000010" class="edge">
<title>Node3&#45;&gt;Node10</title>
<g id="a_edge9_Node000003_Node000010"><a xlink:title=" ">
<path fill="none" stroke="#63b8ff" d="M297.5,-113.09C282.28,-104.76 260.18,-92.66 242.74,-83.11"/>
<polygon fill="#63b8ff" stroke="#63b8ff" points="244.55,-79.56 234.1,-77.83 241.19,-85.7 244.55,-79.56"/>
</a>
</g>
</g>
<!-- Node14 -->
<g id="Node000014" class="node">
<title>Node14</title>
<g id="a_Node000014"><a xlink:title=" ">
<polygon fill="#e0e0e0" stroke="#999999" points="492.5,-77.5 366.25,-77.5 366.25,-56.75 492.5,-56.75 492.5,-77.5"/>
<text text-anchor="middle" x="429.38" y="-64" font-family="FreeSans" font-size="10.00">cantera/base/ct_defs.h</text>
</a>
</g>
</g>
<!-- Node3&#45;&gt;Node14 -->
<g id="edge12_Node000003_Node000014" class="edge">
<title>Node3&#45;&gt;Node14</title>
<g id="a_edge12_Node000003_Node000014"><a xlink:title=" ">
<path fill="none" stroke="#63b8ff" d="M335.76,-113.09C353.43,-104.6 379.24,-92.2 399.29,-82.58"/>
<polygon fill="#63b8ff" stroke="#63b8ff" points="400.67,-85.31 408.17,-77.83 397.64,-79 400.67,-85.31"/>
</a>
</g>
</g>
<!-- Node15 -->
<g id="Node000015" class="node">
<title>Node15</title>
<g id="a_Node000015"><a xlink:title=" ">
<polygon fill="#e0e0e0" stroke="#999999" points="623.75,-77.5 511,-77.5 511,-56.75 623.75,-56.75 623.75,-77.5"/>
<text text-anchor="middle" x="567.38" y="-64" font-family="FreeSans" font-size="10.00">eigen3/Eigen/Dense</text>
</a>
</g>
</g>
<!-- Node3&#45;&gt;Node15 -->
<g id="edge13_Node000003_Node000015" class="edge">
<title>Node3&#45;&gt;Node15</title>
<g id="a_edge13_Node000003_Node000015"><a xlink:title=" ">
<path fill="none" stroke="#63b8ff" d="M352.29,-114.86C394.23,-105.74 463.14,-90.77 511.63,-80.24"/>
<polygon fill="#63b8ff" stroke="#63b8ff" points="512.24,-83.47 521.26,-77.93 510.75,-76.63 512.24,-83.47"/>
</a>
</g>
</g>
<!-- Node10&#45;&gt;Node6 -->
<g id="edge11_Node000010_Node000006" class="edge">
<title>Node10&#45;&gt;Node6</title>
<g id="a_edge11_Node000010_Node000006"><a xlink:title=" ">
<path fill="none" stroke="#63b8ff" d="M202.86,-56.34C192.71,-48.4 178.18,-37.03 166.26,-27.71"/>
<polygon fill="#63b8ff" stroke="#63b8ff" points="168.81,-24.48 158.78,-21.08 164.5,-30 168.81,-24.48"/>
</a>
</g>
</g>
<!-- Node10&#45;&gt;Node8 -->
<g id="edge10_Node000010_Node000008" class="edge">
<title>Node10&#45;&gt;Node8</title>
<g id="a_edge10_Node000010_Node000008"><a xlink:title=" ">
<path fill="none" stroke="#63b8ff" d="M237.36,-56.34C256.69,-47.73 285.05,-35.11 306.8,-25.43"/>
<polygon fill="#63b8ff" stroke="#63b8ff" points="307.86,-28.34 315.58,-21.08 305.02,-21.95 307.86,-28.34"/>
</a>
</g>
</g>
</g>
</svg>
