<?xml version="1.0" encoding="UTF-8" standalone="no"?>
<!DOCTYPE svg PUBLIC "-//W3C//DTD SVG 1.1//EN"
 "http://www.w3.org/Graphics/SVG/1.1/DTD/svg11.dtd">
<!-- Generated by graphviz version 8.1.0 (20230707.2238)
 -->
<!-- Title: src/grid.h Pages: 1 -->
<svg width="460pt" height="199pt"
 viewBox="0.00 0.00 459.88 199.00" xmlns="http://www.w3.org/2000/svg" xmlns:xlink="http://www.w3.org/1999/xlink">
<g id="graph0" class="graph" transform="scale(1 1) rotate(0) translate(4 195)">
<title>src/grid.h</title>
<!-- Node1 -->
<g id="Node000001" class="node">
<title>Node1</title>
<g id="a_Node000001"><a xlink:title=" ">
<polygon fill="#999999" stroke="#666666" points="286.25,-191 225.25,-191 225.25,-170.25 286.25,-170.25 286.25,-191"/>
<text text-anchor="middle" x="255.75" y="-177.5" font-family="FreeSans" font-size="10.00">src/grid.h</text>
</a>
</g>
</g>
<!-- Node2 -->
<g id="Node000002" class="node">
<title>Node2</title>
<g id="a_Node000002"><a xlink:href="convectionSystem_8h.html" target="_top" xlink:title=" ">
<polygon fill="white" stroke="#666666" points="183.88,-134.25 51.62,-134.25 51.62,-113.5 183.88,-113.5 183.88,-134.25"/>
<text text-anchor="middle" x="117.75" y="-120.75" font-family="FreeSans" font-size="10.00">src/convectionSystem.h</text>
</a>
</g>
</g>
<!-- Node1&#45;&gt;Node2 -->
<g id="edge1_Node000001_Node000002" class="edge">
<title>Node1&#45;&gt;Node2</title>
<g id="a_edge1_Node000001_Node000002"><a xlink:title=" ">
<path fill="none" stroke="#63b8ff" d="M221.07,-165.87C196.5,-156.12 164.12,-143.27 142.21,-134.58"/>
<polygon fill="#63b8ff" stroke="#63b8ff" points="219.49,-169.4 230.08,-169.84 222.07,-162.9 219.49,-169.4"/>
</a>
</g>
</g>
<!-- Node4 -->
<g id="Node000004" class="node">
<title>Node4</title>
<g id="a_Node000004"><a xlink:href="flameSolver_8h.html" target="_top" xlink:title=" ">
<polygon fill="white" stroke="#666666" points="261.75,-77.5 161.75,-77.5 161.75,-56.75 261.75,-56.75 261.75,-77.5"/>
<text text-anchor="middle" x="211.75" y="-64" font-family="FreeSans" font-size="10.00">src/flameSolver.h</text>
</a>
</g>
</g>
<!-- Node1&#45;&gt;Node4 -->
<g id="edge8_Node000001_Node000004" class="edge">
<title>Node1&#45;&gt;Node4</title>
<g id="a_edge8_Node000001_Node000004"><a xlink:title=" ">
<path fill="none" stroke="#63b8ff" d="M243.95,-160.46C239.4,-152.54 234.43,-143.15 230.75,-134.25 222.72,-114.82 216.75,-90.85 213.81,-77.77"/>
<polygon fill="#63b8ff" stroke="#63b8ff" points="241.41,-162.04 249.52,-168.85 247.43,-158.47 241.41,-162.04"/>
</a>
</g>
</g>
<!-- Node6 -->
<g id="Node000006" class="node">
<title>Node6</title>
<g id="a_Node000006"><a xlink:href="diffusionSystem_8h.html" target="_top" xlink:title=" ">
<polygon fill="white" stroke="#666666" points="361.25,-134.25 240.25,-134.25 240.25,-113.5 361.25,-113.5 361.25,-134.25"/>
<text text-anchor="middle" x="300.75" y="-120.75" font-family="FreeSans" font-size="10.00">src/diffusionSystem.h</text>
</a>
</g>
</g>
<!-- Node1&#45;&gt;Node6 -->
<g id="edge5_Node000001_Node000006" class="edge">
<title>Node1&#45;&gt;Node6</title>
<g id="a_edge5_Node000001_Node000006"><a xlink:title=" ">
<path fill="none" stroke="#63b8ff" d="M270.63,-161.52C278.02,-152.53 286.65,-142.03 292.77,-134.58"/>
<polygon fill="#63b8ff" stroke="#63b8ff" points="267.44,-158.89 263.8,-168.84 272.85,-163.33 267.44,-158.89"/>
</a>
</g>
</g>
<!-- Node8 -->
<g id="Node000008" class="node">
<title>Node8</title>
<g id="a_Node000008"><a xlink:href="grid_8cpp.html" target="_top" xlink:title=" ">
<polygon fill="white" stroke="#666666" points="451.88,-134.25 379.62,-134.25 379.62,-113.5 451.88,-113.5 451.88,-134.25"/>
<text text-anchor="middle" x="415.75" y="-120.75" font-family="FreeSans" font-size="10.00">src/grid.cpp</text>
</a>
</g>
</g>
<!-- Node1&#45;&gt;Node8 -->
<g id="edge9_Node000001_Node000008" class="edge">
<title>Node1&#45;&gt;Node8</title>
<g id="a_edge9_Node000001_Node000008"><a xlink:title=" ">
<path fill="none" stroke="#63b8ff" d="M294.4,-166.4C322.98,-156.62 361.26,-143.52 387.12,-134.67"/>
<polygon fill="#63b8ff" stroke="#63b8ff" points="293.68,-163.29 285.35,-169.84 295.95,-169.91 293.68,-163.29"/>
</a>
</g>
</g>
<!-- Node3 -->
<g id="Node000003" class="node">
<title>Node3</title>
<g id="a_Node000003"><a xlink:href="convectionSystem_8cpp.html" target="_top" xlink:title=" ">
<polygon fill="white" stroke="#666666" points="143.5,-77.5 0,-77.5 0,-56.75 143.5,-56.75 143.5,-77.5"/>
<text text-anchor="middle" x="71.75" y="-64" font-family="FreeSans" font-size="10.00">src/convectionSystem.cpp</text>
</a>
</g>
</g>
<!-- Node2&#45;&gt;Node3 -->
<g id="edge2_Node000002_Node000003" class="edge">
<title>Node2&#45;&gt;Node3</title>
<g id="a_edge2_Node000002_Node000003"><a xlink:title=" ">
<path fill="none" stroke="#63b8ff" d="M102.54,-104.77C94.99,-95.78 86.16,-85.28 79.9,-77.83"/>
<polygon fill="#63b8ff" stroke="#63b8ff" points="100.41,-106.68 109.53,-112.09 105.77,-102.18 100.41,-106.68"/>
</a>
</g>
</g>
<!-- Node2&#45;&gt;Node4 -->
<g id="edge3_Node000002_Node000004" class="edge">
<title>Node2&#45;&gt;Node4</title>
<g id="a_edge3_Node000002_Node000004"><a xlink:title=" ">
<path fill="none" stroke="#63b8ff" d="M143.64,-107.79C160.07,-98.23 180.83,-86.13 195.09,-77.83"/>
<polygon fill="#63b8ff" stroke="#63b8ff" points="142.43,-105.03 135.56,-113.09 145.96,-111.08 142.43,-105.03"/>
</a>
</g>
</g>
<!-- Node5 -->
<g id="Node000005" class="node">
<title>Node5</title>
<g id="a_Node000005"><a xlink:href="flameSolver_8cpp.html" target="_top" xlink:title=" ">
<polygon fill="white" stroke="#666666" points="267.38,-20.75 156.12,-20.75 156.12,0 267.38,0 267.38,-20.75"/>
<text text-anchor="middle" x="211.75" y="-7.25" font-family="FreeSans" font-size="10.00">src/flameSolver.cpp</text>
</a>
</g>
</g>
<!-- Node4&#45;&gt;Node5 -->
<g id="edge4_Node000004_Node000005" class="edge">
<title>Node4&#45;&gt;Node5</title>
<g id="a_edge4_Node000004_Node000005"><a xlink:title=" ">
<path fill="none" stroke="#63b8ff" d="M211.75,-45.46C211.75,-37.09 211.75,-27.83 211.75,-21.08"/>
<polygon fill="#63b8ff" stroke="#63b8ff" points="208.25,-45.34 211.75,-55.34 215.25,-45.34 208.25,-45.34"/>
</a>
</g>
</g>
<!-- Node6&#45;&gt;Node4 -->
<g id="edge7_Node000006_Node000004" class="edge">
<title>Node6&#45;&gt;Node4</title>
<g id="a_edge7_Node000006_Node000004"><a xlink:title=" ">
<path fill="none" stroke="#63b8ff" d="M275.8,-107.53C260.32,-98 240.9,-86.06 227.52,-77.83"/>
<polygon fill="#63b8ff" stroke="#63b8ff" points="273.49,-110.83 283.84,-113.09 277.16,-104.87 273.49,-110.83"/>
</a>
</g>
</g>
<!-- Node7 -->
<g id="Node000007" class="node">
<title>Node7</title>
<g id="a_Node000007"><a xlink:href="diffusionSystem_8cpp.html" target="_top" xlink:title=" ">
<polygon fill="white" stroke="#666666" points="411.88,-77.5 279.62,-77.5 279.62,-56.75 411.88,-56.75 411.88,-77.5"/>
<text text-anchor="middle" x="345.75" y="-64" font-family="FreeSans" font-size="10.00">src/diffusionSystem.cpp</text>
</a>
</g>
</g>
<!-- Node6&#45;&gt;Node7 -->
<g id="edge6_Node000006_Node000007" class="edge">
<title>Node6&#45;&gt;Node7</title>
<g id="a_edge6_Node000006_Node000007"><a xlink:title=" ">
<path fill="none" stroke="#63b8ff" d="M315.63,-104.77C323.02,-95.78 331.65,-85.28 337.77,-77.83"/>
<polygon fill="#63b8ff" stroke="#63b8ff" points="312.44,-102.14 308.8,-112.09 317.85,-106.58 312.44,-102.14"/>
</a>
</g>
</g>
</g>
</svg>
