<?xml version="1.0" encoding="UTF-8" standalone="no"?>
<!DOCTYPE svg PUBLIC "-//W3C//DTD SVG 1.1//EN"
 "http://www.w3.org/Graphics/SVG/1.1/DTD/svg11.dtd">
<!-- Generated by graphviz version 2.28.0 (20120425.2022)
 -->
<!-- Title: G Pages: 1 -->
<svg width="214pt" height="66pt"
 viewBox="0.00 0.00 214.00 66.00" xmlns="http://www.w3.org/2000/svg" xmlns:xlink="http://www.w3.org/1999/xlink">
<g id="graph1" class="graph" transform="scale(1 1) rotate(0) translate(4 62)">
<title>G</title>
<polygon fill="white" stroke="white" points="-4,5 -4,-62 211,-62 211,5 -4,5"/>
<!-- Node1 -->
<g id="node1" class="node"><title>Node1</title>
<a xlink:href="classIntegrator.html" target="_top" xlink:title="Integrator">
<polygon fill="white" stroke="black" points="0.5,-19.5 0.5,-38.5 59.5,-38.5 59.5,-19.5 0.5,-19.5"/>
<text text-anchor="middle" x="30" y="-26.5" font-family="FreeSans" font-size="10.00">Integrator</text>
</a>
</g>
<!-- Node2 -->
<g id="node3" class="node"><title>Node2</title>
<a xlink:href="classExplicitIntegrator.html" target="_top" xlink:title="ExplicitIntegrator">
<polygon fill="white" stroke="black" points="106.5,-38.5 106.5,-57.5 195.5,-57.5 195.5,-38.5 106.5,-38.5"/>
<text text-anchor="middle" x="151" y="-45.5" font-family="FreeSans" font-size="10.00">ExplicitIntegrator</text>
</a>
</g>
<!-- Node1&#45;&gt;Node2 -->
<g id="edge2" class="edge"><title>Node1&#45;&gt;Node2</title>
<path fill="none" stroke="midnightblue" d="M69.4731,-35.1428C81.2503,-37.0232 94.289,-39.105 106.383,-41.0359"/>
<polygon fill="midnightblue" stroke="midnightblue" points="69.9303,-31.6715 59.5035,-33.551 68.8265,-38.5839 69.9303,-31.6715"/>
</g>
<!-- Node3 -->
<g id="node5" class="node"><title>Node3</title>
<a xlink:href="classTridiagonalIntegrator.html" target="_top" xlink:title="TridiagonalIntegrator">
<polygon fill="white" stroke="black" points="96,-0.5 96,-19.5 206,-19.5 206,-0.5 96,-0.5"/>
<text text-anchor="middle" x="151" y="-7.5" font-family="FreeSans" font-size="10.00">TridiagonalIntegrator</text>
</a>
</g>
<!-- Node1&#45;&gt;Node3 -->
<g id="edge4" class="edge"><title>Node1&#45;&gt;Node3</title>
<path fill="none" stroke="midnightblue" d="M69.6271,-22.8327C77.9272,-21.5074 86.8478,-20.0831 95.619,-18.6827"/>
<polygon fill="midnightblue" stroke="midnightblue" points="68.8265,-19.4161 59.5035,-24.449 69.9303,-26.3285 68.8265,-19.4161"/>
</g>
</g>
</svg>
