<?xml version="1.0" encoding="UTF-8" standalone="no"?>
<!DOCTYPE svg PUBLIC "-//W3C//DTD SVG 1.1//EN"
 "http://www.w3.org/Graphics/SVG/1.1/DTD/svg11.dtd">
<!-- Generated by graphviz version 8.1.0 (20230707.2238)
 -->
<!-- Title: Graphical Class Hierarchy Pages: 1 -->
<svg width="225pt" height="68pt"
 viewBox="0.00 0.00 224.50 67.75" xmlns="http://www.w3.org/2000/svg" xmlns:xlink="http://www.w3.org/1999/xlink">
<g id="graph0" class="graph" transform="scale(1 1) rotate(0) translate(4 63.75)">
<title>Graphical Class Hierarchy</title>
<!-- Node0 -->
<g id="Node000000" class="node">
<title>Node0</title>
<g id="a_Node000000"><a xlink:title=" ">
<polygon fill="#e0e0e0" stroke="#999999" points="85,-39.75 0,-39.75 0,-19 85,-19 85,-39.75"/>
<text text-anchor="middle" x="42.5" y="-26.25" font-family="FreeSans" font-size="10.00">std::exception</text>
</a>
</g>
</g>
<!-- Node1 -->
<g id="Node000001" class="node">
<title>Node1</title>
<g id="a_Node000001"><a xlink:href="classCallbackError.html" target="_top" xlink:title=" ">
<polygon fill="white" stroke="#666666" points="209.38,-59.75 128.12,-59.75 128.12,-39 209.38,-39 209.38,-59.75"/>
<text text-anchor="middle" x="168.75" y="-46.25" font-family="FreeSans" font-size="10.00">CallbackError</text>
</a>
</g>
</g>
<!-- Node0&#45;&gt;Node1 -->
<g id="edge21_Node000000_Node000001" class="edge">
<title>Node0&#45;&gt;Node1</title>
<g id="a_edge21_Node000000_Node000001"><a xlink:title=" ">
<path fill="none" stroke="#63b8ff" d="M95.82,-37.8C106.6,-39.53 117.79,-41.33 128.03,-42.98"/>
<polygon fill="#63b8ff" stroke="#63b8ff" points="96.65,-34.22 86.22,-36.09 95.54,-41.14 96.65,-34.22"/>
</a>
</g>
</g>
<!-- Node2 -->
<g id="Node000002" class="node">
<title>Node2</title>
<g id="a_Node000002"><a xlink:href="classDebugException.html" target="_top" xlink:title="Class for exceptions raised by Ember.">
<polygon fill="white" stroke="#666666" points="216.5,-20.75 121,-20.75 121,0 216.5,0 216.5,-20.75"/>
<text text-anchor="middle" x="168.75" y="-7.25" font-family="FreeSans" font-size="10.00">DebugException</text>
</a>
</g>
</g>
<!-- Node0&#45;&gt;Node2 -->
<g id="edge22_Node000000_Node000002" class="edge">
<title>Node0&#45;&gt;Node2</title>
<g id="a_edge22_Node000000_Node000002"><a xlink:title=" ">
<path fill="none" stroke="#63b8ff" d="M95.9,-21.36C104.16,-20.1 112.66,-18.8 120.79,-17.56"/>
<polygon fill="#63b8ff" stroke="#63b8ff" points="95.58,-18.02 86.22,-23 96.63,-24.94 95.58,-18.02"/>
</a>
</g>
</g>
</g>
</svg>
