<?xml version="1.0" encoding="UTF-8" standalone="no"?>
<!DOCTYPE svg PUBLIC "-//W3C//DTD SVG 1.1//EN"
 "http://www.w3.org/Graphics/SVG/1.1/DTD/svg11.dtd">
<!-- Generated by graphviz version 8.1.0 (20230707.2238)
 -->
<!-- Title: Graphical Class Hierarchy Pages: 1 -->
<svg width="225pt" height="68pt"
 viewBox="0.00 0.00 225.25 67.75" xmlns="http://www.w3.org/2000/svg" xmlns:xlink="http://www.w3.org/1999/xlink">
<g id="graph0" class="graph" transform="scale(1 1) rotate(0) translate(4 63.75)">
<title>Graphical Class Hierarchy</title>
<!-- Node0 -->
<g id="Node000000" class="node">
<title>Node0</title>
<g id="a_Node000000"><a xlink:href="classIntegrator.html" target="_top" xlink:title="Abstract base class for an ODE integrator that can integrate instances of class ODE.">
<polygon fill="white" stroke="#666666" points="64,-39.75 0,-39.75 0,-19 64,-19 64,-39.75"/>
<text text-anchor="middle" x="32" y="-26.25" font-family="FreeSans" font-size="10.00">Integrator</text>
</a>
</g>
</g>
<!-- Node1 -->
<g id="Node000001" class="node">
<title>Node1</title>
<g id="a_Node000001"><a xlink:href="classExplicitIntegrator.html" target="_top" xlink:title="Integrates an ODE defined as ydot = f(t,y) using the explicit Euler method.">
<polygon fill="white" stroke="#666666" points="208.62,-59.75 108.62,-59.75 108.62,-39 208.62,-39 208.62,-59.75"/>
<text text-anchor="middle" x="158.62" y="-46.25" font-family="FreeSans" font-size="10.00">ExplicitIntegrator</text>
</a>
</g>
</g>
<!-- Node0&#45;&gt;Node1 -->
<g id="edge17_Node000000_Node000001" class="edge">
<title>Node0&#45;&gt;Node1</title>
<g id="a_edge17_Node000000_Node000001"><a xlink:title=" ">
<path fill="none" stroke="#63b8ff" d="M75.15,-36.14C85.78,-37.84 97.29,-39.69 108.24,-41.45"/>
<polygon fill="#63b8ff" stroke="#63b8ff" points="75.88,-32.55 65.45,-34.42 74.77,-39.46 75.88,-32.55"/>
</a>
</g>
</g>
<!-- Node2 -->
<g id="Node000002" class="node">
<title>Node2</title>
<g id="a_Node000002"><a xlink:href="classTridiagonalIntegrator.html" target="_top" xlink:title="Integrator using 1st and 2nd order BDF for tridiagonal systems, with matrix inversions done using the...">
<polygon fill="white" stroke="#666666" points="217.25,-20.75 100,-20.75 100,0 217.25,0 217.25,-20.75"/>
<text text-anchor="middle" x="158.62" y="-7.25" font-family="FreeSans" font-size="10.00">TridiagonalIntegrator</text>
</a>
</g>
</g>
<!-- Node0&#45;&gt;Node2 -->
<g id="edge18_Node000000_Node000002" class="edge">
<title>Node0&#45;&gt;Node2</title>
<g id="a_edge18_Node000000_Node000002"><a xlink:title=" ">
<path fill="none" stroke="#63b8ff" d="M75.29,-22.93C83.23,-21.72 91.66,-20.43 99.98,-19.16"/>
<polygon fill="#63b8ff" stroke="#63b8ff" points="74.81,-19.61 65.45,-24.58 75.86,-26.53 74.81,-19.61"/>
</a>
</g>
</g>
</g>
</svg>
