<?xml version="1.0" encoding="UTF-8" standalone="no"?>
<!DOCTYPE svg PUBLIC "-//W3C//DTD SVG 1.1//EN"
 "http://www.w3.org/Graphics/SVG/1.1/DTD/svg11.dtd">
<!-- Generated by graphviz version 2.36.0 (20140111.2315)
 -->
<!-- Title: Graphical Class Hierarchy Pages: 1 -->
<svg width="248pt" height="256pt"
 viewBox="0.00 0.00 248.00 256.00" xmlns="http://www.w3.org/2000/svg" xmlns:xlink="http://www.w3.org/1999/xlink">
<g id="graph0" class="graph" transform="scale(1 1) rotate(0) translate(4 252)">
<title>Graphical Class Hierarchy</title>
<polygon fill="white" stroke="none" points="-4,4 -4,-252 244,-252 244,4 -4,4"/>
<!-- Node1 -->
<g id="node1" class="node"><title>Node1</title>
<g id="a_node1"><a xlink:href="classGridBased.html" target="_top" xlink:title="A &quot;mix&#45;in&quot; class used by classes that need frequent access to grid parameters. ">
<polygon fill="white" stroke="black" points="11,-190.5 11,-209.5 73,-209.5 73,-190.5 11,-190.5"/>
<text text-anchor="middle" x="42" y="-197.5" font-family="FreeSans" font-size="10.00">GridBased</text>
</a>
</g>
</g>
<!-- Node2 -->
<g id="node2" class="node"><title>Node2</title>
<g id="a_node2"><a xlink:href="classConvectionSystemSplit.html" target="_top" xlink:title="Composite system representing the Convection term for all components. ">
<polygon fill="white" stroke="black" points="122,-228.5 122,-247.5 238,-247.5 238,-228.5 122,-228.5"/>
<text text-anchor="middle" x="180" y="-235.5" font-family="FreeSans" font-size="10.00">ConvectionSystemSplit</text>
</a>
</g>
</g>
<!-- Node1&#45;&gt;Node2 -->
<g id="edge1" class="edge"><title>Node1&#45;&gt;Node2</title>
<path fill="none" stroke="midnightblue" d="M83.0201,-211.182C102.567,-216.644 125.849,-223.149 144.588,-228.385"/>
<polygon fill="midnightblue" stroke="midnightblue" points="83.7558,-207.754 73.1828,-208.433 81.872,-214.495 83.7558,-207.754"/>
</g>
<!-- Node3 -->
<g id="node3" class="node"><title>Node3</title>
<g id="a_node3"><a xlink:href="classConvectionSystemUTW.html" target="_top" xlink:title="System representing the coupled convection equations for U, T, and Wmx. ">
<polygon fill="white" stroke="black" points="120.5,-152.5 120.5,-171.5 239.5,-171.5 239.5,-152.5 120.5,-152.5"/>
<text text-anchor="middle" x="180" y="-159.5" font-family="FreeSans" font-size="10.00">ConvectionSystemUTW</text>
</a>
</g>
</g>
<!-- Node1&#45;&gt;Node3 -->
<g id="edge2" class="edge"><title>Node1&#45;&gt;Node3</title>
<path fill="none" stroke="midnightblue" d="M83.0201,-188.818C102.567,-183.356 125.849,-176.851 144.588,-171.615"/>
<polygon fill="midnightblue" stroke="midnightblue" points="81.872,-185.505 73.1828,-191.567 83.7558,-192.246 81.872,-185.505"/>
</g>
<!-- Node4 -->
<g id="node4" class="node"><title>Node4</title>
<g id="a_node4"><a xlink:href="classConvectionSystemY.html" target="_top" xlink:title="System representing the convection equation for a single species. ">
<polygon fill="white" stroke="black" points="128,-190.5 128,-209.5 232,-209.5 232,-190.5 128,-190.5"/>
<text text-anchor="middle" x="180" y="-197.5" font-family="FreeSans" font-size="10.00">ConvectionSystemY</text>
</a>
</g>
</g>
<!-- Node1&#45;&gt;Node4 -->
<g id="edge3" class="edge"><title>Node1&#45;&gt;Node4</title>
<path fill="none" stroke="midnightblue" d="M83.4191,-200C97.3428,-200 113.124,-200 127.793,-200"/>
<polygon fill="midnightblue" stroke="midnightblue" points="83.1828,-196.5 73.1828,-200 83.1828,-203.5 83.1828,-196.5"/>
</g>
<!-- Node5 -->
<g id="node5" class="node"><title>Node5</title>
<g id="a_node5"><a xlink:href="classDiffusionSystem.html" target="_top" xlink:title="System representing diffusion of a single solution component. ">
<polygon fill="white" stroke="black" points="137.5,-114.5 137.5,-133.5 222.5,-133.5 222.5,-114.5 137.5,-114.5"/>
<text text-anchor="middle" x="180" y="-121.5" font-family="FreeSans" font-size="10.00">DiffusionSystem</text>
</a>
</g>
</g>
<!-- Node1&#45;&gt;Node5 -->
<g id="edge4" class="edge"><title>Node1&#45;&gt;Node5</title>
<path fill="none" stroke="midnightblue" d="M76.5957,-185.742C79.1706,-184.258 81.6708,-182.674 84,-181 102.891,-167.422 100.314,-155.397 120,-143 126.01,-139.215 132.843,-136.119 139.674,-133.608"/>
<polygon fill="midnightblue" stroke="midnightblue" points="74.9339,-182.661 67.6939,-190.397 78.1774,-188.865 74.9339,-182.661"/>
</g>
<!-- Node6 -->
<g id="node6" class="node"><title>Node6</title>
<g id="a_node6"><a xlink:href="classFlameSolver.html" target="_top" xlink:title="Class which manages the main integration loop. ">
<polygon fill="white" stroke="black" points="144.5,-76.5 144.5,-95.5 215.5,-95.5 215.5,-76.5 144.5,-76.5"/>
<text text-anchor="middle" x="180" y="-83.5" font-family="FreeSans" font-size="10.00">FlameSolver</text>
</a>
</g>
</g>
<!-- Node1&#45;&gt;Node6 -->
<g id="edge5" class="edge"><title>Node1&#45;&gt;Node6</title>
<path fill="none" stroke="midnightblue" d="M79.4057,-184.954C81.0351,-183.725 82.5795,-182.409 84,-181 110.54,-154.683 91.9004,-129.644 120,-105 126.877,-98.9688 135.691,-94.848 144.399,-92.0339"/>
<polygon fill="midnightblue" stroke="midnightblue" points="77.3474,-182.113 70.7295,-190.387 81.0625,-188.046 77.3474,-182.113"/>
</g>
<!-- Node7 -->
<g id="node7" class="node"><title>Node7</title>
<g id="a_node7"><a xlink:href="classQssOde.html" target="_top" xlink:title="An ODE to be solved by QssIntegrator. ">
<polygon fill="white" stroke="black" points="16.5,-0.5 16.5,-19.5 67.5,-19.5 67.5,-0.5 16.5,-0.5"/>
<text text-anchor="middle" x="42" y="-7.5" font-family="FreeSans" font-size="10.00">QssOde</text>
</a>
</g>
</g>
<!-- Node8 -->
<g id="node8" class="node"><title>Node8</title>
<g id="a_node8"><a xlink:href="classSourceSystemQSS.html" target="_top" xlink:title="This is the system representing the (chemical) source term at a point, integrated with the QssIntegra...">
<polygon fill="white" stroke="black" points="129.5,-0.5 129.5,-19.5 230.5,-19.5 230.5,-0.5 129.5,-0.5"/>
<text text-anchor="middle" x="180" y="-7.5" font-family="FreeSans" font-size="10.00">SourceSystemQSS</text>
</a>
</g>
</g>
<!-- Node7&#45;&gt;Node8 -->
<g id="edge6" class="edge"><title>Node7&#45;&gt;Node8</title>
<path fill="none" stroke="#8b1a1a" d="M77.9295,-10C93.6091,-10 112.39,-10 129.484,-10"/>
<polygon fill="#8b1a1a" stroke="#8b1a1a" points="77.6286,-6.5001 67.6286,-10 77.6285,-13.5001 77.6286,-6.5001"/>
</g>
<!-- Node9 -->
<g id="node9" class="node"><title>Node9</title>
<g id="a_node9"><a xlink:href="classsdODE.html" target="_top" xlink:title="Abstract base class for an ODE to be integrated by SundialsCvode. ">
<polygon fill="white" stroke="black" points="18.5,-152.5 18.5,-171.5 65.5,-171.5 65.5,-152.5 18.5,-152.5"/>
<text text-anchor="middle" x="42" y="-159.5" font-family="FreeSans" font-size="10.00">sdODE</text>
</a>
</g>
</g>
<!-- Node9&#45;&gt;Node3 -->
<g id="edge7" class="edge"><title>Node9&#45;&gt;Node3</title>
<path fill="none" stroke="midnightblue" d="M75.8928,-162C89.2652,-162 105.134,-162 120.363,-162"/>
<polygon fill="midnightblue" stroke="midnightblue" points="75.7634,-158.5 65.7633,-162 75.7633,-165.5 75.7634,-158.5"/>
</g>
<!-- Node9&#45;&gt;Node4 -->
<g id="edge8" class="edge"><title>Node9&#45;&gt;Node4</title>
<path fill="none" stroke="midnightblue" d="M75.4963,-171.08C96.455,-176.936 123.668,-184.539 144.93,-190.48"/>
<polygon fill="midnightblue" stroke="midnightblue" points="76.3363,-167.681 65.7633,-168.36 74.4526,-174.422 76.3363,-167.681"/>
</g>
<!-- Node10 -->
<g id="node10" class="node"><title>Node10</title>
<g id="a_node10"><a xlink:href="classSourceSystemCVODE.html" target="_top" xlink:title="Represents a system of equations used to integrate the (chemical) source term at a single point using...">
<polygon fill="white" stroke="black" points="123.5,-38.5 123.5,-57.5 236.5,-57.5 236.5,-38.5 123.5,-38.5"/>
<text text-anchor="middle" x="180" y="-45.5" font-family="FreeSans" font-size="10.00">SourceSystemCVODE</text>
</a>
</g>
</g>
<!-- Node9&#45;&gt;Node10 -->
<g id="edge9" class="edge"><title>Node9&#45;&gt;Node10</title>
<path fill="none" stroke="#8b1a1a" d="M74.7404,-150.115C78.0998,-148.061 81.2773,-145.7 84,-143 110.54,-116.683 91.9004,-91.6445 120,-67 124.45,-63.0974 129.711,-59.9948 135.229,-57.5284"/>
<polygon fill="#8b1a1a" stroke="#8b1a1a" points="72.8731,-147.141 65.6104,-154.855 76.0984,-153.354 72.8731,-147.141"/>
</g>
<!-- Node11 -->
<g id="node11" class="node"><title>Node11</title>
<g id="a_node11"><a xlink:href="classSourceSystem.html" target="_top" xlink:title="Base class used to integrate the chemical source term at a single point. ">
<polygon fill="white" stroke="black" points="2,-38.5 2,-57.5 82,-57.5 82,-38.5 2,-38.5"/>
<text text-anchor="middle" x="42" y="-45.5" font-family="FreeSans" font-size="10.00">SourceSystem</text>
</a>
</g>
</g>
<!-- Node11&#45;&gt;Node8 -->
<g id="edge11" class="edge"><title>Node11&#45;&gt;Node8</title>
<path fill="none" stroke="midnightblue" d="M87.0866,-35.6817C105.772,-30.4607 127.218,-24.4684 144.692,-19.5859"/>
<polygon fill="midnightblue" stroke="midnightblue" points="86.0078,-32.349 77.3185,-38.411 87.8915,-39.0908 86.0078,-32.349"/>
</g>
<!-- Node11&#45;&gt;Node10 -->
<g id="edge10" class="edge"><title>Node11&#45;&gt;Node10</title>
<path fill="none" stroke="midnightblue" d="M92.5167,-48C102.525,-48 113.111,-48 123.314,-48"/>
<polygon fill="midnightblue" stroke="midnightblue" points="92.3369,-44.5001 82.3368,-48 92.3368,-51.5001 92.3369,-44.5001"/>
</g>
<!-- Node12 -->
<g id="node12" class="node"><title>Node12</title>
<g id="a_node12"><a xlink:href="classSplitSolver.html" target="_top" xlink:title="Implements operator split integration for reacting flow problems. ">
<polygon fill="white" stroke="black" points="10.5,-76.5 10.5,-95.5 73.5,-95.5 73.5,-76.5 10.5,-76.5"/>
<text text-anchor="middle" x="42" y="-83.5" font-family="FreeSans" font-size="10.00">SplitSolver</text>
</a>
</g>
</g>
<!-- Node12&#45;&gt;Node6 -->
<g id="edge12" class="edge"><title>Node12&#45;&gt;Node6</title>
<path fill="none" stroke="midnightblue" d="M83.5498,-86C102.874,-86 125.753,-86 144.266,-86"/>
<polygon fill="midnightblue" stroke="midnightblue" points="83.5211,-82.5001 73.5211,-86 83.521,-89.5001 83.5211,-82.5001"/>
</g>
<!-- Node13 -->
<g id="node13" class="node"><title>Node13</title>
<g id="a_node13"><a xlink:href="classTridiagonalODE.html" target="_top" xlink:title="A system of linear ODEs represented by a tridiagonal matrix. ">
<polygon fill="white" stroke="black" points="0,-114.5 0,-133.5 84,-133.5 84,-114.5 0,-114.5"/>
<text text-anchor="middle" x="42" y="-121.5" font-family="FreeSans" font-size="10.00">TridiagonalODE</text>
</a>
</g>
</g>
<!-- Node13&#45;&gt;Node5 -->
<g id="edge13" class="edge"><title>Node13&#45;&gt;Node5</title>
<path fill="none" stroke="midnightblue" d="M94.3302,-124C108.585,-124 123.881,-124 137.497,-124"/>
<polygon fill="midnightblue" stroke="midnightblue" points="94.1736,-120.5 84.1736,-124 94.1735,-127.5 94.1736,-120.5"/>
</g>
</g>
</svg>
