<?xml version="1.0" encoding="UTF-8" standalone="no"?>
<!DOCTYPE svg PUBLIC "-//W3C//DTD SVG 1.1//EN"
 "http://www.w3.org/Graphics/SVG/1.1/DTD/svg11.dtd">
<!-- Generated by graphviz version 2.26.3 (20100126.1600)
 -->
<!-- Title: Graphical Class Hierarchy Pages: 1 -->
<svg width="248pt" height="256pt"
 viewBox="0.00 0.00 248.00 256.00" xmlns="http://www.w3.org/2000/svg" xmlns:xlink="http://www.w3.org/1999/xlink">
<g id="graph1" class="graph" transform="scale(1 1) rotate(0) translate(4 252)">
<title>Graphical Class Hierarchy</title>
<polygon fill="white" stroke="white" points="-4,5 -4,-252 245,-252 245,5 -4,5"/>
<!-- Node1 -->
<g id="node1" class="node"><title>Node1</title>
<a xlink:href="classGridBased.html" target="_top" xlink:title="A &quot;mix&#45;in&quot; class used by classes that need frequent access to grid parameters. ">
<polygon fill="white" stroke="black" points="11,-190 11,-210 73,-210 73,-190 11,-190"/>
<text text-anchor="middle" x="42" y="-197" font-family="FreeSans" font-size="10.00">GridBased</text>
</a>
</g>
<!-- Node2 -->
<g id="node3" class="node"><title>Node2</title>
<a xlink:href="classConvectionSystemSplit.html" target="_top" xlink:title="Composite system representing the Convection term for all components. ">
<polygon fill="white" stroke="black" points="122,-228 122,-248 238,-248 238,-228 122,-228"/>
<text text-anchor="middle" x="180" y="-235" font-family="FreeSans" font-size="10.00">ConvectionSystemSplit</text>
</a>
</g>
<!-- Node1&#45;&gt;Node2 -->
<g id="edge2" class="edge"><title>Node1&#45;&gt;Node2</title>
<path fill="none" stroke="midnightblue" d="M82.9896,-211.287C102.174,-216.57 124.839,-222.811 143.435,-227.931"/>
<polygon fill="midnightblue" stroke="midnightblue" points="83.8847,-207.903 73.3143,-208.623 82.0263,-214.652 83.8847,-207.903"/>
</g>
<!-- Node3 -->
<g id="node5" class="node"><title>Node3</title>
<a xlink:href="classConvectionSystemUTW.html" target="_top" xlink:title="System representing the coupled convection equations for U, T, and Wmx. ">
<polygon fill="white" stroke="black" points="120.5,-152 120.5,-172 239.5,-172 239.5,-152 120.5,-152"/>
<text text-anchor="middle" x="180" y="-159" font-family="FreeSans" font-size="10.00">ConvectionSystemUTW</text>
</a>
</g>
<!-- Node1&#45;&gt;Node3 -->
<g id="edge4" class="edge"><title>Node1&#45;&gt;Node3</title>
<path fill="none" stroke="midnightblue" d="M82.9896,-188.713C102.174,-183.43 124.839,-177.189 143.435,-172.069"/>
<polygon fill="midnightblue" stroke="midnightblue" points="82.0263,-185.348 73.3143,-191.377 83.8847,-192.097 82.0263,-185.348"/>
</g>
<!-- Node4 -->
<g id="node7" class="node"><title>Node4</title>
<a xlink:href="classConvectionSystemY.html" target="_top" xlink:title="System representing the convection equation for a single species. ">
<polygon fill="white" stroke="black" points="128,-190 128,-210 232,-210 232,-190 128,-190"/>
<text text-anchor="middle" x="180" y="-197" font-family="FreeSans" font-size="10.00">ConvectionSystemY</text>
</a>
</g>
<!-- Node1&#45;&gt;Node4 -->
<g id="edge6" class="edge"><title>Node1&#45;&gt;Node4</title>
<path fill="none" stroke="midnightblue" d="M83.5953,-200C97.5577,-200 113.308,-200 127.968,-200"/>
<polygon fill="midnightblue" stroke="midnightblue" points="83.3144,-196.5 73.3143,-200 83.3143,-203.5 83.3144,-196.5"/>
</g>
<!-- Node5 -->
<g id="node9" class="node"><title>Node5</title>
<a xlink:href="classDiffusionSystem.html" target="_top" xlink:title="System representing diffusion of a single solution component. ">
<polygon fill="white" stroke="black" points="137.5,-114 137.5,-134 222.5,-134 222.5,-114 137.5,-114"/>
<text text-anchor="middle" x="180" y="-121" font-family="FreeSans" font-size="10.00">DiffusionSystem</text>
</a>
</g>
<!-- Node1&#45;&gt;Node5 -->
<g id="edge8" class="edge"><title>Node1&#45;&gt;Node5</title>
<path fill="none" stroke="midnightblue" d="M77.5104,-185.165C79.762,-183.852 81.9462,-182.462 84,-181 102.953,-167.509 100.283,-155.349 120,-143 125.741,-139.404 132.221,-136.436 138.745,-134.001"/>
<polygon fill="midnightblue" stroke="midnightblue" points="75.8448,-182.087 68.6267,-189.842 79.1058,-188.281 75.8448,-182.087"/>
</g>
<!-- Node6 -->
<g id="node11" class="node"><title>Node6</title>
<a xlink:href="classFlameSolver.html" target="_top" xlink:title="Class which manages the main integration loop. ">
<polygon fill="white" stroke="black" points="144.5,-76 144.5,-96 215.5,-96 215.5,-76 144.5,-76"/>
<text text-anchor="middle" x="180" y="-83" font-family="FreeSans" font-size="10.00">FlameSolver</text>
</a>
</g>
<!-- Node1&#45;&gt;Node6 -->
<g id="edge10" class="edge"><title>Node1&#45;&gt;Node6</title>
<path fill="none" stroke="midnightblue" d="M80.4799,-184.096C81.7148,-183.118 82.894,-182.087 84,-181 110.659,-154.804 91.8405,-129.576 120,-105 126.833,-99.0368 135.542,-94.9431 144.193,-92.1335"/>
<polygon fill="midnightblue" stroke="midnightblue" points="78.1849,-181.413 71.7052,-189.795 81.998,-187.283 78.1849,-181.413"/>
</g>
<!-- Node7 -->
<g id="node12" class="node"><title>Node7</title>
<a xlink:href="classQssOde.html" target="_top" xlink:title="An ODE to be solved by QssIntegrator. ">
<polygon fill="white" stroke="black" points="16.5,-0 16.5,-20 67.5,-20 67.5,-0 16.5,-0"/>
<text text-anchor="middle" x="42" y="-7" font-family="FreeSans" font-size="10.00">QssOde</text>
</a>
</g>
<!-- Node8 -->
<g id="node14" class="node"><title>Node8</title>
<a xlink:href="classSourceSystemQSS.html" target="_top" xlink:title="This is the system representing the (chemical) source term at a point, integrated with the QssIntegra...">
<polygon fill="white" stroke="black" points="129.5,-0 129.5,-20 230.5,-20 230.5,-0 129.5,-0"/>
<text text-anchor="middle" x="180" y="-7" font-family="FreeSans" font-size="10.00">SourceSystemQSS</text>
</a>
</g>
<!-- Node7&#45;&gt;Node8 -->
<g id="edge12" class="edge"><title>Node7&#45;&gt;Node8</title>
<path fill="none" stroke="#8b1a1a" d="M77.9559,-10C93.6355,-10 112.295,-10 129.344,-10"/>
<polygon fill="#8b1a1a" stroke="#8b1a1a" points="77.6334,-6.5001 67.6333,-10 77.6333,-13.5001 77.6334,-6.5001"/>
</g>
<!-- Node9 -->
<g id="node15" class="node"><title>Node9</title>
<a xlink:href="classsdODE.html" target="_top" xlink:title="Abstract base class for an ODE to be integrated by SundialsCvode. ">
<polygon fill="white" stroke="black" points="18.5,-152 18.5,-172 65.5,-172 65.5,-152 18.5,-152"/>
<text text-anchor="middle" x="42" y="-159" font-family="FreeSans" font-size="10.00">sdODE</text>
</a>
</g>
<!-- Node9&#45;&gt;Node3 -->
<g id="edge14" class="edge"><title>Node9&#45;&gt;Node3</title>
<path fill="none" stroke="midnightblue" d="M75.915,-162C89.3415,-162 105.183,-162 120.402,-162"/>
<polygon fill="midnightblue" stroke="midnightblue" points="75.7231,-158.5 65.723,-162 75.723,-165.5 75.7231,-158.5"/>
</g>
<!-- Node9&#45;&gt;Node4 -->
<g id="edge16" class="edge"><title>Node9&#45;&gt;Node4</title>
<path fill="none" stroke="midnightblue" d="M75.6123,-171.256C96.2024,-176.925 122.557,-184.182 143.634,-189.986"/>
<polygon fill="midnightblue" stroke="midnightblue" points="76.2934,-167.813 65.723,-168.532 74.435,-174.562 76.2934,-167.813"/>
</g>
<!-- Node10 -->
<g id="node19" class="node"><title>Node10</title>
<a xlink:href="classSourceSystemCVODE.html" target="_top" xlink:title="Represents a system of equations used to integrate the (chemical) source term at a single point using...">
<polygon fill="white" stroke="black" points="123.5,-38 123.5,-58 236.5,-58 236.5,-38 123.5,-38"/>
<text text-anchor="middle" x="180" y="-45" font-family="FreeSans" font-size="10.00">SourceSystemCVODE</text>
</a>
</g>
<!-- Node9&#45;&gt;Node10 -->
<g id="edge18" class="edge"><title>Node9&#45;&gt;Node10</title>
<path fill="none" stroke="#8b1a1a" d="M74.737,-150.062C78.0958,-148.025 81.2706,-145.682 84,-143 110.659,-116.804 91.8405,-91.576 120,-67 124.116,-63.4077 128.913,-60.4939 133.968,-58.1305"/>
<polygon fill="#8b1a1a" stroke="#8b1a1a" points="72.8889,-147.076 65.5962,-154.762 76.0899,-153.302 72.8889,-147.076"/>
</g>
<!-- Node11 -->
<g id="node20" class="node"><title>Node11</title>
<a xlink:href="classSourceSystem.html" target="_top" xlink:title="Base class used to integrate the chemical source term at a single point. ">
<polygon fill="white" stroke="black" points="2,-38 2,-58 82,-58 82,-38 2,-38"/>
<text text-anchor="middle" x="42" y="-45" font-family="FreeSans" font-size="10.00">SourceSystem</text>
</a>
</g>
<!-- Node11&#45;&gt;Node8 -->
<g id="edge22" class="edge"><title>Node11&#45;&gt;Node8</title>
<path fill="none" stroke="midnightblue" d="M88.2835,-35.2553C106.168,-30.3306 126.344,-24.7749 143.21,-20.1307"/>
<polygon fill="midnightblue" stroke="midnightblue" points="87.3311,-31.8872 78.6192,-37.9165 89.1895,-38.636 87.3311,-31.8872"/>
</g>
<!-- Node11&#45;&gt;Node10 -->
<g id="edge20" class="edge"><title>Node11&#45;&gt;Node10</title>
<path fill="none" stroke="midnightblue" d="M92.4742,-48C102.483,-48 113.054,-48 123.255,-48"/>
<polygon fill="midnightblue" stroke="midnightblue" points="92.2863,-44.5001 82.2863,-48 92.2863,-51.5001 92.2863,-44.5001"/>
</g>
<!-- Node12 -->
<g id="node23" class="node"><title>Node12</title>
<a xlink:href="classSplitSolver.html" target="_top" xlink:title="Implements operator split integration for reacting flow problems. ">
<polygon fill="white" stroke="black" points="10.5,-76 10.5,-96 73.5,-96 73.5,-76 10.5,-76"/>
<text text-anchor="middle" x="42" y="-83" font-family="FreeSans" font-size="10.00">SplitSolver</text>
</a>
</g>
<!-- Node12&#45;&gt;Node6 -->
<g id="edge24" class="edge"><title>Node12&#45;&gt;Node6</title>
<path fill="none" stroke="midnightblue" d="M83.6775,-86C102.948,-86 125.609,-86 144.108,-86"/>
<polygon fill="midnightblue" stroke="midnightblue" points="83.66,-82.5001 73.66,-86 83.66,-89.5001 83.66,-82.5001"/>
</g>
<!-- Node13 -->
<g id="node25" class="node"><title>Node13</title>
<a xlink:href="classTridiagonalODE.html" target="_top" xlink:title="A system of linear ODEs represented by a tridiagonal matrix. ">
<polygon fill="white" stroke="black" points="0,-114 0,-134 84,-134 84,-114 0,-114"/>
<text text-anchor="middle" x="42" y="-121" font-family="FreeSans" font-size="10.00">TridiagonalODE</text>
</a>
</g>
<!-- Node13&#45;&gt;Node5 -->
<g id="edge26" class="edge"><title>Node13&#45;&gt;Node5</title>
<path fill="none" stroke="midnightblue" d="M94.2515,-124C108.412,-124 123.574,-124 137.151,-124"/>
<polygon fill="midnightblue" stroke="midnightblue" points="94.1544,-120.5 84.1544,-124 94.1544,-127.5 94.1544,-120.5"/>
</g>
</g>
</svg>
