<?xml version="1.0" encoding="UTF-8" standalone="no"?>
<!DOCTYPE svg PUBLIC "-//W3C//DTD SVG 1.1//EN"
 "http://www.w3.org/Graphics/SVG/1.1/DTD/svg11.dtd">
<!-- Generated by graphviz version 8.1.0 (20230707.2238)
 -->
<!-- Title: Graphical Class Hierarchy Pages: 1 -->
<svg width="243pt" height="68pt"
 viewBox="0.00 0.00 242.50 67.75" xmlns="http://www.w3.org/2000/svg" xmlns:xlink="http://www.w3.org/1999/xlink">
<g id="graph0" class="graph" transform="scale(1 1) rotate(0) translate(4 63.75)">
<title>Graphical Class Hierarchy</title>
<!-- Node0 -->
<g id="Node000000" class="node">
<title>Node0</title>
<g id="a_Node000000"><a xlink:href="classScalarFunction.html" target="_top" xlink:title="Represents a parameterization of a scalar function of one variable, a(t).">
<polygon fill="white" stroke="#666666" points="87.25,-39.75 0,-39.75 0,-19 87.25,-19 87.25,-39.75"/>
<text text-anchor="middle" x="43.62" y="-26.25" font-family="FreeSans" font-size="10.00">ScalarFunction</text>
</a>
</g>
</g>
<!-- Node1 -->
<g id="Node000001" class="node">
<title>Node1</title>
<g id="a_Node000001"><a xlink:href="classChebyshevFunction.html" target="_top" xlink:title="Chebyshev polynomial representation of a(t).">
<polygon fill="white" stroke="#666666" points="234.5,-59.75 123.25,-59.75 123.25,-39 234.5,-39 234.5,-59.75"/>
<text text-anchor="middle" x="178.88" y="-46.25" font-family="FreeSans" font-size="10.00">ChebyshevFunction</text>
</a>
</g>
</g>
<!-- Node0&#45;&gt;Node1 -->
<g id="edge19_Node000000_Node000001" class="edge">
<title>Node0&#45;&gt;Node1</title>
<g id="a_edge19_Node000000_Node000001"><a xlink:title=" ">
<path fill="none" stroke="#63b8ff" d="M98.33,-37.44C106.42,-38.65 114.77,-39.9 122.88,-41.12"/>
<polygon fill="#63b8ff" stroke="#63b8ff" points="98.93,-33.84 88.52,-35.81 97.89,-40.76 98.93,-33.84"/>
</a>
</g>
</g>
<!-- Node2 -->
<g id="Node000002" class="node">
<title>Node2</title>
<g id="a_Node000002"><a xlink:href="classLinearFunction.html" target="_top" xlink:title="Represents a function that is constant before and after a linear ramp.">
<polygon fill="white" stroke="#666666" points="222.5,-20.75 135.25,-20.75 135.25,0 222.5,0 222.5,-20.75"/>
<text text-anchor="middle" x="178.88" y="-7.25" font-family="FreeSans" font-size="10.00">LinearFunction</text>
</a>
</g>
</g>
<!-- Node0&#45;&gt;Node2 -->
<g id="edge20_Node000000_Node000002" class="edge">
<title>Node0&#45;&gt;Node2</title>
<g id="a_edge20_Node000000_Node000002"><a xlink:title=" ">
<path fill="none" stroke="#63b8ff" d="M98.11,-21.75C110.39,-20 123.3,-18.16 135.06,-16.48"/>
<polygon fill="#63b8ff" stroke="#63b8ff" points="97.93,-18.38 88.52,-23.26 98.91,-25.31 97.93,-18.38"/>
</a>
</g>
</g>
</g>
</svg>
