<?xml version="1.0" encoding="UTF-8" standalone="no"?>
<!DOCTYPE svg PUBLIC "-//W3C//DTD SVG 1.1//EN"
 "http://www.w3.org/Graphics/SVG/1.1/DTD/svg11.dtd">
<!-- Generated by graphviz version 2.28.0 (20120425.2022)
 -->
<!-- Title: Graphical Class Hierarchy Pages: 1 -->
<svg width="260pt" height="256pt"
 viewBox="0.00 0.00 260.00 256.00" xmlns="http://www.w3.org/2000/svg" xmlns:xlink="http://www.w3.org/1999/xlink">
<g id="graph1" class="graph" transform="scale(1 1) rotate(0) translate(4 252)">
<title>Graphical Class Hierarchy</title>
<polygon fill="white" stroke="white" points="-4,5 -4,-252 257,-252 257,5 -4,5"/>
<!-- Node1 -->
<g id="node1" class="node"><title>Node1</title>
<a xlink:href="classGridBased.html" target="_top" xlink:title="A &quot;mix&#45;in&quot; class used by classes that need frequent access to grid parameters.">
<polygon fill="white" stroke="black" points="12,-190.5 12,-209.5 78,-209.5 78,-190.5 12,-190.5"/>
<text text-anchor="middle" x="45" y="-197.5" font-family="FreeSans" font-size="10.00">GridBased</text>
</a>
</g>
<!-- Node2 -->
<g id="node3" class="node"><title>Node2</title>
<a xlink:href="classConvectionSystemSplit.html" target="_top" xlink:title="Composite system representing the Convection term for all components.">
<polygon fill="white" stroke="black" points="129,-228.5 129,-247.5 249,-247.5 249,-228.5 129,-228.5"/>
<text text-anchor="middle" x="189" y="-235.5" font-family="FreeSans" font-size="10.00">ConvectionSystemSplit</text>
</a>
</g>
<!-- Node1&#45;&gt;Node2 -->
<g id="edge2" class="edge"><title>Node1&#45;&gt;Node2</title>
<path fill="none" stroke="midnightblue" d="M87.9332,-211.222C108.433,-216.707 132.839,-223.239 152.416,-228.478"/>
<polygon fill="midnightblue" stroke="midnightblue" points="88.7869,-207.827 78.222,-208.623 86.9773,-214.589 88.7869,-207.827"/>
</g>
<!-- Node3 -->
<g id="node5" class="node"><title>Node3</title>
<a xlink:href="classConvectionSystemUTW.html" target="_top" xlink:title="System representing the coupled convection equations for U, T, and Wmx.">
<polygon fill="white" stroke="black" points="126.5,-152.5 126.5,-171.5 251.5,-171.5 251.5,-152.5 126.5,-152.5"/>
<text text-anchor="middle" x="189" y="-159.5" font-family="FreeSans" font-size="10.00">ConvectionSystemUTW</text>
</a>
</g>
<!-- Node1&#45;&gt;Node3 -->
<g id="edge4" class="edge"><title>Node1&#45;&gt;Node3</title>
<path fill="none" stroke="midnightblue" d="M87.9332,-188.778C108.433,-183.293 132.839,-176.761 152.416,-171.522"/>
<polygon fill="midnightblue" stroke="midnightblue" points="86.9773,-185.411 78.222,-191.377 88.7869,-192.173 86.9773,-185.411"/>
</g>
<!-- Node4 -->
<g id="node7" class="node"><title>Node4</title>
<a xlink:href="classConvectionSystemY.html" target="_top" xlink:title="System representing the convection equation for a single species.">
<polygon fill="white" stroke="black" points="135,-190.5 135,-209.5 243,-209.5 243,-190.5 135,-190.5"/>
<text text-anchor="middle" x="189" y="-197.5" font-family="FreeSans" font-size="10.00">ConvectionSystemY</text>
</a>
</g>
<!-- Node1&#45;&gt;Node4 -->
<g id="edge6" class="edge"><title>Node1&#45;&gt;Node4</title>
<path fill="none" stroke="midnightblue" d="M88.4309,-200C102.978,-200 119.445,-200 134.739,-200"/>
<polygon fill="midnightblue" stroke="midnightblue" points="88.222,-196.5 78.222,-200 88.222,-203.5 88.222,-196.5"/>
</g>
<!-- Node5 -->
<g id="node9" class="node"><title>Node5</title>
<a xlink:href="classDiffusionSystem.html" target="_top" xlink:title="System representing diffusion of a single solution component.">
<polygon fill="white" stroke="black" points="144.5,-114.5 144.5,-133.5 233.5,-133.5 233.5,-114.5 144.5,-114.5"/>
<text text-anchor="middle" x="189" y="-121.5" font-family="FreeSans" font-size="10.00">DiffusionSystem</text>
</a>
</g>
<!-- Node1&#45;&gt;Node5 -->
<g id="edge8" class="edge"><title>Node1&#45;&gt;Node5</title>
<path fill="none" stroke="midnightblue" d="M82.0108,-185.925C84.791,-184.398 87.4894,-182.755 90,-181 109.068,-167.672 106.226,-155.257 126,-143 132.22,-139.145 139.278,-136.022 146.348,-133.509"/>
<polygon fill="midnightblue" stroke="midnightblue" points="80.3853,-182.824 72.9814,-190.403 83.4953,-189.095 80.3853,-182.824"/>
</g>
<!-- Node6 -->
<g id="node11" class="node"><title>Node6</title>
<a xlink:href="classFlameSolver.html" target="_top" xlink:title="Class which manages the main integration loop.">
<polygon fill="white" stroke="black" points="152,-76.5 152,-95.5 226,-95.5 226,-76.5 152,-76.5"/>
<text text-anchor="middle" x="189" y="-83.5" font-family="FreeSans" font-size="10.00">FlameSolver</text>
</a>
</g>
<!-- Node1&#45;&gt;Node6 -->
<g id="edge10" class="edge"><title>Node1&#45;&gt;Node6</title>
<path fill="none" stroke="midnightblue" d="M84.7946,-185.308C86.6441,-183.984 88.3953,-182.55 90,-181 116.884,-155.034 97.7264,-129.445 126,-105 133.324,-98.6678 142.724,-94.4458 151.979,-91.6309"/>
<polygon fill="midnightblue" stroke="midnightblue" points="82.9942,-182.307 76.2067,-190.442 86.5859,-188.315 82.9942,-182.307"/>
</g>
<!-- Node7 -->
<g id="node12" class="node"><title>Node7</title>
<a xlink:href="classQssOde.html" target="_top" xlink:title="An ODE to be solved by QssIntegrator.">
<polygon fill="white" stroke="black" points="18,-0.5 18,-19.5 72,-19.5 72,-0.5 18,-0.5"/>
<text text-anchor="middle" x="45" y="-7.5" font-family="FreeSans" font-size="10.00">QssOde</text>
</a>
</g>
<!-- Node8 -->
<g id="node14" class="node"><title>Node8</title>
<a xlink:href="classSourceSystemQSS.html" target="_top" xlink:title="This is the system representing the (chemical) source term at a point, integrated with the QssIntegra...">
<polygon fill="white" stroke="black" points="137,-0.5 137,-19.5 241,-19.5 241,-0.5 137,-0.5"/>
<text text-anchor="middle" x="189" y="-7.5" font-family="FreeSans" font-size="10.00">SourceSystemQSS</text>
</a>
</g>
<!-- Node7&#45;&gt;Node8 -->
<g id="edge12" class="edge"><title>Node7&#45;&gt;Node8</title>
<path fill="none" stroke="#8b1a1a" d="M82.3861,-10C98.9326,-10 118.8,-10 136.816,-10"/>
<polygon fill="#8b1a1a" stroke="#8b1a1a" points="82.045,-6.5001 72.045,-10 82.045,-13.5001 82.045,-6.5001"/>
</g>
<!-- Node9 -->
<g id="node15" class="node"><title>Node9</title>
<a xlink:href="classsdODE.html" target="_top" xlink:title="sdODE">
<polygon fill="white" stroke="black" points="20.5,-152.5 20.5,-171.5 69.5,-171.5 69.5,-152.5 20.5,-152.5"/>
<text text-anchor="middle" x="45" y="-159.5" font-family="FreeSans" font-size="10.00">sdODE</text>
</a>
</g>
<!-- Node9&#45;&gt;Node3 -->
<g id="edge14" class="edge"><title>Node9&#45;&gt;Node3</title>
<path fill="none" stroke="midnightblue" d="M79.8757,-162C93.8461,-162 110.485,-162 126.471,-162"/>
<polygon fill="midnightblue" stroke="midnightblue" points="79.7676,-158.5 69.7676,-162 79.7676,-165.5 79.7676,-158.5"/>
</g>
<!-- Node9&#45;&gt;Node4 -->
<g id="edge16" class="edge"><title>Node9&#45;&gt;Node4</title>
<path fill="none" stroke="midnightblue" d="M79.632,-171C101.555,-176.867 130.126,-184.512 152.427,-190.48"/>
<polygon fill="midnightblue" stroke="midnightblue" points="80.3325,-167.564 69.7676,-168.36 78.5229,-174.327 80.3325,-167.564"/>
</g>
<!-- Node10 -->
<g id="node19" class="node"><title>Node10</title>
<a xlink:href="classSourceSystemCVODE.html" target="_top" xlink:title="Represents a system of equations used to integrate the (chemical) source term at a single point using...">
<polygon fill="white" stroke="black" points="131,-38.5 131,-57.5 247,-57.5 247,-38.5 131,-38.5"/>
<text text-anchor="middle" x="189" y="-45.5" font-family="FreeSans" font-size="10.00">SourceSystemCVODE</text>
</a>
</g>
<!-- Node9&#45;&gt;Node10 -->
<g id="edge18" class="edge"><title>Node9&#45;&gt;Node10</title>
<path fill="none" stroke="#8b1a1a" d="M79.1674,-150.87C83.1011,-148.661 86.8355,-146.056 90,-143 116.884,-117.034 97.7264,-91.4446 126,-67 130.514,-63.0976 135.816,-59.9967 141.387,-57.5326"/>
<polygon fill="#8b1a1a" stroke="#8b1a1a" points="77.3235,-147.871 69.8009,-155.332 80.3341,-154.191 77.3235,-147.871"/>
</g>
<!-- Node11 -->
<g id="node20" class="node"><title>Node11</title>
<a xlink:href="classSourceSystem.html" target="_top" xlink:title="Base class used to integrate the chemical source term at a single point.">
<polygon fill="white" stroke="black" points="3.5,-38.5 3.5,-57.5 86.5,-57.5 86.5,-38.5 3.5,-38.5"/>
<text text-anchor="middle" x="45" y="-45.5" font-family="FreeSans" font-size="10.00">SourceSystem</text>
</a>
</g>
<!-- Node11&#45;&gt;Node8 -->
<g id="edge22" class="edge"><title>Node11&#45;&gt;Node8</title>
<path fill="none" stroke="midnightblue" d="M91.4929,-35.8258C111.128,-30.5713 133.766,-24.5134 152.179,-19.5859"/>
<polygon fill="midnightblue" stroke="midnightblue" points="90.5879,-32.4448 81.8326,-38.411 92.3975,-39.2069 90.5879,-32.4448"/>
</g>
<!-- Node11&#45;&gt;Node10 -->
<g id="edge20" class="edge"><title>Node11&#45;&gt;Node10</title>
<path fill="none" stroke="midnightblue" d="M96.986,-48C107.986,-48 119.685,-48 130.902,-48"/>
<polygon fill="midnightblue" stroke="midnightblue" points="96.6915,-44.5001 86.6915,-48 96.6915,-51.5001 96.6915,-44.5001"/>
</g>
<!-- Node12 -->
<g id="node23" class="node"><title>Node12</title>
<a xlink:href="classSplitSolver.html" target="_top" xlink:title="Implements operator split integration for reacting flow problems.">
<polygon fill="white" stroke="black" points="12.5,-76.5 12.5,-95.5 77.5,-95.5 77.5,-76.5 12.5,-76.5"/>
<text text-anchor="middle" x="45" y="-83.5" font-family="FreeSans" font-size="10.00">SplitSolver</text>
</a>
</g>
<!-- Node12&#45;&gt;Node6 -->
<g id="edge24" class="edge"><title>Node12&#45;&gt;Node6</title>
<path fill="none" stroke="midnightblue" d="M87.7461,-86C108.075,-86 132.281,-86 151.814,-86"/>
<polygon fill="midnightblue" stroke="midnightblue" points="87.5144,-82.5001 77.5144,-86 87.5144,-89.5001 87.5144,-82.5001"/>
</g>
<!-- Node13 -->
<g id="node25" class="node"><title>Node13</title>
<a xlink:href="classTridiagonalODE.html" target="_top" xlink:title="A system of linear ODEs represented by a tridiagonal matrix.">
<polygon fill="white" stroke="black" points="0.5,-114.5 0.5,-133.5 89.5,-133.5 89.5,-114.5 0.5,-114.5"/>
<text text-anchor="middle" x="45" y="-121.5" font-family="FreeSans" font-size="10.00">TridiagonalODE</text>
</a>
</g>
<!-- Node13&#45;&gt;Node5 -->
<g id="edge26" class="edge"><title>Node13&#45;&gt;Node5</title>
<path fill="none" stroke="midnightblue" d="M100.138,-124C114.682,-124 130.227,-124 144.137,-124"/>
<polygon fill="midnightblue" stroke="midnightblue" points="99.7634,-120.5 89.7634,-124 99.7633,-127.5 99.7634,-120.5"/>
</g>
</g>
</svg>
