<?xml version="1.0" encoding="UTF-8" standalone="no"?>
<!DOCTYPE svg PUBLIC "-//W3C//DTD SVG 1.1//EN"
 "http://www.w3.org/Graphics/SVG/1.1/DTD/svg11.dtd">
<!-- Generated by graphviz version 8.1.0 (20230707.2238)
 -->
<!-- Title: Graphical Class Hierarchy Pages: 1 -->
<svg width="265pt" height="263pt"
 viewBox="0.00 0.00 265.00 262.75" xmlns="http://www.w3.org/2000/svg" xmlns:xlink="http://www.w3.org/1999/xlink">
<g id="graph0" class="graph" transform="scale(1 1) rotate(0) translate(4 258.75)">
<title>Graphical Class Hierarchy</title>
<!-- Node0 -->
<g id="Node000000" class="node">
<title>Node0</title>
<g id="a_Node000000"><a xlink:href="classGridBased.html" target="_top" xlink:title="A &quot;mix&#45;in&quot; class used by classes that need frequent access to grid parameters.">
<polygon fill="white" stroke="#666666" points="78.25,-215.75 12,-215.75 12,-195 78.25,-195 78.25,-215.75"/>
<text text-anchor="middle" x="45.12" y="-202.25" font-family="FreeSans" font-size="10.00">GridBased</text>
</a>
</g>
</g>
<!-- Node1 -->
<g id="Node000001" class="node">
<title>Node1</title>
<g id="a_Node000001"><a xlink:href="classConvectionSystemSplit.html" target="_top" xlink:title="Composite system representing the Convection term for all components.">
<polygon fill="white" stroke="#666666" points="256.25,-254.75 127,-254.75 127,-234 256.25,-234 256.25,-254.75"/>
<text text-anchor="middle" x="191.62" y="-241.25" font-family="FreeSans" font-size="10.00">ConvectionSystemSplit</text>
</a>
</g>
</g>
<!-- Node0&#45;&gt;Node1 -->
<g id="edge4_Node000000_Node000001" class="edge">
<title>Node0&#45;&gt;Node1</title>
<g id="a_edge4_Node000000_Node000001"><a xlink:title=" ">
<path fill="none" stroke="#63b8ff" d="M88.98,-216.94C108.48,-222.2 131.42,-228.4 150.57,-233.56"/>
<polygon fill="#63b8ff" stroke="#63b8ff" points="90.12,-213.35 79.55,-214.13 88.3,-220.11 90.12,-213.35"/>
</a>
</g>
</g>
<!-- Node2 -->
<g id="Node000002" class="node">
<title>Node2</title>
<g id="a_Node000002"><a xlink:href="classConvectionSystemUTW.html" target="_top" xlink:title="System representing the coupled convection equations for U, T, and Wmx.">
<polygon fill="white" stroke="#666666" points="257,-176.75 126.25,-176.75 126.25,-156 257,-156 257,-176.75"/>
<text text-anchor="middle" x="191.62" y="-163.25" font-family="FreeSans" font-size="10.00">ConvectionSystemUTW</text>
</a>
</g>
</g>
<!-- Node0&#45;&gt;Node2 -->
<g id="edge5_Node000000_Node000002" class="edge">
<title>Node0&#45;&gt;Node2</title>
<g id="a_edge5_Node000000_Node000002"><a xlink:title=" ">
<path fill="none" stroke="#63b8ff" d="M88.98,-193.81C108.48,-188.55 131.42,-182.35 150.57,-177.19"/>
<polygon fill="#63b8ff" stroke="#63b8ff" points="88.3,-190.64 79.55,-196.62 90.12,-197.4 88.3,-190.64"/>
</a>
</g>
</g>
<!-- Node4 -->
<g id="Node000004" class="node">
<title>Node4</title>
<g id="a_Node000004"><a xlink:href="classConvectionSystemY.html" target="_top" xlink:title="System representing the convection equation for a single species.">
<polygon fill="white" stroke="#666666" points="248.38,-215.75 134.88,-215.75 134.88,-195 248.38,-195 248.38,-215.75"/>
<text text-anchor="middle" x="191.62" y="-202.25" font-family="FreeSans" font-size="10.00">ConvectionSystemY</text>
</a>
</g>
</g>
<!-- Node0&#45;&gt;Node4 -->
<g id="edge6_Node000000_Node000004" class="edge">
<title>Node0&#45;&gt;Node4</title>
<g id="a_edge6_Node000000_Node000004"><a xlink:title=" ">
<path fill="none" stroke="#63b8ff" d="M89.46,-205.38C103.61,-205.38 119.52,-205.38 134.46,-205.38"/>
<polygon fill="#63b8ff" stroke="#63b8ff" points="89.55,-201.88 79.55,-205.38 89.55,-208.88 89.55,-201.88"/>
</a>
</g>
</g>
<!-- Node9 -->
<g id="Node000009" class="node">
<title>Node9</title>
<g id="a_Node000009"><a xlink:href="classDiffusionSystem.html" target="_top" xlink:title="System representing diffusion of a single solution component.">
<polygon fill="white" stroke="#666666" points="239.75,-137.75 143.5,-137.75 143.5,-117 239.75,-117 239.75,-137.75"/>
<text text-anchor="middle" x="191.62" y="-124.25" font-family="FreeSans" font-size="10.00">DiffusionSystem</text>
</a>
</g>
</g>
<!-- Node0&#45;&gt;Node9 -->
<g id="edge7_Node000000_Node000009" class="edge">
<title>Node0&#45;&gt;Node9</title>
<g id="a_edge7_Node000000_Node000009"><a xlink:title=" ">
<path fill="none" stroke="#63b8ff" d="M83.68,-189.61C85.96,-188.27 88.17,-186.86 90.25,-185.38 109.2,-171.88 106.5,-159.67 126.25,-147.38 132.11,-143.73 138.69,-140.7 145.35,-138.19"/>
<polygon fill="#63b8ff" stroke="#63b8ff" points="82.3,-186.91 75.1,-194.68 85.57,-193.1 82.3,-186.91"/>
</a>
</g>
</g>
<!-- Node11 -->
<g id="Node000011" class="node">
<title>Node11</title>
<g id="a_Node000011"><a xlink:href="classFlameSolver.html" target="_top" xlink:title="Class which manages the main integration loop.">
<polygon fill="white" stroke="#666666" points="230.38,-98.75 152.88,-98.75 152.88,-78 230.38,-78 230.38,-98.75"/>
<text text-anchor="middle" x="191.62" y="-85.25" font-family="FreeSans" font-size="10.00">FlameSolver</text>
</a>
</g>
</g>
<!-- Node0&#45;&gt;Node11 -->
<g id="edge8_Node000000_Node000011" class="edge">
<title>Node0&#45;&gt;Node11</title>
<g id="a_edge8_Node000000_Node000011"><a xlink:title=" ">
<path fill="none" stroke="#63b8ff" d="M86.56,-188.64C87.85,-187.61 89.09,-186.52 90.25,-185.38 117.12,-158.82 97.78,-133.21 126.25,-108.38 133.66,-101.91 143.14,-97.54 152.53,-94.58"/>
<polygon fill="#63b8ff" stroke="#63b8ff" points="84.82,-186.25 78.35,-194.64 88.64,-192.11 84.82,-186.25"/>
</a>
</g>
</g>
<!-- Node8 -->
<g id="Node000008" class="node">
<title>Node8</title>
<g id="a_Node000008"><a xlink:href="classQssOde.html" target="_top" xlink:title="An ODE to be solved by QssIntegrator.">
<polygon fill="white" stroke="#666666" points="71.88,-20.75 18.37,-20.75 18.37,0 71.88,0 71.88,-20.75"/>
<text text-anchor="middle" x="45.12" y="-7.25" font-family="FreeSans" font-size="10.00">QssOde</text>
</a>
</g>
</g>
<!-- Node7 -->
<g id="Node000007" class="node">
<title>Node7</title>
<g id="a_Node000007"><a xlink:href="classSourceSystemQSS.html" target="_top" xlink:title="This is the system representing the (chemical) source term at a point, integrated with the QssIntegra...">
<polygon fill="white" stroke="#666666" points="244.25,-20.75 139,-20.75 139,0 244.25,0 244.25,-20.75"/>
<text text-anchor="middle" x="191.62" y="-7.25" font-family="FreeSans" font-size="10.00">SourceSystemQSS</text>
</a>
</g>
</g>
<!-- Node8&#45;&gt;Node7 -->
<g id="edge9_Node000008_Node000007" class="edge">
<title>Node8&#45;&gt;Node7</title>
<g id="a_edge9_Node000008_Node000007"><a xlink:title=" ">
<path fill="none" stroke="#8b1a1a" d="M82.86,-10.38C99.77,-10.38 120.15,-10.38 138.61,-10.38"/>
<polygon fill="#8b1a1a" stroke="#8b1a1a" points="83.29,-6.88 73.29,-10.38 83.29,-13.88 83.29,-6.88"/>
</a>
</g>
</g>
<!-- Node3 -->
<g id="Node000003" class="node">
<title>Node3</title>
<g id="a_Node000003"><a xlink:href="classsdODE.html" target="_top" xlink:title="Abstract base class for an ODE to be integrated by SundialsCvode.">
<polygon fill="white" stroke="#666666" points="69.25,-176.75 21,-176.75 21,-156 69.25,-156 69.25,-176.75"/>
<text text-anchor="middle" x="45.12" y="-163.25" font-family="FreeSans" font-size="10.00">sdODE</text>
</a>
</g>
</g>
<!-- Node3&#45;&gt;Node2 -->
<g id="edge10_Node000003_Node000002" class="edge">
<title>Node3&#45;&gt;Node2</title>
<g id="a_edge10_Node000003_Node000002"><a xlink:title=" ">
<path fill="none" stroke="#63b8ff" d="M80.46,-166.38C94.1,-166.38 110.26,-166.38 125.93,-166.38"/>
<polygon fill="#63b8ff" stroke="#63b8ff" points="80.66,-162.88 70.66,-166.38 80.66,-169.88 80.66,-162.88"/>
</a>
</g>
</g>
<!-- Node3&#45;&gt;Node4 -->
<g id="edge11_Node000003_Node000004" class="edge">
<title>Node3&#45;&gt;Node4</title>
<g id="a_edge11_Node000003_Node000004"><a xlink:title=" ">
<path fill="none" stroke="#63b8ff" d="M80.06,-175.53C101.12,-181.22 128.29,-188.55 150.43,-194.53"/>
<polygon fill="#63b8ff" stroke="#63b8ff" points="81.23,-171.95 70.66,-172.73 79.41,-178.71 81.23,-171.95"/>
</a>
</g>
</g>
<!-- Node5 -->
<g id="Node000005" class="node">
<title>Node5</title>
<g id="a_Node000005"><a xlink:href="classSourceSystemCVODE.html" target="_top" xlink:title="Represents a system of equations used to integrate the (chemical) source term at a single point using...">
<polygon fill="white" stroke="#666666" points="251.75,-59.75 131.5,-59.75 131.5,-39 251.75,-39 251.75,-59.75"/>
<text text-anchor="middle" x="191.62" y="-46.25" font-family="FreeSans" font-size="10.00">SourceSystemCVODE</text>
</a>
</g>
</g>
<!-- Node3&#45;&gt;Node5 -->
<g id="edge12_Node000003_Node000005" class="edge">
<title>Node3&#45;&gt;Node5</title>
<g id="a_edge12_Node000003_Node000005"><a xlink:title=" ">
<path fill="none" stroke="#8b1a1a" d="M79.15,-154.63C83.19,-152.3 87.02,-149.57 90.25,-146.38 117.12,-119.82 97.78,-94.21 126.25,-69.38 130.48,-65.68 135.39,-62.67 140.57,-60.22"/>
<polygon fill="#8b1a1a" stroke="#8b1a1a" points="77.99,-151.8 70.56,-159.35 81.08,-158.08 77.99,-151.8"/>
</a>
</g>
</g>
<!-- Node6 -->
<g id="Node000006" class="node">
<title>Node6</title>
<g id="a_Node000006"><a xlink:href="classSourceSystem.html" target="_top" xlink:title="Base class used to integrate the chemical source term at a single point.">
<polygon fill="white" stroke="#666666" points="88,-59.75 2.25,-59.75 2.25,-39 88,-39 88,-59.75"/>
<text text-anchor="middle" x="45.12" y="-46.25" font-family="FreeSans" font-size="10.00">SourceSystem</text>
</a>
</g>
</g>
<!-- Node6&#45;&gt;Node7 -->
<g id="edge14_Node000006_Node000007" class="edge">
<title>Node6&#45;&gt;Node7</title>
<g id="a_edge14_Node000006_Node000007"><a xlink:title=" ">
<path fill="none" stroke="#63b8ff" d="M96.99,-35.65C114.48,-30.93 133.81,-25.71 150.34,-21.25"/>
<polygon fill="#63b8ff" stroke="#63b8ff" points="96.12,-32.53 87.38,-38.51 97.94,-39.28 96.12,-32.53"/>
</a>
</g>
</g>
<!-- Node6&#45;&gt;Node5 -->
<g id="edge13_Node000006_Node000005" class="edge">
<title>Node6&#45;&gt;Node5</title>
<g id="a_edge13_Node000006_Node000005"><a xlink:title=" ">
<path fill="none" stroke="#63b8ff" d="M99.31,-49.38C109.69,-49.38 120.64,-49.38 131.21,-49.38"/>
<polygon fill="#63b8ff" stroke="#63b8ff" points="99.31,-45.88 89.31,-49.38 99.31,-52.88 99.31,-45.88"/>
</a>
</g>
</g>
<!-- Node12 -->
<g id="Node000012" class="node">
<title>Node12</title>
<g id="a_Node000012"><a xlink:href="classSplitSolver.html" target="_top" xlink:title="Implements operator split integration for reacting flow problems.">
<polygon fill="white" stroke="#666666" points="79.38,-98.75 10.88,-98.75 10.88,-78 79.38,-78 79.38,-98.75"/>
<text text-anchor="middle" x="45.12" y="-85.25" font-family="FreeSans" font-size="10.00">SplitSolver</text>
</a>
</g>
</g>
<!-- Node12&#45;&gt;Node11 -->
<g id="edge15_Node000012_Node000011" class="edge">
<title>Node12&#45;&gt;Node11</title>
<g id="a_edge15_Node000012_Node000011"><a xlink:title=" ">
<path fill="none" stroke="#63b8ff" d="M90.56,-88.38C110.35,-88.38 133.44,-88.38 152.45,-88.38"/>
<polygon fill="#63b8ff" stroke="#63b8ff" points="90.64,-84.88 80.64,-88.38 90.64,-91.88 90.64,-84.88"/>
</a>
</g>
</g>
<!-- Node10 -->
<g id="Node000010" class="node">
<title>Node10</title>
<g id="a_Node000010"><a xlink:href="classTridiagonalODE.html" target="_top" xlink:title="A system of linear ODEs represented by a tridiagonal matrix.">
<polygon fill="white" stroke="#666666" points="90.25,-137.75 0,-137.75 0,-117 90.25,-117 90.25,-137.75"/>
<text text-anchor="middle" x="45.12" y="-124.25" font-family="FreeSans" font-size="10.00">TridiagonalODE</text>
</a>
</g>
</g>
<!-- Node10&#45;&gt;Node9 -->
<g id="edge16_Node000010_Node000009" class="edge">
<title>Node10&#45;&gt;Node9</title>
<g id="a_edge16_Node000010_Node000009"><a xlink:title=" ">
<path fill="none" stroke="#63b8ff" d="M101.47,-127.38C115.24,-127.38 129.88,-127.38 143.23,-127.38"/>
<polygon fill="#63b8ff" stroke="#63b8ff" points="101.66,-123.88 91.66,-127.38 101.66,-130.88 101.66,-123.88"/>
</a>
</g>
</g>
</g>
</svg>
