<?xml version="1.0" encoding="UTF-8" standalone="no"?>
<!DOCTYPE svg PUBLIC "-//W3C//DTD SVG 1.1//EN"
 "http://www.w3.org/Graphics/SVG/1.1/DTD/svg11.dtd">
<!-- Generated by graphviz version 2.28.0 (20120425.2022)
 -->
<!-- Title: G Pages: 1 -->
<svg width="260pt" height="256pt"
 viewBox="0.00 0.00 260.00 256.00" xmlns="http://www.w3.org/2000/svg" xmlns:xlink="http://www.w3.org/1999/xlink">
<g id="graph1" class="graph" transform="scale(1 1) rotate(0) translate(4 252)">
<title>G</title>
<polygon fill="white" stroke="white" points="-4,5 -4,-252 257,-252 257,5 -4,5"/>
<!-- Node1 -->
<g id="node1" class="node"><title>Node1</title>
<a xlink:href="classGridBased.html" target="_top" xlink:title="GridBased">
<polygon fill="white" stroke="black" points="12,-152.5 12,-171.5 78,-171.5 78,-152.5 12,-152.5"/>
<text text-anchor="middle" x="45" y="-159.5" font-family="FreeSans" font-size="10.00">GridBased</text>
</a>
</g>
<!-- Node2 -->
<g id="node3" class="node"><title>Node2</title>
<a xlink:href="classConvectionSystemSplit.html" target="_top" xlink:title="ConvectionSystemSplit">
<polygon fill="white" stroke="black" points="129,-190.5 129,-209.5 249,-209.5 249,-190.5 129,-190.5"/>
<text text-anchor="middle" x="189" y="-197.5" font-family="FreeSans" font-size="10.00">ConvectionSystemSplit</text>
</a>
</g>
<!-- Node1&#45;&gt;Node2 -->
<g id="edge2" class="edge"><title>Node1&#45;&gt;Node2</title>
<path fill="none" stroke="midnightblue" d="M87.9332,-173.222C108.433,-178.707 132.839,-185.239 152.416,-190.478"/>
<polygon fill="midnightblue" stroke="midnightblue" points="88.7869,-169.827 78.222,-170.623 86.9773,-176.589 88.7869,-169.827"/>
</g>
<!-- Node3 -->
<g id="node5" class="node"><title>Node3</title>
<a xlink:href="classConvectionSystemUTW.html" target="_top" xlink:title="ConvectionSystemUTW">
<polygon fill="white" stroke="black" points="126.5,-114.5 126.5,-133.5 251.5,-133.5 251.5,-114.5 126.5,-114.5"/>
<text text-anchor="middle" x="189" y="-121.5" font-family="FreeSans" font-size="10.00">ConvectionSystemUTW</text>
</a>
</g>
<!-- Node1&#45;&gt;Node3 -->
<g id="edge4" class="edge"><title>Node1&#45;&gt;Node3</title>
<path fill="none" stroke="midnightblue" d="M87.9332,-150.778C108.433,-145.293 132.839,-138.761 152.416,-133.522"/>
<polygon fill="midnightblue" stroke="midnightblue" points="86.9773,-147.411 78.222,-153.377 88.7869,-154.173 86.9773,-147.411"/>
</g>
<!-- Node4 -->
<g id="node7" class="node"><title>Node4</title>
<a xlink:href="classConvectionSystemY.html" target="_top" xlink:title="ConvectionSystemY">
<polygon fill="white" stroke="black" points="135,-152.5 135,-171.5 243,-171.5 243,-152.5 135,-152.5"/>
<text text-anchor="middle" x="189" y="-159.5" font-family="FreeSans" font-size="10.00">ConvectionSystemY</text>
</a>
</g>
<!-- Node1&#45;&gt;Node4 -->
<g id="edge6" class="edge"><title>Node1&#45;&gt;Node4</title>
<path fill="none" stroke="midnightblue" d="M88.4309,-162C102.978,-162 119.445,-162 134.739,-162"/>
<polygon fill="midnightblue" stroke="midnightblue" points="88.222,-158.5 78.222,-162 88.222,-165.5 88.222,-158.5"/>
</g>
<!-- Node5 -->
<g id="node9" class="node"><title>Node5</title>
<a xlink:href="classDiffusionSystem.html" target="_top" xlink:title="System representing diffusion of a single solution component.">
<polygon fill="white" stroke="black" points="144.5,-76.5 144.5,-95.5 233.5,-95.5 233.5,-76.5 144.5,-76.5"/>
<text text-anchor="middle" x="189" y="-83.5" font-family="FreeSans" font-size="10.00">DiffusionSystem</text>
</a>
</g>
<!-- Node1&#45;&gt;Node5 -->
<g id="edge8" class="edge"><title>Node1&#45;&gt;Node5</title>
<path fill="none" stroke="midnightblue" d="M82.0108,-147.925C84.791,-146.398 87.4894,-144.755 90,-143 109.068,-129.672 106.226,-117.257 126,-105 132.22,-101.145 139.278,-98.0222 146.348,-95.509"/>
<polygon fill="midnightblue" stroke="midnightblue" points="80.3853,-144.824 72.9814,-152.403 83.4953,-151.095 80.3853,-144.824"/>
</g>
<!-- Node6 -->
<g id="node11" class="node"><title>Node6</title>
<a xlink:href="classFlameSolver.html" target="_top" xlink:title="Class which manages the main integration loop.">
<polygon fill="white" stroke="black" points="152,-228.5 152,-247.5 226,-247.5 226,-228.5 152,-228.5"/>
<text text-anchor="middle" x="189" y="-235.5" font-family="FreeSans" font-size="10.00">FlameSolver</text>
</a>
</g>
<!-- Node1&#45;&gt;Node6 -->
<g id="edge10" class="edge"><title>Node1&#45;&gt;Node6</title>
<path fill="none" stroke="midnightblue" d="M64.7237,-178.001C80.2705,-190.609 103.417,-207.861 126,-219 134.077,-222.984 143.161,-226.333 151.833,-229.056"/>
<polygon fill="midnightblue" stroke="midnightblue" points="66.8556,-175.223 56.9202,-171.543 62.3926,-180.615 66.8556,-175.223"/>
</g>
<!-- Node7 -->
<g id="node12" class="node"><title>Node7</title>
<a xlink:href="classQssOde.html" target="_top" xlink:title="QssOde">
<polygon fill="white" stroke="black" points="18,-0.5 18,-19.5 72,-19.5 72,-0.5 18,-0.5"/>
<text text-anchor="middle" x="45" y="-7.5" font-family="FreeSans" font-size="10.00">QssOde</text>
</a>
</g>
<!-- Node8 -->
<g id="node14" class="node"><title>Node8</title>
<a xlink:href="classSourceSystemQSS.html" target="_top" xlink:title="This is the system representing the (chemical) source term at a point, integrated with the QSSIntegra...">
<polygon fill="white" stroke="black" points="137,-0.5 137,-19.5 241,-19.5 241,-0.5 137,-0.5"/>
<text text-anchor="middle" x="189" y="-7.5" font-family="FreeSans" font-size="10.00">SourceSystemQSS</text>
</a>
</g>
<!-- Node7&#45;&gt;Node8 -->
<g id="edge12" class="edge"><title>Node7&#45;&gt;Node8</title>
<path fill="none" stroke="#8b1a1a" d="M82.3861,-10C98.9326,-10 118.8,-10 136.816,-10"/>
<polygon fill="#8b1a1a" stroke="#8b1a1a" points="82.045,-6.5001 72.045,-10 82.045,-13.5001 82.045,-6.5001"/>
</g>
<!-- Node9 -->
<g id="node15" class="node"><title>Node9</title>
<a xlink:href="classsdODE.html" target="_top" xlink:title="sdODE">
<polygon fill="white" stroke="black" points="20.5,-114.5 20.5,-133.5 69.5,-133.5 69.5,-114.5 20.5,-114.5"/>
<text text-anchor="middle" x="45" y="-121.5" font-family="FreeSans" font-size="10.00">sdODE</text>
</a>
</g>
<!-- Node9&#45;&gt;Node3 -->
<g id="edge14" class="edge"><title>Node9&#45;&gt;Node3</title>
<path fill="none" stroke="midnightblue" d="M79.8757,-124C93.8461,-124 110.485,-124 126.471,-124"/>
<polygon fill="midnightblue" stroke="midnightblue" points="79.7676,-120.5 69.7676,-124 79.7676,-127.5 79.7676,-120.5"/>
</g>
<!-- Node9&#45;&gt;Node4 -->
<g id="edge16" class="edge"><title>Node9&#45;&gt;Node4</title>
<path fill="none" stroke="midnightblue" d="M79.632,-133C101.555,-138.867 130.126,-146.512 152.427,-152.48"/>
<polygon fill="midnightblue" stroke="midnightblue" points="80.3325,-129.564 69.7676,-130.36 78.5229,-136.327 80.3325,-129.564"/>
</g>
<!-- Node10 -->
<g id="node19" class="node"><title>Node10</title>
<a xlink:href="classSourceSystemCVODE.html" target="_top" xlink:title="Represents a system of equations used to integrate the (chemical) source term at a single point using...">
<polygon fill="white" stroke="black" points="131,-38.5 131,-57.5 247,-57.5 247,-38.5 131,-38.5"/>
<text text-anchor="middle" x="189" y="-45.5" font-family="FreeSans" font-size="10.00">SourceSystemCVODE</text>
</a>
</g>
<!-- Node9&#45;&gt;Node10 -->
<g id="edge18" class="edge"><title>Node9&#45;&gt;Node10</title>
<path fill="none" stroke="#8b1a1a" d="M78.8523,-111.595C82.7397,-109.615 86.5474,-107.413 90,-105 109.068,-91.6721 106.226,-79.2569 126,-67 132.22,-63.1447 139.278,-60.0222 146.348,-57.509"/>
<polygon fill="#8b1a1a" stroke="#8b1a1a" points="77.3678,-108.425 69.7666,-115.805 80.3113,-114.776 77.3678,-108.425"/>
</g>
<!-- Node11 -->
<g id="node20" class="node"><title>Node11</title>
<a xlink:href="classSourceSystem.html" target="_top" xlink:title="Base class used to integrate the chemical source term at a single point.">
<polygon fill="white" stroke="black" points="3.5,-38.5 3.5,-57.5 86.5,-57.5 86.5,-38.5 3.5,-38.5"/>
<text text-anchor="middle" x="45" y="-45.5" font-family="FreeSans" font-size="10.00">SourceSystem</text>
</a>
</g>
<!-- Node11&#45;&gt;Node8 -->
<g id="edge22" class="edge"><title>Node11&#45;&gt;Node8</title>
<path fill="none" stroke="midnightblue" d="M91.4929,-35.8258C111.128,-30.5713 133.766,-24.5134 152.179,-19.5859"/>
<polygon fill="midnightblue" stroke="midnightblue" points="90.5879,-32.4448 81.8326,-38.411 92.3975,-39.2069 90.5879,-32.4448"/>
</g>
<!-- Node11&#45;&gt;Node10 -->
<g id="edge20" class="edge"><title>Node11&#45;&gt;Node10</title>
<path fill="none" stroke="midnightblue" d="M96.986,-48C107.986,-48 119.685,-48 130.902,-48"/>
<polygon fill="midnightblue" stroke="midnightblue" points="96.6915,-44.5001 86.6915,-48 96.6915,-51.5001 96.6915,-44.5001"/>
</g>
<!-- Node12 -->
<g id="node23" class="node"><title>Node12</title>
<a xlink:href="classTridiagonalODE.html" target="_top" xlink:title="A system of linear ODEs represented by a tridiagonal matrix.">
<polygon fill="white" stroke="black" points="0.5,-76.5 0.5,-95.5 89.5,-95.5 89.5,-76.5 0.5,-76.5"/>
<text text-anchor="middle" x="45" y="-83.5" font-family="FreeSans" font-size="10.00">TridiagonalODE</text>
</a>
</g>
<!-- Node12&#45;&gt;Node5 -->
<g id="edge24" class="edge"><title>Node12&#45;&gt;Node5</title>
<path fill="none" stroke="midnightblue" d="M100.138,-86C114.682,-86 130.227,-86 144.137,-86"/>
<polygon fill="midnightblue" stroke="midnightblue" points="99.7634,-82.5001 89.7634,-86 99.7633,-89.5001 99.7634,-82.5001"/>
</g>
</g>
</svg>
