<?xml version="1.0" encoding="UTF-8" standalone="no"?>
<!DOCTYPE svg PUBLIC "-//W3C//DTD SVG 1.1//EN"
 "http://www.w3.org/Graphics/SVG/1.1/DTD/svg11.dtd">
<!-- Generated by graphviz version 2.38.0 (20140413.2041)
 -->
<!-- Title: Graphical Class Hierarchy Pages: 1 -->
<svg width="205pt" height="66pt"
 viewBox="0.00 0.00 205.00 66.00" xmlns="http://www.w3.org/2000/svg" xmlns:xlink="http://www.w3.org/1999/xlink">
<g id="graph0" class="graph" transform="scale(1 1) rotate(0) translate(4 62)">
<title>Graphical Class Hierarchy</title>
<polygon fill="white" stroke="none" points="-4,4 -4,-62 201,-62 201,4 -4,4"/>
<!-- Node1 -->
<g id="node1" class="node"><title>Node1</title>
<g id="a_node1"><a xlink:title="STL class. ">
<polygon fill="white" stroke="#bfbfbf" points="0,-19.5 0,-38.5 75,-38.5 75,-19.5 0,-19.5"/>
<text text-anchor="middle" x="37.5" y="-26.5" font-family="FreeSans" font-size="10.00">std::exception</text>
</a>
</g>
</g>
<!-- Node2 -->
<g id="node2" class="node"><title>Node2</title>
<g id="a_node2"><a xlink:href="classCallbackError.html" target="_top" xlink:title="CallbackError">
<polygon fill="white" stroke="black" points="117,-38.5 117,-57.5 191,-57.5 191,-38.5 117,-38.5"/>
<text text-anchor="middle" x="154" y="-45.5" font-family="FreeSans" font-size="10.00">CallbackError</text>
</a>
</g>
</g>
<!-- Node1&#45;&gt;Node2 -->
<g id="edge1" class="edge"><title>Node1&#45;&gt;Node2</title>
<path fill="none" stroke="midnightblue" d="M84.9997,-36.7161C95.5992,-38.475 106.709,-40.3185 116.803,-41.9936"/>
<polygon fill="midnightblue" stroke="midnightblue" points="85.4814,-33.2483 75.0433,-35.064 84.3354,-40.1538 85.4814,-33.2483"/>
</g>
<!-- Node3 -->
<g id="node3" class="node"><title>Node3</title>
<g id="a_node3"><a xlink:href="classDebugException.html" target="_top" xlink:title="Class for exceptions raised by Ember. ">
<polygon fill="white" stroke="black" points="111,-0.5 111,-19.5 197,-19.5 197,-0.5 111,-0.5"/>
<text text-anchor="middle" x="154" y="-7.5" font-family="FreeSans" font-size="10.00">DebugException</text>
</a>
</g>
</g>
<!-- Node1&#45;&gt;Node3 -->
<g id="edge2" class="edge"><title>Node1&#45;&gt;Node3</title>
<path fill="none" stroke="midnightblue" d="M85.1829,-21.2535C93.6691,-19.8453 102.476,-18.3839 110.823,-16.9988"/>
<polygon fill="midnightblue" stroke="midnightblue" points="84.3354,-17.8462 75.0433,-22.936 85.4814,-24.7517 84.3354,-17.8462"/>
</g>
</g>
</svg>
