<?xml version="1.0" encoding="UTF-8" standalone="no"?>
<!DOCTYPE svg PUBLIC "-//W3C//DTD SVG 1.1//EN"
 "http://www.w3.org/Graphics/SVG/1.1/DTD/svg11.dtd">
<!-- Generated by graphviz version 2.38.0 (20140413.2041)
 -->
<!-- Title: Graphical Class Hierarchy Pages: 1 -->
<svg width="207pt" height="66pt"
 viewBox="0.00 0.00 207.00 66.00" xmlns="http://www.w3.org/2000/svg" xmlns:xlink="http://www.w3.org/1999/xlink">
<g id="graph0" class="graph" transform="scale(1 1) rotate(0) translate(4 62)">
<title>Graphical Class Hierarchy</title>
<polygon fill="white" stroke="none" points="-4,4 -4,-62 203,-62 203,4 -4,4"/>
<!-- Node1 -->
<g id="node1" class="node"><title>Node1</title>
<g id="a_node1"><a xlink:href="classIntegrator.html" target="_top" xlink:title="Abstract base class for an ODE integrator that can integrate instances of class ODE. ">
<polygon fill="white" stroke="black" points="0,-19.5 0,-38.5 58,-38.5 58,-19.5 0,-19.5"/>
<text text-anchor="middle" x="29" y="-26.5" font-family="FreeSans" font-size="10.00">Integrator</text>
</a>
</g>
</g>
<!-- Node2 -->
<g id="node2" class="node"><title>Node2</title>
<g id="a_node2"><a xlink:href="classExplicitIntegrator.html" target="_top" xlink:title="Integrates an ODE defined as ydot = f(t,y) using the explicit Euler method. ">
<polygon fill="white" stroke="black" points="102,-38.5 102,-57.5 191,-57.5 191,-38.5 102,-38.5"/>
<text text-anchor="middle" x="146.5" y="-45.5" font-family="FreeSans" font-size="10.00">ExplicitIntegrator</text>
</a>
</g>
</g>
<!-- Node1&#45;&gt;Node2 -->
<g id="edge1" class="edge"><title>Node1&#45;&gt;Node2</title>
<path fill="none" stroke="midnightblue" d="M68.194,-35.283C78.9487,-37.0522 90.7293,-38.9901 101.78,-40.808"/>
<polygon fill="midnightblue" stroke="midnightblue" points="68.69,-31.8176 58.2545,-33.6479 67.5537,-38.7248 68.69,-31.8176"/>
</g>
<!-- Node3 -->
<g id="node3" class="node"><title>Node3</title>
<g id="a_node3"><a xlink:href="classTridiagonalIntegrator.html" target="_top" xlink:title="Integrator using 1st and 2nd order BDF for tridiagonal systems, with matrix inversions done using the...">
<polygon fill="white" stroke="black" points="94,-0.5 94,-19.5 199,-19.5 199,-0.5 94,-0.5"/>
<text text-anchor="middle" x="146.5" y="-7.5" font-family="FreeSans" font-size="10.00">TridiagonalIntegrator</text>
</a>
</g>
</g>
<!-- Node1&#45;&gt;Node3 -->
<g id="edge2" class="edge"><title>Node1&#45;&gt;Node3</title>
<path fill="none" stroke="midnightblue" d="M68.2008,-22.7159C76.3469,-21.3758 85.0813,-19.939 93.6414,-18.5309"/>
<polygon fill="midnightblue" stroke="midnightblue" points="67.5537,-19.2752 58.2545,-24.3521 68.69,-26.1824 67.5537,-19.2752"/>
</g>
</g>
</svg>
