<?xml version="1.0" encoding="UTF-8" standalone="no"?>
<!DOCTYPE svg PUBLIC "-//W3C//DTD SVG 1.1//EN"
 "http://www.w3.org/Graphics/SVG/1.1/DTD/svg11.dtd">
<!-- Generated by graphviz version 2.26.3 (20100126.1600)
 -->
<!-- Title: Graphical Class Hierarchy Pages: 1 -->
<svg width="208pt" height="66pt"
 viewBox="0.00 0.00 208.00 66.00" xmlns="http://www.w3.org/2000/svg" xmlns:xlink="http://www.w3.org/1999/xlink">
<g id="graph1" class="graph" transform="scale(1 1) rotate(0) translate(4 62)">
<title>Graphical Class Hierarchy</title>
<polygon fill="white" stroke="white" points="-4,5 -4,-62 205,-62 205,5 -4,5"/>
<!-- Node1 -->
<g id="node1" class="node"><title>Node1</title>
<a xlink:href="classIntegrator.html" target="_top" xlink:title="Abstract base class for an ODE integrator that can integrate instances of class ODE. ">
<polygon fill="white" stroke="black" points="0,-19 0,-39 58,-39 58,-19 0,-19"/>
<text text-anchor="middle" x="29" y="-26" font-family="FreeSans" font-size="10.00">Integrator</text>
</a>
</g>
<!-- Node2 -->
<g id="node3" class="node"><title>Node2</title>
<a xlink:href="classExplicitIntegrator.html" target="_top" xlink:title="Integrates an ODE defined as ydot = f(t,y) using the explicit Euler method. ">
<polygon fill="white" stroke="black" points="102.5,-38 102.5,-58 191.5,-58 191.5,-38 102.5,-38"/>
<text text-anchor="middle" x="147" y="-45" font-family="FreeSans" font-size="10.00">ExplicitIntegrator</text>
</a>
</g>
<!-- Node1&#45;&gt;Node2 -->
<g id="edge2" class="edge"><title>Node1&#45;&gt;Node2</title>
<path fill="none" stroke="midnightblue" d="M68.2107,-35.3136C79.0666,-37.0616 90.9334,-38.9723 102.087,-40.7682"/>
<polygon fill="midnightblue" stroke="midnightblue" points="68.5978,-31.8309 58.1685,-33.6966 67.485,-38.7419 68.5978,-31.8309"/>
</g>
<!-- Node3 -->
<g id="node5" class="node"><title>Node3</title>
<a xlink:href="classTridiagonalIntegrator.html" target="_top" xlink:title="Integrator using 1st and 2nd order BDF for tridiagonal systems, with matrix inversions done using the...">
<polygon fill="white" stroke="black" points="94.5,-0 94.5,-20 199.5,-20 199.5,-0 94.5,-0"/>
<text text-anchor="middle" x="147" y="-7" font-family="FreeSans" font-size="10.00">TridiagonalIntegrator</text>
</a>
</g>
<!-- Node1&#45;&gt;Node3 -->
<g id="edge4" class="edge"><title>Node1&#45;&gt;Node3</title>
<path fill="none" stroke="midnightblue" d="M68.0481,-22.7126C76.4397,-21.3614 85.4417,-19.9119 94.2554,-18.4928"/>
<polygon fill="midnightblue" stroke="midnightblue" points="67.485,-19.2581 58.1685,-24.3034 68.5978,-26.1691 67.485,-19.2581"/>
</g>
</g>
</svg>
