<?xml version="1.0" encoding="UTF-8" standalone="no"?>
<!DOCTYPE svg PUBLIC "-//W3C//DTD SVG 1.1//EN"
 "http://www.w3.org/Graphics/SVG/1.1/DTD/svg11.dtd">
<!-- Generated by graphviz version 2.26.3 (20100126.1600)
 -->
<!-- Title: Graphical Class Hierarchy Pages: 1 -->
<svg width="206pt" height="66pt"
 viewBox="0.00 0.00 206.00 66.00" xmlns="http://www.w3.org/2000/svg" xmlns:xlink="http://www.w3.org/1999/xlink">
<g id="graph1" class="graph" transform="scale(1 1) rotate(0) translate(4 62)">
<title>Graphical Class Hierarchy</title>
<polygon fill="white" stroke="white" points="-4,5 -4,-62 203,-62 203,5 -4,5"/>
<!-- Node1 -->
<g id="node1" class="node"><title>Node1</title>
<a xlink:title="STL class. ">
<polygon fill="white" stroke="#bfbfbf" points="0.5,-19 0.5,-39 75.5,-39 75.5,-19 0.5,-19"/>
<text text-anchor="middle" x="38" y="-26" font-family="FreeSans" font-size="10.00">std::exception</text>
</a>
</g>
<!-- Node2 -->
<g id="node3" class="node"><title>Node2</title>
<a xlink:href="classCallbackError.html" target="_top" xlink:title="CallbackError">
<polygon fill="white" stroke="black" points="118,-38 118,-58 192,-58 192,-38 118,-38"/>
<text text-anchor="middle" x="155" y="-45" font-family="FreeSans" font-size="10.00">CallbackError</text>
</a>
</g>
<!-- Node1&#45;&gt;Node2 -->
<g id="edge2" class="edge"><title>Node1&#45;&gt;Node2</title>
<path fill="none" stroke="midnightblue" d="M85.7183,-36.7491C96.4158,-38.4863 107.612,-40.3044 117.807,-41.9601"/>
<polygon fill="midnightblue" stroke="midnightblue" points="86.0953,-33.2646 75.6636,-35.1163 84.9732,-40.1741 86.0953,-33.2646"/>
</g>
<!-- Node3 -->
<g id="node5" class="node"><title>Node3</title>
<a xlink:href="classDebugException.html" target="_top" xlink:title="Class for exceptions raised by Ember. ">
<polygon fill="white" stroke="black" points="112,-0 112,-20 198,-20 198,-0 112,-0"/>
<text text-anchor="middle" x="155" y="-7" font-family="FreeSans" font-size="10.00">DebugException</text>
</a>
</g>
<!-- Node1&#45;&gt;Node3 -->
<g id="edge4" class="edge"><title>Node1&#45;&gt;Node3</title>
<path fill="none" stroke="midnightblue" d="M85.6037,-21.2695C94.24,-19.867 103.205,-18.4112 111.709,-17.0302"/>
<polygon fill="midnightblue" stroke="midnightblue" points="84.9732,-17.8259 75.6636,-22.8837 86.0953,-24.7354 84.9732,-17.8259"/>
</g>
</g>
</svg>
