<?xml version="1.0" encoding="UTF-8" standalone="no"?>
<!DOCTYPE svg PUBLIC "-//W3C//DTD SVG 1.1//EN"
 "http://www.w3.org/Graphics/SVG/1.1/DTD/svg11.dtd">
<!-- Generated by graphviz version 2.28.0 (20120425.2022)
 -->
<!-- Title: Graphical Class Hierarchy Pages: 1 -->
<svg width="254pt" height="66pt"
 viewBox="0.00 0.00 254.00 66.00" xmlns="http://www.w3.org/2000/svg" xmlns:xlink="http://www.w3.org/1999/xlink">
<g id="graph1" class="graph" transform="scale(1 1) rotate(0) translate(4 62)">
<title>Graphical Class Hierarchy</title>
<polygon fill="white" stroke="white" points="-4,5 -4,-62 251,-62 251,5 -4,5"/>
<!-- Node1 -->
<g id="node1" class="node"><title>Node1</title>
<a xlink:href="classStrainFunction.html" target="_top" xlink:title="Represents a parameterization of the strain rate as a function of time.">
<polygon fill="white" stroke="black" points="0.5,-19.5 0.5,-38.5 79.5,-38.5 79.5,-19.5 0.5,-19.5"/>
<text text-anchor="middle" x="40" y="-26.5" font-family="FreeSans" font-size="10.00">StrainFunction</text>
</a>
</g>
<!-- Node2 -->
<g id="node3" class="node"><title>Node2</title>
<a xlink:href="classChebyshevStrainFunction.html" target="_top" xlink:title="Strain rate calculated as a Chebyshev polynomial representation of a(t).">
<polygon fill="white" stroke="black" points="116,-38.5 116,-57.5 246,-57.5 246,-38.5 116,-38.5"/>
<text text-anchor="middle" x="181" y="-45.5" font-family="FreeSans" font-size="10.00">ChebyshevStrainFunction</text>
</a>
</g>
<!-- Node1&#45;&gt;Node2 -->
<g id="edge2" class="edge"><title>Node1&#45;&gt;Node2</title>
<path fill="none" stroke="midnightblue" d="M89.7715,-35.6666C98.227,-36.8224 107.133,-38.0398 115.923,-39.2412"/>
<polygon fill="midnightblue" stroke="midnightblue" points="90.1012,-32.1792 79.7192,-34.2926 89.1531,-39.1147 90.1012,-32.1792"/>
</g>
<!-- Node3 -->
<g id="node5" class="node"><title>Node3</title>
<a xlink:href="classLinearStrainFunction.html" target="_top" xlink:title="Represents a strain rate that is constant before and after a linear ramp.">
<polygon fill="white" stroke="black" points="127.5,-0.5 127.5,-19.5 234.5,-19.5 234.5,-0.5 127.5,-0.5"/>
<text text-anchor="middle" x="181" y="-7.5" font-family="FreeSans" font-size="10.00">LinearStrainFunction</text>
</a>
</g>
<!-- Node1&#45;&gt;Node3 -->
<g id="edge4" class="edge"><title>Node1&#45;&gt;Node3</title>
<path fill="none" stroke="midnightblue" d="M89.7158,-22.341C101.925,-20.6721 115.076,-18.8744 127.462,-17.1814"/>
<polygon fill="midnightblue" stroke="midnightblue" points="89.1531,-18.8853 79.7192,-23.7074 90.1012,-25.8208 89.1531,-18.8853"/>
</g>
</g>
</svg>
