<?xml version="1.0" encoding="UTF-8" standalone="no"?>
<!DOCTYPE svg PUBLIC "-//W3C//DTD SVG 1.1//EN"
 "http://www.w3.org/Graphics/SVG/1.1/DTD/svg11.dtd">
<!-- Generated by graphviz version 2.26.3 (20100126.1600)
 -->
<!-- Title: Graphical Class Hierarchy Pages: 1 -->
<svg width="228pt" height="66pt"
 viewBox="0.00 0.00 228.00 66.00" xmlns="http://www.w3.org/2000/svg" xmlns:xlink="http://www.w3.org/1999/xlink">
<g id="graph1" class="graph" transform="scale(1 1) rotate(0) translate(4 62)">
<title>Graphical Class Hierarchy</title>
<polygon fill="white" stroke="white" points="-4,5 -4,-62 225,-62 225,5 -4,5"/>
<!-- Node1 -->
<g id="node1" class="node"><title>Node1</title>
<a xlink:href="classScalarFunction.html" target="_top" xlink:title="Represents a parameterization of a scalar function of one variable, a(t). ">
<polygon fill="white" stroke="black" points="0,-19 0,-39 82,-39 82,-19 0,-19"/>
<text text-anchor="middle" x="41" y="-26" font-family="FreeSans" font-size="10.00">ScalarFunction</text>
</a>
</g>
<!-- Node2 -->
<g id="node3" class="node"><title>Node2</title>
<a xlink:href="classChebyshevFunction.html" target="_top" xlink:title="Chebyshev polynomial representation of a(t). ">
<polygon fill="white" stroke="black" points="118.5,-38 118.5,-58 219.5,-58 219.5,-38 118.5,-38"/>
<text text-anchor="middle" x="169" y="-45" font-family="FreeSans" font-size="10.00">ChebyshevFunction</text>
</a>
</g>
<!-- Node1&#45;&gt;Node2 -->
<g id="edge2" class="edge"><title>Node1&#45;&gt;Node2</title>
<path fill="none" stroke="midnightblue" d="M92.1776,-36.5967C100.835,-37.8818 109.819,-39.2153 118.46,-40.4979"/>
<polygon fill="midnightblue" stroke="midnightblue" points="92.6101,-33.1226 82.2046,-35.1163 91.5823,-40.0467 92.6101,-33.1226"/>
</g>
<!-- Node3 -->
<g id="node5" class="node"><title>Node3</title>
<a xlink:href="classLinearFunction.html" target="_top" xlink:title="Represents a function that is constant before and after a linear ramp. ">
<polygon fill="white" stroke="black" points="129,-0 129,-20 209,-20 209,-0 129,-0"/>
<text text-anchor="middle" x="169" y="-7" font-family="FreeSans" font-size="10.00">LinearFunction</text>
</a>
</g>
<!-- Node1&#45;&gt;Node3 -->
<g id="edge4" class="edge"><title>Node1&#45;&gt;Node3</title>
<path fill="none" stroke="midnightblue" d="M92.2205,-21.397C104.372,-19.5932 117.164,-17.6944 128.747,-15.9751"/>
<polygon fill="midnightblue" stroke="midnightblue" points="91.5823,-17.9533 82.2046,-22.8837 92.6101,-24.8774 91.5823,-17.9533"/>
</g>
</g>
</svg>
