<?xml version="1.0" encoding="UTF-8" standalone="no"?>
<!DOCTYPE svg PUBLIC "-//W3C//DTD SVG 1.1//EN"
 "http://www.w3.org/Graphics/SVG/1.1/DTD/svg11.dtd">
<!-- Generated by graphviz version 2.28.0 (20120425.2022)
 -->
<!-- Title: src/integrator.cpp Pages: 1 -->
<svg width="117pt" height="196pt"
 viewBox="0.00 0.00 117.00 196.00" xmlns="http://www.w3.org/2000/svg" xmlns:xlink="http://www.w3.org/1999/xlink">
<g id="graph1" class="graph" transform="scale(1 1) rotate(0) translate(4 192)">
<title>src/integrator.cpp</title>
<polygon fill="white" stroke="white" points="-4,5 -4,-192 114,-192 114,5 -4,5"/>
<!-- Node1 -->
<g id="node1" class="node"><title>Node1</title>
<polygon fill="#bfbfbf" stroke="black" points="16.5,-168.5 16.5,-187.5 109.5,-187.5 109.5,-168.5 16.5,-168.5"/>
<text text-anchor="middle" x="63" y="-175.5" font-family="FreeSans" font-size="10.00">src/integrator.cpp</text>
</g>
<!-- Node2 -->
<g id="node3" class="node"><title>Node2</title>
<a xlink:href="integrator_8h.html" target="_top" xlink:title="integrator.h">
<polygon fill="white" stroke="black" points="0,-112.5 0,-131.5 66,-131.5 66,-112.5 0,-112.5"/>
<text text-anchor="middle" x="33" y="-119.5" font-family="FreeSans" font-size="10.00">integrator.h</text>
</a>
</g>
<!-- Node1&#45;&gt;Node2 -->
<g id="edge2" class="edge"><title>Node1&#45;&gt;Node2</title>
<path fill="none" stroke="midnightblue" d="M58.0461,-168.083C53.8959,-160.613 47.8469,-149.724 42.7333,-140.52"/>
<polygon fill="midnightblue" stroke="midnightblue" points="45.7777,-138.793 37.8617,-131.751 39.6586,-142.192 45.7777,-138.793"/>
</g>
<!-- Node4 -->
<g id="node7" class="node"><title>Node4</title>
<a xlink:href="debugUtils_8h.html" target="_top" xlink:title="debugUtils.h">
<polygon fill="white" stroke="red" points="27.5,-0.5 27.5,-19.5 98.5,-19.5 98.5,-0.5 27.5,-0.5"/>
<text text-anchor="middle" x="63" y="-7.5" font-family="FreeSans" font-size="10.00">debugUtils.h</text>
</a>
</g>
<!-- Node1&#45;&gt;Node4 -->
<g id="edge8" class="edge"><title>Node1&#45;&gt;Node4</title>
<path fill="none" stroke="midnightblue" d="M66.0877,-168.173C69.0518,-159.198 73.3191,-144.827 75,-132 76.683,-119.157 77.221,-80.8698 74,-56 72.8495,-47.1168 70.618,-37.4456 68.4639,-29.3535"/>
<polygon fill="midnightblue" stroke="midnightblue" points="71.7723,-28.19 65.6832,-19.5197 65.0364,-30.0948 71.7723,-28.19"/>
</g>
<!-- Node3 -->
<g id="node5" class="node"><title>Node3</title>
<a xlink:href="mathUtils_8h.html" target="_top" xlink:title="mathUtils.h">
<polygon fill="white" stroke="red" points="0.5,-56.5 0.5,-75.5 65.5,-75.5 65.5,-56.5 0.5,-56.5"/>
<text text-anchor="middle" x="33" y="-63.5" font-family="FreeSans" font-size="10.00">mathUtils.h</text>
</a>
</g>
<!-- Node2&#45;&gt;Node3 -->
<g id="edge4" class="edge"><title>Node2&#45;&gt;Node3</title>
<path fill="none" stroke="midnightblue" d="M33,-112.083C33,-105.006 33,-94.8611 33,-85.9865"/>
<polygon fill="midnightblue" stroke="midnightblue" points="36.5001,-85.751 33,-75.7511 29.5001,-85.7511 36.5001,-85.751"/>
</g>
<!-- Node3&#45;&gt;Node4 -->
<g id="edge6" class="edge"><title>Node3&#45;&gt;Node4</title>
<path fill="none" stroke="midnightblue" d="M37.9539,-56.083C42.1041,-48.6127 48.1531,-37.7244 53.2667,-28.5199"/>
<polygon fill="midnightblue" stroke="midnightblue" points="56.3414,-30.1924 58.1383,-19.7511 50.2223,-26.7929 56.3414,-30.1924"/>
</g>
</g>
</svg>
