<?xml version="1.0" encoding="UTF-8" standalone="no"?>
<!DOCTYPE svg PUBLIC "-//W3C//DTD SVG 1.1//EN"
 "http://www.w3.org/Graphics/SVG/1.1/DTD/svg11.dtd">
<!-- Generated by graphviz version 2.38.0 (20140413.2041)
 -->
<!-- Title: src/integrator.h Pages: 1 -->
<svg width="308pt" height="196pt"
 viewBox="0.00 0.00 308.00 196.00" xmlns="http://www.w3.org/2000/svg" xmlns:xlink="http://www.w3.org/1999/xlink">
<g id="graph0" class="graph" transform="scale(1 1) rotate(0) translate(4 192)">
<title>src/integrator.h</title>
<polygon fill="white" stroke="none" points="-4,4 -4,-192 304,-192 304,4 -4,4"/>
<!-- Node1 -->
<g id="node1" class="node"><title>Node1</title>
<polygon fill="#bfbfbf" stroke="black" points="140.5,-168.5 140.5,-187.5 220.5,-187.5 220.5,-168.5 140.5,-168.5"/>
<text text-anchor="middle" x="180.5" y="-175.5" font-family="FreeSans" font-size="10.00">src/integrator.h</text>
</g>
<!-- Node2 -->
<g id="node2" class="node"><title>Node2</title>
<g id="a_node2"><a xlink:href="diffusionSystem_8h.html" target="_top" xlink:title="src/diffusionSystem.h">
<polygon fill="white" stroke="black" points="45,-112.5 45,-131.5 152,-131.5 152,-112.5 45,-112.5"/>
<text text-anchor="middle" x="98.5" y="-119.5" font-family="FreeSans" font-size="10.00">src/diffusionSystem.h</text>
</a>
</g>
</g>
<!-- Node1&#45;&gt;Node2 -->
<g id="edge1" class="edge"><title>Node1&#45;&gt;Node2</title>
<path fill="none" stroke="midnightblue" d="M158.667,-162.622C143.687,-152.757 124.303,-139.992 111.642,-131.655"/>
<polygon fill="midnightblue" stroke="midnightblue" points="157.049,-165.747 167.325,-168.324 160.899,-159.901 157.049,-165.747"/>
</g>
<!-- Node4 -->
<g id="node4" class="node"><title>Node4</title>
<g id="a_node4"><a xlink:href="flameSolver_8h.html" target="_top" xlink:title="src/flameSolver.h">
<polygon fill="white" stroke="black" points="135.5,-56.5 135.5,-75.5 225.5,-75.5 225.5,-56.5 135.5,-56.5"/>
<text text-anchor="middle" x="180.5" y="-63.5" font-family="FreeSans" font-size="10.00">src/flameSolver.h</text>
</a>
</g>
</g>
<!-- Node1&#45;&gt;Node4 -->
<g id="edge5" class="edge"><title>Node1&#45;&gt;Node4</title>
<path fill="none" stroke="midnightblue" d="M180.5,-158.348C180.5,-134.254 180.5,-93.3079 180.5,-75.5914"/>
<polygon fill="midnightblue" stroke="midnightblue" points="177,-158.368 180.5,-168.368 184,-158.369 177,-158.368"/>
</g>
<!-- Node6 -->
<g id="node6" class="node"><title>Node6</title>
<g id="a_node6"><a xlink:href="integrator_8cpp.html" target="_top" xlink:title="src/integrator.cpp">
<polygon fill="white" stroke="black" points="209,-112.5 209,-131.5 300,-131.5 300,-112.5 209,-112.5"/>
<text text-anchor="middle" x="254.5" y="-119.5" font-family="FreeSans" font-size="10.00">src/integrator.cpp</text>
</a>
</g>
</g>
<!-- Node1&#45;&gt;Node6 -->
<g id="edge6" class="edge"><title>Node1&#45;&gt;Node6</title>
<path fill="none" stroke="midnightblue" d="M200.534,-162.38C213.909,-152.62 231.059,-140.106 242.394,-131.834"/>
<polygon fill="midnightblue" stroke="midnightblue" points="198.404,-159.602 192.389,-168.324 202.53,-165.257 198.404,-159.602"/>
</g>
<!-- Node3 -->
<g id="node3" class="node"><title>Node3</title>
<g id="a_node3"><a xlink:href="diffusionSystem_8cpp.html" target="_top" xlink:title="src/diffusionSystem.cpp">
<polygon fill="white" stroke="black" points="0,-56.5 0,-75.5 117,-75.5 117,-56.5 0,-56.5"/>
<text text-anchor="middle" x="58.5" y="-63.5" font-family="FreeSans" font-size="10.00">src/diffusionSystem.cpp</text>
</a>
</g>
</g>
<!-- Node2&#45;&gt;Node3 -->
<g id="edge2" class="edge"><title>Node2&#45;&gt;Node3</title>
<path fill="none" stroke="midnightblue" d="M85.8003,-103.855C78.874,-94.5048 70.5937,-83.3265 64.9823,-75.7511"/>
<polygon fill="midnightblue" stroke="midnightblue" points="83.13,-106.131 91.8948,-112.083 88.755,-101.964 83.13,-106.131"/>
</g>
<!-- Node2&#45;&gt;Node4 -->
<g id="edge3" class="edge"><title>Node2&#45;&gt;Node4</title>
<path fill="none" stroke="midnightblue" d="M120.333,-106.622C135.313,-96.7574 154.697,-83.9919 167.358,-75.6545"/>
<polygon fill="midnightblue" stroke="midnightblue" points="118.101,-103.901 111.675,-112.324 121.951,-109.747 118.101,-103.901"/>
</g>
<!-- Node5 -->
<g id="node5" class="node"><title>Node5</title>
<g id="a_node5"><a xlink:href="flameSolver_8cpp.html" target="_top" xlink:title="src/flameSolver.cpp">
<polygon fill="white" stroke="black" points="130,-0.5 130,-19.5 231,-19.5 231,-0.5 130,-0.5"/>
<text text-anchor="middle" x="180.5" y="-7.5" font-family="FreeSans" font-size="10.00">src/flameSolver.cpp</text>
</a>
</g>
</g>
<!-- Node4&#45;&gt;Node5 -->
<g id="edge4" class="edge"><title>Node4&#45;&gt;Node5</title>
<path fill="none" stroke="midnightblue" d="M180.5,-45.8045C180.5,-36.9102 180.5,-26.7798 180.5,-19.7511"/>
<polygon fill="midnightblue" stroke="midnightblue" points="177,-46.083 180.5,-56.083 184,-46.083 177,-46.083"/>
</g>
</g>
</svg>
