<?xml version="1.0" encoding="UTF-8" standalone="no"?>
<!DOCTYPE svg PUBLIC "-//W3C//DTD SVG 1.1//EN"
 "http://www.w3.org/Graphics/SVG/1.1/DTD/svg11.dtd">
<!-- Generated by graphviz version 2.38.0 (20140413.2041)
 -->
<!-- Title: src/integrator.cpp Pages: 1 -->
<svg width="489pt" height="252pt"
 viewBox="0.00 0.00 488.50 252.00" xmlns="http://www.w3.org/2000/svg" xmlns:xlink="http://www.w3.org/1999/xlink">
<g id="graph0" class="graph" transform="scale(1 1) rotate(0) translate(4 248)">
<title>src/integrator.cpp</title>
<polygon fill="white" stroke="none" points="-4,4 -4,-248 484.5,-248 484.5,4 -4,4"/>
<!-- Node1 -->
<g id="node1" class="node"><title>Node1</title>
<polygon fill="#bfbfbf" stroke="black" points="265.5,-224.5 265.5,-243.5 356.5,-243.5 356.5,-224.5 265.5,-224.5"/>
<text text-anchor="middle" x="311" y="-231.5" font-family="FreeSans" font-size="10.00">src/integrator.cpp</text>
</g>
<!-- Node2 -->
<g id="node2" class="node"><title>Node2</title>
<g id="a_node2"><a xlink:href="integrator_8h.html" target="_top" xlink:title="integrator.h">
<polygon fill="white" stroke="black" points="248.5,-168.5 248.5,-187.5 313.5,-187.5 313.5,-168.5 248.5,-168.5"/>
<text text-anchor="middle" x="281" y="-175.5" font-family="FreeSans" font-size="10.00">integrator.h</text>
</a>
</g>
</g>
<!-- Node1&#45;&gt;Node2 -->
<g id="edge1" class="edge"><title>Node1&#45;&gt;Node2</title>
<path fill="none" stroke="midnightblue" d="M306.046,-224.083C301.896,-216.613 295.847,-205.724 290.733,-196.52"/>
<polygon fill="midnightblue" stroke="midnightblue" points="293.778,-194.793 285.862,-187.751 287.659,-198.192 293.778,-194.793"/>
</g>
<!-- Node10 -->
<g id="node10" class="node"><title>Node10</title>
<g id="a_node10"><a xlink:href="debugUtils_8h.html" target="_top" xlink:title="debugUtils.h">
<polygon fill="white" stroke="red" points="411.5,-56.5 411.5,-75.5 480.5,-75.5 480.5,-56.5 411.5,-56.5"/>
<text text-anchor="middle" x="446" y="-63.5" font-family="FreeSans" font-size="10.00">debugUtils.h</text>
</a>
</g>
</g>
<!-- Node1&#45;&gt;Node10 -->
<g id="edge13" class="edge"><title>Node1&#45;&gt;Node10</title>
<path fill="none" stroke="midnightblue" d="M318.258,-224.075C339.876,-197.493 404.087,-118.538 432.367,-83.7633"/>
<polygon fill="midnightblue" stroke="midnightblue" points="435.438,-85.5347 439.032,-75.5681 430.007,-81.1181 435.438,-85.5347"/>
</g>
<!-- Node3 -->
<g id="node3" class="node"><title>Node3</title>
<g id="a_node3"><a xlink:href="mathUtils_8h.html" target="_top" xlink:title="mathUtils.h">
<polygon fill="white" stroke="black" points="248.5,-112.5 248.5,-131.5 313.5,-131.5 313.5,-112.5 248.5,-112.5"/>
<text text-anchor="middle" x="281" y="-119.5" font-family="FreeSans" font-size="10.00">mathUtils.h</text>
</a>
</g>
</g>
<!-- Node2&#45;&gt;Node3 -->
<g id="edge2" class="edge"><title>Node2&#45;&gt;Node3</title>
<path fill="none" stroke="midnightblue" d="M281,-168.083C281,-161.006 281,-150.861 281,-141.986"/>
<polygon fill="midnightblue" stroke="midnightblue" points="284.5,-141.751 281,-131.751 277.5,-141.751 284.5,-141.751"/>
</g>
<!-- Node4 -->
<g id="node4" class="node"><title>Node4</title>
<polygon fill="white" stroke="#bfbfbf" points="62.5,-56.5 62.5,-75.5 105.5,-75.5 105.5,-56.5 62.5,-56.5"/>
<text text-anchor="middle" x="84" y="-63.5" font-family="FreeSans" font-size="10.00">vector</text>
</g>
<!-- Node3&#45;&gt;Node4 -->
<g id="edge3" class="edge"><title>Node3&#45;&gt;Node4</title>
<path fill="none" stroke="midnightblue" d="M248.82,-112.459C217.305,-104.053 167.677,-90.7116 115.445,-76.0881"/>
<polygon fill="midnightblue" stroke="midnightblue" points="116.24,-72.6759 105.666,-73.3435 114.348,-79.4155 116.24,-72.6759"/>
</g>
<!-- Node5 -->
<g id="node5" class="node"><title>Node5</title>
<polygon fill="white" stroke="#bfbfbf" points="0,-56.5 0,-75.5 44,-75.5 44,-56.5 0,-56.5"/>
<text text-anchor="middle" x="22" y="-63.5" font-family="FreeSans" font-size="10.00">cmath</text>
</g>
<!-- Node3&#45;&gt;Node5 -->
<g id="edge4" class="edge"><title>Node3&#45;&gt;Node5</title>
<path fill="none" stroke="midnightblue" d="M248.333,-115.482C205.798,-108.095 128.965,-94.0637 54.3253,-76.159"/>
<polygon fill="midnightblue" stroke="midnightblue" points="54.8316,-72.6804 44.2883,-73.7242 53.1813,-79.4831 54.8316,-72.6804"/>
</g>
<!-- Node6 -->
<g id="node6" class="node"><title>Node6</title>
<polygon fill="white" stroke="#bfbfbf" points="327.5,-0.5 327.5,-19.5 380.5,-19.5 380.5,-0.5 327.5,-0.5"/>
<text text-anchor="middle" x="354" y="-7.5" font-family="FreeSans" font-size="10.00">iostream</text>
</g>
<!-- Node3&#45;&gt;Node6 -->
<g id="edge5" class="edge"><title>Node3&#45;&gt;Node6</title>
<path fill="none" stroke="midnightblue" d="M291.511,-112.219C301.176,-103.724 315.419,-90.0978 325,-76 334.865,-61.4842 342.71,-43.0675 347.74,-29.5466"/>
<polygon fill="midnightblue" stroke="midnightblue" points="351.11,-30.5155 351.155,-19.9208 344.513,-28.1748 351.11,-30.5155"/>
</g>
<!-- Node7 -->
<g id="node7" class="node"><title>Node7</title>
<polygon fill="white" stroke="#bfbfbf" points="124,-56.5 124,-75.5 174,-75.5 174,-56.5 124,-56.5"/>
<text text-anchor="middle" x="149" y="-63.5" font-family="FreeSans" font-size="10.00">sstream</text>
</g>
<!-- Node3&#45;&gt;Node7 -->
<g id="edge6" class="edge"><title>Node3&#45;&gt;Node7</title>
<path fill="none" stroke="midnightblue" d="M260.084,-112.444C238.264,-103.517 203.85,-89.4387 179.108,-79.3168"/>
<polygon fill="midnightblue" stroke="midnightblue" points="180.399,-76.0634 169.818,-75.5164 177.748,-82.5422 180.399,-76.0634"/>
</g>
<!-- Node8 -->
<g id="node8" class="node"><title>Node8</title>
<polygon fill="white" stroke="#bfbfbf" points="417,-0.5 417,-19.5 457,-19.5 457,-0.5 417,-0.5"/>
<text text-anchor="middle" x="437" y="-7.5" font-family="FreeSans" font-size="10.00">string</text>
</g>
<!-- Node3&#45;&gt;Node8 -->
<g id="edge7" class="edge"><title>Node3&#45;&gt;Node8</title>
<path fill="none" stroke="midnightblue" d="M293.275,-112.381C306.163,-103.33 327.014,-88.6767 345,-76 369.589,-58.6688 397.846,-38.6964 416.484,-25.5147"/>
<polygon fill="midnightblue" stroke="midnightblue" points="418.66,-28.2627 424.803,-19.6305 414.618,-22.5478 418.66,-28.2627"/>
</g>
<!-- Node9 -->
<g id="node9" class="node"><title>Node9</title>
<polygon fill="white" stroke="#bfbfbf" points="192.5,-56.5 192.5,-75.5 227.5,-75.5 227.5,-56.5 192.5,-56.5"/>
<text text-anchor="middle" x="210" y="-63.5" font-family="FreeSans" font-size="10.00">map</text>
</g>
<!-- Node3&#45;&gt;Node9 -->
<g id="edge8" class="edge"><title>Node3&#45;&gt;Node9</title>
<path fill="none" stroke="midnightblue" d="M269.593,-112.324C258.891,-104.185 242.659,-91.8395 229.837,-82.0874"/>
<polygon fill="midnightblue" stroke="midnightblue" points="231.693,-79.1018 221.615,-75.8339 227.456,-84.6734 231.693,-79.1018"/>
</g>
<!-- Node3&#45;&gt;Node10 -->
<g id="edge9" class="edge"><title>Node3&#45;&gt;Node10</title>
<path fill="none" stroke="midnightblue" d="M307.145,-112.444C335.023,-103.32 379.348,-88.8133 410.4,-78.6509"/>
<polygon fill="midnightblue" stroke="midnightblue" points="411.562,-81.9533 419.978,-75.5164 409.385,-75.3005 411.562,-81.9533"/>
</g>
<!-- Node11 -->
<g id="node11" class="node"><title>Node11</title>
<polygon fill="white" stroke="#bfbfbf" points="245.5,-56.5 245.5,-75.5 316.5,-75.5 316.5,-56.5 245.5,-56.5"/>
<text text-anchor="middle" x="281" y="-63.5" font-family="FreeSans" font-size="10.00">Eigen/Dense</text>
</g>
<!-- Node3&#45;&gt;Node11 -->
<g id="edge12" class="edge"><title>Node3&#45;&gt;Node11</title>
<path fill="none" stroke="midnightblue" d="M281,-112.083C281,-105.006 281,-94.8611 281,-85.9865"/>
<polygon fill="midnightblue" stroke="midnightblue" points="284.5,-85.751 281,-75.7511 277.5,-85.7511 284.5,-85.751"/>
</g>
<!-- Node10&#45;&gt;Node6 -->
<g id="edge11" class="edge"><title>Node10&#45;&gt;Node6</title>
<path fill="none" stroke="midnightblue" d="M431.219,-56.324C416.733,-47.8215 394.427,-34.7288 377.507,-24.7975"/>
<polygon fill="midnightblue" stroke="midnightblue" points="379.141,-21.6981 368.745,-19.6545 375.597,-27.735 379.141,-21.6981"/>
</g>
<!-- Node10&#45;&gt;Node8 -->
<g id="edge10" class="edge"><title>Node10&#45;&gt;Node8</title>
<path fill="none" stroke="midnightblue" d="M444.514,-56.083C443.321,-48.9272 441.606,-38.6353 440.115,-29.6911"/>
<polygon fill="midnightblue" stroke="midnightblue" points="443.555,-29.0396 438.459,-19.7511 436.65,-30.1904 443.555,-29.0396"/>
</g>
</g>
</svg>
