<?xml version="1.0" encoding="UTF-8" standalone="no"?>
<!DOCTYPE svg PUBLIC "-//W3C//DTD SVG 1.1//EN"
 "http://www.w3.org/Graphics/SVG/1.1/DTD/svg11.dtd">
<!-- Generated by graphviz version 8.1.0 (20230707.2238)
 -->
<!-- Title: src/integrator.h Pages: 1 -->
<svg width="337pt" height="199pt"
 viewBox="0.00 0.00 336.50 199.00" xmlns="http://www.w3.org/2000/svg" xmlns:xlink="http://www.w3.org/1999/xlink">
<g id="graph0" class="graph" transform="scale(1 1) rotate(0) translate(4 195)">
<title>src/integrator.h</title>
<!-- Node1 -->
<g id="Node000001" class="node">
<title>Node1</title>
<g id="a_Node000001"><a xlink:title=" ">
<polygon fill="#999999" stroke="#666666" points="244.88,-191 155.38,-191 155.38,-170.25 244.88,-170.25 244.88,-191"/>
<text text-anchor="middle" x="200.12" y="-177.5" font-family="FreeSans" font-size="10.00">src/integrator.h</text>
</a>
</g>
</g>
<!-- Node2 -->
<g id="Node000002" class="node">
<title>Node2</title>
<g id="a_Node000002"><a xlink:href="diffusionSystem_8h.html" target="_top" xlink:title=" ">
<polygon fill="white" stroke="#666666" points="171.62,-134.25 50.62,-134.25 50.62,-113.5 171.62,-113.5 171.62,-134.25"/>
<text text-anchor="middle" x="111.12" y="-120.75" font-family="FreeSans" font-size="10.00">src/diffusionSystem.h</text>
</a>
</g>
</g>
<!-- Node1&#45;&gt;Node2 -->
<g id="edge1_Node000001_Node000002" class="edge">
<title>Node1&#45;&gt;Node2</title>
<g id="a_edge1_Node000001_Node000002"><a xlink:title=" ">
<path fill="none" stroke="#63b8ff" d="M175.17,-164.28C159.69,-154.75 140.27,-142.81 126.9,-134.58"/>
<polygon fill="#63b8ff" stroke="#63b8ff" points="172.86,-167.58 183.21,-169.84 176.53,-161.62 172.86,-167.58"/>
</a>
</g>
</g>
<!-- Node4 -->
<g id="Node000004" class="node">
<title>Node4</title>
<g id="a_Node000004"><a xlink:href="flameSolver_8h.html" target="_top" xlink:title=" ">
<polygon fill="white" stroke="#666666" points="250.12,-77.5 150.12,-77.5 150.12,-56.75 250.12,-56.75 250.12,-77.5"/>
<text text-anchor="middle" x="200.12" y="-64" font-family="FreeSans" font-size="10.00">src/flameSolver.h</text>
</a>
</g>
</g>
<!-- Node1&#45;&gt;Node4 -->
<g id="edge5_Node000001_Node000004" class="edge">
<title>Node1&#45;&gt;Node4</title>
<g id="a_edge5_Node000001_Node000004"><a xlink:title=" ">
<path fill="none" stroke="#63b8ff" d="M200.12,-159.38C200.12,-135.31 200.12,-96.09 200.12,-77.93"/>
<polygon fill="#63b8ff" stroke="#63b8ff" points="196.63,-159.12 200.12,-169.12 203.63,-159.12 196.63,-159.12"/>
</a>
</g>
</g>
<!-- Node6 -->
<g id="Node000006" class="node">
<title>Node6</title>
<g id="a_Node000006"><a xlink:href="integrator_8cpp.html" target="_top" xlink:title=" ">
<polygon fill="white" stroke="#666666" points="328.5,-134.25 227.75,-134.25 227.75,-113.5 328.5,-113.5 328.5,-134.25"/>
<text text-anchor="middle" x="278.12" y="-120.75" font-family="FreeSans" font-size="10.00">src/integrator.cpp</text>
</a>
</g>
</g>
<!-- Node1&#45;&gt;Node6 -->
<g id="edge6_Node000001_Node000006" class="edge">
<title>Node1&#45;&gt;Node6</title>
<g id="a_edge6_Node000001_Node000006"><a xlink:title=" ">
<path fill="none" stroke="#63b8ff" d="M222.76,-163.73C236.2,-154.3 252.8,-142.65 264.3,-134.58"/>
<polygon fill="#63b8ff" stroke="#63b8ff" points="221.24,-161.23 215.07,-169.84 225.27,-166.96 221.24,-161.23"/>
</a>
</g>
</g>
<!-- Node3 -->
<g id="Node000003" class="node">
<title>Node3</title>
<g id="a_Node000003"><a xlink:href="diffusionSystem_8cpp.html" target="_top" xlink:title=" ">
<polygon fill="white" stroke="#666666" points="132.25,-77.5 0,-77.5 0,-56.75 132.25,-56.75 132.25,-77.5"/>
<text text-anchor="middle" x="66.12" y="-64" font-family="FreeSans" font-size="10.00">src/diffusionSystem.cpp</text>
</a>
</g>
</g>
<!-- Node2&#45;&gt;Node3 -->
<g id="edge2_Node000002_Node000003" class="edge">
<title>Node2&#45;&gt;Node3</title>
<g id="a_edge2_Node000002_Node000003"><a xlink:title=" ">
<path fill="none" stroke="#63b8ff" d="M96.24,-104.77C88.86,-95.78 80.22,-85.28 74.1,-77.83"/>
<polygon fill="#63b8ff" stroke="#63b8ff" points="94.03,-106.58 103.08,-112.09 99.43,-102.14 94.03,-106.58"/>
</a>
</g>
</g>
<!-- Node2&#45;&gt;Node4 -->
<g id="edge3_Node000002_Node000004" class="edge">
<title>Node2&#45;&gt;Node4</title>
<g id="a_edge3_Node000002_Node000004"><a xlink:title=" ">
<path fill="none" stroke="#63b8ff" d="M136.08,-107.53C151.56,-98 170.98,-86.06 184.35,-77.83"/>
<polygon fill="#63b8ff" stroke="#63b8ff" points="134.72,-104.87 128.04,-113.09 138.39,-110.83 134.72,-104.87"/>
</a>
</g>
</g>
<!-- Node5 -->
<g id="Node000005" class="node">
<title>Node5</title>
<g id="a_Node000005"><a xlink:href="flameSolver_8cpp.html" target="_top" xlink:title=" ">
<polygon fill="white" stroke="#666666" points="255.75,-20.75 144.5,-20.75 144.5,0 255.75,0 255.75,-20.75"/>
<text text-anchor="middle" x="200.12" y="-7.25" font-family="FreeSans" font-size="10.00">src/flameSolver.cpp</text>
</a>
</g>
</g>
<!-- Node4&#45;&gt;Node5 -->
<g id="edge4_Node000004_Node000005" class="edge">
<title>Node4&#45;&gt;Node5</title>
<g id="a_edge4_Node000004_Node000005"><a xlink:title=" ">
<path fill="none" stroke="#63b8ff" d="M200.12,-45.46C200.12,-37.09 200.12,-27.83 200.12,-21.08"/>
<polygon fill="#63b8ff" stroke="#63b8ff" points="196.63,-45.34 200.12,-55.34 203.63,-45.34 196.63,-45.34"/>
</a>
</g>
</g>
</g>
</svg>
