<?xml version="1.0" encoding="UTF-8" standalone="no"?>
<!DOCTYPE svg PUBLIC "-//W3C//DTD SVG 1.1//EN"
 "http://www.w3.org/Graphics/SVG/1.1/DTD/svg11.dtd">
<!-- Generated by graphviz version 2.26.3 (20100126.1600)
 -->
<!-- Title: src/integrator.cpp Pages: 1 -->
<svg width="482pt" height="262pt"
 viewBox="0.00 0.00 482.00 262.00" xmlns="http://www.w3.org/2000/svg" xmlns:xlink="http://www.w3.org/1999/xlink">
<g id="graph1" class="graph" transform="scale(1 1) rotate(0) translate(4 258)">
<title>src/integrator.cpp</title>
<polygon fill="white" stroke="white" points="-4,5 -4,-258 479,-258 479,5 -4,5"/>
<!-- Node1 -->
<g id="node1" class="node"><title>Node1</title>
<polygon fill="#bfbfbf" stroke="black" points="261.5,-233 261.5,-253 352.5,-253 352.5,-233 261.5,-233"/>
<text text-anchor="middle" x="307" y="-240" font-family="FreeSans" font-size="10.00">src/integrator.cpp</text>
</g>
<!-- Node2 -->
<g id="node3" class="node"><title>Node2</title>
<a xlink:href="integrator_8h.html" target="_top" xlink:title="integrator.h">
<polygon fill="white" stroke="black" points="244.5,-175 244.5,-195 309.5,-195 309.5,-175 244.5,-175"/>
<text text-anchor="middle" x="277" y="-182" font-family="FreeSans" font-size="10.00">integrator.h</text>
</a>
</g>
<!-- Node1&#45;&gt;Node2 -->
<g id="edge2" class="edge"><title>Node1&#45;&gt;Node2</title>
<path fill="none" stroke="midnightblue" d="M301.774,-232.897C297.738,-225.093 292.028,-214.054 287.107,-204.54"/>
<polygon fill="midnightblue" stroke="midnightblue" points="290.071,-202.652 282.368,-195.378 283.853,-205.868 290.071,-202.652"/>
</g>
<!-- Node10 -->
<g id="node19" class="node"><title>Node10</title>
<a xlink:href="debugUtils_8h.html" target="_top" xlink:title="debugUtils.h">
<polygon fill="white" stroke="red" points="405.5,-59 405.5,-79 474.5,-79 474.5,-59 405.5,-59"/>
<text text-anchor="middle" x="440" y="-66" font-family="FreeSans" font-size="10.00">debugUtils.h</text>
</a>
</g>
<!-- Node1&#45;&gt;Node10 -->
<g id="edge26" class="edge"><title>Node1&#45;&gt;Node10</title>
<path fill="none" stroke="midnightblue" d="M314.726,-232.893C336.396,-204.542 397.991,-123.959 425.922,-87.4176"/>
<polygon fill="midnightblue" stroke="midnightblue" points="428.961,-89.2054 432.253,-79.135 423.4,-84.9544 428.961,-89.2054"/>
</g>
<!-- Node3 -->
<g id="node5" class="node"><title>Node3</title>
<a xlink:href="mathUtils_8h.html" target="_top" xlink:title="mathUtils.h">
<polygon fill="white" stroke="black" points="244.5,-117 244.5,-137 309.5,-137 309.5,-117 244.5,-117"/>
<text text-anchor="middle" x="277" y="-124" font-family="FreeSans" font-size="10.00">mathUtils.h</text>
</a>
</g>
<!-- Node2&#45;&gt;Node3 -->
<g id="edge4" class="edge"><title>Node2&#45;&gt;Node3</title>
<path fill="none" stroke="midnightblue" d="M277,-174.897C277,-167.339 277,-156.748 277,-147.446"/>
<polygon fill="midnightblue" stroke="midnightblue" points="280.5,-147.378 277,-137.378 273.5,-147.378 280.5,-147.378"/>
</g>
<!-- Node4 -->
<g id="node7" class="node"><title>Node4</title>
<polygon fill="white" stroke="#bfbfbf" points="61.5,-59 61.5,-79 104.5,-79 104.5,-59 61.5,-59"/>
<text text-anchor="middle" x="83" y="-66" font-family="FreeSans" font-size="10.00">vector</text>
</g>
<!-- Node3&#45;&gt;Node4 -->
<g id="edge6" class="edge"><title>Node3&#45;&gt;Node4</title>
<path fill="none" stroke="midnightblue" d="M244.428,-118.412C213.196,-110.013 164.539,-96.503 114.295,-80.2872"/>
<polygon fill="midnightblue" stroke="midnightblue" points="115.157,-76.8871 104.565,-77.1188 112.99,-83.5432 115.157,-76.8871"/>
</g>
<!-- Node5 -->
<g id="node9" class="node"><title>Node5</title>
<polygon fill="white" stroke="#bfbfbf" points="0,-59 0,-79 44,-79 44,-59 0,-59"/>
<text text-anchor="middle" x="22" y="-66" font-family="FreeSans" font-size="10.00">cmath</text>
</g>
<!-- Node3&#45;&gt;Node5 -->
<g id="edge8" class="edge"><title>Node3&#45;&gt;Node5</title>
<path fill="none" stroke="midnightblue" d="M244.398,-121.576C202.383,-114.279 126.975,-100.146 54.0417,-80.0372"/>
<polygon fill="midnightblue" stroke="midnightblue" points="54.8095,-76.6176 44.2362,-77.2926 52.9227,-83.3586 54.8095,-76.6176"/>
</g>
<!-- Node6 -->
<g id="node11" class="node"><title>Node6</title>
<polygon fill="white" stroke="#bfbfbf" points="322.5,-1 322.5,-21 375.5,-21 375.5,-1 322.5,-1"/>
<text text-anchor="middle" x="349" y="-8" font-family="FreeSans" font-size="10.00">iostream</text>
</g>
<!-- Node3&#45;&gt;Node6 -->
<g id="edge10" class="edge"><title>Node3&#45;&gt;Node6</title>
<path fill="none" stroke="midnightblue" d="M288.738,-116.764C298.413,-107.833 311.967,-94.1247 321,-80 330.769,-64.7251 338.238,-45.4772 342.995,-31.1942"/>
<polygon fill="midnightblue" stroke="midnightblue" points="346.418,-31.9776 346.097,-21.3876 339.744,-29.8662 346.418,-31.9776"/>
</g>
<!-- Node7 -->
<g id="node13" class="node"><title>Node7</title>
<polygon fill="white" stroke="#bfbfbf" points="122,-59 122,-79 172,-79 172,-59 122,-59"/>
<text text-anchor="middle" x="147" y="-66" font-family="FreeSans" font-size="10.00">sstream</text>
</g>
<!-- Node3&#45;&gt;Node7 -->
<g id="edge12" class="edge"><title>Node3&#45;&gt;Node7</title>
<path fill="none" stroke="midnightblue" d="M254.356,-116.897C233.512,-107.598 202.377,-93.7066 178.996,-83.2752"/>
<polygon fill="midnightblue" stroke="midnightblue" points="180.379,-80.0598 169.821,-79.1817 177.527,-86.4524 180.379,-80.0598"/>
</g>
<!-- Node8 -->
<g id="node15" class="node"><title>Node8</title>
<polygon fill="white" stroke="#bfbfbf" points="411,-1 411,-21 451,-21 451,-1 411,-1"/>
<text text-anchor="middle" x="431" y="-8" font-family="FreeSans" font-size="10.00">string</text>
</g>
<!-- Node3&#45;&gt;Node8 -->
<g id="edge14" class="edge"><title>Node3&#45;&gt;Node8</title>
<path fill="none" stroke="midnightblue" d="M290.794,-116.997C303.796,-107.537 323.799,-92.9075 341,-80 364.683,-62.2281 391.601,-41.5241 409.779,-27.4663"/>
<polygon fill="midnightblue" stroke="midnightblue" points="412.184,-30.0306 417.948,-21.141 407.899,-24.4957 412.184,-30.0306"/>
</g>
<!-- Node9 -->
<g id="node17" class="node"><title>Node9</title>
<polygon fill="white" stroke="#bfbfbf" points="189.5,-59 189.5,-79 224.5,-79 224.5,-59 189.5,-59"/>
<text text-anchor="middle" x="207" y="-66" font-family="FreeSans" font-size="10.00">map</text>
</g>
<!-- Node3&#45;&gt;Node9 -->
<g id="edge16" class="edge"><title>Node3&#45;&gt;Node9</title>
<path fill="none" stroke="midnightblue" d="M264.807,-116.897C254.495,-108.353 239.505,-95.933 227.374,-85.8813"/>
<polygon fill="midnightblue" stroke="midnightblue" points="229.458,-83.0627 219.525,-79.3776 224.992,-88.4529 229.458,-83.0627"/>
</g>
<!-- Node3&#45;&gt;Node10 -->
<g id="edge18" class="edge"><title>Node3&#45;&gt;Node10</title>
<path fill="none" stroke="midnightblue" d="M305.392,-116.897C332.19,-107.362 372.554,-92.9992 402.093,-82.4885"/>
<polygon fill="midnightblue" stroke="midnightblue" points="403.412,-85.7341 411.66,-79.0842 401.065,-79.1392 403.412,-85.7341"/>
</g>
<!-- Node11 -->
<g id="node23" class="node"><title>Node11</title>
<polygon fill="white" stroke="#bfbfbf" points="241.5,-59 241.5,-79 312.5,-79 312.5,-59 241.5,-59"/>
<text text-anchor="middle" x="277" y="-66" font-family="FreeSans" font-size="10.00">Eigen/Dense</text>
</g>
<!-- Node3&#45;&gt;Node11 -->
<g id="edge24" class="edge"><title>Node3&#45;&gt;Node11</title>
<path fill="none" stroke="midnightblue" d="M277,-116.897C277,-109.339 277,-98.7476 277,-89.4458"/>
<polygon fill="midnightblue" stroke="midnightblue" points="280.5,-89.3776 277,-79.3776 273.5,-89.3776 280.5,-89.3776"/>
</g>
<!-- Node10&#45;&gt;Node6 -->
<g id="edge22" class="edge"><title>Node10&#45;&gt;Node6</title>
<path fill="none" stroke="midnightblue" d="M424.149,-58.8972C410.272,-50.0524 389.878,-37.0539 373.835,-26.829"/>
<polygon fill="midnightblue" stroke="midnightblue" points="375.289,-23.605 364.975,-21.1817 371.526,-29.5079 375.289,-23.605"/>
</g>
<!-- Node10&#45;&gt;Node8 -->
<g id="edge20" class="edge"><title>Node10&#45;&gt;Node8</title>
<path fill="none" stroke="midnightblue" d="M438.432,-58.8972C437.26,-51.339 435.616,-40.7476 434.173,-31.4458"/>
<polygon fill="midnightblue" stroke="midnightblue" points="437.602,-30.7226 432.61,-21.3776 430.685,-31.7961 437.602,-30.7226"/>
</g>
</g>
</svg>
