<?xml version="1.0" encoding="UTF-8" standalone="no"?>
<!DOCTYPE svg PUBLIC "-//W3C//DTD SVG 1.1//EN"
 "http://www.w3.org/Graphics/SVG/1.1/DTD/svg11.dtd">
<!-- Generated by graphviz version 2.28.0 (20120425.2022)
 -->
<!-- Title: src/integrator.h Pages: 1 -->
<svg width="317pt" height="140pt"
 viewBox="0.00 0.00 317.00 140.00" xmlns="http://www.w3.org/2000/svg" xmlns:xlink="http://www.w3.org/1999/xlink">
<g id="graph1" class="graph" transform="scale(1 1) rotate(0) translate(4 136)">
<title>src/integrator.h</title>
<polygon fill="white" stroke="white" points="-4,5 -4,-136 314,-136 314,5 -4,5"/>
<!-- Node1 -->
<g id="node1" class="node"><title>Node1</title>
<polygon fill="#bfbfbf" stroke="black" points="146.5,-112.5 146.5,-131.5 229.5,-131.5 229.5,-112.5 146.5,-112.5"/>
<text text-anchor="middle" x="188" y="-119.5" font-family="FreeSans" font-size="10.00">src/integrator.h</text>
</g>
<!-- Node2 -->
<g id="node3" class="node"><title>Node2</title>
<a xlink:href="diffusionSystem_8h.html" target="_top" xlink:title="src/diffusionSystem.h">
<polygon fill="white" stroke="black" points="48.5,-56.5 48.5,-75.5 159.5,-75.5 159.5,-56.5 48.5,-56.5"/>
<text text-anchor="middle" x="104" y="-63.5" font-family="FreeSans" font-size="10.00">src/diffusionSystem.h</text>
</a>
</g>
<!-- Node1&#45;&gt;Node2 -->
<g id="edge2" class="edge"><title>Node1&#45;&gt;Node2</title>
<path fill="none" stroke="midnightblue" d="M166.068,-106.901C150.665,-96.9986 130.554,-84.0705 117.463,-75.6545"/>
<polygon fill="midnightblue" stroke="midnightblue" points="164.199,-109.86 174.504,-112.324 167.985,-103.972 164.199,-109.86"/>
</g>
<!-- Node4 -->
<g id="node7" class="node"><title>Node4</title>
<a xlink:href="flameSolver_8h.html" target="_top" xlink:title="src/flameSolver.h">
<polygon fill="white" stroke="red" points="140.5,-0.5 140.5,-19.5 235.5,-19.5 235.5,-0.5 140.5,-0.5"/>
<text text-anchor="middle" x="188" y="-7.5" font-family="FreeSans" font-size="10.00">src/flameSolver.h</text>
</a>
</g>
<!-- Node1&#45;&gt;Node4 -->
<g id="edge8" class="edge"><title>Node1&#45;&gt;Node4</title>
<path fill="none" stroke="midnightblue" d="M188,-102.348C188,-78.2538 188,-37.3079 188,-19.5914"/>
<polygon fill="midnightblue" stroke="midnightblue" points="184.5,-102.368 188,-112.368 191.5,-102.369 184.5,-102.368"/>
</g>
<!-- Node5 -->
<g id="node10" class="node"><title>Node5</title>
<a xlink:href="integrator_8cpp.html" target="_top" xlink:title="src/integrator.cpp">
<polygon fill="white" stroke="black" points="216.5,-56.5 216.5,-75.5 309.5,-75.5 309.5,-56.5 216.5,-56.5"/>
<text text-anchor="middle" x="263" y="-63.5" font-family="FreeSans" font-size="10.00">src/integrator.cpp</text>
</a>
</g>
<!-- Node1&#45;&gt;Node5 -->
<g id="edge10" class="edge"><title>Node1&#45;&gt;Node5</title>
<path fill="none" stroke="midnightblue" d="M208.305,-106.38C221.861,-96.6204 239.242,-84.1057 250.731,-75.8339"/>
<polygon fill="midnightblue" stroke="midnightblue" points="206.12,-103.641 200.05,-112.324 210.21,-109.321 206.12,-103.641"/>
</g>
<!-- Node3 -->
<g id="node5" class="node"><title>Node3</title>
<a xlink:href="diffusionSystem_8cpp.html" target="_top" xlink:title="src/diffusionSystem.cpp">
<polygon fill="white" stroke="black" points="0,-0.5 0,-19.5 122,-19.5 122,-0.5 0,-0.5"/>
<text text-anchor="middle" x="61" y="-7.5" font-family="FreeSans" font-size="10.00">src/diffusionSystem.cpp</text>
</a>
</g>
<!-- Node2&#45;&gt;Node3 -->
<g id="edge4" class="edge"><title>Node2&#45;&gt;Node3</title>
<path fill="none" stroke="midnightblue" d="M90.5776,-48.144C83.0858,-38.7357 74.0629,-27.4046 67.9685,-19.7511"/>
<polygon fill="midnightblue" stroke="midnightblue" points="87.9321,-50.4404 96.8994,-56.083 93.4081,-46.0799 87.9321,-50.4404"/>
</g>
<!-- Node2&#45;&gt;Node4 -->
<g id="edge6" class="edge"><title>Node2&#45;&gt;Node4</title>
<path fill="none" stroke="midnightblue" d="M125.932,-50.9005C141.335,-40.9986 161.446,-28.0705 174.537,-19.6545"/>
<polygon fill="midnightblue" stroke="midnightblue" points="124.015,-47.9722 117.496,-56.324 127.801,-53.8605 124.015,-47.9722"/>
</g>
</g>
</svg>
