<?xml version="1.0" encoding="UTF-8" standalone="no"?>
<!DOCTYPE svg PUBLIC "-//W3C//DTD SVG 1.1//EN"
 "http://www.w3.org/Graphics/SVG/1.1/DTD/svg11.dtd">
<!-- Generated by graphviz version 2.38.0 (20140413.2041)
 -->
<!-- Title: src/integrator.h Pages: 1 -->
<svg width="488pt" height="196pt"
 viewBox="0.00 0.00 488.00 196.00" xmlns="http://www.w3.org/2000/svg" xmlns:xlink="http://www.w3.org/1999/xlink">
<g id="graph0" class="graph" transform="scale(1 1) rotate(0) translate(4 192)">
<title>src/integrator.h</title>
<polygon fill="white" stroke="none" points="-4,4 -4,-192 484,-192 484,4 -4,4"/>
<!-- Node1 -->
<g id="node1" class="node"><title>Node1</title>
<polygon fill="#bfbfbf" stroke="black" points="162.5,-168.5 162.5,-187.5 242.5,-187.5 242.5,-168.5 162.5,-168.5"/>
<text text-anchor="middle" x="202.5" y="-175.5" font-family="FreeSans" font-size="10.00">src/integrator.h</text>
</g>
<!-- Node2 -->
<g id="node2" class="node"><title>Node2</title>
<g id="a_node2"><a xlink:href="mathUtils_8h.html" target="_top" xlink:title="mathUtils.h">
<polygon fill="white" stroke="black" points="170,-112.5 170,-131.5 235,-131.5 235,-112.5 170,-112.5"/>
<text text-anchor="middle" x="202.5" y="-119.5" font-family="FreeSans" font-size="10.00">mathUtils.h</text>
</a>
</g>
</g>
<!-- Node1&#45;&gt;Node2 -->
<g id="edge1" class="edge"><title>Node1&#45;&gt;Node2</title>
<path fill="none" stroke="midnightblue" d="M202.5,-168.083C202.5,-161.006 202.5,-150.861 202.5,-141.986"/>
<polygon fill="midnightblue" stroke="midnightblue" points="206,-141.751 202.5,-131.751 199,-141.751 206,-141.751"/>
</g>
<!-- Node3 -->
<g id="node3" class="node"><title>Node3</title>
<polygon fill="white" stroke="#bfbfbf" points="0,-56.5 0,-75.5 43,-75.5 43,-56.5 0,-56.5"/>
<text text-anchor="middle" x="21.5" y="-63.5" font-family="FreeSans" font-size="10.00">vector</text>
</g>
<!-- Node2&#45;&gt;Node3 -->
<g id="edge2" class="edge"><title>Node2&#45;&gt;Node3</title>
<path fill="none" stroke="midnightblue" d="M173.82,-112.444C140.937,-102.633 87.1976,-86.6004 53.1263,-76.4355"/>
<polygon fill="midnightblue" stroke="midnightblue" points="53.8121,-72.9877 43.2288,-73.4826 51.8108,-79.6955 53.8121,-72.9877"/>
</g>
<!-- Node4 -->
<g id="node4" class="node"><title>Node4</title>
<polygon fill="white" stroke="#bfbfbf" points="61.5,-56.5 61.5,-75.5 105.5,-75.5 105.5,-56.5 61.5,-56.5"/>
<text text-anchor="middle" x="83.5" y="-63.5" font-family="FreeSans" font-size="10.00">cmath</text>
</g>
<!-- Node2&#45;&gt;Node4 -->
<g id="edge3" class="edge"><title>Node2&#45;&gt;Node4</title>
<path fill="none" stroke="midnightblue" d="M183.644,-112.444C164.234,-103.636 133.77,-89.8116 111.535,-79.722"/>
<polygon fill="midnightblue" stroke="midnightblue" points="112.82,-76.4615 102.268,-75.5164 109.928,-82.836 112.82,-76.4615"/>
</g>
<!-- Node5 -->
<g id="node5" class="node"><title>Node5</title>
<polygon fill="white" stroke="#bfbfbf" points="80,-0.5 80,-19.5 133,-19.5 133,-0.5 80,-0.5"/>
<text text-anchor="middle" x="106.5" y="-7.5" font-family="FreeSans" font-size="10.00">iostream</text>
</g>
<!-- Node2&#45;&gt;Node5 -->
<g id="edge4" class="edge"><title>Node2&#45;&gt;Node5</title>
<path fill="none" stroke="midnightblue" d="M194.967,-112.368C178.984,-94.0547 141.452,-51.0489 120.78,-27.3624"/>
<polygon fill="midnightblue" stroke="midnightblue" points="123.21,-24.8243 113.998,-19.5914 117.936,-29.4271 123.21,-24.8243"/>
</g>
<!-- Node6 -->
<g id="node6" class="node"><title>Node6</title>
<polygon fill="white" stroke="#bfbfbf" points="287.5,-56.5 287.5,-75.5 337.5,-75.5 337.5,-56.5 287.5,-56.5"/>
<text text-anchor="middle" x="312.5" y="-63.5" font-family="FreeSans" font-size="10.00">sstream</text>
</g>
<!-- Node2&#45;&gt;Node6 -->
<g id="edge5" class="edge"><title>Node2&#45;&gt;Node6</title>
<path fill="none" stroke="midnightblue" d="M220.173,-112.324C237.894,-103.625 265.403,-90.1202 285.788,-80.113"/>
<polygon fill="midnightblue" stroke="midnightblue" points="287.436,-83.2031 294.87,-75.6545 284.351,-76.9195 287.436,-83.2031"/>
</g>
<!-- Node7 -->
<g id="node7" class="node"><title>Node7</title>
<polygon fill="white" stroke="#bfbfbf" points="151.5,-0.5 151.5,-19.5 191.5,-19.5 191.5,-0.5 151.5,-0.5"/>
<text text-anchor="middle" x="171.5" y="-7.5" font-family="FreeSans" font-size="10.00">string</text>
</g>
<!-- Node2&#45;&gt;Node7 -->
<g id="edge6" class="edge"><title>Node2&#45;&gt;Node7</title>
<path fill="none" stroke="midnightblue" d="M200.067,-112.368C195.042,-94.5366 183.42,-53.2953 176.649,-29.2717"/>
<polygon fill="midnightblue" stroke="midnightblue" points="180.003,-28.2671 173.921,-19.5914 173.265,-30.1659 180.003,-28.2671"/>
</g>
<!-- Node8 -->
<g id="node8" class="node"><title>Node8</title>
<polygon fill="white" stroke="#bfbfbf" points="356,-56.5 356,-75.5 391,-75.5 391,-56.5 356,-56.5"/>
<text text-anchor="middle" x="373.5" y="-63.5" font-family="FreeSans" font-size="10.00">map</text>
</g>
<!-- Node2&#45;&gt;Node8 -->
<g id="edge7" class="edge"><title>Node2&#45;&gt;Node8</title>
<path fill="none" stroke="midnightblue" d="M230.424,-112.445C257.599,-104.081 300.29,-90.8445 346.254,-76.036"/>
<polygon fill="midnightblue" stroke="midnightblue" points="347.357,-79.3581 355.797,-72.9541 345.205,-72.6969 347.357,-79.3581"/>
</g>
<!-- Node9 -->
<g id="node9" class="node"><title>Node9</title>
<g id="a_node9"><a xlink:href="debugUtils_8h.html" target="_top" xlink:title="debugUtils.h">
<polygon fill="white" stroke="black" points="200,-56.5 200,-75.5 269,-75.5 269,-56.5 200,-56.5"/>
<text text-anchor="middle" x="234.5" y="-63.5" font-family="FreeSans" font-size="10.00">debugUtils.h</text>
</a>
</g>
</g>
<!-- Node2&#45;&gt;Node9 -->
<g id="edge8" class="edge"><title>Node2&#45;&gt;Node9</title>
<path fill="none" stroke="midnightblue" d="M207.784,-112.083C212.211,-104.613 218.663,-93.7244 224.118,-84.5199"/>
<polygon fill="midnightblue" stroke="midnightblue" points="227.227,-86.1383 229.314,-75.7511 221.205,-82.5697 227.227,-86.1383"/>
</g>
<!-- Node13 -->
<g id="node13" class="node"><title>Node13</title>
<polygon fill="white" stroke="#bfbfbf" points="409,-56.5 409,-75.5 480,-75.5 480,-56.5 409,-56.5"/>
<text text-anchor="middle" x="444.5" y="-63.5" font-family="FreeSans" font-size="10.00">Eigen/Dense</text>
</g>
<!-- Node2&#45;&gt;Node13 -->
<g id="edge14" class="edge"><title>Node2&#45;&gt;Node13</title>
<path fill="none" stroke="midnightblue" d="M235.137,-113.717C277.414,-104.284 351.336,-87.7887 399.078,-77.1356"/>
<polygon fill="midnightblue" stroke="midnightblue" points="399.849,-80.5496 408.847,-74.9556 398.325,-73.7176 399.849,-80.5496"/>
</g>
<!-- Node9&#45;&gt;Node5 -->
<g id="edge10" class="edge"><title>Node9&#45;&gt;Node5</title>
<path fill="none" stroke="midnightblue" d="M214.218,-56.4435C193.153,-47.5566 159.983,-33.5632 136.014,-23.4514"/>
<polygon fill="midnightblue" stroke="midnightblue" points="137.261,-20.1787 126.687,-19.5164 134.54,-26.6283 137.261,-20.1787"/>
</g>
<!-- Node9&#45;&gt;Node7 -->
<g id="edge9" class="edge"><title>Node9&#45;&gt;Node7</title>
<path fill="none" stroke="midnightblue" d="M224.378,-56.324C214.974,-48.2631 200.756,-36.0765 189.431,-26.3695"/>
<polygon fill="midnightblue" stroke="midnightblue" points="191.677,-23.6844 181.806,-19.8339 187.121,-28.9993 191.677,-23.6844"/>
</g>
<!-- Node10 -->
<g id="node10" class="node"><title>Node10</title>
<polygon fill="white" stroke="#bfbfbf" points="210,-0.5 210,-19.5 259,-19.5 259,-0.5 210,-0.5"/>
<text text-anchor="middle" x="234.5" y="-7.5" font-family="FreeSans" font-size="10.00">fstream</text>
</g>
<!-- Node9&#45;&gt;Node10 -->
<g id="edge11" class="edge"><title>Node9&#45;&gt;Node10</title>
<path fill="none" stroke="midnightblue" d="M234.5,-56.083C234.5,-49.0059 234.5,-38.8611 234.5,-29.9865"/>
<polygon fill="midnightblue" stroke="midnightblue" points="238,-29.751 234.5,-19.7511 231,-29.7511 238,-29.751"/>
</g>
<!-- Node11 -->
<g id="node11" class="node"><title>Node11</title>
<polygon fill="white" stroke="#bfbfbf" points="277.5,-0.5 277.5,-19.5 335.5,-19.5 335.5,-0.5 277.5,-0.5"/>
<text text-anchor="middle" x="306.5" y="-7.5" font-family="FreeSans" font-size="10.00">exception</text>
</g>
<!-- Node9&#45;&gt;Node11 -->
<g id="edge12" class="edge"><title>Node9&#45;&gt;Node11</title>
<path fill="none" stroke="midnightblue" d="M246.068,-56.324C256.92,-48.1849 273.381,-35.8395 286.383,-26.0874"/>
<polygon fill="midnightblue" stroke="midnightblue" points="288.821,-28.6339 294.721,-19.8339 284.621,-23.0339 288.821,-28.6339"/>
</g>
<!-- Node12 -->
<g id="node12" class="node"><title>Node12</title>
<polygon fill="white" stroke="#bfbfbf" points="353,-0.5 353,-19.5 442,-19.5 442,-0.5 353,-0.5"/>
<text text-anchor="middle" x="397.5" y="-7.5" font-family="FreeSans" font-size="10.00">boost/format.hpp</text>
</g>
<!-- Node9&#45;&gt;Node12 -->
<g id="edge13" class="edge"><title>Node9&#45;&gt;Node12</title>
<path fill="none" stroke="midnightblue" d="M260.328,-56.4435C287.749,-47.3591 331.277,-32.9388 361.932,-22.7831"/>
<polygon fill="midnightblue" stroke="midnightblue" points="363.401,-25.9837 371.793,-19.5164 361.2,-19.3389 363.401,-25.9837"/>
</g>
</g>
</svg>
