<?xml version="1.0" encoding="UTF-8" standalone="no"?>
<!DOCTYPE svg PUBLIC "-//W3C//DTD SVG 1.1//EN"
 "http://www.w3.org/Graphics/SVG/1.1/DTD/svg11.dtd">
<!-- Generated by graphviz version 2.26.3 (20100126.1600)
 -->
<!-- Title: src/integrator.h Pages: 1 -->
<svg width="305pt" height="204pt"
 viewBox="0.00 0.00 305.00 204.00" xmlns="http://www.w3.org/2000/svg" xmlns:xlink="http://www.w3.org/1999/xlink">
<g id="graph1" class="graph" transform="scale(1 1) rotate(0) translate(4 200)">
<title>src/integrator.h</title>
<polygon fill="white" stroke="white" points="-4,5 -4,-200 302,-200 302,5 -4,5"/>
<!-- Node1 -->
<g id="node1" class="node"><title>Node1</title>
<polygon fill="#bfbfbf" stroke="black" points="139,-175 139,-195 219,-195 219,-175 139,-175"/>
<text text-anchor="middle" x="179" y="-182" font-family="FreeSans" font-size="10.00">src/integrator.h</text>
</g>
<!-- Node2 -->
<g id="node3" class="node"><title>Node2</title>
<a xlink:href="diffusionSystem_8h.html" target="_top" xlink:title="src/diffusionSystem.h">
<polygon fill="white" stroke="black" points="44.5,-117 44.5,-137 151.5,-137 151.5,-117 44.5,-117"/>
<text text-anchor="middle" x="98" y="-124" font-family="FreeSans" font-size="10.00">src/diffusionSystem.h</text>
</a>
</g>
<!-- Node1&#45;&gt;Node2 -->
<g id="edge2" class="edge"><title>Node1&#45;&gt;Node2</title>
<path fill="none" stroke="midnightblue" d="M156.62,-168.975C142.426,-158.811 124.49,-145.968 112.219,-137.182"/>
<polygon fill="midnightblue" stroke="midnightblue" points="154.723,-171.921 164.891,-174.897 158.798,-166.23 154.723,-171.921"/>
</g>
<!-- Node4 -->
<g id="node7" class="node"><title>Node4</title>
<a xlink:href="flameSolver_8h.html" target="_top" xlink:title="src/flameSolver.h">
<polygon fill="white" stroke="black" points="134,-59 134,-79 224,-79 224,-59 134,-59"/>
<text text-anchor="middle" x="179" y="-66" font-family="FreeSans" font-size="10.00">src/flameSolver.h</text>
</a>
</g>
<!-- Node1&#45;&gt;Node4 -->
<g id="edge10" class="edge"><title>Node1&#45;&gt;Node4</title>
<path fill="none" stroke="midnightblue" d="M179,-164.487C179,-139.447 179,-98.0959 179,-79.1055"/>
<polygon fill="midnightblue" stroke="midnightblue" points="175.5,-164.706 179,-174.706 182.5,-164.706 175.5,-164.706"/>
</g>
<!-- Node6 -->
<g id="node12" class="node"><title>Node6</title>
<a xlink:href="integrator_8cpp.html" target="_top" xlink:title="src/integrator.cpp">
<polygon fill="white" stroke="black" points="206.5,-117 206.5,-137 297.5,-137 297.5,-117 206.5,-117"/>
<text text-anchor="middle" x="252" y="-124" font-family="FreeSans" font-size="10.00">src/integrator.cpp</text>
</a>
</g>
<!-- Node1&#45;&gt;Node6 -->
<g id="edge12" class="edge"><title>Node1&#45;&gt;Node6</title>
<path fill="none" stroke="midnightblue" d="M199.843,-168.44C212.43,-158.439 228.082,-146.004 238.939,-137.378"/>
<polygon fill="midnightblue" stroke="midnightblue" points="197.368,-165.936 191.716,-174.897 201.722,-171.417 197.368,-165.936"/>
</g>
<!-- Node3 -->
<g id="node5" class="node"><title>Node3</title>
<a xlink:href="diffusionSystem_8cpp.html" target="_top" xlink:title="src/diffusionSystem.cpp">
<polygon fill="white" stroke="black" points="-0.5,-59 -0.5,-79 116.5,-79 116.5,-59 -0.5,-59"/>
<text text-anchor="middle" x="58" y="-66" font-family="FreeSans" font-size="10.00">src/diffusionSystem.cpp</text>
</a>
</g>
<!-- Node2&#45;&gt;Node3 -->
<g id="edge4" class="edge"><title>Node2&#45;&gt;Node3</title>
<path fill="none" stroke="midnightblue" d="M85.1649,-108.389C78.5396,-98.7824 70.7055,-87.423 65.157,-79.3776"/>
<polygon fill="midnightblue" stroke="midnightblue" points="82.4739,-110.652 91.0325,-116.897 88.2364,-106.678 82.4739,-110.652"/>
</g>
<!-- Node2&#45;&gt;Node4 -->
<g id="edge6" class="edge"><title>Node2&#45;&gt;Node4</title>
<path fill="none" stroke="midnightblue" d="M120.38,-110.975C134.574,-100.811 152.51,-87.9681 164.781,-79.1817"/>
<polygon fill="midnightblue" stroke="midnightblue" points="118.202,-108.23 112.109,-116.897 122.277,-113.921 118.202,-108.23"/>
</g>
<!-- Node5 -->
<g id="node9" class="node"><title>Node5</title>
<a xlink:href="flameSolver_8cpp.html" target="_top" xlink:title="src/flameSolver.cpp">
<polygon fill="white" stroke="black" points="128.5,-1 128.5,-21 229.5,-21 229.5,-1 128.5,-1"/>
<text text-anchor="middle" x="179" y="-8" font-family="FreeSans" font-size="10.00">src/flameSolver.cpp</text>
</a>
</g>
<!-- Node4&#45;&gt;Node5 -->
<g id="edge8" class="edge"><title>Node4&#45;&gt;Node5</title>
<path fill="none" stroke="midnightblue" d="M179,-48.8902C179,-39.6201 179,-29.0083 179,-21.3776"/>
<polygon fill="midnightblue" stroke="midnightblue" points="175.5,-48.8971 179,-58.8972 182.5,-48.8972 175.5,-48.8971"/>
</g>
</g>
</svg>
