<?xml version="1.0" encoding="UTF-8" standalone="no"?>
<!DOCTYPE svg PUBLIC "-//W3C//DTD SVG 1.1//EN"
 "http://www.w3.org/Graphics/SVG/1.1/DTD/svg11.dtd">
<!-- Generated by graphviz version 8.1.0 (20230707.2238)
 -->
<!-- Title: src/integrator.cpp Pages: 1 -->
<svg width="671pt" height="256pt"
 viewBox="0.00 0.00 671.27 255.75" xmlns="http://www.w3.org/2000/svg" xmlns:xlink="http://www.w3.org/1999/xlink">
<g id="graph0" class="graph" transform="scale(1 1) rotate(0) translate(4 251.75)">
<title>src/integrator.cpp</title>
<!-- Node1 -->
<g id="Node000001" class="node">
<title>Node1</title>
<g id="a_Node000001"><a xlink:title=" ">
<polygon fill="#999999" stroke="#666666" points="532.9,-247.75 432.15,-247.75 432.15,-227 532.9,-227 532.9,-247.75"/>
<text text-anchor="middle" x="482.52" y="-234.25" font-family="FreeSans" font-size="10.00">src/integrator.cpp</text>
</a>
</g>
</g>
<!-- Node2 -->
<g id="Node000002" class="node">
<title>Node2</title>
<g id="a_Node000002"><a xlink:href="integrator_8h.html" target="_top" xlink:title=" ">
<polygon fill="white" stroke="#666666" points="486.65,-191 414.4,-191 414.4,-170.25 486.65,-170.25 486.65,-191"/>
<text text-anchor="middle" x="450.52" y="-177.5" font-family="FreeSans" font-size="10.00">integrator.h</text>
</a>
</g>
</g>
<!-- Node1&#45;&gt;Node2 -->
<g id="edge1_Node000001_Node000002" class="edge">
<title>Node1&#45;&gt;Node2</title>
<g id="a_edge1_Node000001_Node000002"><a xlink:title=" ">
<path fill="none" stroke="#63b8ff" d="M476.8,-226.59C472.61,-219.42 466.8,-209.48 461.7,-200.76"/>
<polygon fill="#63b8ff" stroke="#63b8ff" points="464.26,-199.2 456.19,-192.33 458.22,-202.73 464.26,-199.2"/>
</a>
</g>
</g>
<!-- Node10 -->
<g id="Node000010" class="node">
<title>Node10</title>
<g id="a_Node000010"><a xlink:href="debugUtils_8h.html" target="_top" xlink:title=" ">
<polygon fill="#fff0f0" stroke="red" points="663.27,-77.5 585.77,-77.5 585.77,-56.75 663.27,-56.75 663.27,-77.5"/>
<text text-anchor="middle" x="624.52" y="-64" font-family="FreeSans" font-size="10.00">debugUtils.h</text>
</a>
</g>
</g>
<!-- Node1&#45;&gt;Node10 -->
<g id="edge14_Node000001_Node000010" class="edge">
<title>Node1&#45;&gt;Node10</title>
<g id="a_edge14_Node000001_Node000010"><a xlink:title=" ">
<path fill="none" stroke="#63b8ff" d="M490.56,-226.85C513.49,-199.67 579.49,-121.48 609.43,-86.01"/>
<polygon fill="#63b8ff" stroke="#63b8ff" points="612.44,-88.87 616.21,-78.97 607.09,-84.35 612.44,-88.87"/>
</a>
</g>
</g>
<!-- Node3 -->
<g id="Node000003" class="node">
<title>Node3</title>
<g id="a_Node000003"><a xlink:href="mathUtils_8h.html" target="_top" xlink:title=" ">
<polygon fill="white" stroke="#666666" points="376.02,-134.25 303.02,-134.25 303.02,-113.5 376.02,-113.5 376.02,-134.25"/>
<text text-anchor="middle" x="339.52" y="-120.75" font-family="FreeSans" font-size="10.00">mathUtils.h</text>
</a>
</g>
</g>
<!-- Node2&#45;&gt;Node3 -->
<g id="edge2_Node000002_Node000003" class="edge">
<title>Node2&#45;&gt;Node3</title>
<g id="a_edge2_Node000002_Node000003"><a xlink:title=" ">
<path fill="none" stroke="#63b8ff" d="M430.68,-169.84C413.47,-161.35 388.34,-148.95 368.82,-139.33"/>
<polygon fill="#63b8ff" stroke="#63b8ff" points="370.71,-135.86 360.19,-134.58 367.61,-142.14 370.71,-135.86"/>
</a>
</g>
</g>
<!-- Node4 -->
<g id="Node000004" class="node">
<title>Node4</title>
<g id="a_Node000004"><a xlink:title=" ">
<polygon fill="#e0e0e0" stroke="#999999" points="529.9,-77.5 483.15,-77.5 483.15,-56.75 529.9,-56.75 529.9,-77.5"/>
<text text-anchor="middle" x="506.52" y="-64" font-family="FreeSans" font-size="10.00">vector</text>
</a>
</g>
</g>
<!-- Node3&#45;&gt;Node4 -->
<g id="edge3_Node000003_Node000004" class="edge">
<title>Node3&#45;&gt;Node4</title>
<g id="a_edge3_Node000003_Node000004"><a xlink:title=" ">
<path fill="none" stroke="#63b8ff" d="M369.38,-113.09C398.41,-103.57 442.46,-89.13 472.76,-79.19"/>
<polygon fill="#63b8ff" stroke="#63b8ff" points="473.44,-82.32 481.86,-75.88 471.26,-75.67 473.44,-82.32"/>
</a>
</g>
</g>
<!-- Node5 -->
<g id="Node000005" class="node">
<title>Node5</title>
<g id="a_Node000005"><a xlink:title=" ">
<polygon fill="#e0e0e0" stroke="#999999" points="59.9,-77.5 13.15,-77.5 13.15,-56.75 59.9,-56.75 59.9,-77.5"/>
<text text-anchor="middle" x="36.52" y="-64" font-family="FreeSans" font-size="10.00">cmath</text>
</a>
</g>
</g>
<!-- Node3&#45;&gt;Node5 -->
<g id="edge4_Node000003_Node000005" class="edge">
<title>Node3&#45;&gt;Node5</title>
<g id="a_edge4_Node000003_Node000005"><a xlink:title=" ">
<path fill="none" stroke="#63b8ff" d="M302.87,-118.15C252.52,-111.35 158.99,-97.63 70.67,-77.79"/>
<polygon fill="#63b8ff" stroke="#63b8ff" points="71.73,-74.22 61.2,-75.4 70.17,-81.04 71.73,-74.22"/>
</a>
</g>
</g>
<!-- Node6 -->
<g id="Node000006" class="node">
<title>Node6</title>
<g id="a_Node000006"><a xlink:title=" ">
<polygon fill="#e0e0e0" stroke="#999999" points="299.27,-20.75 239.77,-20.75 239.77,0 299.27,0 299.27,-20.75"/>
<text text-anchor="middle" x="269.52" y="-7.25" font-family="FreeSans" font-size="10.00">iostream</text>
</a>
</g>
</g>
<!-- Node3&#45;&gt;Node6 -->
<g id="edge5_Node000003_Node000006" class="edge">
<title>Node3&#45;&gt;Node6</title>
<g id="a_edge5_Node000003_Node000006"><a xlink:title=" ">
<path fill="none" stroke="#63b8ff" d="M302.81,-123.67C224.06,-124.5 42.94,-121.48 4.52,-77.5 -1.55,-70.56 -1.43,-63.8 4.52,-56.75 32.74,-23.29 161.86,-14.5 228.88,-12.2"/>
<polygon fill="#63b8ff" stroke="#63b8ff" points="228.58,-15.68 238.46,-11.87 228.36,-8.68 228.58,-15.68"/>
</a>
</g>
</g>
<!-- Node7 -->
<g id="Node000007" class="node">
<title>Node7</title>
<g id="a_Node000007"><a xlink:title=" ">
<polygon fill="#e0e0e0" stroke="#999999" points="133.4,-77.5 77.65,-77.5 77.65,-56.75 133.4,-56.75 133.4,-77.5"/>
<text text-anchor="middle" x="105.52" y="-64" font-family="FreeSans" font-size="10.00">sstream</text>
</a>
</g>
</g>
<!-- Node3&#45;&gt;Node7 -->
<g id="edge6_Node000003_Node000007" class="edge">
<title>Node3&#45;&gt;Node7</title>
<g id="a_edge6_Node000003_Node000007"><a xlink:title=" ">
<path fill="none" stroke="#63b8ff" d="M302.79,-114.67C265.35,-106.24 205.32,-92.59 144.37,-77.91"/>
<polygon fill="#63b8ff" stroke="#63b8ff" points="145.33,-74.3 134.79,-75.35 143.68,-81.1 145.33,-74.3"/>
</a>
</g>
</g>
<!-- Node8 -->
<g id="Node000008" class="node">
<title>Node8</title>
<g id="a_Node000008"><a xlink:title=" ">
<polygon fill="#e0e0e0" stroke="#999999" points="612.4,-20.75 568.65,-20.75 568.65,0 612.4,0 612.4,-20.75"/>
<text text-anchor="middle" x="590.52" y="-7.25" font-family="FreeSans" font-size="10.00">string</text>
</a>
</g>
</g>
<!-- Node3&#45;&gt;Node8 -->
<g id="edge7_Node000003_Node000008" class="edge">
<title>Node3&#45;&gt;Node8</title>
<g id="a_edge7_Node000003_Node000008"><a xlink:title=" ">
<path fill="none" stroke="#63b8ff" d="M376.44,-121.74C418.65,-118.87 488.37,-109.24 538.52,-77.5 556.77,-65.95 571.29,-45.68 580.29,-30.62"/>
<polygon fill="#63b8ff" stroke="#63b8ff" points="583.75,-32.62 585.63,-22.19 577.66,-29.17 583.75,-32.62"/>
</a>
</g>
</g>
<!-- Node9 -->
<g id="Node000009" class="node">
<title>Node9</title>
<g id="a_Node000009"><a xlink:title=" ">
<polygon fill="#e0e0e0" stroke="#999999" points="189.4,-77.5 151.65,-77.5 151.65,-56.75 189.4,-56.75 189.4,-77.5"/>
<text text-anchor="middle" x="170.52" y="-64" font-family="FreeSans" font-size="10.00">map</text>
</a>
</g>
</g>
<!-- Node3&#45;&gt;Node9 -->
<g id="edge8_Node000003_Node000009" class="edge">
<title>Node3&#45;&gt;Node9</title>
<g id="a_edge8_Node000003_Node000009"><a xlink:title=" ">
<path fill="none" stroke="#63b8ff" d="M308.68,-113.07C282.21,-104.62 242.79,-91.99 200.11,-78"/>
<polygon fill="#63b8ff" stroke="#63b8ff" points="201.38,-74.4 190.79,-74.61 199.2,-81.05 201.38,-74.4"/>
</a>
</g>
</g>
<!-- Node3&#45;&gt;Node10 -->
<g id="edge9_Node000003_Node000010" class="edge">
<title>Node3&#45;&gt;Node10</title>
<g id="a_edge9_Node000003_Node000010"><a xlink:title=" ">
<path fill="none" stroke="#63b8ff" d="M376.49,-115.77C427.14,-106.04 518.27,-88.54 574.85,-77.67"/>
<polygon fill="#63b8ff" stroke="#63b8ff" points="575.17,-80.98 584.33,-75.65 573.85,-74.1 575.17,-80.98"/>
</a>
</g>
</g>
<!-- Node14 -->
<g id="Node000014" class="node">
<title>Node14</title>
<g id="a_Node000014"><a xlink:title=" ">
<polygon fill="#e0e0e0" stroke="#999999" points="333.65,-77.5 207.4,-77.5 207.4,-56.75 333.65,-56.75 333.65,-77.5"/>
<text text-anchor="middle" x="270.52" y="-64" font-family="FreeSans" font-size="10.00">cantera/base/ct_defs.h</text>
</a>
</g>
</g>
<!-- Node3&#45;&gt;Node14 -->
<g id="edge12_Node000003_Node000014" class="edge">
<title>Node3&#45;&gt;Node14</title>
<g id="a_edge12_Node000003_Node000014"><a xlink:title=" ">
<path fill="none" stroke="#63b8ff" d="M327.18,-113.09C317.18,-105.15 302.85,-93.78 291.11,-84.46"/>
<polygon fill="#63b8ff" stroke="#63b8ff" points="293.76,-81.3 283.75,-77.83 289.41,-86.79 293.76,-81.3"/>
</a>
</g>
</g>
<!-- Node15 -->
<g id="Node000015" class="node">
<title>Node15</title>
<g id="a_Node000015"><a xlink:title=" ">
<polygon fill="#e0e0e0" stroke="#999999" points="464.9,-77.5 352.15,-77.5 352.15,-56.75 464.9,-56.75 464.9,-77.5"/>
<text text-anchor="middle" x="408.52" y="-64" font-family="FreeSans" font-size="10.00">eigen3/Eigen/Dense</text>
</a>
</g>
</g>
<!-- Node3&#45;&gt;Node15 -->
<g id="edge13_Node000003_Node000015" class="edge">
<title>Node3&#45;&gt;Node15</title>
<g id="a_edge13_Node000003_Node000015"><a xlink:title=" ">
<path fill="none" stroke="#63b8ff" d="M351.86,-113.09C361.86,-105.15 376.19,-93.78 387.93,-84.46"/>
<polygon fill="#63b8ff" stroke="#63b8ff" points="389.63,-86.79 395.29,-77.83 385.28,-81.3 389.63,-86.79"/>
</a>
</g>
</g>
<!-- Node10&#45;&gt;Node6 -->
<g id="edge11_Node000010_Node000006" class="edge">
<title>Node10&#45;&gt;Node6</title>
<g id="a_edge11_Node000010_Node000006"><a xlink:title=" ">
<path fill="none" stroke="#63b8ff" d="M585.51,-60.11C517.78,-49.66 379.07,-28.27 310.19,-17.65"/>
<polygon fill="#63b8ff" stroke="#63b8ff" points="310.78,-14.04 300.36,-15.98 309.71,-20.96 310.78,-14.04"/>
</a>
</g>
</g>
<!-- Node10&#45;&gt;Node8 -->
<g id="edge10_Node000010_Node000008" class="edge">
<title>Node10&#45;&gt;Node8</title>
<g id="a_edge10_Node000010_Node000008"><a xlink:title=" ">
<path fill="none" stroke="#63b8ff" d="M618.44,-56.34C613.95,-49.1 607.68,-39.01 602.23,-30.22"/>
<polygon fill="#63b8ff" stroke="#63b8ff" points="604.8,-28.73 596.55,-22.08 598.85,-32.42 604.8,-28.73"/>
</a>
</g>
</g>
</g>
</svg>
