<?xml version="1.0" encoding="UTF-8" standalone="no"?>
<!DOCTYPE svg PUBLIC "-//W3C//DTD SVG 1.1//EN"
 "http://www.w3.org/Graphics/SVG/1.1/DTD/svg11.dtd">
<!-- Generated by graphviz version 2.43.0 (0)
 -->
<!-- Title: src/mathUtils.cpp Pages: 1 -->
<svg width="2360pt" height="203pt"
 viewBox="0.00 0.00 2359.50 203.00" xmlns="http://www.w3.org/2000/svg" xmlns:xlink="http://www.w3.org/1999/xlink">
<g id="graph0" class="graph" transform="scale(1 1) rotate(0) translate(4 199)">
<title>src/mathUtils.cpp</title>
<!-- Node1 -->
<g id="Node000001" class="node">
<title>Node1</title>
<g id="a_Node000001"><a xlink:title=" ">
<polygon fill="#999999" stroke="#666666" points="1510,-195 1417,-195 1417,-176 1510,-176 1510,-195"/>
<text text-anchor="middle" x="1463.5" y="-183" font-family="FreeSans" font-size="10.00">src/mathUtils.cpp</text>
</a>
</g>
</g>
<!-- Node2 -->
<g id="Node000002" class="node">
<title>Node2</title>
<g id="a_Node000002"><a xlink:href="mathUtils_8h.html" target="_top" xlink:title=" ">
<polygon fill="white" stroke="#666666" points="396.5,-140 330.5,-140 330.5,-121 396.5,-121 396.5,-140"/>
<text text-anchor="middle" x="363.5" y="-128" font-family="FreeSans" font-size="10.00">mathUtils.h</text>
</a>
</g>
</g>
<!-- Node1&#45;&gt;Node2 -->
<g id="edge1_Node000001_Node000002" class="edge">
<title>Node1&#45;&gt;Node2</title>
<g id="a_edge1_Node000001_Node000002"><a xlink:title=" ">
<path fill="none" stroke="#63b8ff" d="M1416.94,-182.26C1236.1,-173.54 581.8,-142.02 406.8,-133.59"/>
<polygon fill="#63b8ff" stroke="#63b8ff" points="406.84,-130.08 396.68,-133.1 406.5,-137.08 406.84,-130.08"/>
</a>
</g>
</g>
<!-- Node15 -->
<g id="Node000015" class="node">
<title>Node15</title>
<g id="a_Node000015"><a xlink:href="sundialsUtils_8h.html" target="_top" xlink:title=" ">
<polygon fill="white" stroke="#666666" points="1503.5,-140 1423.5,-140 1423.5,-121 1503.5,-121 1503.5,-140"/>
<text text-anchor="middle" x="1463.5" y="-128" font-family="FreeSans" font-size="10.00">sundialsUtils.h</text>
</a>
</g>
</g>
<!-- Node1&#45;&gt;Node15 -->
<g id="edge16_Node000001_Node000015" class="edge">
<title>Node1&#45;&gt;Node15</title>
<g id="a_edge16_Node000001_Node000015"><a xlink:title=" ">
<path fill="none" stroke="#63b8ff" d="M1463.5,-175.75C1463.5,-168.8 1463.5,-158.85 1463.5,-150.13"/>
<polygon fill="#63b8ff" stroke="#63b8ff" points="1467,-150.09 1463.5,-140.09 1460,-150.09 1467,-150.09"/>
</a>
</g>
</g>
<!-- Node30 -->
<g id="Node000030" class="node">
<title>Node30</title>
<g id="a_Node000030"><a xlink:title=" ">
<polygon fill="#e0e0e0" stroke="#999999" points="1561.5,-140 1521.5,-140 1521.5,-121 1561.5,-121 1561.5,-140"/>
<text text-anchor="middle" x="1541.5" y="-128" font-family="FreeSans" font-size="10.00">limits</text>
</a>
</g>
</g>
<!-- Node1&#45;&gt;Node30 -->
<g id="edge34_Node000001_Node000030" class="edge">
<title>Node1&#45;&gt;Node30</title>
<g id="a_edge34_Node000001_Node000030"><a xlink:title=" ">
<path fill="none" stroke="#63b8ff" d="M1476.03,-175.98C1487.9,-167.92 1505.96,-155.65 1520.11,-146.03"/>
<polygon fill="#63b8ff" stroke="#63b8ff" points="1522.44,-148.69 1528.74,-140.17 1518.5,-142.9 1522.44,-148.69"/>
</a>
</g>
</g>
<!-- Node3 -->
<g id="Node000003" class="node">
<title>Node3</title>
<g id="a_Node000003"><a xlink:title=" ">
<polygon fill="#e0e0e0" stroke="#999999" points="516.5,-79.5 472.5,-79.5 472.5,-60.5 516.5,-60.5 516.5,-79.5"/>
<text text-anchor="middle" x="494.5" y="-67.5" font-family="FreeSans" font-size="10.00">vector</text>
</a>
</g>
</g>
<!-- Node2&#45;&gt;Node3 -->
<g id="edge2_Node000002_Node000003" class="edge">
<title>Node2&#45;&gt;Node3</title>
<g id="a_edge2_Node000002_Node000003"><a xlink:title=" ">
<path fill="none" stroke="#63b8ff" d="M382.55,-120.99C404.47,-111.2 440.71,-95.02 466,-83.73"/>
<polygon fill="#63b8ff" stroke="#63b8ff" points="467.72,-86.79 475.43,-79.52 464.87,-80.4 467.72,-86.79"/>
</a>
</g>
</g>
<!-- Node4 -->
<g id="Node000004" class="node">
<title>Node4</title>
<g id="a_Node000004"><a xlink:title=" ">
<polygon fill="#e0e0e0" stroke="#999999" points="165.5,-79.5 121.5,-79.5 121.5,-60.5 165.5,-60.5 165.5,-79.5"/>
<text text-anchor="middle" x="143.5" y="-67.5" font-family="FreeSans" font-size="10.00">cmath</text>
</a>
</g>
</g>
<!-- Node2&#45;&gt;Node4 -->
<g id="edge3_Node000002_Node000004" class="edge">
<title>Node2&#45;&gt;Node4</title>
<g id="a_edge3_Node000002_Node000004"><a xlink:title=" ">
<path fill="none" stroke="#63b8ff" d="M330.23,-122.85C293.09,-115.11 231.4,-101.29 179.5,-85 177.63,-84.41 175.71,-83.78 173.79,-83.11"/>
<polygon fill="#63b8ff" stroke="#63b8ff" points="174.87,-79.78 164.27,-79.62 172.46,-86.35 174.87,-79.78"/>
</a>
</g>
</g>
<!-- Node5 -->
<g id="Node000005" class="node">
<title>Node5</title>
<g id="a_Node000005"><a xlink:title=" ">
<polygon fill="#e0e0e0" stroke="#999999" points="518.5,-19 464.5,-19 464.5,0 518.5,0 518.5,-19"/>
<text text-anchor="middle" x="491.5" y="-7" font-family="FreeSans" font-size="10.00">iostream</text>
</a>
</g>
</g>
<!-- Node2&#45;&gt;Node5 -->
<g id="edge4_Node000002_Node000005" class="edge">
<title>Node2&#45;&gt;Node5</title>
<g id="a_edge4_Node000002_Node000005"><a xlink:title=" ">
<path fill="none" stroke="#63b8ff" d="M377.47,-120.77C390.49,-112.34 410.16,-98.85 425.5,-85 445.45,-67 465.51,-43.38 478.19,-27.61"/>
<polygon fill="#63b8ff" stroke="#63b8ff" points="481.28,-29.35 484.75,-19.33 475.79,-25 481.28,-29.35"/>
</a>
</g>
</g>
<!-- Node6 -->
<g id="Node000006" class="node">
<title>Node6</title>
<g id="a_Node000006"><a xlink:title=" ">
<polygon fill="#e0e0e0" stroke="#999999" points="273.5,-79.5 221.5,-79.5 221.5,-60.5 273.5,-60.5 273.5,-79.5"/>
<text text-anchor="middle" x="247.5" y="-67.5" font-family="FreeSans" font-size="10.00">sstream</text>
</a>
</g>
</g>
<!-- Node2&#45;&gt;Node6 -->
<g id="edge5_Node000002_Node000006" class="edge">
<title>Node2&#45;&gt;Node6</title>
<g id="a_edge5_Node000002_Node000006"><a xlink:title=" ">
<path fill="none" stroke="#63b8ff" d="M346.38,-120.87C327.28,-111.23 296.13,-95.53 273.9,-84.31"/>
<polygon fill="#63b8ff" stroke="#63b8ff" points="275.19,-81.05 264.69,-79.67 272.04,-87.3 275.19,-81.05"/>
</a>
</g>
</g>
<!-- Node7 -->
<g id="Node000007" class="node">
<title>Node7</title>
<g id="a_Node000007"><a xlink:title=" ">
<polygon fill="#e0e0e0" stroke="#999999" points="195,-19 154,-19 154,0 195,0 195,-19"/>
<text text-anchor="middle" x="174.5" y="-7" font-family="FreeSans" font-size="10.00">string</text>
</a>
</g>
</g>
<!-- Node2&#45;&gt;Node7 -->
<g id="edge6_Node000002_Node000007" class="edge">
<title>Node2&#45;&gt;Node7</title>
<g id="a_edge6_Node000002_Node000007"><a xlink:title=" ">
<path fill="none" stroke="#63b8ff" d="M330.23,-127.24C297.03,-123.4 246.25,-113.02 212.5,-85 195.09,-70.55 184.79,-46.08 179.4,-29.15"/>
<polygon fill="#63b8ff" stroke="#63b8ff" points="182.69,-27.92 176.54,-19.29 175.97,-29.87 182.69,-27.92"/>
</a>
</g>
</g>
<!-- Node8 -->
<g id="Node000008" class="node">
<title>Node8</title>
<g id="a_Node000008"><a xlink:title=" ">
<polygon fill="#e0e0e0" stroke="#999999" points="416,-79.5 381,-79.5 381,-60.5 416,-60.5 416,-79.5"/>
<text text-anchor="middle" x="398.5" y="-67.5" font-family="FreeSans" font-size="10.00">map</text>
</a>
</g>
</g>
<!-- Node2&#45;&gt;Node8 -->
<g id="edge7_Node000002_Node000008" class="edge">
<title>Node2&#45;&gt;Node8</title>
<g id="a_edge7_Node000002_Node000008"><a xlink:title=" ">
<path fill="none" stroke="#63b8ff" d="M368.66,-120.87C373.73,-112.4 381.6,-99.24 387.99,-88.57"/>
<polygon fill="#63b8ff" stroke="#63b8ff" points="391.18,-90.05 393.31,-79.67 385.18,-86.45 391.18,-90.05"/>
</a>
</g>
</g>
<!-- Node9 -->
<g id="Node000009" class="node">
<title>Node9</title>
<g id="a_Node000009"><a xlink:href="debugUtils_8h.html" target="_top" xlink:title=" ">
<polygon fill="white" stroke="#666666" points="363,-79.5 292,-79.5 292,-60.5 363,-60.5 363,-79.5"/>
<text text-anchor="middle" x="327.5" y="-67.5" font-family="FreeSans" font-size="10.00">debugUtils.h</text>
</a>
</g>
</g>
<!-- Node2&#45;&gt;Node9 -->
<g id="edge8_Node000002_Node000009" class="edge">
<title>Node2&#45;&gt;Node9</title>
<g id="a_edge8_Node000002_Node000009"><a xlink:title=" ">
<path fill="none" stroke="#63b8ff" d="M358.19,-120.87C352.92,-112.31 344.71,-98.97 338.11,-88.24"/>
<polygon fill="#63b8ff" stroke="#63b8ff" points="341.06,-86.35 332.83,-79.67 335.09,-90.02 341.06,-86.35"/>
</a>
</g>
</g>
<!-- Node13 -->
<g id="Node000013" class="node">
<title>Node13</title>
<g id="a_Node000013"><a xlink:title=" ">
<polygon fill="#e0e0e0" stroke="#999999" points="650.5,-79.5 534.5,-79.5 534.5,-60.5 650.5,-60.5 650.5,-79.5"/>
<text text-anchor="middle" x="592.5" y="-67.5" font-family="FreeSans" font-size="10.00">cantera/base/ct_defs.h</text>
</a>
</g>
</g>
<!-- Node2&#45;&gt;Node13 -->
<g id="edge14_Node000002_Node000013" class="edge">
<title>Node2&#45;&gt;Node13</title>
<g id="a_edge14_Node000002_Node000013"><a xlink:title=" ">
<path fill="none" stroke="#63b8ff" d="M396.8,-120.99C437.08,-110.7 504.98,-93.36 549.27,-82.04"/>
<polygon fill="#63b8ff" stroke="#63b8ff" points="550.34,-85.38 559.16,-79.52 548.61,-78.6 550.34,-85.38"/>
</a>
</g>
</g>
<!-- Node14 -->
<g id="Node000014" class="node">
<title>Node14</title>
<g id="a_Node000014"><a xlink:title=" ">
<polygon fill="#e0e0e0" stroke="#999999" points="103,-79.5 0,-79.5 0,-60.5 103,-60.5 103,-79.5"/>
<text text-anchor="middle" x="51.5" y="-67.5" font-family="FreeSans" font-size="10.00">eigen3/Eigen/Dense</text>
</a>
</g>
</g>
<!-- Node2&#45;&gt;Node14 -->
<g id="edge15_Node000002_Node000014" class="edge">
<title>Node2&#45;&gt;Node14</title>
<g id="a_edge15_Node000002_Node000014"><a xlink:title=" ">
<path fill="none" stroke="#63b8ff" d="M330.11,-124.13C281.92,-116.25 190.13,-100.78 112.5,-85 107.5,-83.98 102.29,-82.87 97.11,-81.73"/>
<polygon fill="#63b8ff" stroke="#63b8ff" points="97.76,-78.29 87.24,-79.52 96.23,-85.12 97.76,-78.29"/>
</a>
</g>
</g>
<!-- Node9&#45;&gt;Node5 -->
<g id="edge10_Node000009_Node000005" class="edge">
<title>Node9&#45;&gt;Node5</title>
<g id="a_edge10_Node000009_Node000005"><a xlink:title=" ">
<path fill="none" stroke="#63b8ff" d="M351.35,-60.49C379.4,-50.49 426.17,-33.8 457.9,-22.49"/>
<polygon fill="#63b8ff" stroke="#63b8ff" points="459.38,-25.67 467.62,-19.02 457.03,-19.08 459.38,-25.67"/>
</a>
</g>
</g>
<!-- Node9&#45;&gt;Node7 -->
<g id="edge9_Node000009_Node000007" class="edge">
<title>Node9&#45;&gt;Node7</title>
<g id="a_edge9_Node000009_Node000007"><a xlink:title=" ">
<path fill="none" stroke="#63b8ff" d="M305.25,-60.49C278.74,-50.36 234.33,-33.38 204.73,-22.06"/>
<polygon fill="#63b8ff" stroke="#63b8ff" points="205.89,-18.76 195.3,-18.45 203.39,-25.29 205.89,-18.76"/>
</a>
</g>
</g>
<!-- Node10 -->
<g id="Node000010" class="node">
<title>Node10</title>
<g id="a_Node000010"><a xlink:title=" ">
<polygon fill="#e0e0e0" stroke="#999999" points="370.5,-19 320.5,-19 320.5,0 370.5,0 370.5,-19"/>
<text text-anchor="middle" x="345.5" y="-7" font-family="FreeSans" font-size="10.00">fstream</text>
</a>
</g>
</g>
<!-- Node9&#45;&gt;Node10 -->
<g id="edge11_Node000009_Node000010" class="edge">
<title>Node9&#45;&gt;Node10</title>
<g id="a_edge11_Node000009_Node000010"><a xlink:title=" ">
<path fill="none" stroke="#63b8ff" d="M330.16,-60.37C332.68,-52.16 336.56,-39.54 339.79,-29.05"/>
<polygon fill="#63b8ff" stroke="#63b8ff" points="343.24,-29.75 342.83,-19.17 336.55,-27.7 343.24,-29.75"/>
</a>
</g>
</g>
<!-- Node11 -->
<g id="Node000011" class="node">
<title>Node11</title>
<g id="a_Node000011"><a xlink:title=" ">
<polygon fill="#e0e0e0" stroke="#999999" points="446.5,-19 388.5,-19 388.5,0 446.5,0 446.5,-19"/>
<text text-anchor="middle" x="417.5" y="-7" font-family="FreeSans" font-size="10.00">exception</text>
</a>
</g>
</g>
<!-- Node9&#45;&gt;Node11 -->
<g id="edge12_Node000009_Node000011" class="edge">
<title>Node9&#45;&gt;Node11</title>
<g id="a_edge12_Node000009_Node000011"><a xlink:title=" ">
<path fill="none" stroke="#63b8ff" d="M340.78,-60.37C355.14,-51.04 378.26,-36.01 395.37,-24.88"/>
<polygon fill="#63b8ff" stroke="#63b8ff" points="397.69,-27.55 404.17,-19.17 393.87,-21.68 397.69,-27.55"/>
</a>
</g>
</g>
<!-- Node12 -->
<g id="Node000012" class="node">
<title>Node12</title>
<g id="a_Node000012"><a xlink:title=" ">
<polygon fill="#e0e0e0" stroke="#999999" points="302,-19 213,-19 213,0 302,0 302,-19"/>
<text text-anchor="middle" x="257.5" y="-7" font-family="FreeSans" font-size="10.00">boost/format.hpp</text>
</a>
</g>
</g>
<!-- Node9&#45;&gt;Node12 -->
<g id="edge13_Node000009_Node000012" class="edge">
<title>Node9&#45;&gt;Node12</title>
<g id="a_edge13_Node000009_Node000012"><a xlink:title=" ">
<path fill="none" stroke="#63b8ff" d="M317.17,-60.37C306.31,-51.3 289.01,-36.84 275.83,-25.82"/>
<polygon fill="#63b8ff" stroke="#63b8ff" points="277.79,-22.89 267.87,-19.17 273.3,-28.27 277.79,-22.89"/>
</a>
</g>
</g>
<!-- Node15&#45;&gt;Node3 -->
<g id="edge32_Node000015_Node000003" class="edge">
<title>Node15&#45;&gt;Node3</title>
<g id="a_edge32_Node000015_Node000003"><a xlink:title=" ">
<path fill="none" stroke="#63b8ff" d="M1423.41,-129.59C1267.28,-129.65 699.87,-126.9 525.5,-85 523.76,-84.58 522,-84.07 520.25,-83.49"/>
<polygon fill="#63b8ff" stroke="#63b8ff" points="521.09,-80.05 510.5,-79.61 518.5,-86.56 521.09,-80.05"/>
</a>
</g>
</g>
<!-- Node15&#45;&gt;Node5 -->
<g id="edge31_Node000015_Node000005" class="edge">
<title>Node15&#45;&gt;Node5</title>
<g id="a_edge31_Node000015_Node000005"><a xlink:title=" ">
<path fill="none" stroke="#63b8ff" d="M1503.56,-122.17C1506.58,-121.74 1509.58,-121.34 1512.5,-121 1646.62,-105.42 2210.66,-151.77 2116.5,-55 2087.88,-25.58 768.92,-12.88 528.8,-10.81"/>
<polygon fill="#63b8ff" stroke="#63b8ff" points="528.53,-7.31 518.5,-10.72 528.47,-14.31 528.53,-7.31"/>
</a>
</g>
</g>
<!-- Node15&#45;&gt;Node13 -->
<g id="edge23_Node000015_Node000013" class="edge">
<title>Node15&#45;&gt;Node13</title>
<g id="a_edge23_Node000015_Node000013"><a xlink:title=" ">
<path fill="none" stroke="#63b8ff" d="M1423.2,-129.37C1305.34,-128.52 951.27,-122.78 660.5,-85 653.59,-84.1 646.34,-82.9 639.25,-81.57"/>
<polygon fill="#63b8ff" stroke="#63b8ff" points="639.52,-78.06 629.03,-79.55 638.17,-84.92 639.52,-78.06"/>
</a>
</g>
</g>
<!-- Node16 -->
<g id="Node000016" class="node">
<title>Node16</title>
<g id="a_Node000016"><a xlink:href="config_8h.html" target="_top" xlink:title=" ">
<polygon fill="white" stroke="#666666" points="2213.5,-79.5 2163.5,-79.5 2163.5,-60.5 2213.5,-60.5 2213.5,-79.5"/>
<text text-anchor="middle" x="2188.5" y="-67.5" font-family="FreeSans" font-size="10.00">config.h</text>
</a>
</g>
</g>
<!-- Node15&#45;&gt;Node16 -->
<g id="edge17_Node000015_Node000016" class="edge">
<title>Node15&#45;&gt;Node16</title>
<g id="a_edge17_Node000015_Node000016"><a xlink:title=" ">
<path fill="none" stroke="#63b8ff" d="M1503.56,-122.16C1506.58,-121.73 1509.58,-121.33 1512.5,-121 1794.22,-88.71 1871.62,-141.49 2149.5,-85 2152.5,-84.39 2155.59,-83.59 2158.65,-82.69"/>
<polygon fill="#63b8ff" stroke="#63b8ff" points="2159.77,-86.01 2168.17,-79.55 2157.58,-79.36 2159.77,-86.01"/>
</a>
</g>
</g>
<!-- Node17 -->
<g id="Node000017" class="node">
<title>Node17</title>
<g id="a_Node000017"><a xlink:title=" ">
<polygon fill="#e0e0e0" stroke="#999999" points="2351.5,-79.5 2231.5,-79.5 2231.5,-60.5 2351.5,-60.5 2351.5,-79.5"/>
<text text-anchor="middle" x="2291.5" y="-67.5" font-family="FreeSans" font-size="10.00">nvector/nvector_serial.h</text>
</a>
</g>
</g>
<!-- Node15&#45;&gt;Node17 -->
<g id="edge18_Node000015_Node000017" class="edge">
<title>Node15&#45;&gt;Node17</title>
<g id="a_edge18_Node000015_Node000017"><a xlink:title=" ">
<path fill="none" stroke="#63b8ff" d="M1503.55,-122.14C1506.58,-121.71 1509.58,-121.33 1512.5,-121 1826.51,-85.93 1909.02,-124.52 2222.5,-85 2229.75,-84.09 2237.38,-82.83 2244.82,-81.45"/>
<polygon fill="#63b8ff" stroke="#63b8ff" points="2245.64,-84.86 2254.78,-79.51 2244.3,-77.99 2245.64,-84.86"/>
</a>
</g>
</g>
<!-- Node18 -->
<g id="Node000018" class="node">
<title>Node18</title>
<g id="a_Node000018"><a xlink:title=" ">
<polygon fill="#e0e0e0" stroke="#999999" points="800,-79.5 669,-79.5 669,-60.5 800,-60.5 800,-79.5"/>
<text text-anchor="middle" x="734.5" y="-67.5" font-family="FreeSans" font-size="10.00">sundials/sundials_dense.h</text>
</a>
</g>
</g>
<!-- Node15&#45;&gt;Node18 -->
<g id="edge19_Node000015_Node000018" class="edge">
<title>Node15&#45;&gt;Node18</title>
<g id="a_edge19_Node000015_Node000018"><a xlink:title=" ">
<path fill="none" stroke="#63b8ff" d="M1423.15,-128.39C1320.41,-125.21 1040.66,-114.34 809.5,-85 801.74,-84.02 793.57,-82.74 785.59,-81.36"/>
<polygon fill="#63b8ff" stroke="#63b8ff" points="786.09,-77.89 775.63,-79.57 784.85,-84.78 786.09,-77.89"/>
</a>
</g>
</g>
<!-- Node19 -->
<g id="Node000019" class="node">
<title>Node19</title>
<g id="a_Node000019"><a xlink:title=" ">
<polygon fill="#e0e0e0" stroke="#999999" points="943,-79.5 818,-79.5 818,-60.5 943,-60.5 943,-79.5"/>
<text text-anchor="middle" x="880.5" y="-67.5" font-family="FreeSans" font-size="10.00">sundials/sundials_band.h</text>
</a>
</g>
</g>
<!-- Node15&#45;&gt;Node19 -->
<g id="edge20_Node000015_Node000019" class="edge">
<title>Node15&#45;&gt;Node19</title>
<g id="a_edge20_Node000015_Node000019"><a xlink:title=" ">
<path fill="none" stroke="#63b8ff" d="M1423.26,-127.44C1336.77,-122.69 1126.89,-109.48 952.5,-85 945.3,-83.99 937.74,-82.73 930.33,-81.39"/>
<polygon fill="#63b8ff" stroke="#63b8ff" points="930.84,-77.93 920.36,-79.53 929.55,-84.81 930.84,-77.93"/>
</a>
</g>
</g>
<!-- Node20 -->
<g id="Node000020" class="node">
<title>Node20</title>
<g id="a_Node000020"><a xlink:title=" ">
<polygon fill="#e0e0e0" stroke="#999999" points="1089.5,-79.5 961.5,-79.5 961.5,-60.5 1089.5,-60.5 1089.5,-79.5"/>
<text text-anchor="middle" x="1025.5" y="-67.5" font-family="FreeSans" font-size="10.00">sundials/sundials_types.h</text>
</a>
</g>
</g>
<!-- Node15&#45;&gt;Node20 -->
<g id="edge21_Node000015_Node000020" class="edge">
<title>Node15&#45;&gt;Node20</title>
<g id="a_edge21_Node000015_Node000020"><a xlink:title=" ">
<path fill="none" stroke="#63b8ff" d="M1423.41,-125.52C1356.08,-118.62 1216.12,-103.43 1098.5,-85 1091.73,-83.94 1084.63,-82.72 1077.63,-81.45"/>
<polygon fill="#63b8ff" stroke="#63b8ff" points="1077.96,-77.95 1067.49,-79.56 1076.68,-84.83 1077.96,-77.95"/>
</a>
</g>
</g>
<!-- Node21 -->
<g id="Node000021" class="node">
<title>Node21</title>
<g id="a_Node000021"><a xlink:title=" ">
<polygon fill="#e0e0e0" stroke="#999999" points="1187.5,-79.5 1107.5,-79.5 1107.5,-60.5 1187.5,-60.5 1187.5,-79.5"/>
<text text-anchor="middle" x="1147.5" y="-67.5" font-family="FreeSans" font-size="10.00">cvode/cvode.h</text>
</a>
</g>
</g>
<!-- Node15&#45;&gt;Node21 -->
<g id="edge22_Node000015_Node000021" class="edge">
<title>Node15&#45;&gt;Node21</title>
<g id="a_edge22_Node000015_Node000021"><a xlink:title=" ">
<path fill="none" stroke="#63b8ff" d="M1423.13,-124.12C1370.78,-116.83 1276.79,-102.68 1197.5,-85 1193.65,-84.14 1189.66,-83.17 1185.68,-82.14"/>
<polygon fill="#63b8ff" stroke="#63b8ff" points="1186.49,-78.74 1175.92,-79.53 1184.68,-85.5 1186.49,-78.74"/>
</a>
</g>
</g>
<!-- Node22 -->
<g id="Node000022" class="node">
<title>Node22</title>
<g id="a_Node000022"><a xlink:title=" ">
<polygon fill="#e0e0e0" stroke="#999999" points="1325,-79.5 1206,-79.5 1206,-60.5 1325,-60.5 1325,-79.5"/>
<text text-anchor="middle" x="1265.5" y="-67.5" font-family="FreeSans" font-size="10.00">cvodes/cvodes_direct.h</text>
</a>
</g>
</g>
<!-- Node15&#45;&gt;Node22 -->
<g id="edge24_Node000015_Node000022" class="edge">
<title>Node15&#45;&gt;Node22</title>
<g id="a_edge24_Node000015_Node000022"><a xlink:title=" ">
<path fill="none" stroke="#63b8ff" d="M1434.71,-120.99C1400.25,-110.81 1342.41,-93.72 1304.1,-82.4"/>
<polygon fill="#63b8ff" stroke="#63b8ff" points="1304.91,-78.99 1294.33,-79.52 1302.92,-85.71 1304.91,-78.99"/>
</a>
</g>
</g>
<!-- Node23 -->
<g id="Node000023" class="node">
<title>Node23</title>
<g id="a_Node000023"><a xlink:title=" ">
<polygon fill="#e0e0e0" stroke="#999999" points="1459.5,-79.5 1343.5,-79.5 1343.5,-60.5 1459.5,-60.5 1459.5,-79.5"/>
<text text-anchor="middle" x="1401.5" y="-67.5" font-family="FreeSans" font-size="10.00">cvodes/cvodes_spils.h</text>
</a>
</g>
</g>
<!-- Node15&#45;&gt;Node23 -->
<g id="edge25_Node000015_Node000023" class="edge">
<title>Node15&#45;&gt;Node23</title>
<g id="a_edge25_Node000015_Node000023"><a xlink:title=" ">
<path fill="none" stroke="#63b8ff" d="M1454.35,-120.87C1444.83,-111.88 1429.7,-97.61 1418.07,-86.64"/>
<polygon fill="#63b8ff" stroke="#63b8ff" points="1420.36,-83.98 1410.69,-79.67 1415.56,-89.08 1420.36,-83.98"/>
</a>
</g>
</g>
<!-- Node24 -->
<g id="Node000024" class="node">
<title>Node24</title>
<g id="a_Node000024"><a xlink:title=" ">
<polygon fill="#e0e0e0" stroke="#999999" points="1573.5,-85 1477.5,-85 1477.5,-55 1573.5,-55 1573.5,-85"/>
<text text-anchor="start" x="1485.5" y="-73" font-family="FreeSans" font-size="10.00">sunlinsol/sunlinsol</text>
<text text-anchor="middle" x="1525.5" y="-62" font-family="FreeSans" font-size="10.00">_dense.h</text>
</a>
</g>
</g>
<!-- Node15&#45;&gt;Node24 -->
<g id="edge26_Node000015_Node000024" class="edge">
<title>Node15&#45;&gt;Node24</title>
<g id="a_edge26_Node000015_Node000024"><a xlink:title=" ">
<path fill="none" stroke="#63b8ff" d="M1472.65,-120.87C1480.67,-113.3 1492.67,-101.98 1503.2,-92.04"/>
<polygon fill="#63b8ff" stroke="#63b8ff" points="1505.67,-94.52 1510.54,-85.11 1500.87,-89.43 1505.67,-94.52"/>
</a>
</g>
</g>
<!-- Node25 -->
<g id="Node000025" class="node">
<title>Node25</title>
<g id="a_Node000025"><a xlink:title=" ">
<polygon fill="#e0e0e0" stroke="#999999" points="1687.5,-85 1591.5,-85 1591.5,-55 1687.5,-55 1687.5,-85"/>
<text text-anchor="start" x="1599.5" y="-73" font-family="FreeSans" font-size="10.00">sunlinsol/sunlinsol</text>
<text text-anchor="middle" x="1639.5" y="-62" font-family="FreeSans" font-size="10.00">_band.h</text>
</a>
</g>
</g>
<!-- Node15&#45;&gt;Node25 -->
<g id="edge27_Node000015_Node000025" class="edge">
<title>Node15&#45;&gt;Node25</title>
<g id="a_edge27_Node000015_Node000025"><a xlink:title=" ">
<path fill="none" stroke="#63b8ff" d="M1489.09,-120.99C1514.75,-112.46 1555,-99.09 1587.41,-88.32"/>
<polygon fill="#63b8ff" stroke="#63b8ff" points="1588.8,-91.54 1597.19,-85.06 1586.59,-84.9 1588.8,-91.54"/>
</a>
</g>
</g>
<!-- Node26 -->
<g id="Node000026" class="node">
<title>Node26</title>
<g id="a_Node000026"><a xlink:title=" ">
<polygon fill="#e0e0e0" stroke="#999999" points="1801.5,-85 1705.5,-85 1705.5,-55 1801.5,-55 1801.5,-85"/>
<text text-anchor="start" x="1713.5" y="-73" font-family="FreeSans" font-size="10.00">sunlinsol/sunlinsol</text>
<text text-anchor="middle" x="1753.5" y="-62" font-family="FreeSans" font-size="10.00">_spgmr.h</text>
</a>
</g>
</g>
<!-- Node15&#45;&gt;Node26 -->
<g id="edge28_Node000015_Node000026" class="edge">
<title>Node15&#45;&gt;Node26</title>
<g id="a_edge28_Node000015_Node000026"><a xlink:title=" ">
<path fill="none" stroke="#63b8ff" d="M1503.62,-122.49C1548.15,-114.57 1622.38,-100.94 1695.5,-85.15"/>
<polygon fill="#63b8ff" stroke="#63b8ff" points="1696.31,-88.56 1705.34,-83.02 1694.82,-81.72 1696.31,-88.56"/>
</a>
</g>
</g>
<!-- Node27 -->
<g id="Node000027" class="node">
<title>Node27</title>
<g id="a_Node000027"><a xlink:title=" ">
<polygon fill="#e0e0e0" stroke="#999999" points="1923.5,-85 1819.5,-85 1819.5,-55 1923.5,-55 1923.5,-85"/>
<text text-anchor="start" x="1827.5" y="-73" font-family="FreeSans" font-size="10.00">sunmatrix/sunmatrix</text>
<text text-anchor="middle" x="1871.5" y="-62" font-family="FreeSans" font-size="10.00">_dense.h</text>
</a>
</g>
</g>
<!-- Node15&#45;&gt;Node27 -->
<g id="edge29_Node000015_Node000027" class="edge">
<title>Node15&#45;&gt;Node27</title>
<g id="a_edge29_Node000015_Node000027"><a xlink:title=" ">
<path fill="none" stroke="#63b8ff" d="M1503.58,-122.37C1506.6,-121.89 1509.6,-121.43 1512.5,-121 1641.27,-102.07 1677.33,-107.66 1809.24,-85.1"/>
<polygon fill="#63b8ff" stroke="#63b8ff" points="1810.07,-88.51 1819.33,-83.35 1808.88,-81.61 1810.07,-88.51"/>
</a>
</g>
</g>
<!-- Node28 -->
<g id="Node000028" class="node">
<title>Node28</title>
<g id="a_Node000028"><a xlink:title=" ">
<polygon fill="#e0e0e0" stroke="#999999" points="2045.5,-85 1941.5,-85 1941.5,-55 2045.5,-55 2045.5,-85"/>
<text text-anchor="start" x="1949.5" y="-73" font-family="FreeSans" font-size="10.00">sunmatrix/sunmatrix</text>
<text text-anchor="middle" x="1993.5" y="-62" font-family="FreeSans" font-size="10.00">_band.h</text>
</a>
</g>
</g>
<!-- Node15&#45;&gt;Node28 -->
<g id="edge30_Node000015_Node000028" class="edge">
<title>Node15&#45;&gt;Node28</title>
<g id="a_edge30_Node000015_Node000028"><a xlink:title=" ">
<path fill="none" stroke="#63b8ff" d="M1503.57,-122.26C1506.59,-121.8 1509.59,-121.38 1512.5,-121 1695.04,-97.39 1745.64,-113.44 1931.26,-85.04"/>
<polygon fill="#63b8ff" stroke="#63b8ff" points="1932.01,-88.47 1941.35,-83.47 1930.93,-81.55 1932.01,-88.47"/>
</a>
</g>
</g>
<!-- Node29 -->
<g id="Node000029" class="node">
<title>Node29</title>
<g id="a_Node000029"><a xlink:title=" ">
<polygon fill="#e0e0e0" stroke="#999999" points="2107,-79.5 2064,-79.5 2064,-60.5 2107,-60.5 2107,-79.5"/>
<text text-anchor="middle" x="2085.5" y="-67.5" font-family="FreeSans" font-size="10.00">time.h</text>
</a>
</g>
</g>
<!-- Node15&#45;&gt;Node29 -->
<g id="edge33_Node000015_Node000029" class="edge">
<title>Node15&#45;&gt;Node29</title>
<g id="a_edge33_Node000015_Node000029"><a xlink:title=" ">
<path fill="none" stroke="#63b8ff" d="M1503.56,-122.2C1506.58,-121.75 1509.59,-121.35 1512.5,-121 1752.21,-92.33 1820.3,-143.62 2054.5,-85 2056.23,-84.57 2057.99,-84.04 2059.74,-83.45"/>
<polygon fill="#63b8ff" stroke="#63b8ff" points="2061.5,-86.51 2069.48,-79.54 2058.9,-80.01 2061.5,-86.51"/>
</a>
</g>
</g>
</g>
</svg>
