<?xml version="1.0" encoding="UTF-8" standalone="no"?>
<!DOCTYPE svg PUBLIC "-//W3C//DTD SVG 1.1//EN"
 "http://www.w3.org/Graphics/SVG/1.1/DTD/svg11.dtd">
<!-- Generated by graphviz version 2.28.0 (20120425.2022)
 -->
<!-- Title: src/mathUtils.h Pages: 1 -->
<svg width="498pt" height="140pt"
 viewBox="0.00 0.00 498.00 140.00" xmlns="http://www.w3.org/2000/svg" xmlns:xlink="http://www.w3.org/1999/xlink">
<g id="graph1" class="graph" transform="scale(1 1) rotate(0) translate(4 136)">
<title>src/mathUtils.h</title>
<polygon fill="white" stroke="white" points="-4,5 -4,-136 495,-136 495,5 -4,5"/>
<!-- Node1 -->
<g id="node1" class="node"><title>Node1</title>
<polygon fill="#bfbfbf" stroke="black" points="163.5,-112.5 163.5,-131.5 244.5,-131.5 244.5,-112.5 163.5,-112.5"/>
<text text-anchor="middle" x="204" y="-119.5" font-family="FreeSans" font-size="10.00">src/mathUtils.h</text>
</g>
<!-- Node2 -->
<g id="node3" class="node"><title>Node2</title>
<polygon fill="white" stroke="#bfbfbf" points="0,-56.5 0,-75.5 44,-75.5 44,-56.5 0,-56.5"/>
<text text-anchor="middle" x="22" y="-63.5" font-family="FreeSans" font-size="10.00">vector</text>
</g>
<!-- Node1&#45;&gt;Node2 -->
<g id="edge2" class="edge"><title>Node1&#45;&gt;Node2</title>
<path fill="none" stroke="midnightblue" d="M175.162,-112.444C142.188,-102.66 88.3573,-86.6884 54.0839,-76.5194"/>
<polygon fill="midnightblue" stroke="midnightblue" points="54.7024,-73.0522 44.1199,-73.5631 52.7113,-79.763 54.7024,-73.0522"/>
</g>
<!-- Node3 -->
<g id="node5" class="node"><title>Node3</title>
<polygon fill="white" stroke="#bfbfbf" points="62,-56.5 62,-75.5 106,-75.5 106,-56.5 62,-56.5"/>
<text text-anchor="middle" x="84" y="-63.5" font-family="FreeSans" font-size="10.00">cmath</text>
</g>
<!-- Node1&#45;&gt;Node3 -->
<g id="edge4" class="edge"><title>Node1&#45;&gt;Node3</title>
<path fill="none" stroke="midnightblue" d="M184.986,-112.444C165.412,-103.636 134.692,-89.8116 112.271,-79.722"/>
<polygon fill="midnightblue" stroke="midnightblue" points="113.481,-76.4284 102.925,-75.5164 110.608,-82.8119 113.481,-76.4284"/>
</g>
<!-- Node4 -->
<g id="node7" class="node"><title>Node4</title>
<polygon fill="white" stroke="#bfbfbf" points="77,-0.5 77,-19.5 133,-19.5 133,-0.5 77,-0.5"/>
<text text-anchor="middle" x="105" y="-7.5" font-family="FreeSans" font-size="10.00">iostream</text>
</g>
<!-- Node1&#45;&gt;Node4 -->
<g id="edge6" class="edge"><title>Node1&#45;&gt;Node4</title>
<path fill="none" stroke="midnightblue" d="M196.232,-112.368C179.677,-93.9744 140.704,-50.6712 119.447,-27.0519"/>
<polygon fill="midnightblue" stroke="midnightblue" points="122.023,-24.683 112.732,-19.5914 116.82,-29.3658 122.023,-24.683"/>
</g>
<!-- Node5 -->
<g id="node9" class="node"><title>Node5</title>
<polygon fill="white" stroke="#bfbfbf" points="289.5,-56.5 289.5,-75.5 342.5,-75.5 342.5,-56.5 289.5,-56.5"/>
<text text-anchor="middle" x="316" y="-63.5" font-family="FreeSans" font-size="10.00">sstream</text>
</g>
<!-- Node1&#45;&gt;Node5 -->
<g id="edge8" class="edge"><title>Node1&#45;&gt;Node5</title>
<path fill="none" stroke="midnightblue" d="M221.995,-112.324C240.038,-103.625 268.047,-90.1202 288.803,-80.113"/>
<polygon fill="midnightblue" stroke="midnightblue" points="290.562,-83.1502 298.05,-75.6545 287.522,-76.8449 290.562,-83.1502"/>
</g>
<!-- Node6 -->
<g id="node11" class="node"><title>Node6</title>
<polygon fill="white" stroke="#bfbfbf" points="151.5,-0.5 151.5,-19.5 192.5,-19.5 192.5,-0.5 151.5,-0.5"/>
<text text-anchor="middle" x="172" y="-7.5" font-family="FreeSans" font-size="10.00">string</text>
</g>
<!-- Node1&#45;&gt;Node6 -->
<g id="edge10" class="edge"><title>Node1&#45;&gt;Node6</title>
<path fill="none" stroke="midnightblue" d="M201.489,-112.368C196.302,-94.5366 184.304,-53.2953 177.315,-29.2717"/>
<polygon fill="midnightblue" stroke="midnightblue" points="180.653,-28.2157 174.499,-19.5914 173.932,-30.1711 180.653,-28.2157"/>
</g>
<!-- Node7 -->
<g id="node13" class="node"><title>Node7</title>
<polygon fill="white" stroke="#bfbfbf" points="361,-56.5 361,-75.5 397,-75.5 397,-56.5 361,-56.5"/>
<text text-anchor="middle" x="379" y="-63.5" font-family="FreeSans" font-size="10.00">map</text>
</g>
<!-- Node1&#45;&gt;Node7 -->
<g id="edge12" class="edge"><title>Node1&#45;&gt;Node7</title>
<path fill="none" stroke="midnightblue" d="M232.217,-112.49C261.837,-103.526 309.745,-88.944 351,-76 351.1,-75.9685 351.201,-75.9369 351.302,-75.9052"/>
<polygon fill="midnightblue" stroke="midnightblue" points="352.465,-79.2082 360.937,-72.8466 350.347,-72.5363 352.465,-79.2082"/>
</g>
<!-- Node8 -->
<g id="node15" class="node"><title>Node8</title>
<a xlink:href="debugUtils_8h.html" target="_top" xlink:title="debugUtils.h">
<polygon fill="white" stroke="black" points="200.5,-56.5 200.5,-75.5 271.5,-75.5 271.5,-56.5 200.5,-56.5"/>
<text text-anchor="middle" x="236" y="-63.5" font-family="FreeSans" font-size="10.00">debugUtils.h</text>
</a>
</g>
<!-- Node1&#45;&gt;Node8 -->
<g id="edge14" class="edge"><title>Node1&#45;&gt;Node8</title>
<path fill="none" stroke="midnightblue" d="M209.284,-112.083C213.711,-104.613 220.163,-93.7244 225.618,-84.5199"/>
<polygon fill="midnightblue" stroke="midnightblue" points="228.727,-86.1383 230.814,-75.7511 222.705,-82.5697 228.727,-86.1383"/>
</g>
<!-- Node12 -->
<g id="node25" class="node"><title>Node12</title>
<polygon fill="white" stroke="#bfbfbf" points="415.5,-56.5 415.5,-75.5 490.5,-75.5 490.5,-56.5 415.5,-56.5"/>
<text text-anchor="middle" x="453" y="-63.5" font-family="FreeSans" font-size="10.00">Eigen/Dense</text>
</g>
<!-- Node1&#45;&gt;Node12 -->
<g id="edge26" class="edge"><title>Node1&#45;&gt;Node12</title>
<path fill="none" stroke="midnightblue" d="M243.455,-112.444C287.403,-102.913 358.435,-87.5082 405.425,-77.3176"/>
<polygon fill="midnightblue" stroke="midnightblue" points="406.329,-80.7029 415.36,-75.1629 404.845,-73.8619 406.329,-80.7029"/>
</g>
<!-- Node8&#45;&gt;Node4 -->
<g id="edge18" class="edge"><title>Node8&#45;&gt;Node4</title>
<path fill="none" stroke="midnightblue" d="M215.243,-56.4435C193.684,-47.5566 159.737,-33.5632 135.206,-23.4514"/>
<polygon fill="midnightblue" stroke="midnightblue" points="136.239,-20.0917 125.66,-19.5164 133.572,-26.5634 136.239,-20.0917"/>
</g>
<!-- Node8&#45;&gt;Node6 -->
<g id="edge16" class="edge"><title>Node8&#45;&gt;Node6</title>
<path fill="none" stroke="midnightblue" d="M225.717,-56.324C216.164,-48.2631 201.72,-36.0765 190.216,-26.3695"/>
<polygon fill="midnightblue" stroke="midnightblue" points="192.37,-23.6076 182.47,-19.8339 187.856,-28.9577 192.37,-23.6076"/>
</g>
<!-- Node9 -->
<g id="node19" class="node"><title>Node9</title>
<polygon fill="white" stroke="#bfbfbf" points="211,-0.5 211,-19.5 261,-19.5 261,-0.5 211,-0.5"/>
<text text-anchor="middle" x="236" y="-7.5" font-family="FreeSans" font-size="10.00">fstream</text>
</g>
<!-- Node8&#45;&gt;Node9 -->
<g id="edge20" class="edge"><title>Node8&#45;&gt;Node9</title>
<path fill="none" stroke="midnightblue" d="M236,-56.083C236,-49.0059 236,-38.8611 236,-29.9865"/>
<polygon fill="midnightblue" stroke="midnightblue" points="239.5,-29.751 236,-19.7511 232.5,-29.7511 239.5,-29.751"/>
</g>
<!-- Node10 -->
<g id="node21" class="node"><title>Node10</title>
<polygon fill="white" stroke="#bfbfbf" points="279,-0.5 279,-19.5 339,-19.5 339,-0.5 279,-0.5"/>
<text text-anchor="middle" x="309" y="-7.5" font-family="FreeSans" font-size="10.00">exception</text>
</g>
<!-- Node8&#45;&gt;Node10 -->
<g id="edge22" class="edge"><title>Node8&#45;&gt;Node10</title>
<path fill="none" stroke="midnightblue" d="M247.729,-56.324C258.837,-48.1066 275.742,-35.6017 288.983,-25.8069"/>
<polygon fill="midnightblue" stroke="midnightblue" points="291.1,-28.5948 297.058,-19.8339 286.937,-22.9671 291.1,-28.5948"/>
</g>
<!-- Node11 -->
<g id="node23" class="node"><title>Node11</title>
<polygon fill="white" stroke="#bfbfbf" points="357,-0.5 357,-19.5 447,-19.5 447,-0.5 357,-0.5"/>
<text text-anchor="middle" x="402" y="-7.5" font-family="FreeSans" font-size="10.00">boost/format.hpp</text>
</g>
<!-- Node8&#45;&gt;Node11 -->
<g id="edge24" class="edge"><title>Node8&#45;&gt;Node11</title>
<path fill="none" stroke="midnightblue" d="M262.303,-56.4435C290.351,-47.3196 334.944,-32.8133 366.184,-22.6509"/>
<polygon fill="midnightblue" stroke="midnightblue" points="367.393,-25.9383 375.82,-19.5164 365.228,-19.2816 367.393,-25.9383"/>
</g>
</g>
</svg>
