<?xml version="1.0" encoding="UTF-8" standalone="no"?>
<!DOCTYPE svg PUBLIC "-//W3C//DTD SVG 1.1//EN"
 "http://www.w3.org/Graphics/SVG/1.1/DTD/svg11.dtd">
<!-- Generated by graphviz version 2.28.0 (20120425.2022)
 -->
<!-- Title: G Pages: 1 -->
<svg width="1503pt" height="308pt"
 viewBox="0.00 0.00 1502.59 308.00" xmlns="http://www.w3.org/2000/svg" xmlns:xlink="http://www.w3.org/1999/xlink">
<g id="graph1" class="graph" transform="scale(1 1) rotate(0) translate(4 304)">
<title>G</title>
<polygon fill="white" stroke="white" points="-4,5 -4,-304 1499.59,-304 1499.59,5 -4,5"/>
<!-- Node1 -->
<g id="node1" class="node"><title>Node1</title>
<polygon fill="#bfbfbf" stroke="black" points="844.089,-280.5 844.089,-299.5 925.089,-299.5 925.089,-280.5 844.089,-280.5"/>
<text text-anchor="middle" x="884.589" y="-287.5" font-family="FreeSans" font-size="10.00">src/mathUtils.h</text>
</g>
<!-- Node2 -->
<g id="node3" class="node"><title>Node2</title>
<a xlink:href="chemistry0d_8h.html" target="_top" xlink:title="src/chemistry0d.h">
<polygon fill="white" stroke="black" points="302.089,-168.5 302.089,-187.5 397.089,-187.5 397.089,-168.5 302.089,-168.5"/>
<text text-anchor="middle" x="349.589" y="-175.5" font-family="FreeSans" font-size="10.00">src/chemistry0d.h</text>
</a>
</g>
<!-- Node1&#45;&gt;Node2 -->
<g id="edge2" class="edge"><title>Node1&#45;&gt;Node2</title>
<path fill="none" stroke="midnightblue" d="M833.604,-286.291C763.401,-281.731 633.408,-270.298 525.589,-244 466.571,-229.605 400.135,-201.686 368.412,-187.588"/>
<polygon fill="midnightblue" stroke="midnightblue" points="833.732,-289.806 843.932,-286.94 834.171,-282.819 833.732,-289.806"/>
</g>
<!-- Node4 -->
<g id="node7" class="node"><title>Node4</title>
<a xlink:href="convectionSystem_8h.html" target="_top" xlink:title="src/convectionSystem.h">
<polygon fill="white" stroke="red" points="493.089,-112.5 493.089,-131.5 616.089,-131.5 616.089,-112.5 493.089,-112.5"/>
<text text-anchor="middle" x="554.589" y="-119.5" font-family="FreeSans" font-size="10.00">src/convectionSystem.h</text>
</a>
</g>
<!-- Node1&#45;&gt;Node4 -->
<g id="edge50" class="edge"><title>Node1&#45;&gt;Node4</title>
<path fill="none" stroke="midnightblue" d="M833.362,-289.249C752.213,-288.471 599.589,-281.856 563.589,-244 533.83,-212.708 545.961,-153.941 551.975,-131.768"/>
<polygon fill="midnightblue" stroke="midnightblue" points="833.82,-292.752 843.843,-289.32 833.868,-285.752 833.82,-292.752"/>
</g>
<!-- Node6 -->
<g id="node11" class="node"><title>Node6</title>
<a xlink:href="flameSolver_8cpp.html" target="_top" xlink:title="src/flameSolver.cpp">
<polygon fill="white" stroke="black" points="1053.09,-0.5 1053.09,-19.5 1158.09,-19.5 1158.09,-0.5 1053.09,-0.5"/>
<text text-anchor="middle" x="1105.59" y="-7.5" font-family="FreeSans" font-size="10.00">src/flameSolver.cpp</text>
</a>
</g>
<!-- Node1&#45;&gt;Node6 -->
<g id="edge88" class="edge"><title>Node1&#45;&gt;Node6</title>
<path fill="none" stroke="midnightblue" d="M935.617,-284.364C1036.03,-273.828 1249.59,-243.8 1249.59,-179 1249.59,-179 1249.59,-179 1249.59,-121 1249.59,-64.6874 1179.19,-33.3447 1136.83,-19.5847"/>
<polygon fill="midnightblue" stroke="midnightblue" points="934.988,-280.91 925.397,-285.411 935.701,-287.874 934.988,-280.91"/>
</g>
<!-- Node7 -->
<g id="node13" class="node"><title>Node7</title>
<a xlink:href="diffusionSystem_8h.html" target="_top" xlink:title="src/diffusionSystem.h">
<polygon fill="white" stroke="red" points="126.089,-112.5 126.089,-131.5 237.089,-131.5 237.089,-112.5 126.089,-112.5"/>
<text text-anchor="middle" x="181.589" y="-119.5" font-family="FreeSans" font-size="10.00">src/diffusionSystem.h</text>
</a>
</g>
<!-- Node1&#45;&gt;Node7 -->
<g id="edge70" class="edge"><title>Node1&#45;&gt;Node7</title>
<path fill="none" stroke="midnightblue" d="M833.722,-287.288C753.095,-283.762 591.375,-273.369 457.589,-244 381.948,-227.395 363.03,-220.176 292.589,-188 255.416,-171.02 214.668,-145.101 194.451,-131.7"/>
<polygon fill="midnightblue" stroke="midnightblue" points="833.943,-290.8 844.081,-287.723 834.237,-283.807 833.943,-290.8"/>
</g>
<!-- Node8 -->
<g id="node17" class="node"><title>Node8</title>
<a xlink:href="sourceSystem_8h.html" target="_top" xlink:title="src/sourceSystem.h">
<polygon fill="white" stroke="black" points="711.089,-112.5 711.089,-131.5 816.089,-131.5 816.089,-112.5 711.089,-112.5"/>
<text text-anchor="middle" x="763.589" y="-119.5" font-family="FreeSans" font-size="10.00">src/sourceSystem.h</text>
</a>
</g>
<!-- Node1&#45;&gt;Node8 -->
<g id="edge80" class="edge"><title>Node1&#45;&gt;Node8</title>
<path fill="none" stroke="midnightblue" d="M892.095,-270.873C901.332,-245.384 913.301,-198.648 891.589,-168 881.036,-153.104 836.338,-139.749 802.711,-131.53"/>
<polygon fill="midnightblue" stroke="midnightblue" points="888.758,-269.797 888.41,-280.386 895.285,-272.326 888.758,-269.797"/>
</g>
<!-- Node10 -->
<g id="node22" class="node"><title>Node10</title>
<a xlink:href="readConfig_8h.html" target="_top" xlink:title="src/readConfig.h">
<polygon fill="white" stroke="black" points="573.089,-224.5 573.089,-243.5 664.089,-243.5 664.089,-224.5 573.089,-224.5"/>
<text text-anchor="middle" x="618.589" y="-231.5" font-family="FreeSans" font-size="10.00">src/readConfig.h</text>
</a>
</g>
<!-- Node1&#45;&gt;Node10 -->
<g id="edge24" class="edge"><title>Node1&#45;&gt;Node10</title>
<path fill="none" stroke="midnightblue" d="M833.9,-278.71C783.651,-268.509 707.571,-253.064 660.591,-243.527"/>
<polygon fill="midnightblue" stroke="midnightblue" points="833.403,-282.18 843.9,-280.74 834.796,-275.32 833.403,-282.18"/>
</g>
<!-- Node14 -->
<g id="node40" class="node"><title>Node14</title>
<a xlink:href="quasi2d_8h.html" target="_top" xlink:title="src/quasi2d.h">
<polygon fill="white" stroke="black" points="806.089,-168.5 806.089,-187.5 883.089,-187.5 883.089,-168.5 806.089,-168.5"/>
<text text-anchor="middle" x="844.589" y="-175.5" font-family="FreeSans" font-size="10.00">src/quasi2d.h</text>
</a>
</g>
<!-- Node1&#45;&gt;Node14 -->
<g id="edge52" class="edge"><title>Node1&#45;&gt;Node14</title>
<path fill="none" stroke="midnightblue" d="M877.925,-270.674C869.18,-246.625 854.185,-205.388 847.713,-187.591"/>
<polygon fill="midnightblue" stroke="midnightblue" points="874.743,-272.167 881.45,-280.368 881.322,-269.774 874.743,-272.167"/>
</g>
<!-- Node16 -->
<g id="node47" class="node"><title>Node16</title>
<a xlink:href="dataFile_8h.html" target="_top" xlink:title="src/dataFile.h">
<polygon fill="white" stroke="black" points="1144.09,-168.5 1144.09,-187.5 1221.09,-187.5 1221.09,-168.5 1144.09,-168.5"/>
<text text-anchor="middle" x="1182.59" y="-175.5" font-family="FreeSans" font-size="10.00">src/dataFile.h</text>
</a>
</g>
<!-- Node1&#45;&gt;Node16 -->
<g id="edge62" class="edge"><title>Node1&#45;&gt;Node16</title>
<path fill="none" stroke="midnightblue" d="M932.885,-278.082C965.709,-270.078 1009.85,-258.163 1047.59,-244 1092.4,-227.182 1142.54,-200.961 1167.19,-187.542"/>
<polygon fill="midnightblue" stroke="midnightblue" points="931.986,-274.698 923.081,-280.439 933.622,-281.505 931.986,-274.698"/>
</g>
<!-- Node18 -->
<g id="node54" class="node"><title>Node18</title>
<a xlink:href="integrator_8h.html" target="_top" xlink:title="src/integrator.h">
<polygon fill="white" stroke="black" points="42.0889,-168.5 42.0889,-187.5 125.089,-187.5 125.089,-168.5 42.0889,-168.5"/>
<text text-anchor="middle" x="83.5889" y="-175.5" font-family="FreeSans" font-size="10.00">src/integrator.h</text>
</a>
</g>
<!-- Node1&#45;&gt;Node18 -->
<g id="edge72" class="edge"><title>Node1&#45;&gt;Node18</title>
<path fill="none" stroke="midnightblue" d="M833.995,-288.11C699.067,-285.337 333.016,-275.087 216.589,-244 169.908,-231.536 120.062,-202.323 96.8748,-187.684"/>
<polygon fill="midnightblue" stroke="midnightblue" points="833.993,-291.611 844.061,-288.312 834.133,-284.612 833.993,-291.611"/>
</g>
<!-- Node20 -->
<g id="node61" class="node"><title>Node20</title>
<a xlink:href="qssintegrator_8h.html" target="_top" xlink:title="src/qssintegrator.h">
<polygon fill="white" stroke="black" points="940.089,-224.5 940.089,-243.5 1039.09,-243.5 1039.09,-224.5 940.089,-224.5"/>
<text text-anchor="middle" x="989.589" y="-231.5" font-family="FreeSans" font-size="10.00">src/qssintegrator.h</text>
</a>
</g>
<!-- Node1&#45;&gt;Node20 -->
<g id="edge82" class="edge"><title>Node1&#45;&gt;Node20</title>
<path fill="none" stroke="midnightblue" d="M910.399,-275.726C929.842,-265.727 955.937,-252.307 972.761,-243.655"/>
<polygon fill="midnightblue" stroke="midnightblue" points="908.751,-272.638 901.459,-280.324 911.953,-278.863 908.751,-272.638"/>
</g>
<!-- Node22 -->
<g id="node67" class="node"><title>Node22</title>
<a xlink:href="mathUtils_8cpp.html" target="_top" xlink:title="src/mathUtils.cpp">
<polygon fill="white" stroke="black" points="1277.59,-224.5 1277.59,-243.5 1369.59,-243.5 1369.59,-224.5 1277.59,-224.5"/>
<text text-anchor="middle" x="1323.59" y="-231.5" font-family="FreeSans" font-size="10.00">src/mathUtils.cpp</text>
</a>
</g>
<!-- Node1&#45;&gt;Node22 -->
<g id="edge90" class="edge"><title>Node1&#45;&gt;Node22</title>
<path fill="none" stroke="midnightblue" d="M935.566,-283.45C1008.39,-275.408 1146.38,-259.745 1263.59,-244 1268.08,-243.397 1272.75,-242.743 1277.42,-242.071"/>
<polygon fill="midnightblue" stroke="midnightblue" points="934.86,-280.007 925.304,-284.581 935.627,-286.965 934.86,-280.007"/>
</g>
<!-- Node23 -->
<g id="node69" class="node"><title>Node23</title>
<a xlink:href="sundialsUtils_8cpp.html" target="_top" xlink:title="src/sundialsUtils.cpp">
<polygon fill="white" stroke="black" points="1388.09,-224.5 1388.09,-243.5 1495.09,-243.5 1495.09,-224.5 1388.09,-224.5"/>
<text text-anchor="middle" x="1441.59" y="-231.5" font-family="FreeSans" font-size="10.00">src/sundialsUtils.cpp</text>
</a>
</g>
<!-- Node1&#45;&gt;Node23 -->
<g id="edge92" class="edge"><title>Node1&#45;&gt;Node23</title>
<path fill="none" stroke="midnightblue" d="M935.488,-285.225C1025.16,-278.383 1217.12,-262.876 1378.59,-244 1381.66,-243.641 1384.82,-243.253 1388,-242.846"/>
<polygon fill="midnightblue" stroke="midnightblue" points="935.032,-281.75 925.326,-285.997 935.562,-288.73 935.032,-281.75"/>
</g>
<!-- Node3 -->
<g id="node5" class="node"><title>Node3</title>
<a xlink:href="chemistry0d_8cpp.html" target="_top" xlink:title="src/chemistry0d.cpp">
<polygon fill="white" stroke="black" points="255.089,-112.5 255.089,-131.5 360.089,-131.5 360.089,-112.5 255.089,-112.5"/>
<text text-anchor="middle" x="307.589" y="-119.5" font-family="FreeSans" font-size="10.00">src/chemistry0d.cpp</text>
</a>
</g>
<!-- Node2&#45;&gt;Node3 -->
<g id="edge4" class="edge"><title>Node2&#45;&gt;Node3</title>
<path fill="none" stroke="midnightblue" d="M336.479,-160.144C329.161,-150.736 320.348,-139.405 314.395,-131.751"/>
<polygon fill="midnightblue" stroke="midnightblue" points="333.751,-162.338 342.653,-168.083 339.277,-158.041 333.751,-162.338"/>
</g>
<!-- Node2&#45;&gt;Node4 -->
<g id="edge6" class="edge"><title>Node2&#45;&gt;Node4</title>
<path fill="none" stroke="midnightblue" d="M391.997,-165.829C430.703,-155.633 487.082,-140.782 522.258,-131.516"/>
<polygon fill="midnightblue" stroke="midnightblue" points="390.85,-162.512 382.072,-168.444 392.633,-169.281 390.85,-162.512"/>
</g>
<!-- Node5 -->
<g id="node9" class="node"><title>Node5</title>
<a xlink:href="flameSolver_8h.html" target="_top" xlink:title="src/flameSolver.h">
<polygon fill="white" stroke="black" points="462.089,-56.5 462.089,-75.5 557.089,-75.5 557.089,-56.5 462.089,-56.5"/>
<text text-anchor="middle" x="509.589" y="-63.5" font-family="FreeSans" font-size="10.00">src/flameSolver.h</text>
</a>
</g>
<!-- Node2&#45;&gt;Node5 -->
<g id="edge16" class="edge"><title>Node2&#45;&gt;Node5</title>
<path fill="none" stroke="midnightblue" d="M362.604,-160.488C374.465,-146.256 393.067,-125.869 412.589,-112 435.138,-95.9801 464.299,-83.3642 484.735,-75.6167"/>
<polygon fill="midnightblue" stroke="midnightblue" points="359.732,-158.473 356.142,-168.442 365.164,-162.888 359.732,-158.473"/>
</g>
<!-- Node2&#45;&gt;Node7 -->
<g id="edge12" class="edge"><title>Node2&#45;&gt;Node7</title>
<path fill="none" stroke="midnightblue" d="M313.203,-165.304C281.547,-155.129 236.421,-140.625 208.084,-131.516"/>
<polygon fill="midnightblue" stroke="midnightblue" points="312.377,-168.715 322.969,-168.444 314.52,-162.051 312.377,-168.715"/>
</g>
<!-- Node2&#45;&gt;Node8 -->
<g id="edge18" class="edge"><title>Node2&#45;&gt;Node8</title>
<path fill="none" stroke="midnightblue" d="M407.47,-169.45C488.128,-158.93 633.159,-140.013 710.927,-129.869"/>
<polygon fill="midnightblue" stroke="midnightblue" points="406.948,-165.989 397.484,-170.753 407.853,-172.93 406.948,-165.989"/>
</g>
<!-- Node4&#45;&gt;Node5 -->
<g id="edge8" class="edge"><title>Node4&#45;&gt;Node5</title>
<path fill="none" stroke="midnightblue" d="M540.542,-104.144C532.702,-94.7357 523.259,-83.4046 516.881,-75.7511"/>
<polygon fill="midnightblue" stroke="midnightblue" points="538.067,-106.641 547.158,-112.083 543.445,-102.16 538.067,-106.641"/>
</g>
<!-- Node5&#45;&gt;Node6 -->
<g id="edge10" class="edge"><title>Node5&#45;&gt;Node6</title>
<path fill="none" stroke="midnightblue" d="M567.17,-59.7829C682.751,-49.3108 941.454,-25.8713 1052.88,-15.7756"/>
<polygon fill="midnightblue" stroke="midnightblue" points="566.748,-56.3068 557.104,-60.6949 567.379,-63.2782 566.748,-56.3068"/>
</g>
<!-- Node7&#45;&gt;Node5 -->
<g id="edge14" class="edge"><title>Node7&#45;&gt;Node5</title>
<path fill="none" stroke="midnightblue" d="M243.438,-110.818C306.855,-100.377 404.137,-84.361 461.857,-74.8583"/>
<polygon fill="midnightblue" stroke="midnightblue" points="242.86,-107.365 233.562,-112.444 243.997,-114.272 242.86,-107.365"/>
</g>
<!-- Node8&#45;&gt;Node5 -->
<g id="edge20" class="edge"><title>Node8&#45;&gt;Node5</title>
<path fill="none" stroke="midnightblue" d="M713.474,-110.346C665.472,-100.141 593.973,-84.94 549.648,-75.5164"/>
<polygon fill="midnightblue" stroke="midnightblue" points="712.833,-113.787 723.342,-112.444 714.288,-106.94 712.833,-113.787"/>
</g>
<!-- Node9 -->
<g id="node20" class="node"><title>Node9</title>
<a xlink:href="sourceSystem_8cpp.html" target="_top" xlink:title="src/sourceSystem.cpp">
<polygon fill="white" stroke="black" points="798.589,-56.5 798.589,-75.5 914.589,-75.5 914.589,-56.5 798.589,-56.5"/>
<text text-anchor="middle" x="856.589" y="-63.5" font-family="FreeSans" font-size="10.00">src/sourceSystem.cpp</text>
</a>
</g>
<!-- Node8&#45;&gt;Node9 -->
<g id="edge22" class="edge"><title>Node8&#45;&gt;Node9</title>
<path fill="none" stroke="midnightblue" d="M787.395,-107.177C804.508,-97.2407 827.054,-84.1492 841.684,-75.6545"/>
<polygon fill="midnightblue" stroke="midnightblue" points="785.421,-104.276 778.531,-112.324 788.936,-110.329 785.421,-104.276"/>
</g>
<!-- Node10&#45;&gt;Node2 -->
<g id="edge26" class="edge"><title>Node10&#45;&gt;Node2</title>
<path fill="none" stroke="midnightblue" d="M566.151,-222.473C515.312,-212.268 439.153,-196.979 392.013,-187.516"/>
<polygon fill="midnightblue" stroke="midnightblue" points="565.472,-225.907 575.965,-224.444 566.85,-219.044 565.472,-225.907"/>
</g>
<!-- Node10&#45;&gt;Node5 -->
<g id="edge44" class="edge"><title>Node10&#45;&gt;Node5</title>
<path fill="none" stroke="midnightblue" d="M562.962,-226.038C517.73,-219.099 459.107,-206.751 444.589,-188 415.099,-149.913 472.618,-96.5951 498.196,-75.7963"/>
<polygon fill="midnightblue" stroke="midnightblue" points="562.566,-229.517 572.971,-227.52 563.591,-222.593 562.566,-229.517"/>
</g>
<!-- Node10&#45;&gt;Node9 -->
<g id="edge48" class="edge"><title>Node10&#45;&gt;Node9</title>
<path fill="none" stroke="midnightblue" d="M674.613,-228.972C743.761,-223.118 856.514,-210.432 891.589,-188 923.404,-167.653 947.998,-144.974 929.589,-112 919.646,-94.1908 899.439,-82.5554 882.8,-75.5863"/>
<polygon fill="midnightblue" stroke="midnightblue" points="674.003,-225.51 664.325,-229.82 674.578,-232.486 674.003,-225.51"/>
</g>
<!-- Node11 -->
<g id="node25" class="node"><title>Node11</title>
<a xlink:href="strainFunction_8h.html" target="_top" xlink:title="src/strainFunction.h">
<polygon fill="white" stroke="red" points="568.089,-168.5 568.089,-187.5 669.089,-187.5 669.089,-168.5 568.089,-168.5"/>
<text text-anchor="middle" x="618.589" y="-175.5" font-family="FreeSans" font-size="10.00">src/strainFunction.h</text>
</a>
</g>
<!-- Node10&#45;&gt;Node11 -->
<g id="edge28" class="edge"><title>Node10&#45;&gt;Node11</title>
<path fill="none" stroke="midnightblue" d="M618.589,-213.805C618.589,-204.91 618.589,-194.78 618.589,-187.751"/>
<polygon fill="midnightblue" stroke="midnightblue" points="615.089,-214.083 618.589,-224.083 622.089,-214.083 615.089,-214.083"/>
</g>
<!-- Node12 -->
<g id="node30" class="node"><title>Node12</title>
<a xlink:href="grid_8h.html" target="_top" xlink:title="src/grid.h">
<polygon fill="white" stroke="red" points="453.589,-168.5 453.589,-187.5 511.589,-187.5 511.589,-168.5 453.589,-168.5"/>
<text text-anchor="middle" x="482.589" y="-175.5" font-family="FreeSans" font-size="10.00">src/grid.h</text>
</a>
</g>
<!-- Node10&#45;&gt;Node12 -->
<g id="edge36" class="edge"><title>Node10&#45;&gt;Node12</title>
<path fill="none" stroke="midnightblue" d="M587.454,-220.638C561.932,-210.504 526.48,-196.427 504.038,-187.516"/>
<polygon fill="midnightblue" stroke="midnightblue" points="586.454,-224.006 597.039,-224.444 589.037,-217.5 586.454,-224.006"/>
</g>
<!-- Node13 -->
<g id="node36" class="node"><title>Node13</title>
<a xlink:href="readConfig_8cpp.html" target="_top" xlink:title="src/readConfig.cpp">
<polygon fill="white" stroke="black" points="687.089,-168.5 687.089,-187.5 788.089,-187.5 788.089,-168.5 687.089,-168.5"/>
<text text-anchor="middle" x="737.589" y="-175.5" font-family="FreeSans" font-size="10.00">src/readConfig.cpp</text>
</a>
</g>
<!-- Node10&#45;&gt;Node13 -->
<g id="edge46" class="edge"><title>Node10&#45;&gt;Node13</title>
<path fill="none" stroke="midnightblue" d="M646.726,-220.232C668.985,-210.131 699.445,-196.309 718.821,-187.516"/>
<polygon fill="midnightblue" stroke="midnightblue" points="645.105,-217.124 637.445,-224.444 647.997,-223.498 645.105,-217.124"/>
</g>
<!-- Node11&#45;&gt;Node4 -->
<g id="edge30" class="edge"><title>Node11&#45;&gt;Node4</title>
<path fill="none" stroke="midnightblue" d="M600.597,-161.82C589.131,-152.145 574.676,-139.948 565.059,-131.834"/>
<polygon fill="midnightblue" stroke="midnightblue" points="598.406,-164.55 608.306,-168.324 602.92,-159.2 598.406,-164.55"/>
</g>
<!-- Node11&#45;&gt;Node5 -->
<g id="edge34" class="edge"><title>Node11&#45;&gt;Node5</title>
<path fill="none" stroke="midnightblue" d="M626.217,-158.601C630.696,-144.631 633.854,-125.575 624.589,-112 609.481,-89.8651 581.709,-78.6174 557.242,-72.9024"/>
<polygon fill="midnightblue" stroke="midnightblue" points="622.884,-157.523 622.718,-168.117 629.454,-159.939 622.884,-157.523"/>
</g>
<!-- Node11&#45;&gt;Node8 -->
<g id="edge32" class="edge"><title>Node11&#45;&gt;Node8</title>
<path fill="none" stroke="midnightblue" d="M651.064,-164.906C678.325,-154.754 716.581,-140.506 740.721,-131.516"/>
<polygon fill="midnightblue" stroke="midnightblue" points="649.714,-161.674 641.565,-168.444 652.157,-168.233 649.714,-161.674"/>
</g>
<!-- Node12&#45;&gt;Node4 -->
<g id="edge38" class="edge"><title>Node12&#45;&gt;Node4</title>
<path fill="none" stroke="midnightblue" d="M502.455,-162.101C515.412,-152.382 531.886,-140.027 542.81,-131.834"/>
<polygon fill="midnightblue" stroke="midnightblue" points="500.057,-159.524 494.157,-168.324 504.257,-165.124 500.057,-159.524"/>
</g>
<!-- Node12&#45;&gt;Node5 -->
<g id="edge42" class="edge"><title>Node12&#45;&gt;Node5</title>
<path fill="none" stroke="midnightblue" d="M480.41,-158.216C479.474,-145.041 479.403,-127.145 483.589,-112 487.387,-98.2592 496.4,-84.3383 502.745,-75.6937"/>
<polygon fill="midnightblue" stroke="midnightblue" points="476.946,-158.765 481.37,-168.392 483.915,-158.108 476.946,-158.765"/>
</g>
<!-- Node12&#45;&gt;Node7 -->
<g id="edge40" class="edge"><title>Node12&#45;&gt;Node7</title>
<path fill="none" stroke="midnightblue" d="M443.401,-169.97C388.386,-160.1 288.371,-142.157 229.16,-131.534"/>
<polygon fill="midnightblue" stroke="midnightblue" points="442.993,-173.452 453.454,-171.773 444.229,-166.562 442.993,-173.452"/>
</g>
<!-- Node14&#45;&gt;Node4 -->
<g id="edge54" class="edge"><title>Node14&#45;&gt;Node4</title>
<path fill="none" stroke="midnightblue" d="M796.05,-167.902C721.584,-154.001 647.125,-140.169 600.536,-131.523"/>
<polygon fill="midnightblue" stroke="midnightblue" points="795.605,-171.379 806.077,-169.774 796.89,-164.498 795.605,-171.379"/>
</g>
<!-- Node14&#45;&gt;Node5 -->
<g id="edge58" class="edge"><title>Node14&#45;&gt;Node5</title>
<path fill="none" stroke="midnightblue" d="M807.163,-165.465C778.273,-156.501 737.331,-143.672 701.589,-132 669.725,-121.594 578.964,-90.6817 534.607,-75.5444"/>
<polygon fill="midnightblue" stroke="midnightblue" points="806.263,-168.85 816.851,-168.466 808.335,-162.163 806.263,-168.85"/>
</g>
<!-- Node14&#45;&gt;Node8 -->
<g id="edge56" class="edge"><title>Node14&#45;&gt;Node8</title>
<path fill="none" stroke="midnightblue" d="M823.022,-162.622C808.225,-152.757 789.077,-139.992 776.571,-131.655"/>
<polygon fill="midnightblue" stroke="midnightblue" points="821.313,-165.689 831.575,-168.324 825.196,-159.865 821.313,-165.689"/>
</g>
<!-- Node15 -->
<g id="node45" class="node"><title>Node15</title>
<a xlink:href="quasi2d_8cpp.html" target="_top" xlink:title="src/quasi2d.cpp">
<polygon fill="white" stroke="black" points="834.089,-112.5 834.089,-131.5 921.089,-131.5 921.089,-112.5 834.089,-112.5"/>
<text text-anchor="middle" x="877.589" y="-119.5" font-family="FreeSans" font-size="10.00">src/quasi2d.cpp</text>
</a>
</g>
<!-- Node14&#45;&gt;Node15 -->
<g id="edge60" class="edge"><title>Node14&#45;&gt;Node15</title>
<path fill="none" stroke="midnightblue" d="M855.421,-159.275C861.061,-150.045 867.707,-139.17 872.241,-131.751"/>
<polygon fill="midnightblue" stroke="midnightblue" points="852.266,-157.725 850.038,-168.083 858.239,-161.375 852.266,-157.725"/>
</g>
<!-- Node16&#45;&gt;Node6 -->
<g id="edge66" class="edge"><title>Node16&#45;&gt;Node6</title>
<path fill="none" stroke="midnightblue" d="M1156.84,-163.146C1145.14,-155.511 1132.23,-144.943 1124.59,-132 1102.64,-94.8289 1103.55,-40.5241 1104.87,-19.6318"/>
<polygon fill="midnightblue" stroke="midnightblue" points="1155.09,-166.177 1165.45,-168.403 1158.74,-160.203 1155.09,-166.177"/>
</g>
<!-- Node16&#45;&gt;Node15 -->
<g id="edge68" class="edge"><title>Node16&#45;&gt;Node15</title>
<path fill="none" stroke="midnightblue" d="M1134.19,-167.945C1052.95,-153.252 970.431,-138.944 921.272,-130.484"/>
<polygon fill="midnightblue" stroke="midnightblue" points="1133.62,-171.399 1144.08,-169.738 1134.87,-164.512 1133.62,-171.399"/>
</g>
<!-- Node17 -->
<g id="node49" class="node"><title>Node17</title>
<a xlink:href="dataFile_8cpp.html" target="_top" xlink:title="src/dataFile.cpp">
<polygon fill="white" stroke="black" points="1133.59,-112.5 1133.59,-131.5 1221.59,-131.5 1221.59,-112.5 1133.59,-112.5"/>
<text text-anchor="middle" x="1177.59" y="-119.5" font-family="FreeSans" font-size="10.00">src/dataFile.cpp</text>
</a>
</g>
<!-- Node16&#45;&gt;Node17 -->
<g id="edge64" class="edge"><title>Node16&#45;&gt;Node17</title>
<path fill="none" stroke="midnightblue" d="M1180.84,-158.101C1180.01,-149.136 1179.06,-138.858 1178.4,-131.751"/>
<polygon fill="midnightblue" stroke="midnightblue" points="1177.36,-158.448 1181.76,-168.083 1184.33,-157.803 1177.36,-158.448"/>
</g>
<!-- Node18&#45;&gt;Node5 -->
<g id="edge76" class="edge"><title>Node18&#45;&gt;Node5</title>
<path fill="none" stroke="midnightblue" d="M49.3603,-164.571C20.576,-152.299 -13.1167,-132.45 5.58893,-112 36.05,-78.6981 342.376,-69.8641 462.045,-67.6748"/>
<polygon fill="midnightblue" stroke="midnightblue" points="48.2692,-167.906 58.8509,-168.432 50.9072,-161.422 48.2692,-167.906"/>
</g>
<!-- Node18&#45;&gt;Node7 -->
<g id="edge74" class="edge"><title>Node18&#45;&gt;Node7</title>
<path fill="none" stroke="midnightblue" d="M108.175,-163.453C126.267,-153.483 150.324,-140.228 165.883,-131.655"/>
<polygon fill="midnightblue" stroke="midnightblue" points="106.404,-160.432 99.3343,-168.324 109.782,-166.563 106.404,-160.432"/>
</g>
<!-- Node19 -->
<g id="node58" class="node"><title>Node19</title>
<a xlink:href="integrator_8cpp.html" target="_top" xlink:title="src/integrator.cpp">
<polygon fill="white" stroke="black" points="15.0889,-112.5 15.0889,-131.5 108.089,-131.5 108.089,-112.5 15.0889,-112.5"/>
<text text-anchor="middle" x="61.5889" y="-119.5" font-family="FreeSans" font-size="10.00">src/integrator.cpp</text>
</a>
</g>
<!-- Node18&#45;&gt;Node19 -->
<g id="edge78" class="edge"><title>Node18&#45;&gt;Node19</title>
<path fill="none" stroke="midnightblue" d="M76.1292,-158.69C72.4215,-149.589 68.1132,-139.014 65.1542,-131.751"/>
<polygon fill="midnightblue" stroke="midnightblue" points="72.9417,-160.143 79.9561,-168.083 79.4244,-157.502 72.9417,-160.143"/>
</g>
<!-- Node20&#45;&gt;Node8 -->
<g id="edge84" class="edge"><title>Node20&#45;&gt;Node8</title>
<path fill="none" stroke="midnightblue" d="M977.222,-216.168C965.505,-201.39 946.611,-180.375 925.589,-168 892.007,-148.231 849.395,-136.843 816.303,-130.471"/>
<polygon fill="midnightblue" stroke="midnightblue" points="974.687,-218.615 983.544,-224.43 980.247,-214.361 974.687,-218.615"/>
</g>
<!-- Node21 -->
<g id="node64" class="node"><title>Node21</title>
<a xlink:href="qssintegrator_8cpp.html" target="_top" xlink:title="src/qssintegrator.cpp">
<polygon fill="white" stroke="black" points="1015.59,-168.5 1015.59,-187.5 1125.59,-187.5 1125.59,-168.5 1015.59,-168.5"/>
<text text-anchor="middle" x="1070.59" y="-175.5" font-family="FreeSans" font-size="10.00">src/qssintegrator.cpp</text>
</a>
</g>
<!-- Node20&#45;&gt;Node21 -->
<g id="edge86" class="edge"><title>Node20&#45;&gt;Node21</title>
<path fill="none" stroke="midnightblue" d="M1011.16,-218.622C1025.95,-208.757 1045.1,-195.992 1057.61,-187.655"/>
<polygon fill="midnightblue" stroke="midnightblue" points="1008.98,-215.865 1002.6,-224.324 1012.86,-221.689 1008.98,-215.865"/>
</g>
</g>
</svg>
