<?xml version="1.0" encoding="UTF-8" standalone="no"?>
<!DOCTYPE svg PUBLIC "-//W3C//DTD SVG 1.1//EN"
 "http://www.w3.org/Graphics/SVG/1.1/DTD/svg11.dtd">
<!-- Generated by graphviz version 2.26.3 (20100126.1600)
 -->
<!-- Title: src/mathUtils.h Pages: 1 -->
<svg width="1483pt" height="320pt"
 viewBox="0.00 0.00 1482.98 320.00" xmlns="http://www.w3.org/2000/svg" xmlns:xlink="http://www.w3.org/1999/xlink">
<g id="graph1" class="graph" transform="scale(1 1) rotate(0) translate(4 316)">
<title>src/mathUtils.h</title>
<polygon fill="white" stroke="white" points="-4,5 -4,-316 1479.98,-316 1479.98,5 -4,5"/>
<!-- Node1 -->
<g id="node1" class="node"><title>Node1</title>
<polygon fill="#bfbfbf" stroke="black" points="879.984,-291 879.984,-311 959.984,-311 959.984,-291 879.984,-291"/>
<text text-anchor="middle" x="919.984" y="-298" font-family="FreeSans" font-size="10.00">src/mathUtils.h</text>
</g>
<!-- Node2 -->
<g id="node3" class="node"><title>Node2</title>
<a xlink:href="chemistry0d_8h.html" target="_top" xlink:title="src/chemistry0d.h">
<polygon fill="white" stroke="black" points="12.9843,-175 12.9843,-195 104.984,-195 104.984,-175 12.9843,-175"/>
<text text-anchor="middle" x="58.9843" y="-182" font-family="FreeSans" font-size="10.00">src/chemistry0d.h</text>
</a>
</g>
<!-- Node1&#45;&gt;Node2 -->
<g id="edge2" class="edge"><title>Node1&#45;&gt;Node2</title>
<path fill="none" stroke="midnightblue" d="M869.781,-299.884C707.614,-296.018 204.405,-281.88 136.984,-254 106.075,-241.219 79.1053,-210.876 66.5229,-195.029"/>
<polygon fill="midnightblue" stroke="midnightblue" points="869.882,-303.387 879.961,-300.124 870.046,-296.389 869.882,-303.387"/>
</g>
<!-- Node8 -->
<g id="node15" class="node"><title>Node8</title>
<a xlink:href="readConfig_8h.html" target="_top" xlink:title="src/readConfig.h">
<polygon fill="white" stroke="black" points="541.984,-233 541.984,-253 627.984,-253 627.984,-233 541.984,-233"/>
<text text-anchor="middle" x="584.984" y="-240" font-family="FreeSans" font-size="10.00">src/readConfig.h</text>
</a>
</g>
<!-- Node1&#45;&gt;Node8 -->
<g id="edge14" class="edge"><title>Node1&#45;&gt;Node8</title>
<path fill="none" stroke="midnightblue" d="M869.792,-292.31C804.074,-280.932 689.973,-261.177 628.013,-250.45"/>
<polygon fill="midnightblue" stroke="midnightblue" points="869.458,-295.804 879.908,-294.061 870.652,-288.907 869.458,-295.804"/>
</g>
<!-- Node10 -->
<g id="node20" class="node"><title>Node10</title>
<a xlink:href="convectionSystem_8h.html" target="_top" xlink:title="src/convectionSystem.h">
<polygon fill="white" stroke="black" points="372.484,-117 372.484,-137 491.484,-137 491.484,-117 372.484,-117"/>
<text text-anchor="middle" x="431.984" y="-124" font-family="FreeSans" font-size="10.00">src/convectionSystem.h</text>
</a>
</g>
<!-- Node1&#45;&gt;Node10 -->
<g id="edge50" class="edge"><title>Node1&#45;&gt;Node10</title>
<path fill="none" stroke="midnightblue" d="M869.476,-299.992C742.828,-296.236 417.61,-278.577 357.984,-196 340.606,-171.932 378.422,-149.571 406.132,-137.152"/>
<polygon fill="midnightblue" stroke="midnightblue" points="869.582,-303.496 879.676,-300.277 869.778,-296.499 869.582,-303.496"/>
</g>
<!-- Node11 -->
<g id="node24" class="node"><title>Node11</title>
<a xlink:href="diffusionSystem_8h.html" target="_top" xlink:title="src/diffusionSystem.h">
<polygon fill="white" stroke="red" points="1018.48,-117 1018.48,-137 1125.48,-137 1125.48,-117 1018.48,-117"/>
<text text-anchor="middle" x="1071.98" y="-124" font-family="FreeSans" font-size="10.00">src/diffusionSystem.h</text>
</a>
</g>
<!-- Node1&#45;&gt;Node11 -->
<g id="edge66" class="edge"><title>Node1&#45;&gt;Node11</title>
<path fill="none" stroke="midnightblue" d="M970.061,-290.241C1002.94,-282.292 1046.46,-270.067 1082.98,-254 1128.27,-234.08 1153.78,-239.142 1177.98,-196 1194.53,-166.51 1152.81,-147.53 1116.94,-137.088"/>
<polygon fill="midnightblue" stroke="midnightblue" points="969.143,-286.862 960.218,-292.57 970.755,-293.673 969.143,-286.862"/>
</g>
<!-- Node13 -->
<g id="node31" class="node"><title>Node13</title>
<a xlink:href="splitSolver_8h.html" target="_top" xlink:title="src/splitSolver.h">
<polygon fill="white" stroke="black" points="706.984,-175 706.984,-195 790.984,-195 790.984,-175 706.984,-175"/>
<text text-anchor="middle" x="748.984" y="-182" font-family="FreeSans" font-size="10.00">src/splitSolver.h</text>
</a>
</g>
<!-- Node1&#45;&gt;Node13 -->
<g id="edge76" class="edge"><title>Node1&#45;&gt;Node13</title>
<path fill="none" stroke="midnightblue" d="M893.806,-285.774C878.744,-276.828 859.574,-265.123 842.984,-254 813.39,-234.159 780.058,-208.986 762.116,-195.191"/>
<polygon fill="midnightblue" stroke="midnightblue" points="892.203,-288.892 902.594,-290.958 895.76,-282.863 892.203,-288.892"/>
</g>
<!-- Node17 -->
<g id="node43" class="node"><title>Node17</title>
<a xlink:href="quasi2d_8h.html" target="_top" xlink:title="src/quasi2d.h">
<polygon fill="white" stroke="black" points="851.484,-233 851.484,-253 924.484,-253 924.484,-233 851.484,-233"/>
<text text-anchor="middle" x="887.984" y="-240" font-family="FreeSans" font-size="10.00">src/quasi2d.h</text>
</a>
</g>
<!-- Node1&#45;&gt;Node17 -->
<g id="edge52" class="edge"><title>Node1&#45;&gt;Node17</title>
<path fill="none" stroke="midnightblue" d="M909.552,-282.091C904.287,-272.549 898.103,-261.34 893.71,-253.378"/>
<polygon fill="midnightblue" stroke="midnightblue" points="906.515,-283.832 914.41,-290.897 912.644,-280.451 906.515,-283.832"/>
</g>
<!-- Node18 -->
<g id="node46" class="node"><title>Node18</title>
<a xlink:href="sourceSystem_8h.html" target="_top" xlink:title="src/sourceSystem.h">
<polygon fill="white" stroke="black" points="946.484,-175 946.484,-195 1047.48,-195 1047.48,-175 946.484,-175"/>
<text text-anchor="middle" x="996.984" y="-182" font-family="FreeSans" font-size="10.00">src/sourceSystem.h</text>
</a>
</g>
<!-- Node1&#45;&gt;Node18 -->
<g id="edge78" class="edge"><title>Node1&#45;&gt;Node18</title>
<path fill="none" stroke="midnightblue" d="M932.494,-282.154C948.978,-257.321 977.387,-214.524 990.276,-195.106"/>
<polygon fill="midnightblue" stroke="midnightblue" points="929.432,-280.439 926.818,-290.706 935.264,-284.31 929.432,-280.439"/>
</g>
<!-- Node20 -->
<g id="node54" class="node"><title>Node20</title>
<a xlink:href="integrator_8h.html" target="_top" xlink:title="src/integrator.h">
<polygon fill="white" stroke="black" points="1224.98,-175 1224.98,-195 1304.98,-195 1304.98,-175 1224.98,-175"/>
<text text-anchor="middle" x="1264.98" y="-182" font-family="FreeSans" font-size="10.00">src/integrator.h</text>
</a>
</g>
<!-- Node1&#45;&gt;Node20 -->
<g id="edge68" class="edge"><title>Node1&#45;&gt;Node20</title>
<path fill="none" stroke="midnightblue" d="M970.47,-297.287C1042.69,-291.236 1171.19,-277.501 1210.98,-254 1234.95,-239.845 1252.25,-210.668 1260.16,-195.179"/>
<polygon fill="midnightblue" stroke="midnightblue" points="969.92,-293.82 960.239,-298.125 970.491,-300.797 969.92,-293.82"/>
</g>
<!-- Node22 -->
<g id="node62" class="node"><title>Node22</title>
<a xlink:href="qssintegrator_8h.html" target="_top" xlink:title="src/qssintegrator.h">
<polygon fill="white" stroke="black" points="979.484,-233 979.484,-253 1074.48,-253 1074.48,-233 979.484,-233"/>
<text text-anchor="middle" x="1026.98" y="-240" font-family="FreeSans" font-size="10.00">src/qssintegrator.h</text>
</a>
</g>
<!-- Node1&#45;&gt;Node22 -->
<g id="edge80" class="edge"><title>Node1&#45;&gt;Node22</title>
<path fill="none" stroke="midnightblue" d="M947.447,-286.114C966.5,-275.786 991.38,-262.3 1008.2,-253.182"/>
<polygon fill="midnightblue" stroke="midnightblue" points="945.746,-283.055 938.622,-290.897 949.082,-289.209 945.746,-283.055"/>
</g>
<!-- Node24 -->
<g id="node67" class="node"><title>Node24</title>
<a xlink:href="scalarFunction_8h.html" target="_top" xlink:title="src/scalarFunction.h">
<polygon fill="white" stroke="black" points="145.484,-233 145.484,-253 248.484,-253 248.484,-233 145.484,-233"/>
<text text-anchor="middle" x="196.984" y="-240" font-family="FreeSans" font-size="10.00">src/scalarFunction.h</text>
</a>
</g>
<!-- Node1&#45;&gt;Node24 -->
<g id="edge86" class="edge"><title>Node1&#45;&gt;Node24</title>
<path fill="none" stroke="midnightblue" d="M869.879,-297.159C767.496,-289.286 526.913,-270.652 324.984,-254 299.866,-251.929 271.983,-249.543 248.67,-247.523"/>
<polygon fill="midnightblue" stroke="midnightblue" points="869.693,-300.655 879.932,-297.932 870.229,-293.676 869.693,-300.655"/>
</g>
<!-- Node25 -->
<g id="node72" class="node"><title>Node25</title>
<a xlink:href="mathUtils_8cpp.html" target="_top" xlink:title="src/mathUtils.cpp">
<polygon fill="white" stroke="black" points="1262.48,-233 1262.48,-253 1353.48,-253 1353.48,-233 1262.48,-233"/>
<text text-anchor="middle" x="1307.98" y="-240" font-family="FreeSans" font-size="10.00">src/mathUtils.cpp</text>
</a>
</g>
<!-- Node1&#45;&gt;Node25 -->
<g id="edge94" class="edge"><title>Node1&#45;&gt;Node25</title>
<path fill="none" stroke="midnightblue" d="M970.389,-294.475C1035.04,-285.952 1150.56,-270.198 1248.98,-254 1253.3,-253.289 1257.79,-252.516 1262.28,-251.719"/>
<polygon fill="midnightblue" stroke="midnightblue" points="969.536,-291.057 960.077,-295.83 970.448,-297.998 969.536,-291.057"/>
</g>
<!-- Node26 -->
<g id="node74" class="node"><title>Node26</title>
<a xlink:href="sundialsUtils_8cpp.html" target="_top" xlink:title="src/sundialsUtils.cpp">
<polygon fill="white" stroke="black" points="1370.98,-233 1370.98,-253 1474.98,-253 1474.98,-233 1370.98,-233"/>
<text text-anchor="middle" x="1422.98" y="-240" font-family="FreeSans" font-size="10.00">src/sundialsUtils.cpp</text>
</a>
</g>
<!-- Node1&#45;&gt;Node26 -->
<g id="edge96" class="edge"><title>Node1&#45;&gt;Node26</title>
<path fill="none" stroke="midnightblue" d="M970.079,-296.865C1052.18,-289.82 1220.42,-274.264 1361.98,-254 1364.86,-253.588 1367.81,-253.141 1370.78,-252.67"/>
<polygon fill="midnightblue" stroke="midnightblue" points="969.692,-293.385 960.026,-297.722 970.287,-300.359 969.692,-293.385"/>
</g>
<!-- Node3 -->
<g id="node5" class="node"><title>Node3</title>
<a xlink:href="chemistry0d_8cpp.html" target="_top" xlink:title="src/chemistry0d.cpp">
<polygon fill="white" stroke="black" points="124.984,-117 124.984,-137 226.984,-137 226.984,-117 124.984,-117"/>
<text text-anchor="middle" x="175.984" y="-124" font-family="FreeSans" font-size="10.00">src/chemistry0d.cpp</text>
</a>
</g>
<!-- Node2&#45;&gt;Node3 -->
<g id="edge4" class="edge"><title>Node2&#45;&gt;Node3</title>
<path fill="none" stroke="midnightblue" d="M88.4467,-170.395C109.352,-160.031 136.885,-146.383 155.445,-137.182"/>
<polygon fill="midnightblue" stroke="midnightblue" points="86.7691,-167.32 79.3641,-174.897 89.8782,-173.591 86.7691,-167.32"/>
</g>
<!-- Node4 -->
<g id="node7" class="node"><title>Node4</title>
<a xlink:href="convectionSystem_8cpp.html" target="_top" xlink:title="src/convectionSystem.cpp">
<polygon fill="white" stroke="black" points="190.484,-59 190.484,-79 319.484,-79 319.484,-59 190.484,-59"/>
<text text-anchor="middle" x="254.984" y="-66" font-family="FreeSans" font-size="10.00">src/convectionSystem.cpp</text>
</a>
</g>
<!-- Node2&#45;&gt;Node4 -->
<g id="edge6" class="edge"><title>Node2&#45;&gt;Node4</title>
<path fill="none" stroke="midnightblue" d="M60.951,-164.875C63.5131,-149.435 69.411,-128.68 82.9843,-116 99.4972,-100.573 153.119,-87.4556 196.152,-79.0309"/>
<polygon fill="midnightblue" stroke="midnightblue" points="57.455,-164.614 59.6128,-174.987 64.3945,-165.533 57.455,-164.614"/>
</g>
<!-- Node5 -->
<g id="node9" class="node"><title>Node5</title>
<a xlink:href="flameSolver_8h.html" target="_top" xlink:title="src/flameSolver.h">
<polygon fill="white" stroke="black" points="670.984,-59 670.984,-79 760.984,-79 760.984,-59 670.984,-59"/>
<text text-anchor="middle" x="715.984" y="-66" font-family="FreeSans" font-size="10.00">src/flameSolver.h</text>
</a>
</g>
<!-- Node2&#45;&gt;Node5 -->
<g id="edge8" class="edge"><title>Node2&#45;&gt;Node5</title>
<path fill="none" stroke="midnightblue" d="M68.8431,-166.062C78.4773,-149.707 94.7776,-127.021 115.984,-116 164.833,-90.6147 539.89,-75.1727 670.952,-70.5068"/>
<polygon fill="midnightblue" stroke="midnightblue" points="65.7703,-164.387 63.9543,-174.825 71.8832,-167.797 65.7703,-164.387"/>
</g>
<!-- Node7 -->
<g id="node13" class="node"><title>Node7</title>
<a xlink:href="sourceSystem_8cpp.html" target="_top" xlink:title="src/sourceSystem.cpp">
<polygon fill="white" stroke="black" points="244.484,-117 244.484,-137 355.484,-137 355.484,-117 244.484,-117"/>
<text text-anchor="middle" x="299.984" y="-124" font-family="FreeSans" font-size="10.00">src/sourceSystem.cpp</text>
</a>
</g>
<!-- Node2&#45;&gt;Node7 -->
<g id="edge12" class="edge"><title>Node2&#45;&gt;Node7</title>
<path fill="none" stroke="midnightblue" d="M110.643,-172.567C154.77,-161.948 217.43,-146.868 258.388,-137.011"/>
<polygon fill="midnightblue" stroke="midnightblue" points="109.592,-169.221 100.688,-174.963 111.23,-176.026 109.592,-169.221"/>
</g>
<!-- Node6 -->
<g id="node11" class="node"><title>Node6</title>
<a xlink:href="flameSolver_8cpp.html" target="_top" xlink:title="src/flameSolver.cpp">
<polygon fill="white" stroke="black" points="299.484,-1 299.484,-21 400.484,-21 400.484,-1 299.484,-1"/>
<text text-anchor="middle" x="349.984" y="-8" font-family="FreeSans" font-size="10.00">src/flameSolver.cpp</text>
</a>
</g>
<!-- Node5&#45;&gt;Node6 -->
<g id="edge10" class="edge"><title>Node5&#45;&gt;Node6</title>
<path fill="none" stroke="midnightblue" d="M660.705,-60.2399C590.131,-49.0561 469.009,-29.8619 400.7,-19.0369"/>
<polygon fill="midnightblue" stroke="midnightblue" points="660.314,-63.7215 670.738,-61.8299 661.409,-56.8078 660.314,-63.7215"/>
</g>
<!-- Node8&#45;&gt;Node3 -->
<g id="edge16" class="edge"><title>Node8&#45;&gt;Node3</title>
<path fill="none" stroke="midnightblue" d="M561.415,-227.075C534.047,-208.861 490.318,-180.688 471.984,-174 372.307,-137.639 340.622,-155.569 235.984,-138 233.06,-137.509 230.058,-136.994 227.029,-136.466"/>
<polygon fill="midnightblue" stroke="midnightblue" points="559.751,-230.173 570.009,-232.825 563.644,-224.355 559.751,-230.173"/>
</g>
<!-- Node8&#45;&gt;Node5 -->
<g id="edge34" class="edge"><title>Node8&#45;&gt;Node5</title>
<path fill="none" stroke="midnightblue" d="M600.747,-224.946C607.724,-216.481 615.744,-206.061 621.984,-196 642.732,-162.549 635.912,-147.144 659.984,-116 671.472,-101.137 688.394,-87.7506 700.627,-79.1011"/>
<polygon fill="midnightblue" stroke="midnightblue" points="598,-222.775 594.223,-232.673 603.348,-227.291 598,-222.775"/>
</g>
<!-- Node8&#45;&gt;Node7 -->
<g id="edge46" class="edge"><title>Node8&#45;&gt;Node7</title>
<path fill="none" stroke="midnightblue" d="M531.701,-236.078C474.128,-227.886 386.757,-213.168 357.984,-196 333.392,-181.326 314.321,-152.372 305.444,-137.053"/>
<polygon fill="midnightblue" stroke="midnightblue" points="531.341,-239.562 541.73,-237.483 532.312,-232.63 531.341,-239.562"/>
</g>
<!-- Node9 -->
<g id="node18" class="node"><title>Node9</title>
<a xlink:href="grid_8h.html" target="_top" xlink:title="src/grid.h">
<polygon fill="white" stroke="black" points="556.984,-175 556.984,-195 612.984,-195 612.984,-175 556.984,-175"/>
<text text-anchor="middle" x="584.984" y="-182" font-family="FreeSans" font-size="10.00">src/grid.h</text>
</a>
</g>
<!-- Node8&#45;&gt;Node9 -->
<g id="edge18" class="edge"><title>Node8&#45;&gt;Node9</title>
<path fill="none" stroke="midnightblue" d="M584.984,-222.89C584.984,-213.62 584.984,-203.008 584.984,-195.378"/>
<polygon fill="midnightblue" stroke="midnightblue" points="581.484,-222.897 584.984,-232.897 588.484,-222.897 581.484,-222.897"/>
</g>
<!-- Node8&#45;&gt;Node13 -->
<g id="edge36" class="edge"><title>Node8&#45;&gt;Node13</title>
<path fill="none" stroke="midnightblue" d="M623.182,-229.491C652.916,-218.975 693.527,-204.613 720.47,-195.084"/>
<polygon fill="midnightblue" stroke="midnightblue" points="621.812,-226.263 613.551,-232.897 624.146,-232.863 621.812,-226.263"/>
</g>
<!-- Node14 -->
<g id="node34" class="node"><title>Node14</title>
<a xlink:href="splitSolver_8cpp.html" target="_top" xlink:title="src/splitSolver.cpp">
<polygon fill="white" stroke="black" points="668.484,-117 668.484,-137 763.484,-137 763.484,-117 668.484,-117"/>
<text text-anchor="middle" x="715.984" y="-124" font-family="FreeSans" font-size="10.00">src/splitSolver.cpp</text>
</a>
</g>
<!-- Node8&#45;&gt;Node14 -->
<g id="edge48" class="edge"><title>Node8&#45;&gt;Node14</title>
<path fill="none" stroke="midnightblue" d="M611.441,-227.491C625.054,-218.966 641.561,-207.751 654.984,-196 676.399,-177.253 697.525,-151.217 708.41,-137.092"/>
<polygon fill="midnightblue" stroke="midnightblue" points="609.25,-224.729 602.552,-232.938 612.908,-230.697 609.25,-224.729"/>
</g>
<!-- Node15 -->
<g id="node36" class="node"><title>Node15</title>
<a xlink:href="readConfig_8cpp.html" target="_top" xlink:title="src/readConfig.cpp">
<polygon fill="white" stroke="black" points="366.984,-175 366.984,-195 462.984,-195 462.984,-175 366.984,-175"/>
<text text-anchor="middle" x="414.984" y="-182" font-family="FreeSans" font-size="10.00">src/readConfig.cpp</text>
</a>
</g>
<!-- Node8&#45;&gt;Node15 -->
<g id="edge42" class="edge"><title>Node8&#45;&gt;Node15</title>
<path fill="none" stroke="midnightblue" d="M545.79,-229.628C514.933,-219.1 472.592,-204.654 444.541,-195.084"/>
<polygon fill="midnightblue" stroke="midnightblue" points="544.778,-232.981 555.373,-232.897 547.038,-226.356 544.778,-232.981"/>
</g>
<!-- Node16 -->
<g id="node38" class="node"><title>Node16</title>
<a xlink:href="scalarFunction_8cpp.html" target="_top" xlink:title="src/scalarFunction.cpp">
<polygon fill="white" stroke="black" points="160.484,-175 160.484,-195 273.484,-195 273.484,-175 160.484,-175"/>
<text text-anchor="middle" x="216.984" y="-182" font-family="FreeSans" font-size="10.00">src/scalarFunction.cpp</text>
</a>
</g>
<!-- Node8&#45;&gt;Node16 -->
<g id="edge44" class="edge"><title>Node8&#45;&gt;Node16</title>
<path fill="none" stroke="midnightblue" d="M531.51,-234.572C462.763,-223.737 343.902,-205.003 273.646,-193.93"/>
<polygon fill="midnightblue" stroke="midnightblue" points="531.265,-238.076 541.688,-236.176 532.355,-231.162 531.265,-238.076"/>
</g>
<!-- Node9&#45;&gt;Node5 -->
<g id="edge30" class="edge"><title>Node9&#45;&gt;Node5</title>
<path fill="none" stroke="midnightblue" d="M561.098,-168.52C543.443,-154.299 524.607,-133.368 537.984,-116 554.075,-95.1097 623.368,-81.6235 670.599,-74.6754"/>
<polygon fill="midnightblue" stroke="midnightblue" points="559.442,-171.658 569.523,-174.917 563.675,-166.083 559.442,-171.658"/>
</g>
<!-- Node9&#45;&gt;Node10 -->
<g id="edge20" class="edge"><title>Node9&#45;&gt;Node10</title>
<path fill="none" stroke="midnightblue" d="M548.622,-171.216C520.951,-160.726 483.504,-146.53 458.586,-137.084"/>
<polygon fill="midnightblue" stroke="midnightblue" points="547.742,-174.625 558.334,-174.897 550.224,-168.08 547.742,-174.625"/>
</g>
<!-- Node9&#45;&gt;Node11 -->
<g id="edge26" class="edge"><title>Node9&#45;&gt;Node11</title>
<path fill="none" stroke="midnightblue" d="M623.409,-180.424C709.689,-170.148 918.99,-145.221 1018.16,-133.41"/>
<polygon fill="midnightblue" stroke="midnightblue" points="622.788,-176.973 613.272,-181.631 623.616,-183.924 622.788,-176.973"/>
</g>
<!-- Node12 -->
<g id="node28" class="node"><title>Node12</title>
<a xlink:href="grid_8cpp.html" target="_top" xlink:title="src/grid.cpp">
<polygon fill="white" stroke="black" points="546.984,-117 546.984,-137 612.984,-137 612.984,-117 546.984,-117"/>
<text text-anchor="middle" x="579.984" y="-124" font-family="FreeSans" font-size="10.00">src/grid.cpp</text>
</a>
</g>
<!-- Node9&#45;&gt;Node12 -->
<g id="edge32" class="edge"><title>Node9&#45;&gt;Node12</title>
<path fill="none" stroke="midnightblue" d="M583.251,-164.89C582.452,-155.62 581.537,-145.008 580.879,-137.378"/>
<polygon fill="midnightblue" stroke="midnightblue" points="579.767,-165.235 584.113,-174.897 586.741,-164.633 579.767,-165.235"/>
</g>
<!-- Node10&#45;&gt;Node4 -->
<g id="edge22" class="edge"><title>Node10&#45;&gt;Node4</title>
<path fill="none" stroke="midnightblue" d="M391.593,-113.764C359.431,-103.225 315.091,-88.6959 285.758,-79.0842"/>
<polygon fill="midnightblue" stroke="midnightblue" points="390.561,-117.109 401.153,-116.897 392.74,-110.457 390.561,-117.109"/>
</g>
<!-- Node10&#45;&gt;Node5 -->
<g id="edge24" class="edge"><title>Node10&#45;&gt;Node5</title>
<path fill="none" stroke="midnightblue" d="M491.147,-114.918C544.581,-104.005 622.081,-88.1775 670.719,-78.2444"/>
<polygon fill="midnightblue" stroke="midnightblue" points="490.226,-111.533 481.129,-116.963 491.627,-118.392 490.226,-111.533"/>
</g>
<!-- Node11&#45;&gt;Node5 -->
<g id="edge28" class="edge"><title>Node11&#45;&gt;Node5</title>
<path fill="none" stroke="midnightblue" d="M1008.11,-116.594C936.91,-104.994 823.574,-86.5287 761.063,-76.3442"/>
<polygon fill="midnightblue" stroke="midnightblue" points="1007.87,-120.1 1018.3,-118.254 1008.99,-113.191 1007.87,-120.1"/>
</g>
<!-- Node13&#45;&gt;Node5 -->
<g id="edge38" class="edge"><title>Node13&#45;&gt;Node5</title>
<path fill="none" stroke="midnightblue" d="M762.684,-166.509C771.387,-152.355 779.688,-132.523 771.984,-116 764.422,-99.7798 748.202,-87.1692 735.155,-79.1126"/>
<polygon fill="midnightblue" stroke="midnightblue" points="759.722,-164.64 757.07,-174.898 765.54,-168.533 759.722,-164.64"/>
</g>
<!-- Node13&#45;&gt;Node14 -->
<g id="edge40" class="edge"><title>Node13&#45;&gt;Node14</title>
<path fill="none" stroke="midnightblue" d="M738.226,-166.091C732.796,-156.549 726.419,-145.34 721.889,-137.378"/>
<polygon fill="midnightblue" stroke="midnightblue" points="735.249,-167.936 743.236,-174.897 741.333,-164.475 735.249,-167.936"/>
</g>
<!-- Node17&#45;&gt;Node5 -->
<g id="edge62" class="edge"><title>Node17&#45;&gt;Node5</title>
<path fill="none" stroke="midnightblue" d="M898.009,-223.397C903.933,-208.869 908.73,-189.061 899.984,-174 869.232,-121.043 800.648,-92.5559 756.452,-79.1096"/>
<polygon fill="midnightblue" stroke="midnightblue" points="894.64,-222.348 893.674,-232.899 901.009,-225.254 894.64,-222.348"/>
</g>
<!-- Node17&#45;&gt;Node10 -->
<g id="edge54" class="edge"><title>Node17&#45;&gt;Node10</title>
<path fill="none" stroke="midnightblue" d="M840.941,-238.826C760.74,-231.324 601.065,-214.597 547.984,-196 527.086,-188.678 473.819,-154.558 447.368,-137.2"/>
<polygon fill="midnightblue" stroke="midnightblue" points="840.966,-242.343 851.247,-239.78 841.612,-235.373 840.966,-242.343"/>
</g>
<!-- Node17&#45;&gt;Node18 -->
<g id="edge56" class="edge"><title>Node17&#45;&gt;Node18</title>
<path fill="none" stroke="midnightblue" d="M915.96,-228.114C935.369,-217.786 960.714,-204.3 977.85,-195.182"/>
<polygon fill="midnightblue" stroke="midnightblue" points="914.155,-225.11 906.971,-232.897 917.443,-231.289 914.155,-225.11"/>
</g>
<!-- Node19 -->
<g id="node51" class="node"><title>Node19</title>
<a xlink:href="quasi2d_8cpp.html" target="_top" xlink:title="src/quasi2d.cpp">
<polygon fill="white" stroke="black" points="808.484,-175 808.484,-195 891.484,-195 891.484,-175 808.484,-175"/>
<text text-anchor="middle" x="849.984" y="-182" font-family="FreeSans" font-size="10.00">src/quasi2d.cpp</text>
</a>
</g>
<!-- Node17&#45;&gt;Node19 -->
<g id="edge64" class="edge"><title>Node17&#45;&gt;Node19</title>
<path fill="none" stroke="midnightblue" d="M875.791,-224.389C869.497,-214.782 862.055,-203.423 856.783,-195.378"/>
<polygon fill="midnightblue" stroke="midnightblue" points="872.957,-226.451 881.365,-232.897 878.812,-222.614 872.957,-226.451"/>
</g>
<!-- Node18&#45;&gt;Node5 -->
<g id="edge58" class="edge"><title>Node18&#45;&gt;Node5</title>
<path fill="none" stroke="midnightblue" d="M984.782,-166.484C973.314,-150.602 954.698,-128.379 932.984,-116 904.185,-99.5818 816.127,-84.009 761.44,-75.5571"/>
<polygon fill="midnightblue" stroke="midnightblue" points="982.1,-168.759 990.676,-174.98 987.851,-164.769 982.1,-168.759"/>
</g>
<!-- Node18&#45;&gt;Node7 -->
<g id="edge60" class="edge"><title>Node18&#45;&gt;Node7</title>
<path fill="none" stroke="midnightblue" d="M936.447,-177.702C924.378,-176.369 911.787,-175.065 899.984,-174 662.191,-152.543 601.065,-166.259 363.984,-138 361.298,-137.68 358.552,-137.323 355.782,-136.939"/>
<polygon fill="midnightblue" stroke="midnightblue" points="936.106,-181.185 946.434,-178.823 936.887,-174.229 936.106,-181.185"/>
</g>
<!-- Node20&#45;&gt;Node5 -->
<g id="edge72" class="edge"><title>Node20&#45;&gt;Node5</title>
<path fill="none" stroke="midnightblue" d="M1241.94,-169.435C1216.64,-153.187 1174.25,-128.383 1133.98,-116 1065.14,-94.8273 854.228,-78.379 761.047,-71.9446"/>
<polygon fill="midnightblue" stroke="midnightblue" points="1240.17,-172.457 1250.45,-174.996 1244,-166.596 1240.17,-172.457"/>
</g>
<!-- Node20&#45;&gt;Node11 -->
<g id="edge70" class="edge"><title>Node20&#45;&gt;Node11</title>
<path fill="none" stroke="midnightblue" d="M1221.39,-171.9C1186.29,-161.351 1137.66,-146.737 1105.54,-137.084"/>
<polygon fill="midnightblue" stroke="midnightblue" points="1220.78,-175.371 1231.37,-174.897 1222.8,-168.667 1220.78,-175.371"/>
</g>
<!-- Node21 -->
<g id="node58" class="node"><title>Node21</title>
<a xlink:href="integrator_8cpp.html" target="_top" xlink:title="src/integrator.cpp">
<polygon fill="white" stroke="black" points="1219.48,-117 1219.48,-137 1310.48,-137 1310.48,-117 1219.48,-117"/>
<text text-anchor="middle" x="1264.98" y="-124" font-family="FreeSans" font-size="10.00">src/integrator.cpp</text>
</a>
</g>
<!-- Node20&#45;&gt;Node21 -->
<g id="edge74" class="edge"><title>Node20&#45;&gt;Node21</title>
<path fill="none" stroke="midnightblue" d="M1264.98,-164.89C1264.98,-155.62 1264.98,-145.008 1264.98,-137.378"/>
<polygon fill="midnightblue" stroke="midnightblue" points="1261.48,-164.897 1264.98,-174.897 1268.48,-164.897 1261.48,-164.897"/>
</g>
<!-- Node22&#45;&gt;Node18 -->
<g id="edge82" class="edge"><title>Node22&#45;&gt;Node18</title>
<path fill="none" stroke="midnightblue" d="M1017.05,-223.793C1012.15,-214.315 1006.43,-203.257 1002.35,-195.378"/>
<polygon fill="midnightblue" stroke="midnightblue" points="1014.06,-225.623 1021.76,-232.897 1020.27,-222.407 1014.06,-225.623"/>
</g>
<!-- Node23 -->
<g id="node65" class="node"><title>Node23</title>
<a xlink:href="qssintegrator_8cpp.html" target="_top" xlink:title="src/qssintegrator.cpp">
<polygon fill="white" stroke="black" points="1064.48,-175 1064.48,-195 1169.48,-195 1169.48,-175 1064.48,-175"/>
<text text-anchor="middle" x="1116.98" y="-182" font-family="FreeSans" font-size="10.00">src/qssintegrator.cpp</text>
</a>
</g>
<!-- Node22&#45;&gt;Node23 -->
<g id="edge84" class="edge"><title>Node22&#45;&gt;Node23</title>
<path fill="none" stroke="midnightblue" d="M1051.41,-227.262C1067.25,-217.054 1087.42,-204.051 1101.19,-195.182"/>
<polygon fill="midnightblue" stroke="midnightblue" points="1049.17,-224.538 1042.66,-232.897 1052.96,-230.422 1049.17,-224.538"/>
</g>
<!-- Node24&#45;&gt;Node6 -->
<g id="edge88" class="edge"><title>Node24&#45;&gt;Node6</title>
<path fill="none" stroke="midnightblue" d="M135.35,-236.239C85.2034,-229.319 20.1797,-216.613 3.98426,-196 -2.0566,-188.312 0.128928,-182.986 3.98426,-174 53.0751,-59.5841 215.864,-25.3296 299.467,-15.19"/>
<polygon fill="midnightblue" stroke="midnightblue" points="135.107,-239.738 145.482,-237.588 136.031,-232.799 135.107,-239.738"/>
</g>
<!-- Node24&#45;&gt;Node7 -->
<g id="edge92" class="edge"><title>Node24&#45;&gt;Node7</title>
<path fill="none" stroke="midnightblue" d="M174.132,-226.565C157.24,-212.372 139.212,-191.458 151.984,-174 163.486,-158.28 209.157,-145.332 246.759,-137.035"/>
<polygon fill="midnightblue" stroke="midnightblue" points="172.18,-229.484 182.193,-232.948 176.526,-223.996 172.18,-229.484"/>
</g>
<!-- Node24&#45;&gt;Node16 -->
<g id="edge90" class="edge"><title>Node24&#45;&gt;Node16</title>
<path fill="none" stroke="midnightblue" d="M203.815,-223.192C207.036,-213.851 210.746,-203.091 213.406,-195.378"/>
<polygon fill="midnightblue" stroke="midnightblue" points="200.419,-222.302 200.468,-232.897 207.037,-224.584 200.419,-222.302"/>
</g>
</g>
</svg>
