<?xml version="1.0" encoding="UTF-8" standalone="no"?>
<!DOCTYPE svg PUBLIC "-//W3C//DTD SVG 1.1//EN"
 "http://www.w3.org/Graphics/SVG/1.1/DTD/svg11.dtd">
<!-- Generated by graphviz version 2.38.0 (20140413.2041)
 -->
<!-- Title: src/mathUtils.cpp Pages: 1 -->
<svg width="1743pt" height="196pt"
 viewBox="0.00 0.00 1742.50 196.00" xmlns="http://www.w3.org/2000/svg" xmlns:xlink="http://www.w3.org/1999/xlink">
<g id="graph0" class="graph" transform="scale(1 1) rotate(0) translate(4 192)">
<title>src/mathUtils.cpp</title>
<polygon fill="white" stroke="none" points="-4,4 -4,-192 1738.5,-192 1738.5,4 -4,4"/>
<!-- Node1 -->
<g id="node1" class="node"><title>Node1</title>
<polygon fill="#bfbfbf" stroke="black" points="812,-168.5 812,-187.5 903,-187.5 903,-168.5 812,-168.5"/>
<text text-anchor="middle" x="857.5" y="-175.5" font-family="FreeSans" font-size="10.00">src/mathUtils.cpp</text>
</g>
<!-- Node2 -->
<g id="node2" class="node"><title>Node2</title>
<g id="a_node2"><a xlink:href="mathUtils_8h.html" target="_top" xlink:title="mathUtils.h">
<polygon fill="white" stroke="black" points="260,-112.5 260,-131.5 325,-131.5 325,-112.5 260,-112.5"/>
<text text-anchor="middle" x="292.5" y="-119.5" font-family="FreeSans" font-size="10.00">mathUtils.h</text>
</a>
</g>
</g>
<!-- Node1&#45;&gt;Node2 -->
<g id="edge1" class="edge"><title>Node1&#45;&gt;Node2</title>
<path fill="none" stroke="midnightblue" d="M811.742,-172.627C704.687,-162.395 439.12,-137.013 335.179,-127.079"/>
<polygon fill="midnightblue" stroke="midnightblue" points="335.342,-123.579 325.055,-126.111 334.676,-130.547 335.342,-123.579"/>
</g>
<!-- Node14 -->
<g id="node14" class="node"><title>Node14</title>
<g id="a_node14"><a xlink:href="sundialsUtils_8h.html" target="_top" xlink:title="sundialsUtils.h">
<polygon fill="white" stroke="black" points="819,-112.5 819,-131.5 896,-131.5 896,-112.5 819,-112.5"/>
<text text-anchor="middle" x="857.5" y="-119.5" font-family="FreeSans" font-size="10.00">sundialsUtils.h</text>
</a>
</g>
</g>
<!-- Node1&#45;&gt;Node14 -->
<g id="edge15" class="edge"><title>Node1&#45;&gt;Node14</title>
<path fill="none" stroke="midnightblue" d="M857.5,-168.083C857.5,-161.006 857.5,-150.861 857.5,-141.986"/>
<polygon fill="midnightblue" stroke="midnightblue" points="861,-141.751 857.5,-131.751 854,-141.751 861,-141.751"/>
</g>
<!-- Node26 -->
<g id="node26" class="node"><title>Node26</title>
<polygon fill="white" stroke="#bfbfbf" points="914,-112.5 914,-131.5 953,-131.5 953,-112.5 914,-112.5"/>
<text text-anchor="middle" x="933.5" y="-119.5" font-family="FreeSans" font-size="10.00">limits</text>
</g>
<!-- Node1&#45;&gt;Node26 -->
<g id="edge29" class="edge"><title>Node1&#45;&gt;Node26</title>
<path fill="none" stroke="midnightblue" d="M869.711,-168.324C881.276,-160.107 898.875,-147.602 912.661,-137.807"/>
<polygon fill="midnightblue" stroke="midnightblue" points="914.943,-140.479 921.067,-131.834 910.888,-134.773 914.943,-140.479"/>
</g>
<!-- Node3 -->
<g id="node3" class="node"><title>Node3</title>
<polygon fill="white" stroke="#bfbfbf" points="437,-56.5 437,-75.5 480,-75.5 480,-56.5 437,-56.5"/>
<text text-anchor="middle" x="458.5" y="-63.5" font-family="FreeSans" font-size="10.00">vector</text>
</g>
<!-- Node2&#45;&gt;Node3 -->
<g id="edge2" class="edge"><title>Node2&#45;&gt;Node3</title>
<path fill="none" stroke="midnightblue" d="M318.803,-112.444C348.253,-102.863 395.945,-87.3492 427.266,-77.1604"/>
<polygon fill="midnightblue" stroke="midnightblue" points="428.39,-80.4756 436.816,-74.0537 426.224,-73.8189 428.39,-80.4756"/>
</g>
<!-- Node4 -->
<g id="node4" class="node"><title>Node4</title>
<polygon fill="white" stroke="#bfbfbf" points="89.5,-56.5 89.5,-75.5 133.5,-75.5 133.5,-56.5 89.5,-56.5"/>
<text text-anchor="middle" x="111.5" y="-63.5" font-family="FreeSans" font-size="10.00">cmath</text>
</g>
<!-- Node2&#45;&gt;Node4 -->
<g id="edge3" class="edge"><title>Node2&#45;&gt;Node4</title>
<path fill="none" stroke="midnightblue" d="M263.82,-112.444C231.118,-102.687 177.788,-86.7764 143.69,-76.6036"/>
<polygon fill="midnightblue" stroke="midnightblue" points="144.353,-73.1489 133.769,-73.6439 142.351,-79.8568 144.353,-73.1489"/>
</g>
<!-- Node5 -->
<g id="node5" class="node"><title>Node5</title>
<polygon fill="white" stroke="#bfbfbf" points="448,-0.5 448,-19.5 501,-19.5 501,-0.5 448,-0.5"/>
<text text-anchor="middle" x="474.5" y="-7.5" font-family="FreeSans" font-size="10.00">iostream</text>
</g>
<!-- Node2&#45;&gt;Node5 -->
<g id="edge4" class="edge"><title>Node2&#45;&gt;Node5</title>
<path fill="none" stroke="midnightblue" d="M314.382,-112.463C334.509,-104.24 364.873,-90.8829 389.5,-76 414.277,-61.0263 440.386,-40.1964 457.024,-26.1886"/>
<polygon fill="midnightblue" stroke="midnightblue" points="459.467,-28.705 464.804,-19.5525 454.925,-23.3791 459.467,-28.705"/>
</g>
<!-- Node6 -->
<g id="node6" class="node"><title>Node6</title>
<polygon fill="white" stroke="#bfbfbf" points="189.5,-56.5 189.5,-75.5 239.5,-75.5 239.5,-56.5 189.5,-56.5"/>
<text text-anchor="middle" x="214.5" y="-63.5" font-family="FreeSans" font-size="10.00">sstream</text>
</g>
<!-- Node2&#45;&gt;Node6 -->
<g id="edge5" class="edge"><title>Node2&#45;&gt;Node6</title>
<path fill="none" stroke="midnightblue" d="M279.968,-112.324C267.914,-103.979 249.473,-91.2122 235.231,-81.3524"/>
<polygon fill="midnightblue" stroke="midnightblue" points="237.215,-78.469 227.001,-75.6545 233.231,-84.2243 237.215,-78.469"/>
</g>
<!-- Node7 -->
<g id="node7" class="node"><title>Node7</title>
<polygon fill="white" stroke="#bfbfbf" points="139.5,-0.5 139.5,-19.5 179.5,-19.5 179.5,-0.5 139.5,-0.5"/>
<text text-anchor="middle" x="159.5" y="-7.5" font-family="FreeSans" font-size="10.00">string</text>
</g>
<!-- Node2&#45;&gt;Node7 -->
<g id="edge6" class="edge"><title>Node2&#45;&gt;Node7</title>
<path fill="none" stroke="midnightblue" d="M259.794,-115.607C234.862,-109.863 201.368,-98.3728 180.5,-76 168.756,-63.4092 163.578,-44.1928 161.296,-29.9159"/>
<polygon fill="midnightblue" stroke="midnightblue" points="164.738,-29.231 160.017,-19.7461 157.793,-30.1047 164.738,-29.231"/>
</g>
<!-- Node8 -->
<g id="node8" class="node"><title>Node8</title>
<polygon fill="white" stroke="#bfbfbf" points="345,-56.5 345,-75.5 380,-75.5 380,-56.5 345,-56.5"/>
<text text-anchor="middle" x="362.5" y="-63.5" font-family="FreeSans" font-size="10.00">map</text>
</g>
<!-- Node2&#45;&gt;Node8 -->
<g id="edge7" class="edge"><title>Node2&#45;&gt;Node8</title>
<path fill="none" stroke="midnightblue" d="M303.747,-112.324C314.297,-104.185 330.301,-91.8395 342.942,-82.0874"/>
<polygon fill="midnightblue" stroke="midnightblue" points="345.269,-84.7132 351.049,-75.8339 340.993,-79.1707 345.269,-84.7132"/>
</g>
<!-- Node9 -->
<g id="node9" class="node"><title>Node9</title>
<g id="a_node9"><a xlink:href="debugUtils_8h.html" target="_top" xlink:title="debugUtils.h">
<polygon fill="white" stroke="black" points="258,-56.5 258,-75.5 327,-75.5 327,-56.5 258,-56.5"/>
<text text-anchor="middle" x="292.5" y="-63.5" font-family="FreeSans" font-size="10.00">debugUtils.h</text>
</a>
</g>
</g>
<!-- Node2&#45;&gt;Node9 -->
<g id="edge8" class="edge"><title>Node2&#45;&gt;Node9</title>
<path fill="none" stroke="midnightblue" d="M292.5,-112.083C292.5,-105.006 292.5,-94.8611 292.5,-85.9865"/>
<polygon fill="midnightblue" stroke="midnightblue" points="296,-85.751 292.5,-75.7511 289,-85.7511 296,-85.751"/>
</g>
<!-- Node13 -->
<g id="node13" class="node"><title>Node13</title>
<polygon fill="white" stroke="#bfbfbf" points="0,-56.5 0,-75.5 71,-75.5 71,-56.5 0,-56.5"/>
<text text-anchor="middle" x="35.5" y="-63.5" font-family="FreeSans" font-size="10.00">Eigen/Dense</text>
</g>
<!-- Node2&#45;&gt;Node13 -->
<g id="edge14" class="edge"><title>Node2&#45;&gt;Node13</title>
<path fill="none" stroke="midnightblue" d="M259.951,-114.161C214.618,-104.636 132.271,-87.3332 80.9163,-76.5427"/>
<polygon fill="midnightblue" stroke="midnightblue" points="81.5847,-73.1068 71.0787,-74.4757 80.1452,-79.9572 81.5847,-73.1068"/>
</g>
<!-- Node9&#45;&gt;Node5 -->
<g id="edge10" class="edge"><title>Node9&#45;&gt;Node5</title>
<path fill="none" stroke="midnightblue" d="M321.338,-56.4435C352.994,-47.0511 403.874,-31.9549 438.217,-21.7654"/>
<polygon fill="midnightblue" stroke="midnightblue" points="439.278,-25.1015 447.869,-18.9015 437.286,-18.3906 439.278,-25.1015"/>
</g>
<!-- Node9&#45;&gt;Node7 -->
<g id="edge9" class="edge"><title>Node9&#45;&gt;Node7</title>
<path fill="none" stroke="midnightblue" d="M271.426,-56.4435C249.182,-47.4121 213.948,-33.1067 188.96,-22.9612"/>
<polygon fill="midnightblue" stroke="midnightblue" points="190.187,-19.682 179.605,-19.1629 187.554,-26.1678 190.187,-19.682"/>
</g>
<!-- Node10 -->
<g id="node10" class="node"><title>Node10</title>
<polygon fill="white" stroke="#bfbfbf" points="198,-0.5 198,-19.5 247,-19.5 247,-0.5 198,-0.5"/>
<text text-anchor="middle" x="222.5" y="-7.5" font-family="FreeSans" font-size="10.00">fstream</text>
</g>
<!-- Node9&#45;&gt;Node10 -->
<g id="edge11" class="edge"><title>Node9&#45;&gt;Node10</title>
<path fill="none" stroke="midnightblue" d="M281.253,-56.324C270.703,-48.1849 254.699,-35.8395 242.058,-26.0874"/>
<polygon fill="midnightblue" stroke="midnightblue" points="244.007,-23.1707 233.951,-19.8339 239.731,-28.7132 244.007,-23.1707"/>
</g>
<!-- Node11 -->
<g id="node11" class="node"><title>Node11</title>
<polygon fill="white" stroke="#bfbfbf" points="265.5,-0.5 265.5,-19.5 323.5,-19.5 323.5,-0.5 265.5,-0.5"/>
<text text-anchor="middle" x="294.5" y="-7.5" font-family="FreeSans" font-size="10.00">exception</text>
</g>
<!-- Node9&#45;&gt;Node11 -->
<g id="edge12" class="edge"><title>Node9&#45;&gt;Node11</title>
<path fill="none" stroke="midnightblue" d="M292.83,-56.083C293.092,-49.0059 293.468,-38.8611 293.797,-29.9865"/>
<polygon fill="midnightblue" stroke="midnightblue" points="297.303,-29.8738 294.176,-19.7511 290.308,-29.6147 297.303,-29.8738"/>
</g>
<!-- Node12 -->
<g id="node12" class="node"><title>Node12</title>
<polygon fill="white" stroke="#bfbfbf" points="341,-0.5 341,-19.5 430,-19.5 430,-0.5 341,-0.5"/>
<text text-anchor="middle" x="385.5" y="-7.5" font-family="FreeSans" font-size="10.00">boost/format.hpp</text>
</g>
<!-- Node9&#45;&gt;Node12 -->
<g id="edge13" class="edge"><title>Node9&#45;&gt;Node12</title>
<path fill="none" stroke="midnightblue" d="M307.442,-56.324C322.085,-47.8215 344.634,-34.7288 361.738,-24.7975"/>
<polygon fill="midnightblue" stroke="midnightblue" points="363.705,-27.7027 370.595,-19.6545 360.19,-21.6491 363.705,-27.7027"/>
</g>
<!-- Node14&#45;&gt;Node3 -->
<g id="edge26" class="edge"><title>Node14&#45;&gt;Node3</title>
<path fill="none" stroke="midnightblue" d="M818.76,-118.324C753.099,-113.343 615.695,-100.997 490.234,-75.817"/>
<polygon fill="midnightblue" stroke="midnightblue" points="490.567,-72.3128 480.069,-73.7429 489.168,-79.1715 490.567,-72.3128"/>
</g>
<!-- Node14&#45;&gt;Node5 -->
<g id="edge25" class="edge"><title>Node14&#45;&gt;Node5</title>
<path fill="none" stroke="midnightblue" d="M851.917,-112.049C842.342,-97.5558 821.307,-69.2439 795.5,-56 746.468,-30.8373 584.556,-17.8364 511.197,-13.1171"/>
<polygon fill="midnightblue" stroke="midnightblue" points="511.24,-9.61303 501.04,-12.4805 510.802,-16.5993 511.24,-9.61303"/>
</g>
<!-- Node15 -->
<g id="node15" class="node"><title>Node15</title>
<polygon fill="white" stroke="#bfbfbf" points="842.5,-56.5 842.5,-75.5 960.5,-75.5 960.5,-56.5 842.5,-56.5"/>
<text text-anchor="middle" x="901.5" y="-63.5" font-family="FreeSans" font-size="10.00">nvector/nvector_serial.h</text>
</g>
<!-- Node14&#45;&gt;Node15 -->
<g id="edge16" class="edge"><title>Node14&#45;&gt;Node15</title>
<path fill="none" stroke="midnightblue" d="M864.766,-112.083C871.045,-104.377 880.288,-93.0333 887.931,-83.6531"/>
<polygon fill="midnightblue" stroke="midnightblue" points="890.766,-85.7143 894.369,-75.7511 885.339,-81.2926 890.766,-85.7143"/>
</g>
<!-- Node16 -->
<g id="node16" class="node"><title>Node16</title>
<polygon fill="white" stroke="#bfbfbf" points="979,-56.5 979,-75.5 1106,-75.5 1106,-56.5 979,-56.5"/>
<text text-anchor="middle" x="1042.5" y="-63.5" font-family="FreeSans" font-size="10.00">sundials/sundials_dense.h</text>
</g>
<!-- Node14&#45;&gt;Node16 -->
<g id="edge17" class="edge"><title>Node14&#45;&gt;Node16</title>
<path fill="none" stroke="midnightblue" d="M886.814,-112.444C918.342,-103.241 968.631,-88.5617 1003.49,-78.3879"/>
<polygon fill="midnightblue" stroke="midnightblue" points="1004.7,-81.6783 1013.32,-75.5164 1002.74,-74.9587 1004.7,-81.6783"/>
</g>
<!-- Node17 -->
<g id="node17" class="node"><title>Node17</title>
<polygon fill="white" stroke="#bfbfbf" points="1124.5,-56.5 1124.5,-75.5 1246.5,-75.5 1246.5,-56.5 1124.5,-56.5"/>
<text text-anchor="middle" x="1185.5" y="-63.5" font-family="FreeSans" font-size="10.00">sundials/sundials_band.h</text>
</g>
<!-- Node14&#45;&gt;Node17 -->
<g id="edge18" class="edge"><title>Node14&#45;&gt;Node17</title>
<path fill="none" stroke="midnightblue" d="M896.257,-113.644C899.382,-113.078 902.493,-112.523 905.5,-112 978.713,-99.2553 1062.93,-85.8959 1119.72,-77.0771"/>
<polygon fill="midnightblue" stroke="midnightblue" points="1120.3,-80.5292 1129.65,-75.5388 1119.23,-73.6118 1120.3,-80.5292"/>
</g>
<!-- Node18 -->
<g id="node18" class="node"><title>Node18</title>
<polygon fill="white" stroke="#bfbfbf" points="1264.5,-56.5 1264.5,-75.5 1388.5,-75.5 1388.5,-56.5 1264.5,-56.5"/>
<text text-anchor="middle" x="1326.5" y="-63.5" font-family="FreeSans" font-size="10.00">sundials/sundials_types.h</text>
</g>
<!-- Node14&#45;&gt;Node18 -->
<g id="edge19" class="edge"><title>Node14&#45;&gt;Node18</title>
<path fill="none" stroke="midnightblue" d="M896.227,-113.454C899.359,-112.93 902.479,-112.438 905.5,-112 1057.09,-90.0315 1098.46,-93.6701 1254.23,-76.1161"/>
<polygon fill="midnightblue" stroke="midnightblue" points="1254.63,-79.5936 1264.17,-74.9852 1253.84,-72.6385 1254.63,-79.5936"/>
</g>
<!-- Node19 -->
<g id="node19" class="node"><title>Node19</title>
<polygon fill="white" stroke="#bfbfbf" points="1406.5,-56.5 1406.5,-75.5 1484.5,-75.5 1484.5,-56.5 1406.5,-56.5"/>
<text text-anchor="middle" x="1445.5" y="-63.5" font-family="FreeSans" font-size="10.00">cvode/cvode.h</text>
</g>
<!-- Node14&#45;&gt;Node19 -->
<g id="edge20" class="edge"><title>Node14&#45;&gt;Node19</title>
<path fill="none" stroke="midnightblue" d="M896.213,-113.355C899.348,-112.854 902.473,-112.393 905.5,-112 1119.63,-84.1803 1178.31,-103.638 1396.11,-76.0345"/>
<polygon fill="midnightblue" stroke="midnightblue" points="1396.79,-79.4753 1406.26,-74.728 1395.9,-72.5326 1396.79,-79.4753"/>
</g>
<!-- Node20 -->
<g id="node20" class="node"><title>Node20</title>
<polygon fill="white" stroke="#bfbfbf" points="1503,-56.5 1503,-75.5 1612,-75.5 1612,-56.5 1503,-56.5"/>
<text text-anchor="middle" x="1557.5" y="-63.5" font-family="FreeSans" font-size="10.00">cvode/cvode_dense.h</text>
</g>
<!-- Node14&#45;&gt;Node20 -->
<g id="edge21" class="edge"><title>Node14&#45;&gt;Node20</title>
<path fill="none" stroke="midnightblue" d="M896.208,-113.315C899.344,-112.823 902.471,-112.375 905.5,-112 1162.04,-80.2211 1231.25,-101.689 1492.55,-76.006"/>
<polygon fill="midnightblue" stroke="midnightblue" points="1493.12,-79.4664 1502.72,-74.9916 1492.42,-72.5009 1493.12,-79.4664"/>
</g>
<!-- Node21 -->
<g id="node21" class="node"><title>Node21</title>
<polygon fill="white" stroke="#bfbfbf" points="1630.5,-56.5 1630.5,-75.5 1734.5,-75.5 1734.5,-56.5 1630.5,-56.5"/>
<text text-anchor="middle" x="1682.5" y="-63.5" font-family="FreeSans" font-size="10.00">cvode/cvode_band.h</text>
</g>
<!-- Node14&#45;&gt;Node21 -->
<g id="edge22" class="edge"><title>Node14&#45;&gt;Node21</title>
<path fill="none" stroke="midnightblue" d="M896.204,-113.279C899.341,-112.795 902.469,-112.359 905.5,-112 1218.52,-74.9574 1302.62,-106.594 1619.88,-76.0564"/>
<polygon fill="midnightblue" stroke="midnightblue" points="1620.68,-79.4945 1630.3,-75.0394 1620,-72.5276 1620.68,-79.4945"/>
</g>
<!-- Node22 -->
<g id="node22" class="node"><title>Node22</title>
<polygon fill="white" stroke="#bfbfbf" points="498,-56.5 498,-75.5 551,-75.5 551,-56.5 498,-56.5"/>
<text text-anchor="middle" x="524.5" y="-63.5" font-family="FreeSans" font-size="10.00">ida/ida.h</text>
</g>
<!-- Node14&#45;&gt;Node22 -->
<g id="edge23" class="edge"><title>Node14&#45;&gt;Node22</title>
<path fill="none" stroke="midnightblue" d="M818.703,-116.423C763.518,-109.633 659.024,-95.7453 561.237,-76.1953"/>
<polygon fill="midnightblue" stroke="midnightblue" points="561.684,-72.7148 551.188,-74.1611 560.295,-79.5756 561.684,-72.7148"/>
</g>
<!-- Node23 -->
<g id="node23" class="node"><title>Node23</title>
<polygon fill="white" stroke="#bfbfbf" points="568.5,-56.5 568.5,-75.5 656.5,-75.5 656.5,-56.5 568.5,-56.5"/>
<text text-anchor="middle" x="612.5" y="-63.5" font-family="FreeSans" font-size="10.00">ida/ida_spbcgs.h</text>
</g>
<!-- Node14&#45;&gt;Node23 -->
<g id="edge24" class="edge"><title>Node14&#45;&gt;Node23</title>
<path fill="none" stroke="midnightblue" d="M818.949,-112.503C776.264,-103.095 707.376,-87.9115 661.045,-77.6998"/>
<polygon fill="midnightblue" stroke="midnightblue" points="661.749,-74.271 651.23,-75.5364 660.242,-81.1069 661.749,-74.271"/>
</g>
<!-- Node24 -->
<g id="node24" class="node"><title>Node24</title>
<polygon fill="white" stroke="#bfbfbf" points="675,-56.5 675,-75.5 718,-75.5 718,-56.5 675,-56.5"/>
<text text-anchor="middle" x="696.5" y="-63.5" font-family="FreeSans" font-size="10.00">time.h</text>
</g>
<!-- Node14&#45;&gt;Node24 -->
<g id="edge27" class="edge"><title>Node14&#45;&gt;Node24</title>
<path fill="none" stroke="midnightblue" d="M831.989,-112.444C803.789,-102.985 758.342,-87.7421 727.958,-77.551"/>
<polygon fill="midnightblue" stroke="midnightblue" points="728.871,-74.1659 718.277,-74.3042 726.645,-80.8025 728.871,-74.1659"/>
</g>
<!-- Node25 -->
<g id="node25" class="node"><title>Node25</title>
<g id="a_node25"><a xlink:href="config_8h.html" target="_top" xlink:title="config.h">
<polygon fill="white" stroke="black" points="736.5,-56.5 736.5,-75.5 786.5,-75.5 786.5,-56.5 736.5,-56.5"/>
<text text-anchor="middle" x="761.5" y="-63.5" font-family="FreeSans" font-size="10.00">config.h</text>
</a>
</g>
</g>
<!-- Node14&#45;&gt;Node25 -->
<g id="edge28" class="edge"><title>Node14&#45;&gt;Node25</title>
<path fill="none" stroke="midnightblue" d="M842.076,-112.324C826.96,-103.822 803.685,-90.7288 786.029,-80.7975"/>
<polygon fill="midnightblue" stroke="midnightblue" points="787.317,-77.5066 776.886,-75.6545 783.886,-83.6077 787.317,-77.5066"/>
</g>
</g>
</svg>
