<?xml version="1.0" encoding="UTF-8" standalone="no"?>
<!DOCTYPE svg PUBLIC "-//W3C//DTD SVG 1.1//EN"
 "http://www.w3.org/Graphics/SVG/1.1/DTD/svg11.dtd">
<!-- Generated by graphviz version 2.38.0 (20140413.2041)
 -->
<!-- Title: src/mathUtils.h Pages: 1 -->
<svg width="1535pt" height="308pt"
 viewBox="0.00 0.00 1535.00 308.00" xmlns="http://www.w3.org/2000/svg" xmlns:xlink="http://www.w3.org/1999/xlink">
<g id="graph0" class="graph" transform="scale(1 1) rotate(0) translate(4 304)">
<title>src/mathUtils.h</title>
<polygon fill="white" stroke="none" points="-4,4 -4,-304 1531,-304 1531,4 -4,4"/>
<!-- Node1 -->
<g id="node1" class="node"><title>Node1</title>
<polygon fill="#bfbfbf" stroke="black" points="662,-280.5 662,-299.5 742,-299.5 742,-280.5 662,-280.5"/>
<text text-anchor="middle" x="702" y="-287.5" font-family="FreeSans" font-size="10.00">src/mathUtils.h</text>
</g>
<!-- Node2 -->
<g id="node2" class="node"><title>Node2</title>
<g id="a_node2"><a xlink:href="callback_8h.html" target="_top" xlink:title="src/callback.h">
<polygon fill="white" stroke="black" points="104,-224.5 104,-243.5 180,-243.5 180,-224.5 104,-224.5"/>
<text text-anchor="middle" x="142" y="-231.5" font-family="FreeSans" font-size="10.00">src/callback.h</text>
</a>
</g>
</g>
<!-- Node1&#45;&gt;Node2 -->
<g id="edge1" class="edge"><title>Node1&#45;&gt;Node2</title>
<path fill="none" stroke="midnightblue" d="M651.559,-284.618C563.931,-276.93 377.923,-260.278 221,-244 207.682,-242.618 193.114,-240.992 180.156,-239.504"/>
<polygon fill="midnightblue" stroke="midnightblue" points="651.481,-288.124 661.749,-285.51 652.092,-281.151 651.481,-288.124"/>
</g>
<!-- Node4 -->
<g id="node4" class="node"><title>Node4</title>
<g id="a_node4"><a xlink:href="sourceSystem_8h.html" target="_top" xlink:title="src/sourceSystem.h">
<polygon fill="white" stroke="black" points="417.5,-168.5 417.5,-187.5 518.5,-187.5 518.5,-168.5 417.5,-168.5"/>
<text text-anchor="middle" x="468" y="-175.5" font-family="FreeSans" font-size="10.00">src/sourceSystem.h</text>
</a>
</g>
</g>
<!-- Node1&#45;&gt;Node4 -->
<g id="edge48" class="edge"><title>Node1&#45;&gt;Node4</title>
<path fill="none" stroke="midnightblue" d="M651.755,-280.855C619.078,-274.146 576.323,-262.637 542,-244 514.05,-228.823 487.651,-201.387 475.303,-187.518"/>
<polygon fill="midnightblue" stroke="midnightblue" points="651.499,-284.371 661.986,-282.867 652.85,-277.503 651.499,-284.371"/>
</g>
<!-- Node8 -->
<g id="node8" class="node"><title>Node8</title>
<g id="a_node8"><a xlink:href="chemistry0d_8h.html" target="_top" xlink:title="src/chemistry0d.h">
<polygon fill="white" stroke="black" points="1313,-168.5 1313,-187.5 1405,-187.5 1405,-168.5 1313,-168.5"/>
<text text-anchor="middle" x="1359" y="-175.5" font-family="FreeSans" font-size="10.00">src/chemistry0d.h</text>
</a>
</g>
</g>
<!-- Node1&#45;&gt;Node8 -->
<g id="edge8" class="edge"><title>Node1&#45;&gt;Node8</title>
<path fill="none" stroke="midnightblue" d="M752.073,-288.061C836.001,-285.589 1009.94,-276.609 1153,-244 1178.36,-238.219 1183.3,-232.162 1208,-224 1249.43,-210.308 1297.85,-196.209 1328.47,-187.525"/>
<polygon fill="midnightblue" stroke="midnightblue" points="751.949,-284.563 742.05,-288.338 752.143,-291.56 751.949,-284.563"/>
</g>
<!-- Node11 -->
<g id="node11" class="node"><title>Node11</title>
<g id="a_node11"><a xlink:href="readConfig_8h.html" target="_top" xlink:title="src/readConfig.h">
<polygon fill="white" stroke="black" points="823,-224.5 823,-243.5 909,-243.5 909,-224.5 823,-224.5"/>
<text text-anchor="middle" x="866" y="-231.5" font-family="FreeSans" font-size="10.00">src/readConfig.h</text>
</a>
</g>
</g>
<!-- Node1&#45;&gt;Node11 -->
<g id="edge13" class="edge"><title>Node1&#45;&gt;Node11</title>
<path fill="none" stroke="midnightblue" d="M737.52,-277.304C768.422,-267.129 812.473,-252.625 840.135,-243.516"/>
<polygon fill="midnightblue" stroke="midnightblue" points="736.39,-273.992 727.986,-280.444 738.579,-280.64 736.39,-273.992"/>
</g>
<!-- Node13 -->
<g id="node13" class="node"><title>Node13</title>
<g id="a_node13"><a xlink:href="convectionSystem_8h.html" target="_top" xlink:title="src/convectionSystem.h">
<polygon fill="white" stroke="black" points="912.5,-112.5 912.5,-131.5 1031.5,-131.5 1031.5,-112.5 912.5,-112.5"/>
<text text-anchor="middle" x="972" y="-119.5" font-family="FreeSans" font-size="10.00">src/convectionSystem.h</text>
</a>
</g>
</g>
<!-- Node1&#45;&gt;Node13 -->
<g id="edge31" class="edge"><title>Node1&#45;&gt;Node13</title>
<path fill="none" stroke="midnightblue" d="M752.378,-283.793C848.668,-272.662 1052.87,-242.979 1093,-188 1114.72,-158.242 1066.15,-140.728 1024.22,-131.518"/>
<polygon fill="midnightblue" stroke="midnightblue" points="751.837,-280.332 742.295,-284.936 752.626,-287.287 751.837,-280.332"/>
</g>
<!-- Node14 -->
<g id="node14" class="node"><title>Node14</title>
<g id="a_node14"><a xlink:href="diffusionSystem_8h.html" target="_top" xlink:title="src/diffusionSystem.h">
<polygon fill="white" stroke="red" points="378.5,-112.5 378.5,-131.5 485.5,-131.5 485.5,-112.5 378.5,-112.5"/>
<text text-anchor="middle" x="432" y="-119.5" font-family="FreeSans" font-size="10.00">src/diffusionSystem.h</text>
</a>
</g>
</g>
<!-- Node1&#45;&gt;Node14 -->
<g id="edge42" class="edge"><title>Node1&#45;&gt;Node14</title>
<path fill="none" stroke="midnightblue" d="M651.454,-286.298C592.619,-281.989 493.158,-271.071 412,-244 361.829,-227.265 334.211,-233.352 307,-188 287.746,-155.909 336.155,-138.959 378.227,-130.515"/>
<polygon fill="midnightblue" stroke="midnightblue" points="651.38,-289.802 661.599,-287.005 651.867,-282.818 651.38,-289.802"/>
</g>
<!-- Node16 -->
<g id="node16" class="node"><title>Node16</title>
<g id="a_node16"><a xlink:href="splitSolver_8h.html" target="_top" xlink:title="src/splitSolver.h">
<polygon fill="white" stroke="black" points="660,-168.5 660,-187.5 744,-187.5 744,-168.5 660,-168.5"/>
<text text-anchor="middle" x="702" y="-175.5" font-family="FreeSans" font-size="10.00">src/splitSolver.h</text>
</a>
</g>
</g>
<!-- Node1&#45;&gt;Node16 -->
<g id="edge47" class="edge"><title>Node1&#45;&gt;Node16</title>
<path fill="none" stroke="midnightblue" d="M702,-270.348C702,-246.254 702,-205.308 702,-187.591"/>
<polygon fill="midnightblue" stroke="midnightblue" points="698.5,-270.368 702,-280.368 705.5,-270.369 698.5,-270.368"/>
</g>
<!-- Node20 -->
<g id="node20" class="node"><title>Node20</title>
<g id="a_node20"><a xlink:href="quasi2d_8h.html" target="_top" xlink:title="src/quasi2d.h">
<polygon fill="white" stroke="black" points="421.5,-224.5 421.5,-243.5 494.5,-243.5 494.5,-224.5 421.5,-224.5"/>
<text text-anchor="middle" x="458" y="-231.5" font-family="FreeSans" font-size="10.00">src/quasi2d.h</text>
</a>
</g>
</g>
<!-- Node1&#45;&gt;Node20 -->
<g id="edge32" class="edge"><title>Node1&#45;&gt;Node20</title>
<path fill="none" stroke="midnightblue" d="M653.449,-278.255C606.758,-267.922 537.204,-252.529 494.884,-243.163"/>
<polygon fill="midnightblue" stroke="midnightblue" points="652.817,-281.7 663.337,-280.444 654.33,-274.865 652.817,-281.7"/>
</g>
<!-- Node22 -->
<g id="node22" class="node"><title>Node22</title>
<g id="a_node22"><a xlink:href="scalarFunction_8h.html" target="_top" xlink:title="src/scalarFunction.h">
<polygon fill="white" stroke="black" points="1140.5,-168.5 1140.5,-187.5 1243.5,-187.5 1243.5,-168.5 1140.5,-168.5"/>
<text text-anchor="middle" x="1192" y="-175.5" font-family="FreeSans" font-size="10.00">src/scalarFunction.h</text>
</a>
</g>
</g>
<!-- Node1&#45;&gt;Node22 -->
<g id="edge37" class="edge"><title>Node1&#45;&gt;Node22</title>
<path fill="none" stroke="midnightblue" d="M752.512,-287.781C850.163,-284.755 1060.95,-274.764 1126,-244 1153.33,-231.074 1176.11,-202.078 1186.29,-187.586"/>
<polygon fill="midnightblue" stroke="midnightblue" points="752.193,-284.289 742.301,-288.085 752.401,-291.286 752.193,-284.289"/>
</g>
<!-- Node23 -->
<g id="node23" class="node"><title>Node23</title>
<g id="a_node23"><a xlink:href="integrator_8h.html" target="_top" xlink:title="src/integrator.h">
<polygon fill="white" stroke="black" points="180,-168.5 180,-187.5 260,-187.5 260,-168.5 180,-168.5"/>
<text text-anchor="middle" x="220" y="-175.5" font-family="FreeSans" font-size="10.00">src/integrator.h</text>
</a>
</g>
</g>
<!-- Node1&#45;&gt;Node23 -->
<g id="edge43" class="edge"><title>Node1&#45;&gt;Node23</title>
<path fill="none" stroke="midnightblue" d="M651.765,-288.408C553.155,-286.492 338.267,-278.375 274,-244 249.679,-230.991 231.957,-202.034 224.258,-187.569"/>
<polygon fill="midnightblue" stroke="midnightblue" points="651.724,-291.908 661.785,-288.589 651.85,-284.909 651.724,-291.908"/>
</g>
<!-- Node25 -->
<g id="node25" class="node"><title>Node25</title>
<g id="a_node25"><a xlink:href="qssintegrator_8h.html" target="_top" xlink:title="src/qssintegrator.h">
<polygon fill="white" stroke="black" points="551.5,-224.5 551.5,-243.5 646.5,-243.5 646.5,-224.5 551.5,-224.5"/>
<text text-anchor="middle" x="599" y="-231.5" font-family="FreeSans" font-size="10.00">src/qssintegrator.h</text>
</a>
</g>
</g>
<!-- Node1&#45;&gt;Node25 -->
<g id="edge49" class="edge"><title>Node1&#45;&gt;Node25</title>
<path fill="none" stroke="midnightblue" d="M676.421,-275.59C657.377,-265.605 631.936,-252.267 615.508,-243.655"/>
<polygon fill="midnightblue" stroke="midnightblue" points="674.969,-278.78 685.451,-280.324 678.22,-272.581 674.969,-278.78"/>
</g>
<!-- Node27 -->
<g id="node27" class="node"><title>Node27</title>
<g id="a_node27"><a xlink:href="mathUtils_8cpp.html" target="_top" xlink:title="src/mathUtils.cpp">
<polygon fill="white" stroke="black" points="1216.5,-224.5 1216.5,-243.5 1307.5,-243.5 1307.5,-224.5 1216.5,-224.5"/>
<text text-anchor="middle" x="1262" y="-231.5" font-family="FreeSans" font-size="10.00">src/mathUtils.cpp</text>
</a>
</g>
</g>
<!-- Node1&#45;&gt;Node27 -->
<g id="edge52" class="edge"><title>Node1&#45;&gt;Node27</title>
<path fill="none" stroke="midnightblue" d="M752.496,-285.448C842.836,-278.872 1038.02,-263.661 1202,-244 1206.6,-243.448 1211.39,-242.82 1216.18,-242.159"/>
<polygon fill="midnightblue" stroke="midnightblue" points="751.988,-281.975 742.267,-286.188 752.494,-288.957 751.988,-281.975"/>
</g>
<!-- Node28 -->
<g id="node28" class="node"><title>Node28</title>
<g id="a_node28"><a xlink:href="sundialsUtils_8cpp.html" target="_top" xlink:title="src/sundialsUtils.cpp">
<polygon fill="white" stroke="black" points="1326,-224.5 1326,-243.5 1430,-243.5 1430,-224.5 1326,-224.5"/>
<text text-anchor="middle" x="1378" y="-231.5" font-family="FreeSans" font-size="10.00">src/sundialsUtils.cpp</text>
</a>
</g>
</g>
<!-- Node1&#45;&gt;Node28 -->
<g id="edge53" class="edge"><title>Node1&#45;&gt;Node28</title>
<path fill="none" stroke="midnightblue" d="M752.017,-286.588C856.948,-281.254 1107.69,-267.067 1317,-244 1319.87,-243.683 1322.82,-243.333 1325.79,-242.961"/>
<polygon fill="midnightblue" stroke="midnightblue" points="751.837,-283.093 742.026,-287.092 752.189,-290.084 751.837,-283.093"/>
</g>
<!-- Node3 -->
<g id="node3" class="node"><title>Node3</title>
<g id="a_node3"><a xlink:href="callback_8cpp.html" target="_top" xlink:title="src/callback.cpp">
<polygon fill="white" stroke="black" points="0,-168.5 0,-187.5 86,-187.5 86,-168.5 0,-168.5"/>
<text text-anchor="middle" x="43" y="-175.5" font-family="FreeSans" font-size="10.00">src/callback.cpp</text>
</a>
</g>
</g>
<!-- Node2&#45;&gt;Node3 -->
<g id="edge2" class="edge"><title>Node2&#45;&gt;Node3</title>
<path fill="none" stroke="midnightblue" d="M117.163,-219.453C98.8864,-209.483 74.5844,-196.228 58.8666,-187.655"/>
<polygon fill="midnightblue" stroke="midnightblue" points="115.639,-222.608 126.094,-224.324 118.991,-216.463 115.639,-222.608"/>
</g>
<!-- Node2&#45;&gt;Node4 -->
<g id="edge3" class="edge"><title>Node2&#45;&gt;Node4</title>
<path fill="none" stroke="midnightblue" d="M190.149,-225.024C251.036,-214.939 355.389,-197.653 417.412,-187.38"/>
<polygon fill="midnightblue" stroke="midnightblue" points="189.328,-221.613 180.034,-226.7 190.472,-228.519 189.328,-221.613"/>
</g>
<!-- Node5 -->
<g id="node5" class="node"><title>Node5</title>
<g id="a_node5"><a xlink:href="flameSolver_8h.html" target="_top" xlink:title="src/flameSolver.h">
<polygon fill="white" stroke="black" points="565,-56.5 565,-75.5 655,-75.5 655,-56.5 565,-56.5"/>
<text text-anchor="middle" x="610" y="-63.5" font-family="FreeSans" font-size="10.00">src/flameSolver.h</text>
</a>
</g>
</g>
<!-- Node2&#45;&gt;Node5 -->
<g id="edge7" class="edge"><title>Node2&#45;&gt;Node5</title>
<path fill="none" stroke="midnightblue" d="M143.237,-214.163C146.161,-186.613 155.986,-136.005 189,-112 248.006,-69.0954 468.625,-65.6711 564.754,-66.2973"/>
<polygon fill="midnightblue" stroke="midnightblue" points="139.726,-214.151 142.36,-224.413 146.7,-214.748 139.726,-214.151"/>
</g>
<!-- Node4&#45;&gt;Node5 -->
<g id="edge4" class="edge"><title>Node4&#45;&gt;Node5</title>
<path fill="none" stroke="midnightblue" d="M487.212,-162.118C517.353,-138.769 574.797,-94.2699 598.909,-75.5914"/>
<polygon fill="midnightblue" stroke="midnightblue" points="484.905,-159.478 479.143,-168.368 489.191,-165.011 484.905,-159.478"/>
</g>
<!-- Node7 -->
<g id="node7" class="node"><title>Node7</title>
<g id="a_node7"><a xlink:href="sourceSystem_8cpp.html" target="_top" xlink:title="src/sourceSystem.cpp">
<polygon fill="white" stroke="black" points="1219.5,-112.5 1219.5,-131.5 1330.5,-131.5 1330.5,-112.5 1219.5,-112.5"/>
<text text-anchor="middle" x="1275" y="-119.5" font-family="FreeSans" font-size="10.00">src/sourceSystem.cpp</text>
</a>
</g>
</g>
<!-- Node4&#45;&gt;Node7 -->
<g id="edge6" class="edge"><title>Node4&#45;&gt;Node7</title>
<path fill="none" stroke="midnightblue" d="M529.047,-167.876C814.316,-138.646 888.976,-152.258 1172,-132 1187.4,-130.898 1204.07,-129.521 1219.43,-128.177"/>
<polygon fill="midnightblue" stroke="midnightblue" points="528.396,-164.425 518.809,-168.934 529.116,-171.387 528.396,-164.425"/>
</g>
<!-- Node6 -->
<g id="node6" class="node"><title>Node6</title>
<g id="a_node6"><a xlink:href="flameSolver_8cpp.html" target="_top" xlink:title="src/flameSolver.cpp">
<polygon fill="white" stroke="black" points="849.5,-0.5 849.5,-19.5 950.5,-19.5 950.5,-0.5 849.5,-0.5"/>
<text text-anchor="middle" x="900" y="-7.5" font-family="FreeSans" font-size="10.00">src/flameSolver.cpp</text>
</a>
</g>
</g>
<!-- Node5&#45;&gt;Node6 -->
<g id="edge5" class="edge"><title>Node5&#45;&gt;Node6</title>
<path fill="none" stroke="midnightblue" d="M665.189,-54.7234C719.915,-44.5331 802.795,-29.1002 854.049,-19.5565"/>
<polygon fill="midnightblue" stroke="midnightblue" points="664.503,-51.291 655.312,-56.5625 665.784,-58.1727 664.503,-51.291"/>
</g>
<!-- Node8&#45;&gt;Node5 -->
<g id="edge11" class="edge"><title>Node8&#45;&gt;Node5</title>
<path fill="none" stroke="midnightblue" d="M1358.97,-157.92C1357.83,-142.947 1353.62,-122.876 1340,-112 1286.55,-69.3056 805.794,-66.6032 655.018,-66.8168"/>
<polygon fill="midnightblue" stroke="midnightblue" points="1355.48,-158.274 1359.35,-168.139 1362.48,-158.018 1355.48,-158.274"/>
</g>
<!-- Node8&#45;&gt;Node7 -->
<g id="edge12" class="edge"><title>Node8&#45;&gt;Node7</title>
<path fill="none" stroke="midnightblue" d="M1337.07,-162.901C1321.66,-152.999 1301.55,-140.071 1288.46,-131.655"/>
<polygon fill="midnightblue" stroke="midnightblue" points="1335.2,-165.86 1345.5,-168.324 1338.98,-159.972 1335.2,-165.86"/>
</g>
<!-- Node9 -->
<g id="node9" class="node"><title>Node9</title>
<g id="a_node9"><a xlink:href="chemistry0d_8cpp.html" target="_top" xlink:title="src/chemistry0d.cpp">
<polygon fill="white" stroke="black" points="1425,-112.5 1425,-131.5 1527,-131.5 1527,-112.5 1425,-112.5"/>
<text text-anchor="middle" x="1476" y="-119.5" font-family="FreeSans" font-size="10.00">src/chemistry0d.cpp</text>
</a>
</g>
</g>
<!-- Node8&#45;&gt;Node9 -->
<g id="edge9" class="edge"><title>Node8&#45;&gt;Node9</title>
<path fill="none" stroke="midnightblue" d="M1386.66,-164.232C1408.55,-154.131 1438.5,-140.309 1457.55,-131.516"/>
<polygon fill="midnightblue" stroke="midnightblue" points="1385.15,-161.075 1377.54,-168.444 1388.09,-167.431 1385.15,-161.075"/>
</g>
<!-- Node10 -->
<g id="node10" class="node"><title>Node10</title>
<g id="a_node10"><a xlink:href="convectionSystem_8cpp.html" target="_top" xlink:title="src/convectionSystem.cpp">
<polygon fill="white" stroke="black" points="1275.5,-56.5 1275.5,-75.5 1404.5,-75.5 1404.5,-56.5 1275.5,-56.5"/>
<text text-anchor="middle" x="1340" y="-63.5" font-family="FreeSans" font-size="10.00">src/convectionSystem.cpp</text>
</a>
</g>
</g>
<!-- Node8&#45;&gt;Node10 -->
<g id="edge10" class="edge"><title>Node8&#45;&gt;Node10</title>
<path fill="none" stroke="midnightblue" d="M1367.89,-159.087C1373.23,-145.882 1378.1,-127.582 1373,-112 1368.3,-97.6367 1357.07,-84.0685 1349.02,-75.66"/>
<polygon fill="midnightblue" stroke="midnightblue" points="1364.59,-157.881 1363.68,-168.436 1370.97,-160.754 1364.59,-157.881"/>
</g>
<!-- Node11&#45;&gt;Node5 -->
<g id="edge23" class="edge"><title>Node11&#45;&gt;Node5</title>
<path fill="none" stroke="midnightblue" d="M853.072,-216.283C832.292,-190.467 788.999,-140.871 742,-112 713.324,-94.3848 676.873,-82.632 649.544,-75.5685"/>
<polygon fill="midnightblue" stroke="midnightblue" points="850.504,-218.678 859.453,-224.349 855.994,-214.335 850.504,-218.678"/>
</g>
<!-- Node11&#45;&gt;Node7 -->
<g id="edge29" class="edge"><title>Node11&#45;&gt;Node7</title>
<path fill="none" stroke="midnightblue" d="M919.403,-233.627C1013.34,-233.644 1202.94,-228.487 1253,-188 1270.23,-174.065 1274.04,-146.066 1274.83,-131.796"/>
<polygon fill="midnightblue" stroke="midnightblue" points="919.262,-230.127 909.255,-233.605 919.247,-237.127 919.262,-230.127"/>
</g>
<!-- Node11&#45;&gt;Node9 -->
<g id="edge14" class="edge"><title>Node11&#45;&gt;Node9</title>
<path fill="none" stroke="midnightblue" d="M919.253,-230.779C1048.24,-225.094 1370.07,-208.975 1414,-188 1440.46,-175.367 1461.49,-146.234 1470.8,-131.648"/>
<polygon fill="midnightblue" stroke="midnightblue" points="919.045,-227.284 909.207,-231.218 919.35,-234.278 919.045,-227.284"/>
</g>
<!-- Node12 -->
<g id="node12" class="node"><title>Node12</title>
<g id="a_node12"><a xlink:href="grid_8h.html" target="_top" xlink:title="src/grid.h">
<polygon fill="white" stroke="black" points="838,-168.5 838,-187.5 894,-187.5 894,-168.5 838,-168.5"/>
<text text-anchor="middle" x="866" y="-175.5" font-family="FreeSans" font-size="10.00">src/grid.h</text>
</a>
</g>
</g>
<!-- Node11&#45;&gt;Node12 -->
<g id="edge15" class="edge"><title>Node11&#45;&gt;Node12</title>
<path fill="none" stroke="midnightblue" d="M866,-213.805C866,-204.91 866,-194.78 866,-187.751"/>
<polygon fill="midnightblue" stroke="midnightblue" points="862.5,-214.083 866,-224.083 869.5,-214.083 862.5,-214.083"/>
</g>
<!-- Node11&#45;&gt;Node16 -->
<g id="edge24" class="edge"><title>Node11&#45;&gt;Node16</title>
<path fill="none" stroke="midnightblue" d="M830.48,-221.304C799.578,-211.129 755.527,-196.625 727.865,-187.516"/>
<polygon fill="midnightblue" stroke="midnightblue" points="829.421,-224.64 840.014,-224.444 831.61,-217.992 829.421,-224.64"/>
</g>
<!-- Node17 -->
<g id="node17" class="node"><title>Node17</title>
<g id="a_node17"><a xlink:href="splitSolver_8cpp.html" target="_top" xlink:title="src/splitSolver.cpp">
<polygon fill="white" stroke="black" points="638.5,-112.5 638.5,-131.5 733.5,-131.5 733.5,-112.5 638.5,-112.5"/>
<text text-anchor="middle" x="686" y="-119.5" font-family="FreeSans" font-size="10.00">src/splitSolver.cpp</text>
</a>
</g>
</g>
<!-- Node11&#45;&gt;Node17 -->
<g id="edge30" class="edge"><title>Node11&#45;&gt;Node17</title>
<path fill="none" stroke="midnightblue" d="M843.105,-219.009C805.322,-195.919 731.017,-150.51 700.059,-131.591"/>
<polygon fill="midnightblue" stroke="midnightblue" points="841.518,-222.14 851.876,-224.368 845.168,-216.167 841.518,-222.14"/>
</g>
<!-- Node18 -->
<g id="node18" class="node"><title>Node18</title>
<g id="a_node18"><a xlink:href="readConfig_8cpp.html" target="_top" xlink:title="src/readConfig.cpp">
<polygon fill="white" stroke="black" points="988,-168.5 988,-187.5 1084,-187.5 1084,-168.5 988,-168.5"/>
<text text-anchor="middle" x="1036" y="-175.5" font-family="FreeSans" font-size="10.00">src/readConfig.cpp</text>
</a>
</g>
</g>
<!-- Node11&#45;&gt;Node18 -->
<g id="edge27" class="edge"><title>Node11&#45;&gt;Node18</title>
<path fill="none" stroke="midnightblue" d="M902.819,-221.304C934.852,-211.129 980.515,-196.625 1009.19,-187.516"/>
<polygon fill="midnightblue" stroke="midnightblue" points="901.408,-218.08 892.937,-224.444 903.527,-224.752 901.408,-218.08"/>
</g>
<!-- Node19 -->
<g id="node19" class="node"><title>Node19</title>
<g id="a_node19"><a xlink:href="scalarFunction_8cpp.html" target="_top" xlink:title="src/scalarFunction.cpp">
<polygon fill="white" stroke="black" points="1049.5,-112.5 1049.5,-131.5 1162.5,-131.5 1162.5,-112.5 1049.5,-112.5"/>
<text text-anchor="middle" x="1106" y="-119.5" font-family="FreeSans" font-size="10.00">src/scalarFunction.cpp</text>
</a>
</g>
</g>
<!-- Node11&#45;&gt;Node19 -->
<g id="edge28" class="edge"><title>Node11&#45;&gt;Node19</title>
<path fill="none" stroke="midnightblue" d="M887.824,-218.853C910.131,-204.777 946.078,-183.149 979,-168 1011.73,-152.942 1051.04,-139.716 1077.17,-131.567"/>
<polygon fill="midnightblue" stroke="midnightblue" points="885.699,-216.056 879.147,-224.381 889.461,-221.959 885.699,-216.056"/>
</g>
<!-- Node12&#45;&gt;Node5 -->
<g id="edge21" class="edge"><title>Node12&#45;&gt;Node5</title>
<path fill="none" stroke="midnightblue" d="M848.655,-161.516C831.371,-146.833 803.507,-125.122 776,-112 737.192,-93.4872 689.519,-81.563 655.234,-74.6728"/>
<polygon fill="midnightblue" stroke="midnightblue" points="846.393,-164.187 856.243,-168.091 850.978,-158.897 846.393,-164.187"/>
</g>
<!-- Node12&#45;&gt;Node13 -->
<g id="edge16" class="edge"><title>Node12&#45;&gt;Node13</title>
<path fill="none" stroke="midnightblue" d="M892.056,-163.726C911.684,-153.727 938.028,-140.307 955.012,-131.655"/>
<polygon fill="midnightblue" stroke="midnightblue" points="890.352,-160.666 883.031,-168.324 893.53,-166.903 890.352,-160.666"/>
</g>
<!-- Node12&#45;&gt;Node14 -->
<g id="edge19" class="edge"><title>Node12&#45;&gt;Node14</title>
<path fill="none" stroke="midnightblue" d="M827.575,-172.219C749.954,-162.561 574.308,-140.707 485.52,-129.659"/>
<polygon fill="midnightblue" stroke="midnightblue" points="827.503,-175.737 837.858,-173.499 828.367,-168.79 827.503,-175.737"/>
</g>
<!-- Node15 -->
<g id="node15" class="node"><title>Node15</title>
<g id="a_node15"><a xlink:href="grid_8cpp.html" target="_top" xlink:title="src/grid.cpp">
<polygon fill="white" stroke="black" points="828,-112.5 828,-131.5 894,-131.5 894,-112.5 828,-112.5"/>
<text text-anchor="middle" x="861" y="-119.5" font-family="FreeSans" font-size="10.00">src/grid.cpp</text>
</a>
</g>
</g>
<!-- Node12&#45;&gt;Node15 -->
<g id="edge22" class="edge"><title>Node12&#45;&gt;Node15</title>
<path fill="none" stroke="midnightblue" d="M864.25,-158.101C863.42,-149.136 862.468,-138.858 861.81,-131.751"/>
<polygon fill="midnightblue" stroke="midnightblue" points="860.767,-158.448 865.174,-168.083 867.737,-157.803 860.767,-158.448"/>
</g>
<!-- Node13&#45;&gt;Node5 -->
<g id="edge18" class="edge"><title>Node13&#45;&gt;Node5</title>
<path fill="none" stroke="midnightblue" d="M904.648,-110.953C831.829,-100.09 717.792,-83.0795 655.083,-73.7251"/>
<polygon fill="midnightblue" stroke="midnightblue" points="904.233,-114.43 914.64,-112.444 905.266,-107.506 904.233,-114.43"/>
</g>
<!-- Node13&#45;&gt;Node10 -->
<g id="edge17" class="edge"><title>Node13&#45;&gt;Node10</title>
<path fill="none" stroke="midnightblue" d="M1040.29,-110.979C1109.8,-100.779 1216.4,-85.1372 1281.96,-75.5164"/>
<polygon fill="midnightblue" stroke="midnightblue" points="1039.7,-107.529 1030.31,-112.444 1040.71,-114.455 1039.7,-107.529"/>
</g>
<!-- Node14&#45;&gt;Node5 -->
<g id="edge20" class="edge"><title>Node14&#45;&gt;Node5</title>
<path fill="none" stroke="midnightblue" d="M470.117,-109.436C503.678,-99.2551 551.774,-84.664 581.927,-75.5164"/>
<polygon fill="midnightblue" stroke="midnightblue" points="468.758,-106.191 460.205,-112.444 470.79,-112.89 468.758,-106.191"/>
</g>
<!-- Node16&#45;&gt;Node5 -->
<g id="edge25" class="edge"><title>Node16&#45;&gt;Node5</title>
<path fill="none" stroke="midnightblue" d="M670.563,-164.072C656.028,-156.646 639.662,-145.986 629,-132 616.027,-114.984 611.897,-89.3093 610.593,-75.8882"/>
<polygon fill="midnightblue" stroke="midnightblue" points="669.241,-167.319 679.772,-168.487 672.268,-161.007 669.241,-167.319"/>
</g>
<!-- Node16&#45;&gt;Node17 -->
<g id="edge26" class="edge"><title>Node16&#45;&gt;Node17</title>
<path fill="none" stroke="midnightblue" d="M696.488,-158.396C693.811,-149.362 690.722,-138.936 688.593,-131.751"/>
<polygon fill="midnightblue" stroke="midnightblue" points="693.161,-159.489 699.358,-168.083 699.873,-157.501 693.161,-159.489"/>
</g>
<!-- Node20&#45;&gt;Node4 -->
<g id="edge34" class="edge"><title>Node20&#45;&gt;Node4</title>
<path fill="none" stroke="midnightblue" d="M461.5,-214.101C463.16,-205.136 465.063,-194.858 466.379,-187.751"/>
<polygon fill="midnightblue" stroke="midnightblue" points="458.031,-213.613 459.651,-224.083 464.914,-214.888 458.031,-213.613"/>
</g>
<!-- Node20&#45;&gt;Node5 -->
<g id="edge35" class="edge"><title>Node20&#45;&gt;Node5</title>
<path fill="none" stroke="midnightblue" d="M410.904,-232.714C337.564,-231.157 201.311,-223.433 171,-188 165.222,-181.245 167.751,-176.274 171,-168 183.415,-136.386 192.704,-127.354 223,-112 281.901,-82.1479 476.074,-71.6552 564.914,-68.3564"/>
<polygon fill="midnightblue" stroke="midnightblue" points="411.186,-236.22 421.248,-232.902 411.313,-229.221 411.186,-236.22"/>
</g>
<!-- Node20&#45;&gt;Node13 -->
<g id="edge33" class="edge"><title>Node20&#45;&gt;Node13</title>
<path fill="none" stroke="midnightblue" d="M505.093,-227.893C517.124,-226.605 530.039,-225.237 542,-224 622.192,-215.706 829.634,-221.423 903,-188 931.156,-175.173 955.17,-146.131 965.941,-131.607"/>
<polygon fill="midnightblue" stroke="midnightblue" points="504.363,-224.451 494.794,-228.999 505.11,-231.411 504.363,-224.451"/>
</g>
<!-- Node21 -->
<g id="node21" class="node"><title>Node21</title>
<g id="a_node21"><a xlink:href="quasi2d_8cpp.html" target="_top" xlink:title="src/quasi2d.cpp">
<polygon fill="white" stroke="black" points="316.5,-168.5 316.5,-187.5 399.5,-187.5 399.5,-168.5 316.5,-168.5"/>
<text text-anchor="middle" x="358" y="-175.5" font-family="FreeSans" font-size="10.00">src/quasi2d.cpp</text>
</a>
</g>
</g>
<!-- Node20&#45;&gt;Node21 -->
<g id="edge36" class="edge"><title>Node20&#45;&gt;Node21</title>
<path fill="none" stroke="midnightblue" d="M432.912,-219.453C414.451,-209.483 389.903,-196.228 374.027,-187.655"/>
<polygon fill="midnightblue" stroke="midnightblue" points="431.471,-222.652 441.933,-224.324 434.797,-216.493 431.471,-222.652"/>
</g>
<!-- Node22&#45;&gt;Node6 -->
<g id="edge39" class="edge"><title>Node22&#45;&gt;Node6</title>
<path fill="none" stroke="midnightblue" d="M1190.62,-158.012C1188.62,-143.696 1183.77,-124.462 1172,-112 1112.94,-49.4711 1011.66,-25.422 950.752,-16.3391"/>
<polygon fill="midnightblue" stroke="midnightblue" points="1187.16,-158.633 1191.68,-168.215 1194.13,-157.906 1187.16,-158.633"/>
</g>
<!-- Node22&#45;&gt;Node7 -->
<g id="edge41" class="edge"><title>Node22&#45;&gt;Node7</title>
<path fill="none" stroke="midnightblue" d="M1214.1,-162.622C1229.26,-152.757 1248.88,-139.992 1261.7,-131.655"/>
<polygon fill="midnightblue" stroke="midnightblue" points="1211.81,-159.937 1205.34,-168.324 1215.63,-165.804 1211.81,-159.937"/>
</g>
<!-- Node22&#45;&gt;Node13 -->
<g id="edge38" class="edge"><title>Node22&#45;&gt;Node13</title>
<path fill="none" stroke="midnightblue" d="M1147.28,-166.024C1105.72,-155.823 1044.69,-140.841 1006.7,-131.516"/>
<polygon fill="midnightblue" stroke="midnightblue" points="1146.59,-169.459 1157.14,-168.444 1148.26,-162.661 1146.59,-169.459"/>
</g>
<!-- Node22&#45;&gt;Node19 -->
<g id="edge40" class="edge"><title>Node22&#45;&gt;Node19</title>
<path fill="none" stroke="midnightblue" d="M1169.55,-162.901C1153.78,-152.999 1133.19,-140.071 1119.78,-131.655"/>
<polygon fill="midnightblue" stroke="midnightblue" points="1167.85,-165.97 1178.18,-168.324 1171.57,-160.042 1167.85,-165.97"/>
</g>
<!-- Node23&#45;&gt;Node5 -->
<g id="edge45" class="edge"><title>Node23&#45;&gt;Node5</title>
<path fill="none" stroke="midnightblue" d="M220.202,-158.131C221.442,-143.282 225.712,-123.273 239,-112 287.177,-71.1275 476.762,-66.3991 564.723,-66.4762"/>
<polygon fill="midnightblue" stroke="midnightblue" points="216.699,-158.104 219.745,-168.251 223.692,-158.419 216.699,-158.104"/>
</g>
<!-- Node23&#45;&gt;Node14 -->
<g id="edge44" class="edge"><title>Node23&#45;&gt;Node14</title>
<path fill="none" stroke="midnightblue" d="M263.346,-165.959C303.387,-155.76 362.033,-140.822 398.565,-131.516"/>
<polygon fill="midnightblue" stroke="midnightblue" points="262.419,-162.583 253.592,-168.444 264.147,-169.367 262.419,-162.583"/>
</g>
<!-- Node24 -->
<g id="node24" class="node"><title>Node24</title>
<g id="a_node24"><a xlink:href="integrator_8cpp.html" target="_top" xlink:title="src/integrator.cpp">
<polygon fill="white" stroke="black" points="248.5,-112.5 248.5,-131.5 339.5,-131.5 339.5,-112.5 248.5,-112.5"/>
<text text-anchor="middle" x="294" y="-119.5" font-family="FreeSans" font-size="10.00">src/integrator.cpp</text>
</a>
</g>
</g>
<!-- Node23&#45;&gt;Node24 -->
<g id="edge46" class="edge"><title>Node23&#45;&gt;Node24</title>
<path fill="none" stroke="midnightblue" d="M240.034,-162.38C253.409,-152.62 270.559,-140.106 281.894,-131.834"/>
<polygon fill="midnightblue" stroke="midnightblue" points="237.904,-159.602 231.889,-168.324 242.03,-165.257 237.904,-159.602"/>
</g>
<!-- Node25&#45;&gt;Node4 -->
<g id="edge50" class="edge"><title>Node25&#45;&gt;Node4</title>
<path fill="none" stroke="midnightblue" d="M568.683,-220.503C544.124,-210.38 510.182,-196.388 488.66,-187.516"/>
<polygon fill="midnightblue" stroke="midnightblue" points="567.663,-223.868 578.243,-224.444 570.331,-217.397 567.663,-223.868"/>
</g>
<!-- Node26 -->
<g id="node26" class="node"><title>Node26</title>
<g id="a_node26"><a xlink:href="qssintegrator_8cpp.html" target="_top" xlink:title="src/qssintegrator.cpp">
<polygon fill="white" stroke="black" points="536.5,-168.5 536.5,-187.5 641.5,-187.5 641.5,-168.5 536.5,-168.5"/>
<text text-anchor="middle" x="589" y="-175.5" font-family="FreeSans" font-size="10.00">src/qssintegrator.cpp</text>
</a>
</g>
</g>
<!-- Node25&#45;&gt;Node26 -->
<g id="edge51" class="edge"><title>Node25&#45;&gt;Node26</title>
<path fill="none" stroke="midnightblue" d="M595.5,-214.101C593.84,-205.136 591.937,-194.858 590.621,-187.751"/>
<polygon fill="midnightblue" stroke="midnightblue" points="592.086,-214.888 597.349,-224.083 598.969,-213.613 592.086,-214.888"/>
</g>
</g>
</svg>
