<?xml version="1.0" encoding="UTF-8" standalone="no"?>
<!DOCTYPE svg PUBLIC "-//W3C//DTD SVG 1.1//EN"
 "http://www.w3.org/Graphics/SVG/1.1/DTD/svg11.dtd">
<!-- Generated by graphviz version 2.28.0 (20120425.2022)
 -->
<!-- Title: G Pages: 1 -->
<svg width="1721pt" height="196pt"
 viewBox="0.00 0.00 1720.61 196.00" xmlns="http://www.w3.org/2000/svg" xmlns:xlink="http://www.w3.org/1999/xlink">
<g id="graph1" class="graph" transform="scale(1 1) rotate(0) translate(4 192)">
<title>G</title>
<polygon fill="white" stroke="white" points="-4,5 -4,-192 1717.61,-192 1717.61,5 -4,5"/>
<!-- Node1 -->
<g id="node1" class="node"><title>Node1</title>
<polygon fill="#bfbfbf" stroke="black" points="1430.61,-168.5 1430.61,-187.5 1522.61,-187.5 1522.61,-168.5 1430.61,-168.5"/>
<text text-anchor="middle" x="1476.61" y="-175.5" font-family="FreeSans" font-size="10.00">src/mathUtils.cpp</text>
</g>
<!-- Node2 -->
<g id="node3" class="node"><title>Node2</title>
<a xlink:href="mathUtils_8h.html" target="_top" xlink:title="mathUtils.h">
<polygon fill="white" stroke="black" points="1414.11,-112.5 1414.11,-131.5 1479.11,-131.5 1479.11,-112.5 1414.11,-112.5"/>
<text text-anchor="middle" x="1446.61" y="-119.5" font-family="FreeSans" font-size="10.00">mathUtils.h</text>
</a>
</g>
<!-- Node1&#45;&gt;Node2 -->
<g id="edge2" class="edge"><title>Node1&#45;&gt;Node2</title>
<path fill="none" stroke="midnightblue" d="M1471.66,-168.083C1467.51,-160.613 1461.46,-149.724 1456.35,-140.52"/>
<polygon fill="midnightblue" stroke="midnightblue" points="1459.39,-138.793 1451.47,-131.751 1453.27,-142.192 1459.39,-138.793"/>
</g>
<!-- Node8 -->
<g id="node15" class="node"><title>Node8</title>
<polygon fill="white" stroke="#bfbfbf" points="1676.61,-56.5 1676.61,-75.5 1712.61,-75.5 1712.61,-56.5 1676.61,-56.5"/>
<text text-anchor="middle" x="1694.61" y="-63.5" font-family="FreeSans" font-size="10.00">map</text>
</g>
<!-- Node1&#45;&gt;Node8 -->
<g id="edge50" class="edge"><title>Node1&#45;&gt;Node8</title>
<path fill="none" stroke="midnightblue" d="M1480.96,-168.355C1488.48,-154.302 1505.29,-126.609 1527.61,-112 1581.01,-77.0558 1605.32,-93.7715 1666.61,-76 1666.71,-75.9707 1666.81,-75.9412 1666.92,-75.9117"/>
<polygon fill="midnightblue" stroke="midnightblue" points="1668.04,-79.228 1676.58,-72.963 1666,-72.5325 1668.04,-79.228"/>
</g>
<!-- Node11 -->
<g id="node23" class="node"><title>Node11</title>
<a xlink:href="sundialsUtils_8h.html" target="_top" xlink:title="sundialsUtils.h">
<polygon fill="white" stroke="black" points="728.612,-112.5 728.612,-131.5 808.612,-131.5 808.612,-112.5 728.612,-112.5"/>
<text text-anchor="middle" x="768.612" y="-119.5" font-family="FreeSans" font-size="10.00">sundialsUtils.h</text>
</a>
</g>
<!-- Node1&#45;&gt;Node11 -->
<g id="edge24" class="edge"><title>Node1&#45;&gt;Node11</title>
<path fill="none" stroke="midnightblue" d="M1430.43,-173.478C1303.68,-163.81 951.075,-136.917 819.224,-126.86"/>
<polygon fill="midnightblue" stroke="midnightblue" points="819.244,-123.352 809.007,-126.081 818.711,-130.331 819.244,-123.352"/>
</g>
<!-- Node22 -->
<g id="node48" class="node"><title>Node22</title>
<polygon fill="white" stroke="#bfbfbf" points="1536.11,-112.5 1536.11,-131.5 1575.11,-131.5 1575.11,-112.5 1536.11,-112.5"/>
<text text-anchor="middle" x="1555.61" y="-119.5" font-family="FreeSans" font-size="10.00">limits</text>
</g>
<!-- Node1&#45;&gt;Node22 -->
<g id="edge52" class="edge"><title>Node1&#45;&gt;Node22</title>
<path fill="none" stroke="midnightblue" d="M1489.3,-168.324C1501.51,-159.979 1520.19,-147.212 1534.61,-137.352"/>
<polygon fill="midnightblue" stroke="midnightblue" points="1536.67,-140.187 1542.95,-131.655 1532.72,-134.408 1536.67,-140.187"/>
</g>
<!-- Node3 -->
<g id="node5" class="node"><title>Node3</title>
<polygon fill="white" stroke="#bfbfbf" points="1221.61,-56.5 1221.61,-75.5 1265.61,-75.5 1265.61,-56.5 1221.61,-56.5"/>
<text text-anchor="middle" x="1243.61" y="-63.5" font-family="FreeSans" font-size="10.00">vector</text>
</g>
<!-- Node2&#45;&gt;Node3 -->
<g id="edge4" class="edge"><title>Node2&#45;&gt;Node3</title>
<path fill="none" stroke="midnightblue" d="M1414.45,-112.444C1376.43,-102.331 1313.56,-85.6072 1275.62,-75.5136"/>
<polygon fill="midnightblue" stroke="midnightblue" points="1276.18,-72.042 1265.62,-72.8536 1274.38,-78.8067 1276.18,-72.042"/>
</g>
<!-- Node4 -->
<g id="node7" class="node"><title>Node4</title>
<polygon fill="white" stroke="#bfbfbf" points="1449.61,-56.5 1449.61,-75.5 1493.61,-75.5 1493.61,-56.5 1449.61,-56.5"/>
<text text-anchor="middle" x="1471.61" y="-63.5" font-family="FreeSans" font-size="10.00">cmath</text>
</g>
<!-- Node2&#45;&gt;Node4 -->
<g id="edge6" class="edge"><title>Node2&#45;&gt;Node4</title>
<path fill="none" stroke="midnightblue" d="M1450.74,-112.083C1454.13,-104.77 1459.03,-94.1814 1463.23,-85.1034"/>
<polygon fill="midnightblue" stroke="midnightblue" points="1466.54,-86.2962 1467.56,-75.7511 1460.18,-83.3553 1466.54,-86.2962"/>
</g>
<!-- Node5 -->
<g id="node9" class="node"><title>Node5</title>
<polygon fill="white" stroke="#bfbfbf" points="1265.61,-0.5 1265.61,-19.5 1321.61,-19.5 1321.61,-0.5 1265.61,-0.5"/>
<text text-anchor="middle" x="1293.61" y="-7.5" font-family="FreeSans" font-size="10.00">iostream</text>
</g>
<!-- Node2&#45;&gt;Node5 -->
<g id="edge8" class="edge"><title>Node2&#45;&gt;Node5</title>
<path fill="none" stroke="midnightblue" d="M1413.97,-118.478C1383.66,-114.41 1339.31,-103.778 1312.61,-76 1300.78,-63.6933 1296.26,-44.4388 1294.56,-30.0757"/>
<polygon fill="midnightblue" stroke="midnightblue" points="1298.03,-29.5107 1293.72,-19.8315 1291.05,-30.0849 1298.03,-29.5107"/>
</g>
<!-- Node6 -->
<g id="node11" class="node"><title>Node6</title>
<polygon fill="white" stroke="#bfbfbf" points="1512.11,-56.5 1512.11,-75.5 1565.11,-75.5 1565.11,-56.5 1512.11,-56.5"/>
<text text-anchor="middle" x="1538.61" y="-63.5" font-family="FreeSans" font-size="10.00">sstream</text>
</g>
<!-- Node2&#45;&gt;Node6 -->
<g id="edge10" class="edge"><title>Node2&#45;&gt;Node6</title>
<path fill="none" stroke="midnightblue" d="M1461.39,-112.324C1475.88,-103.822 1498.18,-90.7288 1515.11,-80.7975"/>
<polygon fill="midnightblue" stroke="midnightblue" points="1517.01,-83.735 1523.87,-75.6545 1513.47,-77.6981 1517.01,-83.735"/>
</g>
<!-- Node7 -->
<g id="node13" class="node"><title>Node7</title>
<polygon fill="white" stroke="#bfbfbf" points="1370.11,-0.5 1370.11,-19.5 1411.11,-19.5 1411.11,-0.5 1370.11,-0.5"/>
<text text-anchor="middle" x="1390.61" y="-7.5" font-family="FreeSans" font-size="10.00">string</text>
</g>
<!-- Node2&#45;&gt;Node7 -->
<g id="edge12" class="edge"><title>Node2&#45;&gt;Node7</title>
<path fill="none" stroke="midnightblue" d="M1442.22,-112.368C1433.06,-94.376 1411.76,-52.5503 1399.59,-28.6267"/>
<polygon fill="midnightblue" stroke="midnightblue" points="1402.64,-26.9152 1394.99,-19.5914 1396.4,-30.091 1402.64,-26.9152"/>
</g>
<!-- Node2&#45;&gt;Node8 -->
<g id="edge14" class="edge"><title>Node2&#45;&gt;Node8</title>
<path fill="none" stroke="midnightblue" d="M1479.37,-114.506C1536.19,-103.209 1648.7,-80.6958 1666.61,-76 1666.71,-75.9741 1666.81,-75.9481 1666.91,-75.9219"/>
<polygon fill="midnightblue" stroke="midnightblue" points="1667.69,-79.3396 1676.32,-73.1954 1665.74,-72.616 1667.69,-79.3396"/>
</g>
<!-- Node9 -->
<g id="node17" class="node"><title>Node9</title>
<a xlink:href="debugUtils_8h.html" target="_top" xlink:title="debugUtils.h">
<polygon fill="white" stroke="red" points="1322.11,-56.5 1322.11,-75.5 1393.11,-75.5 1393.11,-56.5 1322.11,-56.5"/>
<text text-anchor="middle" x="1357.61" y="-63.5" font-family="FreeSans" font-size="10.00">debugUtils.h</text>
</a>
</g>
<!-- Node2&#45;&gt;Node9 -->
<g id="edge16" class="edge"><title>Node2&#45;&gt;Node9</title>
<path fill="none" stroke="midnightblue" d="M1432.31,-112.324C1418.43,-103.9 1397.12,-90.9709 1380.81,-81.0741"/>
<polygon fill="midnightblue" stroke="midnightblue" points="1382.24,-77.8495 1371.88,-75.6545 1378.61,-83.8341 1382.24,-77.8495"/>
</g>
<!-- Node10 -->
<g id="node21" class="node"><title>Node10</title>
<polygon fill="white" stroke="#bfbfbf" points="1583.11,-56.5 1583.11,-75.5 1658.11,-75.5 1658.11,-56.5 1583.11,-56.5"/>
<text text-anchor="middle" x="1620.61" y="-63.5" font-family="FreeSans" font-size="10.00">Eigen/Dense</text>
</g>
<!-- Node2&#45;&gt;Node10 -->
<g id="edge22" class="edge"><title>Node2&#45;&gt;Node10</title>
<path fill="none" stroke="midnightblue" d="M1474.18,-112.444C1503.71,-103.28 1550.73,-88.6876 1583.49,-78.5192"/>
<polygon fill="midnightblue" stroke="midnightblue" points="1584.66,-81.8232 1593.17,-75.5164 1582.58,-75.1378 1584.66,-81.8232"/>
</g>
<!-- Node9&#45;&gt;Node5 -->
<g id="edge20" class="edge"><title>Node9&#45;&gt;Node5</title>
<path fill="none" stroke="midnightblue" d="M1347.33,-56.324C1337.78,-48.2631 1323.33,-36.0765 1311.83,-26.3695"/>
<polygon fill="midnightblue" stroke="midnightblue" points="1313.98,-23.6076 1304.08,-19.8339 1309.47,-28.9577 1313.98,-23.6076"/>
</g>
<!-- Node9&#45;&gt;Node7 -->
<g id="edge18" class="edge"><title>Node9&#45;&gt;Node7</title>
<path fill="none" stroke="midnightblue" d="M1363.06,-56.083C1367.63,-48.6127 1374.28,-37.7244 1379.91,-28.5199"/>
<polygon fill="midnightblue" stroke="midnightblue" points="1383.04,-30.109 1385.26,-19.7511 1377.06,-26.4588 1383.04,-30.109"/>
</g>
<!-- Node11&#45;&gt;Node3 -->
<g id="edge46" class="edge"><title>Node11&#45;&gt;Node3</title>
<path fill="none" stroke="midnightblue" d="M808.655,-119.254C885.08,-115.423 1057.06,-104.4 1211.22,-75.7078"/>
<polygon fill="midnightblue" stroke="midnightblue" points="1212.17,-79.0898 1221.35,-73.7922 1210.87,-72.2117 1212.17,-79.0898"/>
</g>
<!-- Node11&#45;&gt;Node5 -->
<g id="edge44" class="edge"><title>Node11&#45;&gt;Node5</title>
<path fill="none" stroke="midnightblue" d="M728.499,-120.146C574.654,-116.679 29.6492,-102.555 4.61184,-76 -1.48597,-69.5325 -1.56293,-62.3941 4.61184,-56 49.1414,-9.88877 1045.6,-10.2659 1255.16,-10.8576"/>
<polygon fill="midnightblue" stroke="midnightblue" points="1255.35,-14.3581 1265.36,-10.8884 1255.38,-7.35814 1255.35,-14.3581"/>
</g>
<!-- Node12 -->
<g id="node25" class="node"><title>Node12</title>
<polygon fill="white" stroke="#bfbfbf" points="14.1118,-56.5 14.1118,-75.5 137.112,-75.5 137.112,-56.5 14.1118,-56.5"/>
<text text-anchor="middle" x="75.6118" y="-63.5" font-family="FreeSans" font-size="10.00">nvector/nvector_serial.h</text>
</g>
<!-- Node11&#45;&gt;Node12 -->
<g id="edge26" class="edge"><title>Node11&#45;&gt;Node12</title>
<path fill="none" stroke="midnightblue" d="M728.525,-118.85C631.028,-113.461 373.547,-98.2646 147.234,-76.0056"/>
<polygon fill="midnightblue" stroke="midnightblue" points="147.459,-72.5107 137.162,-75.0082 146.769,-79.4767 147.459,-72.5107"/>
</g>
<!-- Node13 -->
<g id="node27" class="node"><title>Node13</title>
<polygon fill="white" stroke="#bfbfbf" points="155.612,-56.5 155.612,-75.5 291.612,-75.5 291.612,-56.5 155.612,-56.5"/>
<text text-anchor="middle" x="223.612" y="-63.5" font-family="FreeSans" font-size="10.00">sundials/sundials_dense.h</text>
</g>
<!-- Node11&#45;&gt;Node13 -->
<g id="edge28" class="edge"><title>Node11&#45;&gt;Node13</title>
<path fill="none" stroke="midnightblue" d="M728.518,-117.424C649.24,-110.293 466.579,-93.562 301.94,-76.1223"/>
<polygon fill="midnightblue" stroke="midnightblue" points="301.937,-72.6024 291.624,-75.026 301.198,-79.5632 301.937,-72.6024"/>
</g>
<!-- Node14 -->
<g id="node29" class="node"><title>Node14</title>
<polygon fill="white" stroke="#bfbfbf" points="309.612,-56.5 309.612,-75.5 439.612,-75.5 439.612,-56.5 309.612,-56.5"/>
<text text-anchor="middle" x="374.612" y="-63.5" font-family="FreeSans" font-size="10.00">sundials/sundials_band.h</text>
</g>
<!-- Node11&#45;&gt;Node14 -->
<g id="edge30" class="edge"><title>Node11&#45;&gt;Node14</title>
<path fill="none" stroke="midnightblue" d="M728.299,-115.475C662.12,-106.405 529.553,-88.2356 446.846,-76.9001"/>
<polygon fill="midnightblue" stroke="midnightblue" points="447.149,-73.4089 436.766,-75.5186 446.198,-80.3441 447.149,-73.4089"/>
</g>
<!-- Node15 -->
<g id="node31" class="node"><title>Node15</title>
<polygon fill="white" stroke="#bfbfbf" points="458.112,-56.5 458.112,-75.5 589.112,-75.5 589.112,-56.5 458.112,-56.5"/>
<text text-anchor="middle" x="523.612" y="-63.5" font-family="FreeSans" font-size="10.00">sundials/sundials_types.h</text>
</g>
<!-- Node11&#45;&gt;Node15 -->
<g id="edge32" class="edge"><title>Node11&#45;&gt;Node15</title>
<path fill="none" stroke="midnightblue" d="M729.791,-112.444C687.051,-103.023 618.28,-87.8656 572.045,-77.6752"/>
<polygon fill="midnightblue" stroke="midnightblue" points="572.77,-74.251 562.251,-75.5164 571.263,-81.0869 572.77,-74.251"/>
</g>
<!-- Node16 -->
<g id="node33" class="node"><title>Node16</title>
<polygon fill="white" stroke="#bfbfbf" points="607.612,-56.5 607.612,-75.5 691.612,-75.5 691.612,-56.5 607.612,-56.5"/>
<text text-anchor="middle" x="649.612" y="-63.5" font-family="FreeSans" font-size="10.00">cvode/cvode.h</text>
</g>
<!-- Node11&#45;&gt;Node16 -->
<g id="edge34" class="edge"><title>Node11&#45;&gt;Node16</title>
<path fill="none" stroke="midnightblue" d="M749.756,-112.444C730.346,-103.636 699.882,-89.8116 677.647,-79.722"/>
<polygon fill="midnightblue" stroke="midnightblue" points="678.932,-76.4615 668.38,-75.5164 676.04,-82.836 678.932,-76.4615"/>
</g>
<!-- Node17 -->
<g id="node35" class="node"><title>Node17</title>
<polygon fill="white" stroke="#bfbfbf" points="709.612,-56.5 709.612,-75.5 827.612,-75.5 827.612,-56.5 709.612,-56.5"/>
<text text-anchor="middle" x="768.612" y="-63.5" font-family="FreeSans" font-size="10.00">cvode/cvode_dense.h</text>
</g>
<!-- Node11&#45;&gt;Node17 -->
<g id="edge36" class="edge"><title>Node11&#45;&gt;Node17</title>
<path fill="none" stroke="midnightblue" d="M768.612,-112.083C768.612,-105.006 768.612,-94.8611 768.612,-85.9865"/>
<polygon fill="midnightblue" stroke="midnightblue" points="772.112,-85.751 768.612,-75.7511 765.112,-85.7511 772.112,-85.751"/>
</g>
<!-- Node18 -->
<g id="node37" class="node"><title>Node18</title>
<polygon fill="white" stroke="#bfbfbf" points="845.612,-56.5 845.612,-75.5 957.612,-75.5 957.612,-56.5 845.612,-56.5"/>
<text text-anchor="middle" x="901.612" y="-63.5" font-family="FreeSans" font-size="10.00">cvode/cvode_band.h</text>
</g>
<!-- Node11&#45;&gt;Node18 -->
<g id="edge38" class="edge"><title>Node11&#45;&gt;Node18</title>
<path fill="none" stroke="midnightblue" d="M789.686,-112.444C811.672,-103.517 846.346,-89.4387 871.276,-79.3168"/>
<polygon fill="midnightblue" stroke="midnightblue" points="872.687,-82.5213 880.636,-75.5164 870.054,-76.0355 872.687,-82.5213"/>
</g>
<!-- Node19 -->
<g id="node39" class="node"><title>Node19</title>
<polygon fill="white" stroke="#bfbfbf" points="975.612,-56.5 975.612,-75.5 1031.61,-75.5 1031.61,-56.5 975.612,-56.5"/>
<text text-anchor="middle" x="1003.61" y="-63.5" font-family="FreeSans" font-size="10.00">ida/ida.h</text>
</g>
<!-- Node11&#45;&gt;Node19 -->
<g id="edge40" class="edge"><title>Node11&#45;&gt;Node19</title>
<path fill="none" stroke="midnightblue" d="M806.399,-112.463C846.071,-103.477 910.257,-88.8773 965.612,-76 965.711,-75.977 965.81,-75.9539 965.909,-75.9308"/>
<polygon fill="midnightblue" stroke="midnightblue" points="966.458,-79.3972 975.396,-73.7091 964.861,-72.5816 966.458,-79.3972"/>
</g>
<!-- Node20 -->
<g id="node41" class="node"><title>Node20</title>
<polygon fill="white" stroke="#bfbfbf" points="1049.11,-56.5 1049.11,-75.5 1142.11,-75.5 1142.11,-56.5 1049.11,-56.5"/>
<text text-anchor="middle" x="1095.61" y="-63.5" font-family="FreeSans" font-size="10.00">ida/ida_spbcgs.h</text>
</g>
<!-- Node11&#45;&gt;Node20 -->
<g id="edge42" class="edge"><title>Node11&#45;&gt;Node20</title>
<path fill="none" stroke="midnightblue" d="M808.708,-114.379C866.339,-104.862 972.873,-87.2688 1038.65,-76.4059"/>
<polygon fill="midnightblue" stroke="midnightblue" points="1039.55,-79.8052 1048.85,-74.7225 1038.41,-72.8987 1039.55,-79.8052"/>
</g>
<!-- Node21 -->
<g id="node45" class="node"><title>Node21</title>
<polygon fill="white" stroke="#bfbfbf" points="1160.11,-56.5 1160.11,-75.5 1203.11,-75.5 1203.11,-56.5 1160.11,-56.5"/>
<text text-anchor="middle" x="1181.61" y="-63.5" font-family="FreeSans" font-size="10.00">time.h</text>
</g>
<!-- Node11&#45;&gt;Node21 -->
<g id="edge48" class="edge"><title>Node11&#45;&gt;Node21</title>
<path fill="none" stroke="midnightblue" d="M808.827,-118.458C877.058,-113.671 1019.91,-101.597 1149.91,-75.7996"/>
<polygon fill="midnightblue" stroke="midnightblue" points="1150.93,-79.1639 1160.05,-73.7553 1149.55,-72.3022 1150.93,-79.1639"/>
</g>
</g>
</svg>
