<?xml version="1.0" encoding="UTF-8" standalone="no"?>
<!DOCTYPE svg PUBLIC "-//W3C//DTD SVG 1.1//EN"
 "http://www.w3.org/Graphics/SVG/1.1/DTD/svg11.dtd">
<!-- Generated by graphviz version 2.26.3 (20100126.1600)
 -->
<!-- Title: src/mathUtils.cpp Pages: 1 -->
<svg width="1730pt" height="204pt"
 viewBox="0.00 0.00 1730.00 204.00" xmlns="http://www.w3.org/2000/svg" xmlns:xlink="http://www.w3.org/1999/xlink">
<g id="graph1" class="graph" transform="scale(1 1) rotate(0) translate(4 200)">
<title>src/mathUtils.cpp</title>
<polygon fill="white" stroke="white" points="-4,5 -4,-200 1727,-200 1727,5 -4,5"/>
<!-- Node1 -->
<g id="node1" class="node"><title>Node1</title>
<polygon fill="#bfbfbf" stroke="black" points="803.5,-175 803.5,-195 894.5,-195 894.5,-175 803.5,-175"/>
<text text-anchor="middle" x="849" y="-182" font-family="FreeSans" font-size="10.00">src/mathUtils.cpp</text>
</g>
<!-- Node2 -->
<g id="node3" class="node"><title>Node2</title>
<a xlink:href="mathUtils_8h.html" target="_top" xlink:title="mathUtils.h">
<polygon fill="white" stroke="black" points="257.5,-117 257.5,-137 322.5,-137 322.5,-117 257.5,-117"/>
<text text-anchor="middle" x="290" y="-124" font-family="FreeSans" font-size="10.00">mathUtils.h</text>
</a>
</g>
<!-- Node1&#45;&gt;Node2 -->
<g id="edge2" class="edge"><title>Node1&#45;&gt;Node2</title>
<path fill="none" stroke="midnightblue" d="M803.255,-180.254C697.249,-169.255 435.994,-142.148 332.865,-131.448"/>
<polygon fill="midnightblue" stroke="midnightblue" points="333.12,-127.955 322.812,-130.404 332.397,-134.918 333.12,-127.955"/>
</g>
<!-- Node14 -->
<g id="node29" class="node"><title>Node14</title>
<a xlink:href="sundialsUtils_8h.html" target="_top" xlink:title="sundialsUtils.h">
<polygon fill="white" stroke="black" points="810.5,-117 810.5,-137 887.5,-137 887.5,-117 810.5,-117"/>
<text text-anchor="middle" x="849" y="-124" font-family="FreeSans" font-size="10.00">sundialsUtils.h</text>
</a>
</g>
<!-- Node1&#45;&gt;Node14 -->
<g id="edge30" class="edge"><title>Node1&#45;&gt;Node14</title>
<path fill="none" stroke="midnightblue" d="M849,-174.897C849,-167.339 849,-156.748 849,-147.446"/>
<polygon fill="midnightblue" stroke="midnightblue" points="852.5,-147.378 849,-137.378 845.5,-147.378 852.5,-147.378"/>
</g>
<!-- Node26 -->
<g id="node55" class="node"><title>Node26</title>
<polygon fill="white" stroke="#bfbfbf" points="904.5,-117 904.5,-137 943.5,-137 943.5,-117 904.5,-117"/>
<text text-anchor="middle" x="924" y="-124" font-family="FreeSans" font-size="10.00">limits</text>
</g>
<!-- Node1&#45;&gt;Node26 -->
<g id="edge58" class="edge"><title>Node1&#45;&gt;Node26</title>
<path fill="none" stroke="midnightblue" d="M862.064,-174.897C873.287,-166.218 889.683,-153.538 902.786,-143.405"/>
<polygon fill="midnightblue" stroke="midnightblue" points="905.065,-146.068 910.834,-137.182 900.782,-140.53 905.065,-146.068"/>
</g>
<!-- Node3 -->
<g id="node5" class="node"><title>Node3</title>
<polygon fill="white" stroke="#bfbfbf" points="431.5,-59 431.5,-79 474.5,-79 474.5,-59 431.5,-59"/>
<text text-anchor="middle" x="453" y="-66" font-family="FreeSans" font-size="10.00">vector</text>
</g>
<!-- Node2&#45;&gt;Node3 -->
<g id="edge4" class="edge"><title>Node2&#45;&gt;Node3</title>
<path fill="none" stroke="midnightblue" d="M318.392,-116.897C347.238,-106.633 391.805,-90.7748 421.667,-80.1492"/>
<polygon fill="midnightblue" stroke="midnightblue" points="422.938,-83.4119 431.186,-76.762 420.592,-76.8169 422.938,-83.4119"/>
</g>
<!-- Node4 -->
<g id="node7" class="node"><title>Node4</title>
<polygon fill="white" stroke="#bfbfbf" points="88,-59 88,-79 132,-79 132,-59 88,-59"/>
<text text-anchor="middle" x="110" y="-66" font-family="FreeSans" font-size="10.00">cmath</text>
</g>
<!-- Node2&#45;&gt;Node4 -->
<g id="edge6" class="edge"><title>Node2&#45;&gt;Node4</title>
<path fill="none" stroke="midnightblue" d="M258.646,-116.897C225.876,-106.338 174.732,-89.8582 141.797,-79.2458"/>
<polygon fill="midnightblue" stroke="midnightblue" points="142.793,-75.8894 132.201,-76.1537 140.646,-82.5521 142.793,-75.8894"/>
</g>
<!-- Node5 -->
<g id="node9" class="node"><title>Node5</title>
<polygon fill="white" stroke="#bfbfbf" points="443.5,-1 443.5,-21 496.5,-21 496.5,-1 443.5,-1"/>
<text text-anchor="middle" x="470" y="-8" font-family="FreeSans" font-size="10.00">iostream</text>
</g>
<!-- Node2&#45;&gt;Node5 -->
<g id="edge8" class="edge"><title>Node2&#45;&gt;Node5</title>
<path fill="none" stroke="midnightblue" d="M313.823,-116.993C333.53,-108.302 361.927,-94.8105 385,-80 409.245,-64.4371 434.579,-43.1135 451.212,-28.3072"/>
<polygon fill="midnightblue" stroke="midnightblue" points="453.984,-30.5204 459.065,-21.2235 449.295,-25.3226 453.984,-30.5204"/>
</g>
<!-- Node6 -->
<g id="node11" class="node"><title>Node6</title>
<polygon fill="white" stroke="#bfbfbf" points="188,-59 188,-79 238,-79 238,-59 188,-59"/>
<text text-anchor="middle" x="213" y="-66" font-family="FreeSans" font-size="10.00">sstream</text>
</g>
<!-- Node2&#45;&gt;Node6 -->
<g id="edge10" class="edge"><title>Node2&#45;&gt;Node6</title>
<path fill="none" stroke="midnightblue" d="M276.588,-116.897C265.065,-108.218 248.232,-95.5384 234.779,-85.4053"/>
<polygon fill="midnightblue" stroke="midnightblue" points="236.61,-82.4026 226.517,-79.1817 232.399,-87.9939 236.61,-82.4026"/>
</g>
<!-- Node7 -->
<g id="node13" class="node"><title>Node7</title>
<polygon fill="white" stroke="#bfbfbf" points="138,-1 138,-21 178,-21 178,-1 138,-1"/>
<text text-anchor="middle" x="158" y="-8" font-family="FreeSans" font-size="10.00">string</text>
</g>
<!-- Node2&#45;&gt;Node7 -->
<g id="edge12" class="edge"><title>Node2&#45;&gt;Node7</title>
<path fill="none" stroke="midnightblue" d="M257.452,-121.003C232.669,-114.803 199.44,-102.71 179,-80 166.984,-66.6503 161.841,-46.5985 159.641,-31.5461"/>
<polygon fill="midnightblue" stroke="midnightblue" points="163.072,-30.7451 158.467,-21.2037 156.117,-31.5346 163.072,-30.7451"/>
</g>
<!-- Node8 -->
<g id="node15" class="node"><title>Node8</title>
<polygon fill="white" stroke="#bfbfbf" points="341.5,-59 341.5,-79 376.5,-79 376.5,-59 341.5,-59"/>
<text text-anchor="middle" x="359" y="-66" font-family="FreeSans" font-size="10.00">map</text>
</g>
<!-- Node2&#45;&gt;Node8 -->
<g id="edge14" class="edge"><title>Node2&#45;&gt;Node8</title>
<path fill="none" stroke="midnightblue" d="M302.019,-116.897C312.183,-108.353 326.959,-95.933 338.917,-85.8813"/>
<polygon fill="midnightblue" stroke="midnightblue" points="341.251,-88.4914 346.654,-79.3776 336.747,-83.133 341.251,-88.4914"/>
</g>
<!-- Node9 -->
<g id="node17" class="node"><title>Node9</title>
<a xlink:href="debugUtils_8h.html" target="_top" xlink:title="debugUtils.h">
<polygon fill="white" stroke="black" points="255.5,-59 255.5,-79 324.5,-79 324.5,-59 255.5,-59"/>
<text text-anchor="middle" x="290" y="-66" font-family="FreeSans" font-size="10.00">debugUtils.h</text>
</a>
</g>
<!-- Node2&#45;&gt;Node9 -->
<g id="edge16" class="edge"><title>Node2&#45;&gt;Node9</title>
<path fill="none" stroke="midnightblue" d="M290,-116.897C290,-109.339 290,-98.7476 290,-89.4458"/>
<polygon fill="midnightblue" stroke="midnightblue" points="293.5,-89.3776 290,-79.3776 286.5,-89.3776 293.5,-89.3776"/>
</g>
<!-- Node13 -->
<g id="node27" class="node"><title>Node13</title>
<polygon fill="white" stroke="#bfbfbf" points="-0.5,-59 -0.5,-79 70.5,-79 70.5,-59 -0.5,-59"/>
<text text-anchor="middle" x="35" y="-66" font-family="FreeSans" font-size="10.00">Eigen/Dense</text>
</g>
<!-- Node2&#45;&gt;Node13 -->
<g id="edge28" class="edge"><title>Node2&#45;&gt;Node13</title>
<path fill="none" stroke="midnightblue" d="M257.408,-120.013C217.849,-111.473 148.86,-96.3892 80.5867,-80.3386"/>
<polygon fill="midnightblue" stroke="midnightblue" points="81.0589,-76.854 70.5224,-77.9641 79.4515,-83.6669 81.0589,-76.854"/>
</g>
<!-- Node9&#45;&gt;Node5 -->
<g id="edge20" class="edge"><title>Node9&#45;&gt;Node5</title>
<path fill="none" stroke="midnightblue" d="M321.354,-58.8972C352.663,-48.8085 400.745,-33.3154 433.694,-22.6987"/>
<polygon fill="midnightblue" stroke="midnightblue" points="434.953,-25.9701 443.398,-19.5717 432.806,-19.3074 434.953,-25.9701"/>
</g>
<!-- Node9&#45;&gt;Node7 -->
<g id="edge18" class="edge"><title>Node9&#45;&gt;Node7</title>
<path fill="none" stroke="midnightblue" d="M267.007,-58.8972C244.934,-49.1985 211.494,-34.5051 187.475,-23.9511"/>
<polygon fill="midnightblue" stroke="midnightblue" points="188.701,-20.6669 178.138,-19.8484 185.885,-27.0755 188.701,-20.6669"/>
</g>
<!-- Node10 -->
<g id="node21" class="node"><title>Node10</title>
<polygon fill="white" stroke="#bfbfbf" points="195.5,-1 195.5,-21 244.5,-21 244.5,-1 195.5,-1"/>
<text text-anchor="middle" x="220" y="-8" font-family="FreeSans" font-size="10.00">fstream</text>
</g>
<!-- Node9&#45;&gt;Node10 -->
<g id="edge22" class="edge"><title>Node9&#45;&gt;Node10</title>
<path fill="none" stroke="midnightblue" d="M277.807,-58.8972C267.495,-50.3532 252.505,-37.933 240.374,-27.8813"/>
<polygon fill="midnightblue" stroke="midnightblue" points="242.458,-25.0627 232.525,-21.3776 237.992,-30.4529 242.458,-25.0627"/>
</g>
<!-- Node11 -->
<g id="node23" class="node"><title>Node11</title>
<polygon fill="white" stroke="#bfbfbf" points="262,-1 262,-21 320,-21 320,-1 262,-1"/>
<text text-anchor="middle" x="291" y="-8" font-family="FreeSans" font-size="10.00">exception</text>
</g>
<!-- Node9&#45;&gt;Node11 -->
<g id="edge24" class="edge"><title>Node9&#45;&gt;Node11</title>
<path fill="none" stroke="midnightblue" d="M290.174,-58.8972C290.304,-51.339 290.487,-40.7476 290.647,-31.4458"/>
<polygon fill="midnightblue" stroke="midnightblue" points="294.148,-31.4365 290.821,-21.3776 287.149,-31.3157 294.148,-31.4365"/>
</g>
<!-- Node12 -->
<g id="node25" class="node"><title>Node12</title>
<polygon fill="white" stroke="#bfbfbf" points="337.5,-1 337.5,-21 426.5,-21 426.5,-1 337.5,-1"/>
<text text-anchor="middle" x="382" y="-8" font-family="FreeSans" font-size="10.00">boost/format.hpp</text>
</g>
<!-- Node9&#45;&gt;Node12 -->
<g id="edge26" class="edge"><title>Node9&#45;&gt;Node12</title>
<path fill="none" stroke="midnightblue" d="M306.025,-58.8972C320.186,-49.9698 341.059,-36.8106 357.345,-26.5431"/>
<polygon fill="midnightblue" stroke="midnightblue" points="359.257,-29.4755 365.85,-21.1817 355.524,-23.554 359.257,-29.4755"/>
</g>
<!-- Node14&#45;&gt;Node3 -->
<g id="edge52" class="edge"><title>Node14&#45;&gt;Node3</title>
<path fill="none" stroke="midnightblue" d="M810.282,-124.88C744.697,-120.676 607.631,-109.242 484.732,-80.0384"/>
<polygon fill="midnightblue" stroke="midnightblue" points="485.323,-76.5804 474.78,-77.6265 483.674,-83.3835 485.323,-76.5804"/>
</g>
<!-- Node14&#45;&gt;Node5 -->
<g id="edge50" class="edge"><title>Node14&#45;&gt;Node5</title>
<path fill="none" stroke="midnightblue" d="M843.084,-116.77C833.489,-101.214 812.962,-71.9477 787,-58 739.118,-32.2764 579.662,-18.4401 506.841,-13.3304"/>
<polygon fill="midnightblue" stroke="midnightblue" points="506.965,-9.83074 496.749,-12.6394 506.487,-16.8144 506.965,-9.83074"/>
</g>
<!-- Node15 -->
<g id="node31" class="node"><title>Node15</title>
<polygon fill="white" stroke="#bfbfbf" points="834,-59 834,-79 952,-79 952,-59 834,-59"/>
<text text-anchor="middle" x="893" y="-66" font-family="FreeSans" font-size="10.00">nvector/nvector_serial.h</text>
</g>
<!-- Node14&#45;&gt;Node15 -->
<g id="edge32" class="edge"><title>Node14&#45;&gt;Node15</title>
<path fill="none" stroke="midnightblue" d="M856.664,-116.897C862.834,-108.764 871.669,-97.1183 879.082,-87.3468"/>
<polygon fill="midnightblue" stroke="midnightblue" points="881.872,-89.4599 885.127,-79.3776 876.295,-85.2292 881.872,-89.4599"/>
</g>
<!-- Node16 -->
<g id="node33" class="node"><title>Node16</title>
<polygon fill="white" stroke="#bfbfbf" points="969.5,-59 969.5,-79 1096.5,-79 1096.5,-59 969.5,-59"/>
<text text-anchor="middle" x="1033" y="-66" font-family="FreeSans" font-size="10.00">sundials/sundials_dense.h</text>
</g>
<!-- Node14&#45;&gt;Node16 -->
<g id="edge34" class="edge"><title>Node14&#45;&gt;Node16</title>
<path fill="none" stroke="midnightblue" d="M881.05,-116.897C911.563,-107.279 957.658,-92.749 991.076,-82.2152"/>
<polygon fill="midnightblue" stroke="midnightblue" points="992.524,-85.4287 1001.01,-79.0842 990.419,-78.7525 992.524,-85.4287"/>
</g>
<!-- Node17 -->
<g id="node35" class="node"><title>Node17</title>
<polygon fill="white" stroke="#bfbfbf" points="1114,-59 1114,-79 1236,-79 1236,-59 1114,-59"/>
<text text-anchor="middle" x="1175" y="-66" font-family="FreeSans" font-size="10.00">sundials/sundials_band.h</text>
</g>
<!-- Node14&#45;&gt;Node17 -->
<g id="edge36" class="edge"><title>Node14&#45;&gt;Node17</title>
<path fill="none" stroke="midnightblue" d="M887.687,-117.742C890.496,-117.132 893.289,-116.545 896,-116 934.67,-108.226 1034.63,-91.7081 1103.75,-80.4772"/>
<polygon fill="midnightblue" stroke="midnightblue" points="1104.41,-83.9169 1113.72,-78.8602 1103.29,-77.0073 1104.41,-83.9169"/>
</g>
<!-- Node18 -->
<g id="node37" class="node"><title>Node18</title>
<polygon fill="white" stroke="#bfbfbf" points="1254,-59 1254,-79 1378,-79 1378,-59 1254,-59"/>
<text text-anchor="middle" x="1316" y="-66" font-family="FreeSans" font-size="10.00">sundials/sundials_types.h</text>
</g>
<!-- Node14&#45;&gt;Node18 -->
<g id="edge38" class="edge"><title>Node14&#45;&gt;Node18</title>
<path fill="none" stroke="midnightblue" d="M887.65,-117.544C890.468,-116.981 893.273,-116.458 896,-116 1046.48,-90.7351 1088.55,-99.5404 1243.33,-80.156"/>
<polygon fill="midnightblue" stroke="midnightblue" points="1244.21,-83.5721 1253.69,-78.8377 1243.33,-76.628 1244.21,-83.5721"/>
</g>
<!-- Node19 -->
<g id="node39" class="node"><title>Node19</title>
<polygon fill="white" stroke="#bfbfbf" points="1396,-59 1396,-79 1474,-79 1474,-59 1396,-59"/>
<text text-anchor="middle" x="1435" y="-66" font-family="FreeSans" font-size="10.00">cvode/cvode.h</text>
</g>
<!-- Node14&#45;&gt;Node19 -->
<g id="edge40" class="edge"><title>Node14&#45;&gt;Node19</title>
<path fill="none" stroke="midnightblue" d="M887.635,-117.452C890.456,-116.91 893.266,-116.417 896,-116 1109.03,-83.4672 1168.82,-111.652 1385.69,-79.9968"/>
<polygon fill="midnightblue" stroke="midnightblue" points="1386.42,-83.4262 1395.8,-78.4944 1385.39,-76.5022 1386.42,-83.4262"/>
</g>
<!-- Node20 -->
<g id="node41" class="node"><title>Node20</title>
<polygon fill="white" stroke="#bfbfbf" points="1491.5,-59 1491.5,-79 1600.5,-79 1600.5,-59 1491.5,-59"/>
<text text-anchor="middle" x="1546" y="-66" font-family="FreeSans" font-size="10.00">cvode/cvode_dense.h</text>
</g>
<!-- Node14&#45;&gt;Node20 -->
<g id="edge42" class="edge"><title>Node14&#45;&gt;Node20</title>
<path fill="none" stroke="midnightblue" d="M887.63,-117.414C890.452,-116.882 893.264,-116.401 896,-116 1151.33,-78.5645 1221.63,-109.714 1481.31,-80.0872"/>
<polygon fill="midnightblue" stroke="midnightblue" points="1481.89,-83.5433 1491.42,-78.9139 1481.08,-76.5899 1481.89,-83.5433"/>
</g>
<!-- Node21 -->
<g id="node43" class="node"><title>Node21</title>
<polygon fill="white" stroke="#bfbfbf" points="1618,-59 1618,-79 1722,-79 1722,-59 1618,-59"/>
<text text-anchor="middle" x="1670" y="-66" font-family="FreeSans" font-size="10.00">cvode/cvode_band.h</text>
</g>
<!-- Node14&#45;&gt;Node21 -->
<g id="edge44" class="edge"><title>Node14&#45;&gt;Node21</title>
<path fill="none" stroke="midnightblue" d="M887.625,-117.381C890.448,-116.856 893.262,-116.386 896,-116 1206.81,-72.1449 1291.96,-115.281 1607.46,-80.0384"/>
<polygon fill="midnightblue" stroke="midnightblue" points="1608.28,-83.468 1617.82,-78.8623 1607.49,-76.5127 1608.28,-83.468"/>
</g>
<!-- Node22 -->
<g id="node45" class="node"><title>Node22</title>
<polygon fill="white" stroke="#bfbfbf" points="491.5,-59 491.5,-79 544.5,-79 544.5,-59 491.5,-59"/>
<text text-anchor="middle" x="518" y="-66" font-family="FreeSans" font-size="10.00">ida/ida.h</text>
</g>
<!-- Node14&#45;&gt;Node22 -->
<g id="edge46" class="edge"><title>Node14&#45;&gt;Node22</title>
<path fill="none" stroke="midnightblue" d="M810.332,-122.702C755.359,-116.191 651.372,-102.398 554.585,-80.1401"/>
<polygon fill="midnightblue" stroke="midnightblue" points="555.175,-76.6837 544.641,-77.8168 553.582,-83.5001 555.175,-76.6837"/>
</g>
<!-- Node23 -->
<g id="node47" class="node"><title>Node23</title>
<polygon fill="white" stroke="#bfbfbf" points="562,-59 562,-79 650,-79 650,-59 562,-59"/>
<text text-anchor="middle" x="606" y="-66" font-family="FreeSans" font-size="10.00">ida/ida_spbcgs.h</text>
</g>
<!-- Node14&#45;&gt;Node23 -->
<g id="edge48" class="edge"><title>Node14&#45;&gt;Node23</title>
<path fill="none" stroke="midnightblue" d="M810.496,-117.81C769.227,-107.96 703.488,-92.2688 657.726,-81.3461"/>
<polygon fill="midnightblue" stroke="midnightblue" points="658.532,-77.9402 647.993,-79.0229 656.907,-84.749 658.532,-77.9402"/>
</g>
<!-- Node24 -->
<g id="node51" class="node"><title>Node24</title>
<polygon fill="white" stroke="#bfbfbf" points="667.5,-59 667.5,-79 710.5,-79 710.5,-59 667.5,-59"/>
<text text-anchor="middle" x="689" y="-66" font-family="FreeSans" font-size="10.00">time.h</text>
</g>
<!-- Node14&#45;&gt;Node24 -->
<g id="edge54" class="edge"><title>Node14&#45;&gt;Node24</title>
<path fill="none" stroke="midnightblue" d="M821.092,-116.951C796.712,-108.164 760.124,-94.9552 720.269,-80.4537"/>
<polygon fill="midnightblue" stroke="midnightblue" points="721.22,-77.075 710.626,-76.9427 718.825,-83.6526 721.22,-77.075"/>
</g>
<!-- Node25 -->
<g id="node53" class="node"><title>Node25</title>
<a xlink:href="config_8h.html" target="_top" xlink:title="config.h">
<polygon fill="white" stroke="black" points="728,-59 728,-79 778,-79 778,-59 728,-59"/>
<text text-anchor="middle" x="753" y="-66" font-family="FreeSans" font-size="10.00">config.h</text>
</a>
</g>
<!-- Node14&#45;&gt;Node25 -->
<g id="edge56" class="edge"><title>Node14&#45;&gt;Node25</title>
<path fill="none" stroke="midnightblue" d="M832.278,-116.897C817.502,-107.97 795.721,-94.8106 778.726,-84.5431"/>
<polygon fill="midnightblue" stroke="midnightblue" points="780.221,-81.3572 769.852,-79.1817 776.602,-87.3486 780.221,-81.3572"/>
</g>
</g>
</svg>
