<?xml version="1.0" encoding="UTF-8" standalone="no"?>
<!DOCTYPE svg PUBLIC "-//W3C//DTD SVG 1.1//EN"
 "http://www.w3.org/Graphics/SVG/1.1/DTD/svg11.dtd">
<!-- Generated by graphviz version 2.28.0 (20120425.2022)
 -->
<!-- Title: src/mathUtils.cpp Pages: 1 -->
<svg width="1720pt" height="196pt"
 viewBox="0.00 0.00 1719.67 196.00" xmlns="http://www.w3.org/2000/svg" xmlns:xlink="http://www.w3.org/1999/xlink">
<g id="graph1" class="graph" transform="scale(1 1) rotate(0) translate(4 192)">
<title>src/mathUtils.cpp</title>
<polygon fill="white" stroke="white" points="-4,5 -4,-192 1716.67,-192 1716.67,5 -4,5"/>
<!-- Node1 -->
<g id="node1" class="node"><title>Node1</title>
<polygon fill="#bfbfbf" stroke="black" points="783.674,-168.5 783.674,-187.5 875.674,-187.5 875.674,-168.5 783.674,-168.5"/>
<text text-anchor="middle" x="829.674" y="-175.5" font-family="FreeSans" font-size="10.00">src/mathUtils.cpp</text>
</g>
<!-- Node2 -->
<g id="node3" class="node"><title>Node2</title>
<a xlink:href="mathUtils_8h.html" target="_top" xlink:title="mathUtils.h">
<polygon fill="white" stroke="black" points="253.174,-112.5 253.174,-131.5 318.174,-131.5 318.174,-112.5 253.174,-112.5"/>
<text text-anchor="middle" x="285.674" y="-119.5" font-family="FreeSans" font-size="10.00">mathUtils.h</text>
</a>
</g>
<!-- Node1&#45;&gt;Node2 -->
<g id="edge2" class="edge"><title>Node1&#45;&gt;Node2</title>
<path fill="none" stroke="midnightblue" d="M783.293,-172.396C679.314,-162.075 428.834,-137.211 328.395,-127.241"/>
<polygon fill="midnightblue" stroke="midnightblue" points="328.605,-123.744 318.308,-126.239 327.913,-130.71 328.605,-123.744"/>
</g>
<!-- Node11 -->
<g id="node23" class="node"><title>Node11</title>
<a xlink:href="sundialsUtils_8h.html" target="_top" xlink:title="sundialsUtils.h">
<polygon fill="white" stroke="black" points="789.674,-112.5 789.674,-131.5 869.674,-131.5 869.674,-112.5 789.674,-112.5"/>
<text text-anchor="middle" x="829.674" y="-119.5" font-family="FreeSans" font-size="10.00">sundialsUtils.h</text>
</a>
</g>
<!-- Node1&#45;&gt;Node11 -->
<g id="edge24" class="edge"><title>Node1&#45;&gt;Node11</title>
<path fill="none" stroke="midnightblue" d="M829.674,-168.083C829.674,-161.006 829.674,-150.861 829.674,-141.986"/>
<polygon fill="midnightblue" stroke="midnightblue" points="833.174,-141.751 829.674,-131.751 826.174,-141.751 833.174,-141.751"/>
</g>
<!-- Node22 -->
<g id="node47" class="node"><title>Node22</title>
<polygon fill="white" stroke="#bfbfbf" points="888.174,-112.5 888.174,-131.5 927.174,-131.5 927.174,-112.5 888.174,-112.5"/>
<text text-anchor="middle" x="907.674" y="-119.5" font-family="FreeSans" font-size="10.00">limits</text>
</g>
<!-- Node1&#45;&gt;Node22 -->
<g id="edge50" class="edge"><title>Node1&#45;&gt;Node22</title>
<path fill="none" stroke="midnightblue" d="M842.206,-168.324C854.26,-159.979 872.701,-147.212 886.943,-137.352"/>
<polygon fill="midnightblue" stroke="midnightblue" points="888.944,-140.224 895.173,-131.655 884.959,-134.469 888.944,-140.224"/>
</g>
<!-- Node3 -->
<g id="node5" class="node"><title>Node3</title>
<polygon fill="white" stroke="#bfbfbf" points="422.674,-56.5 422.674,-75.5 466.674,-75.5 466.674,-56.5 422.674,-56.5"/>
<text text-anchor="middle" x="444.674" y="-63.5" font-family="FreeSans" font-size="10.00">vector</text>
</g>
<!-- Node2&#45;&gt;Node3 -->
<g id="edge4" class="edge"><title>Node2&#45;&gt;Node3</title>
<path fill="none" stroke="midnightblue" d="M310.868,-112.444C338.561,-103.038 383.094,-87.9142 413.097,-77.7242"/>
<polygon fill="midnightblue" stroke="midnightblue" points="414.327,-81.003 422.67,-74.473 412.076,-74.3748 414.327,-81.003"/>
</g>
<!-- Node4 -->
<g id="node7" class="node"><title>Node4</title>
<polygon fill="white" stroke="#bfbfbf" points="107.674,-56.5 107.674,-75.5 151.674,-75.5 151.674,-56.5 107.674,-56.5"/>
<text text-anchor="middle" x="129.674" y="-63.5" font-family="FreeSans" font-size="10.00">cmath</text>
</g>
<!-- Node2&#45;&gt;Node4 -->
<g id="edge6" class="edge"><title>Node2&#45;&gt;Node4</title>
<path fill="none" stroke="midnightblue" d="M260.956,-112.444C234.057,-103.133 190.966,-88.2163 161.543,-78.0315"/>
<polygon fill="midnightblue" stroke="midnightblue" points="162.35,-74.607 151.755,-74.6433 160.06,-81.222 162.35,-74.607"/>
</g>
<!-- Node5 -->
<g id="node9" class="node"><title>Node5</title>
<polygon fill="white" stroke="#bfbfbf" points="366.674,-0.5 366.674,-19.5 422.674,-19.5 422.674,-0.5 366.674,-0.5"/>
<text text-anchor="middle" x="394.674" y="-7.5" font-family="FreeSans" font-size="10.00">iostream</text>
</g>
<!-- Node2&#45;&gt;Node5 -->
<g id="edge8" class="edge"><title>Node2&#45;&gt;Node5</title>
<path fill="none" stroke="midnightblue" d="M316.855,-112.476C336.356,-105.626 360.558,-94.1018 375.674,-76 386.615,-62.898 391.258,-43.7503 393.226,-29.6286"/>
<polygon fill="midnightblue" stroke="midnightblue" points="396.716,-29.9082 394.301,-19.5923 389.756,-29.1627 396.716,-29.9082"/>
</g>
<!-- Node6 -->
<g id="node11" class="node"><title>Node6</title>
<polygon fill="white" stroke="#bfbfbf" points="259.174,-56.5 259.174,-75.5 312.174,-75.5 312.174,-56.5 259.174,-56.5"/>
<text text-anchor="middle" x="285.674" y="-63.5" font-family="FreeSans" font-size="10.00">sstream</text>
</g>
<!-- Node2&#45;&gt;Node6 -->
<g id="edge10" class="edge"><title>Node2&#45;&gt;Node6</title>
<path fill="none" stroke="midnightblue" d="M285.674,-112.083C285.674,-105.006 285.674,-94.8611 285.674,-85.9865"/>
<polygon fill="midnightblue" stroke="midnightblue" points="289.174,-85.751 285.674,-75.7511 282.174,-85.7511 289.174,-85.751"/>
</g>
<!-- Node7 -->
<g id="node13" class="node"><title>Node7</title>
<polygon fill="white" stroke="#bfbfbf" points="76.1743,-0.5 76.1743,-19.5 117.174,-19.5 117.174,-0.5 76.1743,-0.5"/>
<text text-anchor="middle" x="96.6743" y="-7.5" font-family="FreeSans" font-size="10.00">string</text>
</g>
<!-- Node2&#45;&gt;Node7 -->
<g id="edge12" class="edge"><title>Node2&#45;&gt;Node7</title>
<path fill="none" stroke="midnightblue" d="M252.924,-120.813C185.983,-119.662 37.1283,-112.913 5.67431,-76 -15.9295,-50.6469 32.2944,-30.0822 66.4556,-19.2746"/>
<polygon fill="midnightblue" stroke="midnightblue" points="67.5214,-22.6089 76.0802,-16.3641 65.4952,-15.9085 67.5214,-22.6089"/>
</g>
<!-- Node8 -->
<g id="node15" class="node"><title>Node8</title>
<polygon fill="white" stroke="#bfbfbf" points="330.674,-56.5 330.674,-75.5 366.674,-75.5 366.674,-56.5 330.674,-56.5"/>
<text text-anchor="middle" x="348.674" y="-63.5" font-family="FreeSans" font-size="10.00">map</text>
</g>
<!-- Node2&#45;&gt;Node8 -->
<g id="edge14" class="edge"><title>Node2&#45;&gt;Node8</title>
<path fill="none" stroke="midnightblue" d="M295.796,-112.324C305.201,-104.263 319.418,-92.0765 330.743,-82.3695"/>
<polygon fill="midnightblue" stroke="midnightblue" points="333.053,-84.9993 338.368,-75.8339 328.498,-79.6844 333.053,-84.9993"/>
</g>
<!-- Node9 -->
<g id="node17" class="node"><title>Node9</title>
<a xlink:href="debugUtils_8h.html" target="_top" xlink:title="debugUtils.h">
<polygon fill="white" stroke="red" points="170.174,-56.5 170.174,-75.5 241.174,-75.5 241.174,-56.5 170.174,-56.5"/>
<text text-anchor="middle" x="205.674" y="-63.5" font-family="FreeSans" font-size="10.00">debugUtils.h</text>
</a>
</g>
<!-- Node2&#45;&gt;Node9 -->
<g id="edge16" class="edge"><title>Node2&#45;&gt;Node9</title>
<path fill="none" stroke="midnightblue" d="M272.821,-112.324C260.458,-103.979 241.544,-91.2122 226.937,-81.3524"/>
<polygon fill="midnightblue" stroke="midnightblue" points="228.742,-78.3483 218.496,-75.6545 224.826,-84.1503 228.742,-78.3483"/>
</g>
<!-- Node10 -->
<g id="node21" class="node"><title>Node10</title>
<polygon fill="white" stroke="#bfbfbf" points="15.1743,-56.5 15.1743,-75.5 90.1743,-75.5 90.1743,-56.5 15.1743,-56.5"/>
<text text-anchor="middle" x="52.6743" y="-63.5" font-family="FreeSans" font-size="10.00">Eigen/Dense</text>
</g>
<!-- Node2&#45;&gt;Node10 -->
<g id="edge22" class="edge"><title>Node2&#45;&gt;Node10</title>
<path fill="none" stroke="midnightblue" d="M252.785,-113.378C212.784,-104.107 144.986,-88.3942 99.5328,-77.8599"/>
<polygon fill="midnightblue" stroke="midnightblue" points="100.157,-74.4119 89.625,-75.5637 98.5766,-81.2311 100.157,-74.4119"/>
</g>
<!-- Node9&#45;&gt;Node5 -->
<g id="edge20" class="edge"><title>Node9&#45;&gt;Node5</title>
<path fill="none" stroke="midnightblue" d="M235.622,-56.4435C268.306,-47.1053 320.724,-32.1287 356.377,-21.9421"/>
<polygon fill="midnightblue" stroke="midnightblue" points="357.757,-25.1881 366.41,-19.0755 355.833,-18.4574 357.757,-25.1881"/>
</g>
<!-- Node9&#45;&gt;Node7 -->
<g id="edge18" class="edge"><title>Node9&#45;&gt;Node7</title>
<path fill="none" stroke="midnightblue" d="M188.162,-56.324C170.602,-47.6247 143.343,-34.1202 123.143,-24.113"/>
<polygon fill="midnightblue" stroke="midnightblue" points="124.658,-20.9575 114.144,-19.6545 121.551,-27.23 124.658,-20.9575"/>
</g>
<!-- Node11&#45;&gt;Node3 -->
<g id="edge46" class="edge"><title>Node11&#45;&gt;Node3</title>
<path fill="none" stroke="midnightblue" d="M789.658,-117.374C724.536,-111.131 591.732,-96.968 480.674,-76 479.428,-75.7647 478.16,-75.5123 476.882,-75.247"/>
<polygon fill="midnightblue" stroke="midnightblue" points="477.579,-71.8163 467.054,-73.0243 476.035,-78.6439 477.579,-71.8163"/>
</g>
<!-- Node11&#45;&gt;Node5 -->
<g id="edge44" class="edge"><title>Node11&#45;&gt;Node5</title>
<path fill="none" stroke="midnightblue" d="M789.468,-119.852C728.397,-117.098 609.255,-107.748 513.674,-76 508.693,-74.3453 452.869,-43.4338 419.48,-24.8435"/>
<polygon fill="midnightblue" stroke="midnightblue" points="420.758,-21.5487 410.319,-19.7384 417.35,-27.6634 420.758,-21.5487"/>
</g>
<!-- Node12 -->
<g id="node25" class="node"><title>Node12</title>
<polygon fill="white" stroke="#bfbfbf" points="768.174,-56.5 768.174,-75.5 891.174,-75.5 891.174,-56.5 768.174,-56.5"/>
<text text-anchor="middle" x="829.674" y="-63.5" font-family="FreeSans" font-size="10.00">nvector/nvector_serial.h</text>
</g>
<!-- Node11&#45;&gt;Node12 -->
<g id="edge26" class="edge"><title>Node11&#45;&gt;Node12</title>
<path fill="none" stroke="midnightblue" d="M829.674,-112.083C829.674,-105.006 829.674,-94.8611 829.674,-85.9865"/>
<polygon fill="midnightblue" stroke="midnightblue" points="833.174,-85.751 829.674,-75.7511 826.174,-85.7511 833.174,-85.751"/>
</g>
<!-- Node13 -->
<g id="node27" class="node"><title>Node13</title>
<polygon fill="white" stroke="#bfbfbf" points="909.674,-56.5 909.674,-75.5 1045.67,-75.5 1045.67,-56.5 909.674,-56.5"/>
<text text-anchor="middle" x="977.674" y="-63.5" font-family="FreeSans" font-size="10.00">sundials/sundials_dense.h</text>
</g>
<!-- Node11&#45;&gt;Node13 -->
<g id="edge28" class="edge"><title>Node11&#45;&gt;Node13</title>
<path fill="none" stroke="midnightblue" d="M853.125,-112.444C877.807,-103.438 916.86,-89.1891 944.651,-79.049"/>
<polygon fill="midnightblue" stroke="midnightblue" points="946.138,-82.2321 954.333,-75.5164 943.739,-75.6561 946.138,-82.2321"/>
</g>
<!-- Node14 -->
<g id="node29" class="node"><title>Node14</title>
<polygon fill="white" stroke="#bfbfbf" points="1063.67,-56.5 1063.67,-75.5 1193.67,-75.5 1193.67,-56.5 1063.67,-56.5"/>
<text text-anchor="middle" x="1128.67" y="-63.5" font-family="FreeSans" font-size="10.00">sundials/sundials_band.h</text>
</g>
<!-- Node11&#45;&gt;Node14 -->
<g id="edge30" class="edge"><title>Node11&#45;&gt;Node14</title>
<path fill="none" stroke="midnightblue" d="M869.689,-113.773C921.586,-104.401 1012.45,-87.9904 1071.58,-77.3111"/>
<polygon fill="midnightblue" stroke="midnightblue" points="1072.29,-80.7393 1081.51,-75.5177 1071.05,-73.8508 1072.29,-80.7393"/>
</g>
<!-- Node15 -->
<g id="node31" class="node"><title>Node15</title>
<polygon fill="white" stroke="#bfbfbf" points="1212.17,-56.5 1212.17,-75.5 1343.17,-75.5 1343.17,-56.5 1212.17,-56.5"/>
<text text-anchor="middle" x="1277.67" y="-63.5" font-family="FreeSans" font-size="10.00">sundials/sundials_types.h</text>
</g>
<!-- Node11&#45;&gt;Node15 -->
<g id="edge32" class="edge"><title>Node11&#45;&gt;Node15</title>
<path fill="none" stroke="midnightblue" d="M869.753,-113.542C873.105,-112.992 876.445,-112.47 879.674,-112 1019.4,-91.6612 1057.49,-92.5529 1201.72,-76.0957"/>
<polygon fill="midnightblue" stroke="midnightblue" points="1202.29,-79.5525 1211.83,-74.9334 1201.49,-72.5983 1202.29,-79.5525"/>
</g>
<!-- Node16 -->
<g id="node33" class="node"><title>Node16</title>
<polygon fill="white" stroke="#bfbfbf" points="1361.67,-56.5 1361.67,-75.5 1445.67,-75.5 1445.67,-56.5 1361.67,-56.5"/>
<text text-anchor="middle" x="1403.67" y="-63.5" font-family="FreeSans" font-size="10.00">cvode/cvode.h</text>
</g>
<!-- Node11&#45;&gt;Node16 -->
<g id="edge34" class="edge"><title>Node11&#45;&gt;Node16</title>
<path fill="none" stroke="midnightblue" d="M869.736,-113.418C873.091,-112.896 876.437,-112.414 879.674,-112 1085.1,-85.7467 1141.15,-101.46 1351.31,-75.9048"/>
<polygon fill="midnightblue" stroke="midnightblue" points="1351.94,-79.3539 1361.44,-74.6564 1351.09,-72.4065 1351.94,-79.3539"/>
</g>
<!-- Node17 -->
<g id="node35" class="node"><title>Node17</title>
<polygon fill="white" stroke="#bfbfbf" points="1463.67,-56.5 1463.67,-75.5 1581.67,-75.5 1581.67,-56.5 1463.67,-56.5"/>
<text text-anchor="middle" x="1522.67" y="-63.5" font-family="FreeSans" font-size="10.00">cvode/cvode_dense.h</text>
</g>
<!-- Node11&#45;&gt;Node17 -->
<g id="edge36" class="edge"><title>Node11&#45;&gt;Node17</title>
<path fill="none" stroke="midnightblue" d="M869.73,-113.37C873.087,-112.858 876.434,-112.392 879.674,-112 1130.22,-81.6973 1197.54,-100.064 1453.64,-75.9215"/>
<polygon fill="midnightblue" stroke="midnightblue" points="1453.99,-79.404 1463.61,-74.9689 1453.32,-72.4357 1453.99,-79.404"/>
</g>
<!-- Node18 -->
<g id="node37" class="node"><title>Node18</title>
<polygon fill="white" stroke="#bfbfbf" points="1599.67,-56.5 1599.67,-75.5 1711.67,-75.5 1711.67,-56.5 1599.67,-56.5"/>
<text text-anchor="middle" x="1655.67" y="-63.5" font-family="FreeSans" font-size="10.00">cvode/cvode_band.h</text>
</g>
<!-- Node11&#45;&gt;Node18 -->
<g id="edge38" class="edge"><title>Node11&#45;&gt;Node18</title>
<path fill="none" stroke="midnightblue" d="M869.725,-113.327C873.083,-112.825 876.432,-112.372 879.674,-112 1190.64,-76.2884 1273.89,-105.093 1588.99,-76.0717"/>
<polygon fill="midnightblue" stroke="midnightblue" points="1589.71,-79.5201 1599.34,-75.1057 1589.06,-72.5504 1589.71,-79.5201"/>
</g>
<!-- Node19 -->
<g id="node39" class="node"><title>Node19</title>
<polygon fill="white" stroke="#bfbfbf" points="522.674,-56.5 522.674,-75.5 578.674,-75.5 578.674,-56.5 522.674,-56.5"/>
<text text-anchor="middle" x="550.674" y="-63.5" font-family="FreeSans" font-size="10.00">ida/ida.h</text>
</g>
<!-- Node11&#45;&gt;Node19 -->
<g id="edge40" class="edge"><title>Node11&#45;&gt;Node19</title>
<path fill="none" stroke="midnightblue" d="M789.29,-114.187C743.111,-106.243 665.027,-92.3419 588.701,-76.1314"/>
<polygon fill="midnightblue" stroke="midnightblue" points="589.43,-72.7084 578.92,-74.0391 587.966,-79.5535 589.43,-72.7084"/>
</g>
<!-- Node20 -->
<g id="node41" class="node"><title>Node20</title>
<polygon fill="white" stroke="#bfbfbf" points="596.174,-56.5 596.174,-75.5 689.174,-75.5 689.174,-56.5 596.174,-56.5"/>
<text text-anchor="middle" x="642.674" y="-63.5" font-family="FreeSans" font-size="10.00">ida/ida_spbcgs.h</text>
</g>
<!-- Node11&#45;&gt;Node20 -->
<g id="edge42" class="edge"><title>Node11&#45;&gt;Node20</title>
<path fill="none" stroke="midnightblue" d="M800.044,-112.444C768.174,-103.241 717.342,-88.5617 682.11,-78.3879"/>
<polygon fill="midnightblue" stroke="midnightblue" points="682.745,-74.9282 672.166,-75.5164 680.803,-81.6534 682.745,-74.9282"/>
</g>
<!-- Node21 -->
<g id="node45" class="node"><title>Node21</title>
<polygon fill="white" stroke="#bfbfbf" points="707.174,-56.5 707.174,-75.5 750.174,-75.5 750.174,-56.5 707.174,-56.5"/>
<text text-anchor="middle" x="728.674" y="-63.5" font-family="FreeSans" font-size="10.00">time.h</text>
</g>
<!-- Node11&#45;&gt;Node21 -->
<g id="edge48" class="edge"><title>Node11&#45;&gt;Node21</title>
<path fill="none" stroke="midnightblue" d="M813.447,-112.324C797.323,-103.703 772.374,-90.3643 753.71,-80.3855"/>
<polygon fill="midnightblue" stroke="midnightblue" points="755.33,-77.283 744.861,-75.6545 752.03,-83.456 755.33,-77.283"/>
</g>
</g>
</svg>
