<?xml version="1.0" encoding="UTF-8" standalone="no"?>
<!DOCTYPE svg PUBLIC "-//W3C//DTD SVG 1.1//EN"
 "http://www.w3.org/Graphics/SVG/1.1/DTD/svg11.dtd">
<!-- Generated by graphviz version 8.1.0 (20230707.2238)
 -->
<!-- Title: src/mathUtils.h Pages: 1 -->
<svg width="1493pt" height="313pt"
 viewBox="0.00 0.00 1492.82 312.50" xmlns="http://www.w3.org/2000/svg" xmlns:xlink="http://www.w3.org/1999/xlink">
<g id="graph0" class="graph" transform="scale(1 1) rotate(0) translate(4 308.5)">
<title>src/mathUtils.h</title>
<!-- Node1 -->
<g id="Node000001" class="node">
<title>Node1</title>
<g id="a_Node000001"><a xlink:title=" ">
<polygon fill="#999999" stroke="#666666" points="736.45,-304.5 646.2,-304.5 646.2,-283.75 736.45,-283.75 736.45,-304.5"/>
<text text-anchor="middle" x="691.32" y="-291" font-family="FreeSans" font-size="10.00">src/mathUtils.h</text>
</a>
</g>
</g>
<!-- Node2 -->
<g id="Node000002" class="node">
<title>Node2</title>
<g id="a_Node000002"><a xlink:href="callback_8h.html" target="_top" xlink:title=" ">
<polygon fill="white" stroke="#666666" points="155.7,-247.75 72.95,-247.75 72.95,-227 155.7,-227 155.7,-247.75"/>
<text text-anchor="middle" x="114.32" y="-234.25" font-family="FreeSans" font-size="10.00">src/callback.h</text>
</a>
</g>
</g>
<!-- Node1&#45;&gt;Node2 -->
<g id="edge1_Node000001_Node000002" class="edge">
<title>Node1&#45;&gt;Node2</title>
<g id="a_edge1_Node000001_Node000002"><a xlink:title=" ">
<path fill="none" stroke="#63b8ff" d="M635.34,-287.81C519.91,-276.86 257.72,-251.98 155.87,-242.32"/>
<polygon fill="#63b8ff" stroke="#63b8ff" points="634.76,-291.37 645.04,-288.83 635.42,-284.4 634.76,-291.37"/>
</a>
</g>
</g>
<!-- Node6 -->
<g id="Node000006" class="node">
<title>Node6</title>
<g id="a_Node000006"><a xlink:href="sourceSystem_8h.html" target="_top" xlink:title=" ">
<polygon fill="white" stroke="#666666" points="478.95,-191 367.7,-191 367.7,-170.25 478.95,-170.25 478.95,-191"/>
<text text-anchor="middle" x="423.32" y="-177.5" font-family="FreeSans" font-size="10.00">src/sourceSystem.h</text>
</a>
</g>
</g>
<!-- Node1&#45;&gt;Node6 -->
<g id="edge52_Node000001_Node000006" class="edge">
<title>Node1&#45;&gt;Node6</title>
<g id="a_edge52_Node000001_Node000006"><a xlink:title=" ">
<path fill="none" stroke="#63b8ff" d="M635.37,-281.04C604.31,-273.38 565.38,-262.19 532.32,-247.75 495.81,-231.81 456.75,-205.59 436.78,-191.43"/>
<polygon fill="#63b8ff" stroke="#63b8ff" points="634.46,-284.67 645,-283.6 636.1,-277.86 634.46,-284.67"/>
</a>
</g>
</g>
<!-- Node8 -->
<g id="Node000008" class="node">
<title>Node8</title>
<g id="a_Node000008"><a xlink:href="chemistry0d_8h.html" target="_top" xlink:title=" ">
<polygon fill="white" stroke="#666666" points="1109.82,-191 1006.82,-191 1006.82,-170.25 1109.82,-170.25 1109.82,-191"/>
<text text-anchor="middle" x="1058.32" y="-177.5" font-family="FreeSans" font-size="10.00">src/chemistry0d.h</text>
</a>
</g>
</g>
<!-- Node1&#45;&gt;Node8 -->
<g id="edge8_Node000001_Node000008" class="edge">
<title>Node1&#45;&gt;Node8</title>
<g id="a_edge8_Node000001_Node000008"><a xlink:title=" ">
<path fill="none" stroke="#63b8ff" d="M733.94,-280.18C808.2,-257.61 959.7,-211.59 1026.02,-191.44"/>
<polygon fill="#63b8ff" stroke="#63b8ff" points="733.12,-277.07 724.57,-283.33 735.15,-283.77 733.12,-277.07"/>
</a>
</g>
</g>
<!-- Node11 -->
<g id="Node000011" class="node">
<title>Node11</title>
<g id="a_Node000011"><a xlink:href="convectionSystem_8h.html" target="_top" xlink:title=" ">
<polygon fill="white" stroke="#666666" points="782.45,-134.25 650.2,-134.25 650.2,-113.5 782.45,-113.5 782.45,-134.25"/>
<text text-anchor="middle" x="716.32" y="-120.75" font-family="FreeSans" font-size="10.00">src/convectionSystem.h</text>
</a>
</g>
</g>
<!-- Node1&#45;&gt;Node11 -->
<g id="edge13_Node000001_Node000011" class="edge">
<title>Node1&#45;&gt;Node11</title>
<g id="a_edge13_Node000001_Node000011"><a xlink:title=" ">
<path fill="none" stroke="#63b8ff" d="M722.05,-277.79C733.42,-270.39 745.05,-260.36 751.32,-247.75 770.98,-208.23 738.93,-155.9 723.68,-134.56"/>
<polygon fill="#63b8ff" stroke="#63b8ff" points="720.49,-275.24 713.69,-283.38 724.08,-281.25 720.49,-275.24"/>
</a>
</g>
</g>
<!-- Node12 -->
<g id="Node000012" class="node">
<title>Node12</title>
<g id="a_Node000012"><a xlink:href="diffusionSystem_8h.html" target="_top" xlink:title=" ">
<polygon fill="white" stroke="#666666" points="374.82,-134.25 253.82,-134.25 253.82,-113.5 374.82,-113.5 374.82,-134.25"/>
<text text-anchor="middle" x="314.32" y="-120.75" font-family="FreeSans" font-size="10.00">src/diffusionSystem.h</text>
</a>
</g>
</g>
<!-- Node1&#45;&gt;Node12 -->
<g id="edge16_Node000001_Node000012" class="edge">
<title>Node1&#45;&gt;Node12</title>
<g id="a_edge16_Node000001_Node000012"><a xlink:title=" ">
<path fill="none" stroke="#63b8ff" d="M634.94,-293.84C500.69,-294.77 165.72,-292.41 64.32,-247.75 30.73,-232.95 18.84,-224.71 4.32,-191 0.67,-182.53 -1.71,-177.23 4.32,-170.25 12.41,-160.89 165.68,-141.9 253.62,-131.71"/>
<polygon fill="#63b8ff" stroke="#63b8ff" points="634.81,-297.33 644.78,-293.75 634.75,-290.33 634.81,-297.33"/>
</a>
</g>
</g>
<!-- Node14 -->
<g id="Node000014" class="node">
<title>Node14</title>
<g id="a_Node000014"><a xlink:href="integrator_8h.html" target="_top" xlink:title=" ">
<polygon fill="white" stroke="#666666" points="215.07,-191 125.57,-191 125.57,-170.25 215.07,-170.25 215.07,-191"/>
<text text-anchor="middle" x="170.32" y="-177.5" font-family="FreeSans" font-size="10.00">src/integrator.h</text>
</a>
</g>
</g>
<!-- Node1&#45;&gt;Node14 -->
<g id="edge19_Node000001_Node000014" class="edge">
<title>Node1&#45;&gt;Node14</title>
<g id="a_edge19_Node000001_Node000014"><a xlink:title=" ">
<path fill="none" stroke="#63b8ff" d="M635.36,-288.81C569.22,-282.93 456.15,-270.45 361.32,-247.75 299.38,-232.92 229.26,-205.88 193.7,-191.4"/>
<polygon fill="#63b8ff" stroke="#63b8ff" points="634.7,-292.35 644.96,-289.73 635.3,-285.38 634.7,-292.35"/>
</a>
</g>
</g>
<!-- Node16 -->
<g id="Node000016" class="node">
<title>Node16</title>
<g id="a_Node000016"><a xlink:href="mathUtils_8cpp.html" target="_top" xlink:title=" ">
<polygon fill="white" stroke="#666666" points="742.07,-247.75 640.57,-247.75 640.57,-227 742.07,-227 742.07,-247.75"/>
<text text-anchor="middle" x="691.32" y="-234.25" font-family="FreeSans" font-size="10.00">src/mathUtils.cpp</text>
</a>
</g>
</g>
<!-- Node1&#45;&gt;Node16 -->
<g id="edge23_Node000001_Node000016" class="edge">
<title>Node1&#45;&gt;Node16</title>
<g id="a_edge23_Node000001_Node000016"><a xlink:title=" ">
<path fill="none" stroke="#63b8ff" d="M691.32,-272.46C691.32,-264.09 691.32,-254.83 691.32,-248.08"/>
<polygon fill="#63b8ff" stroke="#63b8ff" points="687.82,-272.34 691.32,-282.34 694.82,-272.34 687.82,-272.34"/>
</a>
</g>
</g>
<!-- Node17 -->
<g id="Node000017" class="node">
<title>Node17</title>
<g id="a_Node000017"><a xlink:href="qssintegrator_8h.html" target="_top" xlink:title=" ">
<polygon fill="white" stroke="#666666" points="476.32,-247.75 370.32,-247.75 370.32,-227 476.32,-227 476.32,-247.75"/>
<text text-anchor="middle" x="423.32" y="-234.25" font-family="FreeSans" font-size="10.00">src/qssintegrator.h</text>
</a>
</g>
</g>
<!-- Node1&#45;&gt;Node17 -->
<g id="edge24_Node000001_Node000017" class="edge">
<title>Node1&#45;&gt;Node17</title>
<g id="a_edge24_Node000001_Node000017"><a xlink:title=" ">
<path fill="none" stroke="#63b8ff" d="M635.22,-281.66C586.69,-271.75 517.26,-257.57 471.27,-248.17"/>
<polygon fill="#63b8ff" stroke="#63b8ff" points="634.36,-285.26 644.86,-283.84 635.76,-278.41 634.36,-285.26"/>
</a>
</g>
</g>
<!-- Node19 -->
<g id="Node000019" class="node">
<title>Node19</title>
<g id="a_Node000019"><a xlink:href="quasi2d_8h.html" target="_top" xlink:title=" ">
<polygon fill="white" stroke="#666666" points="621.57,-247.75 541.07,-247.75 541.07,-227 621.57,-227 621.57,-247.75"/>
<text text-anchor="middle" x="581.32" y="-234.25" font-family="FreeSans" font-size="10.00">src/quasi2d.h</text>
</a>
</g>
</g>
<!-- Node1&#45;&gt;Node19 -->
<g id="edge27_Node000001_Node000019" class="edge">
<title>Node1&#45;&gt;Node19</title>
<g id="a_edge27_Node000001_Node000019"><a xlink:title=" ">
<path fill="none" stroke="#63b8ff" d="M661.83,-278.45C642.48,-268.82 617.74,-256.5 600.82,-248.08"/>
<polygon fill="#63b8ff" stroke="#63b8ff" points="660.14,-282.01 670.65,-283.34 663.26,-275.75 660.14,-282.01"/>
</a>
</g>
</g>
<!-- Node21 -->
<g id="Node000021" class="node">
<title>Node21</title>
<g id="a_Node000021"><a xlink:href="readConfig_8h.html" target="_top" xlink:title=" ">
<polygon fill="white" stroke="#666666" points="1145.7,-247.75 1050.95,-247.75 1050.95,-227 1145.7,-227 1145.7,-247.75"/>
<text text-anchor="middle" x="1098.32" y="-234.25" font-family="FreeSans" font-size="10.00">src/readConfig.h</text>
</a>
</g>
</g>
<!-- Node1&#45;&gt;Node21 -->
<g id="edge32_Node000001_Node000021" class="edge">
<title>Node1&#45;&gt;Node21</title>
<g id="a_edge32_Node000001_Node000021"><a xlink:title=" ">
<path fill="none" stroke="#63b8ff" d="M747.25,-285.6C827.76,-274.77 974.93,-254.97 1050.6,-244.79"/>
<polygon fill="#63b8ff" stroke="#63b8ff" points="747.27,-282.2 737.82,-287 748.2,-289.14 747.27,-282.2"/>
</a>
</g>
</g>
<!-- Node27 -->
<g id="Node000027" class="node">
<title>Node27</title>
<g id="a_Node000027"><a xlink:href="splitSolver_8h.html" target="_top" xlink:title=" ">
<polygon fill="white" stroke="#666666" points="1462.95,-191 1369.7,-191 1369.7,-170.25 1462.95,-170.25 1462.95,-191"/>
<text text-anchor="middle" x="1416.32" y="-177.5" font-family="FreeSans" font-size="10.00">src/splitSolver.h</text>
</a>
</g>
</g>
<!-- Node1&#45;&gt;Node27 -->
<g id="edge53_Node000001_Node000027" class="edge">
<title>Node1&#45;&gt;Node27</title>
<g id="a_edge53_Node000001_Node000027"><a xlink:title=" ">
<path fill="none" stroke="#63b8ff" d="M747.44,-290.44C853.55,-284.89 1079.68,-270.74 1154.32,-247.75 1172.71,-242.09 1174.24,-233.6 1192.32,-227 1251.4,-205.44 1323.19,-193.19 1369.3,-186.98"/>
<polygon fill="#63b8ff" stroke="#63b8ff" points="747.44,-286.98 737.63,-290.99 747.8,-293.97 747.44,-286.98"/>
</a>
</g>
</g>
<!-- Node28 -->
<g id="Node000028" class="node">
<title>Node28</title>
<g id="a_Node000028"><a xlink:href="scalarFunction_8h.html" target="_top" xlink:title=" ">
<polygon fill="white" stroke="#666666" points="988.7,-191 875.95,-191 875.95,-170.25 988.7,-170.25 988.7,-191"/>
<text text-anchor="middle" x="932.32" y="-177.5" font-family="FreeSans" font-size="10.00">src/scalarFunction.h</text>
</a>
</g>
</g>
<!-- Node1&#45;&gt;Node28 -->
<g id="edge47_Node000001_Node000028" class="edge">
<title>Node1&#45;&gt;Node28</title>
<g id="a_edge47_Node000001_Node000028"><a xlink:title=" ">
<path fill="none" stroke="#63b8ff" d="M722.15,-278.86C771.89,-255.85 868.58,-211.12 911.23,-191.38"/>
<polygon fill="#63b8ff" stroke="#63b8ff" points="720.89,-276.05 713.29,-283.43 723.83,-282.4 720.89,-276.05"/>
</a>
</g>
</g>
<!-- Node29 -->
<g id="Node000029" class="node">
<title>Node29</title>
<g id="a_Node000029"><a xlink:href="sundialsUtils_8cpp.html" target="_top" xlink:title=" ">
<polygon fill="white" stroke="#666666" points="1317.57,-247.75 1201.07,-247.75 1201.07,-227 1317.57,-227 1317.57,-247.75"/>
<text text-anchor="middle" x="1259.32" y="-234.25" font-family="FreeSans" font-size="10.00">src/sundialsUtils.cpp</text>
</a>
</g>
</g>
<!-- Node1&#45;&gt;Node29 -->
<g id="edge54_Node000001_Node000029" class="edge">
<title>Node1&#45;&gt;Node29</title>
<g id="a_edge54_Node000001_Node000029"><a xlink:title=" ">
<path fill="none" stroke="#63b8ff" d="M747.59,-288.68C839.65,-281.26 1028.13,-265.39 1187.32,-247.75 1191.71,-247.26 1196.24,-246.74 1200.79,-246.19"/>
<polygon fill="#63b8ff" stroke="#63b8ff" points="747.54,-285.26 737.85,-289.55 748.1,-292.23 747.54,-285.26"/>
</a>
</g>
</g>
<!-- Node3 -->
<g id="Node000003" class="node">
<title>Node3</title>
<g id="a_Node000003"><a xlink:href="callback_8cpp.html" target="_top" xlink:title=" ">
<polygon fill="white" stroke="#666666" points="107.32,-191 13.32,-191 13.32,-170.25 107.32,-170.25 107.32,-191"/>
<text text-anchor="middle" x="60.32" y="-177.5" font-family="FreeSans" font-size="10.00">src/callback.cpp</text>
</a>
</g>
</g>
<!-- Node2&#45;&gt;Node3 -->
<g id="edge2_Node000002_Node000003" class="edge">
<title>Node2&#45;&gt;Node3</title>
<g id="a_edge2_Node000002_Node000003"><a xlink:title=" ">
<path fill="none" stroke="#63b8ff" d="M97.02,-218.83C88.03,-209.72 77.39,-198.93 69.89,-191.33"/>
<polygon fill="#63b8ff" stroke="#63b8ff" points="94.15,-220.92 103.67,-225.59 99.14,-216.01 94.15,-220.92"/>
</a>
</g>
</g>
<!-- Node4 -->
<g id="Node000004" class="node">
<title>Node4</title>
<g id="a_Node000004"><a xlink:href="flameSolver_8h.html" target="_top" xlink:title=" ">
<polygon fill="white" stroke="#666666" points="582.32,-77.5 482.32,-77.5 482.32,-56.75 582.32,-56.75 582.32,-77.5"/>
<text text-anchor="middle" x="532.32" y="-64" font-family="FreeSans" font-size="10.00">src/flameSolver.h</text>
</a>
</g>
</g>
<!-- Node2&#45;&gt;Node4 -->
<g id="edge3_Node000002_Node000004" class="edge">
<title>Node2&#45;&gt;Node4</title>
<g id="a_edge3_Node000002_Node000004"><a xlink:title=" ">
<path fill="none" stroke="#63b8ff" d="M61.95,-225.79C25.97,-215.84 -12.51,-198.23 4.32,-170.25 32.07,-124.12 59.85,-129.28 111.32,-113.5 179.41,-92.62 385.58,-77.36 481.82,-71.17"/>
<polygon fill="#63b8ff" stroke="#63b8ff" points="60.92,-229.4 71.48,-228.52 62.67,-222.62 60.92,-229.4"/>
</a>
</g>
</g>
<!-- Node2&#45;&gt;Node6 -->
<g id="edge5_Node000002_Node000006" class="edge">
<title>Node2&#45;&gt;Node6</title>
<g id="a_edge5_Node000002_Node000006"><a xlink:title=" ">
<path fill="none" stroke="#63b8ff" d="M166.72,-227.09C222.57,-217.2 310.66,-201.59 367.71,-191.48"/>
<polygon fill="#63b8ff" stroke="#63b8ff" points="166.23,-223.8 156.99,-228.99 167.45,-230.69 166.23,-223.8"/>
</a>
</g>
</g>
<!-- Node5 -->
<g id="Node000005" class="node">
<title>Node5</title>
<g id="a_Node000005"><a xlink:href="flameSolver_8cpp.html" target="_top" xlink:title=" ">
<polygon fill="white" stroke="#666666" points="834.95,-20.75 723.7,-20.75 723.7,0 834.95,0 834.95,-20.75"/>
<text text-anchor="middle" x="779.32" y="-7.25" font-family="FreeSans" font-size="10.00">src/flameSolver.cpp</text>
</a>
</g>
</g>
<!-- Node4&#45;&gt;Node5 -->
<g id="edge4_Node000004_Node000005" class="edge">
<title>Node4&#45;&gt;Node5</title>
<g id="a_edge4_Node000004_Node000005"><a xlink:title=" ">
<path fill="none" stroke="#63b8ff" d="M587.38,-53.92C631.8,-44.07 693.48,-30.4 734.82,-21.24"/>
<polygon fill="#63b8ff" stroke="#63b8ff" points="586.77,-50.69 577.76,-56.27 588.28,-57.53 586.77,-50.69"/>
</a>
</g>
</g>
<!-- Node6&#45;&gt;Node4 -->
<g id="edge6_Node000006_Node000004" class="edge">
<title>Node6&#45;&gt;Node4</title>
<g id="a_edge6_Node000006_Node000004"><a xlink:title=" ">
<path fill="none" stroke="#63b8ff" d="M437.9,-161.33C449.05,-147.7 465.04,-128.87 480.32,-113.5 493.33,-100.41 509.5,-86.65 520.33,-77.76"/>
<polygon fill="#63b8ff" stroke="#63b8ff" points="434.6,-158.85 431.03,-168.83 440.04,-163.26 434.6,-158.85"/>
</a>
</g>
</g>
<!-- Node7 -->
<g id="Node000007" class="node">
<title>Node7</title>
<g id="a_Node000007"><a xlink:href="sourceSystem_8cpp.html" target="_top" xlink:title=" ">
<polygon fill="white" stroke="#666666" points="960.57,-134.25 838.07,-134.25 838.07,-113.5 960.57,-113.5 960.57,-134.25"/>
<text text-anchor="middle" x="899.32" y="-120.75" font-family="FreeSans" font-size="10.00">src/sourceSystem.cpp</text>
</a>
</g>
</g>
<!-- Node6&#45;&gt;Node7 -->
<g id="edge7_Node000006_Node000007" class="edge">
<title>Node6&#45;&gt;Node7</title>
<g id="a_edge7_Node000006_Node000007"><a xlink:title=" ">
<path fill="none" stroke="#63b8ff" d="M490.23,-171.93C582.74,-161.29 748.4,-142.23 837.9,-131.94"/>
<polygon fill="#63b8ff" stroke="#63b8ff" points="489.86,-168.56 480.32,-173.18 490.66,-175.52 489.86,-168.56"/>
</a>
</g>
</g>
<!-- Node8&#45;&gt;Node4 -->
<g id="edge11_Node000008_Node000004" class="edge">
<title>Node8&#45;&gt;Node4</title>
<g id="a_edge11_Node000008_Node000004"><a xlink:title=" ">
<path fill="none" stroke="#63b8ff" d="M1041.22,-162.43C1024.47,-146.76 997.43,-124.44 969.32,-113.5 899.93,-86.49 682.18,-74.28 582.74,-70.01"/>
<polygon fill="#63b8ff" stroke="#63b8ff" points="1038.36,-164.5 1047.99,-168.92 1043.22,-159.46 1038.36,-164.5"/>
</a>
</g>
</g>
<!-- Node8&#45;&gt;Node7 -->
<g id="edge12_Node000008_Node000007" class="edge">
<title>Node8&#45;&gt;Node7</title>
<g id="a_edge12_Node000008_Node000007"><a xlink:title=" ">
<path fill="none" stroke="#63b8ff" d="M1019.54,-166.27C991.18,-156.51 953.36,-143.48 927.77,-134.67"/>
<polygon fill="#63b8ff" stroke="#63b8ff" points="1018.3,-169.89 1028.89,-169.84 1020.58,-163.27 1018.3,-169.89"/>
</a>
</g>
</g>
<!-- Node9 -->
<g id="Node000009" class="node">
<title>Node9</title>
<g id="a_Node000009"><a xlink:href="chemistry0d_8cpp.html" target="_top" xlink:title=" ">
<polygon fill="white" stroke="#666666" points="1206.45,-134.25 1092.2,-134.25 1092.2,-113.5 1206.45,-113.5 1206.45,-134.25"/>
<text text-anchor="middle" x="1149.32" y="-120.75" font-family="FreeSans" font-size="10.00">src/chemistry0d.cpp</text>
</a>
</g>
</g>
<!-- Node8&#45;&gt;Node9 -->
<g id="edge9_Node000008_Node000009" class="edge">
<title>Node8&#45;&gt;Node9</title>
<g id="a_edge9_Node000008_Node000009"><a xlink:title=" ">
<path fill="none" stroke="#63b8ff" d="M1083.83,-164.28C1099.66,-154.75 1119.52,-142.81 1133.19,-134.58"/>
<polygon fill="#63b8ff" stroke="#63b8ff" points="1082.35,-161.68 1075.59,-169.84 1085.96,-167.68 1082.35,-161.68"/>
</a>
</g>
</g>
<!-- Node10 -->
<g id="Node000010" class="node">
<title>Node10</title>
<g id="a_Node000010"><a xlink:href="convectionSystem_8cpp.html" target="_top" xlink:title=" ">
<polygon fill="white" stroke="#666666" points="1198.07,-77.5 1054.57,-77.5 1054.57,-56.75 1198.07,-56.75 1198.07,-77.5"/>
<text text-anchor="middle" x="1126.32" y="-64" font-family="FreeSans" font-size="10.00">src/convectionSystem.cpp</text>
</a>
</g>
</g>
<!-- Node8&#45;&gt;Node10 -->
<g id="edge10_Node000008_Node000010" class="edge">
<title>Node8&#45;&gt;Node10</title>
<g id="a_edge10_Node000008_Node000010"><a xlink:title=" ">
<path fill="none" stroke="#63b8ff" d="M1063.53,-159.89C1067.66,-146.22 1074.25,-127.96 1083.32,-113.5 1091.97,-99.71 1105.24,-86.5 1114.76,-77.93"/>
<polygon fill="#63b8ff" stroke="#63b8ff" points="1059.99,-158.53 1060.64,-169.1 1066.73,-160.44 1059.99,-158.53"/>
</a>
</g>
</g>
<!-- Node11&#45;&gt;Node4 -->
<g id="edge15_Node000011_Node000004" class="edge">
<title>Node11&#45;&gt;Node4</title>
<g id="a_edge15_Node000011_Node000004"><a xlink:title=" ">
<path fill="none" stroke="#63b8ff" d="M673.16,-110.03C640.17,-100.22 595.38,-86.89 565.24,-77.92"/>
<polygon fill="#63b8ff" stroke="#63b8ff" points="671.84,-113.59 682.42,-113.09 673.84,-106.88 671.84,-113.59"/>
</a>
</g>
</g>
<!-- Node11&#45;&gt;Node10 -->
<g id="edge14_Node000011_Node000010" class="edge">
<title>Node11&#45;&gt;Node10</title>
<g id="a_edge14_Node000011_Node000010"><a xlink:title=" ">
<path fill="none" stroke="#63b8ff" d="M793.41,-112.58C868.29,-102.58 981.09,-87.52 1054.22,-77.75"/>
<polygon fill="#63b8ff" stroke="#63b8ff" points="793.1,-109.22 783.65,-114.02 794.02,-116.16 793.1,-109.22"/>
</a>
</g>
</g>
<!-- Node12&#45;&gt;Node4 -->
<g id="edge18_Node000012_Node000004" class="edge">
<title>Node12&#45;&gt;Node4</title>
<g id="a_edge18_Node000012_Node000004"><a xlink:title=" ">
<path fill="none" stroke="#63b8ff" d="M364.16,-110.36C403.27,-100.54 456.95,-87.06 493.04,-77.99"/>
<polygon fill="#63b8ff" stroke="#63b8ff" points="363.39,-107.19 354.55,-113.02 365.1,-113.98 363.39,-107.19"/>
</a>
</g>
</g>
<!-- Node13 -->
<g id="Node000013" class="node">
<title>Node13</title>
<g id="a_Node000013"><a xlink:href="diffusionSystem_8cpp.html" target="_top" xlink:title=" ">
<polygon fill="white" stroke="#666666" points="380.45,-77.5 248.2,-77.5 248.2,-56.75 380.45,-56.75 380.45,-77.5"/>
<text text-anchor="middle" x="314.32" y="-64" font-family="FreeSans" font-size="10.00">src/diffusionSystem.cpp</text>
</a>
</g>
</g>
<!-- Node12&#45;&gt;Node13 -->
<g id="edge17_Node000012_Node000013" class="edge">
<title>Node12&#45;&gt;Node13</title>
<g id="a_edge17_Node000012_Node000013"><a xlink:title=" ">
<path fill="none" stroke="#63b8ff" d="M314.32,-102.21C314.32,-93.84 314.32,-84.58 314.32,-77.83"/>
<polygon fill="#63b8ff" stroke="#63b8ff" points="310.82,-102.09 314.32,-112.09 317.82,-102.09 310.82,-102.09"/>
</a>
</g>
</g>
<!-- Node14&#45;&gt;Node4 -->
<g id="edge21_Node000014_Node000004" class="edge">
<title>Node14&#45;&gt;Node4</title>
<g id="a_edge21_Node000014_Node000004"><a xlink:title=" ">
<path fill="none" stroke="#63b8ff" d="M226.06,-169.11C279,-158.88 354.64,-143.56 383.32,-134.25 431.77,-118.53 485.75,-92.22 513.53,-77.99"/>
<polygon fill="#63b8ff" stroke="#63b8ff" points="225.63,-165.82 216.47,-171.15 226.95,-172.7 225.63,-165.82"/>
</a>
</g>
</g>
<!-- Node14&#45;&gt;Node12 -->
<g id="edge20_Node000014_Node000012" class="edge">
<title>Node14&#45;&gt;Node12</title>
<g id="a_edge20_Node000014_Node000012"><a xlink:title=" ">
<path fill="none" stroke="#63b8ff" d="M206.16,-166C231.85,-156.23 265.83,-143.31 288.8,-134.58"/>
<polygon fill="#63b8ff" stroke="#63b8ff" points="205.17,-163.01 197.06,-169.84 207.66,-169.55 205.17,-163.01"/>
</a>
</g>
</g>
<!-- Node15 -->
<g id="Node000015" class="node">
<title>Node15</title>
<g id="a_Node000015"><a xlink:href="integrator_8cpp.html" target="_top" xlink:title=" ">
<polygon fill="white" stroke="#666666" points="220.7,-134.25 119.95,-134.25 119.95,-113.5 220.7,-113.5 220.7,-134.25"/>
<text text-anchor="middle" x="170.32" y="-120.75" font-family="FreeSans" font-size="10.00">src/integrator.cpp</text>
</a>
</g>
</g>
<!-- Node14&#45;&gt;Node15 -->
<g id="edge22_Node000014_Node000015" class="edge">
<title>Node14&#45;&gt;Node15</title>
<g id="a_edge22_Node000014_Node000015"><a xlink:title=" ">
<path fill="none" stroke="#63b8ff" d="M170.32,-158.96C170.32,-150.59 170.32,-141.33 170.32,-134.58"/>
<polygon fill="#63b8ff" stroke="#63b8ff" points="166.82,-158.84 170.32,-168.84 173.82,-158.84 166.82,-158.84"/>
</a>
</g>
</g>
<!-- Node17&#45;&gt;Node6 -->
<g id="edge26_Node000017_Node000006" class="edge">
<title>Node17&#45;&gt;Node6</title>
<g id="a_edge26_Node000017_Node000006"><a xlink:title=" ">
<path fill="none" stroke="#63b8ff" d="M423.32,-215.71C423.32,-207.34 423.32,-198.08 423.32,-191.33"/>
<polygon fill="#63b8ff" stroke="#63b8ff" points="419.82,-215.59 423.32,-225.59 426.82,-215.59 419.82,-215.59"/>
</a>
</g>
</g>
<!-- Node18 -->
<g id="Node000018" class="node">
<title>Node18</title>
<g id="a_Node000018"><a xlink:href="qssintegrator_8cpp.html" target="_top" xlink:title=" ">
<polygon fill="white" stroke="#666666" points="349.95,-191 232.7,-191 232.7,-170.25 349.95,-170.25 349.95,-191"/>
<text text-anchor="middle" x="291.32" y="-177.5" font-family="FreeSans" font-size="10.00">src/qssintegrator.cpp</text>
</a>
</g>
</g>
<!-- Node17&#45;&gt;Node18 -->
<g id="edge25_Node000017_Node000018" class="edge">
<title>Node17&#45;&gt;Node18</title>
<g id="a_edge25_Node000017_Node000018"><a xlink:title=" ">
<path fill="none" stroke="#63b8ff" d="M389.84,-222.49C366.37,-212.75 335.58,-199.98 314.71,-191.33"/>
<polygon fill="#63b8ff" stroke="#63b8ff" points="388.14,-225.99 398.72,-226.59 390.83,-219.52 388.14,-225.99"/>
</a>
</g>
</g>
<!-- Node19&#45;&gt;Node4 -->
<g id="edge29_Node000019_Node000004" class="edge">
<title>Node19&#45;&gt;Node4</title>
<g id="a_edge29_Node000019_Node000004"><a xlink:title=" ">
<path fill="none" stroke="#63b8ff" d="M553.22,-220.6C542.76,-213.11 532.04,-203.12 526.32,-191 508.2,-152.56 521.88,-99.63 528.87,-77.97"/>
<polygon fill="#63b8ff" stroke="#63b8ff" points="550.95,-223.95 561.23,-226.52 554.8,-218.1 550.95,-223.95"/>
</a>
</g>
</g>
<!-- Node19&#45;&gt;Node6 -->
<g id="edge31_Node000019_Node000006" class="edge">
<title>Node19&#45;&gt;Node6</title>
<g id="a_edge31_Node000019_Node000006"><a xlink:title=" ">
<path fill="none" stroke="#63b8ff" d="M542.78,-223.02C514.6,-213.26 477.02,-200.23 451.59,-191.42"/>
<polygon fill="#63b8ff" stroke="#63b8ff" points="541.48,-226.62 552.07,-226.59 543.77,-220.01 541.48,-226.62"/>
</a>
</g>
</g>
<!-- Node19&#45;&gt;Node11 -->
<g id="edge28_Node000019_Node000011" class="edge">
<title>Node19&#45;&gt;Node11</title>
<g id="a_edge28_Node000019_Node000011"><a xlink:title=" ">
<path fill="none" stroke="#63b8ff" d="M632.34,-225.31C665.42,-217 704.18,-204.72 714.32,-191 726.6,-174.37 722.6,-148.43 719.14,-134.5"/>
<polygon fill="#63b8ff" stroke="#63b8ff" points="631.73,-222.1 622.85,-227.86 633.39,-228.9 631.73,-222.1"/>
</a>
</g>
</g>
<!-- Node20 -->
<g id="Node000020" class="node">
<title>Node20</title>
<g id="a_Node000020"><a xlink:href="quasi2d_8cpp.html" target="_top" xlink:title=" ">
<polygon fill="white" stroke="#666666" points="627.2,-191 535.45,-191 535.45,-170.25 627.2,-170.25 627.2,-191"/>
<text text-anchor="middle" x="581.32" y="-177.5" font-family="FreeSans" font-size="10.00">src/quasi2d.cpp</text>
</a>
</g>
</g>
<!-- Node19&#45;&gt;Node20 -->
<g id="edge30_Node000019_Node000020" class="edge">
<title>Node19&#45;&gt;Node20</title>
<g id="a_edge30_Node000019_Node000020"><a xlink:title=" ">
<path fill="none" stroke="#63b8ff" d="M581.32,-215.71C581.32,-207.34 581.32,-198.08 581.32,-191.33"/>
<polygon fill="#63b8ff" stroke="#63b8ff" points="577.82,-215.59 581.32,-225.59 584.82,-215.59 577.82,-215.59"/>
</a>
</g>
</g>
<!-- Node21&#45;&gt;Node4 -->
<g id="edge34_Node000021_Node000004" class="edge">
<title>Node21&#45;&gt;Node4</title>
<g id="a_edge34_Node000021_Node000004"><a xlink:title=" ">
<path fill="none" stroke="#63b8ff" d="M1039.66,-235.93C988.63,-233.17 914.3,-223.23 858.32,-191 818.86,-168.28 830.93,-135.95 791.32,-113.5 756.47,-93.75 647.68,-79.75 582.71,-72.9"/>
<polygon fill="#63b8ff" stroke="#63b8ff" points="1039.35,-239.47 1049.5,-236.43 1039.67,-232.48 1039.35,-239.47"/>
</a>
</g>
</g>
<!-- Node21&#45;&gt;Node7 -->
<g id="edge42_Node000021_Node000007" class="edge">
<title>Node21&#45;&gt;Node7</title>
<g id="a_edge42_Node000021_Node000007"><a xlink:title=" ">
<path fill="none" stroke="#63b8ff" d="M1039.99,-233.15C978.86,-228.41 888.78,-217.09 867.32,-191 852.9,-173.47 874,-148.35 888.2,-134.67"/>
<polygon fill="#63b8ff" stroke="#63b8ff" points="1039.43,-236.69 1049.66,-233.93 1039.94,-229.71 1039.43,-236.69"/>
</a>
</g>
</g>
<!-- Node21&#45;&gt;Node9 -->
<g id="edge33_Node000021_Node000009" class="edge">
<title>Node21&#45;&gt;Node9</title>
<g id="a_edge33_Node000021_Node000009"><a xlink:title=" ">
<path fill="none" stroke="#63b8ff" d="M1107.42,-216.79C1111.13,-208.8 1115.44,-199.46 1119.32,-191 1128.46,-171.06 1139.03,-147.68 1144.87,-134.74"/>
<polygon fill="#63b8ff" stroke="#63b8ff" points="1103.88,-215.1 1102.85,-225.65 1110.23,-218.05 1103.88,-215.1"/>
</a>
</g>
</g>
<!-- Node22 -->
<g id="Node000022" class="node">
<title>Node22</title>
<g id="a_Node000022"><a xlink:href="grid_8h.html" target="_top" xlink:title=" ">
<polygon fill="white" stroke="#666666" points="705.82,-191 644.82,-191 644.82,-170.25 705.82,-170.25 705.82,-191"/>
<text text-anchor="middle" x="675.32" y="-177.5" font-family="FreeSans" font-size="10.00">src/grid.h</text>
</a>
</g>
</g>
<!-- Node21&#45;&gt;Node22 -->
<g id="edge35_Node000021_Node000022" class="edge">
<title>Node21&#45;&gt;Node22</title>
<g id="a_edge35_Node000021_Node000022"><a xlink:title=" ">
<path fill="none" stroke="#63b8ff" d="M1039.94,-228.82C948.92,-217.04 776.36,-194.7 706.18,-185.62"/>
<polygon fill="#63b8ff" stroke="#63b8ff" points="1039.25,-232.39 1049.62,-230.2 1040.15,-225.45 1039.25,-232.39"/>
</a>
</g>
</g>
<!-- Node24 -->
<g id="Node000024" class="node">
<title>Node24</title>
<g id="a_Node000024"><a xlink:href="readConfig_8cpp.html" target="_top" xlink:title=" ">
<polygon fill="white" stroke="#666666" points="1272.32,-191 1166.32,-191 1166.32,-170.25 1272.32,-170.25 1272.32,-191"/>
<text text-anchor="middle" x="1219.32" y="-177.5" font-family="FreeSans" font-size="10.00">src/readConfig.cpp</text>
</a>
</g>
</g>
<!-- Node21&#45;&gt;Node24 -->
<g id="edge40_Node000021_Node000024" class="edge">
<title>Node21&#45;&gt;Node24</title>
<g id="a_edge40_Node000021_Node000024"><a xlink:title=" ">
<path fill="none" stroke="#63b8ff" d="M1129.88,-222.09C1151.29,-212.41 1179.01,-199.87 1197.88,-191.33"/>
<polygon fill="#63b8ff" stroke="#63b8ff" points="1128.62,-219.28 1120.95,-226.59 1131.51,-225.65 1128.62,-219.28"/>
</a>
</g>
</g>
<!-- Node25 -->
<g id="Node000025" class="node">
<title>Node25</title>
<g id="a_Node000025"><a xlink:href="scalarFunction_8cpp.html" target="_top" xlink:title=" ">
<polygon fill="white" stroke="#666666" points="1348.32,-134.25 1224.32,-134.25 1224.32,-113.5 1348.32,-113.5 1348.32,-134.25"/>
<text text-anchor="middle" x="1286.32" y="-120.75" font-family="FreeSans" font-size="10.00">src/scalarFunction.cpp</text>
</a>
</g>
</g>
<!-- Node21&#45;&gt;Node25 -->
<g id="edge41_Node000021_Node000025" class="edge">
<title>Node21&#45;&gt;Node25</title>
<g id="a_edge41_Node000021_Node000025"><a xlink:title=" ">
<path fill="none" stroke="#63b8ff" d="M1156.59,-225.46C1207,-215.45 1273.09,-200.74 1281.32,-191 1294.7,-175.17 1291.73,-148.91 1288.8,-134.71"/>
<polygon fill="#63b8ff" stroke="#63b8ff" points="1156.24,-222.16 1147.1,-227.52 1157.58,-229.03 1156.24,-222.16"/>
</a>
</g>
</g>
<!-- Node26 -->
<g id="Node000026" class="node">
<title>Node26</title>
<g id="a_Node000026"><a xlink:href="splitSolver_8cpp.html" target="_top" xlink:title=" ">
<polygon fill="white" stroke="#666666" points="1470.57,-134.25 1366.07,-134.25 1366.07,-113.5 1470.57,-113.5 1470.57,-134.25"/>
<text text-anchor="middle" x="1418.32" y="-120.75" font-family="FreeSans" font-size="10.00">src/splitSolver.cpp</text>
</a>
</g>
</g>
<!-- Node21&#45;&gt;Node26 -->
<g id="edge43_Node000021_Node000026" class="edge">
<title>Node21&#45;&gt;Node26</title>
<g id="a_edge43_Node000021_Node000026"><a xlink:title=" ">
<path fill="none" stroke="#63b8ff" d="M1156.63,-225.13C1206.32,-215.2 1273.63,-200.8 1299.32,-191 1339.29,-175.75 1382.23,-149.01 1403.95,-134.65"/>
<polygon fill="#63b8ff" stroke="#63b8ff" points="1156.13,-221.86 1147.01,-227.24 1157.5,-228.72 1156.13,-221.86"/>
</a>
</g>
</g>
<!-- Node21&#45;&gt;Node27 -->
<g id="edge44_Node000021_Node000027" class="edge">
<title>Node21&#45;&gt;Node27</title>
<g id="a_edge44_Node000021_Node000027"><a xlink:title=" ">
<path fill="none" stroke="#63b8ff" d="M1156.57,-226.35C1217.78,-215.81 1312.87,-199.44 1369.43,-189.7"/>
<polygon fill="#63b8ff" stroke="#63b8ff" points="1156.19,-223.03 1146.93,-228.18 1157.38,-229.93 1156.19,-223.03"/>
</a>
</g>
</g>
<!-- Node22&#45;&gt;Node4 -->
<g id="edge38_Node000022_Node000004" class="edge">
<title>Node22&#45;&gt;Node4</title>
<g id="a_edge38_Node000022_Node000004"><a xlink:title=" ">
<path fill="none" stroke="#63b8ff" d="M634.06,-168.88C602.65,-159.93 562.9,-146.68 551.32,-134.25 536.67,-118.52 533.23,-92.22 532.48,-77.99"/>
<polygon fill="#63b8ff" stroke="#63b8ff" points="632.77,-172.44 643.34,-171.75 634.65,-165.69 632.77,-172.44"/>
</a>
</g>
</g>
<!-- Node22&#45;&gt;Node11 -->
<g id="edge36_Node000022_Node000011" class="edge">
<title>Node22&#45;&gt;Node11</title>
<g id="a_edge36_Node000022_Node000011"><a xlink:title=" ">
<path fill="none" stroke="#63b8ff" d="M689.09,-161.24C695.77,-152.31 703.53,-141.95 709.05,-134.58"/>
<polygon fill="#63b8ff" stroke="#63b8ff" points="685.84,-158.73 682.65,-168.84 691.45,-162.93 685.84,-158.73"/>
</a>
</g>
</g>
<!-- Node22&#45;&gt;Node12 -->
<g id="edge37_Node000022_Node000012" class="edge">
<title>Node22&#45;&gt;Node12</title>
<g id="a_edge37_Node000022_Node000012"><a xlink:title=" ">
<path fill="none" stroke="#63b8ff" d="M633.99,-169.95C538.33,-152.07 437.75,-139.08 375.14,-131.68"/>
<polygon fill="#63b8ff" stroke="#63b8ff" points="633.25,-173.56 643.72,-171.98 634.55,-166.68 633.25,-173.56"/>
</a>
</g>
</g>
<!-- Node23 -->
<g id="Node000023" class="node">
<title>Node23</title>
<g id="a_Node000023"><a xlink:href="grid_8cpp.html" target="_top" xlink:title=" ">
<polygon fill="white" stroke="#666666" points="632.45,-134.25 560.2,-134.25 560.2,-113.5 632.45,-113.5 632.45,-134.25"/>
<text text-anchor="middle" x="596.32" y="-120.75" font-family="FreeSans" font-size="10.00">src/grid.cpp</text>
</a>
</g>
</g>
<!-- Node22&#45;&gt;Node23 -->
<g id="edge39_Node000022_Node000023" class="edge">
<title>Node22&#45;&gt;Node23</title>
<g id="a_edge39_Node000022_Node000023"><a xlink:title=" ">
<path fill="none" stroke="#63b8ff" d="M652.39,-163.73C638.78,-154.3 621.97,-142.65 610.32,-134.58"/>
<polygon fill="#63b8ff" stroke="#63b8ff" points="649.98,-167.02 660.2,-169.84 653.97,-161.26 649.98,-167.02"/>
</a>
</g>
</g>
<!-- Node27&#45;&gt;Node4 -->
<g id="edge45_Node000027_Node000004" class="edge">
<title>Node27&#45;&gt;Node4</title>
<g id="a_edge45_Node000027_Node000004"><a xlink:title=" ">
<path fill="none" stroke="#63b8ff" d="M1446.87,-164.64C1470.31,-151.23 1496.05,-131.05 1479.32,-113.5 1448.16,-80.81 774.23,-70.82 582.68,-68.64"/>
<polygon fill="#63b8ff" stroke="#63b8ff" points="1445.55,-161.91 1438.43,-169.76 1448.89,-168.07 1445.55,-161.91"/>
</a>
</g>
</g>
<!-- Node27&#45;&gt;Node26 -->
<g id="edge46_Node000027_Node000026" class="edge">
<title>Node27&#45;&gt;Node26</title>
<g id="a_edge46_Node000027_Node000026"><a xlink:title=" ">
<path fill="none" stroke="#63b8ff" d="M1417.08,-158.96C1417.38,-150.59 1417.72,-141.33 1417.97,-134.58"/>
<polygon fill="#63b8ff" stroke="#63b8ff" points="1413.55,-158.72 1416.68,-168.84 1420.54,-158.97 1413.55,-158.72"/>
</a>
</g>
</g>
<!-- Node28&#45;&gt;Node5 -->
<g id="edge49_Node000028_Node000005" class="edge">
<title>Node28&#45;&gt;Node5</title>
<g id="a_edge49_Node000028_Node000005"><a xlink:title=" ">
<path fill="none" stroke="#63b8ff" d="M952.32,-162.7C965.7,-149.25 979.19,-130.02 969.32,-113.5 937.9,-60.95 869.12,-33.86 823.51,-21.16"/>
<polygon fill="#63b8ff" stroke="#63b8ff" points="950.55,-159.5 945.64,-168.89 955.33,-164.62 950.55,-159.5"/>
</a>
</g>
</g>
<!-- Node28&#45;&gt;Node7 -->
<g id="edge51_Node000028_Node000007" class="edge">
<title>Node28&#45;&gt;Node7</title>
<g id="a_edge51_Node000028_Node000007"><a xlink:title=" ">
<path fill="none" stroke="#63b8ff" d="M920.9,-160.67C915.6,-151.88 909.52,-141.8 905.17,-134.58"/>
<polygon fill="#63b8ff" stroke="#63b8ff" points="918.26,-162.08 926.42,-168.84 924.26,-158.47 918.26,-162.08"/>
</a>
</g>
</g>
<!-- Node28&#45;&gt;Node11 -->
<g id="edge48_Node000028_Node000011" class="edge">
<title>Node28&#45;&gt;Node11</title>
<g id="a_edge48_Node000028_Node000011"><a xlink:title=" ">
<path fill="none" stroke="#63b8ff" d="M883.16,-167.16C844.29,-157.31 790.8,-143.75 754.97,-134.67"/>
<polygon fill="#63b8ff" stroke="#63b8ff" points="882.15,-170.77 892.7,-169.84 883.87,-163.99 882.15,-170.77"/>
</a>
</g>
</g>
<!-- Node28&#45;&gt;Node25 -->
<g id="edge50_Node000028_Node000025" class="edge">
<title>Node28&#45;&gt;Node25</title>
<g id="a_edge50_Node000028_Node000025"><a xlink:title=" ">
<path fill="none" stroke="#63b8ff" d="M999.29,-169.27C1063.95,-159.27 1161.07,-144.25 1224.08,-134.5"/>
<polygon fill="#63b8ff" stroke="#63b8ff" points="999.15,-165.9 989.8,-170.89 1000.22,-172.82 999.15,-165.9"/>
</a>
</g>
</g>
</g>
</svg>
