<?xml version="1.0" encoding="UTF-8" standalone="no"?>
<!DOCTYPE svg PUBLIC "-//W3C//DTD SVG 1.1//EN"
 "http://www.w3.org/Graphics/SVG/1.1/DTD/svg11.dtd">
<!-- Generated by graphviz version 8.1.0 (20230707.2238)
 -->
<!-- Title: src/mathUtils.cpp Pages: 1 -->
<svg width="2540pt" height="212pt"
 viewBox="0.00 0.00 2540.25 211.75" xmlns="http://www.w3.org/2000/svg" xmlns:xlink="http://www.w3.org/1999/xlink">
<g id="graph0" class="graph" transform="scale(1 1) rotate(0) translate(4 207.75)">
<title>src/mathUtils.cpp</title>
<!-- Node1 -->
<g id="Node000001" class="node">
<title>Node1</title>
<g id="a_Node000001"><a xlink:title=" ">
<polygon fill="#999999" stroke="#666666" points="1615.12,-203.75 1513.62,-203.75 1513.62,-183 1615.12,-183 1615.12,-203.75"/>
<text text-anchor="middle" x="1564.38" y="-190.25" font-family="FreeSans" font-size="10.00">src/mathUtils.cpp</text>
</a>
</g>
</g>
<!-- Node2 -->
<g id="Node000002" class="node">
<title>Node2</title>
<g id="a_Node000002"><a xlink:href="mathUtils_8h.html" target="_top" xlink:title=" ">
<polygon fill="white" stroke="#666666" points="420.88,-147 347.88,-147 347.88,-126.25 420.88,-126.25 420.88,-147"/>
<text text-anchor="middle" x="384.38" y="-133.5" font-family="FreeSans" font-size="10.00">mathUtils.h</text>
</a>
</g>
</g>
<!-- Node1&#45;&gt;Node2 -->
<g id="edge1_Node000001_Node000002" class="edge">
<title>Node1&#45;&gt;Node2</title>
<g id="a_edge1_Node000001_Node000002"><a xlink:title=" ">
<path fill="none" stroke="#63b8ff" d="M1513.29,-190C1318.22,-180.95 621.69,-148.64 432.24,-139.85"/>
<polygon fill="#63b8ff" stroke="#63b8ff" points="432.42,-136.3 422.27,-139.34 432.1,-143.3 432.42,-136.3"/>
</a>
</g>
</g>
<!-- Node15 -->
<g id="Node000015" class="node">
<title>Node15</title>
<g id="a_Node000015"><a xlink:href="sundialsUtils_8h.html" target="_top" xlink:title=" ">
<polygon fill="white" stroke="#666666" points="1608.38,-147 1520.38,-147 1520.38,-126.25 1608.38,-126.25 1608.38,-147"/>
<text text-anchor="middle" x="1564.38" y="-133.5" font-family="FreeSans" font-size="10.00">sundialsUtils.h</text>
</a>
</g>
</g>
<!-- Node1&#45;&gt;Node15 -->
<g id="edge16_Node000001_Node000015" class="edge">
<title>Node1&#45;&gt;Node15</title>
<g id="a_edge16_Node000001_Node000015"><a xlink:title=" ">
<path fill="none" stroke="#63b8ff" d="M1564.38,-182.59C1564.38,-175.81 1564.38,-166.55 1564.38,-158.19"/>
<polygon fill="#63b8ff" stroke="#63b8ff" points="1567.88,-158.33 1564.38,-148.33 1560.88,-158.33 1567.88,-158.33"/>
</a>
</g>
</g>
<!-- Node30 -->
<g id="Node000030" class="node">
<title>Node30</title>
<g id="a_Node000030"><a xlink:title=" ">
<polygon fill="#e0e0e0" stroke="#999999" points="1670.25,-147 1626.5,-147 1626.5,-126.25 1670.25,-126.25 1670.25,-147"/>
<text text-anchor="middle" x="1648.38" y="-133.5" font-family="FreeSans" font-size="10.00">limits</text>
</a>
</g>
</g>
<!-- Node1&#45;&gt;Node30 -->
<g id="edge34_Node000001_Node000030" class="edge">
<title>Node1&#45;&gt;Node30</title>
<g id="a_edge34_Node000001_Node000030"><a xlink:title=" ">
<path fill="none" stroke="#63b8ff" d="M1579.39,-182.59C1591.93,-174.41 1610.04,-162.61 1624.56,-153.15"/>
<polygon fill="#63b8ff" stroke="#63b8ff" points="1626.02,-155.72 1632.49,-147.33 1622.2,-149.86 1626.02,-155.72"/>
</a>
</g>
</g>
<!-- Node3 -->
<g id="Node000003" class="node">
<title>Node3</title>
<g id="a_Node000003"><a xlink:title=" ">
<polygon fill="#e0e0e0" stroke="#999999" points="543.75,-83.88 497,-83.88 497,-63.12 543.75,-63.12 543.75,-83.88"/>
<text text-anchor="middle" x="520.38" y="-70.38" font-family="FreeSans" font-size="10.00">vector</text>
</a>
</g>
</g>
<!-- Node2&#45;&gt;Node3 -->
<g id="edge2_Node000002_Node000003" class="edge">
<title>Node2&#45;&gt;Node3</title>
<g id="a_edge2_Node000002_Node000003"><a xlink:title=" ">
<path fill="none" stroke="#63b8ff" d="M406.23,-125.8C428.53,-115.78 463.38,-100.12 488.71,-88.73"/>
<polygon fill="#63b8ff" stroke="#63b8ff" points="489.89,-91.59 497.58,-84.3 487.02,-85.2 489.89,-91.59"/>
</a>
</g>
</g>
<!-- Node4 -->
<g id="Node000004" class="node">
<title>Node4</title>
<g id="a_Node000004"><a xlink:title=" ">
<polygon fill="#e0e0e0" stroke="#999999" points="177.75,-83.88 131,-83.88 131,-63.12 177.75,-63.12 177.75,-83.88"/>
<text text-anchor="middle" x="154.38" y="-70.38" font-family="FreeSans" font-size="10.00">cmath</text>
</a>
</g>
</g>
<!-- Node2&#45;&gt;Node4 -->
<g id="edge3_Node000002_Node000004" class="edge">
<title>Node2&#45;&gt;Node4</title>
<g id="a_edge3_Node000002_Node000004"><a xlink:title=" ">
<path fill="none" stroke="#63b8ff" d="M347.58,-128.93C308.36,-121.34 244.69,-107.72 191.38,-90.25 189.43,-89.61 187.45,-88.92 185.47,-88.18"/>
<polygon fill="#63b8ff" stroke="#63b8ff" points="187.24,-84.73 176.66,-84.3 184.67,-91.23 187.24,-84.73"/>
</a>
</g>
</g>
<!-- Node5 -->
<g id="Node000005" class="node">
<title>Node5</title>
<g id="a_Node000005"><a xlink:title=" ">
<polygon fill="#e0e0e0" stroke="#999999" points="555.12,-20.75 495.62,-20.75 495.62,0 555.12,0 555.12,-20.75"/>
<text text-anchor="middle" x="525.38" y="-7.25" font-family="FreeSans" font-size="10.00">iostream</text>
</a>
</g>
</g>
<!-- Node2&#45;&gt;Node5 -->
<g id="edge4_Node000002_Node000005" class="edge">
<title>Node2&#45;&gt;Node5</title>
<g id="a_edge4_Node000002_Node000005"><a xlink:title=" ">
<path fill="none" stroke="#63b8ff" d="M400.52,-125.87C414.31,-117.22 434.4,-103.88 450.38,-90.25 472.69,-71.21 495.52,-46.25 510.04,-29.56"/>
<polygon fill="#63b8ff" stroke="#63b8ff" points="513.33,-32.1 517.19,-22.23 508.02,-27.54 513.33,-32.1"/>
</a>
</g>
</g>
<!-- Node6 -->
<g id="Node000006" class="node">
<title>Node6</title>
<g id="a_Node000006"><a xlink:title=" ">
<polygon fill="#e0e0e0" stroke="#999999" points="289.25,-83.88 233.5,-83.88 233.5,-63.12 289.25,-63.12 289.25,-83.88"/>
<text text-anchor="middle" x="261.38" y="-70.38" font-family="FreeSans" font-size="10.00">sstream</text>
</a>
</g>
</g>
<!-- Node2&#45;&gt;Node6 -->
<g id="edge5_Node000002_Node000006" class="edge">
<title>Node2&#45;&gt;Node6</title>
<g id="a_edge5_Node000002_Node000006"><a xlink:title=" ">
<path fill="none" stroke="#63b8ff" d="M364.61,-125.8C344.71,-115.91 313.76,-100.53 290.93,-89.19"/>
<polygon fill="#63b8ff" stroke="#63b8ff" points="292.6,-85.61 282.09,-84.3 289.49,-91.88 292.6,-85.61"/>
</a>
</g>
</g>
<!-- Node7 -->
<g id="Node000007" class="node">
<title>Node7</title>
<g id="a_Node000007"><a xlink:title=" ">
<polygon fill="#e0e0e0" stroke="#999999" points="205.25,-20.75 161.5,-20.75 161.5,0 205.25,0 205.25,-20.75"/>
<text text-anchor="middle" x="183.38" y="-7.25" font-family="FreeSans" font-size="10.00">string</text>
</a>
</g>
</g>
<!-- Node2&#45;&gt;Node7 -->
<g id="edge6_Node000002_Node000007" class="edge">
<title>Node2&#45;&gt;Node7</title>
<g id="a_edge6_Node000002_Node000007"><a xlink:title=" ">
<path fill="none" stroke="#63b8ff" d="M347.53,-133.44C312.4,-129.6 259.74,-119.07 224.38,-90.25 205.93,-75.21 194.83,-49.67 188.92,-31.73"/>
<polygon fill="#63b8ff" stroke="#63b8ff" points="191.99,-30.8 185.76,-22.23 185.29,-32.82 191.99,-30.8"/>
</a>
</g>
</g>
<!-- Node8 -->
<g id="Node000008" class="node">
<title>Node8</title>
<g id="a_Node000008"><a xlink:title=" ">
<polygon fill="#e0e0e0" stroke="#999999" points="441.25,-83.88 403.5,-83.88 403.5,-63.12 441.25,-63.12 441.25,-83.88"/>
<text text-anchor="middle" x="422.38" y="-70.38" font-family="FreeSans" font-size="10.00">map</text>
</a>
</g>
</g>
<!-- Node2&#45;&gt;Node8 -->
<g id="edge7_Node000002_Node000008" class="edge">
<title>Node2&#45;&gt;Node8</title>
<g id="a_edge7_Node000002_Node000008"><a xlink:title=" ">
<path fill="none" stroke="#63b8ff" d="M390.48,-125.8C395.94,-117.02 404.09,-103.91 410.79,-93.14"/>
<polygon fill="#63b8ff" stroke="#63b8ff" points="414.1,-95.44 416.41,-85.09 408.16,-91.74 414.1,-95.44"/>
</a>
</g>
</g>
<!-- Node9 -->
<g id="Node000009" class="node">
<title>Node9</title>
<g id="a_Node000009"><a xlink:href="debugUtils_8h.html" target="_top" xlink:title=" ">
<polygon fill="white" stroke="#666666" points="385.12,-83.88 307.62,-83.88 307.62,-63.12 385.12,-63.12 385.12,-83.88"/>
<text text-anchor="middle" x="346.38" y="-70.38" font-family="FreeSans" font-size="10.00">debugUtils.h</text>
</a>
</g>
</g>
<!-- Node2&#45;&gt;Node9 -->
<g id="edge8_Node000002_Node000009" class="edge">
<title>Node2&#45;&gt;Node9</title>
<g id="a_edge8_Node000002_Node000009"><a xlink:title=" ">
<path fill="none" stroke="#63b8ff" d="M378.27,-125.8C372.81,-117.02 364.66,-103.91 357.96,-93.14"/>
<polygon fill="#63b8ff" stroke="#63b8ff" points="360.59,-91.74 352.34,-85.09 354.65,-95.44 360.59,-91.74"/>
</a>
</g>
</g>
<!-- Node13 -->
<g id="Node000013" class="node">
<title>Node13</title>
<g id="a_Node000013"><a xlink:title=" ">
<polygon fill="#e0e0e0" stroke="#999999" points="688.5,-83.88 562.25,-83.88 562.25,-63.12 688.5,-63.12 688.5,-83.88"/>
<text text-anchor="middle" x="625.38" y="-70.38" font-family="FreeSans" font-size="10.00">cantera/base/ct_defs.h</text>
</a>
</g>
</g>
<!-- Node2&#45;&gt;Node13 -->
<g id="edge14_Node000002_Node000013" class="edge">
<title>Node2&#45;&gt;Node13</title>
<g id="a_edge14_Node000002_Node000013"><a xlink:title=" ">
<path fill="none" stroke="#63b8ff" d="M421.24,-126.27C462.62,-115.78 529.97,-98.7 575.91,-87.05"/>
<polygon fill="#63b8ff" stroke="#63b8ff" points="576.68,-90.21 585.52,-84.36 574.96,-83.42 576.68,-90.21"/>
</a>
</g>
</g>
<!-- Node14 -->
<g id="Node000014" class="node">
<title>Node14</title>
<g id="a_Node000014"><a xlink:title=" ">
<polygon fill="#e0e0e0" stroke="#999999" points="112.75,-83.88 0,-83.88 0,-63.12 112.75,-63.12 112.75,-83.88"/>
<text text-anchor="middle" x="56.38" y="-70.38" font-family="FreeSans" font-size="10.00">eigen3/Eigen/Dense</text>
</a>
</g>
</g>
<!-- Node2&#45;&gt;Node14 -->
<g id="edge15_Node000002_Node000014" class="edge">
<title>Node2&#45;&gt;Node14</title>
<g id="a_edge15_Node000002_Node000014"><a xlink:title=" ">
<path fill="none" stroke="#63b8ff" d="M347.79,-130.03C297.02,-122.1 202.41,-106.71 122.38,-90.25 117.1,-89.17 111.61,-87.97 106.14,-86.73"/>
<polygon fill="#63b8ff" stroke="#63b8ff" points="107.25,-83.16 96.72,-84.32 105.68,-89.98 107.25,-83.16"/>
</a>
</g>
</g>
<!-- Node9&#45;&gt;Node5 -->
<g id="edge10_Node000009_Node000005" class="edge">
<title>Node9&#45;&gt;Node5</title>
<g id="a_edge10_Node000009_Node000005"><a xlink:title=" ">
<path fill="none" stroke="#63b8ff" d="M375.13,-62.68C405.28,-52.39 452.82,-36.15 486.34,-24.71"/>
<polygon fill="#63b8ff" stroke="#63b8ff" points="487.35,-27.72 495.69,-21.17 485.09,-21.09 487.35,-27.72"/>
</a>
</g>
</g>
<!-- Node9&#45;&gt;Node7 -->
<g id="edge9_Node000009_Node000007" class="edge">
<title>Node9&#45;&gt;Node7</title>
<g id="a_edge9_Node000009_Node000007"><a xlink:title=" ">
<path fill="none" stroke="#63b8ff" d="M320.19,-62.68C291.77,-52.02 246.37,-35 215.74,-23.51"/>
<polygon fill="#63b8ff" stroke="#63b8ff" points="217.16,-19.93 206.57,-19.7 214.71,-26.49 217.16,-19.93"/>
</a>
</g>
</g>
<!-- Node10 -->
<g id="Node000010" class="node">
<title>Node10</title>
<g id="a_Node000010"><a xlink:title=" ">
<polygon fill="#e0e0e0" stroke="#999999" points="395.5,-20.75 341.25,-20.75 341.25,0 395.5,0 395.5,-20.75"/>
<text text-anchor="middle" x="368.38" y="-7.25" font-family="FreeSans" font-size="10.00">fstream</text>
</a>
</g>
</g>
<!-- Node9&#45;&gt;Node10 -->
<g id="edge11_Node000009_Node000010" class="edge">
<title>Node9&#45;&gt;Node10</title>
<g id="a_edge11_Node000009_Node000010"><a xlink:title=" ">
<path fill="none" stroke="#63b8ff" d="M349.91,-62.68C352.97,-54.16 357.5,-41.58 361.31,-31.01"/>
<polygon fill="#63b8ff" stroke="#63b8ff" points="364.83,-32.56 364.92,-21.97 358.24,-30.19 364.83,-32.56"/>
</a>
</g>
</g>
<!-- Node11 -->
<g id="Node000011" class="node">
<title>Node11</title>
<g id="a_Node000011"><a xlink:title=" ">
<polygon fill="#e0e0e0" stroke="#999999" points="477.38,-20.75 413.38,-20.75 413.38,0 477.38,0 477.38,-20.75"/>
<text text-anchor="middle" x="445.38" y="-7.25" font-family="FreeSans" font-size="10.00">exception</text>
</a>
</g>
</g>
<!-- Node9&#45;&gt;Node11 -->
<g id="edge12_Node000009_Node000011" class="edge">
<title>Node9&#45;&gt;Node11</title>
<g id="a_edge12_Node000009_Node000011"><a xlink:title=" ">
<path fill="none" stroke="#63b8ff" d="M362.28,-62.68C377.94,-53.01 402.09,-38.1 420.33,-26.84"/>
<polygon fill="#63b8ff" stroke="#63b8ff" points="421.84,-29.4 428.51,-21.17 418.16,-23.45 421.84,-29.4"/>
</a>
</g>
</g>
<!-- Node12 -->
<g id="Node000012" class="node">
<title>Node12</title>
<g id="a_Node000012"><a xlink:title=" ">
<polygon fill="#e0e0e0" stroke="#999999" points="323.38,-20.75 223.38,-20.75 223.38,0 323.38,0 323.38,-20.75"/>
<text text-anchor="middle" x="273.38" y="-7.25" font-family="FreeSans" font-size="10.00">boost/format.hpp</text>
</a>
</g>
</g>
<!-- Node9&#45;&gt;Node12 -->
<g id="edge13_Node000009_Node000012" class="edge">
<title>Node9&#45;&gt;Node12</title>
<g id="a_edge13_Node000009_Node000012"><a xlink:title=" ">
<path fill="none" stroke="#63b8ff" d="M334.65,-62.68C323.41,-53.27 306.23,-38.89 292.92,-27.74"/>
<polygon fill="#63b8ff" stroke="#63b8ff" points="295.75,-24.71 285.83,-20.97 291.25,-30.07 295.75,-24.71"/>
</a>
</g>
</g>
<!-- Node15&#45;&gt;Node3 -->
<g id="edge32_Node000015_Node000003" class="edge">
<title>Node15&#45;&gt;Node3</title>
<g id="a_edge32_Node000015_Node000003"><a xlink:title=" ">
<path fill="none" stroke="#63b8ff" d="M1519.99,-135.97C1349.98,-136.95 740.44,-137.04 553.38,-90.25 551.39,-89.75 549.38,-89.13 547.38,-88.42"/>
<polygon fill="#63b8ff" stroke="#63b8ff" points="549.27,-85 538.7,-84.36 546.56,-91.46 549.27,-85"/>
</a>
</g>
</g>
<!-- Node15&#45;&gt;Node5 -->
<g id="edge31_Node000015_Node000005" class="edge">
<title>Node15&#45;&gt;Node5</title>
<g id="a_edge31_Node000015_Node000005"><a xlink:title=" ">
<path fill="none" stroke="#63b8ff" d="M1608.85,-127.36C1611.73,-126.95 1614.59,-126.57 1617.38,-126.25 1764.32,-109.32 2382.61,-162.69 2279.38,-56.75 2248.49,-25.06 827.93,-13.51 566.49,-11.65"/>
<polygon fill="#63b8ff" stroke="#63b8ff" points="566.63,-8.15 556.61,-11.58 566.58,-15.15 566.63,-8.15"/>
</a>
</g>
</g>
<!-- Node15&#45;&gt;Node13 -->
<g id="edge23_Node000015_Node000013" class="edge">
<title>Node15&#45;&gt;Node13</title>
<g id="a_edge23_Node000015_Node000013"><a xlink:title=" ">
<path fill="none" stroke="#63b8ff" d="M1519.93,-135.85C1391.7,-135.94 1010.32,-132.38 697.38,-90.25 690.22,-89.29 682.72,-87.98 675.37,-86.53"/>
<polygon fill="#63b8ff" stroke="#63b8ff" points="676.28,-82.94 665.78,-84.33 674.86,-89.79 676.28,-82.94"/>
</a>
</g>
</g>
<!-- Node16 -->
<g id="Node000016" class="node">
<title>Node16</title>
<g id="a_Node000016"><a xlink:href="config_8h.html" target="_top" xlink:title=" ">
<polygon fill="white" stroke="#666666" points="2380.5,-83.88 2326.25,-83.88 2326.25,-63.12 2380.5,-63.12 2380.5,-83.88"/>
<text text-anchor="middle" x="2353.38" y="-70.38" font-family="FreeSans" font-size="10.00">config.h</text>
</a>
</g>
</g>
<!-- Node15&#45;&gt;Node16 -->
<g id="edge17_Node000015_Node000016" class="edge">
<title>Node15&#45;&gt;Node16</title>
<g id="a_edge17_Node000015_Node000016"><a xlink:title=" ">
<path fill="none" stroke="#63b8ff" d="M1608.85,-127.35C1611.73,-126.94 1614.59,-126.57 1617.38,-126.25 1924.69,-91.25 2009.82,-154.5 2312.38,-90.25 2315.38,-89.61 2318.46,-88.78 2321.51,-87.84"/>
<polygon fill="#63b8ff" stroke="#63b8ff" points="2322.34,-90.91 2330.63,-84.31 2320.04,-84.3 2322.34,-90.91"/>
</a>
</g>
</g>
<!-- Node17 -->
<g id="Node000017" class="node">
<title>Node17</title>
<g id="a_Node000017"><a xlink:title=" ">
<polygon fill="#e0e0e0" stroke="#999999" points="2532.25,-83.88 2398.5,-83.88 2398.5,-63.12 2532.25,-63.12 2532.25,-83.88"/>
<text text-anchor="middle" x="2465.38" y="-70.38" font-family="FreeSans" font-size="10.00">nvector/nvector_serial.h</text>
</a>
</g>
</g>
<!-- Node15&#45;&gt;Node17 -->
<g id="edge18_Node000015_Node000017" class="edge">
<title>Node15&#45;&gt;Node17</title>
<g id="a_edge18_Node000015_Node000017"><a xlink:title=" ">
<path fill="none" stroke="#63b8ff" d="M1608.85,-127.33C1611.73,-126.93 1614.59,-126.56 1617.38,-126.25 1958.75,-88.26 2048.59,-133.23 2389.38,-90.25 2397.1,-89.28 2405.2,-87.94 2413.12,-86.46"/>
<polygon fill="#63b8ff" stroke="#63b8ff" points="2413.63,-89.73 2422.76,-84.36 2412.27,-82.86 2413.63,-89.73"/>
</a>
</g>
</g>
<!-- Node18 -->
<g id="Node000018" class="node">
<title>Node18</title>
<g id="a_Node000018"><a xlink:title=" ">
<polygon fill="#e0e0e0" stroke="#999999" points="850.12,-83.88 706.62,-83.88 706.62,-63.12 850.12,-63.12 850.12,-83.88"/>
<text text-anchor="middle" x="778.38" y="-70.38" font-family="FreeSans" font-size="10.00">sundials/sundials_dense.h</text>
</a>
</g>
</g>
<!-- Node15&#45;&gt;Node18 -->
<g id="edge19_Node000015_Node000018" class="edge">
<title>Node15&#45;&gt;Node18</title>
<g id="a_edge19_Node000015_Node000018"><a xlink:title=" ">
<path fill="none" stroke="#63b8ff" d="M1520.05,-134.74C1408.6,-132.08 1107.83,-122.27 859.38,-90.25 851.27,-89.21 842.76,-87.85 834.43,-86.36"/>
<polygon fill="#63b8ff" stroke="#63b8ff" points="835.09,-82.74 824.62,-84.36 833.81,-89.62 835.09,-82.74"/>
</a>
</g>
</g>
<!-- Node19 -->
<g id="Node000019" class="node">
<title>Node19</title>
<g id="a_Node000019"><a xlink:title=" ">
<polygon fill="#e0e0e0" stroke="#999999" points="1006.5,-83.88 868.25,-83.88 868.25,-63.12 1006.5,-63.12 1006.5,-83.88"/>
<text text-anchor="middle" x="937.38" y="-70.38" font-family="FreeSans" font-size="10.00">sundials/sundials_band.h</text>
</a>
</g>
</g>
<!-- Node15&#45;&gt;Node19 -->
<g id="edge20_Node000015_Node000019" class="edge">
<title>Node15&#45;&gt;Node19</title>
<g id="a_edge20_Node000015_Node000019"><a xlink:title=" ">
<path fill="none" stroke="#63b8ff" d="M1520.06,-133.72C1426.46,-129.31 1201.91,-116.7 1015.38,-90.25 1007.76,-89.17 999.76,-87.81 991.92,-86.35"/>
<polygon fill="#63b8ff" stroke="#63b8ff" points="992.84,-82.78 982.36,-84.32 991.51,-89.65 992.84,-82.78"/>
</a>
</g>
</g>
<!-- Node20 -->
<g id="Node000020" class="node">
<title>Node20</title>
<g id="a_Node000020"><a xlink:title=" ">
<polygon fill="#e0e0e0" stroke="#999999" points="1166,-83.88 1024.75,-83.88 1024.75,-63.12 1166,-63.12 1166,-83.88"/>
<text text-anchor="middle" x="1095.38" y="-70.38" font-family="FreeSans" font-size="10.00">sundials/sundials_types.h</text>
</a>
</g>
</g>
<!-- Node15&#45;&gt;Node20 -->
<g id="edge21_Node000015_Node000020" class="edge">
<title>Node15&#45;&gt;Node20</title>
<g id="a_edge21_Node000015_Node000020"><a xlink:title=" ">
<path fill="none" stroke="#63b8ff" d="M1519.88,-131.58C1447.46,-124.74 1299.65,-109.7 1175.38,-90.25 1168.06,-89.1 1160.39,-87.77 1152.81,-86.37"/>
<polygon fill="#63b8ff" stroke="#63b8ff" points="1153.7,-82.79 1143.22,-84.36 1152.39,-89.66 1153.7,-82.79"/>
</a>
</g>
</g>
<!-- Node21 -->
<g id="Node000021" class="node">
<title>Node21</title>
<g id="a_Node000021"><a xlink:title=" ">
<polygon fill="#e0e0e0" stroke="#999999" points="1270.62,-83.88 1184.12,-83.88 1184.12,-63.12 1270.62,-63.12 1270.62,-83.88"/>
<text text-anchor="middle" x="1227.38" y="-70.38" font-family="FreeSans" font-size="10.00">cvode/cvode.h</text>
</a>
</g>
</g>
<!-- Node15&#45;&gt;Node21 -->
<g id="edge22_Node000015_Node000021" class="edge">
<title>Node15&#45;&gt;Node21</title>
<g id="a_edge22_Node000015_Node000021"><a xlink:title=" ">
<path fill="none" stroke="#63b8ff" d="M1520.08,-130.47C1463.72,-123.49 1363.6,-109.62 1279.38,-90.25 1275.57,-89.37 1271.63,-88.37 1267.7,-87.3"/>
<polygon fill="#63b8ff" stroke="#63b8ff" points="1269.01,-83.75 1258.43,-84.36 1267.09,-90.48 1269.01,-83.75"/>
</a>
</g>
</g>
<!-- Node22 -->
<g id="Node000022" class="node">
<title>Node22</title>
<g id="a_Node000022"><a xlink:title=" ">
<polygon fill="#e0e0e0" stroke="#999999" points="1418.38,-83.88 1288.38,-83.88 1288.38,-63.12 1418.38,-63.12 1418.38,-83.88"/>
<text text-anchor="middle" x="1353.38" y="-70.38" font-family="FreeSans" font-size="10.00">cvodes/cvodes_direct.h</text>
</a>
</g>
</g>
<!-- Node15&#45;&gt;Node22 -->
<g id="edge24_Node000015_Node000022" class="edge">
<title>Node15&#45;&gt;Node22</title>
<g id="a_edge24_Node000015_Node000022"><a xlink:title=" ">
<path fill="none" stroke="#63b8ff" d="M1530.47,-125.8C1494.41,-115.36 1437.2,-98.78 1397.61,-87.31"/>
<polygon fill="#63b8ff" stroke="#63b8ff" points="1398.77,-83.72 1388.19,-84.3 1396.82,-90.44 1398.77,-83.72"/>
</a>
</g>
</g>
<!-- Node23 -->
<g id="Node000023" class="node">
<title>Node23</title>
<g id="a_Node000023"><a xlink:title=" ">
<polygon fill="#e0e0e0" stroke="#999999" points="1560.75,-83.88 1436,-83.88 1436,-63.12 1560.75,-63.12 1560.75,-83.88"/>
<text text-anchor="middle" x="1498.38" y="-70.38" font-family="FreeSans" font-size="10.00">cvodes/cvodes_spils.h</text>
</a>
</g>
</g>
<!-- Node15&#45;&gt;Node23 -->
<g id="edge25_Node000015_Node000023" class="edge">
<title>Node15&#45;&gt;Node23</title>
<g id="a_edge25_Node000015_Node000023"><a xlink:title=" ">
<path fill="none" stroke="#63b8ff" d="M1553.77,-125.8C1543.8,-116.57 1528.67,-102.56 1516.74,-91.51"/>
<polygon fill="#63b8ff" stroke="#63b8ff" points="1519.45,-89.32 1509.74,-85.09 1514.69,-94.46 1519.45,-89.32"/>
</a>
</g>
</g>
<!-- Node24 -->
<g id="Node000024" class="node">
<title>Node24</title>
<g id="a_Node000024"><a xlink:title=" ">
<polygon fill="#e0e0e0" stroke="#999999" points="1684.38,-90.25 1578.38,-90.25 1578.38,-56.75 1684.38,-56.75 1684.38,-90.25"/>
<text text-anchor="start" x="1586.38" y="-76.75" font-family="FreeSans" font-size="10.00">sunlinsol/sunlinsol</text>
<text text-anchor="middle" x="1631.38" y="-64" font-family="FreeSans" font-size="10.00">_dense.h</text>
</a>
</g>
</g>
<!-- Node15&#45;&gt;Node24 -->
<g id="edge26_Node000015_Node000024" class="edge">
<title>Node15&#45;&gt;Node24</title>
<g id="a_edge26_Node000015_Node000024"><a xlink:title=" ">
<path fill="none" stroke="#63b8ff" d="M1575.14,-125.8C1583.39,-118.27 1595.13,-107.56 1605.75,-97.88"/>
<polygon fill="#63b8ff" stroke="#63b8ff" points="1607.55,-101.06 1612.58,-91.73 1602.83,-95.89 1607.55,-101.06"/>
</a>
</g>
</g>
<!-- Node25 -->
<g id="Node000025" class="node">
<title>Node25</title>
<g id="a_Node000025"><a xlink:title=" ">
<polygon fill="#e0e0e0" stroke="#999999" points="1808.38,-90.25 1702.38,-90.25 1702.38,-56.75 1808.38,-56.75 1808.38,-90.25"/>
<text text-anchor="start" x="1710.38" y="-76.75" font-family="FreeSans" font-size="10.00">sunlinsol/sunlinsol</text>
<text text-anchor="middle" x="1755.38" y="-64" font-family="FreeSans" font-size="10.00">_band.h</text>
</a>
</g>
</g>
<!-- Node15&#45;&gt;Node25 -->
<g id="edge27_Node000015_Node000025" class="edge">
<title>Node15&#45;&gt;Node25</title>
<g id="a_edge27_Node000015_Node000025"><a xlink:title=" ">
<path fill="none" stroke="#63b8ff" d="M1595.06,-125.8C1621.82,-117.24 1661.43,-104.56 1694.59,-93.95"/>
<polygon fill="#63b8ff" stroke="#63b8ff" points="1695.19,-97.12 1703.65,-90.73 1693.05,-90.45 1695.19,-97.12"/>
</a>
</g>
</g>
<!-- Node26 -->
<g id="Node000026" class="node">
<title>Node26</title>
<g id="a_Node000026"><a xlink:title=" ">
<polygon fill="#e0e0e0" stroke="#999999" points="1932.38,-90.25 1826.38,-90.25 1826.38,-56.75 1932.38,-56.75 1932.38,-90.25"/>
<text text-anchor="start" x="1834.38" y="-76.75" font-family="FreeSans" font-size="10.00">sunlinsol/sunlinsol</text>
<text text-anchor="middle" x="1879.38" y="-64" font-family="FreeSans" font-size="10.00">_spgmr.h</text>
</a>
</g>
</g>
<!-- Node15&#45;&gt;Node26 -->
<g id="edge28_Node000015_Node000026" class="edge">
<title>Node15&#45;&gt;Node26</title>
<g id="a_edge28_Node000015_Node000026"><a xlink:title=" ">
<path fill="none" stroke="#63b8ff" d="M1608.79,-127.74C1670.71,-116.75 1778.86,-97.5 1815.64,-90.4"/>
<polygon fill="#63b8ff" stroke="#63b8ff" points="1815.88,-93.72 1825,-88.32 1814.5,-86.86 1815.88,-93.72"/>
</a>
</g>
</g>
<!-- Node27 -->
<g id="Node000027" class="node">
<title>Node27</title>
<g id="a_Node000027"><a xlink:title=" ">
<polygon fill="#e0e0e0" stroke="#999999" points="2068.38,-90.25 1950.38,-90.25 1950.38,-56.75 2068.38,-56.75 2068.38,-90.25"/>
<text text-anchor="start" x="1958.38" y="-76.75" font-family="FreeSans" font-size="10.00">sunmatrix/sunmatrix</text>
<text text-anchor="middle" x="2009.38" y="-64" font-family="FreeSans" font-size="10.00">_dense.h</text>
</a>
</g>
</g>
<!-- Node15&#45;&gt;Node27 -->
<g id="edge29_Node000015_Node000027" class="edge">
<title>Node15&#45;&gt;Node27</title>
<g id="a_edge29_Node000015_Node000027"><a xlink:title=" ">
<path fill="none" stroke="#63b8ff" d="M1608.87,-127.54C1611.75,-127.08 1614.6,-126.65 1617.38,-126.25 1757.42,-106.1 1796.73,-114.23 1939.65,-90.42"/>
<polygon fill="#63b8ff" stroke="#63b8ff" points="1939.84,-93.77 1949.12,-88.65 1938.68,-86.87 1939.84,-93.77"/>
</a>
</g>
</g>
<!-- Node28 -->
<g id="Node000028" class="node">
<title>Node28</title>
<g id="a_Node000028"><a xlink:title=" ">
<polygon fill="#e0e0e0" stroke="#999999" points="2204.38,-90.25 2086.38,-90.25 2086.38,-56.75 2204.38,-56.75 2204.38,-90.25"/>
<text text-anchor="start" x="2094.38" y="-76.75" font-family="FreeSans" font-size="10.00">sunmatrix/sunmatrix</text>
<text text-anchor="middle" x="2145.38" y="-64" font-family="FreeSans" font-size="10.00">_band.h</text>
</a>
</g>
</g>
<!-- Node15&#45;&gt;Node28 -->
<g id="edge30_Node000015_Node000028" class="edge">
<title>Node15&#45;&gt;Node28</title>
<g id="a_edge30_Node000015_Node000028"><a xlink:title=" ">
<path fill="none" stroke="#63b8ff" d="M1608.86,-127.43C1611.74,-127 1614.59,-126.6 1617.38,-126.25 1817.33,-100.8 1872.81,-120.77 2075.43,-90.4"/>
<polygon fill="#63b8ff" stroke="#63b8ff" points="2075.78,-93.74 2085.14,-88.77 2074.73,-86.82 2075.78,-93.74"/>
</a>
</g>
</g>
<!-- Node29 -->
<g id="Node000029" class="node">
<title>Node29</title>
<g id="a_Node000029"><a xlink:title=" ">
<polygon fill="#e0e0e0" stroke="#999999" points="2270.12,-83.88 2222.62,-83.88 2222.62,-63.12 2270.12,-63.12 2270.12,-83.88"/>
<text text-anchor="middle" x="2246.38" y="-70.38" font-family="FreeSans" font-size="10.00">time.h</text>
</a>
</g>
</g>
<!-- Node15&#45;&gt;Node29 -->
<g id="edge33_Node000015_Node000029" class="edge">
<title>Node15&#45;&gt;Node29</title>
<g id="a_edge33_Node000015_Node000029"><a xlink:title=" ">
<path fill="none" stroke="#63b8ff" d="M1608.85,-127.38C1611.73,-126.96 1614.59,-126.58 1617.38,-126.25 1880.91,-95.09 1956.44,-156.63 2213.38,-90.25 2215.36,-89.74 2217.36,-89.1 2219.36,-88.39"/>
<polygon fill="#63b8ff" stroke="#63b8ff" points="2220.19,-91.42 2228.04,-84.31 2217.46,-84.97 2220.19,-91.42"/>
</a>
</g>
</g>
</g>
</svg>
