<?xml version="1.0" encoding="UTF-8" standalone="no"?>
<!DOCTYPE svg PUBLIC "-//W3C//DTD SVG 1.1//EN"
 "http://www.w3.org/Graphics/SVG/1.1/DTD/svg11.dtd">
<!-- Generated by graphviz version 2.28.0 (20120425.2022)
 -->
<!-- Title: src/mathUtils.h Pages: 1 -->
<svg width="1685pt" height="308pt"
 viewBox="0.00 0.00 1685.45 308.00" xmlns="http://www.w3.org/2000/svg" xmlns:xlink="http://www.w3.org/1999/xlink">
<g id="graph1" class="graph" transform="scale(1 1) rotate(0) translate(4 304)">
<title>src/mathUtils.h</title>
<polygon fill="white" stroke="white" points="-4,5 -4,-304 1682.45,-304 1682.45,5 -4,5"/>
<!-- Node1 -->
<g id="node1" class="node"><title>Node1</title>
<polygon fill="#bfbfbf" stroke="black" points="929.949,-280.5 929.949,-299.5 1010.95,-299.5 1010.95,-280.5 929.949,-280.5"/>
<text text-anchor="middle" x="970.449" y="-287.5" font-family="FreeSans" font-size="10.00">src/mathUtils.h</text>
</g>
<!-- Node2 -->
<g id="node3" class="node"><title>Node2</title>
<a xlink:href="chemistry0d_8h.html" target="_top" xlink:title="src/chemistry0d.h">
<polygon fill="white" stroke="black" points="52.9485,-168.5 52.9485,-187.5 147.949,-187.5 147.949,-168.5 52.9485,-168.5"/>
<text text-anchor="middle" x="100.449" y="-175.5" font-family="FreeSans" font-size="10.00">src/chemistry0d.h</text>
</a>
</g>
<!-- Node1&#45;&gt;Node2 -->
<g id="edge2" class="edge"><title>Node1&#45;&gt;Node2</title>
<path fill="none" stroke="midnightblue" d="M919.598,-289.68C807.578,-290.281 531.508,-286.845 305.449,-244 236.484,-230.929 158.253,-202.001 121.559,-187.555"/>
<polygon fill="midnightblue" stroke="midnightblue" points="919.943,-293.177 929.919,-289.61 919.896,-286.178 919.943,-293.177"/>
</g>
<!-- Node8 -->
<g id="node15" class="node"><title>Node8</title>
<a xlink:href="readConfig_8h.html" target="_top" xlink:title="src/readConfig.h">
<polygon fill="white" stroke="black" points="612.949,-224.5 612.949,-243.5 703.949,-243.5 703.949,-224.5 612.949,-224.5"/>
<text text-anchor="middle" x="658.449" y="-231.5" font-family="FreeSans" font-size="10.00">src/readConfig.h</text>
</a>
</g>
<!-- Node1&#45;&gt;Node8 -->
<g id="edge14" class="edge"><title>Node1&#45;&gt;Node8</title>
<path fill="none" stroke="midnightblue" d="M919.689,-280.215C859.912,-269.869 761.505,-252.837 704.059,-242.894"/>
<polygon fill="midnightblue" stroke="midnightblue" points="919.21,-283.684 929.66,-281.94 920.403,-276.786 919.21,-283.684"/>
</g>
<!-- Node10 -->
<g id="node20" class="node"><title>Node10</title>
<a xlink:href="convectionSystem_8h.html" target="_top" xlink:title="src/convectionSystem.h">
<polygon fill="white" stroke="black" points="449.949,-112.5 449.949,-131.5 572.949,-131.5 572.949,-112.5 449.949,-112.5"/>
<text text-anchor="middle" x="511.449" y="-119.5" font-family="FreeSans" font-size="10.00">src/convectionSystem.h</text>
</a>
</g>
<!-- Node1&#45;&gt;Node10 -->
<g id="edge48" class="edge"><title>Node1&#45;&gt;Node10</title>
<path fill="none" stroke="midnightblue" d="M919.424,-288.27C792.265,-285.22 467.06,-269.453 405.449,-188 384.352,-160.109 432.403,-141.488 470.536,-131.574"/>
<polygon fill="midnightblue" stroke="midnightblue" points="919.593,-291.774 929.669,-288.498 919.749,-284.776 919.593,-291.774"/>
</g>
<!-- Node11 -->
<g id="node24" class="node"><title>Node11</title>
<a xlink:href="diffusionSystem_8h.html" target="_top" xlink:title="src/diffusionSystem.h">
<polygon fill="white" stroke="red" points="320.949,-112.5 320.949,-131.5 431.949,-131.5 431.949,-112.5 320.949,-112.5"/>
<text text-anchor="middle" x="376.449" y="-119.5" font-family="FreeSans" font-size="10.00">src/diffusionSystem.h</text>
</a>
</g>
<!-- Node1&#45;&gt;Node11 -->
<g id="edge72" class="edge"><title>Node1&#45;&gt;Node11</title>
<path fill="none" stroke="midnightblue" d="M919.71,-288.663C807.016,-287.257 539.362,-280.099 457.449,-244 423.771,-229.158 416.101,-219.117 396.449,-188 384.974,-169.832 379.706,-144.643 377.62,-131.599"/>
<polygon fill="midnightblue" stroke="midnightblue" points="919.761,-292.164 929.8,-288.779 919.841,-285.164 919.761,-292.164"/>
</g>
<!-- Node12 -->
<g id="node29" class="node"><title>Node12</title>
<a xlink:href="splitSolver_8h.html" target="_top" xlink:title="src/splitSolver.h">
<polygon fill="white" stroke="black" points="686.949,-168.5 686.949,-187.5 773.949,-187.5 773.949,-168.5 686.949,-168.5"/>
<text text-anchor="middle" x="730.449" y="-175.5" font-family="FreeSans" font-size="10.00">src/splitSolver.h</text>
</a>
</g>
<!-- Node1&#45;&gt;Node12 -->
<g id="edge82" class="edge"><title>Node1&#45;&gt;Node12</title>
<path fill="none" stroke="midnightblue" d="M942.441,-276.163C892.92,-253.466 791.171,-206.831 749.193,-187.591"/>
<polygon fill="midnightblue" stroke="midnightblue" points="941.067,-279.384 951.616,-280.368 943.984,-273.02 941.067,-279.384"/>
</g>
<!-- Node16 -->
<g id="node41" class="node"><title>Node16</title>
<a xlink:href="quasi2d_8h.html" target="_top" xlink:title="src/quasi2d.h">
<polygon fill="white" stroke="black" points="1208.95,-224.5 1208.95,-243.5 1285.95,-243.5 1285.95,-224.5 1208.95,-224.5"/>
<text text-anchor="middle" x="1247.45" y="-231.5" font-family="FreeSans" font-size="10.00">src/quasi2d.h</text>
</a>
</g>
<!-- Node1&#45;&gt;Node16 -->
<g id="edge50" class="edge"><title>Node1&#45;&gt;Node16</title>
<path fill="none" stroke="midnightblue" d="M1021.07,-279.131C1075.1,-268.599 1159.51,-252.142 1208.56,-242.582"/>
<polygon fill="midnightblue" stroke="midnightblue" points="1020.17,-275.741 1011.02,-281.09 1021.51,-282.612 1020.17,-275.741"/>
</g>
<!-- Node17 -->
<g id="node44" class="node"><title>Node17</title>
<a xlink:href="sourceSystem_8h.html" target="_top" xlink:title="src/sourceSystem.h">
<polygon fill="white" stroke="black" points="1362.95,-168.5 1362.95,-187.5 1467.95,-187.5 1467.95,-168.5 1362.95,-168.5"/>
<text text-anchor="middle" x="1415.45" y="-175.5" font-family="FreeSans" font-size="10.00">src/sourceSystem.h</text>
</a>
</g>
<!-- Node1&#45;&gt;Node17 -->
<g id="edge84" class="edge"><title>Node1&#45;&gt;Node17</title>
<path fill="none" stroke="midnightblue" d="M1021.49,-287.469C1086.4,-284.276 1201.25,-274.42 1294.45,-244 1300,-242.187 1367.98,-205.048 1399.54,-187.739"/>
<polygon fill="midnightblue" stroke="midnightblue" points="1020.96,-283.99 1011.13,-287.943 1021.28,-290.983 1020.96,-283.99"/>
</g>
<!-- Node19 -->
<g id="node51" class="node"><title>Node19</title>
<a xlink:href="dataFile_8h.html" target="_top" xlink:title="src/dataFile.h">
<polygon fill="white" stroke="black" points="1058.95,-224.5 1058.95,-243.5 1135.95,-243.5 1135.95,-224.5 1058.95,-224.5"/>
<text text-anchor="middle" x="1097.45" y="-231.5" font-family="FreeSans" font-size="10.00">src/dataFile.h</text>
</a>
</g>
<!-- Node1&#45;&gt;Node19 -->
<g id="edge64" class="edge"><title>Node1&#45;&gt;Node19</title>
<path fill="none" stroke="midnightblue" d="M999.84,-276.503C1023.65,-266.38 1056.55,-252.388 1077.42,-243.516"/>
<polygon fill="midnightblue" stroke="midnightblue" points="998.405,-273.31 990.572,-280.444 1001.14,-279.751 998.405,-273.31"/>
</g>
<!-- Node21 -->
<g id="node58" class="node"><title>Node21</title>
<a xlink:href="integrator_8h.html" target="_top" xlink:title="src/integrator.h">
<polygon fill="white" stroke="black" points="236.949,-168.5 236.949,-187.5 319.949,-187.5 319.949,-168.5 236.949,-168.5"/>
<text text-anchor="middle" x="278.449" y="-175.5" font-family="FreeSans" font-size="10.00">src/integrator.h</text>
</a>
</g>
<!-- Node1&#45;&gt;Node21 -->
<g id="edge74" class="edge"><title>Node1&#45;&gt;Node21</title>
<path fill="none" stroke="midnightblue" d="M919.77,-287.645C778.321,-283.553 386.206,-269.975 334.449,-244 309.421,-231.439 290.951,-202.272 282.905,-187.663"/>
<polygon fill="midnightblue" stroke="midnightblue" points="919.813,-291.148 929.909,-287.935 920.013,-284.151 919.813,-291.148"/>
</g>
<!-- Node23 -->
<g id="node66" class="node"><title>Node23</title>
<a xlink:href="qssintegrator_8h.html" target="_top" xlink:title="src/qssintegrator.h">
<polygon fill="white" stroke="black" points="1342.95,-224.5 1342.95,-243.5 1441.95,-243.5 1441.95,-224.5 1342.95,-224.5"/>
<text text-anchor="middle" x="1392.45" y="-231.5" font-family="FreeSans" font-size="10.00">src/qssintegrator.h</text>
</a>
</g>
<!-- Node1&#45;&gt;Node23 -->
<g id="edge86" class="edge"><title>Node1&#45;&gt;Node23</title>
<path fill="none" stroke="midnightblue" d="M1021.22,-282.856C1090.64,-274.401 1219.04,-258.569 1328.45,-244 1333.12,-243.378 1337.98,-242.718 1342.84,-242.049"/>
<polygon fill="midnightblue" stroke="midnightblue" points="1020.51,-279.416 1011.01,-284.098 1021.36,-286.365 1020.51,-279.416"/>
</g>
<!-- Node25 -->
<g id="node71" class="node"><title>Node25</title>
<a xlink:href="strainFunction_8h.html" target="_top" xlink:title="src/strainFunction.h">
<polygon fill="white" stroke="black" points="919.949,-224.5 919.949,-243.5 1020.95,-243.5 1020.95,-224.5 919.949,-224.5"/>
<text text-anchor="middle" x="970.449" y="-231.5" font-family="FreeSans" font-size="10.00">src/strainFunction.h</text>
</a>
</g>
<!-- Node1&#45;&gt;Node25 -->
<g id="edge92" class="edge"><title>Node1&#45;&gt;Node25</title>
<path fill="none" stroke="midnightblue" d="M970.449,-269.805C970.449,-260.91 970.449,-250.78 970.449,-243.751"/>
<polygon fill="midnightblue" stroke="midnightblue" points="966.949,-270.083 970.449,-280.083 973.949,-270.083 966.949,-270.083"/>
</g>
<!-- Node26 -->
<g id="node76" class="node"><title>Node26</title>
<a xlink:href="mathUtils_8cpp.html" target="_top" xlink:title="src/mathUtils.cpp">
<polygon fill="white" stroke="black" points="1460.45,-224.5 1460.45,-243.5 1552.45,-243.5 1552.45,-224.5 1460.45,-224.5"/>
<text text-anchor="middle" x="1506.45" y="-231.5" font-family="FreeSans" font-size="10.00">src/mathUtils.cpp</text>
</a>
</g>
<!-- Node1&#45;&gt;Node26 -->
<g id="edge100" class="edge"><title>Node1&#45;&gt;Node26</title>
<path fill="none" stroke="midnightblue" d="M1021.21,-285.347C1108.92,-278.786 1294.46,-263.824 1450.45,-244 1453.67,-243.59 1457,-243.137 1460.34,-242.657"/>
<polygon fill="midnightblue" stroke="midnightblue" points="1020.72,-281.873 1011,-286.105 1021.24,-288.854 1020.72,-281.873"/>
</g>
<!-- Node27 -->
<g id="node78" class="node"><title>Node27</title>
<a xlink:href="sundialsUtils_8cpp.html" target="_top" xlink:title="src/sundialsUtils.cpp">
<polygon fill="white" stroke="black" points="1570.95,-224.5 1570.95,-243.5 1677.95,-243.5 1677.95,-224.5 1570.95,-224.5"/>
<text text-anchor="middle" x="1624.45" y="-231.5" font-family="FreeSans" font-size="10.00">src/sundialsUtils.cpp</text>
</a>
</g>
<!-- Node1&#45;&gt;Node27 -->
<g id="edge102" class="edge"><title>Node1&#45;&gt;Node27</title>
<path fill="none" stroke="midnightblue" d="M1021.07,-286.273C1123.36,-280.515 1361.93,-265.823 1561.45,-244 1564.52,-243.664 1567.68,-243.293 1570.86,-242.9"/>
<polygon fill="midnightblue" stroke="midnightblue" points="1020.81,-282.782 1011.02,-286.835 1021.2,-289.772 1020.81,-282.782"/>
</g>
<!-- Node3 -->
<g id="node5" class="node"><title>Node3</title>
<a xlink:href="chemistry0d_8cpp.html" target="_top" xlink:title="src/chemistry0d.cpp">
<polygon fill="white" stroke="black" points="47.9485,-112.5 47.9485,-131.5 152.949,-131.5 152.949,-112.5 47.9485,-112.5"/>
<text text-anchor="middle" x="100.449" y="-119.5" font-family="FreeSans" font-size="10.00">src/chemistry0d.cpp</text>
</a>
</g>
<!-- Node2&#45;&gt;Node3 -->
<g id="edge4" class="edge"><title>Node2&#45;&gt;Node3</title>
<path fill="none" stroke="midnightblue" d="M100.449,-157.805C100.449,-148.91 100.449,-138.78 100.449,-131.751"/>
<polygon fill="midnightblue" stroke="midnightblue" points="96.9486,-158.083 100.449,-168.083 103.949,-158.083 96.9486,-158.083"/>
</g>
<!-- Node4 -->
<g id="node7" class="node"><title>Node4</title>
<a xlink:href="convectionSystem_8cpp.html" target="_top" xlink:title="src/convectionSystem.cpp">
<polygon fill="white" stroke="black" points="158.449,-56.5 158.449,-75.5 292.449,-75.5 292.449,-56.5 158.449,-56.5"/>
<text text-anchor="middle" x="225.449" y="-63.5" font-family="FreeSans" font-size="10.00">src/convectionSystem.cpp</text>
</a>
</g>
<!-- Node2&#45;&gt;Node4 -->
<g id="edge6" class="edge"><title>Node2&#45;&gt;Node4</title>
<path fill="none" stroke="midnightblue" d="M57.2372,-165.384C23.7787,-154.256 -13.8726,-135.673 5.44853,-112 24.5217,-88.6306 100.926,-77.0709 158.38,-71.5827"/>
<polygon fill="midnightblue" stroke="midnightblue" points="56.3741,-168.782 66.9641,-168.459 58.4843,-162.107 56.3741,-168.782"/>
</g>
<!-- Node5 -->
<g id="node9" class="node"><title>Node5</title>
<a xlink:href="flameSolver_8h.html" target="_top" xlink:title="src/flameSolver.h">
<polygon fill="white" stroke="black" points="572.949,-56.5 572.949,-75.5 667.949,-75.5 667.949,-56.5 572.949,-56.5"/>
<text text-anchor="middle" x="620.449" y="-63.5" font-family="FreeSans" font-size="10.00">src/flameSolver.h</text>
</a>
</g>
<!-- Node2&#45;&gt;Node5 -->
<g id="edge8" class="edge"><title>Node2&#45;&gt;Node5</title>
<path fill="none" stroke="midnightblue" d="M72.7992,-163.672C49.2586,-150.61 21.7078,-130.085 38.4485,-112 56.5198,-92.4775 436.578,-74.703 572.578,-68.9457"/>
<polygon fill="midnightblue" stroke="midnightblue" points="71.3723,-166.877 81.8488,-168.456 74.6438,-160.688 71.3723,-166.877"/>
</g>
<!-- Node7 -->
<g id="node13" class="node"><title>Node7</title>
<a xlink:href="sourceSystem_8cpp.html" target="_top" xlink:title="src/sourceSystem.cpp">
<polygon fill="white" stroke="black" points="843.449,-112.5 843.449,-131.5 959.449,-131.5 959.449,-112.5 843.449,-112.5"/>
<text text-anchor="middle" x="901.449" y="-119.5" font-family="FreeSans" font-size="10.00">src/sourceSystem.cpp</text>
</a>
</g>
<!-- Node2&#45;&gt;Node7 -->
<g id="edge12" class="edge"><title>Node2&#45;&gt;Node7</title>
<path fill="none" stroke="midnightblue" d="M158.147,-172.851C179.87,-171.305 204.794,-169.55 227.449,-168 470.075,-151.404 530.817,-148.529 773.449,-132 796.23,-130.448 821.288,-128.696 843.148,-127.153"/>
<polygon fill="midnightblue" stroke="midnightblue" points="157.814,-169.366 148.088,-173.568 158.312,-176.348 157.814,-169.366"/>
</g>
<!-- Node6 -->
<g id="node11" class="node"><title>Node6</title>
<a xlink:href="flameSolver_8cpp.html" target="_top" xlink:title="src/flameSolver.cpp">
<polygon fill="white" stroke="black" points="955.949,-0.5 955.949,-19.5 1060.95,-19.5 1060.95,-0.5 955.949,-0.5"/>
<text text-anchor="middle" x="1008.45" y="-7.5" font-family="FreeSans" font-size="10.00">src/flameSolver.cpp</text>
</a>
</g>
<!-- Node5&#45;&gt;Node6 -->
<g id="edge10" class="edge"><title>Node5&#45;&gt;Node6</title>
<path fill="none" stroke="midnightblue" d="M678.244,-56.9563C753.335,-46.5055 883.373,-28.4075 955.831,-18.3231"/>
<polygon fill="midnightblue" stroke="midnightblue" points="677.447,-53.5334 668.025,-58.3785 678.412,-60.4666 677.447,-53.5334"/>
</g>
<!-- Node8&#45;&gt;Node3 -->
<g id="edge16" class="edge"><title>Node8&#45;&gt;Node3</title>
<path fill="none" stroke="midnightblue" d="M602.693,-233.653C519.308,-233.196 357.957,-226.738 227.449,-188 182.808,-174.75 135.242,-145.906 113.121,-131.517"/>
<polygon fill="midnightblue" stroke="midnightblue" points="602.703,-237.153 612.712,-233.681 602.722,-230.153 602.703,-237.153"/>
</g>
<!-- Node8&#45;&gt;Node5 -->
<g id="edge32" class="edge"><title>Node8&#45;&gt;Node5</title>
<path fill="none" stroke="midnightblue" d="M654.083,-213.93C645.84,-177.92 628.285,-101.231 622.41,-75.5681"/>
<polygon fill="midnightblue" stroke="midnightblue" points="650.762,-215.108 656.405,-224.075 657.586,-213.546 650.762,-215.108"/>
</g>
<!-- Node8&#45;&gt;Node7 -->
<g id="edge42" class="edge"><title>Node8&#45;&gt;Node7</title>
<path fill="none" stroke="midnightblue" d="M695.323,-221.257C720.297,-212.908 753.829,-200.919 782.449,-188 802.939,-178.75 859.096,-147.12 886.292,-131.654"/>
<polygon fill="midnightblue" stroke="midnightblue" points="693.921,-218.034 685.523,-224.494 696.117,-224.681 693.921,-218.034"/>
</g>
<!-- Node9 -->
<g id="node18" class="node"><title>Node9</title>
<a xlink:href="grid_8h.html" target="_top" xlink:title="src/grid.h">
<polygon fill="white" stroke="red" points="534.449,-168.5 534.449,-187.5 592.449,-187.5 592.449,-168.5 534.449,-168.5"/>
<text text-anchor="middle" x="563.449" y="-175.5" font-family="FreeSans" font-size="10.00">src/grid.h</text>
</a>
</g>
<!-- Node8&#45;&gt;Node9 -->
<g id="edge18" class="edge"><title>Node8&#45;&gt;Node9</title>
<path fill="none" stroke="midnightblue" d="M634.131,-219.177C616.65,-209.241 593.618,-196.149 578.674,-187.655"/>
<polygon fill="midnightblue" stroke="midnightblue" points="632.762,-222.425 643.185,-224.324 636.221,-216.339 632.762,-222.425"/>
</g>
<!-- Node8&#45;&gt;Node12 -->
<g id="edge34" class="edge"><title>Node8&#45;&gt;Node12</title>
<path fill="none" stroke="midnightblue" d="M678.314,-218.101C691.272,-208.382 707.746,-196.027 718.67,-187.834"/>
<polygon fill="midnightblue" stroke="midnightblue" points="675.917,-215.524 670.017,-224.324 680.117,-221.124 675.917,-215.524"/>
</g>
<!-- Node13 -->
<g id="node32" class="node"><title>Node13</title>
<a xlink:href="splitSolver_8cpp.html" target="_top" xlink:title="src/splitSolver.cpp">
<polygon fill="white" stroke="black" points="667.449,-112.5 667.449,-131.5 765.449,-131.5 765.449,-112.5 667.449,-112.5"/>
<text text-anchor="middle" x="716.449" y="-119.5" font-family="FreeSans" font-size="10.00">src/splitSolver.cpp</text>
</a>
</g>
<!-- Node8&#45;&gt;Node13 -->
<g id="edge44" class="edge"><title>Node8&#45;&gt;Node13</title>
<path fill="none" stroke="midnightblue" d="M661.724,-214.138C664.581,-200.697 669.533,-182.515 677.449,-168 685.17,-153.841 697.963,-140.228 706.779,-131.753"/>
<polygon fill="midnightblue" stroke="midnightblue" points="658.255,-213.646 659.799,-224.128 665.128,-214.971 658.255,-213.646"/>
</g>
<!-- Node14 -->
<g id="node34" class="node"><title>Node14</title>
<a xlink:href="readConfig_8cpp.html" target="_top" xlink:title="src/readConfig.cpp">
<polygon fill="white" stroke="black" points="414.949,-168.5 414.949,-187.5 515.949,-187.5 515.949,-168.5 414.949,-168.5"/>
<text text-anchor="middle" x="465.449" y="-175.5" font-family="FreeSans" font-size="10.00">src/readConfig.cpp</text>
</a>
</g>
<!-- Node8&#45;&gt;Node14 -->
<g id="edge40" class="edge"><title>Node8&#45;&gt;Node14</title>
<path fill="none" stroke="midnightblue" d="M618.057,-221.699C581.631,-211.507 528.863,-196.743 495.887,-187.516"/>
<polygon fill="midnightblue" stroke="midnightblue" points="617.294,-225.12 627.867,-224.444 619.18,-218.378 617.294,-225.12"/>
</g>
<!-- Node15 -->
<g id="node38" class="node"><title>Node15</title>
<a xlink:href="strainFunction_8cpp.html" target="_top" xlink:title="src/strainFunction.cpp">
<polygon fill="white" stroke="black" points="830.449,-168.5 830.449,-187.5 942.449,-187.5 942.449,-168.5 830.449,-168.5"/>
<text text-anchor="middle" x="886.449" y="-175.5" font-family="FreeSans" font-size="10.00">src/strainFunction.cpp</text>
</a>
</g>
<!-- Node8&#45;&gt;Node15 -->
<g id="edge46" class="edge"><title>Node8&#45;&gt;Node15</title>
<path fill="none" stroke="midnightblue" d="M704.52,-222.088C747.594,-211.887 811.035,-196.861 850.49,-187.516"/>
<polygon fill="midnightblue" stroke="midnightblue" points="703.5,-218.733 694.576,-224.444 705.113,-225.545 703.5,-218.733"/>
</g>
<!-- Node9&#45;&gt;Node5 -->
<g id="edge30" class="edge"><title>Node9&#45;&gt;Node5</title>
<path fill="none" stroke="midnightblue" d="M572.61,-159.32C585.021,-135.37 606.692,-93.5484 615.997,-75.5914"/>
<polygon fill="midnightblue" stroke="midnightblue" points="569.415,-157.879 567.921,-168.368 575.63,-161.1 569.415,-157.879"/>
</g>
<!-- Node9&#45;&gt;Node10 -->
<g id="edge20" class="edge"><title>Node9&#45;&gt;Node10</title>
<path fill="none" stroke="midnightblue" d="M547.769,-160.718C538.604,-151.2 527.396,-139.561 519.875,-131.751"/>
<polygon fill="midnightblue" stroke="midnightblue" points="545.404,-163.308 554.862,-168.083 550.446,-158.452 545.404,-163.308"/>
</g>
<!-- Node9&#45;&gt;Node11 -->
<g id="edge26" class="edge"><title>Node9&#45;&gt;Node11</title>
<path fill="none" stroke="midnightblue" d="M524.288,-165.692C489.047,-155.515 438.032,-140.783 406.079,-131.556"/>
<polygon fill="midnightblue" stroke="midnightblue" points="523.651,-169.151 534.23,-168.562 525.593,-162.425 523.651,-169.151"/>
</g>
<!-- Node10&#45;&gt;Node4 -->
<g id="edge22" class="edge"><title>Node10&#45;&gt;Node4</title>
<path fill="none" stroke="midnightblue" d="M456.034,-110.537C401.982,-100.332 320.777,-84.9992 270.554,-75.5164"/>
<polygon fill="midnightblue" stroke="midnightblue" points="455.655,-114.027 466.131,-112.444 456.954,-107.149 455.655,-114.027"/>
</g>
<!-- Node10&#45;&gt;Node5 -->
<g id="edge24" class="edge"><title>Node10&#45;&gt;Node5</title>
<path fill="none" stroke="midnightblue" d="M537.967,-107.862C558.179,-97.8492 585.436,-84.3458 602.979,-75.6545"/>
<polygon fill="midnightblue" stroke="midnightblue" points="536.368,-104.748 528.961,-112.324 539.476,-111.021 536.368,-104.748"/>
</g>
<!-- Node11&#45;&gt;Node5 -->
<g id="edge28" class="edge"><title>Node11&#45;&gt;Node5</title>
<path fill="none" stroke="midnightblue" d="M424.88,-110.281C470.99,-100.077 539.475,-84.9203 581.967,-75.5164"/>
<polygon fill="midnightblue" stroke="midnightblue" points="424.118,-106.865 415.111,-112.444 425.631,-113.7 424.118,-106.865"/>
</g>
<!-- Node12&#45;&gt;Node5 -->
<g id="edge36" class="edge"><title>Node12&#45;&gt;Node5</title>
<path fill="none" stroke="midnightblue" d="M751.663,-162.024C768.004,-148.629 785.874,-128.606 773.449,-112 760.718,-94.9855 708.246,-82.1962 668.268,-74.6824"/>
<polygon fill="midnightblue" stroke="midnightblue" points="749.211,-159.495 743.426,-168.371 753.483,-165.04 749.211,-159.495"/>
</g>
<!-- Node12&#45;&gt;Node13 -->
<g id="edge38" class="edge"><title>Node12&#45;&gt;Node13</title>
<path fill="none" stroke="midnightblue" d="M725.625,-158.396C723.283,-149.362 720.58,-138.936 718.717,-131.751"/>
<polygon fill="midnightblue" stroke="midnightblue" points="722.239,-159.281 728.137,-168.083 729.015,-157.525 722.239,-159.281"/>
</g>
<!-- Node16&#45;&gt;Node5 -->
<g id="edge60" class="edge"><title>Node16&#45;&gt;Node5</title>
<path fill="none" stroke="midnightblue" d="M1269.54,-218.425C1287.34,-204.901 1307.31,-184.442 1293.45,-168 1213.12,-72.692 808.013,-65.8803 668.076,-66.4305"/>
<polygon fill="midnightblue" stroke="midnightblue" points="1267.22,-215.784 1261.13,-224.459 1271.3,-221.472 1267.22,-215.784"/>
</g>
<!-- Node16&#45;&gt;Node10 -->
<g id="edge52" class="edge"><title>Node16&#45;&gt;Node10</title>
<path fill="none" stroke="midnightblue" d="M1263.86,-216.806C1276.39,-202.502 1289.49,-181.825 1276.45,-168 1229.25,-117.969 727.109,-136.102 658.449,-132 630.373,-130.323 599.284,-128.425 572.955,-126.806"/>
<polygon fill="midnightblue" stroke="midnightblue" points="1261.03,-214.703 1256.74,-224.392 1266.14,-219.492 1261.03,-214.703"/>
</g>
<!-- Node16&#45;&gt;Node17 -->
<g id="edge54" class="edge"><title>Node16&#45;&gt;Node17</title>
<path fill="none" stroke="midnightblue" d="M1283.83,-221.304C1315.49,-211.129 1360.62,-196.625 1388.95,-187.516"/>
<polygon fill="midnightblue" stroke="midnightblue" points="1282.52,-218.051 1274.07,-224.444 1284.66,-224.715 1282.52,-218.051"/>
</g>
<!-- Node18 -->
<g id="node49" class="node"><title>Node18</title>
<a xlink:href="quasi2d_8cpp.html" target="_top" xlink:title="src/quasi2d.cpp">
<polygon fill="white" stroke="black" points="1180.95,-168.5 1180.95,-187.5 1267.95,-187.5 1267.95,-168.5 1180.95,-168.5"/>
<text text-anchor="middle" x="1224.45" y="-175.5" font-family="FreeSans" font-size="10.00">src/quasi2d.cpp</text>
</a>
</g>
<!-- Node16&#45;&gt;Node18 -->
<g id="edge62" class="edge"><title>Node16&#45;&gt;Node18</title>
<path fill="none" stroke="midnightblue" d="M1239.65,-214.69C1235.77,-205.589 1231.27,-195.014 1228.18,-187.751"/>
<polygon fill="midnightblue" stroke="midnightblue" points="1236.51,-216.254 1243.65,-224.083 1242.95,-213.511 1236.51,-216.254"/>
</g>
<!-- Node17&#45;&gt;Node5 -->
<g id="edge56" class="edge"><title>Node17&#45;&gt;Node5</title>
<path fill="none" stroke="midnightblue" d="M1403.62,-160.015C1391.69,-144.444 1371.75,-122.292 1348.45,-112 1286.52,-84.6396 819.94,-71.5868 668.066,-68.0319"/>
<polygon fill="midnightblue" stroke="midnightblue" points="1400.94,-162.288 1409.68,-168.284 1406.59,-158.149 1400.94,-162.288"/>
</g>
<!-- Node17&#45;&gt;Node7 -->
<g id="edge58" class="edge"><title>Node17&#45;&gt;Node7</title>
<path fill="none" stroke="midnightblue" d="M1352.87,-170.426C1252.62,-159.893 1057.39,-139.383 959.846,-129.135"/>
<polygon fill="midnightblue" stroke="midnightblue" points="1352.55,-173.911 1362.86,-171.475 1353.28,-166.949 1352.55,-173.911"/>
</g>
<!-- Node19&#45;&gt;Node6 -->
<g id="edge68" class="edge"><title>Node19&#45;&gt;Node6</title>
<path fill="none" stroke="midnightblue" d="M1083.68,-216.27C1077.48,-208.117 1070.43,-197.943 1065.45,-188 1034.91,-127.11 1015.99,-46.3509 1010.28,-19.8403"/>
<polygon fill="midnightblue" stroke="midnightblue" points="1081.01,-218.537 1089.96,-224.218 1086.51,-214.2 1081.01,-218.537"/>
</g>
<!-- Node19&#45;&gt;Node18 -->
<g id="edge70" class="edge"><title>Node19&#45;&gt;Node18</title>
<path fill="none" stroke="midnightblue" d="M1126.84,-220.503C1150.65,-210.38 1183.55,-196.388 1204.42,-187.516"/>
<polygon fill="midnightblue" stroke="midnightblue" points="1125.41,-217.31 1117.57,-224.444 1128.14,-223.751 1125.41,-217.31"/>
</g>
<!-- Node20 -->
<g id="node53" class="node"><title>Node20</title>
<a xlink:href="dataFile_8cpp.html" target="_top" xlink:title="src/dataFile.cpp">
<polygon fill="white" stroke="black" points="1074.45,-168.5 1074.45,-187.5 1162.45,-187.5 1162.45,-168.5 1074.45,-168.5"/>
<text text-anchor="middle" x="1118.45" y="-175.5" font-family="FreeSans" font-size="10.00">src/dataFile.cpp</text>
</a>
</g>
<!-- Node19&#45;&gt;Node20 -->
<g id="edge66" class="edge"><title>Node19&#45;&gt;Node20</title>
<path fill="none" stroke="midnightblue" d="M1104.57,-214.69C1108.11,-205.589 1112.22,-195.014 1115.05,-187.751"/>
<polygon fill="midnightblue" stroke="midnightblue" points="1101.28,-213.494 1100.92,-224.083 1107.8,-216.032 1101.28,-213.494"/>
</g>
<!-- Node21&#45;&gt;Node5 -->
<g id="edge78" class="edge"><title>Node21&#45;&gt;Node5</title>
<path fill="none" stroke="midnightblue" d="M282.836,-158.393C287.388,-143.397 296.063,-123.049 311.449,-112 352.344,-82.6302 496.574,-72.1896 572.652,-68.6712"/>
<polygon fill="midnightblue" stroke="midnightblue" points="279.427,-157.592 280.213,-168.158 286.187,-159.408 279.427,-157.592"/>
</g>
<!-- Node21&#45;&gt;Node11 -->
<g id="edge76" class="edge"><title>Node21&#45;&gt;Node11</title>
<path fill="none" stroke="midnightblue" d="M303.035,-163.453C321.127,-153.483 345.183,-140.228 360.742,-131.655"/>
<polygon fill="midnightblue" stroke="midnightblue" points="301.263,-160.432 294.194,-168.324 304.641,-166.563 301.263,-160.432"/>
</g>
<!-- Node22 -->
<g id="node62" class="node"><title>Node22</title>
<a xlink:href="integrator_8cpp.html" target="_top" xlink:title="src/integrator.cpp">
<polygon fill="white" stroke="black" points="170.949,-112.5 170.949,-131.5 263.949,-131.5 263.949,-112.5 170.949,-112.5"/>
<text text-anchor="middle" x="217.449" y="-119.5" font-family="FreeSans" font-size="10.00">src/integrator.cpp</text>
</a>
</g>
<!-- Node21&#45;&gt;Node22 -->
<g id="edge80" class="edge"><title>Node21&#45;&gt;Node22</title>
<path fill="none" stroke="midnightblue" d="M260.981,-161.537C250.105,-151.909 236.505,-139.869 227.428,-131.834"/>
<polygon fill="midnightblue" stroke="midnightblue" points="258.84,-164.316 268.648,-168.324 263.48,-159.075 258.84,-164.316"/>
</g>
<!-- Node23&#45;&gt;Node17 -->
<g id="edge88" class="edge"><title>Node23&#45;&gt;Node17</title>
<path fill="none" stroke="midnightblue" d="M1400.25,-214.69C1404.12,-205.589 1408.63,-195.014 1411.72,-187.751"/>
<polygon fill="midnightblue" stroke="midnightblue" points="1396.95,-213.511 1396.25,-224.083 1403.39,-216.254 1396.95,-213.511"/>
</g>
<!-- Node24 -->
<g id="node69" class="node"><title>Node24</title>
<a xlink:href="qssintegrator_8cpp.html" target="_top" xlink:title="src/qssintegrator.cpp">
<polygon fill="white" stroke="black" points="1486.45,-168.5 1486.45,-187.5 1596.45,-187.5 1596.45,-168.5 1486.45,-168.5"/>
<text text-anchor="middle" x="1541.45" y="-175.5" font-family="FreeSans" font-size="10.00">src/qssintegrator.cpp</text>
</a>
</g>
<!-- Node23&#45;&gt;Node24 -->
<g id="edge90" class="edge"><title>Node23&#45;&gt;Node24</title>
<path fill="none" stroke="midnightblue" d="M1425.82,-220.906C1453.83,-210.754 1493.14,-196.506 1517.95,-187.516"/>
<polygon fill="midnightblue" stroke="midnightblue" points="1424.27,-217.746 1416.06,-224.444 1426.65,-224.327 1424.27,-217.746"/>
</g>
<!-- Node25&#45;&gt;Node6 -->
<g id="edge94" class="edge"><title>Node25&#45;&gt;Node6</title>
<path fill="none" stroke="midnightblue" d="M973.65,-214.295C981.464,-168.644 1001.28,-52.8537 1006.93,-19.8837"/>
<polygon fill="midnightblue" stroke="midnightblue" points="970.176,-213.85 971.938,-224.297 977.075,-215.031 970.176,-213.85"/>
</g>
<!-- Node25&#45;&gt;Node7 -->
<g id="edge96" class="edge"><title>Node25&#45;&gt;Node7</title>
<path fill="none" stroke="midnightblue" d="M967.419,-214.298C964.588,-200.673 959.412,-182.195 950.449,-168 940.952,-152.96 925.149,-139.731 914.064,-131.576"/>
<polygon fill="midnightblue" stroke="midnightblue" points="964.026,-215.199 969.277,-224.401 970.91,-213.933 964.026,-215.199"/>
</g>
<!-- Node25&#45;&gt;Node15 -->
<g id="edge98" class="edge"><title>Node25&#45;&gt;Node15</title>
<path fill="none" stroke="midnightblue" d="M948.516,-218.901C933.113,-208.999 913.003,-196.071 899.911,-187.655"/>
<polygon fill="midnightblue" stroke="midnightblue" points="946.648,-221.86 956.952,-224.324 950.433,-215.972 946.648,-221.86"/>
</g>
</g>
</svg>
