<?xml version="1.0" encoding="UTF-8" standalone="no"?>
<!DOCTYPE svg PUBLIC "-//W3C//DTD SVG 1.1//EN"
 "http://www.w3.org/Graphics/SVG/1.1/DTD/svg11.dtd">
<!-- Generated by graphviz version 2.43.0 (0)
 -->
<!-- Title: src/perfTimer.cpp Pages: 1 -->
<svg width="242pt" height="192pt"
 viewBox="0.00 0.00 241.50 192.00" xmlns="http://www.w3.org/2000/svg" xmlns:xlink="http://www.w3.org/1999/xlink">
<g id="graph0" class="graph" transform="scale(1 1) rotate(0) translate(4 188)">
<title>src/perfTimer.cpp</title>
<!-- Node1 -->
<g id="Node000001" class="node">
<title>Node1</title>
<g id="a_Node000001"><a xlink:title=" ">
<polygon fill="#999999" stroke="#666666" points="188,-184 96,-184 96,-165 188,-165 188,-184"/>
<text text-anchor="middle" x="142" y="-172" font-family="FreeSans" font-size="10.00">src/perfTimer.cpp</text>
</a>
</g>
</g>
<!-- Node2 -->
<g id="Node000002" class="node">
<title>Node2</title>
<g id="a_Node000002"><a xlink:href="perfTimer_8h.html" target="_top" xlink:title=" ">
<polygon fill="white" stroke="#666666" points="174.5,-129 109.5,-129 109.5,-110 174.5,-110 174.5,-129"/>
<text text-anchor="middle" x="142" y="-117" font-family="FreeSans" font-size="10.00">perfTimer.h</text>
</a>
</g>
</g>
<!-- Node1&#45;&gt;Node2 -->
<g id="edge1_Node000001_Node000002" class="edge">
<title>Node1&#45;&gt;Node2</title>
<g id="a_edge1_Node000001_Node000002"><a xlink:title=" ">
<path fill="none" stroke="#63b8ff" d="M142,-164.75C142,-157.8 142,-147.85 142,-139.13"/>
<polygon fill="#63b8ff" stroke="#63b8ff" points="145.5,-139.09 142,-129.09 138.5,-139.09 145.5,-139.09"/>
</a>
</g>
</g>
<!-- Node3 -->
<g id="Node000003" class="node">
<title>Node3</title>
<g id="a_Node000003"><a xlink:href="tbb__tools_8h.html" target="_top" xlink:title=" ">
<polygon fill="white" stroke="#666666" points="93,-74 29,-74 29,-55 93,-55 93,-74"/>
<text text-anchor="middle" x="61" y="-62" font-family="FreeSans" font-size="10.00">tbb_tools.h</text>
</a>
</g>
</g>
<!-- Node2&#45;&gt;Node3 -->
<g id="edge2_Node000002_Node000003" class="edge">
<title>Node2&#45;&gt;Node3</title>
<g id="a_edge2_Node000002_Node000003"><a xlink:title=" ">
<path fill="none" stroke="#63b8ff" d="M128.99,-109.98C116.54,-101.84 97.54,-89.41 82.79,-79.76"/>
<polygon fill="#63b8ff" stroke="#63b8ff" points="84.54,-76.72 74.25,-74.17 80.7,-82.57 84.54,-76.72"/>
</a>
</g>
</g>
<!-- Node11 -->
<g id="Node000011" class="node">
<title>Node11</title>
<g id="a_Node000011"><a xlink:title=" ">
<polygon fill="#e0e0e0" stroke="#999999" points="172.5,-74 111.5,-74 111.5,-55 172.5,-55 172.5,-74"/>
<text text-anchor="middle" x="142" y="-62" font-family="FreeSans" font-size="10.00">sys/time.h</text>
</a>
</g>
</g>
<!-- Node2&#45;&gt;Node11 -->
<g id="edge5_Node000002_Node000011" class="edge">
<title>Node2&#45;&gt;Node11</title>
<g id="a_edge5_Node000002_Node000011"><a xlink:title=" ">
<path fill="none" stroke="#63b8ff" d="M142,-109.75C142,-102.8 142,-92.85 142,-84.13"/>
<polygon fill="#63b8ff" stroke="#63b8ff" points="145.5,-84.09 142,-74.09 138.5,-84.09 145.5,-84.09"/>
</a>
</g>
</g>
<!-- Node12 -->
<g id="Node000012" class="node">
<title>Node12</title>
<g id="a_Node000012"><a xlink:title=" ">
<polygon fill="#e0e0e0" stroke="#999999" points="233.5,-74 190.5,-74 190.5,-55 233.5,-55 233.5,-74"/>
<text text-anchor="middle" x="212" y="-62" font-family="FreeSans" font-size="10.00">time.h</text>
</a>
</g>
</g>
<!-- Node2&#45;&gt;Node12 -->
<g id="edge6_Node000002_Node000012" class="edge">
<title>Node2&#45;&gt;Node12</title>
<g id="a_edge6_Node000002_Node000012"><a xlink:title=" ">
<path fill="none" stroke="#63b8ff" d="M153.25,-109.98C163.8,-102 179.8,-89.88 192.44,-80.31"/>
<polygon fill="#63b8ff" stroke="#63b8ff" points="194.69,-83 200.55,-74.17 190.46,-77.42 194.69,-83"/>
</a>
</g>
</g>
<!-- Node4 -->
<g id="Node000004" class="node">
<title>Node4</title>
<g id="a_Node000004"><a xlink:href="config_8h.html" target="_top" xlink:title=" ">
<polygon fill="white" stroke="#666666" points="50,-19 0,-19 0,0 50,0 50,-19"/>
<text text-anchor="middle" x="25" y="-7" font-family="FreeSans" font-size="10.00">config.h</text>
</a>
</g>
</g>
<!-- Node3&#45;&gt;Node4 -->
<g id="edge3_Node000003_Node000004" class="edge">
<title>Node3&#45;&gt;Node4</title>
<g id="a_edge3_Node000003_Node000004"><a xlink:title=" ">
<path fill="none" stroke="#63b8ff" d="M55.06,-54.75C50.02,-47.34 42.66,-36.5 36.49,-27.41"/>
<polygon fill="#63b8ff" stroke="#63b8ff" points="39.35,-25.39 30.83,-19.09 33.56,-29.33 39.35,-25.39"/>
</a>
</g>
</g>
<!-- Node5 -->
<g id="Node000005" class="node">
<title>Node5</title>
<g id="a_Node000005"><a xlink:href="tbb__real_8h.html" target="_top" xlink:title=" ">
<polygon fill="#fff0f0" stroke="red" points="127.5,-19 68.5,-19 68.5,0 127.5,0 127.5,-19"/>
<text text-anchor="middle" x="98" y="-7" font-family="FreeSans" font-size="10.00">tbb_real.h</text>
</a>
</g>
</g>
<!-- Node3&#45;&gt;Node5 -->
<g id="edge4_Node000003_Node000005" class="edge">
<title>Node3&#45;&gt;Node5</title>
<g id="a_edge4_Node000003_Node000005"><a xlink:title=" ">
<path fill="none" stroke="#63b8ff" d="M67.11,-54.75C72.28,-47.34 79.85,-36.5 86.19,-27.41"/>
<polygon fill="#63b8ff" stroke="#63b8ff" points="89.15,-29.29 92,-19.09 83.41,-25.29 89.15,-29.29"/>
</a>
</g>
</g>
</g>
</svg>
