<?xml version="1.0" encoding="UTF-8" standalone="no"?>
<!DOCTYPE svg PUBLIC "-//W3C//DTD SVG 1.1//EN"
 "http://www.w3.org/Graphics/SVG/1.1/DTD/svg11.dtd">
<!-- Generated by graphviz version 2.26.3 (20100126.1600)
 -->
<!-- Title: src/perfTimer.h Pages: 1 -->
<svg width="549pt" height="204pt"
 viewBox="0.00 0.00 549.00 204.00" xmlns="http://www.w3.org/2000/svg" xmlns:xlink="http://www.w3.org/1999/xlink">
<g id="graph1" class="graph" transform="scale(1 1) rotate(0) translate(4 200)">
<title>src/perfTimer.h</title>
<polygon fill="white" stroke="white" points="-4,5 -4,-200 546,-200 546,5 -4,5"/>
<!-- Node1 -->
<g id="node1" class="node"><title>Node1</title>
<polygon fill="#bfbfbf" stroke="black" points="220.5,-175 220.5,-195 301.5,-195 301.5,-175 220.5,-175"/>
<text text-anchor="middle" x="261" y="-182" font-family="FreeSans" font-size="10.00">src/perfTimer.h</text>
</g>
<!-- Node2 -->
<g id="node3" class="node"><title>Node2</title>
<a xlink:href="convectionSystem_8h.html" target="_top" xlink:title="src/convectionSystem.h">
<polygon fill="white" stroke="black" points="44.5,-117 44.5,-137 163.5,-137 163.5,-117 44.5,-117"/>
<text text-anchor="middle" x="104" y="-124" font-family="FreeSans" font-size="10.00">src/convectionSystem.h</text>
</a>
</g>
<!-- Node1&#45;&gt;Node2 -->
<g id="edge2" class="edge"><title>Node1&#45;&gt;Node2</title>
<path fill="none" stroke="midnightblue" d="M224.061,-171.354C195.63,-160.85 156.978,-146.572 131.297,-137.084"/>
<polygon fill="midnightblue" stroke="midnightblue" points="223.059,-174.715 233.653,-174.897 225.485,-168.149 223.059,-174.715"/>
</g>
<!-- Node4 -->
<g id="node7" class="node"><title>Node4</title>
<a xlink:href="flameSolver_8h.html" target="_top" xlink:title="src/flameSolver.h">
<polygon fill="white" stroke="black" points="146,-59 146,-79 236,-79 236,-59 146,-59"/>
<text text-anchor="middle" x="191" y="-66" font-family="FreeSans" font-size="10.00">src/flameSolver.h</text>
</a>
</g>
<!-- Node1&#45;&gt;Node4 -->
<g id="edge16" class="edge"><title>Node1&#45;&gt;Node4</title>
<path fill="none" stroke="midnightblue" d="M237.944,-168.492C228.052,-160.334 217.149,-149.727 210,-138 198.488,-119.116 193.799,-93.1336 192.011,-79.054"/>
<polygon fill="midnightblue" stroke="midnightblue" points="235.883,-171.323 245.912,-174.738 240.202,-165.814 235.883,-171.323"/>
</g>
<!-- Node6 -->
<g id="node11" class="node"><title>Node6</title>
<a xlink:href="splitSolver_8h.html" target="_top" xlink:title="src/splitSolver.h">
<polygon fill="white" stroke="black" points="219,-117 219,-137 303,-137 303,-117 219,-117"/>
<text text-anchor="middle" x="261" y="-124" font-family="FreeSans" font-size="10.00">src/splitSolver.h</text>
</a>
</g>
<!-- Node1&#45;&gt;Node6 -->
<g id="edge10" class="edge"><title>Node1&#45;&gt;Node6</title>
<path fill="none" stroke="midnightblue" d="M261,-164.89C261,-155.62 261,-145.008 261,-137.378"/>
<polygon fill="midnightblue" stroke="midnightblue" points="257.5,-164.897 261,-174.897 264.5,-164.897 257.5,-164.897"/>
</g>
<!-- Node8 -->
<g id="node17" class="node"><title>Node8</title>
<a xlink:href="perfTimer_8cpp.html" target="_top" xlink:title="src/perfTimer.cpp">
<polygon fill="white" stroke="black" points="321,-117 321,-137 413,-137 413,-117 321,-117"/>
<text text-anchor="middle" x="367" y="-124" font-family="FreeSans" font-size="10.00">src/perfTimer.cpp</text>
</a>
</g>
<!-- Node1&#45;&gt;Node8 -->
<g id="edge18" class="edge"><title>Node1&#45;&gt;Node8</title>
<path fill="none" stroke="midnightblue" d="M288.464,-169.973C307.305,-159.663 331.804,-146.258 348.392,-137.182"/>
<polygon fill="midnightblue" stroke="midnightblue" points="286.556,-167.027 279.464,-174.897 289.916,-173.167 286.556,-167.027"/>
</g>
<!-- Node9 -->
<g id="node19" class="node"><title>Node9</title>
<a xlink:href="sourceSystem_8cpp.html" target="_top" xlink:title="src/sourceSystem.cpp">
<polygon fill="white" stroke="black" points="430.5,-117 430.5,-137 541.5,-137 541.5,-117 430.5,-117"/>
<text text-anchor="middle" x="486" y="-124" font-family="FreeSans" font-size="10.00">src/sourceSystem.cpp</text>
</a>
</g>
<!-- Node1&#45;&gt;Node9 -->
<g id="edge20" class="edge"><title>Node1&#45;&gt;Node9</title>
<path fill="none" stroke="midnightblue" d="M309.751,-172.433C350.919,-161.821 409.088,-146.826 447.165,-137.011"/>
<polygon fill="midnightblue" stroke="midnightblue" points="308.745,-169.078 299.935,-174.963 310.492,-175.856 308.745,-169.078"/>
</g>
<!-- Node3 -->
<g id="node5" class="node"><title>Node3</title>
<a xlink:href="convectionSystem_8cpp.html" target="_top" xlink:title="src/convectionSystem.cpp">
<polygon fill="white" stroke="black" points="-0.5,-59 -0.5,-79 128.5,-79 128.5,-59 -0.5,-59"/>
<text text-anchor="middle" x="64" y="-66" font-family="FreeSans" font-size="10.00">src/convectionSystem.cpp</text>
</a>
</g>
<!-- Node2&#45;&gt;Node3 -->
<g id="edge4" class="edge"><title>Node2&#45;&gt;Node3</title>
<path fill="none" stroke="midnightblue" d="M91.1649,-108.389C84.5396,-98.7824 76.7055,-87.423 71.157,-79.3776"/>
<polygon fill="midnightblue" stroke="midnightblue" points="88.4739,-110.652 97.0325,-116.897 94.2364,-106.678 88.4739,-110.652"/>
</g>
<!-- Node2&#45;&gt;Node4 -->
<g id="edge6" class="edge"><title>Node2&#45;&gt;Node4</title>
<path fill="none" stroke="midnightblue" d="M127.607,-111.262C142.92,-101.054 162.424,-88.051 175.728,-79.1817"/>
<polygon fill="midnightblue" stroke="midnightblue" points="125.533,-108.438 119.154,-116.897 129.416,-114.262 125.533,-108.438"/>
</g>
<!-- Node5 -->
<g id="node9" class="node"><title>Node5</title>
<a xlink:href="flameSolver_8cpp.html" target="_top" xlink:title="src/flameSolver.cpp">
<polygon fill="white" stroke="black" points="140.5,-1 140.5,-21 241.5,-21 241.5,-1 140.5,-1"/>
<text text-anchor="middle" x="191" y="-8" font-family="FreeSans" font-size="10.00">src/flameSolver.cpp</text>
</a>
</g>
<!-- Node4&#45;&gt;Node5 -->
<g id="edge8" class="edge"><title>Node4&#45;&gt;Node5</title>
<path fill="none" stroke="midnightblue" d="M191,-48.8902C191,-39.6201 191,-29.0083 191,-21.3776"/>
<polygon fill="midnightblue" stroke="midnightblue" points="187.5,-48.8971 191,-58.8972 194.5,-48.8972 187.5,-48.8971"/>
</g>
<!-- Node6&#45;&gt;Node4 -->
<g id="edge12" class="edge"><title>Node6&#45;&gt;Node4</title>
<path fill="none" stroke="midnightblue" d="M241.013,-110.44C228.944,-100.439 213.935,-88.0036 203.525,-79.3776"/>
<polygon fill="midnightblue" stroke="midnightblue" points="238.874,-113.212 248.807,-116.897 243.34,-107.822 238.874,-113.212"/>
</g>
<!-- Node7 -->
<g id="node14" class="node"><title>Node7</title>
<a xlink:href="splitSolver_8cpp.html" target="_top" xlink:title="src/splitSolver.cpp">
<polygon fill="white" stroke="black" points="253.5,-59 253.5,-79 348.5,-79 348.5,-59 253.5,-59"/>
<text text-anchor="middle" x="301" y="-66" font-family="FreeSans" font-size="10.00">src/splitSolver.cpp</text>
</a>
</g>
<!-- Node6&#45;&gt;Node7 -->
<g id="edge14" class="edge"><title>Node6&#45;&gt;Node7</title>
<path fill="none" stroke="midnightblue" d="M273.835,-108.389C280.46,-98.7824 288.294,-87.423 293.843,-79.3776"/>
<polygon fill="midnightblue" stroke="midnightblue" points="270.764,-106.678 267.967,-116.897 276.526,-110.652 270.764,-106.678"/>
</g>
</g>
</svg>
