<?xml version="1.0" encoding="UTF-8" standalone="no"?>
<!DOCTYPE svg PUBLIC "-//W3C//DTD SVG 1.1//EN"
 "http://www.w3.org/Graphics/SVG/1.1/DTD/svg11.dtd">
<!-- Generated by graphviz version 2.43.0 (0)
 -->
<!-- Title: src/perfTimer.h Pages: 1 -->
<svg width="580pt" height="203pt"
 viewBox="0.00 0.00 580.00 203.00" xmlns="http://www.w3.org/2000/svg" xmlns:xlink="http://www.w3.org/1999/xlink">
<g id="graph0" class="graph" transform="scale(1 1) rotate(0) translate(4 199)">
<title>src/perfTimer.h</title>
<!-- Node1 -->
<g id="Node000001" class="node">
<title>Node1</title>
<g id="a_Node000001"><a xlink:title=" ">
<polygon fill="#999999" stroke="#666666" points="371,-195 289,-195 289,-176 371,-176 371,-195"/>
<text text-anchor="middle" x="330" y="-183" font-family="FreeSans" font-size="10.00">src/perfTimer.h</text>
</a>
</g>
</g>
<!-- Node2 -->
<g id="Node000002" class="node">
<title>Node2</title>
<g id="a_Node000002"><a xlink:href="tbb__tools_8h.html" target="_top" xlink:title=" ">
<polygon fill="white" stroke="#666666" points="281,-140 217,-140 217,-121 281,-121 281,-140"/>
<text text-anchor="middle" x="249" y="-128" font-family="FreeSans" font-size="10.00">tbb_tools.h</text>
</a>
</g>
</g>
<!-- Node1&#45;&gt;Node2 -->
<g id="edge1_Node000001_Node000002" class="edge">
<title>Node1&#45;&gt;Node2</title>
<g id="a_edge1_Node000001_Node000002"><a xlink:title=" ">
<path fill="none" stroke="#63b8ff" d="M316.99,-175.98C304.54,-167.84 285.54,-155.41 270.79,-145.76"/>
<polygon fill="#63b8ff" stroke="#63b8ff" points="272.54,-142.72 262.25,-140.17 268.7,-148.57 272.54,-142.72"/>
</a>
</g>
</g>
<!-- Node10 -->
<g id="Node000010" class="node">
<title>Node10</title>
<g id="a_Node000010"><a xlink:title=" ">
<polygon fill="#e0e0e0" stroke="#999999" points="360.5,-140 299.5,-140 299.5,-121 360.5,-121 360.5,-140"/>
<text text-anchor="middle" x="330" y="-128" font-family="FreeSans" font-size="10.00">sys/time.h</text>
</a>
</g>
</g>
<!-- Node1&#45;&gt;Node10 -->
<g id="edge9_Node000001_Node000010" class="edge">
<title>Node1&#45;&gt;Node10</title>
<g id="a_edge9_Node000001_Node000010"><a xlink:title=" ">
<path fill="none" stroke="#63b8ff" d="M330,-175.75C330,-168.8 330,-158.85 330,-150.13"/>
<polygon fill="#63b8ff" stroke="#63b8ff" points="333.5,-150.09 330,-140.09 326.5,-150.09 333.5,-150.09"/>
</a>
</g>
</g>
<!-- Node11 -->
<g id="Node000011" class="node">
<title>Node11</title>
<g id="a_Node000011"><a xlink:title=" ">
<polygon fill="#e0e0e0" stroke="#999999" points="421.5,-140 378.5,-140 378.5,-121 421.5,-121 421.5,-140"/>
<text text-anchor="middle" x="400" y="-128" font-family="FreeSans" font-size="10.00">time.h</text>
</a>
</g>
</g>
<!-- Node1&#45;&gt;Node11 -->
<g id="edge10_Node000001_Node000011" class="edge">
<title>Node1&#45;&gt;Node11</title>
<g id="a_edge10_Node000001_Node000011"><a xlink:title=" ">
<path fill="none" stroke="#63b8ff" d="M341.25,-175.98C351.8,-168 367.8,-155.88 380.44,-146.31"/>
<polygon fill="#63b8ff" stroke="#63b8ff" points="382.69,-149 388.55,-140.17 378.46,-143.42 382.69,-149"/>
</a>
</g>
</g>
<!-- Node3 -->
<g id="Node000003" class="node">
<title>Node3</title>
<g id="a_Node000003"><a xlink:href="config_8h.html" target="_top" xlink:title=" ">
<polygon fill="white" stroke="#666666" points="238,-85 188,-85 188,-66 238,-66 238,-85"/>
<text text-anchor="middle" x="213" y="-73" font-family="FreeSans" font-size="10.00">config.h</text>
</a>
</g>
</g>
<!-- Node2&#45;&gt;Node3 -->
<g id="edge2_Node000002_Node000003" class="edge">
<title>Node2&#45;&gt;Node3</title>
<g id="a_edge2_Node000002_Node000003"><a xlink:title=" ">
<path fill="none" stroke="#63b8ff" d="M243.06,-120.75C238.02,-113.34 230.66,-102.5 224.49,-93.41"/>
<polygon fill="#63b8ff" stroke="#63b8ff" points="227.35,-91.39 218.83,-85.09 221.56,-95.33 227.35,-91.39"/>
</a>
</g>
</g>
<!-- Node4 -->
<g id="Node000004" class="node">
<title>Node4</title>
<g id="a_Node000004"><a xlink:href="tbb__real_8h.html" target="_top" xlink:title=" ">
<polygon fill="white" stroke="#666666" points="315.5,-85 256.5,-85 256.5,-66 315.5,-66 315.5,-85"/>
<text text-anchor="middle" x="286" y="-73" font-family="FreeSans" font-size="10.00">tbb_real.h</text>
</a>
</g>
</g>
<!-- Node2&#45;&gt;Node4 -->
<g id="edge3_Node000002_Node000004" class="edge">
<title>Node2&#45;&gt;Node4</title>
<g id="a_edge3_Node000002_Node000004"><a xlink:title=" ">
<path fill="none" stroke="#63b8ff" d="M255.11,-120.75C260.28,-113.34 267.85,-102.5 274.19,-93.41"/>
<polygon fill="#63b8ff" stroke="#63b8ff" points="277.15,-95.29 280,-85.09 271.41,-91.29 277.15,-95.29"/>
</a>
</g>
</g>
<!-- Node5 -->
<g id="Node000005" class="node">
<title>Node5</title>
<g id="a_Node000005"><a xlink:title=" ">
<polygon fill="#e0e0e0" stroke="#999999" points="104,-24.5 0,-24.5 0,-5.5 104,-5.5 104,-24.5"/>
<text text-anchor="middle" x="52" y="-12.5" font-family="FreeSans" font-size="10.00">tbb/blocked_range.h</text>
</a>
</g>
</g>
<!-- Node4&#45;&gt;Node5 -->
<g id="edge4_Node000004_Node000005" class="edge">
<title>Node4&#45;&gt;Node5</title>
<g id="a_edge4_Node000004_Node000005"><a xlink:title=" ">
<path fill="none" stroke="#63b8ff" d="M256.36,-67.09C215.92,-56.98 143.12,-38.78 96.21,-27.05"/>
<polygon fill="#63b8ff" stroke="#63b8ff" points="96.88,-23.61 86.33,-24.58 95.18,-30.4 96.88,-23.61"/>
</a>
</g>
</g>
<!-- Node6 -->
<g id="Node000006" class="node">
<title>Node6</title>
<g id="a_Node000006"><a xlink:title=" ">
<polygon fill="#e0e0e0" stroke="#999999" points="210,-24.5 122,-24.5 122,-5.5 210,-5.5 210,-24.5"/>
<text text-anchor="middle" x="166" y="-12.5" font-family="FreeSans" font-size="10.00">tbb/parallel_for.h</text>
</a>
</g>
</g>
<!-- Node4&#45;&gt;Node6 -->
<g id="edge5_Node000004_Node000006" class="edge">
<title>Node4&#45;&gt;Node6</title>
<g id="a_edge5_Node000004_Node000006"><a xlink:title=" ">
<path fill="none" stroke="#63b8ff" d="M268.55,-65.99C248.64,-56.29 215.86,-40.31 192.73,-29.03"/>
<polygon fill="#63b8ff" stroke="#63b8ff" points="193.99,-25.75 183.47,-24.52 190.93,-32.04 193.99,-25.75"/>
</a>
</g>
</g>
<!-- Node7 -->
<g id="Node000007" class="node">
<title>Node7</title>
<g id="a_Node000007"><a xlink:title=" ">
<polygon fill="#e0e0e0" stroke="#999999" points="344,-30 228,-30 228,0 344,0 344,-30"/>
<text text-anchor="start" x="236" y="-18" font-family="FreeSans" font-size="10.00">tbb/enumerable_thread</text>
<text text-anchor="middle" x="286" y="-7" font-family="FreeSans" font-size="10.00">_specific.h</text>
</a>
</g>
</g>
<!-- Node4&#45;&gt;Node7 -->
<g id="edge6_Node000004_Node000007" class="edge">
<title>Node4&#45;&gt;Node7</title>
<g id="a_edge6_Node000004_Node000007"><a xlink:title=" ">
<path fill="none" stroke="#63b8ff" d="M286,-65.87C286,-59.11 286,-49.35 286,-40.26"/>
<polygon fill="#63b8ff" stroke="#63b8ff" points="289.5,-40.11 286,-30.11 282.5,-40.11 289.5,-40.11"/>
</a>
</g>
</g>
<!-- Node8 -->
<g id="Node000008" class="node">
<title>Node8</title>
<g id="a_Node000008"><a xlink:title=" ">
<polygon fill="#e0e0e0" stroke="#999999" points="463.5,-24.5 362.5,-24.5 362.5,-5.5 463.5,-5.5 463.5,-24.5"/>
<text text-anchor="middle" x="413" y="-12.5" font-family="FreeSans" font-size="10.00">tbb/global_control.h</text>
</a>
</g>
</g>
<!-- Node4&#45;&gt;Node8 -->
<g id="edge7_Node000004_Node000008" class="edge">
<title>Node4&#45;&gt;Node8</title>
<g id="a_edge7_Node000004_Node000008"><a xlink:title=" ">
<path fill="none" stroke="#63b8ff" d="M304.47,-65.99C325.72,-56.2 360.85,-40.02 385.37,-28.73"/>
<polygon fill="#63b8ff" stroke="#63b8ff" points="386.89,-31.88 394.51,-24.52 383.96,-25.52 386.89,-31.88"/>
</a>
</g>
</g>
<!-- Node9 -->
<g id="Node000009" class="node">
<title>Node9</title>
<g id="a_Node000009"><a xlink:title=" ">
<polygon fill="#e0e0e0" stroke="#999999" points="572,-24.5 482,-24.5 482,-5.5 572,-5.5 572,-24.5"/>
<text text-anchor="middle" x="527" y="-12.5" font-family="FreeSans" font-size="10.00">tbb/combinable.h</text>
</a>
</g>
</g>
<!-- Node4&#45;&gt;Node9 -->
<g id="edge8_Node000004_Node000009" class="edge">
<title>Node4&#45;&gt;Node9</title>
<g id="a_edge8_Node000004_Node000009"><a xlink:title=" ">
<path fill="none" stroke="#63b8ff" d="M315.52,-67.67C352.41,-59.09 417.46,-43.81 473,-30 476.8,-29.05 480.75,-28.06 484.71,-27.05"/>
<polygon fill="#63b8ff" stroke="#63b8ff" points="485.66,-30.42 494.47,-24.55 483.92,-23.64 485.66,-30.42"/>
</a>
</g>
</g>
</g>
</svg>
