<?xml version="1.0" encoding="UTF-8" standalone="no"?>
<!DOCTYPE svg PUBLIC "-//W3C//DTD SVG 1.1//EN"
 "http://www.w3.org/Graphics/SVG/1.1/DTD/svg11.dtd">
<!-- Generated by graphviz version 8.1.0 (20230707.2238)
 -->
<!-- Title: src/perfTimer.h Pages: 1 -->
<svg width="583pt" height="199pt"
 viewBox="0.00 0.00 583.00 199.00" xmlns="http://www.w3.org/2000/svg" xmlns:xlink="http://www.w3.org/1999/xlink">
<g id="graph0" class="graph" transform="scale(1 1) rotate(0) translate(4 195)">
<title>src/perfTimer.h</title>
<!-- Node1 -->
<g id="Node000001" class="node">
<title>Node1</title>
<g id="a_Node000001"><a xlink:title=" ">
<polygon fill="#999999" stroke="#666666" points="311.5,-191 222,-191 222,-170.25 311.5,-170.25 311.5,-191"/>
<text text-anchor="middle" x="266.75" y="-177.5" font-family="FreeSans" font-size="10.00">src/perfTimer.h</text>
</a>
</g>
</g>
<!-- Node2 -->
<g id="Node000002" class="node">
<title>Node2</title>
<g id="a_Node000002"><a xlink:href="convectionSystem_8h.html" target="_top" xlink:title=" ">
<polygon fill="white" stroke="#666666" points="160.88,-134.25 28.62,-134.25 28.62,-113.5 160.88,-113.5 160.88,-134.25"/>
<text text-anchor="middle" x="94.75" y="-120.75" font-family="FreeSans" font-size="10.00">src/convectionSystem.h</text>
</a>
</g>
</g>
<!-- Node1&#45;&gt;Node2 -->
<g id="edge1_Node000001_Node000002" class="edge">
<title>Node1&#45;&gt;Node2</title>
<g id="a_edge1_Node000001_Node000002"><a xlink:title=" ">
<path fill="none" stroke="#63b8ff" d="M225.6,-166.53C194.84,-156.74 153.45,-143.56 125.52,-134.67"/>
<polygon fill="#63b8ff" stroke="#63b8ff" points="224.41,-170.14 235,-169.84 226.53,-163.47 224.41,-170.14"/>
</a>
</g>
</g>
<!-- Node4 -->
<g id="Node000004" class="node">
<title>Node4</title>
<g id="a_Node000004"><a xlink:href="flameSolver_8h.html" target="_top" xlink:title=" ">
<polygon fill="white" stroke="#666666" points="261.75,-77.5 161.75,-77.5 161.75,-56.75 261.75,-56.75 261.75,-77.5"/>
<text text-anchor="middle" x="211.75" y="-64" font-family="FreeSans" font-size="10.00">src/flameSolver.h</text>
</a>
</g>
</g>
<!-- Node1&#45;&gt;Node4 -->
<g id="edge5_Node000001_Node000004" class="edge">
<title>Node1&#45;&gt;Node4</title>
<g id="a_edge5_Node000001_Node000004"><a xlink:title=" ">
<path fill="none" stroke="#63b8ff" d="M236.52,-164.18C225.34,-156.77 213.9,-146.75 207.75,-134.25 198.71,-115.88 204.17,-91.09 208.34,-77.69"/>
<polygon fill="#63b8ff" stroke="#63b8ff" points="234.36,-167.57 244.72,-169.79 238,-161.6 234.36,-167.57"/>
</a>
</g>
</g>
<!-- Node6 -->
<g id="Node000006" class="node">
<title>Node6</title>
<g id="a_Node000006"><a xlink:href="perfTimer_8cpp.html" target="_top" xlink:title=" ">
<polygon fill="white" stroke="#666666" points="317.12,-134.25 216.38,-134.25 216.38,-113.5 317.12,-113.5 317.12,-134.25"/>
<text text-anchor="middle" x="266.75" y="-120.75" font-family="FreeSans" font-size="10.00">src/perfTimer.cpp</text>
</a>
</g>
</g>
<!-- Node1&#45;&gt;Node6 -->
<g id="edge6_Node000001_Node000006" class="edge">
<title>Node1&#45;&gt;Node6</title>
<g id="a_edge6_Node000001_Node000006"><a xlink:title=" ">
<path fill="none" stroke="#63b8ff" d="M266.75,-158.96C266.75,-150.59 266.75,-141.33 266.75,-134.58"/>
<polygon fill="#63b8ff" stroke="#63b8ff" points="263.25,-158.84 266.75,-168.84 270.25,-158.84 263.25,-158.84"/>
</a>
</g>
</g>
<!-- Node7 -->
<g id="Node000007" class="node">
<title>Node7</title>
<g id="a_Node000007"><a xlink:href="sourceSystem_8cpp.html" target="_top" xlink:title=" ">
<polygon fill="white" stroke="#666666" points="458,-134.25 335.5,-134.25 335.5,-113.5 458,-113.5 458,-134.25"/>
<text text-anchor="middle" x="396.75" y="-120.75" font-family="FreeSans" font-size="10.00">src/sourceSystem.cpp</text>
</a>
</g>
</g>
<!-- Node1&#45;&gt;Node7 -->
<g id="edge7_Node000001_Node000007" class="edge">
<title>Node1&#45;&gt;Node7</title>
<g id="a_edge7_Node000001_Node000007"><a xlink:title=" ">
<path fill="none" stroke="#63b8ff" d="M300.04,-165.61C323.11,-155.89 353.25,-143.19 373.71,-134.58"/>
<polygon fill="#63b8ff" stroke="#63b8ff" points="298.85,-162.73 290.99,-169.84 301.57,-169.18 298.85,-162.73"/>
</a>
</g>
</g>
<!-- Node8 -->
<g id="Node000008" class="node">
<title>Node8</title>
<g id="a_Node000008"><a xlink:href="splitSolver_8h.html" target="_top" xlink:title=" ">
<polygon fill="white" stroke="#666666" points="569.38,-134.25 476.12,-134.25 476.12,-113.5 569.38,-113.5 569.38,-134.25"/>
<text text-anchor="middle" x="522.75" y="-120.75" font-family="FreeSans" font-size="10.00">src/splitSolver.h</text>
</a>
</g>
</g>
<!-- Node1&#45;&gt;Node8 -->
<g id="edge8_Node000001_Node000008" class="edge">
<title>Node1&#45;&gt;Node8</title>
<g id="a_edge8_Node000001_Node000008"><a xlink:title=" ">
<path fill="none" stroke="#63b8ff" d="M322.65,-167.67C368.81,-157.8 433.52,-143.96 476.73,-134.72"/>
<polygon fill="#63b8ff" stroke="#63b8ff" points="321.98,-164.45 312.93,-169.96 323.44,-171.29 321.98,-164.45"/>
</a>
</g>
</g>
<!-- Node3 -->
<g id="Node000003" class="node">
<title>Node3</title>
<g id="a_Node000003"><a xlink:href="convectionSystem_8cpp.html" target="_top" xlink:title=" ">
<polygon fill="white" stroke="#666666" points="143.5,-77.5 0,-77.5 0,-56.75 143.5,-56.75 143.5,-77.5"/>
<text text-anchor="middle" x="71.75" y="-64" font-family="FreeSans" font-size="10.00">src/convectionSystem.cpp</text>
</a>
</g>
</g>
<!-- Node2&#45;&gt;Node3 -->
<g id="edge2_Node000002_Node000003" class="edge">
<title>Node2&#45;&gt;Node3</title>
<g id="a_edge2_Node000002_Node000003"><a xlink:title=" ">
<path fill="none" stroke="#63b8ff" d="M86.43,-103.07C82.82,-94.48 78.76,-84.81 75.83,-77.83"/>
<polygon fill="#63b8ff" stroke="#63b8ff" points="83.54,-104.22 90.64,-112.09 89.99,-101.51 83.54,-104.22"/>
</a>
</g>
</g>
<!-- Node2&#45;&gt;Node4 -->
<g id="edge3_Node000002_Node000004" class="edge">
<title>Node2&#45;&gt;Node4</title>
<g id="a_edge3_Node000002_Node000004"><a xlink:title=" ">
<path fill="none" stroke="#63b8ff" d="M125.55,-108.46C146.21,-98.8 172.85,-86.33 191.01,-77.83"/>
<polygon fill="#63b8ff" stroke="#63b8ff" points="124.24,-105.68 116.67,-113.09 127.21,-112.02 124.24,-105.68"/>
</a>
</g>
</g>
<!-- Node5 -->
<g id="Node000005" class="node">
<title>Node5</title>
<g id="a_Node000005"><a xlink:href="flameSolver_8cpp.html" target="_top" xlink:title=" ">
<polygon fill="white" stroke="#666666" points="267.38,-20.75 156.12,-20.75 156.12,0 267.38,0 267.38,-20.75"/>
<text text-anchor="middle" x="211.75" y="-7.25" font-family="FreeSans" font-size="10.00">src/flameSolver.cpp</text>
</a>
</g>
</g>
<!-- Node4&#45;&gt;Node5 -->
<g id="edge4_Node000004_Node000005" class="edge">
<title>Node4&#45;&gt;Node5</title>
<g id="a_edge4_Node000004_Node000005"><a xlink:title=" ">
<path fill="none" stroke="#63b8ff" d="M211.75,-45.46C211.75,-37.09 211.75,-27.83 211.75,-21.08"/>
<polygon fill="#63b8ff" stroke="#63b8ff" points="208.25,-45.34 211.75,-55.34 215.25,-45.34 208.25,-45.34"/>
</a>
</g>
</g>
<!-- Node8&#45;&gt;Node4 -->
<g id="edge9_Node000008_Node000004" class="edge">
<title>Node8&#45;&gt;Node4</title>
<g id="a_edge9_Node000008_Node000004"><a xlink:title=" ">
<path fill="none" stroke="#63b8ff" d="M465.35,-112.77C407.08,-102.51 317.74,-86.78 262.13,-76.99"/>
<polygon fill="#63b8ff" stroke="#63b8ff" points="464.4,-116.33 474.85,-114.62 465.61,-109.44 464.4,-116.33"/>
</a>
</g>
</g>
<!-- Node9 -->
<g id="Node000009" class="node">
<title>Node9</title>
<g id="a_Node000009"><a xlink:href="splitSolver_8cpp.html" target="_top" xlink:title=" ">
<polygon fill="white" stroke="#666666" points="575,-77.5 470.5,-77.5 470.5,-56.75 575,-56.75 575,-77.5"/>
<text text-anchor="middle" x="522.75" y="-64" font-family="FreeSans" font-size="10.00">src/splitSolver.cpp</text>
</a>
</g>
</g>
<!-- Node8&#45;&gt;Node9 -->
<g id="edge10_Node000008_Node000009" class="edge">
<title>Node8&#45;&gt;Node9</title>
<g id="a_edge10_Node000008_Node000009"><a xlink:title=" ">
<path fill="none" stroke="#63b8ff" d="M522.75,-102.21C522.75,-93.84 522.75,-84.58 522.75,-77.83"/>
<polygon fill="#63b8ff" stroke="#63b8ff" points="519.25,-102.09 522.75,-112.09 526.25,-102.09 519.25,-102.09"/>
</a>
</g>
</g>
</g>
</svg>
