<?xml version="1.0" encoding="UTF-8" standalone="no"?>
<!DOCTYPE svg PUBLIC "-//W3C//DTD SVG 1.1//EN"
 "http://www.w3.org/Graphics/SVG/1.1/DTD/svg11.dtd">
<!-- Generated by graphviz version 2.38.0 (20140413.2041)
 -->
<!-- Title: src/perfTimer.h Pages: 1 -->
<svg width="552pt" height="196pt"
 viewBox="0.00 0.00 552.00 196.00" xmlns="http://www.w3.org/2000/svg" xmlns:xlink="http://www.w3.org/1999/xlink">
<g id="graph0" class="graph" transform="scale(1 1) rotate(0) translate(4 192)">
<title>src/perfTimer.h</title>
<polygon fill="white" stroke="none" points="-4,4 -4,-192 548,-192 548,4 -4,4"/>
<!-- Node1 -->
<g id="node1" class="node"><title>Node1</title>
<polygon fill="#bfbfbf" stroke="black" points="222,-168.5 222,-187.5 303,-187.5 303,-168.5 222,-168.5"/>
<text text-anchor="middle" x="262.5" y="-175.5" font-family="FreeSans" font-size="10.00">src/perfTimer.h</text>
</g>
<!-- Node2 -->
<g id="node2" class="node"><title>Node2</title>
<g id="a_node2"><a xlink:href="convectionSystem_8h.html" target="_top" xlink:title="src/convectionSystem.h">
<polygon fill="white" stroke="black" points="45,-112.5 45,-131.5 164,-131.5 164,-112.5 45,-112.5"/>
<text text-anchor="middle" x="104.5" y="-119.5" font-family="FreeSans" font-size="10.00">src/convectionSystem.h</text>
</a>
</g>
</g>
<!-- Node1&#45;&gt;Node2 -->
<g id="edge1" class="edge"><title>Node1&#45;&gt;Node2</title>
<path fill="none" stroke="midnightblue" d="M227.892,-165.172C198.141,-155.004 155.953,-140.585 129.418,-131.516"/>
<polygon fill="midnightblue" stroke="midnightblue" points="226.87,-168.521 237.464,-168.444 229.134,-161.898 226.87,-168.521"/>
</g>
<!-- Node4 -->
<g id="node4" class="node"><title>Node4</title>
<g id="a_node4"><a xlink:href="flameSolver_8h.html" target="_top" xlink:title="src/flameSolver.h">
<polygon fill="white" stroke="black" points="147.5,-56.5 147.5,-75.5 237.5,-75.5 237.5,-56.5 147.5,-56.5"/>
<text text-anchor="middle" x="192.5" y="-63.5" font-family="FreeSans" font-size="10.00">src/flameSolver.h</text>
</a>
</g>
</g>
<!-- Node1&#45;&gt;Node4 -->
<g id="edge8" class="edge"><title>Node1&#45;&gt;Node4</title>
<path fill="none" stroke="midnightblue" d="M240.726,-162.27C230.538,-154.373 219.021,-143.835 211.5,-132 200.023,-113.94 195.262,-88.7062 193.468,-75.6267"/>
<polygon fill="midnightblue" stroke="midnightblue" points="238.726,-165.144 248.854,-168.254 242.876,-159.507 238.726,-165.144"/>
</g>
<!-- Node6 -->
<g id="node6" class="node"><title>Node6</title>
<g id="a_node6"><a xlink:href="splitSolver_8h.html" target="_top" xlink:title="src/splitSolver.h">
<polygon fill="white" stroke="black" points="220.5,-112.5 220.5,-131.5 304.5,-131.5 304.5,-112.5 220.5,-112.5"/>
<text text-anchor="middle" x="262.5" y="-119.5" font-family="FreeSans" font-size="10.00">src/splitSolver.h</text>
</a>
</g>
</g>
<!-- Node1&#45;&gt;Node6 -->
<g id="edge5" class="edge"><title>Node1&#45;&gt;Node6</title>
<path fill="none" stroke="midnightblue" d="M262.5,-157.805C262.5,-148.91 262.5,-138.78 262.5,-131.751"/>
<polygon fill="midnightblue" stroke="midnightblue" points="259,-158.083 262.5,-168.083 266,-158.083 259,-158.083"/>
</g>
<!-- Node8 -->
<g id="node8" class="node"><title>Node8</title>
<g id="a_node8"><a xlink:href="perfTimer_8cpp.html" target="_top" xlink:title="src/perfTimer.cpp">
<polygon fill="white" stroke="black" points="322.5,-112.5 322.5,-131.5 414.5,-131.5 414.5,-112.5 322.5,-112.5"/>
<text text-anchor="middle" x="368.5" y="-119.5" font-family="FreeSans" font-size="10.00">src/perfTimer.cpp</text>
</a>
</g>
</g>
<!-- Node1&#45;&gt;Node8 -->
<g id="edge9" class="edge"><title>Node1&#45;&gt;Node8</title>
<path fill="none" stroke="midnightblue" d="M288.556,-163.726C308.184,-153.727 334.528,-140.307 351.512,-131.655"/>
<polygon fill="midnightblue" stroke="midnightblue" points="286.852,-160.666 279.531,-168.324 290.03,-166.903 286.852,-160.666"/>
</g>
<!-- Node9 -->
<g id="node9" class="node"><title>Node9</title>
<g id="a_node9"><a xlink:href="sourceSystem_8cpp.html" target="_top" xlink:title="src/sourceSystem.cpp">
<polygon fill="white" stroke="black" points="433,-112.5 433,-131.5 544,-131.5 544,-112.5 433,-112.5"/>
<text text-anchor="middle" x="488.5" y="-119.5" font-family="FreeSans" font-size="10.00">src/sourceSystem.cpp</text>
</a>
</g>
</g>
<!-- Node1&#45;&gt;Node9 -->
<g id="edge10" class="edge"><title>Node1&#45;&gt;Node9</title>
<path fill="none" stroke="midnightblue" d="M308.167,-166.088C350.864,-155.887 413.748,-140.861 452.857,-131.516"/>
<polygon fill="midnightblue" stroke="midnightblue" points="307.223,-162.715 298.31,-168.444 308.85,-169.524 307.223,-162.715"/>
</g>
<!-- Node3 -->
<g id="node3" class="node"><title>Node3</title>
<g id="a_node3"><a xlink:href="convectionSystem_8cpp.html" target="_top" xlink:title="src/convectionSystem.cpp">
<polygon fill="white" stroke="black" points="0,-56.5 0,-75.5 129,-75.5 129,-56.5 0,-56.5"/>
<text text-anchor="middle" x="64.5" y="-63.5" font-family="FreeSans" font-size="10.00">src/convectionSystem.cpp</text>
</a>
</g>
</g>
<!-- Node2&#45;&gt;Node3 -->
<g id="edge2" class="edge"><title>Node2&#45;&gt;Node3</title>
<path fill="none" stroke="midnightblue" d="M91.8003,-103.855C84.874,-94.5048 76.5937,-83.3265 70.9823,-75.7511"/>
<polygon fill="midnightblue" stroke="midnightblue" points="89.13,-106.131 97.8948,-112.083 94.755,-101.964 89.13,-106.131"/>
</g>
<!-- Node2&#45;&gt;Node4 -->
<g id="edge3" class="edge"><title>Node2&#45;&gt;Node4</title>
<path fill="none" stroke="midnightblue" d="M127.477,-106.901C143.613,-96.9986 164.681,-84.0705 178.396,-75.6545"/>
<polygon fill="midnightblue" stroke="midnightblue" points="125.331,-104.111 118.639,-112.324 128.993,-110.077 125.331,-104.111"/>
</g>
<!-- Node5 -->
<g id="node5" class="node"><title>Node5</title>
<g id="a_node5"><a xlink:href="flameSolver_8cpp.html" target="_top" xlink:title="src/flameSolver.cpp">
<polygon fill="white" stroke="black" points="142,-0.5 142,-19.5 243,-19.5 243,-0.5 142,-0.5"/>
<text text-anchor="middle" x="192.5" y="-7.5" font-family="FreeSans" font-size="10.00">src/flameSolver.cpp</text>
</a>
</g>
</g>
<!-- Node4&#45;&gt;Node5 -->
<g id="edge4" class="edge"><title>Node4&#45;&gt;Node5</title>
<path fill="none" stroke="midnightblue" d="M192.5,-45.8045C192.5,-36.9102 192.5,-26.7798 192.5,-19.7511"/>
<polygon fill="midnightblue" stroke="midnightblue" points="189,-46.083 192.5,-56.083 196,-46.083 189,-46.083"/>
</g>
<!-- Node6&#45;&gt;Node4 -->
<g id="edge6" class="edge"><title>Node6&#45;&gt;Node4</title>
<path fill="none" stroke="midnightblue" d="M243.186,-106.101C230.588,-96.3824 214.572,-84.0269 203.951,-75.8339"/>
<polygon fill="midnightblue" stroke="midnightblue" points="241.198,-108.987 251.253,-112.324 245.473,-103.445 241.198,-108.987"/>
</g>
<!-- Node7 -->
<g id="node7" class="node"><title>Node7</title>
<g id="a_node7"><a xlink:href="splitSolver_8cpp.html" target="_top" xlink:title="src/splitSolver.cpp">
<polygon fill="white" stroke="black" points="256,-56.5 256,-75.5 351,-75.5 351,-56.5 256,-56.5"/>
<text text-anchor="middle" x="303.5" y="-63.5" font-family="FreeSans" font-size="10.00">src/splitSolver.cpp</text>
</a>
</g>
</g>
<!-- Node6&#45;&gt;Node7 -->
<g id="edge7" class="edge"><title>Node6&#45;&gt;Node7</title>
<path fill="none" stroke="midnightblue" d="M275.517,-103.855C282.617,-94.5048 291.104,-83.3265 296.856,-75.7511"/>
<polygon fill="midnightblue" stroke="midnightblue" points="272.53,-102.002 269.27,-112.083 278.105,-106.235 272.53,-102.002"/>
</g>
</g>
</svg>
