<?xml version="1.0" encoding="UTF-8" standalone="no"?>
<!DOCTYPE svg PUBLIC "-//W3C//DTD SVG 1.1//EN"
 "http://www.w3.org/Graphics/SVG/1.1/DTD/svg11.dtd">
<!-- Generated by graphviz version 8.1.0 (20230707.2238)
 -->
<!-- Title: src/perfTimer.cpp Pages: 1 -->
<svg width="260pt" height="199pt"
 viewBox="0.00 0.00 259.88 199.00" xmlns="http://www.w3.org/2000/svg" xmlns:xlink="http://www.w3.org/1999/xlink">
<g id="graph0" class="graph" transform="scale(1 1) rotate(0) translate(4 195)">
<title>src/perfTimer.cpp</title>
<!-- Node1 -->
<g id="Node000001" class="node">
<title>Node1</title>
<g id="a_Node000001"><a xlink:title=" ">
<polygon fill="#999999" stroke="#666666" points="203.5,-191 102.75,-191 102.75,-170.25 203.5,-170.25 203.5,-191"/>
<text text-anchor="middle" x="153.12" y="-177.5" font-family="FreeSans" font-size="10.00">src/perfTimer.cpp</text>
</a>
</g>
</g>
<!-- Node2 -->
<g id="Node000002" class="node">
<title>Node2</title>
<g id="a_Node000002"><a xlink:href="perfTimer_8h.html" target="_top" xlink:title=" ">
<polygon fill="white" stroke="#666666" points="189.25,-134.25 117,-134.25 117,-113.5 189.25,-113.5 189.25,-134.25"/>
<text text-anchor="middle" x="153.12" y="-120.75" font-family="FreeSans" font-size="10.00">perfTimer.h</text>
</a>
</g>
</g>
<!-- Node1&#45;&gt;Node2 -->
<g id="edge1_Node000001_Node000002" class="edge">
<title>Node1&#45;&gt;Node2</title>
<g id="a_edge1_Node000001_Node000002"><a xlink:title=" ">
<path fill="none" stroke="#63b8ff" d="M153.12,-169.84C153.12,-163.06 153.12,-153.8 153.12,-145.44"/>
<polygon fill="#63b8ff" stroke="#63b8ff" points="156.63,-145.58 153.12,-135.58 149.63,-145.58 156.63,-145.58"/>
</a>
</g>
</g>
<!-- Node3 -->
<g id="Node000003" class="node">
<title>Node3</title>
<g id="a_Node000003"><a xlink:href="tbb__tools_8h.html" target="_top" xlink:title=" ">
<polygon fill="white" stroke="#666666" points="101.12,-77.5 31.12,-77.5 31.12,-56.75 101.12,-56.75 101.12,-77.5"/>
<text text-anchor="middle" x="66.12" y="-64" font-family="FreeSans" font-size="10.00">tbb_tools.h</text>
</a>
</g>
</g>
<!-- Node2&#45;&gt;Node3 -->
<g id="edge2_Node000002_Node000003" class="edge">
<title>Node2&#45;&gt;Node3</title>
<g id="a_edge2_Node000002_Node000003"><a xlink:title=" ">
<path fill="none" stroke="#63b8ff" d="M137.57,-113.09C124.58,-104.91 105.82,-93.11 90.79,-83.65"/>
<polygon fill="#63b8ff" stroke="#63b8ff" points="92.87,-80.19 82.54,-77.83 89.14,-86.12 92.87,-80.19"/>
</a>
</g>
</g>
<!-- Node11 -->
<g id="Node000011" class="node">
<title>Node11</title>
<g id="a_Node000011"><a xlink:title=" ">
<polygon fill="#e0e0e0" stroke="#999999" points="186.62,-77.5 119.62,-77.5 119.62,-56.75 186.62,-56.75 186.62,-77.5"/>
<text text-anchor="middle" x="153.12" y="-64" font-family="FreeSans" font-size="10.00">sys/time.h</text>
</a>
</g>
</g>
<!-- Node2&#45;&gt;Node11 -->
<g id="edge5_Node000002_Node000011" class="edge">
<title>Node2&#45;&gt;Node11</title>
<g id="a_edge5_Node000002_Node000011"><a xlink:title=" ">
<path fill="none" stroke="#63b8ff" d="M153.12,-113.09C153.12,-106.31 153.12,-97.05 153.12,-88.69"/>
<polygon fill="#63b8ff" stroke="#63b8ff" points="156.63,-88.83 153.12,-78.83 149.63,-88.83 156.63,-88.83"/>
</a>
</g>
</g>
<!-- Node12 -->
<g id="Node000012" class="node">
<title>Node12</title>
<g id="a_Node000012"><a xlink:title=" ">
<polygon fill="#e0e0e0" stroke="#999999" points="251.88,-77.5 204.38,-77.5 204.38,-56.75 251.88,-56.75 251.88,-77.5"/>
<text text-anchor="middle" x="228.12" y="-64" font-family="FreeSans" font-size="10.00">time.h</text>
</a>
</g>
</g>
<!-- Node2&#45;&gt;Node12 -->
<g id="edge6_Node000002_Node000012" class="edge">
<title>Node2&#45;&gt;Node12</title>
<g id="a_edge6_Node000002_Node000012"><a xlink:title=" ">
<path fill="none" stroke="#63b8ff" d="M166.53,-113.09C177.52,-105.07 193.29,-93.56 206.12,-84.19"/>
<polygon fill="#63b8ff" stroke="#63b8ff" points="207.82,-86.55 213.83,-77.83 203.69,-80.9 207.82,-86.55"/>
</a>
</g>
</g>
<!-- Node4 -->
<g id="Node000004" class="node">
<title>Node4</title>
<g id="a_Node000004"><a xlink:href="config_8h.html" target="_top" xlink:title=" ">
<polygon fill="white" stroke="#666666" points="54.25,-20.75 0,-20.75 0,0 54.25,0 54.25,-20.75"/>
<text text-anchor="middle" x="27.12" y="-7.25" font-family="FreeSans" font-size="10.00">config.h</text>
</a>
</g>
</g>
<!-- Node3&#45;&gt;Node4 -->
<g id="edge3_Node000003_Node000004" class="edge">
<title>Node3&#45;&gt;Node4</title>
<g id="a_edge3_Node000003_Node000004"><a xlink:title=" ">
<path fill="none" stroke="#63b8ff" d="M59.15,-56.34C53.94,-49.02 46.65,-38.79 40.35,-29.94"/>
<polygon fill="#63b8ff" stroke="#63b8ff" points="42.69,-28.19 34.04,-22.08 36.99,-32.25 42.69,-28.19"/>
</a>
</g>
</g>
<!-- Node5 -->
<g id="Node000005" class="node">
<title>Node5</title>
<g id="a_Node000005"><a xlink:href="tbb__real_8h.html" target="_top" xlink:title=" ">
<polygon fill="#fff0f0" stroke="red" points="137.5,-20.75 72.75,-20.75 72.75,0 137.5,0 137.5,-20.75"/>
<text text-anchor="middle" x="105.12" y="-7.25" font-family="FreeSans" font-size="10.00">tbb_real.h</text>
</a>
</g>
</g>
<!-- Node3&#45;&gt;Node5 -->
<g id="edge4_Node000003_Node000005" class="edge">
<title>Node3&#45;&gt;Node5</title>
<g id="a_edge4_Node000003_Node000005"><a xlink:title=" ">
<path fill="none" stroke="#63b8ff" d="M73.1,-56.34C78.31,-49.02 85.6,-38.79 91.9,-29.94"/>
<polygon fill="#63b8ff" stroke="#63b8ff" points="95.26,-32.25 98.21,-22.08 89.56,-28.19 95.26,-32.25"/>
</a>
</g>
</g>
</g>
</svg>
