<?xml version="1.0" encoding="UTF-8" standalone="no"?>
<!DOCTYPE svg PUBLIC "-//W3C//DTD SVG 1.1//EN"
 "http://www.w3.org/Graphics/SVG/1.1/DTD/svg11.dtd">
<!-- Generated by graphviz version 2.36.0 (20140111.2315)
 -->
<!-- Title: src/perfTimer.cpp Pages: 1 -->
<svg width="239pt" height="196pt"
 viewBox="0.00 0.00 239.00 196.00" xmlns="http://www.w3.org/2000/svg" xmlns:xlink="http://www.w3.org/1999/xlink">
<g id="graph0" class="graph" transform="scale(1 1) rotate(0) translate(4 192)">
<title>src/perfTimer.cpp</title>
<polygon fill="white" stroke="none" points="-4,4 -4,-192 235,-192 235,4 -4,4"/>
<!-- Node1 -->
<g id="node1" class="node"><title>Node1</title>
<polygon fill="#bfbfbf" stroke="black" points="95,-168.5 95,-187.5 187,-187.5 187,-168.5 95,-168.5"/>
<text text-anchor="middle" x="141" y="-175.5" font-family="FreeSans" font-size="10.00">src/perfTimer.cpp</text>
</g>
<!-- Node2 -->
<g id="node2" class="node"><title>Node2</title>
<g id="a_node2"><a xlink:href="perfTimer_8h.html" target="_top" xlink:title="perfTimer.h">
<polygon fill="white" stroke="black" points="108.5,-112.5 108.5,-131.5 173.5,-131.5 173.5,-112.5 108.5,-112.5"/>
<text text-anchor="middle" x="141" y="-119.5" font-family="FreeSans" font-size="10.00">perfTimer.h</text>
</a>
</g>
</g>
<!-- Node1&#45;&gt;Node2 -->
<g id="edge1" class="edge"><title>Node1&#45;&gt;Node2</title>
<path fill="none" stroke="midnightblue" d="M141,-168.083C141,-161.006 141,-150.861 141,-141.986"/>
<polygon fill="midnightblue" stroke="midnightblue" points="144.5,-141.751 141,-131.751 137.5,-141.751 144.5,-141.751"/>
</g>
<!-- Node3 -->
<g id="node3" class="node"><title>Node3</title>
<g id="a_node3"><a xlink:href="tbb__tools_8h.html" target="_top" xlink:title="tbb_tools.h">
<polygon fill="white" stroke="black" points="30.5,-56.5 30.5,-75.5 93.5,-75.5 93.5,-56.5 30.5,-56.5"/>
<text text-anchor="middle" x="62" y="-63.5" font-family="FreeSans" font-size="10.00">tbb_tools.h</text>
</a>
</g>
</g>
<!-- Node2&#45;&gt;Node3 -->
<g id="edge2" class="edge"><title>Node2&#45;&gt;Node3</title>
<path fill="none" stroke="midnightblue" d="M128.307,-112.324C116.099,-103.979 97.4215,-91.2122 82.9971,-81.3524"/>
<polygon fill="midnightblue" stroke="midnightblue" points="84.892,-78.4082 74.6612,-75.6545 80.9418,-84.1871 84.892,-78.4082"/>
</g>
<!-- Node6 -->
<g id="node6" class="node"><title>Node6</title>
<polygon fill="white" stroke="#bfbfbf" points="111.5,-56.5 111.5,-75.5 170.5,-75.5 170.5,-56.5 111.5,-56.5"/>
<text text-anchor="middle" x="141" y="-63.5" font-family="FreeSans" font-size="10.00">sys/time.h</text>
</g>
<!-- Node2&#45;&gt;Node6 -->
<g id="edge5" class="edge"><title>Node2&#45;&gt;Node6</title>
<path fill="none" stroke="midnightblue" d="M141,-112.083C141,-105.006 141,-94.8611 141,-85.9865"/>
<polygon fill="midnightblue" stroke="midnightblue" points="144.5,-85.751 141,-75.7511 137.5,-85.7511 144.5,-85.751"/>
</g>
<!-- Node7 -->
<g id="node7" class="node"><title>Node7</title>
<polygon fill="white" stroke="#bfbfbf" points="188.5,-56.5 188.5,-75.5 231.5,-75.5 231.5,-56.5 188.5,-56.5"/>
<text text-anchor="middle" x="210" y="-63.5" font-family="FreeSans" font-size="10.00">time.h</text>
</g>
<!-- Node2&#45;&gt;Node7 -->
<g id="edge6" class="edge"><title>Node2&#45;&gt;Node7</title>
<path fill="none" stroke="midnightblue" d="M152.086,-112.324C162.486,-104.185 178.261,-91.8395 190.722,-82.0874"/>
<polygon fill="midnightblue" stroke="midnightblue" points="192.994,-84.7533 198.712,-75.8339 188.68,-79.2407 192.994,-84.7533"/>
</g>
<!-- Node4 -->
<g id="node4" class="node"><title>Node4</title>
<g id="a_node4"><a xlink:href="config_8h.html" target="_top" xlink:title="config.h">
<polygon fill="white" stroke="black" points="0,-0.5 0,-19.5 50,-19.5 50,-0.5 0,-0.5"/>
<text text-anchor="middle" x="25" y="-7.5" font-family="FreeSans" font-size="10.00">config.h</text>
</a>
</g>
</g>
<!-- Node3&#45;&gt;Node4 -->
<g id="edge3" class="edge"><title>Node3&#45;&gt;Node4</title>
<path fill="none" stroke="midnightblue" d="M55.8902,-56.083C50.7178,-48.5341 43.1539,-37.4948 36.8056,-28.2298"/>
<polygon fill="midnightblue" stroke="midnightblue" points="39.5357,-26.0221 30.9961,-19.7511 33.7612,-29.9787 39.5357,-26.0221"/>
</g>
<!-- Node5 -->
<g id="node5" class="node"><title>Node5</title>
<g id="a_node5"><a xlink:href="tbb__fake_8h.html" target="_top" xlink:title="tbb_fake.h">
<polygon fill="white" stroke="red" points="68,-0.5 68,-19.5 130,-19.5 130,-0.5 68,-0.5"/>
<text text-anchor="middle" x="99" y="-7.5" font-family="FreeSans" font-size="10.00">tbb_fake.h</text>
</a>
</g>
</g>
<!-- Node3&#45;&gt;Node5 -->
<g id="edge4" class="edge"><title>Node3&#45;&gt;Node5</title>
<path fill="none" stroke="midnightblue" d="M68.1098,-56.083C73.2822,-48.5341 80.8461,-37.4948 87.1944,-28.2298"/>
<polygon fill="midnightblue" stroke="midnightblue" points="90.2388,-29.9787 93.0039,-19.7511 84.4643,-26.0221 90.2388,-29.9787"/>
</g>
</g>
</svg>
