<?xml version="1.0" encoding="UTF-8" standalone="no"?>
<!DOCTYPE svg PUBLIC "-//W3C//DTD SVG 1.1//EN"
 "http://www.w3.org/Graphics/SVG/1.1/DTD/svg11.dtd">
<!-- Generated by graphviz version 8.1.0 (20230707.2238)
 -->
<!-- Title: src/perfTimer.h Pages: 1 -->
<svg width="636pt" height="212pt"
 viewBox="0.00 0.00 635.50 211.75" xmlns="http://www.w3.org/2000/svg" xmlns:xlink="http://www.w3.org/1999/xlink">
<g id="graph0" class="graph" transform="scale(1 1) rotate(0) translate(4 207.75)">
<title>src/perfTimer.h</title>
<!-- Node1 -->
<g id="Node000001" class="node">
<title>Node1</title>
<g id="a_Node000001"><a xlink:title=" ">
<polygon fill="#999999" stroke="#666666" points="405.88,-203.75 316.38,-203.75 316.38,-183 405.88,-183 405.88,-203.75"/>
<text text-anchor="middle" x="361.12" y="-190.25" font-family="FreeSans" font-size="10.00">src/perfTimer.h</text>
</a>
</g>
</g>
<!-- Node2 -->
<g id="Node000002" class="node">
<title>Node2</title>
<g id="a_Node000002"><a xlink:href="tbb__tools_8h.html" target="_top" xlink:title=" ">
<polygon fill="white" stroke="#666666" points="309.12,-147 239.12,-147 239.12,-126.25 309.12,-126.25 309.12,-147"/>
<text text-anchor="middle" x="274.12" y="-133.5" font-family="FreeSans" font-size="10.00">tbb_tools.h</text>
</a>
</g>
</g>
<!-- Node1&#45;&gt;Node2 -->
<g id="edge1_Node000001_Node000002" class="edge">
<title>Node1&#45;&gt;Node2</title>
<g id="a_edge1_Node000001_Node000002"><a xlink:title=" ">
<path fill="none" stroke="#63b8ff" d="M345.57,-182.59C332.58,-174.41 313.82,-162.61 298.79,-153.15"/>
<polygon fill="#63b8ff" stroke="#63b8ff" points="300.87,-149.69 290.54,-147.33 297.14,-155.62 300.87,-149.69"/>
</a>
</g>
</g>
<!-- Node10 -->
<g id="Node000010" class="node">
<title>Node10</title>
<g id="a_Node000010"><a xlink:title=" ">
<polygon fill="#e0e0e0" stroke="#999999" points="394.62,-147 327.62,-147 327.62,-126.25 394.62,-126.25 394.62,-147"/>
<text text-anchor="middle" x="361.12" y="-133.5" font-family="FreeSans" font-size="10.00">sys/time.h</text>
</a>
</g>
</g>
<!-- Node1&#45;&gt;Node10 -->
<g id="edge9_Node000001_Node000010" class="edge">
<title>Node1&#45;&gt;Node10</title>
<g id="a_edge9_Node000001_Node000010"><a xlink:title=" ">
<path fill="none" stroke="#63b8ff" d="M361.12,-182.59C361.12,-175.81 361.12,-166.55 361.12,-158.19"/>
<polygon fill="#63b8ff" stroke="#63b8ff" points="364.63,-158.33 361.12,-148.33 357.63,-158.33 364.63,-158.33"/>
</a>
</g>
</g>
<!-- Node11 -->
<g id="Node000011" class="node">
<title>Node11</title>
<g id="a_Node000011"><a xlink:title=" ">
<polygon fill="#e0e0e0" stroke="#999999" points="459.88,-147 412.38,-147 412.38,-126.25 459.88,-126.25 459.88,-147"/>
<text text-anchor="middle" x="436.12" y="-133.5" font-family="FreeSans" font-size="10.00">time.h</text>
</a>
</g>
</g>
<!-- Node1&#45;&gt;Node11 -->
<g id="edge10_Node000001_Node000011" class="edge">
<title>Node1&#45;&gt;Node11</title>
<g id="a_edge10_Node000001_Node000011"><a xlink:title=" ">
<path fill="none" stroke="#63b8ff" d="M374.53,-182.59C385.52,-174.57 401.29,-163.06 414.12,-153.69"/>
<polygon fill="#63b8ff" stroke="#63b8ff" points="415.82,-156.05 421.83,-147.33 411.69,-150.4 415.82,-156.05"/>
</a>
</g>
</g>
<!-- Node3 -->
<g id="Node000003" class="node">
<title>Node3</title>
<g id="a_Node000003"><a xlink:href="config_8h.html" target="_top" xlink:title=" ">
<polygon fill="white" stroke="#666666" points="262.25,-90.25 208,-90.25 208,-69.5 262.25,-69.5 262.25,-90.25"/>
<text text-anchor="middle" x="235.12" y="-76.75" font-family="FreeSans" font-size="10.00">config.h</text>
</a>
</g>
</g>
<!-- Node2&#45;&gt;Node3 -->
<g id="edge2_Node000002_Node000003" class="edge">
<title>Node2&#45;&gt;Node3</title>
<g id="a_edge2_Node000002_Node000003"><a xlink:title=" ">
<path fill="none" stroke="#63b8ff" d="M267.15,-125.84C261.94,-118.52 254.65,-108.29 248.35,-99.44"/>
<polygon fill="#63b8ff" stroke="#63b8ff" points="250.69,-97.69 242.04,-91.58 244.99,-101.75 250.69,-97.69"/>
</a>
</g>
</g>
<!-- Node4 -->
<g id="Node000004" class="node">
<title>Node4</title>
<g id="a_Node000004"><a xlink:href="tbb__real_8h.html" target="_top" xlink:title=" ">
<polygon fill="white" stroke="#666666" points="345.5,-90.25 280.75,-90.25 280.75,-69.5 345.5,-69.5 345.5,-90.25"/>
<text text-anchor="middle" x="313.12" y="-76.75" font-family="FreeSans" font-size="10.00">tbb_real.h</text>
</a>
</g>
</g>
<!-- Node2&#45;&gt;Node4 -->
<g id="edge3_Node000002_Node000004" class="edge">
<title>Node2&#45;&gt;Node4</title>
<g id="a_edge3_Node000002_Node000004"><a xlink:title=" ">
<path fill="none" stroke="#63b8ff" d="M281.1,-125.84C286.31,-118.52 293.6,-108.29 299.9,-99.44"/>
<polygon fill="#63b8ff" stroke="#63b8ff" points="303.26,-101.75 306.21,-91.58 297.56,-97.69 303.26,-101.75"/>
</a>
</g>
</g>
<!-- Node5 -->
<g id="Node000005" class="node">
<title>Node5</title>
<g id="a_Node000005"><a xlink:title=" ">
<polygon fill="#e0e0e0" stroke="#999999" points="114.25,-27.12 0,-27.12 0,-6.38 114.25,-6.38 114.25,-27.12"/>
<text text-anchor="middle" x="57.12" y="-13.62" font-family="FreeSans" font-size="10.00">tbb/blocked_range.h</text>
</a>
</g>
</g>
<!-- Node4&#45;&gt;Node5 -->
<g id="edge4_Node000004_Node000005" class="edge">
<title>Node4&#45;&gt;Node5</title>
<g id="a_edge4_Node000004_Node000005"><a xlink:title=" ">
<path fill="none" stroke="#63b8ff" d="M280.44,-71.07C237.03,-60.71 159.86,-42.28 108.59,-30.04"/>
<polygon fill="#63b8ff" stroke="#63b8ff" points="109.6,-26.44 99.06,-27.52 107.97,-33.25 109.6,-26.44"/>
</a>
</g>
</g>
<!-- Node6 -->
<g id="Node000006" class="node">
<title>Node6</title>
<g id="a_Node000006"><a xlink:title=" ">
<polygon fill="#e0e0e0" stroke="#999999" points="230.38,-27.12 131.88,-27.12 131.88,-6.38 230.38,-6.38 230.38,-27.12"/>
<text text-anchor="middle" x="181.12" y="-13.62" font-family="FreeSans" font-size="10.00">tbb/parallel_for.h</text>
</a>
</g>
</g>
<!-- Node4&#45;&gt;Node6 -->
<g id="edge5_Node000004_Node000006" class="edge">
<title>Node4&#45;&gt;Node6</title>
<g id="a_edge5_Node000004_Node000006"><a xlink:title=" ">
<path fill="none" stroke="#63b8ff" d="M291.92,-69.05C270.36,-59.07 236.74,-43.5 212.19,-32.13"/>
<polygon fill="#63b8ff" stroke="#63b8ff" points="213.83,-28.57 203.28,-27.55 210.88,-34.92 213.83,-28.57"/>
</a>
</g>
</g>
<!-- Node7 -->
<g id="Node000007" class="node">
<title>Node7</title>
<g id="a_Node000007"><a xlink:title=" ">
<polygon fill="#e0e0e0" stroke="#999999" points="378.12,-33.5 248.12,-33.5 248.12,0 378.12,0 378.12,-33.5"/>
<text text-anchor="start" x="256.12" y="-20" font-family="FreeSans" font-size="10.00">tbb/enumerable_thread</text>
<text text-anchor="middle" x="313.12" y="-7.25" font-family="FreeSans" font-size="10.00">_specific.h</text>
</a>
</g>
</g>
<!-- Node4&#45;&gt;Node7 -->
<g id="edge6_Node000004_Node000007" class="edge">
<title>Node4&#45;&gt;Node7</title>
<g id="a_edge6_Node000004_Node000007"><a xlink:title=" ">
<path fill="none" stroke="#63b8ff" d="M313.12,-69.05C313.12,-62.48 313.12,-53.49 313.12,-44.87"/>
<polygon fill="#63b8ff" stroke="#63b8ff" points="316.63,-44.98 313.12,-34.98 309.63,-44.98 316.63,-44.98"/>
</a>
</g>
</g>
<!-- Node8 -->
<g id="Node000008" class="node">
<title>Node8</title>
<g id="a_Node000008"><a xlink:title=" ">
<polygon fill="#e0e0e0" stroke="#999999" points="508.5,-27.12 395.75,-27.12 395.75,-6.38 508.5,-6.38 508.5,-27.12"/>
<text text-anchor="middle" x="452.12" y="-13.62" font-family="FreeSans" font-size="10.00">tbb/global_control.h</text>
</a>
</g>
</g>
<!-- Node4&#45;&gt;Node8 -->
<g id="edge7_Node000004_Node000008" class="edge">
<title>Node4&#45;&gt;Node8</title>
<g id="a_edge7_Node000004_Node000008"><a xlink:title=" ">
<path fill="none" stroke="#63b8ff" d="M335.46,-69.05C358.36,-58.98 394.19,-43.23 420.11,-31.83"/>
<polygon fill="#63b8ff" stroke="#63b8ff" points="421.1,-34.78 428.85,-27.55 418.28,-28.37 421.1,-34.78"/>
</a>
</g>
</g>
<!-- Node9 -->
<g id="Node000009" class="node">
<title>Node9</title>
<g id="a_Node000009"><a xlink:title=" ">
<polygon fill="#e0e0e0" stroke="#999999" points="627.5,-27.12 526.75,-27.12 526.75,-6.38 627.5,-6.38 627.5,-27.12"/>
<text text-anchor="middle" x="577.12" y="-13.62" font-family="FreeSans" font-size="10.00">tbb/combinable.h</text>
</a>
</g>
</g>
<!-- Node4&#45;&gt;Node9 -->
<g id="edge8_Node000004_Node000009" class="edge">
<title>Node4&#45;&gt;Node9</title>
<g id="a_edge8_Node000004_Node000009"><a xlink:title=" ">
<path fill="none" stroke="#63b8ff" d="M345.72,-72.02C386.06,-63.45 456.83,-48.11 517.12,-33.5 521.42,-32.46 525.89,-31.35 530.35,-30.21"/>
<polygon fill="#63b8ff" stroke="#63b8ff" points="530.88,-33.43 539.69,-27.55 529.14,-26.65 530.88,-33.43"/>
</a>
</g>
</g>
</g>
</svg>
