<?xml version="1.0" encoding="UTF-8" standalone="no"?>
<!DOCTYPE svg PUBLIC "-//W3C//DTD SVG 1.1//EN"
 "http://www.w3.org/Graphics/SVG/1.1/DTD/svg11.dtd">
<!-- Generated by graphviz version 2.28.0 (20120425.2022)
 -->
<!-- Title: G Pages: 1 -->
<svg width="541pt" height="196pt"
 viewBox="0.00 0.00 541.00 196.00" xmlns="http://www.w3.org/2000/svg" xmlns:xlink="http://www.w3.org/1999/xlink">
<g id="graph1" class="graph" transform="scale(1 1) rotate(0) translate(4 192)">
<title>G</title>
<polygon fill="white" stroke="white" points="-4,5 -4,-192 538,-192 538,5 -4,5"/>
<!-- Node1 -->
<g id="node1" class="node"><title>Node1</title>
<polygon fill="#bfbfbf" stroke="black" points="282,-168.5 282,-187.5 366,-187.5 366,-168.5 282,-168.5"/>
<text text-anchor="middle" x="324" y="-175.5" font-family="FreeSans" font-size="10.00">src/perfTimer.h</text>
</g>
<!-- Node2 -->
<g id="node3" class="node"><title>Node2</title>
<a xlink:href="convectionSystem_8h.html" target="_top" xlink:title="src/convectionSystem.h">
<polygon fill="white" stroke="black" points="91.5,-112.5 91.5,-131.5 214.5,-131.5 214.5,-112.5 91.5,-112.5"/>
<text text-anchor="middle" x="153" y="-119.5" font-family="FreeSans" font-size="10.00">src/convectionSystem.h</text>
</a>
</g>
<!-- Node1&#45;&gt;Node2 -->
<g id="edge2" class="edge"><title>Node1&#45;&gt;Node2</title>
<path fill="none" stroke="midnightblue" d="M286.964,-165.304C254.743,-155.129 208.811,-140.625 179.969,-131.516"/>
<polygon fill="midnightblue" stroke="midnightblue" points="286.315,-168.77 296.905,-168.444 288.423,-162.095 286.315,-168.77"/>
</g>
<!-- Node4 -->
<g id="node7" class="node"><title>Node4</title>
<a xlink:href="flameSolver_8h.html" target="_top" xlink:title="src/flameSolver.h">
<polygon fill="white" stroke="black" points="152.5,-56.5 152.5,-75.5 247.5,-75.5 247.5,-56.5 152.5,-56.5"/>
<text text-anchor="middle" x="200" y="-63.5" font-family="FreeSans" font-size="10.00">src/flameSolver.h</text>
</a>
</g>
<!-- Node1&#45;&gt;Node4 -->
<g id="edge10" class="edge"><title>Node1&#45;&gt;Node4</title>
<path fill="none" stroke="midnightblue" d="M302.364,-162.734C290.109,-154.304 274.731,-143.13 262,-132 240.867,-113.524 218.8,-88.8946 207.561,-75.8996"/>
<polygon fill="midnightblue" stroke="midnightblue" points="300.411,-165.638 310.654,-168.346 304.336,-159.842 300.411,-165.638"/>
</g>
<!-- Node5 -->
<g id="node9" class="node"><title>Node5</title>
<a xlink:href="flameSolver_8cpp.html" target="_top" xlink:title="src/flameSolver.cpp">
<polygon fill="white" stroke="black" points="252.5,-0.5 252.5,-19.5 357.5,-19.5 357.5,-0.5 252.5,-0.5"/>
<text text-anchor="middle" x="305" y="-7.5" font-family="FreeSans" font-size="10.00">src/flameSolver.cpp</text>
</a>
</g>
<!-- Node1&#45;&gt;Node5 -->
<g id="edge18" class="edge"><title>Node1&#45;&gt;Node5</title>
<path fill="none" stroke="midnightblue" d="M351.956,-163.351C364.215,-155.856 377.497,-145.347 385,-132 401.588,-102.492 407.46,-85.0002 390,-56 378.89,-37.5469 357.393,-26.2646 338.799,-19.6119"/>
<polygon fill="midnightblue" stroke="midnightblue" points="349.865,-160.513 342.894,-168.492 353.319,-166.602 349.865,-160.513"/>
</g>
<!-- Node6 -->
<g id="node12" class="node"><title>Node6</title>
<a xlink:href="sourceSystem_8h.html" target="_top" xlink:title="src/sourceSystem.h">
<polygon fill="white" stroke="black" points="271.5,-112.5 271.5,-131.5 376.5,-131.5 376.5,-112.5 271.5,-112.5"/>
<text text-anchor="middle" x="324" y="-119.5" font-family="FreeSans" font-size="10.00">src/sourceSystem.h</text>
</a>
</g>
<!-- Node1&#45;&gt;Node6 -->
<g id="edge12" class="edge"><title>Node1&#45;&gt;Node6</title>
<path fill="none" stroke="midnightblue" d="M324,-157.805C324,-148.91 324,-138.78 324,-131.751"/>
<polygon fill="midnightblue" stroke="midnightblue" points="320.5,-158.083 324,-168.083 327.5,-158.083 320.5,-158.083"/>
</g>
<!-- Node8 -->
<g id="node18" class="node"><title>Node8</title>
<a xlink:href="perfTimer_8cpp.html" target="_top" xlink:title="src/perfTimer.cpp">
<polygon fill="white" stroke="black" points="438.5,-112.5 438.5,-131.5 533.5,-131.5 533.5,-112.5 438.5,-112.5"/>
<text text-anchor="middle" x="486" y="-119.5" font-family="FreeSans" font-size="10.00">src/perfTimer.cpp</text>
</a>
</g>
<!-- Node1&#45;&gt;Node8 -->
<g id="edge20" class="edge"><title>Node1&#45;&gt;Node8</title>
<path fill="none" stroke="midnightblue" d="M359.484,-165.172C389.988,-155.004 433.245,-140.585 460.451,-131.516"/>
<polygon fill="midnightblue" stroke="midnightblue" points="358.049,-161.961 349.669,-168.444 360.263,-168.602 358.049,-161.961"/>
</g>
<!-- Node3 -->
<g id="node5" class="node"><title>Node3</title>
<a xlink:href="convectionSystem_8cpp.html" target="_top" xlink:title="src/convectionSystem.cpp">
<polygon fill="white" stroke="black" points="0,-56.5 0,-75.5 134,-75.5 134,-56.5 0,-56.5"/>
<text text-anchor="middle" x="67" y="-63.5" font-family="FreeSans" font-size="10.00">src/convectionSystem.cpp</text>
</a>
</g>
<!-- Node2&#45;&gt;Node3 -->
<g id="edge4" class="edge"><title>Node2&#45;&gt;Node3</title>
<path fill="none" stroke="midnightblue" d="M130.545,-106.901C114.776,-96.9986 94.1864,-84.0705 80.7831,-75.6545"/>
<polygon fill="midnightblue" stroke="midnightblue" points="128.852,-109.97 139.183,-112.324 132.575,-104.042 128.852,-109.97"/>
</g>
<!-- Node2&#45;&gt;Node4 -->
<g id="edge6" class="edge"><title>Node2&#45;&gt;Node4</title>
<path fill="none" stroke="midnightblue" d="M167.421,-104.431C175.658,-94.9673 185.654,-83.4827 192.383,-75.7511"/>
<polygon fill="midnightblue" stroke="midnightblue" points="164.686,-102.242 160.761,-112.083 169.966,-106.838 164.686,-102.242"/>
</g>
<!-- Node4&#45;&gt;Node5 -->
<g id="edge8" class="edge"><title>Node4&#45;&gt;Node5</title>
<path fill="none" stroke="midnightblue" d="M225.81,-51.7261C245.253,-41.7271 271.348,-28.3065 288.172,-19.6545"/>
<polygon fill="midnightblue" stroke="midnightblue" points="224.162,-48.6379 216.87,-56.324 227.364,-54.8629 224.162,-48.6379"/>
</g>
<!-- Node6&#45;&gt;Node4 -->
<g id="edge14" class="edge"><title>Node6&#45;&gt;Node4</title>
<path fill="none" stroke="midnightblue" d="M294.993,-108.368C271.771,-98.2553 239.837,-84.3486 219.556,-75.5164"/>
<polygon fill="midnightblue" stroke="midnightblue" points="293.786,-111.66 304.352,-112.444 296.581,-105.242 293.786,-111.66"/>
</g>
<!-- Node7 -->
<g id="node15" class="node"><title>Node7</title>
<a xlink:href="sourceSystem_8cpp.html" target="_top" xlink:title="src/sourceSystem.cpp">
<polygon fill="white" stroke="black" points="266,-56.5 266,-75.5 382,-75.5 382,-56.5 266,-56.5"/>
<text text-anchor="middle" x="324" y="-63.5" font-family="FreeSans" font-size="10.00">src/sourceSystem.cpp</text>
</a>
</g>
<!-- Node6&#45;&gt;Node7 -->
<g id="edge16" class="edge"><title>Node6&#45;&gt;Node7</title>
<path fill="none" stroke="midnightblue" d="M324,-101.805C324,-92.9102 324,-82.7798 324,-75.7511"/>
<polygon fill="midnightblue" stroke="midnightblue" points="320.5,-102.083 324,-112.083 327.5,-102.083 320.5,-102.083"/>
</g>
</g>
</svg>
