<?xml version="1.0" encoding="UTF-8" standalone="no"?>
<!DOCTYPE svg PUBLIC "-//W3C//DTD SVG 1.1//EN"
 "http://www.w3.org/Graphics/SVG/1.1/DTD/svg11.dtd">
<!-- Generated by graphviz version 2.28.0 (20120425.2022)
 -->
<!-- Title: src/perfTimer.h Pages: 1 -->
<svg width="379pt" height="96pt"
 viewBox="0.00 0.00 379.00 96.00" xmlns="http://www.w3.org/2000/svg" xmlns:xlink="http://www.w3.org/1999/xlink">
<g id="graph1" class="graph" transform="scale(1 1) rotate(0) translate(4 92)">
<title>src/perfTimer.h</title>
<polygon fill="white" stroke="white" points="-4,5 -4,-92 376,-92 376,5 -4,5"/>
<!-- Node1 -->
<g id="node1" class="node"><title>Node1</title>
<polygon fill="#bfbfbf" stroke="black" points="182,-68.5 182,-87.5 266,-87.5 266,-68.5 182,-68.5"/>
<text text-anchor="middle" x="224" y="-75.5" font-family="FreeSans" font-size="10.00">src/perfTimer.h</text>
</g>
<!-- Node2 -->
<g id="node3" class="node"><title>Node2</title>
<polygon fill="white" stroke="#bfbfbf" points="0,-6.5 0,-25.5 92,-25.5 92,-6.5 0,-6.5"/>
<text text-anchor="middle" x="46" y="-13.5" font-family="FreeSans" font-size="10.00">tbb/combinable.h</text>
</g>
<!-- Node1&#45;&gt;Node2 -->
<g id="edge2" class="edge"><title>Node1&#45;&gt;Node2</title>
<path fill="none" stroke="midnightblue" d="M198.497,-68.4035C167.699,-58.0222 115.735,-40.5062 81.1519,-28.849"/>
<polygon fill="midnightblue" stroke="midnightblue" points="82.0499,-25.4582 71.4558,-25.5806 79.8139,-32.0915 82.0499,-25.4582"/>
</g>
<!-- Node3 -->
<g id="node5" class="node"><title>Node3</title>
<polygon fill="white" stroke="#bfbfbf" points="110.5,-1 110.5,-31 229.5,-31 229.5,-1 110.5,-1"/>
<text text-anchor="start" x="118.5" y="-19" font-family="FreeSans" font-size="10.00">tbb/enumerable_thread</text>
<text text-anchor="middle" x="170" y="-8" font-family="FreeSans" font-size="10.00">_specific.h</text>
</g>
<!-- Node1&#45;&gt;Node3 -->
<g id="edge4" class="edge"><title>Node1&#45;&gt;Node3</title>
<path fill="none" stroke="midnightblue" d="M216.263,-68.4035C209.291,-60.657 198.744,-48.9379 189.48,-38.6447"/>
<polygon fill="midnightblue" stroke="midnightblue" points="192.018,-36.2324 182.727,-31.1408 186.815,-40.9152 192.018,-36.2324"/>
</g>
<!-- Node4 -->
<g id="node7" class="node"><title>Node4</title>
<polygon fill="white" stroke="#bfbfbf" points="248,-6.5 248,-25.5 310,-25.5 310,-6.5 248,-6.5"/>
<text text-anchor="middle" x="279" y="-13.5" font-family="FreeSans" font-size="10.00">sys/time.h</text>
</g>
<!-- Node1&#45;&gt;Node4 -->
<g id="edge6" class="edge"><title>Node1&#45;&gt;Node4</title>
<path fill="none" stroke="midnightblue" d="M231.88,-68.4035C240.294,-59.2252 253.819,-44.4699 264.226,-33.1173"/>
<polygon fill="midnightblue" stroke="midnightblue" points="266.957,-35.3172 271.134,-25.5806 261.797,-30.5871 266.957,-35.3172"/>
</g>
<!-- Node5 -->
<g id="node9" class="node"><title>Node5</title>
<polygon fill="white" stroke="#bfbfbf" points="328.5,-6.5 328.5,-25.5 371.5,-25.5 371.5,-6.5 328.5,-6.5"/>
<text text-anchor="middle" x="350" y="-13.5" font-family="FreeSans" font-size="10.00">time.h</text>
</g>
<!-- Node1&#45;&gt;Node5 -->
<g id="edge8" class="edge"><title>Node1&#45;&gt;Node5</title>
<path fill="none" stroke="midnightblue" d="M242.053,-68.4035C263.198,-58.3341 298.44,-41.5522 322.878,-29.9151"/>
<polygon fill="midnightblue" stroke="midnightblue" points="324.457,-33.04 331.981,-25.5806 321.447,-26.72 324.457,-33.04"/>
</g>
</g>
</svg>
