<?xml version="1.0" encoding="UTF-8" standalone="no"?>
<!DOCTYPE svg PUBLIC "-//W3C//DTD SVG 1.1//EN"
 "http://www.w3.org/Graphics/SVG/1.1/DTD/svg11.dtd">
<!-- Generated by graphviz version 2.38.0 (20140413.2041)
 -->
<!-- Title: src/perfTimer.cpp Pages: 1 -->
<svg width="239pt" height="196pt"
 viewBox="0.00 0.00 238.50 196.00" xmlns="http://www.w3.org/2000/svg" xmlns:xlink="http://www.w3.org/1999/xlink">
<g id="graph0" class="graph" transform="scale(1 1) rotate(0) translate(4 192)">
<title>src/perfTimer.cpp</title>
<polygon fill="white" stroke="none" points="-4,4 -4,-192 234.5,-192 234.5,4 -4,4"/>
<!-- Node1 -->
<g id="node1" class="node"><title>Node1</title>
<polygon fill="#bfbfbf" stroke="black" points="94,-168.5 94,-187.5 186,-187.5 186,-168.5 94,-168.5"/>
<text text-anchor="middle" x="140" y="-175.5" font-family="FreeSans" font-size="10.00">src/perfTimer.cpp</text>
</g>
<!-- Node2 -->
<g id="node2" class="node"><title>Node2</title>
<g id="a_node2"><a xlink:href="perfTimer_8h.html" target="_top" xlink:title="perfTimer.h">
<polygon fill="white" stroke="black" points="107.5,-112.5 107.5,-131.5 172.5,-131.5 172.5,-112.5 107.5,-112.5"/>
<text text-anchor="middle" x="140" y="-119.5" font-family="FreeSans" font-size="10.00">perfTimer.h</text>
</a>
</g>
</g>
<!-- Node1&#45;&gt;Node2 -->
<g id="edge1" class="edge"><title>Node1&#45;&gt;Node2</title>
<path fill="none" stroke="midnightblue" d="M140,-168.083C140,-161.006 140,-150.861 140,-141.986"/>
<polygon fill="midnightblue" stroke="midnightblue" points="143.5,-141.751 140,-131.751 136.5,-141.751 143.5,-141.751"/>
</g>
<!-- Node3 -->
<g id="node3" class="node"><title>Node3</title>
<g id="a_node3"><a xlink:href="tbb__tools_8h.html" target="_top" xlink:title="tbb_tools.h">
<polygon fill="white" stroke="black" points="29.5,-56.5 29.5,-75.5 92.5,-75.5 92.5,-56.5 29.5,-56.5"/>
<text text-anchor="middle" x="61" y="-63.5" font-family="FreeSans" font-size="10.00">tbb_tools.h</text>
</a>
</g>
</g>
<!-- Node2&#45;&gt;Node3 -->
<g id="edge2" class="edge"><title>Node2&#45;&gt;Node3</title>
<path fill="none" stroke="midnightblue" d="M127.307,-112.324C115.099,-103.979 96.4215,-91.2122 81.9971,-81.3524"/>
<polygon fill="midnightblue" stroke="midnightblue" points="83.892,-78.4082 73.6612,-75.6545 79.9418,-84.1871 83.892,-78.4082"/>
</g>
<!-- Node6 -->
<g id="node6" class="node"><title>Node6</title>
<polygon fill="white" stroke="#bfbfbf" points="110.5,-56.5 110.5,-75.5 169.5,-75.5 169.5,-56.5 110.5,-56.5"/>
<text text-anchor="middle" x="140" y="-63.5" font-family="FreeSans" font-size="10.00">sys/time.h</text>
</g>
<!-- Node2&#45;&gt;Node6 -->
<g id="edge5" class="edge"><title>Node2&#45;&gt;Node6</title>
<path fill="none" stroke="midnightblue" d="M140,-112.083C140,-105.006 140,-94.8611 140,-85.9865"/>
<polygon fill="midnightblue" stroke="midnightblue" points="143.5,-85.751 140,-75.7511 136.5,-85.7511 143.5,-85.751"/>
</g>
<!-- Node7 -->
<g id="node7" class="node"><title>Node7</title>
<polygon fill="white" stroke="#bfbfbf" points="187.5,-56.5 187.5,-75.5 230.5,-75.5 230.5,-56.5 187.5,-56.5"/>
<text text-anchor="middle" x="209" y="-63.5" font-family="FreeSans" font-size="10.00">time.h</text>
</g>
<!-- Node2&#45;&gt;Node7 -->
<g id="edge6" class="edge"><title>Node2&#45;&gt;Node7</title>
<path fill="none" stroke="midnightblue" d="M151.086,-112.324C161.486,-104.185 177.261,-91.8395 189.722,-82.0874"/>
<polygon fill="midnightblue" stroke="midnightblue" points="191.994,-84.7533 197.712,-75.8339 187.68,-79.2407 191.994,-84.7533"/>
</g>
<!-- Node4 -->
<g id="node4" class="node"><title>Node4</title>
<g id="a_node4"><a xlink:href="config_8h.html" target="_top" xlink:title="config.h">
<polygon fill="white" stroke="black" points="0,-0.5 0,-19.5 50,-19.5 50,-0.5 0,-0.5"/>
<text text-anchor="middle" x="25" y="-7.5" font-family="FreeSans" font-size="10.00">config.h</text>
</a>
</g>
</g>
<!-- Node3&#45;&gt;Node4 -->
<g id="edge3" class="edge"><title>Node3&#45;&gt;Node4</title>
<path fill="none" stroke="midnightblue" d="M55.0553,-56.083C50.0227,-48.5341 42.6632,-37.4948 36.4865,-28.2298"/>
<polygon fill="midnightblue" stroke="midnightblue" points="39.2933,-26.1301 30.8341,-19.7511 33.4689,-30.0131 39.2933,-26.1301"/>
</g>
<!-- Node5 -->
<g id="node5" class="node"><title>Node5</title>
<g id="a_node5"><a xlink:href="tbb__real_8h.html" target="_top" xlink:title="tbb_real.h">
<polygon fill="white" stroke="red" points="68.5,-0.5 68.5,-19.5 127.5,-19.5 127.5,-0.5 68.5,-0.5"/>
<text text-anchor="middle" x="98" y="-7.5" font-family="FreeSans" font-size="10.00">tbb_real.h</text>
</a>
</g>
</g>
<!-- Node3&#45;&gt;Node5 -->
<g id="edge4" class="edge"><title>Node3&#45;&gt;Node5</title>
<path fill="none" stroke="midnightblue" d="M67.1098,-56.083C72.2822,-48.5341 79.8461,-37.4948 86.1944,-28.2298"/>
<polygon fill="midnightblue" stroke="midnightblue" points="89.2388,-29.9787 92.0039,-19.7511 83.4643,-26.0221 89.2388,-29.9787"/>
</g>
</g>
</svg>
