<?xml version="1.0" encoding="UTF-8" standalone="no"?>
<!DOCTYPE svg PUBLIC "-//W3C//DTD SVG 1.1//EN"
 "http://www.w3.org/Graphics/SVG/1.1/DTD/svg11.dtd">
<!-- Generated by graphviz version 2.28.0 (20120425.2022)
 -->
<!-- Title: src/perfTimer.h Pages: 1 -->
<svg width="571pt" height="140pt"
 viewBox="0.00 0.00 571.00 140.00" xmlns="http://www.w3.org/2000/svg" xmlns:xlink="http://www.w3.org/1999/xlink">
<g id="graph1" class="graph" transform="scale(1 1) rotate(0) translate(4 136)">
<title>src/perfTimer.h</title>
<polygon fill="white" stroke="white" points="-4,5 -4,-136 568,-136 568,5 -4,5"/>
<!-- Node1 -->
<g id="node1" class="node"><title>Node1</title>
<polygon fill="#bfbfbf" stroke="black" points="230,-112.5 230,-131.5 314,-131.5 314,-112.5 230,-112.5"/>
<text text-anchor="middle" x="272" y="-119.5" font-family="FreeSans" font-size="10.00">src/perfTimer.h</text>
</g>
<!-- Node2 -->
<g id="node3" class="node"><title>Node2</title>
<a xlink:href="convectionSystem_8h.html" target="_top" xlink:title="src/convectionSystem.h">
<polygon fill="white" stroke="black" points="48.5,-56.5 48.5,-75.5 171.5,-75.5 171.5,-56.5 48.5,-56.5"/>
<text text-anchor="middle" x="110" y="-63.5" font-family="FreeSans" font-size="10.00">src/convectionSystem.h</text>
</a>
</g>
<!-- Node1&#45;&gt;Node2 -->
<g id="edge2" class="edge"><title>Node1&#45;&gt;Node2</title>
<path fill="none" stroke="midnightblue" d="M236.516,-109.172C206.012,-99.0039 162.755,-84.5852 135.549,-75.5164"/>
<polygon fill="midnightblue" stroke="midnightblue" points="235.737,-112.602 246.331,-112.444 237.951,-105.961 235.737,-112.602"/>
</g>
<!-- Node4 -->
<g id="node7" class="node"><title>Node4</title>
<a xlink:href="flameSolver_8h.html" target="_top" xlink:title="src/flameSolver.h">
<polygon fill="white" stroke="red" points="152.5,-0.5 152.5,-19.5 247.5,-19.5 247.5,-0.5 152.5,-0.5"/>
<text text-anchor="middle" x="200" y="-7.5" font-family="FreeSans" font-size="10.00">src/flameSolver.h</text>
</a>
</g>
<!-- Node1&#45;&gt;Node4 -->
<g id="edge14" class="edge"><title>Node1&#45;&gt;Node4</title>
<path fill="none" stroke="midnightblue" d="M249.361,-106.434C238.771,-98.5758 226.803,-88.0241 219,-76 207.352,-58.0505 202.663,-32.7698 200.925,-19.6543"/>
<polygon fill="midnightblue" stroke="midnightblue" points="247.617,-109.486 257.811,-112.374 251.643,-103.76 247.617,-109.486"/>
</g>
<!-- Node5 -->
<g id="node9" class="node"><title>Node5</title>
<a xlink:href="splitSolver_8h.html" target="_top" xlink:title="src/splitSolver.h">
<polygon fill="white" stroke="black" points="228.5,-56.5 228.5,-75.5 315.5,-75.5 315.5,-56.5 228.5,-56.5"/>
<text text-anchor="middle" x="272" y="-63.5" font-family="FreeSans" font-size="10.00">src/splitSolver.h</text>
</a>
</g>
<!-- Node1&#45;&gt;Node5 -->
<g id="edge8" class="edge"><title>Node1&#45;&gt;Node5</title>
<path fill="none" stroke="midnightblue" d="M272,-101.805C272,-92.9102 272,-82.7798 272,-75.7511"/>
<polygon fill="midnightblue" stroke="midnightblue" points="268.5,-102.083 272,-112.083 275.5,-102.083 268.5,-102.083"/>
</g>
<!-- Node7 -->
<g id="node15" class="node"><title>Node7</title>
<a xlink:href="perfTimer_8cpp.html" target="_top" xlink:title="src/perfTimer.cpp">
<polygon fill="white" stroke="black" points="333.5,-56.5 333.5,-75.5 428.5,-75.5 428.5,-56.5 333.5,-56.5"/>
<text text-anchor="middle" x="381" y="-63.5" font-family="FreeSans" font-size="10.00">src/perfTimer.cpp</text>
</a>
</g>
<!-- Node1&#45;&gt;Node7 -->
<g id="edge16" class="edge"><title>Node1&#45;&gt;Node7</title>
<path fill="none" stroke="midnightblue" d="M298.519,-107.862C318.73,-97.8492 345.987,-84.3458 363.531,-75.6545"/>
<polygon fill="midnightblue" stroke="midnightblue" points="296.92,-104.748 289.513,-112.324 300.027,-111.021 296.92,-104.748"/>
</g>
<!-- Node8 -->
<g id="node17" class="node"><title>Node8</title>
<a xlink:href="sourceSystem_8cpp.html" target="_top" xlink:title="src/sourceSystem.cpp">
<polygon fill="white" stroke="black" points="447,-56.5 447,-75.5 563,-75.5 563,-56.5 447,-56.5"/>
<text text-anchor="middle" x="505" y="-63.5" font-family="FreeSans" font-size="10.00">src/sourceSystem.cpp</text>
</a>
</g>
<!-- Node1&#45;&gt;Node8 -->
<g id="edge18" class="edge"><title>Node1&#45;&gt;Node8</title>
<path fill="none" stroke="midnightblue" d="M318.803,-110.153C362.827,-99.95 427.847,-84.8809 468.253,-75.5164"/>
<polygon fill="midnightblue" stroke="midnightblue" points="317.871,-106.776 308.92,-112.444 319.452,-113.595 317.871,-106.776"/>
</g>
<!-- Node3 -->
<g id="node5" class="node"><title>Node3</title>
<a xlink:href="convectionSystem_8cpp.html" target="_top" xlink:title="src/convectionSystem.cpp">
<polygon fill="white" stroke="black" points="0,-0.5 0,-19.5 134,-19.5 134,-0.5 0,-0.5"/>
<text text-anchor="middle" x="67" y="-7.5" font-family="FreeSans" font-size="10.00">src/convectionSystem.cpp</text>
</a>
</g>
<!-- Node2&#45;&gt;Node3 -->
<g id="edge4" class="edge"><title>Node2&#45;&gt;Node3</title>
<path fill="none" stroke="midnightblue" d="M96.5776,-48.144C89.0858,-38.7357 80.0629,-27.4046 73.9685,-19.7511"/>
<polygon fill="midnightblue" stroke="midnightblue" points="93.9321,-50.4404 102.899,-56.083 99.4081,-46.0799 93.9321,-50.4404"/>
</g>
<!-- Node2&#45;&gt;Node4 -->
<g id="edge6" class="edge"><title>Node2&#45;&gt;Node4</title>
<path fill="none" stroke="midnightblue" d="M133.038,-51.1774C149.599,-41.2407 171.418,-28.1492 185.576,-19.6545"/>
<polygon fill="midnightblue" stroke="midnightblue" points="131.234,-48.1777 124.46,-56.324 134.836,-54.1802 131.234,-48.1777"/>
</g>
<!-- Node5&#45;&gt;Node4 -->
<g id="edge10" class="edge"><title>Node5&#45;&gt;Node4</title>
<path fill="none" stroke="midnightblue" d="M252.134,-50.1008C239.177,-40.3824 222.703,-28.0269 211.779,-19.8339"/>
<polygon fill="midnightblue" stroke="midnightblue" points="250.332,-53.1239 260.432,-56.324 254.532,-47.5239 250.332,-53.1239"/>
</g>
<!-- Node6 -->
<g id="node12" class="node"><title>Node6</title>
<a xlink:href="splitSolver_8cpp.html" target="_top" xlink:title="src/splitSolver.cpp">
<polygon fill="white" stroke="black" points="266,-0.5 266,-19.5 364,-19.5 364,-0.5 266,-0.5"/>
<text text-anchor="middle" x="315" y="-7.5" font-family="FreeSans" font-size="10.00">src/splitSolver.cpp</text>
</a>
</g>
<!-- Node5&#45;&gt;Node6 -->
<g id="edge12" class="edge"><title>Node5&#45;&gt;Node6</title>
<path fill="none" stroke="midnightblue" d="M285.422,-48.144C292.914,-38.7357 301.937,-27.4046 308.032,-19.7511"/>
<polygon fill="midnightblue" stroke="midnightblue" points="282.592,-46.0799 279.101,-56.083 288.068,-50.4404 282.592,-46.0799"/>
</g>
</g>
</svg>
