<?xml version="1.0" encoding="UTF-8" standalone="no"?>
<!DOCTYPE svg PUBLIC "-//W3C//DTD SVG 1.1//EN"
 "http://www.w3.org/Graphics/SVG/1.1/DTD/svg11.dtd">
<!-- Generated by graphviz version 2.26.3 (20100126.1600)
 -->
<!-- Title: src/qssintegrator.h Pages: 1 -->
<svg width="289pt" height="204pt"
 viewBox="0.00 0.00 289.00 204.00" xmlns="http://www.w3.org/2000/svg" xmlns:xlink="http://www.w3.org/1999/xlink">
<g id="graph1" class="graph" transform="scale(1 1) rotate(0) translate(4 200)">
<title>src/qssintegrator.h</title>
<polygon fill="white" stroke="white" points="-4,5 -4,-200 286,-200 286,5 -4,5"/>
<!-- Node1 -->
<g id="node1" class="node"><title>Node1</title>
<polygon fill="#bfbfbf" stroke="black" points="121.5,-175 121.5,-195 216.5,-195 216.5,-175 121.5,-175"/>
<text text-anchor="middle" x="169" y="-182" font-family="FreeSans" font-size="10.00">src/qssintegrator.h</text>
</g>
<!-- Node2 -->
<g id="node3" class="node"><title>Node2</title>
<a xlink:href="sourceSystem_8h.html" target="_top" xlink:title="src/sourceSystem.h">
<polygon fill="white" stroke="black" points="58.5,-117 58.5,-137 159.5,-137 159.5,-117 58.5,-117"/>
<text text-anchor="middle" x="109" y="-124" font-family="FreeSans" font-size="10.00">src/sourceSystem.h</text>
</a>
</g>
<!-- Node1&#45;&gt;Node2 -->
<g id="edge2" class="edge"><title>Node1&#45;&gt;Node2</title>
<path fill="none" stroke="midnightblue" d="M151.269,-167.86C141.03,-157.962 128.487,-145.838 119.735,-137.378"/>
<polygon fill="midnightblue" stroke="midnightblue" points="148.926,-170.463 158.549,-174.897 153.791,-165.43 148.926,-170.463"/>
</g>
<!-- Node6 -->
<g id="node11" class="node"><title>Node6</title>
<a xlink:href="qssintegrator_8cpp.html" target="_top" xlink:title="src/qssintegrator.cpp">
<polygon fill="white" stroke="black" points="176.5,-117 176.5,-137 281.5,-137 281.5,-117 176.5,-117"/>
<text text-anchor="middle" x="229" y="-124" font-family="FreeSans" font-size="10.00">src/qssintegrator.cpp</text>
</a>
</g>
<!-- Node1&#45;&gt;Node6 -->
<g id="edge10" class="edge"><title>Node1&#45;&gt;Node6</title>
<path fill="none" stroke="midnightblue" d="M186.731,-167.86C196.97,-157.962 209.513,-145.838 218.265,-137.378"/>
<polygon fill="midnightblue" stroke="midnightblue" points="184.209,-165.43 179.451,-174.897 189.074,-170.463 184.209,-165.43"/>
</g>
<!-- Node3 -->
<g id="node5" class="node"><title>Node3</title>
<a xlink:href="flameSolver_8h.html" target="_top" xlink:title="src/flameSolver.h">
<polygon fill="white" stroke="black" points="5,-59 5,-79 95,-79 95,-59 5,-59"/>
<text text-anchor="middle" x="50" y="-66" font-family="FreeSans" font-size="10.00">src/flameSolver.h</text>
</a>
</g>
<!-- Node2&#45;&gt;Node3 -->
<g id="edge4" class="edge"><title>Node2&#45;&gt;Node3</title>
<path fill="none" stroke="midnightblue" d="M91.5644,-109.86C81.4961,-99.9622 69.1625,-87.8377 60.5565,-79.3776"/>
<polygon fill="midnightblue" stroke="midnightblue" points="89.1381,-112.383 98.723,-116.897 94.0454,-107.391 89.1381,-112.383"/>
</g>
<!-- Node5 -->
<g id="node9" class="node"><title>Node5</title>
<a xlink:href="sourceSystem_8cpp.html" target="_top" xlink:title="src/sourceSystem.cpp">
<polygon fill="white" stroke="black" points="112.5,-59 112.5,-79 223.5,-79 223.5,-59 112.5,-59"/>
<text text-anchor="middle" x="168" y="-66" font-family="FreeSans" font-size="10.00">src/sourceSystem.cpp</text>
</a>
</g>
<!-- Node2&#45;&gt;Node5 -->
<g id="edge8" class="edge"><title>Node2&#45;&gt;Node5</title>
<path fill="none" stroke="midnightblue" d="M126.436,-109.86C136.504,-99.9622 148.838,-87.8377 157.443,-79.3776"/>
<polygon fill="midnightblue" stroke="midnightblue" points="123.955,-107.391 119.277,-116.897 128.862,-112.383 123.955,-107.391"/>
</g>
<!-- Node4 -->
<g id="node7" class="node"><title>Node4</title>
<a xlink:href="flameSolver_8cpp.html" target="_top" xlink:title="src/flameSolver.cpp">
<polygon fill="white" stroke="black" points="-0.5,-1 -0.5,-21 100.5,-21 100.5,-1 -0.5,-1"/>
<text text-anchor="middle" x="50" y="-8" font-family="FreeSans" font-size="10.00">src/flameSolver.cpp</text>
</a>
</g>
<!-- Node3&#45;&gt;Node4 -->
<g id="edge6" class="edge"><title>Node3&#45;&gt;Node4</title>
<path fill="none" stroke="midnightblue" d="M50,-48.8902C50,-39.6201 50,-29.0083 50,-21.3776"/>
<polygon fill="midnightblue" stroke="midnightblue" points="46.5001,-48.8971 50,-58.8972 53.5001,-48.8972 46.5001,-48.8971"/>
</g>
</g>
</svg>
