<?xml version="1.0" encoding="UTF-8" standalone="no"?>
<!DOCTYPE svg PUBLIC "-//W3C//DTD SVG 1.1//EN"
 "http://www.w3.org/Graphics/SVG/1.1/DTD/svg11.dtd">
<!-- Generated by graphviz version 2.28.0 (20120425.2022)
 -->
<!-- Title: src/qssintegrator.cpp Pages: 1 -->
<svg width="151pt" height="252pt"
 viewBox="0.00 0.00 151.12 252.00" xmlns="http://www.w3.org/2000/svg" xmlns:xlink="http://www.w3.org/1999/xlink">
<g id="graph1" class="graph" transform="scale(1 1) rotate(0) translate(4 248)">
<title>src/qssintegrator.cpp</title>
<polygon fill="white" stroke="white" points="-4,5 -4,-248 148.117,-248 148.117,5 -4,5"/>
<!-- Node1 -->
<g id="node1" class="node"><title>Node1</title>
<polygon fill="#bfbfbf" stroke="black" points="5.11662,-224.5 5.11662,-243.5 115.117,-243.5 115.117,-224.5 5.11662,-224.5"/>
<text text-anchor="middle" x="60.1166" y="-231.5" font-family="FreeSans" font-size="10.00">src/qssintegrator.cpp</text>
</g>
<!-- Node2 -->
<g id="node3" class="node"><title>Node2</title>
<a xlink:href="qssintegrator_8h.html" target="_top" xlink:title="qssintegrator.h">
<polygon fill="white" stroke="black" points="18.6166,-168.5 18.6166,-187.5 101.617,-187.5 101.617,-168.5 18.6166,-168.5"/>
<text text-anchor="middle" x="60.1166" y="-175.5" font-family="FreeSans" font-size="10.00">qssintegrator.h</text>
</a>
</g>
<!-- Node1&#45;&gt;Node2 -->
<g id="edge2" class="edge"><title>Node1&#45;&gt;Node2</title>
<path fill="none" stroke="midnightblue" d="M60.1166,-224.083C60.1166,-217.006 60.1166,-206.861 60.1166,-197.986"/>
<polygon fill="midnightblue" stroke="midnightblue" points="63.6167,-197.751 60.1166,-187.751 56.6167,-197.751 63.6167,-197.751"/>
</g>
<!-- Node4 -->
<g id="node7" class="node"><title>Node4</title>
<polygon fill="white" stroke="#bfbfbf" points="16.1166,-0.5 16.1166,-19.5 72.1166,-19.5 72.1166,-0.5 16.1166,-0.5"/>
<text text-anchor="middle" x="44.1166" y="-7.5" font-family="FreeSans" font-size="10.00">iostream</text>
</g>
<!-- Node1&#45;&gt;Node4 -->
<g id="edge14" class="edge"><title>Node1&#45;&gt;Node4</title>
<path fill="none" stroke="midnightblue" d="M44.3826,-224.236C32.2274,-216.481 16.305,-203.929 9.11662,-188 -15.6376,-133.145 16.4768,-60.934 34.0438,-28.3139"/>
<polygon fill="midnightblue" stroke="midnightblue" points="37.1319,-29.9624 38.9495,-19.5246 31.0196,-26.5508 37.1319,-29.9624"/>
</g>
<!-- Node5 -->
<g id="node9" class="node"><title>Node5</title>
<a xlink:href="debugUtils_8h.html" target="_top" xlink:title="debugUtils.h">
<polygon fill="white" stroke="red" points="72.6166,-56.5 72.6166,-75.5 143.617,-75.5 143.617,-56.5 72.6166,-56.5"/>
<text text-anchor="middle" x="108.117" y="-63.5" font-family="FreeSans" font-size="10.00">debugUtils.h</text>
</a>
</g>
<!-- Node1&#45;&gt;Node5 -->
<g id="edge12" class="edge"><title>Node1&#45;&gt;Node5</title>
<path fill="none" stroke="midnightblue" d="M75.0691,-224.474C87.0485,-216.702 102.99,-204.002 110.117,-188 125.09,-154.38 118.635,-110.116 113.067,-85.5154"/>
<polygon fill="midnightblue" stroke="midnightblue" points="116.441,-84.5782 110.651,-75.7052 109.644,-86.2521 116.441,-84.5782"/>
</g>
<!-- Node3 -->
<g id="node5" class="node"><title>Node3</title>
<a xlink:href="mathUtils_8h.html" target="_top" xlink:title="mathUtils.h">
<polygon fill="white" stroke="red" points="27.6166,-112.5 27.6166,-131.5 92.6166,-131.5 92.6166,-112.5 27.6166,-112.5"/>
<text text-anchor="middle" x="60.1166" y="-119.5" font-family="FreeSans" font-size="10.00">mathUtils.h</text>
</a>
</g>
<!-- Node2&#45;&gt;Node3 -->
<g id="edge4" class="edge"><title>Node2&#45;&gt;Node3</title>
<path fill="none" stroke="midnightblue" d="M60.1166,-168.083C60.1166,-161.006 60.1166,-150.861 60.1166,-141.986"/>
<polygon fill="midnightblue" stroke="midnightblue" points="63.6167,-141.751 60.1166,-131.751 56.6167,-141.751 63.6167,-141.751"/>
</g>
<!-- Node3&#45;&gt;Node4 -->
<g id="edge6" class="edge"><title>Node3&#45;&gt;Node4</title>
<path fill="none" stroke="midnightblue" d="M58.8611,-112.368C56.2791,-94.617 50.3226,-53.6664 46.8217,-29.5974"/>
<polygon fill="midnightblue" stroke="midnightblue" points="50.2693,-28.9835 45.3663,-19.5914 43.3422,-29.9911 50.2693,-28.9835"/>
</g>
<!-- Node3&#45;&gt;Node5 -->
<g id="edge8" class="edge"><title>Node3&#45;&gt;Node5</title>
<path fill="none" stroke="midnightblue" d="M68.0428,-112.083C74.9627,-104.298 85.182,-92.8015 93.5686,-83.3665"/>
<polygon fill="midnightblue" stroke="midnightblue" points="96.3102,-85.5505 100.338,-75.7511 91.0783,-80.8999 96.3102,-85.5505"/>
</g>
<!-- Node5&#45;&gt;Node4 -->
<g id="edge10" class="edge"><title>Node5&#45;&gt;Node4</title>
<path fill="none" stroke="midnightblue" d="M97.8339,-56.324C88.2803,-48.2631 73.8369,-36.0765 62.3323,-26.3695"/>
<polygon fill="midnightblue" stroke="midnightblue" points="64.4864,-23.6076 54.5864,-19.8339 59.9723,-28.9577 64.4864,-23.6076"/>
</g>
</g>
</svg>
