<?xml version="1.0" encoding="UTF-8" standalone="no"?>
<!DOCTYPE svg PUBLIC "-//W3C//DTD SVG 1.1//EN"
 "http://www.w3.org/Graphics/SVG/1.1/DTD/svg11.dtd">
<!-- Generated by graphviz version 8.1.0 (20230707.2238)
 -->
<!-- Title: src/qssintegrator.cpp Pages: 1 -->
<svg width="728pt" height="256pt"
 viewBox="0.00 0.00 728.07 255.75" xmlns="http://www.w3.org/2000/svg" xmlns:xlink="http://www.w3.org/1999/xlink">
<g id="graph0" class="graph" transform="scale(1 1) rotate(0) translate(4 251.75)">
<title>src/qssintegrator.cpp</title>
<!-- Node1 -->
<g id="Node000001" class="node">
<title>Node1</title>
<g id="a_Node000001"><a xlink:title=" ">
<polygon fill="#999999" stroke="#666666" points="509.94,-247.75 392.69,-247.75 392.69,-227 509.94,-227 509.94,-247.75"/>
<text text-anchor="middle" x="451.32" y="-234.25" font-family="FreeSans" font-size="10.00">src/qssintegrator.cpp</text>
</a>
</g>
</g>
<!-- Node2 -->
<g id="Node000002" class="node">
<title>Node2</title>
<g id="a_Node000002"><a xlink:href="qssintegrator_8h.html" target="_top" xlink:title=" ">
<polygon fill="white" stroke="#666666" points="495.69,-191 406.94,-191 406.94,-170.25 495.69,-170.25 495.69,-191"/>
<text text-anchor="middle" x="451.32" y="-177.5" font-family="FreeSans" font-size="10.00">qssintegrator.h</text>
</a>
</g>
</g>
<!-- Node1&#45;&gt;Node2 -->
<g id="edge1_Node000001_Node000002" class="edge">
<title>Node1&#45;&gt;Node2</title>
<g id="a_edge1_Node000001_Node000002"><a xlink:title=" ">
<path fill="none" stroke="#63b8ff" d="M451.32,-226.59C451.32,-219.81 451.32,-210.55 451.32,-202.19"/>
<polygon fill="#63b8ff" stroke="#63b8ff" points="454.82,-202.33 451.32,-192.33 447.82,-202.33 454.82,-202.33"/>
</a>
</g>
</g>
<!-- Node6 -->
<g id="Node000006" class="node">
<title>Node6</title>
<g id="a_Node000006"><a xlink:title=" ">
<polygon fill="#e0e0e0" stroke="#999999" points="532.07,-20.75 472.57,-20.75 472.57,0 532.07,0 532.07,-20.75"/>
<text text-anchor="middle" x="502.32" y="-7.25" font-family="FreeSans" font-size="10.00">iostream</text>
</a>
</g>
</g>
<!-- Node1&#45;&gt;Node6 -->
<g id="edge15_Node000001_Node000006" class="edge">
<title>Node1&#45;&gt;Node6</title>
<g id="a_edge15_Node000001_Node000006"><a xlink:title=" ">
<path fill="none" stroke="#63b8ff" d="M392.21,-232.28C250.53,-220.41 -88.67,-178.73 22.32,-56.75 51.66,-24.5 351.17,-14.69 461.66,-12.15"/>
<polygon fill="#63b8ff" stroke="#63b8ff" points="461.44,-15.64 471.36,-11.92 461.28,-8.64 461.44,-15.64"/>
</a>
</g>
</g>
<!-- Node10 -->
<g id="Node000010" class="node">
<title>Node10</title>
<g id="a_Node000010"><a xlink:href="debugUtils_8h.html" target="_top" xlink:title=" ">
<polygon fill="#fff0f0" stroke="red" points="720.07,-77.5 642.57,-77.5 642.57,-56.75 720.07,-56.75 720.07,-77.5"/>
<text text-anchor="middle" x="681.32" y="-64" font-family="FreeSans" font-size="10.00">debugUtils.h</text>
</a>
</g>
</g>
<!-- Node1&#45;&gt;Node10 -->
<g id="edge14_Node000001_Node000010" class="edge">
<title>Node1&#45;&gt;Node10</title>
<g id="a_edge14_Node000001_Node000010"><a xlink:title=" ">
<path fill="none" stroke="#63b8ff" d="M464.68,-226.6C502.71,-198.78 611.85,-118.95 659.08,-84.39"/>
<polygon fill="#63b8ff" stroke="#63b8ff" points="660.92,-86.65 666.92,-77.93 656.79,-81 660.92,-86.65"/>
</a>
</g>
</g>
<!-- Node3 -->
<g id="Node000003" class="node">
<title>Node3</title>
<g id="a_Node000003"><a xlink:href="mathUtils_8h.html" target="_top" xlink:title=" ">
<polygon fill="white" stroke="#666666" points="487.82,-134.25 414.82,-134.25 414.82,-113.5 487.82,-113.5 487.82,-134.25"/>
<text text-anchor="middle" x="451.32" y="-120.75" font-family="FreeSans" font-size="10.00">mathUtils.h</text>
</a>
</g>
</g>
<!-- Node2&#45;&gt;Node3 -->
<g id="edge2_Node000002_Node000003" class="edge">
<title>Node2&#45;&gt;Node3</title>
<g id="a_edge2_Node000002_Node000003"><a xlink:title=" ">
<path fill="none" stroke="#63b8ff" d="M451.32,-169.84C451.32,-163.06 451.32,-153.8 451.32,-145.44"/>
<polygon fill="#63b8ff" stroke="#63b8ff" points="454.82,-145.58 451.32,-135.58 447.82,-145.58 454.82,-145.58"/>
</a>
</g>
</g>
<!-- Node4 -->
<g id="Node000004" class="node">
<title>Node4</title>
<g id="a_Node000004"><a xlink:title=" ">
<polygon fill="#e0e0e0" stroke="#999999" points="409.69,-77.5 362.94,-77.5 362.94,-56.75 409.69,-56.75 409.69,-77.5"/>
<text text-anchor="middle" x="386.32" y="-64" font-family="FreeSans" font-size="10.00">vector</text>
</a>
</g>
</g>
<!-- Node3&#45;&gt;Node4 -->
<g id="edge3_Node000003_Node000004" class="edge">
<title>Node3&#45;&gt;Node4</title>
<g id="a_edge3_Node000003_Node000004"><a xlink:title=" ">
<path fill="none" stroke="#63b8ff" d="M439.7,-113.09C430.36,-105.22 417.04,-94 406.04,-84.74"/>
<polygon fill="#63b8ff" stroke="#63b8ff" points="408.74,-81.59 398.84,-77.83 404.23,-86.95 408.74,-81.59"/>
</a>
</g>
</g>
<!-- Node5 -->
<g id="Node000005" class="node">
<title>Node5</title>
<g id="a_Node000005"><a xlink:title=" ">
<polygon fill="#e0e0e0" stroke="#999999" points="474.69,-77.5 427.94,-77.5 427.94,-56.75 474.69,-56.75 474.69,-77.5"/>
<text text-anchor="middle" x="451.32" y="-64" font-family="FreeSans" font-size="10.00">cmath</text>
</a>
</g>
</g>
<!-- Node3&#45;&gt;Node5 -->
<g id="edge4_Node000003_Node000005" class="edge">
<title>Node3&#45;&gt;Node5</title>
<g id="a_edge4_Node000003_Node000005"><a xlink:title=" ">
<path fill="none" stroke="#63b8ff" d="M451.32,-113.09C451.32,-106.31 451.32,-97.05 451.32,-88.69"/>
<polygon fill="#63b8ff" stroke="#63b8ff" points="454.82,-88.83 451.32,-78.83 447.82,-88.83 454.82,-88.83"/>
</a>
</g>
</g>
<!-- Node3&#45;&gt;Node6 -->
<g id="edge5_Node000003_Node000006" class="edge">
<title>Node3&#45;&gt;Node6</title>
<g id="a_edge5_Node000003_Node000006"><a xlink:title=" ">
<path fill="none" stroke="#63b8ff" d="M459.74,-113.04C466.89,-104.23 476.99,-90.71 483.32,-77.5 490.35,-62.84 495.27,-45.07 498.35,-31.65"/>
<polygon fill="#63b8ff" stroke="#63b8ff" points="501.92,-32.67 500.58,-22.16 495.07,-31.21 501.92,-32.67"/>
</a>
</g>
</g>
<!-- Node7 -->
<g id="Node000007" class="node">
<title>Node7</title>
<g id="a_Node000007"><a xlink:title=" ">
<polygon fill="#e0e0e0" stroke="#999999" points="586.19,-77.5 530.44,-77.5 530.44,-56.75 586.19,-56.75 586.19,-77.5"/>
<text text-anchor="middle" x="558.32" y="-64" font-family="FreeSans" font-size="10.00">sstream</text>
</a>
</g>
</g>
<!-- Node3&#45;&gt;Node7 -->
<g id="edge6_Node000003_Node000007" class="edge">
<title>Node3&#45;&gt;Node7</title>
<g id="a_edge6_Node000003_Node000007"><a xlink:title=" ">
<path fill="none" stroke="#63b8ff" d="M470.45,-113.09C486.96,-104.64 511.04,-92.32 529.82,-82.71"/>
<polygon fill="#63b8ff" stroke="#63b8ff" points="531.05,-85.5 538.36,-77.83 527.86,-79.27 531.05,-85.5"/>
</a>
</g>
</g>
<!-- Node8 -->
<g id="Node000008" class="node">
<title>Node8</title>
<g id="a_Node000008"><a xlink:title=" ">
<polygon fill="#e0e0e0" stroke="#999999" points="669.19,-20.75 625.44,-20.75 625.44,0 669.19,0 669.19,-20.75"/>
<text text-anchor="middle" x="647.32" y="-7.25" font-family="FreeSans" font-size="10.00">string</text>
</a>
</g>
</g>
<!-- Node3&#45;&gt;Node8 -->
<g id="edge7_Node000003_Node000008" class="edge">
<title>Node3&#45;&gt;Node8</title>
<g id="a_edge7_Node000003_Node000008"><a xlink:title=" ">
<path fill="none" stroke="#63b8ff" d="M488.3,-117.48C519.1,-111.59 562.98,-99.86 595.32,-77.5 613.08,-65.22 627.68,-45.06 636.83,-30.23"/>
<polygon fill="#63b8ff" stroke="#63b8ff" points="640.23,-32.36 642.28,-21.97 634.19,-28.81 640.23,-32.36"/>
</a>
</g>
</g>
<!-- Node9 -->
<g id="Node000009" class="node">
<title>Node9</title>
<g id="a_Node000009"><a xlink:title=" ">
<polygon fill="#e0e0e0" stroke="#999999" points="69.19,-77.5 31.44,-77.5 31.44,-56.75 69.19,-56.75 69.19,-77.5"/>
<text text-anchor="middle" x="50.32" y="-64" font-family="FreeSans" font-size="10.00">map</text>
</a>
</g>
</g>
<!-- Node3&#45;&gt;Node9 -->
<g id="edge8_Node000003_Node000009" class="edge">
<title>Node3&#45;&gt;Node9</title>
<g id="a_edge8_Node000003_Node000009"><a xlink:title=" ">
<path fill="none" stroke="#63b8ff" d="M414.37,-120.86C348.74,-116.75 207.54,-105.51 80.16,-77.5"/>
<polygon fill="#63b8ff" stroke="#63b8ff" points="80.98,-73.87 70.45,-75.1 79.45,-80.7 80.98,-73.87"/>
</a>
</g>
</g>
<!-- Node3&#45;&gt;Node10 -->
<g id="edge9_Node000003_Node000010" class="edge">
<title>Node3&#45;&gt;Node10</title>
<g id="a_edge9_Node000003_Node000010"><a xlink:title=" ">
<path fill="none" stroke="#63b8ff" d="M488.27,-114.08C527.14,-104.83 588.52,-90.22 631.61,-79.96"/>
<polygon fill="#63b8ff" stroke="#63b8ff" points="632.23,-83.17 641.15,-77.45 630.61,-76.36 632.23,-83.17"/>
</a>
</g>
</g>
<!-- Node14 -->
<g id="Node000014" class="node">
<title>Node14</title>
<g id="a_Node000014"><a xlink:title=" ">
<polygon fill="#e0e0e0" stroke="#999999" points="213.44,-77.5 87.19,-77.5 87.19,-56.75 213.44,-56.75 213.44,-77.5"/>
<text text-anchor="middle" x="150.32" y="-64" font-family="FreeSans" font-size="10.00">cantera/base/ct_defs.h</text>
</a>
</g>
</g>
<!-- Node3&#45;&gt;Node14 -->
<g id="edge12_Node000003_Node000014" class="edge">
<title>Node3&#45;&gt;Node14</title>
<g id="a_edge12_Node000003_Node000014"><a xlink:title=" ">
<path fill="none" stroke="#63b8ff" d="M414.41,-116.16C364.87,-107.15 276.08,-91 215.24,-79.93"/>
<polygon fill="#63b8ff" stroke="#63b8ff" points="216.06,-76.34 205.6,-78 214.81,-83.23 216.06,-76.34"/>
</a>
</g>
</g>
<!-- Node15 -->
<g id="Node000015" class="node">
<title>Node15</title>
<g id="a_Node000015"><a xlink:title=" ">
<polygon fill="#e0e0e0" stroke="#999999" points="344.69,-77.5 231.94,-77.5 231.94,-56.75 344.69,-56.75 344.69,-77.5"/>
<text text-anchor="middle" x="288.32" y="-64" font-family="FreeSans" font-size="10.00">eigen3/Eigen/Dense</text>
</a>
</g>
</g>
<!-- Node3&#45;&gt;Node15 -->
<g id="edge13_Node000003_Node000015" class="edge">
<title>Node3&#45;&gt;Node15</title>
<g id="a_edge13_Node000003_Node000015"><a xlink:title=" ">
<path fill="none" stroke="#63b8ff" d="M422.18,-113.09C395.84,-104.24 356.84,-91.14 327.72,-81.36"/>
<polygon fill="#63b8ff" stroke="#63b8ff" points="329.08,-77.79 318.48,-77.92 326.85,-84.42 329.08,-77.79"/>
</a>
</g>
</g>
<!-- Node10&#45;&gt;Node6 -->
<g id="edge11_Node000010_Node000006" class="edge">
<title>Node10&#45;&gt;Node6</title>
<g id="a_edge11_Node000010_Node000006"><a xlink:title=" ">
<path fill="none" stroke="#63b8ff" d="M649.32,-56.34C619.59,-47.25 575.2,-33.67 542.98,-23.81"/>
<polygon fill="#63b8ff" stroke="#63b8ff" points="544.14,-20.2 533.55,-20.62 542.09,-26.89 544.14,-20.2"/>
</a>
</g>
</g>
<!-- Node10&#45;&gt;Node8 -->
<g id="edge10_Node000010_Node000008" class="edge">
<title>Node10&#45;&gt;Node8</title>
<g id="a_edge10_Node000010_Node000008"><a xlink:title=" ">
<path fill="none" stroke="#63b8ff" d="M675.24,-56.34C670.74,-49.1 664.48,-39.01 659.02,-30.22"/>
<polygon fill="#63b8ff" stroke="#63b8ff" points="661.59,-28.73 653.35,-22.08 655.65,-32.42 661.59,-28.73"/>
</a>
</g>
</g>
</g>
</svg>
