<?xml version="1.0" encoding="UTF-8" standalone="no"?>
<!DOCTYPE svg PUBLIC "-//W3C//DTD SVG 1.1//EN"
 "http://www.w3.org/Graphics/SVG/1.1/DTD/svg11.dtd">
<!-- Generated by graphviz version 2.26.3 (20100126.1600)
 -->
<!-- Title: src/qssintegrator.cpp Pages: 1 -->
<svg width="506pt" height="262pt"
 viewBox="0.00 0.00 506.42 262.00" xmlns="http://www.w3.org/2000/svg" xmlns:xlink="http://www.w3.org/1999/xlink">
<g id="graph1" class="graph" transform="scale(1 1) rotate(0) translate(4 258)">
<title>src/qssintegrator.cpp</title>
<polygon fill="white" stroke="white" points="-4,5 -4,-258 503.419,-258 503.419,5 -4,5"/>
<!-- Node1 -->
<g id="node1" class="node"><title>Node1</title>
<polygon fill="#bfbfbf" stroke="black" points="218.919,-233 218.919,-253 323.919,-253 323.919,-233 218.919,-233"/>
<text text-anchor="middle" x="271.419" y="-240" font-family="FreeSans" font-size="10.00">src/qssintegrator.cpp</text>
</g>
<!-- Node2 -->
<g id="node3" class="node"><title>Node2</title>
<a xlink:href="qssintegrator_8h.html" target="_top" xlink:title="qssintegrator.h">
<polygon fill="white" stroke="black" points="231.919,-175 231.919,-195 310.919,-195 310.919,-175 231.919,-175"/>
<text text-anchor="middle" x="271.419" y="-182" font-family="FreeSans" font-size="10.00">qssintegrator.h</text>
</a>
</g>
<!-- Node1&#45;&gt;Node2 -->
<g id="edge2" class="edge"><title>Node1&#45;&gt;Node2</title>
<path fill="none" stroke="midnightblue" d="M271.419,-232.897C271.419,-225.339 271.419,-214.748 271.419,-205.446"/>
<polygon fill="midnightblue" stroke="midnightblue" points="274.919,-205.378 271.419,-195.378 267.919,-205.378 274.919,-205.378"/>
</g>
<!-- Node6 -->
<g id="node11" class="node"><title>Node6</title>
<polygon fill="white" stroke="#bfbfbf" points="269.919,-1 269.919,-21 322.919,-21 322.919,-1 269.919,-1"/>
<text text-anchor="middle" x="296.419" y="-8" font-family="FreeSans" font-size="10.00">iostream</text>
</g>
<!-- Node1&#45;&gt;Node6 -->
<g id="edge28" class="edge"><title>Node1&#45;&gt;Node6</title>
<path fill="none" stroke="midnightblue" d="M232.172,-232.972C144.119,-208.685 -56.0645,-142.433 15.4194,-58 31.0694,-39.515 187.265,-21.8028 259.781,-14.5017"/>
<polygon fill="midnightblue" stroke="midnightblue" points="260.241,-17.9733 269.846,-13.5012 259.549,-11.0076 260.241,-17.9733"/>
</g>
<!-- Node10 -->
<g id="node19" class="node"><title>Node10</title>
<a xlink:href="debugUtils_8h.html" target="_top" xlink:title="debugUtils.h">
<polygon fill="white" stroke="red" points="429.919,-59 429.919,-79 498.919,-79 498.919,-59 429.919,-59"/>
<text text-anchor="middle" x="464.419" y="-66" font-family="FreeSans" font-size="10.00">debugUtils.h</text>
</a>
</g>
<!-- Node1&#45;&gt;Node10 -->
<g id="edge26" class="edge"><title>Node1&#45;&gt;Node10</title>
<path fill="none" stroke="midnightblue" d="M282.63,-232.893C314.476,-204.182 405.741,-121.901 445.513,-86.0456"/>
<polygon fill="midnightblue" stroke="midnightblue" points="448.094,-88.4306 453.178,-79.135 443.407,-83.2315 448.094,-88.4306"/>
</g>
<!-- Node3 -->
<g id="node5" class="node"><title>Node3</title>
<a xlink:href="mathUtils_8h.html" target="_top" xlink:title="mathUtils.h">
<polygon fill="white" stroke="black" points="238.919,-117 238.919,-137 303.919,-137 303.919,-117 238.919,-117"/>
<text text-anchor="middle" x="271.419" y="-124" font-family="FreeSans" font-size="10.00">mathUtils.h</text>
</a>
</g>
<!-- Node2&#45;&gt;Node3 -->
<g id="edge4" class="edge"><title>Node2&#45;&gt;Node3</title>
<path fill="none" stroke="midnightblue" d="M271.419,-174.897C271.419,-167.339 271.419,-156.748 271.419,-147.446"/>
<polygon fill="midnightblue" stroke="midnightblue" points="274.919,-147.378 271.419,-137.378 267.919,-147.378 274.919,-147.378"/>
</g>
<!-- Node4 -->
<g id="node7" class="node"><title>Node4</title>
<polygon fill="white" stroke="#bfbfbf" points="225.919,-59 225.919,-79 268.919,-79 268.919,-59 225.919,-59"/>
<text text-anchor="middle" x="247.419" y="-66" font-family="FreeSans" font-size="10.00">vector</text>
</g>
<!-- Node3&#45;&gt;Node4 -->
<g id="edge6" class="edge"><title>Node3&#45;&gt;Node4</title>
<path fill="none" stroke="midnightblue" d="M267.239,-116.897C264.043,-109.175 259.538,-98.2857 255.629,-88.841"/>
<polygon fill="midnightblue" stroke="midnightblue" points="258.771,-87.2795 251.714,-79.3776 252.303,-89.956 258.771,-87.2795"/>
</g>
<!-- Node5 -->
<g id="node9" class="node"><title>Node5</title>
<polygon fill="white" stroke="#bfbfbf" points="164.419,-59 164.419,-79 208.419,-79 208.419,-59 164.419,-59"/>
<text text-anchor="middle" x="186.419" y="-66" font-family="FreeSans" font-size="10.00">cmath</text>
</g>
<!-- Node3&#45;&gt;Node5 -->
<g id="edge8" class="edge"><title>Node3&#45;&gt;Node5</title>
<path fill="none" stroke="midnightblue" d="M256.614,-116.897C243.651,-108.052 224.602,-95.0539 209.617,-84.829"/>
<polygon fill="midnightblue" stroke="midnightblue" points="211.574,-81.927 201.341,-79.1817 207.628,-87.7092 211.574,-81.927"/>
</g>
<!-- Node3&#45;&gt;Node6 -->
<g id="edge10" class="edge"><title>Node3&#45;&gt;Node6</title>
<path fill="none" stroke="midnightblue" d="M273.638,-116.706C277.781,-97.4821 286.759,-55.8247 292.124,-30.9294"/>
<polygon fill="midnightblue" stroke="midnightblue" points="295.556,-31.6185 294.241,-21.1055 288.713,-30.1437 295.556,-31.6185"/>
</g>
<!-- Node7 -->
<g id="node13" class="node"><title>Node7</title>
<polygon fill="white" stroke="#bfbfbf" points="362.419,-59 362.419,-79 412.419,-79 412.419,-59 362.419,-59"/>
<text text-anchor="middle" x="387.419" y="-66" font-family="FreeSans" font-size="10.00">sstream</text>
</g>
<!-- Node3&#45;&gt;Node7 -->
<g id="edge12" class="edge"><title>Node3&#45;&gt;Node7</title>
<path fill="none" stroke="midnightblue" d="M291.625,-116.897C309.976,-107.722 337.267,-94.0762 358.031,-83.6943"/>
<polygon fill="midnightblue" stroke="midnightblue" points="359.677,-86.7844 367.056,-79.1817 356.547,-80.5234 359.677,-86.7844"/>
</g>
<!-- Node8 -->
<g id="node15" class="node"><title>Node8</title>
<polygon fill="white" stroke="#bfbfbf" points="392.419,-1 392.419,-21 432.419,-21 432.419,-1 392.419,-1"/>
<text text-anchor="middle" x="412.419" y="-8" font-family="FreeSans" font-size="10.00">string</text>
</g>
<!-- Node3&#45;&gt;Node8 -->
<g id="edge14" class="edge"><title>Node3&#45;&gt;Node8</title>
<path fill="none" stroke="midnightblue" d="M283.286,-116.843C299.159,-103.297 328.227,-78.6272 353.419,-58 365.854,-47.8187 379.925,-36.5982 391.206,-27.6745"/>
<polygon fill="midnightblue" stroke="midnightblue" points="393.534,-30.296 399.216,-21.3534 389.197,-24.801 393.534,-30.296"/>
</g>
<!-- Node9 -->
<g id="node17" class="node"><title>Node9</title>
<polygon fill="white" stroke="#bfbfbf" points="23.9194,-59 23.9194,-79 58.9194,-79 58.9194,-59 23.9194,-59"/>
<text text-anchor="middle" x="41.4194" y="-66" font-family="FreeSans" font-size="10.00">map</text>
</g>
<!-- Node3&#45;&gt;Node9 -->
<g id="edge16" class="edge"><title>Node3&#45;&gt;Node9</title>
<path fill="none" stroke="midnightblue" d="M238.795,-121.298C200.025,-114.129 133.342,-100.563 68.6879,-80.0642"/>
<polygon fill="midnightblue" stroke="midnightblue" points="69.7589,-76.7321 59.1671,-76.9894 67.6076,-83.3933 69.7589,-76.7321"/>
</g>
<!-- Node3&#45;&gt;Node10 -->
<g id="edge18" class="edge"><title>Node3&#45;&gt;Node10</title>
<path fill="none" stroke="midnightblue" d="M304.159,-117.161C336.403,-107.471 385.837,-92.6155 421.273,-81.9664"/>
<polygon fill="midnightblue" stroke="midnightblue" points="422.301,-85.3121 430.87,-79.0821 420.286,-78.6083 422.301,-85.3121"/>
</g>
<!-- Node11 -->
<g id="node23" class="node"><title>Node11</title>
<polygon fill="white" stroke="#bfbfbf" points="75.9194,-59 75.9194,-79 146.919,-79 146.919,-59 75.9194,-59"/>
<text text-anchor="middle" x="111.419" y="-66" font-family="FreeSans" font-size="10.00">Eigen/Dense</text>
</g>
<!-- Node3&#45;&gt;Node11 -->
<g id="edge24" class="edge"><title>Node3&#45;&gt;Node11</title>
<path fill="none" stroke="midnightblue" d="M243.55,-116.897C217.36,-107.403 177.968,-93.124 149.008,-82.6258"/>
<polygon fill="midnightblue" stroke="midnightblue" points="149.832,-79.2018 139.238,-79.0842 147.446,-85.7827 149.832,-79.2018"/>
</g>
<!-- Node10&#45;&gt;Node6 -->
<g id="edge22" class="edge"><title>Node10&#45;&gt;Node6</title>
<path fill="none" stroke="midnightblue" d="M435.156,-58.8972C406.653,-49.057 363.258,-34.0753 332.603,-23.4919"/>
<polygon fill="midnightblue" stroke="midnightblue" points="333.727,-20.1774 323.132,-20.2223 331.443,-26.7941 333.727,-20.1774"/>
</g>
<!-- Node10&#45;&gt;Node8 -->
<g id="edge20" class="edge"><title>Node10&#45;&gt;Node8</title>
<path fill="none" stroke="midnightblue" d="M455.362,-58.8972C447.996,-50.6818 437.418,-38.8827 428.603,-29.0513"/>
<polygon fill="midnightblue" stroke="midnightblue" points="431.005,-26.4869 421.723,-21.3776 425.793,-31.1597 431.005,-26.4869"/>
</g>
</g>
</svg>
