<?xml version="1.0" encoding="UTF-8" standalone="no"?>
<!DOCTYPE svg PUBLIC "-//W3C//DTD SVG 1.1//EN"
 "http://www.w3.org/Graphics/SVG/1.1/DTD/svg11.dtd">
<!-- Generated by graphviz version 2.28.0 (20120425.2022)
 -->
<!-- Title: G Pages: 1 -->
<svg width="498pt" height="196pt"
 viewBox="0.00 0.00 498.00 196.00" xmlns="http://www.w3.org/2000/svg" xmlns:xlink="http://www.w3.org/1999/xlink">
<g id="graph1" class="graph" transform="scale(1 1) rotate(0) translate(4 192)">
<title>G</title>
<polygon fill="white" stroke="white" points="-4,5 -4,-192 495,-192 495,5 -4,5"/>
<!-- Node1 -->
<g id="node1" class="node"><title>Node1</title>
<polygon fill="#bfbfbf" stroke="black" points="179.5,-168.5 179.5,-187.5 278.5,-187.5 278.5,-168.5 179.5,-168.5"/>
<text text-anchor="middle" x="229" y="-175.5" font-family="FreeSans" font-size="10.00">src/qssintegrator.h</text>
</g>
<!-- Node2 -->
<g id="node3" class="node"><title>Node2</title>
<a xlink:href="mathUtils_8h.html" target="_top" xlink:title="mathUtils.h">
<polygon fill="white" stroke="black" points="196.5,-112.5 196.5,-131.5 261.5,-131.5 261.5,-112.5 196.5,-112.5"/>
<text text-anchor="middle" x="229" y="-119.5" font-family="FreeSans" font-size="10.00">mathUtils.h</text>
</a>
</g>
<!-- Node1&#45;&gt;Node2 -->
<g id="edge2" class="edge"><title>Node1&#45;&gt;Node2</title>
<path fill="none" stroke="midnightblue" d="M229,-168.083C229,-161.006 229,-150.861 229,-141.986"/>
<polygon fill="midnightblue" stroke="midnightblue" points="232.5,-141.751 229,-131.751 225.5,-141.751 232.5,-141.751"/>
</g>
<!-- Node3 -->
<g id="node5" class="node"><title>Node3</title>
<polygon fill="white" stroke="#bfbfbf" points="0,-56.5 0,-75.5 44,-75.5 44,-56.5 0,-56.5"/>
<text text-anchor="middle" x="22" y="-63.5" font-family="FreeSans" font-size="10.00">vector</text>
</g>
<!-- Node2&#45;&gt;Node3 -->
<g id="edge4" class="edge"><title>Node2&#45;&gt;Node3</title>
<path fill="none" stroke="midnightblue" d="M196.479,-113.018C163.099,-104.753 109.418,-91.2578 54.2716,-76.2869"/>
<polygon fill="midnightblue" stroke="midnightblue" points="54.8953,-72.8293 44.3268,-73.5751 53.0537,-79.5827 54.8953,-72.8293"/>
</g>
<!-- Node4 -->
<g id="node7" class="node"><title>Node4</title>
<polygon fill="white" stroke="#bfbfbf" points="62,-56.5 62,-75.5 106,-75.5 106,-56.5 62,-56.5"/>
<text text-anchor="middle" x="84" y="-63.5" font-family="FreeSans" font-size="10.00">cmath</text>
</g>
<!-- Node2&#45;&gt;Node4 -->
<g id="edge6" class="edge"><title>Node2&#45;&gt;Node4</title>
<path fill="none" stroke="midnightblue" d="M206.024,-112.444C181.701,-103.385 143.131,-89.0213 115.875,-78.8705"/>
<polygon fill="midnightblue" stroke="midnightblue" points="116.984,-75.5491 106.392,-75.339 114.541,-82.109 116.984,-75.5491"/>
</g>
<!-- Node5 -->
<g id="node9" class="node"><title>Node5</title>
<polygon fill="white" stroke="#bfbfbf" points="140,-0.5 140,-19.5 196,-19.5 196,-0.5 140,-0.5"/>
<text text-anchor="middle" x="168" y="-7.5" font-family="FreeSans" font-size="10.00">iostream</text>
</g>
<!-- Node2&#45;&gt;Node5 -->
<g id="edge8" class="edge"><title>Node2&#45;&gt;Node5</title>
<path fill="none" stroke="midnightblue" d="M201.718,-112.453C184.706,-105.548 164.175,-93.9707 154,-76 145.671,-61.2886 151.453,-42.1363 157.928,-28.4391"/>
<polygon fill="midnightblue" stroke="midnightblue" points="161.033,-30.0534 162.572,-19.5709 154.832,-26.8056 161.033,-30.0534"/>
</g>
<!-- Node6 -->
<g id="node11" class="node"><title>Node6</title>
<polygon fill="white" stroke="#bfbfbf" points="162.5,-56.5 162.5,-75.5 215.5,-75.5 215.5,-56.5 162.5,-56.5"/>
<text text-anchor="middle" x="189" y="-63.5" font-family="FreeSans" font-size="10.00">sstream</text>
</g>
<!-- Node2&#45;&gt;Node6 -->
<g id="edge10" class="edge"><title>Node2&#45;&gt;Node6</title>
<path fill="none" stroke="midnightblue" d="M222.395,-112.083C216.745,-104.455 208.455,-93.2645 201.549,-83.9408"/>
<polygon fill="midnightblue" stroke="midnightblue" points="204.247,-81.7034 195.482,-75.7511 198.622,-85.87 204.247,-81.7034"/>
</g>
<!-- Node7 -->
<g id="node13" class="node"><title>Node7</title>
<polygon fill="white" stroke="#bfbfbf" points="307.5,-0.5 307.5,-19.5 348.5,-19.5 348.5,-0.5 307.5,-0.5"/>
<text text-anchor="middle" x="328" y="-7.5" font-family="FreeSans" font-size="10.00">string</text>
</g>
<!-- Node2&#45;&gt;Node7 -->
<g id="edge12" class="edge"><title>Node2&#45;&gt;Node7</title>
<path fill="none" stroke="midnightblue" d="M261.683,-120.695C294.587,-118.424 343.829,-109.231 368,-76 379.947,-59.5751 363.247,-39.5162 347.922,-26.0635"/>
<polygon fill="midnightblue" stroke="midnightblue" points="350.133,-23.3502 340.192,-19.685 345.678,-28.7493 350.133,-23.3502"/>
</g>
<!-- Node8 -->
<g id="node15" class="node"><title>Node8</title>
<polygon fill="white" stroke="#bfbfbf" points="323,-56.5 323,-75.5 359,-75.5 359,-56.5 323,-56.5"/>
<text text-anchor="middle" x="341" y="-63.5" font-family="FreeSans" font-size="10.00">map</text>
</g>
<!-- Node2&#45;&gt;Node8 -->
<g id="edge14" class="edge"><title>Node2&#45;&gt;Node8</title>
<path fill="none" stroke="midnightblue" d="M246.995,-112.324C265.038,-103.625 293.047,-90.1202 313.803,-80.113"/>
<polygon fill="midnightblue" stroke="midnightblue" points="315.562,-83.1502 323.05,-75.6545 312.522,-76.8449 315.562,-83.1502"/>
</g>
<!-- Node9 -->
<g id="node17" class="node"><title>Node9</title>
<a xlink:href="debugUtils_8h.html" target="_top" xlink:title="debugUtils.h">
<polygon fill="white" stroke="red" points="233.5,-56.5 233.5,-75.5 304.5,-75.5 304.5,-56.5 233.5,-56.5"/>
<text text-anchor="middle" x="269" y="-63.5" font-family="FreeSans" font-size="10.00">debugUtils.h</text>
</a>
</g>
<!-- Node2&#45;&gt;Node9 -->
<g id="edge16" class="edge"><title>Node2&#45;&gt;Node9</title>
<path fill="none" stroke="midnightblue" d="M235.605,-112.083C241.255,-104.455 249.545,-93.2645 256.451,-83.9408"/>
<polygon fill="midnightblue" stroke="midnightblue" points="259.378,-85.87 262.518,-75.7511 253.753,-81.7034 259.378,-85.87"/>
</g>
<!-- Node10 -->
<g id="node21" class="node"><title>Node10</title>
<polygon fill="white" stroke="#bfbfbf" points="415.5,-56.5 415.5,-75.5 490.5,-75.5 490.5,-56.5 415.5,-56.5"/>
<text text-anchor="middle" x="453" y="-63.5" font-family="FreeSans" font-size="10.00">Eigen/Dense</text>
</g>
<!-- Node2&#45;&gt;Node10 -->
<g id="edge22" class="edge"><title>Node2&#45;&gt;Node10</title>
<path fill="none" stroke="midnightblue" d="M261.572,-113.148C300.071,-103.867 364.368,-88.3667 407.704,-77.9196"/>
<polygon fill="midnightblue" stroke="midnightblue" points="408.526,-81.3218 417.427,-75.5756 406.885,-74.5167 408.526,-81.3218"/>
</g>
<!-- Node9&#45;&gt;Node5 -->
<g id="edge20" class="edge"><title>Node9&#45;&gt;Node5</title>
<path fill="none" stroke="midnightblue" d="M252.773,-56.324C236.649,-47.7034 211.7,-34.3643 193.036,-24.3855"/>
<polygon fill="midnightblue" stroke="midnightblue" points="194.656,-21.283 184.187,-19.6545 191.356,-27.456 194.656,-21.283"/>
</g>
<!-- Node9&#45;&gt;Node7 -->
<g id="edge18" class="edge"><title>Node9&#45;&gt;Node7</title>
<path fill="none" stroke="midnightblue" d="M278.479,-56.324C287.201,-48.3414 300.343,-36.3128 310.898,-26.6529"/>
<polygon fill="midnightblue" stroke="midnightblue" points="313.334,-29.1674 318.348,-19.8339 308.608,-24.0036 313.334,-29.1674"/>
</g>
</g>
</svg>
