<?xml version="1.0" encoding="UTF-8" standalone="no"?>
<!DOCTYPE svg PUBLIC "-//W3C//DTD SVG 1.1//EN"
 "http://www.w3.org/Graphics/SVG/1.1/DTD/svg11.dtd">
<!-- Generated by graphviz version 2.38.0 (20140413.2041)
 -->
<!-- Title: src/qssintegrator.h Pages: 1 -->
<svg width="291pt" height="196pt"
 viewBox="0.00 0.00 291.00 196.00" xmlns="http://www.w3.org/2000/svg" xmlns:xlink="http://www.w3.org/1999/xlink">
<g id="graph0" class="graph" transform="scale(1 1) rotate(0) translate(4 192)">
<title>src/qssintegrator.h</title>
<polygon fill="white" stroke="none" points="-4,4 -4,-192 287,-192 287,4 -4,4"/>
<!-- Node1 -->
<g id="node1" class="node"><title>Node1</title>
<polygon fill="#bfbfbf" stroke="black" points="122,-168.5 122,-187.5 217,-187.5 217,-168.5 122,-168.5"/>
<text text-anchor="middle" x="169.5" y="-175.5" font-family="FreeSans" font-size="10.00">src/qssintegrator.h</text>
</g>
<!-- Node2 -->
<g id="node2" class="node"><title>Node2</title>
<g id="a_node2"><a xlink:href="sourceSystem_8h.html" target="_top" xlink:title="src/sourceSystem.h">
<polygon fill="white" stroke="black" points="59,-112.5 59,-131.5 160,-131.5 160,-112.5 59,-112.5"/>
<text text-anchor="middle" x="109.5" y="-119.5" font-family="FreeSans" font-size="10.00">src/sourceSystem.h</text>
</a>
</g>
</g>
<!-- Node1&#45;&gt;Node2 -->
<g id="edge1" class="edge"><title>Node1&#45;&gt;Node2</title>
<path fill="none" stroke="midnightblue" d="M152.319,-161.537C141.621,-151.909 128.244,-139.869 119.315,-131.834"/>
<polygon fill="midnightblue" stroke="midnightblue" points="150.086,-164.236 159.86,-168.324 154.768,-159.033 150.086,-164.236"/>
</g>
<!-- Node6 -->
<g id="node6" class="node"><title>Node6</title>
<g id="a_node6"><a xlink:href="qssintegrator_8cpp.html" target="_top" xlink:title="src/qssintegrator.cpp">
<polygon fill="white" stroke="black" points="178,-112.5 178,-131.5 283,-131.5 283,-112.5 178,-112.5"/>
<text text-anchor="middle" x="230.5" y="-119.5" font-family="FreeSans" font-size="10.00">src/qssintegrator.cpp</text>
</a>
</g>
</g>
<!-- Node1&#45;&gt;Node6 -->
<g id="edge5" class="edge"><title>Node1&#45;&gt;Node6</title>
<path fill="none" stroke="midnightblue" d="M186.967,-161.537C197.844,-151.909 211.444,-139.869 220.521,-131.834"/>
<polygon fill="midnightblue" stroke="midnightblue" points="184.468,-159.075 179.301,-168.324 189.108,-164.316 184.468,-159.075"/>
</g>
<!-- Node3 -->
<g id="node3" class="node"><title>Node3</title>
<g id="a_node3"><a xlink:href="flameSolver_8h.html" target="_top" xlink:title="src/flameSolver.h">
<polygon fill="white" stroke="black" points="5.5,-56.5 5.5,-75.5 95.5,-75.5 95.5,-56.5 5.5,-56.5"/>
<text text-anchor="middle" x="50.5" y="-63.5" font-family="FreeSans" font-size="10.00">src/flameSolver.h</text>
</a>
</g>
</g>
<!-- Node2&#45;&gt;Node3 -->
<g id="edge2" class="edge"><title>Node2&#45;&gt;Node3</title>
<path fill="none" stroke="midnightblue" d="M92.6055,-105.537C82.0855,-95.9087 68.9313,-83.8694 60.1519,-75.8339"/>
<polygon fill="midnightblue" stroke="midnightblue" points="90.2808,-108.154 100.021,-112.324 95.0069,-102.99 90.2808,-108.154"/>
</g>
<!-- Node5 -->
<g id="node5" class="node"><title>Node5</title>
<g id="a_node5"><a xlink:href="sourceSystem_8cpp.html" target="_top" xlink:title="src/sourceSystem.cpp">
<polygon fill="white" stroke="black" points="114,-56.5 114,-75.5 225,-75.5 225,-56.5 114,-56.5"/>
<text text-anchor="middle" x="169.5" y="-63.5" font-family="FreeSans" font-size="10.00">src/sourceSystem.cpp</text>
</a>
</g>
</g>
<!-- Node2&#45;&gt;Node5 -->
<g id="edge4" class="edge"><title>Node2&#45;&gt;Node5</title>
<path fill="none" stroke="midnightblue" d="M126.681,-105.537C137.379,-95.9087 150.756,-83.8694 159.685,-75.8339"/>
<polygon fill="midnightblue" stroke="midnightblue" points="124.232,-103.033 119.14,-112.324 128.914,-108.236 124.232,-103.033"/>
</g>
<!-- Node4 -->
<g id="node4" class="node"><title>Node4</title>
<g id="a_node4"><a xlink:href="flameSolver_8cpp.html" target="_top" xlink:title="src/flameSolver.cpp">
<polygon fill="white" stroke="black" points="0,-0.5 0,-19.5 101,-19.5 101,-0.5 0,-0.5"/>
<text text-anchor="middle" x="50.5" y="-7.5" font-family="FreeSans" font-size="10.00">src/flameSolver.cpp</text>
</a>
</g>
</g>
<!-- Node3&#45;&gt;Node4 -->
<g id="edge3" class="edge"><title>Node3&#45;&gt;Node4</title>
<path fill="none" stroke="midnightblue" d="M50.5,-45.8045C50.5,-36.9102 50.5,-26.7798 50.5,-19.7511"/>
<polygon fill="midnightblue" stroke="midnightblue" points="47.0001,-46.083 50.5,-56.083 54.0001,-46.083 47.0001,-46.083"/>
</g>
</g>
</svg>
