<?xml version="1.0" encoding="UTF-8" standalone="no"?>
<!DOCTYPE svg PUBLIC "-//W3C//DTD SVG 1.1//EN"
 "http://www.w3.org/Graphics/SVG/1.1/DTD/svg11.dtd">
<!-- Generated by graphviz version 2.26.3 (20100126.1600)
 -->
<!-- Title: src/qssintegrator.h Pages: 1 -->
<svg width="482pt" height="204pt"
 viewBox="0.00 0.00 482.00 204.00" xmlns="http://www.w3.org/2000/svg" xmlns:xlink="http://www.w3.org/1999/xlink">
<g id="graph1" class="graph" transform="scale(1 1) rotate(0) translate(4 200)">
<title>src/qssintegrator.h</title>
<polygon fill="white" stroke="white" points="-4,5 -4,-200 479,-200 479,5 -4,5"/>
<!-- Node1 -->
<g id="node1" class="node"><title>Node1</title>
<polygon fill="#bfbfbf" stroke="black" points="153.5,-175 153.5,-195 248.5,-195 248.5,-175 153.5,-175"/>
<text text-anchor="middle" x="201" y="-182" font-family="FreeSans" font-size="10.00">src/qssintegrator.h</text>
</g>
<!-- Node2 -->
<g id="node3" class="node"><title>Node2</title>
<a xlink:href="mathUtils_8h.html" target="_top" xlink:title="mathUtils.h">
<polygon fill="white" stroke="black" points="168.5,-117 168.5,-137 233.5,-137 233.5,-117 168.5,-117"/>
<text text-anchor="middle" x="201" y="-124" font-family="FreeSans" font-size="10.00">mathUtils.h</text>
</a>
</g>
<!-- Node1&#45;&gt;Node2 -->
<g id="edge2" class="edge"><title>Node1&#45;&gt;Node2</title>
<path fill="none" stroke="midnightblue" d="M201,-174.897C201,-167.339 201,-156.748 201,-147.446"/>
<polygon fill="midnightblue" stroke="midnightblue" points="204.5,-147.378 201,-137.378 197.5,-147.378 204.5,-147.378"/>
</g>
<!-- Node3 -->
<g id="node5" class="node"><title>Node3</title>
<polygon fill="white" stroke="#bfbfbf" points="-0.5,-59 -0.5,-79 42.5,-79 42.5,-59 -0.5,-59"/>
<text text-anchor="middle" x="21" y="-66" font-family="FreeSans" font-size="10.00">vector</text>
</g>
<!-- Node2&#45;&gt;Node3 -->
<g id="edge4" class="edge"><title>Node2&#45;&gt;Node3</title>
<path fill="none" stroke="midnightblue" d="M168.375,-117.269C139.916,-108.672 97.3123,-95.5431 52.238,-80.3316"/>
<polygon fill="midnightblue" stroke="midnightblue" points="53.1807,-76.9555 42.5863,-77.0548 50.9303,-83.5839 53.1807,-76.9555"/>
</g>
<!-- Node4 -->
<g id="node7" class="node"><title>Node4</title>
<polygon fill="white" stroke="#bfbfbf" points="60,-59 60,-79 104,-79 104,-59 60,-59"/>
<text text-anchor="middle" x="82" y="-66" font-family="FreeSans" font-size="10.00">cmath</text>
</g>
<!-- Node2&#45;&gt;Node4 -->
<g id="edge6" class="edge"><title>Node2&#45;&gt;Node4</title>
<path fill="none" stroke="midnightblue" d="M180.272,-116.897C161.446,-107.722 133.45,-94.0762 112.149,-83.6943"/>
<polygon fill="midnightblue" stroke="midnightblue" points="113.413,-80.4168 102.89,-79.1817 110.346,-86.7092 113.413,-80.4168"/>
</g>
<!-- Node5 -->
<g id="node9" class="node"><title>Node5</title>
<polygon fill="white" stroke="#bfbfbf" points="79.5,-1 79.5,-21 132.5,-21 132.5,-1 79.5,-1"/>
<text text-anchor="middle" x="106" y="-8" font-family="FreeSans" font-size="10.00">iostream</text>
</g>
<!-- Node2&#45;&gt;Node5 -->
<g id="edge8" class="edge"><title>Node2&#45;&gt;Node5</title>
<path fill="none" stroke="midnightblue" d="M192.569,-116.706C176.402,-96.9649 140.861,-53.5668 120.706,-28.9571"/>
<polygon fill="midnightblue" stroke="midnightblue" points="123.32,-26.6245 114.276,-21.1055 117.904,-31.0598 123.32,-26.6245"/>
</g>
<!-- Node6 -->
<g id="node11" class="node"><title>Node6</title>
<polygon fill="white" stroke="#bfbfbf" points="284,-59 284,-79 334,-79 334,-59 284,-59"/>
<text text-anchor="middle" x="309" y="-66" font-family="FreeSans" font-size="10.00">sstream</text>
</g>
<!-- Node2&#45;&gt;Node6 -->
<g id="edge10" class="edge"><title>Node2&#45;&gt;Node6</title>
<path fill="none" stroke="midnightblue" d="M219.812,-116.897C236.743,-107.804 261.849,-94.3218 281.114,-83.9757"/>
<polygon fill="midnightblue" stroke="midnightblue" points="282.887,-86.9965 290.041,-79.1817 279.575,-80.8295 282.887,-86.9965"/>
</g>
<!-- Node7 -->
<g id="node13" class="node"><title>Node7</title>
<polygon fill="white" stroke="#bfbfbf" points="150,-1 150,-21 190,-21 190,-1 150,-1"/>
<text text-anchor="middle" x="170" y="-8" font-family="FreeSans" font-size="10.00">string</text>
</g>
<!-- Node2&#45;&gt;Node7 -->
<g id="edge12" class="edge"><title>Node2&#45;&gt;Node7</title>
<path fill="none" stroke="midnightblue" d="M198.249,-116.706C193.112,-97.4821 181.979,-55.8247 175.326,-30.9294"/>
<polygon fill="midnightblue" stroke="midnightblue" points="178.664,-29.8628 172.701,-21.1055 171.901,-31.6702 178.664,-29.8628"/>
</g>
<!-- Node8 -->
<g id="node15" class="node"><title>Node8</title>
<polygon fill="white" stroke="#bfbfbf" points="351.5,-59 351.5,-79 386.5,-79 386.5,-59 351.5,-59"/>
<text text-anchor="middle" x="369" y="-66" font-family="FreeSans" font-size="10.00">map</text>
</g>
<!-- Node2&#45;&gt;Node8 -->
<g id="edge14" class="edge"><title>Node2&#45;&gt;Node8</title>
<path fill="none" stroke="midnightblue" d="M233.689,-117.004C260.605,-108.593 299.919,-95.8937 341.891,-80.2487"/>
<polygon fill="midnightblue" stroke="midnightblue" points="343.329,-83.4472 351.455,-76.649 340.863,-76.8958 343.329,-83.4472"/>
</g>
<!-- Node9 -->
<g id="node17" class="node"><title>Node9</title>
<a xlink:href="debugUtils_8h.html" target="_top" xlink:title="debugUtils.h">
<polygon fill="white" stroke="black" points="197.5,-59 197.5,-79 266.5,-79 266.5,-59 197.5,-59"/>
<text text-anchor="middle" x="232" y="-66" font-family="FreeSans" font-size="10.00">debugUtils.h</text>
</a>
</g>
<!-- Node2&#45;&gt;Node9 -->
<g id="edge16" class="edge"><title>Node2&#45;&gt;Node9</title>
<path fill="none" stroke="midnightblue" d="M206.4,-116.897C210.615,-109.01 216.596,-97.8209 221.716,-88.2401"/>
<polygon fill="midnightblue" stroke="midnightblue" points="224.826,-89.8468 226.453,-79.3776 218.653,-86.5471 224.826,-89.8468"/>
</g>
<!-- Node13 -->
<g id="node27" class="node"><title>Node13</title>
<polygon fill="white" stroke="#bfbfbf" points="403.5,-59 403.5,-79 474.5,-79 474.5,-59 403.5,-59"/>
<text text-anchor="middle" x="439" y="-66" font-family="FreeSans" font-size="10.00">Eigen/Dense</text>
</g>
<!-- Node2&#45;&gt;Node13 -->
<g id="edge28" class="edge"><title>Node2&#45;&gt;Node13</title>
<path fill="none" stroke="midnightblue" d="M233.627,-119.172C270.234,-110.373 331.656,-95.5582 393.533,-80.3508"/>
<polygon fill="midnightblue" stroke="midnightblue" points="394.59,-83.6953 403.464,-77.9076 392.917,-76.898 394.59,-83.6953"/>
</g>
<!-- Node9&#45;&gt;Node5 -->
<g id="edge20" class="edge"><title>Node9&#45;&gt;Node5</title>
<path fill="none" stroke="midnightblue" d="M210.052,-58.8972C189.94,-49.6391 159.941,-35.83 137.314,-25.4145"/>
<polygon fill="midnightblue" stroke="midnightblue" points="138.666,-22.1838 128.119,-21.1817 135.739,-28.5425 138.666,-22.1838"/>
</g>
<!-- Node9&#45;&gt;Node7 -->
<g id="edge18" class="edge"><title>Node9&#45;&gt;Node7</title>
<path fill="none" stroke="midnightblue" d="M221.2,-58.8972C212.243,-50.5175 199.3,-38.4093 188.668,-28.4638"/>
<polygon fill="midnightblue" stroke="midnightblue" points="190.787,-25.6532 181.093,-21.3776 186.005,-30.7652 190.787,-25.6532"/>
</g>
<!-- Node10 -->
<g id="node21" class="node"><title>Node10</title>
<polygon fill="white" stroke="#bfbfbf" points="207.5,-1 207.5,-21 256.5,-21 256.5,-1 207.5,-1"/>
<text text-anchor="middle" x="232" y="-8" font-family="FreeSans" font-size="10.00">fstream</text>
</g>
<!-- Node9&#45;&gt;Node10 -->
<g id="edge22" class="edge"><title>Node9&#45;&gt;Node10</title>
<path fill="none" stroke="midnightblue" d="M232,-58.8972C232,-51.339 232,-40.7476 232,-31.4458"/>
<polygon fill="midnightblue" stroke="midnightblue" points="235.5,-31.3776 232,-21.3776 228.5,-31.3776 235.5,-31.3776"/>
</g>
<!-- Node11 -->
<g id="node23" class="node"><title>Node11</title>
<polygon fill="white" stroke="#bfbfbf" points="274,-1 274,-21 332,-21 332,-1 274,-1"/>
<text text-anchor="middle" x="303" y="-8" font-family="FreeSans" font-size="10.00">exception</text>
</g>
<!-- Node9&#45;&gt;Node11 -->
<g id="edge24" class="edge"><title>Node9&#45;&gt;Node11</title>
<path fill="none" stroke="midnightblue" d="M244.367,-58.8972C254.826,-50.3532 270.03,-37.933 282.335,-27.8813"/>
<polygon fill="midnightblue" stroke="midnightblue" points="284.766,-30.4146 290.296,-21.3776 280.338,-24.9935 284.766,-30.4146"/>
</g>
<!-- Node12 -->
<g id="node25" class="node"><title>Node12</title>
<polygon fill="white" stroke="#bfbfbf" points="349.5,-1 349.5,-21 438.5,-21 438.5,-1 349.5,-1"/>
<text text-anchor="middle" x="394" y="-8" font-family="FreeSans" font-size="10.00">boost/format.hpp</text>
</g>
<!-- Node9&#45;&gt;Node12 -->
<g id="edge26" class="edge"><title>Node9&#45;&gt;Node12</title>
<path fill="none" stroke="midnightblue" d="M260.218,-58.8972C286.851,-49.362 326.968,-34.9992 356.325,-24.4885"/>
<polygon fill="midnightblue" stroke="midnightblue" points="357.599,-27.7502 365.834,-21.0842 355.239,-21.1598 357.599,-27.7502"/>
</g>
</g>
</svg>
