<?xml version="1.0" encoding="UTF-8" standalone="no"?>
<!DOCTYPE svg PUBLIC "-//W3C//DTD SVG 1.1//EN"
 "http://www.w3.org/Graphics/SVG/1.1/DTD/svg11.dtd">
<!-- Generated by graphviz version 2.38.0 (20140413.2041)
 -->
<!-- Title: src/qssintegrator.cpp Pages: 1 -->
<svg width="513pt" height="252pt"
 viewBox="0.00 0.00 512.84 252.00" xmlns="http://www.w3.org/2000/svg" xmlns:xlink="http://www.w3.org/1999/xlink">
<g id="graph0" class="graph" transform="scale(1 1) rotate(0) translate(4 248)">
<title>src/qssintegrator.cpp</title>
<polygon fill="white" stroke="none" points="-4,4 -4,-248 508.844,-248 508.844,4 -4,4"/>
<!-- Node1 -->
<g id="node1" class="node"><title>Node1</title>
<polygon fill="#bfbfbf" stroke="black" points="223.844,-224.5 223.844,-243.5 328.844,-243.5 328.844,-224.5 223.844,-224.5"/>
<text text-anchor="middle" x="276.344" y="-231.5" font-family="FreeSans" font-size="10.00">src/qssintegrator.cpp</text>
</g>
<!-- Node2 -->
<g id="node2" class="node"><title>Node2</title>
<g id="a_node2"><a xlink:href="qssintegrator_8h.html" target="_top" xlink:title="qssintegrator.h">
<polygon fill="white" stroke="black" points="236.844,-168.5 236.844,-187.5 315.844,-187.5 315.844,-168.5 236.844,-168.5"/>
<text text-anchor="middle" x="276.344" y="-175.5" font-family="FreeSans" font-size="10.00">qssintegrator.h</text>
</a>
</g>
</g>
<!-- Node1&#45;&gt;Node2 -->
<g id="edge1" class="edge"><title>Node1&#45;&gt;Node2</title>
<path fill="none" stroke="midnightblue" d="M276.344,-224.083C276.344,-217.006 276.344,-206.861 276.344,-197.986"/>
<polygon fill="midnightblue" stroke="midnightblue" points="279.844,-197.751 276.344,-187.751 272.844,-197.751 279.844,-197.751"/>
</g>
<!-- Node6 -->
<g id="node6" class="node"><title>Node6</title>
<polygon fill="white" stroke="#bfbfbf" points="274.844,-0.5 274.844,-19.5 327.844,-19.5 327.844,-0.5 274.844,-0.5"/>
<text text-anchor="middle" x="301.344" y="-7.5" font-family="FreeSans" font-size="10.00">iostream</text>
</g>
<!-- Node1&#45;&gt;Node6 -->
<g id="edge14" class="edge"><title>Node1&#45;&gt;Node6</title>
<path fill="none" stroke="midnightblue" d="M239.105,-224.486C151.085,-202.732 -57.1463,-140.788 15.344,-56 46.9559,-19.0253 194.27,-12.2379 264.247,-11.1264"/>
<polygon fill="midnightblue" stroke="midnightblue" points="264.431,-14.6245 274.386,-10.9968 264.342,-7.62504 264.431,-14.6245"/>
</g>
<!-- Node10 -->
<g id="node10" class="node"><title>Node10</title>
<g id="a_node10"><a xlink:href="debugUtils_8h.html" target="_top" xlink:title="debugUtils.h">
<polygon fill="white" stroke="red" points="435.844,-56.5 435.844,-75.5 504.844,-75.5 504.844,-56.5 435.844,-56.5"/>
<text text-anchor="middle" x="470.344" y="-63.5" font-family="FreeSans" font-size="10.00">debugUtils.h</text>
</a>
</g>
</g>
<!-- Node1&#45;&gt;Node10 -->
<g id="edge13" class="edge"><title>Node1&#45;&gt;Node10</title>
<path fill="none" stroke="midnightblue" d="M286.501,-224.309C317.734,-197.584 412.64,-116.375 452.459,-82.3037"/>
<polygon fill="midnightblue" stroke="midnightblue" points="454.965,-84.766 460.287,-75.6051 450.414,-79.4473 454.965,-84.766"/>
</g>
<!-- Node3 -->
<g id="node3" class="node"><title>Node3</title>
<g id="a_node3"><a xlink:href="mathUtils_8h.html" target="_top" xlink:title="mathUtils.h">
<polygon fill="white" stroke="black" points="243.844,-112.5 243.844,-131.5 308.844,-131.5 308.844,-112.5 243.844,-112.5"/>
<text text-anchor="middle" x="276.344" y="-119.5" font-family="FreeSans" font-size="10.00">mathUtils.h</text>
</a>
</g>
</g>
<!-- Node2&#45;&gt;Node3 -->
<g id="edge2" class="edge"><title>Node2&#45;&gt;Node3</title>
<path fill="none" stroke="midnightblue" d="M276.344,-168.083C276.344,-161.006 276.344,-150.861 276.344,-141.986"/>
<polygon fill="midnightblue" stroke="midnightblue" points="279.844,-141.751 276.344,-131.751 272.844,-141.751 279.844,-141.751"/>
</g>
<!-- Node4 -->
<g id="node4" class="node"><title>Node4</title>
<polygon fill="white" stroke="#bfbfbf" points="229.844,-56.5 229.844,-75.5 272.844,-75.5 272.844,-56.5 229.844,-56.5"/>
<text text-anchor="middle" x="251.344" y="-63.5" font-family="FreeSans" font-size="10.00">vector</text>
</g>
<!-- Node3&#45;&gt;Node4 -->
<g id="edge3" class="edge"><title>Node3&#45;&gt;Node4</title>
<path fill="none" stroke="midnightblue" d="M272.216,-112.083C268.83,-104.77 263.928,-94.1814 259.725,-85.1034"/>
<polygon fill="midnightblue" stroke="midnightblue" points="262.773,-83.3553 255.395,-75.7511 256.421,-86.2962 262.773,-83.3553"/>
</g>
<!-- Node5 -->
<g id="node5" class="node"><title>Node5</title>
<polygon fill="white" stroke="#bfbfbf" points="167.344,-56.5 167.344,-75.5 211.344,-75.5 211.344,-56.5 167.344,-56.5"/>
<text text-anchor="middle" x="189.344" y="-63.5" font-family="FreeSans" font-size="10.00">cmath</text>
</g>
<!-- Node3&#45;&gt;Node5 -->
<g id="edge4" class="edge"><title>Node3&#45;&gt;Node5</title>
<path fill="none" stroke="midnightblue" d="M262.366,-112.324C248.794,-103.9 227.964,-90.9709 212.019,-81.0741"/>
<polygon fill="midnightblue" stroke="midnightblue" points="213.63,-77.9544 203.287,-75.6545 209.938,-83.9019 213.63,-77.9544"/>
</g>
<!-- Node3&#45;&gt;Node6 -->
<g id="edge5" class="edge"><title>Node3&#45;&gt;Node6</title>
<path fill="none" stroke="midnightblue" d="M278.306,-112.368C282.34,-94.617 291.647,-53.6664 297.117,-29.5974"/>
<polygon fill="midnightblue" stroke="midnightblue" points="300.588,-30.1185 299.391,-19.5914 293.762,-28.567 300.588,-30.1185"/>
</g>
<!-- Node7 -->
<g id="node7" class="node"><title>Node7</title>
<polygon fill="white" stroke="#bfbfbf" points="367.344,-56.5 367.344,-75.5 417.344,-75.5 417.344,-56.5 367.344,-56.5"/>
<text text-anchor="middle" x="392.344" y="-63.5" font-family="FreeSans" font-size="10.00">sstream</text>
</g>
<!-- Node3&#45;&gt;Node7 -->
<g id="edge6" class="edge"><title>Node3&#45;&gt;Node7</title>
<path fill="none" stroke="midnightblue" d="M294.725,-112.444C313.561,-103.675 343.075,-89.9355 364.723,-79.8579"/>
<polygon fill="midnightblue" stroke="midnightblue" points="366.461,-82.9098 374.049,-75.5164 363.507,-76.5637 366.461,-82.9098"/>
</g>
<!-- Node8 -->
<g id="node8" class="node"><title>Node8</title>
<polygon fill="white" stroke="#bfbfbf" points="398.344,-0.5 398.344,-19.5 438.344,-19.5 438.344,-0.5 398.344,-0.5"/>
<text text-anchor="middle" x="418.344" y="-7.5" font-family="FreeSans" font-size="10.00">string</text>
</g>
<!-- Node3&#45;&gt;Node8 -->
<g id="edge7" class="edge"><title>Node3&#45;&gt;Node8</title>
<path fill="none" stroke="midnightblue" d="M286.888,-112.495C302.43,-99.9909 332.45,-75.9678 358.344,-56 371.655,-45.7355 386.799,-34.3801 398.542,-25.6443"/>
<polygon fill="midnightblue" stroke="midnightblue" points="400.828,-28.3061 406.773,-19.5359 396.657,-22.685 400.828,-28.3061"/>
</g>
<!-- Node9 -->
<g id="node9" class="node"><title>Node9</title>
<polygon fill="white" stroke="#bfbfbf" points="24.844,-56.5 24.844,-75.5 59.844,-75.5 59.844,-56.5 24.844,-56.5"/>
<text text-anchor="middle" x="42.344" y="-63.5" font-family="FreeSans" font-size="10.00">map</text>
</g>
<!-- Node3&#45;&gt;Node9 -->
<g id="edge8" class="edge"><title>Node3&#45;&gt;Node9</title>
<path fill="none" stroke="midnightblue" d="M243.622,-115.182C204.328,-107.921 136.297,-94.4803 69.6892,-76.1316"/>
<polygon fill="midnightblue" stroke="midnightblue" points="70.4488,-72.7098 59.8757,-73.389 68.5646,-79.4515 70.4488,-72.7098"/>
</g>
<!-- Node3&#45;&gt;Node10 -->
<g id="edge9" class="edge"><title>Node3&#45;&gt;Node10</title>
<path fill="none" stroke="midnightblue" d="M307.084,-112.444C340.288,-103.201 393.335,-88.4356 429.901,-78.2572"/>
<polygon fill="midnightblue" stroke="midnightblue" points="431.053,-81.5699 439.748,-75.5164 429.176,-74.8262 431.053,-81.5699"/>
</g>
<!-- Node11 -->
<g id="node11" class="node"><title>Node11</title>
<polygon fill="white" stroke="#bfbfbf" points="77.844,-56.5 77.844,-75.5 148.844,-75.5 148.844,-56.5 77.844,-56.5"/>
<text text-anchor="middle" x="113.344" y="-63.5" font-family="FreeSans" font-size="10.00">Eigen/Dense</text>
</g>
<!-- Node3&#45;&gt;Node11 -->
<g id="edge12" class="edge"><title>Node3&#45;&gt;Node11</title>
<path fill="none" stroke="midnightblue" d="M250.516,-112.444C223.095,-103.359 179.567,-88.9388 148.912,-78.7831"/>
<polygon fill="midnightblue" stroke="midnightblue" points="149.644,-75.3389 139.051,-75.5164 147.443,-81.9837 149.644,-75.3389"/>
</g>
<!-- Node10&#45;&gt;Node6 -->
<g id="edge11" class="edge"><title>Node10&#45;&gt;Node6</title>
<path fill="none" stroke="midnightblue" d="M443.565,-56.4435C415.011,-47.3196 369.611,-32.8133 337.807,-22.6509"/>
<polygon fill="midnightblue" stroke="midnightblue" points="338.588,-19.2262 327.997,-19.5164 336.458,-25.8941 338.588,-19.2262"/>
</g>
<!-- Node10&#45;&gt;Node8 -->
<g id="edge10" class="edge"><title>Node10&#45;&gt;Node8</title>
<path fill="none" stroke="midnightblue" d="M461.757,-56.083C454.185,-48.2195 442.966,-36.5688 433.83,-27.0813"/>
<polygon fill="midnightblue" stroke="midnightblue" points="436.229,-24.5266 426.771,-19.7511 431.186,-29.3821 436.229,-24.5266"/>
</g>
</g>
</svg>
