<?xml version="1.0" encoding="UTF-8" standalone="no"?>
<!DOCTYPE svg PUBLIC "-//W3C//DTD SVG 1.1//EN"
 "http://www.w3.org/Graphics/SVG/1.1/DTD/svg11.dtd">
<!-- Generated by graphviz version 2.28.0 (20120425.2022)
 -->
<!-- Title: src/qssintegrator.h Pages: 1 -->
<svg width="298pt" height="140pt"
 viewBox="0.00 0.00 298.00 140.00" xmlns="http://www.w3.org/2000/svg" xmlns:xlink="http://www.w3.org/1999/xlink">
<g id="graph1" class="graph" transform="scale(1 1) rotate(0) translate(4 136)">
<title>src/qssintegrator.h</title>
<polygon fill="white" stroke="white" points="-4,5 -4,-136 295,-136 295,5 -4,5"/>
<!-- Node1 -->
<g id="node1" class="node"><title>Node1</title>
<polygon fill="#bfbfbf" stroke="black" points="122.5,-112.5 122.5,-131.5 221.5,-131.5 221.5,-112.5 122.5,-112.5"/>
<text text-anchor="middle" x="172" y="-119.5" font-family="FreeSans" font-size="10.00">src/qssintegrator.h</text>
</g>
<!-- Node2 -->
<g id="node3" class="node"><title>Node2</title>
<a xlink:href="sourceSystem_8h.html" target="_top" xlink:title="src/sourceSystem.h">
<polygon fill="white" stroke="black" points="56.5,-56.5 56.5,-75.5 161.5,-75.5 161.5,-56.5 56.5,-56.5"/>
<text text-anchor="middle" x="109" y="-63.5" font-family="FreeSans" font-size="10.00">src/sourceSystem.h</text>
</a>
</g>
<!-- Node1&#45;&gt;Node2 -->
<g id="edge2" class="edge"><title>Node1&#45;&gt;Node2</title>
<path fill="none" stroke="midnightblue" d="M153.96,-105.537C142.727,-95.9087 128.681,-83.8694 119.306,-75.8339"/>
<polygon fill="midnightblue" stroke="midnightblue" points="152.008,-108.473 161.878,-112.324 156.563,-103.159 152.008,-108.473"/>
</g>
<!-- Node5 -->
<g id="node9" class="node"><title>Node5</title>
<a xlink:href="qssintegrator_8cpp.html" target="_top" xlink:title="src/qssintegrator.cpp">
<polygon fill="white" stroke="black" points="180,-56.5 180,-75.5 290,-75.5 290,-56.5 180,-56.5"/>
<text text-anchor="middle" x="235" y="-63.5" font-family="FreeSans" font-size="10.00">src/qssintegrator.cpp</text>
</a>
</g>
<!-- Node1&#45;&gt;Node5 -->
<g id="edge8" class="edge"><title>Node1&#45;&gt;Node5</title>
<path fill="none" stroke="midnightblue" d="M190.04,-105.537C201.273,-95.9087 215.319,-83.8694 224.694,-75.8339"/>
<polygon fill="midnightblue" stroke="midnightblue" points="187.437,-103.159 182.122,-112.324 191.992,-108.473 187.437,-103.159"/>
</g>
<!-- Node3 -->
<g id="node5" class="node"><title>Node3</title>
<a xlink:href="flameSolver_8h.html" target="_top" xlink:title="src/flameSolver.h">
<polygon fill="white" stroke="red" points="-0.5,-0.5 -0.5,-19.5 94.5,-19.5 94.5,-0.5 -0.5,-0.5"/>
<text text-anchor="middle" x="47" y="-7.5" font-family="FreeSans" font-size="10.00">src/flameSolver.h</text>
</a>
</g>
<!-- Node2&#45;&gt;Node3 -->
<g id="edge4" class="edge"><title>Node2&#45;&gt;Node3</title>
<path fill="none" stroke="midnightblue" d="M91.2464,-49.5372C80.1915,-39.9087 66.3685,-27.8694 57.1426,-19.8339"/>
<polygon fill="midnightblue" stroke="midnightblue" points="89.199,-52.3954 99.0386,-56.324 93.7965,-47.1168 89.199,-52.3954"/>
</g>
<!-- Node4 -->
<g id="node7" class="node"><title>Node4</title>
<a xlink:href="sourceSystem_8cpp.html" target="_top" xlink:title="src/sourceSystem.cpp">
<polygon fill="white" stroke="black" points="113,-0.5 113,-19.5 229,-19.5 229,-0.5 113,-0.5"/>
<text text-anchor="middle" x="171" y="-7.5" font-family="FreeSans" font-size="10.00">src/sourceSystem.cpp</text>
</a>
</g>
<!-- Node2&#45;&gt;Node4 -->
<g id="edge6" class="edge"><title>Node2&#45;&gt;Node4</title>
<path fill="none" stroke="midnightblue" d="M126.754,-49.5372C137.808,-39.9087 151.631,-27.8694 160.857,-19.8339"/>
<polygon fill="midnightblue" stroke="midnightblue" points="124.203,-47.1168 118.961,-56.324 128.801,-52.3954 124.203,-47.1168"/>
</g>
</g>
</svg>
