<?xml version="1.0" encoding="UTF-8" standalone="no"?>
<!DOCTYPE svg PUBLIC "-//W3C//DTD SVG 1.1//EN"
 "http://www.w3.org/Graphics/SVG/1.1/DTD/svg11.dtd">
<!-- Generated by graphviz version 8.1.0 (20230707.2238)
 -->
<!-- Title: src/qssintegrator.h Pages: 1 -->
<svg width="324pt" height="199pt"
 viewBox="0.00 0.00 323.88 199.00" xmlns="http://www.w3.org/2000/svg" xmlns:xlink="http://www.w3.org/1999/xlink">
<g id="graph0" class="graph" transform="scale(1 1) rotate(0) translate(4 195)">
<title>src/qssintegrator.h</title>
<!-- Node1 -->
<g id="Node000001" class="node">
<title>Node1</title>
<g id="a_Node000001"><a xlink:title=" ">
<polygon fill="#999999" stroke="#666666" points="177.62,-191 71.62,-191 71.62,-170.25 177.62,-170.25 177.62,-191"/>
<text text-anchor="middle" x="124.62" y="-177.5" font-family="FreeSans" font-size="10.00">src/qssintegrator.h</text>
</a>
</g>
</g>
<!-- Node2 -->
<g id="Node000002" class="node">
<title>Node2</title>
<g id="a_Node000002"><a xlink:href="qssintegrator_8cpp.html" target="_top" xlink:title=" ">
<polygon fill="white" stroke="#666666" points="117.25,-134.25 0,-134.25 0,-113.5 117.25,-113.5 117.25,-134.25"/>
<text text-anchor="middle" x="58.62" y="-120.75" font-family="FreeSans" font-size="10.00">src/qssintegrator.cpp</text>
</a>
</g>
</g>
<!-- Node1&#45;&gt;Node2 -->
<g id="edge1_Node000001_Node000002" class="edge">
<title>Node1&#45;&gt;Node2</title>
<g id="a_edge1_Node000001_Node000002"><a xlink:title=" ">
<path fill="none" stroke="#63b8ff" d="M104.48,-162.91C93.29,-153.63 79.77,-142.42 70.32,-134.58"/>
<polygon fill="#63b8ff" stroke="#63b8ff" points="101.89,-166.15 111.83,-169.84 106.36,-160.76 101.89,-166.15"/>
</a>
</g>
</g>
<!-- Node3 -->
<g id="Node000003" class="node">
<title>Node3</title>
<g id="a_Node000003"><a xlink:href="sourceSystem_8h.html" target="_top" xlink:title=" ">
<polygon fill="white" stroke="#666666" points="246.25,-134.25 135,-134.25 135,-113.5 246.25,-113.5 246.25,-134.25"/>
<text text-anchor="middle" x="190.62" y="-120.75" font-family="FreeSans" font-size="10.00">src/sourceSystem.h</text>
</a>
</g>
</g>
<!-- Node1&#45;&gt;Node3 -->
<g id="edge2_Node000001_Node000003" class="edge">
<title>Node1&#45;&gt;Node3</title>
<g id="a_edge2_Node000001_Node000003"><a xlink:title=" ">
<path fill="none" stroke="#63b8ff" d="M144.77,-162.91C155.96,-153.63 169.48,-142.42 178.93,-134.58"/>
<polygon fill="#63b8ff" stroke="#63b8ff" points="142.89,-160.76 137.42,-169.84 147.36,-166.15 142.89,-160.76"/>
</a>
</g>
</g>
<!-- Node4 -->
<g id="Node000004" class="node">
<title>Node4</title>
<g id="a_Node000004"><a xlink:href="flameSolver_8h.html" target="_top" xlink:title=" ">
<polygon fill="white" stroke="#666666" points="175.62,-77.5 75.62,-77.5 75.62,-56.75 175.62,-56.75 175.62,-77.5"/>
<text text-anchor="middle" x="125.62" y="-64" font-family="FreeSans" font-size="10.00">src/flameSolver.h</text>
</a>
</g>
</g>
<!-- Node3&#45;&gt;Node4 -->
<g id="edge3_Node000003_Node000004" class="edge">
<title>Node3&#45;&gt;Node4</title>
<g id="a_edge3_Node000003_Node000004"><a xlink:title=" ">
<path fill="none" stroke="#63b8ff" d="M170.78,-106.16C159.77,-96.88 146.45,-85.67 137.15,-77.83"/>
<polygon fill="#63b8ff" stroke="#63b8ff" points="168.1,-109.32 178,-113.09 172.61,-103.97 168.1,-109.32"/>
</a>
</g>
</g>
<!-- Node6 -->
<g id="Node000006" class="node">
<title>Node6</title>
<g id="a_Node000006"><a xlink:href="sourceSystem_8cpp.html" target="_top" xlink:title=" ">
<polygon fill="white" stroke="#666666" points="315.88,-77.5 193.38,-77.5 193.38,-56.75 315.88,-56.75 315.88,-77.5"/>
<text text-anchor="middle" x="254.62" y="-64" font-family="FreeSans" font-size="10.00">src/sourceSystem.cpp</text>
</a>
</g>
</g>
<!-- Node3&#45;&gt;Node6 -->
<g id="edge5_Node000003_Node000006" class="edge">
<title>Node3&#45;&gt;Node6</title>
<g id="a_edge5_Node000003_Node000006"><a xlink:title=" ">
<path fill="none" stroke="#63b8ff" d="M210.16,-106.16C221.01,-96.88 234.12,-85.67 243.28,-77.83"/>
<polygon fill="#63b8ff" stroke="#63b8ff" points="208.39,-103.93 203.07,-113.09 212.94,-109.25 208.39,-103.93"/>
</a>
</g>
</g>
<!-- Node5 -->
<g id="Node000005" class="node">
<title>Node5</title>
<g id="a_Node000005"><a xlink:href="flameSolver_8cpp.html" target="_top" xlink:title=" ">
<polygon fill="white" stroke="#666666" points="181.25,-20.75 70,-20.75 70,0 181.25,0 181.25,-20.75"/>
<text text-anchor="middle" x="125.62" y="-7.25" font-family="FreeSans" font-size="10.00">src/flameSolver.cpp</text>
</a>
</g>
</g>
<!-- Node4&#45;&gt;Node5 -->
<g id="edge4_Node000004_Node000005" class="edge">
<title>Node4&#45;&gt;Node5</title>
<g id="a_edge4_Node000004_Node000005"><a xlink:title=" ">
<path fill="none" stroke="#63b8ff" d="M125.62,-45.46C125.62,-37.09 125.62,-27.83 125.62,-21.08"/>
<polygon fill="#63b8ff" stroke="#63b8ff" points="122.13,-45.34 125.62,-55.34 129.13,-45.34 122.13,-45.34"/>
</a>
</g>
</g>
</g>
</svg>
