<?xml version="1.0" encoding="UTF-8" standalone="no"?>
<!DOCTYPE svg PUBLIC "-//W3C//DTD SVG 1.1//EN"
 "http://www.w3.org/Graphics/SVG/1.1/DTD/svg11.dtd">
<!-- Generated by graphviz version 2.26.3 (20100126.1600)
 -->
<!-- Title: src/quasi2d.h Pages: 1 -->
<svg width="524pt" height="204pt"
 viewBox="0.00 0.00 523.94 204.00" xmlns="http://www.w3.org/2000/svg" xmlns:xlink="http://www.w3.org/1999/xlink">
<g id="graph1" class="graph" transform="scale(1 1) rotate(0) translate(4 200)">
<title>src/quasi2d.h</title>
<polygon fill="white" stroke="white" points="-4,5 -4,-200 520.943,-200 520.943,5 -4,5"/>
<!-- Node1 -->
<g id="node1" class="node"><title>Node1</title>
<polygon fill="#bfbfbf" stroke="black" points="442.5,-175 442.5,-195 515.5,-195 515.5,-175 442.5,-175"/>
<text text-anchor="middle" x="479" y="-182" font-family="FreeSans" font-size="10.00">src/quasi2d.h</text>
</g>
<!-- Node2 -->
<g id="node3" class="node"><title>Node2</title>
<a xlink:href="mathUtils_8h.html" target="_top" xlink:title="mathUtils.h">
<polygon fill="white" stroke="black" points="254.5,-117 254.5,-137 319.5,-137 319.5,-117 254.5,-117"/>
<text text-anchor="middle" x="287" y="-124" font-family="FreeSans" font-size="10.00">mathUtils.h</text>
</a>
</g>
<!-- Node1&#45;&gt;Node2 -->
<g id="edge2" class="edge"><title>Node1&#45;&gt;Node2</title>
<path fill="none" stroke="midnightblue" d="M445.556,-174.897C413.384,-165.179 364.61,-150.445 329.658,-139.886"/>
<polygon fill="midnightblue" stroke="midnightblue" points="330.325,-136.432 319.74,-136.89 328.301,-143.133 330.325,-136.432"/>
</g>
<!-- Node7 -->
<g id="node13" class="node"><title>Node7</title>
<polygon fill="white" stroke="#bfbfbf" points="318,-1 318,-21 358,-21 358,-1 318,-1"/>
<text text-anchor="middle" x="338" y="-8" font-family="FreeSans" font-size="10.00">string</text>
</g>
<!-- Node1&#45;&gt;Node7 -->
<g id="edge30" class="edge"><title>Node1&#45;&gt;Node7</title>
<path fill="none" stroke="midnightblue" d="M485.867,-174.926C500.708,-151.787 532.313,-94.0608 505,-58 488.536,-36.2627 411.815,-21.762 368.314,-15.1357"/>
<polygon fill="midnightblue" stroke="midnightblue" points="368.687,-11.6529 358.284,-13.6576 367.667,-18.5782 368.687,-11.6529"/>
</g>
<!-- Node8 -->
<g id="node15" class="node"><title>Node8</title>
<polygon fill="white" stroke="#bfbfbf" points="461.5,-59 461.5,-79 496.5,-79 496.5,-59 461.5,-59"/>
<text text-anchor="middle" x="479" y="-66" font-family="FreeSans" font-size="10.00">map</text>
</g>
<!-- Node1&#45;&gt;Node8 -->
<g id="edge32" class="edge"><title>Node1&#45;&gt;Node8</title>
<path fill="none" stroke="midnightblue" d="M479,-174.706C479,-155.568 479,-114.198 479,-89.2654"/>
<polygon fill="midnightblue" stroke="midnightblue" points="482.5,-89.1055 479,-79.1055 475.5,-89.1056 482.5,-89.1055"/>
</g>
<!-- Node3 -->
<g id="node5" class="node"><title>Node3</title>
<polygon fill="white" stroke="#bfbfbf" points="339.5,-59 339.5,-79 382.5,-79 382.5,-59 339.5,-59"/>
<text text-anchor="middle" x="361" y="-66" font-family="FreeSans" font-size="10.00">vector</text>
</g>
<!-- Node2&#45;&gt;Node3 -->
<g id="edge4" class="edge"><title>Node2&#45;&gt;Node3</title>
<path fill="none" stroke="midnightblue" d="M299.89,-116.897C310.896,-108.271 326.942,-95.6938 339.831,-85.592"/>
<polygon fill="midnightblue" stroke="midnightblue" points="342.048,-88.3012 347.76,-79.3776 337.73,-82.7918 342.048,-88.3012"/>
</g>
<!-- Node4 -->
<g id="node7" class="node"><title>Node4</title>
<polygon fill="white" stroke="#bfbfbf" points="400,-59 400,-79 444,-79 444,-59 400,-59"/>
<text text-anchor="middle" x="422" y="-66" font-family="FreeSans" font-size="10.00">cmath</text>
</g>
<!-- Node2&#45;&gt;Node4 -->
<g id="edge6" class="edge"><title>Node2&#45;&gt;Node4</title>
<path fill="none" stroke="midnightblue" d="M310.515,-116.897C332.657,-107.385 365.982,-93.0671 390.431,-82.5632"/>
<polygon fill="midnightblue" stroke="midnightblue" points="391.844,-85.7652 399.651,-78.6019 389.081,-79.3336 391.844,-85.7652"/>
</g>
<!-- Node5 -->
<g id="node9" class="node"><title>Node5</title>
<polygon fill="white" stroke="#bfbfbf" points="-0.5,-1 -0.5,-21 52.5,-21 52.5,-1 -0.5,-1"/>
<text text-anchor="middle" x="26" y="-8" font-family="FreeSans" font-size="10.00">iostream</text>
</g>
<!-- Node2&#45;&gt;Node5 -->
<g id="edge8" class="edge"><title>Node2&#45;&gt;Node5</title>
<path fill="none" stroke="midnightblue" d="M254.484,-124.437C197.128,-119.297 81.18,-105.935 51,-80 36.8476,-67.8385 30.706,-47.0095 28.0412,-31.4103"/>
<polygon fill="midnightblue" stroke="midnightblue" points="31.465,-30.6124 26.6505,-21.1747 24.5287,-31.5549 31.465,-30.6124"/>
</g>
<!-- Node6 -->
<g id="node11" class="node"><title>Node6</title>
<polygon fill="white" stroke="#bfbfbf" points="60,-59 60,-79 110,-79 110,-59 60,-59"/>
<text text-anchor="middle" x="85" y="-66" font-family="FreeSans" font-size="10.00">sstream</text>
</g>
<!-- Node2&#45;&gt;Node6 -->
<g id="edge10" class="edge"><title>Node2&#45;&gt;Node6</title>
<path fill="none" stroke="midnightblue" d="M254.368,-118.287C222.423,-109.666 172.158,-95.8589 119.977,-80.2224"/>
<polygon fill="midnightblue" stroke="midnightblue" points="120.8,-76.815 110.216,-77.2823 118.781,-83.5176 120.8,-76.815"/>
</g>
<!-- Node2&#45;&gt;Node7 -->
<g id="edge12" class="edge"><title>Node2&#45;&gt;Node7</title>
<path fill="none" stroke="midnightblue" d="M272.633,-116.992C255.261,-103.61 229.884,-79.1222 243,-58 246.826,-51.8392 281.963,-35.4439 308.398,-23.7547"/>
<polygon fill="midnightblue" stroke="midnightblue" points="309.918,-26.9103 317.67,-19.6888 307.106,-20.4996 309.918,-26.9103"/>
</g>
<!-- Node2&#45;&gt;Node8 -->
<g id="edge14" class="edge"><title>Node2&#45;&gt;Node8</title>
<path fill="none" stroke="midnightblue" d="M319.505,-119.074C351.267,-111.05 401.093,-97.7234 451.983,-80.0964"/>
<polygon fill="midnightblue" stroke="midnightblue" points="453.219,-83.3719 461.494,-76.7553 450.899,-76.7676 453.219,-83.3719"/>
</g>
<!-- Node9 -->
<g id="node17" class="node"><title>Node9</title>
<a xlink:href="debugUtils_8h.html" target="_top" xlink:title="debugUtils.h">
<polygon fill="white" stroke="black" points="127.5,-59 127.5,-79 196.5,-79 196.5,-59 127.5,-59"/>
<text text-anchor="middle" x="162" y="-66" font-family="FreeSans" font-size="10.00">debugUtils.h</text>
</a>
</g>
<!-- Node2&#45;&gt;Node9 -->
<g id="edge16" class="edge"><title>Node2&#45;&gt;Node9</title>
<path fill="none" stroke="midnightblue" d="M265.227,-116.897C245.274,-107.639 215.513,-93.83 193.066,-83.4145"/>
<polygon fill="midnightblue" stroke="midnightblue" points="194.487,-80.2158 183.943,-79.1817 191.541,-86.5656 194.487,-80.2158"/>
</g>
<!-- Node13 -->
<g id="node27" class="node"><title>Node13</title>
<polygon fill="white" stroke="#bfbfbf" points="251.5,-59 251.5,-79 322.5,-79 322.5,-59 251.5,-59"/>
<text text-anchor="middle" x="287" y="-66" font-family="FreeSans" font-size="10.00">Eigen/Dense</text>
</g>
<!-- Node2&#45;&gt;Node13 -->
<g id="edge28" class="edge"><title>Node2&#45;&gt;Node13</title>
<path fill="none" stroke="midnightblue" d="M287,-116.897C287,-109.339 287,-98.7476 287,-89.4458"/>
<polygon fill="midnightblue" stroke="midnightblue" points="290.5,-89.3776 287,-79.3776 283.5,-89.3776 290.5,-89.3776"/>
</g>
<!-- Node9&#45;&gt;Node5 -->
<g id="edge20" class="edge"><title>Node9&#45;&gt;Node5</title>
<path fill="none" stroke="midnightblue" d="M138.311,-58.8972C116.408,-49.5565 83.643,-35.5831 59.1473,-25.1363"/>
<polygon fill="midnightblue" stroke="midnightblue" points="60.4457,-21.8851 49.8742,-21.1817 57.6997,-28.324 60.4457,-21.8851"/>
</g>
<!-- Node9&#45;&gt;Node7 -->
<g id="edge18" class="edge"><title>Node9&#45;&gt;Node7</title>
<path fill="none" stroke="midnightblue" d="M195.153,-58.9513C223.07,-50.3675 264.247,-37.4239 308.323,-22.1293"/>
<polygon fill="midnightblue" stroke="midnightblue" points="309.482,-25.432 317.769,-18.8307 307.174,-18.8234 309.482,-25.432"/>
</g>
<!-- Node10 -->
<g id="node21" class="node"><title>Node10</title>
<polygon fill="white" stroke="#bfbfbf" points="69.5,-1 69.5,-21 118.5,-21 118.5,-1 69.5,-1"/>
<text text-anchor="middle" x="94" y="-8" font-family="FreeSans" font-size="10.00">fstream</text>
</g>
<!-- Node9&#45;&gt;Node10 -->
<g id="edge22" class="edge"><title>Node9&#45;&gt;Node10</title>
<path fill="none" stroke="midnightblue" d="M150.155,-58.8972C140.138,-50.3532 125.577,-37.933 113.792,-27.8813"/>
<polygon fill="midnightblue" stroke="midnightblue" points="116.047,-25.2042 106.167,-21.3776 111.504,-30.53 116.047,-25.2042"/>
</g>
<!-- Node11 -->
<g id="node23" class="node"><title>Node11</title>
<polygon fill="white" stroke="#bfbfbf" points="136,-1 136,-21 194,-21 194,-1 136,-1"/>
<text text-anchor="middle" x="165" y="-8" font-family="FreeSans" font-size="10.00">exception</text>
</g>
<!-- Node9&#45;&gt;Node11 -->
<g id="edge24" class="edge"><title>Node9&#45;&gt;Node11</title>
<path fill="none" stroke="midnightblue" d="M162.523,-58.8972C162.913,-51.339 163.461,-40.7476 163.942,-31.4458"/>
<polygon fill="midnightblue" stroke="midnightblue" points="167.442,-31.5451 164.463,-21.3776 160.451,-31.1834 167.442,-31.5451"/>
</g>
<!-- Node12 -->
<g id="node25" class="node"><title>Node12</title>
<polygon fill="white" stroke="#bfbfbf" points="211.5,-1 211.5,-21 300.5,-21 300.5,-1 211.5,-1"/>
<text text-anchor="middle" x="256" y="-8" font-family="FreeSans" font-size="10.00">boost/format.hpp</text>
</g>
<!-- Node9&#45;&gt;Node12 -->
<g id="edge26" class="edge"><title>Node9&#45;&gt;Node12</title>
<path fill="none" stroke="midnightblue" d="M178.374,-58.8972C192.842,-49.9698 214.169,-36.8106 230.809,-26.5431"/>
<polygon fill="midnightblue" stroke="midnightblue" points="232.826,-29.4114 239.499,-21.1817 229.15,-23.4541 232.826,-29.4114"/>
</g>
</g>
</svg>
