<?xml version="1.0" encoding="UTF-8" standalone="no"?>
<!DOCTYPE svg PUBLIC "-//W3C//DTD SVG 1.1//EN"
 "http://www.w3.org/Graphics/SVG/1.1/DTD/svg11.dtd">
<!-- Generated by graphviz version 8.1.0 (20230707.2238)
 -->
<!-- Title: src/quasi2d.h Pages: 1 -->
<svg width="732pt" height="199pt"
 viewBox="0.00 0.00 731.75 199.00" xmlns="http://www.w3.org/2000/svg" xmlns:xlink="http://www.w3.org/1999/xlink">
<g id="graph0" class="graph" transform="scale(1 1) rotate(0) translate(4 195)">
<title>src/quasi2d.h</title>
<!-- Node1 -->
<g id="Node000001" class="node">
<title>Node1</title>
<g id="a_Node000001"><a xlink:title=" ">
<polygon fill="#999999" stroke="#666666" points="565.12,-191 484.62,-191 484.62,-170.25 565.12,-170.25 565.12,-191"/>
<text text-anchor="middle" x="524.88" y="-177.5" font-family="FreeSans" font-size="10.00">src/quasi2d.h</text>
</a>
</g>
</g>
<!-- Node2 -->
<g id="Node000002" class="node">
<title>Node2</title>
<g id="a_Node000002"><a xlink:href="mathUtils_8h.html" target="_top" xlink:title=" ">
<polygon fill="white" stroke="#666666" points="529.38,-134.25 456.38,-134.25 456.38,-113.5 529.38,-113.5 529.38,-134.25"/>
<text text-anchor="middle" x="492.88" y="-120.75" font-family="FreeSans" font-size="10.00">mathUtils.h</text>
</a>
</g>
</g>
<!-- Node1&#45;&gt;Node2 -->
<g id="edge1_Node000001_Node000002" class="edge">
<title>Node1&#45;&gt;Node2</title>
<g id="a_edge1_Node000001_Node000002"><a xlink:title=" ">
<path fill="none" stroke="#63b8ff" d="M519.15,-169.84C514.97,-162.67 509.15,-152.73 504.06,-144.01"/>
<polygon fill="#63b8ff" stroke="#63b8ff" points="506.61,-142.45 498.55,-135.58 500.57,-145.98 506.61,-142.45"/>
</a>
</g>
</g>
<!-- Node8 -->
<g id="Node000008" class="node">
<title>Node8</title>
<g id="a_Node000008"><a xlink:title=" ">
<polygon fill="#e0e0e0" stroke="#999999" points="723.75,-77.5 686,-77.5 686,-56.75 723.75,-56.75 723.75,-77.5"/>
<text text-anchor="middle" x="704.88" y="-64" font-family="FreeSans" font-size="10.00">map</text>
</a>
</g>
</g>
<!-- Node1&#45;&gt;Node8 -->
<g id="edge16_Node000001_Node000008" class="edge">
<title>Node1&#45;&gt;Node8</title>
<g id="a_edge16_Node000001_Node000008"><a xlink:title=" ">
<path fill="none" stroke="#63b8ff" d="M540.53,-169.93C571.78,-150.57 642.12,-107 679.84,-83.63"/>
<polygon fill="#63b8ff" stroke="#63b8ff" points="681.47,-86.12 688.12,-77.88 677.78,-80.17 681.47,-86.12"/>
</a>
</g>
</g>
<!-- Node3 -->
<g id="Node000003" class="node">
<title>Node3</title>
<g id="a_Node000003"><a xlink:title=" ">
<polygon fill="#e0e0e0" stroke="#999999" points="565.25,-77.5 518.5,-77.5 518.5,-56.75 565.25,-56.75 565.25,-77.5"/>
<text text-anchor="middle" x="541.88" y="-64" font-family="FreeSans" font-size="10.00">vector</text>
</a>
</g>
</g>
<!-- Node2&#45;&gt;Node3 -->
<g id="edge2_Node000002_Node000003" class="edge">
<title>Node2&#45;&gt;Node3</title>
<g id="a_edge2_Node000002_Node000003"><a xlink:title=" ">
<path fill="none" stroke="#63b8ff" d="M501.64,-113.09C508.39,-105.53 517.92,-94.89 526.01,-85.85"/>
<polygon fill="#63b8ff" stroke="#63b8ff" points="528.13,-88.61 532.19,-78.83 522.91,-83.95 528.13,-88.61"/>
</a>
</g>
</g>
<!-- Node4 -->
<g id="Node000004" class="node">
<title>Node4</title>
<g id="a_Node000004"><a xlink:title=" ">
<polygon fill="#e0e0e0" stroke="#999999" points="630.25,-77.5 583.5,-77.5 583.5,-56.75 630.25,-56.75 630.25,-77.5"/>
<text text-anchor="middle" x="606.88" y="-64" font-family="FreeSans" font-size="10.00">cmath</text>
</a>
</g>
</g>
<!-- Node2&#45;&gt;Node4 -->
<g id="edge3_Node000002_Node000004" class="edge">
<title>Node2&#45;&gt;Node4</title>
<g id="a_edge3_Node000002_Node000004"><a xlink:title=" ">
<path fill="none" stroke="#63b8ff" d="M513.26,-113.09C530.93,-104.6 556.74,-92.2 576.79,-82.58"/>
<polygon fill="#63b8ff" stroke="#63b8ff" points="578.17,-85.31 585.67,-77.83 575.14,-79 578.17,-85.31"/>
</a>
</g>
</g>
<!-- Node5 -->
<g id="Node000005" class="node">
<title>Node5</title>
<g id="a_Node000005"><a xlink:title=" ">
<polygon fill="#e0e0e0" stroke="#999999" points="540.62,-20.75 481.12,-20.75 481.12,0 540.62,0 540.62,-20.75"/>
<text text-anchor="middle" x="510.88" y="-7.25" font-family="FreeSans" font-size="10.00">iostream</text>
</a>
</g>
</g>
<!-- Node2&#45;&gt;Node5 -->
<g id="edge4_Node000002_Node000005" class="edge">
<title>Node2&#45;&gt;Node5</title>
<g id="a_edge4_Node000002_Node000005"><a xlink:title=" ">
<path fill="none" stroke="#63b8ff" d="M529.75,-122.86C564.22,-120.64 614.01,-111.27 638.88,-77.5 664.35,-42.91 598.04,-24.97 551.63,-16.91"/>
<polygon fill="#63b8ff" stroke="#63b8ff" points="552.34,-13.32 541.91,-15.16 551.21,-20.22 552.34,-13.32"/>
</a>
</g>
</g>
<!-- Node6 -->
<g id="Node000006" class="node">
<title>Node6</title>
<g id="a_Node000006"><a xlink:title=" ">
<polygon fill="#e0e0e0" stroke="#999999" points="224.75,-77.5 169,-77.5 169,-56.75 224.75,-56.75 224.75,-77.5"/>
<text text-anchor="middle" x="196.88" y="-64" font-family="FreeSans" font-size="10.00">sstream</text>
</a>
</g>
</g>
<!-- Node2&#45;&gt;Node6 -->
<g id="edge5_Node000002_Node000006" class="edge">
<title>Node2&#45;&gt;Node6</title>
<g id="a_edge5_Node000002_Node000006"><a xlink:title=" ">
<path fill="none" stroke="#63b8ff" d="M456.25,-117.34C407.94,-109.85 320.06,-95.56 235.65,-77.76"/>
<polygon fill="#63b8ff" stroke="#63b8ff" points="236.62,-74.17 226.11,-75.51 235.16,-81.02 236.62,-74.17"/>
</a>
</g>
</g>
<!-- Node7 -->
<g id="Node000007" class="node">
<title>Node7</title>
<g id="a_Node000007"><a xlink:title=" ">
<polygon fill="#e0e0e0" stroke="#999999" points="43.75,-20.75 0,-20.75 0,0 43.75,0 43.75,-20.75"/>
<text text-anchor="middle" x="21.88" y="-7.25" font-family="FreeSans" font-size="10.00">string</text>
</a>
</g>
</g>
<!-- Node2&#45;&gt;Node7 -->
<g id="edge6_Node000002_Node000007" class="edge">
<title>Node2&#45;&gt;Node7</title>
<g id="a_edge6_Node000002_Node000007"><a xlink:title=" ">
<path fill="none" stroke="#63b8ff" d="M456.01,-123.01C364.39,-122.71 129.03,-117.91 63.88,-77.5 46.86,-66.94 35.52,-46.65 28.96,-31.32"/>
<polygon fill="#63b8ff" stroke="#63b8ff" points="31.92,-30.28 25.01,-22.24 25.4,-32.83 31.92,-30.28"/>
</a>
</g>
</g>
<!-- Node2&#45;&gt;Node8 -->
<g id="edge7_Node000002_Node000008" class="edge">
<title>Node2&#45;&gt;Node8</title>
<g id="a_edge7_Node000002_Node000008"><a xlink:title=" ">
<path fill="none" stroke="#63b8ff" d="M529.64,-113.88C565.88,-104.94 622.8,-90.69 671.88,-77.5 673,-77.2 674.14,-76.89 675.29,-76.57"/>
<polygon fill="#63b8ff" stroke="#63b8ff" points="676.01,-79.73 684.71,-73.67 674.13,-72.98 676.01,-79.73"/>
</a>
</g>
</g>
<!-- Node9 -->
<g id="Node000009" class="node">
<title>Node9</title>
<g id="a_Node000009"><a xlink:href="debugUtils_8h.html" target="_top" xlink:title=" ">
<polygon fill="white" stroke="#666666" points="150.62,-77.5 73.12,-77.5 73.12,-56.75 150.62,-56.75 150.62,-77.5"/>
<text text-anchor="middle" x="111.88" y="-64" font-family="FreeSans" font-size="10.00">debugUtils.h</text>
</a>
</g>
</g>
<!-- Node2&#45;&gt;Node9 -->
<g id="edge8_Node000002_Node000009" class="edge">
<title>Node2&#45;&gt;Node9</title>
<g id="a_edge8_Node000002_Node000009"><a xlink:title=" ">
<path fill="none" stroke="#63b8ff" d="M456.31,-118.59C396.76,-111.46 274.9,-96.24 161.47,-77.68"/>
<polygon fill="#63b8ff" stroke="#63b8ff" points="162.31,-74.11 151.87,-75.94 161.17,-81.02 162.31,-74.11"/>
</a>
</g>
</g>
<!-- Node13 -->
<g id="Node000013" class="node">
<title>Node13</title>
<g id="a_Node000013"><a xlink:title=" ">
<polygon fill="#e0e0e0" stroke="#999999" points="369,-77.5 242.75,-77.5 242.75,-56.75 369,-56.75 369,-77.5"/>
<text text-anchor="middle" x="305.88" y="-64" font-family="FreeSans" font-size="10.00">cantera/base/ct_defs.h</text>
</a>
</g>
</g>
<!-- Node2&#45;&gt;Node13 -->
<g id="edge14_Node000002_Node000013" class="edge">
<title>Node2&#45;&gt;Node13</title>
<g id="a_edge14_Node000002_Node000013"><a xlink:title=" ">
<path fill="none" stroke="#63b8ff" d="M459.44,-113.09C428.82,-104.12 383.3,-90.79 349.77,-80.98"/>
<polygon fill="#63b8ff" stroke="#63b8ff" points="350.91,-77.37 340.33,-77.92 348.95,-84.09 350.91,-77.37"/>
</a>
</g>
</g>
<!-- Node14 -->
<g id="Node000014" class="node">
<title>Node14</title>
<g id="a_Node000014"><a xlink:title=" ">
<polygon fill="#e0e0e0" stroke="#999999" points="500.25,-77.5 387.5,-77.5 387.5,-56.75 500.25,-56.75 500.25,-77.5"/>
<text text-anchor="middle" x="443.88" y="-64" font-family="FreeSans" font-size="10.00">eigen3/Eigen/Dense</text>
</a>
</g>
</g>
<!-- Node2&#45;&gt;Node14 -->
<g id="edge15_Node000002_Node000014" class="edge">
<title>Node2&#45;&gt;Node14</title>
<g id="a_edge15_Node000002_Node000014"><a xlink:title=" ">
<path fill="none" stroke="#63b8ff" d="M484.11,-113.09C477.36,-105.53 467.83,-94.89 459.74,-85.85"/>
<polygon fill="#63b8ff" stroke="#63b8ff" points="462.84,-83.95 453.56,-78.83 457.62,-88.61 462.84,-83.95"/>
</a>
</g>
</g>
<!-- Node9&#45;&gt;Node5 -->
<g id="edge10_Node000009_Node000005" class="edge">
<title>Node9&#45;&gt;Node5</title>
<g id="a_edge10_Node000009_Node000005"><a xlink:title=" ">
<path fill="none" stroke="#63b8ff" d="M150.87,-58.29C153.91,-57.75 156.94,-57.23 159.88,-56.75 271.68,-38.62 404.46,-23.08 470.04,-15.79"/>
<polygon fill="#63b8ff" stroke="#63b8ff" points="470.18,-19.19 479.73,-14.61 469.41,-12.23 470.18,-19.19"/>
</a>
</g>
</g>
<!-- Node9&#45;&gt;Node7 -->
<g id="edge9_Node000009_Node000007" class="edge">
<title>Node9&#45;&gt;Node7</title>
<g id="a_edge9_Node000009_Node000007"><a xlink:title=" ">
<path fill="none" stroke="#63b8ff" d="M95.78,-56.34C82.22,-48.08 62.57,-36.13 46.95,-26.63"/>
<polygon fill="#63b8ff" stroke="#63b8ff" points="49.19,-23.29 38.83,-21.08 45.55,-29.27 49.19,-23.29"/>
</a>
</g>
</g>
<!-- Node10 -->
<g id="Node000010" class="node">
<title>Node10</title>
<g id="a_Node000010"><a xlink:title=" ">
<polygon fill="#e0e0e0" stroke="#999999" points="234,-20.75 179.75,-20.75 179.75,0 234,0 234,-20.75"/>
<text text-anchor="middle" x="206.88" y="-7.25" font-family="FreeSans" font-size="10.00">fstream</text>
</a>
</g>
</g>
<!-- Node9&#45;&gt;Node10 -->
<g id="edge11_Node000009_Node000010" class="edge">
<title>Node9&#45;&gt;Node10</title>
<g id="a_edge11_Node000009_Node000010"><a xlink:title=" ">
<path fill="none" stroke="#63b8ff" d="M128.86,-56.34C143.31,-48.01 164.31,-35.91 180.88,-26.36"/>
<polygon fill="#63b8ff" stroke="#63b8ff" points="182.12,-29.1 189.04,-21.08 178.63,-23.04 182.12,-29.1"/>
</a>
</g>
</g>
<!-- Node11 -->
<g id="Node000011" class="node">
<title>Node11</title>
<g id="a_Node000011"><a xlink:title=" ">
<polygon fill="#e0e0e0" stroke="#999999" points="315.88,-20.75 251.88,-20.75 251.88,0 315.88,0 315.88,-20.75"/>
<text text-anchor="middle" x="283.88" y="-7.25" font-family="FreeSans" font-size="10.00">exception</text>
</a>
</g>
</g>
<!-- Node9&#45;&gt;Node11 -->
<g id="edge12_Node000009_Node000011" class="edge">
<title>Node9&#45;&gt;Node11</title>
<g id="a_edge12_Node000009_Node000011"><a xlink:title=" ">
<path fill="none" stroke="#63b8ff" d="M142.63,-56.34C170.54,-47.45 211.93,-34.27 242.7,-24.48"/>
<polygon fill="#63b8ff" stroke="#63b8ff" points="243.63,-27.54 252.1,-21.17 241.51,-20.87 243.63,-27.54"/>
</a>
</g>
</g>
<!-- Node12 -->
<g id="Node000012" class="node">
<title>Node12</title>
<g id="a_Node000012"><a xlink:title=" ">
<polygon fill="#e0e0e0" stroke="#999999" points="161.88,-20.75 61.88,-20.75 61.88,0 161.88,0 161.88,-20.75"/>
<text text-anchor="middle" x="111.88" y="-7.25" font-family="FreeSans" font-size="10.00">boost/format.hpp</text>
</a>
</g>
</g>
<!-- Node9&#45;&gt;Node12 -->
<g id="edge13_Node000009_Node000012" class="edge">
<title>Node9&#45;&gt;Node12</title>
<g id="a_edge13_Node000009_Node000012"><a xlink:title=" ">
<path fill="none" stroke="#63b8ff" d="M111.88,-56.34C111.88,-49.56 111.88,-40.3 111.88,-31.94"/>
<polygon fill="#63b8ff" stroke="#63b8ff" points="115.38,-32.08 111.88,-22.08 108.38,-32.08 115.38,-32.08"/>
</a>
</g>
</g>
</g>
</svg>
