<?xml version="1.0" encoding="UTF-8" standalone="no"?>
<!DOCTYPE svg PUBLIC "-//W3C//DTD SVG 1.1//EN"
 "http://www.w3.org/Graphics/SVG/1.1/DTD/svg11.dtd">
<!-- Generated by graphviz version 2.38.0 (20140413.2041)
 -->
<!-- Title: src/quasi2d.cpp Pages: 1 -->
<svg width="488pt" height="252pt"
 viewBox="0.00 0.00 488.00 252.00" xmlns="http://www.w3.org/2000/svg" xmlns:xlink="http://www.w3.org/1999/xlink">
<g id="graph0" class="graph" transform="scale(1 1) rotate(0) translate(4 248)">
<title>src/quasi2d.cpp</title>
<polygon fill="white" stroke="none" points="-4,4 -4,-248 484,-248 484,4 -4,4"/>
<!-- Node1 -->
<g id="node1" class="node"><title>Node1</title>
<polygon fill="#bfbfbf" stroke="black" points="287,-224.5 287,-243.5 370,-243.5 370,-224.5 287,-224.5"/>
<text text-anchor="middle" x="328.5" y="-231.5" font-family="FreeSans" font-size="10.00">src/quasi2d.cpp</text>
</g>
<!-- Node2 -->
<g id="node2" class="node"><title>Node2</title>
<g id="a_node2"><a xlink:href="quasi2d_8h.html" target="_top" xlink:title="quasi2d.h">
<polygon fill="white" stroke="black" points="300,-168.5 300,-187.5 357,-187.5 357,-168.5 300,-168.5"/>
<text text-anchor="middle" x="328.5" y="-175.5" font-family="FreeSans" font-size="10.00">quasi2d.h</text>
</a>
</g>
</g>
<!-- Node1&#45;&gt;Node2 -->
<g id="edge1" class="edge"><title>Node1&#45;&gt;Node2</title>
<path fill="none" stroke="midnightblue" d="M328.5,-224.083C328.5,-217.006 328.5,-206.861 328.5,-197.986"/>
<polygon fill="midnightblue" stroke="midnightblue" points="332,-197.751 328.5,-187.751 325,-197.751 332,-197.751"/>
</g>
<!-- Node3 -->
<g id="node3" class="node"><title>Node3</title>
<g id="a_node3"><a xlink:href="mathUtils_8h.html" target="_top" xlink:title="mathUtils.h">
<polygon fill="white" stroke="black" points="232,-112.5 232,-131.5 297,-131.5 297,-112.5 232,-112.5"/>
<text text-anchor="middle" x="264.5" y="-119.5" font-family="FreeSans" font-size="10.00">mathUtils.h</text>
</a>
</g>
</g>
<!-- Node2&#45;&gt;Node3 -->
<g id="edge2" class="edge"><title>Node2&#45;&gt;Node3</title>
<path fill="none" stroke="midnightblue" d="M318.217,-168.324C308.664,-160.263 294.22,-148.077 282.716,-138.369"/>
<polygon fill="midnightblue" stroke="midnightblue" points="284.87,-135.608 274.97,-131.834 280.356,-140.958 284.87,-135.608"/>
</g>
<!-- Node9 -->
<g id="node9" class="node"><title>Node9</title>
<polygon fill="white" stroke="#bfbfbf" points="445,-56.5 445,-75.5 480,-75.5 480,-56.5 445,-56.5"/>
<text text-anchor="middle" x="462.5" y="-63.5" font-family="FreeSans" font-size="10.00">map</text>
</g>
<!-- Node2&#45;&gt;Node9 -->
<g id="edge13" class="edge"><title>Node2&#45;&gt;Node9</title>
<path fill="none" stroke="midnightblue" d="M339.015,-168.368C361.716,-149.733 415.561,-105.532 444.064,-82.1338"/>
<polygon fill="midnightblue" stroke="midnightblue" points="446.526,-84.6416 452.034,-75.5914 442.084,-79.2311 446.526,-84.6416"/>
</g>
<!-- Node4 -->
<g id="node4" class="node"><title>Node4</title>
<polygon fill="white" stroke="#bfbfbf" points="0,-56.5 0,-75.5 43,-75.5 43,-56.5 0,-56.5"/>
<text text-anchor="middle" x="21.5" y="-63.5" font-family="FreeSans" font-size="10.00">vector</text>
</g>
<!-- Node3&#45;&gt;Node4 -->
<g id="edge3" class="edge"><title>Node3&#45;&gt;Node4</title>
<path fill="none" stroke="midnightblue" d="M231.642,-114.802C191.703,-107.099 122.069,-93.1253 52.8816,-75.9432"/>
<polygon fill="midnightblue" stroke="midnightblue" points="53.676,-72.5342 43.1251,-73.4978 51.9741,-79.3241 53.676,-72.5342"/>
</g>
<!-- Node5 -->
<g id="node5" class="node"><title>Node5</title>
<polygon fill="white" stroke="#bfbfbf" points="61.5,-56.5 61.5,-75.5 105.5,-75.5 105.5,-56.5 61.5,-56.5"/>
<text text-anchor="middle" x="83.5" y="-63.5" font-family="FreeSans" font-size="10.00">cmath</text>
</g>
<!-- Node3&#45;&gt;Node5 -->
<g id="edge4" class="edge"><title>Node3&#45;&gt;Node5</title>
<path fill="none" stroke="midnightblue" d="M235.82,-112.444C203.118,-102.687 149.788,-86.7764 115.69,-76.6036"/>
<polygon fill="midnightblue" stroke="midnightblue" points="116.353,-73.1489 105.769,-73.6439 114.351,-79.8568 116.353,-73.1489"/>
</g>
<!-- Node6 -->
<g id="node6" class="node"><title>Node6</title>
<polygon fill="white" stroke="#bfbfbf" points="171,-0.5 171,-19.5 224,-19.5 224,-0.5 171,-0.5"/>
<text text-anchor="middle" x="197.5" y="-7.5" font-family="FreeSans" font-size="10.00">iostream</text>
</g>
<!-- Node3&#45;&gt;Node6 -->
<g id="edge5" class="edge"><title>Node3&#45;&gt;Node6</title>
<path fill="none" stroke="midnightblue" d="M231.849,-117.638C205.529,-113.016 170.102,-102.042 152.5,-76 140.784,-58.6668 158.974,-38.9302 175.61,-25.7975"/>
<polygon fill="midnightblue" stroke="midnightblue" points="178.051,-28.3454 184.002,-19.5796 173.883,-22.7211 178.051,-28.3454"/>
</g>
<!-- Node7 -->
<g id="node7" class="node"><title>Node7</title>
<polygon fill="white" stroke="#bfbfbf" points="161.5,-56.5 161.5,-75.5 211.5,-75.5 211.5,-56.5 161.5,-56.5"/>
<text text-anchor="middle" x="186.5" y="-63.5" font-family="FreeSans" font-size="10.00">sstream</text>
</g>
<!-- Node3&#45;&gt;Node7 -->
<g id="edge6" class="edge"><title>Node3&#45;&gt;Node7</title>
<path fill="none" stroke="midnightblue" d="M251.968,-112.324C239.914,-103.979 221.473,-91.2122 207.231,-81.3524"/>
<polygon fill="midnightblue" stroke="midnightblue" points="209.215,-78.469 199.001,-75.6545 205.231,-84.2243 209.215,-78.469"/>
</g>
<!-- Node8 -->
<g id="node8" class="node"><title>Node8</title>
<polygon fill="white" stroke="#bfbfbf" points="275.5,-0.5 275.5,-19.5 315.5,-19.5 315.5,-0.5 275.5,-0.5"/>
<text text-anchor="middle" x="295.5" y="-7.5" font-family="FreeSans" font-size="10.00">string</text>
</g>
<!-- Node3&#45;&gt;Node8 -->
<g id="edge7" class="edge"><title>Node3&#45;&gt;Node8</title>
<path fill="none" stroke="midnightblue" d="M276.997,-112.302C287.374,-104.251 301.387,-91.245 307.5,-76 313.566,-60.8721 309.207,-42.5225 304.124,-29.1827"/>
<polygon fill="midnightblue" stroke="midnightblue" points="307.226,-27.5353 300.077,-19.7157 300.79,-30.2866 307.226,-27.5353"/>
</g>
<!-- Node3&#45;&gt;Node9 -->
<g id="edge8" class="edge"><title>Node3&#45;&gt;Node9</title>
<path fill="none" stroke="midnightblue" d="M297.044,-113.282C329.821,-105.334 382.017,-92.2024 435.328,-76.1986"/>
<polygon fill="midnightblue" stroke="midnightblue" points="436.383,-79.5359 444.938,-73.2853 434.353,-72.8369 436.383,-79.5359"/>
</g>
<!-- Node10 -->
<g id="node10" class="node"><title>Node10</title>
<g id="a_node10"><a xlink:href="debugUtils_8h.html" target="_top" xlink:title="debugUtils.h">
<polygon fill="white" stroke="red" points="230,-56.5 230,-75.5 299,-75.5 299,-56.5 230,-56.5"/>
<text text-anchor="middle" x="264.5" y="-63.5" font-family="FreeSans" font-size="10.00">debugUtils.h</text>
</a>
</g>
</g>
<!-- Node3&#45;&gt;Node10 -->
<g id="edge9" class="edge"><title>Node3&#45;&gt;Node10</title>
<path fill="none" stroke="midnightblue" d="M264.5,-112.083C264.5,-105.006 264.5,-94.8611 264.5,-85.9865"/>
<polygon fill="midnightblue" stroke="midnightblue" points="268,-85.751 264.5,-75.7511 261,-85.7511 268,-85.751"/>
</g>
<!-- Node11 -->
<g id="node11" class="node"><title>Node11</title>
<polygon fill="white" stroke="#bfbfbf" points="356,-56.5 356,-75.5 427,-75.5 427,-56.5 356,-56.5"/>
<text text-anchor="middle" x="391.5" y="-63.5" font-family="FreeSans" font-size="10.00">Eigen/Dense</text>
</g>
<!-- Node3&#45;&gt;Node11 -->
<g id="edge12" class="edge"><title>Node3&#45;&gt;Node11</title>
<path fill="none" stroke="midnightblue" d="M284.624,-112.444C305.524,-103.557 338.435,-89.5632 362.216,-79.4514"/>
<polygon fill="midnightblue" stroke="midnightblue" points="363.638,-82.6504 371.471,-75.5164 360.898,-76.2085 363.638,-82.6504"/>
</g>
<!-- Node10&#45;&gt;Node6 -->
<g id="edge11" class="edge"><title>Node10&#45;&gt;Node6</title>
<path fill="none" stroke="midnightblue" d="M253.735,-56.324C243.734,-48.2631 228.613,-36.0765 216.57,-26.3695"/>
<polygon fill="midnightblue" stroke="midnightblue" points="218.443,-23.3841 208.461,-19.8339 214.05,-28.8343 218.443,-23.3841"/>
</g>
<!-- Node10&#45;&gt;Node8 -->
<g id="edge10" class="edge"><title>Node10&#45;&gt;Node8</title>
<path fill="none" stroke="midnightblue" d="M269.619,-56.083C273.908,-48.6127 280.158,-37.7244 285.442,-28.5199"/>
<polygon fill="midnightblue" stroke="midnightblue" points="288.533,-30.1662 290.476,-19.7511 282.462,-26.6811 288.533,-30.1662"/>
</g>
</g>
</svg>
