<?xml version="1.0" encoding="UTF-8" standalone="no"?>
<!DOCTYPE svg PUBLIC "-//W3C//DTD SVG 1.1//EN"
 "http://www.w3.org/Graphics/SVG/1.1/DTD/svg11.dtd">
<!-- Generated by graphviz version 2.26.3 (20100126.1600)
 -->
<!-- Title: src/quasi2d.cpp Pages: 1 -->
<svg width="506pt" height="262pt"
 viewBox="0.00 0.00 506.00 262.00" xmlns="http://www.w3.org/2000/svg" xmlns:xlink="http://www.w3.org/1999/xlink">
<g id="graph1" class="graph" transform="scale(1 1) rotate(0) translate(4 258)">
<title>src/quasi2d.cpp</title>
<polygon fill="white" stroke="white" points="-4,5 -4,-258 503,-258 503,5 -4,5"/>
<!-- Node1 -->
<g id="node1" class="node"><title>Node1</title>
<polygon fill="#bfbfbf" stroke="black" points="415.5,-233 415.5,-253 498.5,-253 498.5,-233 415.5,-233"/>
<text text-anchor="middle" x="457" y="-240" font-family="FreeSans" font-size="10.00">src/quasi2d.cpp</text>
</g>
<!-- Node2 -->
<g id="node3" class="node"><title>Node2</title>
<a xlink:href="quasi2d_8h.html" target="_top" xlink:title="quasi2d.h">
<polygon fill="white" stroke="black" points="428.5,-175 428.5,-195 485.5,-195 485.5,-175 428.5,-175"/>
<text text-anchor="middle" x="457" y="-182" font-family="FreeSans" font-size="10.00">quasi2d.h</text>
</a>
</g>
<!-- Node1&#45;&gt;Node2 -->
<g id="edge2" class="edge"><title>Node1&#45;&gt;Node2</title>
<path fill="none" stroke="midnightblue" d="M457,-232.897C457,-225.339 457,-214.748 457,-205.446"/>
<polygon fill="midnightblue" stroke="midnightblue" points="460.5,-205.378 457,-195.378 453.5,-205.378 460.5,-205.378"/>
</g>
<!-- Node3 -->
<g id="node5" class="node"><title>Node3</title>
<a xlink:href="mathUtils_8h.html" target="_top" xlink:title="mathUtils.h">
<polygon fill="white" stroke="black" points="229.5,-117 229.5,-137 294.5,-137 294.5,-117 229.5,-117"/>
<text text-anchor="middle" x="262" y="-124" font-family="FreeSans" font-size="10.00">mathUtils.h</text>
</a>
</g>
<!-- Node2&#45;&gt;Node3 -->
<g id="edge4" class="edge"><title>Node2&#45;&gt;Node3</title>
<path fill="none" stroke="midnightblue" d="M428.227,-176.442C395.55,-166.723 341.919,-150.771 304.438,-139.623"/>
<polygon fill="midnightblue" stroke="midnightblue" points="305.386,-136.253 294.804,-136.757 303.391,-142.963 305.386,-136.253"/>
</g>
<!-- Node8 -->
<g id="node15" class="node"><title>Node8</title>
<polygon fill="white" stroke="#bfbfbf" points="304,-1 304,-21 344,-21 344,-1 304,-1"/>
<text text-anchor="middle" x="324" y="-8" font-family="FreeSans" font-size="10.00">string</text>
</g>
<!-- Node2&#45;&gt;Node8 -->
<g id="edge26" class="edge"><title>Node2&#45;&gt;Node8</title>
<path fill="none" stroke="midnightblue" d="M463.834,-174.951C478.606,-151.863 510.077,-94.2386 483,-58 467.554,-37.3269 395.744,-22.5562 354.103,-15.5613"/>
<polygon fill="midnightblue" stroke="midnightblue" points="354.652,-12.1046 344.219,-13.9516 353.526,-19.0136 354.652,-12.1046"/>
</g>
<!-- Node9 -->
<g id="node17" class="node"><title>Node9</title>
<polygon fill="white" stroke="#bfbfbf" points="439.5,-59 439.5,-79 474.5,-79 474.5,-59 439.5,-59"/>
<text text-anchor="middle" x="457" y="-66" font-family="FreeSans" font-size="10.00">map</text>
</g>
<!-- Node2&#45;&gt;Node9 -->
<g id="edge28" class="edge"><title>Node2&#45;&gt;Node9</title>
<path fill="none" stroke="midnightblue" d="M457,-174.706C457,-155.568 457,-114.198 457,-89.2654"/>
<polygon fill="midnightblue" stroke="midnightblue" points="460.5,-89.1055 457,-79.1055 453.5,-89.1056 460.5,-89.1055"/>
</g>
<!-- Node4 -->
<g id="node7" class="node"><title>Node4</title>
<polygon fill="white" stroke="#bfbfbf" points="-0.5,-59 -0.5,-79 42.5,-79 42.5,-59 -0.5,-59"/>
<text text-anchor="middle" x="21" y="-66" font-family="FreeSans" font-size="10.00">vector</text>
</g>
<!-- Node3&#45;&gt;Node4 -->
<g id="edge6" class="edge"><title>Node3&#45;&gt;Node4</title>
<path fill="none" stroke="midnightblue" d="M229.49,-121.145C189.715,-113.68 120.21,-99.6678 52.4909,-80.1895"/>
<polygon fill="midnightblue" stroke="midnightblue" points="53.0965,-76.7202 42.5163,-77.2761 51.1339,-83.4395 53.0965,-76.7202"/>
</g>
<!-- Node5 -->
<g id="node9" class="node"><title>Node5</title>
<polygon fill="white" stroke="#bfbfbf" points="60,-59 60,-79 104,-79 104,-59 60,-59"/>
<text text-anchor="middle" x="82" y="-66" font-family="FreeSans" font-size="10.00">cmath</text>
</g>
<!-- Node3&#45;&gt;Node5 -->
<g id="edge8" class="edge"><title>Node3&#45;&gt;Node5</title>
<path fill="none" stroke="midnightblue" d="M230.646,-116.897C197.876,-106.338 146.732,-89.8582 113.797,-79.2458"/>
<polygon fill="midnightblue" stroke="midnightblue" points="114.793,-75.8894 104.201,-76.1537 112.646,-82.5521 114.793,-75.8894"/>
</g>
<!-- Node6 -->
<g id="node11" class="node"><title>Node6</title>
<polygon fill="white" stroke="#bfbfbf" points="169.5,-1 169.5,-21 222.5,-21 222.5,-1 169.5,-1"/>
<text text-anchor="middle" x="196" y="-8" font-family="FreeSans" font-size="10.00">iostream</text>
</g>
<!-- Node3&#45;&gt;Node6 -->
<g id="edge10" class="edge"><title>Node3&#45;&gt;Node6</title>
<path fill="none" stroke="midnightblue" d="M229.324,-122.907C203.232,-117.729 168.28,-106.081 151,-80 139.121,-62.0699 156.729,-41.3935 173.279,-27.3855"/>
<polygon fill="midnightblue" stroke="midnightblue" points="175.545,-30.055 181.184,-21.0857 171.182,-24.5806 175.545,-30.055"/>
</g>
<!-- Node7 -->
<g id="node13" class="node"><title>Node7</title>
<polygon fill="white" stroke="#bfbfbf" points="160,-59 160,-79 210,-79 210,-59 160,-59"/>
<text text-anchor="middle" x="185" y="-66" font-family="FreeSans" font-size="10.00">sstream</text>
</g>
<!-- Node3&#45;&gt;Node7 -->
<g id="edge12" class="edge"><title>Node3&#45;&gt;Node7</title>
<path fill="none" stroke="midnightblue" d="M248.588,-116.897C237.065,-108.218 220.232,-95.5384 206.779,-85.4053"/>
<polygon fill="midnightblue" stroke="midnightblue" points="208.61,-82.4026 198.517,-79.1817 204.399,-87.9939 208.61,-82.4026"/>
</g>
<!-- Node3&#45;&gt;Node8 -->
<g id="edge14" class="edge"><title>Node3&#45;&gt;Node8</title>
<path fill="none" stroke="midnightblue" d="M273.885,-116.967C283.593,-108.16 296.976,-94.5197 305,-80 313.346,-64.8973 318.228,-45.8748 320.949,-31.6298"/>
<polygon fill="midnightblue" stroke="midnightblue" points="324.463,-31.8417 322.692,-21.396 317.562,-30.6662 324.463,-31.8417"/>
</g>
<!-- Node3&#45;&gt;Node9 -->
<g id="edge16" class="edge"><title>Node3&#45;&gt;Node9</title>
<path fill="none" stroke="midnightblue" d="M294.783,-119.218C327.104,-111.254 378.011,-97.9335 429.818,-80.1407"/>
<polygon fill="midnightblue" stroke="midnightblue" points="431.207,-83.3631 439.498,-76.7666 428.903,-76.7532 431.207,-83.3631"/>
</g>
<!-- Node10 -->
<g id="node19" class="node"><title>Node10</title>
<a xlink:href="debugUtils_8h.html" target="_top" xlink:title="debugUtils.h">
<polygon fill="white" stroke="red" points="227.5,-59 227.5,-79 296.5,-79 296.5,-59 227.5,-59"/>
<text text-anchor="middle" x="262" y="-66" font-family="FreeSans" font-size="10.00">debugUtils.h</text>
</a>
</g>
<!-- Node3&#45;&gt;Node10 -->
<g id="edge18" class="edge"><title>Node3&#45;&gt;Node10</title>
<path fill="none" stroke="midnightblue" d="M262,-116.897C262,-109.339 262,-98.7476 262,-89.4458"/>
<polygon fill="midnightblue" stroke="midnightblue" points="265.5,-89.3776 262,-79.3776 258.5,-89.3776 265.5,-89.3776"/>
</g>
<!-- Node11 -->
<g id="node23" class="node"><title>Node11</title>
<polygon fill="white" stroke="#bfbfbf" points="351.5,-59 351.5,-79 422.5,-79 422.5,-59 351.5,-59"/>
<text text-anchor="middle" x="387" y="-66" font-family="FreeSans" font-size="10.00">Eigen/Dense</text>
</g>
<!-- Node3&#45;&gt;Node11 -->
<g id="edge24" class="edge"><title>Node3&#45;&gt;Node11</title>
<path fill="none" stroke="midnightblue" d="M283.773,-116.897C303.726,-107.639 333.487,-93.83 355.934,-83.4145"/>
<polygon fill="midnightblue" stroke="midnightblue" points="357.459,-86.5656 365.057,-79.1817 354.513,-80.2158 357.459,-86.5656"/>
</g>
<!-- Node10&#45;&gt;Node6 -->
<g id="edge22" class="edge"><title>Node10&#45;&gt;Node6</title>
<path fill="none" stroke="midnightblue" d="M250.504,-58.8972C240.875,-50.4353 226.919,-38.1715 215.54,-28.1719"/>
<polygon fill="midnightblue" stroke="midnightblue" points="217.631,-25.3497 207.809,-21.3776 213.01,-30.6079 217.631,-25.3497"/>
</g>
<!-- Node10&#45;&gt;Node8 -->
<g id="edge20" class="edge"><title>Node10&#45;&gt;Node8</title>
<path fill="none" stroke="midnightblue" d="M272.8,-58.8972C281.757,-50.5175 294.7,-38.4093 305.332,-28.4638"/>
<polygon fill="midnightblue" stroke="midnightblue" points="307.995,-30.7652 312.907,-21.3776 303.213,-25.6532 307.995,-30.7652"/>
</g>
</g>
</svg>
