<?xml version="1.0" encoding="UTF-8" standalone="no"?>
<!DOCTYPE svg PUBLIC "-//W3C//DTD SVG 1.1//EN"
 "http://www.w3.org/Graphics/SVG/1.1/DTD/svg11.dtd">
<!-- Generated by graphviz version 8.1.0 (20230707.2238)
 -->
<!-- Title: src/quasi2d.h Pages: 1 -->
<svg width="452pt" height="199pt"
 viewBox="0.00 0.00 452.00 199.00" xmlns="http://www.w3.org/2000/svg" xmlns:xlink="http://www.w3.org/1999/xlink">
<g id="graph0" class="graph" transform="scale(1 1) rotate(0) translate(4 195)">
<title>src/quasi2d.h</title>
<!-- Node1 -->
<g id="Node000001" class="node">
<title>Node1</title>
<g id="a_Node000001"><a xlink:title=" ">
<polygon fill="#999999" stroke="#666666" points="266,-191 185.5,-191 185.5,-170.25 266,-170.25 266,-191"/>
<text text-anchor="middle" x="225.75" y="-177.5" font-family="FreeSans" font-size="10.00">src/quasi2d.h</text>
</a>
</g>
</g>
<!-- Node2 -->
<g id="Node000002" class="node">
<title>Node2</title>
<g id="a_Node000002"><a xlink:href="convectionSystem_8h.html" target="_top" xlink:title=" ">
<polygon fill="white" stroke="#666666" points="160.88,-134.25 28.62,-134.25 28.62,-113.5 160.88,-113.5 160.88,-134.25"/>
<text text-anchor="middle" x="94.75" y="-120.75" font-family="FreeSans" font-size="10.00">src/convectionSystem.h</text>
</a>
</g>
</g>
<!-- Node1&#45;&gt;Node2 -->
<g id="edge1_Node000001_Node000002" class="edge">
<title>Node1&#45;&gt;Node2</title>
<g id="a_edge1_Node000001_Node000002"><a xlink:title=" ">
<path fill="none" stroke="#63b8ff" d="M192.21,-165.61C168.95,-155.89 138.58,-143.19 117.97,-134.58"/>
<polygon fill="#63b8ff" stroke="#63b8ff" points="190.75,-169.21 201.33,-169.84 193.45,-162.75 190.75,-169.21"/>
</a>
</g>
</g>
<!-- Node4 -->
<g id="Node000004" class="node">
<title>Node4</title>
<g id="a_Node000004"><a xlink:href="flameSolver_8h.html" target="_top" xlink:title=" ">
<polygon fill="white" stroke="#666666" points="261.75,-77.5 161.75,-77.5 161.75,-56.75 261.75,-56.75 261.75,-77.5"/>
<text text-anchor="middle" x="211.75" y="-64" font-family="FreeSans" font-size="10.00">src/flameSolver.h</text>
</a>
</g>
</g>
<!-- Node1&#45;&gt;Node4 -->
<g id="edge5_Node000001_Node000004" class="edge">
<title>Node1&#45;&gt;Node4</title>
<g id="a_edge5_Node000001_Node000004"><a xlink:title=" ">
<path fill="none" stroke="#63b8ff" d="M216.06,-159.94C212.73,-152.14 209.42,-142.96 207.75,-134.25 203.95,-114.37 207.27,-90.57 209.71,-77.64"/>
<polygon fill="#63b8ff" stroke="#63b8ff" points="213.27,-161.23 220.62,-168.86 219.63,-158.31 213.27,-161.23"/>
</a>
</g>
</g>
<!-- Node6 -->
<g id="Node000006" class="node">
<title>Node6</title>
<g id="a_Node000006"><a xlink:href="quasi2d_8cpp.html" target="_top" xlink:title=" ">
<polygon fill="white" stroke="#666666" points="308.62,-134.25 216.88,-134.25 216.88,-113.5 308.62,-113.5 308.62,-134.25"/>
<text text-anchor="middle" x="262.75" y="-120.75" font-family="FreeSans" font-size="10.00">src/quasi2d.cpp</text>
</a>
</g>
</g>
<!-- Node1&#45;&gt;Node6 -->
<g id="edge6_Node000001_Node000006" class="edge">
<title>Node1&#45;&gt;Node6</title>
<g id="a_edge6_Node000001_Node000006"><a xlink:title=" ">
<path fill="none" stroke="#63b8ff" d="M238.37,-160.96C244.35,-152.09 251.26,-141.87 256.19,-134.58"/>
<polygon fill="#63b8ff" stroke="#63b8ff" points="235.06,-158.59 232.36,-168.84 240.86,-162.51 235.06,-158.59"/>
</a>
</g>
</g>
<!-- Node7 -->
<g id="Node000007" class="node">
<title>Node7</title>
<g id="a_Node000007"><a xlink:href="sourceSystem_8h.html" target="_top" xlink:title=" ">
<polygon fill="white" stroke="#666666" points="438.38,-134.25 327.12,-134.25 327.12,-113.5 438.38,-113.5 438.38,-134.25"/>
<text text-anchor="middle" x="382.75" y="-120.75" font-family="FreeSans" font-size="10.00">src/sourceSystem.h</text>
</a>
</g>
</g>
<!-- Node1&#45;&gt;Node7 -->
<g id="edge7_Node000001_Node000007" class="edge">
<title>Node1&#45;&gt;Node7</title>
<g id="a_edge7_Node000001_Node000007"><a xlink:title=" ">
<path fill="none" stroke="#63b8ff" d="M264.05,-166.27C292.05,-156.51 329.39,-143.48 354.66,-134.67"/>
<polygon fill="#63b8ff" stroke="#63b8ff" points="263.11,-163.24 254.82,-169.84 265.41,-169.85 263.11,-163.24"/>
</a>
</g>
</g>
<!-- Node3 -->
<g id="Node000003" class="node">
<title>Node3</title>
<g id="a_Node000003"><a xlink:href="convectionSystem_8cpp.html" target="_top" xlink:title=" ">
<polygon fill="white" stroke="#666666" points="143.5,-77.5 0,-77.5 0,-56.75 143.5,-56.75 143.5,-77.5"/>
<text text-anchor="middle" x="71.75" y="-64" font-family="FreeSans" font-size="10.00">src/convectionSystem.cpp</text>
</a>
</g>
</g>
<!-- Node2&#45;&gt;Node3 -->
<g id="edge2_Node000002_Node000003" class="edge">
<title>Node2&#45;&gt;Node3</title>
<g id="a_edge2_Node000002_Node000003"><a xlink:title=" ">
<path fill="none" stroke="#63b8ff" d="M86.43,-103.07C82.82,-94.48 78.76,-84.81 75.83,-77.83"/>
<polygon fill="#63b8ff" stroke="#63b8ff" points="83.54,-104.22 90.64,-112.09 89.99,-101.51 83.54,-104.22"/>
</a>
</g>
</g>
<!-- Node2&#45;&gt;Node4 -->
<g id="edge3_Node000002_Node000004" class="edge">
<title>Node2&#45;&gt;Node4</title>
<g id="a_edge3_Node000002_Node000004"><a xlink:title=" ">
<path fill="none" stroke="#63b8ff" d="M125.55,-108.46C146.21,-98.8 172.85,-86.33 191.01,-77.83"/>
<polygon fill="#63b8ff" stroke="#63b8ff" points="124.24,-105.68 116.67,-113.09 127.21,-112.02 124.24,-105.68"/>
</a>
</g>
</g>
<!-- Node5 -->
<g id="Node000005" class="node">
<title>Node5</title>
<g id="a_Node000005"><a xlink:href="flameSolver_8cpp.html" target="_top" xlink:title=" ">
<polygon fill="white" stroke="#666666" points="267.38,-20.75 156.12,-20.75 156.12,0 267.38,0 267.38,-20.75"/>
<text text-anchor="middle" x="211.75" y="-7.25" font-family="FreeSans" font-size="10.00">src/flameSolver.cpp</text>
</a>
</g>
</g>
<!-- Node4&#45;&gt;Node5 -->
<g id="edge4_Node000004_Node000005" class="edge">
<title>Node4&#45;&gt;Node5</title>
<g id="a_edge4_Node000004_Node000005"><a xlink:title=" ">
<path fill="none" stroke="#63b8ff" d="M211.75,-45.46C211.75,-37.09 211.75,-27.83 211.75,-21.08"/>
<polygon fill="#63b8ff" stroke="#63b8ff" points="208.25,-45.34 211.75,-55.34 215.25,-45.34 208.25,-45.34"/>
</a>
</g>
</g>
<!-- Node7&#45;&gt;Node4 -->
<g id="edge8_Node000007_Node000004" class="edge">
<title>Node7&#45;&gt;Node4</title>
<g id="a_edge8_Node000007_Node000004"><a xlink:title=" ">
<path fill="none" stroke="#63b8ff" d="M341.84,-109.78C311.26,-99.99 270.11,-86.81 242.34,-77.92"/>
<polygon fill="#63b8ff" stroke="#63b8ff" points="340.59,-113.37 351.18,-113.09 342.72,-106.7 340.59,-113.37"/>
</a>
</g>
</g>
<!-- Node8 -->
<g id="Node000008" class="node">
<title>Node8</title>
<g id="a_Node000008"><a xlink:href="sourceSystem_8cpp.html" target="_top" xlink:title=" ">
<polygon fill="white" stroke="#666666" points="444,-77.5 321.5,-77.5 321.5,-56.75 444,-56.75 444,-77.5"/>
<text text-anchor="middle" x="382.75" y="-64" font-family="FreeSans" font-size="10.00">src/sourceSystem.cpp</text>
</a>
</g>
</g>
<!-- Node7&#45;&gt;Node8 -->
<g id="edge9_Node000007_Node000008" class="edge">
<title>Node7&#45;&gt;Node8</title>
<g id="a_edge9_Node000007_Node000008"><a xlink:title=" ">
<path fill="none" stroke="#63b8ff" d="M382.75,-102.21C382.75,-93.84 382.75,-84.58 382.75,-77.83"/>
<polygon fill="#63b8ff" stroke="#63b8ff" points="379.25,-102.09 382.75,-112.09 386.25,-102.09 379.25,-102.09"/>
</a>
</g>
</g>
</g>
</svg>
