<?xml version="1.0" encoding="UTF-8" standalone="no"?>
<!DOCTYPE svg PUBLIC "-//W3C//DTD SVG 1.1//EN"
 "http://www.w3.org/Graphics/SVG/1.1/DTD/svg11.dtd">
<!-- Generated by graphviz version 2.26.3 (20100126.1600)
 -->
<!-- Title: src/quasi2d.h Pages: 1 -->
<svg width="427pt" height="204pt"
 viewBox="0.00 0.00 427.00 204.00" xmlns="http://www.w3.org/2000/svg" xmlns:xlink="http://www.w3.org/1999/xlink">
<g id="graph1" class="graph" transform="scale(1 1) rotate(0) translate(4 200)">
<title>src/quasi2d.h</title>
<polygon fill="white" stroke="white" points="-4,5 -4,-200 424,-200 424,5 -4,5"/>
<!-- Node1 -->
<g id="node1" class="node"><title>Node1</title>
<polygon fill="#bfbfbf" stroke="black" points="193.5,-175 193.5,-195 266.5,-195 266.5,-175 193.5,-175"/>
<text text-anchor="middle" x="230" y="-182" font-family="FreeSans" font-size="10.00">src/quasi2d.h</text>
</g>
<!-- Node2 -->
<g id="node3" class="node"><title>Node2</title>
<a xlink:href="convectionSystem_8h.html" target="_top" xlink:title="src/convectionSystem.h">
<polygon fill="white" stroke="black" points="44.5,-117 44.5,-137 163.5,-137 163.5,-117 44.5,-117"/>
<text text-anchor="middle" x="104" y="-124" font-family="FreeSans" font-size="10.00">src/convectionSystem.h</text>
</a>
</g>
<!-- Node1&#45;&gt;Node2 -->
<g id="edge2" class="edge"><title>Node1&#45;&gt;Node2</title>
<path fill="none" stroke="midnightblue" d="M198.878,-170.674C176.293,-160.278 146.287,-146.465 126.119,-137.182"/>
<polygon fill="midnightblue" stroke="midnightblue" points="197.505,-173.895 208.052,-174.897 200.432,-167.536 197.505,-173.895"/>
</g>
<!-- Node4 -->
<g id="node7" class="node"><title>Node4</title>
<a xlink:href="flameSolver_8h.html" target="_top" xlink:title="src/flameSolver.h">
<polygon fill="white" stroke="black" points="146,-59 146,-79 236,-79 236,-59 146,-59"/>
<text text-anchor="middle" x="191" y="-66" font-family="FreeSans" font-size="10.00">src/flameSolver.h</text>
</a>
</g>
<!-- Node1&#45;&gt;Node4 -->
<g id="edge16" class="edge"><title>Node1&#45;&gt;Node4</title>
<path fill="none" stroke="midnightblue" d="M220.987,-165.445C217.317,-157.09 213.197,-147.167 210,-138 202.882,-117.586 196.662,-93.0459 193.408,-79.4195"/>
<polygon fill="midnightblue" stroke="midnightblue" points="217.855,-167.016 225.146,-174.703 224.24,-164.147 217.855,-167.016"/>
</g>
<!-- Node6 -->
<g id="node11" class="node"><title>Node6</title>
<a xlink:href="sourceSystem_8h.html" target="_top" xlink:title="src/sourceSystem.h">
<polygon fill="white" stroke="black" points="218.5,-117 218.5,-137 319.5,-137 319.5,-117 218.5,-117"/>
<text text-anchor="middle" x="269" y="-124" font-family="FreeSans" font-size="10.00">src/sourceSystem.h</text>
</a>
</g>
<!-- Node1&#45;&gt;Node6 -->
<g id="edge10" class="edge"><title>Node1&#45;&gt;Node6</title>
<path fill="none" stroke="midnightblue" d="M242.514,-166.389C248.974,-156.782 256.612,-145.423 262.022,-137.378"/>
<polygon fill="midnightblue" stroke="midnightblue" points="239.469,-164.646 236.793,-174.897 245.278,-168.552 239.469,-164.646"/>
</g>
<!-- Node8 -->
<g id="node17" class="node"><title>Node8</title>
<a xlink:href="quasi2d_8cpp.html" target="_top" xlink:title="src/quasi2d.cpp">
<polygon fill="white" stroke="black" points="336.5,-117 336.5,-137 419.5,-137 419.5,-117 336.5,-117"/>
<text text-anchor="middle" x="378" y="-124" font-family="FreeSans" font-size="10.00">src/quasi2d.cpp</text>
</a>
</g>
<!-- Node1&#45;&gt;Node8 -->
<g id="edge18" class="edge"><title>Node1&#45;&gt;Node8</title>
<path fill="none" stroke="midnightblue" d="M265.143,-171.228C291.822,-160.773 327.907,-146.631 352.019,-137.182"/>
<polygon fill="midnightblue" stroke="midnightblue" points="263.813,-167.99 255.78,-174.897 266.367,-174.507 263.813,-167.99"/>
</g>
<!-- Node3 -->
<g id="node5" class="node"><title>Node3</title>
<a xlink:href="convectionSystem_8cpp.html" target="_top" xlink:title="src/convectionSystem.cpp">
<polygon fill="white" stroke="black" points="-0.5,-59 -0.5,-79 128.5,-79 128.5,-59 -0.5,-59"/>
<text text-anchor="middle" x="64" y="-66" font-family="FreeSans" font-size="10.00">src/convectionSystem.cpp</text>
</a>
</g>
<!-- Node2&#45;&gt;Node3 -->
<g id="edge4" class="edge"><title>Node2&#45;&gt;Node3</title>
<path fill="none" stroke="midnightblue" d="M91.1649,-108.389C84.5396,-98.7824 76.7055,-87.423 71.157,-79.3776"/>
<polygon fill="midnightblue" stroke="midnightblue" points="88.4739,-110.652 97.0325,-116.897 94.2364,-106.678 88.4739,-110.652"/>
</g>
<!-- Node2&#45;&gt;Node4 -->
<g id="edge6" class="edge"><title>Node2&#45;&gt;Node4</title>
<path fill="none" stroke="midnightblue" d="M127.607,-111.262C142.92,-101.054 162.424,-88.051 175.728,-79.1817"/>
<polygon fill="midnightblue" stroke="midnightblue" points="125.533,-108.438 119.154,-116.897 129.416,-114.262 125.533,-108.438"/>
</g>
<!-- Node5 -->
<g id="node9" class="node"><title>Node5</title>
<a xlink:href="flameSolver_8cpp.html" target="_top" xlink:title="src/flameSolver.cpp">
<polygon fill="white" stroke="black" points="140.5,-1 140.5,-21 241.5,-21 241.5,-1 140.5,-1"/>
<text text-anchor="middle" x="191" y="-8" font-family="FreeSans" font-size="10.00">src/flameSolver.cpp</text>
</a>
</g>
<!-- Node4&#45;&gt;Node5 -->
<g id="edge8" class="edge"><title>Node4&#45;&gt;Node5</title>
<path fill="none" stroke="midnightblue" d="M191,-48.8902C191,-39.6201 191,-29.0083 191,-21.3776"/>
<polygon fill="midnightblue" stroke="midnightblue" points="187.5,-48.8971 191,-58.8972 194.5,-48.8972 187.5,-48.8971"/>
</g>
<!-- Node6&#45;&gt;Node4 -->
<g id="edge12" class="edge"><title>Node6&#45;&gt;Node4</title>
<path fill="none" stroke="midnightblue" d="M247.061,-110.687C233.455,-100.569 216.397,-87.8852 204.693,-79.1817"/>
<polygon fill="midnightblue" stroke="midnightblue" points="245.3,-113.739 255.413,-116.897 249.477,-108.121 245.3,-113.739"/>
</g>
<!-- Node7 -->
<g id="node14" class="node"><title>Node7</title>
<a xlink:href="sourceSystem_8cpp.html" target="_top" xlink:title="src/sourceSystem.cpp">
<polygon fill="white" stroke="black" points="253.5,-59 253.5,-79 364.5,-79 364.5,-59 253.5,-59"/>
<text text-anchor="middle" x="309" y="-66" font-family="FreeSans" font-size="10.00">src/sourceSystem.cpp</text>
</a>
</g>
<!-- Node6&#45;&gt;Node7 -->
<g id="edge14" class="edge"><title>Node6&#45;&gt;Node7</title>
<path fill="none" stroke="midnightblue" d="M281.835,-108.389C288.46,-98.7824 296.294,-87.423 301.843,-79.3776"/>
<polygon fill="midnightblue" stroke="midnightblue" points="278.764,-106.678 275.967,-116.897 284.526,-110.652 278.764,-106.678"/>
</g>
</g>
</svg>
