<?xml version="1.0" encoding="UTF-8" standalone="no"?>
<!DOCTYPE svg PUBLIC "-//W3C//DTD SVG 1.1//EN"
 "http://www.w3.org/Graphics/SVG/1.1/DTD/svg11.dtd">
<!-- Generated by graphviz version 2.28.0 (20120425.2022)
 -->
<!-- Title: G Pages: 1 -->
<svg width="236pt" height="196pt"
 viewBox="0.00 0.00 236.00 196.00" xmlns="http://www.w3.org/2000/svg" xmlns:xlink="http://www.w3.org/1999/xlink">
<g id="graph1" class="graph" transform="scale(1 1) rotate(0) translate(4 192)">
<title>G</title>
<polygon fill="white" stroke="white" points="-4,5 -4,-192 233,-192 233,5 -4,5"/>
<!-- Node1 -->
<g id="node1" class="node"><title>Node1</title>
<polygon fill="#bfbfbf" stroke="black" points="52.5,-168.5 52.5,-187.5 139.5,-187.5 139.5,-168.5 52.5,-168.5"/>
<text text-anchor="middle" x="96" y="-175.5" font-family="FreeSans" font-size="10.00">src/quasi2d.cpp</text>
</g>
<!-- Node2 -->
<g id="node3" class="node"><title>Node2</title>
<a xlink:href="quasi2d_8h.html" target="_top" xlink:title="quasi2d.h">
<polygon fill="white" stroke="black" points="16,-112.5 16,-131.5 76,-131.5 76,-112.5 16,-112.5"/>
<text text-anchor="middle" x="46" y="-119.5" font-family="FreeSans" font-size="10.00">quasi2d.h</text>
</a>
</g>
<!-- Node1&#45;&gt;Node2 -->
<g id="edge2" class="edge"><title>Node1&#45;&gt;Node2</title>
<path fill="none" stroke="midnightblue" d="M87.7435,-168.083C80.5353,-160.298 69.8902,-148.801 61.1542,-139.367"/>
<polygon fill="midnightblue" stroke="midnightblue" points="63.4651,-136.711 54.1028,-131.751 58.3288,-141.467 63.4651,-136.711"/>
</g>
<!-- Node6 -->
<g id="node13" class="node"><title>Node6</title>
<a xlink:href="dataFile_8h.html" target="_top" xlink:title="dataFile.h">
<polygon fill="white" stroke="black" points="115.5,-112.5 115.5,-131.5 176.5,-131.5 176.5,-112.5 115.5,-112.5"/>
<text text-anchor="middle" x="146" y="-119.5" font-family="FreeSans" font-size="10.00">dataFile.h</text>
</a>
</g>
<!-- Node1&#45;&gt;Node6 -->
<g id="edge14" class="edge"><title>Node1&#45;&gt;Node6</title>
<path fill="none" stroke="midnightblue" d="M104.256,-168.083C111.465,-160.298 122.11,-148.801 130.846,-139.367"/>
<polygon fill="midnightblue" stroke="midnightblue" points="133.671,-141.467 137.897,-131.751 128.535,-136.711 133.671,-141.467"/>
</g>
<!-- Node3 -->
<g id="node5" class="node"><title>Node3</title>
<a xlink:href="mathUtils_8h.html" target="_top" xlink:title="mathUtils.h">
<polygon fill="white" stroke="red" points="63.5,-56.5 63.5,-75.5 128.5,-75.5 128.5,-56.5 63.5,-56.5"/>
<text text-anchor="middle" x="96" y="-63.5" font-family="FreeSans" font-size="10.00">mathUtils.h</text>
</a>
</g>
<!-- Node2&#45;&gt;Node3 -->
<g id="edge4" class="edge"><title>Node2&#45;&gt;Node3</title>
<path fill="none" stroke="midnightblue" d="M54.2565,-112.083C61.4647,-104.298 72.1098,-92.8015 80.8458,-83.3665"/>
<polygon fill="midnightblue" stroke="midnightblue" points="83.6712,-85.4666 87.8972,-75.7511 78.5349,-80.7108 83.6712,-85.4666"/>
</g>
<!-- Node4 -->
<g id="node7" class="node"><title>Node4</title>
<polygon fill="white" stroke="#bfbfbf" points="75.5,-0.5 75.5,-19.5 116.5,-19.5 116.5,-0.5 75.5,-0.5"/>
<text text-anchor="middle" x="96" y="-7.5" font-family="FreeSans" font-size="10.00">string</text>
</g>
<!-- Node2&#45;&gt;Node4 -->
<g id="edge10" class="edge"><title>Node2&#45;&gt;Node4</title>
<path fill="none" stroke="midnightblue" d="M45.4079,-112.119C44.9055,-99.1462 45.3441,-74.5451 54,-56 59.2748,-44.6988 68.4688,-34.3495 76.9124,-26.4329"/>
<polygon fill="midnightblue" stroke="midnightblue" points="79.4366,-28.8736 84.6255,-19.6364 74.8087,-23.6216 79.4366,-28.8736"/>
</g>
<!-- Node5 -->
<g id="node9" class="node"><title>Node5</title>
<polygon fill="white" stroke="#bfbfbf" points="0,-0.5 0,-19.5 36,-19.5 36,-0.5 0,-0.5"/>
<text text-anchor="middle" x="18" y="-7.5" font-family="FreeSans" font-size="10.00">map</text>
</g>
<!-- Node2&#45;&gt;Node5 -->
<g id="edge12" class="edge"><title>Node2&#45;&gt;Node5</title>
<path fill="none" stroke="midnightblue" d="M39.5094,-112.237C33.4755,-103.542 24.8563,-89.584 21,-76 16.705,-60.8707 16.1942,-42.9734 16.622,-29.7931"/>
<polygon fill="midnightblue" stroke="midnightblue" points="20.1273,-29.7859 17.1679,-19.6128 13.1373,-29.4109 20.1273,-29.7859"/>
</g>
<!-- Node3&#45;&gt;Node4 -->
<g id="edge6" class="edge"><title>Node3&#45;&gt;Node4</title>
<path fill="none" stroke="midnightblue" d="M96,-56.083C96,-49.0059 96,-38.8611 96,-29.9865"/>
<polygon fill="midnightblue" stroke="midnightblue" points="99.5001,-29.751 96,-19.7511 92.5001,-29.7511 99.5001,-29.751"/>
</g>
<!-- Node3&#45;&gt;Node5 -->
<g id="edge8" class="edge"><title>Node3&#45;&gt;Node5</title>
<path fill="none" stroke="midnightblue" d="M83.468,-56.324C71.4141,-47.979 52.9732,-35.2122 38.7313,-25.3524"/>
<polygon fill="midnightblue" stroke="midnightblue" points="40.7151,-22.469 30.5009,-19.6545 36.7306,-28.2243 40.7151,-22.469"/>
</g>
<!-- Node6&#45;&gt;Node3 -->
<g id="edge20" class="edge"><title>Node6&#45;&gt;Node3</title>
<path fill="none" stroke="midnightblue" d="M137.744,-112.083C130.535,-104.298 119.89,-92.8015 111.154,-83.3665"/>
<polygon fill="midnightblue" stroke="midnightblue" points="113.465,-80.7108 104.103,-75.7511 108.329,-85.4666 113.465,-80.7108"/>
</g>
<!-- Node6&#45;&gt;Node4 -->
<g id="edge16" class="edge"><title>Node6&#45;&gt;Node4</title>
<path fill="none" stroke="midnightblue" d="M146.392,-112.125C146.616,-99.16 145.702,-74.5683 137,-56 131.766,-44.8314 122.783,-34.4939 114.558,-26.5507"/>
<polygon fill="midnightblue" stroke="midnightblue" points="116.802,-23.861 107.05,-19.7198 112.091,-29.0385 116.802,-23.861"/>
</g>
<!-- Node7 -->
<g id="node16" class="node"><title>Node7</title>
<polygon fill="white" stroke="#bfbfbf" points="185.5,-56.5 185.5,-75.5 228.5,-75.5 228.5,-56.5 185.5,-56.5"/>
<text text-anchor="middle" x="207" y="-63.5" font-family="FreeSans" font-size="10.00">hdf5.h</text>
</g>
<!-- Node6&#45;&gt;Node7 -->
<g id="edge18" class="edge"><title>Node6&#45;&gt;Node7</title>
<path fill="none" stroke="midnightblue" d="M155.801,-112.324C164.818,-104.341 178.406,-92.3128 189.318,-82.6529"/>
<polygon fill="midnightblue" stroke="midnightblue" points="191.853,-85.083 197.021,-75.8339 187.213,-79.8416 191.853,-85.083"/>
</g>
</g>
</svg>
