<?xml version="1.0" encoding="UTF-8" standalone="no"?>
<!DOCTYPE svg PUBLIC "-//W3C//DTD SVG 1.1//EN"
 "http://www.w3.org/Graphics/SVG/1.1/DTD/svg11.dtd">
<!-- Generated by graphviz version 8.1.0 (20230707.2238)
 -->
<!-- Title: src/quasi2d.cpp Pages: 1 -->
<svg width="696pt" height="256pt"
 viewBox="0.00 0.00 696.25 255.75" xmlns="http://www.w3.org/2000/svg" xmlns:xlink="http://www.w3.org/1999/xlink">
<g id="graph0" class="graph" transform="scale(1 1) rotate(0) translate(4 251.75)">
<title>src/quasi2d.cpp</title>
<!-- Node1 -->
<g id="Node000001" class="node">
<title>Node1</title>
<g id="a_Node000001"><a xlink:title=" ">
<polygon fill="#999999" stroke="#666666" points="391.25,-247.75 299.5,-247.75 299.5,-227 391.25,-227 391.25,-247.75"/>
<text text-anchor="middle" x="345.38" y="-234.25" font-family="FreeSans" font-size="10.00">src/quasi2d.cpp</text>
</a>
</g>
</g>
<!-- Node2 -->
<g id="Node000002" class="node">
<title>Node2</title>
<g id="a_Node000002"><a xlink:href="quasi2d_8h.html" target="_top" xlink:title=" ">
<polygon fill="white" stroke="#666666" points="377,-191 313.75,-191 313.75,-170.25 377,-170.25 377,-191"/>
<text text-anchor="middle" x="345.38" y="-177.5" font-family="FreeSans" font-size="10.00">quasi2d.h</text>
</a>
</g>
</g>
<!-- Node1&#45;&gt;Node2 -->
<g id="edge1_Node000001_Node000002" class="edge">
<title>Node1&#45;&gt;Node2</title>
<g id="a_edge1_Node000001_Node000002"><a xlink:title=" ">
<path fill="none" stroke="#63b8ff" d="M345.38,-226.59C345.38,-219.81 345.38,-210.55 345.38,-202.19"/>
<polygon fill="#63b8ff" stroke="#63b8ff" points="348.88,-202.33 345.38,-192.33 341.88,-202.33 348.88,-202.33"/>
</a>
</g>
</g>
<!-- Node3 -->
<g id="Node000003" class="node">
<title>Node3</title>
<g id="a_Node000003"><a xlink:href="mathUtils_8h.html" target="_top" xlink:title=" ">
<polygon fill="white" stroke="#666666" points="349.88,-134.25 276.88,-134.25 276.88,-113.5 349.88,-113.5 349.88,-134.25"/>
<text text-anchor="middle" x="313.38" y="-120.75" font-family="FreeSans" font-size="10.00">mathUtils.h</text>
</a>
</g>
</g>
<!-- Node2&#45;&gt;Node3 -->
<g id="edge2_Node000002_Node000003" class="edge">
<title>Node2&#45;&gt;Node3</title>
<g id="a_edge2_Node000002_Node000003"><a xlink:title=" ">
<path fill="none" stroke="#63b8ff" d="M339.65,-169.84C335.47,-162.67 329.65,-152.73 324.56,-144.01"/>
<polygon fill="#63b8ff" stroke="#63b8ff" points="327.11,-142.45 319.05,-135.58 321.07,-145.98 327.11,-142.45"/>
</a>
</g>
</g>
<!-- Node9 -->
<g id="Node000009" class="node">
<title>Node9</title>
<g id="a_Node000009"><a xlink:title=" ">
<polygon fill="#e0e0e0" stroke="#999999" points="688.25,-77.5 650.5,-77.5 650.5,-56.75 688.25,-56.75 688.25,-77.5"/>
<text text-anchor="middle" x="669.38" y="-64" font-family="FreeSans" font-size="10.00">map</text>
</a>
</g>
</g>
<!-- Node2&#45;&gt;Node9 -->
<g id="edge14_Node000002_Node000009" class="edge">
<title>Node2&#45;&gt;Node9</title>
<g id="a_edge14_Node000002_Node000009"><a xlink:title=" ">
<path fill="none" stroke="#63b8ff" d="M373.84,-169.83C434.88,-148.82 577.81,-99.64 639.81,-78.3"/>
<polygon fill="#63b8ff" stroke="#63b8ff" points="640.75,-81.33 649.07,-74.77 638.47,-74.71 640.75,-81.33"/>
</a>
</g>
</g>
<!-- Node4 -->
<g id="Node000004" class="node">
<title>Node4</title>
<g id="a_Node000004"><a xlink:title=" ">
<polygon fill="#e0e0e0" stroke="#999999" points="46.75,-77.5 0,-77.5 0,-56.75 46.75,-56.75 46.75,-77.5"/>
<text text-anchor="middle" x="23.38" y="-64" font-family="FreeSans" font-size="10.00">vector</text>
</a>
</g>
</g>
<!-- Node3&#45;&gt;Node4 -->
<g id="edge3_Node000003_Node000004" class="edge">
<title>Node3&#45;&gt;Node4</title>
<g id="a_edge3_Node000003_Node000004"><a xlink:title=" ">
<path fill="none" stroke="#63b8ff" d="M276.54,-117.58C228.43,-110.4 141.42,-96.52 57.57,-77.57"/>
<polygon fill="#63b8ff" stroke="#63b8ff" points="58.62,-74 48.09,-75.18 57.06,-80.82 58.62,-74"/>
</a>
</g>
</g>
<!-- Node5 -->
<g id="Node000005" class="node">
<title>Node5</title>
<g id="a_Node000005"><a xlink:title=" ">
<polygon fill="#e0e0e0" stroke="#999999" points="111.75,-77.5 65,-77.5 65,-56.75 111.75,-56.75 111.75,-77.5"/>
<text text-anchor="middle" x="88.38" y="-64" font-family="FreeSans" font-size="10.00">cmath</text>
</a>
</g>
</g>
<!-- Node3&#45;&gt;Node5 -->
<g id="edge4_Node000003_Node000005" class="edge">
<title>Node3&#45;&gt;Node5</title>
<g id="a_edge4_Node000003_Node000005"><a xlink:title=" ">
<path fill="none" stroke="#63b8ff" d="M276.6,-114.13C238.68,-105.08 177.85,-90.48 125.38,-77.5 124.45,-77.27 123.5,-77.04 122.55,-76.8"/>
<polygon fill="#63b8ff" stroke="#63b8ff" points="123.8,-73.25 113.25,-74.22 122.1,-80.04 123.8,-73.25"/>
</a>
</g>
</g>
<!-- Node6 -->
<g id="Node000006" class="node">
<title>Node6</title>
<g id="a_Node000006"><a xlink:title=" ">
<polygon fill="#e0e0e0" stroke="#999999" points="238.12,-20.75 178.62,-20.75 178.62,0 238.12,0 238.12,-20.75"/>
<text text-anchor="middle" x="208.38" y="-7.25" font-family="FreeSans" font-size="10.00">iostream</text>
</a>
</g>
</g>
<!-- Node3&#45;&gt;Node6 -->
<g id="edge5_Node000003_Node000006" class="edge">
<title>Node3&#45;&gt;Node6</title>
<g id="a_edge5_Node000003_Node000006"><a xlink:title=" ">
<path fill="none" stroke="#63b8ff" d="M276.39,-117.22C235.21,-110.08 172.54,-96.41 158.38,-77.5 145.47,-60.28 164.7,-40.61 182.93,-27.24"/>
<polygon fill="#63b8ff" stroke="#63b8ff" points="184.41,-29.78 190.65,-21.21 180.43,-24.02 184.41,-29.78"/>
</a>
</g>
</g>
<!-- Node7 -->
<g id="Node000007" class="node">
<title>Node7</title>
<g id="a_Node000007"><a xlink:title=" ">
<polygon fill="#e0e0e0" stroke="#999999" points="223.25,-77.5 167.5,-77.5 167.5,-56.75 223.25,-56.75 223.25,-77.5"/>
<text text-anchor="middle" x="195.38" y="-64" font-family="FreeSans" font-size="10.00">sstream</text>
</a>
</g>
</g>
<!-- Node3&#45;&gt;Node7 -->
<g id="edge6_Node000003_Node000007" class="edge">
<title>Node3&#45;&gt;Node7</title>
<g id="a_edge6_Node000003_Node000007"><a xlink:title=" ">
<path fill="none" stroke="#63b8ff" d="M292.28,-113.09C273.9,-104.56 247.03,-92.09 226.23,-82.44"/>
<polygon fill="#63b8ff" stroke="#63b8ff" points="227.83,-78.86 217.29,-77.83 224.89,-85.21 227.83,-78.86"/>
</a>
</g>
</g>
<!-- Node8 -->
<g id="Node000008" class="node">
<title>Node8</title>
<g id="a_Node000008"><a xlink:title=" ">
<polygon fill="#e0e0e0" stroke="#999999" points="335.25,-20.75 291.5,-20.75 291.5,0 335.25,0 335.25,-20.75"/>
<text text-anchor="middle" x="313.38" y="-7.25" font-family="FreeSans" font-size="10.00">string</text>
</a>
</g>
</g>
<!-- Node3&#45;&gt;Node8 -->
<g id="edge7_Node000003_Node000008" class="edge">
<title>Node3&#45;&gt;Node8</title>
<g id="a_edge7_Node000003_Node000008"><a xlink:title=" ">
<path fill="none" stroke="#63b8ff" d="M317.65,-113.01C321.33,-103.97 326.34,-90.11 328.38,-77.5 329.84,-68.4 329.84,-65.85 328.38,-56.75 327.01,-48.27 324.3,-39.24 321.55,-31.48"/>
<polygon fill="#63b8ff" stroke="#63b8ff" points="324.48,-30.34 317.65,-22.24 317.94,-32.83 324.48,-30.34"/>
</a>
</g>
</g>
<!-- Node3&#45;&gt;Node9 -->
<g id="edge8_Node000003_Node000009" class="edge">
<title>Node3&#45;&gt;Node9</title>
<g id="a_edge8_Node000003_Node000009"><a xlink:title=" ">
<path fill="none" stroke="#63b8ff" d="M350.18,-120.03C409.39,-114.96 529.46,-102.7 639.6,-77.53"/>
<polygon fill="#63b8ff" stroke="#63b8ff" points="640.29,-80.73 649.23,-75.06 638.7,-73.92 640.29,-80.73"/>
</a>
</g>
</g>
<!-- Node10 -->
<g id="Node000010" class="node">
<title>Node10</title>
<g id="a_Node000010"><a xlink:href="debugUtils_8h.html" target="_top" xlink:title=" ">
<polygon fill="#fff0f0" stroke="red" points="319.12,-77.5 241.62,-77.5 241.62,-56.75 319.12,-56.75 319.12,-77.5"/>
<text text-anchor="middle" x="280.38" y="-64" font-family="FreeSans" font-size="10.00">debugUtils.h</text>
</a>
</g>
</g>
<!-- Node3&#45;&gt;Node10 -->
<g id="edge9_Node000003_Node000010" class="edge">
<title>Node3&#45;&gt;Node10</title>
<g id="a_edge9_Node000003_Node000010"><a xlink:title=" ">
<path fill="none" stroke="#63b8ff" d="M307.48,-113.09C303.11,-105.85 297.03,-95.76 291.74,-86.97"/>
<polygon fill="#63b8ff" stroke="#63b8ff" points="294.38,-85.59 286.22,-78.83 288.39,-89.2 294.38,-85.59"/>
</a>
</g>
</g>
<!-- Node14 -->
<g id="Node000014" class="node">
<title>Node14</title>
<g id="a_Node000014"><a xlink:title=" ">
<polygon fill="#e0e0e0" stroke="#999999" points="501.5,-77.5 375.25,-77.5 375.25,-56.75 501.5,-56.75 501.5,-77.5"/>
<text text-anchor="middle" x="438.38" y="-64" font-family="FreeSans" font-size="10.00">cantera/base/ct_defs.h</text>
</a>
</g>
</g>
<!-- Node3&#45;&gt;Node14 -->
<g id="edge12_Node000003_Node000014" class="edge">
<title>Node3&#45;&gt;Node14</title>
<g id="a_edge12_Node000003_Node000014"><a xlink:title=" ">
<path fill="none" stroke="#63b8ff" d="M335.72,-113.09C355.36,-104.48 384.18,-91.86 406.29,-82.18"/>
<polygon fill="#63b8ff" stroke="#63b8ff" points="407.47,-85.05 415.22,-77.83 404.66,-78.63 407.47,-85.05"/>
</a>
</g>
</g>
<!-- Node15 -->
<g id="Node000015" class="node">
<title>Node15</title>
<g id="a_Node000015"><a xlink:title=" ">
<polygon fill="#e0e0e0" stroke="#999999" points="632.75,-77.5 520,-77.5 520,-56.75 632.75,-56.75 632.75,-77.5"/>
<text text-anchor="middle" x="576.38" y="-64" font-family="FreeSans" font-size="10.00">eigen3/Eigen/Dense</text>
</a>
</g>
</g>
<!-- Node3&#45;&gt;Node15 -->
<g id="edge13_Node000003_Node000015" class="edge">
<title>Node3&#45;&gt;Node15</title>
<g id="a_edge13_Node000003_Node000015"><a xlink:title=" ">
<path fill="none" stroke="#63b8ff" d="M350.22,-115.2C393.91,-106.11 467.24,-90.84 518.52,-80.17"/>
<polygon fill="#63b8ff" stroke="#63b8ff" points="519.04,-83.43 528.11,-77.96 517.61,-76.58 519.04,-83.43"/>
</a>
</g>
</g>
<!-- Node10&#45;&gt;Node6 -->
<g id="edge11_Node000010_Node000006" class="edge">
<title>Node10&#45;&gt;Node6</title>
<g id="a_edge11_Node000010_Node000006"><a xlink:title=" ">
<path fill="none" stroke="#63b8ff" d="M267.5,-56.34C257.06,-48.4 242.11,-37.03 229.86,-27.71"/>
<polygon fill="#63b8ff" stroke="#63b8ff" points="232.21,-24.35 222.14,-21.08 227.98,-29.92 232.21,-24.35"/>
</a>
</g>
</g>
<!-- Node10&#45;&gt;Node8 -->
<g id="edge10_Node000010_Node000008" class="edge">
<title>Node10&#45;&gt;Node8</title>
<g id="a_edge10_Node000010_Node000008"><a xlink:title=" ">
<path fill="none" stroke="#63b8ff" d="M286.27,-56.34C290.64,-49.1 296.72,-39.01 302.01,-30.22"/>
<polygon fill="#63b8ff" stroke="#63b8ff" points="305.36,-32.45 307.53,-22.08 299.37,-28.84 305.36,-32.45"/>
</a>
</g>
</g>
</g>
</svg>
