<?xml version="1.0" encoding="UTF-8" standalone="no"?>
<!DOCTYPE svg PUBLIC "-//W3C//DTD SVG 1.1//EN"
 "http://www.w3.org/Graphics/SVG/1.1/DTD/svg11.dtd">
<!-- Generated by graphviz version 2.38.0 (20140413.2041)
 -->
<!-- Title: src/quasi2d.h Pages: 1 -->
<svg width="431pt" height="196pt"
 viewBox="0.00 0.00 431.00 196.00" xmlns="http://www.w3.org/2000/svg" xmlns:xlink="http://www.w3.org/1999/xlink">
<g id="graph0" class="graph" transform="scale(1 1) rotate(0) translate(4 192)">
<title>src/quasi2d.h</title>
<polygon fill="white" stroke="none" points="-4,4 -4,-192 427,-192 427,4 -4,4"/>
<!-- Node1 -->
<g id="node1" class="node"><title>Node1</title>
<polygon fill="#bfbfbf" stroke="black" points="195,-168.5 195,-187.5 268,-187.5 268,-168.5 195,-168.5"/>
<text text-anchor="middle" x="231.5" y="-175.5" font-family="FreeSans" font-size="10.00">src/quasi2d.h</text>
</g>
<!-- Node2 -->
<g id="node2" class="node"><title>Node2</title>
<g id="a_node2"><a xlink:href="convectionSystem_8h.html" target="_top" xlink:title="src/convectionSystem.h">
<polygon fill="white" stroke="black" points="45,-112.5 45,-131.5 164,-131.5 164,-112.5 45,-112.5"/>
<text text-anchor="middle" x="104.5" y="-119.5" font-family="FreeSans" font-size="10.00">src/convectionSystem.h</text>
</a>
</g>
</g>
<!-- Node1&#45;&gt;Node2 -->
<g id="edge1" class="edge"><title>Node1&#45;&gt;Node2</title>
<path fill="none" stroke="midnightblue" d="M202.109,-164.503C178.3,-154.38 145.394,-140.388 124.529,-131.516"/>
<polygon fill="midnightblue" stroke="midnightblue" points="200.804,-167.751 211.376,-168.444 203.543,-161.31 200.804,-167.751"/>
</g>
<!-- Node4 -->
<g id="node4" class="node"><title>Node4</title>
<g id="a_node4"><a xlink:href="flameSolver_8h.html" target="_top" xlink:title="src/flameSolver.h">
<polygon fill="white" stroke="black" points="147.5,-56.5 147.5,-75.5 237.5,-75.5 237.5,-56.5 147.5,-56.5"/>
<text text-anchor="middle" x="192.5" y="-63.5" font-family="FreeSans" font-size="10.00">src/flameSolver.h</text>
</a>
</g>
</g>
<!-- Node1&#45;&gt;Node4 -->
<g id="edge8" class="edge"><title>Node1&#45;&gt;Node4</title>
<path fill="none" stroke="midnightblue" d="M222.812,-158.946C219.073,-150.815 214.81,-141.031 211.5,-132 204.217,-112.13 197.783,-88.0672 194.604,-75.5311"/>
<polygon fill="midnightblue" stroke="midnightblue" points="219.733,-160.622 227.158,-168.18 226.067,-157.642 219.733,-160.622"/>
</g>
<!-- Node6 -->
<g id="node6" class="node"><title>Node6</title>
<g id="a_node6"><a xlink:href="sourceSystem_8h.html" target="_top" xlink:title="src/sourceSystem.h">
<polygon fill="white" stroke="black" points="221,-112.5 221,-131.5 322,-131.5 322,-112.5 221,-112.5"/>
<text text-anchor="middle" x="271.5" y="-119.5" font-family="FreeSans" font-size="10.00">src/sourceSystem.h</text>
</a>
</g>
</g>
<!-- Node1&#45;&gt;Node6 -->
<g id="edge5" class="edge"><title>Node1&#45;&gt;Node6</title>
<path fill="none" stroke="midnightblue" d="M244.2,-159.855C251.126,-150.505 259.406,-139.327 265.018,-131.751"/>
<polygon fill="midnightblue" stroke="midnightblue" points="241.245,-157.964 238.105,-168.083 246.87,-162.131 241.245,-157.964"/>
</g>
<!-- Node8 -->
<g id="node8" class="node"><title>Node8</title>
<g id="a_node8"><a xlink:href="quasi2d_8cpp.html" target="_top" xlink:title="src/quasi2d.cpp">
<polygon fill="white" stroke="black" points="340,-112.5 340,-131.5 423,-131.5 423,-112.5 340,-112.5"/>
<text text-anchor="middle" x="381.5" y="-119.5" font-family="FreeSans" font-size="10.00">src/quasi2d.cpp</text>
</a>
</g>
</g>
<!-- Node1&#45;&gt;Node8 -->
<g id="edge9" class="edge"><title>Node1&#45;&gt;Node8</title>
<path fill="none" stroke="midnightblue" d="M264.725,-165.039C292.948,-154.879 332.762,-140.546 357.843,-131.516"/>
<polygon fill="midnightblue" stroke="midnightblue" points="263.491,-161.763 255.268,-168.444 265.862,-168.349 263.491,-161.763"/>
</g>
<!-- Node3 -->
<g id="node3" class="node"><title>Node3</title>
<g id="a_node3"><a xlink:href="convectionSystem_8cpp.html" target="_top" xlink:title="src/convectionSystem.cpp">
<polygon fill="white" stroke="black" points="0,-56.5 0,-75.5 129,-75.5 129,-56.5 0,-56.5"/>
<text text-anchor="middle" x="64.5" y="-63.5" font-family="FreeSans" font-size="10.00">src/convectionSystem.cpp</text>
</a>
</g>
</g>
<!-- Node2&#45;&gt;Node3 -->
<g id="edge2" class="edge"><title>Node2&#45;&gt;Node3</title>
<path fill="none" stroke="midnightblue" d="M91.8003,-103.855C84.874,-94.5048 76.5937,-83.3265 70.9823,-75.7511"/>
<polygon fill="midnightblue" stroke="midnightblue" points="89.13,-106.131 97.8948,-112.083 94.755,-101.964 89.13,-106.131"/>
</g>
<!-- Node2&#45;&gt;Node4 -->
<g id="edge3" class="edge"><title>Node2&#45;&gt;Node4</title>
<path fill="none" stroke="midnightblue" d="M127.477,-106.901C143.613,-96.9986 164.681,-84.0705 178.396,-75.6545"/>
<polygon fill="midnightblue" stroke="midnightblue" points="125.331,-104.111 118.639,-112.324 128.993,-110.077 125.331,-104.111"/>
</g>
<!-- Node5 -->
<g id="node5" class="node"><title>Node5</title>
<g id="a_node5"><a xlink:href="flameSolver_8cpp.html" target="_top" xlink:title="src/flameSolver.cpp">
<polygon fill="white" stroke="black" points="142,-0.5 142,-19.5 243,-19.5 243,-0.5 142,-0.5"/>
<text text-anchor="middle" x="192.5" y="-7.5" font-family="FreeSans" font-size="10.00">src/flameSolver.cpp</text>
</a>
</g>
</g>
<!-- Node4&#45;&gt;Node5 -->
<g id="edge4" class="edge"><title>Node4&#45;&gt;Node5</title>
<path fill="none" stroke="midnightblue" d="M192.5,-45.8045C192.5,-36.9102 192.5,-26.7798 192.5,-19.7511"/>
<polygon fill="midnightblue" stroke="midnightblue" points="189,-46.083 192.5,-56.083 196,-46.083 189,-46.083"/>
</g>
<!-- Node6&#45;&gt;Node4 -->
<g id="edge6" class="edge"><title>Node6&#45;&gt;Node4</title>
<path fill="none" stroke="midnightblue" d="M250.466,-106.622C236.034,-96.7574 217.359,-83.9919 205.161,-75.6545"/>
<polygon fill="midnightblue" stroke="midnightblue" points="248.577,-109.57 258.807,-112.324 252.527,-103.791 248.577,-109.57"/>
</g>
<!-- Node7 -->
<g id="node7" class="node"><title>Node7</title>
<g id="a_node7"><a xlink:href="sourceSystem_8cpp.html" target="_top" xlink:title="src/sourceSystem.cpp">
<polygon fill="white" stroke="black" points="256,-56.5 256,-75.5 367,-75.5 367,-56.5 256,-56.5"/>
<text text-anchor="middle" x="311.5" y="-63.5" font-family="FreeSans" font-size="10.00">src/sourceSystem.cpp</text>
</a>
</g>
</g>
<!-- Node6&#45;&gt;Node7 -->
<g id="edge7" class="edge"><title>Node6&#45;&gt;Node7</title>
<path fill="none" stroke="midnightblue" d="M284.2,-103.855C291.126,-94.5048 299.406,-83.3265 305.018,-75.7511"/>
<polygon fill="midnightblue" stroke="midnightblue" points="281.245,-101.964 278.105,-112.083 286.87,-106.131 281.245,-101.964"/>
</g>
</g>
</svg>
