<?xml version="1.0" encoding="UTF-8" standalone="no"?>
<!DOCTYPE svg PUBLIC "-//W3C//DTD SVG 1.1//EN"
 "http://www.w3.org/Graphics/SVG/1.1/DTD/svg11.dtd">
<!-- Generated by graphviz version 2.28.0 (20120425.2022)
 -->
<!-- Title: G Pages: 1 -->
<svg width="519pt" height="196pt"
 viewBox="0.00 0.00 519.00 196.00" xmlns="http://www.w3.org/2000/svg" xmlns:xlink="http://www.w3.org/1999/xlink">
<g id="graph1" class="graph" transform="scale(1 1) rotate(0) translate(4 192)">
<title>G</title>
<polygon fill="white" stroke="white" points="-4,5 -4,-192 516,-192 516,5 -4,5"/>
<!-- Node1 -->
<g id="node1" class="node"><title>Node1</title>
<polygon fill="#bfbfbf" stroke="black" points="434.5,-168.5 434.5,-187.5 511.5,-187.5 511.5,-168.5 434.5,-168.5"/>
<text text-anchor="middle" x="473" y="-175.5" font-family="FreeSans" font-size="10.00">src/quasi2d.h</text>
</g>
<!-- Node2 -->
<g id="node3" class="node"><title>Node2</title>
<a xlink:href="mathUtils_8h.html" target="_top" xlink:title="mathUtils.h">
<polygon fill="white" stroke="black" points="236.5,-112.5 236.5,-131.5 301.5,-131.5 301.5,-112.5 236.5,-112.5"/>
<text text-anchor="middle" x="269" y="-119.5" font-family="FreeSans" font-size="10.00">mathUtils.h</text>
</a>
</g>
<!-- Node1&#45;&gt;Node2 -->
<g id="edge2" class="edge"><title>Node1&#45;&gt;Node2</title>
<path fill="none" stroke="midnightblue" d="M440.676,-168.444C405.611,-159.162 349.502,-144.309 311.035,-134.127"/>
<polygon fill="midnightblue" stroke="midnightblue" points="311.736,-130.692 301.173,-131.516 309.945,-137.459 311.736,-130.692"/>
</g>
<!-- Node7 -->
<g id="node13" class="node"><title>Node7</title>
<polygon fill="white" stroke="#bfbfbf" points="312.5,-0.5 312.5,-19.5 353.5,-19.5 353.5,-0.5 312.5,-0.5"/>
<text text-anchor="middle" x="333" y="-7.5" font-family="FreeSans" font-size="10.00">string</text>
</g>
<!-- Node1&#45;&gt;Node7 -->
<g id="edge24" class="edge"><title>Node1&#45;&gt;Node7</title>
<path fill="none" stroke="midnightblue" d="M479.195,-168.365C493.704,-146.995 526.705,-90.8535 500,-56 483.508,-34.4759 407.165,-20.9244 363.629,-14.8094"/>
<polygon fill="midnightblue" stroke="midnightblue" points="363.961,-11.3224 353.582,-13.4482 363.021,-18.2591 363.961,-11.3224"/>
</g>
<!-- Node8 -->
<g id="node15" class="node"><title>Node8</title>
<polygon fill="white" stroke="#bfbfbf" points="455,-56.5 455,-75.5 491,-75.5 491,-56.5 455,-56.5"/>
<text text-anchor="middle" x="473" y="-63.5" font-family="FreeSans" font-size="10.00">map</text>
</g>
<!-- Node1&#45;&gt;Node8 -->
<g id="edge26" class="edge"><title>Node1&#45;&gt;Node8</title>
<path fill="none" stroke="midnightblue" d="M473,-168.368C473,-150.617 473,-109.666 473,-85.5974"/>
<polygon fill="midnightblue" stroke="midnightblue" points="476.5,-85.5914 473,-75.5914 469.5,-85.5915 476.5,-85.5914"/>
</g>
<!-- Node3 -->
<g id="node5" class="node"><title>Node3</title>
<polygon fill="white" stroke="#bfbfbf" points="0,-56.5 0,-75.5 44,-75.5 44,-56.5 0,-56.5"/>
<text text-anchor="middle" x="22" y="-63.5" font-family="FreeSans" font-size="10.00">vector</text>
</g>
<!-- Node2&#45;&gt;Node3 -->
<g id="edge4" class="edge"><title>Node2&#45;&gt;Node3</title>
<path fill="none" stroke="midnightblue" d="M236.254,-114.994C195.689,-107.375 124.277,-93.3843 54.175,-76.149"/>
<polygon fill="midnightblue" stroke="midnightblue" points="54.8441,-72.7089 44.2953,-73.6958 53.1571,-79.5026 54.8441,-72.7089"/>
</g>
<!-- Node4 -->
<g id="node7" class="node"><title>Node4</title>
<polygon fill="white" stroke="#bfbfbf" points="62,-56.5 62,-75.5 106,-75.5 106,-56.5 62,-56.5"/>
<text text-anchor="middle" x="84" y="-63.5" font-family="FreeSans" font-size="10.00">cmath</text>
</g>
<!-- Node2&#45;&gt;Node4 -->
<g id="edge6" class="edge"><title>Node2&#45;&gt;Node4</title>
<path fill="none" stroke="midnightblue" d="M239.686,-112.444C205.932,-102.591 150.676,-86.4621 115.876,-76.3044"/>
<polygon fill="midnightblue" stroke="midnightblue" points="116.789,-72.9249 106.209,-73.4826 114.828,-79.6445 116.789,-72.9249"/>
</g>
<!-- Node5 -->
<g id="node9" class="node"><title>Node5</title>
<polygon fill="white" stroke="#bfbfbf" points="172,-0.5 172,-19.5 228,-19.5 228,-0.5 172,-0.5"/>
<text text-anchor="middle" x="200" y="-7.5" font-family="FreeSans" font-size="10.00">iostream</text>
</g>
<!-- Node2&#45;&gt;Node5 -->
<g id="edge8" class="edge"><title>Node2&#45;&gt;Node5</title>
<path fill="none" stroke="midnightblue" d="M236.305,-118.168C208.966,-113.877 171.549,-103.092 153,-76 140.898,-58.3244 160.31,-38.4214 177.733,-25.3501"/>
<polygon fill="midnightblue" stroke="midnightblue" points="179.833,-28.1516 185.98,-19.5217 175.793,-22.4352 179.833,-28.1516"/>
</g>
<!-- Node6 -->
<g id="node11" class="node"><title>Node6</title>
<polygon fill="white" stroke="#bfbfbf" points="162.5,-56.5 162.5,-75.5 215.5,-75.5 215.5,-56.5 162.5,-56.5"/>
<text text-anchor="middle" x="189" y="-63.5" font-family="FreeSans" font-size="10.00">sstream</text>
</g>
<!-- Node2&#45;&gt;Node6 -->
<g id="edge10" class="edge"><title>Node2&#45;&gt;Node6</title>
<path fill="none" stroke="midnightblue" d="M256.147,-112.324C243.784,-103.979 224.87,-91.2122 210.263,-81.3524"/>
<polygon fill="midnightblue" stroke="midnightblue" points="212.068,-78.3483 201.821,-75.6545 208.152,-84.1503 212.068,-78.3483"/>
</g>
<!-- Node2&#45;&gt;Node7 -->
<g id="edge12" class="edge"><title>Node2&#45;&gt;Node7</title>
<path fill="none" stroke="midnightblue" d="M279.909,-112.472C289.857,-104.157 304.29,-90.652 313,-76 321.578,-61.5694 326.797,-43.1169 329.742,-29.562"/>
<polygon fill="midnightblue" stroke="midnightblue" points="333.221,-30.0093 331.705,-19.5235 326.351,-28.666 333.221,-30.0093"/>
</g>
<!-- Node2&#45;&gt;Node8 -->
<g id="edge14" class="edge"><title>Node2&#45;&gt;Node8</title>
<path fill="none" stroke="midnightblue" d="M301.598,-113.293C337.048,-104.765 395.301,-90.3267 445,-76 445.101,-75.9708 445.203,-75.9415 445.304,-75.9122"/>
<polygon fill="midnightblue" stroke="midnightblue" points="446.426,-79.2294 454.975,-72.9713 444.389,-72.5322 446.426,-79.2294"/>
</g>
<!-- Node9 -->
<g id="node17" class="node"><title>Node9</title>
<a xlink:href="debugUtils_8h.html" target="_top" xlink:title="debugUtils.h">
<polygon fill="white" stroke="red" points="233.5,-56.5 233.5,-75.5 304.5,-75.5 304.5,-56.5 233.5,-56.5"/>
<text text-anchor="middle" x="269" y="-63.5" font-family="FreeSans" font-size="10.00">debugUtils.h</text>
</a>
</g>
<!-- Node2&#45;&gt;Node9 -->
<g id="edge16" class="edge"><title>Node2&#45;&gt;Node9</title>
<path fill="none" stroke="midnightblue" d="M269,-112.083C269,-105.006 269,-94.8611 269,-85.9865"/>
<polygon fill="midnightblue" stroke="midnightblue" points="272.5,-85.751 269,-75.7511 265.5,-85.7511 272.5,-85.751"/>
</g>
<!-- Node10 -->
<g id="node21" class="node"><title>Node10</title>
<polygon fill="white" stroke="#bfbfbf" points="361.5,-56.5 361.5,-75.5 436.5,-75.5 436.5,-56.5 361.5,-56.5"/>
<text text-anchor="middle" x="399" y="-63.5" font-family="FreeSans" font-size="10.00">Eigen/Dense</text>
</g>
<!-- Node2&#45;&gt;Node10 -->
<g id="edge22" class="edge"><title>Node2&#45;&gt;Node10</title>
<path fill="none" stroke="midnightblue" d="M289.599,-112.444C310.993,-103.557 344.681,-89.5632 369.024,-79.4514"/>
<polygon fill="midnightblue" stroke="midnightblue" points="370.605,-82.5848 378.497,-75.5164 367.92,-76.1203 370.605,-82.5848"/>
</g>
<!-- Node9&#45;&gt;Node5 -->
<g id="edge20" class="edge"><title>Node9&#45;&gt;Node5</title>
<path fill="none" stroke="midnightblue" d="M257.914,-56.324C247.514,-48.1849 231.739,-35.8395 219.278,-26.0874"/>
<polygon fill="midnightblue" stroke="midnightblue" points="221.32,-23.2407 211.288,-19.8339 217.006,-28.7533 221.32,-23.2407"/>
</g>
<!-- Node9&#45;&gt;Node7 -->
<g id="edge18" class="edge"><title>Node9&#45;&gt;Node7</title>
<path fill="none" stroke="midnightblue" d="M279.283,-56.324C288.836,-48.2631 303.28,-36.0765 314.784,-26.3695"/>
<polygon fill="midnightblue" stroke="midnightblue" points="317.144,-28.9577 322.53,-19.8339 312.63,-23.6076 317.144,-28.9577"/>
</g>
</g>
</svg>
