<?xml version="1.0" encoding="UTF-8" standalone="no"?>
<!DOCTYPE svg PUBLIC "-//W3C//DTD SVG 1.1//EN"
 "http://www.w3.org/Graphics/SVG/1.1/DTD/svg11.dtd">
<!-- Generated by graphviz version 2.38.0 (20140413.2041)
 -->
<!-- Title: src/quasi2d.h Pages: 1 -->
<svg width="519pt" height="196pt"
 viewBox="0.00 0.00 518.50 196.00" xmlns="http://www.w3.org/2000/svg" xmlns:xlink="http://www.w3.org/1999/xlink">
<g id="graph0" class="graph" transform="scale(1 1) rotate(0) translate(4 192)">
<title>src/quasi2d.h</title>
<polygon fill="white" stroke="none" points="-4,4 -4,-192 514.5,-192 514.5,4 -4,4"/>
<!-- Node1 -->
<g id="node1" class="node"><title>Node1</title>
<polygon fill="#bfbfbf" stroke="black" points="352.5,-168.5 352.5,-187.5 425.5,-187.5 425.5,-168.5 352.5,-168.5"/>
<text text-anchor="middle" x="389" y="-175.5" font-family="FreeSans" font-size="10.00">src/quasi2d.h</text>
</g>
<!-- Node2 -->
<g id="node2" class="node"><title>Node2</title>
<g id="a_node2"><a xlink:href="mathUtils_8h.html" target="_top" xlink:title="mathUtils.h">
<polygon fill="white" stroke="black" points="302.5,-112.5 302.5,-131.5 367.5,-131.5 367.5,-112.5 302.5,-112.5"/>
<text text-anchor="middle" x="335" y="-119.5" font-family="FreeSans" font-size="10.00">mathUtils.h</text>
</a>
</g>
</g>
<!-- Node1&#45;&gt;Node2 -->
<g id="edge1" class="edge"><title>Node1&#45;&gt;Node2</title>
<path fill="none" stroke="midnightblue" d="M380.083,-168.083C372.22,-160.22 360.569,-148.569 351.081,-139.081"/>
<polygon fill="midnightblue" stroke="midnightblue" points="353.297,-136.347 343.751,-131.751 348.347,-141.297 353.297,-136.347"/>
</g>
<!-- Node8 -->
<g id="node8" class="node"><title>Node8</title>
<polygon fill="white" stroke="#bfbfbf" points="475.5,-56.5 475.5,-75.5 510.5,-75.5 510.5,-56.5 475.5,-56.5"/>
<text text-anchor="middle" x="493" y="-63.5" font-family="FreeSans" font-size="10.00">map</text>
</g>
<!-- Node1&#45;&gt;Node8 -->
<g id="edge15" class="edge"><title>Node1&#45;&gt;Node8</title>
<path fill="none" stroke="midnightblue" d="M397.161,-168.368C414.552,-149.974 455.493,-106.671 477.824,-83.0519"/>
<polygon fill="midnightblue" stroke="midnightblue" points="480.55,-85.2625 484.877,-75.5914 475.464,-80.4534 480.55,-85.2625"/>
</g>
<!-- Node3 -->
<g id="node3" class="node"><title>Node3</title>
<polygon fill="white" stroke="#bfbfbf" points="313.5,-56.5 313.5,-75.5 356.5,-75.5 356.5,-56.5 313.5,-56.5"/>
<text text-anchor="middle" x="335" y="-63.5" font-family="FreeSans" font-size="10.00">vector</text>
</g>
<!-- Node2&#45;&gt;Node3 -->
<g id="edge2" class="edge"><title>Node2&#45;&gt;Node3</title>
<path fill="none" stroke="midnightblue" d="M335,-112.083C335,-105.006 335,-94.8611 335,-85.9865"/>
<polygon fill="midnightblue" stroke="midnightblue" points="338.5,-85.751 335,-75.7511 331.5,-85.7511 338.5,-85.751"/>
</g>
<!-- Node4 -->
<g id="node4" class="node"><title>Node4</title>
<polygon fill="white" stroke="#bfbfbf" points="375,-56.5 375,-75.5 419,-75.5 419,-56.5 375,-56.5"/>
<text text-anchor="middle" x="397" y="-63.5" font-family="FreeSans" font-size="10.00">cmath</text>
</g>
<!-- Node2&#45;&gt;Node4 -->
<g id="edge3" class="edge"><title>Node2&#45;&gt;Node4</title>
<path fill="none" stroke="midnightblue" d="M344.961,-112.324C354.127,-104.341 367.937,-92.3128 379.028,-82.6529"/>
<polygon fill="midnightblue" stroke="midnightblue" points="381.615,-85.041 386.857,-75.8339 377.018,-79.7624 381.615,-85.041"/>
</g>
<!-- Node5 -->
<g id="node5" class="node"><title>Node5</title>
<polygon fill="white" stroke="#bfbfbf" points="364.5,-0.5 364.5,-19.5 417.5,-19.5 417.5,-0.5 364.5,-0.5"/>
<text text-anchor="middle" x="391" y="-7.5" font-family="FreeSans" font-size="10.00">iostream</text>
</g>
<!-- Node2&#45;&gt;Node5 -->
<g id="edge4" class="edge"><title>Node2&#45;&gt;Node5</title>
<path fill="none" stroke="midnightblue" d="M367.68,-114.498C388.853,-108.409 414.85,-96.9708 428,-76 438.477,-59.2921 423.5,-39.5312 409.584,-26.2202"/>
<polygon fill="midnightblue" stroke="midnightblue" points="411.915,-23.6101 402.13,-19.5491 407.247,-28.8262 411.915,-23.6101"/>
</g>
<!-- Node6 -->
<g id="node6" class="node"><title>Node6</title>
<polygon fill="white" stroke="#bfbfbf" points="156,-56.5 156,-75.5 206,-75.5 206,-56.5 156,-56.5"/>
<text text-anchor="middle" x="181" y="-63.5" font-family="FreeSans" font-size="10.00">sstream</text>
</g>
<!-- Node2&#45;&gt;Node6 -->
<g id="edge5" class="edge"><title>Node2&#45;&gt;Node6</title>
<path fill="none" stroke="midnightblue" d="M310.598,-112.444C284.803,-103.399 243.923,-89.064 214.982,-78.9158"/>
<polygon fill="midnightblue" stroke="midnightblue" points="215.882,-75.5226 205.288,-75.5164 213.566,-82.1283 215.882,-75.5226"/>
</g>
<!-- Node7 -->
<g id="node7" class="node"><title>Node7</title>
<polygon fill="white" stroke="#bfbfbf" points="0,-0.5 0,-19.5 40,-19.5 40,-0.5 0,-0.5"/>
<text text-anchor="middle" x="20" y="-7.5" font-family="FreeSans" font-size="10.00">string</text>
</g>
<!-- Node2&#45;&gt;Node7 -->
<g id="edge6" class="edge"><title>Node2&#45;&gt;Node7</title>
<path fill="none" stroke="midnightblue" d="M302.129,-119.079C237.809,-114.773 98.1744,-102.571 59,-76 42.699,-64.9434 32.1279,-44.5969 26.1587,-29.6028"/>
<polygon fill="midnightblue" stroke="midnightblue" points="29.3155,-28.0423 22.6093,-19.84 22.7368,-30.4341 29.3155,-28.0423"/>
</g>
<!-- Node2&#45;&gt;Node8 -->
<g id="edge7" class="edge"><title>Node2&#45;&gt;Node8</title>
<path fill="none" stroke="midnightblue" d="M360.036,-112.444C388.836,-102.601 435.964,-86.4932 465.69,-76.3338"/>
<polygon fill="midnightblue" stroke="midnightblue" points="467.089,-79.5545 475.42,-73.0084 464.825,-72.9306 467.089,-79.5545"/>
</g>
<!-- Node9 -->
<g id="node9" class="node"><title>Node9</title>
<g id="a_node9"><a xlink:href="debugUtils_8h.html" target="_top" xlink:title="debugUtils.h">
<polygon fill="white" stroke="black" points="68.5,-56.5 68.5,-75.5 137.5,-75.5 137.5,-56.5 68.5,-56.5"/>
<text text-anchor="middle" x="103" y="-63.5" font-family="FreeSans" font-size="10.00">debugUtils.h</text>
</a>
</g>
</g>
<!-- Node2&#45;&gt;Node9 -->
<g id="edge8" class="edge"><title>Node2&#45;&gt;Node9</title>
<path fill="none" stroke="midnightblue" d="M302.252,-113.378C261.842,-103.972 192.942,-87.9347 147.693,-77.4026"/>
<polygon fill="midnightblue" stroke="midnightblue" points="148.387,-73.9708 137.854,-75.1126 146.801,-80.7886 148.387,-73.9708"/>
</g>
<!-- Node13 -->
<g id="node13" class="node"><title>Node13</title>
<polygon fill="white" stroke="#bfbfbf" points="224.5,-56.5 224.5,-75.5 295.5,-75.5 295.5,-56.5 224.5,-56.5"/>
<text text-anchor="middle" x="260" y="-63.5" font-family="FreeSans" font-size="10.00">Eigen/Dense</text>
</g>
<!-- Node2&#45;&gt;Node13 -->
<g id="edge14" class="edge"><title>Node2&#45;&gt;Node13</title>
<path fill="none" stroke="midnightblue" d="M322.95,-112.324C311.537,-104.107 294.169,-91.6017 280.565,-81.8069"/>
<polygon fill="midnightblue" stroke="midnightblue" points="282.43,-78.8366 272.269,-75.8339 278.34,-84.5174 282.43,-78.8366"/>
</g>
<!-- Node9&#45;&gt;Node5 -->
<g id="edge10" class="edge"><title>Node9&#45;&gt;Node5</title>
<path fill="none" stroke="midnightblue" d="M137.575,-57.862C140.76,-57.2244 143.939,-56.5954 147,-56 220.468,-41.7129 306.608,-26.0901 354.375,-17.5262"/>
<polygon fill="midnightblue" stroke="midnightblue" points="355.023,-20.9659 364.25,-15.7583 353.79,-14.0754 355.023,-20.9659"/>
</g>
<!-- Node9&#45;&gt;Node7 -->
<g id="edge9" class="edge"><title>Node9&#45;&gt;Node7</title>
<path fill="none" stroke="midnightblue" d="M89.6646,-56.324C76.838,-47.979 57.215,-35.2122 42.0602,-25.3524"/>
<polygon fill="midnightblue" stroke="midnightblue" points="43.5932,-22.1742 33.3023,-19.6545 39.7757,-28.0417 43.5932,-22.1742"/>
</g>
<!-- Node10 -->
<g id="node10" class="node"><title>Node10</title>
<polygon fill="white" stroke="#bfbfbf" points="165.5,-0.5 165.5,-19.5 214.5,-19.5 214.5,-0.5 165.5,-0.5"/>
<text text-anchor="middle" x="190" y="-7.5" font-family="FreeSans" font-size="10.00">fstream</text>
</g>
<!-- Node9&#45;&gt;Node10 -->
<g id="edge11" class="edge"><title>Node9&#45;&gt;Node10</title>
<path fill="none" stroke="midnightblue" d="M116.978,-56.324C130.55,-47.9002 151.38,-34.9709 167.325,-25.0741"/>
<polygon fill="midnightblue" stroke="midnightblue" points="169.406,-27.9019 176.057,-19.6545 165.714,-21.9544 169.406,-27.9019"/>
</g>
<!-- Node11 -->
<g id="node11" class="node"><title>Node11</title>
<polygon fill="white" stroke="#bfbfbf" points="233,-0.5 233,-19.5 291,-19.5 291,-0.5 233,-0.5"/>
<text text-anchor="middle" x="262" y="-7.5" font-family="FreeSans" font-size="10.00">exception</text>
</g>
<!-- Node9&#45;&gt;Node11 -->
<g id="edge12" class="edge"><title>Node9&#45;&gt;Node11</title>
<path fill="none" stroke="midnightblue" d="M128.194,-56.4435C154.943,-47.3591 197.403,-32.9388 227.305,-22.7831"/>
<polygon fill="midnightblue" stroke="midnightblue" points="228.581,-26.0464 236.924,-19.5164 226.329,-19.4182 228.581,-26.0464"/>
</g>
<!-- Node12 -->
<g id="node12" class="node"><title>Node12</title>
<polygon fill="white" stroke="#bfbfbf" points="58.5,-0.5 58.5,-19.5 147.5,-19.5 147.5,-0.5 58.5,-0.5"/>
<text text-anchor="middle" x="103" y="-7.5" font-family="FreeSans" font-size="10.00">boost/format.hpp</text>
</g>
<!-- Node9&#45;&gt;Node12 -->
<g id="edge13" class="edge"><title>Node9&#45;&gt;Node12</title>
<path fill="none" stroke="midnightblue" d="M103,-56.083C103,-49.0059 103,-38.8611 103,-29.9865"/>
<polygon fill="midnightblue" stroke="midnightblue" points="106.5,-29.751 103,-19.7511 99.5001,-29.7511 106.5,-29.751"/>
</g>
</g>
</svg>
