<?xml version="1.0" encoding="UTF-8" standalone="no"?>
<!DOCTYPE svg PUBLIC "-//W3C//DTD SVG 1.1//EN"
 "http://www.w3.org/Graphics/SVG/1.1/DTD/svg11.dtd">
<!-- Generated by graphviz version 2.36.0 (20140111.2315)
 -->
<!-- Title: src/quasi2d.cpp Pages: 1 -->
<svg width="487pt" height="252pt"
 viewBox="0.00 0.00 487.00 252.00" xmlns="http://www.w3.org/2000/svg" xmlns:xlink="http://www.w3.org/1999/xlink">
<g id="graph0" class="graph" transform="scale(1 1) rotate(0) translate(4 248)">
<title>src/quasi2d.cpp</title>
<polygon fill="white" stroke="none" points="-4,4 -4,-248 483,-248 483,4 -4,4"/>
<!-- Node1 -->
<g id="node1" class="node"><title>Node1</title>
<polygon fill="#bfbfbf" stroke="black" points="286.5,-224.5 286.5,-243.5 369.5,-243.5 369.5,-224.5 286.5,-224.5"/>
<text text-anchor="middle" x="328" y="-231.5" font-family="FreeSans" font-size="10.00">src/quasi2d.cpp</text>
</g>
<!-- Node2 -->
<g id="node2" class="node"><title>Node2</title>
<g id="a_node2"><a xlink:href="quasi2d_8h.html" target="_top" xlink:title="quasi2d.h">
<polygon fill="white" stroke="black" points="299.5,-168.5 299.5,-187.5 356.5,-187.5 356.5,-168.5 299.5,-168.5"/>
<text text-anchor="middle" x="328" y="-175.5" font-family="FreeSans" font-size="10.00">quasi2d.h</text>
</a>
</g>
</g>
<!-- Node1&#45;&gt;Node2 -->
<g id="edge1" class="edge"><title>Node1&#45;&gt;Node2</title>
<path fill="none" stroke="midnightblue" d="M328,-224.083C328,-217.006 328,-206.861 328,-197.986"/>
<polygon fill="midnightblue" stroke="midnightblue" points="331.5,-197.751 328,-187.751 324.5,-197.751 331.5,-197.751"/>
</g>
<!-- Node3 -->
<g id="node3" class="node"><title>Node3</title>
<g id="a_node3"><a xlink:href="mathUtils_8h.html" target="_top" xlink:title="mathUtils.h">
<polygon fill="white" stroke="black" points="231.5,-112.5 231.5,-131.5 296.5,-131.5 296.5,-112.5 231.5,-112.5"/>
<text text-anchor="middle" x="264" y="-119.5" font-family="FreeSans" font-size="10.00">mathUtils.h</text>
</a>
</g>
</g>
<!-- Node2&#45;&gt;Node3 -->
<g id="edge2" class="edge"><title>Node2&#45;&gt;Node3</title>
<path fill="none" stroke="midnightblue" d="M317.717,-168.324C308.164,-160.263 293.72,-148.077 282.216,-138.369"/>
<polygon fill="midnightblue" stroke="midnightblue" points="284.37,-135.608 274.47,-131.834 279.856,-140.958 284.37,-135.608"/>
</g>
<!-- Node9 -->
<g id="node9" class="node"><title>Node9</title>
<polygon fill="white" stroke="#bfbfbf" points="444.5,-56.5 444.5,-75.5 479.5,-75.5 479.5,-56.5 444.5,-56.5"/>
<text text-anchor="middle" x="462" y="-63.5" font-family="FreeSans" font-size="10.00">map</text>
</g>
<!-- Node2&#45;&gt;Node9 -->
<g id="edge13" class="edge"><title>Node2&#45;&gt;Node9</title>
<path fill="none" stroke="midnightblue" d="M338.515,-168.368C361.216,-149.733 415.061,-105.532 443.564,-82.1338"/>
<polygon fill="midnightblue" stroke="midnightblue" points="446.026,-84.6416 451.534,-75.5914 441.584,-79.2311 446.026,-84.6416"/>
</g>
<!-- Node4 -->
<g id="node4" class="node"><title>Node4</title>
<polygon fill="white" stroke="#bfbfbf" points="-0.5,-56.5 -0.5,-75.5 42.5,-75.5 42.5,-56.5 -0.5,-56.5"/>
<text text-anchor="middle" x="21" y="-63.5" font-family="FreeSans" font-size="10.00">vector</text>
</g>
<!-- Node3&#45;&gt;Node4 -->
<g id="edge3" class="edge"><title>Node3&#45;&gt;Node4</title>
<path fill="none" stroke="midnightblue" d="M231.142,-114.802C191.203,-107.099 121.569,-93.1253 52.3816,-75.9432"/>
<polygon fill="midnightblue" stroke="midnightblue" points="53.176,-72.5342 42.6251,-73.4978 51.4741,-79.3241 53.176,-72.5342"/>
</g>
<!-- Node5 -->
<g id="node5" class="node"><title>Node5</title>
<polygon fill="white" stroke="#bfbfbf" points="61,-56.5 61,-75.5 105,-75.5 105,-56.5 61,-56.5"/>
<text text-anchor="middle" x="83" y="-63.5" font-family="FreeSans" font-size="10.00">cmath</text>
</g>
<!-- Node3&#45;&gt;Node5 -->
<g id="edge4" class="edge"><title>Node3&#45;&gt;Node5</title>
<path fill="none" stroke="midnightblue" d="M235.32,-112.444C202.618,-102.687 149.288,-86.7764 115.19,-76.6036"/>
<polygon fill="midnightblue" stroke="midnightblue" points="115.853,-73.1489 105.269,-73.6439 113.851,-79.8568 115.853,-73.1489"/>
</g>
<!-- Node6 -->
<g id="node6" class="node"><title>Node6</title>
<polygon fill="white" stroke="#bfbfbf" points="170.5,-0.5 170.5,-19.5 223.5,-19.5 223.5,-0.5 170.5,-0.5"/>
<text text-anchor="middle" x="197" y="-7.5" font-family="FreeSans" font-size="10.00">iostream</text>
</g>
<!-- Node3&#45;&gt;Node6 -->
<g id="edge5" class="edge"><title>Node3&#45;&gt;Node6</title>
<path fill="none" stroke="midnightblue" d="M231.349,-117.638C205.029,-113.016 169.602,-102.042 152,-76 140.284,-58.6668 158.474,-38.9302 175.11,-25.7975"/>
<polygon fill="midnightblue" stroke="midnightblue" points="177.551,-28.3454 183.502,-19.5796 173.383,-22.7211 177.551,-28.3454"/>
</g>
<!-- Node7 -->
<g id="node7" class="node"><title>Node7</title>
<polygon fill="white" stroke="#bfbfbf" points="161,-56.5 161,-75.5 211,-75.5 211,-56.5 161,-56.5"/>
<text text-anchor="middle" x="186" y="-63.5" font-family="FreeSans" font-size="10.00">sstream</text>
</g>
<!-- Node3&#45;&gt;Node7 -->
<g id="edge6" class="edge"><title>Node3&#45;&gt;Node7</title>
<path fill="none" stroke="midnightblue" d="M251.468,-112.324C239.414,-103.979 220.973,-91.2122 206.731,-81.3524"/>
<polygon fill="midnightblue" stroke="midnightblue" points="208.715,-78.469 198.501,-75.6545 204.731,-84.2243 208.715,-78.469"/>
</g>
<!-- Node8 -->
<g id="node8" class="node"><title>Node8</title>
<polygon fill="white" stroke="#bfbfbf" points="275,-0.5 275,-19.5 315,-19.5 315,-0.5 275,-0.5"/>
<text text-anchor="middle" x="295" y="-7.5" font-family="FreeSans" font-size="10.00">string</text>
</g>
<!-- Node3&#45;&gt;Node8 -->
<g id="edge7" class="edge"><title>Node3&#45;&gt;Node8</title>
<path fill="none" stroke="midnightblue" d="M276.497,-112.302C286.874,-104.251 300.887,-91.245 307,-76 313.066,-60.8721 308.707,-42.5225 303.624,-29.1827"/>
<polygon fill="midnightblue" stroke="midnightblue" points="306.726,-27.5353 299.577,-19.7157 300.29,-30.2866 306.726,-27.5353"/>
</g>
<!-- Node3&#45;&gt;Node9 -->
<g id="edge8" class="edge"><title>Node3&#45;&gt;Node9</title>
<path fill="none" stroke="midnightblue" d="M296.637,-113.076C329.221,-105.019 380.915,-91.8432 434.638,-75.9599"/>
<polygon fill="midnightblue" stroke="midnightblue" points="435.749,-79.2809 444.333,-73.0702 433.75,-72.5725 435.749,-79.2809"/>
</g>
<!-- Node10 -->
<g id="node10" class="node"><title>Node10</title>
<g id="a_node10"><a xlink:href="debugUtils_8h.html" target="_top" xlink:title="debugUtils.h">
<polygon fill="white" stroke="red" points="229.5,-56.5 229.5,-75.5 298.5,-75.5 298.5,-56.5 229.5,-56.5"/>
<text text-anchor="middle" x="264" y="-63.5" font-family="FreeSans" font-size="10.00">debugUtils.h</text>
</a>
</g>
</g>
<!-- Node3&#45;&gt;Node10 -->
<g id="edge9" class="edge"><title>Node3&#45;&gt;Node10</title>
<path fill="none" stroke="midnightblue" d="M264,-112.083C264,-105.006 264,-94.8611 264,-85.9865"/>
<polygon fill="midnightblue" stroke="midnightblue" points="267.5,-85.751 264,-75.7511 260.5,-85.7511 267.5,-85.751"/>
</g>
<!-- Node11 -->
<g id="node11" class="node"><title>Node11</title>
<polygon fill="white" stroke="#bfbfbf" points="355.5,-56.5 355.5,-75.5 426.5,-75.5 426.5,-56.5 355.5,-56.5"/>
<text text-anchor="middle" x="391" y="-63.5" font-family="FreeSans" font-size="10.00">Eigen/Dense</text>
</g>
<!-- Node3&#45;&gt;Node11 -->
<g id="edge12" class="edge"><title>Node3&#45;&gt;Node11</title>
<path fill="none" stroke="midnightblue" d="M284.124,-112.444C305.024,-103.557 337.935,-89.5632 361.716,-79.4514"/>
<polygon fill="midnightblue" stroke="midnightblue" points="363.138,-82.6504 370.971,-75.5164 360.398,-76.2085 363.138,-82.6504"/>
</g>
<!-- Node10&#45;&gt;Node6 -->
<g id="edge11" class="edge"><title>Node10&#45;&gt;Node6</title>
<path fill="none" stroke="midnightblue" d="M253.235,-56.324C243.234,-48.2631 228.113,-36.0765 216.07,-26.3695"/>
<polygon fill="midnightblue" stroke="midnightblue" points="217.943,-23.3841 207.961,-19.8339 213.55,-28.8343 217.943,-23.3841"/>
</g>
<!-- Node10&#45;&gt;Node8 -->
<g id="edge10" class="edge"><title>Node10&#45;&gt;Node8</title>
<path fill="none" stroke="midnightblue" d="M269.119,-56.083C273.408,-48.6127 279.658,-37.7244 284.942,-28.5199"/>
<polygon fill="midnightblue" stroke="midnightblue" points="288.033,-30.1662 289.976,-19.7511 281.962,-26.6811 288.033,-30.1662"/>
</g>
</g>
</svg>
