<?xml version="1.0" encoding="UTF-8" standalone="no"?>
<!DOCTYPE svg PUBLIC "-//W3C//DTD SVG 1.1//EN"
 "http://www.w3.org/Graphics/SVG/1.1/DTD/svg11.dtd">
<!-- Generated by graphviz version 2.28.0 (20120425.2022)
 -->
<!-- Title: G Pages: 1 -->
<svg width="508pt" height="196pt"
 viewBox="0.00 0.00 508.00 196.00" xmlns="http://www.w3.org/2000/svg" xmlns:xlink="http://www.w3.org/1999/xlink">
<g id="graph1" class="graph" transform="scale(1 1) rotate(0) translate(4 192)">
<title>G</title>
<polygon fill="white" stroke="white" points="-4,5 -4,-192 505,-192 505,5 -4,5"/>
<!-- Node1 -->
<g id="node1" class="node"><title>Node1</title>
<polygon fill="#bfbfbf" stroke="black" points="352.5,-168.5 352.5,-187.5 443.5,-187.5 443.5,-168.5 352.5,-168.5"/>
<text text-anchor="middle" x="398" y="-175.5" font-family="FreeSans" font-size="10.00">src/readConfig.h</text>
</g>
<!-- Node2 -->
<g id="node3" class="node"><title>Node2</title>
<a xlink:href="mathUtils_8h.html" target="_top" xlink:title="mathUtils.h">
<polygon fill="white" stroke="black" points="246.5,-112.5 246.5,-131.5 311.5,-131.5 311.5,-112.5 246.5,-112.5"/>
<text text-anchor="middle" x="279" y="-119.5" font-family="FreeSans" font-size="10.00">mathUtils.h</text>
</a>
</g>
<!-- Node1&#45;&gt;Node2 -->
<g id="edge2" class="edge"><title>Node1&#45;&gt;Node2</title>
<path fill="none" stroke="midnightblue" d="M379.144,-168.444C359.734,-159.636 329.27,-145.812 307.035,-135.722"/>
<polygon fill="midnightblue" stroke="midnightblue" points="308.32,-132.462 297.768,-131.516 305.428,-138.836 308.32,-132.462"/>
</g>
<!-- Node7 -->
<g id="node13" class="node"><title>Node7</title>
<polygon fill="white" stroke="#bfbfbf" points="459.5,-0.5 459.5,-19.5 500.5,-19.5 500.5,-0.5 459.5,-0.5"/>
<text text-anchor="middle" x="480" y="-7.5" font-family="FreeSans" font-size="10.00">string</text>
</g>
<!-- Node1&#45;&gt;Node7 -->
<g id="edge24" class="edge"><title>Node1&#45;&gt;Node7</title>
<path fill="none" stroke="midnightblue" d="M408.806,-168.417C427.782,-152.568 466.459,-116.597 481,-76 486.352,-61.0585 485.522,-42.9186 483.687,-29.6027"/>
<polygon fill="midnightblue" stroke="midnightblue" points="487.136,-29.0074 482.023,-19.7281 480.234,-30.1707 487.136,-29.0074"/>
</g>
<!-- Node3 -->
<g id="node5" class="node"><title>Node3</title>
<polygon fill="white" stroke="#bfbfbf" points="408,-56.5 408,-75.5 452,-75.5 452,-56.5 408,-56.5"/>
<text text-anchor="middle" x="430" y="-63.5" font-family="FreeSans" font-size="10.00">vector</text>
</g>
<!-- Node2&#45;&gt;Node3 -->
<g id="edge4" class="edge"><title>Node2&#45;&gt;Node3</title>
<path fill="none" stroke="midnightblue" d="M302.926,-112.444C328.665,-103.239 369.722,-88.5565 398.171,-78.3826"/>
<polygon fill="midnightblue" stroke="midnightblue" points="399.425,-81.6513 407.662,-74.9883 397.068,-75.0601 399.425,-81.6513"/>
</g>
<!-- Node4 -->
<g id="node7" class="node"><title>Node4</title>
<polygon fill="white" stroke="#bfbfbf" points="0,-56.5 0,-75.5 44,-75.5 44,-56.5 0,-56.5"/>
<text text-anchor="middle" x="22" y="-63.5" font-family="FreeSans" font-size="10.00">cmath</text>
</g>
<!-- Node2&#45;&gt;Node4 -->
<g id="edge6" class="edge"><title>Node2&#45;&gt;Node4</title>
<path fill="none" stroke="midnightblue" d="M246.326,-114.814C203.112,-106.527 124.635,-91.1058 58,-76 56.7277,-75.7116 55.4314,-75.4125 54.123,-75.1062"/>
<polygon fill="midnightblue" stroke="midnightblue" points="54.5899,-71.6185 44.048,-72.6754 52.9481,-78.4232 54.5899,-71.6185"/>
</g>
<!-- Node5 -->
<g id="node9" class="node"><title>Node5</title>
<polygon fill="white" stroke="#bfbfbf" points="111,-0.5 111,-19.5 167,-19.5 167,-0.5 111,-0.5"/>
<text text-anchor="middle" x="139" y="-7.5" font-family="FreeSans" font-size="10.00">iostream</text>
</g>
<!-- Node2&#45;&gt;Node5 -->
<g id="edge8" class="edge"><title>Node2&#45;&gt;Node5</title>
<path fill="none" stroke="midnightblue" d="M246.497,-117.991C197.915,-112.745 110.019,-100.109 91,-76 77.56,-58.9633 97.8877,-38.7829 116.082,-25.4783"/>
<polygon fill="midnightblue" stroke="midnightblue" points="118.442,-28.1027 124.685,-19.5431 114.467,-22.3408 118.442,-28.1027"/>
</g>
<!-- Node6 -->
<g id="node11" class="node"><title>Node6</title>
<polygon fill="white" stroke="#bfbfbf" points="100.5,-56.5 100.5,-75.5 153.5,-75.5 153.5,-56.5 100.5,-56.5"/>
<text text-anchor="middle" x="127" y="-63.5" font-family="FreeSans" font-size="10.00">sstream</text>
</g>
<!-- Node2&#45;&gt;Node6 -->
<g id="edge10" class="edge"><title>Node2&#45;&gt;Node6</title>
<path fill="none" stroke="midnightblue" d="M254.915,-112.444C229.455,-103.399 189.106,-89.064 160.541,-78.9158"/>
<polygon fill="midnightblue" stroke="midnightblue" points="161.567,-75.5661 150.972,-75.5164 159.223,-82.1622 161.567,-75.5661"/>
</g>
<!-- Node2&#45;&gt;Node7 -->
<g id="edge12" class="edge"><title>Node2&#45;&gt;Node7</title>
<path fill="none" stroke="midnightblue" d="M311.79,-116.754C357.95,-110.143 438.836,-96.0341 460,-76 472.584,-64.0874 477.313,-44.4699 479.057,-29.8974"/>
<polygon fill="midnightblue" stroke="midnightblue" points="482.578,-29.7889 479.909,-19.5356 475.601,-29.2152 482.578,-29.7889"/>
</g>
<!-- Node8 -->
<g id="node15" class="node"><title>Node8</title>
<polygon fill="white" stroke="#bfbfbf" points="261,-56.5 261,-75.5 297,-75.5 297,-56.5 261,-56.5"/>
<text text-anchor="middle" x="279" y="-63.5" font-family="FreeSans" font-size="10.00">map</text>
</g>
<!-- Node2&#45;&gt;Node8 -->
<g id="edge14" class="edge"><title>Node2&#45;&gt;Node8</title>
<path fill="none" stroke="midnightblue" d="M279,-112.083C279,-105.006 279,-94.8611 279,-85.9865"/>
<polygon fill="midnightblue" stroke="midnightblue" points="282.5,-85.751 279,-75.7511 275.5,-85.7511 282.5,-85.751"/>
</g>
<!-- Node9 -->
<g id="node17" class="node"><title>Node9</title>
<a xlink:href="debugUtils_8h.html" target="_top" xlink:title="debugUtils.h">
<polygon fill="white" stroke="red" points="171.5,-56.5 171.5,-75.5 242.5,-75.5 242.5,-56.5 171.5,-56.5"/>
<text text-anchor="middle" x="207" y="-63.5" font-family="FreeSans" font-size="10.00">debugUtils.h</text>
</a>
</g>
<!-- Node2&#45;&gt;Node9 -->
<g id="edge16" class="edge"><title>Node2&#45;&gt;Node9</title>
<path fill="none" stroke="midnightblue" d="M267.432,-112.324C256.58,-104.185 240.119,-91.8395 227.117,-82.0874"/>
<polygon fill="midnightblue" stroke="midnightblue" points="228.879,-79.0339 218.779,-75.8339 224.679,-84.6339 228.879,-79.0339"/>
</g>
<!-- Node10 -->
<g id="node21" class="node"><title>Node10</title>
<polygon fill="white" stroke="#bfbfbf" points="315.5,-56.5 315.5,-75.5 390.5,-75.5 390.5,-56.5 315.5,-56.5"/>
<text text-anchor="middle" x="353" y="-63.5" font-family="FreeSans" font-size="10.00">Eigen/Dense</text>
</g>
<!-- Node2&#45;&gt;Node10 -->
<g id="edge22" class="edge"><title>Node2&#45;&gt;Node10</title>
<path fill="none" stroke="midnightblue" d="M290.889,-112.324C302.15,-104.107 319.287,-91.6017 332.709,-81.8069"/>
<polygon fill="midnightblue" stroke="midnightblue" points="334.88,-84.5559 340.894,-75.8339 330.753,-78.9014 334.88,-84.5559"/>
</g>
<!-- Node9&#45;&gt;Node5 -->
<g id="edge20" class="edge"><title>Node9&#45;&gt;Node5</title>
<path fill="none" stroke="midnightblue" d="M196.075,-56.324C185.825,-48.1849 170.279,-35.8395 157.999,-26.0874"/>
<polygon fill="midnightblue" stroke="midnightblue" points="160.132,-23.3119 150.124,-19.8339 155.779,-28.7937 160.132,-23.3119"/>
</g>
<!-- Node9&#45;&gt;Node7 -->
<g id="edge18" class="edge"><title>Node9&#45;&gt;Node7</title>
<path fill="none" stroke="midnightblue" d="M242.86,-57.8196C245.951,-57.2031 249.031,-56.59 252,-56 322.559,-41.9811 405.431,-25.6612 449.238,-17.0458"/>
<polygon fill="midnightblue" stroke="midnightblue" points="450.111,-20.4411 459.248,-15.0775 448.761,-13.5727 450.111,-20.4411"/>
</g>
</g>
</svg>
