<?xml version="1.0" encoding="UTF-8" standalone="no"?>
<!DOCTYPE svg PUBLIC "-//W3C//DTD SVG 1.1//EN"
 "http://www.w3.org/Graphics/SVG/1.1/DTD/svg11.dtd">
<!-- Generated by graphviz version 2.26.3 (20100126.1600)
 -->
<!-- Title: src/readConfig.h Pages: 1 -->
<svg width="932pt" height="204pt"
 viewBox="0.00 0.00 932.00 204.00" xmlns="http://www.w3.org/2000/svg" xmlns:xlink="http://www.w3.org/1999/xlink">
<g id="graph1" class="graph" transform="scale(1 1) rotate(0) translate(4 200)">
<title>src/readConfig.h</title>
<polygon fill="white" stroke="white" points="-4,5 -4,-200 929,-200 929,5 -4,5"/>
<!-- Node1 -->
<g id="node1" class="node"><title>Node1</title>
<polygon fill="#bfbfbf" stroke="black" points="464,-175 464,-195 550,-195 550,-175 464,-175"/>
<text text-anchor="middle" x="507" y="-182" font-family="FreeSans" font-size="10.00">src/readConfig.h</text>
</g>
<!-- Node2 -->
<g id="node3" class="node"><title>Node2</title>
<a xlink:href="chemistry0d_8cpp.html" target="_top" xlink:title="src/chemistry0d.cpp">
<polygon fill="white" stroke="black" points="177,-117 177,-137 279,-137 279,-117 177,-117"/>
<text text-anchor="middle" x="228" y="-124" font-family="FreeSans" font-size="10.00">src/chemistry0d.cpp</text>
</a>
</g>
<!-- Node1&#45;&gt;Node2 -->
<g id="edge2" class="edge"><title>Node1&#45;&gt;Node2</title>
<path fill="none" stroke="midnightblue" d="M453.842,-173.949C402.712,-163.32 326.077,-147.389 276.551,-137.093"/>
<polygon fill="midnightblue" stroke="midnightblue" points="453.209,-177.392 463.712,-176.001 454.634,-170.539 453.209,-177.392"/>
</g>
<!-- Node3 -->
<g id="node5" class="node"><title>Node3</title>
<a xlink:href="grid_8h.html" target="_top" xlink:title="src/grid.h">
<polygon fill="white" stroke="black" points="297,-117 297,-137 353,-137 353,-117 297,-117"/>
<text text-anchor="middle" x="325" y="-124" font-family="FreeSans" font-size="10.00">src/grid.h</text>
</a>
</g>
<!-- Node1&#45;&gt;Node3 -->
<g id="edge4" class="edge"><title>Node1&#45;&gt;Node3</title>
<path fill="none" stroke="midnightblue" d="M465.534,-171.786C431.12,-160.818 383.111,-145.519 353.057,-135.941"/>
<polygon fill="midnightblue" stroke="midnightblue" points="464.707,-175.196 475.298,-174.897 466.833,-168.526 464.707,-175.196"/>
</g>
<!-- Node6 -->
<g id="node11" class="node"><title>Node6</title>
<a xlink:href="flameSolver_8h.html" target="_top" xlink:title="src/flameSolver.h">
<polygon fill="white" stroke="red" points="319,-1 319,-21 409,-21 409,-1 319,-1"/>
<text text-anchor="middle" x="364" y="-8" font-family="FreeSans" font-size="10.00">src/flameSolver.h</text>
</a>
</g>
<!-- Node1&#45;&gt;Node6 -->
<g id="edge22" class="edge"><title>Node1&#45;&gt;Node6</title>
<path fill="none" stroke="midnightblue" d="M468.993,-170.742C452.561,-163.06 434.132,-152.203 421,-138 388.022,-102.333 371.691,-44.3827 366.196,-21.1284"/>
<polygon fill="midnightblue" stroke="midnightblue" points="467.821,-174.051 478.381,-174.9 470.655,-167.651 467.821,-174.051"/>
</g>
<!-- Node10 -->
<g id="node22" class="node"><title>Node10</title>
<a xlink:href="splitSolver_8h.html" target="_top" xlink:title="src/splitSolver.h">
<polygon fill="white" stroke="black" points="430,-117 430,-137 514,-137 514,-117 430,-117"/>
<text text-anchor="middle" x="472" y="-124" font-family="FreeSans" font-size="10.00">src/splitSolver.h</text>
</a>
</g>
<!-- Node1&#45;&gt;Node10 -->
<g id="edge24" class="edge"><title>Node1&#45;&gt;Node10</title>
<path fill="none" stroke="midnightblue" d="M495.59,-166.091C489.831,-156.549 483.067,-145.34 478.262,-137.378"/>
<polygon fill="midnightblue" stroke="midnightblue" points="492.74,-168.144 500.903,-174.897 498.733,-164.527 492.74,-168.144"/>
</g>
<!-- Node11 -->
<g id="node25" class="node"><title>Node11</title>
<a xlink:href="splitSolver_8cpp.html" target="_top" xlink:title="src/splitSolver.cpp">
<polygon fill="white" stroke="black" points="487.5,-59 487.5,-79 582.5,-79 582.5,-59 487.5,-59"/>
<text text-anchor="middle" x="535" y="-66" font-family="FreeSans" font-size="10.00">src/splitSolver.cpp</text>
</a>
</g>
<!-- Node1&#45;&gt;Node11 -->
<g id="edge36" class="edge"><title>Node1&#45;&gt;Node11</title>
<path fill="none" stroke="midnightblue" d="M514.526,-165.145C517.471,-156.845 520.689,-147.043 523,-138 528.237,-117.502 531.899,-92.9921 533.707,-79.3937"/>
<polygon fill="midnightblue" stroke="midnightblue" points="511.184,-164.093 511.031,-174.687 517.757,-166.501 511.184,-164.093"/>
</g>
<!-- Node12 -->
<g id="node27" class="node"><title>Node12</title>
<a xlink:href="readConfig_8cpp.html" target="_top" xlink:title="src/readConfig.cpp">
<polygon fill="white" stroke="black" points="570,-117 570,-137 666,-137 666,-117 570,-117"/>
<text text-anchor="middle" x="618" y="-124" font-family="FreeSans" font-size="10.00">src/readConfig.cpp</text>
</a>
</g>
<!-- Node1&#45;&gt;Node12 -->
<g id="edge30" class="edge"><title>Node1&#45;&gt;Node12</title>
<path fill="none" stroke="midnightblue" d="M535.22,-170.254C555.02,-159.909 580.985,-146.341 598.514,-137.182"/>
<polygon fill="midnightblue" stroke="midnightblue" points="533.577,-167.164 526.335,-174.897 536.819,-173.368 533.577,-167.164"/>
</g>
<!-- Node13 -->
<g id="node29" class="node"><title>Node13</title>
<a xlink:href="scalarFunction_8cpp.html" target="_top" xlink:title="src/scalarFunction.cpp">
<polygon fill="white" stroke="black" points="683.5,-117 683.5,-137 796.5,-137 796.5,-117 683.5,-117"/>
<text text-anchor="middle" x="740" y="-124" font-family="FreeSans" font-size="10.00">src/scalarFunction.cpp</text>
</a>
</g>
<!-- Node1&#45;&gt;Node13 -->
<g id="edge32" class="edge"><title>Node1&#45;&gt;Node13</title>
<path fill="none" stroke="midnightblue" d="M557.214,-172.5C599.861,-161.884 660.27,-146.847 699.784,-137.011"/>
<polygon fill="midnightblue" stroke="midnightblue" points="556.178,-169.151 547.32,-174.963 557.869,-175.944 556.178,-169.151"/>
</g>
<!-- Node14 -->
<g id="node31" class="node"><title>Node14</title>
<a xlink:href="sourceSystem_8cpp.html" target="_top" xlink:title="src/sourceSystem.cpp">
<polygon fill="white" stroke="black" points="813.5,-117 813.5,-137 924.5,-137 924.5,-117 813.5,-117"/>
<text text-anchor="middle" x="869" y="-124" font-family="FreeSans" font-size="10.00">src/sourceSystem.cpp</text>
</a>
</g>
<!-- Node1&#45;&gt;Node14 -->
<g id="edge34" class="edge"><title>Node1&#45;&gt;Node14</title>
<path fill="none" stroke="midnightblue" d="M560.405,-176.804C620.067,-167.595 719.508,-152.088 805,-138 807.67,-137.56 810.401,-137.106 813.16,-136.644"/>
<polygon fill="midnightblue" stroke="midnightblue" points="559.81,-173.354 550.46,-178.338 560.877,-180.273 559.81,-173.354"/>
</g>
<!-- Node4 -->
<g id="node7" class="node"><title>Node4</title>
<a xlink:href="convectionSystem_8h.html" target="_top" xlink:title="src/convectionSystem.h">
<polygon fill="white" stroke="black" points="9.5,-59 9.5,-79 128.5,-79 128.5,-59 9.5,-59"/>
<text text-anchor="middle" x="69" y="-66" font-family="FreeSans" font-size="10.00">src/convectionSystem.h</text>
</a>
</g>
<!-- Node3&#45;&gt;Node4 -->
<g id="edge6" class="edge"><title>Node3&#45;&gt;Node4</title>
<path fill="none" stroke="midnightblue" d="M286.835,-115.829C224.89,-100.184 163.75,-87.4558 121.48,-79.073"/>
<polygon fill="midnightblue" stroke="midnightblue" points="286.226,-119.286 296.781,-118.365 287.956,-112.503 286.226,-119.286"/>
</g>
<!-- Node3&#45;&gt;Node6 -->
<g id="edge18" class="edge"><title>Node3&#45;&gt;Node6</title>
<path fill="none" stroke="midnightblue" d="M334.013,-107.445C337.683,-99.0901 341.803,-89.1675 345,-80 352.118,-59.5859 358.338,-35.0459 361.592,-21.4195"/>
<polygon fill="midnightblue" stroke="midnightblue" points="330.76,-106.147 329.854,-116.703 337.145,-109.016 330.76,-106.147"/>
</g>
<!-- Node7 -->
<g id="node13" class="node"><title>Node7</title>
<a xlink:href="diffusionSystem_8h.html" target="_top" xlink:title="src/diffusionSystem.h">
<polygon fill="white" stroke="black" points="145.5,-59 145.5,-79 252.5,-79 252.5,-59 145.5,-59"/>
<text text-anchor="middle" x="199" y="-66" font-family="FreeSans" font-size="10.00">src/diffusionSystem.h</text>
</a>
</g>
<!-- Node3&#45;&gt;Node7 -->
<g id="edge12" class="edge"><title>Node3&#45;&gt;Node7</title>
<path fill="none" stroke="midnightblue" d="M293.878,-112.674C271.293,-102.278 241.287,-88.4654 221.119,-79.1817"/>
<polygon fill="midnightblue" stroke="midnightblue" points="292.505,-115.895 303.052,-116.897 295.432,-109.536 292.505,-115.895"/>
</g>
<!-- Node9 -->
<g id="node19" class="node"><title>Node9</title>
<a xlink:href="grid_8cpp.html" target="_top" xlink:title="src/grid.cpp">
<polygon fill="white" stroke="black" points="270,-59 270,-79 336,-79 336,-59 270,-59"/>
<text text-anchor="middle" x="303" y="-66" font-family="FreeSans" font-size="10.00">src/grid.cpp</text>
</a>
</g>
<!-- Node3&#45;&gt;Node9 -->
<g id="edge20" class="edge"><title>Node3&#45;&gt;Node9</title>
<path fill="none" stroke="midnightblue" d="M317.601,-107.493C314.031,-98.0829 309.894,-87.1742 306.936,-79.3776"/>
<polygon fill="midnightblue" stroke="midnightblue" points="314.349,-108.789 321.168,-116.897 320.894,-106.306 314.349,-108.789"/>
</g>
<!-- Node5 -->
<g id="node9" class="node"><title>Node5</title>
<a xlink:href="convectionSystem_8cpp.html" target="_top" xlink:title="src/convectionSystem.cpp">
<polygon fill="white" stroke="black" points="-0.5,-1 -0.5,-21 128.5,-21 128.5,-1 -0.5,-1"/>
<text text-anchor="middle" x="64" y="-8" font-family="FreeSans" font-size="10.00">src/convectionSystem.cpp</text>
</a>
</g>
<!-- Node4&#45;&gt;Node5 -->
<g id="edge8" class="edge"><title>Node4&#45;&gt;Node5</title>
<path fill="none" stroke="midnightblue" d="M67.2664,-48.8902C66.4673,-39.6201 65.5524,-29.0083 64.8946,-21.3776"/>
<polygon fill="midnightblue" stroke="midnightblue" points="63.783,-49.2348 68.1291,-58.8972 70.7572,-48.6335 63.783,-49.2348"/>
</g>
<!-- Node4&#45;&gt;Node6 -->
<g id="edge10" class="edge"><title>Node4&#45;&gt;Node6</title>
<path fill="none" stroke="midnightblue" d="M129.882,-57.03C186.105,-45.9759 268.332,-29.8092 318.887,-19.8696"/>
<polygon fill="midnightblue" stroke="midnightblue" points="129.185,-53.5999 120.048,-58.9634 130.536,-60.4684 129.185,-53.5999"/>
</g>
<!-- Node7&#45;&gt;Node6 -->
<g id="edge16" class="edge"><title>Node7&#45;&gt;Node6</title>
<path fill="none" stroke="midnightblue" d="M237.431,-55.491C267.346,-44.9752 308.204,-30.6131 335.312,-21.0842"/>
<polygon fill="midnightblue" stroke="midnightblue" points="236.014,-52.2789 227.741,-58.8972 238.336,-58.8828 236.014,-52.2789"/>
</g>
<!-- Node8 -->
<g id="node15" class="node"><title>Node8</title>
<a xlink:href="diffusionSystem_8cpp.html" target="_top" xlink:title="src/diffusionSystem.cpp">
<polygon fill="white" stroke="black" points="145.5,-1 145.5,-21 262.5,-21 262.5,-1 145.5,-1"/>
<text text-anchor="middle" x="204" y="-8" font-family="FreeSans" font-size="10.00">src/diffusionSystem.cpp</text>
</a>
</g>
<!-- Node7&#45;&gt;Node8 -->
<g id="edge14" class="edge"><title>Node7&#45;&gt;Node8</title>
<path fill="none" stroke="midnightblue" d="M200.734,-48.8902C201.533,-39.6201 202.448,-29.0083 203.105,-21.3776"/>
<polygon fill="midnightblue" stroke="midnightblue" points="197.243,-48.6335 199.871,-58.8972 204.217,-49.2348 197.243,-48.6335"/>
</g>
<!-- Node10&#45;&gt;Node6 -->
<g id="edge26" class="edge"><title>Node10&#45;&gt;Node6</title>
<path fill="none" stroke="midnightblue" d="M458.396,-108.709C447.478,-94.4203 431.472,-74.3172 416,-58 403.273,-44.5778 387.327,-30.5252 376.472,-21.3225"/>
<polygon fill="midnightblue" stroke="midnightblue" points="455.664,-110.9 464.485,-116.769 461.249,-106.681 455.664,-110.9"/>
</g>
<!-- Node10&#45;&gt;Node11 -->
<g id="edge28" class="edge"><title>Node10&#45;&gt;Node11</title>
<path fill="none" stroke="midnightblue" d="M490.618,-109.86C501.369,-99.9622 514.538,-87.8377 523.728,-79.3776"/>
<polygon fill="midnightblue" stroke="midnightblue" points="487.96,-107.549 482.974,-116.897 492.701,-112.699 487.96,-107.549"/>
</g>
</g>
</svg>
