<?xml version="1.0" encoding="UTF-8" standalone="no"?>
<!DOCTYPE svg PUBLIC "-//W3C//DTD SVG 1.1//EN"
 "http://www.w3.org/Graphics/SVG/1.1/DTD/svg11.dtd">
<!-- Generated by graphviz version 8.1.0 (20230707.2238)
 -->
<!-- Title: src/readConfig.h Pages: 1 -->
<svg width="1019pt" height="256pt"
 viewBox="0.00 0.00 1019.00 255.75" xmlns="http://www.w3.org/2000/svg" xmlns:xlink="http://www.w3.org/1999/xlink">
<g id="graph0" class="graph" transform="scale(1 1) rotate(0) translate(4 251.75)">
<title>src/readConfig.h</title>
<!-- Node1 -->
<g id="Node000001" class="node">
<title>Node1</title>
<g id="a_Node000001"><a xlink:title=" ">
<polygon fill="#999999" stroke="#666666" points="604.12,-247.75 509.38,-247.75 509.38,-227 604.12,-227 604.12,-247.75"/>
<text text-anchor="middle" x="556.75" y="-234.25" font-family="FreeSans" font-size="10.00">src/readConfig.h</text>
</a>
</g>
</g>
<!-- Node2 -->
<g id="Node000002" class="node">
<title>Node2</title>
<g id="a_Node000002"><a xlink:href="chemistry0d_8cpp.html" target="_top" xlink:title=" ">
<polygon fill="white" stroke="#666666" points="299.88,-191 185.62,-191 185.62,-170.25 299.88,-170.25 299.88,-191"/>
<text text-anchor="middle" x="242.75" y="-177.5" font-family="FreeSans" font-size="10.00">src/chemistry0d.cpp</text>
</a>
</g>
</g>
<!-- Node1&#45;&gt;Node2 -->
<g id="edge1_Node000001_Node000002" class="edge">
<title>Node1&#45;&gt;Node2</title>
<g id="a_edge1_Node000001_Node000002"><a xlink:title=" ">
<path fill="none" stroke="#63b8ff" d="M498.43,-226.21C441.48,-216.28 355.41,-201.27 299.13,-191.46"/>
<polygon fill="#63b8ff" stroke="#63b8ff" points="497.61,-229.79 508.06,-228.06 498.81,-222.89 497.61,-229.79"/>
</a>
</g>
</g>
<!-- Node3 -->
<g id="Node000003" class="node">
<title>Node3</title>
<g id="a_Node000003"><a xlink:href="flameSolver_8h.html" target="_top" xlink:title=" ">
<polygon fill="white" stroke="#666666" points="411.75,-77.5 311.75,-77.5 311.75,-56.75 411.75,-56.75 411.75,-77.5"/>
<text text-anchor="middle" x="361.75" y="-64" font-family="FreeSans" font-size="10.00">src/flameSolver.h</text>
</a>
</g>
</g>
<!-- Node1&#45;&gt;Node3 -->
<g id="edge2_Node000001_Node000003" class="edge">
<title>Node1&#45;&gt;Node3</title>
<g id="a_edge2_Node000001_Node000003"><a xlink:title=" ">
<path fill="none" stroke="#63b8ff" d="M514.32,-222.62C496.99,-215.37 477.78,-205 463.75,-191 436.6,-163.9 450.61,-142.72 425.75,-113.5 412.95,-98.46 394.12,-85.9 380.19,-77.84"/>
<polygon fill="#63b8ff" stroke="#63b8ff" points="512.66,-226.13 523.24,-226.54 515.23,-219.61 512.66,-226.13"/>
</a>
</g>
</g>
<!-- Node5 -->
<g id="Node000005" class="node">
<title>Node5</title>
<g id="a_Node000005"><a xlink:href="grid_8h.html" target="_top" xlink:title=" ">
<polygon fill="white" stroke="#666666" points="379.25,-191 318.25,-191 318.25,-170.25 379.25,-170.25 379.25,-191"/>
<text text-anchor="middle" x="348.75" y="-177.5" font-family="FreeSans" font-size="10.00">src/grid.h</text>
</a>
</g>
</g>
<!-- Node1&#45;&gt;Node5 -->
<g id="edge4_Node000001_Node000005" class="edge">
<title>Node1&#45;&gt;Node5</title>
<g id="a_edge4_Node000001_Node000005"><a xlink:title=" ">
<path fill="none" stroke="#63b8ff" d="M509.04,-223.82C469.23,-213.34 413.68,-198.72 379.52,-189.72"/>
<polygon fill="#63b8ff" stroke="#63b8ff" points="508,-227.43 518.56,-226.59 509.78,-220.66 508,-227.43"/>
</a>
</g>
</g>
<!-- Node11 -->
<g id="Node000011" class="node">
<title>Node11</title>
<g id="a_Node000011"><a xlink:href="readConfig_8cpp.html" target="_top" xlink:title=" ">
<polygon fill="white" stroke="#666666" points="728.75,-191 622.75,-191 622.75,-170.25 728.75,-170.25 728.75,-191"/>
<text text-anchor="middle" x="675.75" y="-177.5" font-family="FreeSans" font-size="10.00">src/readConfig.cpp</text>
</a>
</g>
</g>
<!-- Node1&#45;&gt;Node11 -->
<g id="edge13_Node000001_Node000011" class="edge">
<title>Node1&#45;&gt;Node11</title>
<g id="a_edge13_Node000001_Node000011"><a xlink:title=" ">
<path fill="none" stroke="#63b8ff" d="M587.79,-222.09C608.84,-212.41 636.1,-199.87 654.66,-191.33"/>
<polygon fill="#63b8ff" stroke="#63b8ff" points="586.65,-219.23 579.02,-226.59 589.57,-225.59 586.65,-219.23"/>
</a>
</g>
</g>
<!-- Node12 -->
<g id="Node000012" class="node">
<title>Node12</title>
<g id="a_Node000012"><a xlink:href="scalarFunction_8cpp.html" target="_top" xlink:title=" ">
<polygon fill="white" stroke="#666666" points="870.75,-191 746.75,-191 746.75,-170.25 870.75,-170.25 870.75,-191"/>
<text text-anchor="middle" x="808.75" y="-177.5" font-family="FreeSans" font-size="10.00">src/scalarFunction.cpp</text>
</a>
</g>
</g>
<!-- Node1&#45;&gt;Node12 -->
<g id="edge14_Node000001_Node000012" class="edge">
<title>Node1&#45;&gt;Node12</title>
<g id="a_edge14_Node000001_Node000012"><a xlink:title=" ">
<path fill="none" stroke="#63b8ff" d="M612.64,-224.23C657.97,-214.38 721.08,-200.67 763.35,-191.49"/>
<polygon fill="#63b8ff" stroke="#63b8ff" points="612.12,-220.98 603.09,-226.52 613.61,-227.82 612.12,-220.98"/>
</a>
</g>
</g>
<!-- Node13 -->
<g id="Node000013" class="node">
<title>Node13</title>
<g id="a_Node000013"><a xlink:href="sourceSystem_8cpp.html" target="_top" xlink:title=" ">
<polygon fill="white" stroke="#666666" points="1011,-191 888.5,-191 888.5,-170.25 1011,-170.25 1011,-191"/>
<text text-anchor="middle" x="949.75" y="-177.5" font-family="FreeSans" font-size="10.00">src/sourceSystem.cpp</text>
</a>
</g>
</g>
<!-- Node1&#45;&gt;Node13 -->
<g id="edge15_Node000001_Node000013" class="edge">
<title>Node1&#45;&gt;Node13</title>
<g id="a_edge15_Node000001_Node000013"><a xlink:title=" ">
<path fill="none" stroke="#63b8ff" d="M615.41,-228.2C688.68,-218 813.46,-200.61 888.1,-190.21"/>
<polygon fill="#63b8ff" stroke="#63b8ff" points="614.97,-224.87 605.55,-229.72 615.93,-231.8 614.97,-224.87"/>
</a>
</g>
</g>
<!-- Node14 -->
<g id="Node000014" class="node">
<title>Node14</title>
<g id="a_Node000014"><a xlink:href="splitSolver_8cpp.html" target="_top" xlink:title=" ">
<polygon fill="white" stroke="#666666" points="639,-134.25 534.5,-134.25 534.5,-113.5 639,-113.5 639,-134.25"/>
<text text-anchor="middle" x="586.75" y="-120.75" font-family="FreeSans" font-size="10.00">src/splitSolver.cpp</text>
</a>
</g>
</g>
<!-- Node1&#45;&gt;Node14 -->
<g id="edge16_Node000001_Node000014" class="edge">
<title>Node1&#45;&gt;Node14</title>
<g id="a_edge16_Node000001_Node000014"><a xlink:title=" ">
<path fill="none" stroke="#63b8ff" d="M566.22,-216.56C569.65,-208.74 573.27,-199.59 575.75,-191 581.42,-171.32 584.5,-147.45 585.86,-134.45"/>
<polygon fill="#63b8ff" stroke="#63b8ff" points="562.64,-214.97 561.66,-225.52 569.01,-217.89 562.64,-214.97"/>
</a>
</g>
</g>
<!-- Node15 -->
<g id="Node000015" class="node">
<title>Node15</title>
<g id="a_Node000015"><a xlink:href="splitSolver_8h.html" target="_top" xlink:title=" ">
<polygon fill="white" stroke="#666666" points="566.38,-191 473.12,-191 473.12,-170.25 566.38,-170.25 566.38,-191"/>
<text text-anchor="middle" x="519.75" y="-177.5" font-family="FreeSans" font-size="10.00">src/splitSolver.h</text>
</a>
</g>
</g>
<!-- Node1&#45;&gt;Node15 -->
<g id="edge17_Node000001_Node000015" class="edge">
<title>Node1&#45;&gt;Node15</title>
<g id="a_edge17_Node000001_Node000015"><a xlink:title=" ">
<path fill="none" stroke="#63b8ff" d="M544.13,-217.71C538.15,-208.84 531.24,-198.62 526.31,-191.33"/>
<polygon fill="#63b8ff" stroke="#63b8ff" points="541.64,-219.26 550.14,-225.59 547.44,-215.34 541.64,-219.26"/>
</a>
</g>
</g>
<!-- Node4 -->
<g id="Node000004" class="node">
<title>Node4</title>
<g id="a_Node000004"><a xlink:href="flameSolver_8cpp.html" target="_top" xlink:title=" ">
<polygon fill="white" stroke="#666666" points="417.38,-20.75 306.12,-20.75 306.12,0 417.38,0 417.38,-20.75"/>
<text text-anchor="middle" x="361.75" y="-7.25" font-family="FreeSans" font-size="10.00">src/flameSolver.cpp</text>
</a>
</g>
</g>
<!-- Node3&#45;&gt;Node4 -->
<g id="edge3_Node000003_Node000004" class="edge">
<title>Node3&#45;&gt;Node4</title>
<g id="a_edge3_Node000003_Node000004"><a xlink:title=" ">
<path fill="none" stroke="#63b8ff" d="M361.75,-45.46C361.75,-37.09 361.75,-27.83 361.75,-21.08"/>
<polygon fill="#63b8ff" stroke="#63b8ff" points="358.25,-45.34 361.75,-55.34 365.25,-45.34 358.25,-45.34"/>
</a>
</g>
</g>
<!-- Node5&#45;&gt;Node3 -->
<g id="edge11_Node000005_Node000003" class="edge">
<title>Node5&#45;&gt;Node3</title>
<g id="a_edge11_Node000005_Node000003"><a xlink:title=" ">
<path fill="none" stroke="#63b8ff" d="M340.31,-160.23C335.67,-146.97 331.61,-129.05 335.75,-113.5 339.3,-100.16 347.8,-86.67 354.12,-77.9"/>
<polygon fill="#63b8ff" stroke="#63b8ff" points="337.28,-161.08 344.18,-169.12 343.8,-158.53 337.28,-161.08"/>
</a>
</g>
</g>
<!-- Node6 -->
<g id="Node000006" class="node">
<title>Node6</title>
<g id="a_Node000006"><a xlink:href="convectionSystem_8h.html" target="_top" xlink:title=" ">
<polygon fill="white" stroke="#666666" points="148.88,-134.25 16.62,-134.25 16.62,-113.5 148.88,-113.5 148.88,-134.25"/>
<text text-anchor="middle" x="82.75" y="-120.75" font-family="FreeSans" font-size="10.00">src/convectionSystem.h</text>
</a>
</g>
</g>
<!-- Node5&#45;&gt;Node6 -->
<g id="edge5_Node000005_Node000006" class="edge">
<title>Node5&#45;&gt;Node6</title>
<g id="a_edge5_Node000005_Node000006"><a xlink:title=" ">
<path fill="none" stroke="#63b8ff" d="M307.28,-169.98C241.97,-155.86 177.55,-143.12 134.01,-134.68"/>
<polygon fill="#63b8ff" stroke="#63b8ff" points="306.25,-173.56 316.76,-172.26 307.73,-166.72 306.25,-173.56"/>
</a>
</g>
</g>
<!-- Node8 -->
<g id="Node000008" class="node">
<title>Node8</title>
<g id="a_Node000008"><a xlink:href="diffusionSystem_8h.html" target="_top" xlink:title=" ">
<polygon fill="white" stroke="#666666" points="288.25,-134.25 167.25,-134.25 167.25,-113.5 288.25,-113.5 288.25,-134.25"/>
<text text-anchor="middle" x="227.75" y="-120.75" font-family="FreeSans" font-size="10.00">src/diffusionSystem.h</text>
</a>
</g>
</g>
<!-- Node5&#45;&gt;Node8 -->
<g id="edge8_Node000005_Node000008" class="edge">
<title>Node5&#45;&gt;Node8</title>
<g id="a_edge8_Node000005_Node000008"><a xlink:title=" ">
<path fill="none" stroke="#63b8ff" d="M317.19,-165.34C295.78,-155.66 268.06,-143.12 249.2,-134.58"/>
<polygon fill="#63b8ff" stroke="#63b8ff" points="315.56,-168.9 326.12,-169.84 318.45,-162.53 315.56,-168.9"/>
</a>
</g>
</g>
<!-- Node10 -->
<g id="Node000010" class="node">
<title>Node10</title>
<g id="a_Node000010"><a xlink:href="grid_8cpp.html" target="_top" xlink:title=" ">
<polygon fill="white" stroke="#666666" points="416.88,-134.25 344.62,-134.25 344.62,-113.5 416.88,-113.5 416.88,-134.25"/>
<text text-anchor="middle" x="380.75" y="-120.75" font-family="FreeSans" font-size="10.00">src/grid.cpp</text>
</a>
</g>
</g>
<!-- Node5&#45;&gt;Node10 -->
<g id="edge12_Node000005_Node000010" class="edge">
<title>Node5&#45;&gt;Node10</title>
<g id="a_edge12_Node000005_Node000010"><a xlink:title=" ">
<path fill="none" stroke="#63b8ff" d="M359.99,-160.39C365.09,-151.66 370.91,-141.72 375.08,-134.58"/>
<polygon fill="#63b8ff" stroke="#63b8ff" points="356.5,-158.44 354.47,-168.84 362.54,-161.97 356.5,-158.44"/>
</a>
</g>
</g>
<!-- Node6&#45;&gt;Node3 -->
<g id="edge7_Node000006_Node000003" class="edge">
<title>Node6&#45;&gt;Node3</title>
<g id="a_edge7_Node000006_Node000003"><a xlink:title=" ">
<path fill="none" stroke="#63b8ff" d="M143.67,-110.92C193.94,-101.06 264.4,-87.23 311.48,-77.99"/>
<polygon fill="#63b8ff" stroke="#63b8ff" points="143.09,-107.66 133.95,-113.02 144.44,-114.53 143.09,-107.66"/>
</a>
</g>
</g>
<!-- Node7 -->
<g id="Node000007" class="node">
<title>Node7</title>
<g id="a_Node000007"><a xlink:href="convectionSystem_8cpp.html" target="_top" xlink:title=" ">
<polygon fill="white" stroke="#666666" points="143.5,-77.5 0,-77.5 0,-56.75 143.5,-56.75 143.5,-77.5"/>
<text text-anchor="middle" x="71.75" y="-64" font-family="FreeSans" font-size="10.00">src/convectionSystem.cpp</text>
</a>
</g>
</g>
<!-- Node6&#45;&gt;Node7 -->
<g id="edge6_Node000006_Node000007" class="edge">
<title>Node6&#45;&gt;Node7</title>
<g id="a_edge6_Node000006_Node000007"><a xlink:title=" ">
<path fill="none" stroke="#63b8ff" d="M78.66,-102.49C76.96,-94.05 75.07,-84.66 73.7,-77.83"/>
<polygon fill="#63b8ff" stroke="#63b8ff" points="75.38,-102.97 80.78,-112.09 82.25,-101.59 75.38,-102.97"/>
</a>
</g>
</g>
<!-- Node8&#45;&gt;Node3 -->
<g id="edge10_Node000008_Node000003" class="edge">
<title>Node8&#45;&gt;Node3</title>
<g id="a_edge10_Node000008_Node000003"><a xlink:title=" ">
<path fill="none" stroke="#63b8ff" d="M261.74,-108.99C285.57,-99.25 316.82,-86.48 338,-77.83"/>
<polygon fill="#63b8ff" stroke="#63b8ff" points="260.64,-106.06 252.71,-113.09 263.29,-112.54 260.64,-106.06"/>
</a>
</g>
</g>
<!-- Node9 -->
<g id="Node000009" class="node">
<title>Node9</title>
<g id="a_Node000009"><a xlink:href="diffusionSystem_8cpp.html" target="_top" xlink:title=" ">
<polygon fill="white" stroke="#666666" points="293.88,-77.5 161.62,-77.5 161.62,-56.75 293.88,-56.75 293.88,-77.5"/>
<text text-anchor="middle" x="227.75" y="-64" font-family="FreeSans" font-size="10.00">src/diffusionSystem.cpp</text>
</a>
</g>
</g>
<!-- Node8&#45;&gt;Node9 -->
<g id="edge9_Node000008_Node000009" class="edge">
<title>Node8&#45;&gt;Node9</title>
<g id="a_edge9_Node000008_Node000009"><a xlink:title=" ">
<path fill="none" stroke="#63b8ff" d="M227.75,-102.21C227.75,-93.84 227.75,-84.58 227.75,-77.83"/>
<polygon fill="#63b8ff" stroke="#63b8ff" points="224.25,-102.09 227.75,-112.09 231.25,-102.09 224.25,-102.09"/>
</a>
</g>
</g>
<!-- Node15&#45;&gt;Node3 -->
<g id="edge18_Node000015_Node000003" class="edge">
<title>Node15&#45;&gt;Node3</title>
<g id="a_edge18_Node000015_Node000003"><a xlink:title=" ">
<path fill="none" stroke="#63b8ff" d="M506.22,-161.44C494.8,-147.02 477.36,-127.12 458.75,-113.5 437.59,-98.02 410.32,-85.83 390.08,-78"/>
<polygon fill="#63b8ff" stroke="#63b8ff" points="503.94,-163.2 512.81,-168.99 509.48,-158.93 503.94,-163.2"/>
</a>
</g>
</g>
<!-- Node15&#45;&gt;Node14 -->
<g id="edge19_Node000015_Node000014" class="edge">
<title>Node15&#45;&gt;Node14</title>
<g id="a_edge19_Node000015_Node000014"><a xlink:title=" ">
<path fill="none" stroke="#63b8ff" d="M540.2,-162.91C551.56,-153.63 565.28,-142.42 574.88,-134.58"/>
<polygon fill="#63b8ff" stroke="#63b8ff" points="538.26,-160.8 532.73,-169.84 542.69,-166.22 538.26,-160.8"/>
</a>
</g>
</g>
</g>
</svg>
