<?xml version="1.0" encoding="UTF-8" standalone="no"?>
<!DOCTYPE svg PUBLIC "-//W3C//DTD SVG 1.1//EN"
 "http://www.w3.org/Graphics/SVG/1.1/DTD/svg11.dtd">
<!-- Generated by graphviz version 2.26.3 (20100126.1600)
 -->
<!-- Title: src/readConfig.cpp Pages: 1 -->
<svg width="477pt" height="262pt"
 viewBox="0.00 0.00 477.00 262.00" xmlns="http://www.w3.org/2000/svg" xmlns:xlink="http://www.w3.org/1999/xlink">
<g id="graph1" class="graph" transform="scale(1 1) rotate(0) translate(4 258)">
<title>src/readConfig.cpp</title>
<polygon fill="white" stroke="white" points="-4,5 -4,-258 474,-258 474,5 -4,5"/>
<!-- Node1 -->
<g id="node1" class="node"><title>Node1</title>
<polygon fill="#bfbfbf" stroke="black" points="259,-233 259,-253 355,-253 355,-233 259,-233"/>
<text text-anchor="middle" x="307" y="-240" font-family="FreeSans" font-size="10.00">src/readConfig.cpp</text>
</g>
<!-- Node2 -->
<g id="node3" class="node"><title>Node2</title>
<a xlink:href="readConfig_8h.html" target="_top" xlink:title="readConfig.h">
<polygon fill="white" stroke="black" points="204,-175 204,-195 274,-195 274,-175 204,-175"/>
<text text-anchor="middle" x="239" y="-182" font-family="FreeSans" font-size="10.00">readConfig.h</text>
</a>
</g>
<!-- Node1&#45;&gt;Node2 -->
<g id="edge2" class="edge"><title>Node1&#45;&gt;Node2</title>
<path fill="none" stroke="midnightblue" d="M295.155,-232.897C285.138,-224.353 270.577,-211.933 258.792,-201.881"/>
<polygon fill="midnightblue" stroke="midnightblue" points="261.047,-199.204 251.167,-195.378 256.504,-204.53 261.047,-199.204"/>
</g>
<!-- Node10 -->
<g id="node19" class="node"><title>Node10</title>
<a xlink:href="debugUtils_8h.html" target="_top" xlink:title="debugUtils.h">
<polygon fill="white" stroke="red" points="377.5,-59 377.5,-79 446.5,-79 446.5,-59 377.5,-59"/>
<text text-anchor="middle" x="412" y="-66" font-family="FreeSans" font-size="10.00">debugUtils.h</text>
</a>
</g>
<!-- Node1&#45;&gt;Node10 -->
<g id="edge28" class="edge"><title>Node1&#45;&gt;Node10</title>
<path fill="none" stroke="midnightblue" d="M313.099,-232.893C330.135,-204.663 378.424,-124.641 400.604,-87.8844"/>
<polygon fill="midnightblue" stroke="midnightblue" points="403.714,-89.5052 405.884,-79.135 397.721,-85.8885 403.714,-89.5052"/>
</g>
<!-- Node3 -->
<g id="node5" class="node"><title>Node3</title>
<a xlink:href="mathUtils_8h.html" target="_top" xlink:title="mathUtils.h">
<polygon fill="white" stroke="black" points="206.5,-117 206.5,-137 271.5,-137 271.5,-117 206.5,-117"/>
<text text-anchor="middle" x="239" y="-124" font-family="FreeSans" font-size="10.00">mathUtils.h</text>
</a>
</g>
<!-- Node2&#45;&gt;Node3 -->
<g id="edge4" class="edge"><title>Node2&#45;&gt;Node3</title>
<path fill="none" stroke="midnightblue" d="M239,-174.897C239,-167.339 239,-156.748 239,-147.446"/>
<polygon fill="midnightblue" stroke="midnightblue" points="242.5,-147.378 239,-137.378 235.5,-147.378 242.5,-147.378"/>
</g>
<!-- Node8 -->
<g id="node15" class="node"><title>Node8</title>
<polygon fill="white" stroke="#bfbfbf" points="0,-1 0,-21 40,-21 40,-1 0,-1"/>
<text text-anchor="middle" x="20" y="-8" font-family="FreeSans" font-size="10.00">string</text>
</g>
<!-- Node2&#45;&gt;Node8 -->
<g id="edge26" class="edge"><title>Node2&#45;&gt;Node8</title>
<path fill="none" stroke="midnightblue" d="M203.666,-179.237C153.742,-169.017 64.0719,-142.568 23,-80 13.6667,-65.7819 13.7552,-46.1366 15.6899,-31.4432"/>
<polygon fill="midnightblue" stroke="midnightblue" points="19.1812,-31.7889 17.4039,-21.3442 12.2799,-30.6176 19.1812,-31.7889"/>
</g>
<!-- Node4 -->
<g id="node7" class="node"><title>Node4</title>
<polygon fill="white" stroke="#bfbfbf" points="317.5,-59 317.5,-79 360.5,-79 360.5,-59 317.5,-59"/>
<text text-anchor="middle" x="339" y="-66" font-family="FreeSans" font-size="10.00">vector</text>
</g>
<!-- Node3&#45;&gt;Node4 -->
<g id="edge6" class="edge"><title>Node3&#45;&gt;Node4</title>
<path fill="none" stroke="midnightblue" d="M256.419,-116.897C271.953,-107.887 294.92,-94.5665 312.692,-84.2586"/>
<polygon fill="midnightblue" stroke="midnightblue" points="314.551,-87.2265 321.445,-79.1817 311.039,-81.1713 314.551,-87.2265"/>
</g>
<!-- Node5 -->
<g id="node9" class="node"><title>Node5</title>
<polygon fill="white" stroke="#bfbfbf" points="256,-59 256,-79 300,-79 300,-59 256,-59"/>
<text text-anchor="middle" x="278" y="-66" font-family="FreeSans" font-size="10.00">cmath</text>
</g>
<!-- Node3&#45;&gt;Node5 -->
<g id="edge8" class="edge"><title>Node3&#45;&gt;Node5</title>
<path fill="none" stroke="midnightblue" d="M245.793,-116.897C251.152,-108.928 258.777,-97.5874 265.264,-87.9413"/>
<polygon fill="midnightblue" stroke="midnightblue" points="268.346,-89.6291 271.022,-79.3776 262.537,-85.723 268.346,-89.6291"/>
</g>
<!-- Node6 -->
<g id="node11" class="node"><title>Node6</title>
<polygon fill="white" stroke="#bfbfbf" points="416.5,-1 416.5,-21 469.5,-21 469.5,-1 416.5,-1"/>
<text text-anchor="middle" x="443" y="-8" font-family="FreeSans" font-size="10.00">iostream</text>
</g>
<!-- Node3&#45;&gt;Node6 -->
<g id="edge10" class="edge"><title>Node3&#45;&gt;Node6</title>
<path fill="none" stroke="midnightblue" d="M271.833,-124.759C326.485,-120.27 432.365,-108.09 455,-80 466.265,-66.0204 460.543,-45.2124 453.682,-30.1037"/>
<polygon fill="midnightblue" stroke="midnightblue" points="456.79,-28.4941 449.176,-21.1272 450.534,-31.6346 456.79,-28.4941"/>
</g>
<!-- Node7 -->
<g id="node13" class="node"><title>Node7</title>
<polygon fill="white" stroke="#bfbfbf" points="48,-59 48,-79 98,-79 98,-59 48,-59"/>
<text text-anchor="middle" x="73" y="-66" font-family="FreeSans" font-size="10.00">sstream</text>
</g>
<!-- Node3&#45;&gt;Node7 -->
<g id="edge12" class="edge"><title>Node3&#45;&gt;Node7</title>
<path fill="none" stroke="midnightblue" d="M210.085,-116.897C181.626,-106.954 138.142,-91.7605 107.804,-81.1603"/>
<polygon fill="midnightblue" stroke="midnightblue" points="108.655,-77.7502 98.0597,-77.7558 106.346,-84.3584 108.655,-77.7502"/>
</g>
<!-- Node3&#45;&gt;Node8 -->
<g id="edge14" class="edge"><title>Node3&#45;&gt;Node8</title>
<path fill="none" stroke="midnightblue" d="M206.458,-123.39C156.123,-117.16 62.7031,-102.822 39,-80 25.8914,-67.379 21.5629,-46.6163 20.2588,-31.1579"/>
<polygon fill="midnightblue" stroke="midnightblue" points="23.7479,-30.8478 19.7614,-21.0315 16.7563,-31.1912 23.7479,-30.8478"/>
</g>
<!-- Node9 -->
<g id="node17" class="node"><title>Node9</title>
<polygon fill="white" stroke="#bfbfbf" points="115.5,-59 115.5,-79 150.5,-79 150.5,-59 115.5,-59"/>
<text text-anchor="middle" x="133" y="-66" font-family="FreeSans" font-size="10.00">map</text>
</g>
<!-- Node3&#45;&gt;Node9 -->
<g id="edge16" class="edge"><title>Node3&#45;&gt;Node9</title>
<path fill="none" stroke="midnightblue" d="M220.536,-116.897C203.613,-107.637 178.368,-93.824 159.331,-83.4077"/>
<polygon fill="midnightblue" stroke="midnightblue" points="161.001,-80.3317 150.548,-78.6019 157.641,-86.4725 161.001,-80.3317"/>
</g>
<!-- Node3&#45;&gt;Node10 -->
<g id="edge18" class="edge"><title>Node3&#45;&gt;Node10</title>
<path fill="none" stroke="midnightblue" d="M269.134,-116.897C297.699,-107.321 340.789,-92.8742 372.175,-82.3516"/>
<polygon fill="midnightblue" stroke="midnightblue" points="373.553,-85.5814 381.921,-79.0842 371.327,-78.9445 373.553,-85.5814"/>
</g>
<!-- Node11 -->
<g id="node23" class="node"><title>Node11</title>
<polygon fill="white" stroke="#bfbfbf" points="167.5,-59 167.5,-79 238.5,-79 238.5,-59 167.5,-59"/>
<text text-anchor="middle" x="203" y="-66" font-family="FreeSans" font-size="10.00">Eigen/Dense</text>
</g>
<!-- Node3&#45;&gt;Node11 -->
<g id="edge24" class="edge"><title>Node3&#45;&gt;Node11</title>
<path fill="none" stroke="midnightblue" d="M232.729,-116.897C227.783,-108.928 220.744,-97.5874 214.757,-87.9413"/>
<polygon fill="midnightblue" stroke="midnightblue" points="217.689,-86.0282 209.441,-79.3776 211.741,-89.7198 217.689,-86.0282"/>
</g>
<!-- Node10&#45;&gt;Node6 -->
<g id="edge22" class="edge"><title>Node10&#45;&gt;Node6</title>
<path fill="none" stroke="midnightblue" d="M417.4,-58.8972C421.615,-51.0104 427.596,-39.8209 432.716,-30.2401"/>
<polygon fill="midnightblue" stroke="midnightblue" points="435.826,-31.8468 437.453,-21.3776 429.653,-28.5471 435.826,-31.8468"/>
</g>
<!-- Node10&#45;&gt;Node8 -->
<g id="edge20" class="edge"><title>Node10&#45;&gt;Node8</title>
<path fill="none" stroke="midnightblue" d="M377.345,-59.7652C374.53,-59.1281 371.723,-58.5298 369,-58 252.094,-35.2555 111.02,-19.9107 50.2536,-13.8741"/>
<polygon fill="midnightblue" stroke="midnightblue" points="50.4931,-10.3809 40.1992,-12.8879 49.8097,-17.3475 50.4931,-10.3809"/>
</g>
</g>
</svg>
