<?xml version="1.0" encoding="UTF-8" standalone="no"?>
<!DOCTYPE svg PUBLIC "-//W3C//DTD SVG 1.1//EN"
 "http://www.w3.org/Graphics/SVG/1.1/DTD/svg11.dtd">
<!-- Generated by graphviz version 2.38.0 (20140413.2041)
 -->
<!-- Title: src/readConfig.cpp Pages: 1 -->
<svg width="483pt" height="252pt"
 viewBox="0.00 0.00 482.50 252.00" xmlns="http://www.w3.org/2000/svg" xmlns:xlink="http://www.w3.org/1999/xlink">
<g id="graph0" class="graph" transform="scale(1 1) rotate(0) translate(4 248)">
<title>src/readConfig.cpp</title>
<polygon fill="white" stroke="none" points="-4,4 -4,-248 478.5,-248 478.5,4 -4,4"/>
<!-- Node1 -->
<g id="node1" class="node"><title>Node1</title>
<polygon fill="#bfbfbf" stroke="black" points="262,-224.5 262,-243.5 358,-243.5 358,-224.5 262,-224.5"/>
<text text-anchor="middle" x="310" y="-231.5" font-family="FreeSans" font-size="10.00">src/readConfig.cpp</text>
</g>
<!-- Node2 -->
<g id="node2" class="node"><title>Node2</title>
<g id="a_node2"><a xlink:href="readConfig_8h.html" target="_top" xlink:title="readConfig.h">
<polygon fill="white" stroke="black" points="207,-168.5 207,-187.5 277,-187.5 277,-168.5 207,-168.5"/>
<text text-anchor="middle" x="242" y="-175.5" font-family="FreeSans" font-size="10.00">readConfig.h</text>
</a>
</g>
</g>
<!-- Node1&#45;&gt;Node2 -->
<g id="edge1" class="edge"><title>Node1&#45;&gt;Node2</title>
<path fill="none" stroke="midnightblue" d="M299.075,-224.324C288.825,-216.185 273.279,-203.839 260.999,-194.087"/>
<polygon fill="midnightblue" stroke="midnightblue" points="263.132,-191.312 253.124,-187.834 258.779,-196.794 263.132,-191.312"/>
</g>
<!-- Node10 -->
<g id="node10" class="node"><title>Node10</title>
<g id="a_node10"><a xlink:href="debugUtils_8h.html" target="_top" xlink:title="debugUtils.h">
<polygon fill="white" stroke="red" points="382.5,-56.5 382.5,-75.5 451.5,-75.5 451.5,-56.5 382.5,-56.5"/>
<text text-anchor="middle" x="417" y="-63.5" font-family="FreeSans" font-size="10.00">debugUtils.h</text>
</a>
</g>
</g>
<!-- Node1&#45;&gt;Node10 -->
<g id="edge14" class="edge"><title>Node1&#45;&gt;Node10</title>
<path fill="none" stroke="midnightblue" d="M315.753,-224.075C332.814,-197.606 383.347,-119.209 405.907,-84.2097"/>
<polygon fill="midnightblue" stroke="midnightblue" points="409.001,-85.8696 411.477,-75.5681 403.118,-82.0771 409.001,-85.8696"/>
</g>
<!-- Node3 -->
<g id="node3" class="node"><title>Node3</title>
<g id="a_node3"><a xlink:href="mathUtils_8h.html" target="_top" xlink:title="mathUtils.h">
<polygon fill="white" stroke="black" points="209.5,-112.5 209.5,-131.5 274.5,-131.5 274.5,-112.5 209.5,-112.5"/>
<text text-anchor="middle" x="242" y="-119.5" font-family="FreeSans" font-size="10.00">mathUtils.h</text>
</a>
</g>
</g>
<!-- Node2&#45;&gt;Node3 -->
<g id="edge2" class="edge"><title>Node2&#45;&gt;Node3</title>
<path fill="none" stroke="midnightblue" d="M242,-168.083C242,-161.006 242,-150.861 242,-141.986"/>
<polygon fill="midnightblue" stroke="midnightblue" points="245.5,-141.751 242,-131.751 238.5,-141.751 245.5,-141.751"/>
</g>
<!-- Node8 -->
<g id="node8" class="node"><title>Node8</title>
<polygon fill="white" stroke="#bfbfbf" points="0,-0.5 0,-19.5 40,-19.5 40,-0.5 0,-0.5"/>
<text text-anchor="middle" x="20" y="-7.5" font-family="FreeSans" font-size="10.00">string</text>
</g>
<!-- Node2&#45;&gt;Node8 -->
<g id="edge13" class="edge"><title>Node2&#45;&gt;Node8</title>
<path fill="none" stroke="midnightblue" d="M206.682,-172.112C156.255,-163.056 65.0803,-138.523 23,-76 13.9417,-62.5412 14.1023,-43.7275 15.9892,-29.8022"/>
<polygon fill="midnightblue" stroke="midnightblue" points="19.4496,-30.3324 17.7294,-19.8781 12.5548,-29.1233 19.4496,-30.3324"/>
</g>
<!-- Node4 -->
<g id="node4" class="node"><title>Node4</title>
<polygon fill="white" stroke="#bfbfbf" points="321.5,-56.5 321.5,-75.5 364.5,-75.5 364.5,-56.5 321.5,-56.5"/>
<text text-anchor="middle" x="343" y="-63.5" font-family="FreeSans" font-size="10.00">vector</text>
</g>
<!-- Node3&#45;&gt;Node4 -->
<g id="edge3" class="edge"><title>Node3&#45;&gt;Node4</title>
<path fill="none" stroke="midnightblue" d="M258.227,-112.324C274.351,-103.703 299.3,-90.3643 317.964,-80.3855"/>
<polygon fill="midnightblue" stroke="midnightblue" points="319.644,-83.456 326.813,-75.6545 316.344,-77.283 319.644,-83.456"/>
</g>
<!-- Node5 -->
<g id="node5" class="node"><title>Node5</title>
<polygon fill="white" stroke="#bfbfbf" points="259,-56.5 259,-75.5 303,-75.5 303,-56.5 259,-56.5"/>
<text text-anchor="middle" x="281" y="-63.5" font-family="FreeSans" font-size="10.00">cmath</text>
</g>
<!-- Node3&#45;&gt;Node5 -->
<g id="edge4" class="edge"><title>Node3&#45;&gt;Node5</title>
<path fill="none" stroke="midnightblue" d="M248.44,-112.083C253.949,-104.455 262.031,-93.2645 268.765,-83.9408"/>
<polygon fill="midnightblue" stroke="midnightblue" points="271.662,-85.9071 274.68,-75.7511 265.987,-81.8087 271.662,-85.9071"/>
</g>
<!-- Node6 -->
<g id="node6" class="node"><title>Node6</title>
<polygon fill="white" stroke="#bfbfbf" points="421.5,-0.5 421.5,-19.5 474.5,-19.5 474.5,-0.5 421.5,-0.5"/>
<text text-anchor="middle" x="448" y="-7.5" font-family="FreeSans" font-size="10.00">iostream</text>
</g>
<!-- Node3&#45;&gt;Node6 -->
<g id="edge5" class="edge"><title>Node3&#45;&gt;Node6</title>
<path fill="none" stroke="midnightblue" d="M274.826,-119.178C330.071,-115.349 437.881,-104.352 461,-76 471.873,-62.6662 465.613,-42.7384 458.523,-28.4655"/>
<polygon fill="midnightblue" stroke="midnightblue" points="461.559,-26.7235 453.682,-19.6383 455.422,-30.0893 461.559,-26.7235"/>
</g>
<!-- Node7 -->
<g id="node7" class="node"><title>Node7</title>
<polygon fill="white" stroke="#bfbfbf" points="48,-56.5 48,-75.5 98,-75.5 98,-56.5 48,-56.5"/>
<text text-anchor="middle" x="73" y="-63.5" font-family="FreeSans" font-size="10.00">sstream</text>
</g>
<!-- Node3&#45;&gt;Node7 -->
<g id="edge6" class="edge"><title>Node3&#45;&gt;Node7</title>
<path fill="none" stroke="midnightblue" d="M215.221,-112.444C186.163,-103.159 139.66,-88.2996 107.792,-78.117"/>
<polygon fill="midnightblue" stroke="midnightblue" points="108.591,-74.6981 98.0005,-74.9883 106.461,-81.366 108.591,-74.6981"/>
</g>
<!-- Node3&#45;&gt;Node8 -->
<g id="edge7" class="edge"><title>Node3&#45;&gt;Node8</title>
<path fill="none" stroke="midnightblue" d="M209.443,-117.801C158.536,-112.156 63.38,-98.8164 39,-76 26.4014,-64.2095 22.0036,-44.5741 20.5444,-29.964"/>
<polygon fill="midnightblue" stroke="midnightblue" points="24.0124,-29.336 19.9035,-19.5703 17.0256,-29.7668 24.0124,-29.336"/>
</g>
<!-- Node9 -->
<g id="node9" class="node"><title>Node9</title>
<polygon fill="white" stroke="#bfbfbf" points="116.5,-56.5 116.5,-75.5 151.5,-75.5 151.5,-56.5 116.5,-56.5"/>
<text text-anchor="middle" x="134" y="-63.5" font-family="FreeSans" font-size="10.00">map</text>
</g>
<!-- Node3&#45;&gt;Node9 -->
<g id="edge8" class="edge"><title>Node3&#45;&gt;Node9</title>
<path fill="none" stroke="midnightblue" d="M224.648,-112.324C207.328,-103.664 180.485,-90.2424 160.498,-80.249"/>
<polygon fill="midnightblue" stroke="midnightblue" points="161.819,-76.9962 151.309,-75.6545 158.688,-83.2572 161.819,-76.9962"/>
</g>
<!-- Node3&#45;&gt;Node10 -->
<g id="edge9" class="edge"><title>Node3&#45;&gt;Node10</title>
<path fill="none" stroke="midnightblue" d="M269.729,-112.444C299.426,-103.28 346.716,-88.6876 379.669,-78.5192"/>
<polygon fill="midnightblue" stroke="midnightblue" points="380.877,-81.8094 389.4,-75.5164 378.813,-75.1206 380.877,-81.8094"/>
</g>
<!-- Node11 -->
<g id="node11" class="node"><title>Node11</title>
<polygon fill="white" stroke="#bfbfbf" points="169.5,-56.5 169.5,-75.5 240.5,-75.5 240.5,-56.5 169.5,-56.5"/>
<text text-anchor="middle" x="205" y="-63.5" font-family="FreeSans" font-size="10.00">Eigen/Dense</text>
</g>
<!-- Node3&#45;&gt;Node11 -->
<g id="edge12" class="edge"><title>Node3&#45;&gt;Node11</title>
<path fill="none" stroke="midnightblue" d="M235.89,-112.083C230.718,-104.534 223.154,-93.4948 216.806,-84.2298"/>
<polygon fill="midnightblue" stroke="midnightblue" points="219.536,-82.0221 210.996,-75.7511 213.761,-85.9787 219.536,-82.0221"/>
</g>
<!-- Node10&#45;&gt;Node6 -->
<g id="edge11" class="edge"><title>Node10&#45;&gt;Node6</title>
<path fill="none" stroke="midnightblue" d="M422.119,-56.083C426.408,-48.6127 432.658,-37.7244 437.942,-28.5199"/>
<polygon fill="midnightblue" stroke="midnightblue" points="441.033,-30.1662 442.976,-19.7511 434.962,-26.6811 441.033,-30.1662"/>
</g>
<!-- Node10&#45;&gt;Node8 -->
<g id="edge10" class="edge"><title>Node10&#45;&gt;Node8</title>
<path fill="none" stroke="midnightblue" d="M382.458,-57.6799C379.266,-57.0804 376.077,-56.5101 373,-56 254.269,-36.3177 111.831,-20.5328 50.5172,-14.1108"/>
<polygon fill="midnightblue" stroke="midnightblue" points="50.6813,-10.6091 40.373,-13.0565 49.9576,-17.5716 50.6813,-10.6091"/>
</g>
</g>
</svg>
