<?xml version="1.0" encoding="UTF-8" standalone="no"?>
<!DOCTYPE svg PUBLIC "-//W3C//DTD SVG 1.1//EN"
 "http://www.w3.org/Graphics/SVG/1.1/DTD/svg11.dtd">
<!-- Generated by graphviz version 2.28.0 (20120425.2022)
 -->
<!-- Title: G Pages: 1 -->
<svg width="1010pt" height="196pt"
 viewBox="0.00 0.00 1009.80 196.00" xmlns="http://www.w3.org/2000/svg" xmlns:xlink="http://www.w3.org/1999/xlink">
<g id="graph1" class="graph" transform="scale(1 1) rotate(0) translate(4 192)">
<title>G</title>
<polygon fill="white" stroke="white" points="-4,5 -4,-192 1006.8,-192 1006.8,5 -4,5"/>
<!-- Node1 -->
<g id="node1" class="node"><title>Node1</title>
<polygon fill="#bfbfbf" stroke="black" points="467.297,-168.5 467.297,-187.5 558.297,-187.5 558.297,-168.5 467.297,-168.5"/>
<text text-anchor="middle" x="512.797" y="-175.5" font-family="FreeSans" font-size="10.00">src/readConfig.h</text>
</g>
<!-- Node2 -->
<g id="node3" class="node"><title>Node2</title>
<a xlink:href="chemistry0d_8h.html" target="_top" xlink:title="src/chemistry0d.h">
<polygon fill="white" stroke="black" points="222.297,-112.5 222.297,-131.5 317.297,-131.5 317.297,-112.5 222.297,-112.5"/>
<text text-anchor="middle" x="269.797" y="-119.5" font-family="FreeSans" font-size="10.00">src/chemistry0d.h</text>
</a>
</g>
<!-- Node1&#45;&gt;Node2 -->
<g id="edge2" class="edge"><title>Node1&#45;&gt;Node2</title>
<path fill="none" stroke="midnightblue" d="M464.275,-166.217C418.358,-156.013 350.35,-140.901 308.121,-131.516"/>
<polygon fill="midnightblue" stroke="midnightblue" points="463.772,-169.691 474.293,-168.444 465.29,-162.858 463.772,-169.691"/>
</g>
<!-- Node5 -->
<g id="node9" class="node"><title>Node5</title>
<a xlink:href="flameSolver_8h.html" target="_top" xlink:title="src/flameSolver.h">
<polygon fill="white" stroke="red" points="354.297,-0.5 354.297,-19.5 449.297,-19.5 449.297,-0.5 354.297,-0.5"/>
<text text-anchor="middle" x="401.797" y="-7.5" font-family="FreeSans" font-size="10.00">src/flameSolver.h</text>
</a>
</g>
<!-- Node1&#45;&gt;Node5 -->
<g id="edge42" class="edge"><title>Node1&#45;&gt;Node5</title>
<path fill="none" stroke="midnightblue" d="M456.906,-174.788C336.539,-168.697 59.2744,-147.084 4.79712,-76 -38.5361,-19.4571 239.292,-11.7538 353.947,-10.9573"/>
<polygon fill="midnightblue" stroke="midnightblue" points="456.862,-178.29 467.021,-175.282 457.204,-171.298 456.862,-178.29"/>
</g>
<!-- Node8 -->
<g id="node18" class="node"><title>Node8</title>
<a xlink:href="sourceSystem_8cpp.html" target="_top" xlink:title="src/sourceSystem.cpp">
<polygon fill="white" stroke="black" points="689.797,-0.5 689.797,-19.5 805.797,-19.5 805.797,-0.5 689.797,-0.5"/>
<text text-anchor="middle" x="747.797" y="-7.5" font-family="FreeSans" font-size="10.00">src/sourceSystem.cpp</text>
</a>
</g>
<!-- Node1&#45;&gt;Node8 -->
<g id="edge46" class="edge"><title>Node1&#45;&gt;Node8</title>
<path fill="none" stroke="midnightblue" d="M568.464,-168.746C656,-154.486 819.337,-122.251 852.797,-76 873.092,-47.9469 825.992,-29.42 788.454,-19.5646"/>
<polygon fill="midnightblue" stroke="midnightblue" points="567.755,-165.315 558.436,-170.356 568.864,-172.227 567.755,-165.315"/>
</g>
<!-- Node9 -->
<g id="node20" class="node"><title>Node9</title>
<a xlink:href="strainFunction_8h.html" target="_top" xlink:title="src/strainFunction.h">
<polygon fill="white" stroke="black" points="573.297,-112.5 573.297,-131.5 674.297,-131.5 674.297,-112.5 573.297,-112.5"/>
<text text-anchor="middle" x="623.797" y="-119.5" font-family="FreeSans" font-size="10.00">src/strainFunction.h</text>
</a>
</g>
<!-- Node1&#45;&gt;Node9 -->
<g id="edge22" class="edge"><title>Node1&#45;&gt;Node9</title>
<path fill="none" stroke="midnightblue" d="M539.803,-163.862C560.385,-153.849 588.142,-140.346 606.007,-131.655"/>
<polygon fill="midnightblue" stroke="midnightblue" points="538.092,-160.802 530.631,-168.324 541.155,-167.097 538.092,-160.802"/>
</g>
<!-- Node11 -->
<g id="node27" class="node"><title>Node11</title>
<a xlink:href="grid_8h.html" target="_top" xlink:title="src/grid.h">
<polygon fill="white" stroke="black" points="372.797,-112.5 372.797,-131.5 430.797,-131.5 430.797,-112.5 372.797,-112.5"/>
<text text-anchor="middle" x="401.797" y="-119.5" font-family="FreeSans" font-size="10.00">src/grid.h</text>
</a>
</g>
<!-- Node1&#45;&gt;Node11 -->
<g id="edge32" class="edge"><title>Node1&#45;&gt;Node11</title>
<path fill="none" stroke="midnightblue" d="M485.792,-163.862C465.209,-153.849 437.452,-140.346 419.587,-131.655"/>
<polygon fill="midnightblue" stroke="midnightblue" points="484.44,-167.097 494.963,-168.324 487.502,-160.802 484.44,-167.097"/>
</g>
<!-- Node13 -->
<g id="node35" class="node"><title>Node13</title>
<a xlink:href="readConfig_8cpp.html" target="_top" xlink:title="src/readConfig.cpp">
<polygon fill="white" stroke="black" points="901.297,-112.5 901.297,-131.5 1002.3,-131.5 1002.3,-112.5 901.297,-112.5"/>
<text text-anchor="middle" x="951.797" y="-119.5" font-family="FreeSans" font-size="10.00">src/readConfig.cpp</text>
</a>
</g>
<!-- Node1&#45;&gt;Node13 -->
<g id="edge44" class="edge"><title>Node1&#45;&gt;Node13</title>
<path fill="none" stroke="midnightblue" d="M568.665,-170.593C641.805,-162.133 773.979,-146.596 886.797,-132 891.429,-131.401 896.245,-130.762 901.067,-130.113"/>
<polygon fill="midnightblue" stroke="midnightblue" points="567.844,-167.164 558.311,-171.789 568.647,-174.118 567.844,-167.164"/>
</g>
<!-- Node3 -->
<g id="node5" class="node"><title>Node3</title>
<a xlink:href="chemistry0d_8cpp.html" target="_top" xlink:title="src/chemistry0d.cpp">
<polygon fill="white" stroke="black" points="14.2971,-56.5 14.2971,-75.5 119.297,-75.5 119.297,-56.5 14.2971,-56.5"/>
<text text-anchor="middle" x="66.7971" y="-63.5" font-family="FreeSans" font-size="10.00">src/chemistry0d.cpp</text>
</a>
</g>
<!-- Node2&#45;&gt;Node3 -->
<g id="edge4" class="edge"><title>Node2&#45;&gt;Node3</title>
<path fill="none" stroke="midnightblue" d="M227.803,-109.829C189.474,-99.6333 133.645,-84.7823 98.8126,-75.5164"/>
<polygon fill="midnightblue" stroke="midnightblue" points="227.067,-113.255 237.631,-112.444 228.867,-106.49 227.067,-113.255"/>
</g>
<!-- Node4 -->
<g id="node7" class="node"><title>Node4</title>
<a xlink:href="convectionSystem_8h.html" target="_top" xlink:title="src/convectionSystem.h">
<polygon fill="white" stroke="red" points="430.297,-56.5 430.297,-75.5 553.297,-75.5 553.297,-56.5 430.297,-56.5"/>
<text text-anchor="middle" x="491.797" y="-63.5" font-family="FreeSans" font-size="10.00">src/convectionSystem.h</text>
</a>
</g>
<!-- Node2&#45;&gt;Node4 -->
<g id="edge6" class="edge"><title>Node2&#45;&gt;Node4</title>
<path fill="none" stroke="midnightblue" d="M314.922,-110.024C356.857,-99.8232 418.449,-84.8414 456.785,-75.5164"/>
<polygon fill="midnightblue" stroke="midnightblue" points="313.863,-106.679 304.974,-112.444 315.518,-113.481 313.863,-106.679"/>
</g>
<!-- Node2&#45;&gt;Node5 -->
<g id="edge14" class="edge"><title>Node2&#45;&gt;Node5</title>
<path fill="none" stroke="midnightblue" d="M221.959,-109.645C186.09,-98.8682 146.416,-80.654 166.797,-56 190.088,-27.8256 292.428,-17.1215 354.116,-13.1828"/>
<polygon fill="midnightblue" stroke="midnightblue" points="221.345,-113.109 231.922,-112.486 223.265,-106.377 221.345,-113.109"/>
</g>
<!-- Node6 -->
<g id="node11" class="node"><title>Node6</title>
<a xlink:href="diffusionSystem_8h.html" target="_top" xlink:title="src/diffusionSystem.h">
<polygon fill="white" stroke="red" points="176.297,-56.5 176.297,-75.5 287.297,-75.5 287.297,-56.5 176.297,-56.5"/>
<text text-anchor="middle" x="231.797" y="-63.5" font-family="FreeSans" font-size="10.00">src/diffusionSystem.h</text>
</a>
</g>
<!-- Node2&#45;&gt;Node6 -->
<g id="edge10" class="edge"><title>Node2&#45;&gt;Node6</title>
<path fill="none" stroke="midnightblue" d="M257.732,-103.855C251.152,-94.5048 243.286,-83.3265 237.955,-75.7511"/>
<polygon fill="midnightblue" stroke="midnightblue" points="254.905,-105.919 263.522,-112.083 260.63,-101.891 254.905,-105.919"/>
</g>
<!-- Node7 -->
<g id="node15" class="node"><title>Node7</title>
<a xlink:href="sourceSystem_8h.html" target="_top" xlink:title="src/sourceSystem.h">
<polygon fill="white" stroke="black" points="571.297,-56.5 571.297,-75.5 676.297,-75.5 676.297,-56.5 571.297,-56.5"/>
<text text-anchor="middle" x="623.797" y="-63.5" font-family="FreeSans" font-size="10.00">src/sourceSystem.h</text>
</a>
</g>
<!-- Node2&#45;&gt;Node7 -->
<g id="edge16" class="edge"><title>Node2&#45;&gt;Node7</title>
<path fill="none" stroke="midnightblue" d="M327.581,-112.186C395.08,-101.889 505.803,-84.9991 571.057,-75.0452"/>
<polygon fill="midnightblue" stroke="midnightblue" points="326.897,-108.749 317.539,-113.717 327.953,-115.669 326.897,-108.749"/>
</g>
<!-- Node4&#45;&gt;Node5 -->
<g id="edge8" class="edge"><title>Node4&#45;&gt;Node5</title>
<path fill="none" stroke="midnightblue" d="M468.759,-51.1774C452.198,-41.2407 430.379,-28.1492 416.221,-19.6545"/>
<polygon fill="midnightblue" stroke="midnightblue" points="466.961,-54.1802 477.337,-56.324 470.563,-48.1777 466.961,-54.1802"/>
</g>
<!-- Node6&#45;&gt;Node5 -->
<g id="edge12" class="edge"><title>Node6&#45;&gt;Node5</title>
<path fill="none" stroke="midnightblue" d="M268.617,-53.3044C300.649,-43.1294 346.312,-28.6246 374.986,-19.5164"/>
<polygon fill="midnightblue" stroke="midnightblue" points="267.205,-50.0803 258.734,-56.4435 269.324,-56.7518 267.205,-50.0803"/>
</g>
<!-- Node7&#45;&gt;Node5 -->
<g id="edge18" class="edge"><title>Node7&#45;&gt;Node5</title>
<path fill="none" stroke="midnightblue" d="M578.672,-54.0237C536.737,-43.8232 475.145,-28.8414 436.809,-19.5164"/>
<polygon fill="midnightblue" stroke="midnightblue" points="578.077,-57.4808 588.621,-56.4435 579.731,-50.6791 578.077,-57.4808"/>
</g>
<!-- Node7&#45;&gt;Node8 -->
<g id="edge20" class="edge"><title>Node7&#45;&gt;Node8</title>
<path fill="none" stroke="midnightblue" d="M652.804,-52.3678C676.026,-42.2553 707.96,-28.3486 728.241,-19.5164"/>
<polygon fill="midnightblue" stroke="midnightblue" points="651.216,-49.2419 643.445,-56.4435 654.011,-55.6597 651.216,-49.2419"/>
</g>
<!-- Node9&#45;&gt;Node4 -->
<g id="edge24" class="edge"><title>Node9&#45;&gt;Node4</title>
<path fill="none" stroke="midnightblue" d="M593.578,-108.638C568.807,-98.504 534.398,-84.4274 512.615,-75.5164"/>
<polygon fill="midnightblue" stroke="midnightblue" points="592.301,-111.897 602.881,-112.444 594.951,-105.418 592.301,-111.897"/>
</g>
<!-- Node9&#45;&gt;Node5 -->
<g id="edge28" class="edge"><title>Node9&#45;&gt;Node5</title>
<path fill="none" stroke="midnightblue" d="M651.429,-107.51C674.241,-94.5977 700.515,-74.4151 684.797,-56 655.083,-21.1877 521.885,-13.171 449.311,-11.4153"/>
<polygon fill="midnightblue" stroke="midnightblue" points="649.466,-104.592 642.316,-112.41 652.781,-110.757 649.466,-104.592"/>
</g>
<!-- Node9&#45;&gt;Node7 -->
<g id="edge26" class="edge"><title>Node9&#45;&gt;Node7</title>
<path fill="none" stroke="midnightblue" d="M623.797,-101.805C623.797,-92.9102 623.797,-82.7798 623.797,-75.7511"/>
<polygon fill="midnightblue" stroke="midnightblue" points="620.297,-102.083 623.797,-112.083 627.297,-102.083 620.297,-102.083"/>
</g>
<!-- Node10 -->
<g id="node25" class="node"><title>Node10</title>
<a xlink:href="strainFunction_8cpp.html" target="_top" xlink:title="src/strainFunction.cpp">
<polygon fill="white" stroke="black" points="732.797,-56.5 732.797,-75.5 844.797,-75.5 844.797,-56.5 732.797,-56.5"/>
<text text-anchor="middle" x="788.797" y="-63.5" font-family="FreeSans" font-size="10.00">src/strainFunction.cpp</text>
</a>
</g>
<!-- Node9&#45;&gt;Node10 -->
<g id="edge30" class="edge"><title>Node9&#45;&gt;Node10</title>
<path fill="none" stroke="midnightblue" d="M659.534,-109.304C690.624,-99.1294 734.944,-84.6246 762.775,-75.5164"/>
<polygon fill="midnightblue" stroke="midnightblue" points="658.357,-106.007 649.942,-112.444 660.534,-112.659 658.357,-106.007"/>
</g>
<!-- Node11&#45;&gt;Node4 -->
<g id="edge34" class="edge"><title>Node11&#45;&gt;Node4</title>
<path fill="none" stroke="midnightblue" d="M424.835,-107.177C441.396,-97.2407 463.215,-84.1492 477.373,-75.6545"/>
<polygon fill="midnightblue" stroke="midnightblue" points="423.031,-104.178 416.257,-112.324 426.633,-110.18 423.031,-104.178"/>
</g>
<!-- Node11&#45;&gt;Node5 -->
<g id="edge38" class="edge"><title>Node11&#45;&gt;Node5</title>
<path fill="none" stroke="midnightblue" d="M401.797,-102.348C401.797,-78.2538 401.797,-37.3079 401.797,-19.5914"/>
<polygon fill="midnightblue" stroke="midnightblue" points="398.297,-102.368 401.797,-112.368 405.297,-102.369 398.297,-102.368"/>
</g>
<!-- Node11&#45;&gt;Node6 -->
<g id="edge36" class="edge"><title>Node11&#45;&gt;Node6</title>
<path fill="none" stroke="midnightblue" d="M364.978,-109.304C332.945,-99.1294 287.282,-84.6246 258.608,-75.5164"/>
<polygon fill="midnightblue" stroke="midnightblue" points="364.27,-112.752 374.86,-112.444 366.389,-106.08 364.27,-112.752"/>
</g>
<!-- Node12 -->
<g id="node32" class="node"><title>Node12</title>
<a xlink:href="grid_8cpp.html" target="_top" xlink:title="src/grid.cpp">
<polygon fill="white" stroke="black" points="305.797,-56.5 305.797,-75.5 373.797,-75.5 373.797,-56.5 305.797,-56.5"/>
<text text-anchor="middle" x="339.797" y="-63.5" font-family="FreeSans" font-size="10.00">src/grid.cpp</text>
</a>
</g>
<!-- Node11&#45;&gt;Node12 -->
<g id="edge40" class="edge"><title>Node11&#45;&gt;Node12</title>
<path fill="none" stroke="midnightblue" d="M384.044,-105.537C372.989,-95.9087 359.166,-83.8694 349.94,-75.8339"/>
<polygon fill="midnightblue" stroke="midnightblue" points="381.996,-108.395 391.836,-112.324 386.594,-103.117 381.996,-108.395"/>
</g>
</g>
</svg>
