<?xml version="1.0" encoding="UTF-8" standalone="no"?>
<!DOCTYPE svg PUBLIC "-//W3C//DTD SVG 1.1//EN"
 "http://www.w3.org/Graphics/SVG/1.1/DTD/svg11.dtd">
<!-- Generated by graphviz version 2.28.0 (20120425.2022)
 -->
<!-- Title: src/readConfig.cpp Pages: 1 -->
<svg width="142pt" height="252pt"
 viewBox="0.00 0.00 141.55 252.00" xmlns="http://www.w3.org/2000/svg" xmlns:xlink="http://www.w3.org/1999/xlink">
<g id="graph1" class="graph" transform="scale(1 1) rotate(0) translate(4 248)">
<title>src/readConfig.cpp</title>
<polygon fill="white" stroke="white" points="-4,5 -4,-248 138.549,-248 138.549,5 -4,5"/>
<!-- Node1 -->
<g id="node1" class="node"><title>Node1</title>
<polygon fill="#bfbfbf" stroke="black" points="24.0488,-224.5 24.0488,-243.5 125.049,-243.5 125.049,-224.5 24.0488,-224.5"/>
<text text-anchor="middle" x="74.5488" y="-231.5" font-family="FreeSans" font-size="10.00">src/readConfig.cpp</text>
</g>
<!-- Node2 -->
<g id="node3" class="node"><title>Node2</title>
<a xlink:href="readConfig_8h.html" target="_top" xlink:title="readConfig.h">
<polygon fill="white" stroke="black" points="5.54882,-168.5 5.54882,-187.5 79.5488,-187.5 79.5488,-168.5 5.54882,-168.5"/>
<text text-anchor="middle" x="42.5488" y="-175.5" font-family="FreeSans" font-size="10.00">readConfig.h</text>
</a>
</g>
<!-- Node1&#45;&gt;Node2 -->
<g id="edge2" class="edge"><title>Node1&#45;&gt;Node2</title>
<path fill="none" stroke="midnightblue" d="M69.2647,-224.083C64.8378,-216.613 58.3855,-205.724 52.931,-196.52"/>
<polygon fill="midnightblue" stroke="midnightblue" points="55.8437,-194.57 47.7346,-187.751 49.8217,-198.138 55.8437,-194.57"/>
</g>
<!-- Node5 -->
<g id="node9" class="node"><title>Node5</title>
<a xlink:href="debugUtils_8h.html" target="_top" xlink:title="debugUtils.h">
<polygon fill="white" stroke="red" points="62.0488,-56.5 62.0488,-75.5 133.049,-75.5 133.049,-56.5 62.0488,-56.5"/>
<text text-anchor="middle" x="97.5488" y="-63.5" font-family="FreeSans" font-size="10.00">debugUtils.h</text>
</a>
</g>
<!-- Node1&#45;&gt;Node5 -->
<g id="edge14" class="edge"><title>Node1&#45;&gt;Node5</title>
<path fill="none" stroke="midnightblue" d="M77.9467,-224.187C81.2458,-215.223 86.1031,-200.86 88.5488,-188 95.3468,-152.254 97.0685,-109.658 97.4693,-85.7305"/>
<polygon fill="midnightblue" stroke="midnightblue" points="100.97,-85.6321 97.5764,-75.5956 93.9708,-85.558 100.97,-85.6321"/>
</g>
<!-- Node3 -->
<g id="node5" class="node"><title>Node3</title>
<a xlink:href="mathUtils_8h.html" target="_top" xlink:title="mathUtils.h">
<polygon fill="white" stroke="red" points="14.0488,-112.5 14.0488,-131.5 79.0488,-131.5 79.0488,-112.5 14.0488,-112.5"/>
<text text-anchor="middle" x="46.5488" y="-119.5" font-family="FreeSans" font-size="10.00">mathUtils.h</text>
</a>
</g>
<!-- Node2&#45;&gt;Node3 -->
<g id="edge4" class="edge"><title>Node2&#45;&gt;Node3</title>
<path fill="none" stroke="midnightblue" d="M43.2093,-168.083C43.7336,-161.006 44.485,-150.861 45.1424,-141.986"/>
<polygon fill="midnightblue" stroke="midnightblue" points="48.6522,-141.982 45.9006,-131.751 41.6713,-141.465 48.6522,-141.982"/>
</g>
<!-- Node4 -->
<g id="node7" class="node"><title>Node4</title>
<polygon fill="white" stroke="#bfbfbf" points="13.0488,-0.5 13.0488,-19.5 54.0488,-19.5 54.0488,-0.5 13.0488,-0.5"/>
<text text-anchor="middle" x="33.5488" y="-7.5" font-family="FreeSans" font-size="10.00">string</text>
</g>
<!-- Node2&#45;&gt;Node4 -->
<g id="edge12" class="edge"><title>Node2&#45;&gt;Node4</title>
<path fill="none" stroke="midnightblue" d="M31.8343,-168.305C22.6104,-160.069 9.95778,-146.789 4.54882,-132 -8.50113,-96.3193 10.0674,-52.5545 22.9693,-28.6541"/>
<polygon fill="midnightblue" stroke="midnightblue" points="26.1538,-30.1338 28.043,-19.7088 20.065,-26.6803 26.1538,-30.1338"/>
</g>
<!-- Node3&#45;&gt;Node4 -->
<g id="edge6" class="edge"><title>Node3&#45;&gt;Node4</title>
<path fill="none" stroke="midnightblue" d="M45.5287,-112.368C43.4308,-94.617 38.5912,-53.6664 35.7467,-29.5974"/>
<polygon fill="midnightblue" stroke="midnightblue" points="39.2137,-29.1115 34.5642,-19.5914 32.2621,-29.9331 39.2137,-29.1115"/>
</g>
<!-- Node3&#45;&gt;Node5 -->
<g id="edge8" class="edge"><title>Node3&#45;&gt;Node5</title>
<path fill="none" stroke="midnightblue" d="M54.9704,-112.083C62.397,-104.22 73.4005,-92.5688 82.361,-83.0813"/>
<polygon fill="midnightblue" stroke="midnightblue" points="84.9622,-85.4244 89.2839,-75.7511 79.8731,-80.618 84.9622,-85.4244"/>
</g>
<!-- Node5&#45;&gt;Node4 -->
<g id="edge10" class="edge"><title>Node5&#45;&gt;Node4</title>
<path fill="none" stroke="midnightblue" d="M87.2661,-56.324C77.7125,-48.2631 63.2691,-36.0765 51.7645,-26.3695"/>
<polygon fill="midnightblue" stroke="midnightblue" points="53.9186,-23.6076 44.0186,-19.8339 49.4045,-28.9577 53.9186,-23.6076"/>
</g>
</g>
</svg>
