<?xml version="1.0" encoding="UTF-8" standalone="no"?>
<!DOCTYPE svg PUBLIC "-//W3C//DTD SVG 1.1//EN"
 "http://www.w3.org/Graphics/SVG/1.1/DTD/svg11.dtd">
<!-- Generated by graphviz version 2.28.0 (20120425.2022)
 -->
<!-- Title: src/readConfig.h Pages: 1 -->
<svg width="951pt" height="196pt"
 viewBox="0.00 0.00 951.00 196.00" xmlns="http://www.w3.org/2000/svg" xmlns:xlink="http://www.w3.org/1999/xlink">
<g id="graph1" class="graph" transform="scale(1 1) rotate(0) translate(4 192)">
<title>src/readConfig.h</title>
<polygon fill="white" stroke="white" points="-4,5 -4,-192 948,-192 948,5 -4,5"/>
<!-- Node1 -->
<g id="node1" class="node"><title>Node1</title>
<polygon fill="#bfbfbf" stroke="black" points="467.5,-168.5 467.5,-187.5 558.5,-187.5 558.5,-168.5 467.5,-168.5"/>
<text text-anchor="middle" x="513" y="-175.5" font-family="FreeSans" font-size="10.00">src/readConfig.h</text>
</g>
<!-- Node2 -->
<g id="node3" class="node"><title>Node2</title>
<a xlink:href="chemistry0d_8cpp.html" target="_top" xlink:title="src/chemistry0d.cpp">
<polygon fill="white" stroke="black" points="136.5,-112.5 136.5,-131.5 241.5,-131.5 241.5,-112.5 136.5,-112.5"/>
<text text-anchor="middle" x="189" y="-119.5" font-family="FreeSans" font-size="10.00">src/chemistry0d.cpp</text>
</a>
</g>
<!-- Node1&#45;&gt;Node2 -->
<g id="edge2" class="edge"><title>Node1&#45;&gt;Node2</title>
<path fill="none" stroke="midnightblue" d="M457.047,-167.675C396.015,-157.502 299.162,-141.36 240.109,-131.518"/>
<polygon fill="midnightblue" stroke="midnightblue" points="456.827,-171.186 467.266,-169.378 457.977,-164.281 456.827,-171.186"/>
</g>
<!-- Node3 -->
<g id="node5" class="node"><title>Node3</title>
<a xlink:href="grid_8h.html" target="_top" xlink:title="src/grid.h">
<polygon fill="white" stroke="black" points="260,-112.5 260,-131.5 318,-131.5 318,-112.5 260,-112.5"/>
<text text-anchor="middle" x="289" y="-119.5" font-family="FreeSans" font-size="10.00">src/grid.h</text>
</a>
</g>
<!-- Node1&#45;&gt;Node3 -->
<g id="edge4" class="edge"><title>Node1&#45;&gt;Node3</title>
<path fill="none" stroke="midnightblue" d="M467.509,-166.033C422.905,-155.281 356.235,-139.208 318.26,-130.054"/>
<polygon fill="midnightblue" stroke="midnightblue" points="466.965,-169.502 477.507,-168.444 468.605,-162.697 466.965,-169.502"/>
</g>
<!-- Node5 -->
<g id="node9" class="node"><title>Node5</title>
<a xlink:href="flameSolver_8h.html" target="_top" xlink:title="src/flameSolver.h">
<polygon fill="white" stroke="red" points="187.5,-0.5 187.5,-19.5 282.5,-19.5 282.5,-0.5 187.5,-0.5"/>
<text text-anchor="middle" x="235" y="-7.5" font-family="FreeSans" font-size="10.00">src/flameSolver.h</text>
</a>
</g>
<!-- Node1&#45;&gt;Node5 -->
<g id="edge18" class="edge"><title>Node1&#45;&gt;Node5</title>
<path fill="none" stroke="midnightblue" d="M476.29,-164.671C458.779,-157.346 438.533,-146.598 424,-132 397.356,-105.237 414.923,-80.2822 386,-56 356.879,-31.5518 314.865,-20.3861 282.543,-15.2867"/>
<polygon fill="midnightblue" stroke="midnightblue" points="475.097,-167.963 485.683,-168.39 477.674,-161.454 475.097,-167.963"/>
</g>
<!-- Node8 -->
<g id="node18" class="node"><title>Node8</title>
<a xlink:href="splitSolver_8h.html" target="_top" xlink:title="src/splitSolver.h">
<polygon fill="white" stroke="black" points="433.5,-112.5 433.5,-131.5 520.5,-131.5 520.5,-112.5 433.5,-112.5"/>
<text text-anchor="middle" x="477" y="-119.5" font-family="FreeSans" font-size="10.00">src/splitSolver.h</text>
</a>
</g>
<!-- Node1&#45;&gt;Node8 -->
<g id="edge20" class="edge"><title>Node1&#45;&gt;Node8</title>
<path fill="none" stroke="midnightblue" d="M501.377,-159.566C495.183,-150.275 487.832,-139.248 482.834,-131.751"/>
<polygon fill="midnightblue" stroke="midnightblue" points="498.596,-161.704 507.055,-168.083 504.42,-157.821 498.596,-161.704"/>
</g>
<!-- Node9 -->
<g id="node21" class="node"><title>Node9</title>
<a xlink:href="splitSolver_8cpp.html" target="_top" xlink:title="src/splitSolver.cpp">
<polygon fill="white" stroke="black" points="492,-56.5 492,-75.5 590,-75.5 590,-56.5 492,-56.5"/>
<text text-anchor="middle" x="541" y="-63.5" font-family="FreeSans" font-size="10.00">src/splitSolver.cpp</text>
</a>
</g>
<!-- Node1&#45;&gt;Node9 -->
<g id="edge30" class="edge"><title>Node1&#45;&gt;Node9</title>
<path fill="none" stroke="midnightblue" d="M520.269,-158.654C523.276,-150.574 526.61,-140.909 529,-132 534.352,-112.05 538.11,-88.0194 539.87,-75.5099"/>
<polygon fill="midnightblue" stroke="midnightblue" points="516.933,-157.577 516.612,-168.167 523.467,-160.089 516.933,-157.577"/>
</g>
<!-- Node10 -->
<g id="node23" class="node"><title>Node10</title>
<a xlink:href="readConfig_8cpp.html" target="_top" xlink:title="src/readConfig.cpp">
<polygon fill="white" stroke="black" points="577.5,-112.5 577.5,-131.5 678.5,-131.5 678.5,-112.5 577.5,-112.5"/>
<text text-anchor="middle" x="628" y="-119.5" font-family="FreeSans" font-size="10.00">src/readConfig.cpp</text>
</a>
</g>
<!-- Node1&#45;&gt;Node10 -->
<g id="edge26" class="edge"><title>Node1&#45;&gt;Node10</title>
<path fill="none" stroke="midnightblue" d="M540.481,-164.096C561.966,-154.007 591.222,-140.27 609.863,-131.516"/>
<polygon fill="midnightblue" stroke="midnightblue" points="538.786,-161.025 531.222,-168.444 541.762,-167.361 538.786,-161.025"/>
</g>
<!-- Node11 -->
<g id="node25" class="node"><title>Node11</title>
<a xlink:href="sourceSystem_8cpp.html" target="_top" xlink:title="src/sourceSystem.cpp">
<polygon fill="white" stroke="black" points="697,-112.5 697,-131.5 813,-131.5 813,-112.5 697,-112.5"/>
<text text-anchor="middle" x="755" y="-119.5" font-family="FreeSans" font-size="10.00">src/sourceSystem.cpp</text>
</a>
</g>
<!-- Node1&#45;&gt;Node11 -->
<g id="edge28" class="edge"><title>Node1&#45;&gt;Node11</title>
<path fill="none" stroke="midnightblue" d="M561.323,-166.217C607.051,-156.013 674.779,-140.901 716.834,-131.516"/>
<polygon fill="midnightblue" stroke="midnightblue" points="560.343,-162.85 551.346,-168.444 561.868,-169.682 560.343,-162.85"/>
</g>
<!-- Node12 -->
<g id="node28" class="node"><title>Node12</title>
<a xlink:href="strainFunction_8cpp.html" target="_top" xlink:title="src/strainFunction.cpp">
<polygon fill="white" stroke="black" points="831,-112.5 831,-131.5 943,-131.5 943,-112.5 831,-112.5"/>
<text text-anchor="middle" x="887" y="-119.5" font-family="FreeSans" font-size="10.00">src/strainFunction.cpp</text>
</a>
</g>
<!-- Node1&#45;&gt;Node12 -->
<g id="edge32" class="edge"><title>Node1&#45;&gt;Node12</title>
<path fill="none" stroke="midnightblue" d="M568.888,-168.931C639.403,-158.749 759.98,-141.34 830.692,-131.13"/>
<polygon fill="midnightblue" stroke="midnightblue" points="568.257,-165.485 558.86,-170.379 569.257,-172.414 568.257,-165.485"/>
</g>
<!-- Node4 -->
<g id="node7" class="node"><title>Node4</title>
<a xlink:href="convectionSystem_8h.html" target="_top" xlink:title="src/convectionSystem.h">
<polygon fill="white" stroke="red" points="-0.5,-56.5 -0.5,-75.5 122.5,-75.5 122.5,-56.5 -0.5,-56.5"/>
<text text-anchor="middle" x="61" y="-63.5" font-family="FreeSans" font-size="10.00">src/convectionSystem.h</text>
</a>
</g>
<!-- Node3&#45;&gt;Node4 -->
<g id="edge6" class="edge"><title>Node3&#45;&gt;Node4</title>
<path fill="none" stroke="midnightblue" d="M249.851,-111.728C206.922,-101.56 138.614,-85.3823 96.9838,-75.5225"/>
<polygon fill="midnightblue" stroke="midnightblue" points="249.122,-115.152 259.66,-114.051 250.736,-108.34 249.122,-115.152"/>
</g>
<!-- Node3&#45;&gt;Node5 -->
<g id="edge14" class="edge"><title>Node3&#45;&gt;Node5</title>
<path fill="none" stroke="midnightblue" d="M250.236,-111.447C219.253,-102.935 179.489,-89.7326 170,-76 154.124,-53.0231 190.328,-31.0854 214.828,-19.5032"/>
<polygon fill="midnightblue" stroke="midnightblue" points="249.373,-114.839 259.938,-114.041 251.181,-108.077 249.373,-114.839"/>
</g>
<!-- Node6 -->
<g id="node11" class="node"><title>Node6</title>
<a xlink:href="diffusionSystem_8h.html" target="_top" xlink:title="src/diffusionSystem.h">
<polygon fill="white" stroke="red" points="179.5,-56.5 179.5,-75.5 290.5,-75.5 290.5,-56.5 179.5,-56.5"/>
<text text-anchor="middle" x="235" y="-63.5" font-family="FreeSans" font-size="10.00">src/diffusionSystem.h</text>
</a>
</g>
<!-- Node3&#45;&gt;Node6 -->
<g id="edge10" class="edge"><title>Node3&#45;&gt;Node6</title>
<path fill="none" stroke="midnightblue" d="M273.002,-105.002C263.433,-95.4329 251.639,-83.6389 243.751,-75.7511"/>
<polygon fill="midnightblue" stroke="midnightblue" points="270.537,-107.487 280.083,-112.083 275.487,-102.537 270.537,-107.487"/>
</g>
<!-- Node7 -->
<g id="node15" class="node"><title>Node7</title>
<a xlink:href="grid_8cpp.html" target="_top" xlink:title="src/grid.cpp">
<polygon fill="white" stroke="black" points="309,-56.5 309,-75.5 377,-75.5 377,-56.5 309,-56.5"/>
<text text-anchor="middle" x="343" y="-63.5" font-family="FreeSans" font-size="10.00">src/grid.cpp</text>
</a>
</g>
<!-- Node3&#45;&gt;Node7 -->
<g id="edge16" class="edge"><title>Node3&#45;&gt;Node7</title>
<path fill="none" stroke="midnightblue" d="M304.998,-105.002C314.567,-95.4329 326.361,-83.6389 334.249,-75.7511"/>
<polygon fill="midnightblue" stroke="midnightblue" points="302.513,-102.537 297.917,-112.083 307.463,-107.487 302.513,-102.537"/>
</g>
<!-- Node4&#45;&gt;Node5 -->
<g id="edge8" class="edge"><title>Node4&#45;&gt;Node5</title>
<path fill="none" stroke="midnightblue" d="M98.2607,-53.4363C131.067,-43.2551 178.083,-28.664 207.558,-19.5164"/>
<polygon fill="midnightblue" stroke="midnightblue" points="97.084,-50.1368 88.5708,-56.4435 99.1589,-56.8222 97.084,-50.1368"/>
</g>
<!-- Node6&#45;&gt;Node5 -->
<g id="edge12" class="edge"><title>Node6&#45;&gt;Node5</title>
<path fill="none" stroke="midnightblue" d="M235,-45.8045C235,-36.9102 235,-26.7798 235,-19.7511"/>
<polygon fill="midnightblue" stroke="midnightblue" points="231.5,-46.083 235,-56.083 238.5,-46.083 231.5,-46.083"/>
</g>
<!-- Node8&#45;&gt;Node5 -->
<g id="edge22" class="edge"><title>Node8&#45;&gt;Node5</title>
<path fill="none" stroke="midnightblue" d="M466.229,-103.988C455.905,-89.0898 438.968,-67.9983 419,-56 376.999,-30.7631 321.558,-19.6593 282.55,-14.7861"/>
<polygon fill="midnightblue" stroke="midnightblue" points="463.321,-105.936 471.771,-112.328 469.151,-102.062 463.321,-105.936"/>
</g>
<!-- Node8&#45;&gt;Node9 -->
<g id="edge24" class="edge"><title>Node8&#45;&gt;Node9</title>
<path fill="none" stroke="midnightblue" d="M494.991,-105.82C506.458,-96.1452 520.913,-83.9481 530.53,-75.8339"/>
<polygon fill="midnightblue" stroke="midnightblue" points="492.669,-103.2 487.283,-112.324 497.183,-108.55 492.669,-103.2"/>
</g>
</g>
</svg>
