<?xml version="1.0" encoding="UTF-8" standalone="no"?>
<!DOCTYPE svg PUBLIC "-//W3C//DTD SVG 1.1//EN"
 "http://www.w3.org/Graphics/SVG/1.1/DTD/svg11.dtd">
<!-- Generated by graphviz version 2.38.0 (20140413.2041)
 -->
<!-- Title: src/readConfig.h Pages: 1 -->
<svg width="937pt" height="196pt"
 viewBox="0.00 0.00 937.00 196.00" xmlns="http://www.w3.org/2000/svg" xmlns:xlink="http://www.w3.org/1999/xlink">
<g id="graph0" class="graph" transform="scale(1 1) rotate(0) translate(4 192)">
<title>src/readConfig.h</title>
<polygon fill="white" stroke="none" points="-4,4 -4,-192 933,-192 933,4 -4,4"/>
<!-- Node1 -->
<g id="node1" class="node"><title>Node1</title>
<polygon fill="#bfbfbf" stroke="black" points="466.5,-168.5 466.5,-187.5 552.5,-187.5 552.5,-168.5 466.5,-168.5"/>
<text text-anchor="middle" x="509.5" y="-175.5" font-family="FreeSans" font-size="10.00">src/readConfig.h</text>
</g>
<!-- Node2 -->
<g id="node2" class="node"><title>Node2</title>
<g id="a_node2"><a xlink:href="chemistry0d_8cpp.html" target="_top" xlink:title="src/chemistry0d.cpp">
<polygon fill="white" stroke="black" points="179.5,-112.5 179.5,-131.5 281.5,-131.5 281.5,-112.5 179.5,-112.5"/>
<text text-anchor="middle" x="230.5" y="-119.5" font-family="FreeSans" font-size="10.00">src/chemistry0d.cpp</text>
</a>
</g>
</g>
<!-- Node1&#45;&gt;Node2 -->
<g id="edge1" class="edge"><title>Node1&#45;&gt;Node2</title>
<path fill="none" stroke="midnightblue" d="M456.392,-166.721C403.779,-156.538 324.126,-141.121 274.812,-131.577"/>
<polygon fill="midnightblue" stroke="midnightblue" points="455.729,-170.158 466.212,-168.622 457.06,-163.285 455.729,-170.158"/>
</g>
<!-- Node3 -->
<g id="node3" class="node"><title>Node3</title>
<g id="a_node3"><a xlink:href="grid_8h.html" target="_top" xlink:title="src/grid.h">
<polygon fill="white" stroke="black" points="299.5,-112.5 299.5,-131.5 355.5,-131.5 355.5,-112.5 299.5,-112.5"/>
<text text-anchor="middle" x="327.5" y="-119.5" font-family="FreeSans" font-size="10.00">src/grid.h</text>
</a>
</g>
</g>
<!-- Node1&#45;&gt;Node3 -->
<g id="edge2" class="edge"><title>Node1&#45;&gt;Node3</title>
<path fill="none" stroke="midnightblue" d="M470.909,-165.55C436.356,-155.298 386.509,-140.508 355.605,-131.339"/>
<polygon fill="midnightblue" stroke="midnightblue" points="470.079,-168.954 480.662,-168.444 472.07,-162.244 470.079,-168.954"/>
</g>
<!-- Node6 -->
<g id="node6" class="node"><title>Node6</title>
<g id="a_node6"><a xlink:href="flameSolver_8h.html" target="_top" xlink:title="src/flameSolver.h">
<polygon fill="white" stroke="red" points="321.5,-0.5 321.5,-19.5 411.5,-19.5 411.5,-0.5 321.5,-0.5"/>
<text text-anchor="middle" x="366.5" y="-7.5" font-family="FreeSans" font-size="10.00">src/flameSolver.h</text>
</a>
</g>
</g>
<!-- Node1&#45;&gt;Node6 -->
<g id="edge11" class="edge"><title>Node1&#45;&gt;Node6</title>
<path fill="none" stroke="midnightblue" d="M473.77,-164.511C456.841,-157.16 437.345,-146.437 423.5,-132 390.712,-97.8103 373.984,-41.2742 368.541,-19.7171"/>
<polygon fill="midnightblue" stroke="midnightblue" points="472.799,-167.895 483.38,-168.451 475.455,-161.419 472.799,-167.895"/>
</g>
<!-- Node10 -->
<g id="node10" class="node"><title>Node10</title>
<g id="a_node10"><a xlink:href="splitSolver_8h.html" target="_top" xlink:title="src/splitSolver.h">
<polygon fill="white" stroke="black" points="432.5,-112.5 432.5,-131.5 516.5,-131.5 516.5,-112.5 432.5,-112.5"/>
<text text-anchor="middle" x="474.5" y="-119.5" font-family="FreeSans" font-size="10.00">src/splitSolver.h</text>
</a>
</g>
</g>
<!-- Node1&#45;&gt;Node10 -->
<g id="edge12" class="edge"><title>Node1&#45;&gt;Node10</title>
<path fill="none" stroke="midnightblue" d="M498.2,-159.566C492.178,-150.275 485.031,-139.248 480.172,-131.751"/>
<polygon fill="midnightblue" stroke="midnightblue" points="495.344,-161.595 503.72,-168.083 501.219,-157.788 495.344,-161.595"/>
</g>
<!-- Node11 -->
<g id="node11" class="node"><title>Node11</title>
<g id="a_node11"><a xlink:href="splitSolver_8cpp.html" target="_top" xlink:title="src/splitSolver.cpp">
<polygon fill="white" stroke="black" points="490,-56.5 490,-75.5 585,-75.5 585,-56.5 490,-56.5"/>
<text text-anchor="middle" x="537.5" y="-63.5" font-family="FreeSans" font-size="10.00">src/splitSolver.cpp</text>
</a>
</g>
</g>
<!-- Node1&#45;&gt;Node11 -->
<g id="edge18" class="edge"><title>Node1&#45;&gt;Node11</title>
<path fill="none" stroke="midnightblue" d="M516.769,-158.654C519.776,-150.574 523.11,-140.909 525.5,-132 530.852,-112.05 534.61,-88.0194 536.37,-75.5099"/>
<polygon fill="midnightblue" stroke="midnightblue" points="513.433,-157.577 513.112,-168.167 519.967,-160.089 513.433,-157.577"/>
</g>
<!-- Node12 -->
<g id="node12" class="node"><title>Node12</title>
<g id="a_node12"><a xlink:href="readConfig_8cpp.html" target="_top" xlink:title="src/readConfig.cpp">
<polygon fill="white" stroke="black" points="572.5,-112.5 572.5,-131.5 668.5,-131.5 668.5,-112.5 572.5,-112.5"/>
<text text-anchor="middle" x="620.5" y="-119.5" font-family="FreeSans" font-size="10.00">src/readConfig.cpp</text>
</a>
</g>
</g>
<!-- Node1&#45;&gt;Node12 -->
<g id="edge15" class="edge"><title>Node1&#45;&gt;Node12</title>
<path fill="none" stroke="midnightblue" d="M536.505,-163.862C557.088,-153.849 584.845,-140.346 602.71,-131.655"/>
<polygon fill="midnightblue" stroke="midnightblue" points="534.795,-160.802 527.334,-168.324 537.858,-167.097 534.795,-160.802"/>
</g>
<!-- Node13 -->
<g id="node13" class="node"><title>Node13</title>
<g id="a_node13"><a xlink:href="scalarFunction_8cpp.html" target="_top" xlink:title="src/scalarFunction.cpp">
<polygon fill="white" stroke="black" points="687,-112.5 687,-131.5 800,-131.5 800,-112.5 687,-112.5"/>
<text text-anchor="middle" x="743.5" y="-119.5" font-family="FreeSans" font-size="10.00">src/scalarFunction.cpp</text>
</a>
</g>
</g>
<!-- Node1&#45;&gt;Node13 -->
<g id="edge16" class="edge"><title>Node1&#45;&gt;Node13</title>
<path fill="none" stroke="midnightblue" d="M556.504,-166.153C600.717,-155.95 666.016,-140.881 706.595,-131.516"/>
<polygon fill="midnightblue" stroke="midnightblue" points="555.535,-162.784 546.578,-168.444 557.109,-169.605 555.535,-162.784"/>
</g>
<!-- Node14 -->
<g id="node14" class="node"><title>Node14</title>
<g id="a_node14"><a xlink:href="sourceSystem_8cpp.html" target="_top" xlink:title="src/sourceSystem.cpp">
<polygon fill="white" stroke="black" points="818,-112.5 818,-131.5 929,-131.5 929,-112.5 818,-112.5"/>
<text text-anchor="middle" x="873.5" y="-119.5" font-family="FreeSans" font-size="10.00">src/sourceSystem.cpp</text>
</a>
</g>
</g>
<!-- Node1&#45;&gt;Node14 -->
<g id="edge17" class="edge"><title>Node1&#45;&gt;Node14</title>
<path fill="none" stroke="midnightblue" d="M562.785,-169.095C630.987,-158.977 748.588,-141.531 817.891,-131.25"/>
<polygon fill="midnightblue" stroke="midnightblue" points="562.063,-165.664 552.685,-170.593 563.09,-172.588 562.063,-165.664"/>
</g>
<!-- Node4 -->
<g id="node4" class="node"><title>Node4</title>
<g id="a_node4"><a xlink:href="convectionSystem_8h.html" target="_top" xlink:title="src/convectionSystem.h">
<polygon fill="white" stroke="black" points="10,-56.5 10,-75.5 129,-75.5 129,-56.5 10,-56.5"/>
<text text-anchor="middle" x="69.5" y="-63.5" font-family="FreeSans" font-size="10.00">src/convectionSystem.h</text>
</a>
</g>
</g>
<!-- Node3&#45;&gt;Node4 -->
<g id="edge3" class="edge"><title>Node3&#45;&gt;Node4</title>
<path fill="none" stroke="midnightblue" d="M289.439,-111.824C222.97,-97.075 156.664,-83.8602 114.051,-75.5589"/>
<polygon fill="midnightblue" stroke="midnightblue" points="288.722,-115.25 299.244,-114.011 290.246,-108.418 288.722,-115.25"/>
</g>
<!-- Node3&#45;&gt;Node6 -->
<g id="edge9" class="edge"><title>Node3&#45;&gt;Node6</title>
<path fill="none" stroke="midnightblue" d="M336.188,-102.946C339.927,-94.8145 344.19,-85.0306 347.5,-76 354.783,-56.13 361.217,-32.0672 364.396,-19.5311"/>
<polygon fill="midnightblue" stroke="midnightblue" points="332.933,-101.642 331.842,-112.18 339.267,-104.622 332.933,-101.642"/>
</g>
<!-- Node7 -->
<g id="node7" class="node"><title>Node7</title>
<g id="a_node7"><a xlink:href="diffusionSystem_8h.html" target="_top" xlink:title="src/diffusionSystem.h">
<polygon fill="white" stroke="black" points="147,-56.5 147,-75.5 254,-75.5 254,-56.5 147,-56.5"/>
<text text-anchor="middle" x="200.5" y="-63.5" font-family="FreeSans" font-size="10.00">src/diffusionSystem.h</text>
</a>
</g>
</g>
<!-- Node3&#45;&gt;Node7 -->
<g id="edge6" class="edge"><title>Node3&#45;&gt;Node7</title>
<path fill="none" stroke="midnightblue" d="M298.109,-108.503C274.3,-98.3795 241.394,-84.388 220.529,-75.5164"/>
<polygon fill="midnightblue" stroke="midnightblue" points="296.804,-111.751 307.376,-112.444 299.543,-105.31 296.804,-111.751"/>
</g>
<!-- Node9 -->
<g id="node9" class="node"><title>Node9</title>
<g id="a_node9"><a xlink:href="grid_8cpp.html" target="_top" xlink:title="src/grid.cpp">
<polygon fill="white" stroke="black" points="272.5,-56.5 272.5,-75.5 338.5,-75.5 338.5,-56.5 272.5,-56.5"/>
<text text-anchor="middle" x="305.5" y="-63.5" font-family="FreeSans" font-size="10.00">src/grid.cpp</text>
</a>
</g>
</g>
<!-- Node3&#45;&gt;Node9 -->
<g id="edge10" class="edge"><title>Node3&#45;&gt;Node9</title>
<path fill="none" stroke="midnightblue" d="M320.04,-102.69C316.333,-93.589 312.024,-83.0141 309.065,-75.7511"/>
<polygon fill="midnightblue" stroke="midnightblue" points="316.853,-104.143 323.867,-112.083 323.335,-101.502 316.853,-104.143"/>
</g>
<!-- Node5 -->
<g id="node5" class="node"><title>Node5</title>
<g id="a_node5"><a xlink:href="convectionSystem_8cpp.html" target="_top" xlink:title="src/convectionSystem.cpp">
<polygon fill="white" stroke="black" points="0,-0.5 0,-19.5 129,-19.5 129,-0.5 0,-0.5"/>
<text text-anchor="middle" x="64.5" y="-7.5" font-family="FreeSans" font-size="10.00">src/convectionSystem.cpp</text>
</a>
</g>
</g>
<!-- Node4&#45;&gt;Node5 -->
<g id="edge4" class="edge"><title>Node4&#45;&gt;Node5</title>
<path fill="none" stroke="midnightblue" d="M67.75,-46.1005C66.92,-37.1357 65.9683,-26.8579 65.3103,-19.7511"/>
<polygon fill="midnightblue" stroke="midnightblue" points="64.2672,-46.4483 68.6744,-56.083 71.2374,-45.8029 64.2672,-46.4483"/>
</g>
<!-- Node4&#45;&gt;Node6 -->
<g id="edge5" class="edge"><title>Node4&#45;&gt;Node6</title>
<path fill="none" stroke="midnightblue" d="M126.436,-54.648C183.09,-44.3473 268.904,-28.7447 321.121,-19.2508"/>
<polygon fill="midnightblue" stroke="midnightblue" points="125.773,-51.2111 116.561,-56.4435 127.025,-58.0981 125.773,-51.2111"/>
</g>
<!-- Node7&#45;&gt;Node6 -->
<g id="edge8" class="edge"><title>Node7&#45;&gt;Node6</title>
<path fill="none" stroke="midnightblue" d="M236.453,-53.3044C267.732,-43.1294 312.321,-28.6246 340.32,-19.5164"/>
<polygon fill="midnightblue" stroke="midnightblue" points="235.23,-50.0217 226.803,-56.4435 237.395,-56.6783 235.23,-50.0217"/>
</g>
<!-- Node8 -->
<g id="node8" class="node"><title>Node8</title>
<g id="a_node8"><a xlink:href="diffusionSystem_8cpp.html" target="_top" xlink:title="src/diffusionSystem.cpp">
<polygon fill="white" stroke="black" points="147,-0.5 147,-19.5 264,-19.5 264,-0.5 147,-0.5"/>
<text text-anchor="middle" x="205.5" y="-7.5" font-family="FreeSans" font-size="10.00">src/diffusionSystem.cpp</text>
</a>
</g>
</g>
<!-- Node7&#45;&gt;Node8 -->
<g id="edge7" class="edge"><title>Node7&#45;&gt;Node8</title>
<path fill="none" stroke="midnightblue" d="M202.25,-46.1005C203.08,-37.1357 204.032,-26.8579 204.69,-19.7511"/>
<polygon fill="midnightblue" stroke="midnightblue" points="198.763,-45.8029 201.326,-56.083 205.733,-46.4483 198.763,-45.8029"/>
</g>
<!-- Node10&#45;&gt;Node6 -->
<g id="edge13" class="edge"><title>Node10&#45;&gt;Node6</title>
<path fill="none" stroke="midnightblue" d="M461.246,-104.293C450.279,-90.8022 434.035,-71.569 418.5,-56 405.008,-42.4779 388.068,-28.2803 377.261,-19.5336"/>
<polygon fill="midnightblue" stroke="midnightblue" points="458.637,-106.633 467.631,-112.233 464.092,-102.247 458.637,-106.633"/>
</g>
<!-- Node10&#45;&gt;Node11 -->
<g id="edge14" class="edge"><title>Node10&#45;&gt;Node11</title>
<path fill="none" stroke="midnightblue" d="M492.54,-105.537C503.773,-95.9087 517.819,-83.8694 527.194,-75.8339"/>
<polygon fill="midnightblue" stroke="midnightblue" points="489.937,-103.159 484.622,-112.324 494.492,-108.473 489.937,-103.159"/>
</g>
</g>
</svg>
