<?xml version="1.0" encoding="UTF-8" standalone="no"?>
<!DOCTYPE svg PUBLIC "-//W3C//DTD SVG 1.1//EN"
 "http://www.w3.org/Graphics/SVG/1.1/DTD/svg11.dtd">
<!-- Generated by graphviz version 8.1.0 (20230707.2238)
 -->
<!-- Title: src/readConfig.cpp Pages: 1 -->
<svg width="711pt" height="256pt"
 viewBox="0.00 0.00 711.39 255.75" xmlns="http://www.w3.org/2000/svg" xmlns:xlink="http://www.w3.org/1999/xlink">
<g id="graph0" class="graph" transform="scale(1 1) rotate(0) translate(4 251.75)">
<title>src/readConfig.cpp</title>
<!-- Node1 -->
<g id="Node000001" class="node">
<title>Node1</title>
<g id="a_Node000001"><a xlink:title=" ">
<polygon fill="#999999" stroke="#666666" points="259.75,-247.75 153.75,-247.75 153.75,-227 259.75,-227 259.75,-247.75"/>
<text text-anchor="middle" x="206.75" y="-234.25" font-family="FreeSans" font-size="10.00">src/readConfig.cpp</text>
</a>
</g>
</g>
<!-- Node2 -->
<g id="Node000002" class="node">
<title>Node2</title>
<g id="a_Node000002"><a xlink:href="readConfig_8h.html" target="_top" xlink:title=" ">
<polygon fill="white" stroke="#666666" points="302.5,-191 225,-191 225,-170.25 302.5,-170.25 302.5,-191"/>
<text text-anchor="middle" x="263.75" y="-177.5" font-family="FreeSans" font-size="10.00">readConfig.h</text>
</a>
</g>
</g>
<!-- Node1&#45;&gt;Node2 -->
<g id="edge1_Node000001_Node000002" class="edge">
<title>Node1&#45;&gt;Node2</title>
<g id="a_edge1_Node000001_Node000002"><a xlink:title=" ">
<path fill="none" stroke="#63b8ff" d="M216.94,-226.59C224.96,-218.88 236.35,-207.95 245.88,-198.79"/>
<polygon fill="#63b8ff" stroke="#63b8ff" points="247.86,-201.78 252.65,-192.33 243.01,-196.73 247.86,-201.78"/>
</a>
</g>
</g>
<!-- Node10 -->
<g id="Node000010" class="node">
<title>Node10</title>
<g id="a_Node000010"><a xlink:href="debugUtils_8h.html" target="_top" xlink:title=" ">
<polygon fill="#fff0f0" stroke="red" points="77.5,-77.5 0,-77.5 0,-56.75 77.5,-56.75 77.5,-77.5"/>
<text text-anchor="middle" x="38.75" y="-64" font-family="FreeSans" font-size="10.00">debugUtils.h</text>
</a>
</g>
</g>
<!-- Node1&#45;&gt;Node10 -->
<g id="edge15_Node000001_Node000010" class="edge">
<title>Node1&#45;&gt;Node10</title>
<g id="a_edge15_Node000001_Node000010"><a xlink:title=" ">
<path fill="none" stroke="#63b8ff" d="M197.24,-226.85C169.99,-199.56 91.37,-120.82 56.16,-85.56"/>
<polygon fill="#63b8ff" stroke="#63b8ff" points="59.12,-83.57 49.58,-78.97 54.17,-88.52 59.12,-83.57"/>
</a>
</g>
</g>
<!-- Node3 -->
<g id="Node000003" class="node">
<title>Node3</title>
<g id="a_Node000003"><a xlink:href="mathUtils_8h.html" target="_top" xlink:title=" ">
<polygon fill="white" stroke="#666666" points="300.25,-134.25 227.25,-134.25 227.25,-113.5 300.25,-113.5 300.25,-134.25"/>
<text text-anchor="middle" x="263.75" y="-120.75" font-family="FreeSans" font-size="10.00">mathUtils.h</text>
</a>
</g>
</g>
<!-- Node2&#45;&gt;Node3 -->
<g id="edge2_Node000002_Node000003" class="edge">
<title>Node2&#45;&gt;Node3</title>
<g id="a_edge2_Node000002_Node000003"><a xlink:title=" ">
<path fill="none" stroke="#63b8ff" d="M263.75,-169.84C263.75,-163.06 263.75,-153.8 263.75,-145.44"/>
<polygon fill="#63b8ff" stroke="#63b8ff" points="267.25,-145.58 263.75,-135.58 260.25,-145.58 267.25,-145.58"/>
</a>
</g>
</g>
<!-- Node8 -->
<g id="Node000008" class="node">
<title>Node8</title>
<g id="a_Node000008"><a xlink:title=" ">
<polygon fill="#e0e0e0" stroke="#999999" points="229.62,-20.75 185.88,-20.75 185.88,0 229.62,0 229.62,-20.75"/>
<text text-anchor="middle" x="207.75" y="-7.25" font-family="FreeSans" font-size="10.00">string</text>
</a>
</g>
</g>
<!-- Node2&#45;&gt;Node8 -->
<g id="edge14_Node000002_Node000008" class="edge">
<title>Node2&#45;&gt;Node8</title>
<g id="a_edge14_Node000002_Node000008"><a xlink:title=" ">
<path fill="none" stroke="#63b8ff" d="M302.67,-175.41C418.98,-162.06 752.55,-117.97 696.75,-56.75 666.06,-23.08 345.75,-14 240.82,-11.92"/>
<polygon fill="#63b8ff" stroke="#63b8ff" points="241.02,-8.41 230.96,-11.72 240.89,-15.41 241.02,-8.41"/>
</a>
</g>
</g>
<!-- Node4 -->
<g id="Node000004" class="node">
<title>Node4</title>
<g id="a_Node000004"><a xlink:title=" ">
<polygon fill="#e0e0e0" stroke="#999999" points="180.12,-77.5 133.38,-77.5 133.38,-56.75 180.12,-56.75 180.12,-77.5"/>
<text text-anchor="middle" x="156.75" y="-64" font-family="FreeSans" font-size="10.00">vector</text>
</a>
</g>
</g>
<!-- Node3&#45;&gt;Node4 -->
<g id="edge3_Node000003_Node000004" class="edge">
<title>Node3&#45;&gt;Node4</title>
<g id="a_edge3_Node000003_Node000004"><a xlink:title=" ">
<path fill="none" stroke="#63b8ff" d="M244.62,-113.09C228.11,-104.64 204.03,-92.32 185.25,-82.71"/>
<polygon fill="#63b8ff" stroke="#63b8ff" points="187.21,-79.27 176.71,-77.83 184.02,-85.5 187.21,-79.27"/>
</a>
</g>
</g>
<!-- Node5 -->
<g id="Node000005" class="node">
<title>Node5</title>
<g id="a_Node000005"><a xlink:title=" ">
<polygon fill="#e0e0e0" stroke="#999999" points="688.12,-77.5 641.38,-77.5 641.38,-56.75 688.12,-56.75 688.12,-77.5"/>
<text text-anchor="middle" x="664.75" y="-64" font-family="FreeSans" font-size="10.00">cmath</text>
</a>
</g>
</g>
<!-- Node3&#45;&gt;Node5 -->
<g id="edge4_Node000003_Node000005" class="edge">
<title>Node3&#45;&gt;Node5</title>
<g id="a_edge4_Node000003_Node000005"><a xlink:title=" ">
<path fill="none" stroke="#63b8ff" d="M300.61,-120.22C365.41,-115.15 504.02,-102.49 630.43,-77.47"/>
<polygon fill="#63b8ff" stroke="#63b8ff" points="630.95,-80.73 640.06,-75.33 629.57,-73.87 630.95,-80.73"/>
</a>
</g>
</g>
<!-- Node6 -->
<g id="Node000006" class="node">
<title>Node6</title>
<g id="a_Node000006"><a xlink:title=" ">
<polygon fill="#e0e0e0" stroke="#999999" points="102.5,-20.75 43,-20.75 43,0 102.5,0 102.5,-20.75"/>
<text text-anchor="middle" x="72.75" y="-7.25" font-family="FreeSans" font-size="10.00">iostream</text>
</a>
</g>
</g>
<!-- Node3&#45;&gt;Node6 -->
<g id="edge5_Node000003_Node000006" class="edge">
<title>Node3&#45;&gt;Node6</title>
<g id="a_edge5_Node000003_Node000006"><a xlink:title=" ">
<path fill="none" stroke="#63b8ff" d="M226.85,-116.95C197.19,-110.82 155.54,-99.02 124.75,-77.5 107.05,-65.13 92.45,-44.99 83.27,-30.18"/>
<polygon fill="#63b8ff" stroke="#63b8ff" points="85.91,-28.77 77.81,-21.94 79.88,-32.33 85.91,-28.77"/>
</a>
</g>
</g>
<!-- Node7 -->
<g id="Node000007" class="node">
<title>Node7</title>
<g id="a_Node000007"><a xlink:title=" ">
<polygon fill="#e0e0e0" stroke="#999999" points="291.62,-77.5 235.88,-77.5 235.88,-56.75 291.62,-56.75 291.62,-77.5"/>
<text text-anchor="middle" x="263.75" y="-64" font-family="FreeSans" font-size="10.00">sstream</text>
</a>
</g>
</g>
<!-- Node3&#45;&gt;Node7 -->
<g id="edge6_Node000003_Node000007" class="edge">
<title>Node3&#45;&gt;Node7</title>
<g id="a_edge6_Node000003_Node000007"><a xlink:title=" ">
<path fill="none" stroke="#63b8ff" d="M263.75,-113.09C263.75,-106.31 263.75,-97.05 263.75,-88.69"/>
<polygon fill="#63b8ff" stroke="#63b8ff" points="267.25,-88.83 263.75,-78.83 260.25,-88.83 267.25,-88.83"/>
</a>
</g>
</g>
<!-- Node3&#45;&gt;Node8 -->
<g id="edge7_Node000003_Node000008" class="edge">
<title>Node3&#45;&gt;Node8</title>
<g id="a_edge7_Node000003_Node000008"><a xlink:title=" ">
<path fill="none" stroke="#63b8ff" d="M253.94,-113.27C245.61,-104.62 233.91,-91.19 226.75,-77.5 219.13,-62.93 214.21,-44.91 211.29,-31.36"/>
<polygon fill="#63b8ff" stroke="#63b8ff" points="214.58,-30.94 209.22,-21.8 207.71,-32.29 214.58,-30.94"/>
</a>
</g>
</g>
<!-- Node9 -->
<g id="Node000009" class="node">
<title>Node9</title>
<g id="a_Node000009"><a xlink:title=" ">
<polygon fill="#e0e0e0" stroke="#999999" points="347.62,-77.5 309.88,-77.5 309.88,-56.75 347.62,-56.75 347.62,-77.5"/>
<text text-anchor="middle" x="328.75" y="-64" font-family="FreeSans" font-size="10.00">map</text>
</a>
</g>
</g>
<!-- Node3&#45;&gt;Node9 -->
<g id="edge8_Node000003_Node000009" class="edge">
<title>Node3&#45;&gt;Node9</title>
<g id="a_edge8_Node000003_Node000009"><a xlink:title=" ">
<path fill="none" stroke="#63b8ff" d="M275.37,-113.09C284.71,-105.22 298.03,-94 309.03,-84.74"/>
<polygon fill="#63b8ff" stroke="#63b8ff" points="310.84,-86.95 316.23,-77.83 306.33,-81.59 310.84,-86.95"/>
</a>
</g>
</g>
<!-- Node3&#45;&gt;Node10 -->
<g id="edge9_Node000003_Node000010" class="edge">
<title>Node3&#45;&gt;Node10</title>
<g id="a_edge9_Node000003_Node000010"><a xlink:title=" ">
<path fill="none" stroke="#63b8ff" d="M226.85,-113.9C189.12,-104.71 130.27,-90.39 88.45,-80.22"/>
<polygon fill="#63b8ff" stroke="#63b8ff" points="89.49,-76.63 78.94,-77.66 87.83,-83.43 89.49,-76.63"/>
</a>
</g>
</g>
<!-- Node14 -->
<g id="Node000014" class="node">
<title>Node14</title>
<g id="a_Node000014"><a xlink:title=" ">
<polygon fill="#e0e0e0" stroke="#999999" points="491.88,-77.5 365.62,-77.5 365.62,-56.75 491.88,-56.75 491.88,-77.5"/>
<text text-anchor="middle" x="428.75" y="-64" font-family="FreeSans" font-size="10.00">cantera/base/ct_defs.h</text>
</a>
</g>
</g>
<!-- Node3&#45;&gt;Node14 -->
<g id="edge12_Node000003_Node000014" class="edge">
<title>Node3&#45;&gt;Node14</title>
<g id="a_edge12_Node000003_Node000014"><a xlink:title=" ">
<path fill="none" stroke="#63b8ff" d="M293.25,-113.09C319.91,-104.24 359.39,-91.14 388.87,-81.36"/>
<polygon fill="#63b8ff" stroke="#63b8ff" points="389.84,-84.39 398.23,-77.92 387.64,-77.75 389.84,-84.39"/>
</a>
</g>
</g>
<!-- Node15 -->
<g id="Node000015" class="node">
<title>Node15</title>
<g id="a_Node000015"><a xlink:title=" ">
<polygon fill="#e0e0e0" stroke="#999999" points="623.12,-77.5 510.38,-77.5 510.38,-56.75 623.12,-56.75 623.12,-77.5"/>
<text text-anchor="middle" x="566.75" y="-64" font-family="FreeSans" font-size="10.00">eigen3/Eigen/Dense</text>
</a>
</g>
</g>
<!-- Node3&#45;&gt;Node15 -->
<g id="edge13_Node000003_Node000015" class="edge">
<title>Node3&#45;&gt;Node15</title>
<g id="a_edge13_Node000003_Node000015"><a xlink:title=" ">
<path fill="none" stroke="#63b8ff" d="M300.6,-116.22C350.44,-107.21 440.15,-91 501.53,-79.91"/>
<polygon fill="#63b8ff" stroke="#63b8ff" points="502.04,-83.19 511.26,-77.97 500.8,-76.3 502.04,-83.19"/>
</a>
</g>
</g>
<!-- Node10&#45;&gt;Node6 -->
<g id="edge11_Node000010_Node000006" class="edge">
<title>Node10&#45;&gt;Node6</title>
<g id="a_edge11_Node000010_Node000006"><a xlink:title=" ">
<path fill="none" stroke="#63b8ff" d="M44.83,-56.34C49.32,-49.1 55.59,-39.01 61.05,-30.22"/>
<polygon fill="#63b8ff" stroke="#63b8ff" points="64.42,-32.42 66.72,-22.08 58.48,-28.73 64.42,-32.42"/>
</a>
</g>
</g>
<!-- Node10&#45;&gt;Node8 -->
<g id="edge10_Node000010_Node000008" class="edge">
<title>Node10&#45;&gt;Node8</title>
<g id="a_edge10_Node000010_Node000008"><a xlink:title=" ">
<path fill="none" stroke="#63b8ff" d="M68.96,-56.34C98.94,-46.62 144.73,-31.79 175.43,-21.85"/>
<polygon fill="#63b8ff" stroke="#63b8ff" points="176.17,-24.96 184.61,-18.55 174.01,-18.3 176.17,-24.96"/>
</a>
</g>
</g>
</g>
</svg>
