<?xml version="1.0" encoding="UTF-8" standalone="no"?>
<!DOCTYPE svg PUBLIC "-//W3C//DTD SVG 1.1//EN"
 "http://www.w3.org/Graphics/SVG/1.1/DTD/svg11.dtd">
<!-- Generated by graphviz version 2.26.3 (20100126.1600)
 -->
<!-- Title: src/scalarFunction.h Pages: 1 -->
<svg width="366pt" height="88pt"
 viewBox="0.00 0.00 366.00 88.00" xmlns="http://www.w3.org/2000/svg" xmlns:xlink="http://www.w3.org/1999/xlink">
<g id="graph1" class="graph" transform="scale(1 1) rotate(0) translate(4 84)">
<title>src/scalarFunction.h</title>
<polygon fill="white" stroke="white" points="-4,5 -4,-84 363,-84 363,5 -4,5"/>
<!-- Node1 -->
<g id="node1" class="node"><title>Node1</title>
<polygon fill="#bfbfbf" stroke="black" points="122.5,-59 122.5,-79 225.5,-79 225.5,-59 122.5,-59"/>
<text text-anchor="middle" x="174" y="-66" font-family="FreeSans" font-size="10.00">src/scalarFunction.h</text>
</g>
<!-- Node2 -->
<g id="node3" class="node"><title>Node2</title>
<a xlink:href="flameSolver_8cpp.html" target="_top" xlink:title="src/flameSolver.cpp">
<polygon fill="white" stroke="black" points="-0.5,-1 -0.5,-21 100.5,-21 100.5,-1 -0.5,-1"/>
<text text-anchor="middle" x="50" y="-8" font-family="FreeSans" font-size="10.00">src/flameSolver.cpp</text>
</a>
</g>
<!-- Node1&#45;&gt;Node2 -->
<g id="edge2" class="edge"><title>Node1&#45;&gt;Node2</title>
<path fill="none" stroke="midnightblue" d="M143.074,-54.5345C120.882,-44.1545 91.5271,-30.424 71.7677,-21.1817"/>
<polygon fill="midnightblue" stroke="midnightblue" points="141.86,-57.8306 152.401,-58.8972 144.826,-51.4899 141.86,-57.8306"/>
</g>
<!-- Node3 -->
<g id="node5" class="node"><title>Node3</title>
<a xlink:href="scalarFunction_8cpp.html" target="_top" xlink:title="src/scalarFunction.cpp">
<polygon fill="white" stroke="black" points="117.5,-1 117.5,-21 230.5,-21 230.5,-1 117.5,-1"/>
<text text-anchor="middle" x="174" y="-8" font-family="FreeSans" font-size="10.00">src/scalarFunction.cpp</text>
</a>
</g>
<!-- Node1&#45;&gt;Node3 -->
<g id="edge4" class="edge"><title>Node1&#45;&gt;Node3</title>
<path fill="none" stroke="midnightblue" d="M174,-48.8902C174,-39.6201 174,-29.0083 174,-21.3776"/>
<polygon fill="midnightblue" stroke="midnightblue" points="170.5,-48.8971 174,-58.8972 177.5,-48.8972 170.5,-48.8971"/>
</g>
<!-- Node4 -->
<g id="node7" class="node"><title>Node4</title>
<a xlink:href="sourceSystem_8cpp.html" target="_top" xlink:title="src/sourceSystem.cpp">
<polygon fill="white" stroke="black" points="247.5,-1 247.5,-21 358.5,-21 358.5,-1 247.5,-1"/>
<text text-anchor="middle" x="303" y="-8" font-family="FreeSans" font-size="10.00">src/sourceSystem.cpp</text>
</a>
</g>
<!-- Node1&#45;&gt;Node4 -->
<g id="edge6" class="edge"><title>Node1&#45;&gt;Node4</title>
<path fill="none" stroke="midnightblue" d="M205.863,-54.674C228.986,-44.2778 259.706,-30.4654 280.355,-21.1817"/>
<polygon fill="midnightblue" stroke="midnightblue" points="204.155,-51.6042 196.47,-58.8972 207.026,-57.9886 204.155,-51.6042"/>
</g>
</g>
</svg>
