<?xml version="1.0" encoding="UTF-8" standalone="no"?>
<!DOCTYPE svg PUBLIC "-//W3C//DTD SVG 1.1//EN"
 "http://www.w3.org/Graphics/SVG/1.1/DTD/svg11.dtd">
<!-- Generated by graphviz version 2.26.3 (20100126.1600)
 -->
<!-- Title: src/scalarFunction.cpp Pages: 1 -->
<svg width="492pt" height="262pt"
 viewBox="0.00 0.00 492.00 262.00" xmlns="http://www.w3.org/2000/svg" xmlns:xlink="http://www.w3.org/1999/xlink">
<g id="graph1" class="graph" transform="scale(1 1) rotate(0) translate(4 258)">
<title>src/scalarFunction.cpp</title>
<polygon fill="white" stroke="white" points="-4,5 -4,-258 489,-258 489,5 -4,5"/>
<!-- Node1 -->
<g id="node1" class="node"><title>Node1</title>
<polygon fill="#bfbfbf" stroke="black" points="262.5,-233 262.5,-253 375.5,-253 375.5,-233 262.5,-233"/>
<text text-anchor="middle" x="319" y="-240" font-family="FreeSans" font-size="10.00">src/scalarFunction.cpp</text>
</g>
<!-- Node2 -->
<g id="node3" class="node"><title>Node2</title>
<a xlink:href="scalarFunction_8h.html" target="_top" xlink:title="scalarFunction.h">
<polygon fill="white" stroke="black" points="227.5,-175 227.5,-195 314.5,-195 314.5,-175 227.5,-175"/>
<text text-anchor="middle" x="271" y="-182" font-family="FreeSans" font-size="10.00">scalarFunction.h</text>
</a>
</g>
<!-- Node1&#45;&gt;Node2 -->
<g id="edge2" class="edge"><title>Node1&#45;&gt;Node2</title>
<path fill="none" stroke="midnightblue" d="M310.639,-232.897C303.908,-224.764 294.27,-213.118 286.184,-203.347"/>
<polygon fill="midnightblue" stroke="midnightblue" points="288.66,-200.85 279.588,-195.378 283.268,-205.313 288.66,-200.85"/>
</g>
<!-- Node12 -->
<g id="node25" class="node"><title>Node12</title>
<a xlink:href="readConfig_8h.html" target="_top" xlink:title="readConfig.h">
<polygon fill="white" stroke="black" points="332,-175 332,-195 402,-195 402,-175 332,-175"/>
<text text-anchor="middle" x="367" y="-182" font-family="FreeSans" font-size="10.00">readConfig.h</text>
</a>
</g>
<!-- Node1&#45;&gt;Node12 -->
<g id="edge26" class="edge"><title>Node1&#45;&gt;Node12</title>
<path fill="none" stroke="midnightblue" d="M327.361,-232.897C334.092,-224.764 343.73,-213.118 351.816,-203.347"/>
<polygon fill="midnightblue" stroke="midnightblue" points="354.732,-205.313 358.412,-195.378 349.34,-200.85 354.732,-205.313"/>
</g>
<!-- Node3 -->
<g id="node5" class="node"><title>Node3</title>
<a xlink:href="mathUtils_8h.html" target="_top" xlink:title="mathUtils.h">
<polygon fill="white" stroke="black" points="238.5,-117 238.5,-137 303.5,-137 303.5,-117 238.5,-117"/>
<text text-anchor="middle" x="271" y="-124" font-family="FreeSans" font-size="10.00">mathUtils.h</text>
</a>
</g>
<!-- Node2&#45;&gt;Node3 -->
<g id="edge4" class="edge"><title>Node2&#45;&gt;Node3</title>
<path fill="none" stroke="midnightblue" d="M271,-174.897C271,-167.339 271,-156.748 271,-147.446"/>
<polygon fill="midnightblue" stroke="midnightblue" points="274.5,-147.378 271,-137.378 267.5,-147.378 274.5,-147.378"/>
</g>
<!-- Node4 -->
<g id="node7" class="node"><title>Node4</title>
<polygon fill="white" stroke="#bfbfbf" points="393.5,-59 393.5,-79 436.5,-79 436.5,-59 393.5,-59"/>
<text text-anchor="middle" x="415" y="-66" font-family="FreeSans" font-size="10.00">vector</text>
</g>
<!-- Node3&#45;&gt;Node4 -->
<g id="edge6" class="edge"><title>Node3&#45;&gt;Node4</title>
<path fill="none" stroke="midnightblue" d="M296.083,-116.897C320.519,-107.055 357.727,-92.0683 384.004,-81.4845"/>
<polygon fill="midnightblue" stroke="midnightblue" points="385.522,-84.6463 393.49,-77.6636 382.907,-78.1532 385.522,-84.6463"/>
</g>
<!-- Node5 -->
<g id="node9" class="node"><title>Node5</title>
<polygon fill="white" stroke="#bfbfbf" points="0,-59 0,-79 44,-79 44,-59 0,-59"/>
<text text-anchor="middle" x="22" y="-66" font-family="FreeSans" font-size="10.00">cmath</text>
</g>
<!-- Node3&#45;&gt;Node5 -->
<g id="edge8" class="edge"><title>Node3&#45;&gt;Node5</title>
<path fill="none" stroke="midnightblue" d="M238.33,-120.631C196.36,-112.256 121.364,-96.6433 58,-80 56.5778,-79.6264 55.1275,-79.2336 53.6651,-78.8277"/>
<polygon fill="midnightblue" stroke="midnightblue" points="54.5848,-75.4503 44.0057,-76.0265 52.6351,-82.1733 54.5848,-75.4503"/>
</g>
<!-- Node6 -->
<g id="node11" class="node"><title>Node6</title>
<polygon fill="white" stroke="#bfbfbf" points="110.5,-1 110.5,-21 163.5,-21 163.5,-1 110.5,-1"/>
<text text-anchor="middle" x="137" y="-8" font-family="FreeSans" font-size="10.00">iostream</text>
</g>
<!-- Node3&#45;&gt;Node6 -->
<g id="edge10" class="edge"><title>Node3&#45;&gt;Node6</title>
<path fill="none" stroke="midnightblue" d="M238.305,-123.218C191.45,-117.049 108.868,-103.132 91,-80 77.6886,-62.7666 96.1637,-41.8112 113.512,-27.5474"/>
<polygon fill="midnightblue" stroke="midnightblue" points="116.034,-30.021 121.793,-21.1284 111.745,-24.4883 116.034,-30.021"/>
</g>
<!-- Node7 -->
<g id="node13" class="node"><title>Node7</title>
<polygon fill="white" stroke="#bfbfbf" points="100,-59 100,-79 150,-79 150,-59 100,-59"/>
<text text-anchor="middle" x="125" y="-66" font-family="FreeSans" font-size="10.00">sstream</text>
</g>
<!-- Node3&#45;&gt;Node7 -->
<g id="edge12" class="edge"><title>Node3&#45;&gt;Node7</title>
<path fill="none" stroke="midnightblue" d="M245.569,-116.897C221.807,-107.458 186.135,-93.2867 159.752,-82.8057"/>
<polygon fill="midnightblue" stroke="midnightblue" points="160.726,-79.4263 150.14,-78.9871 158.141,-85.9318 160.726,-79.4263"/>
</g>
<!-- Node8 -->
<g id="node15" class="node"><title>Node8</title>
<polygon fill="white" stroke="#bfbfbf" points="444,-1 444,-21 484,-21 484,-1 444,-1"/>
<text text-anchor="middle" x="464" y="-8" font-family="FreeSans" font-size="10.00">string</text>
</g>
<!-- Node3&#45;&gt;Node8 -->
<g id="edge14" class="edge"><title>Node3&#45;&gt;Node8</title>
<path fill="none" stroke="midnightblue" d="M303.742,-122.102C348.419,-114.778 425.204,-99.6992 445,-80 457.757,-67.3054 462.16,-46.8873 463.58,-31.5494"/>
<polygon fill="midnightblue" stroke="midnightblue" points="467.08,-31.6471 464.162,-21.4619 460.091,-31.2434 467.08,-31.6471"/>
</g>
<!-- Node9 -->
<g id="node17" class="node"><title>Node9</title>
<polygon fill="white" stroke="#bfbfbf" points="253.5,-59 253.5,-79 288.5,-79 288.5,-59 253.5,-59"/>
<text text-anchor="middle" x="271" y="-66" font-family="FreeSans" font-size="10.00">map</text>
</g>
<!-- Node3&#45;&gt;Node9 -->
<g id="edge16" class="edge"><title>Node3&#45;&gt;Node9</title>
<path fill="none" stroke="midnightblue" d="M271,-116.897C271,-109.339 271,-98.7476 271,-89.4458"/>
<polygon fill="midnightblue" stroke="midnightblue" points="274.5,-89.3776 271,-79.3776 267.5,-89.3776 274.5,-89.3776"/>
</g>
<!-- Node10 -->
<g id="node19" class="node"><title>Node10</title>
<a xlink:href="debugUtils_8h.html" target="_top" xlink:title="debugUtils.h">
<polygon fill="white" stroke="red" points="167.5,-59 167.5,-79 236.5,-79 236.5,-59 167.5,-59"/>
<text text-anchor="middle" x="202" y="-66" font-family="FreeSans" font-size="10.00">debugUtils.h</text>
</a>
</g>
<!-- Node3&#45;&gt;Node10 -->
<g id="edge18" class="edge"><title>Node3&#45;&gt;Node10</title>
<path fill="none" stroke="midnightblue" d="M258.981,-116.897C248.817,-108.353 234.041,-95.933 222.083,-85.8813"/>
<polygon fill="midnightblue" stroke="midnightblue" points="224.253,-83.133 214.346,-79.3776 219.749,-88.4914 224.253,-83.133"/>
</g>
<!-- Node11 -->
<g id="node23" class="node"><title>Node11</title>
<polygon fill="white" stroke="#bfbfbf" points="305.5,-59 305.5,-79 376.5,-79 376.5,-59 305.5,-59"/>
<text text-anchor="middle" x="341" y="-66" font-family="FreeSans" font-size="10.00">Eigen/Dense</text>
</g>
<!-- Node3&#45;&gt;Node11 -->
<g id="edge24" class="edge"><title>Node3&#45;&gt;Node11</title>
<path fill="none" stroke="midnightblue" d="M283.193,-116.897C293.505,-108.353 308.495,-95.933 320.626,-85.8813"/>
<polygon fill="midnightblue" stroke="midnightblue" points="323.008,-88.4529 328.475,-79.3776 318.542,-83.0627 323.008,-88.4529"/>
</g>
<!-- Node10&#45;&gt;Node6 -->
<g id="edge22" class="edge"><title>Node10&#45;&gt;Node6</title>
<path fill="none" stroke="midnightblue" d="M190.678,-58.8972C181.195,-50.4353 167.451,-38.1715 156.244,-28.1719"/>
<polygon fill="midnightblue" stroke="midnightblue" points="158.422,-25.424 148.63,-21.3776 153.761,-30.647 158.422,-25.424"/>
</g>
<!-- Node10&#45;&gt;Node8 -->
<g id="edge20" class="edge"><title>Node10&#45;&gt;Node8</title>
<path fill="none" stroke="midnightblue" d="M236.705,-59.9981C239.508,-59.3088 242.3,-58.6349 245,-58 312.177,-42.2055 391.456,-25.7236 433.778,-17.097"/>
<polygon fill="midnightblue" stroke="midnightblue" points="434.609,-20.4998 443.712,-15.0783 433.215,-13.64 434.609,-20.4998"/>
</g>
<!-- Node12&#45;&gt;Node3 -->
<g id="edge28" class="edge"><title>Node12&#45;&gt;Node3</title>
<path fill="none" stroke="midnightblue" d="M350.278,-174.897C335.502,-165.97 313.721,-152.811 296.726,-142.543"/>
<polygon fill="midnightblue" stroke="midnightblue" points="298.221,-139.357 287.852,-137.182 294.602,-145.349 298.221,-139.357"/>
</g>
<!-- Node12&#45;&gt;Node8 -->
<g id="edge30" class="edge"><title>Node12&#45;&gt;Node8</title>
<path fill="none" stroke="midnightblue" d="M381.903,-174.884C404.909,-158.253 448.175,-122.685 465,-80 471.101,-64.5212 470.289,-45.5306 468.268,-31.3936"/>
<polygon fill="midnightblue" stroke="midnightblue" points="471.666,-30.505 466.497,-21.2563 464.77,-31.7094 471.666,-30.505"/>
</g>
</g>
</svg>
