<?xml version="1.0" encoding="UTF-8" standalone="no"?>
<!DOCTYPE svg PUBLIC "-//W3C//DTD SVG 1.1//EN"
 "http://www.w3.org/Graphics/SVG/1.1/DTD/svg11.dtd">
<!-- Generated by graphviz version 2.38.0 (20140413.2041)
 -->
<!-- Title: src/scalarFunction.h Pages: 1 -->
<svg width="544pt" height="196pt"
 viewBox="0.00 0.00 544.00 196.00" xmlns="http://www.w3.org/2000/svg" xmlns:xlink="http://www.w3.org/1999/xlink">
<g id="graph0" class="graph" transform="scale(1 1) rotate(0) translate(4 192)">
<title>src/scalarFunction.h</title>
<polygon fill="white" stroke="none" points="-4,4 -4,-192 540,-192 540,4 -4,4"/>
<!-- Node1 -->
<g id="node1" class="node"><title>Node1</title>
<polygon fill="#bfbfbf" stroke="black" points="256,-168.5 256,-187.5 359,-187.5 359,-168.5 256,-168.5"/>
<text text-anchor="middle" x="307.5" y="-175.5" font-family="FreeSans" font-size="10.00">src/scalarFunction.h</text>
</g>
<!-- Node2 -->
<g id="node2" class="node"><title>Node2</title>
<g id="a_node2"><a xlink:href="convectionSystem_8h.html" target="_top" xlink:title="src/convectionSystem.h">
<polygon fill="white" stroke="black" points="118,-112.5 118,-131.5 237,-131.5 237,-112.5 118,-112.5"/>
<text text-anchor="middle" x="177.5" y="-119.5" font-family="FreeSans" font-size="10.00">src/convectionSystem.h</text>
</a>
</g>
</g>
<!-- Node1&#45;&gt;Node2 -->
<g id="edge1" class="edge"><title>Node1&#45;&gt;Node2</title>
<path fill="none" stroke="midnightblue" d="M277.415,-164.503C253.043,-154.38 219.36,-140.388 198.003,-131.516"/>
<polygon fill="midnightblue" stroke="midnightblue" points="276.323,-167.84 286.901,-168.444 279.009,-161.375 276.323,-167.84"/>
</g>
<!-- Node5 -->
<g id="node5" class="node"><title>Node5</title>
<g id="a_node5"><a xlink:href="flameSolver_8cpp.html" target="_top" xlink:title="src/flameSolver.cpp">
<polygon fill="white" stroke="black" points="178,-0.5 178,-19.5 279,-19.5 279,-0.5 178,-0.5"/>
<text text-anchor="middle" x="228.5" y="-7.5" font-family="FreeSans" font-size="10.00">src/flameSolver.cpp</text>
</a>
</g>
</g>
<!-- Node1&#45;&gt;Node5 -->
<g id="edge5" class="edge"><title>Node1&#45;&gt;Node5</title>
<path fill="none" stroke="midnightblue" d="M298.786,-159.326C294.721,-151.042 289.834,-141.029 285.5,-132 265.304,-89.9211 241.683,-39.3263 232.466,-19.5286"/>
<polygon fill="midnightblue" stroke="midnightblue" points="295.691,-160.963 303.245,-168.391 301.972,-157.873 295.691,-160.963"/>
</g>
<!-- Node6 -->
<g id="node6" class="node"><title>Node6</title>
<g id="a_node6"><a xlink:href="scalarFunction_8cpp.html" target="_top" xlink:title="src/scalarFunction.cpp">
<polygon fill="white" stroke="black" points="294,-112.5 294,-131.5 407,-131.5 407,-112.5 294,-112.5"/>
<text text-anchor="middle" x="350.5" y="-119.5" font-family="FreeSans" font-size="10.00">src/scalarFunction.cpp</text>
</a>
</g>
</g>
<!-- Node1&#45;&gt;Node6 -->
<g id="edge6" class="edge"><title>Node1&#45;&gt;Node6</title>
<path fill="none" stroke="midnightblue" d="M320.922,-160.144C328.414,-150.736 337.437,-139.405 343.532,-131.751"/>
<polygon fill="midnightblue" stroke="midnightblue" points="318.092,-158.08 314.601,-168.083 323.568,-162.44 318.092,-158.08"/>
</g>
<!-- Node7 -->
<g id="node7" class="node"><title>Node7</title>
<g id="a_node7"><a xlink:href="sourceSystem_8cpp.html" target="_top" xlink:title="src/sourceSystem.cpp">
<polygon fill="white" stroke="black" points="425,-112.5 425,-131.5 536,-131.5 536,-112.5 425,-112.5"/>
<text text-anchor="middle" x="480.5" y="-119.5" font-family="FreeSans" font-size="10.00">src/sourceSystem.cpp</text>
</a>
</g>
</g>
<!-- Node1&#45;&gt;Node7 -->
<g id="edge7" class="edge"><title>Node1&#45;&gt;Node7</title>
<path fill="none" stroke="midnightblue" d="M344.547,-165.436C377.164,-155.255 423.91,-140.664 453.216,-131.516"/>
<polygon fill="midnightblue" stroke="midnightblue" points="343.415,-162.123 334.912,-168.444 345.501,-168.805 343.415,-162.123"/>
</g>
<!-- Node3 -->
<g id="node3" class="node"><title>Node3</title>
<g id="a_node3"><a xlink:href="convectionSystem_8cpp.html" target="_top" xlink:title="src/convectionSystem.cpp">
<polygon fill="white" stroke="black" points="0,-56.5 0,-75.5 129,-75.5 129,-56.5 0,-56.5"/>
<text text-anchor="middle" x="64.5" y="-63.5" font-family="FreeSans" font-size="10.00">src/convectionSystem.cpp</text>
</a>
</g>
</g>
<!-- Node2&#45;&gt;Node3 -->
<g id="edge2" class="edge"><title>Node2&#45;&gt;Node3</title>
<path fill="none" stroke="midnightblue" d="M150.497,-108.096C129.386,-98.0073 100.638,-84.2697 82.3214,-75.5164"/>
<polygon fill="midnightblue" stroke="midnightblue" points="149.063,-111.29 159.595,-112.444 152.081,-104.974 149.063,-111.29"/>
</g>
<!-- Node4 -->
<g id="node4" class="node"><title>Node4</title>
<g id="a_node4"><a xlink:href="flameSolver_8h.html" target="_top" xlink:title="src/flameSolver.h">
<polygon fill="white" stroke="black" points="147.5,-56.5 147.5,-75.5 237.5,-75.5 237.5,-56.5 147.5,-56.5"/>
<text text-anchor="middle" x="192.5" y="-63.5" font-family="FreeSans" font-size="10.00">src/flameSolver.h</text>
</a>
</g>
</g>
<!-- Node2&#45;&gt;Node4 -->
<g id="edge3" class="edge"><title>Node2&#45;&gt;Node4</title>
<path fill="none" stroke="midnightblue" d="M182.668,-102.396C185.177,-93.362 188.073,-82.936 190.069,-75.7511"/>
<polygon fill="midnightblue" stroke="midnightblue" points="179.281,-101.511 179.977,-112.083 186.026,-103.385 179.281,-101.511"/>
</g>
<!-- Node4&#45;&gt;Node5 -->
<g id="edge4" class="edge"><title>Node4&#45;&gt;Node5</title>
<path fill="none" stroke="midnightblue" d="M204.123,-47.5656C210.317,-38.2747 217.668,-27.2484 222.666,-19.7511"/>
<polygon fill="midnightblue" stroke="midnightblue" points="201.08,-45.821 198.445,-56.083 206.904,-49.7039 201.08,-45.821"/>
</g>
</g>
</svg>
