<?xml version="1.0" encoding="UTF-8" standalone="no"?>
<!DOCTYPE svg PUBLIC "-//W3C//DTD SVG 1.1//EN"
 "http://www.w3.org/Graphics/SVG/1.1/DTD/svg11.dtd">
<!-- Generated by graphviz version 8.1.0 (20230707.2238)
 -->
<!-- Title: src/scalarFunction.h Pages: 1 -->
<svg width="590pt" height="199pt"
 viewBox="0.00 0.00 590.00 199.00" xmlns="http://www.w3.org/2000/svg" xmlns:xlink="http://www.w3.org/1999/xlink">
<g id="graph0" class="graph" transform="scale(1 1) rotate(0) translate(4 195)">
<title>src/scalarFunction.h</title>
<!-- Node1 -->
<g id="Node000001" class="node">
<title>Node1</title>
<g id="a_Node000001"><a xlink:title=" ">
<polygon fill="#999999" stroke="#666666" points="391.12,-191 278.38,-191 278.38,-170.25 391.12,-170.25 391.12,-191"/>
<text text-anchor="middle" x="334.75" y="-177.5" font-family="FreeSans" font-size="10.00">src/scalarFunction.h</text>
</a>
</g>
</g>
<!-- Node2 -->
<g id="Node000002" class="node">
<title>Node2</title>
<g id="a_Node000002"><a xlink:href="convectionSystem_8h.html" target="_top" xlink:title=" ">
<polygon fill="white" stroke="#666666" points="261.88,-134.25 129.62,-134.25 129.62,-113.5 261.88,-113.5 261.88,-134.25"/>
<text text-anchor="middle" x="195.75" y="-120.75" font-family="FreeSans" font-size="10.00">src/convectionSystem.h</text>
</a>
</g>
</g>
<!-- Node1&#45;&gt;Node2 -->
<g id="edge1_Node000001_Node000002" class="edge">
<title>Node1&#45;&gt;Node2</title>
<g id="a_edge1_Node000001_Node000002"><a xlink:title=" ">
<path fill="none" stroke="#63b8ff" d="M299.82,-165.87C275.07,-156.12 242.46,-143.27 220.39,-134.58"/>
<polygon fill="#63b8ff" stroke="#63b8ff" points="298.31,-169.43 308.9,-169.84 300.88,-162.92 298.31,-169.43"/>
</a>
</g>
</g>
<!-- Node5 -->
<g id="Node000005" class="node">
<title>Node5</title>
<g id="a_Node000005"><a xlink:href="flameSolver_8cpp.html" target="_top" xlink:title=" ">
<polygon fill="white" stroke="#666666" points="306.38,-20.75 195.12,-20.75 195.12,0 306.38,0 306.38,-20.75"/>
<text text-anchor="middle" x="250.75" y="-7.25" font-family="FreeSans" font-size="10.00">src/flameSolver.cpp</text>
</a>
</g>
</g>
<!-- Node1&#45;&gt;Node5 -->
<g id="edge5_Node000001_Node000005" class="edge">
<title>Node1&#45;&gt;Node5</title>
<g id="a_edge5_Node000001_Node000005"><a xlink:title=" ">
<path fill="none" stroke="#63b8ff" d="M323.49,-160.76C318.79,-152.67 313.35,-143.08 308.75,-134.25 287.15,-92.84 264.27,-41.98 255.01,-21.06"/>
<polygon fill="#63b8ff" stroke="#63b8ff" points="320.85,-162.17 328.95,-169.01 326.88,-158.62 320.85,-162.17"/>
</a>
</g>
</g>
<!-- Node6 -->
<g id="Node000006" class="node">
<title>Node6</title>
<g id="a_Node000006"><a xlink:href="scalarFunction_8cpp.html" target="_top" xlink:title=" ">
<polygon fill="white" stroke="#666666" points="441.75,-134.25 317.75,-134.25 317.75,-113.5 441.75,-113.5 441.75,-134.25"/>
<text text-anchor="middle" x="379.75" y="-120.75" font-family="FreeSans" font-size="10.00">src/scalarFunction.cpp</text>
</a>
</g>
</g>
<!-- Node1&#45;&gt;Node6 -->
<g id="edge6_Node000001_Node000006" class="edge">
<title>Node1&#45;&gt;Node6</title>
<g id="a_edge6_Node000001_Node000006"><a xlink:title=" ">
<path fill="none" stroke="#63b8ff" d="M349.63,-161.52C357.02,-152.53 365.65,-142.03 371.77,-134.58"/>
<polygon fill="#63b8ff" stroke="#63b8ff" points="346.44,-158.89 342.8,-168.84 351.85,-163.33 346.44,-158.89"/>
</a>
</g>
</g>
<!-- Node7 -->
<g id="Node000007" class="node">
<title>Node7</title>
<g id="a_Node000007"><a xlink:href="sourceSystem_8cpp.html" target="_top" xlink:title=" ">
<polygon fill="white" stroke="#666666" points="582,-134.25 459.5,-134.25 459.5,-113.5 582,-113.5 582,-134.25"/>
<text text-anchor="middle" x="520.75" y="-120.75" font-family="FreeSans" font-size="10.00">src/sourceSystem.cpp</text>
</a>
</g>
</g>
<!-- Node1&#45;&gt;Node7 -->
<g id="edge7_Node000001_Node000007" class="edge">
<title>Node1&#45;&gt;Node7</title>
<g id="a_edge7_Node000001_Node000007"><a xlink:title=" ">
<path fill="none" stroke="#63b8ff" d="M378.38,-166.78C411.73,-156.97 457.01,-143.64 487.47,-134.67"/>
<polygon fill="#63b8ff" stroke="#63b8ff" points="377.61,-163.66 369,-169.84 379.58,-170.37 377.61,-163.66"/>
</a>
</g>
</g>
<!-- Node3 -->
<g id="Node000003" class="node">
<title>Node3</title>
<g id="a_Node000003"><a xlink:href="convectionSystem_8cpp.html" target="_top" xlink:title=" ">
<polygon fill="white" stroke="#666666" points="143.5,-77.5 0,-77.5 0,-56.75 143.5,-56.75 143.5,-77.5"/>
<text text-anchor="middle" x="71.75" y="-64" font-family="FreeSans" font-size="10.00">src/convectionSystem.cpp</text>
</a>
</g>
</g>
<!-- Node2&#45;&gt;Node3 -->
<g id="edge2_Node000002_Node000003" class="edge">
<title>Node2&#45;&gt;Node3</title>
<g id="a_edge2_Node000002_Node000003"><a xlink:title=" ">
<path fill="none" stroke="#63b8ff" d="M163.7,-108.72C141.73,-99.02 113.15,-86.41 93.73,-77.83"/>
<polygon fill="#63b8ff" stroke="#63b8ff" points="162.02,-112.25 172.58,-113.09 164.85,-105.85 162.02,-112.25"/>
</a>
</g>
</g>
<!-- Node4 -->
<g id="Node000004" class="node">
<title>Node4</title>
<g id="a_Node000004"><a xlink:href="flameSolver_8h.html" target="_top" xlink:title=" ">
<polygon fill="white" stroke="#666666" points="261.75,-77.5 161.75,-77.5 161.75,-56.75 261.75,-56.75 261.75,-77.5"/>
<text text-anchor="middle" x="211.75" y="-64" font-family="FreeSans" font-size="10.00">src/flameSolver.h</text>
</a>
</g>
</g>
<!-- Node2&#45;&gt;Node4 -->
<g id="edge3_Node000002_Node000004" class="edge">
<title>Node2&#45;&gt;Node4</title>
<g id="a_edge3_Node000002_Node000004"><a xlink:title=" ">
<path fill="none" stroke="#63b8ff" d="M201.62,-102.78C204.11,-94.27 206.9,-84.74 208.91,-77.83"/>
<polygon fill="#63b8ff" stroke="#63b8ff" points="198.06,-101.51 198.61,-112.09 204.78,-103.47 198.06,-101.51"/>
</a>
</g>
</g>
<!-- Node4&#45;&gt;Node5 -->
<g id="edge4_Node000004_Node000005" class="edge">
<title>Node4&#45;&gt;Node5</title>
<g id="a_edge4_Node000004_Node000005"><a xlink:title=" ">
<path fill="none" stroke="#63b8ff" d="M225.05,-47.46C231.36,-38.59 238.64,-28.37 243.84,-21.08"/>
<polygon fill="#63b8ff" stroke="#63b8ff" points="221.67,-45.16 218.72,-55.34 227.37,-49.22 221.67,-45.16"/>
</a>
</g>
</g>
</g>
</svg>
