<?xml version="1.0" encoding="UTF-8" standalone="no"?>
<!DOCTYPE svg PUBLIC "-//W3C//DTD SVG 1.1//EN"
 "http://www.w3.org/Graphics/SVG/1.1/DTD/svg11.dtd">
<!-- Generated by graphviz version 2.26.3 (20100126.1600)
 -->
<!-- Title: src/sourceSystem.h Pages: 1 -->
<svg width="1742pt" height="262pt"
 viewBox="0.00 0.00 1742.14 262.00" xmlns="http://www.w3.org/2000/svg" xmlns:xlink="http://www.w3.org/1999/xlink">
<g id="graph1" class="graph" transform="scale(1 1) rotate(0) translate(4 258)">
<title>src/sourceSystem.h</title>
<polygon fill="white" stroke="white" points="-4,5 -4,-258 1739.14,-258 1739.14,5 -4,5"/>
<!-- Node1 -->
<g id="node1" class="node"><title>Node1</title>
<polygon fill="#bfbfbf" stroke="black" points="194.642,-233 194.642,-253 295.642,-253 295.642,-233 194.642,-233"/>
<text text-anchor="middle" x="245.142" y="-240" font-family="FreeSans" font-size="10.00">src/sourceSystem.h</text>
</g>
<!-- Node2 -->
<g id="node3" class="node"><title>Node2</title>
<a xlink:href="mathUtils_8h.html" target="_top" xlink:title="mathUtils.h">
<polygon fill="white" stroke="black" points="179.642,-117 179.642,-137 244.642,-137 244.642,-117 179.642,-117"/>
<text text-anchor="middle" x="212.142" y="-124" font-family="FreeSans" font-size="10.00">mathUtils.h</text>
</a>
</g>
<!-- Node1&#45;&gt;Node2 -->
<g id="edge2" class="edge"><title>Node1&#45;&gt;Node2</title>
<path fill="none" stroke="midnightblue" d="M229.356,-232.774C218.025,-224.418 203.651,-211.482 197.142,-196 190.414,-179.995 195.721,-160.581 201.806,-146.428"/>
<polygon fill="midnightblue" stroke="midnightblue" points="205.072,-147.71 206.213,-137.176 198.753,-144.699 205.072,-147.71"/>
</g>
<!-- Node14 -->
<g id="node29" class="node"><title>Node14</title>
<a xlink:href="sundialsUtils_8h.html" target="_top" xlink:title="sundialsUtils.h">
<polygon fill="white" stroke="black" points="866.642,-117 866.642,-137 943.642,-137 943.642,-117 866.642,-117"/>
<text text-anchor="middle" x="905.142" y="-124" font-family="FreeSans" font-size="10.00">sundialsUtils.h</text>
</a>
</g>
<!-- Node1&#45;&gt;Node14 -->
<g id="edge30" class="edge"><title>Node1&#45;&gt;Node14</title>
<path fill="none" stroke="midnightblue" d="M253.958,-232.788C268.308,-216.975 298.419,-187.029 331.142,-174 379.36,-154.801 726.937,-135.828 856.569,-129.344"/>
<polygon fill="midnightblue" stroke="midnightblue" points="856.797,-132.837 866.611,-128.845 856.449,-125.845 856.797,-132.837"/>
</g>
<!-- Node26 -->
<g id="node55" class="node"><title>Node26</title>
<a xlink:href="qssintegrator_8h.html" target="_top" xlink:title="qssintegrator.h">
<polygon fill="white" stroke="black" points="205.642,-175 205.642,-195 284.642,-195 284.642,-175 205.642,-175"/>
<text text-anchor="middle" x="245.142" y="-182" font-family="FreeSans" font-size="10.00">qssintegrator.h</text>
</a>
</g>
<!-- Node1&#45;&gt;Node26 -->
<g id="edge58" class="edge"><title>Node1&#45;&gt;Node26</title>
<path fill="none" stroke="midnightblue" d="M245.142,-232.897C245.142,-225.339 245.142,-214.748 245.142,-205.446"/>
<polygon fill="midnightblue" stroke="midnightblue" points="248.642,-205.378 245.142,-195.378 241.642,-205.378 248.642,-205.378"/>
</g>
<!-- Node27 -->
<g id="node58" class="node"><title>Node27</title>
<a xlink:href="quasi2d_8h.html" target="_top" xlink:title="quasi2d.h">
<polygon fill="white" stroke="black" points="63.6421,-175 63.6421,-195 120.642,-195 120.642,-175 63.6421,-175"/>
<text text-anchor="middle" x="92.1421" y="-182" font-family="FreeSans" font-size="10.00">quasi2d.h</text>
</a>
</g>
<!-- Node1&#45;&gt;Node27 -->
<g id="edge62" class="edge"><title>Node1&#45;&gt;Node27</title>
<path fill="none" stroke="midnightblue" d="M218.492,-232.897C193.557,-223.445 156.108,-209.249 128.449,-198.764"/>
<polygon fill="midnightblue" stroke="midnightblue" points="129.335,-195.356 118.744,-195.084 126.854,-201.902 129.335,-195.356"/>
</g>
<!-- Node28 -->
<g id="node63" class="node"><title>Node28</title>
<polygon fill="white" stroke="#bfbfbf" points="340.142,-175 340.142,-195 446.142,-195 446.142,-175 340.142,-175"/>
<text text-anchor="middle" x="393.142" y="-182" font-family="FreeSans" font-size="10.00">boost/shared_ptr.hpp</text>
</g>
<!-- Node1&#45;&gt;Node28 -->
<g id="edge70" class="edge"><title>Node1&#45;&gt;Node28</title>
<path fill="none" stroke="midnightblue" d="M270.922,-232.897C294.968,-223.474 331.045,-209.335 357.776,-198.86"/>
<polygon fill="midnightblue" stroke="midnightblue" points="359.128,-202.089 367.161,-195.182 356.574,-195.572 359.128,-202.089"/>
</g>
<!-- Node3 -->
<g id="node5" class="node"><title>Node3</title>
<polygon fill="white" stroke="#bfbfbf" points="443.642,-59 443.642,-79 486.642,-79 486.642,-59 443.642,-59"/>
<text text-anchor="middle" x="465.142" y="-66" font-family="FreeSans" font-size="10.00">vector</text>
</g>
<!-- Node2&#45;&gt;Node3 -->
<g id="edge4" class="edge"><title>Node2&#45;&gt;Node3</title>
<path fill="none" stroke="midnightblue" d="M244.867,-120.922C287.708,-112.742 365.012,-97.2165 430.142,-80 431.22,-79.7151 432.314,-79.4178 433.416,-79.1111"/>
<polygon fill="midnightblue" stroke="midnightblue" points="434.782,-82.3577 443.388,-76.1779 432.807,-75.6422 434.782,-82.3577"/>
</g>
<!-- Node4 -->
<g id="node7" class="node"><title>Node4</title>
<polygon fill="white" stroke="#bfbfbf" points="190.142,-59 190.142,-79 234.142,-79 234.142,-59 190.142,-59"/>
<text text-anchor="middle" x="212.142" y="-66" font-family="FreeSans" font-size="10.00">cmath</text>
</g>
<!-- Node2&#45;&gt;Node4 -->
<g id="edge6" class="edge"><title>Node2&#45;&gt;Node4</title>
<path fill="none" stroke="midnightblue" d="M212.142,-116.897C212.142,-109.339 212.142,-98.7476 212.142,-89.4458"/>
<polygon fill="midnightblue" stroke="midnightblue" points="215.642,-89.3776 212.142,-79.3776 208.642,-89.3776 215.642,-89.3776"/>
</g>
<!-- Node5 -->
<g id="node9" class="node"><title>Node5</title>
<polygon fill="white" stroke="#bfbfbf" points="413.642,-1 413.642,-21 466.642,-21 466.642,-1 413.642,-1"/>
<text text-anchor="middle" x="440.142" y="-8" font-family="FreeSans" font-size="10.00">iostream</text>
</g>
<!-- Node2&#45;&gt;Node5 -->
<g id="edge8" class="edge"><title>Node2&#45;&gt;Node5</title>
<path fill="none" stroke="midnightblue" d="M245.009,-121.686C291.384,-113.685 373.063,-97.5986 397.142,-80 414.156,-67.5654 425.95,-46.1666 432.826,-30.4884"/>
<polygon fill="midnightblue" stroke="midnightblue" points="436.093,-31.7442 436.639,-21.1634 429.614,-29.0943 436.093,-31.7442"/>
</g>
<!-- Node6 -->
<g id="node11" class="node"><title>Node6</title>
<polygon fill="white" stroke="#bfbfbf" points="338.142,-59 338.142,-79 388.142,-79 388.142,-59 338.142,-59"/>
<text text-anchor="middle" x="363.142" y="-66" font-family="FreeSans" font-size="10.00">sstream</text>
</g>
<!-- Node2&#45;&gt;Node6 -->
<g id="edge10" class="edge"><title>Node2&#45;&gt;Node6</title>
<path fill="none" stroke="midnightblue" d="M238.444,-116.897C263.279,-107.358 300.691,-92.9877 328.058,-82.4759"/>
<polygon fill="midnightblue" stroke="midnightblue" points="329.564,-85.6468 337.644,-78.7938 327.054,-79.1122 329.564,-85.6468"/>
</g>
<!-- Node7 -->
<g id="node13" class="node"><title>Node7</title>
<polygon fill="white" stroke="#bfbfbf" points="54.1421,-1 54.1421,-21 94.1421,-21 94.1421,-1 54.1421,-1"/>
<text text-anchor="middle" x="74.1421" y="-8" font-family="FreeSans" font-size="10.00">string</text>
</g>
<!-- Node2&#45;&gt;Node7 -->
<g id="edge12" class="edge"><title>Node2&#45;&gt;Node7</title>
<path fill="none" stroke="midnightblue" d="M179.549,-122.306C152.679,-116.745 115.477,-104.874 93.1421,-80 81.2349,-66.7393 76.7061,-46.6768 75.0256,-31.5977"/>
<polygon fill="midnightblue" stroke="midnightblue" points="78.4845,-30.9322 74.2207,-21.2332 71.5056,-31.4742 78.4845,-30.9322"/>
</g>
<!-- Node8 -->
<g id="node15" class="node"><title>Node8</title>
<polygon fill="white" stroke="#bfbfbf" points="11.6421,-59 11.6421,-79 46.6421,-79 46.6421,-59 11.6421,-59"/>
<text text-anchor="middle" x="29.1421" y="-66" font-family="FreeSans" font-size="10.00">map</text>
</g>
<!-- Node2&#45;&gt;Node8 -->
<g id="edge14" class="edge"><title>Node2&#45;&gt;Node8</title>
<path fill="none" stroke="midnightblue" d="M179.403,-117.301C148.536,-108.056 101.039,-93.5723 60.1421,-80 58.9226,-79.5953 57.678,-79.1767 56.4221,-78.7499"/>
<polygon fill="midnightblue" stroke="midnightblue" points="57.3986,-75.384 46.8038,-75.4083 55.1013,-81.9963 57.3986,-75.384"/>
</g>
<!-- Node9 -->
<g id="node17" class="node"><title>Node9</title>
<a xlink:href="debugUtils_8h.html" target="_top" xlink:title="debugUtils.h">
<polygon fill="white" stroke="black" points="251.642,-59 251.642,-79 320.642,-79 320.642,-59 251.642,-59"/>
<text text-anchor="middle" x="286.142" y="-66" font-family="FreeSans" font-size="10.00">debugUtils.h</text>
</a>
</g>
<!-- Node2&#45;&gt;Node9 -->
<g id="edge16" class="edge"><title>Node2&#45;&gt;Node9</title>
<path fill="none" stroke="midnightblue" d="M225.032,-116.897C236.038,-108.271 252.085,-95.6938 264.973,-85.592"/>
<polygon fill="midnightblue" stroke="midnightblue" points="267.19,-88.3012 272.902,-79.3776 262.872,-82.7918 267.19,-88.3012"/>
</g>
<!-- Node13 -->
<g id="node27" class="node"><title>Node13</title>
<polygon fill="white" stroke="#bfbfbf" points="101.642,-59 101.642,-79 172.642,-79 172.642,-59 101.642,-59"/>
<text text-anchor="middle" x="137.142" y="-66" font-family="FreeSans" font-size="10.00">Eigen/Dense</text>
</g>
<!-- Node2&#45;&gt;Node13 -->
<g id="edge28" class="edge"><title>Node2&#45;&gt;Node13</title>
<path fill="none" stroke="midnightblue" d="M199.078,-116.897C187.855,-108.218 171.459,-95.5384 158.356,-85.4053"/>
<polygon fill="midnightblue" stroke="midnightblue" points="160.36,-82.5305 150.308,-79.1817 156.077,-88.0679 160.36,-82.5305"/>
</g>
<!-- Node9&#45;&gt;Node5 -->
<g id="edge20" class="edge"><title>Node9&#45;&gt;Node5</title>
<path fill="none" stroke="midnightblue" d="M312.967,-58.8972C338.251,-49.3744 376.321,-35.0366 404.219,-24.5296"/>
<polygon fill="midnightblue" stroke="midnightblue" points="405.5,-27.7871 413.625,-20.9871 403.033,-21.2363 405.5,-27.7871"/>
</g>
<!-- Node9&#45;&gt;Node7 -->
<g id="edge18" class="edge"><title>Node9&#45;&gt;Node7</title>
<path fill="none" stroke="midnightblue" d="M251.609,-59.5522C210.573,-48.3255 142.79,-29.7811 103.95,-19.1551"/>
<polygon fill="midnightblue" stroke="midnightblue" points="104.84,-15.77 94.271,-16.5069 102.993,-22.5218 104.84,-15.77"/>
</g>
<!-- Node10 -->
<g id="node21" class="node"><title>Node10</title>
<polygon fill="white" stroke="#bfbfbf" points="165.642,-1 165.642,-21 214.642,-21 214.642,-1 165.642,-1"/>
<text text-anchor="middle" x="190.142" y="-8" font-family="FreeSans" font-size="10.00">fstream</text>
</g>
<!-- Node9&#45;&gt;Node10 -->
<g id="edge22" class="edge"><title>Node9&#45;&gt;Node10</title>
<path fill="none" stroke="midnightblue" d="M269.42,-58.8972C254.644,-49.9698 232.863,-36.8106 215.869,-26.5431"/>
<polygon fill="midnightblue" stroke="midnightblue" points="217.364,-23.3572 206.995,-21.1817 213.744,-29.3486 217.364,-23.3572"/>
</g>
<!-- Node11 -->
<g id="node23" class="node"><title>Node11</title>
<polygon fill="white" stroke="#bfbfbf" points="232.142,-1 232.142,-21 290.142,-21 290.142,-1 232.142,-1"/>
<text text-anchor="middle" x="261.142" y="-8" font-family="FreeSans" font-size="10.00">exception</text>
</g>
<!-- Node9&#45;&gt;Node11 -->
<g id="edge24" class="edge"><title>Node9&#45;&gt;Node11</title>
<path fill="none" stroke="midnightblue" d="M281.787,-58.8972C278.459,-51.1747 273.765,-40.2857 269.694,-30.841"/>
<polygon fill="midnightblue" stroke="midnightblue" points="272.788,-29.1754 265.615,-21.3776 266.359,-31.9463 272.788,-29.1754"/>
</g>
<!-- Node12 -->
<g id="node25" class="node"><title>Node12</title>
<polygon fill="white" stroke="#bfbfbf" points="307.642,-1 307.642,-21 396.642,-21 396.642,-1 307.642,-1"/>
<text text-anchor="middle" x="352.142" y="-8" font-family="FreeSans" font-size="10.00">boost/format.hpp</text>
</g>
<!-- Node9&#45;&gt;Node12 -->
<g id="edge26" class="edge"><title>Node9&#45;&gt;Node12</title>
<path fill="none" stroke="midnightblue" d="M297.638,-58.8972C307.267,-50.4353 321.223,-38.1715 332.602,-28.1719"/>
<polygon fill="midnightblue" stroke="midnightblue" points="335.132,-30.6079 340.333,-21.3776 330.511,-25.3497 335.132,-30.6079"/>
</g>
<!-- Node14&#45;&gt;Node3 -->
<g id="edge52" class="edge"><title>Node14&#45;&gt;Node3</title>
<path fill="none" stroke="midnightblue" d="M866.5,-124.952C793.994,-120.572 632.889,-108.297 500.142,-80 499.052,-79.7676 497.947,-79.5156 496.835,-79.2477"/>
<polygon fill="midnightblue" stroke="midnightblue" points="497.386,-75.7699 486.817,-76.5103 495.541,-82.5224 497.386,-75.7699"/>
</g>
<!-- Node14&#45;&gt;Node5 -->
<g id="edge50" class="edge"><title>Node14&#45;&gt;Node5</title>
<path fill="none" stroke="midnightblue" d="M866.345,-124.597C783.731,-119.077 593.094,-104.085 533.142,-80 517.51,-73.72 482.488,-46.0915 460.163,-27.7573"/>
<polygon fill="midnightblue" stroke="midnightblue" points="462.232,-24.9263 452.296,-21.2496 457.77,-30.3202 462.232,-24.9263"/>
</g>
<!-- Node15 -->
<g id="node31" class="node"><title>Node15</title>
<polygon fill="white" stroke="#bfbfbf" points="776.142,-59 776.142,-79 894.142,-79 894.142,-59 776.142,-59"/>
<text text-anchor="middle" x="835.142" y="-66" font-family="FreeSans" font-size="10.00">nvector/nvector_serial.h</text>
</g>
<!-- Node14&#45;&gt;Node15 -->
<g id="edge32" class="edge"><title>Node14&#45;&gt;Node15</title>
<path fill="none" stroke="midnightblue" d="M892.949,-116.897C882.637,-108.353 867.647,-95.933 855.516,-85.8813"/>
<polygon fill="midnightblue" stroke="midnightblue" points="857.6,-83.0627 847.667,-79.3776 853.134,-88.4529 857.6,-83.0627"/>
</g>
<!-- Node16 -->
<g id="node33" class="node"><title>Node16</title>
<polygon fill="white" stroke="#bfbfbf" points="911.642,-59 911.642,-79 1038.64,-79 1038.64,-59 911.642,-59"/>
<text text-anchor="middle" x="975.142" y="-66" font-family="FreeSans" font-size="10.00">sundials/sundials_dense.h</text>
</g>
<!-- Node14&#45;&gt;Node16 -->
<g id="edge34" class="edge"><title>Node14&#45;&gt;Node16</title>
<path fill="none" stroke="midnightblue" d="M917.335,-116.897C927.647,-108.353 942.637,-95.933 954.768,-85.8813"/>
<polygon fill="midnightblue" stroke="midnightblue" points="957.15,-88.4529 962.617,-79.3776 952.684,-83.0627 957.15,-88.4529"/>
</g>
<!-- Node17 -->
<g id="node35" class="node"><title>Node17</title>
<polygon fill="white" stroke="#bfbfbf" points="1056.14,-59 1056.14,-79 1178.14,-79 1178.14,-59 1056.14,-59"/>
<text text-anchor="middle" x="1117.14" y="-66" font-family="FreeSans" font-size="10.00">sundials/sundials_band.h</text>
</g>
<!-- Node14&#45;&gt;Node17 -->
<g id="edge36" class="edge"><title>Node14&#45;&gt;Node17</title>
<path fill="none" stroke="midnightblue" d="M942.07,-116.897C977.68,-107.155 1031.71,-92.3724 1070.32,-81.8085"/>
<polygon fill="midnightblue" stroke="midnightblue" points="1071.56,-85.0991 1080.28,-79.0842 1069.71,-78.3472 1071.56,-85.0991"/>
</g>
<!-- Node18 -->
<g id="node37" class="node"><title>Node18</title>
<polygon fill="white" stroke="#bfbfbf" points="1196.14,-59 1196.14,-79 1320.14,-79 1320.14,-59 1196.14,-59"/>
<text text-anchor="middle" x="1258.14" y="-66" font-family="FreeSans" font-size="10.00">sundials/sundials_types.h</text>
</g>
<!-- Node14&#45;&gt;Node18 -->
<g id="edge38" class="edge"><title>Node14&#45;&gt;Node18</title>
<path fill="none" stroke="midnightblue" d="M943.929,-120.627C1002.34,-111.029 1113.85,-92.7089 1187.09,-80.674"/>
<polygon fill="midnightblue" stroke="midnightblue" points="1187.86,-84.0942 1197.16,-79.0191 1186.73,-77.1868 1187.86,-84.0942"/>
</g>
<!-- Node19 -->
<g id="node39" class="node"><title>Node19</title>
<polygon fill="white" stroke="#bfbfbf" points="1338.14,-59 1338.14,-79 1416.14,-79 1416.14,-59 1338.14,-59"/>
<text text-anchor="middle" x="1377.14" y="-66" font-family="FreeSans" font-size="10.00">cvode/cvode.h</text>
</g>
<!-- Node14&#45;&gt;Node19 -->
<g id="edge40" class="edge"><title>Node14&#45;&gt;Node19</title>
<path fill="none" stroke="midnightblue" d="M943.643,-124.222C1016.67,-118.632 1180.45,-104.56 1327.79,-80.0781"/>
<polygon fill="midnightblue" stroke="midnightblue" points="1328.64,-83.4846 1337.92,-78.374 1327.48,-76.5816 1328.64,-83.4846"/>
</g>
<!-- Node20 -->
<g id="node41" class="node"><title>Node20</title>
<polygon fill="white" stroke="#bfbfbf" points="1433.64,-59 1433.64,-79 1542.64,-79 1542.64,-59 1433.64,-59"/>
<text text-anchor="middle" x="1488.14" y="-66" font-family="FreeSans" font-size="10.00">cvode/cvode_dense.h</text>
</g>
<!-- Node14&#45;&gt;Node20 -->
<g id="edge42" class="edge"><title>Node14&#45;&gt;Node20</title>
<path fill="none" stroke="midnightblue" d="M943.751,-124.607C1028.69,-119.108 1238.32,-104.247 1423.63,-80.1207"/>
<polygon fill="midnightblue" stroke="midnightblue" points="1424.09,-83.5899 1433.55,-78.8167 1423.18,-76.6496 1424.09,-83.5899"/>
</g>
<!-- Node21 -->
<g id="node43" class="node"><title>Node21</title>
<polygon fill="white" stroke="#bfbfbf" points="1560.14,-59 1560.14,-79 1664.14,-79 1664.14,-59 1560.14,-59"/>
<text text-anchor="middle" x="1612.14" y="-66" font-family="FreeSans" font-size="10.00">cvode/cvode_band.h</text>
</g>
<!-- Node14&#45;&gt;Node21 -->
<g id="edge44" class="edge"><title>Node14&#45;&gt;Node21</title>
<path fill="none" stroke="midnightblue" d="M943.874,-125.612C1043,-121.755 1314.05,-109.289 1549.82,-80.0556"/>
<polygon fill="midnightblue" stroke="midnightblue" points="1550.47,-83.5017 1559.95,-78.7856 1549.6,-76.556 1550.47,-83.5017"/>
</g>
<!-- Node22 -->
<g id="node45" class="node"><title>Node22</title>
<polygon fill="white" stroke="#bfbfbf" points="1681.64,-59 1681.64,-79 1734.64,-79 1734.64,-59 1681.64,-59"/>
<text text-anchor="middle" x="1708.14" y="-66" font-family="FreeSans" font-size="10.00">ida/ida.h</text>
</g>
<!-- Node14&#45;&gt;Node22 -->
<g id="edge46" class="edge"><title>Node14&#45;&gt;Node22</title>
<path fill="none" stroke="midnightblue" d="M943.727,-125.88C1076.03,-121.852 1511.52,-106.978 1671.43,-79.8905"/>
<polygon fill="midnightblue" stroke="midnightblue" points="1672.33,-83.2861 1681.56,-78.0886 1671.1,-76.3943 1672.33,-83.2861"/>
</g>
<!-- Node23 -->
<g id="node47" class="node"><title>Node23</title>
<polygon fill="white" stroke="#bfbfbf" points="542.142,-59 542.142,-79 630.142,-79 630.142,-59 542.142,-59"/>
<text text-anchor="middle" x="586.142" y="-66" font-family="FreeSans" font-size="10.00">ida/ida_spbcgs.h</text>
</g>
<!-- Node14&#45;&gt;Node23 -->
<g id="edge48" class="edge"><title>Node14&#45;&gt;Node23</title>
<path fill="none" stroke="midnightblue" d="M866.31,-120.511C816.37,-112.084 726.707,-96.6781 640.338,-80.1922"/>
<polygon fill="midnightblue" stroke="midnightblue" points="640.849,-76.7266 630.369,-78.2817 639.531,-83.6015 640.849,-76.7266"/>
</g>
<!-- Node24 -->
<g id="node51" class="node"><title>Node24</title>
<polygon fill="white" stroke="#bfbfbf" points="647.642,-59 647.642,-79 690.642,-79 690.642,-59 647.642,-59"/>
<text text-anchor="middle" x="669.142" y="-66" font-family="FreeSans" font-size="10.00">time.h</text>
</g>
<!-- Node14&#45;&gt;Node24 -->
<g id="edge54" class="edge"><title>Node14&#45;&gt;Node24</title>
<path fill="none" stroke="midnightblue" d="M866.418,-119.695C826.764,-111.878 763.236,-98.4247 700.34,-80.1198"/>
<polygon fill="midnightblue" stroke="midnightblue" points="701.244,-76.7374 690.662,-77.2626 699.262,-83.4509 701.244,-76.7374"/>
</g>
<!-- Node25 -->
<g id="node53" class="node"><title>Node25</title>
<a xlink:href="config_8h.html" target="_top" xlink:title="config.h">
<polygon fill="white" stroke="black" points="708.142,-59 708.142,-79 758.142,-79 758.142,-59 708.142,-59"/>
<text text-anchor="middle" x="733.142" y="-66" font-family="FreeSans" font-size="10.00">config.h</text>
</a>
</g>
<!-- Node14&#45;&gt;Node25 -->
<g id="edge56" class="edge"><title>Node14&#45;&gt;Node25</title>
<path fill="none" stroke="midnightblue" d="M875.182,-116.897C845.306,-106.823 799.448,-91.359 767.968,-80.7435"/>
<polygon fill="midnightblue" stroke="midnightblue" points="768.885,-77.3591 758.29,-77.4803 766.648,-83.9922 768.885,-77.3591"/>
</g>
<!-- Node26&#45;&gt;Node2 -->
<g id="edge60" class="edge"><title>Node26&#45;&gt;Node2</title>
<path fill="none" stroke="midnightblue" d="M239.394,-174.897C234.907,-167.01 228.54,-155.821 223.089,-146.24"/>
<polygon fill="midnightblue" stroke="midnightblue" points="226.034,-144.338 218.047,-137.378 219.95,-147.8 226.034,-144.338"/>
</g>
<!-- Node27&#45;&gt;Node2 -->
<g id="edge64" class="edge"><title>Node27&#45;&gt;Node2</title>
<path fill="none" stroke="midnightblue" d="M113.045,-174.897C132.114,-165.68 160.515,-151.953 182.03,-141.554"/>
<polygon fill="midnightblue" stroke="midnightblue" points="183.596,-144.685 191.077,-137.182 180.55,-138.382 183.596,-144.685"/>
</g>
<!-- Node27&#45;&gt;Node7 -->
<g id="edge66" class="edge"><title>Node27&#45;&gt;Node7</title>
<path fill="none" stroke="midnightblue" d="M78.8584,-174.848C57.9295,-157.906 18.1212,-121.594 3.14212,-80 -0.170844,-70.8006 -1.48564,-66.6133 3.14212,-58 12.0068,-41.5008 29.4888,-29.8205 44.8865,-22.2307"/>
<polygon fill="midnightblue" stroke="midnightblue" points="46.4612,-25.3595 54.1088,-18.0271 43.5578,-18.99 46.4612,-25.3595"/>
</g>
<!-- Node27&#45;&gt;Node8 -->
<g id="edge68" class="edge"><title>Node27&#45;&gt;Node8</title>
<path fill="none" stroke="midnightblue" d="M86.5513,-174.706C75.9704,-155.223 52.8756,-112.7 39.4252,-87.9339"/>
<polygon fill="midnightblue" stroke="midnightblue" points="42.4788,-86.2227 34.6305,-79.1055 36.3274,-89.5636 42.4788,-86.2227"/>
</g>
</g>
</svg>
