<?xml version="1.0" encoding="UTF-8" standalone="no"?>
<!DOCTYPE svg PUBLIC "-//W3C//DTD SVG 1.1//EN"
 "http://www.w3.org/Graphics/SVG/1.1/DTD/svg11.dtd">
<!-- Generated by graphviz version 2.36.0 (20140111.2315)
 -->
<!-- Title: src/sourceSystem.h Pages: 1 -->
<svg width="1743pt" height="252pt"
 viewBox="0.00 0.00 1743.00 252.00" xmlns="http://www.w3.org/2000/svg" xmlns:xlink="http://www.w3.org/1999/xlink">
<g id="graph0" class="graph" transform="scale(1 1) rotate(0) translate(4 248)">
<title>src/sourceSystem.h</title>
<polygon fill="white" stroke="none" points="-4,4 -4,-248 1739,-248 1739,4 -4,4"/>
<!-- Node1 -->
<g id="node1" class="node"><title>Node1</title>
<polygon fill="#bfbfbf" stroke="black" points="1429.5,-224.5 1429.5,-243.5 1530.5,-243.5 1530.5,-224.5 1429.5,-224.5"/>
<text text-anchor="middle" x="1480" y="-231.5" font-family="FreeSans" font-size="10.00">src/sourceSystem.h</text>
</g>
<!-- Node2 -->
<g id="node2" class="node"><title>Node2</title>
<g id="a_node2"><a xlink:href="mathUtils_8h.html" target="_top" xlink:title="mathUtils.h">
<polygon fill="white" stroke="black" points="1447.5,-112.5 1447.5,-131.5 1512.5,-131.5 1512.5,-112.5 1447.5,-112.5"/>
<text text-anchor="middle" x="1480" y="-119.5" font-family="FreeSans" font-size="10.00">mathUtils.h</text>
</a>
</g>
</g>
<!-- Node1&#45;&gt;Node2 -->
<g id="edge1" class="edge"><title>Node1&#45;&gt;Node2</title>
<path fill="none" stroke="midnightblue" d="M1480,-224.368C1480,-206.617 1480,-165.666 1480,-141.597"/>
<polygon fill="midnightblue" stroke="midnightblue" points="1483.5,-141.591 1480,-131.591 1476.5,-141.591 1483.5,-141.591"/>
</g>
<!-- Node14 -->
<g id="node14" class="node"><title>Node14</title>
<g id="a_node14"><a xlink:href="sundialsUtils_8h.html" target="_top" xlink:title="sundialsUtils.h">
<polygon fill="white" stroke="black" points="680.5,-112.5 680.5,-131.5 757.5,-131.5 757.5,-112.5 680.5,-112.5"/>
<text text-anchor="middle" x="719" y="-119.5" font-family="FreeSans" font-size="10.00">sundialsUtils.h</text>
</a>
</g>
</g>
<!-- Node1&#45;&gt;Node14 -->
<g id="edge15" class="edge"><title>Node1&#45;&gt;Node14</title>
<path fill="none" stroke="midnightblue" d="M1429.48,-225.697C1290.68,-205.635 904.782,-149.854 767.913,-130.07"/>
<polygon fill="midnightblue" stroke="midnightblue" points="768.13,-126.565 757.732,-128.599 767.128,-133.493 768.13,-126.565"/>
</g>
<!-- Node26 -->
<g id="node26" class="node"><title>Node26</title>
<g id="a_node26"><a xlink:href="qssintegrator_8h.html" target="_top" xlink:title="qssintegrator.h">
<polygon fill="white" stroke="black" points="1372.5,-168.5 1372.5,-187.5 1451.5,-187.5 1451.5,-168.5 1372.5,-168.5"/>
<text text-anchor="middle" x="1412" y="-175.5" font-family="FreeSans" font-size="10.00">qssintegrator.h</text>
</a>
</g>
</g>
<!-- Node1&#45;&gt;Node26 -->
<g id="edge29" class="edge"><title>Node1&#45;&gt;Node26</title>
<path fill="none" stroke="midnightblue" d="M1469.07,-224.324C1458.83,-216.185 1443.28,-203.839 1431,-194.087"/>
<polygon fill="midnightblue" stroke="midnightblue" points="1433.13,-191.312 1423.12,-187.834 1428.78,-196.794 1433.13,-191.312"/>
</g>
<!-- Node27 -->
<g id="node27" class="node"><title>Node27</title>
<g id="a_node27"><a xlink:href="quasi2d_8h.html" target="_top" xlink:title="quasi2d.h">
<polygon fill="white" stroke="black" points="1508.5,-168.5 1508.5,-187.5 1565.5,-187.5 1565.5,-168.5 1508.5,-168.5"/>
<text text-anchor="middle" x="1537" y="-175.5" font-family="FreeSans" font-size="10.00">quasi2d.h</text>
</a>
</g>
</g>
<!-- Node1&#45;&gt;Node27 -->
<g id="edge31" class="edge"><title>Node1&#45;&gt;Node27</title>
<path fill="none" stroke="midnightblue" d="M1489.16,-224.324C1497.5,-216.42 1510.03,-204.548 1520.18,-194.938"/>
<polygon fill="midnightblue" stroke="midnightblue" points="1522.82,-197.252 1527.68,-187.834 1518.01,-192.171 1522.82,-197.252"/>
</g>
<!-- Node28 -->
<g id="node28" class="node"><title>Node28</title>
<polygon fill="white" stroke="#bfbfbf" points="1584,-168.5 1584,-187.5 1690,-187.5 1690,-168.5 1584,-168.5"/>
<text text-anchor="middle" x="1637" y="-175.5" font-family="FreeSans" font-size="10.00">boost/shared_ptr.hpp</text>
</g>
<!-- Node1&#45;&gt;Node28 -->
<g id="edge34" class="edge"><title>Node1&#45;&gt;Node28</title>
<path fill="none" stroke="midnightblue" d="M1504.88,-224.444C1531.29,-215.359 1573.22,-200.939 1602.74,-190.783"/>
<polygon fill="midnightblue" stroke="midnightblue" points="1603.92,-194.079 1612.24,-187.516 1601.64,-187.459 1603.92,-194.079"/>
</g>
<!-- Node3 -->
<g id="node3" class="node"><title>Node3</title>
<polygon fill="white" stroke="#bfbfbf" points="1254.5,-56.5 1254.5,-75.5 1297.5,-75.5 1297.5,-56.5 1254.5,-56.5"/>
<text text-anchor="middle" x="1276" y="-63.5" font-family="FreeSans" font-size="10.00">vector</text>
</g>
<!-- Node2&#45;&gt;Node3 -->
<g id="edge2" class="edge"><title>Node2&#45;&gt;Node3</title>
<path fill="none" stroke="midnightblue" d="M1447.68,-112.444C1409.27,-102.277 1345.61,-85.4272 1307.55,-75.3514"/>
<polygon fill="midnightblue" stroke="midnightblue" points="1308.1,-71.8759 1297.53,-72.7003 1306.31,-78.6428 1308.1,-71.8759"/>
</g>
<!-- Node4 -->
<g id="node4" class="node"><title>Node4</title>
<polygon fill="white" stroke="#bfbfbf" points="1354,-56.5 1354,-75.5 1398,-75.5 1398,-56.5 1354,-56.5"/>
<text text-anchor="middle" x="1376" y="-63.5" font-family="FreeSans" font-size="10.00">cmath</text>
</g>
<!-- Node2&#45;&gt;Node4 -->
<g id="edge3" class="edge"><title>Node2&#45;&gt;Node4</title>
<path fill="none" stroke="midnightblue" d="M1463.29,-112.324C1446.69,-103.703 1421,-90.3643 1401.78,-80.3855"/>
<polygon fill="midnightblue" stroke="midnightblue" points="1403.16,-77.1565 1392.67,-75.6545 1399.93,-83.3689 1403.16,-77.1565"/>
</g>
<!-- Node5 -->
<g id="node5" class="node"><title>Node5</title>
<polygon fill="white" stroke="#bfbfbf" points="1299.5,-0.5 1299.5,-19.5 1352.5,-19.5 1352.5,-0.5 1299.5,-0.5"/>
<text text-anchor="middle" x="1326" y="-7.5" font-family="FreeSans" font-size="10.00">iostream</text>
</g>
<!-- Node2&#45;&gt;Node5 -->
<g id="edge4" class="edge"><title>Node2&#45;&gt;Node5</title>
<path fill="none" stroke="midnightblue" d="M1447.41,-118.587C1416.87,-114.598 1372,-104.023 1345,-76 1333.16,-63.7066 1328.64,-44.4503 1326.94,-30.0831"/>
<polygon fill="midnightblue" stroke="midnightblue" points="1330.41,-29.5163 1326.1,-19.8355 1323.43,-30.0879 1330.41,-29.5163"/>
</g>
<!-- Node6 -->
<g id="node6" class="node"><title>Node6</title>
<polygon fill="white" stroke="#bfbfbf" points="1416,-56.5 1416,-75.5 1466,-75.5 1466,-56.5 1416,-56.5"/>
<text text-anchor="middle" x="1441" y="-63.5" font-family="FreeSans" font-size="10.00">sstream</text>
</g>
<!-- Node2&#45;&gt;Node6 -->
<g id="edge5" class="edge"><title>Node2&#45;&gt;Node6</title>
<path fill="none" stroke="midnightblue" d="M1473.56,-112.083C1468.05,-104.455 1459.97,-93.2645 1453.24,-83.9408"/>
<polygon fill="midnightblue" stroke="midnightblue" points="1456.01,-81.8087 1447.32,-75.7511 1450.34,-85.9071 1456.01,-81.8087"/>
</g>
<!-- Node7 -->
<g id="node7" class="node"><title>Node7</title>
<polygon fill="white" stroke="#bfbfbf" points="1671,-0.5 1671,-19.5 1711,-19.5 1711,-0.5 1671,-0.5"/>
<text text-anchor="middle" x="1691" y="-7.5" font-family="FreeSans" font-size="10.00">string</text>
</g>
<!-- Node2&#45;&gt;Node7 -->
<g id="edge6" class="edge"><title>Node2&#45;&gt;Node7</title>
<path fill="none" stroke="midnightblue" d="M1512.7,-119.54C1549.6,-116.387 1609.83,-106.543 1651,-76 1666.93,-64.1846 1677.9,-43.9666 1684.27,-29.2101"/>
<polygon fill="midnightblue" stroke="midnightblue" points="1687.64,-30.2133 1688.1,-19.6285 1681.14,-27.6155 1687.64,-30.2133"/>
</g>
<!-- Node8 -->
<g id="node8" class="node"><title>Node8</title>
<polygon fill="white" stroke="#bfbfbf" points="1699.5,-56.5 1699.5,-75.5 1734.5,-75.5 1734.5,-56.5 1699.5,-56.5"/>
<text text-anchor="middle" x="1717" y="-63.5" font-family="FreeSans" font-size="10.00">map</text>
</g>
<!-- Node2&#45;&gt;Node8 -->
<g id="edge7" class="edge"><title>Node2&#45;&gt;Node8</title>
<path fill="none" stroke="midnightblue" d="M1512.8,-114.412C1553.39,-106.119 1624.55,-91.1209 1685,-76 1686.47,-75.6324 1687.97,-75.2455 1689.49,-74.8472"/>
<polygon fill="midnightblue" stroke="midnightblue" points="1690.72,-78.1414 1699.44,-72.1357 1688.88,-71.3875 1690.72,-78.1414"/>
</g>
<!-- Node9 -->
<g id="node9" class="node"><title>Node9</title>
<g id="a_node9"><a xlink:href="debugUtils_8h.html" target="_top" xlink:title="debugUtils.h">
<polygon fill="white" stroke="black" points="1573.5,-56.5 1573.5,-75.5 1642.5,-75.5 1642.5,-56.5 1573.5,-56.5"/>
<text text-anchor="middle" x="1608" y="-63.5" font-family="FreeSans" font-size="10.00">debugUtils.h</text>
</a>
</g>
</g>
<!-- Node2&#45;&gt;Node9 -->
<g id="edge8" class="edge"><title>Node2&#45;&gt;Node9</title>
<path fill="none" stroke="midnightblue" d="M1500.28,-112.444C1521.35,-103.557 1554.52,-89.5632 1578.49,-79.4514"/>
<polygon fill="midnightblue" stroke="midnightblue" points="1579.96,-82.6283 1587.81,-75.5164 1577.24,-76.1787 1579.96,-82.6283"/>
</g>
<!-- Node13 -->
<g id="node13" class="node"><title>Node13</title>
<polygon fill="white" stroke="#bfbfbf" points="1484.5,-56.5 1484.5,-75.5 1555.5,-75.5 1555.5,-56.5 1484.5,-56.5"/>
<text text-anchor="middle" x="1520" y="-63.5" font-family="FreeSans" font-size="10.00">Eigen/Dense</text>
</g>
<!-- Node2&#45;&gt;Node13 -->
<g id="edge14" class="edge"><title>Node2&#45;&gt;Node13</title>
<path fill="none" stroke="midnightblue" d="M1486.61,-112.083C1492.26,-104.455 1500.54,-93.2645 1507.45,-83.9408"/>
<polygon fill="midnightblue" stroke="midnightblue" points="1510.38,-85.87 1513.52,-75.7511 1504.75,-81.7034 1510.38,-85.87"/>
</g>
<!-- Node9&#45;&gt;Node5 -->
<g id="edge10" class="edge"><title>Node9&#45;&gt;Node5</title>
<path fill="none" stroke="midnightblue" d="M1573.42,-57.8767C1570.24,-57.236 1567.06,-56.6022 1564,-56 1492.84,-41.9966 1409.55,-26.4384 1362.76,-17.7753"/>
<polygon fill="midnightblue" stroke="midnightblue" points="1363.26,-14.3088 1352.79,-15.9317 1361.99,-21.1921 1363.26,-14.3088"/>
</g>
<!-- Node9&#45;&gt;Node7 -->
<g id="edge9" class="edge"><title>Node9&#45;&gt;Node7</title>
<path fill="none" stroke="midnightblue" d="M1621.34,-56.324C1634.16,-47.979 1653.78,-35.2122 1668.94,-25.3524"/>
<polygon fill="midnightblue" stroke="midnightblue" points="1671.22,-28.0417 1677.7,-19.6545 1667.41,-22.1742 1671.22,-28.0417"/>
</g>
<!-- Node10 -->
<g id="node10" class="node"><title>Node10</title>
<polygon fill="white" stroke="#bfbfbf" points="1420.5,-0.5 1420.5,-19.5 1469.5,-19.5 1469.5,-0.5 1420.5,-0.5"/>
<text text-anchor="middle" x="1445" y="-7.5" font-family="FreeSans" font-size="10.00">fstream</text>
</g>
<!-- Node9&#45;&gt;Node10 -->
<g id="edge11" class="edge"><title>Node9&#45;&gt;Node10</title>
<path fill="none" stroke="midnightblue" d="M1582.17,-56.4435C1554.43,-47.2522 1510.2,-32.5987 1479.49,-22.4265"/>
<polygon fill="midnightblue" stroke="midnightblue" points="1480.23,-18.9854 1469.64,-19.1629 1478.03,-25.6302 1480.23,-18.9854"/>
</g>
<!-- Node11 -->
<g id="node11" class="node"><title>Node11</title>
<polygon fill="white" stroke="#bfbfbf" points="1488,-0.5 1488,-19.5 1546,-19.5 1546,-0.5 1488,-0.5"/>
<text text-anchor="middle" x="1517" y="-7.5" font-family="FreeSans" font-size="10.00">exception</text>
</g>
<!-- Node9&#45;&gt;Node11 -->
<g id="edge12" class="edge"><title>Node9&#45;&gt;Node11</title>
<path fill="none" stroke="midnightblue" d="M1593.38,-56.324C1579.05,-47.8215 1556.99,-34.7288 1540.25,-24.7975"/>
<polygon fill="midnightblue" stroke="midnightblue" points="1541.97,-21.7478 1531.58,-19.6545 1538.4,-27.7677 1541.97,-21.7478"/>
</g>
<!-- Node12 -->
<g id="node12" class="node"><title>Node12</title>
<polygon fill="white" stroke="#bfbfbf" points="1563.5,-0.5 1563.5,-19.5 1652.5,-19.5 1652.5,-0.5 1563.5,-0.5"/>
<text text-anchor="middle" x="1608" y="-7.5" font-family="FreeSans" font-size="10.00">boost/format.hpp</text>
</g>
<!-- Node9&#45;&gt;Node12 -->
<g id="edge13" class="edge"><title>Node9&#45;&gt;Node12</title>
<path fill="none" stroke="midnightblue" d="M1608,-56.083C1608,-49.0059 1608,-38.8611 1608,-29.9865"/>
<polygon fill="midnightblue" stroke="midnightblue" points="1611.5,-29.751 1608,-19.7511 1604.5,-29.7511 1611.5,-29.751"/>
</g>
<!-- Node14&#45;&gt;Node3 -->
<g id="edge26" class="edge"><title>Node14&#45;&gt;Node3</title>
<path fill="none" stroke="midnightblue" d="M757.5,-119.766C844.197,-116.532 1061.13,-105.889 1240,-76 1241.47,-75.7545 1242.97,-75.4798 1244.48,-75.1834"/>
<polygon fill="midnightblue" stroke="midnightblue" points="1245.41,-78.5625 1254.41,-72.9873 1243.9,-71.7274 1245.41,-78.5625"/>
</g>
<!-- Node14&#45;&gt;Node5 -->
<g id="edge25" class="edge"><title>Node14&#45;&gt;Node5</title>
<path fill="none" stroke="midnightblue" d="M757.618,-119.461C857.622,-115.155 1123.07,-101.589 1207,-76 1212.02,-74.4691 1267.83,-43.5088 1301.2,-24.8776"/>
<polygon fill="midnightblue" stroke="midnightblue" points="1303.34,-27.6939 1310.36,-19.7608 1299.93,-21.5831 1303.34,-27.6939"/>
</g>
<!-- Node15 -->
<g id="node15" class="node"><title>Node15</title>
<polygon fill="white" stroke="#bfbfbf" points="306,-56.5 306,-75.5 424,-75.5 424,-56.5 306,-56.5"/>
<text text-anchor="middle" x="365" y="-63.5" font-family="FreeSans" font-size="10.00">nvector/nvector_serial.h</text>
</g>
<!-- Node14&#45;&gt;Node15 -->
<g id="edge16" class="edge"><title>Node14&#45;&gt;Node15</title>
<path fill="none" stroke="midnightblue" d="M680.442,-115.118C620.54,-105.981 504.396,-88.2639 430.983,-77.0653"/>
<polygon fill="midnightblue" stroke="midnightblue" points="431.332,-73.578 420.918,-75.5299 430.276,-80.498 431.332,-73.578"/>
</g>
<!-- Node16 -->
<g id="node16" class="node"><title>Node16</title>
<polygon fill="white" stroke="#bfbfbf" points="442.5,-56.5 442.5,-75.5 569.5,-75.5 569.5,-56.5 442.5,-56.5"/>
<text text-anchor="middle" x="506" y="-63.5" font-family="FreeSans" font-size="10.00">sundials/sundials_dense.h</text>
</g>
<!-- Node14&#45;&gt;Node16 -->
<g id="edge17" class="edge"><title>Node14&#45;&gt;Node16</title>
<path fill="none" stroke="midnightblue" d="M685.25,-112.444C648.482,-103.122 589.554,-88.1828 549.378,-77.9972"/>
<polygon fill="midnightblue" stroke="midnightblue" points="550.146,-74.5813 539.593,-75.5164 548.426,-81.3666 550.146,-74.5813"/>
</g>
<!-- Node17 -->
<g id="node17" class="node"><title>Node17</title>
<polygon fill="white" stroke="#bfbfbf" points="588,-56.5 588,-75.5 710,-75.5 710,-56.5 588,-56.5"/>
<text text-anchor="middle" x="649" y="-63.5" font-family="FreeSans" font-size="10.00">sundials/sundials_band.h</text>
</g>
<!-- Node14&#45;&gt;Node17 -->
<g id="edge18" class="edge"><title>Node14&#45;&gt;Node17</title>
<path fill="none" stroke="midnightblue" d="M707.753,-112.324C697.203,-104.185 681.199,-91.8395 668.558,-82.0874"/>
<polygon fill="midnightblue" stroke="midnightblue" points="670.507,-79.1707 660.451,-75.8339 666.231,-84.7132 670.507,-79.1707"/>
</g>
<!-- Node18 -->
<g id="node18" class="node"><title>Node18</title>
<polygon fill="white" stroke="#bfbfbf" points="728,-56.5 728,-75.5 852,-75.5 852,-56.5 728,-56.5"/>
<text text-anchor="middle" x="790" y="-63.5" font-family="FreeSans" font-size="10.00">sundials/sundials_types.h</text>
</g>
<!-- Node14&#45;&gt;Node18 -->
<g id="edge19" class="edge"><title>Node14&#45;&gt;Node18</title>
<path fill="none" stroke="midnightblue" d="M730.407,-112.324C741.109,-104.185 757.341,-91.8395 770.163,-82.0874"/>
<polygon fill="midnightblue" stroke="midnightblue" points="772.544,-84.6734 778.385,-75.8339 768.307,-79.1018 772.544,-84.6734"/>
</g>
<!-- Node19 -->
<g id="node19" class="node"><title>Node19</title>
<polygon fill="white" stroke="#bfbfbf" points="870,-56.5 870,-75.5 948,-75.5 948,-56.5 870,-56.5"/>
<text text-anchor="middle" x="909" y="-63.5" font-family="FreeSans" font-size="10.00">cvode/cvode.h</text>
</g>
<!-- Node14&#45;&gt;Node19 -->
<g id="edge20" class="edge"><title>Node14&#45;&gt;Node19</title>
<path fill="none" stroke="midnightblue" d="M749.106,-112.444C781.626,-103.201 833.579,-88.4356 869.391,-78.2572"/>
<polygon fill="midnightblue" stroke="midnightblue" points="870.373,-81.617 879.035,-75.5164 868.459,-74.8837 870.373,-81.617"/>
</g>
<!-- Node20 -->
<g id="node20" class="node"><title>Node20</title>
<polygon fill="white" stroke="#bfbfbf" points="966.5,-56.5 966.5,-75.5 1075.5,-75.5 1075.5,-56.5 966.5,-56.5"/>
<text text-anchor="middle" x="1021" y="-63.5" font-family="FreeSans" font-size="10.00">cvode/cvode_dense.h</text>
</g>
<!-- Node14&#45;&gt;Node20 -->
<g id="edge21" class="edge"><title>Node14&#45;&gt;Node20</title>
<path fill="none" stroke="midnightblue" d="M757.555,-114.106C809.565,-104.806 902.636,-88.1645 963.081,-77.3564"/>
<polygon fill="midnightblue" stroke="midnightblue" points="964.001,-80.7474 973.229,-75.5418 962.769,-73.8567 964.001,-80.7474"/>
</g>
<!-- Node21 -->
<g id="node21" class="node"><title>Node21</title>
<polygon fill="white" stroke="#bfbfbf" points="1094,-56.5 1094,-75.5 1198,-75.5 1198,-56.5 1094,-56.5"/>
<text text-anchor="middle" x="1146" y="-63.5" font-family="FreeSans" font-size="10.00">cvode/cvode_band.h</text>
</g>
<!-- Node14&#45;&gt;Node21 -->
<g id="edge22" class="edge"><title>Node14&#45;&gt;Node21</title>
<path fill="none" stroke="midnightblue" d="M757.662,-116.51C824.327,-108.706 965.191,-91.9452 1084,-76 1084.1,-75.9864 1084.2,-75.9729 1084.3,-75.9592"/>
<polygon fill="midnightblue" stroke="midnightblue" points="1084.48,-79.4674 1093.92,-74.6434 1083.53,-72.532 1084.48,-79.4674"/>
</g>
<!-- Node22 -->
<g id="node22" class="node"><title>Node22</title>
<polygon fill="white" stroke="#bfbfbf" points="-0.5,-56.5 -0.5,-75.5 52.5,-75.5 52.5,-56.5 -0.5,-56.5"/>
<text text-anchor="middle" x="26" y="-63.5" font-family="FreeSans" font-size="10.00">ida/ida.h</text>
</g>
<!-- Node14&#45;&gt;Node22 -->
<g id="edge23" class="edge"><title>Node14&#45;&gt;Node22</title>
<path fill="none" stroke="midnightblue" d="M680.152,-120.821C579.428,-119.83 301.6,-113.746 62.5638,-75.9779"/>
<polygon fill="midnightblue" stroke="midnightblue" points="63.0744,-72.5151 52.6466,-74.389 61.9669,-79.427 63.0744,-72.5151"/>
</g>
<!-- Node23 -->
<g id="node23" class="node"><title>Node23</title>
<polygon fill="white" stroke="#bfbfbf" points="70,-56.5 70,-75.5 158,-75.5 158,-56.5 70,-56.5"/>
<text text-anchor="middle" x="114" y="-63.5" font-family="FreeSans" font-size="10.00">ida/ida_spbcgs.h</text>
</g>
<!-- Node14&#45;&gt;Node23 -->
<g id="edge24" class="edge"><title>Node14&#45;&gt;Node23</title>
<path fill="none" stroke="midnightblue" d="M680.401,-119.01C591.76,-114.192 366.64,-100.545 168.229,-76.0514"/>
<polygon fill="midnightblue" stroke="midnightblue" points="168.56,-72.5657 158.204,-74.8016 167.694,-79.5119 168.56,-72.5657"/>
</g>
<!-- Node24 -->
<g id="node24" class="node"><title>Node24</title>
<polygon fill="white" stroke="#bfbfbf" points="176.5,-56.5 176.5,-75.5 219.5,-75.5 219.5,-56.5 176.5,-56.5"/>
<text text-anchor="middle" x="198" y="-63.5" font-family="FreeSans" font-size="10.00">time.h</text>
</g>
<!-- Node14&#45;&gt;Node24 -->
<g id="edge27" class="edge"><title>Node14&#45;&gt;Node24</title>
<path fill="none" stroke="midnightblue" d="M680.218,-119.951C598.504,-117.202 402.633,-107.786 229.603,-75.7208"/>
<polygon fill="midnightblue" stroke="midnightblue" points="230.028,-72.2394 219.553,-73.8277 228.732,-79.1184 230.028,-72.2394"/>
</g>
<!-- Node25 -->
<g id="node25" class="node"><title>Node25</title>
<g id="a_node25"><a xlink:href="config_8h.html" target="_top" xlink:title="config.h">
<polygon fill="white" stroke="black" points="238,-56.5 238,-75.5 288,-75.5 288,-56.5 238,-56.5"/>
<text text-anchor="middle" x="263" y="-63.5" font-family="FreeSans" font-size="10.00">config.h</text>
</a>
</g>
</g>
<!-- Node14&#45;&gt;Node25 -->
<g id="edge28" class="edge"><title>Node14&#45;&gt;Node25</title>
<path fill="none" stroke="midnightblue" d="M680.314,-118.854C607.358,-114.382 444.377,-102.364 298.202,-75.959"/>
<polygon fill="midnightblue" stroke="midnightblue" points="298.621,-72.4776 288.154,-74.116 297.359,-79.3627 298.621,-72.4776"/>
</g>
<!-- Node26&#45;&gt;Node2 -->
<g id="edge30" class="edge"><title>Node26&#45;&gt;Node2</title>
<path fill="none" stroke="midnightblue" d="M1422.93,-168.324C1433.17,-160.185 1448.72,-147.839 1461,-138.087"/>
<polygon fill="midnightblue" stroke="midnightblue" points="1463.22,-140.794 1468.88,-131.834 1458.87,-135.312 1463.22,-140.794"/>
</g>
<!-- Node27&#45;&gt;Node2 -->
<g id="edge32" class="edge"><title>Node27&#45;&gt;Node2</title>
<path fill="none" stroke="midnightblue" d="M1527.84,-168.324C1519.5,-160.42 1506.97,-148.548 1496.82,-138.938"/>
<polygon fill="midnightblue" stroke="midnightblue" points="1498.99,-136.171 1489.32,-131.834 1494.18,-141.252 1498.99,-136.171"/>
</g>
<!-- Node27&#45;&gt;Node8 -->
<g id="edge33" class="edge"><title>Node27&#45;&gt;Node8</title>
<path fill="none" stroke="midnightblue" d="M1551.12,-168.368C1582.14,-149.412 1656.45,-104.001 1694.19,-80.9424"/>
<polygon fill="midnightblue" stroke="midnightblue" points="1696.23,-83.7925 1702.94,-75.5914 1692.58,-77.8195 1696.23,-83.7925"/>
</g>
</g>
</svg>
