<?xml version="1.0" encoding="UTF-8" standalone="no"?>
<!DOCTYPE svg PUBLIC "-//W3C//DTD SVG 1.1//EN"
 "http://www.w3.org/Graphics/SVG/1.1/DTD/svg11.dtd">
<!-- Generated by graphviz version 8.1.0 (20230707.2238)
 -->
<!-- Title: src/sourceSystem.h Pages: 1 -->
<svg width="254pt" height="142pt"
 viewBox="0.00 0.00 253.88 142.25" xmlns="http://www.w3.org/2000/svg" xmlns:xlink="http://www.w3.org/1999/xlink">
<g id="graph0" class="graph" transform="scale(1 1) rotate(0) translate(4 138.25)">
<title>src/sourceSystem.h</title>
<!-- Node1 -->
<g id="Node000001" class="node">
<title>Node1</title>
<g id="a_Node000001"><a xlink:title=" ">
<polygon fill="#999999" stroke="#666666" points="175.25,-134.25 64,-134.25 64,-113.5 175.25,-113.5 175.25,-134.25"/>
<text text-anchor="middle" x="119.62" y="-120.75" font-family="FreeSans" font-size="10.00">src/sourceSystem.h</text>
</a>
</g>
</g>
<!-- Node2 -->
<g id="Node000002" class="node">
<title>Node2</title>
<g id="a_Node000002"><a xlink:href="flameSolver_8h.html" target="_top" xlink:title=" ">
<polygon fill="white" stroke="#666666" points="105.62,-77.5 5.62,-77.5 5.62,-56.75 105.62,-56.75 105.62,-77.5"/>
<text text-anchor="middle" x="55.62" y="-64" font-family="FreeSans" font-size="10.00">src/flameSolver.h</text>
</a>
</g>
</g>
<!-- Node1&#45;&gt;Node2 -->
<g id="edge1_Node000001_Node000002" class="edge">
<title>Node1&#45;&gt;Node2</title>
<g id="a_edge1_Node000001_Node000002"><a xlink:title=" ">
<path fill="none" stroke="#63b8ff" d="M100.09,-106.16C89.24,-96.88 76.13,-85.67 66.97,-77.83"/>
<polygon fill="#63b8ff" stroke="#63b8ff" points="97.31,-109.25 107.18,-113.09 101.86,-103.93 97.31,-109.25"/>
</a>
</g>
</g>
<!-- Node4 -->
<g id="Node000004" class="node">
<title>Node4</title>
<g id="a_Node000004"><a xlink:href="sourceSystem_8cpp.html" target="_top" xlink:title=" ">
<polygon fill="white" stroke="#666666" points="245.88,-77.5 123.38,-77.5 123.38,-56.75 245.88,-56.75 245.88,-77.5"/>
<text text-anchor="middle" x="184.62" y="-64" font-family="FreeSans" font-size="10.00">src/sourceSystem.cpp</text>
</a>
</g>
</g>
<!-- Node1&#45;&gt;Node4 -->
<g id="edge3_Node000001_Node000004" class="edge">
<title>Node1&#45;&gt;Node4</title>
<g id="a_edge3_Node000001_Node000004"><a xlink:title=" ">
<path fill="none" stroke="#63b8ff" d="M139.47,-106.16C150.48,-96.88 163.8,-85.67 173.1,-77.83"/>
<polygon fill="#63b8ff" stroke="#63b8ff" points="137.64,-103.97 132.25,-113.09 142.15,-109.32 137.64,-103.97"/>
</a>
</g>
</g>
<!-- Node3 -->
<g id="Node000003" class="node">
<title>Node3</title>
<g id="a_Node000003"><a xlink:href="flameSolver_8cpp.html" target="_top" xlink:title=" ">
<polygon fill="white" stroke="#666666" points="111.25,-20.75 0,-20.75 0,0 111.25,0 111.25,-20.75"/>
<text text-anchor="middle" x="55.62" y="-7.25" font-family="FreeSans" font-size="10.00">src/flameSolver.cpp</text>
</a>
</g>
</g>
<!-- Node2&#45;&gt;Node3 -->
<g id="edge2_Node000002_Node000003" class="edge">
<title>Node2&#45;&gt;Node3</title>
<g id="a_edge2_Node000002_Node000003"><a xlink:title=" ">
<path fill="none" stroke="#63b8ff" d="M55.62,-45.46C55.62,-37.09 55.62,-27.83 55.62,-21.08"/>
<polygon fill="#63b8ff" stroke="#63b8ff" points="52.13,-45.34 55.62,-55.34 59.13,-45.34 52.13,-45.34"/>
</a>
</g>
</g>
</g>
</svg>
