<?xml version="1.0" encoding="UTF-8" standalone="no"?>
<!DOCTYPE svg PUBLIC "-//W3C//DTD SVG 1.1//EN"
 "http://www.w3.org/Graphics/SVG/1.1/DTD/svg11.dtd">
<!-- Generated by graphviz version 8.1.0 (20230707.2238)
 -->
<!-- Title: src/sourceSystem.cpp Pages: 1 -->
<svg width="3680pt" height="325pt"
 viewBox="0.00 0.00 3680.25 325.25" xmlns="http://www.w3.org/2000/svg" xmlns:xlink="http://www.w3.org/1999/xlink">
<g id="graph0" class="graph" transform="scale(1 1) rotate(0) translate(4 321.25)">
<title>src/sourceSystem.cpp</title>
<!-- Node1 -->
<g id="Node000001" class="node">
<title>Node1</title>
<g id="a_Node000001"><a xlink:title=" ">
<polygon fill="#999999" stroke="#666666" points="1377,-317.25 1254.5,-317.25 1254.5,-296.5 1377,-296.5 1377,-317.25"/>
<text text-anchor="middle" x="1315.75" y="-303.75" font-family="FreeSans" font-size="10.00">src/sourceSystem.cpp</text>
</a>
</g>
</g>
<!-- Node2 -->
<g id="Node000002" class="node">
<title>Node2</title>
<g id="a_Node000002"><a xlink:href="sourceSystem_8h.html" target="_top" xlink:title=" ">
<polygon fill="white" stroke="#666666" points="452.75,-260.5 358.75,-260.5 358.75,-239.75 452.75,-239.75 452.75,-260.5"/>
<text text-anchor="middle" x="405.75" y="-247" font-family="FreeSans" font-size="10.00">sourceSystem.h</text>
</a>
</g>
</g>
<!-- Node1&#45;&gt;Node2 -->
<g id="edge1_Node000001_Node000002" class="edge">
<title>Node1&#45;&gt;Node2</title>
<g id="a_edge1_Node000001_Node000002"><a xlink:title=" ">
<path fill="none" stroke="#63b8ff" d="M1254.27,-302.18C1087.32,-292.13 627.12,-264.44 464.01,-254.63"/>
<polygon fill="#63b8ff" stroke="#63b8ff" points="464.43,-251.09 454.24,-253.98 464.01,-258.08 464.43,-251.09"/>
</a>
</g>
</g>
<!-- Node13 -->
<g id="Node000013" class="node">
<title>Node13</title>
<g id="a_Node000013"><a xlink:title=" ">
<polygon fill="#e0e0e0" stroke="#999999" points="1496.75,-20.75 1396.75,-20.75 1396.75,0 1496.75,0 1496.75,-20.75"/>
<text text-anchor="middle" x="1446.75" y="-7.25" font-family="FreeSans" font-size="10.00">boost/format.hpp</text>
</a>
</g>
</g>
<!-- Node1&#45;&gt;Node13 -->
<g id="edge64_Node000001_Node000013" class="edge">
<title>Node1&#45;&gt;Node13</title>
<g id="a_edge64_Node000001_Node000013"><a xlink:title=" ">
<path fill="none" stroke="#63b8ff" d="M1377.26,-305.22C1589.14,-302.15 2275.75,-285.19 2275.75,-194.38 2275.75,-194.38 2275.75,-194.38 2275.75,-129.25 2275.75,-51.67 1699.26,-21.51 1507.76,-13.63"/>
<polygon fill="#63b8ff" stroke="#63b8ff" points="1508.18,-10.1 1498.05,-13.2 1507.9,-17.1 1508.18,-10.1"/>
</a>
</g>
</g>
<!-- Node16 -->
<g id="Node000016" class="node">
<title>Node16</title>
<g id="a_Node000016"><a xlink:href="sundialsUtils_8h.html" target="_top" xlink:title=" ">
<polygon fill="white" stroke="#666666" points="1359.75,-203.75 1271.75,-203.75 1271.75,-183 1359.75,-183 1359.75,-203.75"/>
<text text-anchor="middle" x="1315.75" y="-190.25" font-family="FreeSans" font-size="10.00">sundialsUtils.h</text>
</a>
</g>
</g>
<!-- Node1&#45;&gt;Node16 -->
<g id="edge50_Node000001_Node000016" class="edge">
<title>Node1&#45;&gt;Node16</title>
<g id="a_edge50_Node000001_Node000016"><a xlink:title=" ">
<path fill="none" stroke="#63b8ff" d="M1315.75,-296.37C1315.75,-278.44 1315.75,-239.25 1315.75,-215.01"/>
<polygon fill="#63b8ff" stroke="#63b8ff" points="1319.25,-215.18 1315.75,-205.18 1312.25,-215.18 1319.25,-215.18"/>
</a>
</g>
</g>
<!-- Node35 -->
<g id="Node000035" class="node">
<title>Node35</title>
<g id="a_Node000035"><a xlink:href="readConfig_8h.html" target="_top" xlink:title=" ">
<polygon fill="white" stroke="#666666" points="77.5,-203.75 0,-203.75 0,-183 77.5,-183 77.5,-203.75"/>
<text text-anchor="middle" x="38.75" y="-190.25" font-family="FreeSans" font-size="10.00">readConfig.h</text>
</a>
</g>
</g>
<!-- Node1&#45;&gt;Node35 -->
<g id="edge41_Node000001_Node000035" class="edge">
<title>Node1&#45;&gt;Node35</title>
<g id="a_edge41_Node000001_Node000035"><a xlink:title=" ">
<path fill="none" stroke="#63b8ff" d="M1254.18,-305.8C1053.68,-305.17 420.83,-300.01 220.75,-260.5 165.37,-249.56 104.33,-224.52 68.89,-208.59"/>
<polygon fill="#63b8ff" stroke="#63b8ff" points="70.72,-205.12 60.17,-204.16 67.82,-211.49 70.72,-205.12"/>
</a>
</g>
</g>
<!-- Node36 -->
<g id="Node000036" class="node">
<title>Node36</title>
<g id="a_Node000036"><a xlink:href="perfTimer_8h.html" target="_top" xlink:title=" ">
<polygon fill="white" stroke="#666666" points="2092.88,-260.5 2020.62,-260.5 2020.62,-239.75 2092.88,-239.75 2092.88,-260.5"/>
<text text-anchor="middle" x="2056.75" y="-247" font-family="FreeSans" font-size="10.00">perfTimer.h</text>
</a>
</g>
</g>
<!-- Node1&#45;&gt;Node36 -->
<g id="edge44_Node000001_Node000036" class="edge">
<title>Node1&#45;&gt;Node36</title>
<g id="a_edge44_Node000001_Node000036"><a xlink:title=" ">
<path fill="none" stroke="#63b8ff" d="M1377.34,-301.32C1521.94,-290.64 1880.66,-264.14 2009.63,-254.61"/>
<polygon fill="#63b8ff" stroke="#63b8ff" points="2009.59,-258.05 2019.31,-253.82 2009.08,-251.06 2009.59,-258.05"/>
</a>
</g>
</g>
<!-- Node45 -->
<g id="Node000045" class="node">
<title>Node45</title>
<g id="a_Node000045"><a xlink:href="chemistry0d_8h.html" target="_top" xlink:title=" ">
<polygon fill="white" stroke="#666666" points="2758.62,-203.75 2672.88,-203.75 2672.88,-183 2758.62,-183 2758.62,-203.75"/>
<text text-anchor="middle" x="2715.75" y="-190.25" font-family="FreeSans" font-size="10.00">chemistry0d.h</text>
</a>
</g>
</g>
<!-- Node1&#45;&gt;Node45 -->
<g id="edge51_Node000001_Node000045" class="edge">
<title>Node1&#45;&gt;Node45</title>
<g id="a_edge51_Node000001_Node000045"><a xlink:title=" ">
<path fill="none" stroke="#63b8ff" d="M1377.45,-305.3C1531.66,-303.36 1946.15,-295.07 2289.75,-260.5 2424.45,-246.95 2581.47,-219.54 2662.03,-204.61"/>
<polygon fill="#63b8ff" stroke="#63b8ff" points="2662.22,-207.95 2671.41,-202.68 2660.93,-201.07 2662.22,-207.95"/>
</a>
</g>
</g>
<!-- Node54 -->
<g id="Node000054" class="node">
<title>Node54</title>
<g id="a_Node000054"><a xlink:href="scalarFunction_8h.html" target="_top" xlink:title=" ">
<polygon fill="white" stroke="#666666" points="325.5,-260.5 230,-260.5 230,-239.75 325.5,-239.75 325.5,-260.5"/>
<text text-anchor="middle" x="277.75" y="-247" font-family="FreeSans" font-size="10.00">scalarFunction.h</text>
</a>
</g>
</g>
<!-- Node1&#45;&gt;Node54 -->
<g id="edge62_Node000001_Node000054" class="edge">
<title>Node1&#45;&gt;Node54</title>
<g id="a_edge62_Node000001_Node000054"><a xlink:title=" ">
<path fill="none" stroke="#63b8ff" d="M1254.04,-304.74C1100.76,-301.54 690.5,-290.64 349.75,-260.5 345.37,-260.11 340.85,-259.66 336.3,-259.16"/>
<polygon fill="#63b8ff" stroke="#63b8ff" points="337.05,-255.61 326.71,-257.93 336.24,-262.56 337.05,-255.61"/>
</a>
</g>
</g>
<!-- Node3 -->
<g id="Node000003" class="node">
<title>Node3</title>
<g id="a_Node000003"><a xlink:href="mathUtils_8h.html" target="_top" xlink:title=" ">
<polygon fill="white" stroke="#666666" points="245.25,-140.62 172.25,-140.62 172.25,-119.88 245.25,-119.88 245.25,-140.62"/>
<text text-anchor="middle" x="208.75" y="-127.12" font-family="FreeSans" font-size="10.00">mathUtils.h</text>
</a>
</g>
</g>
<!-- Node2&#45;&gt;Node3 -->
<g id="edge2_Node000002_Node000003" class="edge">
<title>Node2&#45;&gt;Node3</title>
<g id="a_edge2_Node000002_Node000003"><a xlink:title=" ">
<path fill="none" stroke="#63b8ff" d="M407.12,-239.65C408.59,-225.44 409.08,-198.6 394.75,-183 351,-135.36 315.66,-165.7 253.75,-147 251.12,-146.2 248.41,-145.35 245.69,-144.46"/>
<polygon fill="#63b8ff" stroke="#63b8ff" points="246.87,-140.83 236.28,-140.96 244.64,-147.47 246.87,-140.83"/>
</a>
</g>
</g>
<!-- Node2&#45;&gt;Node16 -->
<g id="edge15_Node000002_Node000016" class="edge">
<title>Node2&#45;&gt;Node16</title>
<g id="a_edge15_Node000002_Node000016"><a xlink:title=" ">
<path fill="none" stroke="#63b8ff" d="M453.08,-246.28C607.41,-236.99 1095.62,-207.62 1260.64,-197.69"/>
<polygon fill="#63b8ff" stroke="#63b8ff" points="1260.72,-201.13 1270.49,-197.04 1260.3,-194.14 1260.72,-201.13"/>
</a>
</g>
</g>
<!-- Node31 -->
<g id="Node000031" class="node">
<title>Node31</title>
<g id="a_Node000031"><a xlink:href="qssintegrator_8h.html" target="_top" xlink:title=" ">
<polygon fill="white" stroke="#666666" points="386.12,-203.75 297.38,-203.75 297.38,-183 386.12,-183 386.12,-203.75"/>
<text text-anchor="middle" x="341.75" y="-190.25" font-family="FreeSans" font-size="10.00">qssintegrator.h</text>
</a>
</g>
</g>
<!-- Node2&#45;&gt;Node31 -->
<g id="edge33_Node000002_Node000031" class="edge">
<title>Node2&#45;&gt;Node31</title>
<g id="a_edge33_Node000002_Node000031"><a xlink:title=" ">
<path fill="none" stroke="#63b8ff" d="M394.31,-239.34C385.12,-231.47 372,-220.25 361.17,-210.99"/>
<polygon fill="#63b8ff" stroke="#63b8ff" points="363.97,-207.92 354.09,-204.08 359.42,-213.24 363.97,-207.92"/>
</a>
</g>
</g>
<!-- Node32 -->
<g id="Node000032" class="node">
<title>Node32</title>
<g id="a_Node000032"><a xlink:href="quasi2d_8h.html" target="_top" xlink:title=" ">
<polygon fill="white" stroke="#666666" points="158.38,-203.75 95.12,-203.75 95.12,-183 158.38,-183 158.38,-203.75"/>
<text text-anchor="middle" x="126.75" y="-190.25" font-family="FreeSans" font-size="10.00">quasi2d.h</text>
</a>
</g>
</g>
<!-- Node2&#45;&gt;Node32 -->
<g id="edge35_Node000002_Node000032" class="edge">
<title>Node2&#45;&gt;Node32</title>
<g id="a_edge35_Node000002_Node000032"><a xlink:title=" ">
<path fill="none" stroke="#63b8ff" d="M358.47,-240.76C312.43,-232.48 240.23,-219.13 169.08,-204.19"/>
<polygon fill="#63b8ff" stroke="#63b8ff" points="170.11,-200.61 159.6,-201.97 168.66,-207.46 170.11,-200.61"/>
</a>
</g>
</g>
<!-- Node33 -->
<g id="Node000033" class="node">
<title>Node33</title>
<g id="a_Node000033"><a xlink:href="callback_8h.html" target="_top" xlink:title=" ">
<polygon fill="white" stroke="#666666" points="241.5,-203.75 176,-203.75 176,-183 241.5,-183 241.5,-203.75"/>
<text text-anchor="middle" x="208.75" y="-190.25" font-family="FreeSans" font-size="10.00">callback.h</text>
</a>
</g>
</g>
<!-- Node2&#45;&gt;Node33 -->
<g id="edge38_Node000002_Node000033" class="edge">
<title>Node2&#45;&gt;Node33</title>
<g id="a_edge38_Node000002_Node000033"><a xlink:title=" ">
<path fill="none" stroke="#63b8ff" d="M370.53,-239.34C337.43,-230.14 287.8,-216.35 252.25,-206.46"/>
<polygon fill="#63b8ff" stroke="#63b8ff" points="253.27,-202.84 242.7,-203.53 251.4,-209.58 253.27,-202.84"/>
</a>
</g>
</g>
<!-- Node4 -->
<g id="Node000004" class="node">
<title>Node4</title>
<g id="a_Node000004"><a xlink:title=" ">
<polygon fill="#e0e0e0" stroke="#999999" points="1502.12,-77.5 1455.38,-77.5 1455.38,-56.75 1502.12,-56.75 1502.12,-77.5"/>
<text text-anchor="middle" x="1478.75" y="-64" font-family="FreeSans" font-size="10.00">vector</text>
</a>
</g>
</g>
<!-- Node3&#45;&gt;Node4 -->
<g id="edge3_Node000003_Node000004" class="edge">
<title>Node3&#45;&gt;Node4</title>
<g id="a_edge3_Node000003_Node000004"><a xlink:title=" ">
<path fill="none" stroke="#63b8ff" d="M232.67,-119.39C239.38,-117.03 246.76,-114.82 253.75,-113.5 313.76,-102.16 1251.18,-74.67 1444.17,-69.11"/>
<polygon fill="#63b8ff" stroke="#63b8ff" points="1444.16,-72.59 1454.05,-68.8 1443.95,-65.59 1444.16,-72.59"/>
</a>
</g>
</g>
<!-- Node5 -->
<g id="Node000005" class="node">
<title>Node5</title>
<g id="a_Node000005"><a xlink:title=" ">
<polygon fill="#e0e0e0" stroke="#999999" points="323.12,-77.5 276.38,-77.5 276.38,-56.75 323.12,-56.75 323.12,-77.5"/>
<text text-anchor="middle" x="299.75" y="-64" font-family="FreeSans" font-size="10.00">cmath</text>
</a>
</g>
</g>
<!-- Node3&#45;&gt;Node5 -->
<g id="edge4_Node000003_Node000005" class="edge">
<title>Node3&#45;&gt;Node5</title>
<g id="a_edge4_Node000003_Node000005"><a xlink:title=" ">
<path fill="none" stroke="#63b8ff" d="M223.37,-119.43C237.7,-109.8 259.76,-94.98 276.5,-83.74"/>
<polygon fill="#63b8ff" stroke="#63b8ff" points="277.82,-86.4 284.17,-77.92 273.91,-80.59 277.82,-86.4"/>
</a>
</g>
</g>
<!-- Node6 -->
<g id="Node000006" class="node">
<title>Node6</title>
<g id="a_Node000006"><a xlink:title=" ">
<polygon fill="#e0e0e0" stroke="#999999" points="550.5,-20.75 491,-20.75 491,0 550.5,0 550.5,-20.75"/>
<text text-anchor="middle" x="520.75" y="-7.25" font-family="FreeSans" font-size="10.00">iostream</text>
</a>
</g>
</g>
<!-- Node3&#45;&gt;Node6 -->
<g id="edge5_Node000003_Node000006" class="edge">
<title>Node3&#45;&gt;Node6</title>
<g id="a_edge5_Node000003_Node000006"><a xlink:title=" ">
<path fill="none" stroke="#63b8ff" d="M234.19,-119.39C240.51,-117.21 247.32,-115.08 253.75,-113.5 307.84,-100.24 459.79,-114.12 501.75,-77.5 514.67,-66.22 519.08,-46.79 520.45,-31.9"/>
<polygon fill="#63b8ff" stroke="#63b8ff" points="523.99,-32.34 521.01,-22.17 516.99,-31.98 523.99,-32.34"/>
</a>
</g>
</g>
<!-- Node7 -->
<g id="Node000007" class="node">
<title>Node7</title>
<g id="a_Node000007"><a xlink:title=" ">
<polygon fill="#e0e0e0" stroke="#999999" points="396.62,-77.5 340.88,-77.5 340.88,-56.75 396.62,-56.75 396.62,-77.5"/>
<text text-anchor="middle" x="368.75" y="-64" font-family="FreeSans" font-size="10.00">sstream</text>
</a>
</g>
</g>
<!-- Node3&#45;&gt;Node7 -->
<g id="edge6_Node000003_Node000007" class="edge">
<title>Node3&#45;&gt;Node7</title>
<g id="a_edge6_Node000003_Node000007"><a xlink:title=" ">
<path fill="none" stroke="#63b8ff" d="M234.46,-119.43C261.17,-109.23 303.16,-93.18 333.07,-81.75"/>
<polygon fill="#63b8ff" stroke="#63b8ff" points="334.01,-84.76 342.11,-77.92 331.52,-78.22 334.01,-84.76"/>
</a>
</g>
</g>
<!-- Node8 -->
<g id="Node000008" class="node">
<title>Node8</title>
<g id="a_Node000008"><a xlink:title=" ">
<polygon fill="#e0e0e0" stroke="#999999" points="139.62,-20.75 95.88,-20.75 95.88,0 139.62,0 139.62,-20.75"/>
<text text-anchor="middle" x="117.75" y="-7.25" font-family="FreeSans" font-size="10.00">string</text>
</a>
</g>
</g>
<!-- Node3&#45;&gt;Node8 -->
<g id="edge7_Node000003_Node000008" class="edge">
<title>Node3&#45;&gt;Node8</title>
<g id="a_edge7_Node000003_Node000008"><a xlink:title=" ">
<path fill="none" stroke="#63b8ff" d="M188.45,-119.51C172.18,-110.71 149.96,-96.25 136.75,-77.5 127.28,-64.06 122.5,-45.95 120.11,-32.08"/>
<polygon fill="#63b8ff" stroke="#63b8ff" points="123.43,-31.62 118.56,-22.21 116.5,-32.6 123.43,-31.62"/>
</a>
</g>
</g>
<!-- Node9 -->
<g id="Node000009" class="node">
<title>Node9</title>
<g id="a_Node000009"><a xlink:title=" ">
<polygon fill="#e0e0e0" stroke="#999999" points="89.62,-77.5 51.88,-77.5 51.88,-56.75 89.62,-56.75 89.62,-77.5"/>
<text text-anchor="middle" x="70.75" y="-64" font-family="FreeSans" font-size="10.00">map</text>
</a>
</g>
</g>
<!-- Node3&#45;&gt;Node9 -->
<g id="edge8_Node000003_Node000009" class="edge">
<title>Node3&#45;&gt;Node9</title>
<g id="a_edge8_Node000003_Node000009"><a xlink:title=" ">
<path fill="none" stroke="#63b8ff" d="M186.58,-119.43C163.01,-108.99 125.63,-92.43 99.74,-80.97"/>
<polygon fill="#63b8ff" stroke="#63b8ff" points="101.32,-77.39 90.76,-76.54 98.48,-83.79 101.32,-77.39"/>
</a>
</g>
</g>
<!-- Node10 -->
<g id="Node000010" class="node">
<title>Node10</title>
<g id="a_Node000010"><a xlink:href="debugUtils_8h.html" target="_top" xlink:title=" ">
<polygon fill="#fff0f0" stroke="red" points="492.5,-77.5 415,-77.5 415,-56.75 492.5,-56.75 492.5,-77.5"/>
<text text-anchor="middle" x="453.75" y="-64" font-family="FreeSans" font-size="10.00">debugUtils.h</text>
</a>
</g>
</g>
<!-- Node3&#45;&gt;Node10 -->
<g id="edge9_Node000003_Node000010" class="edge">
<title>Node3&#45;&gt;Node10</title>
<g id="a_edge9_Node000003_Node000010"><a xlink:title=" ">
<path fill="none" stroke="#63b8ff" d="M235.24,-119.42C241.28,-117.33 247.7,-115.24 253.75,-113.5 281.57,-105.51 354.71,-89.37 404.39,-78.65"/>
<polygon fill="#63b8ff" stroke="#63b8ff" points="404.88,-81.91 413.92,-76.38 403.41,-75.07 404.88,-81.91"/>
</a>
</g>
</g>
<!-- Node14 -->
<g id="Node000014" class="node">
<title>Node14</title>
<g id="a_Node000014"><a xlink:title=" ">
<polygon fill="#e0e0e0" stroke="#999999" points="1104.88,-77.5 978.62,-77.5 978.62,-56.75 1104.88,-56.75 1104.88,-77.5"/>
<text text-anchor="middle" x="1041.75" y="-64" font-family="FreeSans" font-size="10.00">cantera/base/ct_defs.h</text>
</a>
</g>
</g>
<!-- Node3&#45;&gt;Node14 -->
<g id="edge13_Node000003_Node000014" class="edge">
<title>Node3&#45;&gt;Node14</title>
<g id="a_edge13_Node000003_Node000014"><a xlink:title=" ">
<path fill="none" stroke="#63b8ff" d="M232.69,-119.48C239.4,-117.13 246.77,-114.89 253.75,-113.5 388.94,-86.5 798.4,-73.91 967.49,-69.76"/>
<polygon fill="#63b8ff" stroke="#63b8ff" points="967.36,-73.24 977.27,-69.5 967.19,-66.24 967.36,-73.24"/>
</a>
</g>
</g>
<!-- Node15 -->
<g id="Node000015" class="node">
<title>Node15</title>
<g id="a_Node000015"><a xlink:title=" ">
<polygon fill="#e0e0e0" stroke="#999999" points="258.12,-77.5 145.38,-77.5 145.38,-56.75 258.12,-56.75 258.12,-77.5"/>
<text text-anchor="middle" x="201.75" y="-64" font-family="FreeSans" font-size="10.00">eigen3/Eigen/Dense</text>
</a>
</g>
</g>
<!-- Node3&#45;&gt;Node15 -->
<g id="edge14_Node000003_Node000015" class="edge">
<title>Node3&#45;&gt;Node15</title>
<g id="a_edge14_Node000003_Node000015"><a xlink:title=" ">
<path fill="none" stroke="#63b8ff" d="M207.63,-119.43C206.67,-111.09 205.27,-98.86 204.07,-88.43"/>
<polygon fill="#63b8ff" stroke="#63b8ff" points="207.46,-88.26 202.85,-78.72 200.51,-89.05 207.46,-88.26"/>
</a>
</g>
</g>
<!-- Node10&#45;&gt;Node6 -->
<g id="edge11_Node000010_Node000006" class="edge">
<title>Node10&#45;&gt;Node6</title>
<g id="a_edge11_Node000010_Node000006"><a xlink:title=" ">
<path fill="none" stroke="#63b8ff" d="M465.73,-56.34C475.35,-48.47 489.08,-37.25 500.42,-27.99"/>
<polygon fill="#63b8ff" stroke="#63b8ff" points="502.35,-30.12 507.88,-21.08 497.92,-24.7 502.35,-30.12"/>
</a>
</g>
</g>
<!-- Node10&#45;&gt;Node8 -->
<g id="edge10_Node000010_Node000008" class="edge">
<title>Node10&#45;&gt;Node8</title>
<g id="a_edge10_Node000010_Node000008"><a xlink:title=" ">
<path fill="none" stroke="#63b8ff" d="M414.74,-58.38C411.7,-57.82 408.68,-57.27 405.75,-56.75 313.57,-40.49 204.28,-24.04 150.7,-16.17"/>
<polygon fill="#63b8ff" stroke="#63b8ff" points="151.24,-12.56 140.84,-14.57 150.22,-19.49 151.24,-12.56"/>
</a>
</g>
</g>
<!-- Node10&#45;&gt;Node13 -->
<g id="edge12_Node000010_Node000013" class="edge">
<title>Node10&#45;&gt;Node13</title>
<g id="a_edge12_Node000010_Node000013"><a xlink:title=" ">
<path fill="none" stroke="#63b8ff" d="M492.98,-63.96C645.5,-55.55 1199.71,-25 1385.54,-14.75"/>
<polygon fill="#63b8ff" stroke="#63b8ff" points="1385.67,-18.19 1395.46,-14.15 1385.28,-11.2 1385.67,-18.19"/>
</a>
</g>
</g>
<!-- Node16&#45;&gt;Node4 -->
<g id="edge31_Node000016_Node000004" class="edge">
<title>Node16&#45;&gt;Node4</title>
<g id="a_edge31_Node000016_Node000004"><a xlink:title=" ">
<path fill="none" stroke="#63b8ff" d="M1360.11,-191.58C1474.78,-189.08 1774.16,-179.47 1803.75,-147 1813.78,-136 1813.52,-124.73 1803.75,-113.5 1766.31,-70.47 1588.63,-66.99 1512.98,-67.52"/>
<polygon fill="#63b8ff" stroke="#63b8ff" points="1513.13,-64.03 1503.17,-67.63 1513.2,-71.03 1513.13,-64.03"/>
</a>
</g>
</g>
<!-- Node16&#45;&gt;Node6 -->
<g id="edge30_Node000016_Node000006" class="edge">
<title>Node16&#45;&gt;Node6</title>
<g id="a_edge30_Node000016_Node000006"><a xlink:title=" ">
<path fill="none" stroke="#63b8ff" d="M1359.94,-191.74C1477.3,-189.58 1789.94,-180.7 1820.75,-147 1830.8,-136.01 1830.28,-124.94 1820.75,-113.5 1738.24,-14.51 774.16,-10.82 561.91,-11.21"/>
<polygon fill="#63b8ff" stroke="#63b8ff" points="561.96,-7.72 551.97,-11.24 561.98,-14.72 561.96,-7.72"/>
</a>
</g>
</g>
<!-- Node16&#45;&gt;Node14 -->
<g id="edge22_Node000016_Node000014" class="edge">
<title>Node16&#45;&gt;Node14</title>
<g id="a_edge22_Node000016_Node000014"><a xlink:title=" ">
<path fill="none" stroke="#63b8ff" d="M1360.02,-190.5C1391.22,-186.58 1431.01,-175.78 1451.75,-147 1460.45,-134.92 1461.68,-124.59 1451.75,-113.5 1429.82,-89.01 1228.38,-76.3 1116.25,-71.08"/>
<polygon fill="#63b8ff" stroke="#63b8ff" points="1116.51,-67.54 1106.36,-70.58 1116.19,-74.54 1116.51,-67.54"/>
</a>
</g>
</g>
<!-- Node17 -->
<g id="Node000017" class="node">
<title>Node17</title>
<g id="a_Node000017"><a xlink:href="config_8h.html" target="_top" xlink:title=" ">
<polygon fill="white" stroke="#666666" points="2164.88,-140.62 2110.62,-140.62 2110.62,-119.88 2164.88,-119.88 2164.88,-140.62"/>
<text text-anchor="middle" x="2137.75" y="-127.12" font-family="FreeSans" font-size="10.00">config.h</text>
</a>
</g>
</g>
<!-- Node16&#45;&gt;Node17 -->
<g id="edge16_Node000016_Node000017" class="edge">
<title>Node16&#45;&gt;Node17</title>
<g id="a_edge16_Node000016_Node000017"><a xlink:title=" ">
<path fill="none" stroke="#63b8ff" d="M1360.03,-191.87C1504.24,-189.91 1959.27,-181.12 2101.75,-147 2104.07,-146.44 2106.42,-145.75 2108.76,-144.96"/>
<polygon fill="#63b8ff" stroke="#63b8ff" points="2109.72,-147.95 2117.76,-141.05 2107.17,-141.43 2109.72,-147.95"/>
</a>
</g>
</g>
<!-- Node18 -->
<g id="Node000018" class="node">
<title>Node18</title>
<g id="a_Node000018"><a xlink:title=" ">
<polygon fill="#e0e0e0" stroke="#999999" points="1632.62,-140.62 1498.88,-140.62 1498.88,-119.88 1632.62,-119.88 1632.62,-140.62"/>
<text text-anchor="middle" x="1565.75" y="-127.12" font-family="FreeSans" font-size="10.00">nvector/nvector_serial.h</text>
</a>
</g>
</g>
<!-- Node16&#45;&gt;Node18 -->
<g id="edge17_Node000016_Node000018" class="edge">
<title>Node16&#45;&gt;Node18</title>
<g id="a_edge17_Node000016_Node000018"><a xlink:title=" ">
<path fill="none" stroke="#63b8ff" d="M1355.92,-182.55C1399.2,-171.97 1468.17,-155.11 1515.13,-143.63"/>
<polygon fill="#63b8ff" stroke="#63b8ff" points="1515.8,-146.82 1524.68,-141.05 1514.14,-140.02 1515.8,-146.82"/>
</a>
</g>
</g>
<!-- Node19 -->
<g id="Node000019" class="node">
<title>Node19</title>
<g id="a_Node000019"><a xlink:title=" ">
<polygon fill="#e0e0e0" stroke="#999999" points="1794.5,-140.62 1651,-140.62 1651,-119.88 1794.5,-119.88 1794.5,-140.62"/>
<text text-anchor="middle" x="1722.75" y="-127.12" font-family="FreeSans" font-size="10.00">sundials/sundials_dense.h</text>
</a>
</g>
</g>
<!-- Node16&#45;&gt;Node19 -->
<g id="edge18_Node000016_Node000019" class="edge">
<title>Node16&#45;&gt;Node19</title>
<g id="a_edge18_Node000016_Node000019"><a xlink:title=" ">
<path fill="none" stroke="#63b8ff" d="M1360.16,-186.96C1423,-179.13 1541.42,-163.72 1641.75,-147 1648.87,-145.81 1656.33,-144.48 1663.71,-143.11"/>
<polygon fill="#63b8ff" stroke="#63b8ff" points="1664.25,-146.38 1673.43,-141.09 1662.95,-139.5 1664.25,-146.38"/>
</a>
</g>
</g>
<!-- Node20 -->
<g id="Node000020" class="node">
<title>Node20</title>
<g id="a_Node000020"><a xlink:title=" ">
<polygon fill="#e0e0e0" stroke="#999999" points="2026.88,-140.62 1888.62,-140.62 1888.62,-119.88 2026.88,-119.88 2026.88,-140.62"/>
<text text-anchor="middle" x="1957.75" y="-127.12" font-family="FreeSans" font-size="10.00">sundials/sundials_band.h</text>
</a>
</g>
</g>
<!-- Node16&#45;&gt;Node20 -->
<g id="edge19_Node000016_Node000020" class="edge">
<title>Node16&#45;&gt;Node20</title>
<g id="a_edge19_Node000016_Node000020"><a xlink:title=" ">
<path fill="none" stroke="#63b8ff" d="M1360.13,-190.38C1454.94,-185.77 1684.18,-172.74 1874.75,-147 1882.93,-145.9 1891.52,-144.52 1899.94,-143.04"/>
<polygon fill="#63b8ff" stroke="#63b8ff" points="1900.28,-146.35 1909.49,-141.12 1899.02,-139.46 1900.28,-146.35"/>
</a>
</g>
</g>
<!-- Node21 -->
<g id="Node000021" class="node">
<title>Node21</title>
<g id="a_Node000021"><a xlink:title=" ">
<polygon fill="#e0e0e0" stroke="#999999" points="404.38,-140.62 263.12,-140.62 263.12,-119.88 404.38,-119.88 404.38,-140.62"/>
<text text-anchor="middle" x="333.75" y="-127.12" font-family="FreeSans" font-size="10.00">sundials/sundials_types.h</text>
</a>
</g>
</g>
<!-- Node16&#45;&gt;Node21 -->
<g id="edge20_Node000016_Node000021" class="edge">
<title>Node16&#45;&gt;Node21</title>
<g id="a_edge20_Node000016_Node000021"><a xlink:title=" ">
<path fill="none" stroke="#63b8ff" d="M1271.44,-192.4C1140.06,-191.99 741.34,-187.27 413.75,-147 405.45,-145.98 396.72,-144.59 388.21,-143.06"/>
<polygon fill="#63b8ff" stroke="#63b8ff" points="389.05,-139.47 378.58,-141.06 387.76,-146.35 389.05,-139.47"/>
</a>
</g>
</g>
<!-- Node22 -->
<g id="Node000022" class="node">
<title>Node22</title>
<g id="a_Node000022"><a xlink:title=" ">
<polygon fill="#e0e0e0" stroke="#999999" points="509,-140.62 422.5,-140.62 422.5,-119.88 509,-119.88 509,-140.62"/>
<text text-anchor="middle" x="465.75" y="-127.12" font-family="FreeSans" font-size="10.00">cvode/cvode.h</text>
</a>
</g>
</g>
<!-- Node16&#45;&gt;Node22 -->
<g id="edge21_Node000016_Node000022" class="edge">
<title>Node16&#45;&gt;Node22</title>
<g id="a_edge21_Node000016_Node000022"><a xlink:title=" ">
<path fill="none" stroke="#63b8ff" d="M1271.44,-191.24C1126.04,-187.3 664.38,-172.99 517.75,-147 513.31,-146.21 508.71,-145.17 504.18,-144"/>
<polygon fill="#63b8ff" stroke="#63b8ff" points="505.37,-140.41 494.79,-141.07 503.47,-147.15 505.37,-140.41"/>
</a>
</g>
</g>
<!-- Node23 -->
<g id="Node000023" class="node">
<title>Node23</title>
<g id="a_Node000023"><a xlink:title=" ">
<polygon fill="#e0e0e0" stroke="#999999" points="656.75,-140.62 526.75,-140.62 526.75,-119.88 656.75,-119.88 656.75,-140.62"/>
<text text-anchor="middle" x="591.75" y="-127.12" font-family="FreeSans" font-size="10.00">cvodes/cvodes_direct.h</text>
</a>
</g>
</g>
<!-- Node16&#45;&gt;Node23 -->
<g id="edge23_Node000016_Node000023" class="edge">
<title>Node16&#45;&gt;Node23</title>
<g id="a_edge23_Node000016_Node000023"><a xlink:title=" ">
<path fill="none" stroke="#63b8ff" d="M1271.39,-191.42C1165.91,-188.67 892.03,-178.82 665.75,-147 658.58,-145.99 651.07,-144.69 643.7,-143.26"/>
<polygon fill="#63b8ff" stroke="#63b8ff" points="644.55,-139.66 634.05,-141.11 643.16,-146.52 644.55,-139.66"/>
</a>
</g>
</g>
<!-- Node24 -->
<g id="Node000024" class="node">
<title>Node24</title>
<g id="a_Node000024"><a xlink:title=" ">
<polygon fill="#e0e0e0" stroke="#999999" points="799.12,-140.62 674.38,-140.62 674.38,-119.88 799.12,-119.88 799.12,-140.62"/>
<text text-anchor="middle" x="736.75" y="-127.12" font-family="FreeSans" font-size="10.00">cvodes/cvodes_spils.h</text>
</a>
</g>
</g>
<!-- Node16&#45;&gt;Node24 -->
<g id="edge24_Node000016_Node000024" class="edge">
<title>Node16&#45;&gt;Node24</title>
<g id="a_edge24_Node000016_Node000024"><a xlink:title=" ">
<path fill="none" stroke="#63b8ff" d="M1271.35,-190.34C1182.76,-185.86 977.94,-173.36 807.75,-147 801.12,-145.97 794.18,-144.69 787.35,-143.31"/>
<polygon fill="#63b8ff" stroke="#63b8ff" points="788.26,-139.72 777.76,-141.07 786.82,-146.56 788.26,-139.72"/>
</a>
</g>
</g>
<!-- Node25 -->
<g id="Node000025" class="node">
<title>Node25</title>
<g id="a_Node000025"><a xlink:title=" ">
<polygon fill="#e0e0e0" stroke="#999999" points="922.75,-147 816.75,-147 816.75,-113.5 922.75,-113.5 922.75,-147"/>
<text text-anchor="start" x="824.75" y="-133.5" font-family="FreeSans" font-size="10.00">sunlinsol/sunlinsol</text>
<text text-anchor="middle" x="869.75" y="-120.75" font-family="FreeSans" font-size="10.00">_dense.h</text>
</a>
</g>
</g>
<!-- Node16&#45;&gt;Node25 -->
<g id="edge25_Node000016_Node000025" class="edge">
<title>Node16&#45;&gt;Node25</title>
<g id="a_edge25_Node000016_Node000025"><a xlink:title=" ">
<path fill="none" stroke="#63b8ff" d="M1271.41,-189.04C1201.59,-183.37 1061.62,-170.33 933.83,-147.24"/>
<polygon fill="#63b8ff" stroke="#63b8ff" points="934.55,-143.63 924.09,-145.27 933.29,-150.52 934.55,-143.63"/>
</a>
</g>
</g>
<!-- Node26 -->
<g id="Node000026" class="node">
<title>Node26</title>
<g id="a_Node000026"><a xlink:title=" ">
<polygon fill="#e0e0e0" stroke="#999999" points="1046.75,-147 940.75,-147 940.75,-113.5 1046.75,-113.5 1046.75,-147"/>
<text text-anchor="start" x="948.75" y="-133.5" font-family="FreeSans" font-size="10.00">sunlinsol/sunlinsol</text>
<text text-anchor="middle" x="993.75" y="-120.75" font-family="FreeSans" font-size="10.00">_band.h</text>
</a>
</g>
</g>
<!-- Node16&#45;&gt;Node26 -->
<g id="edge26_Node000016_Node000026" class="edge">
<title>Node16&#45;&gt;Node26</title>
<g id="a_edge26_Node000016_Node000026"><a xlink:title=" ">
<path fill="none" stroke="#63b8ff" d="M1271.39,-185.69C1221.6,-177.94 1138.22,-164.28 1057.47,-147.28"/>
<polygon fill="#63b8ff" stroke="#63b8ff" points="1058.63,-143.74 1048.12,-145.08 1057.18,-150.59 1058.63,-143.74"/>
</a>
</g>
</g>
<!-- Node27 -->
<g id="Node000027" class="node">
<title>Node27</title>
<g id="a_Node000027"><a xlink:title=" ">
<polygon fill="#e0e0e0" stroke="#999999" points="1170.75,-147 1064.75,-147 1064.75,-113.5 1170.75,-113.5 1170.75,-147"/>
<text text-anchor="start" x="1072.75" y="-133.5" font-family="FreeSans" font-size="10.00">sunlinsol/sunlinsol</text>
<text text-anchor="middle" x="1117.75" y="-120.75" font-family="FreeSans" font-size="10.00">_spgmr.h</text>
</a>
</g>
</g>
<!-- Node16&#45;&gt;Node27 -->
<g id="edge27_Node000016_Node000027" class="edge">
<title>Node16&#45;&gt;Node27</title>
<g id="a_edge27_Node000016_Node000027"><a xlink:title=" ">
<path fill="none" stroke="#63b8ff" d="M1283.94,-182.55C1256.2,-173.99 1215.14,-161.31 1180.77,-150.7"/>
<polygon fill="#63b8ff" stroke="#63b8ff" points="1181.93,-147.09 1171.34,-147.48 1179.86,-153.78 1181.93,-147.09"/>
</a>
</g>
</g>
<!-- Node28 -->
<g id="Node000028" class="node">
<title>Node28</title>
<g id="a_Node000028"><a xlink:title=" ">
<polygon fill="#e0e0e0" stroke="#999999" points="1306.75,-147 1188.75,-147 1188.75,-113.5 1306.75,-113.5 1306.75,-147"/>
<text text-anchor="start" x="1196.75" y="-133.5" font-family="FreeSans" font-size="10.00">sunmatrix/sunmatrix</text>
<text text-anchor="middle" x="1247.75" y="-120.75" font-family="FreeSans" font-size="10.00">_dense.h</text>
</a>
</g>
</g>
<!-- Node16&#45;&gt;Node28 -->
<g id="edge28_Node000016_Node000028" class="edge">
<title>Node16&#45;&gt;Node28</title>
<g id="a_edge28_Node000016_Node000028"><a xlink:title=" ">
<path fill="none" stroke="#63b8ff" d="M1304.82,-182.55C1296.45,-175.02 1284.53,-164.31 1273.75,-154.63"/>
<polygon fill="#63b8ff" stroke="#63b8ff" points="1276.59,-152.57 1266.81,-148.48 1271.91,-157.77 1276.59,-152.57"/>
</a>
</g>
</g>
<!-- Node29 -->
<g id="Node000029" class="node">
<title>Node29</title>
<g id="a_Node000029"><a xlink:title=" ">
<polygon fill="#e0e0e0" stroke="#999999" points="1442.75,-147 1324.75,-147 1324.75,-113.5 1442.75,-113.5 1442.75,-147"/>
<text text-anchor="start" x="1332.75" y="-133.5" font-family="FreeSans" font-size="10.00">sunmatrix/sunmatrix</text>
<text text-anchor="middle" x="1383.75" y="-120.75" font-family="FreeSans" font-size="10.00">_band.h</text>
</a>
</g>
</g>
<!-- Node16&#45;&gt;Node29 -->
<g id="edge29_Node000016_Node000029" class="edge">
<title>Node16&#45;&gt;Node29</title>
<g id="a_edge29_Node000016_Node000029"><a xlink:title=" ">
<path fill="none" stroke="#63b8ff" d="M1326.68,-182.55C1335.05,-175.02 1346.97,-164.31 1357.75,-154.63"/>
<polygon fill="#63b8ff" stroke="#63b8ff" points="1359.59,-157.77 1364.69,-148.48 1354.91,-152.57 1359.59,-157.77"/>
</a>
</g>
</g>
<!-- Node30 -->
<g id="Node000030" class="node">
<title>Node30</title>
<g id="a_Node000030"><a xlink:title=" ">
<polygon fill="#e0e0e0" stroke="#999999" points="2092.5,-140.62 2045,-140.62 2045,-119.88 2092.5,-119.88 2092.5,-140.62"/>
<text text-anchor="middle" x="2068.75" y="-127.12" font-family="FreeSans" font-size="10.00">time.h</text>
</a>
</g>
</g>
<!-- Node16&#45;&gt;Node30 -->
<g id="edge32_Node000016_Node000030" class="edge">
<title>Node16&#45;&gt;Node30</title>
<g id="a_edge32_Node000016_Node000030"><a xlink:title=" ">
<path fill="none" stroke="#63b8ff" d="M1359.89,-191.79C1495.88,-189.63 1906.95,-180.45 2035.75,-147 2037.73,-146.49 2039.74,-145.85 2041.73,-145.13"/>
<polygon fill="#63b8ff" stroke="#63b8ff" points="2042.56,-148.16 2050.41,-141.05 2039.84,-141.71 2042.56,-148.16"/>
</a>
</g>
</g>
<!-- Node31&#45;&gt;Node3 -->
<g id="edge34_Node000031_Node000003" class="edge">
<title>Node31&#45;&gt;Node3</title>
<g id="a_edge34_Node000031_Node000003"><a xlink:title=" ">
<path fill="none" stroke="#63b8ff" d="M320.38,-182.55C298.66,-172.57 264.79,-157 240.05,-145.63"/>
<polygon fill="#63b8ff" stroke="#63b8ff" points="241.61,-142.04 231.07,-141.05 238.69,-148.4 241.61,-142.04"/>
</a>
</g>
</g>
<!-- Node32&#45;&gt;Node3 -->
<g id="edge36_Node000032_Node000003" class="edge">
<title>Node32&#45;&gt;Node3</title>
<g id="a_edge36_Node000032_Node000003"><a xlink:title=" ">
<path fill="none" stroke="#63b8ff" d="M139.92,-182.55C152.6,-173.11 171.98,-158.66 186.96,-147.5"/>
<polygon fill="#63b8ff" stroke="#63b8ff" points="188.68,-149.83 194.61,-141.05 184.5,-144.22 188.68,-149.83"/>
</a>
</g>
</g>
<!-- Node32&#45;&gt;Node9 -->
<g id="edge37_Node000032_Node000009" class="edge">
<title>Node32&#45;&gt;Node9</title>
<g id="a_edge37_Node000032_Node000009"><a xlink:title=" ">
<path fill="none" stroke="#63b8ff" d="M112.59,-182.57C101.95,-174.38 88.01,-161.68 80.75,-147 71.69,-128.68 69.77,-105.17 69.75,-88.6"/>
<polygon fill="#63b8ff" stroke="#63b8ff" points="73.27,-89.01 70.01,-78.93 66.27,-88.84 73.27,-89.01"/>
</a>
</g>
</g>
<!-- Node33&#45;&gt;Node3 -->
<g id="edge40_Node000033_Node000003" class="edge">
<title>Node33&#45;&gt;Node3</title>
<g id="a_edge40_Node000033_Node000003"><a xlink:title=" ">
<path fill="none" stroke="#63b8ff" d="M208.75,-182.55C208.75,-174.22 208.75,-161.98 208.75,-151.55"/>
<polygon fill="#63b8ff" stroke="#63b8ff" points="212.25,-151.84 208.75,-141.84 205.25,-151.84 212.25,-151.84"/>
</a>
</g>
</g>
<!-- Node34 -->
<g id="Node000034" class="node">
<title>Node34</title>
<g id="a_Node000034"><a xlink:title=" ">
<polygon fill="#e0e0e0" stroke="#999999" points="153.75,-140.62 89.75,-140.62 89.75,-119.88 153.75,-119.88 153.75,-140.62"/>
<text text-anchor="middle" x="121.75" y="-127.12" font-family="FreeSans" font-size="10.00">stdexcept</text>
</a>
</g>
</g>
<!-- Node33&#45;&gt;Node34 -->
<g id="edge39_Node000033_Node000034" class="edge">
<title>Node33&#45;&gt;Node34</title>
<g id="a_edge39_Node000033_Node000034"><a xlink:title=" ">
<path fill="none" stroke="#63b8ff" d="M194.77,-182.55C181.2,-173.02 160.37,-158.38 144.43,-147.18"/>
<polygon fill="#63b8ff" stroke="#63b8ff" points="146.89,-143.93 136.69,-141.05 142.86,-149.66 146.89,-143.93"/>
</a>
</g>
</g>
<!-- Node35&#45;&gt;Node3 -->
<g id="edge42_Node000035_Node000003" class="edge">
<title>Node35&#45;&gt;Node3</title>
<g id="a_edge42_Node000035_Node000003"><a xlink:title=" ">
<path fill="none" stroke="#63b8ff" d="M66.06,-182.55C94.57,-172.31 139.45,-156.17 171.26,-144.73"/>
<polygon fill="#63b8ff" stroke="#63b8ff" points="172.28,-147.72 180.5,-141.05 169.91,-141.14 172.28,-147.72"/>
</a>
</g>
</g>
<!-- Node35&#45;&gt;Node8 -->
<g id="edge43_Node000035_Node000008" class="edge">
<title>Node35&#45;&gt;Node8</title>
<g id="a_edge43_Node000035_Node000008"><a xlink:title=" ">
<path fill="none" stroke="#63b8ff" d="M36.09,-182.65C30.26,-159.13 18.65,-98.05 42.75,-56.75 52.12,-40.68 69.64,-29.61 85.39,-22.43"/>
<polygon fill="#63b8ff" stroke="#63b8ff" points="86.5,-25.35 94.38,-18.26 83.81,-18.89 86.5,-25.35"/>
</a>
</g>
</g>
<!-- Node36&#45;&gt;Node30 -->
<g id="edge49_Node000036_Node000030" class="edge">
<title>Node36&#45;&gt;Node30</title>
<g id="a_edge49_Node000036_Node000030"><a xlink:title=" ">
<path fill="none" stroke="#63b8ff" d="M2052.95,-239.66C2048.29,-226.78 2041.5,-203.04 2045.75,-183 2048.15,-171.68 2053.21,-159.83 2057.97,-150.33"/>
<polygon fill="#63b8ff" stroke="#63b8ff" points="2061.45,-152.23 2063.06,-141.76 2055.27,-148.94 2061.45,-152.23"/>
</a>
</g>
</g>
<!-- Node37 -->
<g id="Node000037" class="node">
<title>Node37</title>
<g id="a_Node000037"><a xlink:href="tbb__tools_8h.html" target="_top" xlink:title=" ">
<polygon fill="white" stroke="#666666" points="2209.75,-203.75 2139.75,-203.75 2139.75,-183 2209.75,-183 2209.75,-203.75"/>
<text text-anchor="middle" x="2174.75" y="-190.25" font-family="FreeSans" font-size="10.00">tbb_tools.h</text>
</a>
</g>
</g>
<!-- Node36&#45;&gt;Node37 -->
<g id="edge45_Node000036_Node000037" class="edge">
<title>Node36&#45;&gt;Node37</title>
<g id="a_edge45_Node000036_Node000037"><a xlink:title=" ">
<path fill="none" stroke="#63b8ff" d="M2077.85,-239.34C2096.22,-230.81 2123.1,-218.34 2143.89,-208.69"/>
<polygon fill="#63b8ff" stroke="#63b8ff" points="2145.24,-211.46 2152.84,-204.08 2142.29,-205.11 2145.24,-211.46"/>
</a>
</g>
</g>
<!-- Node44 -->
<g id="Node000044" class="node">
<title>Node44</title>
<g id="a_Node000044"><a xlink:title=" ">
<polygon fill="#e0e0e0" stroke="#999999" points="2121.25,-203.75 2054.25,-203.75 2054.25,-183 2121.25,-183 2121.25,-203.75"/>
<text text-anchor="middle" x="2087.75" y="-190.25" font-family="FreeSans" font-size="10.00">sys/time.h</text>
</a>
</g>
</g>
<!-- Node36&#45;&gt;Node44 -->
<g id="edge48_Node000036_Node000044" class="edge">
<title>Node36&#45;&gt;Node44</title>
<g id="a_edge48_Node000036_Node000044"><a xlink:title=" ">
<path fill="none" stroke="#63b8ff" d="M2062.29,-239.34C2066.35,-232.17 2071.98,-222.23 2076.92,-213.51"/>
<polygon fill="#63b8ff" stroke="#63b8ff" points="2080.37,-215.5 2082.26,-205.08 2074.28,-212.06 2080.37,-215.5"/>
</a>
</g>
</g>
<!-- Node37&#45;&gt;Node17 -->
<g id="edge46_Node000037_Node000017" class="edge">
<title>Node37&#45;&gt;Node17</title>
<g id="a_edge46_Node000037_Node000017"><a xlink:title=" ">
<path fill="none" stroke="#63b8ff" d="M2168.81,-182.55C2163.54,-173.86 2155.71,-160.92 2149.23,-150.22"/>
<polygon fill="#63b8ff" stroke="#63b8ff" points="2151.73,-148.59 2143.56,-141.84 2145.74,-152.21 2151.73,-148.59"/>
</a>
</g>
</g>
<!-- Node38 -->
<g id="Node000038" class="node">
<title>Node38</title>
<g id="a_Node000038"><a xlink:href="tbb__real_8h.html" target="_top" xlink:title=" ">
<polygon fill="#fff0f0" stroke="red" points="2248.12,-140.62 2183.38,-140.62 2183.38,-119.88 2248.12,-119.88 2248.12,-140.62"/>
<text text-anchor="middle" x="2215.75" y="-127.12" font-family="FreeSans" font-size="10.00">tbb_real.h</text>
</a>
</g>
</g>
<!-- Node37&#45;&gt;Node38 -->
<g id="edge47_Node000037_Node000038" class="edge">
<title>Node37&#45;&gt;Node38</title>
<g id="a_edge47_Node000037_Node000038"><a xlink:title=" ">
<path fill="none" stroke="#63b8ff" d="M2181.34,-182.55C2187.23,-173.77 2196.03,-160.66 2203.25,-149.89"/>
<polygon fill="#63b8ff" stroke="#63b8ff" points="2206.65,-152.1 2209.31,-141.84 2200.84,-148.2 2206.65,-152.1"/>
</a>
</g>
</g>
<!-- Node45&#45;&gt;Node3 -->
<g id="edge53_Node000045_Node000003" class="edge">
<title>Node45&#45;&gt;Node3</title>
<g id="a_edge53_Node000045_Node000003"><a xlink:title=" ">
<path fill="none" stroke="#63b8ff" d="M2672.54,-191.55C2586.27,-189.91 2386.57,-186.12 2218.75,-183 2000.42,-178.94 468.69,-185.56 253.75,-147 250.05,-146.34 246.25,-145.41 242.5,-144.34"/>
<polygon fill="#63b8ff" stroke="#63b8ff" points="243.78,-140.76 233.19,-141.03 241.64,-147.42 243.78,-140.76"/>
</a>
</g>
</g>
<!-- Node45&#45;&gt;Node17 -->
<g id="edge52_Node000045_Node000017" class="edge">
<title>Node45&#45;&gt;Node17</title>
<g id="a_edge52_Node000045_Node000017"><a xlink:title=" ">
<path fill="none" stroke="#63b8ff" d="M2672.68,-190.53C2561.87,-185.51 2268.98,-170.36 2174.75,-147 2172.44,-146.43 2170.08,-145.73 2167.74,-144.94"/>
<polygon fill="#63b8ff" stroke="#63b8ff" points="2169.3,-141.41 2158.7,-141.11 2166.8,-147.95 2169.3,-141.41"/>
</a>
</g>
</g>
<!-- Node46 -->
<g id="Node000046" class="node">
<title>Node46</title>
<g id="a_Node000046"><a xlink:title=" ">
<polygon fill="#e0e0e0" stroke="#999999" points="3298.25,-140.62 3123.25,-140.62 3123.25,-119.88 3298.25,-119.88 3298.25,-140.62"/>
<text text-anchor="middle" x="3210.75" y="-127.12" font-family="FreeSans" font-size="10.00">cantera/transport/MixTransport.h</text>
</a>
</g>
</g>
<!-- Node45&#45;&gt;Node46 -->
<g id="edge54_Node000045_Node000046" class="edge">
<title>Node45&#45;&gt;Node46</title>
<g id="a_edge54_Node000045_Node000046"><a xlink:title=" ">
<path fill="none" stroke="#63b8ff" d="M2759.12,-188.11C2832.35,-180.76 2985.1,-164.77 3113.75,-147 3122.96,-145.73 3132.64,-144.28 3142.18,-142.8"/>
<polygon fill="#63b8ff" stroke="#63b8ff" points="3142.53,-146.13 3151.86,-141.11 3141.43,-139.22 3142.53,-146.13"/>
</a>
</g>
</g>
<!-- Node47 -->
<g id="Node000047" class="node">
<title>Node47</title>
<g id="a_Node000047"><a xlink:title=" ">
<polygon fill="#e0e0e0" stroke="#999999" points="3497.62,-140.62 3315.88,-140.62 3315.88,-119.88 3497.62,-119.88 3497.62,-140.62"/>
<text text-anchor="middle" x="3406.75" y="-127.12" font-family="FreeSans" font-size="10.00">cantera/transport/MultiTransport.h</text>
</a>
</g>
</g>
<!-- Node45&#45;&gt;Node47 -->
<g id="edge55_Node000045_Node000047" class="edge">
<title>Node45&#45;&gt;Node47</title>
<g id="a_edge55_Node000045_Node000047"><a xlink:title=" ">
<path fill="none" stroke="#63b8ff" d="M2758.95,-190.27C2856.85,-185.24 3103,-171.09 3307.75,-147 3317.88,-145.81 3328.57,-144.34 3339.02,-142.77"/>
<polygon fill="#63b8ff" stroke="#63b8ff" points="3339.44,-146.1 3348.8,-141.12 3338.38,-139.18 3339.44,-146.1"/>
</a>
</g>
</g>
<!-- Node48 -->
<g id="Node000048" class="node">
<title>Node48</title>
<g id="a_Node000048"><a xlink:title=" ">
<polygon fill="#e0e0e0" stroke="#999999" points="3672.25,-147 3515.25,-147 3515.25,-113.5 3672.25,-113.5 3672.25,-147"/>
<text text-anchor="start" x="3523.25" y="-133.5" font-family="FreeSans" font-size="10.00">cantera/transport/UnityLewis</text>
<text text-anchor="middle" x="3593.75" y="-120.75" font-family="FreeSans" font-size="10.00">Transport.h</text>
</a>
</g>
</g>
<!-- Node45&#45;&gt;Node48 -->
<g id="edge56_Node000045_Node000048" class="edge">
<title>Node45&#45;&gt;Node48</title>
<g id="a_edge56_Node000045_Node000048"><a xlink:title=" ">
<path fill="none" stroke="#63b8ff" d="M2758.78,-191.75C2876.57,-189.63 3214.26,-180.95 3504.36,-147.2"/>
<polygon fill="#63b8ff" stroke="#63b8ff" points="3504.57,-150.58 3514.09,-145.93 3503.75,-143.63 3504.57,-150.58"/>
</a>
</g>
</g>
<!-- Node49 -->
<g id="Node000049" class="node">
<title>Node49</title>
<g id="a_Node000049"><a xlink:title=" ">
<polygon fill="#e0e0e0" stroke="#999999" points="2470.12,-140.62 2303.38,-140.62 2303.38,-119.88 2470.12,-119.88 2470.12,-140.62"/>
<text text-anchor="middle" x="2386.75" y="-127.12" font-family="FreeSans" font-size="10.00">cantera/kinetics/BulkKinetics.h</text>
</a>
</g>
</g>
<!-- Node45&#45;&gt;Node49 -->
<g id="edge57_Node000045_Node000049" class="edge">
<title>Node45&#45;&gt;Node49</title>
<g id="a_edge57_Node000045_Node000049"><a xlink:title=" ">
<path fill="none" stroke="#63b8ff" d="M2672.4,-184.32C2615.62,-173.77 2515.64,-155.2 2450.3,-143.06"/>
<polygon fill="#63b8ff" stroke="#63b8ff" points="2451.2,-139.48 2440.73,-141.09 2449.92,-146.36 2451.2,-139.48"/>
</a>
</g>
</g>
<!-- Node50 -->
<g id="Node000050" class="node">
<title>Node50</title>
<g id="a_Node000050"><a xlink:title=" ">
<polygon fill="#e0e0e0" stroke="#999999" points="2627.62,-147 2487.88,-147 2487.88,-113.5 2627.62,-113.5 2627.62,-147"/>
<text text-anchor="start" x="2495.88" y="-133.5" font-family="FreeSans" font-size="10.00">cantera/kinetics/Reaction</text>
<text text-anchor="middle" x="2557.75" y="-120.75" font-family="FreeSans" font-size="10.00">Rate.h</text>
</a>
</g>
</g>
<!-- Node45&#45;&gt;Node50 -->
<g id="edge58_Node000045_Node000050" class="edge">
<title>Node45&#45;&gt;Node50</title>
<g id="a_edge58_Node000045_Node000050"><a xlink:title=" ">
<path fill="none" stroke="#63b8ff" d="M2690.36,-182.55C2668.71,-174.18 2636.87,-161.86 2609.82,-151.39"/>
<polygon fill="#63b8ff" stroke="#63b8ff" points="2611.3,-147.83 2600.72,-147.48 2608.78,-154.36 2611.3,-147.83"/>
</a>
</g>
</g>
<!-- Node51 -->
<g id="Node000051" class="node">
<title>Node51</title>
<g id="a_Node000051"><a xlink:title=" ">
<polygon fill="#e0e0e0" stroke="#999999" points="2785.62,-147 2645.88,-147 2645.88,-113.5 2785.62,-113.5 2785.62,-147"/>
<text text-anchor="start" x="2653.88" y="-133.5" font-family="FreeSans" font-size="10.00">cantera/kinetics/Reaction</text>
<text text-anchor="middle" x="2715.75" y="-120.75" font-family="FreeSans" font-size="10.00">Data.h</text>
</a>
</g>
</g>
<!-- Node45&#45;&gt;Node51 -->
<g id="edge59_Node000045_Node000051" class="edge">
<title>Node45&#45;&gt;Node51</title>
<g id="a_edge59_Node000045_Node000051"><a xlink:title=" ">
<path fill="none" stroke="#63b8ff" d="M2715.75,-182.55C2715.75,-175.98 2715.75,-166.99 2715.75,-158.37"/>
<polygon fill="#63b8ff" stroke="#63b8ff" points="2719.25,-158.48 2715.75,-148.48 2712.25,-158.48 2719.25,-158.48"/>
</a>
</g>
</g>
<!-- Node52 -->
<g id="Node000052" class="node">
<title>Node52</title>
<g id="a_Node000052"><a xlink:title=" ">
<polygon fill="#e0e0e0" stroke="#999999" points="2956,-140.62 2803.5,-140.62 2803.5,-119.88 2956,-119.88 2956,-140.62"/>
<text text-anchor="middle" x="2879.75" y="-127.12" font-family="FreeSans" font-size="10.00">cantera/kinetics/Arrhenius.h</text>
</a>
</g>
</g>
<!-- Node45&#45;&gt;Node52 -->
<g id="edge60_Node000045_Node000052" class="edge">
<title>Node45&#45;&gt;Node52</title>
<g id="a_edge60_Node000045_Node000052"><a xlink:title=" ">
<path fill="none" stroke="#63b8ff" d="M2742.1,-182.55C2769.48,-172.35 2812.52,-156.31 2843.18,-144.88"/>
<polygon fill="#63b8ff" stroke="#63b8ff" points="2844.32,-147.82 2852.47,-141.05 2841.87,-141.26 2844.32,-147.82"/>
</a>
</g>
</g>
<!-- Node53 -->
<g id="Node000053" class="node">
<title>Node53</title>
<g id="a_Node000053"><a xlink:title=" ">
<polygon fill="#e0e0e0" stroke="#999999" points="3105.12,-140.62 2974.38,-140.62 2974.38,-119.88 3105.12,-119.88 3105.12,-140.62"/>
<text text-anchor="middle" x="3039.75" y="-127.12" font-family="FreeSans" font-size="10.00">cantera/base/Solution.h</text>
</a>
</g>
</g>
<!-- Node45&#45;&gt;Node53 -->
<g id="edge61_Node000045_Node000053" class="edge">
<title>Node45&#45;&gt;Node53</title>
<g id="a_edge61_Node000045_Node000053"><a xlink:title=" ">
<path fill="none" stroke="#63b8ff" d="M2759,-184.86C2808.72,-176.13 2892.74,-161.12 2964.75,-147 2970.77,-145.82 2977.06,-144.55 2983.32,-143.27"/>
<polygon fill="#63b8ff" stroke="#63b8ff" points="2983.7,-146.56 2992.78,-141.11 2982.28,-139.7 2983.7,-146.56"/>
</a>
</g>
</g>
<!-- Node54&#45;&gt;Node3 -->
<g id="edge63_Node000054_Node000003" class="edge">
<title>Node54&#45;&gt;Node3</title>
<g id="a_edge63_Node000054_Node000003"><a xlink:title=" ">
<path fill="none" stroke="#63b8ff" d="M274.75,-239.29C270.46,-225.99 261.87,-201.78 250.75,-183 243.53,-170.8 233.6,-158.43 225.21,-148.84"/>
<polygon fill="#63b8ff" stroke="#63b8ff" points="228.35,-146.99 219.06,-141.9 223.15,-151.68 228.35,-146.99"/>
</a>
</g>
</g>
</g>
</svg>
