<?xml version="1.0" encoding="UTF-8" standalone="no"?>
<!DOCTYPE svg PUBLIC "-//W3C//DTD SVG 1.1//EN"
 "http://www.w3.org/Graphics/SVG/1.1/DTD/svg11.dtd">
<!-- Generated by graphviz version 2.28.0 (20120425.2022)
 -->
<!-- Title: src/sourceSystem.cpp Pages: 1 -->
<svg width="2050pt" height="264pt"
 viewBox="0.00 0.00 2050.00 264.00" xmlns="http://www.w3.org/2000/svg" xmlns:xlink="http://www.w3.org/1999/xlink">
<g id="graph1" class="graph" transform="scale(1 1) rotate(0) translate(4 260)">
<title>src/sourceSystem.cpp</title>
<polygon fill="white" stroke="white" points="-4,5 -4,-260 2047,-260 2047,5 -4,5"/>
<!-- Node1 -->
<g id="node1" class="node"><title>Node1</title>
<polygon fill="#bfbfbf" stroke="black" points="461,-236.5 461,-255.5 577,-255.5 577,-236.5 461,-236.5"/>
<text text-anchor="middle" x="519" y="-243.5" font-family="FreeSans" font-size="10.00">src/sourceSystem.cpp</text>
</g>
<!-- Node2 -->
<g id="node3" class="node"><title>Node2</title>
<a xlink:href="sourceSystem_8h.html" target="_top" xlink:title="sourceSystem.h">
<polygon fill="white" stroke="black" points="297.5,-180.5 297.5,-199.5 386.5,-199.5 386.5,-180.5 297.5,-180.5"/>
<text text-anchor="middle" x="342" y="-187.5" font-family="FreeSans" font-size="10.00">sourceSystem.h</text>
</a>
</g>
<!-- Node1&#45;&gt;Node2 -->
<g id="edge2" class="edge"><title>Node1&#45;&gt;Node2</title>
<path fill="none" stroke="midnightblue" d="M490.954,-236.444C460.918,-227.28 413.087,-212.688 379.757,-202.519"/>
<polygon fill="midnightblue" stroke="midnightblue" points="380.501,-199.087 369.915,-199.516 378.458,-205.782 380.501,-199.087"/>
</g>
<!-- Node5 -->
<g id="node9" class="node"><title>Node5</title>
<a xlink:href="sundialsUtils_8h.html" target="_top" xlink:title="sundialsUtils.h">
<polygon fill="white" stroke="red" points="476,-118.5 476,-137.5 556,-137.5 556,-118.5 476,-118.5"/>
<text text-anchor="middle" x="516" y="-125.5" font-family="FreeSans" font-size="10.00">sundialsUtils.h</text>
</a>
</g>
<!-- Node1&#45;&gt;Node5 -->
<g id="edge40" class="edge"><title>Node1&#45;&gt;Node5</title>
<path fill="none" stroke="midnightblue" d="M518.775,-236.281C518.29,-217.547 517.14,-173.098 516.483,-147.682"/>
<polygon fill="midnightblue" stroke="midnightblue" points="519.977,-147.411 516.22,-137.505 512.98,-147.592 519.977,-147.411"/>
</g>
<!-- Node10 -->
<g id="node22" class="node"><title>Node10</title>
<a xlink:href="readConfig_8h.html" target="_top" xlink:title="readConfig.h">
<polygon fill="white" stroke="black" points="0,-118.5 0,-137.5 74,-137.5 74,-118.5 0,-118.5"/>
<text text-anchor="middle" x="37" y="-125.5" font-family="FreeSans" font-size="10.00">readConfig.h</text>
</a>
</g>
<!-- Node1&#45;&gt;Node10 -->
<g id="edge24" class="edge"><title>Node1&#45;&gt;Node10</title>
<path fill="none" stroke="midnightblue" d="M469.656,-236.484C422.732,-228.127 350.266,-214.548 288,-200 196.028,-178.511 173.48,-171.093 83,-144 79.5976,-142.981 76.0644,-141.89 72.5362,-140.777"/>
<polygon fill="midnightblue" stroke="midnightblue" points="73.3108,-137.35 62.7196,-137.631 71.1738,-144.016 73.3108,-137.35"/>
</g>
<!-- Node11 -->
<g id="node26" class="node"><title>Node11</title>
<a xlink:href="perfTimer_8h.html" target="_top" xlink:title="perfTimer.h">
<polygon fill="white" stroke="black" points="1707,-180.5 1707,-199.5 1775,-199.5 1775,-180.5 1707,-180.5"/>
<text text-anchor="middle" x="1741" y="-187.5" font-family="FreeSans" font-size="10.00">perfTimer.h</text>
</a>
</g>
<!-- Node1&#45;&gt;Node11 -->
<g id="edge30" class="edge"><title>Node1&#45;&gt;Node11</title>
<path fill="none" stroke="midnightblue" d="M577.118,-242.432C787.996,-233.113 1510.24,-201.197 1696.76,-192.955"/>
<polygon fill="midnightblue" stroke="midnightblue" points="1696.92,-196.451 1706.76,-192.513 1696.61,-189.458 1696.92,-196.451"/>
</g>
<!-- Node15 -->
<g id="node36" class="node"><title>Node15</title>
<a xlink:href="chemistry0d_8h.html" target="_top" xlink:title="chemistry0d.h">
<polygon fill="white" stroke="black" points="1099,-180.5 1099,-199.5 1177,-199.5 1177,-180.5 1099,-180.5"/>
<text text-anchor="middle" x="1138" y="-187.5" font-family="FreeSans" font-size="10.00">chemistry0d.h</text>
</a>
</g>
<!-- Node1&#45;&gt;Node15 -->
<g id="edge42" class="edge"><title>Node1&#45;&gt;Node15</title>
<path fill="none" stroke="midnightblue" d="M577.234,-239.92C698.351,-229.354 975.517,-205.175 1088.59,-195.31"/>
<polygon fill="midnightblue" stroke="midnightblue" points="1089.04,-198.785 1098.69,-194.429 1088.43,-191.811 1089.04,-198.785"/>
</g>
<!-- Node24 -->
<g id="node55" class="node"><title>Node24</title>
<a xlink:href="strainFunction_8h.html" target="_top" xlink:title="strainFunction.h">
<polygon fill="white" stroke="black" points="405.5,-180.5 405.5,-199.5 490.5,-199.5 490.5,-180.5 405.5,-180.5"/>
<text text-anchor="middle" x="448" y="-187.5" font-family="FreeSans" font-size="10.00">strainFunction.h</text>
</a>
</g>
<!-- Node1&#45;&gt;Node24 -->
<g id="edge62" class="edge"><title>Node1&#45;&gt;Node24</title>
<path fill="none" stroke="midnightblue" d="M507.593,-236.324C496.891,-228.185 480.659,-215.839 467.837,-206.087"/>
<polygon fill="midnightblue" stroke="midnightblue" points="469.693,-203.102 459.615,-199.834 465.456,-208.673 469.693,-203.102"/>
</g>
<!-- Node25 -->
<g id="node58" class="node"><title>Node25</title>
<polygon fill="white" stroke="#bfbfbf" points="1793,-180.5 1793,-199.5 1883,-199.5 1883,-180.5 1793,-180.5"/>
<text text-anchor="middle" x="1838" y="-187.5" font-family="FreeSans" font-size="10.00">boost/format.hpp</text>
</g>
<!-- Node1&#45;&gt;Node25 -->
<g id="edge66" class="edge"><title>Node1&#45;&gt;Node25</title>
<path fill="none" stroke="midnightblue" d="M577.182,-245.605C755.858,-246.896 1312.5,-246.678 1782.93,-199.959"/>
<polygon fill="midnightblue" stroke="midnightblue" points="1783.38,-203.431 1792.98,-198.952 1782.68,-196.466 1783.38,-203.431"/>
</g>
<!-- Node3 -->
<g id="node5" class="node"><title>Node3</title>
<a xlink:href="mathUtils_8h.html" target="_top" xlink:title="mathUtils.h">
<polygon fill="white" stroke="red" points="307.5,-56.5 307.5,-75.5 372.5,-75.5 372.5,-56.5 307.5,-56.5"/>
<text text-anchor="middle" x="340" y="-63.5" font-family="FreeSans" font-size="10.00">mathUtils.h</text>
</a>
</g>
<!-- Node2&#45;&gt;Node3 -->
<g id="edge4" class="edge"><title>Node2&#45;&gt;Node3</title>
<path fill="none" stroke="midnightblue" d="M356.37,-180.33C367.88,-172.469 383.189,-159.722 390,-144 395.654,-130.95 395.786,-124.992 390,-112 384.432,-99.4981 373.484,-89.0124 363.249,-81.3167"/>
<polygon fill="midnightblue" stroke="midnightblue" points="365.156,-78.3794 354.952,-75.5256 361.149,-84.1193 365.156,-78.3794"/>
</g>
<!-- Node2&#45;&gt;Node5 -->
<g id="edge8" class="edge"><title>Node2&#45;&gt;Node5</title>
<path fill="none" stroke="midnightblue" d="M366.93,-180.403C397.036,-170.022 447.832,-152.506 481.638,-140.849"/>
<polygon fill="midnightblue" stroke="midnightblue" points="482.804,-144.149 491.116,-137.581 480.522,-137.532 482.804,-144.149"/>
</g>
<!-- Node7 -->
<g id="node13" class="node"><title>Node7</title>
<a xlink:href="qssintegrator_8h.html" target="_top" xlink:title="qssintegrator.h">
<polygon fill="white" stroke="black" points="298.5,-118.5 298.5,-137.5 381.5,-137.5 381.5,-118.5 298.5,-118.5"/>
<text text-anchor="middle" x="340" y="-125.5" font-family="FreeSans" font-size="10.00">qssintegrator.h</text>
</a>
</g>
<!-- Node2&#45;&gt;Node7 -->
<g id="edge12" class="edge"><title>Node2&#45;&gt;Node7</title>
<path fill="none" stroke="midnightblue" d="M341.713,-180.403C341.431,-171.938 340.991,-158.728 340.627,-147.82"/>
<polygon fill="midnightblue" stroke="midnightblue" points="344.117,-147.458 340.286,-137.581 337.121,-147.692 344.117,-147.458"/>
</g>
<!-- Node8 -->
<g id="node16" class="node"><title>Node8</title>
<a xlink:href="quasi2d_8h.html" target="_top" xlink:title="quasi2d.h">
<polygon fill="white" stroke="red" points="92,-118.5 92,-137.5 152,-137.5 152,-118.5 92,-118.5"/>
<text text-anchor="middle" x="122" y="-125.5" font-family="FreeSans" font-size="10.00">quasi2d.h</text>
</a>
</g>
<!-- Node2&#45;&gt;Node8 -->
<g id="edge16" class="edge"><title>Node2&#45;&gt;Node8</title>
<path fill="none" stroke="midnightblue" d="M301.704,-180.482C264.76,-172.319 208.712,-159.043 161,-144 158.211,-143.121 155.333,-142.146 152.464,-141.129"/>
<polygon fill="midnightblue" stroke="midnightblue" points="153.475,-137.771 142.882,-137.577 151.042,-144.334 153.475,-137.771"/>
</g>
<!-- Node9 -->
<g id="node20" class="node"><title>Node9</title>
<polygon fill="white" stroke="#bfbfbf" points="170,-118.5 170,-137.5 280,-137.5 280,-118.5 170,-118.5"/>
<text text-anchor="middle" x="225" y="-125.5" font-family="FreeSans" font-size="10.00">boost/shared_ptr.hpp</text>
</g>
<!-- Node2&#45;&gt;Node9 -->
<g id="edge22" class="edge"><title>Node2&#45;&gt;Node9</title>
<path fill="none" stroke="midnightblue" d="M325.237,-180.403C305.775,-170.423 273.455,-153.849 250.789,-142.225"/>
<polygon fill="midnightblue" stroke="midnightblue" points="252.227,-139.029 241.732,-137.581 249.033,-145.258 252.227,-139.029"/>
</g>
<!-- Node4 -->
<g id="node7" class="node"><title>Node4</title>
<polygon fill="white" stroke="#bfbfbf" points="101.5,-0.5 101.5,-19.5 142.5,-19.5 142.5,-0.5 101.5,-0.5"/>
<text text-anchor="middle" x="122" y="-7.5" font-family="FreeSans" font-size="10.00">string</text>
</g>
<!-- Node3&#45;&gt;Node4 -->
<g id="edge6" class="edge"><title>Node3&#45;&gt;Node4</title>
<path fill="none" stroke="midnightblue" d="M307.363,-56.9157C265.514,-46.5493 193.484,-28.707 152.628,-18.5867"/>
<polygon fill="midnightblue" stroke="midnightblue" points="153.256,-15.1366 142.708,-16.1294 151.573,-21.9312 153.256,-15.1366"/>
</g>
<!-- Node6 -->
<g id="node11" class="node"><title>Node6</title>
<polygon fill="white" stroke="#bfbfbf" points="1088.5,-56.5 1088.5,-75.5 1131.5,-75.5 1131.5,-56.5 1088.5,-56.5"/>
<text text-anchor="middle" x="1110" y="-63.5" font-family="FreeSans" font-size="10.00">time.h</text>
</g>
<!-- Node5&#45;&gt;Node6 -->
<g id="edge10" class="edge"><title>Node5&#45;&gt;Node6</title>
<path fill="none" stroke="midnightblue" d="M540.166,-118.477C547.999,-116.018 556.787,-113.577 565,-112 757.487,-75.0361 993.958,-68.425 1078.29,-67.2506"/>
<polygon fill="midnightblue" stroke="midnightblue" points="1078.52,-70.748 1088.48,-67.1254 1078.44,-63.7485 1078.52,-70.748"/>
</g>
<!-- Node7&#45;&gt;Node3 -->
<g id="edge14" class="edge"><title>Node7&#45;&gt;Node3</title>
<path fill="none" stroke="midnightblue" d="M340,-118.403C340,-109.938 340,-96.7283 340,-85.8199"/>
<polygon fill="midnightblue" stroke="midnightblue" points="343.5,-85.5806 340,-75.5806 336.5,-85.5806 343.5,-85.5806"/>
</g>
<!-- Node8&#45;&gt;Node3 -->
<g id="edge18" class="edge"><title>Node8&#45;&gt;Node3</title>
<path fill="none" stroke="midnightblue" d="M142.885,-118.433C148.7,-116.195 155.052,-113.884 161,-112 207.072,-97.4076 260.987,-84.3902 297.513,-76.1569"/>
<polygon fill="midnightblue" stroke="midnightblue" points="298.336,-79.5594 307.333,-73.9642 296.81,-72.7276 298.336,-79.5594"/>
</g>
<!-- Node8&#45;&gt;Node4 -->
<g id="edge20" class="edge"><title>Node8&#45;&gt;Node4</title>
<path fill="none" stroke="midnightblue" d="M122,-118.281C122,-99.5475 122,-55.098 122,-29.6822"/>
<polygon fill="midnightblue" stroke="midnightblue" points="125.5,-29.5047 122,-19.5048 118.5,-29.5048 125.5,-29.5047"/>
</g>
<!-- Node10&#45;&gt;Node3 -->
<g id="edge26" class="edge"><title>Node10&#45;&gt;Node3</title>
<path fill="none" stroke="midnightblue" d="M61.1634,-118.409C68.1505,-116.119 75.8275,-113.788 83,-112 157.426,-93.449 245.837,-79.7506 297.169,-72.6019"/>
<polygon fill="midnightblue" stroke="midnightblue" points="297.804,-76.0477 307.234,-71.2182 296.85,-69.1129 297.804,-76.0477"/>
</g>
<!-- Node10&#45;&gt;Node4 -->
<g id="edge28" class="edge"><title>Node10&#45;&gt;Node4</title>
<path fill="none" stroke="midnightblue" d="M43.3888,-118.281C57.4871,-99.0412 91.4611,-52.6766 109.789,-27.6641"/>
<polygon fill="midnightblue" stroke="midnightblue" points="112.681,-29.6398 115.768,-19.5048 107.034,-25.5023 112.681,-29.6398"/>
</g>
<!-- Node11&#45;&gt;Node6 -->
<g id="edge38" class="edge"><title>Node11&#45;&gt;Node6</title>
<path fill="none" stroke="midnightblue" d="M1737.66,-180.393C1730.72,-163.803 1712.99,-127.656 1685,-112 1637.49,-85.4199 1255.71,-71.524 1141.9,-67.9443"/>
<polygon fill="midnightblue" stroke="midnightblue" points="1141.85,-64.4411 1131.75,-67.63 1141.63,-71.4378 1141.85,-64.4411"/>
</g>
<!-- Node12 -->
<g id="node28" class="node"><title>Node12</title>
<polygon fill="white" stroke="#bfbfbf" points="1732,-118.5 1732,-137.5 1824,-137.5 1824,-118.5 1732,-118.5"/>
<text text-anchor="middle" x="1778" y="-125.5" font-family="FreeSans" font-size="10.00">tbb/combinable.h</text>
</g>
<!-- Node11&#45;&gt;Node12 -->
<g id="edge32" class="edge"><title>Node11&#45;&gt;Node12</title>
<path fill="none" stroke="midnightblue" d="M1746.3,-180.403C1751.8,-171.493 1760.53,-157.325 1767.44,-146.118"/>
<polygon fill="midnightblue" stroke="midnightblue" points="1770.44,-147.929 1772.71,-137.581 1764.48,-144.255 1770.44,-147.929"/>
</g>
<!-- Node13 -->
<g id="node30" class="node"><title>Node13</title>
<polygon fill="white" stroke="#bfbfbf" points="1842.5,-113 1842.5,-143 1961.5,-143 1961.5,-113 1842.5,-113"/>
<text text-anchor="start" x="1850.5" y="-131" font-family="FreeSans" font-size="10.00">tbb/enumerable_thread</text>
<text text-anchor="middle" x="1902" y="-120" font-family="FreeSans" font-size="10.00">_specific.h</text>
</g>
<!-- Node11&#45;&gt;Node13 -->
<g id="edge34" class="edge"><title>Node11&#45;&gt;Node13</title>
<path fill="none" stroke="midnightblue" d="M1764.07,-180.403C1787.68,-171.603 1825.06,-157.674 1854.95,-146.534"/>
<polygon fill="midnightblue" stroke="midnightblue" points="1856.22,-149.797 1864.37,-143.025 1853.77,-143.238 1856.22,-149.797"/>
</g>
<!-- Node14 -->
<g id="node32" class="node"><title>Node14</title>
<polygon fill="white" stroke="#bfbfbf" points="1980,-118.5 1980,-137.5 2042,-137.5 2042,-118.5 1980,-118.5"/>
<text text-anchor="middle" x="2011" y="-125.5" font-family="FreeSans" font-size="10.00">sys/time.h</text>
</g>
<!-- Node11&#45;&gt;Node14 -->
<g id="edge36" class="edge"><title>Node11&#45;&gt;Node14</title>
<path fill="none" stroke="midnightblue" d="M1775.26,-181.781C1778.21,-181.173 1781.16,-180.572 1784,-180 1866.54,-163.375 1888.87,-166.537 1970,-144 1973.21,-143.107 1976.53,-142.078 1979.83,-140.987"/>
<polygon fill="midnightblue" stroke="midnightblue" points="1981.23,-144.205 1989.51,-137.595 1978.91,-137.599 1981.23,-144.205"/>
</g>
<!-- Node15&#45;&gt;Node3 -->
<g id="edge60" class="edge"><title>Node15&#45;&gt;Node3</title>
<path fill="none" stroke="midnightblue" d="M1177.32,-187.473C1273.08,-183.352 1512.34,-170.481 1536,-144 1545.47,-133.393 1545.87,-122.244 1536,-112 1515.58,-90.7971 593.647,-71.8617 382.687,-67.8016"/>
<polygon fill="midnightblue" stroke="midnightblue" points="382.683,-64.301 372.618,-67.6087 382.549,-71.2997 382.683,-64.301"/>
</g>
<!-- Node16 -->
<g id="node38" class="node"><title>Node16</title>
<polygon fill="white" stroke="#bfbfbf" points="1281.5,-118.5 1281.5,-137.5 1400.5,-137.5 1400.5,-118.5 1281.5,-118.5"/>
<text text-anchor="middle" x="1341" y="-125.5" font-family="FreeSans" font-size="10.00">cantera/IdealGasMix.h</text>
</g>
<!-- Node15&#45;&gt;Node16 -->
<g id="edge44" class="edge"><title>Node15&#45;&gt;Node16</title>
<path fill="none" stroke="midnightblue" d="M1167.08,-180.403C1202.58,-169.911 1262.75,-152.129 1302.17,-140.476"/>
<polygon fill="midnightblue" stroke="midnightblue" points="1303.37,-143.772 1311.97,-137.581 1301.39,-137.059 1303.37,-143.772"/>
</g>
<!-- Node17 -->
<g id="node40" class="node"><title>Node17</title>
<polygon fill="white" stroke="#bfbfbf" points="1418.5,-118.5 1418.5,-137.5 1527.5,-137.5 1527.5,-118.5 1418.5,-118.5"/>
<text text-anchor="middle" x="1473" y="-125.5" font-family="FreeSans" font-size="10.00">cantera/equilibrium.h</text>
</g>
<!-- Node15&#45;&gt;Node17 -->
<g id="edge46" class="edge"><title>Node15&#45;&gt;Node17</title>
<path fill="none" stroke="midnightblue" d="M1177.19,-183.319C1230.02,-175.472 1326.92,-160.414 1409,-144 1415.32,-142.737 1421.96,-141.302 1428.47,-139.832"/>
<polygon fill="midnightblue" stroke="midnightblue" points="1429.59,-143.167 1438.55,-137.513 1428.02,-136.345 1429.59,-143.167"/>
</g>
<!-- Node18 -->
<g id="node42" class="node"><title>Node18</title>
<polygon fill="white" stroke="#bfbfbf" points="1584,-118.5 1584,-137.5 1676,-137.5 1676,-118.5 1584,-118.5"/>
<text text-anchor="middle" x="1630" y="-125.5" font-family="FreeSans" font-size="10.00">cantera/thermo.h</text>
</g>
<!-- Node15&#45;&gt;Node18 -->
<g id="edge48" class="edge"><title>Node15&#45;&gt;Node18</title>
<path fill="none" stroke="midnightblue" d="M1177.27,-186.772C1253.47,-182.038 1426.49,-169.283 1570,-144 1576.31,-142.887 1582.95,-141.478 1589.41,-139.97"/>
<polygon fill="midnightblue" stroke="midnightblue" points="1590.46,-143.316 1599.35,-137.549 1588.8,-136.515 1590.46,-143.316"/>
</g>
<!-- Node19 -->
<g id="node44" class="node"><title>Node19</title>
<polygon fill="white" stroke="#bfbfbf" points="574.5,-118.5 574.5,-137.5 673.5,-137.5 673.5,-118.5 574.5,-118.5"/>
<text text-anchor="middle" x="624" y="-125.5" font-family="FreeSans" font-size="10.00">cantera/transport.h</text>
</g>
<!-- Node15&#45;&gt;Node19 -->
<g id="edge50" class="edge"><title>Node15&#45;&gt;Node19</title>
<path fill="none" stroke="midnightblue" d="M1098.78,-187.111C1019.65,-182.864 835.457,-170.763 683,-144 676.715,-142.897 670.113,-141.48 663.693,-139.958"/>
<polygon fill="midnightblue" stroke="midnightblue" points="664.374,-136.521 653.826,-137.511 662.689,-143.315 664.374,-136.521"/>
</g>
<!-- Node20 -->
<g id="node46" class="node"><title>Node20</title>
<polygon fill="white" stroke="#bfbfbf" points="691.5,-118.5 691.5,-137.5 786.5,-137.5 786.5,-118.5 691.5,-118.5"/>
<text text-anchor="middle" x="739" y="-125.5" font-family="FreeSans" font-size="10.00">cantera/kinetics.h</text>
</g>
<!-- Node15&#45;&gt;Node20 -->
<g id="edge52" class="edge"><title>Node15&#45;&gt;Node20</title>
<path fill="none" stroke="midnightblue" d="M1098.76,-185.466C1034.9,-179.352 904.711,-165.367 796,-144 790.211,-142.862 784.138,-141.476 778.203,-140.011"/>
<polygon fill="midnightblue" stroke="midnightblue" points="778.976,-136.596 768.42,-137.501 777.236,-143.376 778.976,-136.596"/>
</g>
<!-- Node21 -->
<g id="node48" class="node"><title>Node21</title>
<polygon fill="white" stroke="#bfbfbf" points="805,-118.5 805,-137.5 971,-137.5 971,-118.5 805,-118.5"/>
<text text-anchor="middle" x="888" y="-125.5" font-family="FreeSans" font-size="10.00">cantera/thermo/IdealGasPhase.h</text>
</g>
<!-- Node15&#45;&gt;Node21 -->
<g id="edge54" class="edge"><title>Node15&#45;&gt;Node21</title>
<path fill="none" stroke="midnightblue" d="M1102.45,-180.467C1058.02,-169.805 981.938,-151.545 933.358,-139.886"/>
<polygon fill="midnightblue" stroke="midnightblue" points="933.971,-136.434 923.431,-137.503 932.338,-143.241 933.971,-136.434"/>
</g>
<!-- Node22 -->
<g id="node50" class="node"><title>Node22</title>
<polygon fill="white" stroke="#bfbfbf" points="989,-118.5 989,-137.5 1141,-137.5 1141,-118.5 989,-118.5"/>
<text text-anchor="middle" x="1065" y="-125.5" font-family="FreeSans" font-size="10.00">cantera/kinetics/GasKinetics.h</text>
</g>
<!-- Node15&#45;&gt;Node22 -->
<g id="edge56" class="edge"><title>Node15&#45;&gt;Node22</title>
<path fill="none" stroke="midnightblue" d="M1127.54,-180.403C1116.05,-170.958 1097.37,-155.606 1083.41,-144.134"/>
<polygon fill="midnightblue" stroke="midnightblue" points="1085.39,-141.226 1075.44,-137.581 1080.94,-146.634 1085.39,-141.226"/>
</g>
<!-- Node23 -->
<g id="node52" class="node"><title>Node23</title>
<polygon fill="white" stroke="#bfbfbf" points="1159,-118.5 1159,-137.5 1263,-137.5 1263,-118.5 1159,-118.5"/>
<text text-anchor="middle" x="1211" y="-125.5" font-family="FreeSans" font-size="10.00">cantera/base/ctml.h</text>
</g>
<!-- Node15&#45;&gt;Node23 -->
<g id="edge58" class="edge"><title>Node15&#45;&gt;Node23</title>
<path fill="none" stroke="midnightblue" d="M1148.46,-180.403C1159.95,-170.958 1178.63,-155.606 1192.59,-144.134"/>
<polygon fill="midnightblue" stroke="midnightblue" points="1195.06,-146.634 1200.56,-137.581 1190.61,-141.226 1195.06,-146.634"/>
</g>
<!-- Node24&#45;&gt;Node3 -->
<g id="edge64" class="edge"><title>Node24&#45;&gt;Node3</title>
<path fill="none" stroke="midnightblue" d="M444.897,-180.061C439.247,-164.755 426.079,-133.135 407,-112 395.481,-99.2393 379.614,-88.3742 366.213,-80.5185"/>
<polygon fill="midnightblue" stroke="midnightblue" points="367.845,-77.4212 357.413,-75.5745 364.417,-83.524 367.845,-77.4212"/>
</g>
</g>
</svg>
