<?xml version="1.0" encoding="UTF-8" standalone="no"?>
<!DOCTYPE svg PUBLIC "-//W3C//DTD SVG 1.1//EN"
 "http://www.w3.org/Graphics/SVG/1.1/DTD/svg11.dtd">
<!-- Generated by graphviz version 2.36.0 (20140111.2315)
 -->
<!-- Title: src/sourceSystem.cpp Pages: 1 -->
<svg width="2771pt" height="308pt"
 viewBox="0.00 0.00 2771.00 308.00" xmlns="http://www.w3.org/2000/svg" xmlns:xlink="http://www.w3.org/1999/xlink">
<g id="graph0" class="graph" transform="scale(1 1) rotate(0) translate(4 304)">
<title>src/sourceSystem.cpp</title>
<polygon fill="white" stroke="none" points="-4,4 -4,-304 2767,-304 2767,4 -4,4"/>
<!-- Node1 -->
<g id="node1" class="node"><title>Node1</title>
<polygon fill="#bfbfbf" stroke="black" points="1022.5,-280.5 1022.5,-299.5 1133.5,-299.5 1133.5,-280.5 1022.5,-280.5"/>
<text text-anchor="middle" x="1078" y="-287.5" font-family="FreeSans" font-size="10.00">src/sourceSystem.cpp</text>
</g>
<!-- Node2 -->
<g id="node2" class="node"><title>Node2</title>
<g id="a_node2"><a xlink:href="sourceSystem_8h.html" target="_top" xlink:title="sourceSystem.h">
<polygon fill="white" stroke="black" points="388.5,-224.5 388.5,-243.5 473.5,-243.5 473.5,-224.5 388.5,-224.5"/>
<text text-anchor="middle" x="431" y="-231.5" font-family="FreeSans" font-size="10.00">sourceSystem.h</text>
</a>
</g>
</g>
<!-- Node1&#45;&gt;Node2 -->
<g id="edge1" class="edge"><title>Node1&#45;&gt;Node2</title>
<path fill="none" stroke="midnightblue" d="M1022.28,-284.349C898.971,-274.058 604.422,-249.474 483.838,-239.41"/>
<polygon fill="midnightblue" stroke="midnightblue" points="484.003,-235.912 473.747,-238.568 483.421,-242.887 484.003,-235.912"/>
</g>
<!-- Node11 -->
<g id="node11" class="node"><title>Node11</title>
<polygon fill="white" stroke="#bfbfbf" points="1322.5,-0.5 1322.5,-19.5 1411.5,-19.5 1411.5,-0.5 1322.5,-0.5"/>
<text text-anchor="middle" x="1367" y="-7.5" font-family="FreeSans" font-size="10.00">boost/format.hpp</text>
</g>
<!-- Node1&#45;&gt;Node11 -->
<g id="edge58" class="edge"><title>Node1&#45;&gt;Node11</title>
<path fill="none" stroke="midnightblue" d="M1133.69,-286.7C1246.16,-281.612 1496.71,-267.922 1579,-244 1639.51,-226.409 1705,-242.012 1705,-179 1705,-179 1705,-179 1705,-121 1705,-62.1294 1517.25,-29.9092 1421.61,-17.3154"/>
<polygon fill="midnightblue" stroke="midnightblue" points="1421.9,-13.8241 1411.54,-16.0166 1421.01,-20.7667 1421.9,-13.8241"/>
</g>
<!-- Node13 -->
<g id="node13" class="node"><title>Node13</title>
<g id="a_node13"><a xlink:href="sundialsUtils_8h.html" target="_top" xlink:title="sundialsUtils.h">
<polygon fill="white" stroke="black" points="1039.5,-168.5 1039.5,-187.5 1116.5,-187.5 1116.5,-168.5 1039.5,-168.5"/>
<text text-anchor="middle" x="1078" y="-175.5" font-family="FreeSans" font-size="10.00">sundialsUtils.h</text>
</a>
</g>
</g>
<!-- Node1&#45;&gt;Node13 -->
<g id="edge44" class="edge"><title>Node1&#45;&gt;Node13</title>
<path fill="none" stroke="midnightblue" d="M1078,-280.368C1078,-262.617 1078,-221.666 1078,-197.597"/>
<polygon fill="midnightblue" stroke="midnightblue" points="1081.5,-197.591 1078,-187.591 1074.5,-197.591 1081.5,-197.591"/>
</g>
<!-- Node28 -->
<g id="node28" class="node"><title>Node28</title>
<g id="a_node28"><a xlink:href="readConfig_8h.html" target="_top" xlink:title="readConfig.h">
<polygon fill="white" stroke="black" points="539,-168.5 539,-187.5 609,-187.5 609,-168.5 539,-168.5"/>
<text text-anchor="middle" x="574" y="-175.5" font-family="FreeSans" font-size="10.00">readConfig.h</text>
</a>
</g>
</g>
<!-- Node1&#45;&gt;Node28 -->
<g id="edge34" class="edge"><title>Node1&#45;&gt;Node28</title>
<path fill="none" stroke="midnightblue" d="M1038.87,-280.46C946.728,-260.349 716.512,-210.104 618.891,-188.798"/>
<polygon fill="midnightblue" stroke="midnightblue" points="619.553,-185.36 609.037,-186.647 618.06,-192.199 619.553,-185.36"/>
</g>
<!-- Node29 -->
<g id="node29" class="node"><title>Node29</title>
<g id="a_node29"><a xlink:href="perfTimer_8h.html" target="_top" xlink:title="perfTimer.h">
<polygon fill="white" stroke="black" points="1505.5,-224.5 1505.5,-243.5 1570.5,-243.5 1570.5,-224.5 1505.5,-224.5"/>
<text text-anchor="middle" x="1538" y="-231.5" font-family="FreeSans" font-size="10.00">perfTimer.h</text>
</a>
</g>
</g>
<!-- Node1&#45;&gt;Node29 -->
<g id="edge37" class="edge"><title>Node1&#45;&gt;Node29</title>
<path fill="none" stroke="midnightblue" d="M1133.95,-282.433C1227.05,-271.502 1411.81,-249.814 1495.29,-240.014"/>
<polygon fill="midnightblue" stroke="midnightblue" points="1495.9,-243.466 1505.43,-238.824 1495.09,-236.513 1495.9,-243.466"/>
</g>
<!-- Node33 -->
<g id="node33" class="node"><title>Node33</title>
<g id="a_node33"><a xlink:href="chemistry0d_8h.html" target="_top" xlink:title="chemistry0d.h">
<polygon fill="white" stroke="black" points="2036,-168.5 2036,-187.5 2112,-187.5 2112,-168.5 2036,-168.5"/>
<text text-anchor="middle" x="2074" y="-175.5" font-family="FreeSans" font-size="10.00">chemistry0d.h</text>
</a>
</g>
</g>
<!-- Node1&#45;&gt;Node33 -->
<g id="edge45" class="edge"><title>Node1&#45;&gt;Node33</title>
<path fill="none" stroke="midnightblue" d="M1133.51,-287.178C1244.89,-283.065 1503.45,-271.214 1719,-244 1829.57,-230.04 1957.87,-204.1 2025.88,-189.567"/>
<polygon fill="midnightblue" stroke="midnightblue" points="2026.83,-192.944 2035.87,-187.422 2025.36,-186.1 2026.83,-192.944"/>
</g>
<!-- Node42 -->
<g id="node42" class="node"><title>Node42</title>
<g id="a_node42"><a xlink:href="scalarFunction_8h.html" target="_top" xlink:title="scalarFunction.h">
<polygon fill="white" stroke="black" points="183.5,-224.5 183.5,-243.5 270.5,-243.5 270.5,-224.5 183.5,-224.5"/>
<text text-anchor="middle" x="227" y="-231.5" font-family="FreeSans" font-size="10.00">scalarFunction.h</text>
</a>
</g>
</g>
<!-- Node1&#45;&gt;Node42 -->
<g id="edge56" class="edge"><title>Node1&#45;&gt;Node42</title>
<path fill="none" stroke="midnightblue" d="M1022.49,-285.478C867.907,-275.669 433.825,-248.124 281.034,-238.429"/>
<polygon fill="midnightblue" stroke="midnightblue" points="281.156,-234.929 270.954,-237.789 280.712,-241.915 281.156,-234.929"/>
</g>
<!-- Node3 -->
<g id="node3" class="node"><title>Node3</title>
<g id="a_node3"><a xlink:href="mathUtils_8h.html" target="_top" xlink:title="mathUtils.h">
<polygon fill="white" stroke="black" points="200.5,-112.5 200.5,-131.5 265.5,-131.5 265.5,-112.5 200.5,-112.5"/>
<text text-anchor="middle" x="233" y="-119.5" font-family="FreeSans" font-size="10.00">mathUtils.h</text>
</a>
</g>
</g>
<!-- Node2&#45;&gt;Node3 -->
<g id="edge2" class="edge"><title>Node2&#45;&gt;Node3</title>
<path fill="none" stroke="midnightblue" d="M398.53,-224.451C373.114,-216.967 337.431,-204.675 309,-188 285.75,-174.363 262.749,-153.361 248.245,-138.942"/>
<polygon fill="midnightblue" stroke="midnightblue" points="250.624,-136.369 241.114,-131.697 245.635,-141.279 250.624,-136.369"/>
</g>
<!-- Node2&#45;&gt;Node13 -->
<g id="edge14" class="edge"><title>Node2&#45;&gt;Node13</title>
<path fill="none" stroke="midnightblue" d="M473.702,-229.436C589.07,-219.807 906.547,-193.31 1028.97,-183.093"/>
<polygon fill="midnightblue" stroke="midnightblue" points="1029.49,-186.561 1039.16,-182.241 1028.91,-179.585 1029.49,-186.561"/>
</g>
<!-- Node25 -->
<g id="node25" class="node"><title>Node25</title>
<g id="a_node25"><a xlink:href="qssintegrator_8h.html" target="_top" xlink:title="qssintegrator.h">
<polygon fill="white" stroke="black" points="441.5,-168.5 441.5,-187.5 520.5,-187.5 520.5,-168.5 441.5,-168.5"/>
<text text-anchor="middle" x="481" y="-175.5" font-family="FreeSans" font-size="10.00">qssintegrator.h</text>
</a>
</g>
</g>
<!-- Node2&#45;&gt;Node25 -->
<g id="edge28" class="edge"><title>Node2&#45;&gt;Node25</title>
<path fill="none" stroke="midnightblue" d="M439.256,-224.083C446.465,-216.298 457.11,-204.801 465.846,-195.367"/>
<polygon fill="midnightblue" stroke="midnightblue" points="468.671,-197.467 472.897,-187.751 463.535,-192.711 468.671,-197.467"/>
</g>
<!-- Node26 -->
<g id="node26" class="node"><title>Node26</title>
<g id="a_node26"><a xlink:href="quasi2d_8h.html" target="_top" xlink:title="quasi2d.h">
<polygon fill="white" stroke="black" points="204.5,-168.5 204.5,-187.5 261.5,-187.5 261.5,-168.5 204.5,-168.5"/>
<text text-anchor="middle" x="233" y="-175.5" font-family="FreeSans" font-size="10.00">quasi2d.h</text>
</a>
</g>
</g>
<!-- Node2&#45;&gt;Node26 -->
<g id="edge30" class="edge"><title>Node2&#45;&gt;Node26</title>
<path fill="none" stroke="midnightblue" d="M399.626,-224.444C364.94,-214.984 309.038,-199.738 271.67,-189.546"/>
<polygon fill="midnightblue" stroke="midnightblue" points="272.224,-186.07 261.655,-186.815 270.382,-192.823 272.224,-186.07"/>
</g>
<!-- Node27 -->
<g id="node27" class="node"><title>Node27</title>
<polygon fill="white" stroke="#bfbfbf" points="318,-168.5 318,-187.5 424,-187.5 424,-168.5 318,-168.5"/>
<text text-anchor="middle" x="371" y="-175.5" font-family="FreeSans" font-size="10.00">boost/shared_ptr.hpp</text>
</g>
<!-- Node2&#45;&gt;Node27 -->
<g id="edge33" class="edge"><title>Node2&#45;&gt;Node27</title>
<path fill="none" stroke="midnightblue" d="M421.36,-224.324C412.49,-216.341 399.125,-204.313 388.392,-194.653"/>
<polygon fill="midnightblue" stroke="midnightblue" points="390.59,-191.922 380.815,-187.834 385.907,-197.125 390.59,-191.922"/>
</g>
<!-- Node4 -->
<g id="node4" class="node"><title>Node4</title>
<polygon fill="white" stroke="#bfbfbf" points="349.5,-56.5 349.5,-75.5 392.5,-75.5 392.5,-56.5 349.5,-56.5"/>
<text text-anchor="middle" x="371" y="-63.5" font-family="FreeSans" font-size="10.00">vector</text>
</g>
<!-- Node3&#45;&gt;Node4 -->
<g id="edge3" class="edge"><title>Node3&#45;&gt;Node4</title>
<path fill="none" stroke="midnightblue" d="M254.867,-112.444C277.779,-103.478 313.975,-89.314 339.866,-79.1827"/>
<polygon fill="midnightblue" stroke="midnightblue" points="341.199,-82.4198 349.236,-75.5164 338.648,-75.9011 341.199,-82.4198"/>
</g>
<!-- Node5 -->
<g id="node5" class="node"><title>Node5</title>
<polygon fill="white" stroke="#bfbfbf" points="211,-56.5 211,-75.5 255,-75.5 255,-56.5 211,-56.5"/>
<text text-anchor="middle" x="233" y="-63.5" font-family="FreeSans" font-size="10.00">cmath</text>
</g>
<!-- Node3&#45;&gt;Node5 -->
<g id="edge4" class="edge"><title>Node3&#45;&gt;Node5</title>
<path fill="none" stroke="midnightblue" d="M233,-112.083C233,-105.006 233,-94.8611 233,-85.9865"/>
<polygon fill="midnightblue" stroke="midnightblue" points="236.5,-85.751 233,-75.7511 229.5,-85.7511 236.5,-85.751"/>
</g>
<!-- Node6 -->
<g id="node6" class="node"><title>Node6</title>
<polygon fill="white" stroke="#bfbfbf" points="913.5,-0.5 913.5,-19.5 966.5,-19.5 966.5,-0.5 913.5,-0.5"/>
<text text-anchor="middle" x="940" y="-7.5" font-family="FreeSans" font-size="10.00">iostream</text>
</g>
<!-- Node3&#45;&gt;Node6 -->
<g id="edge5" class="edge"><title>Node3&#45;&gt;Node6</title>
<path fill="none" stroke="midnightblue" d="M247.38,-112.25C276.49,-94.5387 339.681,-56.1022 340,-56 445.634,-22.1183 789.006,-13.4819 902.906,-11.5229"/>
<polygon fill="midnightblue" stroke="midnightblue" points="903.256,-15.0177 913.197,-11.3536 903.141,-8.01867 903.256,-15.0177"/>
</g>
<!-- Node7 -->
<g id="node7" class="node"><title>Node7</title>
<polygon fill="white" stroke="#bfbfbf" points="53,-56.5 53,-75.5 103,-75.5 103,-56.5 53,-56.5"/>
<text text-anchor="middle" x="78" y="-63.5" font-family="FreeSans" font-size="10.00">sstream</text>
</g>
<!-- Node3&#45;&gt;Node7 -->
<g id="edge6" class="edge"><title>Node3&#45;&gt;Node7</title>
<path fill="none" stroke="midnightblue" d="M208.44,-112.444C182.477,-103.399 141.332,-89.064 112.203,-78.9158"/>
<polygon fill="midnightblue" stroke="midnightblue" points="113.04,-75.5013 102.445,-75.5164 110.737,-82.1116 113.04,-75.5013"/>
</g>
<!-- Node8 -->
<g id="node8" class="node"><title>Node8</title>
<polygon fill="white" stroke="#bfbfbf" points="401,-0.5 401,-19.5 441,-19.5 441,-0.5 401,-0.5"/>
<text text-anchor="middle" x="421" y="-7.5" font-family="FreeSans" font-size="10.00">string</text>
</g>
<!-- Node3&#45;&gt;Node8 -->
<g id="edge7" class="edge"><title>Node3&#45;&gt;Node8</title>
<path fill="none" stroke="midnightblue" d="M240.896,-112.359C253.668,-98.8048 280.15,-72.4012 307,-56 333.573,-39.768 367.019,-27.3887 390.796,-19.7617"/>
<polygon fill="midnightblue" stroke="midnightblue" points="392.155,-23.0045 400.663,-16.6908 390.075,-16.3207 392.155,-23.0045"/>
</g>
<!-- Node9 -->
<g id="node9" class="node"><title>Node9</title>
<polygon fill="white" stroke="#bfbfbf" points="-0.5,-56.5 -0.5,-75.5 34.5,-75.5 34.5,-56.5 -0.5,-56.5"/>
<text text-anchor="middle" x="17" y="-63.5" font-family="FreeSans" font-size="10.00">map</text>
</g>
<!-- Node3&#45;&gt;Node9 -->
<g id="edge8" class="edge"><title>Node3&#45;&gt;Node9</title>
<path fill="none" stroke="midnightblue" d="M200.334,-114.138C164.4,-106.39 104.779,-92.9457 44.3512,-75.8974"/>
<polygon fill="midnightblue" stroke="midnightblue" points="45.2259,-72.5073 34.6494,-73.1306 43.3061,-79.239 45.2259,-72.5073"/>
</g>
<!-- Node10 -->
<g id="node10" class="node"><title>Node10</title>
<g id="a_node10"><a xlink:href="debugUtils_8h.html" target="_top" xlink:title="debugUtils.h">
<polygon fill="white" stroke="red" points="905.5,-56.5 905.5,-75.5 974.5,-75.5 974.5,-56.5 905.5,-56.5"/>
<text text-anchor="middle" x="940" y="-63.5" font-family="FreeSans" font-size="10.00">debugUtils.h</text>
</a>
</g>
</g>
<!-- Node3&#45;&gt;Node10 -->
<g id="edge9" class="edge"><title>Node3&#45;&gt;Node10</title>
<path fill="none" stroke="midnightblue" d="M265.665,-117.023C280.151,-115.338 297.412,-113.436 313,-112 531.012,-91.9217 792.37,-75.6778 895.262,-69.5885"/>
<polygon fill="midnightblue" stroke="midnightblue" points="895.518,-73.0796 905.295,-68.9973 895.106,-66.0917 895.518,-73.0796"/>
</g>
<!-- Node12 -->
<g id="node12" class="node"><title>Node12</title>
<polygon fill="white" stroke="#bfbfbf" points="121.5,-56.5 121.5,-75.5 192.5,-75.5 192.5,-56.5 121.5,-56.5"/>
<text text-anchor="middle" x="157" y="-63.5" font-family="FreeSans" font-size="10.00">Eigen/Dense</text>
</g>
<!-- Node3&#45;&gt;Node12 -->
<g id="edge13" class="edge"><title>Node3&#45;&gt;Node12</title>
<path fill="none" stroke="midnightblue" d="M220.789,-112.324C209.224,-104.107 191.625,-91.6017 177.839,-81.8069"/>
<polygon fill="midnightblue" stroke="midnightblue" points="179.612,-78.7729 169.433,-75.8339 175.557,-84.4791 179.612,-78.7729"/>
</g>
<!-- Node10&#45;&gt;Node6 -->
<g id="edge11" class="edge"><title>Node10&#45;&gt;Node6</title>
<path fill="none" stroke="midnightblue" d="M940,-56.083C940,-49.0059 940,-38.8611 940,-29.9865"/>
<polygon fill="midnightblue" stroke="midnightblue" points="943.5,-29.751 940,-19.7511 936.5,-29.7511 943.5,-29.751"/>
</g>
<!-- Node10&#45;&gt;Node8 -->
<g id="edge10" class="edge"><title>Node10&#45;&gt;Node8</title>
<path fill="none" stroke="midnightblue" d="M905.141,-61.3731C809.045,-51.3746 541.5,-23.5376 451.206,-14.1428"/>
<polygon fill="midnightblue" stroke="midnightblue" points="451.405,-10.6448 441.097,-13.091 450.681,-17.6072 451.405,-10.6448"/>
</g>
<!-- Node10&#45;&gt;Node11 -->
<g id="edge12" class="edge"><title>Node10&#45;&gt;Node11</title>
<path fill="none" stroke="midnightblue" d="M974.582,-60.6267C1048.66,-51.2582 1223.17,-29.1887 1312.4,-17.9053"/>
<polygon fill="midnightblue" stroke="midnightblue" points="1312.84,-21.3772 1322.32,-16.6501 1311.96,-14.4325 1312.84,-21.3772"/>
</g>
<!-- Node13&#45;&gt;Node4 -->
<g id="edge25" class="edge"><title>Node13&#45;&gt;Node4</title>
<path fill="none" stroke="midnightblue" d="M1085.81,-168.257C1097.08,-154.563 1115.02,-127.971 1100,-112 1075.79,-86.2522 540.772,-71.2197 403.082,-67.7685"/>
<polygon fill="midnightblue" stroke="midnightblue" points="402.871,-64.2623 392.787,-67.5136 402.697,-71.2602 402.871,-64.2623"/>
</g>
<!-- Node13&#45;&gt;Node6 -->
<g id="edge24" class="edge"><title>Node13&#45;&gt;Node6</title>
<path fill="none" stroke="midnightblue" d="M1116.62,-176.355C1217.53,-173.958 1478.53,-162.823 1437,-112 1378.49,-40.4008 1081.43,-18.3017 976.652,-12.6742"/>
<polygon fill="midnightblue" stroke="midnightblue" points="976.722,-9.17318 966.554,-12.1513 976.36,-16.1638 976.722,-9.17318"/>
</g>
<!-- Node14 -->
<g id="node14" class="node"><title>Node14</title>
<polygon fill="white" stroke="#bfbfbf" points="322,-112.5 322,-131.5 440,-131.5 440,-112.5 322,-112.5"/>
<text text-anchor="middle" x="381" y="-119.5" font-family="FreeSans" font-size="10.00">nvector/nvector_serial.h</text>
</g>
<!-- Node13&#45;&gt;Node14 -->
<g id="edge15" class="edge"><title>Node13&#45;&gt;Node14</title>
<path fill="none" stroke="midnightblue" d="M1039.28,-175.043C942.098,-169.956 679.842,-155.156 450.519,-132.098"/>
<polygon fill="midnightblue" stroke="midnightblue" points="450.615,-128.59 440.314,-131.064 449.91,-135.554 450.615,-128.59"/>
</g>
<!-- Node15 -->
<g id="node15" class="node"><title>Node15</title>
<polygon fill="white" stroke="#bfbfbf" points="458.5,-112.5 458.5,-131.5 585.5,-131.5 585.5,-112.5 458.5,-112.5"/>
<text text-anchor="middle" x="522" y="-119.5" font-family="FreeSans" font-size="10.00">sundials/sundials_dense.h</text>
</g>
<!-- Node13&#45;&gt;Node15 -->
<g id="edge16" class="edge"><title>Node13&#45;&gt;Node15</title>
<path fill="none" stroke="midnightblue" d="M1039.46,-173.801C959.112,-167.049 767.631,-150.516 595.679,-132.043"/>
<polygon fill="midnightblue" stroke="midnightblue" points="596.006,-128.558 585.688,-130.965 595.255,-135.518 596.006,-128.558"/>
</g>
<!-- Node16 -->
<g id="node16" class="node"><title>Node16</title>
<polygon fill="white" stroke="#bfbfbf" points="604,-112.5 604,-131.5 726,-131.5 726,-112.5 604,-112.5"/>
<text text-anchor="middle" x="665" y="-119.5" font-family="FreeSans" font-size="10.00">sundials/sundials_band.h</text>
</g>
<!-- Node13&#45;&gt;Node16 -->
<g id="edge17" class="edge"><title>Node13&#45;&gt;Node16</title>
<path fill="none" stroke="midnightblue" d="M1039.15,-171.92C969.9,-162.866 824.205,-143.816 736.454,-132.343"/>
<polygon fill="midnightblue" stroke="midnightblue" points="736.682,-128.843 726.312,-131.017 735.774,-135.784 736.682,-128.843"/>
</g>
<!-- Node17 -->
<g id="node17" class="node"><title>Node17</title>
<polygon fill="white" stroke="#bfbfbf" points="744,-112.5 744,-131.5 868,-131.5 868,-112.5 744,-112.5"/>
<text text-anchor="middle" x="806" y="-119.5" font-family="FreeSans" font-size="10.00">sundials/sundials_types.h</text>
</g>
<!-- Node13&#45;&gt;Node17 -->
<g id="edge18" class="edge"><title>Node13&#45;&gt;Node17</title>
<path fill="none" stroke="midnightblue" d="M1039.32,-169.32C992.056,-159.938 911.868,-144.018 858.919,-133.506"/>
<polygon fill="midnightblue" stroke="midnightblue" points="859.527,-130.058 849.036,-131.544 858.163,-136.924 859.527,-130.058"/>
</g>
<!-- Node18 -->
<g id="node18" class="node"><title>Node18</title>
<polygon fill="white" stroke="#bfbfbf" points="886,-112.5 886,-131.5 964,-131.5 964,-112.5 886,-112.5"/>
<text text-anchor="middle" x="925" y="-119.5" font-family="FreeSans" font-size="10.00">cvode/cvode.h</text>
</g>
<!-- Node13&#45;&gt;Node18 -->
<g id="edge19" class="edge"><title>Node13&#45;&gt;Node18</title>
<path fill="none" stroke="midnightblue" d="M1053.76,-168.444C1028.13,-159.399 987.515,-145.064 958.762,-134.916"/>
<polygon fill="midnightblue" stroke="midnightblue" points="959.725,-131.544 949.13,-131.516 957.395,-138.145 959.725,-131.544"/>
</g>
<!-- Node19 -->
<g id="node19" class="node"><title>Node19</title>
<polygon fill="white" stroke="#bfbfbf" points="982.5,-112.5 982.5,-131.5 1091.5,-131.5 1091.5,-112.5 982.5,-112.5"/>
<text text-anchor="middle" x="1037" y="-119.5" font-family="FreeSans" font-size="10.00">cvode/cvode_dense.h</text>
</g>
<!-- Node13&#45;&gt;Node19 -->
<g id="edge20" class="edge"><title>Node13&#45;&gt;Node19</title>
<path fill="none" stroke="midnightblue" d="M1071.23,-168.083C1065.44,-160.455 1056.94,-149.264 1049.86,-139.941"/>
<polygon fill="midnightblue" stroke="midnightblue" points="1052.48,-137.599 1043.64,-131.751 1046.9,-141.832 1052.48,-137.599"/>
</g>
<!-- Node20 -->
<g id="node20" class="node"><title>Node20</title>
<polygon fill="white" stroke="#bfbfbf" points="1148,-112.5 1148,-131.5 1252,-131.5 1252,-112.5 1148,-112.5"/>
<text text-anchor="middle" x="1200" y="-119.5" font-family="FreeSans" font-size="10.00">cvode/cvode_band.h</text>
</g>
<!-- Node13&#45;&gt;Node20 -->
<g id="edge21" class="edge"><title>Node13&#45;&gt;Node20</title>
<path fill="none" stroke="midnightblue" d="M1097.33,-168.444C1117.32,-159.596 1148.74,-145.687 1171.56,-135.586"/>
<polygon fill="midnightblue" stroke="midnightblue" points="1173.03,-138.764 1180.76,-131.516 1170.2,-132.363 1173.03,-138.764"/>
</g>
<!-- Node21 -->
<g id="node21" class="node"><title>Node21</title>
<polygon fill="white" stroke="#bfbfbf" points="1270.5,-112.5 1270.5,-131.5 1323.5,-131.5 1323.5,-112.5 1270.5,-112.5"/>
<text text-anchor="middle" x="1297" y="-119.5" font-family="FreeSans" font-size="10.00">ida/ida.h</text>
</g>
<!-- Node13&#45;&gt;Node21 -->
<g id="edge22" class="edge"><title>Node13&#45;&gt;Node21</title>
<path fill="none" stroke="midnightblue" d="M1112.75,-168.497C1147.56,-159.971 1202.92,-146.384 1260.29,-132.168"/>
<polygon fill="midnightblue" stroke="midnightblue" points="1261.4,-135.499 1270.27,-129.696 1259.72,-128.705 1261.4,-135.499"/>
</g>
<!-- Node22 -->
<g id="node22" class="node"><title>Node22</title>
<polygon fill="white" stroke="#bfbfbf" points="1341,-112.5 1341,-131.5 1429,-131.5 1429,-112.5 1341,-112.5"/>
<text text-anchor="middle" x="1385" y="-119.5" font-family="FreeSans" font-size="10.00">ida/ida_spbcgs.h</text>
</g>
<!-- Node13&#45;&gt;Node22 -->
<g id="edge23" class="edge"><title>Node13&#45;&gt;Node22</title>
<path fill="none" stroke="midnightblue" d="M1116.57,-170.216C1170.73,-160.69 1269.54,-143.309 1330.99,-132.501"/>
<polygon fill="midnightblue" stroke="midnightblue" points="1331.64,-135.939 1340.89,-130.759 1330.43,-129.045 1331.64,-135.939"/>
</g>
<!-- Node23 -->
<g id="node23" class="node"><title>Node23</title>
<polygon fill="white" stroke="#bfbfbf" points="1485.5,-112.5 1485.5,-131.5 1528.5,-131.5 1528.5,-112.5 1485.5,-112.5"/>
<text text-anchor="middle" x="1507" y="-119.5" font-family="FreeSans" font-size="10.00">time.h</text>
</g>
<!-- Node13&#45;&gt;Node23 -->
<g id="edge26" class="edge"><title>Node13&#45;&gt;Node23</title>
<path fill="none" stroke="midnightblue" d="M1116.74,-174.257C1187.51,-168.87 1342.28,-155.356 1471,-132 1472.47,-131.734 1473.96,-131.443 1475.47,-131.133"/>
<polygon fill="midnightblue" stroke="midnightblue" points="1476.42,-134.507 1485.4,-128.888 1474.87,-127.679 1476.42,-134.507"/>
</g>
<!-- Node24 -->
<g id="node24" class="node"><title>Node24</title>
<g id="a_node24"><a xlink:href="config_8h.html" target="_top" xlink:title="config.h">
<polygon fill="white" stroke="black" points="1627,-112.5 1627,-131.5 1677,-131.5 1677,-112.5 1627,-112.5"/>
<text text-anchor="middle" x="1652" y="-119.5" font-family="FreeSans" font-size="10.00">config.h</text>
</a>
</g>
</g>
<!-- Node13&#45;&gt;Node24 -->
<g id="edge27" class="edge"><title>Node13&#45;&gt;Node24</title>
<path fill="none" stroke="midnightblue" d="M1116.51,-176.008C1205.32,-173.237 1431.13,-163.426 1617,-132 1617.1,-131.983 1617.2,-131.966 1617.3,-131.949"/>
<polygon fill="midnightblue" stroke="midnightblue" points="1617.77,-135.425 1626.87,-130.001 1616.38,-128.565 1617.77,-135.425"/>
</g>
<!-- Node25&#45;&gt;Node3 -->
<g id="edge29" class="edge"><title>Node25&#45;&gt;Node3</title>
<path fill="none" stroke="midnightblue" d="M441.704,-168.444C396.405,-158.58 322.217,-142.426 275.576,-132.271"/>
<polygon fill="midnightblue" stroke="midnightblue" points="276.292,-128.845 265.777,-130.137 274.803,-135.684 276.292,-128.845"/>
</g>
<!-- Node26&#45;&gt;Node3 -->
<g id="edge31" class="edge"><title>Node26&#45;&gt;Node3</title>
<path fill="none" stroke="midnightblue" d="M233,-168.083C233,-161.006 233,-150.861 233,-141.986"/>
<polygon fill="midnightblue" stroke="midnightblue" points="236.5,-141.751 233,-131.751 229.5,-141.751 236.5,-141.751"/>
</g>
<!-- Node26&#45;&gt;Node9 -->
<g id="edge32" class="edge"><title>Node26&#45;&gt;Node9</title>
<path fill="none" stroke="midnightblue" d="M216.051,-168.368C178.433,-149.211 87.7607,-103.036 42.9537,-80.2172"/>
<polygon fill="midnightblue" stroke="midnightblue" points="44.3698,-77.0106 33.8704,-75.5914 41.1931,-83.2484 44.3698,-77.0106"/>
</g>
<!-- Node28&#45;&gt;Node3 -->
<g id="edge35" class="edge"><title>Node28&#45;&gt;Node3</title>
<path fill="none" stroke="midnightblue" d="M538.66,-169.745C535.399,-169.132 532.141,-168.541 529,-168 418.804,-149.029 390.273,-150.52 280,-132 278.541,-131.755 277.057,-131.5 275.559,-131.239"/>
<polygon fill="midnightblue" stroke="midnightblue" points="276.044,-127.77 265.581,-129.438 274.801,-134.659 276.044,-127.77"/>
</g>
<!-- Node28&#45;&gt;Node8 -->
<g id="edge36" class="edge"><title>Node28&#45;&gt;Node8</title>
<path fill="none" stroke="midnightblue" d="M538.647,-169.818C535.388,-169.189 532.135,-168.575 529,-168 481.135,-159.227 344.454,-169.13 313,-132 274.744,-86.84 344.692,-137.607 401,-76 412.565,-63.3468 417.445,-44.1388 419.503,-29.8809"/>
<polygon fill="midnightblue" stroke="midnightblue" points="423.005,-30.0506 420.622,-19.7273 416.047,-29.2836 423.005,-30.0506"/>
</g>
<!-- Node29&#45;&gt;Node23 -->
<g id="edge43" class="edge"><title>Node29&#45;&gt;Node23</title>
<path fill="none" stroke="midnightblue" d="M1535.57,-224.368C1530.54,-206.537 1518.92,-165.295 1512.15,-141.272"/>
<polygon fill="midnightblue" stroke="midnightblue" points="1515.5,-140.267 1509.42,-131.591 1508.77,-142.166 1515.5,-140.267"/>
</g>
<!-- Node30 -->
<g id="node30" class="node"><title>Node30</title>
<g id="a_node30"><a xlink:href="tbb__tools_8h.html" target="_top" xlink:title="tbb_tools.h">
<polygon fill="white" stroke="black" points="1536.5,-168.5 1536.5,-187.5 1599.5,-187.5 1599.5,-168.5 1536.5,-168.5"/>
<text text-anchor="middle" x="1568" y="-175.5" font-family="FreeSans" font-size="10.00">tbb_tools.h</text>
</a>
</g>
</g>
<!-- Node29&#45;&gt;Node30 -->
<g id="edge38" class="edge"><title>Node29&#45;&gt;Node30</title>
<path fill="none" stroke="midnightblue" d="M1542.95,-224.083C1547.1,-216.613 1553.15,-205.724 1558.27,-196.52"/>
<polygon fill="midnightblue" stroke="midnightblue" points="1561.34,-198.192 1563.14,-187.751 1555.22,-194.793 1561.34,-198.192"/>
</g>
<!-- Node32 -->
<g id="node32" class="node"><title>Node32</title>
<polygon fill="white" stroke="#bfbfbf" points="1617.5,-168.5 1617.5,-187.5 1676.5,-187.5 1676.5,-168.5 1617.5,-168.5"/>
<text text-anchor="middle" x="1647" y="-175.5" font-family="FreeSans" font-size="10.00">sys/time.h</text>
</g>
<!-- Node29&#45;&gt;Node32 -->
<g id="edge42" class="edge"><title>Node29&#45;&gt;Node32</title>
<path fill="none" stroke="midnightblue" d="M1555.51,-224.324C1573.07,-215.625 1600.33,-202.12 1620.53,-192.113"/>
<polygon fill="midnightblue" stroke="midnightblue" points="1622.12,-195.23 1629.53,-187.655 1619.02,-188.958 1622.12,-195.23"/>
</g>
<!-- Node30&#45;&gt;Node24 -->
<g id="edge39" class="edge"><title>Node30&#45;&gt;Node24</title>
<path fill="none" stroke="midnightblue" d="M1581.5,-168.324C1594.6,-159.9 1614.71,-146.971 1630.11,-137.074"/>
<polygon fill="midnightblue" stroke="midnightblue" points="1632.02,-140.006 1638.54,-131.655 1628.23,-134.118 1632.02,-140.006"/>
</g>
<!-- Node31 -->
<g id="node31" class="node"><title>Node31</title>
<g id="a_node31"><a xlink:href="tbb__fake_8h.html" target="_top" xlink:title="tbb_fake.h">
<polygon fill="white" stroke="black" points="1547,-112.5 1547,-131.5 1609,-131.5 1609,-112.5 1547,-112.5"/>
<text text-anchor="middle" x="1578" y="-119.5" font-family="FreeSans" font-size="10.00">tbb_fake.h</text>
</a>
</g>
</g>
<!-- Node30&#45;&gt;Node31 -->
<g id="edge40" class="edge"><title>Node30&#45;&gt;Node31</title>
<path fill="none" stroke="midnightblue" d="M1569.65,-168.083C1570.98,-160.927 1572.88,-150.635 1574.54,-141.691"/>
<polygon fill="midnightblue" stroke="midnightblue" points="1578,-142.221 1576.38,-131.751 1571.12,-140.947 1578,-142.221"/>
</g>
<!-- Node31&#45;&gt;Node10 -->
<g id="edge41" class="edge"><title>Node31&#45;&gt;Node10</title>
<path fill="none" stroke="midnightblue" d="M1546.74,-113.664C1543.47,-113.037 1540.17,-112.465 1537,-112 1331.9,-81.9114 1084.02,-71.3923 984.51,-68.213"/>
<polygon fill="midnightblue" stroke="midnightblue" points="984.614,-64.7146 974.51,-67.9025 984.397,-71.7112 984.614,-64.7146"/>
</g>
<!-- Node33&#45;&gt;Node3 -->
<g id="edge55" class="edge"><title>Node33&#45;&gt;Node3</title>
<path fill="none" stroke="midnightblue" d="M2035.66,-176.115C1786.27,-170.343 401.814,-138.119 313,-132 300.921,-131.168 287.857,-129.868 275.857,-128.513"/>
<polygon fill="midnightblue" stroke="midnightblue" points="275.976,-125.003 265.637,-127.318 275.163,-131.956 275.976,-125.003"/>
</g>
<!-- Node33&#45;&gt;Node24 -->
<g id="edge54" class="edge"><title>Node33&#45;&gt;Node24</title>
<path fill="none" stroke="midnightblue" d="M2035.81,-172.113C1954.71,-161.736 1766.33,-137.629 1687.59,-127.554"/>
<polygon fill="midnightblue" stroke="midnightblue" points="1687.59,-124.026 1677.23,-126.228 1686.7,-130.969 1687.59,-124.026"/>
</g>
<!-- Node34 -->
<g id="node34" class="node"><title>Node34</title>
<polygon fill="white" stroke="#bfbfbf" points="2017.5,-112.5 2017.5,-131.5 2130.5,-131.5 2130.5,-112.5 2017.5,-112.5"/>
<text text-anchor="middle" x="2074" y="-119.5" font-family="FreeSans" font-size="10.00">cantera/IdealGasMix.h</text>
</g>
<!-- Node33&#45;&gt;Node34 -->
<g id="edge46" class="edge"><title>Node33&#45;&gt;Node34</title>
<path fill="none" stroke="midnightblue" d="M2074,-168.083C2074,-161.006 2074,-150.861 2074,-141.986"/>
<polygon fill="midnightblue" stroke="midnightblue" points="2077.5,-141.751 2074,-131.751 2070.5,-141.751 2077.5,-141.751"/>
</g>
<!-- Node35 -->
<g id="node35" class="node"><title>Node35</title>
<polygon fill="white" stroke="#bfbfbf" points="2149,-112.5 2149,-131.5 2255,-131.5 2255,-112.5 2149,-112.5"/>
<text text-anchor="middle" x="2202" y="-119.5" font-family="FreeSans" font-size="10.00">cantera/equilibrium.h</text>
</g>
<!-- Node33&#45;&gt;Node35 -->
<g id="edge47" class="edge"><title>Node33&#45;&gt;Node35</title>
<path fill="none" stroke="midnightblue" d="M2094.28,-168.444C2115.35,-159.557 2148.52,-145.563 2172.49,-135.451"/>
<polygon fill="midnightblue" stroke="midnightblue" points="2173.96,-138.628 2181.81,-131.516 2171.24,-132.179 2173.96,-138.628"/>
</g>
<!-- Node36 -->
<g id="node36" class="node"><title>Node36</title>
<polygon fill="white" stroke="#bfbfbf" points="2272.5,-112.5 2272.5,-131.5 2361.5,-131.5 2361.5,-112.5 2272.5,-112.5"/>
<text text-anchor="middle" x="2317" y="-119.5" font-family="FreeSans" font-size="10.00">cantera/thermo.h</text>
</g>
<!-- Node33&#45;&gt;Node36 -->
<g id="edge48" class="edge"><title>Node33&#45;&gt;Node36</title>
<path fill="none" stroke="midnightblue" d="M2112.24,-168.503C2154.48,-159.115 2222.61,-143.975 2268.56,-133.764"/>
<polygon fill="midnightblue" stroke="midnightblue" points="2269.58,-137.122 2278.59,-131.536 2268.06,-130.289 2269.58,-137.122"/>
</g>
<!-- Node37 -->
<g id="node37" class="node"><title>Node37</title>
<polygon fill="white" stroke="#bfbfbf" points="2379.5,-112.5 2379.5,-131.5 2476.5,-131.5 2476.5,-112.5 2379.5,-112.5"/>
<text text-anchor="middle" x="2428" y="-119.5" font-family="FreeSans" font-size="10.00">cantera/transport.h</text>
</g>
<!-- Node33&#45;&gt;Node37 -->
<g id="edge49" class="edge"><title>Node33&#45;&gt;Node37</title>
<path fill="none" stroke="midnightblue" d="M2112.32,-171.212C2166.88,-162.965 2270.36,-147.29 2369.11,-132.133"/>
<polygon fill="midnightblue" stroke="midnightblue" points="2369.91,-135.55 2379.27,-130.573 2368.85,-128.631 2369.91,-135.55"/>
</g>
<!-- Node38 -->
<g id="node38" class="node"><title>Node38</title>
<polygon fill="white" stroke="#bfbfbf" points="2495,-112.5 2495,-131.5 2587,-131.5 2587,-112.5 2495,-112.5"/>
<text text-anchor="middle" x="2541" y="-119.5" font-family="FreeSans" font-size="10.00">cantera/kinetics.h</text>
</g>
<!-- Node33&#45;&gt;Node38 -->
<g id="edge50" class="edge"><title>Node33&#45;&gt;Node38</title>
<path fill="none" stroke="midnightblue" d="M2112.04,-173.48C2183.04,-166.771 2340.77,-151.208 2484.97,-131.935"/>
<polygon fill="midnightblue" stroke="midnightblue" points="2485.44,-135.403 2494.88,-130.6 2484.5,-128.465 2485.44,-135.403"/>
</g>
<!-- Node39 -->
<g id="node39" class="node"><title>Node39</title>
<polygon fill="white" stroke="#bfbfbf" points="2605,-112.5 2605,-131.5 2763,-131.5 2763,-112.5 2605,-112.5"/>
<text text-anchor="middle" x="2684" y="-119.5" font-family="FreeSans" font-size="10.00">cantera/thermo/IdealGasPhase.h</text>
</g>
<!-- Node33&#45;&gt;Node39 -->
<g id="edge51" class="edge"><title>Node33&#45;&gt;Node39</title>
<path fill="none" stroke="midnightblue" d="M2112.01,-173.932C2196.64,-167.056 2407.3,-149.692 2594.81,-132.099"/>
<polygon fill="midnightblue" stroke="midnightblue" points="2595.22,-135.576 2604.85,-131.155 2594.57,-128.607 2595.22,-135.576"/>
</g>
<!-- Node40 -->
<g id="node40" class="node"><title>Node40</title>
<polygon fill="white" stroke="#bfbfbf" points="1733.5,-112.5 1733.5,-131.5 1880.5,-131.5 1880.5,-112.5 1733.5,-112.5"/>
<text text-anchor="middle" x="1807" y="-119.5" font-family="FreeSans" font-size="10.00">cantera/kinetics/GasKinetics.h</text>
</g>
<!-- Node33&#45;&gt;Node40 -->
<g id="edge52" class="edge"><title>Node33&#45;&gt;Node40</title>
<path fill="none" stroke="midnightblue" d="M2035.75,-169.263C1989.38,-159.885 1911.02,-144.039 1859.15,-133.548"/>
<polygon fill="midnightblue" stroke="midnightblue" points="1859.64,-130.076 1849.15,-131.524 1858.26,-136.937 1859.64,-130.076"/>
</g>
<!-- Node41 -->
<g id="node41" class="node"><title>Node41</title>
<polygon fill="white" stroke="#bfbfbf" points="1898.5,-112.5 1898.5,-131.5 1999.5,-131.5 1999.5,-112.5 1898.5,-112.5"/>
<text text-anchor="middle" x="1949" y="-119.5" font-family="FreeSans" font-size="10.00">cantera/base/ctml.h</text>
</g>
<!-- Node33&#45;&gt;Node41 -->
<g id="edge53" class="edge"><title>Node33&#45;&gt;Node41</title>
<path fill="none" stroke="midnightblue" d="M2054.19,-168.444C2033.71,-159.596 2001.52,-145.687 1978.14,-135.586"/>
<polygon fill="midnightblue" stroke="midnightblue" points="1979.28,-132.269 1968.71,-131.516 1976.51,-138.695 1979.28,-132.269"/>
</g>
<!-- Node42&#45;&gt;Node3 -->
<g id="edge57" class="edge"><title>Node42&#45;&gt;Node3</title>
<path fill="none" stroke="midnightblue" d="M217.756,-224.43C205.784,-212.238 187.31,-189.027 195,-168 199.057,-156.908 207.188,-146.665 214.891,-138.763"/>
<polygon fill="midnightblue" stroke="midnightblue" points="217.475,-141.135 222.286,-131.695 212.638,-136.075 217.475,-141.135"/>
</g>
</g>
</svg>
