<?xml version="1.0" encoding="UTF-8" standalone="no"?>
<!DOCTYPE svg PUBLIC "-//W3C//DTD SVG 1.1//EN"
 "http://www.w3.org/Graphics/SVG/1.1/DTD/svg11.dtd">
<!-- Generated by graphviz version 2.28.0 (20120425.2022)
 -->
<!-- Title: G Pages: 1 -->
<svg width="592pt" height="252pt"
 viewBox="0.00 0.00 591.55 252.00" xmlns="http://www.w3.org/2000/svg" xmlns:xlink="http://www.w3.org/1999/xlink">
<g id="graph1" class="graph" transform="scale(1 1) rotate(0) translate(4 248)">
<title>G</title>
<polygon fill="white" stroke="white" points="-4,5 -4,-248 588.551,-248 588.551,5 -4,5"/>
<!-- Node1 -->
<g id="node1" class="node"><title>Node1</title>
<polygon fill="#bfbfbf" stroke="black" points="291.132,-224.5 291.132,-243.5 407.132,-243.5 407.132,-224.5 291.132,-224.5"/>
<text text-anchor="middle" x="349.132" y="-231.5" font-family="FreeSans" font-size="10.00">src/sourceSystem.cpp</text>
</g>
<!-- Node2 -->
<g id="node3" class="node"><title>Node2</title>
<a xlink:href="sourceSystem_8h.html" target="_top" xlink:title="sourceSystem.h">
<polygon fill="white" stroke="black" points="304.632,-168.5 304.632,-187.5 393.632,-187.5 393.632,-168.5 304.632,-168.5"/>
<text text-anchor="middle" x="349.132" y="-175.5" font-family="FreeSans" font-size="10.00">sourceSystem.h</text>
</a>
</g>
<!-- Node1&#45;&gt;Node2 -->
<g id="edge2" class="edge"><title>Node1&#45;&gt;Node2</title>
<path fill="none" stroke="midnightblue" d="M349.132,-224.083C349.132,-217.006 349.132,-206.861 349.132,-197.986"/>
<polygon fill="midnightblue" stroke="midnightblue" points="352.632,-197.751 349.132,-187.751 345.632,-197.751 352.632,-197.751"/>
</g>
<!-- Node6 -->
<g id="node12" class="node"><title>Node6</title>
<a xlink:href="readConfig_8h.html" target="_top" xlink:title="readConfig.h">
<polygon fill="white" stroke="red" points="171.132,-56.5 171.132,-75.5 245.132,-75.5 245.132,-56.5 171.132,-56.5"/>
<text text-anchor="middle" x="208.132" y="-63.5" font-family="FreeSans" font-size="10.00">readConfig.h</text>
</a>
</g>
<!-- Node1&#45;&gt;Node6 -->
<g id="edge32" class="edge"><title>Node1&#45;&gt;Node6</title>
<path fill="none" stroke="midnightblue" d="M292.165,-224.445C204.288,-209.954 42.2117,-177.638 8.13154,-132 -32.2095,-77.9782 89.7221,-68.0713 160.804,-66.7447"/>
<polygon fill="midnightblue" stroke="midnightblue" points="160.946,-70.2431 170.898,-66.607 160.851,-63.2438 160.946,-70.2431"/>
</g>
<!-- Node12 -->
<g id="node29" class="node"><title>Node12</title>
<polygon fill="white" stroke="#bfbfbf" points="412.132,-168.5 412.132,-187.5 502.132,-187.5 502.132,-168.5 412.132,-168.5"/>
<text text-anchor="middle" x="457.132" y="-175.5" font-family="FreeSans" font-size="10.00">boost/format.hpp</text>
</g>
<!-- Node1&#45;&gt;Node12 -->
<g id="edge34" class="edge"><title>Node1&#45;&gt;Node12</title>
<path fill="none" stroke="midnightblue" d="M366.484,-224.324C383.803,-215.664 410.647,-202.242 430.633,-192.249"/>
<polygon fill="midnightblue" stroke="midnightblue" points="432.444,-195.257 439.823,-187.655 429.313,-188.996 432.444,-195.257"/>
</g>
<!-- Node3 -->
<g id="node5" class="node"><title>Node3</title>
<a xlink:href="mathUtils_8h.html" target="_top" xlink:title="mathUtils.h">
<polygon fill="white" stroke="red" points="378.632,-0.5 378.632,-19.5 443.632,-19.5 443.632,-0.5 378.632,-0.5"/>
<text text-anchor="middle" x="411.132" y="-7.5" font-family="FreeSans" font-size="10.00">mathUtils.h</text>
</a>
</g>
<!-- Node2&#45;&gt;Node3 -->
<g id="edge4" class="edge"><title>Node2&#45;&gt;Node3</title>
<path fill="none" stroke="midnightblue" d="M393.874,-168.825C458.924,-156.837 572.241,-135.523 575.132,-132 586.593,-118.031 587.626,-79.56 567.132,-56 539.096,-23.7716 489.588,-13.9302 453.853,-11.2649"/>
<polygon fill="midnightblue" stroke="midnightblue" points="453.894,-7.7614 443.707,-10.6707 453.485,-14.7494 453.894,-7.7614"/>
</g>
<!-- Node4 -->
<g id="node7" class="node"><title>Node4</title>
<a xlink:href="sundialsUtils_8h.html" target="_top" xlink:title="sundialsUtils.h">
<polygon fill="white" stroke="red" points="17.1315,-112.5 17.1315,-131.5 97.1315,-131.5 97.1315,-112.5 17.1315,-112.5"/>
<text text-anchor="middle" x="57.1315" y="-119.5" font-family="FreeSans" font-size="10.00">sundialsUtils.h</text>
</a>
</g>
<!-- Node2&#45;&gt;Node4 -->
<g id="edge6" class="edge"><title>Node2&#45;&gt;Node4</title>
<path fill="none" stroke="midnightblue" d="M304.465,-168.74C251.374,-158.922 163.006,-142.58 107.52,-132.318"/>
<polygon fill="midnightblue" stroke="midnightblue" points="108.028,-128.853 97.5585,-130.476 106.755,-135.736 108.028,-128.853"/>
</g>
<!-- Node5 -->
<g id="node9" class="node"><title>Node5</title>
<a xlink:href="chemistry0d_8h.html" target="_top" xlink:title="chemistry0d.h">
<polygon fill="white" stroke="red" points="219.132,-112.5 219.132,-131.5 297.132,-131.5 297.132,-112.5 219.132,-112.5"/>
<text text-anchor="middle" x="258.132" y="-119.5" font-family="FreeSans" font-size="10.00">chemistry0d.h</text>
</a>
</g>
<!-- Node2&#45;&gt;Node5 -->
<g id="edge8" class="edge"><title>Node2&#45;&gt;Node5</title>
<path fill="none" stroke="midnightblue" d="M334.511,-168.324C320.183,-159.822 298.119,-146.729 281.383,-136.797"/>
<polygon fill="midnightblue" stroke="midnightblue" points="283.102,-133.748 272.716,-131.655 279.53,-139.768 283.102,-133.748"/>
</g>
<!-- Node7 -->
<g id="node15" class="node"><title>Node7</title>
<a xlink:href="strainFunction_8h.html" target="_top" xlink:title="strainFunction.h">
<polygon fill="white" stroke="black" points="115.632,-112.5 115.632,-131.5 200.632,-131.5 200.632,-112.5 115.632,-112.5"/>
<text text-anchor="middle" x="158.132" y="-119.5" font-family="FreeSans" font-size="10.00">strainFunction.h</text>
</a>
</g>
<!-- Node2&#45;&gt;Node7 -->
<g id="edge16" class="edge"><title>Node2&#45;&gt;Node7</title>
<path fill="none" stroke="midnightblue" d="M318.867,-168.444C286.176,-159.201 233.95,-144.436 197.949,-134.257"/>
<polygon fill="midnightblue" stroke="midnightblue" points="198.83,-130.869 188.254,-131.516 196.925,-137.605 198.83,-130.869"/>
</g>
<!-- Node8 -->
<g id="node18" class="node"><title>Node8</title>
<a xlink:href="perfTimer_8h.html" target="_top" xlink:title="perfTimer.h">
<polygon fill="white" stroke="red" points="315.132,-112.5 315.132,-131.5 383.132,-131.5 383.132,-112.5 315.132,-112.5"/>
<text text-anchor="middle" x="349.132" y="-119.5" font-family="FreeSans" font-size="10.00">perfTimer.h</text>
</a>
</g>
<!-- Node2&#45;&gt;Node8 -->
<g id="edge20" class="edge"><title>Node2&#45;&gt;Node8</title>
<path fill="none" stroke="midnightblue" d="M349.132,-168.083C349.132,-161.006 349.132,-150.861 349.132,-141.986"/>
<polygon fill="midnightblue" stroke="midnightblue" points="352.632,-141.751 349.132,-131.751 345.632,-141.751 352.632,-141.751"/>
</g>
<!-- Node9 -->
<g id="node20" class="node"><title>Node9</title>
<a xlink:href="qssintegrator_8h.html" target="_top" xlink:title="qssintegrator.h">
<polygon fill="white" stroke="black" points="369.632,-56.5 369.632,-75.5 452.632,-75.5 452.632,-56.5 369.632,-56.5"/>
<text text-anchor="middle" x="411.132" y="-63.5" font-family="FreeSans" font-size="10.00">qssintegrator.h</text>
</a>
</g>
<!-- Node2&#45;&gt;Node9 -->
<g id="edge22" class="edge"><title>Node2&#45;&gt;Node9</title>
<path fill="none" stroke="midnightblue" d="M359.832,-168.448C369.58,-160.116 383.704,-146.599 392.132,-132 400.489,-117.522 405.424,-99.0749 408.16,-85.534"/>
<polygon fill="midnightblue" stroke="midnightblue" points="411.638,-85.9708 409.968,-75.5084 404.749,-84.7284 411.638,-85.9708"/>
</g>
<!-- Node10 -->
<g id="node23" class="node"><title>Node10</title>
<a xlink:href="quasi2d_8h.html" target="_top" xlink:title="quasi2d.h">
<polygon fill="white" stroke="red" points="499.132,-56.5 499.132,-75.5 559.132,-75.5 559.132,-56.5 499.132,-56.5"/>
<text text-anchor="middle" x="529.132" y="-63.5" font-family="FreeSans" font-size="10.00">quasi2d.h</text>
</a>
</g>
<!-- Node2&#45;&gt;Node10 -->
<g id="edge26" class="edge"><title>Node2&#45;&gt;Node10</title>
<path fill="none" stroke="midnightblue" d="M393.818,-168.849C453.648,-157.725 552.936,-138.434 558.132,-132 569.943,-117.374 557.473,-97.1751 545.411,-83.1929"/>
<polygon fill="midnightblue" stroke="midnightblue" points="547.902,-80.732 538.542,-75.7679 542.763,-85.4855 547.902,-80.732"/>
</g>
<!-- Node11 -->
<g id="node26" class="node"><title>Node11</title>
<polygon fill="white" stroke="#bfbfbf" points="439.132,-112.5 439.132,-131.5 549.132,-131.5 549.132,-112.5 439.132,-112.5"/>
<text text-anchor="middle" x="494.132" y="-119.5" font-family="FreeSans" font-size="10.00">boost/shared_ptr.hpp</text>
</g>
<!-- Node2&#45;&gt;Node11 -->
<g id="edge30" class="edge"><title>Node2&#45;&gt;Node11</title>
<path fill="none" stroke="midnightblue" d="M372.107,-168.444C396.288,-159.438 434.55,-145.189 461.778,-135.049"/>
<polygon fill="midnightblue" stroke="midnightblue" points="463.114,-138.286 471.263,-131.516 460.671,-131.727 463.114,-138.286"/>
</g>
<!-- Node5&#45;&gt;Node3 -->
<g id="edge10" class="edge"><title>Node5&#45;&gt;Node3</title>
<path fill="none" stroke="midnightblue" d="M270.137,-112.368C296.28,-93.5728 358.599,-48.7684 390.917,-25.5334"/>
<polygon fill="midnightblue" stroke="midnightblue" points="393.105,-28.2707 399.182,-19.5914 389.019,-22.5871 393.105,-28.2707"/>
</g>
<!-- Node5&#45;&gt;Node6 -->
<g id="edge12" class="edge"><title>Node5&#45;&gt;Node6</title>
<path fill="none" stroke="midnightblue" d="M249.875,-112.083C242.667,-104.298 232.022,-92.8015 223.286,-83.3665"/>
<polygon fill="midnightblue" stroke="midnightblue" points="225.597,-80.7108 216.234,-75.7511 220.46,-85.4666 225.597,-80.7108"/>
</g>
<!-- Node6&#45;&gt;Node3 -->
<g id="edge14" class="edge"><title>Node6&#45;&gt;Node3</title>
<path fill="none" stroke="midnightblue" d="M240.297,-56.4435C275.191,-47.1616 331.025,-32.3093 369.302,-22.127"/>
<polygon fill="midnightblue" stroke="midnightblue" points="370.352,-25.4696 379.116,-19.5164 368.552,-18.7048 370.352,-25.4696"/>
</g>
<!-- Node7&#45;&gt;Node6 -->
<g id="edge18" class="edge"><title>Node7&#45;&gt;Node6</title>
<path fill="none" stroke="midnightblue" d="M166.388,-112.083C173.596,-104.298 184.241,-92.8015 192.977,-83.3665"/>
<polygon fill="midnightblue" stroke="midnightblue" points="195.803,-85.4666 200.029,-75.7511 190.666,-80.7108 195.803,-85.4666"/>
</g>
<!-- Node9&#45;&gt;Node3 -->
<g id="edge24" class="edge"><title>Node9&#45;&gt;Node3</title>
<path fill="none" stroke="midnightblue" d="M411.132,-56.083C411.132,-49.0059 411.132,-38.8611 411.132,-29.9865"/>
<polygon fill="midnightblue" stroke="midnightblue" points="414.632,-29.751 411.132,-19.7511 407.632,-29.7511 414.632,-29.751"/>
</g>
<!-- Node10&#45;&gt;Node3 -->
<g id="edge28" class="edge"><title>Node10&#45;&gt;Node3</title>
<path fill="none" stroke="midnightblue" d="M510.434,-56.4435C491.187,-47.6356 460.979,-33.8116 438.931,-23.722"/>
<polygon fill="midnightblue" stroke="midnightblue" points="440.291,-20.4951 429.742,-19.5164 437.378,-26.8603 440.291,-20.4951"/>
</g>
</g>
</svg>
