<?xml version="1.0" encoding="UTF-8" standalone="no"?>
<!DOCTYPE svg PUBLIC "-//W3C//DTD SVG 1.1//EN"
 "http://www.w3.org/Graphics/SVG/1.1/DTD/svg11.dtd">
<!-- Generated by graphviz version 2.28.0 (20120425.2022)
 -->
<!-- Title: G Pages: 1 -->
<svg width="3030pt" height="320pt"
 viewBox="0.00 0.00 3030.00 320.00" xmlns="http://www.w3.org/2000/svg" xmlns:xlink="http://www.w3.org/1999/xlink">
<g id="graph1" class="graph" transform="scale(1 1) rotate(0) translate(4 316)">
<title>G</title>
<polygon fill="white" stroke="white" points="-4,5 -4,-316 3027,-316 3027,5 -4,5"/>
<!-- Node1 -->
<g id="node1" class="node"><title>Node1</title>
<polygon fill="#bfbfbf" stroke="black" points="1283.5,-292.5 1283.5,-311.5 1388.5,-311.5 1388.5,-292.5 1283.5,-292.5"/>
<text text-anchor="middle" x="1336" y="-299.5" font-family="FreeSans" font-size="10.00">src/sourceSystem.h</text>
</g>
<!-- Node2 -->
<g id="node3" class="node"><title>Node2</title>
<a xlink:href="mathUtils_8h.html" target="_top" xlink:title="mathUtils.h">
<polygon fill="white" stroke="black" points="1074.5,-112.5 1074.5,-131.5 1139.5,-131.5 1139.5,-112.5 1074.5,-112.5"/>
<text text-anchor="middle" x="1107" y="-119.5" font-family="FreeSans" font-size="10.00">mathUtils.h</text>
</a>
</g>
<!-- Node1&#45;&gt;Node2 -->
<g id="edge2" class="edge"><title>Node1&#45;&gt;Node2</title>
<path fill="none" stroke="midnightblue" d="M1283.13,-300.685C1060.74,-298.82 208.971,-286.067 130,-200 120.385,-189.521 120.177,-178.285 130,-168 162.696,-133.764 880.07,-125.025 1064.22,-123.343"/>
<polygon fill="midnightblue" stroke="midnightblue" points="1064.37,-126.842 1074.34,-123.253 1064.31,-119.842 1064.37,-126.842"/>
</g>
<!-- Node11 -->
<g id="node23" class="node"><title>Node11</title>
<a xlink:href="sundialsUtils_8h.html" target="_top" xlink:title="sundialsUtils.h">
<polygon fill="white" stroke="black" points="2031,-236.5 2031,-255.5 2111,-255.5 2111,-236.5 2031,-236.5"/>
<text text-anchor="middle" x="2071" y="-243.5" font-family="FreeSans" font-size="10.00">sundialsUtils.h</text>
</a>
</g>
<!-- Node1&#45;&gt;Node11 -->
<g id="edge24" class="edge"><title>Node1&#45;&gt;Node11</title>
<path fill="none" stroke="midnightblue" d="M1388.56,-297.138C1524.52,-287.149 1886.47,-260.557 2020.32,-250.724"/>
<polygon fill="midnightblue" stroke="midnightblue" points="2020.96,-254.186 2030.68,-249.962 2020.45,-247.205 2020.96,-254.186"/>
</g>
<!-- Node22 -->
<g id="node47" class="node"><title>Node22</title>
<a xlink:href="chemistry0d_8h.html" target="_top" xlink:title="chemistry0d.h">
<polygon fill="white" stroke="black" points="789,-236.5 789,-255.5 867,-255.5 867,-236.5 789,-236.5"/>
<text text-anchor="middle" x="828" y="-243.5" font-family="FreeSans" font-size="10.00">chemistry0d.h</text>
</a>
</g>
<!-- Node1&#45;&gt;Node22 -->
<g id="edge50" class="edge"><title>Node1&#45;&gt;Node22</title>
<path fill="none" stroke="midnightblue" d="M1283.07,-295.374C1184.26,-284.87 973.071,-262.421 877.18,-252.228"/>
<polygon fill="midnightblue" stroke="midnightblue" points="877.483,-248.74 867.169,-251.164 876.743,-255.701 877.483,-248.74"/>
</g>
<!-- Node32 -->
<g id="node70" class="node"><title>Node32</title>
<a xlink:href="strainFunction_8h.html" target="_top" xlink:title="strainFunction.h">
<polygon fill="white" stroke="black" points="1256.5,-236.5 1256.5,-255.5 1341.5,-255.5 1341.5,-236.5 1256.5,-236.5"/>
<text text-anchor="middle" x="1299" y="-243.5" font-family="FreeSans" font-size="10.00">strainFunction.h</text>
</a>
</g>
<!-- Node1&#45;&gt;Node32 -->
<g id="edge76" class="edge"><title>Node1&#45;&gt;Node32</title>
<path fill="none" stroke="midnightblue" d="M1329.89,-292.083C1324.72,-284.534 1317.15,-273.495 1310.81,-264.23"/>
<polygon fill="midnightblue" stroke="midnightblue" points="1313.54,-262.022 1305,-255.751 1307.76,-265.979 1313.54,-262.022"/>
</g>
<!-- Node33 -->
<g id="node73" class="node"><title>Node33</title>
<a xlink:href="perfTimer_8h.html" target="_top" xlink:title="perfTimer.h">
<polygon fill="white" stroke="black" points="2674,-236.5 2674,-255.5 2742,-255.5 2742,-236.5 2674,-236.5"/>
<text text-anchor="middle" x="2708" y="-243.5" font-family="FreeSans" font-size="10.00">perfTimer.h</text>
</a>
</g>
<!-- Node1&#45;&gt;Node33 -->
<g id="edge80" class="edge"><title>Node1&#45;&gt;Node33</title>
<path fill="none" stroke="midnightblue" d="M1388.53,-298.933C1609.31,-290.243 2460.09,-256.757 2663.93,-248.735"/>
<polygon fill="midnightblue" stroke="midnightblue" points="2664.11,-252.23 2673.97,-248.34 2663.84,-245.236 2664.11,-252.23"/>
</g>
<!-- Node37 -->
<g id="node82" class="node"><title>Node37</title>
<a xlink:href="qssintegrator_8h.html" target="_top" xlink:title="qssintegrator.h">
<polygon fill="white" stroke="black" points="-0.5,-236.5 -0.5,-255.5 82.5,-255.5 82.5,-236.5 -0.5,-236.5"/>
<text text-anchor="middle" x="41" y="-243.5" font-family="FreeSans" font-size="10.00">qssintegrator.h</text>
</a>
</g>
<!-- Node1&#45;&gt;Node37 -->
<g id="edge90" class="edge"><title>Node1&#45;&gt;Node37</title>
<path fill="none" stroke="midnightblue" d="M1283.31,-301.399C1111.92,-302.205 554.888,-300.938 97,-256 95.53,-255.856 94.04,-255.697 92.5374,-255.527"/>
<polygon fill="midnightblue" stroke="midnightblue" points="92.8772,-252.042 82.516,-254.255 91.9956,-258.987 92.8772,-252.042"/>
</g>
<!-- Node38 -->
<g id="node85" class="node"><title>Node38</title>
<a xlink:href="quasi2d_8h.html" target="_top" xlink:title="quasi2d.h">
<polygon fill="white" stroke="black" points="1351,-174.5 1351,-193.5 1411,-193.5 1411,-174.5 1351,-174.5"/>
<text text-anchor="middle" x="1381" y="-181.5" font-family="FreeSans" font-size="10.00">quasi2d.h</text>
</a>
</g>
<!-- Node1&#45;&gt;Node38 -->
<g id="edge94" class="edge"><title>Node1&#45;&gt;Node38</title>
<path fill="none" stroke="midnightblue" d="M1339.38,-292.281C1346.72,-273.379 1364.2,-228.295 1374.02,-203"/>
<polygon fill="midnightblue" stroke="midnightblue" points="1377.35,-204.094 1377.7,-193.505 1370.82,-201.562 1377.35,-204.094"/>
</g>
<!-- Node39 -->
<g id="node90" class="node"><title>Node39</title>
<polygon fill="white" stroke="#bfbfbf" points="2760,-236.5 2760,-255.5 2870,-255.5 2870,-236.5 2760,-236.5"/>
<text text-anchor="middle" x="2815" y="-243.5" font-family="FreeSans" font-size="10.00">boost/shared_ptr.hpp</text>
</g>
<!-- Node1&#45;&gt;Node39 -->
<g id="edge102" class="edge"><title>Node1&#45;&gt;Node39</title>
<path fill="none" stroke="midnightblue" d="M1388.8,-301.372C1574.18,-302.243 2212.66,-301.582 2749.61,-256.014"/>
<polygon fill="midnightblue" stroke="midnightblue" points="2750.22,-259.475 2759.88,-255.135 2749.62,-252.5 2750.22,-259.475"/>
</g>
<!-- Node3 -->
<g id="node5" class="node"><title>Node3</title>
<polygon fill="white" stroke="#bfbfbf" points="1253,-56.5 1253,-75.5 1297,-75.5 1297,-56.5 1253,-56.5"/>
<text text-anchor="middle" x="1275" y="-63.5" font-family="FreeSans" font-size="10.00">vector</text>
</g>
<!-- Node2&#45;&gt;Node3 -->
<g id="edge4" class="edge"><title>Node2&#45;&gt;Node3</title>
<path fill="none" stroke="midnightblue" d="M1133.62,-112.444C1163.34,-102.89 1211.42,-87.436 1243.12,-77.2461"/>
<polygon fill="midnightblue" stroke="midnightblue" points="1244.35,-80.5291 1252.8,-74.1368 1242.21,-73.8649 1244.35,-80.5291"/>
</g>
<!-- Node4 -->
<g id="node7" class="node"><title>Node4</title>
<polygon fill="white" stroke="#bfbfbf" points="845,-56.5 845,-75.5 889,-75.5 889,-56.5 845,-56.5"/>
<text text-anchor="middle" x="867" y="-63.5" font-family="FreeSans" font-size="10.00">cmath</text>
</g>
<!-- Node2&#45;&gt;Node4 -->
<g id="edge6" class="edge"><title>Node2&#45;&gt;Node4</title>
<path fill="none" stroke="midnightblue" d="M1074.43,-114.596C1035.29,-106.759 967.417,-92.724 899.371,-75.9615"/>
<polygon fill="midnightblue" stroke="midnightblue" points="899.882,-72.4823 889.333,-73.469 898.195,-79.276 899.882,-72.4823"/>
</g>
<!-- Node5 -->
<g id="node9" class="node"><title>Node5</title>
<polygon fill="white" stroke="#bfbfbf" points="1079,-0.5 1079,-19.5 1135,-19.5 1135,-0.5 1079,-0.5"/>
<text text-anchor="middle" x="1107" y="-7.5" font-family="FreeSans" font-size="10.00">iostream</text>
</g>
<!-- Node2&#45;&gt;Node5 -->
<g id="edge8" class="edge"><title>Node2&#45;&gt;Node5</title>
<path fill="none" stroke="midnightblue" d="M1074.3,-120.618C1009.02,-119.091 866.222,-111.654 836,-76 830.252,-69.2193 830.252,-62.7807 836,-56 865.346,-21.3798 1000.84,-13.364 1068.43,-11.5298"/>
<polygon fill="midnightblue" stroke="midnightblue" points="1068.76,-15.0231 1078.67,-11.2854 1068.59,-8.02511 1068.76,-15.0231"/>
</g>
<!-- Node6 -->
<g id="node11" class="node"><title>Node6</title>
<polygon fill="white" stroke="#bfbfbf" points="907.5,-56.5 907.5,-75.5 960.5,-75.5 960.5,-56.5 907.5,-56.5"/>
<text text-anchor="middle" x="934" y="-63.5" font-family="FreeSans" font-size="10.00">sstream</text>
</g>
<!-- Node2&#45;&gt;Node6 -->
<g id="edge10" class="edge"><title>Node2&#45;&gt;Node6</title>
<path fill="none" stroke="midnightblue" d="M1079.59,-112.444C1050.06,-103.226 1002.93,-88.5157 970.331,-78.3402"/>
<polygon fill="midnightblue" stroke="midnightblue" points="971.304,-74.9776 960.716,-75.339 969.219,-81.6597 971.304,-74.9776"/>
</g>
<!-- Node7 -->
<g id="node13" class="node"><title>Node7</title>
<polygon fill="white" stroke="#bfbfbf" points="1247.5,-0.5 1247.5,-19.5 1288.5,-19.5 1288.5,-0.5 1247.5,-0.5"/>
<text text-anchor="middle" x="1268" y="-7.5" font-family="FreeSans" font-size="10.00">string</text>
</g>
<!-- Node2&#45;&gt;Node7 -->
<g id="edge12" class="edge"><title>Node2&#45;&gt;Node7</title>
<path fill="none" stroke="midnightblue" d="M1117.13,-112.305C1132.42,-99.3541 1162.54,-74.5361 1190,-56 1206.95,-44.5543 1226.95,-33.0532 1242.46,-24.5432"/>
<polygon fill="midnightblue" stroke="midnightblue" points="1244.34,-27.5034 1251.46,-19.6584 1241,-21.3505 1244.34,-27.5034"/>
</g>
<!-- Node8 -->
<g id="node15" class="node"><title>Node8</title>
<polygon fill="white" stroke="#bfbfbf" points="1199,-56.5 1199,-75.5 1235,-75.5 1235,-56.5 1199,-56.5"/>
<text text-anchor="middle" x="1217" y="-63.5" font-family="FreeSans" font-size="10.00">map</text>
</g>
<!-- Node2&#45;&gt;Node8 -->
<g id="edge14" class="edge"><title>Node2&#45;&gt;Node8</title>
<path fill="none" stroke="midnightblue" d="M1124.67,-112.324C1142.39,-103.625 1169.9,-90.1202 1190.29,-80.113"/>
<polygon fill="midnightblue" stroke="midnightblue" points="1191.94,-83.2031 1199.37,-75.6545 1188.85,-76.9195 1191.94,-83.2031"/>
</g>
<!-- Node9 -->
<g id="node17" class="node"><title>Node9</title>
<a xlink:href="debugUtils_8h.html" target="_top" xlink:title="debugUtils.h">
<polygon fill="white" stroke="red" points="1071.5,-56.5 1071.5,-75.5 1142.5,-75.5 1142.5,-56.5 1071.5,-56.5"/>
<text text-anchor="middle" x="1107" y="-63.5" font-family="FreeSans" font-size="10.00">debugUtils.h</text>
</a>
</g>
<!-- Node2&#45;&gt;Node9 -->
<g id="edge16" class="edge"><title>Node2&#45;&gt;Node9</title>
<path fill="none" stroke="midnightblue" d="M1107,-112.083C1107,-105.006 1107,-94.8611 1107,-85.9865"/>
<polygon fill="midnightblue" stroke="midnightblue" points="1110.5,-85.751 1107,-75.7511 1103.5,-85.7511 1110.5,-85.751"/>
</g>
<!-- Node10 -->
<g id="node21" class="node"><title>Node10</title>
<polygon fill="white" stroke="#bfbfbf" points="978.5,-56.5 978.5,-75.5 1053.5,-75.5 1053.5,-56.5 978.5,-56.5"/>
<text text-anchor="middle" x="1016" y="-63.5" font-family="FreeSans" font-size="10.00">Eigen/Dense</text>
</g>
<!-- Node2&#45;&gt;Node10 -->
<g id="edge22" class="edge"><title>Node2&#45;&gt;Node10</title>
<path fill="none" stroke="midnightblue" d="M1092.38,-112.324C1078.05,-103.822 1055.99,-90.7288 1039.25,-80.7975"/>
<polygon fill="midnightblue" stroke="midnightblue" points="1040.97,-77.7478 1030.58,-75.6545 1037.4,-83.7677 1040.97,-77.7478"/>
</g>
<!-- Node9&#45;&gt;Node5 -->
<g id="edge20" class="edge"><title>Node9&#45;&gt;Node5</title>
<path fill="none" stroke="midnightblue" d="M1107,-56.083C1107,-49.0059 1107,-38.8611 1107,-29.9865"/>
<polygon fill="midnightblue" stroke="midnightblue" points="1110.5,-29.751 1107,-19.7511 1103.5,-29.7511 1110.5,-29.751"/>
</g>
<!-- Node9&#45;&gt;Node7 -->
<g id="edge18" class="edge"><title>Node9&#45;&gt;Node7</title>
<path fill="none" stroke="midnightblue" d="M1132.51,-56.4435C1161.03,-46.8782 1207.19,-31.3969 1237.57,-21.2075"/>
<polygon fill="midnightblue" stroke="midnightblue" points="1238.85,-24.4693 1247.22,-17.971 1236.62,-17.8327 1238.85,-24.4693"/>
</g>
<!-- Node11&#45;&gt;Node3 -->
<g id="edge46" class="edge"><title>Node11&#45;&gt;Node3</title>
<path fill="none" stroke="midnightblue" d="M2071.6,-236.259C2072.19,-220.086 2070.88,-185.546 2051,-168 1938.17,-68.4322 1439.55,-65.5538 1307.29,-66.5845"/>
<polygon fill="midnightblue" stroke="midnightblue" points="1306.99,-63.087 1297.03,-66.6786 1307.06,-70.0867 1306.99,-63.087"/>
</g>
<!-- Node11&#45;&gt;Node5 -->
<g id="edge44" class="edge"><title>Node11&#45;&gt;Node5</title>
<path fill="none" stroke="midnightblue" d="M2030.89,-245.492C1911.78,-246.419 1562.09,-245.126 1459,-200 1437.54,-190.606 1325.7,-66.9767 1305,-56 1253.75,-28.8194 1186.58,-17.9886 1145.13,-13.7191"/>
<polygon fill="midnightblue" stroke="midnightblue" points="1145.46,-10.2346 1135.17,-12.769 1144.79,-17.2029 1145.46,-10.2346"/>
</g>
<!-- Node12 -->
<g id="node25" class="node"><title>Node12</title>
<polygon fill="white" stroke="#bfbfbf" points="1467.5,-174.5 1467.5,-193.5 1590.5,-193.5 1590.5,-174.5 1467.5,-174.5"/>
<text text-anchor="middle" x="1529" y="-181.5" font-family="FreeSans" font-size="10.00">nvector/nvector_serial.h</text>
</g>
<!-- Node11&#45;&gt;Node12 -->
<g id="edge26" class="edge"><title>Node11&#45;&gt;Node12</title>
<path fill="none" stroke="midnightblue" d="M2030.8,-242.696C1949.23,-237.682 1758.54,-224.242 1600,-200 1591.94,-198.768 1583.42,-197.201 1575.19,-195.546"/>
<polygon fill="midnightblue" stroke="midnightblue" points="1575.84,-192.107 1565.34,-193.502 1574.42,-198.961 1575.84,-192.107"/>
</g>
<!-- Node13 -->
<g id="node27" class="node"><title>Node13</title>
<polygon fill="white" stroke="#bfbfbf" points="1609,-174.5 1609,-193.5 1745,-193.5 1745,-174.5 1609,-174.5"/>
<text text-anchor="middle" x="1677" y="-181.5" font-family="FreeSans" font-size="10.00">sundials/sundials_dense.h</text>
</g>
<!-- Node11&#45;&gt;Node13 -->
<g id="edge28" class="edge"><title>Node11&#45;&gt;Node13</title>
<path fill="none" stroke="midnightblue" d="M2030.86,-239.975C1970.6,-232.277 1853.22,-216.695 1754,-200 1745.88,-198.634 1737.31,-197.078 1728.94,-195.496"/>
<polygon fill="midnightblue" stroke="midnightblue" points="1729.37,-192.014 1718.89,-193.566 1728.05,-198.889 1729.37,-192.014"/>
</g>
<!-- Node14 -->
<g id="node29" class="node"><title>Node14</title>
<polygon fill="white" stroke="#bfbfbf" points="1763,-174.5 1763,-193.5 1893,-193.5 1893,-174.5 1763,-174.5"/>
<text text-anchor="middle" x="1828" y="-181.5" font-family="FreeSans" font-size="10.00">sundials/sundials_band.h</text>
</g>
<!-- Node11&#45;&gt;Node14 -->
<g id="edge30" class="edge"><title>Node11&#45;&gt;Node14</title>
<path fill="none" stroke="midnightblue" d="M2036.44,-236.467C1993.35,-225.827 1919.62,-207.622 1872.39,-195.959"/>
<polygon fill="midnightblue" stroke="midnightblue" points="1872.99,-192.503 1862.44,-193.503 1871.31,-199.299 1872.99,-192.503"/>
</g>
<!-- Node15 -->
<g id="node31" class="node"><title>Node15</title>
<polygon fill="white" stroke="#bfbfbf" points="1911.5,-174.5 1911.5,-193.5 2042.5,-193.5 2042.5,-174.5 1911.5,-174.5"/>
<text text-anchor="middle" x="1977" y="-181.5" font-family="FreeSans" font-size="10.00">sundials/sundials_types.h</text>
</g>
<!-- Node11&#45;&gt;Node15 -->
<g id="edge32" class="edge"><title>Node11&#45;&gt;Node15</title>
<path fill="none" stroke="midnightblue" d="M2057.53,-236.403C2042.32,-226.691 2017.31,-210.732 1999.2,-199.17"/>
<polygon fill="midnightblue" stroke="midnightblue" points="2000.76,-196.011 1990.44,-193.581 1996.99,-201.911 2000.76,-196.011"/>
</g>
<!-- Node16 -->
<g id="node33" class="node"><title>Node16</title>
<polygon fill="white" stroke="#bfbfbf" points="2099,-174.5 2099,-193.5 2183,-193.5 2183,-174.5 2099,-174.5"/>
<text text-anchor="middle" x="2141" y="-181.5" font-family="FreeSans" font-size="10.00">cvode/cvode.h</text>
</g>
<!-- Node11&#45;&gt;Node16 -->
<g id="edge34" class="edge"><title>Node11&#45;&gt;Node16</title>
<path fill="none" stroke="midnightblue" d="M2081.03,-236.403C2092.05,-226.958 2109.96,-211.606 2123.34,-200.134"/>
<polygon fill="midnightblue" stroke="midnightblue" points="2125.67,-202.746 2130.99,-193.581 2121.12,-197.431 2125.67,-202.746"/>
</g>
<!-- Node17 -->
<g id="node35" class="node"><title>Node17</title>
<polygon fill="white" stroke="#bfbfbf" points="2201,-174.5 2201,-193.5 2319,-193.5 2319,-174.5 2201,-174.5"/>
<text text-anchor="middle" x="2260" y="-181.5" font-family="FreeSans" font-size="10.00">cvode/cvode_dense.h</text>
</g>
<!-- Node11&#45;&gt;Node17 -->
<g id="edge36" class="edge"><title>Node11&#45;&gt;Node17</title>
<path fill="none" stroke="midnightblue" d="M2098.08,-236.403C2130.92,-225.978 2186.43,-208.356 2223.15,-196.699"/>
<polygon fill="midnightblue" stroke="midnightblue" points="2224.5,-199.942 2232.97,-193.581 2222.38,-193.271 2224.5,-199.942"/>
</g>
<!-- Node18 -->
<g id="node37" class="node"><title>Node18</title>
<polygon fill="white" stroke="#bfbfbf" points="2337,-174.5 2337,-193.5 2449,-193.5 2449,-174.5 2337,-174.5"/>
<text text-anchor="middle" x="2393" y="-181.5" font-family="FreeSans" font-size="10.00">cvode/cvode_band.h</text>
</g>
<!-- Node11&#45;&gt;Node18 -->
<g id="edge38" class="edge"><title>Node11&#45;&gt;Node18</title>
<path fill="none" stroke="midnightblue" d="M2111.19,-238.646C2161.88,-230.475 2251.64,-215.484 2328,-200 2334.33,-198.716 2340.99,-197.28 2347.53,-195.818"/>
<polygon fill="midnightblue" stroke="midnightblue" points="2348.68,-199.147 2357.65,-193.518 2347.13,-192.321 2348.68,-199.147"/>
</g>
<!-- Node19 -->
<g id="node39" class="node"><title>Node19</title>
<polygon fill="white" stroke="#bfbfbf" points="2467,-174.5 2467,-193.5 2523,-193.5 2523,-174.5 2467,-174.5"/>
<text text-anchor="middle" x="2495" y="-181.5" font-family="FreeSans" font-size="10.00">ida/ida.h</text>
</g>
<!-- Node11&#45;&gt;Node19 -->
<g id="edge40" class="edge"><title>Node11&#45;&gt;Node19</title>
<path fill="none" stroke="midnightblue" d="M2111.07,-243.748C2181.87,-240.783 2333.33,-231.054 2457,-200 2460.07,-199.23 2463.22,-198.274 2466.33,-197.219"/>
<polygon fill="midnightblue" stroke="midnightblue" points="2467.84,-200.392 2475.99,-193.624 2465.39,-193.832 2467.84,-200.392"/>
</g>
<!-- Node20 -->
<g id="node41" class="node"><title>Node20</title>
<polygon fill="white" stroke="#bfbfbf" points="2540.5,-174.5 2540.5,-193.5 2633.5,-193.5 2633.5,-174.5 2540.5,-174.5"/>
<text text-anchor="middle" x="2587" y="-181.5" font-family="FreeSans" font-size="10.00">ida/ida_spbcgs.h</text>
</g>
<!-- Node11&#45;&gt;Node20 -->
<g id="edge42" class="edge"><title>Node11&#45;&gt;Node20</title>
<path fill="none" stroke="midnightblue" d="M2111.3,-243.284C2191.69,-239.373 2377.44,-227.882 2531,-200 2536.84,-198.94 2542.95,-197.573 2548.91,-196.097"/>
<polygon fill="midnightblue" stroke="midnightblue" points="2549.92,-199.451 2558.72,-193.544 2548.16,-192.677 2549.92,-199.451"/>
</g>
<!-- Node21 -->
<g id="node45" class="node"><title>Node21</title>
<polygon fill="white" stroke="#bfbfbf" points="2651.5,-174.5 2651.5,-193.5 2694.5,-193.5 2694.5,-174.5 2651.5,-174.5"/>
<text text-anchor="middle" x="2673" y="-181.5" font-family="FreeSans" font-size="10.00">time.h</text>
</g>
<!-- Node11&#45;&gt;Node21 -->
<g id="edge48" class="edge"><title>Node11&#45;&gt;Node21</title>
<path fill="none" stroke="midnightblue" d="M2111.13,-243.769C2223.83,-240.005 2541.58,-227.214 2642,-200 2644.2,-199.403 2646.44,-198.65 2648.65,-197.801"/>
<polygon fill="midnightblue" stroke="midnightblue" points="2650.27,-200.911 2657.99,-193.652 2647.43,-194.515 2650.27,-200.911"/>
</g>
<!-- Node22&#45;&gt;Node2 -->
<g id="edge68" class="edge"><title>Node22&#45;&gt;Node2</title>
<path fill="none" stroke="midnightblue" d="M867.306,-243.301C960.603,-238.867 1189.33,-225.482 1212,-200 1221.45,-189.374 1219.83,-179.873 1212,-168 1198.11,-146.943 1172.11,-135.701 1149.46,-129.72"/>
<polygon fill="midnightblue" stroke="midnightblue" points="1150.21,-126.301 1139.67,-127.396 1148.59,-133.112 1150.21,-126.301"/>
</g>
<!-- Node23 -->
<g id="node49" class="node"><title>Node23</title>
<polygon fill="white" stroke="#bfbfbf" points="139.5,-174.5 139.5,-193.5 258.5,-193.5 258.5,-174.5 139.5,-174.5"/>
<text text-anchor="middle" x="199" y="-181.5" font-family="FreeSans" font-size="10.00">cantera/IdealGasMix.h</text>
</g>
<!-- Node22&#45;&gt;Node23 -->
<g id="edge52" class="edge"><title>Node22&#45;&gt;Node23</title>
<path fill="none" stroke="midnightblue" d="M788.681,-243.7C696.883,-240.261 461.472,-229.109 267,-200 259.266,-198.842 251.099,-197.312 243.211,-195.671"/>
<polygon fill="midnightblue" stroke="midnightblue" points="243.937,-192.247 233.423,-193.554 242.456,-199.089 243.937,-192.247"/>
</g>
<!-- Node24 -->
<g id="node51" class="node"><title>Node24</title>
<polygon fill="white" stroke="#bfbfbf" points="276.5,-174.5 276.5,-193.5 385.5,-193.5 385.5,-174.5 276.5,-174.5"/>
<text text-anchor="middle" x="331" y="-181.5" font-family="FreeSans" font-size="10.00">cantera/equilibrium.h</text>
</g>
<!-- Node22&#45;&gt;Node24 -->
<g id="edge54" class="edge"><title>Node22&#45;&gt;Node24</title>
<path fill="none" stroke="midnightblue" d="M788.963,-242.607C712.799,-237.571 539.213,-224.293 395,-200 388.119,-198.841 380.875,-197.38 373.833,-195.827"/>
<polygon fill="midnightblue" stroke="midnightblue" points="374.255,-192.333 363.726,-193.511 372.691,-199.157 374.255,-192.333"/>
</g>
<!-- Node25 -->
<g id="node53" class="node"><title>Node25</title>
<polygon fill="white" stroke="#bfbfbf" points="404,-174.5 404,-193.5 496,-193.5 496,-174.5 404,-174.5"/>
<text text-anchor="middle" x="450" y="-181.5" font-family="FreeSans" font-size="10.00">cantera/thermo.h</text>
</g>
<!-- Node22&#45;&gt;Node25 -->
<g id="edge56" class="edge"><title>Node22&#45;&gt;Node25</title>
<path fill="none" stroke="midnightblue" d="M788.945,-241.189C727.939,-234.87 606.497,-220.822 505,-200 499.607,-198.894 493.961,-197.56 488.426,-196.15"/>
<polygon fill="midnightblue" stroke="midnightblue" points="489.226,-192.741 478.663,-193.562 487.433,-199.507 489.226,-192.741"/>
</g>
<!-- Node26 -->
<g id="node55" class="node"><title>Node26</title>
<polygon fill="white" stroke="#bfbfbf" points="514.5,-174.5 514.5,-193.5 613.5,-193.5 613.5,-174.5 514.5,-174.5"/>
<text text-anchor="middle" x="564" y="-181.5" font-family="FreeSans" font-size="10.00">cantera/transport.h</text>
</g>
<!-- Node22&#45;&gt;Node26 -->
<g id="edge58" class="edge"><title>Node22&#45;&gt;Node26</title>
<path fill="none" stroke="midnightblue" d="M788.995,-236.837C747.688,-228.098 680.618,-213.644 623,-200 617.665,-198.737 612.069,-197.369 606.538,-195.992"/>
<polygon fill="midnightblue" stroke="midnightblue" points="607.273,-192.568 596.721,-193.523 605.565,-199.356 607.273,-192.568"/>
</g>
<!-- Node27 -->
<g id="node57" class="node"><title>Node27</title>
<polygon fill="white" stroke="#bfbfbf" points="631.5,-174.5 631.5,-193.5 726.5,-193.5 726.5,-174.5 631.5,-174.5"/>
<text text-anchor="middle" x="679" y="-181.5" font-family="FreeSans" font-size="10.00">cantera/kinetics.h</text>
</g>
<!-- Node22&#45;&gt;Node27 -->
<g id="edge60" class="edge"><title>Node22&#45;&gt;Node27</title>
<path fill="none" stroke="midnightblue" d="M806.652,-236.403C781.314,-226.2 738.862,-209.105 709.929,-197.454"/>
<polygon fill="midnightblue" stroke="midnightblue" points="710.892,-194.069 700.308,-193.581 708.277,-200.563 710.892,-194.069"/>
</g>
<!-- Node28 -->
<g id="node59" class="node"><title>Node28</title>
<polygon fill="white" stroke="#bfbfbf" points="745,-174.5 745,-193.5 911,-193.5 911,-174.5 745,-174.5"/>
<text text-anchor="middle" x="828" y="-181.5" font-family="FreeSans" font-size="10.00">cantera/thermo/IdealGasPhase.h</text>
</g>
<!-- Node22&#45;&gt;Node28 -->
<g id="edge62" class="edge"><title>Node22&#45;&gt;Node28</title>
<path fill="none" stroke="midnightblue" d="M828,-236.403C828,-227.938 828,-214.728 828,-203.82"/>
<polygon fill="midnightblue" stroke="midnightblue" points="831.5,-203.581 828,-193.581 824.5,-203.581 831.5,-203.581"/>
</g>
<!-- Node29 -->
<g id="node61" class="node"><title>Node29</title>
<polygon fill="white" stroke="#bfbfbf" points="929,-174.5 929,-193.5 1081,-193.5 1081,-174.5 929,-174.5"/>
<text text-anchor="middle" x="1005" y="-181.5" font-family="FreeSans" font-size="10.00">cantera/kinetics/GasKinetics.h</text>
</g>
<!-- Node22&#45;&gt;Node29 -->
<g id="edge64" class="edge"><title>Node22&#45;&gt;Node29</title>
<path fill="none" stroke="midnightblue" d="M853.36,-236.403C883.984,-226.022 935.657,-208.506 970.046,-196.849"/>
<polygon fill="midnightblue" stroke="midnightblue" points="971.34,-200.106 979.687,-193.581 969.093,-193.476 971.34,-200.106"/>
</g>
<!-- Node30 -->
<g id="node63" class="node"><title>Node30</title>
<polygon fill="white" stroke="#bfbfbf" points="1099,-174.5 1099,-193.5 1203,-193.5 1203,-174.5 1099,-174.5"/>
<text text-anchor="middle" x="1151" y="-181.5" font-family="FreeSans" font-size="10.00">cantera/base/ctml.h</text>
</g>
<!-- Node22&#45;&gt;Node30 -->
<g id="edge66" class="edge"><title>Node22&#45;&gt;Node30</title>
<path fill="none" stroke="midnightblue" d="M867.226,-239.153C918.601,-231.292 1011.39,-216.395 1090,-200 1095.88,-198.773 1102.06,-197.38 1108.13,-195.948"/>
<polygon fill="midnightblue" stroke="midnightblue" points="1109.27,-199.273 1118.17,-193.526 1107.63,-192.468 1109.27,-199.273"/>
</g>
<!-- Node31 -->
<g id="node66" class="node"><title>Node31</title>
<a xlink:href="readConfig_8h.html" target="_top" xlink:title="readConfig.h">
<polygon fill="white" stroke="black" points="1259,-174.5 1259,-193.5 1333,-193.5 1333,-174.5 1259,-174.5"/>
<text text-anchor="middle" x="1296" y="-181.5" font-family="FreeSans" font-size="10.00">readConfig.h</text>
</a>
</g>
<!-- Node22&#45;&gt;Node31 -->
<g id="edge70" class="edge"><title>Node22&#45;&gt;Node31</title>
<path fill="none" stroke="midnightblue" d="M867.158,-243.11C941.451,-239.009 1107.71,-227.369 1245,-200 1250.07,-198.988 1255.37,-197.701 1260.55,-196.306"/>
<polygon fill="midnightblue" stroke="midnightblue" points="1261.62,-199.641 1270.28,-193.537 1259.7,-192.909 1261.62,-199.641"/>
</g>
<!-- Node31&#45;&gt;Node2 -->
<g id="edge72" class="edge"><title>Node31&#45;&gt;Node2</title>
<path fill="none" stroke="midnightblue" d="M1268.92,-174.403C1236.08,-163.978 1180.57,-146.356 1143.85,-134.699"/>
<polygon fill="midnightblue" stroke="midnightblue" points="1144.62,-131.271 1134.03,-131.581 1142.5,-137.942 1144.62,-131.271"/>
</g>
<!-- Node31&#45;&gt;Node7 -->
<g id="edge74" class="edge"><title>Node31&#45;&gt;Node7</title>
<path fill="none" stroke="midnightblue" d="M1298.94,-174.355C1305.61,-153.348 1320.14,-98.241 1305,-56 1301.06,-45.0027 1293.14,-34.7688 1285.64,-26.8479"/>
<polygon fill="midnightblue" stroke="midnightblue" points="1288.02,-24.2784 1278.44,-19.7555 1283.11,-29.2659 1288.02,-24.2784"/>
</g>
<!-- Node32&#45;&gt;Node31 -->
<g id="edge78" class="edge"><title>Node32&#45;&gt;Node31</title>
<path fill="none" stroke="midnightblue" d="M1298.57,-236.403C1298.15,-227.938 1297.49,-214.728 1296.94,-203.82"/>
<polygon fill="midnightblue" stroke="midnightblue" points="1300.42,-203.393 1296.43,-193.581 1293.43,-203.743 1300.42,-203.393"/>
</g>
<!-- Node33&#45;&gt;Node21 -->
<g id="edge88" class="edge"><title>Node33&#45;&gt;Node21</title>
<path fill="none" stroke="midnightblue" d="M2702.99,-236.403C2697.84,-227.582 2689.69,-213.608 2683.18,-202.455"/>
<polygon fill="midnightblue" stroke="midnightblue" points="2686.07,-200.455 2678.01,-193.581 2680.02,-203.982 2686.07,-200.455"/>
</g>
<!-- Node34 -->
<g id="node75" class="node"><title>Node34</title>
<polygon fill="white" stroke="#bfbfbf" points="2793,-174.5 2793,-193.5 2885,-193.5 2885,-174.5 2793,-174.5"/>
<text text-anchor="middle" x="2839" y="-181.5" font-family="FreeSans" font-size="10.00">tbb/combinable.h</text>
</g>
<!-- Node33&#45;&gt;Node34 -->
<g id="edge82" class="edge"><title>Node33&#45;&gt;Node34</title>
<path fill="none" stroke="midnightblue" d="M2726.77,-236.403C2748.85,-226.29 2785.72,-209.404 2811.14,-197.761"/>
<polygon fill="midnightblue" stroke="midnightblue" points="2812.63,-200.927 2820.27,-193.581 2809.72,-194.563 2812.63,-200.927"/>
</g>
<!-- Node35 -->
<g id="node77" class="node"><title>Node35</title>
<polygon fill="white" stroke="#bfbfbf" points="2903.5,-169 2903.5,-199 3022.5,-199 3022.5,-169 2903.5,-169"/>
<text text-anchor="start" x="2911.5" y="-187" font-family="FreeSans" font-size="10.00">tbb/enumerable_thread</text>
<text text-anchor="middle" x="2963" y="-176" font-family="FreeSans" font-size="10.00">_specific.h</text>
</g>
<!-- Node33&#45;&gt;Node35 -->
<g id="edge84" class="edge"><title>Node33&#45;&gt;Node35</title>
<path fill="none" stroke="midnightblue" d="M2742.13,-236.97C2780.6,-227.918 2844.17,-212.959 2893.26,-201.409"/>
<polygon fill="midnightblue" stroke="midnightblue" points="2894.26,-204.77 2903.19,-199.073 2892.65,-197.956 2894.26,-204.77"/>
</g>
<!-- Node36 -->
<g id="node79" class="node"><title>Node36</title>
<polygon fill="white" stroke="#bfbfbf" points="2713,-174.5 2713,-193.5 2775,-193.5 2775,-174.5 2713,-174.5"/>
<text text-anchor="middle" x="2744" y="-181.5" font-family="FreeSans" font-size="10.00">sys/time.h</text>
</g>
<!-- Node33&#45;&gt;Node36 -->
<g id="edge86" class="edge"><title>Node33&#45;&gt;Node36</title>
<path fill="none" stroke="midnightblue" d="M2713.16,-236.403C2718.45,-227.582 2726.84,-213.608 2733.53,-202.455"/>
<polygon fill="midnightblue" stroke="midnightblue" points="2736.71,-203.956 2738.85,-193.581 2730.71,-200.355 2736.71,-203.956"/>
</g>
<!-- Node37&#45;&gt;Node2 -->
<g id="edge92" class="edge"><title>Node37&#45;&gt;Node2</title>
<path fill="none" stroke="midnightblue" d="M44.2929,-236.31C51.1593,-219.574 68.7553,-183.184 97,-168 183.021,-121.756 882.884,-121.908 1064.22,-122.736"/>
<polygon fill="midnightblue" stroke="midnightblue" points="1064.41,-126.237 1074.43,-122.786 1064.45,-119.237 1064.41,-126.237"/>
</g>
<!-- Node38&#45;&gt;Node2 -->
<g id="edge96" class="edge"><title>Node38&#45;&gt;Node2</title>
<path fill="none" stroke="midnightblue" d="M1360.59,-174.364C1354.67,-172.073 1348.14,-169.753 1342,-168 1275.95,-149.136 1197.17,-135.866 1149.67,-128.834"/>
<polygon fill="midnightblue" stroke="midnightblue" points="1150.14,-125.365 1139.74,-127.387 1149.13,-132.292 1150.14,-125.365"/>
</g>
<!-- Node38&#45;&gt;Node7 -->
<g id="edge98" class="edge"><title>Node38&#45;&gt;Node7</title>
<path fill="none" stroke="midnightblue" d="M1378.33,-174.295C1371.4,-152.684 1351.27,-95.4783 1321,-56 1312.16,-44.475 1299.93,-33.8436 1289.44,-25.8114"/>
<polygon fill="midnightblue" stroke="midnightblue" points="1291.28,-22.821 1281.15,-19.7131 1287.13,-28.4591 1291.28,-22.821"/>
</g>
<!-- Node38&#45;&gt;Node8 -->
<g id="edge100" class="edge"><title>Node38&#45;&gt;Node8</title>
<path fill="none" stroke="midnightblue" d="M1368.94,-174.47C1341.1,-154.778 1272.09,-105.964 1237.48,-81.484"/>
<polygon fill="midnightblue" stroke="midnightblue" points="1239.26,-78.4595 1229.08,-75.5423 1235.22,-84.1744 1239.26,-78.4595"/>
</g>
</g>
</svg>
