<?xml version="1.0" encoding="UTF-8" standalone="no"?>
<!DOCTYPE svg PUBLIC "-//W3C//DTD SVG 1.1//EN"
 "http://www.w3.org/Graphics/SVG/1.1/DTD/svg11.dtd">
<!-- Generated by graphviz version 2.26.3 (20100126.1600)
 -->
<!-- Title: src/sourceSystem.cpp Pages: 1 -->
<svg width="2642pt" height="332pt"
 viewBox="0.00 0.00 2641.88 332.00" xmlns="http://www.w3.org/2000/svg" xmlns:xlink="http://www.w3.org/1999/xlink">
<g id="graph1" class="graph" transform="scale(1 1) rotate(0) translate(4 328)">
<title>src/sourceSystem.cpp</title>
<polygon fill="white" stroke="white" points="-4,5 -4,-328 2638.88,-328 2638.88,5 -4,5"/>
<!-- Node1 -->
<g id="node1" class="node"><title>Node1</title>
<polygon fill="#bfbfbf" stroke="black" points="924.375,-303 924.375,-323 1035.38,-323 1035.38,-303 924.375,-303"/>
<text text-anchor="middle" x="979.875" y="-310" font-family="FreeSans" font-size="10.00">src/sourceSystem.cpp</text>
</g>
<!-- Node2 -->
<g id="node3" class="node"><title>Node2</title>
<a xlink:href="sourceSystem_8h.html" target="_top" xlink:title="sourceSystem.h">
<polygon fill="white" stroke="black" points="403.375,-245 403.375,-265 488.375,-265 488.375,-245 403.375,-245"/>
<text text-anchor="middle" x="445.875" y="-252" font-family="FreeSans" font-size="10.00">sourceSystem.h</text>
</a>
</g>
<!-- Node1&#45;&gt;Node2 -->
<g id="edge2" class="edge"><title>Node1&#45;&gt;Node2</title>
<path fill="none" stroke="midnightblue" d="M924.239,-306.957C820.677,-295.709 599.679,-271.705 498.468,-260.712"/>
<polygon fill="midnightblue" stroke="midnightblue" points="498.793,-257.227 488.473,-259.627 498.037,-264.186 498.793,-257.227"/>
</g>
<!-- Node11 -->
<g id="node23" class="node"><title>Node11</title>
<polygon fill="white" stroke="#bfbfbf" points="994.375,-1 994.375,-21 1083.38,-21 1083.38,-1 994.375,-1"/>
<text text-anchor="middle" x="1038.88" y="-8" font-family="FreeSans" font-size="10.00">boost/format.hpp</text>
</g>
<!-- Node1&#45;&gt;Node11 -->
<g id="edge114" class="edge"><title>Node1&#45;&gt;Node11</title>
<path fill="none" stroke="midnightblue" d="M1035.43,-307.59C1184.46,-292.334 1581.88,-246.452 1581.88,-191 1581.88,-191 1581.88,-191 1581.88,-127 1581.88,-77.4503 1231.62,-32.6671 1093.72,-16.9555"/>
<polygon fill="midnightblue" stroke="midnightblue" points="1094.1,-13.4768 1083.77,-15.8309 1093.32,-20.4325 1094.1,-13.4768"/>
</g>
<!-- Node13 -->
<g id="node27" class="node"><title>Node13</title>
<a xlink:href="sundialsUtils_8h.html" target="_top" xlink:title="sundialsUtils.h">
<polygon fill="white" stroke="black" points="941.375,-181 941.375,-201 1018.38,-201 1018.38,-181 941.375,-181"/>
<text text-anchor="middle" x="979.875" y="-188" font-family="FreeSans" font-size="10.00">sundialsUtils.h</text>
</a>
</g>
<!-- Node1&#45;&gt;Node13 -->
<g id="edge86" class="edge"><title>Node1&#45;&gt;Node13</title>
<path fill="none" stroke="midnightblue" d="M979.875,-302.598C979.875,-282.42 979.875,-237.64 979.875,-211.35"/>
<polygon fill="midnightblue" stroke="midnightblue" points="983.375,-211.032 979.875,-201.032 976.375,-211.032 983.375,-211.032"/>
</g>
<!-- Node28 -->
<g id="node63" class="node"><title>Node28</title>
<a xlink:href="readConfig_8h.html" target="_top" xlink:title="readConfig.h">
<polygon fill="white" stroke="black" points="43.8754,-181 43.8754,-201 113.875,-201 113.875,-181 43.8754,-181"/>
<text text-anchor="middle" x="78.8754" y="-188" font-family="FreeSans" font-size="10.00">readConfig.h</text>
</a>
</g>
<!-- Node1&#45;&gt;Node28 -->
<g id="edge70" class="edge"><title>Node1&#45;&gt;Node28</title>
<path fill="none" stroke="midnightblue" d="M924.162,-312.065C775.468,-309.154 371.802,-298.413 242.875,-266 191.144,-252.994 135.63,-224.08 104.281,-206.194"/>
<polygon fill="midnightblue" stroke="midnightblue" points="105.767,-203.009 95.3592,-201.026 102.259,-209.067 105.767,-203.009"/>
</g>
<!-- Node29 -->
<g id="node67" class="node"><title>Node29</title>
<a xlink:href="perfTimer_8h.html" target="_top" xlink:title="perfTimer.h">
<polygon fill="white" stroke="black" points="1152.38,-245 1152.38,-265 1217.38,-265 1217.38,-245 1152.38,-245"/>
<text text-anchor="middle" x="1184.88" y="-252" font-family="FreeSans" font-size="10.00">perfTimer.h</text>
</a>
</g>
<!-- Node1&#45;&gt;Node29 -->
<g id="edge76" class="edge"><title>Node1&#45;&gt;Node29</title>
<path fill="none" stroke="midnightblue" d="M1015.58,-302.897C1050.97,-292.887 1105.16,-277.555 1142.65,-266.946"/>
<polygon fill="midnightblue" stroke="midnightblue" points="1143.61,-270.313 1152.28,-264.222 1141.7,-263.577 1143.61,-270.313"/>
</g>
<!-- Node33 -->
<g id="node77" class="node"><title>Node33</title>
<a xlink:href="chemistry0d_8h.html" target="_top" xlink:title="chemistry0d.h">
<polygon fill="white" stroke="black" points="1909.88,-181 1909.88,-201 1985.88,-201 1985.88,-181 1909.88,-181"/>
<text text-anchor="middle" x="1947.88" y="-188" font-family="FreeSans" font-size="10.00">chemistry0d.h</text>
</a>
</g>
<!-- Node1&#45;&gt;Node33 -->
<g id="edge88" class="edge"><title>Node1&#45;&gt;Node33</title>
<path fill="none" stroke="midnightblue" d="M1035.79,-311.239C1144.28,-307.268 1390.72,-295.547 1595.88,-266 1705.58,-250.199 1832.27,-220.284 1899.72,-203.402"/>
<polygon fill="midnightblue" stroke="midnightblue" points="1900.79,-206.743 1909.63,-200.909 1899.08,-199.955 1900.79,-206.743"/>
</g>
<!-- Node42 -->
<g id="node97" class="node"><title>Node42</title>
<a xlink:href="scalarFunction_8h.html" target="_top" xlink:title="scalarFunction.h">
<polygon fill="white" stroke="black" points="251.375,-245 251.375,-265 338.375,-265 338.375,-245 251.375,-245"/>
<text text-anchor="middle" x="294.875" y="-252" font-family="FreeSans" font-size="10.00">scalarFunction.h</text>
</a>
</g>
<!-- Node1&#45;&gt;Node42 -->
<g id="edge110" class="edge"><title>Node1&#45;&gt;Node42</title>
<path fill="none" stroke="midnightblue" d="M924.172,-309.072C820.106,-301.613 589.117,-284.482 394.875,-266 379.901,-264.575 363.683,-262.864 348.755,-261.22"/>
<polygon fill="midnightblue" stroke="midnightblue" points="348.982,-257.724 338.656,-260.098 348.208,-264.681 348.982,-257.724"/>
</g>
<!-- Node3 -->
<g id="node5" class="node"><title>Node3</title>
<a xlink:href="mathUtils_8h.html" target="_top" xlink:title="mathUtils.h">
<polygon fill="white" stroke="black" points="165.375,-117 165.375,-137 230.375,-137 230.375,-117 165.375,-117"/>
<text text-anchor="middle" x="197.875" y="-124" font-family="FreeSans" font-size="10.00">mathUtils.h</text>
</a>
</g>
<!-- Node2&#45;&gt;Node3 -->
<g id="edge4" class="edge"><title>Node2&#45;&gt;Node3</title>
<path fill="none" stroke="midnightblue" d="M451.177,-244.948C459.206,-228.175 471.818,-194.322 454.875,-174 448.032,-165.792 311.955,-144.193 240.65,-133.371"/>
<polygon fill="midnightblue" stroke="midnightblue" points="241.034,-129.889 230.623,-131.855 239.987,-136.811 241.034,-129.889"/>
</g>
<!-- Node2&#45;&gt;Node13 -->
<g id="edge28" class="edge"><title>Node2&#45;&gt;Node13</title>
<path fill="none" stroke="midnightblue" d="M488.672,-249.871C586.775,-238.113 827.391,-209.275 931.055,-196.851"/>
<polygon fill="midnightblue" stroke="midnightblue" points="931.727,-200.296 941.24,-195.63 930.894,-193.345 931.727,-200.296"/>
</g>
<!-- Node25 -->
<g id="node53" class="node"><title>Node25</title>
<a xlink:href="qssintegrator_8h.html" target="_top" xlink:title="qssintegrator.h">
<polygon fill="white" stroke="black" points="293.375,-181 293.375,-201 372.375,-201 372.375,-181 293.375,-181"/>
<text text-anchor="middle" x="332.875" y="-188" font-family="FreeSans" font-size="10.00">qssintegrator.h</text>
</a>
</g>
<!-- Node2&#45;&gt;Node25 -->
<g id="edge56" class="edge"><title>Node2&#45;&gt;Node25</title>
<path fill="none" stroke="midnightblue" d="M427.97,-244.859C409.539,-234.42 380.611,-218.036 359.497,-206.078"/>
<polygon fill="midnightblue" stroke="midnightblue" points="361.123,-202.976 350.697,-201.094 357.673,-209.067 361.123,-202.976"/>
</g>
<!-- Node26 -->
<g id="node56" class="node"><title>Node26</title>
<a xlink:href="quasi2d_8h.html" target="_top" xlink:title="quasi2d.h">
<polygon fill="white" stroke="black" points="389.375,-181 389.375,-201 446.375,-201 446.375,-181 389.375,-181"/>
<text text-anchor="middle" x="417.875" y="-188" font-family="FreeSans" font-size="10.00">quasi2d.h</text>
</a>
</g>
<!-- Node2&#45;&gt;Node26 -->
<g id="edge60" class="edge"><title>Node2&#45;&gt;Node26</title>
<path fill="none" stroke="midnightblue" d="M441.377,-244.717C437.353,-235.519 431.345,-221.789 426.412,-210.512"/>
<polygon fill="midnightblue" stroke="midnightblue" points="429.485,-208.805 422.271,-201.046 423.072,-211.611 429.485,-208.805"/>
</g>
<!-- Node27 -->
<g id="node61" class="node"><title>Node27</title>
<polygon fill="white" stroke="#bfbfbf" points="169.875,-181 169.875,-201 275.875,-201 275.875,-181 169.875,-181"/>
<text text-anchor="middle" x="222.875" y="-188" font-family="FreeSans" font-size="10.00">boost/shared_ptr.hpp</text>
</g>
<!-- Node2&#45;&gt;Node27 -->
<g id="edge68" class="edge"><title>Node2&#45;&gt;Node27</title>
<path fill="none" stroke="midnightblue" d="M410.54,-244.859C371.883,-233.765 309.829,-215.955 267.756,-203.881"/>
<polygon fill="midnightblue" stroke="midnightblue" points="268.623,-200.488 258.045,-201.094 266.692,-207.216 268.623,-200.488"/>
</g>
<!-- Node4 -->
<g id="node7" class="node"><title>Node4</title>
<polygon fill="white" stroke="#bfbfbf" points="999.375,-59 999.375,-79 1042.38,-79 1042.38,-59 999.375,-59"/>
<text text-anchor="middle" x="1020.88" y="-66" font-family="FreeSans" font-size="10.00">vector</text>
</g>
<!-- Node3&#45;&gt;Node4 -->
<g id="edge6" class="edge"><title>Node3&#45;&gt;Node4</title>
<path fill="none" stroke="midnightblue" d="M230.48,-121.898C244.699,-119.819 261.582,-117.546 276.875,-116 552.037,-88.1917 886.219,-74.0601 989.171,-70.1484"/>
<polygon fill="midnightblue" stroke="midnightblue" points="989.357,-73.644 999.219,-69.7714 989.095,-66.6489 989.357,-73.644"/>
</g>
<!-- Node5 -->
<g id="node9" class="node"><title>Node5</title>
<polygon fill="white" stroke="#bfbfbf" points="143.875,-59 143.875,-79 187.875,-79 187.875,-59 143.875,-59"/>
<text text-anchor="middle" x="165.875" y="-66" font-family="FreeSans" font-size="10.00">cmath</text>
</g>
<!-- Node3&#45;&gt;Node5 -->
<g id="edge8" class="edge"><title>Node3&#45;&gt;Node5</title>
<path fill="none" stroke="midnightblue" d="M192.301,-116.897C187.95,-109.01 181.777,-97.8209 176.491,-88.2401"/>
<polygon fill="midnightblue" stroke="midnightblue" points="179.496,-86.4426 171.601,-79.3776 173.367,-89.8242 179.496,-86.4426"/>
</g>
<!-- Node6 -->
<g id="node11" class="node"><title>Node6</title>
<polygon fill="white" stroke="#bfbfbf" points="381.375,-1 381.375,-21 434.375,-21 434.375,-1 381.375,-1"/>
<text text-anchor="middle" x="407.875" y="-8" font-family="FreeSans" font-size="10.00">iostream</text>
</g>
<!-- Node3&#45;&gt;Node6 -->
<g id="edge10" class="edge"><title>Node3&#45;&gt;Node6</title>
<path fill="none" stroke="midnightblue" d="M230.771,-120.782C282.337,-110.76 377.525,-91.0435 388.875,-80 401.918,-67.3105 406.256,-46.5577 407.58,-31.1203"/>
<polygon fill="midnightblue" stroke="midnightblue" points="411.082,-31.1748 408.093,-21.0102 404.091,-30.8199 411.082,-31.1748"/>
</g>
<!-- Node7 -->
<g id="node13" class="node"><title>Node7</title>
<polygon fill="white" stroke="#bfbfbf" points="205.875,-59 205.875,-79 255.875,-79 255.875,-59 205.875,-59"/>
<text text-anchor="middle" x="230.875" y="-66" font-family="FreeSans" font-size="10.00">sstream</text>
</g>
<!-- Node3&#45;&gt;Node7 -->
<g id="edge12" class="edge"><title>Node3&#45;&gt;Node7</title>
<path fill="none" stroke="midnightblue" d="M203.624,-116.897C208.111,-109.01 214.477,-97.8209 219.928,-88.2401"/>
<polygon fill="midnightblue" stroke="midnightblue" points="223.068,-89.8001 224.971,-79.3776 216.983,-86.3384 223.068,-89.8001"/>
</g>
<!-- Node8 -->
<g id="node15" class="node"><title>Node8</title>
<polygon fill="white" stroke="#bfbfbf" points="135.875,-1 135.875,-21 175.875,-21 175.875,-1 135.875,-1"/>
<text text-anchor="middle" x="155.875" y="-8" font-family="FreeSans" font-size="10.00">string</text>
</g>
<!-- Node3&#45;&gt;Node8 -->
<g id="edge14" class="edge"><title>Node3&#45;&gt;Node8</title>
<path fill="none" stroke="midnightblue" d="M220.76,-116.9C245.811,-104.361 280.475,-81.7147 264.875,-58 247.555,-31.6704 212.03,-20.0258 186.232,-14.9172"/>
<polygon fill="midnightblue" stroke="midnightblue" points="186.65,-11.4371 176.196,-13.1565 185.44,-18.3318 186.65,-11.4371"/>
</g>
<!-- Node9 -->
<g id="node17" class="node"><title>Node9</title>
<polygon fill="white" stroke="#bfbfbf" points="435.375,-59 435.375,-79 470.375,-79 470.375,-59 435.375,-59"/>
<text text-anchor="middle" x="452.875" y="-66" font-family="FreeSans" font-size="10.00">map</text>
</g>
<!-- Node3&#45;&gt;Node9 -->
<g id="edge16" class="edge"><title>Node3&#45;&gt;Node9</title>
<path fill="none" stroke="midnightblue" d="M230.511,-119.046C234.995,-117.997 239.545,-116.955 243.875,-116 322.693,-98.6115 344.092,-101.549 421.875,-80 423.114,-79.6569 424.374,-79.2892 425.642,-78.9038"/>
<polygon fill="midnightblue" stroke="midnightblue" points="426.906,-82.1727 435.308,-75.7191 424.715,-75.5242 426.906,-82.1727"/>
</g>
<!-- Node10 -->
<g id="node19" class="node"><title>Node10</title>
<a xlink:href="debugUtils_8h.html" target="_top" xlink:title="debugUtils.h">
<polygon fill="white" stroke="red" points="311.375,-59 311.375,-79 380.375,-79 380.375,-59 311.375,-59"/>
<text text-anchor="middle" x="345.875" y="-66" font-family="FreeSans" font-size="10.00">debugUtils.h</text>
</a>
</g>
<!-- Node3&#45;&gt;Node10 -->
<g id="edge18" class="edge"><title>Node3&#45;&gt;Node10</title>
<path fill="none" stroke="midnightblue" d="M223.655,-116.897C247.701,-107.474 283.778,-93.3354 310.509,-82.8598"/>
<polygon fill="midnightblue" stroke="midnightblue" points="311.861,-86.0892 319.895,-79.1817 309.307,-79.5718 311.861,-86.0892"/>
</g>
<!-- Node12 -->
<g id="node25" class="node"><title>Node12</title>
<polygon fill="white" stroke="#bfbfbf" points="55.3754,-59 55.3754,-79 126.375,-79 126.375,-59 55.3754,-59"/>
<text text-anchor="middle" x="90.8754" y="-66" font-family="FreeSans" font-size="10.00">Eigen/Dense</text>
</g>
<!-- Node3&#45;&gt;Node12 -->
<g id="edge26" class="edge"><title>Node3&#45;&gt;Node12</title>
<path fill="none" stroke="midnightblue" d="M179.237,-116.897C162.463,-107.804 137.59,-94.3218 118.503,-83.9757"/>
<polygon fill="midnightblue" stroke="midnightblue" points="120.118,-80.8702 109.659,-79.1817 116.782,-87.0242 120.118,-80.8702"/>
</g>
<!-- Node10&#45;&gt;Node6 -->
<g id="edge22" class="edge"><title>Node10&#45;&gt;Node6</title>
<path fill="none" stroke="midnightblue" d="M356.675,-58.8972C365.633,-50.5175 378.576,-38.4093 389.207,-28.4638"/>
<polygon fill="midnightblue" stroke="midnightblue" points="391.87,-30.7652 396.782,-21.3776 387.088,-25.6532 391.87,-30.7652"/>
</g>
<!-- Node10&#45;&gt;Node8 -->
<g id="edge20" class="edge"><title>Node10&#45;&gt;Node8</title>
<path fill="none" stroke="midnightblue" d="M312.78,-58.8972C277.033,-47.9849 220.573,-30.7499 186.019,-20.2017"/>
<polygon fill="midnightblue" stroke="midnightblue" points="186.632,-16.7294 176.046,-17.1572 184.588,-23.4244 186.632,-16.7294"/>
</g>
<!-- Node10&#45;&gt;Node11 -->
<g id="edge24" class="edge"><title>Node10&#45;&gt;Node11</title>
<path fill="none" stroke="midnightblue" d="M380.508,-63.8445C394.836,-61.8294 411.634,-59.6187 426.875,-58 631.979,-36.2162 876.784,-20.5053 984.009,-14.1368"/>
<polygon fill="midnightblue" stroke="midnightblue" points="984.48,-17.6152 994.256,-13.5318 984.067,-10.6274 984.48,-17.6152"/>
</g>
<!-- Node13&#45;&gt;Node4 -->
<g id="edge50" class="edge"><title>Node13&#45;&gt;Node4</title>
<path fill="none" stroke="midnightblue" d="M1018.51,-184.675C1039.58,-181.315 1066.13,-177.226 1089.88,-174 1157.94,-164.753 1351.22,-189.321 1396.88,-138 1403.37,-130.695 1403.35,-123.33 1396.88,-116 1374.18,-90.2866 1138.92,-75.2761 1052.5,-70.5953"/>
<polygon fill="midnightblue" stroke="midnightblue" points="1052.66,-67.0989 1042.49,-70.0634 1052.29,-74.0891 1052.66,-67.0989"/>
</g>
<!-- Node13&#45;&gt;Node6 -->
<g id="edge48" class="edge"><title>Node13&#45;&gt;Node6</title>
<path fill="none" stroke="midnightblue" d="M941.062,-187.954C856.381,-180.937 657.616,-162.355 594.875,-138 565.684,-126.668 504.821,-75.532 478.875,-58 463.201,-47.4087 445.456,-35.6618 431.627,-26.5612"/>
<polygon fill="midnightblue" stroke="midnightblue" points="433.445,-23.5681 423.166,-21.0017 429.601,-29.4182 433.445,-23.5681"/>
</g>
<!-- Node14 -->
<g id="node29" class="node"><title>Node14</title>
<polygon fill="white" stroke="#bfbfbf" points="285.875,-117 285.875,-137 403.875,-137 403.875,-117 285.875,-117"/>
<text text-anchor="middle" x="344.875" y="-124" font-family="FreeSans" font-size="10.00">nvector/nvector_serial.h</text>
</g>
<!-- Node13&#45;&gt;Node14 -->
<g id="edge30" class="edge"><title>Node13&#45;&gt;Node14</title>
<path fill="none" stroke="midnightblue" d="M941.277,-188.291C850.956,-181.76 618.631,-163.843 414.2,-138.105"/>
<polygon fill="midnightblue" stroke="midnightblue" points="414.54,-134.62 404.18,-136.834 413.66,-141.564 414.54,-134.62"/>
</g>
<!-- Node15 -->
<g id="node31" class="node"><title>Node15</title>
<polygon fill="white" stroke="#bfbfbf" points="421.375,-117 421.375,-137 548.375,-137 548.375,-117 421.375,-117"/>
<text text-anchor="middle" x="484.875" y="-124" font-family="FreeSans" font-size="10.00">sundials/sundials_dense.h</text>
</g>
<!-- Node13&#45;&gt;Node15 -->
<g id="edge32" class="edge"><title>Node13&#45;&gt;Node15</title>
<path fill="none" stroke="midnightblue" d="M941.238,-186.308C867.458,-177.301 701.427,-156.814 561.875,-138 560.805,-137.856 559.726,-137.71 558.64,-137.562"/>
<polygon fill="midnightblue" stroke="midnightblue" points="559.114,-134.094 548.73,-136.201 558.161,-141.029 559.114,-134.094"/>
</g>
<!-- Node16 -->
<g id="node33" class="node"><title>Node16</title>
<polygon fill="white" stroke="#bfbfbf" points="603.875,-117 603.875,-137 725.875,-137 725.875,-117 603.875,-117"/>
<text text-anchor="middle" x="664.875" y="-124" font-family="FreeSans" font-size="10.00">sundials/sundials_band.h</text>
</g>
<!-- Node13&#45;&gt;Node16 -->
<g id="edge34" class="edge"><title>Node13&#45;&gt;Node16</title>
<path fill="none" stroke="midnightblue" d="M941.25,-183.152C886.982,-172.126 787.698,-151.955 724.074,-139.028"/>
<polygon fill="midnightblue" stroke="midnightblue" points="724.677,-135.579 714.181,-137.018 723.284,-142.439 724.677,-135.579"/>
</g>
<!-- Node17 -->
<g id="node35" class="node"><title>Node17</title>
<polygon fill="white" stroke="#bfbfbf" points="743.875,-117 743.875,-137 867.875,-137 867.875,-117 743.875,-117"/>
<text text-anchor="middle" x="805.875" y="-124" font-family="FreeSans" font-size="10.00">sundials/sundials_types.h</text>
</g>
<!-- Node13&#45;&gt;Node17 -->
<g id="edge36" class="edge"><title>Node13&#45;&gt;Node17</title>
<path fill="none" stroke="midnightblue" d="M952.305,-180.859C922.778,-169.999 875.758,-152.704 842.993,-140.652"/>
<polygon fill="midnightblue" stroke="midnightblue" points="843.911,-137.261 833.317,-137.094 841.494,-143.831 843.911,-137.261"/>
</g>
<!-- Node18 -->
<g id="node37" class="node"><title>Node18</title>
<polygon fill="white" stroke="#bfbfbf" points="885.875,-117 885.875,-137 963.875,-137 963.875,-117 885.875,-117"/>
<text text-anchor="middle" x="924.875" y="-124" font-family="FreeSans" font-size="10.00">cvode/cvode.h</text>
</g>
<!-- Node13&#45;&gt;Node18 -->
<g id="edge38" class="edge"><title>Node13&#45;&gt;Node18</title>
<path fill="none" stroke="midnightblue" d="M971.039,-180.717C962.731,-171.05 950.12,-156.376 940.177,-144.806"/>
<polygon fill="midnightblue" stroke="midnightblue" points="942.681,-142.349 933.509,-137.046 937.372,-146.912 942.681,-142.349"/>
</g>
<!-- Node19 -->
<g id="node39" class="node"><title>Node19</title>
<polygon fill="white" stroke="#bfbfbf" points="981.375,-117 981.375,-137 1090.38,-137 1090.38,-117 981.375,-117"/>
<text text-anchor="middle" x="1035.88" y="-124" font-family="FreeSans" font-size="10.00">cvode/cvode_dense.h</text>
</g>
<!-- Node13&#45;&gt;Node19 -->
<g id="edge40" class="edge"><title>Node13&#45;&gt;Node19</title>
<path fill="none" stroke="midnightblue" d="M988.873,-180.717C997.332,-171.05 1010.17,-156.376 1020.3,-144.806"/>
<polygon fill="midnightblue" stroke="midnightblue" points="1023.13,-146.877 1027.08,-137.046 1017.87,-142.267 1023.13,-146.877"/>
</g>
<!-- Node20 -->
<g id="node41" class="node"><title>Node20</title>
<polygon fill="white" stroke="#bfbfbf" points="1107.88,-117 1107.88,-137 1211.88,-137 1211.88,-117 1107.88,-117"/>
<text text-anchor="middle" x="1159.88" y="-124" font-family="FreeSans" font-size="10.00">cvode/cvode_band.h</text>
</g>
<!-- Node13&#45;&gt;Node20 -->
<g id="edge42" class="edge"><title>Node13&#45;&gt;Node20</title>
<path fill="none" stroke="midnightblue" d="M1008.4,-180.859C1039.07,-169.952 1088,-152.555 1121.92,-140.497"/>
<polygon fill="midnightblue" stroke="midnightblue" points="1123.24,-143.741 1131.49,-137.094 1120.89,-137.146 1123.24,-143.741"/>
</g>
<!-- Node21 -->
<g id="node43" class="node"><title>Node21</title>
<polygon fill="white" stroke="#bfbfbf" points="1229.38,-117 1229.38,-137 1282.38,-137 1282.38,-117 1229.38,-117"/>
<text text-anchor="middle" x="1255.88" y="-124" font-family="FreeSans" font-size="10.00">ida/ida.h</text>
</g>
<!-- Node13&#45;&gt;Node21 -->
<g id="edge44" class="edge"><title>Node13&#45;&gt;Node21</title>
<path fill="none" stroke="midnightblue" d="M1018.53,-183.591C1064.38,-174.563 1143.28,-158.274 1219.44,-138.242"/>
<polygon fill="midnightblue" stroke="midnightblue" points="1220.43,-141.602 1229.19,-135.652 1218.63,-134.836 1220.43,-141.602"/>
</g>
<!-- Node22 -->
<g id="node45" class="node"><title>Node22</title>
<polygon fill="white" stroke="#bfbfbf" points="1299.88,-117 1299.88,-137 1387.88,-137 1387.88,-117 1299.88,-117"/>
<text text-anchor="middle" x="1343.88" y="-124" font-family="FreeSans" font-size="10.00">ida/ida_spbcgs.h</text>
</g>
<!-- Node13&#45;&gt;Node22 -->
<g id="edge46" class="edge"><title>Node13&#45;&gt;Node22</title>
<path fill="none" stroke="midnightblue" d="M1018.74,-184.835C1075.85,-175.677 1186.03,-157.628 1289.65,-138.187"/>
<polygon fill="midnightblue" stroke="midnightblue" points="1290.47,-141.593 1299.65,-136.302 1289.18,-134.714 1290.47,-141.593"/>
</g>
<!-- Node23 -->
<g id="node49" class="node"><title>Node23</title>
<polygon fill="white" stroke="#bfbfbf" points="1443.38,-117 1443.38,-137 1486.38,-137 1486.38,-117 1443.38,-117"/>
<text text-anchor="middle" x="1464.88" y="-124" font-family="FreeSans" font-size="10.00">time.h</text>
</g>
<!-- Node13&#45;&gt;Node23 -->
<g id="edge52" class="edge"><title>Node13&#45;&gt;Node23</title>
<path fill="none" stroke="midnightblue" d="M1018.5,-184.568C1039.56,-181.177 1066.11,-177.092 1089.88,-174 1240.56,-154.39 1281.1,-168.933 1429.88,-138 1430.97,-137.773 1432.07,-137.526 1433.19,-137.262"/>
<polygon fill="midnightblue" stroke="midnightblue" points="1434.47,-140.54 1443.21,-134.545 1432.64,-133.783 1434.47,-140.54"/>
</g>
<!-- Node24 -->
<g id="node51" class="node"><title>Node24</title>
<a xlink:href="config_8h.html" target="_top" xlink:title="config.h">
<polygon fill="white" stroke="black" points="1503.88,-117 1503.88,-137 1553.88,-137 1553.88,-117 1503.88,-117"/>
<text text-anchor="middle" x="1528.88" y="-124" font-family="FreeSans" font-size="10.00">config.h</text>
</a>
</g>
<!-- Node13&#45;&gt;Node24 -->
<g id="edge54" class="edge"><title>Node13&#45;&gt;Node24</title>
<path fill="none" stroke="midnightblue" d="M1018.48,-184.408C1039.54,-180.971 1066.09,-176.892 1089.88,-174 1266.02,-152.583 1316,-173.264 1493.84,-137.823"/>
<polygon fill="midnightblue" stroke="midnightblue" points="1494.69,-141.223 1503.79,-135.809 1493.3,-134.363 1494.69,-141.223"/>
</g>
<!-- Node25&#45;&gt;Node3 -->
<g id="edge58" class="edge"><title>Node25&#45;&gt;Node3</title>
<path fill="none" stroke="midnightblue" d="M311.484,-180.859C289.069,-170.233 253.66,-153.446 228.332,-141.439"/>
<polygon fill="midnightblue" stroke="midnightblue" points="229.702,-138.215 219.166,-137.094 226.703,-144.54 229.702,-138.215"/>
</g>
<!-- Node26&#45;&gt;Node3 -->
<g id="edge62" class="edge"><title>Node26&#45;&gt;Node3</title>
<path fill="none" stroke="midnightblue" d="M397.791,-180.98C392.379,-178.499 386.471,-175.986 380.875,-174 367.644,-169.304 290.263,-149.868 240.453,-137.508"/>
<polygon fill="midnightblue" stroke="midnightblue" points="241.129,-134.07 230.58,-135.061 239.445,-140.864 241.129,-134.07"/>
</g>
<!-- Node26&#45;&gt;Node8 -->
<g id="edge64" class="edge"><title>Node26&#45;&gt;Node8</title>
<path fill="none" stroke="midnightblue" d="M398.676,-180.982C393.06,-178.383 386.827,-175.809 380.875,-174 233.327,-129.161 126.529,-212.047 46.8754,-80 26.2739,-45.8475 87.0831,-25.8203 126.006,-16.7933"/>
<polygon fill="midnightblue" stroke="midnightblue" points="126.826,-20.1968 135.843,-14.6345 125.325,-13.3595 126.826,-20.1968"/>
</g>
<!-- Node26&#45;&gt;Node9 -->
<g id="edge66" class="edge"><title>Node26&#45;&gt;Node9</title>
<path fill="none" stroke="midnightblue" d="M396.898,-180.932C391.704,-178.559 386.123,-176.108 380.875,-174 331.765,-154.273 244.271,-157.689 276.875,-116 317.782,-63.6956 358.288,-99.1253 421.875,-80 423.106,-79.6299 424.359,-79.2399 425.623,-78.8363"/>
<polygon fill="midnightblue" stroke="midnightblue" points="426.912,-82.0953 435.269,-75.5829 424.675,-75.4624 426.912,-82.0953"/>
</g>
<!-- Node28&#45;&gt;Node3 -->
<g id="edge72" class="edge"><title>Node28&#45;&gt;Node3</title>
<path fill="none" stroke="midnightblue" d="M97.7313,-180.859C117.228,-170.373 147.879,-153.889 170.139,-141.917"/>
<polygon fill="midnightblue" stroke="midnightblue" points="171.958,-144.913 179.108,-137.094 168.643,-138.748 171.958,-144.913"/>
</g>
<!-- Node28&#45;&gt;Node8 -->
<g id="edge74" class="edge"><title>Node28&#45;&gt;Node8</title>
<path fill="none" stroke="midnightblue" d="M58.5524,-180.872C43.1267,-171.94 23.0574,-157.334 13.8754,-138 -1.37755,-105.882 -6.94482,-86.8222 13.8754,-58 27.1492,-39.6245 88.3612,-24.453 125.952,-16.6617"/>
<polygon fill="midnightblue" stroke="midnightblue" points="126.758,-20.0699 135.869,-14.6633 125.375,-13.2078 126.758,-20.0699"/>
</g>
<!-- Node29&#45;&gt;Node23 -->
<g id="edge84" class="edge"><title>Node29&#45;&gt;Node23</title>
<path fill="none" stroke="midnightblue" d="M1184,-244.832C1183.13,-227.575 1184.11,-192.619 1203.88,-174 1272.49,-109.374 1320.31,-155.757 1412.88,-138 1419.42,-136.745 1426.4,-135.323 1433.07,-133.928"/>
<polygon fill="midnightblue" stroke="midnightblue" points="1434.1,-137.287 1443.15,-131.787 1432.65,-130.44 1434.1,-137.287"/>
</g>
<!-- Node30 -->
<g id="node69" class="node"><title>Node30</title>
<polygon fill="white" stroke="#bfbfbf" points="1212.88,-181 1212.88,-201 1302.88,-201 1302.88,-181 1212.88,-181"/>
<text text-anchor="middle" x="1257.88" y="-188" font-family="FreeSans" font-size="10.00">tbb/combinable.h</text>
</g>
<!-- Node29&#45;&gt;Node30 -->
<g id="edge78" class="edge"><title>Node29&#45;&gt;Node30</title>
<path fill="none" stroke="midnightblue" d="M1196.6,-244.717C1207.95,-234.768 1225.35,-219.517 1238.71,-207.803"/>
<polygon fill="midnightblue" stroke="midnightblue" points="1241.2,-210.27 1246.42,-201.046 1236.59,-205.007 1241.2,-210.27"/>
</g>
<!-- Node31 -->
<g id="node71" class="node"><title>Node31</title>
<polygon fill="white" stroke="#bfbfbf" points="1320.88,-175 1320.88,-207 1436.88,-207 1436.88,-175 1320.88,-175"/>
<text text-anchor="start" x="1328.88" y="-194" font-family="FreeSans" font-size="10.00">tbb/enumerable_thread</text>
<text text-anchor="middle" x="1378.88" y="-182" font-family="FreeSans" font-size="10.00">_specific.h</text>
</g>
<!-- Node29&#45;&gt;Node31 -->
<g id="edge80" class="edge"><title>Node29&#45;&gt;Node31</title>
<path fill="none" stroke="midnightblue" d="M1215.62,-244.859C1243.74,-235.58 1286.1,-221.605 1320.63,-210.215"/>
<polygon fill="midnightblue" stroke="midnightblue" points="1321.74,-213.534 1330.14,-207.078 1319.55,-206.887 1321.74,-213.534"/>
</g>
<!-- Node32 -->
<g id="node73" class="node"><title>Node32</title>
<polygon fill="white" stroke="#bfbfbf" points="1098.38,-181 1098.38,-201 1157.38,-201 1157.38,-181 1098.38,-181"/>
<text text-anchor="middle" x="1127.88" y="-188" font-family="FreeSans" font-size="10.00">sys/time.h</text>
</g>
<!-- Node29&#45;&gt;Node32 -->
<g id="edge82" class="edge"><title>Node29&#45;&gt;Node32</title>
<path fill="none" stroke="midnightblue" d="M1175.72,-244.717C1167.11,-235.05 1154.04,-220.376 1143.73,-208.806"/>
<polygon fill="midnightblue" stroke="midnightblue" points="1146.09,-206.186 1136.82,-201.046 1140.86,-210.842 1146.09,-206.186"/>
</g>
<!-- Node33&#45;&gt;Node3 -->
<g id="edge108" class="edge"><title>Node33&#45;&gt;Node3</title>
<path fill="none" stroke="midnightblue" d="M1909.78,-189.67C1825.93,-186.752 1619.1,-179.6 1445.88,-174 926.345,-157.204 794.82,-181.906 276.875,-138 265.029,-136.996 252.244,-135.428 240.482,-133.788"/>
<polygon fill="midnightblue" stroke="midnightblue" points="240.855,-130.305 230.457,-132.34 239.854,-137.233 240.855,-130.305"/>
</g>
<!-- Node33&#45;&gt;Node24 -->
<g id="edge106" class="edge"><title>Node33&#45;&gt;Node24</title>
<path fill="none" stroke="midnightblue" d="M1909.58,-185.151C1828.93,-172.832 1642.59,-144.369 1564.41,-132.428"/>
<polygon fill="midnightblue" stroke="midnightblue" points="1564.54,-128.906 1554.12,-130.856 1563.48,-135.826 1564.54,-128.906"/>
</g>
<!-- Node34 -->
<g id="node79" class="node"><title>Node34</title>
<polygon fill="white" stroke="#bfbfbf" points="1891.38,-117 1891.38,-137 2004.38,-137 2004.38,-117 1891.38,-117"/>
<text text-anchor="middle" x="1947.88" y="-124" font-family="FreeSans" font-size="10.00">cantera/IdealGasMix.h</text>
</g>
<!-- Node33&#45;&gt;Node34 -->
<g id="edge90" class="edge"><title>Node33&#45;&gt;Node34</title>
<path fill="none" stroke="midnightblue" d="M1947.88,-180.717C1947.88,-171.707 1947.88,-158.347 1947.88,-147.205"/>
<polygon fill="midnightblue" stroke="midnightblue" points="1951.38,-147.046 1947.88,-137.046 1944.38,-147.046 1951.38,-147.046"/>
</g>
<!-- Node35 -->
<g id="node81" class="node"><title>Node35</title>
<polygon fill="white" stroke="#bfbfbf" points="2021.88,-117 2021.88,-137 2127.88,-137 2127.88,-117 2021.88,-117"/>
<text text-anchor="middle" x="2074.88" y="-124" font-family="FreeSans" font-size="10.00">cantera/equilibrium.h</text>
</g>
<!-- Node33&#45;&gt;Node35 -->
<g id="edge92" class="edge"><title>Node33&#45;&gt;Node35</title>
<path fill="none" stroke="midnightblue" d="M1968,-180.859C1988.99,-170.28 2022.1,-153.594 2045.91,-141.598"/>
<polygon fill="midnightblue" stroke="midnightblue" points="2047.49,-144.719 2054.85,-137.094 2044.34,-138.468 2047.49,-144.719"/>
</g>
<!-- Node36 -->
<g id="node83" class="node"><title>Node36</title>
<polygon fill="white" stroke="#bfbfbf" points="2145.38,-117 2145.38,-137 2234.38,-137 2234.38,-117 2145.38,-117"/>
<text text-anchor="middle" x="2189.88" y="-124" font-family="FreeSans" font-size="10.00">cantera/thermo.h</text>
</g>
<!-- Node33&#45;&gt;Node36 -->
<g id="edge94" class="edge"><title>Node33&#45;&gt;Node36</title>
<path fill="none" stroke="midnightblue" d="M1985.95,-180.93C2028.24,-169.746 2096.56,-151.678 2142.33,-139.575"/>
<polygon fill="midnightblue" stroke="midnightblue" points="2143.25,-142.952 2152.02,-137.012 2141.46,-136.185 2143.25,-142.952"/>
</g>
<!-- Node37 -->
<g id="node85" class="node"><title>Node37</title>
<polygon fill="white" stroke="#bfbfbf" points="2251.38,-117 2251.38,-137 2348.38,-137 2348.38,-117 2251.38,-117"/>
<text text-anchor="middle" x="2299.88" y="-124" font-family="FreeSans" font-size="10.00">cantera/transport.h</text>
</g>
<!-- Node33&#45;&gt;Node37 -->
<g id="edge96" class="edge"><title>Node33&#45;&gt;Node37</title>
<path fill="none" stroke="midnightblue" d="M1986.09,-184.296C2040.49,-174.717 2143.65,-156.422 2241.33,-138.273"/>
<polygon fill="midnightblue" stroke="midnightblue" points="2242.18,-141.675 2251.37,-136.404 2240.9,-134.793 2242.18,-141.675"/>
</g>
<!-- Node38 -->
<g id="node87" class="node"><title>Node38</title>
<polygon fill="white" stroke="#bfbfbf" points="2365.88,-117 2365.88,-137 2457.88,-137 2457.88,-117 2365.88,-117"/>
<text text-anchor="middle" x="2411.88" y="-124" font-family="FreeSans" font-size="10.00">cantera/kinetics.h</text>
</g>
<!-- Node33&#45;&gt;Node38 -->
<g id="edge98" class="edge"><title>Node33&#45;&gt;Node38</title>
<path fill="none" stroke="midnightblue" d="M1986.06,-186.936C2056.87,-179.21 2213.48,-161.225 2355.5,-138.144"/>
<polygon fill="midnightblue" stroke="midnightblue" points="2356.4,-141.543 2365.7,-136.473 2355.27,-134.636 2356.4,-141.543"/>
</g>
<!-- Node39 -->
<g id="node89" class="node"><title>Node39</title>
<polygon fill="white" stroke="#bfbfbf" points="2475.88,-117 2475.88,-137 2633.88,-137 2633.88,-117 2475.88,-117"/>
<text text-anchor="middle" x="2554.88" y="-124" font-family="FreeSans" font-size="10.00">cantera/thermo/IdealGasPhase.h</text>
</g>
<!-- Node33&#45;&gt;Node39 -->
<g id="edge100" class="edge"><title>Node33&#45;&gt;Node39</title>
<path fill="none" stroke="midnightblue" d="M1986,-187.404C2070.39,-179.381 2279.59,-159.14 2465.76,-138.108"/>
<polygon fill="midnightblue" stroke="midnightblue" points="2466.19,-141.582 2475.73,-136.979 2465.4,-134.627 2466.19,-141.582"/>
</g>
<!-- Node40 -->
<g id="node91" class="node"><title>Node40</title>
<polygon fill="white" stroke="#bfbfbf" points="1609.38,-117 1609.38,-137 1756.38,-137 1756.38,-117 1609.38,-117"/>
<text text-anchor="middle" x="1682.88" y="-124" font-family="FreeSans" font-size="10.00">cantera/kinetics/GasKinetics.h</text>
</g>
<!-- Node33&#45;&gt;Node40 -->
<g id="edge102" class="edge"><title>Node33&#45;&gt;Node40</title>
<path fill="none" stroke="midnightblue" d="M1909.63,-181.762C1863.53,-170.631 1785.9,-151.881 1734.52,-139.473"/>
<polygon fill="midnightblue" stroke="midnightblue" points="1735.15,-136.025 1724.61,-137.08 1733.51,-142.829 1735.15,-136.025"/>
</g>
<!-- Node41 -->
<g id="node93" class="node"><title>Node41</title>
<polygon fill="white" stroke="#bfbfbf" points="1773.38,-117 1773.38,-137 1874.38,-137 1874.38,-117 1773.38,-117"/>
<text text-anchor="middle" x="1823.88" y="-124" font-family="FreeSans" font-size="10.00">cantera/base/ctml.h</text>
</g>
<!-- Node33&#45;&gt;Node41 -->
<g id="edge104" class="edge"><title>Node33&#45;&gt;Node41</title>
<path fill="none" stroke="midnightblue" d="M1928.23,-180.859C1907.82,-170.326 1875.69,-153.742 1852.47,-141.757"/>
<polygon fill="midnightblue" stroke="midnightblue" points="1853.92,-138.57 1843.43,-137.094 1850.71,-144.79 1853.92,-138.57"/>
</g>
<!-- Node42&#45;&gt;Node3 -->
<g id="edge112" class="edge"><title>Node42&#45;&gt;Node3</title>
<path fill="none" stroke="midnightblue" d="M251.173,-245.429C216.327,-236.808 171.641,-223.184 160.875,-208 146.736,-188.057 164.18,-161.847 179.586,-144.721"/>
<polygon fill="midnightblue" stroke="midnightblue" points="182.473,-146.765 186.837,-137.111 177.405,-141.936 182.473,-146.765"/>
</g>
</g>
</svg>
