<?xml version="1.0" encoding="UTF-8" standalone="no"?>
<!DOCTYPE svg PUBLIC "-//W3C//DTD SVG 1.1//EN"
 "http://www.w3.org/Graphics/SVG/1.1/DTD/svg11.dtd">
<!-- Generated by graphviz version 2.38.0 (20140413.2041)
 -->
<!-- Title: src/sourceSystem.cpp Pages: 1 -->
<svg width="2556pt" height="319pt"
 viewBox="0.00 0.00 2555.50 319.00" xmlns="http://www.w3.org/2000/svg" xmlns:xlink="http://www.w3.org/1999/xlink">
<g id="graph0" class="graph" transform="scale(1 1) rotate(0) translate(4 315)">
<title>src/sourceSystem.cpp</title>
<polygon fill="white" stroke="none" points="-4,4 -4,-315 2551.5,-315 2551.5,4 -4,4"/>
<!-- Node1 -->
<g id="node1" class="node"><title>Node1</title>
<polygon fill="#bfbfbf" stroke="black" points="900.5,-291.5 900.5,-310.5 1011.5,-310.5 1011.5,-291.5 900.5,-291.5"/>
<text text-anchor="middle" x="956" y="-298.5" font-family="FreeSans" font-size="10.00">src/sourceSystem.cpp</text>
</g>
<!-- Node2 -->
<g id="node2" class="node"><title>Node2</title>
<g id="a_node2"><a xlink:href="sourceSystem_8h.html" target="_top" xlink:title="sourceSystem.h">
<polygon fill="white" stroke="black" points="416.5,-235.5 416.5,-254.5 501.5,-254.5 501.5,-235.5 416.5,-235.5"/>
<text text-anchor="middle" x="459" y="-242.5" font-family="FreeSans" font-size="10.00">sourceSystem.h</text>
</a>
</g>
</g>
<!-- Node1&#45;&gt;Node2 -->
<g id="edge1" class="edge"><title>Node1&#45;&gt;Node2</title>
<path fill="none" stroke="midnightblue" d="M900.434,-293.963C803.874,-283.471 606.39,-262.014 511.797,-251.737"/>
<polygon fill="midnightblue" stroke="midnightblue" points="511.923,-248.23 501.603,-250.629 511.167,-255.189 511.923,-248.23"/>
</g>
<!-- Node11 -->
<g id="node11" class="node"><title>Node11</title>
<polygon fill="white" stroke="#bfbfbf" points="925.5,-0.5 925.5,-19.5 1014.5,-19.5 1014.5,-0.5 925.5,-0.5"/>
<text text-anchor="middle" x="970" y="-7.5" font-family="FreeSans" font-size="10.00">boost/format.hpp</text>
</g>
<!-- Node1&#45;&gt;Node11 -->
<g id="edge57" class="edge"><title>Node1&#45;&gt;Node11</title>
<path fill="none" stroke="midnightblue" d="M1011.61,-300.081C1147.43,-298.785 1485,-285.915 1485,-190 1485,-190 1485,-190 1485,-126.5 1485,-33.0477 1158.05,-15.1911 1025.16,-11.7929"/>
<polygon fill="midnightblue" stroke="midnightblue" points="1024.88,-8.2854 1014.8,-11.5474 1024.72,-15.2834 1024.88,-8.2854"/>
</g>
<!-- Node13 -->
<g id="node13" class="node"><title>Node13</title>
<g id="a_node13"><a xlink:href="sundialsUtils_8h.html" target="_top" xlink:title="sundialsUtils.h">
<polygon fill="white" stroke="black" points="917.5,-179.5 917.5,-198.5 994.5,-198.5 994.5,-179.5 917.5,-179.5"/>
<text text-anchor="middle" x="956" y="-186.5" font-family="FreeSans" font-size="10.00">sundialsUtils.h</text>
</a>
</g>
</g>
<!-- Node1&#45;&gt;Node13 -->
<g id="edge46" class="edge"><title>Node1&#45;&gt;Node13</title>
<path fill="none" stroke="midnightblue" d="M956,-291.368C956,-273.617 956,-232.666 956,-208.597"/>
<polygon fill="midnightblue" stroke="midnightblue" points="959.5,-208.591 956,-198.591 952.5,-208.591 959.5,-208.591"/>
</g>
<!-- Node30 -->
<g id="node30" class="node"><title>Node30</title>
<g id="a_node30"><a xlink:href="readConfig_8h.html" target="_top" xlink:title="readConfig.h">
<polygon fill="white" stroke="black" points="67,-179.5 67,-198.5 137,-198.5 137,-179.5 67,-179.5"/>
<text text-anchor="middle" x="102" y="-186.5" font-family="FreeSans" font-size="10.00">readConfig.h</text>
</a>
</g>
</g>
<!-- Node1&#45;&gt;Node30 -->
<g id="edge37" class="edge"><title>Node1&#45;&gt;Node30</title>
<path fill="none" stroke="midnightblue" d="M900.376,-298.798C757.249,-295.325 378.936,-283.638 257,-255 208.81,-243.682 156.424,-218.821 126.564,-203.336"/>
<polygon fill="midnightblue" stroke="midnightblue" points="128.174,-200.228 117.695,-198.667 124.913,-206.423 128.174,-200.228"/>
</g>
<!-- Node31 -->
<g id="node31" class="node"><title>Node31</title>
<g id="a_node31"><a xlink:href="perfTimer_8h.html" target="_top" xlink:title="perfTimer.h">
<polygon fill="white" stroke="black" points="1533.5,-235.5 1533.5,-254.5 1598.5,-254.5 1598.5,-235.5 1533.5,-235.5"/>
<text text-anchor="middle" x="1566" y="-242.5" font-family="FreeSans" font-size="10.00">perfTimer.h</text>
</a>
</g>
</g>
<!-- Node1&#45;&gt;Node31 -->
<g id="edge40" class="edge"><title>Node1&#45;&gt;Node31</title>
<path fill="none" stroke="midnightblue" d="M1011.59,-296.33C1110,-289.625 1321.26,-274.29 1499,-255 1506.88,-254.145 1515.26,-253.116 1523.33,-252.063"/>
<polygon fill="midnightblue" stroke="midnightblue" points="1523.88,-255.52 1533.33,-250.728 1522.95,-248.582 1523.88,-255.52"/>
</g>
<!-- Node35 -->
<g id="node35" class="node"><title>Node35</title>
<g id="a_node35"><a xlink:href="chemistry0d_8h.html" target="_top" xlink:title="chemistry0d.h">
<polygon fill="white" stroke="black" points="1831,-179.5 1831,-198.5 1907,-198.5 1907,-179.5 1831,-179.5"/>
<text text-anchor="middle" x="1869" y="-186.5" font-family="FreeSans" font-size="10.00">chemistry0d.h</text>
</a>
</g>
</g>
<!-- Node1&#45;&gt;Node35 -->
<g id="edge47" class="edge"><title>Node1&#45;&gt;Node35</title>
<path fill="none" stroke="midnightblue" d="M1011.75,-299.434C1124.87,-297.564 1389.17,-289.528 1608,-255 1688.91,-242.233 1781.48,-216.444 1831.75,-201.472"/>
<polygon fill="midnightblue" stroke="midnightblue" points="1832.94,-204.767 1841.52,-198.54 1830.93,-198.063 1832.94,-204.767"/>
</g>
<!-- Node41 -->
<g id="node41" class="node"><title>Node41</title>
<g id="a_node41"><a xlink:href="scalarFunction_8h.html" target="_top" xlink:title="scalarFunction.h">
<polygon fill="white" stroke="black" points="266.5,-235.5 266.5,-254.5 353.5,-254.5 353.5,-235.5 266.5,-235.5"/>
<text text-anchor="middle" x="310" y="-242.5" font-family="FreeSans" font-size="10.00">scalarFunction.h</text>
</a>
</g>
</g>
<!-- Node1&#45;&gt;Node41 -->
<g id="edge55" class="edge"><title>Node1&#45;&gt;Node41</title>
<path fill="none" stroke="midnightblue" d="M900.264,-295.63C801.052,-287.808 587.297,-270.753 407,-255 393.036,-253.78 377.946,-252.406 363.923,-251.107"/>
<polygon fill="midnightblue" stroke="midnightblue" points="364.214,-247.619 353.932,-250.177 363.565,-254.589 364.214,-247.619"/>
</g>
<!-- Node3 -->
<g id="node3" class="node"><title>Node3</title>
<g id="a_node3"><a xlink:href="mathUtils_8h.html" target="_top" xlink:title="mathUtils.h">
<polygon fill="white" stroke="black" points="190.5,-118 190.5,-137 255.5,-137 255.5,-118 190.5,-118"/>
<text text-anchor="middle" x="223" y="-125" font-family="FreeSans" font-size="10.00">mathUtils.h</text>
</a>
</g>
</g>
<!-- Node2&#45;&gt;Node3 -->
<g id="edge2" class="edge"><title>Node2&#45;&gt;Node3</title>
<path fill="none" stroke="midnightblue" d="M416.423,-237.512C383.155,-231.164 336.584,-219.396 300,-199 274.888,-185 251.333,-161.282 237.047,-145.264"/>
<polygon fill="midnightblue" stroke="midnightblue" points="239.308,-142.53 230.113,-137.268 234.02,-147.116 239.308,-142.53"/>
</g>
<!-- Node2&#45;&gt;Node13 -->
<g id="edge14" class="edge"><title>Node2&#45;&gt;Node13</title>
<path fill="none" stroke="midnightblue" d="M501.804,-239.349C593.812,-229.352 809.94,-205.87 907.136,-195.309"/>
<polygon fill="midnightblue" stroke="midnightblue" points="907.712,-198.767 917.275,-194.208 906.956,-191.808 907.712,-198.767"/>
</g>
<!-- Node25 -->
<g id="node25" class="node"><title>Node25</title>
<g id="a_node25"><a xlink:href="qssintegrator_8h.html" target="_top" xlink:title="qssintegrator.h">
<polygon fill="white" stroke="black" points="309.5,-179.5 309.5,-198.5 388.5,-198.5 388.5,-179.5 309.5,-179.5"/>
<text text-anchor="middle" x="349" y="-186.5" font-family="FreeSans" font-size="10.00">qssintegrator.h</text>
</a>
</g>
</g>
<!-- Node2&#45;&gt;Node25 -->
<g id="edge28" class="edge"><title>Node2&#45;&gt;Node25</title>
<path fill="none" stroke="midnightblue" d="M441.327,-235.324C423.606,-226.625 396.097,-213.12 375.712,-203.113"/>
<polygon fill="midnightblue" stroke="midnightblue" points="377.149,-199.919 366.63,-198.655 374.064,-206.203 377.149,-199.919"/>
</g>
<!-- Node26 -->
<g id="node26" class="node"><title>Node26</title>
<g id="a_node26"><a xlink:href="quasi2d_8h.html" target="_top" xlink:title="quasi2d.h">
<polygon fill="white" stroke="black" points="530.5,-179.5 530.5,-198.5 587.5,-198.5 587.5,-179.5 530.5,-179.5"/>
<text text-anchor="middle" x="559" y="-186.5" font-family="FreeSans" font-size="10.00">quasi2d.h</text>
</a>
</g>
</g>
<!-- Node2&#45;&gt;Node26 -->
<g id="edge30" class="edge"><title>Node2&#45;&gt;Node26</title>
<path fill="none" stroke="midnightblue" d="M475.067,-235.324C490.958,-226.743 515.507,-213.486 533.958,-203.522"/>
<polygon fill="midnightblue" stroke="midnightblue" points="535.837,-206.486 542.973,-198.655 532.511,-200.326 535.837,-206.486"/>
</g>
<!-- Node27 -->
<g id="node27" class="node"><title>Node27</title>
<g id="a_node27"><a xlink:href="callback_8h.html" target="_top" xlink:title="callback.h">
<polygon fill="white" stroke="black" points="193,-179.5 193,-198.5 253,-198.5 253,-179.5 193,-179.5"/>
<text text-anchor="middle" x="223" y="-186.5" font-family="FreeSans" font-size="10.00">callback.h</text>
</a>
</g>
</g>
<!-- Node2&#45;&gt;Node27 -->
<g id="edge33" class="edge"><title>Node2&#45;&gt;Node27</title>
<path fill="none" stroke="midnightblue" d="M421.605,-235.444C378.317,-225.539 307.307,-209.291 262.958,-199.143"/>
<polygon fill="midnightblue" stroke="midnightblue" points="263.635,-195.707 253.106,-196.889 262.073,-202.531 263.635,-195.707"/>
</g>
<!-- Node29 -->
<g id="node29" class="node"><title>Node29</title>
<polygon fill="white" stroke="#bfbfbf" points="406,-179.5 406,-198.5 512,-198.5 512,-179.5 406,-179.5"/>
<text text-anchor="middle" x="459" y="-186.5" font-family="FreeSans" font-size="10.00">boost/shared_ptr.hpp</text>
</g>
<!-- Node2&#45;&gt;Node29 -->
<g id="edge36" class="edge"><title>Node2&#45;&gt;Node29</title>
<path fill="none" stroke="midnightblue" d="M459,-235.083C459,-228.006 459,-217.861 459,-208.986"/>
<polygon fill="midnightblue" stroke="midnightblue" points="462.5,-208.751 459,-198.751 455.5,-208.751 462.5,-208.751"/>
</g>
<!-- Node4 -->
<g id="node4" class="node"><title>Node4</title>
<polygon fill="white" stroke="#bfbfbf" points="447.5,-56.5 447.5,-75.5 490.5,-75.5 490.5,-56.5 447.5,-56.5"/>
<text text-anchor="middle" x="469" y="-63.5" font-family="FreeSans" font-size="10.00">vector</text>
</g>
<!-- Node3&#45;&gt;Node4 -->
<g id="edge3" class="edge"><title>Node3&#45;&gt;Node4</title>
<path fill="none" stroke="midnightblue" d="M255.547,-119.407C295.876,-110.498 366.905,-94.414 437.417,-76.0445"/>
<polygon fill="midnightblue" stroke="midnightblue" points="438.574,-79.3595 447.359,-73.4379 436.799,-72.5883 438.574,-79.3595"/>
</g>
<!-- Node5 -->
<g id="node5" class="node"><title>Node5</title>
<polygon fill="white" stroke="#bfbfbf" points="136,-56.5 136,-75.5 180,-75.5 180,-56.5 136,-56.5"/>
<text text-anchor="middle" x="158" y="-63.5" font-family="FreeSans" font-size="10.00">cmath</text>
</g>
<!-- Node3&#45;&gt;Node5 -->
<g id="edge4" class="edge"><title>Node3&#45;&gt;Node5</title>
<path fill="none" stroke="midnightblue" d="M213.687,-117.975C203.551,-108.697 187.136,-93.6706 174.748,-82.331"/>
<polygon fill="midnightblue" stroke="midnightblue" points="177.035,-79.6795 167.296,-75.5091 172.309,-84.8429 177.035,-79.6795"/>
</g>
<!-- Node6 -->
<g id="node6" class="node"><title>Node6</title>
<polygon fill="white" stroke="#bfbfbf" points="339.5,-0.5 339.5,-19.5 392.5,-19.5 392.5,-0.5 339.5,-0.5"/>
<text text-anchor="middle" x="366" y="-7.5" font-family="FreeSans" font-size="10.00">iostream</text>
</g>
<!-- Node3&#45;&gt;Node6 -->
<g id="edge5" class="edge"><title>Node3&#45;&gt;Node6</title>
<path fill="none" stroke="midnightblue" d="M251.405,-117.958C283.458,-107.8 332.849,-90.4064 346,-76 357.557,-63.3395 362.438,-44.1325 364.498,-29.8768"/>
<polygon fill="midnightblue" stroke="midnightblue" points="368,-30.0489 365.619,-19.7251 361.043,-29.2804 368,-30.0489"/>
</g>
<!-- Node7 -->
<g id="node7" class="node"><title>Node7</title>
<polygon fill="white" stroke="#bfbfbf" points="198,-56.5 198,-75.5 248,-75.5 248,-56.5 198,-56.5"/>
<text text-anchor="middle" x="223" y="-63.5" font-family="FreeSans" font-size="10.00">sstream</text>
</g>
<!-- Node3&#45;&gt;Node7 -->
<g id="edge6" class="edge"><title>Node3&#45;&gt;Node7</title>
<path fill="none" stroke="midnightblue" d="M223,-117.975C223,-109.58 223,-96.4806 223,-85.6631"/>
<polygon fill="midnightblue" stroke="midnightblue" points="226.5,-85.5091 223,-75.5091 219.5,-85.5091 226.5,-85.5091"/>
</g>
<!-- Node8 -->
<g id="node8" class="node"><title>Node8</title>
<polygon fill="white" stroke="#bfbfbf" points="0,-0.5 0,-19.5 40,-19.5 40,-0.5 0,-0.5"/>
<text text-anchor="middle" x="20" y="-7.5" font-family="FreeSans" font-size="10.00">string</text>
</g>
<!-- Node3&#45;&gt;Node8 -->
<g id="edge7" class="edge"><title>Node3&#45;&gt;Node8</title>
<path fill="none" stroke="midnightblue" d="M199.125,-117.868C193.232,-115.845 186.913,-113.767 181,-112 118.618,-93.36 85.8614,-121.2 39,-76 26.5806,-64.0209 22.1565,-44.4132 20.6422,-29.8611"/>
<polygon fill="midnightblue" stroke="midnightblue" points="24.1102,-29.2625 19.9545,-19.5168 17.1256,-29.7269 24.1102,-29.2625"/>
</g>
<!-- Node9 -->
<g id="node9" class="node"><title>Node9</title>
<polygon fill="white" stroke="#bfbfbf" points="394.5,-56.5 394.5,-75.5 429.5,-75.5 429.5,-56.5 394.5,-56.5"/>
<text text-anchor="middle" x="412" y="-63.5" font-family="FreeSans" font-size="10.00">map</text>
</g>
<!-- Node3&#45;&gt;Node9 -->
<g id="edge8" class="edge"><title>Node3&#45;&gt;Node9</title>
<path fill="none" stroke="midnightblue" d="M250.079,-117.975C285.846,-106.715 348.498,-86.9912 384.483,-75.6628"/>
<polygon fill="midnightblue" stroke="midnightblue" points="385.821,-78.911 394.308,-72.5696 383.719,-72.2341 385.821,-78.911"/>
</g>
<!-- Node10 -->
<g id="node10" class="node"><title>Node10</title>
<g id="a_node10"><a xlink:href="debugUtils_8h.html" target="_top" xlink:title="debugUtils.h">
<polygon fill="white" stroke="red" points="48.5,-56.5 48.5,-75.5 117.5,-75.5 117.5,-56.5 48.5,-56.5"/>
<text text-anchor="middle" x="83" y="-63.5" font-family="FreeSans" font-size="10.00">debugUtils.h</text>
</a>
</g>
</g>
<!-- Node3&#45;&gt;Node10 -->
<g id="edge9" class="edge"><title>Node3&#45;&gt;Node10</title>
<path fill="none" stroke="midnightblue" d="M202.941,-117.975C179.238,-107.901 139.594,-91.0525 112.417,-79.5023"/>
<polygon fill="midnightblue" stroke="midnightblue" points="113.594,-76.1994 103.021,-75.5091 110.856,-82.6417 113.594,-76.1994"/>
</g>
<!-- Node12 -->
<g id="node12" class="node"><title>Node12</title>
<polygon fill="white" stroke="#bfbfbf" points="266.5,-56.5 266.5,-75.5 337.5,-75.5 337.5,-56.5 266.5,-56.5"/>
<text text-anchor="middle" x="302" y="-63.5" font-family="FreeSans" font-size="10.00">Eigen/Dense</text>
</g>
<!-- Node3&#45;&gt;Node12 -->
<g id="edge13" class="edge"><title>Node3&#45;&gt;Node12</title>
<path fill="none" stroke="midnightblue" d="M234.319,-117.975C246.873,-108.52 267.351,-93.0961 282.499,-81.6871"/>
<polygon fill="midnightblue" stroke="midnightblue" points="284.82,-84.321 290.702,-75.5091 280.609,-78.7295 284.82,-84.321"/>
</g>
<!-- Node10&#45;&gt;Node6 -->
<g id="edge11" class="edge"><title>Node10&#45;&gt;Node6</title>
<path fill="none" stroke="midnightblue" d="M117.577,-57.8742C120.761,-57.234 123.94,-56.6011 127,-56 198.643,-41.9292 282.548,-26.3353 329.461,-17.696"/>
<polygon fill="midnightblue" stroke="midnightblue" points="330.247,-21.1102 339.449,-15.8589 328.981,-14.2257 330.247,-21.1102"/>
</g>
<!-- Node10&#45;&gt;Node8 -->
<g id="edge10" class="edge"><title>Node10&#45;&gt;Node8</title>
<path fill="none" stroke="midnightblue" d="M72.878,-56.324C63.4736,-48.2631 49.2559,-36.0765 37.931,-26.3695"/>
<polygon fill="midnightblue" stroke="midnightblue" points="40.1766,-23.6844 30.3062,-19.8339 35.621,-28.9993 40.1766,-23.6844"/>
</g>
<!-- Node10&#45;&gt;Node11 -->
<g id="edge12" class="edge"><title>Node10&#45;&gt;Node11</title>
<path fill="none" stroke="midnightblue" d="M117.506,-57.4378C120.706,-56.8892 123.907,-56.3967 127,-56 422.759,-18.0712 780.853,-12.0069 915.405,-11.1154"/>
<polygon fill="midnightblue" stroke="midnightblue" points="915.482,-14.6151 925.461,-11.0558 915.44,-7.61523 915.482,-14.6151"/>
</g>
<!-- Node13&#45;&gt;Node4 -->
<g id="edge25" class="edge"><title>Node13&#45;&gt;Node4</title>
<path fill="none" stroke="midnightblue" d="M917.089,-186.598C784.977,-181.652 360.679,-164.172 341,-143 331.62,-132.908 333.035,-123.242 341,-112 343.925,-107.871 400.599,-89.0086 437.545,-77.0532"/>
<polygon fill="midnightblue" stroke="midnightblue" points="438.938,-80.2817 447.381,-73.8823 436.79,-73.6194 438.938,-80.2817"/>
</g>
<!-- Node13&#45;&gt;Node6 -->
<g id="edge24" class="edge"><title>Node13&#45;&gt;Node6</title>
<path fill="none" stroke="midnightblue" d="M994.659,-185.69C1062.31,-180.279 1190.91,-163.103 1146,-112 1096.2,-55.3401 551.23,-21.2434 403.02,-12.9731"/>
<polygon fill="midnightblue" stroke="midnightblue" points="402.83,-9.45739 392.652,-12.4008 402.444,-16.4468 402.83,-9.45739"/>
</g>
<!-- Node14 -->
<g id="node14" class="node"><title>Node14</title>
<polygon fill="white" stroke="#bfbfbf" points="1193,-118 1193,-137 1311,-137 1311,-118 1193,-118"/>
<text text-anchor="middle" x="1252" y="-125" font-family="FreeSans" font-size="10.00">nvector/nvector_serial.h</text>
</g>
<!-- Node13&#45;&gt;Node14 -->
<g id="edge15" class="edge"><title>Node13&#45;&gt;Node14</title>
<path fill="none" stroke="midnightblue" d="M994.697,-180.221C1047.14,-169.68 1140.94,-150.824 1199.64,-139.025"/>
<polygon fill="midnightblue" stroke="midnightblue" points="1200.35,-142.453 1209.46,-137.051 1198.97,-135.59 1200.35,-142.453"/>
</g>
<!-- Node15 -->
<g id="node15" class="node"><title>Node15</title>
<polygon fill="white" stroke="#bfbfbf" points="1329.5,-118 1329.5,-137 1456.5,-137 1456.5,-118 1329.5,-118"/>
<text text-anchor="middle" x="1393" y="-125" font-family="FreeSans" font-size="10.00">sundials/sundials_dense.h</text>
</g>
<!-- Node13&#45;&gt;Node15 -->
<g id="edge16" class="edge"><title>Node13&#45;&gt;Node15</title>
<path fill="none" stroke="midnightblue" d="M994.653,-184.16C1061.28,-177.331 1201.97,-161.992 1320,-143 1327.45,-141.801 1335.3,-140.394 1342.98,-138.937"/>
<polygon fill="midnightblue" stroke="midnightblue" points="1343.78,-142.347 1352.93,-137.006 1342.45,-135.476 1343.78,-142.347"/>
</g>
<!-- Node16 -->
<g id="node16" class="node"><title>Node16</title>
<polygon fill="white" stroke="#bfbfbf" points="350,-118 350,-137 472,-137 472,-118 350,-118"/>
<text text-anchor="middle" x="411" y="-125" font-family="FreeSans" font-size="10.00">sundials/sundials_band.h</text>
</g>
<!-- Node13&#45;&gt;Node16 -->
<g id="edge17" class="edge"><title>Node13&#45;&gt;Node16</title>
<path fill="none" stroke="midnightblue" d="M917.344,-185.781C836.172,-180.806 642.163,-167.251 481,-143 473.576,-141.883 465.752,-140.484 458.132,-138.999"/>
<polygon fill="midnightblue" stroke="midnightblue" points="458.776,-135.559 448.282,-137.014 457.393,-142.421 458.776,-135.559"/>
</g>
<!-- Node17 -->
<g id="node17" class="node"><title>Node17</title>
<polygon fill="white" stroke="#bfbfbf" points="490,-118 490,-137 614,-137 614,-118 490,-118"/>
<text text-anchor="middle" x="552" y="-125" font-family="FreeSans" font-size="10.00">sundials/sundials_types.h</text>
</g>
<!-- Node13&#45;&gt;Node17 -->
<g id="edge18" class="edge"><title>Node13&#45;&gt;Node17</title>
<path fill="none" stroke="midnightblue" d="M917.416,-183.639C855.243,-176.42 729.12,-160.986 623,-143 615.922,-141.8 608.472,-140.415 601.167,-138.987"/>
<polygon fill="midnightblue" stroke="midnightblue" points="601.836,-135.551 591.345,-137.025 600.465,-142.416 601.836,-135.551"/>
</g>
<!-- Node18 -->
<g id="node18" class="node"><title>Node18</title>
<polygon fill="white" stroke="#bfbfbf" points="632,-118 632,-137 710,-137 710,-118 632,-118"/>
<text text-anchor="middle" x="671" y="-125" font-family="FreeSans" font-size="10.00">cvode/cvode.h</text>
</g>
<!-- Node13&#45;&gt;Node18 -->
<g id="edge19" class="edge"><title>Node13&#45;&gt;Node18</title>
<path fill="none" stroke="midnightblue" d="M917.142,-181.918C869.971,-174.238 788.148,-159.959 719,-143 715.162,-142.059 711.177,-140.996 707.216,-139.883"/>
<polygon fill="midnightblue" stroke="midnightblue" points="708.101,-136.495 697.521,-137.058 706.142,-143.216 708.101,-136.495"/>
</g>
<!-- Node19 -->
<g id="node19" class="node"><title>Node19</title>
<polygon fill="white" stroke="#bfbfbf" points="728.5,-118 728.5,-137 837.5,-137 837.5,-118 728.5,-118"/>
<text text-anchor="middle" x="783" y="-125" font-family="FreeSans" font-size="10.00">cvode/cvode_dense.h</text>
</g>
<!-- Node13&#45;&gt;Node19 -->
<g id="edge20" class="edge"><title>Node13&#45;&gt;Node19</title>
<path fill="none" stroke="midnightblue" d="M931.213,-179.475C901.409,-169.225 851.209,-151.959 817.598,-140.399"/>
<polygon fill="midnightblue" stroke="midnightblue" points="818.335,-136.952 807.741,-137.009 816.059,-143.571 818.335,-136.952"/>
</g>
<!-- Node20 -->
<g id="node20" class="node"><title>Node20</title>
<polygon fill="white" stroke="#bfbfbf" points="856,-118 856,-137 960,-137 960,-118 856,-118"/>
<text text-anchor="middle" x="908" y="-125" font-family="FreeSans" font-size="10.00">cvode/cvode_band.h</text>
</g>
<!-- Node13&#45;&gt;Node20 -->
<g id="edge21" class="edge"><title>Node13&#45;&gt;Node20</title>
<path fill="none" stroke="midnightblue" d="M949.123,-179.475C941.851,-170.462 930.205,-156.025 921.159,-144.812"/>
<polygon fill="midnightblue" stroke="midnightblue" points="923.867,-142.595 914.864,-137.009 918.419,-146.99 923.867,-142.595"/>
</g>
<!-- Node21 -->
<g id="node21" class="node"><title>Node21</title>
<polygon fill="white" stroke="#bfbfbf" points="978.5,-118 978.5,-137 1031.5,-137 1031.5,-118 978.5,-118"/>
<text text-anchor="middle" x="1005" y="-125" font-family="FreeSans" font-size="10.00">ida/ida.h</text>
</g>
<!-- Node13&#45;&gt;Node21 -->
<g id="edge22" class="edge"><title>Node13&#45;&gt;Node21</title>
<path fill="none" stroke="midnightblue" d="M963.021,-179.475C970.443,-170.462 982.333,-156.025 991.567,-144.812"/>
<polygon fill="midnightblue" stroke="midnightblue" points="994.337,-146.953 997.993,-137.009 988.934,-142.503 994.337,-146.953"/>
</g>
<!-- Node22 -->
<g id="node22" class="node"><title>Node22</title>
<polygon fill="white" stroke="#bfbfbf" points="1049,-118 1049,-137 1137,-137 1137,-118 1049,-118"/>
<text text-anchor="middle" x="1093" y="-125" font-family="FreeSans" font-size="10.00">ida/ida_spbcgs.h</text>
</g>
<!-- Node13&#45;&gt;Node22 -->
<g id="edge23" class="edge"><title>Node13&#45;&gt;Node22</title>
<path fill="none" stroke="midnightblue" d="M975.629,-179.475C998.824,-169.401 1037.62,-152.553 1064.21,-141.002"/>
<polygon fill="midnightblue" stroke="midnightblue" points="1065.63,-144.203 1073.41,-137.009 1062.84,-137.782 1065.63,-144.203"/>
</g>
<!-- Node23 -->
<g id="node23" class="node"><title>Node23</title>
<polygon fill="white" stroke="#bfbfbf" points="1513.5,-118 1513.5,-137 1556.5,-137 1556.5,-118 1513.5,-118"/>
<text text-anchor="middle" x="1535" y="-125" font-family="FreeSans" font-size="10.00">time.h</text>
</g>
<!-- Node13&#45;&gt;Node23 -->
<g id="edge26" class="edge"><title>Node13&#45;&gt;Node23</title>
<path fill="none" stroke="midnightblue" d="M994.571,-186.169C1079.91,-181.773 1291.04,-169.008 1466,-143 1478.36,-141.162 1491.84,-138.484 1503.57,-135.929"/>
<polygon fill="midnightblue" stroke="midnightblue" points="1504.37,-139.337 1513.37,-133.738 1502.84,-132.505 1504.37,-139.337"/>
</g>
<!-- Node24 -->
<g id="node24" class="node"><title>Node24</title>
<g id="a_node24"><a xlink:href="config_8h.html" target="_top" xlink:title="config.h">
<polygon fill="white" stroke="black" points="1575,-118 1575,-137 1625,-137 1625,-118 1575,-118"/>
<text text-anchor="middle" x="1600" y="-125" font-family="FreeSans" font-size="10.00">config.h</text>
</a>
</g>
</g>
<!-- Node13&#45;&gt;Node24 -->
<g id="edge27" class="edge"><title>Node13&#45;&gt;Node24</title>
<path fill="none" stroke="midnightblue" d="M994.583,-186.811C1110.89,-182.965 1456.75,-169.547 1566,-143 1568.51,-142.39 1571.07,-141.614 1573.61,-140.738"/>
<polygon fill="midnightblue" stroke="midnightblue" points="1575.06,-143.929 1583.08,-137.012 1572.49,-137.414 1575.06,-143.929"/>
</g>
<!-- Node25&#45;&gt;Node3 -->
<g id="edge29" class="edge"><title>Node25&#45;&gt;Node3</title>
<path fill="none" stroke="midnightblue" d="M330.947,-179.475C309.802,-169.49 274.56,-152.848 250.122,-141.307"/>
<polygon fill="midnightblue" stroke="midnightblue" points="251.556,-138.114 241.019,-137.009 248.567,-144.444 251.556,-138.114"/>
</g>
<!-- Node26&#45;&gt;Node3 -->
<g id="edge31" class="edge"><title>Node26&#45;&gt;Node3</title>
<path fill="none" stroke="midnightblue" d="M530.425,-180.941C527.254,-180.244 524.064,-179.581 521,-179 410.278,-157.992 379.96,-167.687 270,-143 266.081,-142.12 262.016,-141.074 257.991,-139.953"/>
<polygon fill="midnightblue" stroke="midnightblue" points="258.753,-136.529 248.172,-137.062 256.776,-143.244 258.753,-136.529"/>
</g>
<!-- Node26&#45;&gt;Node9 -->
<g id="edge32" class="edge"><title>Node26&#45;&gt;Node9</title>
<path fill="none" stroke="midnightblue" d="M530.41,-181.018C527.242,-180.307 524.057,-179.62 521,-179 473.952,-169.463 338.987,-179.664 308,-143 299.106,-132.477 300.435,-123.515 308,-112 316.85,-98.5271 356.986,-83.8633 384.727,-75.0542"/>
<polygon fill="midnightblue" stroke="midnightblue" points="385.79,-78.3893 394.306,-72.0866 383.718,-71.7028 385.79,-78.3893"/>
</g>
<!-- Node27&#45;&gt;Node3 -->
<g id="edge35" class="edge"><title>Node27&#45;&gt;Node3</title>
<path fill="none" stroke="midnightblue" d="M223,-179.475C223,-171.08 223,-157.981 223,-147.163"/>
<polygon fill="midnightblue" stroke="midnightblue" points="226.5,-147.009 223,-137.009 219.5,-147.009 226.5,-147.009"/>
</g>
<!-- Node28 -->
<g id="node28" class="node"><title>Node28</title>
<polygon fill="white" stroke="#bfbfbf" points="114,-118 114,-137 172,-137 172,-118 114,-118"/>
<text text-anchor="middle" x="143" y="-125" font-family="FreeSans" font-size="10.00">stdexcept</text>
</g>
<!-- Node27&#45;&gt;Node28 -->
<g id="edge34" class="edge"><title>Node27&#45;&gt;Node28</title>
<path fill="none" stroke="midnightblue" d="M211.538,-179.475C198.825,-170.02 178.087,-154.596 162.747,-143.187"/>
<polygon fill="midnightblue" stroke="midnightblue" points="164.554,-140.169 154.441,-137.009 160.376,-145.785 164.554,-140.169"/>
</g>
<!-- Node30&#45;&gt;Node3 -->
<g id="edge38" class="edge"><title>Node30&#45;&gt;Node3</title>
<path fill="none" stroke="midnightblue" d="M119.336,-179.475C139.553,-169.534 173.187,-152.995 196.642,-141.461"/>
<polygon fill="midnightblue" stroke="midnightblue" points="198.267,-144.563 205.696,-137.009 195.178,-138.281 198.267,-144.563"/>
</g>
<!-- Node30&#45;&gt;Node8 -->
<g id="edge39" class="edge"><title>Node30&#45;&gt;Node8</title>
<path fill="none" stroke="midnightblue" d="M93.2439,-179.43C76.007,-161.902 38.0451,-119.893 23,-76 17.9005,-61.1225 17.4602,-43.2031 18.1197,-29.9503"/>
<polygon fill="midnightblue" stroke="midnightblue" points="21.6308,-29.9338 18.8929,-19.6989 14.6506,-29.4073 21.6308,-29.9338"/>
</g>
<!-- Node31&#45;&gt;Node23 -->
<g id="edge45" class="edge"><title>Node31&#45;&gt;Node23</title>
<path fill="none" stroke="midnightblue" d="M1562.17,-235.182C1558.4,-226.213 1552.67,-211.847 1549,-199 1544.07,-181.771 1540.27,-161.686 1537.88,-147.371"/>
<polygon fill="midnightblue" stroke="midnightblue" points="1541.3,-146.617 1536.27,-137.293 1534.39,-147.72 1541.3,-146.617"/>
</g>
<!-- Node32 -->
<g id="node32" class="node"><title>Node32</title>
<g id="a_node32"><a xlink:href="tbb__tools_8h.html" target="_top" xlink:title="tbb_tools.h">
<polygon fill="white" stroke="black" points="1634.5,-179.5 1634.5,-198.5 1697.5,-198.5 1697.5,-179.5 1634.5,-179.5"/>
<text text-anchor="middle" x="1666" y="-186.5" font-family="FreeSans" font-size="10.00">tbb_tools.h</text>
</a>
</g>
</g>
<!-- Node31&#45;&gt;Node32 -->
<g id="edge41" class="edge"><title>Node31&#45;&gt;Node32</title>
<path fill="none" stroke="midnightblue" d="M1582.07,-235.324C1597.96,-226.743 1622.51,-213.486 1640.96,-203.522"/>
<polygon fill="midnightblue" stroke="midnightblue" points="1642.84,-206.486 1649.97,-198.655 1639.51,-200.326 1642.84,-206.486"/>
</g>
<!-- Node34 -->
<g id="node34" class="node"><title>Node34</title>
<polygon fill="white" stroke="#bfbfbf" points="1557.5,-179.5 1557.5,-198.5 1616.5,-198.5 1616.5,-179.5 1557.5,-179.5"/>
<text text-anchor="middle" x="1587" y="-186.5" font-family="FreeSans" font-size="10.00">sys/time.h</text>
</g>
<!-- Node31&#45;&gt;Node34 -->
<g id="edge44" class="edge"><title>Node31&#45;&gt;Node34</title>
<path fill="none" stroke="midnightblue" d="M1569.47,-235.083C1572.31,-227.77 1576.43,-217.181 1579.96,-208.103"/>
<polygon fill="midnightblue" stroke="midnightblue" points="1583.23,-209.34 1583.6,-198.751 1576.71,-206.803 1583.23,-209.34"/>
</g>
<!-- Node32&#45;&gt;Node24 -->
<g id="edge42" class="edge"><title>Node32&#45;&gt;Node24</title>
<path fill="none" stroke="midnightblue" d="M1656.54,-179.475C1646.25,-170.197 1629.58,-155.171 1617.01,-143.831"/>
<polygon fill="midnightblue" stroke="midnightblue" points="1619.21,-141.105 1609.44,-137.009 1614.52,-146.305 1619.21,-141.105"/>
</g>
<!-- Node33 -->
<g id="node33" class="node"><title>Node33</title>
<g id="a_node33"><a xlink:href="tbb__real_8h.html" target="_top" xlink:title="tbb_real.h">
<polygon fill="white" stroke="red" points="1643.5,-118 1643.5,-137 1702.5,-137 1702.5,-118 1643.5,-118"/>
<text text-anchor="middle" x="1673" y="-125" font-family="FreeSans" font-size="10.00">tbb_real.h</text>
</a>
</g>
</g>
<!-- Node32&#45;&gt;Node33 -->
<g id="edge43" class="edge"><title>Node32&#45;&gt;Node33</title>
<path fill="none" stroke="midnightblue" d="M1667,-179.475C1667.99,-171.08 1669.53,-157.981 1670.8,-147.163"/>
<polygon fill="midnightblue" stroke="midnightblue" points="1674.31,-147.35 1672,-137.009 1667.35,-146.532 1674.31,-147.35"/>
</g>
<!-- Node35&#45;&gt;Node3 -->
<g id="edge49" class="edge"><title>Node35&#45;&gt;Node3</title>
<path fill="none" stroke="midnightblue" d="M1830.72,-185.558C1797.9,-183.54 1749.36,-180.734 1707,-179 1100.19,-154.153 946.646,-188.088 341,-143 316.034,-141.141 288.237,-137.789 265.896,-134.776"/>
<polygon fill="midnightblue" stroke="midnightblue" points="266.108,-131.272 255.725,-133.377 265.155,-138.207 266.108,-131.272"/>
</g>
<!-- Node35&#45;&gt;Node24 -->
<g id="edge48" class="edge"><title>Node35&#45;&gt;Node24</title>
<path fill="none" stroke="midnightblue" d="M1830.74,-183.075C1783.93,-176.496 1702.56,-163.262 1635,-143 1632.71,-142.314 1630.37,-141.532 1628.04,-140.694"/>
<polygon fill="midnightblue" stroke="midnightblue" points="1629.23,-137.4 1618.64,-137.041 1626.69,-143.925 1629.23,-137.4"/>
</g>
<!-- Node36 -->
<g id="node36" class="node"><title>Node36</title>
<polygon fill="white" stroke="#bfbfbf" points="2213.5,-118 2213.5,-137 2368.5,-137 2368.5,-118 2213.5,-118"/>
<text text-anchor="middle" x="2291" y="-125" font-family="FreeSans" font-size="10.00">cantera/transport/MixTransport.h</text>
</g>
<!-- Node35&#45;&gt;Node36 -->
<g id="edge50" class="edge"><title>Node35&#45;&gt;Node36</title>
<path fill="none" stroke="midnightblue" d="M1907.1,-183.324C1969.47,-175.575 2097.2,-159.302 2205,-143 2213.7,-141.684 2222.89,-140.218 2231.88,-138.738"/>
<polygon fill="midnightblue" stroke="midnightblue" points="2232.64,-142.161 2241.93,-137.069 2231.49,-135.256 2232.64,-142.161"/>
</g>
<!-- Node37 -->
<g id="node37" class="node"><title>Node37</title>
<polygon fill="white" stroke="#bfbfbf" points="2386.5,-118 2386.5,-137 2547.5,-137 2547.5,-118 2386.5,-118"/>
<text text-anchor="middle" x="2467" y="-125" font-family="FreeSans" font-size="10.00">cantera/transport/MultiTransport.h</text>
</g>
<!-- Node35&#45;&gt;Node37 -->
<g id="edge51" class="edge"><title>Node35&#45;&gt;Node37</title>
<path fill="none" stroke="midnightblue" d="M1907.09,-185.591C1991.9,-180.018 2202.62,-165.01 2378,-143 2387.9,-141.757 2398.39,-140.234 2408.56,-138.648"/>
<polygon fill="midnightblue" stroke="midnightblue" points="2409.27,-142.079 2418.59,-137.048 2408.17,-135.167 2409.27,-142.079"/>
</g>
<!-- Node38 -->
<g id="node38" class="node"><title>Node38</title>
<polygon fill="white" stroke="#bfbfbf" points="1720.5,-112.5 1720.5,-142.5 1853.5,-142.5 1853.5,-112.5 1720.5,-112.5"/>
<text text-anchor="start" x="1728.5" y="-130.5" font-family="FreeSans" font-size="10.00">cantera/transport/Transport</text>
<text text-anchor="middle" x="1787" y="-119.5" font-family="FreeSans" font-size="10.00">Factory.h</text>
</g>
<!-- Node35&#45;&gt;Node38 -->
<g id="edge52" class="edge"><title>Node35&#45;&gt;Node38</title>
<path fill="none" stroke="midnightblue" d="M1857.25,-179.475C1846.15,-171.417 1829.07,-159.023 1814.53,-148.474"/>
<polygon fill="midnightblue" stroke="midnightblue" points="1816.48,-145.563 1806.33,-142.523 1812.36,-151.229 1816.48,-145.563"/>
</g>
<!-- Node39 -->
<g id="node39" class="node"><title>Node39</title>
<polygon fill="white" stroke="#bfbfbf" points="1872,-118 1872,-137 2030,-137 2030,-118 1872,-118"/>
<text text-anchor="middle" x="1951" y="-125" font-family="FreeSans" font-size="10.00">cantera/thermo/IdealGasPhase.h</text>
</g>
<!-- Node35&#45;&gt;Node39 -->
<g id="edge53" class="edge"><title>Node35&#45;&gt;Node39</title>
<path fill="none" stroke="midnightblue" d="M1880.75,-179.475C1893.78,-170.02 1915.04,-154.596 1930.76,-143.187"/>
<polygon fill="midnightblue" stroke="midnightblue" points="1933.23,-145.715 1939.27,-137.009 1929.12,-140.049 1933.23,-145.715"/>
</g>
<!-- Node40 -->
<g id="node40" class="node"><title>Node40</title>
<polygon fill="white" stroke="#bfbfbf" points="2048.5,-118 2048.5,-137 2195.5,-137 2195.5,-118 2048.5,-118"/>
<text text-anchor="middle" x="2122" y="-125" font-family="FreeSans" font-size="10.00">cantera/kinetics/GasKinetics.h</text>
</g>
<!-- Node35&#45;&gt;Node40 -->
<g id="edge54" class="edge"><title>Node35&#45;&gt;Node40</title>
<path fill="none" stroke="midnightblue" d="M1905.25,-179.475C1950.15,-168.915 2026.71,-150.911 2075.78,-139.369"/>
<polygon fill="midnightblue" stroke="midnightblue" points="2076.89,-142.706 2085.82,-137.009 2075.28,-135.891 2076.89,-142.706"/>
</g>
<!-- Node41&#45;&gt;Node3 -->
<g id="edge56" class="edge"><title>Node41&#45;&gt;Node3</title>
<path fill="none" stroke="midnightblue" d="M266.447,-240.882C237.892,-236.311 202.532,-225.297 184,-199 171.375,-181.085 188.815,-158.689 204.246,-144.01"/>
<polygon fill="midnightblue" stroke="midnightblue" points="206.847,-146.379 211.962,-137.101 202.177,-141.164 206.847,-146.379"/>
</g>
</g>
</svg>
