<?xml version="1.0" encoding="UTF-8" standalone="no"?>
<!DOCTYPE svg PUBLIC "-//W3C//DTD SVG 1.1//EN"
 "http://www.w3.org/Graphics/SVG/1.1/DTD/svg11.dtd">
<!-- Generated by graphviz version 2.28.0 (20120425.2022)
 -->
<!-- Title: src/sourceSystem.h Pages: 1 -->
<svg width="1762pt" height="252pt"
 viewBox="0.00 0.00 1762.00 252.00" xmlns="http://www.w3.org/2000/svg" xmlns:xlink="http://www.w3.org/1999/xlink">
<g id="graph1" class="graph" transform="scale(1 1) rotate(0) translate(4 248)">
<title>src/sourceSystem.h</title>
<polygon fill="white" stroke="white" points="-4,5 -4,-248 1759,-248 1759,5 -4,5"/>
<!-- Node1 -->
<g id="node1" class="node"><title>Node1</title>
<polygon fill="#bfbfbf" stroke="black" points="201.503,-224.5 201.503,-243.5 306.503,-243.5 306.503,-224.5 201.503,-224.5"/>
<text text-anchor="middle" x="254.003" y="-231.5" font-family="FreeSans" font-size="10.00">src/sourceSystem.h</text>
</g>
<!-- Node2 -->
<g id="node3" class="node"><title>Node2</title>
<a xlink:href="mathUtils_8h.html" target="_top" xlink:title="mathUtils.h">
<polygon fill="white" stroke="black" points="186.503,-112.5 186.503,-131.5 251.503,-131.5 251.503,-112.5 186.503,-112.5"/>
<text text-anchor="middle" x="219.003" y="-119.5" font-family="FreeSans" font-size="10.00">mathUtils.h</text>
</a>
</g>
<!-- Node1&#45;&gt;Node2 -->
<g id="edge2" class="edge"><title>Node1&#45;&gt;Node2</title>
<path fill="none" stroke="midnightblue" d="M238.269,-224.236C226.114,-216.481 210.192,-203.929 203.003,-188 196.147,-172.806 201.997,-154.232 208.467,-140.836"/>
<polygon fill="midnightblue" stroke="midnightblue" points="211.7,-142.211 213.335,-131.743 205.529,-138.907 211.7,-142.211"/>
</g>
<!-- Node11 -->
<g id="node23" class="node"><title>Node11</title>
<a xlink:href="sundialsUtils_8h.html" target="_top" xlink:title="sundialsUtils.h">
<polygon fill="white" stroke="black" points="906.003,-112.5 906.003,-131.5 986.003,-131.5 986.003,-112.5 906.003,-112.5"/>
<text text-anchor="middle" x="946.003" y="-119.5" font-family="FreeSans" font-size="10.00">sundialsUtils.h</text>
</a>
</g>
<!-- Node1&#45;&gt;Node11 -->
<g id="edge24" class="edge"><title>Node1&#45;&gt;Node11</title>
<path fill="none" stroke="midnightblue" d="M262.36,-224.308C277.071,-209.655 309.246,-180.424 343.003,-168 443.979,-130.838 769.872,-124.337 895.743,-123.222"/>
<polygon fill="midnightblue" stroke="midnightblue" points="895.903,-126.721 905.875,-123.14 895.847,-119.721 895.903,-126.721"/>
</g>
<!-- Node22 -->
<g id="node47" class="node"><title>Node22</title>
<a xlink:href="qssintegrator_8h.html" target="_top" xlink:title="qssintegrator.h">
<polygon fill="white" stroke="black" points="212.503,-168.5 212.503,-187.5 295.503,-187.5 295.503,-168.5 212.503,-168.5"/>
<text text-anchor="middle" x="254.003" y="-175.5" font-family="FreeSans" font-size="10.00">qssintegrator.h</text>
</a>
</g>
<!-- Node1&#45;&gt;Node22 -->
<g id="edge50" class="edge"><title>Node1&#45;&gt;Node22</title>
<path fill="none" stroke="midnightblue" d="M254.003,-224.083C254.003,-217.006 254.003,-206.861 254.003,-197.986"/>
<polygon fill="midnightblue" stroke="midnightblue" points="257.503,-197.751 254.003,-187.751 250.503,-197.751 257.503,-197.751"/>
</g>
<!-- Node23 -->
<g id="node50" class="node"><title>Node23</title>
<a xlink:href="quasi2d_8h.html" target="_top" xlink:title="quasi2d.h">
<polygon fill="white" stroke="black" points="68.0033,-168.5 68.0033,-187.5 128.003,-187.5 128.003,-168.5 68.0033,-168.5"/>
<text text-anchor="middle" x="98.0033" y="-175.5" font-family="FreeSans" font-size="10.00">quasi2d.h</text>
</a>
</g>
<!-- Node1&#45;&gt;Node23 -->
<g id="edge54" class="edge"><title>Node1&#45;&gt;Node23</title>
<path fill="none" stroke="midnightblue" d="M229.285,-224.444C203.155,-215.399 161.744,-201.064 132.427,-190.916"/>
<polygon fill="midnightblue" stroke="midnightblue" points="133.201,-187.48 122.606,-187.516 130.911,-194.095 133.201,-187.48"/>
</g>
<!-- Node24 -->
<g id="node55" class="node"><title>Node24</title>
<polygon fill="white" stroke="#bfbfbf" points="352.003,-168.5 352.003,-187.5 462.003,-187.5 462.003,-168.5 352.003,-168.5"/>
<text text-anchor="middle" x="407.003" y="-175.5" font-family="FreeSans" font-size="10.00">boost/shared_ptr.hpp</text>
</g>
<!-- Node1&#45;&gt;Node24 -->
<g id="edge62" class="edge"><title>Node1&#45;&gt;Node24</title>
<path fill="none" stroke="midnightblue" d="M278.247,-224.444C303.874,-215.399 344.488,-201.064 373.242,-190.916"/>
<polygon fill="midnightblue" stroke="midnightblue" points="374.608,-194.145 382.873,-187.516 372.279,-187.544 374.608,-194.145"/>
</g>
<!-- Node3 -->
<g id="node5" class="node"><title>Node3</title>
<polygon fill="white" stroke="#bfbfbf" points="464.003,-56.5 464.003,-75.5 508.003,-75.5 508.003,-56.5 464.003,-56.5"/>
<text text-anchor="middle" x="486.003" y="-63.5" font-family="FreeSans" font-size="10.00">vector</text>
</g>
<!-- Node2&#45;&gt;Node3 -->
<g id="edge4" class="edge"><title>Node2&#45;&gt;Node3</title>
<path fill="none" stroke="midnightblue" d="M251.632,-115.203C296.475,-107.108 379.606,-91.6451 450.003,-76 451.277,-75.717 452.574,-75.4224 453.883,-75.1199"/>
<polygon fill="midnightblue" stroke="midnightblue" points="455.053,-78.4389 463.962,-72.7051 453.422,-71.6315 455.053,-78.4389"/>
</g>
<!-- Node4 -->
<g id="node7" class="node"><title>Node4</title>
<polygon fill="white" stroke="#bfbfbf" points="274.003,-56.5 274.003,-75.5 318.003,-75.5 318.003,-56.5 274.003,-56.5"/>
<text text-anchor="middle" x="296.003" y="-63.5" font-family="FreeSans" font-size="10.00">cmath</text>
</g>
<!-- Node2&#45;&gt;Node4 -->
<g id="edge6" class="edge"><title>Node2&#45;&gt;Node4</title>
<path fill="none" stroke="midnightblue" d="M231.375,-112.324C243.162,-104.058 261.136,-91.4527 275.139,-81.6322"/>
<polygon fill="midnightblue" stroke="midnightblue" points="277.485,-84.2619 283.663,-75.6545 273.466,-78.5307 277.485,-84.2619"/>
</g>
<!-- Node5 -->
<g id="node9" class="node"><title>Node5</title>
<polygon fill="white" stroke="#bfbfbf" points="408.003,-0.5 408.003,-19.5 464.003,-19.5 464.003,-0.5 408.003,-0.5"/>
<text text-anchor="middle" x="436.003" y="-7.5" font-family="FreeSans" font-size="10.00">iostream</text>
</g>
<!-- Node2&#45;&gt;Node5 -->
<g id="edge8" class="edge"><title>Node2&#45;&gt;Node5</title>
<path fill="none" stroke="midnightblue" d="M251.779,-117.487C301.426,-111.527 392.417,-97.9037 416.003,-76 428.701,-64.2082 433.413,-44.5729 435.122,-29.9633"/>
<polygon fill="midnightblue" stroke="midnightblue" points="438.645,-29.8149 435.944,-19.57 431.666,-29.2627 438.645,-29.8149"/>
</g>
<!-- Node6 -->
<g id="node11" class="node"><title>Node6</title>
<polygon fill="white" stroke="#bfbfbf" points="71.5033,-56.5 71.5033,-75.5 124.503,-75.5 124.503,-56.5 71.5033,-56.5"/>
<text text-anchor="middle" x="98.0033" y="-63.5" font-family="FreeSans" font-size="10.00">sstream</text>
</g>
<!-- Node2&#45;&gt;Node6 -->
<g id="edge10" class="edge"><title>Node2&#45;&gt;Node6</title>
<path fill="none" stroke="midnightblue" d="M199.83,-112.444C180.094,-103.636 149.118,-89.8116 126.51,-79.722"/>
<polygon fill="midnightblue" stroke="midnightblue" points="127.645,-76.3957 117.086,-75.5164 124.792,-82.788 127.645,-76.3957"/>
</g>
<!-- Node7 -->
<g id="node13" class="node"><title>Node7</title>
<polygon fill="white" stroke="#bfbfbf" points="132.503,-0.5 132.503,-19.5 173.503,-19.5 173.503,-0.5 132.503,-0.5"/>
<text text-anchor="middle" x="153.003" y="-7.5" font-family="FreeSans" font-size="10.00">string</text>
</g>
<!-- Node2&#45;&gt;Node7 -->
<g id="edge12" class="edge"><title>Node2&#45;&gt;Node7</title>
<path fill="none" stroke="midnightblue" d="M206.866,-112.343C196.207,-104.134 181.033,-90.8698 172.003,-76 163.326,-61.7115 158.427,-43.2433 155.785,-29.6463"/>
<polygon fill="midnightblue" stroke="midnightblue" points="159.198,-28.8371 154.064,-19.5691 152.298,-30.0156 159.198,-28.8371"/>
</g>
<!-- Node8 -->
<g id="node15" class="node"><title>Node8</title>
<polygon fill="white" stroke="#bfbfbf" points="17.0033,-56.5 17.0033,-75.5 53.0033,-75.5 53.0033,-56.5 17.0033,-56.5"/>
<text text-anchor="middle" x="35.0033" y="-63.5" font-family="FreeSans" font-size="10.00">map</text>
</g>
<!-- Node2&#45;&gt;Node8 -->
<g id="edge14" class="edge"><title>Node2&#45;&gt;Node8</title>
<path fill="none" stroke="midnightblue" d="M187.609,-112.426C157.819,-104.196 111.577,-91.1827 63.0094,-76.2228"/>
<polygon fill="midnightblue" stroke="midnightblue" points="63.857,-72.8213 53.2691,-73.2057 61.7858,-79.5079 63.857,-72.8213"/>
</g>
<!-- Node9 -->
<g id="node17" class="node"><title>Node9</title>
<a xlink:href="debugUtils_8h.html" target="_top" xlink:title="debugUtils.h">
<polygon fill="white" stroke="red" points="336.503,-56.5 336.503,-75.5 407.503,-75.5 407.503,-56.5 336.503,-56.5"/>
<text text-anchor="middle" x="372.003" y="-63.5" font-family="FreeSans" font-size="10.00">debugUtils.h</text>
</a>
</g>
<!-- Node2&#45;&gt;Node9 -->
<g id="edge16" class="edge"><title>Node2&#45;&gt;Node9</title>
<path fill="none" stroke="midnightblue" d="M243.247,-112.444C268.874,-103.399 309.488,-89.064 338.242,-78.9158"/>
<polygon fill="midnightblue" stroke="midnightblue" points="339.608,-82.1452 347.873,-75.5164 337.279,-75.5442 339.608,-82.1452"/>
</g>
<!-- Node10 -->
<g id="node21" class="node"><title>Node10</title>
<polygon fill="white" stroke="#bfbfbf" points="181.503,-56.5 181.503,-75.5 256.503,-75.5 256.503,-56.5 181.503,-56.5"/>
<text text-anchor="middle" x="219.003" y="-63.5" font-family="FreeSans" font-size="10.00">Eigen/Dense</text>
</g>
<!-- Node2&#45;&gt;Node10 -->
<g id="edge22" class="edge"><title>Node2&#45;&gt;Node10</title>
<path fill="none" stroke="midnightblue" d="M219.003,-112.083C219.003,-105.006 219.003,-94.8611 219.003,-85.9865"/>
<polygon fill="midnightblue" stroke="midnightblue" points="222.503,-85.751 219.003,-75.7511 215.503,-85.7511 222.503,-85.751"/>
</g>
<!-- Node9&#45;&gt;Node5 -->
<g id="edge20" class="edge"><title>Node9&#45;&gt;Node5</title>
<path fill="none" stroke="midnightblue" d="M382.286,-56.324C391.84,-48.2631 406.283,-36.0765 417.788,-26.3695"/>
<polygon fill="midnightblue" stroke="midnightblue" points="420.148,-28.9577 425.533,-19.8339 415.633,-23.6076 420.148,-28.9577"/>
</g>
<!-- Node9&#45;&gt;Node7 -->
<g id="edge18" class="edge"><title>Node9&#45;&gt;Node7</title>
<path fill="none" stroke="midnightblue" d="M337.302,-56.4435C294.919,-45.9928 223.896,-28.4805 183.514,-18.5231"/>
<polygon fill="midnightblue" stroke="midnightblue" points="184.25,-15.1 173.703,-16.1041 182.575,-21.8965 184.25,-15.1"/>
</g>
<!-- Node11&#45;&gt;Node3 -->
<g id="edge46" class="edge"><title>Node11&#45;&gt;Node3</title>
<path fill="none" stroke="midnightblue" d="M905.727,-119.169C831.027,-115.259 665.922,-104.202 518.379,-75.9443"/>
<polygon fill="midnightblue" stroke="midnightblue" points="518.722,-72.4455 508.238,-73.9691 517.384,-79.3164 518.722,-72.4455"/>
</g>
<!-- Node11&#45;&gt;Node5 -->
<g id="edge44" class="edge"><title>Node11&#45;&gt;Node5</title>
<path fill="none" stroke="midnightblue" d="M905.787,-115.899C861.398,-109.538 788.252,-96.8798 728.003,-76 709.223,-69.4915 706.869,-62.2557 688.003,-56 614.555,-31.6456 524.445,-19.6035 474.314,-14.3916"/>
<polygon fill="midnightblue" stroke="midnightblue" points="474.543,-10.8971 464.243,-13.3811 473.844,-17.8621 474.543,-10.8971"/>
</g>
<!-- Node12 -->
<g id="node25" class="node"><title>Node12</title>
<polygon fill="white" stroke="#bfbfbf" points="736.503,-56.5 736.503,-75.5 859.503,-75.5 859.503,-56.5 736.503,-56.5"/>
<text text-anchor="middle" x="798.003" y="-63.5" font-family="FreeSans" font-size="10.00">nvector/nvector_serial.h</text>
</g>
<!-- Node11&#45;&gt;Node12 -->
<g id="edge26" class="edge"><title>Node11&#45;&gt;Node12</title>
<path fill="none" stroke="midnightblue" d="M922.552,-112.444C897.871,-103.438 858.818,-89.1891 831.027,-79.049"/>
<polygon fill="midnightblue" stroke="midnightblue" points="831.939,-75.6561 821.345,-75.5164 829.539,-82.2321 831.939,-75.6561"/>
</g>
<!-- Node13 -->
<g id="node27" class="node"><title>Node13</title>
<polygon fill="white" stroke="#bfbfbf" points="878.003,-56.5 878.003,-75.5 1014,-75.5 1014,-56.5 878.003,-56.5"/>
<text text-anchor="middle" x="946.003" y="-63.5" font-family="FreeSans" font-size="10.00">sundials/sundials_dense.h</text>
</g>
<!-- Node11&#45;&gt;Node13 -->
<g id="edge28" class="edge"><title>Node11&#45;&gt;Node13</title>
<path fill="none" stroke="midnightblue" d="M946.003,-112.083C946.003,-105.006 946.003,-94.8611 946.003,-85.9865"/>
<polygon fill="midnightblue" stroke="midnightblue" points="949.503,-85.751 946.003,-75.7511 942.503,-85.7511 949.503,-85.751"/>
</g>
<!-- Node14 -->
<g id="node29" class="node"><title>Node14</title>
<polygon fill="white" stroke="#bfbfbf" points="1032,-56.5 1032,-75.5 1162,-75.5 1162,-56.5 1032,-56.5"/>
<text text-anchor="middle" x="1097" y="-63.5" font-family="FreeSans" font-size="10.00">sundials/sundials_band.h</text>
</g>
<!-- Node11&#45;&gt;Node14 -->
<g id="edge30" class="edge"><title>Node11&#45;&gt;Node14</title>
<path fill="none" stroke="midnightblue" d="M969.93,-112.444C995.222,-103.399 1035.31,-89.064 1063.68,-78.9158"/>
<polygon fill="midnightblue" stroke="midnightblue" points="1064.95,-82.1794 1073.19,-75.5164 1062.59,-75.5882 1064.95,-82.1794"/>
</g>
<!-- Node15 -->
<g id="node31" class="node"><title>Node15</title>
<polygon fill="white" stroke="#bfbfbf" points="1180.5,-56.5 1180.5,-75.5 1311.5,-75.5 1311.5,-56.5 1180.5,-56.5"/>
<text text-anchor="middle" x="1246" y="-63.5" font-family="FreeSans" font-size="10.00">sundials/sundials_types.h</text>
</g>
<!-- Node11&#45;&gt;Node15 -->
<g id="edge32" class="edge"><title>Node11&#45;&gt;Node15</title>
<path fill="none" stroke="midnightblue" d="M986.151,-113.773C1038.22,-104.401 1129.39,-87.9904 1188.72,-77.3111"/>
<polygon fill="midnightblue" stroke="midnightblue" points="1189.46,-80.734 1198.68,-75.5177 1188.22,-73.8447 1189.46,-80.734"/>
</g>
<!-- Node16 -->
<g id="node33" class="node"><title>Node16</title>
<polygon fill="white" stroke="#bfbfbf" points="1330,-56.5 1330,-75.5 1414,-75.5 1414,-56.5 1330,-56.5"/>
<text text-anchor="middle" x="1372" y="-63.5" font-family="FreeSans" font-size="10.00">cvode/cvode.h</text>
</g>
<!-- Node11&#45;&gt;Node16 -->
<g id="edge34" class="edge"><title>Node11&#45;&gt;Node16</title>
<path fill="none" stroke="midnightblue" d="M986.22,-116.85C1053.09,-109.8 1191.57,-94.5621 1319.75,-75.9619"/>
<polygon fill="midnightblue" stroke="midnightblue" points="1320.36,-79.4105 1329.75,-74.5014 1319.35,-72.4841 1320.36,-79.4105"/>
</g>
<!-- Node17 -->
<g id="node35" class="node"><title>Node17</title>
<polygon fill="white" stroke="#bfbfbf" points="1432,-56.5 1432,-75.5 1550,-75.5 1550,-56.5 1432,-56.5"/>
<text text-anchor="middle" x="1491" y="-63.5" font-family="FreeSans" font-size="10.00">cvode/cvode_dense.h</text>
</g>
<!-- Node11&#45;&gt;Node17 -->
<g id="edge36" class="edge"><title>Node11&#45;&gt;Node17</title>
<path fill="none" stroke="midnightblue" d="M986.173,-117.686C1066.58,-110.949 1253.26,-94.782 1421.87,-75.9729"/>
<polygon fill="midnightblue" stroke="midnightblue" points="1422.38,-79.4382 1431.92,-74.8458 1421.6,-72.4818 1422.38,-79.4382"/>
</g>
<!-- Node18 -->
<g id="node37" class="node"><title>Node18</title>
<polygon fill="white" stroke="#bfbfbf" points="1568,-56.5 1568,-75.5 1680,-75.5 1680,-56.5 1568,-56.5"/>
<text text-anchor="middle" x="1624" y="-63.5" font-family="FreeSans" font-size="10.00">cvode/cvode_band.h</text>
</g>
<!-- Node11&#45;&gt;Node18 -->
<g id="edge38" class="edge"><title>Node11&#45;&gt;Node18</title>
<path fill="none" stroke="midnightblue" d="M986.247,-118.944C1082.87,-113.814 1335.77,-99.2466 1557.46,-76.1004"/>
<polygon fill="midnightblue" stroke="midnightblue" points="1558.08,-79.5546 1567.66,-75.0271 1557.35,-72.5931 1558.08,-79.5546"/>
</g>
<!-- Node19 -->
<g id="node39" class="node"><title>Node19</title>
<polygon fill="white" stroke="#bfbfbf" points="1698,-56.5 1698,-75.5 1754,-75.5 1754,-56.5 1698,-56.5"/>
<text text-anchor="middle" x="1726" y="-63.5" font-family="FreeSans" font-size="10.00">ida/ida.h</text>
</g>
<!-- Node11&#45;&gt;Node19 -->
<g id="edge40" class="edge"><title>Node11&#45;&gt;Node19</title>
<path fill="none" stroke="midnightblue" d="M986.067,-120.984C1097.8,-120.42 1422.13,-115.25 1688,-76 1688.1,-75.9851 1688.2,-75.9702 1688.31,-75.955"/>
<polygon fill="midnightblue" stroke="midnightblue" points="1688.67,-79.4466 1697.89,-74.2282 1687.42,-72.5577 1688.67,-79.4466"/>
</g>
<!-- Node20 -->
<g id="node41" class="node"><title>Node20</title>
<polygon fill="white" stroke="#bfbfbf" points="525.503,-56.5 525.503,-75.5 618.503,-75.5 618.503,-56.5 525.503,-56.5"/>
<text text-anchor="middle" x="572.003" y="-63.5" font-family="FreeSans" font-size="10.00">ida/ida_spbcgs.h</text>
</g>
<!-- Node11&#45;&gt;Node20 -->
<g id="edge42" class="edge"><title>Node11&#45;&gt;Node20</title>
<path fill="none" stroke="midnightblue" d="M905.809,-115.558C847.268,-107.579 734.864,-92.0547 628.67,-76.0767"/>
<polygon fill="midnightblue" stroke="midnightblue" points="629.154,-72.6103 618.744,-74.5792 628.11,-79.5319 629.154,-72.6103"/>
</g>
<!-- Node21 -->
<g id="node45" class="node"><title>Node21</title>
<polygon fill="white" stroke="#bfbfbf" points="636.503,-56.5 636.503,-75.5 679.503,-75.5 679.503,-56.5 636.503,-56.5"/>
<text text-anchor="middle" x="658.003" y="-63.5" font-family="FreeSans" font-size="10.00">time.h</text>
</g>
<!-- Node11&#45;&gt;Node21 -->
<g id="edge48" class="edge"><title>Node11&#45;&gt;Node21</title>
<path fill="none" stroke="midnightblue" d="M905.685,-114.672C855.79,-106.64 768.316,-91.9048 694.003,-76 692.546,-75.6882 691.059,-75.3593 689.559,-75.0189"/>
<polygon fill="midnightblue" stroke="midnightblue" points="690.188,-71.571 679.65,-72.6659 688.57,-78.3817 690.188,-71.571"/>
</g>
<!-- Node22&#45;&gt;Node2 -->
<g id="edge52" class="edge"><title>Node22&#45;&gt;Node2</title>
<path fill="none" stroke="midnightblue" d="M248.224,-168.083C243.331,-160.534 236.176,-149.495 230.171,-140.23"/>
<polygon fill="midnightblue" stroke="midnightblue" points="233.051,-138.239 224.675,-131.751 227.177,-142.046 233.051,-138.239"/>
</g>
<!-- Node23&#45;&gt;Node2 -->
<g id="edge56" class="edge"><title>Node23&#45;&gt;Node2</title>
<path fill="none" stroke="midnightblue" d="M117.176,-168.444C136.912,-159.636 167.888,-145.812 190.497,-135.722"/>
<polygon fill="midnightblue" stroke="midnightblue" points="192.215,-138.788 199.92,-131.516 189.362,-132.396 192.215,-138.788"/>
</g>
<!-- Node23&#45;&gt;Node7 -->
<g id="edge58" class="edge"><title>Node23&#45;&gt;Node7</title>
<path fill="none" stroke="midnightblue" d="M82.5091,-168.215C49.3474,-148.296 -23.0538,-98.1567 8.00327,-56 34.1011,-20.5749 87.819,-12.2155 122.039,-10.6868"/>
<polygon fill="midnightblue" stroke="midnightblue" points="122.503,-14.1755 132.404,-10.4048 122.312,-7.17812 122.503,-14.1755"/>
</g>
<!-- Node23&#45;&gt;Node8 -->
<g id="edge60" class="edge"><title>Node23&#45;&gt;Node8</title>
<path fill="none" stroke="midnightblue" d="M93.0598,-168.368C82.709,-150.296 58.5861,-108.176 44.9157,-84.3074"/>
<polygon fill="midnightblue" stroke="midnightblue" points="47.9309,-82.5295 39.9238,-75.5914 41.8566,-86.0085 47.9309,-82.5295"/>
</g>
</g>
</svg>
