<?xml version="1.0" encoding="UTF-8" standalone="no"?>
<!DOCTYPE svg PUBLIC "-//W3C//DTD SVG 1.1//EN"
 "http://www.w3.org/Graphics/SVG/1.1/DTD/svg11.dtd">
<!-- Generated by graphviz version 8.1.0 (20230707.2238)
 -->
<!-- Title: src/sourceSystem.h Pages: 1 -->
<svg width="2539pt" height="269pt"
 viewBox="0.00 0.00 2539.38 268.50" xmlns="http://www.w3.org/2000/svg" xmlns:xlink="http://www.w3.org/1999/xlink">
<g id="graph0" class="graph" transform="scale(1 1) rotate(0) translate(4 264.5)">
<title>src/sourceSystem.h</title>
<!-- Node1 -->
<g id="Node000001" class="node">
<title>Node1</title>
<g id="a_Node000001"><a xlink:title=" ">
<polygon fill="#999999" stroke="#666666" points="492,-260.5 380.75,-260.5 380.75,-239.75 492,-239.75 492,-260.5"/>
<text text-anchor="middle" x="436.38" y="-247" font-family="FreeSans" font-size="10.00">src/sourceSystem.h</text>
</a>
</g>
</g>
<!-- Node2 -->
<g id="Node000002" class="node">
<title>Node2</title>
<g id="a_Node000002"><a xlink:href="mathUtils_8h.html" target="_top" xlink:title=" ">
<polygon fill="white" stroke="#666666" points="402.88,-147 329.88,-147 329.88,-126.25 402.88,-126.25 402.88,-147"/>
<text text-anchor="middle" x="366.38" y="-133.5" font-family="FreeSans" font-size="10.00">mathUtils.h</text>
</a>
</g>
</g>
<!-- Node1&#45;&gt;Node2 -->
<g id="edge1_Node000001_Node000002" class="edge">
<title>Node1&#45;&gt;Node2</title>
<g id="a_edge1_Node000001_Node000002"><a xlink:title=" ">
<path fill="none" stroke="#63b8ff" d="M425.91,-239.45C416.95,-230.76 404.14,-217.3 395.38,-203.75 385.91,-189.11 378.17,-170.86 373.07,-157.25"/>
<polygon fill="#63b8ff" stroke="#63b8ff" points="376.1,-156.32 369.44,-148.08 369.51,-158.68 376.1,-156.32"/>
</a>
</g>
</g>
<!-- Node15 -->
<g id="Node000015" class="node">
<title>Node15</title>
<g id="a_Node000015"><a xlink:href="sundialsUtils_8h.html" target="_top" xlink:title=" ">
<polygon fill="white" stroke="#666666" points="1342.38,-147 1254.38,-147 1254.38,-126.25 1342.38,-126.25 1342.38,-147"/>
<text text-anchor="middle" x="1298.38" y="-133.5" font-family="FreeSans" font-size="10.00">sundialsUtils.h</text>
</a>
</g>
</g>
<!-- Node1&#45;&gt;Node15 -->
<g id="edge16_Node000001_Node000015" class="edge">
<title>Node1&#45;&gt;Node15</title>
<g id="a_edge16_Node000001_Node000015"><a xlink:title=" ">
<path fill="none" stroke="#63b8ff" d="M492.27,-241.9C648.48,-221.69 1088.29,-164.8 1243.39,-144.74"/>
<polygon fill="#63b8ff" stroke="#63b8ff" points="1243.59,-148.11 1253.06,-143.36 1242.69,-141.17 1243.59,-148.11"/>
</a>
</g>
</g>
<!-- Node30 -->
<g id="Node000030" class="node">
<title>Node30</title>
<g id="a_Node000030"><a xlink:href="qssintegrator_8h.html" target="_top" xlink:title=" ">
<polygon fill="white" stroke="#666666" points="348.75,-203.75 260,-203.75 260,-183 348.75,-183 348.75,-203.75"/>
<text text-anchor="middle" x="304.38" y="-190.25" font-family="FreeSans" font-size="10.00">qssintegrator.h</text>
</a>
</g>
</g>
<!-- Node1&#45;&gt;Node30 -->
<g id="edge34_Node000001_Node000030" class="edge">
<title>Node1&#45;&gt;Node30</title>
<g id="a_edge34_Node000001_Node000030"><a xlink:title=" ">
<path fill="none" stroke="#63b8ff" d="M412.78,-239.34C391.85,-230.66 361.05,-217.88 337.63,-208.17"/>
<polygon fill="#63b8ff" stroke="#63b8ff" points="339.35,-204.68 328.77,-204.08 336.67,-211.14 339.35,-204.68"/>
</a>
</g>
</g>
<!-- Node31 -->
<g id="Node000031" class="node">
<title>Node31</title>
<g id="a_Node000031"><a xlink:href="quasi2d_8h.html" target="_top" xlink:title=" ">
<polygon fill="white" stroke="#666666" points="468,-203.75 404.75,-203.75 404.75,-183 468,-183 468,-203.75"/>
<text text-anchor="middle" x="436.38" y="-190.25" font-family="FreeSans" font-size="10.00">quasi2d.h</text>
</a>
</g>
</g>
<!-- Node1&#45;&gt;Node31 -->
<g id="edge36_Node000001_Node000031" class="edge">
<title>Node1&#45;&gt;Node31</title>
<g id="a_edge36_Node000001_Node000031"><a xlink:title=" ">
<path fill="none" stroke="#63b8ff" d="M436.38,-239.34C436.38,-232.56 436.38,-223.3 436.38,-214.94"/>
<polygon fill="#63b8ff" stroke="#63b8ff" points="439.88,-215.08 436.38,-205.08 432.88,-215.08 439.88,-215.08"/>
</a>
</g>
</g>
<!-- Node32 -->
<g id="Node000032" class="node">
<title>Node32</title>
<g id="a_Node000032"><a xlink:href="callback_8h.html" target="_top" xlink:title=" ">
<polygon fill="white" stroke="#666666" points="551.12,-203.75 485.62,-203.75 485.62,-183 551.12,-183 551.12,-203.75"/>
<text text-anchor="middle" x="518.38" y="-190.25" font-family="FreeSans" font-size="10.00">callback.h</text>
</a>
</g>
</g>
<!-- Node1&#45;&gt;Node32 -->
<g id="edge39_Node000001_Node000032" class="edge">
<title>Node1&#45;&gt;Node32</title>
<g id="a_edge39_Node000001_Node000032"><a xlink:title=" ">
<path fill="none" stroke="#63b8ff" d="M451.03,-239.34C463.16,-231.24 480.62,-219.58 494.72,-210.17"/>
<polygon fill="#63b8ff" stroke="#63b8ff" points="496.47,-212.54 502.84,-204.08 492.58,-206.72 496.47,-212.54"/>
</a>
</g>
</g>
<!-- Node3 -->
<g id="Node000003" class="node">
<title>Node3</title>
<g id="a_Node000003"><a xlink:title=" ">
<polygon fill="#e0e0e0" stroke="#999999" points="542.75,-83.88 496,-83.88 496,-63.12 542.75,-63.12 542.75,-83.88"/>
<text text-anchor="middle" x="519.38" y="-70.38" font-family="FreeSans" font-size="10.00">vector</text>
</a>
</g>
</g>
<!-- Node2&#45;&gt;Node3 -->
<g id="edge2_Node000002_Node000003" class="edge">
<title>Node2&#45;&gt;Node3</title>
<g id="a_edge2_Node000002_Node000003"><a xlink:title=" ">
<path fill="none" stroke="#63b8ff" d="M395.05,-125.77C419.77,-117.06 456.28,-103.69 487.38,-90.25 488.43,-89.8 489.49,-89.32 490.57,-88.84"/>
<polygon fill="#63b8ff" stroke="#63b8ff" points="491.66,-91.72 499.23,-84.31 488.69,-85.39 491.66,-91.72"/>
</a>
</g>
</g>
<!-- Node4 -->
<g id="Node000004" class="node">
<title>Node4</title>
<g id="a_Node000004"><a xlink:title=" ">
<polygon fill="#e0e0e0" stroke="#999999" points="46.75,-83.88 0,-83.88 0,-63.12 46.75,-63.12 46.75,-83.88"/>
<text text-anchor="middle" x="23.38" y="-70.38" font-family="FreeSans" font-size="10.00">cmath</text>
</a>
</g>
</g>
<!-- Node2&#45;&gt;Node4 -->
<g id="edge3_Node000002_Node000004" class="edge">
<title>Node2&#45;&gt;Node4</title>
<g id="a_edge3_Node000002_Node000004"><a xlink:title=" ">
<path fill="none" stroke="#63b8ff" d="M329.47,-133.2C271.32,-128.71 155.23,-116.99 60.38,-90.25 58.22,-89.64 56.03,-88.94 53.84,-88.18"/>
<polygon fill="#63b8ff" stroke="#63b8ff" points="55.37,-84.63 44.78,-84.28 52.84,-91.16 55.37,-84.63"/>
</a>
</g>
</g>
<!-- Node5 -->
<g id="Node000005" class="node">
<title>Node5</title>
<g id="a_Node000005"><a xlink:title=" ">
<polygon fill="#e0e0e0" stroke="#999999" points="430.12,-20.75 370.62,-20.75 370.62,0 430.12,0 430.12,-20.75"/>
<text text-anchor="middle" x="400.38" y="-7.25" font-family="FreeSans" font-size="10.00">iostream</text>
</a>
</g>
</g>
<!-- Node2&#45;&gt;Node5 -->
<g id="edge4_Node000002_Node000005" class="edge">
<title>Node2&#45;&gt;Node5</title>
<g id="a_edge4_Node000002_Node000005"><a xlink:title=" ">
<path fill="none" stroke="#63b8ff" d="M342.3,-125.84C327.57,-118.44 309.97,-106.72 301.38,-90.25 294.49,-77.05 293.33,-69.28 301.38,-56.75 308.32,-45.92 335.85,-33.79 360.12,-24.79"/>
<polygon fill="#63b8ff" stroke="#63b8ff" points="361.03,-27.83 369.25,-21.14 358.66,-21.24 361.03,-27.83"/>
</a>
</g>
</g>
<!-- Node6 -->
<g id="Node000006" class="node">
<title>Node6</title>
<g id="a_Node000006"><a xlink:title=" ">
<polygon fill="#e0e0e0" stroke="#999999" points="158.25,-83.88 102.5,-83.88 102.5,-63.12 158.25,-63.12 158.25,-83.88"/>
<text text-anchor="middle" x="130.38" y="-70.38" font-family="FreeSans" font-size="10.00">sstream</text>
</a>
</g>
</g>
<!-- Node2&#45;&gt;Node6 -->
<g id="edge5_Node000002_Node000006" class="edge">
<title>Node2&#45;&gt;Node6</title>
<g id="a_edge5_Node000002_Node000006"><a xlink:title=" ">
<path fill="none" stroke="#63b8ff" d="M329.53,-129.26C289.18,-121.83 222.83,-108.22 167.38,-90.25 165.43,-89.62 163.45,-88.93 161.46,-88.2"/>
<polygon fill="#63b8ff" stroke="#63b8ff" points="163.24,-84.74 152.65,-84.32 160.66,-91.25 163.24,-84.74"/>
</a>
</g>
</g>
<!-- Node7 -->
<g id="Node000007" class="node">
<title>Node7</title>
<g id="a_Node000007"><a xlink:title=" ">
<polygon fill="#e0e0e0" stroke="#999999" points="80.25,-20.75 36.5,-20.75 36.5,0 80.25,0 80.25,-20.75"/>
<text text-anchor="middle" x="58.38" y="-7.25" font-family="FreeSans" font-size="10.00">string</text>
</a>
</g>
</g>
<!-- Node2&#45;&gt;Node7 -->
<g id="edge6_Node000002_Node000007" class="edge">
<title>Node2&#45;&gt;Node7</title>
<g id="a_edge6_Node000002_Node000007"><a xlink:title=" ">
<path fill="none" stroke="#63b8ff" d="M329.53,-133.77C263.76,-129.77 129.65,-118.34 93.38,-90.25 75.01,-76.03 66.05,-50.1 61.84,-31.87"/>
<polygon fill="#63b8ff" stroke="#63b8ff" points="65.1,-31.31 59.71,-22.19 58.24,-32.68 65.1,-31.31"/>
</a>
</g>
</g>
<!-- Node8 -->
<g id="Node000008" class="node">
<title>Node8</title>
<g id="a_Node000008"><a xlink:title=" ">
<polygon fill="#e0e0e0" stroke="#999999" points="478.25,-83.88 440.5,-83.88 440.5,-63.12 478.25,-63.12 478.25,-83.88"/>
<text text-anchor="middle" x="459.38" y="-70.38" font-family="FreeSans" font-size="10.00">map</text>
</a>
</g>
</g>
<!-- Node2&#45;&gt;Node8 -->
<g id="edge7_Node000002_Node000008" class="edge">
<title>Node2&#45;&gt;Node8</title>
<g id="a_edge7_Node000002_Node000008"><a xlink:title=" ">
<path fill="none" stroke="#63b8ff" d="M381.32,-125.8C395.96,-116.18 418.51,-101.36 435.61,-90.12"/>
<polygon fill="#63b8ff" stroke="#63b8ff" points="437.04,-92.71 443.47,-84.3 433.19,-86.86 437.04,-92.71"/>
</a>
</g>
</g>
<!-- Node9 -->
<g id="Node000009" class="node">
<title>Node9</title>
<g id="a_Node000009"><a xlink:href="debugUtils_8h.html" target="_top" xlink:title=" ">
<polygon fill="white" stroke="#666666" points="254.12,-83.88 176.62,-83.88 176.62,-63.12 254.12,-63.12 254.12,-83.88"/>
<text text-anchor="middle" x="215.38" y="-70.38" font-family="FreeSans" font-size="10.00">debugUtils.h</text>
</a>
</g>
</g>
<!-- Node2&#45;&gt;Node9 -->
<g id="edge8_Node000002_Node000009" class="edge">
<title>Node2&#45;&gt;Node9</title>
<g id="a_edge8_Node000002_Node000009"><a xlink:title=" ">
<path fill="none" stroke="#63b8ff" d="M342.11,-125.8C317.02,-115.65 277.62,-99.7 249.41,-88.28"/>
<polygon fill="#63b8ff" stroke="#63b8ff" points="251.16,-84.8 240.58,-84.3 248.53,-91.29 251.16,-84.8"/>
</a>
</g>
</g>
<!-- Node13 -->
<g id="Node000013" class="node">
<title>Node13</title>
<g id="a_Node000013"><a xlink:title=" ">
<polygon fill="#e0e0e0" stroke="#999999" points="687.5,-83.88 561.25,-83.88 561.25,-63.12 687.5,-63.12 687.5,-83.88"/>
<text text-anchor="middle" x="624.38" y="-70.38" font-family="FreeSans" font-size="10.00">cantera/base/ct_defs.h</text>
</a>
</g>
</g>
<!-- Node2&#45;&gt;Node13 -->
<g id="edge14_Node000002_Node000013" class="edge">
<title>Node2&#45;&gt;Node13</title>
<g id="a_edge14_Node000002_Node000013"><a xlink:title=" ">
<path fill="none" stroke="#63b8ff" d="M403.34,-126.87C447.61,-116.38 522.04,-98.75 572.16,-86.87"/>
<polygon fill="#63b8ff" stroke="#63b8ff" points="572.85,-90.07 581.78,-84.36 571.24,-83.25 572.85,-90.07"/>
</a>
</g>
</g>
<!-- Node14 -->
<g id="Node000014" class="node">
<title>Node14</title>
<g id="a_Node000014"><a xlink:title=" ">
<polygon fill="#e0e0e0" stroke="#999999" points="422.75,-83.88 310,-83.88 310,-63.12 422.75,-63.12 422.75,-83.88"/>
<text text-anchor="middle" x="366.38" y="-70.38" font-family="FreeSans" font-size="10.00">eigen3/Eigen/Dense</text>
</a>
</g>
</g>
<!-- Node2&#45;&gt;Node14 -->
<g id="edge15_Node000002_Node000014" class="edge">
<title>Node2&#45;&gt;Node14</title>
<g id="a_edge15_Node000002_Node000014"><a xlink:title=" ">
<path fill="none" stroke="#63b8ff" d="M366.38,-125.8C366.38,-117.47 366.38,-105.23 366.38,-94.8"/>
<polygon fill="#63b8ff" stroke="#63b8ff" points="369.88,-95.09 366.38,-85.09 362.88,-95.09 369.88,-95.09"/>
</a>
</g>
</g>
<!-- Node9&#45;&gt;Node5 -->
<g id="edge10_Node000009_Node000005" class="edge">
<title>Node9&#45;&gt;Node5</title>
<g id="a_edge10_Node000009_Node000005"><a xlink:title=" ">
<path fill="none" stroke="#63b8ff" d="M245.1,-62.68C276.38,-52.34 325.81,-36.01 360.48,-24.56"/>
<polygon fill="#63b8ff" stroke="#63b8ff" points="361.33,-27.63 369.73,-21.17 359.13,-20.99 361.33,-27.63"/>
</a>
</g>
</g>
<!-- Node9&#45;&gt;Node7 -->
<g id="edge9_Node000009_Node000007" class="edge">
<title>Node9&#45;&gt;Node7</title>
<g id="a_edge9_Node000009_Node000007"><a xlink:title=" ">
<path fill="none" stroke="#63b8ff" d="M190.15,-62.68C163.13,-52.16 120.17,-35.43 90.69,-23.96"/>
<polygon fill="#63b8ff" stroke="#63b8ff" points="92.08,-20.35 81.49,-19.99 89.54,-26.88 92.08,-20.35"/>
</a>
</g>
</g>
<!-- Node10 -->
<g id="Node000010" class="node">
<title>Node10</title>
<g id="a_Node000010"><a xlink:title=" ">
<polygon fill="#e0e0e0" stroke="#999999" points="352.5,-20.75 298.25,-20.75 298.25,0 352.5,0 352.5,-20.75"/>
<text text-anchor="middle" x="325.38" y="-7.25" font-family="FreeSans" font-size="10.00">fstream</text>
</a>
</g>
</g>
<!-- Node9&#45;&gt;Node10 -->
<g id="edge11_Node000009_Node000010" class="edge">
<title>Node9&#45;&gt;Node10</title>
<g id="a_edge11_Node000009_Node000010"><a xlink:title=" ">
<path fill="none" stroke="#63b8ff" d="M233.05,-62.68C250.69,-52.88 278.03,-37.68 298.39,-26.37"/>
<polygon fill="#63b8ff" stroke="#63b8ff" points="299.7,-29.09 306.75,-21.17 296.3,-22.97 299.7,-29.09"/>
</a>
</g>
</g>
<!-- Node11 -->
<g id="Node000011" class="node">
<title>Node11</title>
<g id="a_Node000011"><a xlink:title=" ">
<polygon fill="#e0e0e0" stroke="#999999" points="162.38,-20.75 98.38,-20.75 98.38,0 162.38,0 162.38,-20.75"/>
<text text-anchor="middle" x="130.38" y="-7.25" font-family="FreeSans" font-size="10.00">exception</text>
</a>
</g>
</g>
<!-- Node9&#45;&gt;Node11 -->
<g id="edge12_Node000009_Node000011" class="edge">
<title>Node9&#45;&gt;Node11</title>
<g id="a_edge12_Node000009_Node000011"><a xlink:title=" ">
<path fill="none" stroke="#63b8ff" d="M201.72,-62.68C188.46,-53.14 168.11,-38.51 152.53,-27.31"/>
<polygon fill="#63b8ff" stroke="#63b8ff" points="155.16,-24.17 145,-21.17 151.07,-29.85 155.16,-24.17"/>
</a>
</g>
</g>
<!-- Node12 -->
<g id="Node000012" class="node">
<title>Node12</title>
<g id="a_Node000012"><a xlink:title=" ">
<polygon fill="#e0e0e0" stroke="#999999" points="280.38,-20.75 180.38,-20.75 180.38,0 280.38,0 280.38,-20.75"/>
<text text-anchor="middle" x="230.38" y="-7.25" font-family="FreeSans" font-size="10.00">boost/format.hpp</text>
</a>
</g>
</g>
<!-- Node9&#45;&gt;Node12 -->
<g id="edge13_Node000009_Node000012" class="edge">
<title>Node9&#45;&gt;Node12</title>
<g id="a_edge13_Node000009_Node000012"><a xlink:title=" ">
<path fill="none" stroke="#63b8ff" d="M217.79,-62.68C219.85,-54.25 222.9,-41.84 225.48,-31.34"/>
<polygon fill="#63b8ff" stroke="#63b8ff" points="229.04,-32.52 228.02,-21.97 222.24,-30.85 229.04,-32.52"/>
</a>
</g>
</g>
<!-- Node15&#45;&gt;Node3 -->
<g id="edge32_Node000015_Node000003" class="edge">
<title>Node15&#45;&gt;Node3</title>
<g id="a_edge32_Node000015_Node000003"><a xlink:title=" ">
<path fill="none" stroke="#63b8ff" d="M1254.12,-135.15C1114.76,-133.3 686.32,-124.88 552.38,-90.25 550.39,-89.74 548.39,-89.1 546.39,-88.39"/>
<polygon fill="#63b8ff" stroke="#63b8ff" points="548.29,-84.97 537.71,-84.3 545.56,-91.42 548.29,-84.97"/>
</a>
</g>
</g>
<!-- Node15&#45;&gt;Node5 -->
<g id="edge31_Node000015_Node000005" class="edge">
<title>Node15&#45;&gt;Node5</title>
<g id="a_edge31_Node000015_Node000005"><a xlink:title=" ">
<path fill="none" stroke="#63b8ff" d="M1254.14,-133.52C1206.92,-129.76 1130.99,-119.32 1072.38,-90.25 1052.2,-80.25 1055.14,-65.46 1034.38,-56.75 926.68,-11.6 563.73,-10.09 441.18,-10.92"/>
<polygon fill="#63b8ff" stroke="#63b8ff" points="441.4,-7.43 431.42,-11.01 441.45,-14.43 441.4,-7.43"/>
</a>
</g>
</g>
<!-- Node15&#45;&gt;Node13 -->
<g id="edge23_Node000015_Node000013" class="edge">
<title>Node15&#45;&gt;Node13</title>
<g id="a_edge23_Node000015_Node000013"><a xlink:title=" ">
<path fill="none" stroke="#63b8ff" d="M1253.96,-134.41C1153.92,-131.2 903.53,-120.56 696.38,-90.25 689.48,-89.24 682.26,-87.95 675.17,-86.54"/>
<polygon fill="#63b8ff" stroke="#63b8ff" points="676.06,-82.94 665.56,-84.33 674.63,-89.8 676.06,-82.94"/>
</a>
</g>
</g>
<!-- Node16 -->
<g id="Node000016" class="node">
<title>Node16</title>
<g id="a_Node000016"><a xlink:href="config_8h.html" target="_top" xlink:title=" ">
<polygon fill="white" stroke="#666666" points="1135.5,-83.88 1081.25,-83.88 1081.25,-63.12 1135.5,-63.12 1135.5,-83.88"/>
<text text-anchor="middle" x="1108.38" y="-70.38" font-family="FreeSans" font-size="10.00">config.h</text>
</a>
</g>
</g>
<!-- Node15&#45;&gt;Node16 -->
<g id="edge17_Node000015_Node000016" class="edge">
<title>Node15&#45;&gt;Node16</title>
<g id="a_edge17_Node000015_Node000016"><a xlink:title=" ">
<path fill="none" stroke="#63b8ff" d="M1259.97,-125.75C1228.55,-117.33 1183.13,-104.37 1144.38,-90.25 1142.7,-89.64 1140.99,-88.99 1139.28,-88.32"/>
<polygon fill="#63b8ff" stroke="#63b8ff" points="1141.09,-84.87 1130.52,-84.28 1138.42,-91.33 1141.09,-84.87"/>
</a>
</g>
</g>
<!-- Node17 -->
<g id="Node000017" class="node">
<title>Node17</title>
<g id="a_Node000017"><a xlink:title=" ">
<polygon fill="#e0e0e0" stroke="#999999" points="1287.25,-83.88 1153.5,-83.88 1153.5,-63.12 1287.25,-63.12 1287.25,-83.88"/>
<text text-anchor="middle" x="1220.38" y="-70.38" font-family="FreeSans" font-size="10.00">nvector/nvector_serial.h</text>
</a>
</g>
</g>
<!-- Node15&#45;&gt;Node17 -->
<g id="edge18_Node000015_Node000017" class="edge">
<title>Node15&#45;&gt;Node17</title>
<g id="a_edge18_Node000015_Node000017"><a xlink:title=" ">
<path fill="none" stroke="#63b8ff" d="M1285.84,-125.8C1273.9,-116.45 1255.7,-102.18 1241.51,-91.06"/>
<polygon fill="#63b8ff" stroke="#63b8ff" points="1243.91,-87.71 1233.88,-84.3 1239.59,-93.22 1243.91,-87.71"/>
</a>
</g>
</g>
<!-- Node18 -->
<g id="Node000018" class="node">
<title>Node18</title>
<g id="a_Node000018"><a xlink:title=" ">
<polygon fill="#e0e0e0" stroke="#999999" points="1449.12,-83.88 1305.62,-83.88 1305.62,-63.12 1449.12,-63.12 1449.12,-83.88"/>
<text text-anchor="middle" x="1377.38" y="-70.38" font-family="FreeSans" font-size="10.00">sundials/sundials_dense.h</text>
</a>
</g>
</g>
<!-- Node15&#45;&gt;Node18 -->
<g id="edge19_Node000015_Node000018" class="edge">
<title>Node15&#45;&gt;Node18</title>
<g id="a_edge19_Node000015_Node000018"><a xlink:title=" ">
<path fill="none" stroke="#63b8ff" d="M1311.07,-125.8C1323.28,-116.36 1341.95,-101.91 1356.38,-90.75"/>
<polygon fill="#63b8ff" stroke="#63b8ff" points="1357.95,-93.18 1363.71,-84.3 1353.66,-87.65 1357.95,-93.18"/>
</a>
</g>
</g>
<!-- Node19 -->
<g id="Node000019" class="node">
<title>Node19</title>
<g id="a_Node000019"><a xlink:title=" ">
<polygon fill="#e0e0e0" stroke="#999999" points="1605.5,-83.88 1467.25,-83.88 1467.25,-63.12 1605.5,-63.12 1605.5,-83.88"/>
<text text-anchor="middle" x="1536.38" y="-70.38" font-family="FreeSans" font-size="10.00">sundials/sundials_band.h</text>
</a>
</g>
</g>
<!-- Node15&#45;&gt;Node19 -->
<g id="edge20_Node000015_Node000019" class="edge">
<title>Node15&#45;&gt;Node19</title>
<g id="a_edge20_Node000015_Node000019"><a xlink:title=" ">
<path fill="none" stroke="#63b8ff" d="M1336.61,-125.8C1377.64,-115.27 1442.93,-98.5 1487.62,-87.02"/>
<polygon fill="#63b8ff" stroke="#63b8ff" points="1488.42,-90.17 1497.23,-84.3 1486.67,-83.39 1488.42,-90.17"/>
</a>
</g>
</g>
<!-- Node20 -->
<g id="Node000020" class="node">
<title>Node20</title>
<g id="a_Node000020"><a xlink:title=" ">
<polygon fill="#e0e0e0" stroke="#999999" points="1765,-83.88 1623.75,-83.88 1623.75,-63.12 1765,-63.12 1765,-83.88"/>
<text text-anchor="middle" x="1694.38" y="-70.38" font-family="FreeSans" font-size="10.00">sundials/sundials_types.h</text>
</a>
</g>
</g>
<!-- Node15&#45;&gt;Node20 -->
<g id="edge21_Node000015_Node000020" class="edge">
<title>Node15&#45;&gt;Node20</title>
<g id="a_edge21_Node000015_Node000020"><a xlink:title=" ">
<path fill="none" stroke="#63b8ff" d="M1342.71,-130C1403.95,-122.05 1517.8,-106.68 1614.38,-90.25 1621.41,-89.05 1628.77,-87.72 1636.06,-86.34"/>
<polygon fill="#63b8ff" stroke="#63b8ff" points="1636.48,-89.64 1645.65,-84.32 1635.17,-82.76 1636.48,-89.64"/>
</a>
</g>
</g>
<!-- Node21 -->
<g id="Node000021" class="node">
<title>Node21</title>
<g id="a_Node000021"><a xlink:title=" ">
<polygon fill="#e0e0e0" stroke="#999999" points="1869.62,-83.88 1783.12,-83.88 1783.12,-63.12 1869.62,-63.12 1869.62,-83.88"/>
<text text-anchor="middle" x="1826.38" y="-70.38" font-family="FreeSans" font-size="10.00">cvode/cvode.h</text>
</a>
</g>
</g>
<!-- Node15&#45;&gt;Node21 -->
<g id="edge22_Node000015_Node000021" class="edge">
<title>Node15&#45;&gt;Node21</title>
<g id="a_edge22_Node000015_Node000021"><a xlink:title=" ">
<path fill="none" stroke="#63b8ff" d="M1342.77,-134.34C1427.45,-131.23 1617.59,-121.15 1774.38,-90.25 1778.53,-89.43 1782.82,-88.42 1787.07,-87.3"/>
<polygon fill="#63b8ff" stroke="#63b8ff" points="1787.81,-90.45 1796.48,-84.36 1785.91,-83.71 1787.81,-90.45"/>
</a>
</g>
</g>
<!-- Node22 -->
<g id="Node000022" class="node">
<title>Node22</title>
<g id="a_Node000022"><a xlink:title=" ">
<polygon fill="#e0e0e0" stroke="#999999" points="2017.38,-83.88 1887.38,-83.88 1887.38,-63.12 2017.38,-63.12 2017.38,-83.88"/>
<text text-anchor="middle" x="1952.38" y="-70.38" font-family="FreeSans" font-size="10.00">cvodes/cvodes_direct.h</text>
</a>
</g>
</g>
<!-- Node15&#45;&gt;Node22 -->
<g id="edge24_Node000015_Node000022" class="edge">
<title>Node15&#45;&gt;Node22</title>
<g id="a_edge24_Node000015_Node000022"><a xlink:title=" ">
<path fill="none" stroke="#63b8ff" d="M1342.61,-134.15C1439.93,-130.47 1679.71,-119.04 1878.38,-90.25 1885.54,-89.21 1893.04,-87.89 1900.41,-86.46"/>
<polygon fill="#63b8ff" stroke="#63b8ff" points="1900.96,-89.72 1910.06,-84.3 1899.56,-82.86 1900.96,-89.72"/>
</a>
</g>
</g>
<!-- Node23 -->
<g id="Node000023" class="node">
<title>Node23</title>
<g id="a_Node000023"><a xlink:title=" ">
<polygon fill="#e0e0e0" stroke="#999999" points="2159.75,-83.88 2035,-83.88 2035,-63.12 2159.75,-63.12 2159.75,-83.88"/>
<text text-anchor="middle" x="2097.38" y="-70.38" font-family="FreeSans" font-size="10.00">cvodes/cvodes_spils.h</text>
</a>
</g>
</g>
<!-- Node15&#45;&gt;Node23 -->
<g id="edge25_Node000015_Node000023" class="edge">
<title>Node15&#45;&gt;Node23</title>
<g id="a_edge25_Node000015_Node000023"><a xlink:title=" ">
<path fill="none" stroke="#63b8ff" d="M1342.52,-135.27C1456.36,-133.83 1769.01,-126.59 2026.38,-90.25 2033.35,-89.27 2040.65,-87.96 2047.81,-86.53"/>
<polygon fill="#63b8ff" stroke="#63b8ff" points="2048.08,-89.84 2057.14,-84.35 2046.64,-82.99 2048.08,-89.84"/>
</a>
</g>
</g>
<!-- Node24 -->
<g id="Node000024" class="node">
<title>Node24</title>
<g id="a_Node000024"><a xlink:title=" ">
<polygon fill="#e0e0e0" stroke="#999999" points="2283.38,-90.25 2177.38,-90.25 2177.38,-56.75 2283.38,-56.75 2283.38,-90.25"/>
<text text-anchor="start" x="2185.38" y="-76.75" font-family="FreeSans" font-size="10.00">sunlinsol/sunlinsol</text>
<text text-anchor="middle" x="2230.38" y="-64" font-family="FreeSans" font-size="10.00">_dense.h</text>
</a>
</g>
</g>
<!-- Node15&#45;&gt;Node24 -->
<g id="edge26_Node000015_Node000024" class="edge">
<title>Node15&#45;&gt;Node24</title>
<g id="a_edge26_Node000015_Node000024"><a xlink:title=" ">
<path fill="none" stroke="#63b8ff" d="M1342.83,-134.46C1493.69,-130.34 1986.32,-115.39 2166.44,-90.3"/>
<polygon fill="#63b8ff" stroke="#63b8ff" points="2166.69,-93.65 2176.08,-88.75 2165.68,-86.73 2166.69,-93.65"/>
</a>
</g>
</g>
<!-- Node25 -->
<g id="Node000025" class="node">
<title>Node25</title>
<g id="a_Node000025"><a xlink:title=" ">
<polygon fill="#e0e0e0" stroke="#999999" points="2407.38,-90.25 2301.38,-90.25 2301.38,-56.75 2407.38,-56.75 2407.38,-90.25"/>
<text text-anchor="start" x="2309.38" y="-76.75" font-family="FreeSans" font-size="10.00">sunlinsol/sunlinsol</text>
<text text-anchor="middle" x="2354.38" y="-64" font-family="FreeSans" font-size="10.00">_band.h</text>
</a>
</g>
</g>
<!-- Node15&#45;&gt;Node25 -->
<g id="edge27_Node000015_Node000025" class="edge">
<title>Node15&#45;&gt;Node25</title>
<g id="a_edge27_Node000015_Node000025"><a xlink:title=" ">
<path fill="none" stroke="#63b8ff" d="M1342.65,-134.8C1507.23,-131.55 2084.37,-118.48 2290.38,-90.3"/>
<polygon fill="#63b8ff" stroke="#63b8ff" points="2290.68,-93.65 2300.08,-88.77 2289.69,-86.72 2290.68,-93.65"/>
</a>
</g>
</g>
<!-- Node26 -->
<g id="Node000026" class="node">
<title>Node26</title>
<g id="a_Node000026"><a xlink:title=" ">
<polygon fill="#e0e0e0" stroke="#999999" points="2531.38,-90.25 2425.38,-90.25 2425.38,-56.75 2531.38,-56.75 2531.38,-90.25"/>
<text text-anchor="start" x="2433.38" y="-76.75" font-family="FreeSans" font-size="10.00">sunlinsol/sunlinsol</text>
<text text-anchor="middle" x="2478.38" y="-64" font-family="FreeSans" font-size="10.00">_spgmr.h</text>
</a>
</g>
</g>
<!-- Node15&#45;&gt;Node26 -->
<g id="edge28_Node000015_Node000026" class="edge">
<title>Node15&#45;&gt;Node26</title>
<g id="a_edge28_Node000015_Node000026"><a xlink:title=" ">
<path fill="none" stroke="#63b8ff" d="M1342.83,-135.06C1520.74,-132.59 2182.59,-121.58 2414.37,-90.29"/>
<polygon fill="#63b8ff" stroke="#63b8ff" points="2414.67,-93.65 2424.08,-88.79 2413.69,-86.71 2414.67,-93.65"/>
</a>
</g>
</g>
<!-- Node27 -->
<g id="Node000027" class="node">
<title>Node27</title>
<g id="a_Node000027"><a xlink:title=" ">
<polygon fill="#e0e0e0" stroke="#999999" points="823.38,-90.25 705.38,-90.25 705.38,-56.75 823.38,-56.75 823.38,-90.25"/>
<text text-anchor="start" x="713.38" y="-76.75" font-family="FreeSans" font-size="10.00">sunmatrix/sunmatrix</text>
<text text-anchor="middle" x="764.38" y="-64" font-family="FreeSans" font-size="10.00">_dense.h</text>
</a>
</g>
</g>
<!-- Node15&#45;&gt;Node27 -->
<g id="edge29_Node000015_Node000027" class="edge">
<title>Node15&#45;&gt;Node27</title>
<g id="a_edge29_Node000015_Node000027"><a xlink:title=" ">
<path fill="none" stroke="#63b8ff" d="M1254.12,-133.25C1172.81,-128.46 994.09,-115.99 834.13,-90.41"/>
<polygon fill="#63b8ff" stroke="#63b8ff" points="835.05,-86.85 824.62,-88.7 833.93,-93.76 835.05,-86.85"/>
</a>
</g>
</g>
<!-- Node28 -->
<g id="Node000028" class="node">
<title>Node28</title>
<g id="a_Node000028"><a xlink:title=" ">
<polygon fill="#e0e0e0" stroke="#999999" points="959.38,-90.25 841.38,-90.25 841.38,-56.75 959.38,-56.75 959.38,-90.25"/>
<text text-anchor="start" x="849.38" y="-76.75" font-family="FreeSans" font-size="10.00">sunmatrix/sunmatrix</text>
<text text-anchor="middle" x="900.38" y="-64" font-family="FreeSans" font-size="10.00">_band.h</text>
</a>
</g>
</g>
<!-- Node15&#45;&gt;Node28 -->
<g id="edge30_Node000015_Node000028" class="edge">
<title>Node15&#45;&gt;Node28</title>
<g id="a_edge30_Node000015_Node000028"><a xlink:title=" ">
<path fill="none" stroke="#63b8ff" d="M1254.13,-130.84C1192.67,-123.9 1077.75,-109.91 970.35,-90.52"/>
<polygon fill="#63b8ff" stroke="#63b8ff" points="971.11,-86.92 960.65,-88.56 969.85,-93.8 971.11,-86.92"/>
</a>
</g>
</g>
<!-- Node29 -->
<g id="Node000029" class="node">
<title>Node29</title>
<g id="a_Node000029"><a xlink:title=" ">
<polygon fill="#e0e0e0" stroke="#999999" points="1025.12,-83.88 977.62,-83.88 977.62,-63.12 1025.12,-63.12 1025.12,-83.88"/>
<text text-anchor="middle" x="1001.38" y="-70.38" font-family="FreeSans" font-size="10.00">time.h</text>
</a>
</g>
</g>
<!-- Node15&#45;&gt;Node29 -->
<g id="edge33_Node000015_Node000029" class="edge">
<title>Node15&#45;&gt;Node29</title>
<g id="a_edge33_Node000015_Node000029"><a xlink:title=" ">
<path fill="none" stroke="#63b8ff" d="M1254.17,-130.88C1202.07,-124.6 1113.23,-111.74 1039.38,-90.25 1037.23,-89.63 1035.05,-88.92 1032.86,-88.16"/>
<polygon fill="#63b8ff" stroke="#63b8ff" points="1034.37,-84.61 1023.78,-84.33 1031.89,-91.16 1034.37,-84.61"/>
</a>
</g>
</g>
<!-- Node30&#45;&gt;Node2 -->
<g id="edge35_Node000030_Node000002" class="edge">
<title>Node30&#45;&gt;Node2</title>
<g id="a_edge35_Node000030_Node000002"><a xlink:title=" ">
<path fill="none" stroke="#63b8ff" d="M315.46,-182.59C324.28,-174.8 336.82,-163.72 347.25,-154.51"/>
<polygon fill="#63b8ff" stroke="#63b8ff" points="349.21,-157.57 354.39,-148.33 344.57,-152.32 349.21,-157.57"/>
</a>
</g>
</g>
<!-- Node31&#45;&gt;Node2 -->
<g id="edge37_Node000031_Node000002" class="edge">
<title>Node31&#45;&gt;Node2</title>
<g id="a_edge37_Node000031_Node000002"><a xlink:title=" ">
<path fill="none" stroke="#63b8ff" d="M423.86,-182.59C413.71,-174.65 399.18,-163.28 387.26,-153.96"/>
<polygon fill="#63b8ff" stroke="#63b8ff" points="389.81,-150.73 379.78,-147.33 385.5,-156.25 389.81,-150.73"/>
</a>
</g>
</g>
<!-- Node31&#45;&gt;Node8 -->
<g id="edge38_Node000031_Node000008" class="edge">
<title>Node31&#45;&gt;Node8</title>
<g id="a_edge38_Node000031_Node000008"><a xlink:title=" ">
<path fill="none" stroke="#63b8ff" d="M438.26,-182.73C441.98,-163.65 450.36,-120.71 455.37,-95.02"/>
<polygon fill="#63b8ff" stroke="#63b8ff" points="458.99,-95.76 457.47,-85.28 452.12,-94.42 458.99,-95.76"/>
</a>
</g>
</g>
<!-- Node32&#45;&gt;Node2 -->
<g id="edge41_Node000032_Node000002" class="edge">
<title>Node32&#45;&gt;Node2</title>
<g id="a_edge41_Node000032_Node000002"><a xlink:title=" ">
<path fill="none" stroke="#63b8ff" d="M491.2,-182.59C466.85,-173.82 430.91,-160.87 403.83,-151.12"/>
<polygon fill="#63b8ff" stroke="#63b8ff" points="405.16,-147.52 394.57,-147.42 402.79,-154.1 405.16,-147.52"/>
</a>
</g>
</g>
<!-- Node33 -->
<g id="Node000033" class="node">
<title>Node33</title>
<g id="a_Node000033"><a xlink:title=" ">
<polygon fill="#e0e0e0" stroke="#999999" points="550.38,-147 486.38,-147 486.38,-126.25 550.38,-126.25 550.38,-147"/>
<text text-anchor="middle" x="518.38" y="-133.5" font-family="FreeSans" font-size="10.00">stdexcept</text>
</a>
</g>
</g>
<!-- Node32&#45;&gt;Node33 -->
<g id="edge40_Node000032_Node000033" class="edge">
<title>Node32&#45;&gt;Node33</title>
<g id="a_edge40_Node000032_Node000033"><a xlink:title=" ">
<path fill="none" stroke="#63b8ff" d="M518.38,-182.59C518.38,-175.81 518.38,-166.55 518.38,-158.19"/>
<polygon fill="#63b8ff" stroke="#63b8ff" points="521.88,-158.33 518.38,-148.33 514.88,-158.33 521.88,-158.33"/>
</a>
</g>
</g>
</g>
</svg>
