<?xml version="1.0" encoding="UTF-8" standalone="no"?>
<!DOCTYPE svg PUBLIC "-//W3C//DTD SVG 1.1//EN"
 "http://www.w3.org/Graphics/SVG/1.1/DTD/svg11.dtd">
<!-- Generated by graphviz version 2.43.0 (0)
 -->
<!-- Title: src/sourceSystem.cpp Pages: 1 -->
<svg width="3396pt" height="313pt"
 viewBox="0.00 0.00 3396.00 313.00" xmlns="http://www.w3.org/2000/svg" xmlns:xlink="http://www.w3.org/1999/xlink">
<g id="graph0" class="graph" transform="scale(1 1) rotate(0) translate(4 309)">
<title>src/sourceSystem.cpp</title>
<!-- Node1 -->
<g id="Node000001" class="node">
<title>Node1</title>
<g id="a_Node000001"><a xlink:title=" ">
<polygon fill="#999999" stroke="#666666" points="1272.5,-305 1159.5,-305 1159.5,-286 1272.5,-286 1272.5,-305"/>
<text text-anchor="middle" x="1216" y="-293" font-family="FreeSans" font-size="10.00">src/sourceSystem.cpp</text>
</a>
</g>
</g>
<!-- Node2 -->
<g id="Node000002" class="node">
<title>Node2</title>
<g id="a_Node000002"><a xlink:href="sourceSystem_8h.html" target="_top" xlink:title=" ">
<polygon fill="white" stroke="#666666" points="423,-250 337,-250 337,-231 423,-231 423,-250"/>
<text text-anchor="middle" x="380" y="-238" font-family="FreeSans" font-size="10.00">sourceSystem.h</text>
</a>
</g>
</g>
<!-- Node1&#45;&gt;Node2 -->
<g id="edge1_Node000001_Node000002" class="edge">
<title>Node1&#45;&gt;Node2</title>
<g id="a_edge1_Node000001_Node000002"><a xlink:title=" ">
<path fill="none" stroke="#63b8ff" d="M1159.2,-290.9C1005.59,-281.16 583.5,-254.4 433.65,-244.9"/>
<polygon fill="#63b8ff" stroke="#63b8ff" points="433.54,-241.39 423.34,-244.25 433.1,-248.37 433.54,-241.39"/>
</a>
</g>
</g>
<!-- Node13 -->
<g id="Node000013" class="node">
<title>Node13</title>
<g id="a_Node000013"><a xlink:title=" ">
<polygon fill="#e0e0e0" stroke="#999999" points="1389.5,-19 1300.5,-19 1300.5,0 1389.5,0 1389.5,-19"/>
<text text-anchor="middle" x="1345" y="-7" font-family="FreeSans" font-size="10.00">boost/format.hpp</text>
</a>
</g>
</g>
<!-- Node1&#45;&gt;Node13 -->
<g id="edge64_Node000001_Node000013" class="edge">
<title>Node1&#45;&gt;Node13</title>
<g id="a_edge64_Node000001_Node000013"><a xlink:title=" ">
<path fill="none" stroke="#63b8ff" d="M1272.61,-293.28C1420.71,-289.73 1816.99,-277.84 1945,-250 2021.78,-233.3 2110,-265.08 2110,-186.5 2110,-186.5 2110,-186.5 2110,-124 2110,-52.13 1574.88,-21.09 1399.75,-12.85"/>
<polygon fill="#63b8ff" stroke="#63b8ff" points="1399.87,-9.35 1389.72,-12.38 1399.54,-16.34 1399.87,-9.35"/>
</a>
</g>
</g>
<!-- Node16 -->
<g id="Node000016" class="node">
<title>Node16</title>
<g id="a_Node000016"><a xlink:href="sundialsUtils_8h.html" target="_top" xlink:title=" ">
<polygon fill="white" stroke="#666666" points="1256,-195 1176,-195 1176,-176 1256,-176 1256,-195"/>
<text text-anchor="middle" x="1216" y="-183" font-family="FreeSans" font-size="10.00">sundialsUtils.h</text>
</a>
</g>
</g>
<!-- Node1&#45;&gt;Node16 -->
<g id="edge50_Node000001_Node000016" class="edge">
<title>Node1&#45;&gt;Node16</title>
<g id="a_edge50_Node000001_Node000016"><a xlink:title=" ">
<path fill="none" stroke="#63b8ff" d="M1216,-285.66C1216,-268.17 1216,-228.8 1216,-205.27"/>
<polygon fill="#63b8ff" stroke="#63b8ff" points="1219.5,-205.16 1216,-195.16 1212.5,-205.16 1219.5,-205.16"/>
</a>
</g>
</g>
<!-- Node35 -->
<g id="Node000035" class="node">
<title>Node35</title>
<g id="a_Node000035"><a xlink:href="readConfig_8h.html" target="_top" xlink:title=" ">
<polygon fill="white" stroke="#666666" points="70,-195 0,-195 0,-176 70,-176 70,-195"/>
<text text-anchor="middle" x="35" y="-183" font-family="FreeSans" font-size="10.00">readConfig.h</text>
</a>
</g>
</g>
<!-- Node1&#45;&gt;Node35 -->
<g id="edge41_Node000001_Node000035" class="edge">
<title>Node1&#45;&gt;Node35</title>
<g id="a_edge41_Node000001_Node000035"><a xlink:title=" ">
<path fill="none" stroke="#63b8ff" d="M1159.26,-294.3C974.47,-293.28 391.24,-287.13 207,-250 153.84,-239.29 95.25,-214.71 62.01,-199.46"/>
<polygon fill="#63b8ff" stroke="#63b8ff" points="63.09,-196.1 52.54,-195.06 60.13,-202.45 63.09,-196.1"/>
</a>
</g>
</g>
<!-- Node36 -->
<g id="Node000036" class="node">
<title>Node36</title>
<g id="a_Node000036"><a xlink:href="perfTimer_8h.html" target="_top" xlink:title=" ">
<polygon fill="white" stroke="#666666" points="1935.5,-250 1870.5,-250 1870.5,-231 1935.5,-231 1935.5,-250"/>
<text text-anchor="middle" x="1903" y="-238" font-family="FreeSans" font-size="10.00">perfTimer.h</text>
</a>
</g>
</g>
<!-- Node1&#45;&gt;Node36 -->
<g id="edge44_Node000001_Node000036" class="edge">
<title>Node1&#45;&gt;Node36</title>
<g id="a_edge44_Node000001_Node000036"><a xlink:title=" ">
<path fill="none" stroke="#63b8ff" d="M1272.51,-290.14C1406.49,-279.8 1741.05,-253.99 1860.11,-244.81"/>
<polygon fill="#63b8ff" stroke="#63b8ff" points="1860.58,-248.28 1870.28,-244.02 1860.04,-241.3 1860.58,-248.28"/>
</a>
</g>
</g>
<!-- Node45 -->
<g id="Node000045" class="node">
<title>Node45</title>
<g id="a_Node000045"><a xlink:href="chemistry0d_8h.html" target="_top" xlink:title=" ">
<polygon fill="white" stroke="#666666" points="2554.5,-195 2477.5,-195 2477.5,-176 2554.5,-176 2554.5,-195"/>
<text text-anchor="middle" x="2516" y="-183" font-family="FreeSans" font-size="10.00">chemistry0d.h</text>
</a>
</g>
</g>
<!-- Node1&#45;&gt;Node45 -->
<g id="edge51_Node000001_Node000045" class="edge">
<title>Node1&#45;&gt;Node45</title>
<g id="a_edge51_Node000001_Node000045"><a xlink:title=" ">
<path fill="none" stroke="#63b8ff" d="M1272.75,-293.92C1415.91,-291.97 1803.21,-283.74 2124,-250 2248.42,-236.92 2393.42,-210.47 2467.3,-196.19"/>
<polygon fill="#63b8ff" stroke="#63b8ff" points="2468.1,-199.6 2477.25,-194.25 2466.76,-192.73 2468.1,-199.6"/>
</a>
</g>
</g>
<!-- Node54 -->
<g id="Node000054" class="node">
<title>Node54</title>
<g id="a_Node000054"><a xlink:href="scalarFunction_8h.html" target="_top" xlink:title=" ">
<polygon fill="white" stroke="#666666" points="304,-250 216,-250 216,-231 304,-231 304,-250"/>
<text text-anchor="middle" x="260" y="-238" font-family="FreeSans" font-size="10.00">scalarFunction.h</text>
</a>
</g>
</g>
<!-- Node1&#45;&gt;Node54 -->
<g id="edge62_Node000001_Node000054" class="edge">
<title>Node1&#45;&gt;Node54</title>
<g id="a_edge62_Node000001_Node000054"><a xlink:title=" ">
<path fill="none" stroke="#63b8ff" d="M1159.28,-293.12C1018.4,-289.37 641.31,-277.39 328,-250 323.55,-249.61 318.93,-249.15 314.31,-248.65"/>
<polygon fill="#63b8ff" stroke="#63b8ff" points="314.54,-245.16 304.21,-247.51 313.75,-252.11 314.54,-245.16"/>
</a>
</g>
</g>
<!-- Node3 -->
<g id="Node000003" class="node">
<title>Node3</title>
<g id="a_Node000003"><a xlink:href="mathUtils_8h.html" target="_top" xlink:title=" ">
<polygon fill="white" stroke="#666666" points="227,-134.5 161,-134.5 161,-115.5 227,-115.5 227,-134.5"/>
<text text-anchor="middle" x="194" y="-122.5" font-family="FreeSans" font-size="10.00">mathUtils.h</text>
</a>
</g>
</g>
<!-- Node2&#45;&gt;Node3 -->
<g id="edge2_Node000002_Node000003" class="edge">
<title>Node2&#45;&gt;Node3</title>
<g id="a_edge2_Node000002_Node000003"><a xlink:title=" ">
<path fill="none" stroke="#63b8ff" d="M381.17,-230.87C382.48,-217.36 382.87,-191.22 369,-176 327.75,-130.74 294.63,-157.69 236,-140 233.55,-139.26 231.03,-138.48 228.5,-137.68"/>
<polygon fill="#63b8ff" stroke="#63b8ff" points="229.39,-134.29 218.8,-134.53 227.23,-140.94 229.39,-134.29"/>
</a>
</g>
</g>
<!-- Node2&#45;&gt;Node16 -->
<g id="edge15_Node000002_Node000016" class="edge">
<title>Node2&#45;&gt;Node16</title>
<g id="a_edge15_Node000002_Node000016"><a xlink:title=" ">
<path fill="none" stroke="#63b8ff" d="M423.19,-236.76C564.57,-227.8 1013.18,-199.36 1165.12,-189.73"/>
<polygon fill="#63b8ff" stroke="#63b8ff" points="1165.78,-193.19 1175.54,-189.07 1165.34,-186.2 1165.78,-193.19"/>
</a>
</g>
</g>
<!-- Node31 -->
<g id="Node000031" class="node">
<title>Node31</title>
<g id="a_Node000031"><a xlink:href="qssintegrator_8h.html" target="_top" xlink:title=" ">
<polygon fill="white" stroke="#666666" points="360,-195 280,-195 280,-176 360,-176 360,-195"/>
<text text-anchor="middle" x="320" y="-183" font-family="FreeSans" font-size="10.00">qssintegrator.h</text>
</a>
</g>
</g>
<!-- Node2&#45;&gt;Node31 -->
<g id="edge33_Node000002_Node000031" class="edge">
<title>Node2&#45;&gt;Node31</title>
<g id="a_edge33_Node000002_Node000031"><a xlink:title=" ">
<path fill="none" stroke="#63b8ff" d="M370.36,-230.98C361.49,-223.15 348.13,-211.34 337.39,-201.86"/>
<polygon fill="#63b8ff" stroke="#63b8ff" points="339.63,-199.17 329.82,-195.17 334.99,-204.41 339.63,-199.17"/>
</a>
</g>
</g>
<!-- Node32 -->
<g id="Node000032" class="node">
<title>Node32</title>
<g id="a_Node000032"><a xlink:href="quasi2d_8h.html" target="_top" xlink:title=" ">
<polygon fill="white" stroke="#666666" points="146,-195 88,-195 88,-176 146,-176 146,-195"/>
<text text-anchor="middle" x="117" y="-183" font-family="FreeSans" font-size="10.00">quasi2d.h</text>
</a>
</g>
</g>
<!-- Node2&#45;&gt;Node32 -->
<g id="edge35_Node000002_Node000032" class="edge">
<title>Node2&#45;&gt;Node32</title>
<g id="a_edge35_Node000002_Node000032"><a xlink:title=" ">
<path fill="none" stroke="#63b8ff" d="M336.8,-231.29C293.58,-222.99 224.93,-209.63 156.17,-195.21"/>
<polygon fill="#63b8ff" stroke="#63b8ff" points="156.54,-191.71 146.03,-193.07 155.09,-198.56 156.54,-191.71"/>
</a>
</g>
</g>
<!-- Node33 -->
<g id="Node000033" class="node">
<title>Node33</title>
<g id="a_Node000033"><a xlink:href="callback_8h.html" target="_top" xlink:title=" ">
<polygon fill="white" stroke="#666666" points="224,-195 164,-195 164,-176 224,-176 224,-195"/>
<text text-anchor="middle" x="194" y="-183" font-family="FreeSans" font-size="10.00">callback.h</text>
</a>
</g>
</g>
<!-- Node2&#45;&gt;Node33 -->
<g id="edge38_Node000002_Node000033" class="edge">
<title>Node2&#45;&gt;Node33</title>
<g id="a_edge38_Node000002_Node000033"><a xlink:title=" ">
<path fill="none" stroke="#63b8ff" d="M350.12,-230.98C318.62,-222.01 268.83,-207.82 233.97,-197.89"/>
<polygon fill="#63b8ff" stroke="#63b8ff" points="234.69,-194.46 224.12,-195.08 232.78,-201.19 234.69,-194.46"/>
</a>
</g>
</g>
<!-- Node4 -->
<g id="Node000004" class="node">
<title>Node4</title>
<g id="a_Node000004"><a xlink:title=" ">
<polygon fill="#e0e0e0" stroke="#999999" points="1390,-74 1346,-74 1346,-55 1390,-55 1390,-74"/>
<text text-anchor="middle" x="1368" y="-62" font-family="FreeSans" font-size="10.00">vector</text>
</a>
</g>
</g>
<!-- Node3&#45;&gt;Node4 -->
<g id="edge3_Node000003_Node000004" class="edge">
<title>Node3&#45;&gt;Node4</title>
<g id="a_edge3_Node000003_Node000004"><a xlink:title=" ">
<path fill="none" stroke="#63b8ff" d="M215.93,-115.39C222.3,-113.25 229.35,-111.21 236,-110 291.46,-99.88 1155.87,-72.18 1335.47,-66.52"/>
<polygon fill="#63b8ff" stroke="#63b8ff" points="1335.73,-70.01 1345.61,-66.2 1335.51,-63.02 1335.73,-70.01"/>
</a>
</g>
</g>
<!-- Node5 -->
<g id="Node000005" class="node">
<title>Node5</title>
<g id="a_Node000005"><a xlink:title=" ">
<polygon fill="#e0e0e0" stroke="#999999" points="303,-74 259,-74 259,-55 303,-55 303,-74"/>
<text text-anchor="middle" x="281" y="-62" font-family="FreeSans" font-size="10.00">cmath</text>
</a>
</g>
</g>
<!-- Node3&#45;&gt;Node5 -->
<g id="edge4_Node000003_Node000005" class="edge">
<title>Node3&#45;&gt;Node5</title>
<g id="a_edge4_Node000003_Node000005"><a xlink:title=" ">
<path fill="none" stroke="#63b8ff" d="M206.84,-115.37C220.72,-106.04 243.07,-91.01 259.61,-79.88"/>
<polygon fill="#63b8ff" stroke="#63b8ff" points="261.76,-82.65 268.11,-74.17 257.86,-76.84 261.76,-82.65"/>
</a>
</g>
</g>
<!-- Node6 -->
<g id="Node000006" class="node">
<title>Node6</title>
<g id="a_Node000006"><a xlink:title=" ">
<polygon fill="#e0e0e0" stroke="#999999" points="518,-19 464,-19 464,0 518,0 518,-19"/>
<text text-anchor="middle" x="491" y="-7" font-family="FreeSans" font-size="10.00">iostream</text>
</a>
</g>
</g>
<!-- Node3&#45;&gt;Node6 -->
<g id="edge5_Node000003_Node000006" class="edge">
<title>Node3&#45;&gt;Node6</title>
<g id="a_edge5_Node000003_Node000006"><a xlink:title=" ">
<path fill="none" stroke="#63b8ff" d="M217.34,-115.44C223.36,-113.44 229.87,-111.48 236,-110 339.15,-85.13 391.93,-143.62 472,-74 484.61,-63.04 489.03,-44.08 490.49,-29.73"/>
<polygon fill="#63b8ff" stroke="#63b8ff" points="494,-29.64 491.13,-19.45 487.01,-29.21 494,-29.64"/>
</a>
</g>
</g>
<!-- Node7 -->
<g id="Node000007" class="node">
<title>Node7</title>
<g id="a_Node000007"><a xlink:title=" ">
<polygon fill="#e0e0e0" stroke="#999999" points="373,-74 321,-74 321,-55 373,-55 373,-74"/>
<text text-anchor="middle" x="347" y="-62" font-family="FreeSans" font-size="10.00">sstream</text>
</a>
</g>
</g>
<!-- Node3&#45;&gt;Node7 -->
<g id="edge6_Node000003_Node000007" class="edge">
<title>Node3&#45;&gt;Node7</title>
<g id="a_edge6_Node000003_Node000007"><a xlink:title=" ">
<path fill="none" stroke="#63b8ff" d="M216.25,-115.49C242.31,-105.53 285.68,-88.95 315.27,-77.63"/>
<polygon fill="#63b8ff" stroke="#63b8ff" points="316.64,-80.86 324.73,-74.02 314.14,-74.32 316.64,-80.86"/>
</a>
</g>
</g>
<!-- Node8 -->
<g id="Node000008" class="node">
<title>Node8</title>
<g id="a_Node000008"><a xlink:title=" ">
<polygon fill="#e0e0e0" stroke="#999999" points="129.5,-19 88.5,-19 88.5,0 129.5,0 129.5,-19"/>
<text text-anchor="middle" x="109" y="-7" font-family="FreeSans" font-size="10.00">string</text>
</a>
</g>
</g>
<!-- Node3&#45;&gt;Node8 -->
<g id="edge7_Node000003_Node000008" class="edge">
<title>Node3&#45;&gt;Node8</title>
<g id="a_edge7_Node000003_Node000008"><a xlink:title=" ">
<path fill="none" stroke="#63b8ff" d="M177.22,-115.34C162.22,-106.77 140.7,-92.31 128,-74 118.67,-60.56 113.85,-42.46 111.4,-29.02"/>
<polygon fill="#63b8ff" stroke="#63b8ff" points="114.84,-28.38 109.85,-19.04 107.92,-29.45 114.84,-28.38"/>
</a>
</g>
</g>
<!-- Node9 -->
<g id="Node000009" class="node">
<title>Node9</title>
<g id="a_Node000009"><a xlink:title=" ">
<polygon fill="#e0e0e0" stroke="#999999" points="80.5,-74 45.5,-74 45.5,-55 80.5,-55 80.5,-74"/>
<text text-anchor="middle" x="63" y="-62" font-family="FreeSans" font-size="10.00">map</text>
</a>
</g>
</g>
<!-- Node3&#45;&gt;Node9 -->
<g id="edge8_Node000003_Node000009" class="edge">
<title>Node3&#45;&gt;Node9</title>
<g id="a_edge8_Node000003_Node000009"><a xlink:title=" ">
<path fill="none" stroke="#63b8ff" d="M174.95,-115.49C152.65,-105.53 115.54,-88.96 90.21,-77.65"/>
<polygon fill="#63b8ff" stroke="#63b8ff" points="91.37,-74.34 80.81,-73.45 88.51,-80.73 91.37,-74.34"/>
</a>
</g>
</g>
<!-- Node10 -->
<g id="Node000010" class="node">
<title>Node10</title>
<g id="a_Node000010"><a xlink:href="debugUtils_8h.html" target="_top" xlink:title=" ">
<polygon fill="#fff0f0" stroke="red" points="462.5,-74 391.5,-74 391.5,-55 462.5,-55 462.5,-74"/>
<text text-anchor="middle" x="427" y="-62" font-family="FreeSans" font-size="10.00">debugUtils.h</text>
</a>
</g>
</g>
<!-- Node3&#45;&gt;Node10 -->
<g id="edge9_Node000003_Node000010" class="edge">
<title>Node3&#45;&gt;Node10</title>
<g id="a_edge9_Node000003_Node000010"><a xlink:title=" ">
<path fill="none" stroke="#63b8ff" d="M218.31,-115.47C224.08,-113.57 230.23,-111.63 236,-110 285.18,-96.11 342.34,-83.21 381.23,-74.91"/>
<polygon fill="#63b8ff" stroke="#63b8ff" points="382.14,-78.3 391.19,-72.8 380.69,-71.45 382.14,-78.3"/>
</a>
</g>
</g>
<!-- Node14 -->
<g id="Node000014" class="node">
<title>Node14</title>
<g id="a_Node000014"><a xlink:title=" ">
<polygon fill="#e0e0e0" stroke="#999999" points="1025,-74 909,-74 909,-55 1025,-55 1025,-74"/>
<text text-anchor="middle" x="967" y="-62" font-family="FreeSans" font-size="10.00">cantera/base/ct_defs.h</text>
</a>
</g>
</g>
<!-- Node3&#45;&gt;Node14 -->
<g id="edge13_Node000003_Node000014" class="edge">
<title>Node3&#45;&gt;Node14</title>
<g id="a_edge13_Node000003_Node000014"><a xlink:title=" ">
<path fill="none" stroke="#63b8ff" d="M215.94,-115.49C222.32,-113.34 229.36,-111.29 236,-110 361.68,-85.66 741.95,-72.08 898.52,-67.39"/>
<polygon fill="#63b8ff" stroke="#63b8ff" points="899.06,-70.88 908.95,-67.08 898.85,-63.88 899.06,-70.88"/>
</a>
</g>
</g>
<!-- Node15 -->
<g id="Node000015" class="node">
<title>Node15</title>
<g id="a_Node000015"><a xlink:title=" ">
<polygon fill="#e0e0e0" stroke="#999999" points="240.5,-74 137.5,-74 137.5,-55 240.5,-55 240.5,-74"/>
<text text-anchor="middle" x="189" y="-62" font-family="FreeSans" font-size="10.00">eigen3/Eigen/Dense</text>
</a>
</g>
</g>
<!-- Node3&#45;&gt;Node15 -->
<g id="edge14_Node000003_Node000015" class="edge">
<title>Node3&#45;&gt;Node15</title>
<g id="a_edge14_Node000003_Node000015"><a xlink:title=" ">
<path fill="none" stroke="#63b8ff" d="M193.26,-115.37C192.57,-107.25 191.5,-94.81 190.61,-84.39"/>
<polygon fill="#63b8ff" stroke="#63b8ff" points="194.08,-83.83 189.74,-74.17 187.11,-84.43 194.08,-83.83"/>
</a>
</g>
</g>
<!-- Node10&#45;&gt;Node6 -->
<g id="edge11_Node000010_Node000006" class="edge">
<title>Node10&#45;&gt;Node6</title>
<g id="a_edge11_Node000010_Node000006"><a xlink:title=" ">
<path fill="none" stroke="#63b8ff" d="M437.28,-54.98C446.84,-47.07 461.28,-35.11 472.78,-25.58"/>
<polygon fill="#63b8ff" stroke="#63b8ff" points="475.06,-28.24 480.53,-19.17 470.6,-22.85 475.06,-28.24"/>
</a>
</g>
</g>
<!-- Node10&#45;&gt;Node8 -->
<g id="edge10_Node000010_Node000008" class="edge">
<title>Node10&#45;&gt;Node8</title>
<g id="a_edge10_Node000010_Node000008"><a xlink:title=" ">
<path fill="none" stroke="#63b8ff" d="M391.15,-56.65C388.06,-56.08 384.98,-55.52 382,-55 294.13,-39.54 190.02,-23.08 139.52,-15.22"/>
<polygon fill="#63b8ff" stroke="#63b8ff" points="140,-11.75 129.58,-13.67 138.92,-18.67 140,-11.75"/>
</a>
</g>
</g>
<!-- Node10&#45;&gt;Node13 -->
<g id="edge12_Node000010_Node000013" class="edge">
<title>Node10&#45;&gt;Node13</title>
<g id="a_edge12_Node000010_Node000013"><a xlink:title=" ">
<path fill="none" stroke="#63b8ff" d="M462.7,-61.44C603.36,-53.32 1119.8,-23.5 1290.11,-13.67"/>
<polygon fill="#63b8ff" stroke="#63b8ff" points="1290.56,-17.15 1300.35,-13.08 1290.16,-10.16 1290.56,-17.15"/>
</a>
</g>
</g>
<!-- Node16&#45;&gt;Node4 -->
<g id="edge31_Node000016_Node000004" class="edge">
<title>Node16&#45;&gt;Node4</title>
<g id="a_edge31_Node000016_Node000004"><a xlink:title=" ">
<path fill="none" stroke="#63b8ff" d="M1256.35,-183.52C1361.36,-180.55 1636.88,-169.95 1664,-140 1672.95,-130.12 1672.7,-120.1 1664,-110 1630.29,-70.84 1470.34,-65.67 1400.62,-65.31"/>
<polygon fill="#63b8ff" stroke="#63b8ff" points="1400.24,-61.81 1390.23,-65.29 1400.23,-68.81 1400.24,-61.81"/>
</a>
</g>
</g>
<!-- Node16&#45;&gt;Node6 -->
<g id="edge30_Node000016_Node000006" class="edge">
<title>Node16&#45;&gt;Node6</title>
<g id="a_edge30_Node000016_Node000006"><a xlink:title=" ">
<path fill="none" stroke="#63b8ff" d="M1256.31,-183.68C1364.09,-181.06 1652.67,-171.17 1681,-140 1689.97,-130.13 1689.48,-120.29 1681,-110 1605.92,-18.87 722.05,-11.14 528.36,-10.54"/>
<polygon fill="#63b8ff" stroke="#63b8ff" points="528.13,-7.04 518.12,-10.51 528.12,-14.04 528.13,-7.04"/>
</a>
</g>
</g>
<!-- Node16&#45;&gt;Node14 -->
<g id="edge22_Node000016_Node000014" class="edge">
<title>Node16&#45;&gt;Node14</title>
<g id="a_edge22_Node000016_Node000014"><a xlink:title=" ">
<path fill="none" stroke="#63b8ff" d="M1256.33,-175.91C1301.89,-164.45 1366.25,-141.84 1338,-110 1318.31,-87.8 1137.25,-74.6 1035.55,-68.88"/>
<polygon fill="#63b8ff" stroke="#63b8ff" points="1035.54,-65.37 1025.36,-68.32 1035.15,-72.36 1035.54,-65.37"/>
</a>
</g>
</g>
<!-- Node17 -->
<g id="Node000017" class="node">
<title>Node17</title>
<g id="a_Node000017"><a xlink:href="config_8h.html" target="_top" xlink:title=" ">
<polygon fill="white" stroke="#666666" points="2004,-134.5 1954,-134.5 1954,-115.5 2004,-115.5 2004,-134.5"/>
<text text-anchor="middle" x="1979" y="-122.5" font-family="FreeSans" font-size="10.00">config.h</text>
</a>
</g>
</g>
<!-- Node16&#45;&gt;Node17 -->
<g id="edge16_Node000016_Node000017" class="edge">
<title>Node16&#45;&gt;Node17</title>
<g id="a_edge16_Node000016_Node000017"><a xlink:title=" ">
<path fill="none" stroke="#63b8ff" d="M1256.35,-183.78C1389.24,-181.14 1812.31,-170.48 1945,-140 1947.22,-139.49 1949.49,-138.85 1951.74,-138.12"/>
<polygon fill="#63b8ff" stroke="#63b8ff" points="1953.21,-141.31 1961.36,-134.55 1950.77,-134.75 1953.21,-141.31"/>
</a>
</g>
</g>
<!-- Node18 -->
<g id="Node000018" class="node">
<title>Node18</title>
<g id="a_Node000018"><a xlink:title=" ">
<polygon fill="#e0e0e0" stroke="#999999" points="1505,-134.5 1385,-134.5 1385,-115.5 1505,-115.5 1505,-134.5"/>
<text text-anchor="middle" x="1445" y="-122.5" font-family="FreeSans" font-size="10.00">nvector/nvector_serial.h</text>
</a>
</g>
</g>
<!-- Node16&#45;&gt;Node18 -->
<g id="edge17_Node000016_Node000018" class="edge">
<title>Node16&#45;&gt;Node18</title>
<g id="a_edge17_Node000016_Node000018"><a xlink:title=" ">
<path fill="none" stroke="#63b8ff" d="M1249.3,-175.99C1289.58,-165.7 1357.48,-148.36 1401.77,-137.04"/>
<polygon fill="#63b8ff" stroke="#63b8ff" points="1402.84,-140.38 1411.66,-134.52 1401.11,-133.6 1402.84,-140.38"/>
</a>
</g>
</g>
<!-- Node19 -->
<g id="Node000019" class="node">
<title>Node19</title>
<g id="a_Node000019"><a xlink:title=" ">
<polygon fill="#e0e0e0" stroke="#999999" points="1654.5,-134.5 1523.5,-134.5 1523.5,-115.5 1654.5,-115.5 1654.5,-134.5"/>
<text text-anchor="middle" x="1589" y="-122.5" font-family="FreeSans" font-size="10.00">sundials/sundials_dense.h</text>
</a>
</g>
</g>
<!-- Node16&#45;&gt;Node19 -->
<g id="edge18_Node000016_Node000019" class="edge">
<title>Node16&#45;&gt;Node19</title>
<g id="a_edge18_Node000016_Node000019"><a xlink:title=" ">
<path fill="none" stroke="#63b8ff" d="M1256.08,-178.99C1313.36,-171 1421.92,-155.46 1514,-140 1520.67,-138.88 1527.66,-137.65 1534.59,-136.4"/>
<polygon fill="#63b8ff" stroke="#63b8ff" points="1535.42,-139.8 1544.63,-134.56 1534.16,-132.92 1535.42,-139.8"/>
</a>
</g>
</g>
<!-- Node20 -->
<g id="Node000020" class="node">
<title>Node20</title>
<g id="a_Node000020"><a xlink:title=" ">
<polygon fill="#e0e0e0" stroke="#999999" points="1874.5,-134.5 1749.5,-134.5 1749.5,-115.5 1874.5,-115.5 1874.5,-134.5"/>
<text text-anchor="middle" x="1812" y="-122.5" font-family="FreeSans" font-size="10.00">sundials/sundials_band.h</text>
</a>
</g>
</g>
<!-- Node16&#45;&gt;Node20 -->
<g id="edge19_Node000016_Node000020" class="edge">
<title>Node16&#45;&gt;Node20</title>
<g id="a_edge19_Node000016_Node000020"><a xlink:title=" ">
<path fill="none" stroke="#63b8ff" d="M1256.19,-182.35C1343.57,-177.39 1557.29,-163.72 1735,-140 1742.77,-138.96 1750.94,-137.68 1758.94,-136.32"/>
<polygon fill="#63b8ff" stroke="#63b8ff" points="1759.7,-139.74 1768.95,-134.57 1758.49,-132.85 1759.7,-139.74"/>
</a>
</g>
</g>
<!-- Node21 -->
<g id="Node000021" class="node">
<title>Node21</title>
<g id="a_Node000021"><a xlink:title=" ">
<polygon fill="#e0e0e0" stroke="#999999" points="373,-134.5 245,-134.5 245,-115.5 373,-115.5 373,-134.5"/>
<text text-anchor="middle" x="309" y="-122.5" font-family="FreeSans" font-size="10.00">sundials/sundials_types.h</text>
</a>
</g>
</g>
<!-- Node16&#45;&gt;Node21 -->
<g id="edge20_Node000016_Node000021" class="edge">
<title>Node16&#45;&gt;Node21</title>
<g id="a_edge20_Node000016_Node000021"><a xlink:title=" ">
<path fill="none" stroke="#63b8ff" d="M1175.9,-184.29C1055.33,-183.26 685.69,-177.05 382,-140 374.25,-139.06 366.09,-137.78 358.15,-136.37"/>
<polygon fill="#63b8ff" stroke="#63b8ff" points="358.72,-132.92 348.25,-134.54 357.44,-139.8 358.72,-132.92"/>
</a>
</g>
</g>
<!-- Node22 -->
<g id="Node000022" class="node">
<title>Node22</title>
<g id="a_Node000022"><a xlink:title=" ">
<polygon fill="#e0e0e0" stroke="#999999" points="471,-134.5 391,-134.5 391,-115.5 471,-115.5 471,-134.5"/>
<text text-anchor="middle" x="431" y="-122.5" font-family="FreeSans" font-size="10.00">cvode/cvode.h</text>
</a>
</g>
</g>
<!-- Node16&#45;&gt;Node22 -->
<g id="edge21_Node000016_Node000022" class="edge">
<title>Node16&#45;&gt;Node22</title>
<g id="a_edge21_Node000016_Node000022"><a xlink:title=" ">
<path fill="none" stroke="#63b8ff" d="M1175.83,-185.05C1064.55,-185.93 743.21,-184.13 481,-140 476.53,-139.25 471.88,-138.25 467.31,-137.13"/>
<polygon fill="#63b8ff" stroke="#63b8ff" points="468.05,-133.71 457.49,-134.55 466.27,-140.48 468.05,-133.71"/>
</a>
</g>
</g>
<!-- Node23 -->
<g id="Node000023" class="node">
<title>Node23</title>
<g id="a_Node000023"><a xlink:title=" ">
<polygon fill="#e0e0e0" stroke="#999999" points="608.5,-134.5 489.5,-134.5 489.5,-115.5 608.5,-115.5 608.5,-134.5"/>
<text text-anchor="middle" x="549" y="-122.5" font-family="FreeSans" font-size="10.00">cvodes/cvodes_direct.h</text>
</a>
</g>
</g>
<!-- Node16&#45;&gt;Node23 -->
<g id="edge23_Node000016_Node000023" class="edge">
<title>Node16&#45;&gt;Node23</title>
<g id="a_edge23_Node000016_Node000023"><a xlink:title=" ">
<path fill="none" stroke="#63b8ff" d="M1175.93,-183.26C1079.46,-179.9 826.83,-168.84 618,-140 611.17,-139.06 603.99,-137.85 596.96,-136.54"/>
<polygon fill="#63b8ff" stroke="#63b8ff" points="597.3,-133.04 586.81,-134.57 595.96,-139.91 597.3,-133.04"/>
</a>
</g>
</g>
<!-- Node24 -->
<g id="Node000024" class="node">
<title>Node24</title>
<g id="a_Node000024"><a xlink:title=" ">
<polygon fill="#e0e0e0" stroke="#999999" points="743,-134.5 627,-134.5 627,-115.5 743,-115.5 743,-134.5"/>
<text text-anchor="middle" x="685" y="-122.5" font-family="FreeSans" font-size="10.00">cvodes/cvodes_spils.h</text>
</a>
</g>
</g>
<!-- Node16&#45;&gt;Node24 -->
<g id="edge24_Node000016_Node000024" class="edge">
<title>Node16&#45;&gt;Node24</title>
<g id="a_edge24_Node000016_Node000024"><a xlink:title=" ">
<path fill="none" stroke="#63b8ff" d="M1175.78,-182.14C1095.09,-177.08 907.81,-163.68 752,-140 745.6,-139.03 738.89,-137.84 732.29,-136.56"/>
<polygon fill="#63b8ff" stroke="#63b8ff" points="732.57,-133.05 722.08,-134.51 731.19,-139.91 732.57,-133.05"/>
</a>
</g>
</g>
<!-- Node25 -->
<g id="Node000025" class="node">
<title>Node25</title>
<g id="a_Node000025"><a xlink:title=" ">
<polygon fill="#e0e0e0" stroke="#999999" points="857,-140 761,-140 761,-110 857,-110 857,-140"/>
<text text-anchor="start" x="769" y="-128" font-family="FreeSans" font-size="10.00">sunlinsol/sunlinsol</text>
<text text-anchor="middle" x="809" y="-117" font-family="FreeSans" font-size="10.00">_dense.h</text>
</a>
</g>
</g>
<!-- Node16&#45;&gt;Node25 -->
<g id="edge25_Node000016_Node000025" class="edge">
<title>Node16&#45;&gt;Node25</title>
<g id="a_edge25_Node000016_Node000025"><a xlink:title=" ">
<path fill="none" stroke="#63b8ff" d="M1175.88,-180.91C1112.37,-174.89 984.64,-161.46 867.01,-140.05"/>
<polygon fill="#63b8ff" stroke="#63b8ff" points="867.59,-136.6 857.12,-138.23 866.32,-143.48 867.59,-136.6"/>
</a>
</g>
</g>
<!-- Node26 -->
<g id="Node000026" class="node">
<title>Node26</title>
<g id="a_Node000026"><a xlink:title=" ">
<polygon fill="#e0e0e0" stroke="#999999" points="971,-140 875,-140 875,-110 971,-110 971,-140"/>
<text text-anchor="start" x="883" y="-128" font-family="FreeSans" font-size="10.00">sunlinsol/sunlinsol</text>
<text text-anchor="middle" x="923" y="-117" font-family="FreeSans" font-size="10.00">_band.h</text>
</a>
</g>
</g>
<!-- Node16&#45;&gt;Node26 -->
<g id="edge26_Node000016_Node000026" class="edge">
<title>Node16&#45;&gt;Node26</title>
<g id="a_edge26_Node000016_Node000026"><a xlink:title=" ">
<path fill="none" stroke="#63b8ff" d="M1175.78,-177.6C1130.72,-169.73 1055.29,-156.09 981.14,-140.18"/>
<polygon fill="#63b8ff" stroke="#63b8ff" points="981.67,-136.72 971.16,-138.02 980.19,-143.56 981.67,-136.72"/>
</a>
</g>
</g>
<!-- Node27 -->
<g id="Node000027" class="node">
<title>Node27</title>
<g id="a_Node000027"><a xlink:title=" ">
<polygon fill="#e0e0e0" stroke="#999999" points="1085,-140 989,-140 989,-110 1085,-110 1085,-140"/>
<text text-anchor="start" x="997" y="-128" font-family="FreeSans" font-size="10.00">sunlinsol/sunlinsol</text>
<text text-anchor="middle" x="1037" y="-117" font-family="FreeSans" font-size="10.00">_spgmr.h</text>
</a>
</g>
</g>
<!-- Node16&#45;&gt;Node27 -->
<g id="edge27_Node000016_Node000027" class="edge">
<title>Node16&#45;&gt;Node27</title>
<g id="a_edge27_Node000016_Node000027"><a xlink:title=" ">
<path fill="none" stroke="#63b8ff" d="M1189.97,-175.99C1163.76,-167.43 1122.59,-153.97 1089.56,-143.18"/>
<polygon fill="#63b8ff" stroke="#63b8ff" points="1090.63,-139.84 1080.03,-140.06 1088.45,-146.5 1090.63,-139.84"/>
</a>
</g>
</g>
<!-- Node28 -->
<g id="Node000028" class="node">
<title>Node28</title>
<g id="a_Node000028"><a xlink:title=" ">
<polygon fill="#e0e0e0" stroke="#999999" points="1207,-140 1103,-140 1103,-110 1207,-110 1207,-140"/>
<text text-anchor="start" x="1111" y="-128" font-family="FreeSans" font-size="10.00">sunmatrix/sunmatrix</text>
<text text-anchor="middle" x="1155" y="-117" font-family="FreeSans" font-size="10.00">_dense.h</text>
</a>
</g>
</g>
<!-- Node16&#45;&gt;Node28 -->
<g id="edge28_Node000016_Node000028" class="edge">
<title>Node16&#45;&gt;Node28</title>
<g id="a_edge28_Node000016_Node000028"><a xlink:title=" ">
<path fill="none" stroke="#63b8ff" d="M1207,-175.87C1199.11,-168.3 1187.3,-156.98 1176.94,-147.04"/>
<polygon fill="#63b8ff" stroke="#63b8ff" points="1179.36,-144.51 1169.72,-140.11 1174.51,-149.56 1179.36,-144.51"/>
</a>
</g>
</g>
<!-- Node29 -->
<g id="Node000029" class="node">
<title>Node29</title>
<g id="a_Node000029"><a xlink:title=" ">
<polygon fill="#e0e0e0" stroke="#999999" points="1329,-140 1225,-140 1225,-110 1329,-110 1329,-140"/>
<text text-anchor="start" x="1233" y="-128" font-family="FreeSans" font-size="10.00">sunmatrix/sunmatrix</text>
<text text-anchor="middle" x="1277" y="-117" font-family="FreeSans" font-size="10.00">_band.h</text>
</a>
</g>
</g>
<!-- Node16&#45;&gt;Node29 -->
<g id="edge29_Node000016_Node000029" class="edge">
<title>Node16&#45;&gt;Node29</title>
<g id="a_edge29_Node000016_Node000029"><a xlink:title=" ">
<path fill="none" stroke="#63b8ff" d="M1225,-175.87C1232.89,-168.3 1244.7,-156.98 1255.06,-147.04"/>
<polygon fill="#63b8ff" stroke="#63b8ff" points="1257.49,-149.56 1262.28,-140.11 1252.64,-144.51 1257.49,-149.56"/>
</a>
</g>
</g>
<!-- Node30 -->
<g id="Node000030" class="node">
<title>Node30</title>
<g id="a_Node000030"><a xlink:title=" ">
<polygon fill="#e0e0e0" stroke="#999999" points="1935.5,-134.5 1892.5,-134.5 1892.5,-115.5 1935.5,-115.5 1935.5,-134.5"/>
<text text-anchor="middle" x="1914" y="-122.5" font-family="FreeSans" font-size="10.00">time.h</text>
</a>
</g>
</g>
<!-- Node16&#45;&gt;Node30 -->
<g id="edge32_Node000016_Node000030" class="edge">
<title>Node16&#45;&gt;Node30</title>
<g id="a_edge32_Node000016_Node000030"><a xlink:title=" ">
<path fill="none" stroke="#63b8ff" d="M1256.06,-183.76C1381.28,-181.16 1764.11,-170.81 1884,-140 1885.68,-139.57 1887.39,-139.04 1889.09,-138.45"/>
<polygon fill="#63b8ff" stroke="#63b8ff" points="1890.62,-141.6 1898.53,-134.55 1887.95,-135.13 1890.62,-141.6"/>
</a>
</g>
</g>
<!-- Node31&#45;&gt;Node3 -->
<g id="edge34_Node000031_Node000003" class="edge">
<title>Node31&#45;&gt;Node3</title>
<g id="a_edge34_Node000031_Node000003"><a xlink:title=" ">
<path fill="none" stroke="#63b8ff" d="M301.68,-175.99C280.59,-166.2 245.74,-150.02 221.42,-138.73"/>
<polygon fill="#63b8ff" stroke="#63b8ff" points="222.89,-135.55 212.34,-134.52 219.94,-141.9 222.89,-135.55"/>
</a>
</g>
</g>
<!-- Node32&#45;&gt;Node3 -->
<g id="edge36_Node000032_Node000003" class="edge">
<title>Node32&#45;&gt;Node3</title>
<g id="a_edge36_Node000032_Node000003"><a xlink:title=" ">
<path fill="none" stroke="#63b8ff" d="M128.36,-175.87C140.42,-166.71 159.7,-152.06 174.25,-141.01"/>
<polygon fill="#63b8ff" stroke="#63b8ff" points="176.75,-143.5 182.59,-134.67 172.51,-137.93 176.75,-143.5"/>
</a>
</g>
</g>
<!-- Node32&#45;&gt;Node9 -->
<g id="edge37_Node000032_Node000009" class="edge">
<title>Node32&#45;&gt;Node9</title>
<g id="a_edge37_Node000032_Node000009"><a xlink:title=" ">
<path fill="none" stroke="#63b8ff" d="M105.05,-175.69C95.02,-167.59 81.21,-154.65 74,-140 65.36,-122.44 63.06,-99.95 62.64,-84.29"/>
<polygon fill="#63b8ff" stroke="#63b8ff" points="66.14,-84.26 62.61,-74.27 59.14,-84.28 66.14,-84.26"/>
</a>
</g>
</g>
<!-- Node33&#45;&gt;Node3 -->
<g id="edge40_Node000033_Node000003" class="edge">
<title>Node33&#45;&gt;Node3</title>
<g id="a_edge40_Node000033_Node000003"><a xlink:title=" ">
<path fill="none" stroke="#63b8ff" d="M194,-175.87C194,-167.75 194,-155.31 194,-144.89"/>
<polygon fill="#63b8ff" stroke="#63b8ff" points="197.5,-144.67 194,-134.67 190.5,-144.67 197.5,-144.67"/>
</a>
</g>
</g>
<!-- Node34 -->
<g id="Node000034" class="node">
<title>Node34</title>
<g id="a_Node000034"><a xlink:title=" ">
<polygon fill="#e0e0e0" stroke="#999999" points="142.5,-134.5 83.5,-134.5 83.5,-115.5 142.5,-115.5 142.5,-134.5"/>
<text text-anchor="middle" x="113" y="-122.5" font-family="FreeSans" font-size="10.00">stdexcept</text>
</a>
</g>
</g>
<!-- Node33&#45;&gt;Node34 -->
<g id="edge39_Node000033_Node000034" class="edge">
<title>Node33&#45;&gt;Node34</title>
<g id="a_edge39_Node000033_Node000034"><a xlink:title=" ">
<path fill="none" stroke="#63b8ff" d="M182.05,-175.87C169.25,-166.62 148.7,-151.78 133.35,-140.69"/>
<polygon fill="#63b8ff" stroke="#63b8ff" points="135.16,-137.68 125,-134.67 131.06,-143.36 135.16,-137.68"/>
</a>
</g>
</g>
<!-- Node35&#45;&gt;Node3 -->
<g id="edge42_Node000035_Node000003" class="edge">
<title>Node35&#45;&gt;Node3</title>
<g id="a_edge42_Node000035_Node000003"><a xlink:title=" ">
<path fill="none" stroke="#63b8ff" d="M58.12,-175.99C85.32,-165.99 130.67,-149.3 161.42,-137.99"/>
<polygon fill="#63b8ff" stroke="#63b8ff" points="162.68,-141.25 170.85,-134.52 160.26,-134.68 162.68,-141.25"/>
</a>
</g>
</g>
<!-- Node35&#45;&gt;Node8 -->
<g id="edge43_Node000035_Node000008" class="edge">
<title>Node35&#45;&gt;Node8</title>
<g id="a_edge43_Node000035_Node000008"><a xlink:title=" ">
<path fill="none" stroke="#63b8ff" d="M32.4,-175.9C26.31,-154.02 13.28,-95.1 36,-55 45.27,-38.64 63.25,-27.57 79.04,-20.57"/>
<polygon fill="#63b8ff" stroke="#63b8ff" points="80.55,-23.73 88.49,-16.72 77.91,-17.25 80.55,-23.73"/>
</a>
</g>
</g>
<!-- Node36&#45;&gt;Node30 -->
<g id="edge49_Node000036_Node000030" class="edge">
<title>Node36&#45;&gt;Node30</title>
<g id="a_edge49_Node000036_Node000030"><a xlink:title=" ">
<path fill="none" stroke="#63b8ff" d="M1899.96,-230.83C1896.07,-218.56 1890.25,-195.46 1894,-176 1896.16,-164.81 1900.79,-152.94 1905.06,-143.57"/>
<polygon fill="#63b8ff" stroke="#63b8ff" points="1908.22,-145.07 1909.41,-134.54 1901.92,-142.03 1908.22,-145.07"/>
</a>
</g>
</g>
<!-- Node37 -->
<g id="Node000037" class="node">
<title>Node37</title>
<g id="a_Node000037"><a xlink:href="tbb__tools_8h.html" target="_top" xlink:title=" ">
<polygon fill="white" stroke="#666666" points="2046,-195 1982,-195 1982,-176 2046,-176 2046,-195"/>
<text text-anchor="middle" x="2014" y="-183" font-family="FreeSans" font-size="10.00">tbb_tools.h</text>
</a>
</g>
</g>
<!-- Node36&#45;&gt;Node37 -->
<g id="edge45_Node000036_Node000037" class="edge">
<title>Node36&#45;&gt;Node37</title>
<g id="a_edge45_Node000036_Node000037"><a xlink:title=" ">
<path fill="none" stroke="#63b8ff" d="M1920.83,-230.98C1938.61,-222.5 1966.15,-209.35 1986.68,-199.54"/>
<polygon fill="#63b8ff" stroke="#63b8ff" points="1988.33,-202.64 1995.84,-195.17 1985.31,-196.32 1988.33,-202.64"/>
</a>
</g>
</g>
<!-- Node44 -->
<g id="Node000044" class="node">
<title>Node44</title>
<g id="a_Node000044"><a xlink:title=" ">
<polygon fill="#e0e0e0" stroke="#999999" points="1963.5,-195 1902.5,-195 1902.5,-176 1963.5,-176 1963.5,-195"/>
<text text-anchor="middle" x="1933" y="-183" font-family="FreeSans" font-size="10.00">sys/time.h</text>
</a>
</g>
</g>
<!-- Node36&#45;&gt;Node44 -->
<g id="edge48_Node000036_Node000044" class="edge">
<title>Node36&#45;&gt;Node44</title>
<g id="a_edge48_Node000036_Node000044"><a xlink:title=" ">
<path fill="none" stroke="#63b8ff" d="M1907.95,-230.75C1912.06,-223.49 1918.03,-212.95 1923.1,-203.98"/>
<polygon fill="#63b8ff" stroke="#63b8ff" points="1926.26,-205.52 1928.14,-195.09 1920.17,-202.07 1926.26,-205.52"/>
</a>
</g>
</g>
<!-- Node37&#45;&gt;Node17 -->
<g id="edge46_Node000037_Node000017" class="edge">
<title>Node37&#45;&gt;Node17</title>
<g id="a_edge46_Node000037_Node000017"><a xlink:title=" ">
<path fill="none" stroke="#63b8ff" d="M2008.84,-175.87C2003.77,-167.4 1995.9,-154.24 1989.51,-143.57"/>
<polygon fill="#63b8ff" stroke="#63b8ff" points="1992.32,-141.45 1984.19,-134.67 1986.32,-145.05 1992.32,-141.45"/>
</a>
</g>
</g>
<!-- Node38 -->
<g id="Node000038" class="node">
<title>Node38</title>
<g id="a_Node000038"><a xlink:href="tbb__real_8h.html" target="_top" xlink:title=" ">
<polygon fill="#fff0f0" stroke="red" points="2081.5,-134.5 2022.5,-134.5 2022.5,-115.5 2081.5,-115.5 2081.5,-134.5"/>
<text text-anchor="middle" x="2052" y="-122.5" font-family="FreeSans" font-size="10.00">tbb_real.h</text>
</a>
</g>
</g>
<!-- Node37&#45;&gt;Node38 -->
<g id="edge47_Node000037_Node000038" class="edge">
<title>Node37&#45;&gt;Node38</title>
<g id="a_edge47_Node000037_Node000038"><a xlink:title=" ">
<path fill="none" stroke="#63b8ff" d="M2019.61,-175.87C2025.16,-167.31 2033.83,-153.97 2040.8,-143.24"/>
<polygon fill="#63b8ff" stroke="#63b8ff" points="2043.86,-144.96 2046.37,-134.67 2037.99,-141.15 2043.86,-144.96"/>
</a>
</g>
</g>
<!-- Node45&#45;&gt;Node3 -->
<g id="edge53_Node000045_Node000003" class="edge">
<title>Node45&#45;&gt;Node3</title>
<g id="a_edge53_Node000045_Node000003"><a xlink:title=" ">
<path fill="none" stroke="#63b8ff" d="M2477.17,-183.78C2177.95,-178.24 250.39,-142.48 236,-140 232.48,-139.39 228.86,-138.55 225.29,-137.57"/>
<polygon fill="#63b8ff" stroke="#63b8ff" points="226.07,-134.14 215.48,-134.54 224,-140.83 226.07,-134.14"/>
</a>
</g>
</g>
<!-- Node45&#45;&gt;Node17 -->
<g id="edge52_Node000045_Node000017" class="edge">
<title>Node45&#45;&gt;Node17</title>
<g id="a_edge52_Node000045_Node000017"><a xlink:title=" ">
<path fill="none" stroke="#63b8ff" d="M2477.29,-184.88C2392.23,-184.89 2183.14,-180.4 2014,-140 2011.69,-139.45 2009.33,-138.77 2006.99,-138.02"/>
<polygon fill="#63b8ff" stroke="#63b8ff" points="2008.16,-134.72 1997.56,-134.59 2005.77,-141.3 2008.16,-134.72"/>
</a>
</g>
</g>
<!-- Node46 -->
<g id="Node000046" class="node">
<title>Node46</title>
<g id="a_Node000046"><a xlink:title=" ">
<polygon fill="#e0e0e0" stroke="#999999" points="3046.5,-134.5 2889.5,-134.5 2889.5,-115.5 3046.5,-115.5 3046.5,-134.5"/>
<text text-anchor="middle" x="2968" y="-122.5" font-family="FreeSans" font-size="10.00">cantera/transport/MixTransport.h</text>
</a>
</g>
</g>
<!-- Node45&#45;&gt;Node46 -->
<g id="edge54_Node000045_Node000046" class="edge">
<title>Node45&#45;&gt;Node46</title>
<g id="a_edge54_Node000045_Node000046"><a xlink:title=" ">
<path fill="none" stroke="#63b8ff" d="M2554.69,-180.28C2621.4,-172.88 2762.33,-156.78 2881,-140 2889.38,-138.81 2898.21,-137.49 2906.89,-136.14"/>
<polygon fill="#63b8ff" stroke="#63b8ff" points="2907.65,-139.56 2916.99,-134.54 2906.56,-132.64 2907.65,-139.56"/>
</a>
</g>
</g>
<!-- Node47 -->
<g id="Node000047" class="node">
<title>Node47</title>
<g id="a_Node000047"><a xlink:title=" ">
<polygon fill="#e0e0e0" stroke="#999999" points="3227.5,-134.5 3064.5,-134.5 3064.5,-115.5 3227.5,-115.5 3227.5,-134.5"/>
<text text-anchor="middle" x="3146" y="-122.5" font-family="FreeSans" font-size="10.00">cantera/transport/MultiTransport.h</text>
</a>
</g>
</g>
<!-- Node45&#45;&gt;Node47 -->
<g id="edge55_Node000045_Node000047" class="edge">
<title>Node45&#45;&gt;Node47</title>
<g id="a_edge55_Node000045_Node000047"><a xlink:title=" ">
<path fill="none" stroke="#63b8ff" d="M2554.73,-182.27C2643.55,-176.95 2868.71,-162.25 3056,-140 3065.44,-138.88 3075.41,-137.51 3085.14,-136.08"/>
<polygon fill="#63b8ff" stroke="#63b8ff" points="3085.79,-139.52 3095.16,-134.56 3084.75,-132.6 3085.79,-139.52"/>
</a>
</g>
</g>
<!-- Node48 -->
<g id="Node000048" class="node">
<title>Node48</title>
<g id="a_Node000048"><a xlink:title=" ">
<polygon fill="#e0e0e0" stroke="#999999" points="3388,-140 3246,-140 3246,-110 3388,-110 3388,-140"/>
<text text-anchor="start" x="3254" y="-128" font-family="FreeSans" font-size="10.00">cantera/transport/UnityLewis</text>
<text text-anchor="middle" x="3317" y="-117" font-family="FreeSans" font-size="10.00">Transport.h</text>
</a>
</g>
</g>
<!-- Node45&#45;&gt;Node48 -->
<g id="edge56_Node000045_Node000048" class="edge">
<title>Node45&#45;&gt;Node48</title>
<g id="a_edge56_Node000045_Node000048"><a xlink:title=" ">
<path fill="none" stroke="#63b8ff" d="M2554.82,-183.63C2661.75,-180.9 2969.68,-170.86 3235.72,-140.05"/>
<polygon fill="#63b8ff" stroke="#63b8ff" points="3236.44,-143.49 3245.96,-138.86 3235.62,-136.54 3236.44,-143.49"/>
</a>
</g>
</g>
<!-- Node49 -->
<g id="Node000049" class="node">
<title>Node49</title>
<g id="a_Node000049"><a xlink:title=" ">
<polygon fill="#e0e0e0" stroke="#999999" points="2289.5,-134.5 2138.5,-134.5 2138.5,-115.5 2289.5,-115.5 2289.5,-134.5"/>
<text text-anchor="middle" x="2214" y="-122.5" font-family="FreeSans" font-size="10.00">cantera/kinetics/BulkKinetics.h</text>
</a>
</g>
</g>
<!-- Node45&#45;&gt;Node49 -->
<g id="edge57_Node000045_Node000049" class="edge">
<title>Node45&#45;&gt;Node49</title>
<g id="a_edge57_Node000045_Node000049"><a xlink:title=" ">
<path fill="none" stroke="#63b8ff" d="M2477.44,-177.03C2424.31,-166.74 2328.31,-148.14 2268.04,-136.47"/>
<polygon fill="#63b8ff" stroke="#63b8ff" points="2268.43,-132.98 2257.95,-134.51 2267.1,-139.85 2268.43,-132.98"/>
</a>
</g>
</g>
<!-- Node50 -->
<g id="Node000050" class="node">
<title>Node50</title>
<g id="a_Node000050"><a xlink:title=" ">
<polygon fill="#e0e0e0" stroke="#999999" points="2434.5,-140 2307.5,-140 2307.5,-110 2434.5,-110 2434.5,-140"/>
<text text-anchor="start" x="2315.5" y="-128" font-family="FreeSans" font-size="10.00">cantera/kinetics/Reaction</text>
<text text-anchor="middle" x="2371" y="-117" font-family="FreeSans" font-size="10.00">Rate.h</text>
</a>
</g>
</g>
<!-- Node45&#45;&gt;Node50 -->
<g id="edge58_Node000045_Node000050" class="edge">
<title>Node45&#45;&gt;Node50</title>
<g id="a_edge58_Node000045_Node000050"><a xlink:title=" ">
<path fill="none" stroke="#63b8ff" d="M2494.92,-175.99C2474.14,-167.61 2441.76,-154.55 2415.3,-143.87"/>
<polygon fill="#63b8ff" stroke="#63b8ff" points="2416.44,-140.56 2405.86,-140.06 2413.82,-147.05 2416.44,-140.56"/>
</a>
</g>
</g>
<!-- Node51 -->
<g id="Node000051" class="node">
<title>Node51</title>
<g id="a_Node000051"><a xlink:title=" ">
<polygon fill="#e0e0e0" stroke="#999999" points="2579.5,-140 2452.5,-140 2452.5,-110 2579.5,-110 2579.5,-140"/>
<text text-anchor="start" x="2460.5" y="-128" font-family="FreeSans" font-size="10.00">cantera/kinetics/Reaction</text>
<text text-anchor="middle" x="2516" y="-117" font-family="FreeSans" font-size="10.00">Data.h</text>
</a>
</g>
</g>
<!-- Node45&#45;&gt;Node51 -->
<g id="edge59_Node000045_Node000051" class="edge">
<title>Node45&#45;&gt;Node51</title>
<g id="a_edge59_Node000045_Node000051"><a xlink:title=" ">
<path fill="none" stroke="#63b8ff" d="M2516,-175.87C2516,-169.11 2516,-159.35 2516,-150.26"/>
<polygon fill="#63b8ff" stroke="#63b8ff" points="2519.5,-150.11 2516,-140.11 2512.5,-150.11 2519.5,-150.11"/>
</a>
</g>
</g>
<!-- Node52 -->
<g id="Node000052" class="node">
<title>Node52</title>
<g id="a_Node000052"><a xlink:title=" ">
<polygon fill="#e0e0e0" stroke="#999999" points="2734.5,-134.5 2597.5,-134.5 2597.5,-115.5 2734.5,-115.5 2734.5,-134.5"/>
<text text-anchor="middle" x="2666" y="-122.5" font-family="FreeSans" font-size="10.00">cantera/kinetics/Arrhenius.h</text>
</a>
</g>
</g>
<!-- Node45&#45;&gt;Node52 -->
<g id="edge60_Node000045_Node000052" class="edge">
<title>Node45&#45;&gt;Node52</title>
<g id="a_edge60_Node000045_Node000052"><a xlink:title=" ">
<path fill="none" stroke="#63b8ff" d="M2537.81,-175.99C2563.25,-166.07 2605.51,-149.59 2634.51,-138.28"/>
<polygon fill="#63b8ff" stroke="#63b8ff" points="2636.12,-141.41 2644.16,-134.52 2633.57,-134.89 2636.12,-141.41"/>
</a>
</g>
</g>
<!-- Node53 -->
<g id="Node000053" class="node">
<title>Node53</title>
<g id="a_Node000053"><a xlink:title=" ">
<polygon fill="#e0e0e0" stroke="#999999" points="2871.5,-134.5 2752.5,-134.5 2752.5,-115.5 2871.5,-115.5 2871.5,-134.5"/>
<text text-anchor="middle" x="2812" y="-122.5" font-family="FreeSans" font-size="10.00">cantera/base/Solution.h</text>
</a>
</g>
</g>
<!-- Node45&#45;&gt;Node53 -->
<g id="edge61_Node000045_Node000053" class="edge">
<title>Node45&#45;&gt;Node53</title>
<g id="a_edge61_Node000045_Node000053"><a xlink:title=" ">
<path fill="none" stroke="#63b8ff" d="M2554.75,-177.06C2600.14,-168.32 2677.57,-153.32 2744,-140 2749.47,-138.9 2755.18,-137.75 2760.86,-136.59"/>
<polygon fill="#63b8ff" stroke="#63b8ff" points="2761.93,-139.94 2771.02,-134.51 2760.52,-133.08 2761.93,-139.94"/>
</a>
</g>
</g>
<!-- Node54&#45;&gt;Node3 -->
<g id="edge63_Node000054_Node000003" class="edge">
<title>Node54&#45;&gt;Node3</title>
<g id="a_edge63_Node000054_Node000003"><a xlink:title=" ">
<path fill="none" stroke="#63b8ff" d="M257.17,-230.95C252.85,-218.43 243.94,-194.58 233,-176 225.99,-164.09 216.47,-151.83 208.59,-142.44"/>
<polygon fill="#63b8ff" stroke="#63b8ff" points="211.12,-140 201.94,-134.7 205.81,-144.57 211.12,-140"/>
</a>
</g>
</g>
</g>
</svg>
