<?xml version="1.0" encoding="UTF-8" standalone="no"?>
<!DOCTYPE svg PUBLIC "-//W3C//DTD SVG 1.1//EN"
 "http://www.w3.org/Graphics/SVG/1.1/DTD/svg11.dtd">
<!-- Generated by graphviz version 2.38.0 (20140413.2041)
 -->
<!-- Title: src/sourceSystem.h Pages: 1 -->
<svg width="1788pt" height="252pt"
 viewBox="0.00 0.00 1787.50 252.00" xmlns="http://www.w3.org/2000/svg" xmlns:xlink="http://www.w3.org/1999/xlink">
<g id="graph0" class="graph" transform="scale(1 1) rotate(0) translate(4 248)">
<title>src/sourceSystem.h</title>
<polygon fill="white" stroke="none" points="-4,4 -4,-248 1783.5,-248 1783.5,4 -4,4"/>
<!-- Node1 -->
<g id="node1" class="node"><title>Node1</title>
<polygon fill="#bfbfbf" stroke="black" points="1455,-224.5 1455,-243.5 1556,-243.5 1556,-224.5 1455,-224.5"/>
<text text-anchor="middle" x="1505.5" y="-231.5" font-family="FreeSans" font-size="10.00">src/sourceSystem.h</text>
</g>
<!-- Node2 -->
<g id="node2" class="node"><title>Node2</title>
<g id="a_node2"><a xlink:href="mathUtils_8h.html" target="_top" xlink:title="mathUtils.h">
<polygon fill="white" stroke="black" points="1448,-112.5 1448,-131.5 1513,-131.5 1513,-112.5 1448,-112.5"/>
<text text-anchor="middle" x="1480.5" y="-119.5" font-family="FreeSans" font-size="10.00">mathUtils.h</text>
</a>
</g>
</g>
<!-- Node1&#45;&gt;Node2 -->
<g id="edge1" class="edge"><title>Node1&#45;&gt;Node2</title>
<path fill="none" stroke="midnightblue" d="M1466.65,-224.364C1447.12,-217.847 1425.17,-206.704 1413.5,-188 1400.4,-167.002 1426.77,-147.924 1450.19,-135.948"/>
<polygon fill="midnightblue" stroke="midnightblue" points="1451.78,-139.069 1459.26,-131.567 1448.73,-132.766 1451.78,-139.069"/>
</g>
<!-- Node14 -->
<g id="node14" class="node"><title>Node14</title>
<g id="a_node14"><a xlink:href="sundialsUtils_8h.html" target="_top" xlink:title="sundialsUtils.h">
<polygon fill="white" stroke="black" points="682,-112.5 682,-131.5 759,-131.5 759,-112.5 682,-112.5"/>
<text text-anchor="middle" x="720.5" y="-119.5" font-family="FreeSans" font-size="10.00">sundialsUtils.h</text>
</a>
</g>
</g>
<!-- Node1&#45;&gt;Node14 -->
<g id="edge15" class="edge"><title>Node1&#45;&gt;Node14</title>
<path fill="none" stroke="midnightblue" d="M1454.9,-225.91C1312.49,-205.954 909.554,-149.492 769.331,-129.842"/>
<polygon fill="midnightblue" stroke="midnightblue" points="769.694,-126.359 759.305,-128.438 768.723,-133.292 769.694,-126.359"/>
</g>
<!-- Node26 -->
<g id="node26" class="node"><title>Node26</title>
<g id="a_node26"><a xlink:href="qssintegrator_8h.html" target="_top" xlink:title="qssintegrator.h">
<polygon fill="white" stroke="black" points="1423,-168.5 1423,-187.5 1502,-187.5 1502,-168.5 1423,-168.5"/>
<text text-anchor="middle" x="1462.5" y="-175.5" font-family="FreeSans" font-size="10.00">qssintegrator.h</text>
</a>
</g>
</g>
<!-- Node1&#45;&gt;Node26 -->
<g id="edge29" class="edge"><title>Node1&#45;&gt;Node26</title>
<path fill="none" stroke="midnightblue" d="M1498.4,-224.083C1492.26,-216.377 1483.23,-205.033 1475.76,-195.653"/>
<polygon fill="midnightblue" stroke="midnightblue" points="1478.44,-193.394 1469.47,-187.751 1472.96,-197.754 1478.44,-193.394"/>
</g>
<!-- Node27 -->
<g id="node27" class="node"><title>Node27</title>
<g id="a_node27"><a xlink:href="quasi2d_8h.html" target="_top" xlink:title="quasi2d.h">
<polygon fill="white" stroke="black" points="1520,-168.5 1520,-187.5 1577,-187.5 1577,-168.5 1520,-168.5"/>
<text text-anchor="middle" x="1548.5" y="-175.5" font-family="FreeSans" font-size="10.00">quasi2d.h</text>
</a>
</g>
</g>
<!-- Node1&#45;&gt;Node27 -->
<g id="edge31" class="edge"><title>Node1&#45;&gt;Node27</title>
<path fill="none" stroke="midnightblue" d="M1512.6,-224.083C1518.74,-216.377 1527.77,-205.033 1535.24,-195.653"/>
<polygon fill="midnightblue" stroke="midnightblue" points="1538.04,-197.754 1541.53,-187.751 1532.56,-193.394 1538.04,-197.754"/>
</g>
<!-- Node28 -->
<g id="node28" class="node"><title>Node28</title>
<g id="a_node28"><a xlink:href="callback_8h.html" target="_top" xlink:title="callback.h">
<polygon fill="white" stroke="black" points="1595.5,-168.5 1595.5,-187.5 1655.5,-187.5 1655.5,-168.5 1595.5,-168.5"/>
<text text-anchor="middle" x="1625.5" y="-175.5" font-family="FreeSans" font-size="10.00">callback.h</text>
</a>
</g>
</g>
<!-- Node1&#45;&gt;Node28 -->
<g id="edge34" class="edge"><title>Node1&#45;&gt;Node28</title>
<path fill="none" stroke="midnightblue" d="M1524.51,-224.444C1544.09,-215.636 1574.81,-201.812 1597.23,-191.722"/>
<polygon fill="midnightblue" stroke="midnightblue" points="1598.89,-194.812 1606.57,-187.516 1596.02,-188.428 1598.89,-194.812"/>
</g>
<!-- Node30 -->
<g id="node30" class="node"><title>Node30</title>
<polygon fill="white" stroke="#bfbfbf" points="1673.5,-168.5 1673.5,-187.5 1779.5,-187.5 1779.5,-168.5 1673.5,-168.5"/>
<text text-anchor="middle" x="1726.5" y="-175.5" font-family="FreeSans" font-size="10.00">boost/shared_ptr.hpp</text>
</g>
<!-- Node1&#45;&gt;Node30 -->
<g id="edge37" class="edge"><title>Node1&#45;&gt;Node30</title>
<path fill="none" stroke="midnightblue" d="M1540.52,-224.444C1578.75,-215.102 1640.07,-200.119 1681.76,-189.933"/>
<polygon fill="midnightblue" stroke="midnightblue" points="1682.76,-193.29 1691.65,-187.516 1681.1,-186.49 1682.76,-193.29"/>
</g>
<!-- Node3 -->
<g id="node3" class="node"><title>Node3</title>
<polygon fill="white" stroke="#bfbfbf" points="1255,-56.5 1255,-75.5 1298,-75.5 1298,-56.5 1255,-56.5"/>
<text text-anchor="middle" x="1276.5" y="-63.5" font-family="FreeSans" font-size="10.00">vector</text>
</g>
<!-- Node2&#45;&gt;Node3 -->
<g id="edge2" class="edge"><title>Node2&#45;&gt;Node3</title>
<path fill="none" stroke="midnightblue" d="M1448.18,-112.444C1409.77,-102.277 1346.11,-85.4272 1308.05,-75.3514"/>
<polygon fill="midnightblue" stroke="midnightblue" points="1308.6,-71.8759 1298.03,-72.7003 1306.81,-78.6428 1308.6,-71.8759"/>
</g>
<!-- Node4 -->
<g id="node4" class="node"><title>Node4</title>
<polygon fill="white" stroke="#bfbfbf" points="1354.5,-56.5 1354.5,-75.5 1398.5,-75.5 1398.5,-56.5 1354.5,-56.5"/>
<text text-anchor="middle" x="1376.5" y="-63.5" font-family="FreeSans" font-size="10.00">cmath</text>
</g>
<!-- Node2&#45;&gt;Node4 -->
<g id="edge3" class="edge"><title>Node2&#45;&gt;Node4</title>
<path fill="none" stroke="midnightblue" d="M1463.79,-112.324C1447.19,-103.703 1421.5,-90.3643 1402.28,-80.3855"/>
<polygon fill="midnightblue" stroke="midnightblue" points="1403.66,-77.1565 1393.17,-75.6545 1400.43,-83.3689 1403.66,-77.1565"/>
</g>
<!-- Node5 -->
<g id="node5" class="node"><title>Node5</title>
<polygon fill="white" stroke="#bfbfbf" points="1300,-0.5 1300,-19.5 1353,-19.5 1353,-0.5 1300,-0.5"/>
<text text-anchor="middle" x="1326.5" y="-7.5" font-family="FreeSans" font-size="10.00">iostream</text>
</g>
<!-- Node2&#45;&gt;Node5 -->
<g id="edge4" class="edge"><title>Node2&#45;&gt;Node5</title>
<path fill="none" stroke="midnightblue" d="M1447.91,-118.587C1417.37,-114.598 1372.5,-104.023 1345.5,-76 1333.66,-63.7066 1329.14,-44.4503 1327.44,-30.0831"/>
<polygon fill="midnightblue" stroke="midnightblue" points="1330.91,-29.5163 1326.6,-19.8355 1323.93,-30.0879 1330.91,-29.5163"/>
</g>
<!-- Node6 -->
<g id="node6" class="node"><title>Node6</title>
<polygon fill="white" stroke="#bfbfbf" points="1416.5,-56.5 1416.5,-75.5 1466.5,-75.5 1466.5,-56.5 1416.5,-56.5"/>
<text text-anchor="middle" x="1441.5" y="-63.5" font-family="FreeSans" font-size="10.00">sstream</text>
</g>
<!-- Node2&#45;&gt;Node6 -->
<g id="edge5" class="edge"><title>Node2&#45;&gt;Node6</title>
<path fill="none" stroke="midnightblue" d="M1474.06,-112.083C1468.55,-104.455 1460.47,-93.2645 1453.74,-83.9408"/>
<polygon fill="midnightblue" stroke="midnightblue" points="1456.51,-81.8087 1447.82,-75.7511 1450.84,-85.9071 1456.51,-81.8087"/>
</g>
<!-- Node7 -->
<g id="node7" class="node"><title>Node7</title>
<polygon fill="white" stroke="#bfbfbf" points="1671.5,-0.5 1671.5,-19.5 1711.5,-19.5 1711.5,-0.5 1671.5,-0.5"/>
<text text-anchor="middle" x="1691.5" y="-7.5" font-family="FreeSans" font-size="10.00">string</text>
</g>
<!-- Node2&#45;&gt;Node7 -->
<g id="edge6" class="edge"><title>Node2&#45;&gt;Node7</title>
<path fill="none" stroke="midnightblue" d="M1513.2,-119.54C1550.1,-116.387 1610.33,-106.543 1651.5,-76 1667.43,-64.1846 1678.4,-43.9666 1684.77,-29.2101"/>
<polygon fill="midnightblue" stroke="midnightblue" points="1688.14,-30.2133 1688.6,-19.6285 1681.64,-27.6155 1688.14,-30.2133"/>
</g>
<!-- Node8 -->
<g id="node8" class="node"><title>Node8</title>
<polygon fill="white" stroke="#bfbfbf" points="1700,-56.5 1700,-75.5 1735,-75.5 1735,-56.5 1700,-56.5"/>
<text text-anchor="middle" x="1717.5" y="-63.5" font-family="FreeSans" font-size="10.00">map</text>
</g>
<!-- Node2&#45;&gt;Node8 -->
<g id="edge7" class="edge"><title>Node2&#45;&gt;Node8</title>
<path fill="none" stroke="midnightblue" d="M1513.3,-114.412C1553.89,-106.119 1625.05,-91.1209 1685.5,-76 1686.97,-75.6324 1688.47,-75.2455 1689.99,-74.8472"/>
<polygon fill="midnightblue" stroke="midnightblue" points="1691.22,-78.1414 1699.94,-72.1357 1689.38,-71.3875 1691.22,-78.1414"/>
</g>
<!-- Node9 -->
<g id="node9" class="node"><title>Node9</title>
<g id="a_node9"><a xlink:href="debugUtils_8h.html" target="_top" xlink:title="debugUtils.h">
<polygon fill="white" stroke="black" points="1574,-56.5 1574,-75.5 1643,-75.5 1643,-56.5 1574,-56.5"/>
<text text-anchor="middle" x="1608.5" y="-63.5" font-family="FreeSans" font-size="10.00">debugUtils.h</text>
</a>
</g>
</g>
<!-- Node2&#45;&gt;Node9 -->
<g id="edge8" class="edge"><title>Node2&#45;&gt;Node9</title>
<path fill="none" stroke="midnightblue" d="M1500.78,-112.444C1521.85,-103.557 1555.02,-89.5632 1578.99,-79.4514"/>
<polygon fill="midnightblue" stroke="midnightblue" points="1580.46,-82.6283 1588.31,-75.5164 1577.74,-76.1787 1580.46,-82.6283"/>
</g>
<!-- Node13 -->
<g id="node13" class="node"><title>Node13</title>
<polygon fill="white" stroke="#bfbfbf" points="1485,-56.5 1485,-75.5 1556,-75.5 1556,-56.5 1485,-56.5"/>
<text text-anchor="middle" x="1520.5" y="-63.5" font-family="FreeSans" font-size="10.00">Eigen/Dense</text>
</g>
<!-- Node2&#45;&gt;Node13 -->
<g id="edge14" class="edge"><title>Node2&#45;&gt;Node13</title>
<path fill="none" stroke="midnightblue" d="M1487.11,-112.083C1492.76,-104.455 1501.04,-93.2645 1507.95,-83.9408"/>
<polygon fill="midnightblue" stroke="midnightblue" points="1510.88,-85.87 1514.02,-75.7511 1505.25,-81.7034 1510.88,-85.87"/>
</g>
<!-- Node9&#45;&gt;Node5 -->
<g id="edge10" class="edge"><title>Node9&#45;&gt;Node5</title>
<path fill="none" stroke="midnightblue" d="M1573.92,-57.8767C1570.74,-57.236 1567.56,-56.6022 1564.5,-56 1493.34,-41.9966 1410.05,-26.4384 1363.26,-17.7753"/>
<polygon fill="midnightblue" stroke="midnightblue" points="1363.76,-14.3088 1353.29,-15.9317 1362.49,-21.1921 1363.76,-14.3088"/>
</g>
<!-- Node9&#45;&gt;Node7 -->
<g id="edge9" class="edge"><title>Node9&#45;&gt;Node7</title>
<path fill="none" stroke="midnightblue" d="M1621.84,-56.324C1634.66,-47.979 1654.28,-35.2122 1669.44,-25.3524"/>
<polygon fill="midnightblue" stroke="midnightblue" points="1671.72,-28.0417 1678.2,-19.6545 1667.91,-22.1742 1671.72,-28.0417"/>
</g>
<!-- Node10 -->
<g id="node10" class="node"><title>Node10</title>
<polygon fill="white" stroke="#bfbfbf" points="1421,-0.5 1421,-19.5 1470,-19.5 1470,-0.5 1421,-0.5"/>
<text text-anchor="middle" x="1445.5" y="-7.5" font-family="FreeSans" font-size="10.00">fstream</text>
</g>
<!-- Node9&#45;&gt;Node10 -->
<g id="edge11" class="edge"><title>Node9&#45;&gt;Node10</title>
<path fill="none" stroke="midnightblue" d="M1582.67,-56.4435C1554.93,-47.2522 1510.7,-32.5987 1479.99,-22.4265"/>
<polygon fill="midnightblue" stroke="midnightblue" points="1480.73,-18.9854 1470.14,-19.1629 1478.53,-25.6302 1480.73,-18.9854"/>
</g>
<!-- Node11 -->
<g id="node11" class="node"><title>Node11</title>
<polygon fill="white" stroke="#bfbfbf" points="1488.5,-0.5 1488.5,-19.5 1546.5,-19.5 1546.5,-0.5 1488.5,-0.5"/>
<text text-anchor="middle" x="1517.5" y="-7.5" font-family="FreeSans" font-size="10.00">exception</text>
</g>
<!-- Node9&#45;&gt;Node11 -->
<g id="edge12" class="edge"><title>Node9&#45;&gt;Node11</title>
<path fill="none" stroke="midnightblue" d="M1593.88,-56.324C1579.55,-47.8215 1557.49,-34.7288 1540.75,-24.7975"/>
<polygon fill="midnightblue" stroke="midnightblue" points="1542.47,-21.7478 1532.08,-19.6545 1538.9,-27.7677 1542.47,-21.7478"/>
</g>
<!-- Node12 -->
<g id="node12" class="node"><title>Node12</title>
<polygon fill="white" stroke="#bfbfbf" points="1564,-0.5 1564,-19.5 1653,-19.5 1653,-0.5 1564,-0.5"/>
<text text-anchor="middle" x="1608.5" y="-7.5" font-family="FreeSans" font-size="10.00">boost/format.hpp</text>
</g>
<!-- Node9&#45;&gt;Node12 -->
<g id="edge13" class="edge"><title>Node9&#45;&gt;Node12</title>
<path fill="none" stroke="midnightblue" d="M1608.5,-56.083C1608.5,-49.0059 1608.5,-38.8611 1608.5,-29.9865"/>
<polygon fill="midnightblue" stroke="midnightblue" points="1612,-29.751 1608.5,-19.7511 1605,-29.7511 1612,-29.751"/>
</g>
<!-- Node14&#45;&gt;Node3 -->
<g id="edge26" class="edge"><title>Node14&#45;&gt;Node3</title>
<path fill="none" stroke="midnightblue" d="M759.252,-119.748C845.998,-116.487 1062.2,-105.809 1240.5,-76 1241.97,-75.7543 1243.47,-75.4796 1244.98,-75.1831"/>
<polygon fill="midnightblue" stroke="midnightblue" points="1245.91,-78.5622 1254.91,-72.9867 1244.4,-71.7271 1245.91,-78.5622"/>
</g>
<!-- Node14&#45;&gt;Node5 -->
<g id="edge25" class="edge"><title>Node14&#45;&gt;Node5</title>
<path fill="none" stroke="midnightblue" d="M759.039,-119.456C858.838,-115.138 1123.75,-101.545 1207.5,-76 1212.52,-74.4686 1268.33,-43.5085 1301.7,-24.8775"/>
<polygon fill="midnightblue" stroke="midnightblue" points="1303.84,-27.6938 1310.86,-19.7607 1300.43,-21.583 1303.84,-27.6938"/>
</g>
<!-- Node15 -->
<g id="node15" class="node"><title>Node15</title>
<polygon fill="white" stroke="#bfbfbf" points="306.5,-56.5 306.5,-75.5 424.5,-75.5 424.5,-56.5 306.5,-56.5"/>
<text text-anchor="middle" x="365.5" y="-63.5" font-family="FreeSans" font-size="10.00">nvector/nvector_serial.h</text>
</g>
<!-- Node14&#45;&gt;Node15 -->
<g id="edge16" class="edge"><title>Node14&#45;&gt;Node15</title>
<path fill="none" stroke="midnightblue" d="M681.833,-115.118C621.762,-105.981 505.29,-88.2639 431.67,-77.0653"/>
<polygon fill="midnightblue" stroke="midnightblue" points="431.989,-73.5736 421.576,-75.5299 430.936,-80.494 431.989,-73.5736"/>
</g>
<!-- Node16 -->
<g id="node16" class="node"><title>Node16</title>
<polygon fill="white" stroke="#bfbfbf" points="443,-56.5 443,-75.5 570,-75.5 570,-56.5 443,-56.5"/>
<text text-anchor="middle" x="506.5" y="-63.5" font-family="FreeSans" font-size="10.00">sundials/sundials_dense.h</text>
</g>
<!-- Node14&#45;&gt;Node16 -->
<g id="edge17" class="edge"><title>Node14&#45;&gt;Node16</title>
<path fill="none" stroke="midnightblue" d="M686.591,-112.444C649.651,-103.122 590.446,-88.1828 550.082,-77.9972"/>
<polygon fill="midnightblue" stroke="midnightblue" points="550.803,-74.5695 540.25,-75.5164 549.09,-81.3568 550.803,-74.5695"/>
</g>
<!-- Node17 -->
<g id="node17" class="node"><title>Node17</title>
<polygon fill="white" stroke="#bfbfbf" points="588.5,-56.5 588.5,-75.5 710.5,-75.5 710.5,-56.5 588.5,-56.5"/>
<text text-anchor="middle" x="649.5" y="-63.5" font-family="FreeSans" font-size="10.00">sundials/sundials_band.h</text>
</g>
<!-- Node14&#45;&gt;Node17 -->
<g id="edge18" class="edge"><title>Node14&#45;&gt;Node17</title>
<path fill="none" stroke="midnightblue" d="M709.093,-112.324C698.391,-104.185 682.159,-91.8395 669.337,-82.0874"/>
<polygon fill="midnightblue" stroke="midnightblue" points="671.193,-79.1018 661.115,-75.8339 666.956,-84.6734 671.193,-79.1018"/>
</g>
<!-- Node18 -->
<g id="node18" class="node"><title>Node18</title>
<polygon fill="white" stroke="#bfbfbf" points="728.5,-56.5 728.5,-75.5 852.5,-75.5 852.5,-56.5 728.5,-56.5"/>
<text text-anchor="middle" x="790.5" y="-63.5" font-family="FreeSans" font-size="10.00">sundials/sundials_types.h</text>
</g>
<!-- Node14&#45;&gt;Node18 -->
<g id="edge19" class="edge"><title>Node14&#45;&gt;Node18</title>
<path fill="none" stroke="midnightblue" d="M731.747,-112.324C742.297,-104.185 758.301,-91.8395 770.942,-82.0874"/>
<polygon fill="midnightblue" stroke="midnightblue" points="773.269,-84.7132 779.049,-75.8339 768.993,-79.1707 773.269,-84.7132"/>
</g>
<!-- Node19 -->
<g id="node19" class="node"><title>Node19</title>
<polygon fill="white" stroke="#bfbfbf" points="870.5,-56.5 870.5,-75.5 948.5,-75.5 948.5,-56.5 870.5,-56.5"/>
<text text-anchor="middle" x="909.5" y="-63.5" font-family="FreeSans" font-size="10.00">cvode/cvode.h</text>
</g>
<!-- Node14&#45;&gt;Node19 -->
<g id="edge20" class="edge"><title>Node14&#45;&gt;Node19</title>
<path fill="none" stroke="midnightblue" d="M750.448,-112.444C782.658,-103.241 834.034,-88.5617 869.642,-78.3879"/>
<polygon fill="midnightblue" stroke="midnightblue" points="871.039,-81.629 879.692,-75.5164 869.116,-74.8984 871.039,-81.629"/>
</g>
<!-- Node20 -->
<g id="node20" class="node"><title>Node20</title>
<polygon fill="white" stroke="#bfbfbf" points="967,-56.5 967,-75.5 1076,-75.5 1076,-56.5 967,-56.5"/>
<text text-anchor="middle" x="1021.5" y="-63.5" font-family="FreeSans" font-size="10.00">cvode/cvode_dense.h</text>
</g>
<!-- Node14&#45;&gt;Node20 -->
<g id="edge21" class="edge"><title>Node14&#45;&gt;Node20</title>
<path fill="none" stroke="midnightblue" d="M759.234,-114.051C811.168,-104.734 903.778,-88.1195 963.901,-77.3334"/>
<polygon fill="midnightblue" stroke="midnightblue" points="964.77,-80.7334 973.995,-75.5225 963.534,-73.8434 964.77,-80.7334"/>
</g>
<!-- Node21 -->
<g id="node21" class="node"><title>Node21</title>
<polygon fill="white" stroke="#bfbfbf" points="1094.5,-56.5 1094.5,-75.5 1198.5,-75.5 1198.5,-56.5 1094.5,-56.5"/>
<text text-anchor="middle" x="1146.5" y="-63.5" font-family="FreeSans" font-size="10.00">cvode/cvode_band.h</text>
</g>
<!-- Node14&#45;&gt;Node21 -->
<g id="edge22" class="edge"><title>Node14&#45;&gt;Node21</title>
<path fill="none" stroke="midnightblue" d="M759.056,-116.505C825.537,-108.694 966.014,-91.9219 1084.5,-76 1084.6,-75.9864 1084.7,-75.9728 1084.8,-75.9592"/>
<polygon fill="midnightblue" stroke="midnightblue" points="1084.98,-79.4673 1094.42,-74.6421 1084.03,-72.5321 1084.98,-79.4673"/>
</g>
<!-- Node22 -->
<g id="node22" class="node"><title>Node22</title>
<polygon fill="white" stroke="#bfbfbf" points="0,-56.5 0,-75.5 53,-75.5 53,-56.5 0,-56.5"/>
<text text-anchor="middle" x="26.5" y="-63.5" font-family="FreeSans" font-size="10.00">ida/ida.h</text>
</g>
<!-- Node14&#45;&gt;Node22 -->
<g id="edge23" class="edge"><title>Node14&#45;&gt;Node22</title>
<path fill="none" stroke="midnightblue" d="M681.965,-120.83C581.403,-119.863 302.76,-113.835 63.09,-75.9818"/>
<polygon fill="midnightblue" stroke="midnightblue" points="63.5742,-72.5148 53.1465,-74.3893 62.4672,-79.4267 63.5742,-72.5148"/>
</g>
<!-- Node23 -->
<g id="node23" class="node"><title>Node23</title>
<polygon fill="white" stroke="#bfbfbf" points="70.5,-56.5 70.5,-75.5 158.5,-75.5 158.5,-56.5 70.5,-56.5"/>
<text text-anchor="middle" x="114.5" y="-63.5" font-family="FreeSans" font-size="10.00">ida/ida_spbcgs.h</text>
</g>
<!-- Node14&#45;&gt;Node23 -->
<g id="edge24" class="edge"><title>Node14&#45;&gt;Node23</title>
<path fill="none" stroke="midnightblue" d="M681.831,-119.014C593.029,-114.205 367.501,-100.574 168.746,-76.0533"/>
<polygon fill="midnightblue" stroke="midnightblue" points="169.06,-72.5654 158.704,-74.8021 168.194,-79.5117 169.06,-72.5654"/>
</g>
<!-- Node24 -->
<g id="node24" class="node"><title>Node24</title>
<polygon fill="white" stroke="#bfbfbf" points="177,-56.5 177,-75.5 220,-75.5 220,-56.5 177,-56.5"/>
<text text-anchor="middle" x="198.5" y="-63.5" font-family="FreeSans" font-size="10.00">time.h</text>
</g>
<!-- Node14&#45;&gt;Node24 -->
<g id="edge27" class="edge"><title>Node14&#45;&gt;Node24</title>
<path fill="none" stroke="midnightblue" d="M681.955,-119.969C600.266,-117.248 403.709,-107.872 230.134,-75.7262"/>
<polygon fill="midnightblue" stroke="midnightblue" points="230.527,-72.2388 220.052,-73.8282 229.232,-79.118 230.527,-72.2388"/>
</g>
<!-- Node25 -->
<g id="node25" class="node"><title>Node25</title>
<g id="a_node25"><a xlink:href="config_8h.html" target="_top" xlink:title="config.h">
<polygon fill="white" stroke="black" points="238.5,-56.5 238.5,-75.5 288.5,-75.5 288.5,-56.5 238.5,-56.5"/>
<text text-anchor="middle" x="263.5" y="-63.5" font-family="FreeSans" font-size="10.00">config.h</text>
</a>
</g>
</g>
<!-- Node14&#45;&gt;Node25 -->
<g id="edge28" class="edge"><title>Node14&#45;&gt;Node25</title>
<path fill="none" stroke="midnightblue" d="M681.722,-118.862C608.593,-114.403 445.225,-102.406 298.724,-75.9624"/>
<polygon fill="midnightblue" stroke="midnightblue" points="299.121,-72.4769 288.654,-74.1167 297.859,-79.3622 299.121,-72.4769"/>
</g>
<!-- Node26&#45;&gt;Node2 -->
<g id="edge30" class="edge"><title>Node26&#45;&gt;Node2</title>
<path fill="none" stroke="midnightblue" d="M1465.47,-168.083C1467.88,-160.849 1471.36,-150.409 1474.37,-141.397"/>
<polygon fill="midnightblue" stroke="midnightblue" points="1477.74,-142.345 1477.58,-131.751 1471.1,-140.131 1477.74,-142.345"/>
</g>
<!-- Node27&#45;&gt;Node2 -->
<g id="edge32" class="edge"><title>Node27&#45;&gt;Node2</title>
<path fill="none" stroke="midnightblue" d="M1537.57,-168.324C1527.33,-160.185 1511.78,-147.839 1499.5,-138.087"/>
<polygon fill="midnightblue" stroke="midnightblue" points="1501.63,-135.312 1491.62,-131.834 1497.28,-140.794 1501.63,-135.312"/>
</g>
<!-- Node27&#45;&gt;Node8 -->
<g id="edge33" class="edge"><title>Node27&#45;&gt;Node8</title>
<path fill="none" stroke="midnightblue" d="M1551.56,-168.089C1556.78,-154.163 1568.7,-127.26 1587.5,-112 1595.69,-105.356 1654.42,-86.4695 1690.09,-75.3892"/>
<polygon fill="midnightblue" stroke="midnightblue" points="1691.38,-78.6524 1699.9,-72.3554 1689.31,-71.9646 1691.38,-78.6524"/>
</g>
<!-- Node28&#45;&gt;Node2 -->
<g id="edge36" class="edge"><title>Node28&#45;&gt;Node2</title>
<path fill="none" stroke="midnightblue" d="M1602.52,-168.444C1578.34,-159.438 1540.08,-145.189 1512.85,-135.049"/>
<polygon fill="midnightblue" stroke="midnightblue" points="1513.96,-131.727 1503.37,-131.516 1511.52,-138.286 1513.96,-131.727"/>
</g>
<!-- Node29 -->
<g id="node29" class="node"><title>Node29</title>
<polygon fill="white" stroke="#bfbfbf" points="1596.5,-112.5 1596.5,-131.5 1654.5,-131.5 1654.5,-112.5 1596.5,-112.5"/>
<text text-anchor="middle" x="1625.5" y="-119.5" font-family="FreeSans" font-size="10.00">stdexcept</text>
</g>
<!-- Node28&#45;&gt;Node29 -->
<g id="edge35" class="edge"><title>Node28&#45;&gt;Node29</title>
<path fill="none" stroke="midnightblue" d="M1625.5,-168.083C1625.5,-161.006 1625.5,-150.861 1625.5,-141.986"/>
<polygon fill="midnightblue" stroke="midnightblue" points="1629,-141.751 1625.5,-131.751 1622,-141.751 1629,-141.751"/>
</g>
</g>
</svg>
