<?xml version="1.0" encoding="UTF-8" standalone="no"?>
<!DOCTYPE svg PUBLIC "-//W3C//DTD SVG 1.1//EN"
 "http://www.w3.org/Graphics/SVG/1.1/DTD/svg11.dtd">
<!-- Generated by graphviz version 2.38.0 (20140413.2041)
 -->
<!-- Title: src/splitSolver.h Pages: 1 -->
<svg width="823pt" height="252pt"
 viewBox="0.00 0.00 823.00 252.00" xmlns="http://www.w3.org/2000/svg" xmlns:xlink="http://www.w3.org/1999/xlink">
<g id="graph0" class="graph" transform="scale(1 1) rotate(0) translate(4 248)">
<title>src/splitSolver.h</title>
<polygon fill="white" stroke="none" points="-4,4 -4,-248 819,-248 819,4 -4,4"/>
<!-- Node1 -->
<g id="node1" class="node"><title>Node1</title>
<polygon fill="#bfbfbf" stroke="black" points="247.5,-224.5 247.5,-243.5 331.5,-243.5 331.5,-224.5 247.5,-224.5"/>
<text text-anchor="middle" x="289.5" y="-231.5" font-family="FreeSans" font-size="10.00">src/splitSolver.h</text>
</g>
<!-- Node2 -->
<g id="node2" class="node"><title>Node2</title>
<g id="a_node2"><a xlink:href="mathUtils_8h.html" target="_top" xlink:title="mathUtils.h">
<polygon fill="white" stroke="black" points="423,-112.5 423,-131.5 488,-131.5 488,-112.5 423,-112.5"/>
<text text-anchor="middle" x="455.5" y="-119.5" font-family="FreeSans" font-size="10.00">mathUtils.h</text>
</a>
</g>
</g>
<!-- Node1&#45;&gt;Node2 -->
<g id="edge1" class="edge"><title>Node1&#45;&gt;Node2</title>
<path fill="none" stroke="midnightblue" d="M302.526,-224.368C331.011,-205.492 399.083,-160.385 434.016,-137.237"/>
<polygon fill="midnightblue" stroke="midnightblue" points="436.132,-140.033 442.535,-131.591 432.265,-134.198 436.132,-140.033"/>
</g>
<!-- Node14 -->
<g id="node14" class="node"><title>Node14</title>
<g id="a_node14"><a xlink:href="perfTimer_8h.html" target="_top" xlink:title="perfTimer.h">
<polygon fill="white" stroke="black" points="155,-168.5 155,-187.5 220,-187.5 220,-168.5 155,-168.5"/>
<text text-anchor="middle" x="187.5" y="-175.5" font-family="FreeSans" font-size="10.00">perfTimer.h</text>
</a>
</g>
</g>
<!-- Node1&#45;&gt;Node14 -->
<g id="edge15" class="edge"><title>Node1&#45;&gt;Node14</title>
<path fill="none" stroke="midnightblue" d="M273.112,-224.324C256.829,-215.703 231.633,-202.364 212.784,-192.386"/>
<polygon fill="midnightblue" stroke="midnightblue" points="214.323,-189.24 203.847,-187.655 211.048,-195.427 214.323,-189.24"/>
</g>
<!-- Node20 -->
<g id="node20" class="node"><title>Node20</title>
<g id="a_node20"><a xlink:href="readConfig_8h.html" target="_top" xlink:title="readConfig.h">
<polygon fill="white" stroke="black" points="254.5,-168.5 254.5,-187.5 324.5,-187.5 324.5,-168.5 254.5,-168.5"/>
<text text-anchor="middle" x="289.5" y="-175.5" font-family="FreeSans" font-size="10.00">readConfig.h</text>
</a>
</g>
</g>
<!-- Node1&#45;&gt;Node20 -->
<g id="edge21" class="edge"><title>Node1&#45;&gt;Node20</title>
<path fill="none" stroke="midnightblue" d="M289.5,-224.083C289.5,-217.006 289.5,-206.861 289.5,-197.986"/>
<polygon fill="midnightblue" stroke="midnightblue" points="293,-197.751 289.5,-187.751 286,-197.751 293,-197.751"/>
</g>
<!-- Node3 -->
<g id="node3" class="node"><title>Node3</title>
<polygon fill="white" stroke="#bfbfbf" points="541,-56.5 541,-75.5 584,-75.5 584,-56.5 541,-56.5"/>
<text text-anchor="middle" x="562.5" y="-63.5" font-family="FreeSans" font-size="10.00">vector</text>
</g>
<!-- Node2&#45;&gt;Node3 -->
<g id="edge2" class="edge"><title>Node2&#45;&gt;Node3</title>
<path fill="none" stroke="midnightblue" d="M472.691,-112.324C489.851,-103.664 516.446,-90.2424 536.247,-80.249"/>
<polygon fill="midnightblue" stroke="midnightblue" points="538.001,-83.2847 545.351,-75.6545 534.847,-77.0354 538.001,-83.2847"/>
</g>
<!-- Node4 -->
<g id="node4" class="node"><title>Node4</title>
<polygon fill="white" stroke="#bfbfbf" points="602.5,-56.5 602.5,-75.5 646.5,-75.5 646.5,-56.5 602.5,-56.5"/>
<text text-anchor="middle" x="624.5" y="-63.5" font-family="FreeSans" font-size="10.00">cmath</text>
</g>
<!-- Node2&#45;&gt;Node4 -->
<g id="edge3" class="edge"><title>Node2&#45;&gt;Node4</title>
<path fill="none" stroke="midnightblue" d="M482.279,-112.444C512.261,-102.863 560.815,-87.3492 592.702,-77.1604"/>
<polygon fill="midnightblue" stroke="midnightblue" points="593.964,-80.4314 602.424,-74.0537 591.834,-73.7635 593.964,-80.4314"/>
</g>
<!-- Node5 -->
<g id="node5" class="node"><title>Node5</title>
<polygon fill="white" stroke="#bfbfbf" points="762,-0.5 762,-19.5 815,-19.5 815,-0.5 762,-0.5"/>
<text text-anchor="middle" x="788.5" y="-7.5" font-family="FreeSans" font-size="10.00">iostream</text>
</g>
<!-- Node2&#45;&gt;Node5 -->
<g id="edge4" class="edge"><title>Node2&#45;&gt;Node5</title>
<path fill="none" stroke="midnightblue" d="M488.115,-119.118C554.237,-114.792 701.377,-102.416 743.5,-76 761.073,-64.9799 773.58,-44.3188 780.879,-29.24"/>
<polygon fill="midnightblue" stroke="midnightblue" points="784.179,-30.4347 785.097,-19.8797 777.797,-27.5582 784.179,-30.4347"/>
</g>
<!-- Node6 -->
<g id="node6" class="node"><title>Node6</title>
<polygon fill="white" stroke="#bfbfbf" points="291.5,-56.5 291.5,-75.5 341.5,-75.5 341.5,-56.5 291.5,-56.5"/>
<text text-anchor="middle" x="316.5" y="-63.5" font-family="FreeSans" font-size="10.00">sstream</text>
</g>
<!-- Node2&#45;&gt;Node6 -->
<g id="edge5" class="edge"><title>Node2&#45;&gt;Node6</title>
<path fill="none" stroke="midnightblue" d="M433.475,-112.444C410.396,-103.478 373.938,-89.314 347.859,-79.1827"/>
<polygon fill="midnightblue" stroke="midnightblue" points="349.011,-75.8753 338.422,-75.5164 346.476,-82.4002 349.011,-75.8753"/>
</g>
<!-- Node7 -->
<g id="node7" class="node"><title>Node7</title>
<polygon fill="white" stroke="#bfbfbf" points="403.5,-0.5 403.5,-19.5 443.5,-19.5 443.5,-0.5 403.5,-0.5"/>
<text text-anchor="middle" x="423.5" y="-7.5" font-family="FreeSans" font-size="10.00">string</text>
</g>
<!-- Node2&#45;&gt;Node7 -->
<g id="edge6" class="edge"><title>Node2&#45;&gt;Node7</title>
<path fill="none" stroke="midnightblue" d="M452.989,-112.368C447.802,-94.5366 435.804,-53.2953 428.815,-29.2717"/>
<polygon fill="midnightblue" stroke="midnightblue" points="432.153,-28.2157 425.999,-19.5914 425.432,-30.1711 432.153,-28.2157"/>
</g>
<!-- Node8 -->
<g id="node8" class="node"><title>Node8</title>
<polygon fill="white" stroke="#bfbfbf" points="360,-56.5 360,-75.5 395,-75.5 395,-56.5 360,-56.5"/>
<text text-anchor="middle" x="377.5" y="-63.5" font-family="FreeSans" font-size="10.00">map</text>
</g>
<!-- Node2&#45;&gt;Node8 -->
<g id="edge7" class="edge"><title>Node2&#45;&gt;Node8</title>
<path fill="none" stroke="midnightblue" d="M442.968,-112.324C430.914,-103.979 412.473,-91.2122 398.231,-81.3524"/>
<polygon fill="midnightblue" stroke="midnightblue" points="400.215,-78.469 390.001,-75.6545 396.231,-84.2243 400.215,-78.469"/>
</g>
<!-- Node9 -->
<g id="node9" class="node"><title>Node9</title>
<g id="a_node9"><a xlink:href="debugUtils_8h.html" target="_top" xlink:title="debugUtils.h">
<polygon fill="white" stroke="black" points="665,-56.5 665,-75.5 734,-75.5 734,-56.5 665,-56.5"/>
<text text-anchor="middle" x="699.5" y="-63.5" font-family="FreeSans" font-size="10.00">debugUtils.h</text>
</a>
</g>
</g>
<!-- Node2&#45;&gt;Node9 -->
<g id="edge8" class="edge"><title>Node2&#45;&gt;Node9</title>
<path fill="none" stroke="midnightblue" d="M488.154,-113.773C531.071,-104.275 606.642,-87.5504 654.83,-76.886"/>
<polygon fill="midnightblue" stroke="midnightblue" points="655.668,-80.2853 664.675,-74.7071 654.155,-73.4507 655.668,-80.2853"/>
</g>
<!-- Node13 -->
<g id="node13" class="node"><title>Node13</title>
<polygon fill="white" stroke="#bfbfbf" points="452,-56.5 452,-75.5 523,-75.5 523,-56.5 452,-56.5"/>
<text text-anchor="middle" x="487.5" y="-63.5" font-family="FreeSans" font-size="10.00">Eigen/Dense</text>
</g>
<!-- Node2&#45;&gt;Node13 -->
<g id="edge14" class="edge"><title>Node2&#45;&gt;Node13</title>
<path fill="none" stroke="midnightblue" d="M460.784,-112.083C465.211,-104.613 471.663,-93.7244 477.118,-84.5199"/>
<polygon fill="midnightblue" stroke="midnightblue" points="480.227,-86.1383 482.314,-75.7511 474.205,-82.5697 480.227,-86.1383"/>
</g>
<!-- Node9&#45;&gt;Node5 -->
<g id="edge10" class="edge"><title>Node9&#45;&gt;Node5</title>
<path fill="none" stroke="midnightblue" d="M713.799,-56.324C727.683,-47.9002 748.992,-34.9709 765.304,-25.0741"/>
<polygon fill="midnightblue" stroke="midnightblue" points="767.502,-27.8341 774.236,-19.6545 763.871,-21.8495 767.502,-27.8341"/>
</g>
<!-- Node9&#45;&gt;Node7 -->
<g id="edge9" class="edge"><title>Node9&#45;&gt;Node7</title>
<path fill="none" stroke="midnightblue" d="M664.92,-57.8921C661.736,-57.2482 658.559,-56.6094 655.5,-56 583.199,-41.5941 498.098,-25.2416 453.784,-16.7722"/>
<polygon fill="midnightblue" stroke="midnightblue" points="454.164,-13.2815 443.685,-14.8435 452.851,-20.1573 454.164,-13.2815"/>
</g>
<!-- Node10 -->
<g id="node10" class="node"><title>Node10</title>
<polygon fill="white" stroke="#bfbfbf" points="512,-0.5 512,-19.5 561,-19.5 561,-0.5 512,-0.5"/>
<text text-anchor="middle" x="536.5" y="-7.5" font-family="FreeSans" font-size="10.00">fstream</text>
</g>
<!-- Node9&#45;&gt;Node10 -->
<g id="edge11" class="edge"><title>Node9&#45;&gt;Node10</title>
<path fill="none" stroke="midnightblue" d="M673.672,-56.4435C645.928,-47.2522 601.696,-32.5987 570.991,-22.4265"/>
<polygon fill="midnightblue" stroke="midnightblue" points="571.733,-18.9854 561.14,-19.1629 569.532,-25.6302 571.733,-18.9854"/>
</g>
<!-- Node11 -->
<g id="node11" class="node"><title>Node11</title>
<polygon fill="white" stroke="#bfbfbf" points="579.5,-0.5 579.5,-19.5 637.5,-19.5 637.5,-0.5 579.5,-0.5"/>
<text text-anchor="middle" x="608.5" y="-7.5" font-family="FreeSans" font-size="10.00">exception</text>
</g>
<!-- Node9&#45;&gt;Node11 -->
<g id="edge12" class="edge"><title>Node9&#45;&gt;Node11</title>
<path fill="none" stroke="midnightblue" d="M684.879,-56.324C670.551,-47.8215 648.487,-34.7288 631.751,-24.7975"/>
<polygon fill="midnightblue" stroke="midnightblue" points="633.47,-21.7478 623.084,-19.6545 629.898,-27.7677 633.47,-21.7478"/>
</g>
<!-- Node12 -->
<g id="node12" class="node"><title>Node12</title>
<polygon fill="white" stroke="#bfbfbf" points="655,-0.5 655,-19.5 744,-19.5 744,-0.5 655,-0.5"/>
<text text-anchor="middle" x="699.5" y="-7.5" font-family="FreeSans" font-size="10.00">boost/format.hpp</text>
</g>
<!-- Node9&#45;&gt;Node12 -->
<g id="edge13" class="edge"><title>Node9&#45;&gt;Node12</title>
<path fill="none" stroke="midnightblue" d="M699.5,-56.083C699.5,-49.0059 699.5,-38.8611 699.5,-29.9865"/>
<polygon fill="midnightblue" stroke="midnightblue" points="703,-29.751 699.5,-19.7511 696,-29.7511 703,-29.751"/>
</g>
<!-- Node15 -->
<g id="node15" class="node"><title>Node15</title>
<g id="a_node15"><a xlink:href="tbb__tools_8h.html" target="_top" xlink:title="tbb_tools.h">
<polygon fill="white" stroke="black" points="34,-112.5 34,-131.5 97,-131.5 97,-112.5 34,-112.5"/>
<text text-anchor="middle" x="65.5" y="-119.5" font-family="FreeSans" font-size="10.00">tbb_tools.h</text>
</a>
</g>
</g>
<!-- Node14&#45;&gt;Node15 -->
<g id="edge16" class="edge"><title>Node14&#45;&gt;Node15</title>
<path fill="none" stroke="midnightblue" d="M168.169,-168.444C148.18,-159.596 116.757,-145.687 93.9361,-135.586"/>
<polygon fill="midnightblue" stroke="midnightblue" points="95.3018,-132.363 84.7408,-131.516 92.4685,-138.764 95.3018,-132.363"/>
</g>
<!-- Node18 -->
<g id="node18" class="node"><title>Node18</title>
<polygon fill="white" stroke="#bfbfbf" points="115,-112.5 115,-131.5 174,-131.5 174,-112.5 115,-112.5"/>
<text text-anchor="middle" x="144.5" y="-119.5" font-family="FreeSans" font-size="10.00">sys/time.h</text>
</g>
<!-- Node14&#45;&gt;Node18 -->
<g id="edge19" class="edge"><title>Node14&#45;&gt;Node18</title>
<path fill="none" stroke="midnightblue" d="M180.399,-168.083C174.263,-160.377 165.23,-149.033 157.761,-139.653"/>
<polygon fill="midnightblue" stroke="midnightblue" points="160.436,-137.394 151.468,-131.751 154.96,-141.754 160.436,-137.394"/>
</g>
<!-- Node19 -->
<g id="node19" class="node"><title>Node19</title>
<polygon fill="white" stroke="#bfbfbf" points="192,-112.5 192,-131.5 235,-131.5 235,-112.5 192,-112.5"/>
<text text-anchor="middle" x="213.5" y="-119.5" font-family="FreeSans" font-size="10.00">time.h</text>
</g>
<!-- Node14&#45;&gt;Node19 -->
<g id="edge20" class="edge"><title>Node14&#45;&gt;Node19</title>
<path fill="none" stroke="midnightblue" d="M191.793,-168.083C195.352,-160.691 200.522,-149.953 204.924,-140.811"/>
<polygon fill="midnightblue" stroke="midnightblue" points="208.102,-142.279 209.287,-131.751 201.795,-139.243 208.102,-142.279"/>
</g>
<!-- Node16 -->
<g id="node16" class="node"><title>Node16</title>
<g id="a_node16"><a xlink:href="config_8h.html" target="_top" xlink:title="config.h">
<polygon fill="white" stroke="black" points="77.5,-56.5 77.5,-75.5 127.5,-75.5 127.5,-56.5 77.5,-56.5"/>
<text text-anchor="middle" x="102.5" y="-63.5" font-family="FreeSans" font-size="10.00">config.h</text>
</a>
</g>
</g>
<!-- Node15&#45;&gt;Node16 -->
<g id="edge17" class="edge"><title>Node15&#45;&gt;Node16</title>
<path fill="none" stroke="midnightblue" d="M71.6098,-112.083C76.7822,-104.534 84.3461,-93.4948 90.6944,-84.2298"/>
<polygon fill="midnightblue" stroke="midnightblue" points="93.7388,-85.9787 96.5039,-75.7511 87.9643,-82.0221 93.7388,-85.9787"/>
</g>
<!-- Node17 -->
<g id="node17" class="node"><title>Node17</title>
<g id="a_node17"><a xlink:href="tbb__real_8h.html" target="_top" xlink:title="tbb_real.h">
<polygon fill="white" stroke="red" points="0,-56.5 0,-75.5 59,-75.5 59,-56.5 0,-56.5"/>
<text text-anchor="middle" x="29.5" y="-63.5" font-family="FreeSans" font-size="10.00">tbb_real.h</text>
</a>
</g>
</g>
<!-- Node15&#45;&gt;Node17 -->
<g id="edge18" class="edge"><title>Node15&#45;&gt;Node17</title>
<path fill="none" stroke="midnightblue" d="M59.5553,-112.083C54.5227,-104.534 47.1632,-93.4948 40.9865,-84.2298"/>
<polygon fill="midnightblue" stroke="midnightblue" points="43.7933,-82.1301 35.3341,-75.7511 37.9689,-86.0131 43.7933,-82.1301"/>
</g>
<!-- Node20&#45;&gt;Node2 -->
<g id="edge22" class="edge"><title>Node20&#45;&gt;Node2</title>
<path fill="none" stroke="midnightblue" d="M315.803,-168.444C343.851,-159.32 388.444,-144.813 419.684,-134.651"/>
<polygon fill="midnightblue" stroke="midnightblue" points="420.893,-137.938 429.32,-131.516 418.728,-131.282 420.893,-137.938"/>
</g>
<!-- Node20&#45;&gt;Node7 -->
<g id="edge23" class="edge"><title>Node20&#45;&gt;Node7</title>
<path fill="none" stroke="midnightblue" d="M285.617,-168.341C276.658,-146.917 257.178,-90.6616 282.5,-56 307.803,-21.3636 360.062,-12.7642 393.362,-10.9732"/>
<polygon fill="midnightblue" stroke="midnightblue" points="393.584,-14.4675 403.45,-10.6065 393.329,-7.47215 393.584,-14.4675"/>
</g>
</g>
</svg>
