<?xml version="1.0" encoding="UTF-8" standalone="no"?>
<!DOCTYPE svg PUBLIC "-//W3C//DTD SVG 1.1//EN"
 "http://www.w3.org/Graphics/SVG/1.1/DTD/svg11.dtd">
<!-- Generated by graphviz version 2.26.3 (20100126.1600)
 -->
<!-- Title: src/splitSolver.cpp Pages: 1 -->
<svg width="631pt" height="332pt"
 viewBox="0.00 0.00 631.00 332.00" xmlns="http://www.w3.org/2000/svg" xmlns:xlink="http://www.w3.org/1999/xlink">
<g id="graph1" class="graph" transform="scale(1 1) rotate(0) translate(4 328)">
<title>src/splitSolver.cpp</title>
<polygon fill="white" stroke="white" points="-4,5 -4,-328 628,-328 628,5 -4,5"/>
<!-- Node1 -->
<g id="node1" class="node"><title>Node1</title>
<polygon fill="#bfbfbf" stroke="black" points="361.5,-303 361.5,-323 456.5,-323 456.5,-303 361.5,-303"/>
<text text-anchor="middle" x="409" y="-310" font-family="FreeSans" font-size="10.00">src/splitSolver.cpp</text>
</g>
<!-- Node2 -->
<g id="node3" class="node"><title>Node2</title>
<a xlink:href="splitSolver_8h.html" target="_top" xlink:title="splitSolver.h">
<polygon fill="white" stroke="black" points="344,-245 344,-265 412,-265 412,-245 344,-245"/>
<text text-anchor="middle" x="378" y="-252" font-family="FreeSans" font-size="10.00">splitSolver.h</text>
</a>
</g>
<!-- Node1&#45;&gt;Node2 -->
<g id="edge2" class="edge"><title>Node1&#45;&gt;Node2</title>
<path fill="none" stroke="midnightblue" d="M403.6,-302.897C399.385,-295.01 393.404,-283.821 388.284,-274.24"/>
<polygon fill="midnightblue" stroke="midnightblue" points="391.347,-272.547 383.547,-265.378 385.174,-275.847 391.347,-272.547"/>
</g>
<!-- Node17 -->
<g id="node35" class="node"><title>Node17</title>
<a xlink:href="readConfig_8h.html" target="_top" xlink:title="readConfig.h">
<polygon fill="white" stroke="black" points="406,-187 406,-207 476,-207 476,-187 406,-187"/>
<text text-anchor="middle" x="441" y="-194" font-family="FreeSans" font-size="10.00">readConfig.h</text>
</a>
</g>
<!-- Node1&#45;&gt;Node17 -->
<g id="edge42" class="edge"><title>Node1&#45;&gt;Node17</title>
<path fill="none" stroke="midnightblue" d="M411.84,-302.706C417.143,-283.482 428.635,-241.825 435.502,-216.929"/>
<polygon fill="midnightblue" stroke="midnightblue" points="438.927,-217.676 438.212,-207.106 432.179,-215.815 438.927,-217.676"/>
</g>
<!-- Node3 -->
<g id="node5" class="node"><title>Node3</title>
<a xlink:href="mathUtils_8h.html" target="_top" xlink:title="mathUtils.h">
<polygon fill="white" stroke="black" points="377.5,-123 377.5,-143 442.5,-143 442.5,-123 377.5,-123"/>
<text text-anchor="middle" x="410" y="-130" font-family="FreeSans" font-size="10.00">mathUtils.h</text>
</a>
</g>
<!-- Node2&#45;&gt;Node3 -->
<g id="edge4" class="edge"><title>Node2&#45;&gt;Node3</title>
<path fill="none" stroke="midnightblue" d="M380.728,-244.598C386.045,-224.329 397.872,-179.238 404.755,-152.997"/>
<polygon fill="midnightblue" stroke="midnightblue" points="408.217,-153.593 407.369,-143.032 401.446,-151.817 408.217,-153.593"/>
</g>
<!-- Node12 -->
<g id="node25" class="node"><title>Node12</title>
<a xlink:href="perfTimer_8h.html" target="_top" xlink:title="perfTimer.h">
<polygon fill="white" stroke="black" points="198.5,-187 198.5,-207 263.5,-207 263.5,-187 198.5,-187"/>
<text text-anchor="middle" x="231" y="-194" font-family="FreeSans" font-size="10.00">perfTimer.h</text>
</a>
</g>
<!-- Node2&#45;&gt;Node12 -->
<g id="edge26" class="edge"><title>Node2&#45;&gt;Node12</title>
<path fill="none" stroke="midnightblue" d="M352.395,-244.897C328.511,-235.474 292.678,-221.335 266.128,-210.86"/>
<polygon fill="midnightblue" stroke="midnightblue" points="267.392,-207.596 256.805,-207.182 264.823,-214.108 267.392,-207.596"/>
</g>
<!-- Node2&#45;&gt;Node17 -->
<g id="edge36" class="edge"><title>Node2&#45;&gt;Node17</title>
<path fill="none" stroke="midnightblue" d="M388.974,-244.897C398.165,-236.435 411.486,-224.172 422.348,-214.172"/>
<polygon fill="midnightblue" stroke="midnightblue" points="424.741,-216.726 429.728,-207.378 420,-211.576 424.741,-216.726"/>
</g>
<!-- Node4 -->
<g id="node7" class="node"><title>Node4</title>
<polygon fill="white" stroke="#bfbfbf" points="532.5,-59 532.5,-79 575.5,-79 575.5,-59 532.5,-59"/>
<text text-anchor="middle" x="554" y="-66" font-family="FreeSans" font-size="10.00">vector</text>
</g>
<!-- Node3&#45;&gt;Node4 -->
<g id="edge6" class="edge"><title>Node3&#45;&gt;Node4</title>
<path fill="none" stroke="midnightblue" d="M432.817,-122.859C457.114,-112.06 495.725,-94.9 522.819,-82.8582"/>
<polygon fill="midnightblue" stroke="midnightblue" points="524.516,-85.9344 532.232,-78.6746 521.673,-79.5377 524.516,-85.9344"/>
</g>
<!-- Node5 -->
<g id="node9" class="node"><title>Node5</title>
<polygon fill="white" stroke="#bfbfbf" points="139,-59 139,-79 183,-79 183,-59 139,-59"/>
<text text-anchor="middle" x="161" y="-66" font-family="FreeSans" font-size="10.00">cmath</text>
</g>
<!-- Node3&#45;&gt;Node5 -->
<g id="edge8" class="edge"><title>Node3&#45;&gt;Node5</title>
<path fill="none" stroke="midnightblue" d="M387.721,-122.878C381.724,-120.398 375.184,-117.911 369,-116 294.38,-92.9427 272.645,-99.431 197,-80 195.754,-79.6799 194.486,-79.344 193.208,-78.9965"/>
<polygon fill="midnightblue" stroke="midnightblue" points="193.957,-75.5703 183.38,-76.18 192.029,-82.2995 193.957,-75.5703"/>
</g>
<!-- Node6 -->
<g id="node11" class="node"><title>Node6</title>
<polygon fill="white" stroke="#bfbfbf" points="249.5,-1 249.5,-21 302.5,-21 302.5,-1 249.5,-1"/>
<text text-anchor="middle" x="276" y="-8" font-family="FreeSans" font-size="10.00">iostream</text>
</g>
<!-- Node3&#45;&gt;Node6 -->
<g id="edge10" class="edge"><title>Node3&#45;&gt;Node6</title>
<path fill="none" stroke="midnightblue" d="M387.229,-122.897C381.351,-120.473 374.991,-118.007 369,-116 308.489,-95.7294 269.06,-130.466 230,-80 216.672,-62.7798 235.15,-41.822 252.503,-27.5541"/>
<polygon fill="midnightblue" stroke="midnightblue" points="255.028,-30.0255 260.787,-21.1329 250.739,-24.4928 255.028,-30.0255"/>
</g>
<!-- Node7 -->
<g id="node13" class="node"><title>Node7</title>
<polygon fill="white" stroke="#bfbfbf" points="239,-59 239,-79 289,-79 289,-59 239,-59"/>
<text text-anchor="middle" x="264" y="-66" font-family="FreeSans" font-size="10.00">sstream</text>
</g>
<!-- Node3&#45;&gt;Node7 -->
<g id="edge12" class="edge"><title>Node3&#45;&gt;Node7</title>
<path fill="none" stroke="midnightblue" d="M386.866,-122.859C362.411,-112.139 323.655,-95.15 296.217,-83.1225"/>
<polygon fill="midnightblue" stroke="midnightblue" points="297.59,-79.9028 287.026,-79.0935 294.779,-86.3139 297.59,-79.9028"/>
</g>
<!-- Node8 -->
<g id="node15" class="node"><title>Node8</title>
<polygon fill="white" stroke="#bfbfbf" points="583,-1 583,-21 623,-21 623,-1 583,-1"/>
<text text-anchor="middle" x="603" y="-8" font-family="FreeSans" font-size="10.00">string</text>
</g>
<!-- Node3&#45;&gt;Node8 -->
<g id="edge14" class="edge"><title>Node3&#45;&gt;Node8</title>
<path fill="none" stroke="midnightblue" d="M442.78,-126.922C487.502,-117.996 564.341,-100.196 584,-80 596.553,-67.1039 600.983,-46.7123 602.464,-31.4354"/>
<polygon fill="midnightblue" stroke="midnightblue" points="605.961,-31.5956 603.095,-21.3957 598.975,-31.1565 605.961,-31.5956"/>
</g>
<!-- Node9 -->
<g id="node17" class="node"><title>Node9</title>
<polygon fill="white" stroke="#bfbfbf" points="392.5,-59 392.5,-79 427.5,-79 427.5,-59 392.5,-59"/>
<text text-anchor="middle" x="410" y="-66" font-family="FreeSans" font-size="10.00">map</text>
</g>
<!-- Node3&#45;&gt;Node9 -->
<g id="edge16" class="edge"><title>Node3&#45;&gt;Node9</title>
<path fill="none" stroke="midnightblue" d="M410,-122.717C410,-113.707 410,-100.347 410,-89.2054"/>
<polygon fill="midnightblue" stroke="midnightblue" points="413.5,-89.0461 410,-79.0462 406.5,-89.0462 413.5,-89.0461"/>
</g>
<!-- Node10 -->
<g id="node19" class="node"><title>Node10</title>
<a xlink:href="debugUtils_8h.html" target="_top" xlink:title="debugUtils.h">
<polygon fill="white" stroke="red" points="306.5,-59 306.5,-79 375.5,-79 375.5,-59 306.5,-59"/>
<text text-anchor="middle" x="341" y="-66" font-family="FreeSans" font-size="10.00">debugUtils.h</text>
</a>
</g>
<!-- Node3&#45;&gt;Node10 -->
<g id="edge18" class="edge"><title>Node3&#45;&gt;Node10</title>
<path fill="none" stroke="midnightblue" d="M398.914,-122.717C388.289,-112.862 372.054,-97.804 359.474,-86.1356"/>
<polygon fill="midnightblue" stroke="midnightblue" points="361.543,-83.2805 351.831,-79.0462 356.783,-88.4128 361.543,-83.2805"/>
</g>
<!-- Node11 -->
<g id="node23" class="node"><title>Node11</title>
<polygon fill="white" stroke="#bfbfbf" points="444.5,-59 444.5,-79 515.5,-79 515.5,-59 444.5,-59"/>
<text text-anchor="middle" x="480" y="-66" font-family="FreeSans" font-size="10.00">Eigen/Dense</text>
</g>
<!-- Node3&#45;&gt;Node11 -->
<g id="edge24" class="edge"><title>Node3&#45;&gt;Node11</title>
<path fill="none" stroke="midnightblue" d="M421.247,-122.717C432.128,-112.768 448.81,-97.5167 461.622,-85.8032"/>
<polygon fill="midnightblue" stroke="midnightblue" points="463.993,-88.377 469.012,-79.0462 459.27,-83.2108 463.993,-88.377"/>
</g>
<!-- Node10&#45;&gt;Node6 -->
<g id="edge22" class="edge"><title>Node10&#45;&gt;Node6</title>
<path fill="none" stroke="midnightblue" d="M329.678,-58.8972C320.195,-50.4353 306.451,-38.1715 295.244,-28.1719"/>
<polygon fill="midnightblue" stroke="midnightblue" points="297.422,-25.424 287.63,-21.3776 292.761,-30.647 297.422,-25.424"/>
</g>
<!-- Node10&#45;&gt;Node8 -->
<g id="edge20" class="edge"><title>Node10&#45;&gt;Node8</title>
<path fill="none" stroke="midnightblue" d="M375.705,-59.9981C378.508,-59.3088 381.3,-58.6349 384,-58 451.177,-42.2055 530.456,-25.7236 572.778,-17.097"/>
<polygon fill="midnightblue" stroke="midnightblue" points="573.609,-20.4998 582.712,-15.0783 572.215,-13.64 573.609,-20.4998"/>
</g>
<!-- Node13 -->
<g id="node27" class="node"><title>Node13</title>
<polygon fill="white" stroke="#bfbfbf" points="270,-123 270,-143 360,-143 360,-123 270,-123"/>
<text text-anchor="middle" x="315" y="-130" font-family="FreeSans" font-size="10.00">tbb/combinable.h</text>
</g>
<!-- Node12&#45;&gt;Node13 -->
<g id="edge28" class="edge"><title>Node12&#45;&gt;Node13</title>
<path fill="none" stroke="midnightblue" d="M244.496,-186.717C257.8,-176.581 278.33,-160.939 293.811,-149.144"/>
<polygon fill="midnightblue" stroke="midnightblue" points="295.981,-151.891 301.814,-143.046 291.739,-146.323 295.981,-151.891"/>
</g>
<!-- Node14 -->
<g id="node29" class="node"><title>Node14</title>
<polygon fill="white" stroke="#bfbfbf" points="0,-117 0,-149 116,-149 116,-117 0,-117"/>
<text text-anchor="start" x="8" y="-136" font-family="FreeSans" font-size="10.00">tbb/enumerable_thread</text>
<text text-anchor="middle" x="58" y="-124" font-family="FreeSans" font-size="10.00">_specific.h</text>
</g>
<!-- Node12&#45;&gt;Node14 -->
<g id="edge30" class="edge"><title>Node12&#45;&gt;Node14</title>
<path fill="none" stroke="midnightblue" d="M203.588,-186.859C178.828,-177.699 141.695,-163.962 111.129,-152.655"/>
<polygon fill="midnightblue" stroke="midnightblue" points="112.053,-149.265 101.46,-149.078 109.624,-155.83 112.053,-149.265"/>
</g>
<!-- Node15 -->
<g id="node31" class="node"><title>Node15</title>
<polygon fill="white" stroke="#bfbfbf" points="133.5,-123 133.5,-143 192.5,-143 192.5,-123 133.5,-123"/>
<text text-anchor="middle" x="163" y="-130" font-family="FreeSans" font-size="10.00">sys/time.h</text>
</g>
<!-- Node12&#45;&gt;Node15 -->
<g id="edge32" class="edge"><title>Node12&#45;&gt;Node15</title>
<path fill="none" stroke="midnightblue" d="M220.075,-186.717C209.604,-176.862 193.604,-161.804 181.207,-150.136"/>
<polygon fill="midnightblue" stroke="midnightblue" points="183.355,-147.351 173.674,-143.046 178.557,-152.449 183.355,-147.351"/>
</g>
<!-- Node16 -->
<g id="node33" class="node"><title>Node16</title>
<polygon fill="white" stroke="#bfbfbf" points="209.5,-123 209.5,-143 252.5,-143 252.5,-123 209.5,-123"/>
<text text-anchor="middle" x="231" y="-130" font-family="FreeSans" font-size="10.00">time.h</text>
</g>
<!-- Node12&#45;&gt;Node16 -->
<g id="edge34" class="edge"><title>Node12&#45;&gt;Node16</title>
<path fill="none" stroke="midnightblue" d="M231,-186.717C231,-177.707 231,-164.347 231,-153.205"/>
<polygon fill="midnightblue" stroke="midnightblue" points="234.5,-153.046 231,-143.046 227.5,-153.046 234.5,-153.046"/>
</g>
<!-- Node17&#45;&gt;Node3 -->
<g id="edge38" class="edge"><title>Node17&#45;&gt;Node3</title>
<path fill="none" stroke="midnightblue" d="M436.019,-186.717C431.519,-177.425 424.777,-163.508 419.284,-152.168"/>
<polygon fill="midnightblue" stroke="midnightblue" points="422.375,-150.52 414.866,-143.046 416.076,-153.572 422.375,-150.52"/>
</g>
<!-- Node17&#45;&gt;Node8 -->
<g id="edge40" class="edge"><title>Node17&#45;&gt;Node8</title>
<path fill="none" stroke="midnightblue" d="M467.999,-186.937C506.418,-170.965 575.374,-135.785 604,-80 611.758,-64.8809 610.612,-45.333 608.047,-30.9057"/>
<polygon fill="midnightblue" stroke="midnightblue" points="611.449,-30.0752 605.933,-21.0293 604.604,-31.5404 611.449,-30.0752"/>
</g>
</g>
</svg>
