<?xml version="1.0" encoding="UTF-8" standalone="no"?>
<!DOCTYPE svg PUBLIC "-//W3C//DTD SVG 1.1//EN"
 "http://www.w3.org/Graphics/SVG/1.1/DTD/svg11.dtd">
<!-- Generated by graphviz version 8.1.0 (20230707.2238)
 -->
<!-- Title: src/splitSolver.cpp Pages: 1 -->
<svg width="722pt" height="313pt"
 viewBox="0.00 0.00 722.43 312.50" xmlns="http://www.w3.org/2000/svg" xmlns:xlink="http://www.w3.org/1999/xlink">
<g id="graph0" class="graph" transform="scale(1 1) rotate(0) translate(4 308.5)">
<title>src/splitSolver.cpp</title>
<!-- Node1 -->
<g id="Node000001" class="node">
<title>Node1</title>
<g id="a_Node000001"><a xlink:title=" ">
<polygon fill="#999999" stroke="#666666" points="361.62,-304.5 257.12,-304.5 257.12,-283.75 361.62,-283.75 361.62,-304.5"/>
<text text-anchor="middle" x="309.38" y="-291" font-family="FreeSans" font-size="10.00">src/splitSolver.cpp</text>
</a>
</g>
</g>
<!-- Node2 -->
<g id="Node000002" class="node">
<title>Node2</title>
<g id="a_Node000002"><a xlink:href="splitSolver_8h.html" target="_top" xlink:title=" ">
<polygon fill="white" stroke="#666666" points="314.38,-247.75 238.38,-247.75 238.38,-227 314.38,-227 314.38,-247.75"/>
<text text-anchor="middle" x="276.38" y="-234.25" font-family="FreeSans" font-size="10.00">splitSolver.h</text>
</a>
</g>
</g>
<!-- Node1&#45;&gt;Node2 -->
<g id="edge1_Node000001_Node000002" class="edge">
<title>Node1&#45;&gt;Node2</title>
<g id="a_edge1_Node000001_Node000002"><a xlink:title=" ">
<path fill="none" stroke="#63b8ff" d="M303.48,-283.34C299.11,-276.1 293.03,-266.01 287.74,-257.22"/>
<polygon fill="#63b8ff" stroke="#63b8ff" points="290.38,-255.84 282.22,-249.08 284.39,-259.45 290.38,-255.84"/>
</a>
</g>
</g>
<!-- Node27 -->
<g id="Node000027" class="node">
<title>Node27</title>
<g id="a_Node000027"><a xlink:href="readConfig_8h.html" target="_top" xlink:title=" ">
<polygon fill="white" stroke="#666666" points="382.12,-191 304.62,-191 304.62,-170.25 382.12,-170.25 382.12,-191"/>
<text text-anchor="middle" x="343.38" y="-177.5" font-family="FreeSans" font-size="10.00">readConfig.h</text>
</a>
</g>
</g>
<!-- Node1&#45;&gt;Node27 -->
<g id="edge21_Node000001_Node000027" class="edge">
<title>Node1&#45;&gt;Node27</title>
<g id="a_edge21_Node000001_Node000027"><a xlink:title=" ">
<path fill="none" stroke="#63b8ff" d="M312.39,-283.39C315.24,-274.21 319.62,-260.05 323.38,-247.75 328.09,-232.31 333.38,-214.83 337.33,-201.72"/>
<polygon fill="#63b8ff" stroke="#63b8ff" points="340.88,-203.07 340.41,-192.49 334.18,-201.05 340.88,-203.07"/>
</a>
</g>
</g>
<!-- Node3 -->
<g id="Node000003" class="node">
<title>Node3</title>
<g id="a_Node000003"><a xlink:href="mathUtils_8h.html" target="_top" xlink:title=" ">
<polygon fill="white" stroke="#666666" points="350.88,-134.25 277.88,-134.25 277.88,-113.5 350.88,-113.5 350.88,-134.25"/>
<text text-anchor="middle" x="314.38" y="-120.75" font-family="FreeSans" font-size="10.00">mathUtils.h</text>
</a>
</g>
</g>
<!-- Node2&#45;&gt;Node3 -->
<g id="edge2_Node000002_Node000003" class="edge">
<title>Node2&#45;&gt;Node3</title>
<g id="a_edge2_Node000002_Node000003"><a xlink:title=" ">
<path fill="none" stroke="#63b8ff" d="M278.74,-226.85C282.04,-213.9 288.4,-190.08 295.38,-170.25 298.38,-161.71 302.15,-152.46 305.55,-144.55"/>
<polygon fill="#63b8ff" stroke="#63b8ff" points="309.15,-146.05 309.97,-135.48 302.74,-143.23 309.15,-146.05"/>
</a>
</g>
</g>
<!-- Node16 -->
<g id="Node000016" class="node">
<title>Node16</title>
<g id="a_Node000016"><a xlink:href="perfTimer_8h.html" target="_top" xlink:title=" ">
<polygon fill="white" stroke="#666666" points="230.5,-191 158.25,-191 158.25,-170.25 230.5,-170.25 230.5,-191"/>
<text text-anchor="middle" x="194.38" y="-177.5" font-family="FreeSans" font-size="10.00">perfTimer.h</text>
</a>
</g>
</g>
<!-- Node2&#45;&gt;Node16 -->
<g id="edge14_Node000002_Node000016" class="edge">
<title>Node2&#45;&gt;Node16</title>
<g id="a_edge14_Node000002_Node000016"><a xlink:title=" ">
<path fill="none" stroke="#63b8ff" d="M261.72,-226.59C249.59,-218.49 232.13,-206.83 218.03,-197.42"/>
<polygon fill="#63b8ff" stroke="#63b8ff" points="220.17,-193.97 209.91,-191.33 216.28,-199.79 220.17,-193.97"/>
</a>
</g>
</g>
<!-- Node2&#45;&gt;Node27 -->
<g id="edge18_Node000002_Node000027" class="edge">
<title>Node2&#45;&gt;Node27</title>
<g id="a_edge18_Node000002_Node000027"><a xlink:title=" ">
<path fill="none" stroke="#63b8ff" d="M288.35,-226.59C297.98,-218.72 311.71,-207.5 323.05,-198.24"/>
<polygon fill="#63b8ff" stroke="#63b8ff" points="324.97,-200.37 330.5,-191.33 320.54,-194.95 324.97,-200.37"/>
</a>
</g>
</g>
<!-- Node4 -->
<g id="Node000004" class="node">
<title>Node4</title>
<g id="a_Node000004"><a xlink:title=" ">
<polygon fill="#e0e0e0" stroke="#999999" points="688.75,-77.5 642,-77.5 642,-56.75 688.75,-56.75 688.75,-77.5"/>
<text text-anchor="middle" x="665.38" y="-64" font-family="FreeSans" font-size="10.00">vector</text>
</a>
</g>
</g>
<!-- Node3&#45;&gt;Node4 -->
<g id="edge3_Node000003_Node000004" class="edge">
<title>Node3&#45;&gt;Node4</title>
<g id="a_edge3_Node000003_Node000004"><a xlink:title=" ">
<path fill="none" stroke="#63b8ff" d="M350.9,-119.29C408.41,-113.28 523.71,-99.84 630.99,-77.53"/>
<polygon fill="#63b8ff" stroke="#63b8ff" points="631.62,-80.76 640.68,-75.27 630.17,-73.91 631.62,-80.76"/>
</a>
</g>
</g>
<!-- Node5 -->
<g id="Node000005" class="node">
<title>Node5</title>
<g id="a_Node000005"><a xlink:title=" ">
<polygon fill="#e0e0e0" stroke="#999999" points="46.75,-77.5 0,-77.5 0,-56.75 46.75,-56.75 46.75,-77.5"/>
<text text-anchor="middle" x="23.38" y="-64" font-family="FreeSans" font-size="10.00">cmath</text>
</a>
</g>
</g>
<!-- Node3&#45;&gt;Node5 -->
<g id="edge4_Node000003_Node000005" class="edge">
<title>Node3&#45;&gt;Node5</title>
<g id="a_edge4_Node000003_Node000005"><a xlink:title=" ">
<path fill="none" stroke="#63b8ff" d="M277.74,-115.31C274.57,-114.68 271.42,-114.07 268.38,-113.5 176.18,-96.13 152.14,-97.04 60.38,-77.5 59.44,-77.3 58.49,-77.09 57.54,-76.88"/>
<polygon fill="#63b8ff" stroke="#63b8ff" points="58.73,-73.33 48.2,-74.45 57.13,-80.15 58.73,-73.33"/>
</a>
</g>
</g>
<!-- Node6 -->
<g id="Node000006" class="node">
<title>Node6</title>
<g id="a_Node000006"><a xlink:title=" ">
<polygon fill="#e0e0e0" stroke="#999999" points="175.12,-20.75 115.62,-20.75 115.62,0 175.12,0 175.12,-20.75"/>
<text text-anchor="middle" x="145.38" y="-7.25" font-family="FreeSans" font-size="10.00">iostream</text>
</a>
</g>
</g>
<!-- Node3&#45;&gt;Node6 -->
<g id="edge5_Node000003_Node000006" class="edge">
<title>Node3&#45;&gt;Node6</title>
<g id="a_edge5_Node000003_Node000006"><a xlink:title=" ">
<path fill="none" stroke="#63b8ff" d="M277.42,-115.33C214.57,-102.48 93.56,-77.72 93.38,-77.5 79.49,-60.48 99.87,-40.64 119.04,-27.16"/>
<polygon fill="#63b8ff" stroke="#63b8ff" points="120.79,-29.54 127.2,-21.1 116.93,-23.7 120.79,-29.54"/>
</a>
</g>
</g>
<!-- Node7 -->
<g id="Node000007" class="node">
<title>Node7</title>
<g id="a_Node000007"><a xlink:title=" ">
<polygon fill="#e0e0e0" stroke="#999999" points="158.25,-77.5 102.5,-77.5 102.5,-56.75 158.25,-56.75 158.25,-77.5"/>
<text text-anchor="middle" x="130.38" y="-64" font-family="FreeSans" font-size="10.00">sstream</text>
</a>
</g>
</g>
<!-- Node3&#45;&gt;Node7 -->
<g id="edge6_Node000003_Node000007" class="edge">
<title>Node3&#45;&gt;Node7</title>
<g id="a_edge6_Node000003_Node000007"><a xlink:title=" ">
<path fill="none" stroke="#63b8ff" d="M281.48,-113.09C249.86,-103.68 202.09,-89.46 168.75,-79.54"/>
<polygon fill="#63b8ff" stroke="#63b8ff" points="170.05,-75.98 159.47,-76.48 168.06,-82.69 170.05,-75.98"/>
</a>
</g>
</g>
<!-- Node8 -->
<g id="Node000008" class="node">
<title>Node8</title>
<g id="a_Node000008"><a xlink:title=" ">
<polygon fill="#e0e0e0" stroke="#999999" points="360.25,-20.75 316.5,-20.75 316.5,0 360.25,0 360.25,-20.75"/>
<text text-anchor="middle" x="338.38" y="-7.25" font-family="FreeSans" font-size="10.00">string</text>
</a>
</g>
</g>
<!-- Node3&#45;&gt;Node8 -->
<g id="edge7_Node000003_Node000008" class="edge">
<title>Node3&#45;&gt;Node8</title>
<g id="a_edge7_Node000003_Node000008"><a xlink:title=" ">
<path fill="none" stroke="#63b8ff" d="M316.42,-113.37C320.3,-95.36 328.79,-55.89 334,-31.68"/>
<polygon fill="#63b8ff" stroke="#63b8ff" points="337.58,-32.69 336.27,-22.18 330.74,-31.21 337.58,-32.69"/>
</a>
</g>
</g>
<!-- Node9 -->
<g id="Node000009" class="node">
<title>Node9</title>
<g id="a_Node000009"><a xlink:title=" ">
<polygon fill="#e0e0e0" stroke="#999999" points="310.25,-77.5 272.5,-77.5 272.5,-56.75 310.25,-56.75 310.25,-77.5"/>
<text text-anchor="middle" x="291.38" y="-64" font-family="FreeSans" font-size="10.00">map</text>
</a>
</g>
</g>
<!-- Node3&#45;&gt;Node9 -->
<g id="edge8_Node000003_Node000009" class="edge">
<title>Node3&#45;&gt;Node9</title>
<g id="a_edge8_Node000003_Node000009"><a xlink:title=" ">
<path fill="none" stroke="#63b8ff" d="M310.26,-113.09C307.32,-106.08 303.26,-96.41 299.65,-87.83"/>
<polygon fill="#63b8ff" stroke="#63b8ff" points="302.55,-86.69 295.45,-78.83 296.1,-89.4 302.55,-86.69"/>
</a>
</g>
</g>
<!-- Node10 -->
<g id="Node000010" class="node">
<title>Node10</title>
<g id="a_Node000010"><a xlink:href="debugUtils_8h.html" target="_top" xlink:title=" ">
<polygon fill="#fff0f0" stroke="red" points="254.12,-77.5 176.62,-77.5 176.62,-56.75 254.12,-56.75 254.12,-77.5"/>
<text text-anchor="middle" x="215.38" y="-64" font-family="FreeSans" font-size="10.00">debugUtils.h</text>
</a>
</g>
</g>
<!-- Node3&#45;&gt;Node10 -->
<g id="edge9_Node000003_Node000010" class="edge">
<title>Node3&#45;&gt;Node10</title>
<g id="a_edge9_Node000003_Node000010"><a xlink:title=" ">
<path fill="none" stroke="#63b8ff" d="M296.68,-113.09C281.61,-104.76 259.74,-92.66 242.47,-83.11"/>
<polygon fill="#63b8ff" stroke="#63b8ff" points="244.37,-79.61 233.92,-77.83 240.98,-85.73 244.37,-79.61"/>
</a>
</g>
</g>
<!-- Node14 -->
<g id="Node000014" class="node">
<title>Node14</title>
<g id="a_Node000014"><a xlink:title=" ">
<polygon fill="#e0e0e0" stroke="#999999" points="492.5,-77.5 366.25,-77.5 366.25,-56.75 492.5,-56.75 492.5,-77.5"/>
<text text-anchor="middle" x="429.38" y="-64" font-family="FreeSans" font-size="10.00">cantera/base/ct_defs.h</text>
</a>
</g>
</g>
<!-- Node3&#45;&gt;Node14 -->
<g id="edge12_Node000003_Node000014" class="edge">
<title>Node3&#45;&gt;Node14</title>
<g id="a_edge12_Node000003_Node000014"><a xlink:title=" ">
<path fill="none" stroke="#63b8ff" d="M334.93,-113.09C352.84,-104.56 379.04,-92.09 399.3,-82.44"/>
<polygon fill="#63b8ff" stroke="#63b8ff" points="400.47,-85.29 407.99,-77.83 397.46,-78.97 400.47,-85.29"/>
</a>
</g>
</g>
<!-- Node15 -->
<g id="Node000015" class="node">
<title>Node15</title>
<g id="a_Node000015"><a xlink:title=" ">
<polygon fill="#e0e0e0" stroke="#999999" points="623.75,-77.5 511,-77.5 511,-56.75 623.75,-56.75 623.75,-77.5"/>
<text text-anchor="middle" x="567.38" y="-64" font-family="FreeSans" font-size="10.00">eigen3/Eigen/Dense</text>
</a>
</g>
</g>
<!-- Node3&#45;&gt;Node15 -->
<g id="edge13_Node000003_Node000015" class="edge">
<title>Node3&#45;&gt;Node15</title>
<g id="a_edge13_Node000003_Node000015"><a xlink:title=" ">
<path fill="none" stroke="#63b8ff" d="M351.16,-114.91C393.21,-105.81 462.5,-90.82 511.28,-80.26"/>
<polygon fill="#63b8ff" stroke="#63b8ff" points="511.95,-83.48 520.98,-77.95 510.47,-76.64 511.95,-83.48"/>
</a>
</g>
</g>
<!-- Node10&#45;&gt;Node6 -->
<g id="edge11_Node000010_Node000006" class="edge">
<title>Node10&#45;&gt;Node6</title>
<g id="a_edge11_Node000010_Node000006"><a xlink:title=" ">
<path fill="none" stroke="#63b8ff" d="M202.86,-56.34C192.71,-48.4 178.18,-37.03 166.26,-27.71"/>
<polygon fill="#63b8ff" stroke="#63b8ff" points="168.81,-24.48 158.78,-21.08 164.5,-30 168.81,-24.48"/>
</a>
</g>
</g>
<!-- Node10&#45;&gt;Node8 -->
<g id="edge10_Node000010_Node000008" class="edge">
<title>Node10&#45;&gt;Node8</title>
<g id="a_edge10_Node000010_Node000008"><a xlink:title=" ">
<path fill="none" stroke="#63b8ff" d="M237.36,-56.34C256.69,-47.73 285.05,-35.11 306.8,-25.43"/>
<polygon fill="#63b8ff" stroke="#63b8ff" points="307.86,-28.34 315.58,-21.08 305.02,-21.95 307.86,-28.34"/>
</a>
</g>
</g>
<!-- Node17 -->
<g id="Node000017" class="node">
<title>Node17</title>
<g id="a_Node000017"><a xlink:href="tbb__tools_8h.html" target="_top" xlink:title=" ">
<polygon fill="#fff0f0" stroke="red" points="259.38,-134.25 189.38,-134.25 189.38,-113.5 259.38,-113.5 259.38,-134.25"/>
<text text-anchor="middle" x="224.38" y="-120.75" font-family="FreeSans" font-size="10.00">tbb_tools.h</text>
</a>
</g>
</g>
<!-- Node16&#45;&gt;Node17 -->
<g id="edge15_Node000016_Node000017" class="edge">
<title>Node16&#45;&gt;Node17</title>
<g id="a_edge15_Node000016_Node000017"><a xlink:title=" ">
<path fill="none" stroke="#63b8ff" d="M199.74,-169.84C203.66,-162.67 209.11,-152.73 213.89,-144.01"/>
<polygon fill="#63b8ff" stroke="#63b8ff" points="217.32,-146.03 219.06,-135.58 211.18,-142.67 217.32,-146.03"/>
</a>
</g>
</g>
<!-- Node25 -->
<g id="Node000025" class="node">
<title>Node25</title>
<g id="a_Node000025"><a xlink:title=" ">
<polygon fill="#e0e0e0" stroke="#999999" points="105.88,-134.25 38.88,-134.25 38.88,-113.5 105.88,-113.5 105.88,-134.25"/>
<text text-anchor="middle" x="72.38" y="-120.75" font-family="FreeSans" font-size="10.00">sys/time.h</text>
</a>
</g>
</g>
<!-- Node16&#45;&gt;Node25 -->
<g id="edge16_Node000016_Node000025" class="edge">
<title>Node16&#45;&gt;Node25</title>
<g id="a_edge16_Node000016_Node000025"><a xlink:title=" ">
<path fill="none" stroke="#63b8ff" d="M172.56,-169.84C153.48,-161.27 125.52,-148.73 103.99,-139.06"/>
<polygon fill="#63b8ff" stroke="#63b8ff" points="105.55,-135.48 95,-134.58 102.69,-141.87 105.55,-135.48"/>
</a>
</g>
</g>
<!-- Node26 -->
<g id="Node000026" class="node">
<title>Node26</title>
<g id="a_Node000026"><a xlink:title=" ">
<polygon fill="#e0e0e0" stroke="#999999" points="171.12,-134.25 123.62,-134.25 123.62,-113.5 171.12,-113.5 171.12,-134.25"/>
<text text-anchor="middle" x="147.38" y="-120.75" font-family="FreeSans" font-size="10.00">time.h</text>
</a>
</g>
</g>
<!-- Node16&#45;&gt;Node26 -->
<g id="edge17_Node000016_Node000026" class="edge">
<title>Node16&#45;&gt;Node26</title>
<g id="a_edge17_Node000016_Node000026"><a xlink:title=" ">
<path fill="none" stroke="#63b8ff" d="M185.97,-169.84C179.56,-162.36 170.54,-151.86 162.83,-142.88"/>
<polygon fill="#63b8ff" stroke="#63b8ff" points="164.87,-140.89 155.7,-135.58 159.56,-145.45 164.87,-140.89"/>
</a>
</g>
</g>
<!-- Node27&#45;&gt;Node3 -->
<g id="edge19_Node000027_Node000003" class="edge">
<title>Node27&#45;&gt;Node3</title>
<g id="a_edge19_Node000027_Node000003"><a xlink:title=" ">
<path fill="none" stroke="#63b8ff" d="M338.19,-169.84C334.44,-162.75 329.24,-152.94 324.66,-144.29"/>
<polygon fill="#63b8ff" stroke="#63b8ff" points="327.29,-142.78 319.51,-135.58 321.1,-146.05 327.29,-142.78"/>
</a>
</g>
</g>
<!-- Node27&#45;&gt;Node8 -->
<g id="edge20_Node000027_Node000008" class="edge">
<title>Node27&#45;&gt;Node8</title>
<g id="a_edge20_Node000027_Node000008"><a xlink:title=" ">
<path fill="none" stroke="#63b8ff" d="M382.31,-179.08C491.63,-176.26 787.72,-159.23 697.38,-56.75 675.95,-32.45 455.98,-17.85 371.33,-13.1"/>
<polygon fill="#63b8ff" stroke="#63b8ff" points="371.72,-9.56 361.55,-12.5 371.34,-16.55 371.72,-9.56"/>
</a>
</g>
</g>
</g>
</svg>
