<?xml version="1.0" encoding="UTF-8" standalone="no"?>
<!DOCTYPE svg PUBLIC "-//W3C//DTD SVG 1.1//EN"
 "http://www.w3.org/Graphics/SVG/1.1/DTD/svg11.dtd">
<!-- Generated by graphviz version 2.26.3 (20100126.1600)
 -->
<!-- Title: src/splitSolver.h Pages: 1 -->
<svg width="631pt" height="274pt"
 viewBox="0.00 0.00 631.00 274.00" xmlns="http://www.w3.org/2000/svg" xmlns:xlink="http://www.w3.org/1999/xlink">
<g id="graph1" class="graph" transform="scale(1 1) rotate(0) translate(4 270)">
<title>src/splitSolver.h</title>
<polygon fill="white" stroke="white" points="-4,5 -4,-270 628,-270 628,5 -4,5"/>
<!-- Node1 -->
<g id="node1" class="node"><title>Node1</title>
<polygon fill="#bfbfbf" stroke="black" points="336,-245 336,-265 420,-265 420,-245 336,-245"/>
<text text-anchor="middle" x="378" y="-252" font-family="FreeSans" font-size="10.00">src/splitSolver.h</text>
</g>
<!-- Node2 -->
<g id="node3" class="node"><title>Node2</title>
<a xlink:href="mathUtils_8h.html" target="_top" xlink:title="mathUtils.h">
<polygon fill="white" stroke="black" points="377.5,-123 377.5,-143 442.5,-143 442.5,-123 377.5,-123"/>
<text text-anchor="middle" x="410" y="-130" font-family="FreeSans" font-size="10.00">mathUtils.h</text>
</a>
</g>
<!-- Node1&#45;&gt;Node2 -->
<g id="edge2" class="edge"><title>Node1&#45;&gt;Node2</title>
<path fill="none" stroke="midnightblue" d="M380.728,-244.598C386.045,-224.329 397.872,-179.238 404.755,-152.997"/>
<polygon fill="midnightblue" stroke="midnightblue" points="408.217,-153.593 407.369,-143.032 401.446,-151.817 408.217,-153.593"/>
</g>
<!-- Node14 -->
<g id="node29" class="node"><title>Node14</title>
<a xlink:href="perfTimer_8h.html" target="_top" xlink:title="perfTimer.h">
<polygon fill="white" stroke="black" points="238.5,-187 238.5,-207 303.5,-207 303.5,-187 238.5,-187"/>
<text text-anchor="middle" x="271" y="-194" font-family="FreeSans" font-size="10.00">perfTimer.h</text>
</a>
</g>
<!-- Node1&#45;&gt;Node14 -->
<g id="edge30" class="edge"><title>Node1&#45;&gt;Node14</title>
<path fill="none" stroke="midnightblue" d="M359.362,-244.897C342.588,-235.804 317.714,-222.322 298.628,-211.976"/>
<polygon fill="midnightblue" stroke="midnightblue" points="300.243,-208.87 289.783,-207.182 296.907,-215.024 300.243,-208.87"/>
</g>
<!-- Node19 -->
<g id="node39" class="node"><title>Node19</title>
<a xlink:href="readConfig_8h.html" target="_top" xlink:title="readConfig.h">
<polygon fill="white" stroke="black" points="406,-187 406,-207 476,-207 476,-187 406,-187"/>
<text text-anchor="middle" x="441" y="-194" font-family="FreeSans" font-size="10.00">readConfig.h</text>
</a>
</g>
<!-- Node1&#45;&gt;Node19 -->
<g id="edge40" class="edge"><title>Node1&#45;&gt;Node19</title>
<path fill="none" stroke="midnightblue" d="M388.974,-244.897C398.165,-236.435 411.486,-224.172 422.348,-214.172"/>
<polygon fill="midnightblue" stroke="midnightblue" points="424.741,-216.726 429.728,-207.378 420,-211.576 424.741,-216.726"/>
</g>
<!-- Node3 -->
<g id="node5" class="node"><title>Node3</title>
<polygon fill="white" stroke="#bfbfbf" points="532.5,-59 532.5,-79 575.5,-79 575.5,-59 532.5,-59"/>
<text text-anchor="middle" x="554" y="-66" font-family="FreeSans" font-size="10.00">vector</text>
</g>
<!-- Node2&#45;&gt;Node3 -->
<g id="edge4" class="edge"><title>Node2&#45;&gt;Node3</title>
<path fill="none" stroke="midnightblue" d="M432.817,-122.859C457.114,-112.06 495.725,-94.9 522.819,-82.8582"/>
<polygon fill="midnightblue" stroke="midnightblue" points="524.516,-85.9344 532.232,-78.6746 521.673,-79.5377 524.516,-85.9344"/>
</g>
<!-- Node4 -->
<g id="node7" class="node"><title>Node4</title>
<polygon fill="white" stroke="#bfbfbf" points="139,-59 139,-79 183,-79 183,-59 139,-59"/>
<text text-anchor="middle" x="161" y="-66" font-family="FreeSans" font-size="10.00">cmath</text>
</g>
<!-- Node2&#45;&gt;Node4 -->
<g id="edge6" class="edge"><title>Node2&#45;&gt;Node4</title>
<path fill="none" stroke="midnightblue" d="M387.721,-122.878C381.724,-120.398 375.184,-117.911 369,-116 294.38,-92.9427 272.645,-99.431 197,-80 195.754,-79.6799 194.486,-79.344 193.208,-78.9965"/>
<polygon fill="midnightblue" stroke="midnightblue" points="193.957,-75.5703 183.38,-76.18 192.029,-82.2995 193.957,-75.5703"/>
</g>
<!-- Node5 -->
<g id="node9" class="node"><title>Node5</title>
<polygon fill="white" stroke="#bfbfbf" points="184.5,-1 184.5,-21 237.5,-21 237.5,-1 184.5,-1"/>
<text text-anchor="middle" x="211" y="-8" font-family="FreeSans" font-size="10.00">iostream</text>
</g>
<!-- Node2&#45;&gt;Node5 -->
<g id="edge8" class="edge"><title>Node2&#45;&gt;Node5</title>
<path fill="none" stroke="midnightblue" d="M387.229,-122.897C381.351,-120.473 374.991,-118.007 369,-116 308.489,-95.7294 275.468,-124.779 230,-80 217.177,-67.3719 212.782,-46.945 211.383,-31.587"/>
<polygon fill="midnightblue" stroke="midnightblue" points="214.871,-31.2719 210.816,-21.4838 207.882,-31.6642 214.871,-31.2719"/>
</g>
<!-- Node6 -->
<g id="node11" class="node"><title>Node6</title>
<polygon fill="white" stroke="#bfbfbf" points="239,-59 239,-79 289,-79 289,-59 239,-59"/>
<text text-anchor="middle" x="264" y="-66" font-family="FreeSans" font-size="10.00">sstream</text>
</g>
<!-- Node2&#45;&gt;Node6 -->
<g id="edge10" class="edge"><title>Node2&#45;&gt;Node6</title>
<path fill="none" stroke="midnightblue" d="M386.866,-122.859C362.411,-112.139 323.655,-95.15 296.217,-83.1225"/>
<polygon fill="midnightblue" stroke="midnightblue" points="297.59,-79.9028 287.026,-79.0935 294.779,-86.3139 297.59,-79.9028"/>
</g>
<!-- Node7 -->
<g id="node13" class="node"><title>Node7</title>
<polygon fill="white" stroke="#bfbfbf" points="583,-1 583,-21 623,-21 623,-1 583,-1"/>
<text text-anchor="middle" x="603" y="-8" font-family="FreeSans" font-size="10.00">string</text>
</g>
<!-- Node2&#45;&gt;Node7 -->
<g id="edge12" class="edge"><title>Node2&#45;&gt;Node7</title>
<path fill="none" stroke="midnightblue" d="M442.78,-126.922C487.502,-117.996 564.341,-100.196 584,-80 596.553,-67.1039 600.983,-46.7123 602.464,-31.4354"/>
<polygon fill="midnightblue" stroke="midnightblue" points="605.961,-31.5956 603.095,-21.3957 598.975,-31.1565 605.961,-31.5956"/>
</g>
<!-- Node8 -->
<g id="node15" class="node"><title>Node8</title>
<polygon fill="white" stroke="#bfbfbf" points="392.5,-59 392.5,-79 427.5,-79 427.5,-59 392.5,-59"/>
<text text-anchor="middle" x="410" y="-66" font-family="FreeSans" font-size="10.00">map</text>
</g>
<!-- Node2&#45;&gt;Node8 -->
<g id="edge14" class="edge"><title>Node2&#45;&gt;Node8</title>
<path fill="none" stroke="midnightblue" d="M410,-122.717C410,-113.707 410,-100.347 410,-89.2054"/>
<polygon fill="midnightblue" stroke="midnightblue" points="413.5,-89.0461 410,-79.0462 406.5,-89.0462 413.5,-89.0461"/>
</g>
<!-- Node9 -->
<g id="node17" class="node"><title>Node9</title>
<a xlink:href="debugUtils_8h.html" target="_top" xlink:title="debugUtils.h">
<polygon fill="white" stroke="black" points="306.5,-59 306.5,-79 375.5,-79 375.5,-59 306.5,-59"/>
<text text-anchor="middle" x="341" y="-66" font-family="FreeSans" font-size="10.00">debugUtils.h</text>
</a>
</g>
<!-- Node2&#45;&gt;Node9 -->
<g id="edge16" class="edge"><title>Node2&#45;&gt;Node9</title>
<path fill="none" stroke="midnightblue" d="M398.914,-122.717C388.289,-112.862 372.054,-97.804 359.474,-86.1356"/>
<polygon fill="midnightblue" stroke="midnightblue" points="361.543,-83.2805 351.831,-79.0462 356.783,-88.4128 361.543,-83.2805"/>
</g>
<!-- Node13 -->
<g id="node27" class="node"><title>Node13</title>
<polygon fill="white" stroke="#bfbfbf" points="444.5,-59 444.5,-79 515.5,-79 515.5,-59 444.5,-59"/>
<text text-anchor="middle" x="480" y="-66" font-family="FreeSans" font-size="10.00">Eigen/Dense</text>
</g>
<!-- Node2&#45;&gt;Node13 -->
<g id="edge28" class="edge"><title>Node2&#45;&gt;Node13</title>
<path fill="none" stroke="midnightblue" d="M421.247,-122.717C432.128,-112.768 448.81,-97.5167 461.622,-85.8032"/>
<polygon fill="midnightblue" stroke="midnightblue" points="463.993,-88.377 469.012,-79.0462 459.27,-83.2108 463.993,-88.377"/>
</g>
<!-- Node9&#45;&gt;Node5 -->
<g id="edge20" class="edge"><title>Node9&#45;&gt;Node5</title>
<path fill="none" stroke="midnightblue" d="M318.356,-58.8972C297.512,-49.5978 266.377,-35.7066 242.996,-25.2752"/>
<polygon fill="midnightblue" stroke="midnightblue" points="244.379,-22.0598 233.821,-21.1817 241.527,-28.4524 244.379,-22.0598"/>
</g>
<!-- Node9&#45;&gt;Node7 -->
<g id="edge18" class="edge"><title>Node9&#45;&gt;Node7</title>
<path fill="none" stroke="midnightblue" d="M375.705,-59.9981C378.508,-59.3088 381.3,-58.6349 384,-58 451.177,-42.2055 530.456,-25.7236 572.778,-17.097"/>
<polygon fill="midnightblue" stroke="midnightblue" points="573.609,-20.4998 582.712,-15.0783 572.215,-13.64 573.609,-20.4998"/>
</g>
<!-- Node10 -->
<g id="node21" class="node"><title>Node10</title>
<polygon fill="white" stroke="#bfbfbf" points="254.5,-1 254.5,-21 303.5,-21 303.5,-1 254.5,-1"/>
<text text-anchor="middle" x="279" y="-8" font-family="FreeSans" font-size="10.00">fstream</text>
</g>
<!-- Node9&#45;&gt;Node10 -->
<g id="edge22" class="edge"><title>Node9&#45;&gt;Node10</title>
<path fill="none" stroke="midnightblue" d="M330.2,-58.8972C321.243,-50.5175 308.3,-38.4093 297.668,-28.4638"/>
<polygon fill="midnightblue" stroke="midnightblue" points="299.787,-25.6532 290.093,-21.3776 295.005,-30.7652 299.787,-25.6532"/>
</g>
<!-- Node11 -->
<g id="node23" class="node"><title>Node11</title>
<polygon fill="white" stroke="#bfbfbf" points="321,-1 321,-21 379,-21 379,-1 321,-1"/>
<text text-anchor="middle" x="350" y="-8" font-family="FreeSans" font-size="10.00">exception</text>
</g>
<!-- Node9&#45;&gt;Node11 -->
<g id="edge24" class="edge"><title>Node9&#45;&gt;Node11</title>
<path fill="none" stroke="midnightblue" d="M342.568,-58.8972C343.74,-51.339 345.384,-40.7476 346.827,-31.4458"/>
<polygon fill="midnightblue" stroke="midnightblue" points="350.315,-31.7961 348.39,-21.3776 343.398,-30.7226 350.315,-31.7961"/>
</g>
<!-- Node12 -->
<g id="node25" class="node"><title>Node12</title>
<polygon fill="white" stroke="#bfbfbf" points="396.5,-1 396.5,-21 485.5,-21 485.5,-1 396.5,-1"/>
<text text-anchor="middle" x="441" y="-8" font-family="FreeSans" font-size="10.00">boost/format.hpp</text>
</g>
<!-- Node9&#45;&gt;Node12 -->
<g id="edge26" class="edge"><title>Node9&#45;&gt;Node12</title>
<path fill="none" stroke="midnightblue" d="M358.419,-58.8972C373.953,-49.8871 396.92,-36.5665 414.692,-26.2586"/>
<polygon fill="midnightblue" stroke="midnightblue" points="416.551,-29.2265 423.445,-21.1817 413.039,-23.1713 416.551,-29.2265"/>
</g>
<!-- Node15 -->
<g id="node31" class="node"><title>Node15</title>
<polygon fill="white" stroke="#bfbfbf" points="0,-123 0,-143 90,-143 90,-123 0,-123"/>
<text text-anchor="middle" x="45" y="-130" font-family="FreeSans" font-size="10.00">tbb/combinable.h</text>
</g>
<!-- Node14&#45;&gt;Node15 -->
<g id="edge32" class="edge"><title>Node14&#45;&gt;Node15</title>
<path fill="none" stroke="midnightblue" d="M238.241,-188.448C203.557,-179.299 147.262,-164.185 99,-150 94.6933,-148.734 90.2045,-147.379 85.7357,-146.006"/>
<polygon fill="midnightblue" stroke="midnightblue" points="86.6512,-142.626 76.0631,-143.002 84.5749,-149.311 86.6512,-142.626"/>
</g>
<!-- Node16 -->
<g id="node33" class="node"><title>Node16</title>
<polygon fill="white" stroke="#bfbfbf" points="108,-117 108,-149 224,-149 224,-117 108,-117"/>
<text text-anchor="start" x="116" y="-136" font-family="FreeSans" font-size="10.00">tbb/enumerable_thread</text>
<text text-anchor="middle" x="166" y="-124" font-family="FreeSans" font-size="10.00">_specific.h</text>
</g>
<!-- Node14&#45;&gt;Node16 -->
<g id="edge34" class="edge"><title>Node14&#45;&gt;Node16</title>
<path fill="none" stroke="midnightblue" d="M254.13,-186.717C239.913,-178.051 219.095,-165.362 201.262,-154.493"/>
<polygon fill="midnightblue" stroke="midnightblue" points="202.619,-151.221 192.259,-149.005 198.976,-157.199 202.619,-151.221"/>
</g>
<!-- Node17 -->
<g id="node35" class="node"><title>Node17</title>
<polygon fill="white" stroke="#bfbfbf" points="241.5,-123 241.5,-143 300.5,-143 300.5,-123 241.5,-123"/>
<text text-anchor="middle" x="271" y="-130" font-family="FreeSans" font-size="10.00">sys/time.h</text>
</g>
<!-- Node14&#45;&gt;Node17 -->
<g id="edge36" class="edge"><title>Node14&#45;&gt;Node17</title>
<path fill="none" stroke="midnightblue" d="M271,-186.717C271,-177.707 271,-164.347 271,-153.205"/>
<polygon fill="midnightblue" stroke="midnightblue" points="274.5,-153.046 271,-143.046 267.5,-153.046 274.5,-153.046"/>
</g>
<!-- Node18 -->
<g id="node37" class="node"><title>Node18</title>
<polygon fill="white" stroke="#bfbfbf" points="317.5,-123 317.5,-143 360.5,-143 360.5,-123 317.5,-123"/>
<text text-anchor="middle" x="339" y="-130" font-family="FreeSans" font-size="10.00">time.h</text>
</g>
<!-- Node14&#45;&gt;Node18 -->
<g id="edge38" class="edge"><title>Node14&#45;&gt;Node18</title>
<path fill="none" stroke="midnightblue" d="M281.925,-186.717C292.396,-176.862 308.396,-161.804 320.793,-150.136"/>
<polygon fill="midnightblue" stroke="midnightblue" points="323.443,-152.449 328.326,-143.046 318.645,-147.351 323.443,-152.449"/>
</g>
<!-- Node19&#45;&gt;Node2 -->
<g id="edge42" class="edge"><title>Node19&#45;&gt;Node2</title>
<path fill="none" stroke="midnightblue" d="M436.019,-186.717C431.519,-177.425 424.777,-163.508 419.284,-152.168"/>
<polygon fill="midnightblue" stroke="midnightblue" points="422.375,-150.52 414.866,-143.046 416.076,-153.572 422.375,-150.52"/>
</g>
<!-- Node19&#45;&gt;Node7 -->
<g id="edge44" class="edge"><title>Node19&#45;&gt;Node7</title>
<path fill="none" stroke="midnightblue" d="M467.999,-186.937C506.418,-170.965 575.374,-135.785 604,-80 611.758,-64.8809 610.612,-45.333 608.047,-30.9057"/>
<polygon fill="midnightblue" stroke="midnightblue" points="611.449,-30.0752 605.933,-21.0293 604.604,-31.5404 611.449,-30.0752"/>
</g>
</g>
</svg>
