<?xml version="1.0" encoding="UTF-8" standalone="no"?>
<!DOCTYPE svg PUBLIC "-//W3C//DTD SVG 1.1//EN"
 "http://www.w3.org/Graphics/SVG/1.1/DTD/svg11.dtd">
<!-- Generated by graphviz version 2.28.0 (20120425.2022)
 -->
<!-- Title: src/splitSolver.cpp Pages: 1 -->
<svg width="180pt" height="196pt"
 viewBox="0.00 0.00 179.59 196.00" xmlns="http://www.w3.org/2000/svg" xmlns:xlink="http://www.w3.org/1999/xlink">
<g id="graph1" class="graph" transform="scale(1 1) rotate(0) translate(4 192)">
<title>src/splitSolver.cpp</title>
<polygon fill="white" stroke="white" points="-4,5 -4,-192 176.595,-192 176.595,5 -4,5"/>
<!-- Node1 -->
<g id="node1" class="node"><title>Node1</title>
<polygon fill="#bfbfbf" stroke="black" points="40.5948,-168.5 40.5948,-187.5 138.595,-187.5 138.595,-168.5 40.5948,-168.5"/>
<text text-anchor="middle" x="89.5948" y="-175.5" font-family="FreeSans" font-size="10.00">src/splitSolver.cpp</text>
</g>
<!-- Node2 -->
<g id="node3" class="node"><title>Node2</title>
<a xlink:href="splitSolver_8h.html" target="_top" xlink:title="splitSolver.h">
<polygon fill="white" stroke="black" points="16.0948,-112.5 16.0948,-131.5 87.0948,-131.5 87.0948,-112.5 16.0948,-112.5"/>
<text text-anchor="middle" x="51.5948" y="-119.5" font-family="FreeSans" font-size="10.00">splitSolver.h</text>
</a>
</g>
<!-- Node1&#45;&gt;Node2 -->
<g id="edge2" class="edge"><title>Node1&#45;&gt;Node2</title>
<path fill="none" stroke="midnightblue" d="M83.3198,-168.083C77.9523,-160.455 70.0772,-149.264 63.5161,-139.941"/>
<polygon fill="midnightblue" stroke="midnightblue" points="66.3702,-137.915 57.7529,-131.751 60.6456,-141.943 66.3702,-137.915"/>
</g>
<!-- Node5 -->
<g id="node9" class="node"><title>Node5</title>
<a xlink:href="readConfig_8h.html" target="_top" xlink:title="readConfig.h">
<polygon fill="white" stroke="red" points="97.5948,-56.5 97.5948,-75.5 171.595,-75.5 171.595,-56.5 97.5948,-56.5"/>
<text text-anchor="middle" x="134.595" y="-63.5" font-family="FreeSans" font-size="10.00">readConfig.h</text>
</a>
</g>
<!-- Node1&#45;&gt;Node5 -->
<g id="edge12" class="edge"><title>Node1&#45;&gt;Node5</title>
<path fill="none" stroke="midnightblue" d="M93.1259,-168.368C100.454,-150.456 117.444,-108.923 127.252,-84.9482"/>
<polygon fill="midnightblue" stroke="midnightblue" points="130.533,-86.1721 131.08,-75.5914 124.054,-83.5217 130.533,-86.1721"/>
</g>
<!-- Node3 -->
<g id="node5" class="node"><title>Node3</title>
<a xlink:href="mathUtils_8h.html" target="_top" xlink:title="mathUtils.h">
<polygon fill="white" stroke="red" points="26.0948,-0.5 26.0948,-19.5 91.0948,-19.5 91.0948,-0.5 26.0948,-0.5"/>
<text text-anchor="middle" x="58.5948" y="-7.5" font-family="FreeSans" font-size="10.00">mathUtils.h</text>
</a>
</g>
<!-- Node2&#45;&gt;Node3 -->
<g id="edge4" class="edge"><title>Node2&#45;&gt;Node3</title>
<path fill="none" stroke="midnightblue" d="M37.0806,-112.495C19.0362,-100.741 -8.15525,-78.4292 2.59478,-56 8.84747,-42.9542 20.9305,-32.4921 32.2769,-24.9506"/>
<polygon fill="midnightblue" stroke="midnightblue" points="34.4042,-27.7515 41.0931,-19.5351 30.7403,-21.7869 34.4042,-27.7515"/>
</g>
<!-- Node4 -->
<g id="node7" class="node"><title>Node4</title>
<a xlink:href="perfTimer_8h.html" target="_top" xlink:title="perfTimer.h">
<polygon fill="white" stroke="red" points="11.5948,-56.5 11.5948,-75.5 79.5948,-75.5 79.5948,-56.5 11.5948,-56.5"/>
<text text-anchor="middle" x="45.5948" y="-63.5" font-family="FreeSans" font-size="10.00">perfTimer.h</text>
</a>
</g>
<!-- Node2&#45;&gt;Node4 -->
<g id="edge6" class="edge"><title>Node2&#45;&gt;Node4</title>
<path fill="none" stroke="midnightblue" d="M50.604,-112.083C49.8089,-104.927 48.6654,-94.6353 47.6716,-85.6911"/>
<polygon fill="midnightblue" stroke="midnightblue" points="51.1501,-85.3034 46.5671,-75.7511 44.1929,-86.0765 51.1501,-85.3034"/>
</g>
<!-- Node2&#45;&gt;Node5 -->
<g id="edge8" class="edge"><title>Node2&#45;&gt;Node5</title>
<path fill="none" stroke="midnightblue" d="M64.9302,-112.324C77.7567,-103.979 97.3798,-91.2122 112.535,-81.3524"/>
<polygon fill="midnightblue" stroke="midnightblue" points="114.819,-84.0417 121.292,-75.6545 111.002,-78.1742 114.819,-84.0417"/>
</g>
<!-- Node5&#45;&gt;Node3 -->
<g id="edge10" class="edge"><title>Node5&#45;&gt;Node3</title>
<path fill="none" stroke="midnightblue" d="M122.384,-56.324C110.819,-48.1066 93.2194,-35.6017 79.4341,-25.8069"/>
<polygon fill="midnightblue" stroke="midnightblue" points="81.2067,-22.7729 71.0277,-19.8339 77.1523,-28.4791 81.2067,-22.7729"/>
</g>
</g>
</svg>
