<?xml version="1.0" encoding="UTF-8" standalone="no"?>
<!DOCTYPE svg PUBLIC "-//W3C//DTD SVG 1.1//EN"
 "http://www.w3.org/Graphics/SVG/1.1/DTD/svg11.dtd">
<!-- Generated by graphviz version 2.28.0 (20120425.2022)
 -->
<!-- Title: src/splitSolver.h Pages: 1 -->
<svg width="652pt" height="264pt"
 viewBox="0.00 0.00 652.00 264.00" xmlns="http://www.w3.org/2000/svg" xmlns:xlink="http://www.w3.org/1999/xlink">
<g id="graph1" class="graph" transform="scale(1 1) rotate(0) translate(4 260)">
<title>src/splitSolver.h</title>
<polygon fill="white" stroke="white" points="-4,5 -4,-260 649,-260 649,5 -4,5"/>
<!-- Node1 -->
<g id="node1" class="node"><title>Node1</title>
<polygon fill="#bfbfbf" stroke="black" points="345.5,-236.5 345.5,-255.5 432.5,-255.5 432.5,-236.5 345.5,-236.5"/>
<text text-anchor="middle" x="389" y="-243.5" font-family="FreeSans" font-size="10.00">src/splitSolver.h</text>
</g>
<!-- Node2 -->
<g id="node3" class="node"><title>Node2</title>
<a xlink:href="mathUtils_8h.html" target="_top" xlink:title="mathUtils.h">
<polygon fill="white" stroke="black" points="389.5,-118.5 389.5,-137.5 454.5,-137.5 454.5,-118.5 389.5,-118.5"/>
<text text-anchor="middle" x="422" y="-125.5" font-family="FreeSans" font-size="10.00">mathUtils.h</text>
</a>
</g>
<!-- Node1&#45;&gt;Node2 -->
<g id="edge2" class="edge"><title>Node1&#45;&gt;Node2</title>
<path fill="none" stroke="midnightblue" d="M391.48,-236.281C396.834,-217.463 409.569,-172.697 416.783,-147.34"/>
<polygon fill="midnightblue" stroke="midnightblue" points="420.211,-148.081 419.581,-137.505 413.478,-146.165 420.211,-148.081"/>
</g>
<!-- Node11 -->
<g id="node23" class="node"><title>Node11</title>
<a xlink:href="perfTimer_8h.html" target="_top" xlink:title="perfTimer.h">
<polygon fill="white" stroke="black" points="245,-180.5 245,-199.5 313,-199.5 313,-180.5 245,-180.5"/>
<text text-anchor="middle" x="279" y="-187.5" font-family="FreeSans" font-size="10.00">perfTimer.h</text>
</a>
</g>
<!-- Node1&#45;&gt;Node11 -->
<g id="edge24" class="edge"><title>Node1&#45;&gt;Node11</title>
<path fill="none" stroke="midnightblue" d="M371.327,-236.324C353.606,-227.625 326.097,-214.12 305.712,-204.113"/>
<polygon fill="midnightblue" stroke="midnightblue" points="307.149,-200.919 296.63,-199.655 304.064,-207.203 307.149,-200.919"/>
</g>
<!-- Node16 -->
<g id="node33" class="node"><title>Node16</title>
<a xlink:href="readConfig_8h.html" target="_top" xlink:title="readConfig.h">
<polygon fill="white" stroke="black" points="417,-180.5 417,-199.5 491,-199.5 491,-180.5 417,-180.5"/>
<text text-anchor="middle" x="454" y="-187.5" font-family="FreeSans" font-size="10.00">readConfig.h</text>
</a>
</g>
<!-- Node1&#45;&gt;Node16 -->
<g id="edge34" class="edge"><title>Node1&#45;&gt;Node16</title>
<path fill="none" stroke="midnightblue" d="M399.443,-236.324C409.146,-228.263 423.815,-216.077 435.5,-206.369"/>
<polygon fill="midnightblue" stroke="midnightblue" points="437.911,-208.916 443.367,-199.834 433.438,-203.532 437.911,-208.916"/>
</g>
<!-- Node3 -->
<g id="node5" class="node"><title>Node3</title>
<polygon fill="white" stroke="#bfbfbf" points="551,-56.5 551,-75.5 595,-75.5 595,-56.5 551,-56.5"/>
<text text-anchor="middle" x="573" y="-63.5" font-family="FreeSans" font-size="10.00">vector</text>
</g>
<!-- Node2&#45;&gt;Node3 -->
<g id="edge4" class="edge"><title>Node2&#45;&gt;Node3</title>
<path fill="none" stroke="midnightblue" d="M443.635,-118.403C469.424,-108.156 512.711,-90.9561 542.04,-79.3021"/>
<polygon fill="midnightblue" stroke="midnightblue" points="543.405,-82.526 551.406,-75.5806 540.82,-76.0207 543.405,-82.526"/>
</g>
<!-- Node4 -->
<g id="node7" class="node"><title>Node4</title>
<polygon fill="white" stroke="#bfbfbf" points="143,-56.5 143,-75.5 187,-75.5 187,-56.5 143,-56.5"/>
<text text-anchor="middle" x="165" y="-63.5" font-family="FreeSans" font-size="10.00">cmath</text>
</g>
<!-- Node2&#45;&gt;Node4 -->
<g id="edge6" class="edge"><title>Node2&#45;&gt;Node4</title>
<path fill="none" stroke="midnightblue" d="M399.959,-118.453C393.58,-116.164 386.565,-113.822 380,-112 301.808,-90.2967 280.162,-93.8455 201,-76 199.727,-75.7131 198.431,-75.4153 197.122,-75.1101"/>
<polygon fill="midnightblue" stroke="midnightblue" points="197.588,-71.6222 187.046,-72.6838 195.949,-78.4277 197.588,-71.6222"/>
</g>
<!-- Node5 -->
<g id="node9" class="node"><title>Node5</title>
<polygon fill="white" stroke="#bfbfbf" points="255,-0.5 255,-19.5 311,-19.5 311,-0.5 255,-0.5"/>
<text text-anchor="middle" x="283" y="-7.5" font-family="FreeSans" font-size="10.00">iostream</text>
</g>
<!-- Node2&#45;&gt;Node5 -->
<g id="edge8" class="edge"><title>Node2&#45;&gt;Node5</title>
<path fill="none" stroke="midnightblue" d="M399.47,-118.48C393.208,-116.242 386.376,-113.919 380,-112 316.004,-92.7362 275.214,-128.611 234,-76 220.533,-58.809 241.178,-38.6884 259.66,-25.4386"/>
<polygon fill="midnightblue" stroke="midnightblue" points="261.817,-28.2049 268.134,-19.6993 257.891,-22.409 261.817,-28.2049"/>
</g>
<!-- Node6 -->
<g id="node11" class="node"><title>Node6</title>
<polygon fill="white" stroke="#bfbfbf" points="243.5,-56.5 243.5,-75.5 296.5,-75.5 296.5,-56.5 243.5,-56.5"/>
<text text-anchor="middle" x="270" y="-63.5" font-family="FreeSans" font-size="10.00">sstream</text>
</g>
<!-- Node2&#45;&gt;Node6 -->
<g id="edge10" class="edge"><title>Node2&#45;&gt;Node6</title>
<path fill="none" stroke="midnightblue" d="M400.222,-118.403C374.262,-108.156 330.689,-90.9561 301.165,-79.3021"/>
<polygon fill="midnightblue" stroke="midnightblue" points="302.324,-75.9968 291.737,-75.5806 299.754,-82.5079 302.324,-75.9968"/>
</g>
<!-- Node7 -->
<g id="node13" class="node"><title>Node7</title>
<polygon fill="white" stroke="#bfbfbf" points="602.5,-0.5 602.5,-19.5 643.5,-19.5 643.5,-0.5 602.5,-0.5"/>
<text text-anchor="middle" x="623" y="-7.5" font-family="FreeSans" font-size="10.00">string</text>
</g>
<!-- Node2&#45;&gt;Node7 -->
<g id="edge12" class="edge"><title>Node2&#45;&gt;Node7</title>
<path fill="none" stroke="midnightblue" d="M454.697,-126.802C494.928,-124.767 562.823,-115.23 603,-76 615.265,-64.0242 620.051,-44.7252 621.896,-30.2616"/>
<polygon fill="midnightblue" stroke="midnightblue" points="625.416,-30.2061 622.832,-19.931 618.444,-29.5743 625.416,-30.2061"/>
</g>
<!-- Node8 -->
<g id="node15" class="node"><title>Node8</title>
<polygon fill="white" stroke="#bfbfbf" points="404,-56.5 404,-75.5 440,-75.5 440,-56.5 404,-56.5"/>
<text text-anchor="middle" x="422" y="-63.5" font-family="FreeSans" font-size="10.00">map</text>
</g>
<!-- Node2&#45;&gt;Node8 -->
<g id="edge14" class="edge"><title>Node2&#45;&gt;Node8</title>
<path fill="none" stroke="midnightblue" d="M422,-118.403C422,-109.938 422,-96.7283 422,-85.8199"/>
<polygon fill="midnightblue" stroke="midnightblue" points="425.5,-85.5806 422,-75.5806 418.5,-85.5806 425.5,-85.5806"/>
</g>
<!-- Node9 -->
<g id="node17" class="node"><title>Node9</title>
<a xlink:href="debugUtils_8h.html" target="_top" xlink:title="debugUtils.h">
<polygon fill="white" stroke="red" points="314.5,-56.5 314.5,-75.5 385.5,-75.5 385.5,-56.5 314.5,-56.5"/>
<text text-anchor="middle" x="350" y="-63.5" font-family="FreeSans" font-size="10.00">debugUtils.h</text>
</a>
</g>
<!-- Node2&#45;&gt;Node9 -->
<g id="edge16" class="edge"><title>Node2&#45;&gt;Node9</title>
<path fill="none" stroke="midnightblue" d="M411.684,-118.403C400.349,-108.958 381.927,-93.6056 368.161,-82.1342"/>
<polygon fill="midnightblue" stroke="midnightblue" points="370.22,-79.2937 360.297,-75.5806 365.738,-84.6713 370.22,-79.2937"/>
</g>
<!-- Node10 -->
<g id="node21" class="node"><title>Node10</title>
<polygon fill="white" stroke="#bfbfbf" points="458.5,-56.5 458.5,-75.5 533.5,-75.5 533.5,-56.5 458.5,-56.5"/>
<text text-anchor="middle" x="496" y="-63.5" font-family="FreeSans" font-size="10.00">Eigen/Dense</text>
</g>
<!-- Node2&#45;&gt;Node10 -->
<g id="edge22" class="edge"><title>Node2&#45;&gt;Node10</title>
<path fill="none" stroke="midnightblue" d="M432.602,-118.403C444.252,-108.958 463.186,-93.6056 477.335,-82.1342"/>
<polygon fill="midnightblue" stroke="midnightblue" points="479.854,-84.5973 485.417,-75.5806 475.445,-79.16 479.854,-84.5973"/>
</g>
<!-- Node9&#45;&gt;Node5 -->
<g id="edge20" class="edge"><title>Node9&#45;&gt;Node5</title>
<path fill="none" stroke="midnightblue" d="M339.235,-56.324C329.234,-48.2631 314.113,-36.0765 302.07,-26.3695"/>
<polygon fill="midnightblue" stroke="midnightblue" points="303.943,-23.3841 293.961,-19.8339 299.55,-28.8343 303.943,-23.3841"/>
</g>
<!-- Node9&#45;&gt;Node7 -->
<g id="edge18" class="edge"><title>Node9&#45;&gt;Node7</title>
<path fill="none" stroke="midnightblue" d="M385.86,-57.8196C388.951,-57.2031 392.031,-56.59 395,-56 465.559,-41.9811 548.431,-25.6612 592.238,-17.0458"/>
<polygon fill="midnightblue" stroke="midnightblue" points="593.111,-20.4411 602.248,-15.0775 591.761,-13.5727 593.111,-20.4411"/>
</g>
<!-- Node12 -->
<g id="node25" class="node"><title>Node12</title>
<polygon fill="white" stroke="#bfbfbf" points="0,-118.5 0,-137.5 92,-137.5 92,-118.5 0,-118.5"/>
<text text-anchor="middle" x="46" y="-125.5" font-family="FreeSans" font-size="10.00">tbb/combinable.h</text>
</g>
<!-- Node11&#45;&gt;Node12 -->
<g id="edge26" class="edge"><title>Node11&#45;&gt;Node12</title>
<path fill="none" stroke="midnightblue" d="M244.828,-180.562C208.957,-171.657 150.942,-157.122 101,-144 96.3394,-142.775 91.4622,-141.474 86.6193,-140.17"/>
<polygon fill="midnightblue" stroke="midnightblue" points="87.3747,-136.748 76.8073,-137.511 85.5438,-143.504 87.3747,-136.748"/>
</g>
<!-- Node13 -->
<g id="node27" class="node"><title>Node13</title>
<polygon fill="white" stroke="#bfbfbf" points="110.5,-113 110.5,-143 229.5,-143 229.5,-113 110.5,-113"/>
<text text-anchor="start" x="118.5" y="-131" font-family="FreeSans" font-size="10.00">tbb/enumerable_thread</text>
<text text-anchor="middle" x="170" y="-120" font-family="FreeSans" font-size="10.00">_specific.h</text>
</g>
<!-- Node11&#45;&gt;Node13 -->
<g id="edge28" class="edge"><title>Node11&#45;&gt;Node13</title>
<path fill="none" stroke="midnightblue" d="M263.383,-180.403C248.138,-172.011 224.422,-158.957 204.706,-148.104"/>
<polygon fill="midnightblue" stroke="midnightblue" points="206.137,-144.897 195.689,-143.141 202.762,-151.029 206.137,-144.897"/>
</g>
<!-- Node14 -->
<g id="node29" class="node"><title>Node14</title>
<polygon fill="white" stroke="#bfbfbf" points="248,-118.5 248,-137.5 310,-137.5 310,-118.5 248,-118.5"/>
<text text-anchor="middle" x="279" y="-125.5" font-family="FreeSans" font-size="10.00">sys/time.h</text>
</g>
<!-- Node11&#45;&gt;Node14 -->
<g id="edge30" class="edge"><title>Node11&#45;&gt;Node14</title>
<path fill="none" stroke="midnightblue" d="M279,-180.403C279,-171.938 279,-158.728 279,-147.82"/>
<polygon fill="midnightblue" stroke="midnightblue" points="282.5,-147.581 279,-137.581 275.5,-147.581 282.5,-147.581"/>
</g>
<!-- Node15 -->
<g id="node31" class="node"><title>Node15</title>
<polygon fill="white" stroke="#bfbfbf" points="328.5,-118.5 328.5,-137.5 371.5,-137.5 371.5,-118.5 328.5,-118.5"/>
<text text-anchor="middle" x="350" y="-125.5" font-family="FreeSans" font-size="10.00">time.h</text>
</g>
<!-- Node11&#45;&gt;Node15 -->
<g id="edge32" class="edge"><title>Node11&#45;&gt;Node15</title>
<path fill="none" stroke="midnightblue" d="M289.173,-180.403C300.35,-170.958 318.517,-155.606 332.091,-144.134"/>
<polygon fill="midnightblue" stroke="midnightblue" points="334.467,-146.709 339.846,-137.581 329.949,-141.362 334.467,-146.709"/>
</g>
<!-- Node16&#45;&gt;Node2 -->
<g id="edge36" class="edge"><title>Node16&#45;&gt;Node2</title>
<path fill="none" stroke="midnightblue" d="M449.415,-180.403C444.71,-171.582 437.257,-157.608 431.309,-146.455"/>
<polygon fill="midnightblue" stroke="midnightblue" points="434.37,-144.757 426.576,-137.581 428.194,-148.051 434.37,-144.757"/>
</g>
<!-- Node16&#45;&gt;Node7 -->
<g id="edge38" class="edge"><title>Node16&#45;&gt;Node7</title>
<path fill="none" stroke="midnightblue" d="M480.763,-180.383C520.459,-165.978 593.527,-132.847 624,-76 631.582,-61.8566 630.433,-43.3723 627.913,-29.7323"/>
<polygon fill="midnightblue" stroke="midnightblue" points="631.246,-28.6026 625.635,-19.6157 624.417,-30.1403 631.246,-28.6026"/>
</g>
</g>
</svg>
