<?xml version="1.0" encoding="UTF-8" standalone="no"?>
<!DOCTYPE svg PUBLIC "-//W3C//DTD SVG 1.1//EN"
 "http://www.w3.org/Graphics/SVG/1.1/DTD/svg11.dtd">
<!-- Generated by graphviz version 8.1.0 (20230707.2238)
 -->
<!-- Title: src/splitSolver.h Pages: 1 -->
<svg width="1061pt" height="256pt"
 viewBox="0.00 0.00 1061.12 255.75" xmlns="http://www.w3.org/2000/svg" xmlns:xlink="http://www.w3.org/1999/xlink">
<g id="graph0" class="graph" transform="scale(1 1) rotate(0) translate(4 251.75)">
<title>src/splitSolver.h</title>
<!-- Node1 -->
<g id="Node000001" class="node">
<title>Node1</title>
<g id="a_Node000001"><a xlink:title=" ">
<polygon fill="#999999" stroke="#666666" points="361,-247.75 267.75,-247.75 267.75,-227 361,-227 361,-247.75"/>
<text text-anchor="middle" x="314.38" y="-234.25" font-family="FreeSans" font-size="10.00">src/splitSolver.h</text>
</a>
</g>
</g>
<!-- Node2 -->
<g id="Node000002" class="node">
<title>Node2</title>
<g id="a_Node000002"><a xlink:href="mathUtils_8h.html" target="_top" xlink:title=" ">
<polygon fill="white" stroke="#666666" points="580.88,-134.25 507.88,-134.25 507.88,-113.5 580.88,-113.5 580.88,-134.25"/>
<text text-anchor="middle" x="544.38" y="-120.75" font-family="FreeSans" font-size="10.00">mathUtils.h</text>
</a>
</g>
</g>
<!-- Node1&#45;&gt;Node2 -->
<g id="edge1_Node000001_Node000002" class="edge">
<title>Node1&#45;&gt;Node2</title>
<g id="a_edge1_Node000001_Node000002"><a xlink:title=" ">
<path fill="none" stroke="#63b8ff" d="M334.38,-226.68C374.91,-207.03 466.87,-162.45 514.51,-139.35"/>
<polygon fill="#63b8ff" stroke="#63b8ff" points="515.78,-142.14 523.25,-134.63 512.72,-135.84 515.78,-142.14"/>
</a>
</g>
</g>
<!-- Node15 -->
<g id="Node000015" class="node">
<title>Node15</title>
<g id="a_Node000015"><a xlink:href="perfTimer_8h.html" target="_top" xlink:title=" ">
<polygon fill="white" stroke="#666666" points="240.5,-191 168.25,-191 168.25,-170.25 240.5,-170.25 240.5,-191"/>
<text text-anchor="middle" x="204.38" y="-177.5" font-family="FreeSans" font-size="10.00">perfTimer.h</text>
</a>
</g>
</g>
<!-- Node1&#45;&gt;Node15 -->
<g id="edge16_Node000001_Node000015" class="edge">
<title>Node1&#45;&gt;Node15</title>
<g id="a_edge16_Node000001_Node000015"><a xlink:title=" ">
<path fill="none" stroke="#63b8ff" d="M294.71,-226.59C277.74,-218.14 252.98,-205.82 233.67,-196.21"/>
<polygon fill="#63b8ff" stroke="#63b8ff" points="235.38,-192.65 224.87,-191.33 232.26,-198.92 235.38,-192.65"/>
</a>
</g>
</g>
<!-- Node26 -->
<g id="Node000026" class="node">
<title>Node26</title>
<g id="a_Node000026"><a xlink:href="readConfig_8h.html" target="_top" xlink:title=" ">
<polygon fill="white" stroke="#666666" points="353.12,-191 275.62,-191 275.62,-170.25 353.12,-170.25 353.12,-191"/>
<text text-anchor="middle" x="314.38" y="-177.5" font-family="FreeSans" font-size="10.00">readConfig.h</text>
</a>
</g>
</g>
<!-- Node1&#45;&gt;Node26 -->
<g id="edge22_Node000001_Node000026" class="edge">
<title>Node1&#45;&gt;Node26</title>
<g id="a_edge22_Node000001_Node000026"><a xlink:title=" ">
<path fill="none" stroke="#63b8ff" d="M314.38,-226.59C314.38,-219.81 314.38,-210.55 314.38,-202.19"/>
<polygon fill="#63b8ff" stroke="#63b8ff" points="317.88,-202.33 314.38,-192.33 310.88,-202.33 317.88,-202.33"/>
</a>
</g>
</g>
<!-- Node3 -->
<g id="Node000003" class="node">
<title>Node3</title>
<g id="a_Node000003"><a xlink:title=" ">
<polygon fill="#e0e0e0" stroke="#999999" points="803.75,-77.5 757,-77.5 757,-56.75 803.75,-56.75 803.75,-77.5"/>
<text text-anchor="middle" x="780.38" y="-64" font-family="FreeSans" font-size="10.00">vector</text>
</a>
</g>
</g>
<!-- Node2&#45;&gt;Node3 -->
<g id="edge2_Node000002_Node000003" class="edge">
<title>Node2&#45;&gt;Node3</title>
<g id="a_edge2_Node000002_Node000003"><a xlink:title=" ">
<path fill="none" stroke="#63b8ff" d="M581.2,-115.3C619.83,-107.21 682.56,-93.67 746.02,-77.73"/>
<polygon fill="#63b8ff" stroke="#63b8ff" points="746.79,-80.89 755.63,-75.05 745.07,-74.11 746.79,-80.89"/>
</a>
</g>
</g>
<!-- Node4 -->
<g id="Node000004" class="node">
<title>Node4</title>
<g id="a_Node000004"><a xlink:title=" ">
<polygon fill="#e0e0e0" stroke="#999999" points="868.75,-77.5 822,-77.5 822,-56.75 868.75,-56.75 868.75,-77.5"/>
<text text-anchor="middle" x="845.38" y="-64" font-family="FreeSans" font-size="10.00">cmath</text>
</a>
</g>
</g>
<!-- Node2&#45;&gt;Node4 -->
<g id="edge3_Node000002_Node000004" class="edge">
<title>Node2&#45;&gt;Node4</title>
<g id="a_edge3_Node000002_Node000004"><a xlink:title=" ">
<path fill="none" stroke="#63b8ff" d="M581.03,-117.96C630.86,-111 722.89,-97.15 810.95,-77.61"/>
<polygon fill="#63b8ff" stroke="#63b8ff" points="811.67,-80.81 820.66,-75.2 810.14,-73.98 811.67,-80.81"/>
</a>
</g>
</g>
<!-- Node5 -->
<g id="Node000005" class="node">
<title>Node5</title>
<g id="a_Node000005"><a xlink:title=" ">
<polygon fill="#e0e0e0" stroke="#999999" points="1053.12,-20.75 993.62,-20.75 993.62,0 1053.12,0 1053.12,-20.75"/>
<text text-anchor="middle" x="1023.38" y="-7.25" font-family="FreeSans" font-size="10.00">iostream</text>
</a>
</g>
</g>
<!-- Node2&#45;&gt;Node5 -->
<g id="edge4_Node000002_Node000005" class="edge">
<title>Node2&#45;&gt;Node5</title>
<g id="a_edge4_Node000002_Node000005"><a xlink:title=" ">
<path fill="none" stroke="#63b8ff" d="M581.05,-122.68C672.22,-121.63 906.62,-115.22 973.38,-77.5 992.11,-66.91 1006.01,-46.14 1014.34,-30.69"/>
<polygon fill="#63b8ff" stroke="#63b8ff" points="1017.83,-32.54 1019.21,-22.03 1011.58,-29.39 1017.83,-32.54"/>
</a>
</g>
</g>
<!-- Node6 -->
<g id="Node000006" class="node">
<title>Node6</title>
<g id="a_Node000006"><a xlink:title=" ">
<polygon fill="#e0e0e0" stroke="#999999" points="369.25,-77.5 313.5,-77.5 313.5,-56.75 369.25,-56.75 369.25,-77.5"/>
<text text-anchor="middle" x="341.38" y="-64" font-family="FreeSans" font-size="10.00">sstream</text>
</a>
</g>
</g>
<!-- Node2&#45;&gt;Node6 -->
<g id="edge5_Node000002_Node000006" class="edge">
<title>Node2&#45;&gt;Node6</title>
<g id="a_edge5_Node000002_Node000006"><a xlink:title=" ">
<path fill="none" stroke="#63b8ff" d="M508.08,-113.09C471.96,-103.34 416.73,-88.45 379.86,-78.5"/>
<polygon fill="#63b8ff" stroke="#63b8ff" points="381.08,-74.94 370.51,-75.71 379.26,-81.7 381.08,-74.94"/>
</a>
</g>
</g>
<!-- Node7 -->
<g id="Node000007" class="node">
<title>Node7</title>
<g id="a_Node000007"><a xlink:title=" ">
<polygon fill="#e0e0e0" stroke="#999999" points="419.25,-20.75 375.5,-20.75 375.5,0 419.25,0 419.25,-20.75"/>
<text text-anchor="middle" x="397.38" y="-7.25" font-family="FreeSans" font-size="10.00">string</text>
</a>
</g>
</g>
<!-- Node2&#45;&gt;Node7 -->
<g id="edge6_Node000002_Node000007" class="edge">
<title>Node2&#45;&gt;Node7</title>
<g id="a_edge6_Node000002_Node000007"><a xlink:title=" ">
<path fill="none" stroke="#63b8ff" d="M507.44,-118.93C478.8,-113.96 440.13,-102.74 416.38,-77.5 404.74,-65.13 400.17,-46.1 398.4,-31.63"/>
<polygon fill="#63b8ff" stroke="#63b8ff" points="401.81,-31.46 397.49,-21.79 394.84,-32.05 401.81,-31.46"/>
</a>
</g>
</g>
<!-- Node8 -->
<g id="Node000008" class="node">
<title>Node8</title>
<g id="a_Node000008"><a xlink:title=" ">
<polygon fill="#e0e0e0" stroke="#999999" points="463.25,-77.5 425.5,-77.5 425.5,-56.75 463.25,-56.75 463.25,-77.5"/>
<text text-anchor="middle" x="444.38" y="-64" font-family="FreeSans" font-size="10.00">map</text>
</a>
</g>
</g>
<!-- Node2&#45;&gt;Node8 -->
<g id="edge7_Node000002_Node000008" class="edge">
<title>Node2&#45;&gt;Node8</title>
<g id="a_edge7_Node000002_Node000008"><a xlink:title=" ">
<path fill="none" stroke="#63b8ff" d="M526.5,-113.09C511.28,-104.76 489.18,-92.66 471.74,-83.11"/>
<polygon fill="#63b8ff" stroke="#63b8ff" points="473.55,-79.56 463.1,-77.83 470.19,-85.7 473.55,-79.56"/>
</a>
</g>
</g>
<!-- Node9 -->
<g id="Node000009" class="node">
<title>Node9</title>
<g id="a_Node000009"><a xlink:href="debugUtils_8h.html" target="_top" xlink:title=" ">
<polygon fill="white" stroke="#666666" points="964.12,-77.5 886.62,-77.5 886.62,-56.75 964.12,-56.75 964.12,-77.5"/>
<text text-anchor="middle" x="925.38" y="-64" font-family="FreeSans" font-size="10.00">debugUtils.h</text>
</a>
</g>
</g>
<!-- Node2&#45;&gt;Node9 -->
<g id="edge8_Node000002_Node000009" class="edge">
<title>Node2&#45;&gt;Node9</title>
<g id="a_edge8_Node000002_Node000009"><a xlink:title=" ">
<path fill="none" stroke="#63b8ff" d="M580.94,-118.59C640.49,-111.46 762.35,-96.24 875.78,-77.68"/>
<polygon fill="#63b8ff" stroke="#63b8ff" points="876.08,-81.02 885.38,-75.94 874.94,-74.11 876.08,-81.02"/>
</a>
</g>
</g>
<!-- Node13 -->
<g id="Node000013" class="node">
<title>Node13</title>
<g id="a_Node000013"><a xlink:title=" ">
<polygon fill="#e0e0e0" stroke="#999999" points="607.5,-77.5 481.25,-77.5 481.25,-56.75 607.5,-56.75 607.5,-77.5"/>
<text text-anchor="middle" x="544.38" y="-64" font-family="FreeSans" font-size="10.00">cantera/base/ct_defs.h</text>
</a>
</g>
</g>
<!-- Node2&#45;&gt;Node13 -->
<g id="edge14_Node000002_Node000013" class="edge">
<title>Node2&#45;&gt;Node13</title>
<g id="a_edge14_Node000002_Node000013"><a xlink:title=" ">
<path fill="none" stroke="#63b8ff" d="M544.38,-113.09C544.38,-106.31 544.38,-97.05 544.38,-88.69"/>
<polygon fill="#63b8ff" stroke="#63b8ff" points="547.88,-88.83 544.38,-78.83 540.88,-88.83 547.88,-88.83"/>
</a>
</g>
</g>
<!-- Node14 -->
<g id="Node000014" class="node">
<title>Node14</title>
<g id="a_Node000014"><a xlink:title=" ">
<polygon fill="#e0e0e0" stroke="#999999" points="738.75,-77.5 626,-77.5 626,-56.75 738.75,-56.75 738.75,-77.5"/>
<text text-anchor="middle" x="682.38" y="-64" font-family="FreeSans" font-size="10.00">eigen3/Eigen/Dense</text>
</a>
</g>
</g>
<!-- Node2&#45;&gt;Node14 -->
<g id="edge15_Node000002_Node000014" class="edge">
<title>Node2&#45;&gt;Node14</title>
<g id="a_edge15_Node000002_Node000014"><a xlink:title=" ">
<path fill="none" stroke="#63b8ff" d="M569.05,-113.09C591.03,-104.37 623.41,-91.52 647.94,-81.79"/>
<polygon fill="#63b8ff" stroke="#63b8ff" points="648.91,-84.77 656.92,-77.83 646.33,-78.26 648.91,-84.77"/>
</a>
</g>
</g>
<!-- Node9&#45;&gt;Node5 -->
<g id="edge10_Node000009_Node000005" class="edge">
<title>Node9&#45;&gt;Node5</title>
<g id="a_edge10_Node000009_Node000005"><a xlink:title=" ">
<path fill="none" stroke="#63b8ff" d="M942.9,-56.34C957.81,-48.01 979.46,-35.91 996.56,-26.36"/>
<polygon fill="#63b8ff" stroke="#63b8ff" points="997.98,-29.01 1005.01,-21.08 994.57,-22.9 997.98,-29.01"/>
</a>
</g>
</g>
<!-- Node9&#45;&gt;Node7 -->
<g id="edge9_Node000009_Node000007" class="edge">
<title>Node9&#45;&gt;Node7</title>
<g id="a_edge9_Node000009_Node000007"><a xlink:title=" ">
<path fill="none" stroke="#63b8ff" d="M886.14,-58.13C883.18,-57.63 880.23,-57.16 877.38,-56.75 709.98,-32.55 507.79,-18.28 430.03,-13.35"/>
<polygon fill="#63b8ff" stroke="#63b8ff" points="430.67,-9.82 420.48,-12.69 430.24,-16.8 430.67,-9.82"/>
</a>
</g>
</g>
<!-- Node10 -->
<g id="Node000010" class="node">
<title>Node10</title>
<g id="a_Node000010"><a xlink:title=" ">
<polygon fill="#e0e0e0" stroke="#999999" points="775.5,-20.75 721.25,-20.75 721.25,0 775.5,0 775.5,-20.75"/>
<text text-anchor="middle" x="748.38" y="-7.25" font-family="FreeSans" font-size="10.00">fstream</text>
</a>
</g>
</g>
<!-- Node9&#45;&gt;Node10 -->
<g id="edge11_Node000009_Node000010" class="edge">
<title>Node9&#45;&gt;Node10</title>
<g id="a_edge11_Node000009_Node000010"><a xlink:title=" ">
<path fill="none" stroke="#63b8ff" d="M893.73,-56.34C863.62,-47.02 818.29,-33 786.27,-23.1"/>
<polygon fill="#63b8ff" stroke="#63b8ff" points="787.55,-19.52 776.97,-19.91 785.49,-26.21 787.55,-19.52"/>
</a>
</g>
</g>
<!-- Node11 -->
<g id="Node000011" class="node">
<title>Node11</title>
<g id="a_Node000011"><a xlink:title=" ">
<polygon fill="#e0e0e0" stroke="#999999" points="857.38,-20.75 793.38,-20.75 793.38,0 857.38,0 857.38,-20.75"/>
<text text-anchor="middle" x="825.38" y="-7.25" font-family="FreeSans" font-size="10.00">exception</text>
</a>
</g>
</g>
<!-- Node9&#45;&gt;Node11 -->
<g id="edge12_Node000009_Node000011" class="edge">
<title>Node9&#45;&gt;Node11</title>
<g id="a_edge12_Node000009_Node000011"><a xlink:title=" ">
<path fill="none" stroke="#63b8ff" d="M907.5,-56.34C892.28,-48.01 870.18,-35.91 852.74,-26.36"/>
<polygon fill="#63b8ff" stroke="#63b8ff" points="854.55,-22.81 844.1,-21.08 851.19,-28.95 854.55,-22.81"/>
</a>
</g>
</g>
<!-- Node12 -->
<g id="Node000012" class="node">
<title>Node12</title>
<g id="a_Node000012"><a xlink:title=" ">
<polygon fill="#e0e0e0" stroke="#999999" points="975.38,-20.75 875.38,-20.75 875.38,0 975.38,0 975.38,-20.75"/>
<text text-anchor="middle" x="925.38" y="-7.25" font-family="FreeSans" font-size="10.00">boost/format.hpp</text>
</a>
</g>
</g>
<!-- Node9&#45;&gt;Node12 -->
<g id="edge13_Node000009_Node000012" class="edge">
<title>Node9&#45;&gt;Node12</title>
<g id="a_edge13_Node000009_Node000012"><a xlink:title=" ">
<path fill="none" stroke="#63b8ff" d="M925.38,-56.34C925.38,-49.56 925.38,-40.3 925.38,-31.94"/>
<polygon fill="#63b8ff" stroke="#63b8ff" points="928.88,-32.08 925.38,-22.08 921.88,-32.08 928.88,-32.08"/>
</a>
</g>
</g>
<!-- Node16 -->
<g id="Node000016" class="node">
<title>Node16</title>
<g id="a_Node000016"><a xlink:href="tbb__tools_8h.html" target="_top" xlink:title=" ">
<polygon fill="white" stroke="#666666" points="106.38,-134.25 36.38,-134.25 36.38,-113.5 106.38,-113.5 106.38,-134.25"/>
<text text-anchor="middle" x="71.38" y="-120.75" font-family="FreeSans" font-size="10.00">tbb_tools.h</text>
</a>
</g>
</g>
<!-- Node15&#45;&gt;Node16 -->
<g id="edge17_Node000015_Node000016" class="edge">
<title>Node15&#45;&gt;Node16</title>
<g id="a_edge17_Node000015_Node000016"><a xlink:title=" ">
<path fill="none" stroke="#63b8ff" d="M180.6,-169.84C159.51,-161.16 128.48,-148.38 104.88,-138.67"/>
<polygon fill="#63b8ff" stroke="#63b8ff" points="106.53,-135.15 95.95,-134.58 103.86,-141.62 106.53,-135.15"/>
</a>
</g>
</g>
<!-- Node24 -->
<g id="Node000024" class="node">
<title>Node24</title>
<g id="a_Node000024"><a xlink:title=" ">
<polygon fill="#e0e0e0" stroke="#999999" points="191.88,-134.25 124.88,-134.25 124.88,-113.5 191.88,-113.5 191.88,-134.25"/>
<text text-anchor="middle" x="158.38" y="-120.75" font-family="FreeSans" font-size="10.00">sys/time.h</text>
</a>
</g>
</g>
<!-- Node15&#45;&gt;Node24 -->
<g id="edge20_Node000015_Node000024" class="edge">
<title>Node15&#45;&gt;Node24</title>
<g id="a_edge20_Node000015_Node000024"><a xlink:title=" ">
<path fill="none" stroke="#63b8ff" d="M196.15,-169.84C189.87,-162.36 181.04,-151.86 173.5,-142.88"/>
<polygon fill="#63b8ff" stroke="#63b8ff" points="175.64,-140.98 166.53,-135.58 170.28,-145.49 175.64,-140.98"/>
</a>
</g>
</g>
<!-- Node25 -->
<g id="Node000025" class="node">
<title>Node25</title>
<g id="a_Node000025"><a xlink:title=" ">
<polygon fill="#e0e0e0" stroke="#999999" points="257.12,-134.25 209.62,-134.25 209.62,-113.5 257.12,-113.5 257.12,-134.25"/>
<text text-anchor="middle" x="233.38" y="-120.75" font-family="FreeSans" font-size="10.00">time.h</text>
</a>
</g>
</g>
<!-- Node15&#45;&gt;Node25 -->
<g id="edge21_Node000015_Node000025" class="edge">
<title>Node15&#45;&gt;Node25</title>
<g id="a_edge21_Node000015_Node000025"><a xlink:title=" ">
<path fill="none" stroke="#63b8ff" d="M209.56,-169.84C213.31,-162.75 218.51,-152.94 223.09,-144.29"/>
<polygon fill="#63b8ff" stroke="#63b8ff" points="226.65,-146.05 228.24,-135.58 220.46,-142.78 226.65,-146.05"/>
</a>
</g>
</g>
<!-- Node17 -->
<g id="Node000017" class="node">
<title>Node17</title>
<g id="a_Node000017"><a xlink:href="config_8h.html" target="_top" xlink:title=" ">
<polygon fill="white" stroke="#666666" points="137.5,-77.5 83.25,-77.5 83.25,-56.75 137.5,-56.75 137.5,-77.5"/>
<text text-anchor="middle" x="110.38" y="-64" font-family="FreeSans" font-size="10.00">config.h</text>
</a>
</g>
</g>
<!-- Node16&#45;&gt;Node17 -->
<g id="edge18_Node000016_Node000017" class="edge">
<title>Node16&#45;&gt;Node17</title>
<g id="a_edge18_Node000016_Node000017"><a xlink:title=" ">
<path fill="none" stroke="#63b8ff" d="M78.35,-113.09C83.56,-105.77 90.85,-95.54 97.15,-86.69"/>
<polygon fill="#63b8ff" stroke="#63b8ff" points="100.51,-89 103.46,-78.83 94.81,-84.94 100.51,-89"/>
</a>
</g>
</g>
<!-- Node18 -->
<g id="Node000018" class="node">
<title>Node18</title>
<g id="a_Node000018"><a xlink:href="tbb__real_8h.html" target="_top" xlink:title=" ">
<polygon fill="#fff0f0" stroke="red" points="64.75,-77.5 0,-77.5 0,-56.75 64.75,-56.75 64.75,-77.5"/>
<text text-anchor="middle" x="32.38" y="-64" font-family="FreeSans" font-size="10.00">tbb_real.h</text>
</a>
</g>
</g>
<!-- Node16&#45;&gt;Node18 -->
<g id="edge19_Node000016_Node000018" class="edge">
<title>Node16&#45;&gt;Node18</title>
<g id="a_edge19_Node000016_Node000018"><a xlink:title=" ">
<path fill="none" stroke="#63b8ff" d="M64.4,-113.09C59.19,-105.77 51.9,-95.54 45.6,-86.69"/>
<polygon fill="#63b8ff" stroke="#63b8ff" points="47.94,-84.94 39.29,-78.83 42.24,-89 47.94,-84.94"/>
</a>
</g>
</g>
<!-- Node26&#45;&gt;Node2 -->
<g id="edge23_Node000026_Node000002" class="edge">
<title>Node26&#45;&gt;Node2</title>
<g id="a_edge23_Node000026_Node000002"><a xlink:title=" ">
<path fill="none" stroke="#63b8ff" d="M353.39,-170.34C393.01,-160.91 454.39,-146.29 496.83,-136.19"/>
<polygon fill="#63b8ff" stroke="#63b8ff" points="497.54,-139.38 506.45,-133.66 495.91,-132.57 497.54,-139.38"/>
</a>
</g>
</g>
<!-- Node26&#45;&gt;Node7 -->
<g id="edge24_Node000026_Node000007" class="edge">
<title>Node26&#45;&gt;Node7</title>
<g id="a_edge24_Node000026_Node000007"><a xlink:title=" ">
<path fill="none" stroke="#63b8ff" d="M309.89,-169.77C300.56,-147.63 281.69,-93.05 304.38,-56.75 317.51,-35.73 343.49,-24.19 364.66,-18.01"/>
<polygon fill="#63b8ff" stroke="#63b8ff" points="365.42,-21.17 374.2,-15.25 363.64,-14.4 365.42,-21.17"/>
</a>
</g>
</g>
</g>
</svg>
