<?xml version="1.0" encoding="UTF-8" standalone="no"?>
<!DOCTYPE svg PUBLIC "-//W3C//DTD SVG 1.1//EN"
 "http://www.w3.org/Graphics/SVG/1.1/DTD/svg11.dtd">
<!-- Generated by graphviz version 2.28.0 (20120425.2022)
 -->
<!-- Title: src/splitSolver.h Pages: 1 -->
<svg width="224pt" height="140pt"
 viewBox="0.00 0.00 224.00 140.00" xmlns="http://www.w3.org/2000/svg" xmlns:xlink="http://www.w3.org/1999/xlink">
<g id="graph1" class="graph" transform="scale(1 1) rotate(0) translate(4 136)">
<title>src/splitSolver.h</title>
<polygon fill="white" stroke="white" points="-4,5 -4,-136 221,-136 221,5 -4,5"/>
<!-- Node1 -->
<g id="node1" class="node"><title>Node1</title>
<polygon fill="#bfbfbf" stroke="black" points="65.5,-112.5 65.5,-131.5 152.5,-131.5 152.5,-112.5 65.5,-112.5"/>
<text text-anchor="middle" x="109" y="-119.5" font-family="FreeSans" font-size="10.00">src/splitSolver.h</text>
</g>
<!-- Node2 -->
<g id="node3" class="node"><title>Node2</title>
<a xlink:href="flameSolver_8h.html" target="_top" xlink:title="src/flameSolver.h">
<polygon fill="white" stroke="black" points="4.5,-56.5 4.5,-75.5 99.5,-75.5 99.5,-56.5 4.5,-56.5"/>
<text text-anchor="middle" x="52" y="-63.5" font-family="FreeSans" font-size="10.00">src/flameSolver.h</text>
</a>
</g>
<!-- Node1&#45;&gt;Node2 -->
<g id="edge2" class="edge"><title>Node1&#45;&gt;Node2</title>
<path fill="none" stroke="midnightblue" d="M92.3785,-105.253C82.266,-95.6731 69.7234,-83.7906 61.3247,-75.8339"/>
<polygon fill="midnightblue" stroke="midnightblue" points="90.1753,-107.987 99.842,-112.324 94.9895,-102.906 90.1753,-107.987"/>
</g>
<!-- Node4 -->
<g id="node7" class="node"><title>Node4</title>
<a xlink:href="splitSolver_8cpp.html" target="_top" xlink:title="src/splitSolver.cpp">
<polygon fill="white" stroke="black" points="118,-56.5 118,-75.5 216,-75.5 216,-56.5 118,-56.5"/>
<text text-anchor="middle" x="167" y="-63.5" font-family="FreeSans" font-size="10.00">src/splitSolver.cpp</text>
</a>
</g>
<!-- Node1&#45;&gt;Node4 -->
<g id="edge6" class="edge"><title>Node1&#45;&gt;Node4</title>
<path fill="none" stroke="midnightblue" d="M125.913,-105.253C136.203,-95.6731 148.966,-83.7906 157.512,-75.8339"/>
<polygon fill="midnightblue" stroke="midnightblue" points="123.253,-102.948 118.319,-112.324 128.023,-108.071 123.253,-102.948"/>
</g>
<!-- Node3 -->
<g id="node5" class="node"><title>Node3</title>
<a xlink:href="flameSolver_8cpp.html" target="_top" xlink:title="src/flameSolver.cpp">
<polygon fill="white" stroke="black" points="-0.5,-0.5 -0.5,-19.5 104.5,-19.5 104.5,-0.5 -0.5,-0.5"/>
<text text-anchor="middle" x="52" y="-7.5" font-family="FreeSans" font-size="10.00">src/flameSolver.cpp</text>
</a>
</g>
<!-- Node2&#45;&gt;Node3 -->
<g id="edge4" class="edge"><title>Node2&#45;&gt;Node3</title>
<path fill="none" stroke="midnightblue" d="M52,-45.8045C52,-36.9102 52,-26.7798 52,-19.7511"/>
<polygon fill="midnightblue" stroke="midnightblue" points="48.5001,-46.083 52,-56.083 55.5001,-46.083 48.5001,-46.083"/>
</g>
</g>
</svg>
