<?xml version="1.0" encoding="UTF-8" standalone="no"?>
<!DOCTYPE svg PUBLIC "-//W3C//DTD SVG 1.1//EN"
 "http://www.w3.org/Graphics/SVG/1.1/DTD/svg11.dtd">
<!-- Generated by graphviz version 2.36.0 (20140111.2315)
 -->
<!-- Title: src/splitSolver.h Pages: 1 -->
<svg width="630pt" height="308pt"
 viewBox="0.00 0.00 630.27 308.00" xmlns="http://www.w3.org/2000/svg" xmlns:xlink="http://www.w3.org/1999/xlink">
<g id="graph0" class="graph" transform="scale(1 1) rotate(0) translate(4 304)">
<title>src/splitSolver.h</title>
<polygon fill="white" stroke="none" points="-4,4 -4,-304 626.273,-304 626.273,4 -4,4"/>
<!-- Node1 -->
<g id="node1" class="node"><title>Node1</title>
<polygon fill="#bfbfbf" stroke="black" points="206.273,-280.5 206.273,-299.5 290.273,-299.5 290.273,-280.5 206.273,-280.5"/>
<text text-anchor="middle" x="248.273" y="-287.5" font-family="FreeSans" font-size="10.00">src/splitSolver.h</text>
</g>
<!-- Node2 -->
<g id="node2" class="node"><title>Node2</title>
<g id="a_node2"><a xlink:href="mathUtils_8h.html" target="_top" xlink:title="mathUtils.h">
<polygon fill="white" stroke="black" points="213.773,-112.5 213.773,-131.5 278.773,-131.5 278.773,-112.5 213.773,-112.5"/>
<text text-anchor="middle" x="246.273" y="-119.5" font-family="FreeSans" font-size="10.00">mathUtils.h</text>
</a>
</g>
</g>
<!-- Node1&#45;&gt;Node2 -->
<g id="edge1" class="edge"><title>Node1&#45;&gt;Node2</title>
<path fill="none" stroke="midnightblue" d="M248.166,-280.075C247.851,-253.945 246.926,-177.211 246.497,-141.577"/>
<polygon fill="midnightblue" stroke="midnightblue" points="249.997,-141.525 246.376,-131.568 242.997,-141.61 249.997,-141.525"/>
</g>
<!-- Node14 -->
<g id="node14" class="node"><title>Node14</title>
<g id="a_node14"><a xlink:href="perfTimer_8h.html" target="_top" xlink:title="perfTimer.h">
<polygon fill="white" stroke="black" points="285.773,-224.5 285.773,-243.5 350.773,-243.5 350.773,-224.5 285.773,-224.5"/>
<text text-anchor="middle" x="318.273" y="-231.5" font-family="FreeSans" font-size="10.00">perfTimer.h</text>
</a>
</g>
</g>
<!-- Node1&#45;&gt;Node14 -->
<g id="edge15" class="edge"><title>Node1&#45;&gt;Node14</title>
<path fill="none" stroke="midnightblue" d="M259.52,-280.324C270.07,-272.185 286.074,-259.839 298.715,-250.087"/>
<polygon fill="midnightblue" stroke="midnightblue" points="301.042,-252.713 306.822,-243.834 296.766,-247.171 301.042,-252.713"/>
</g>
<!-- Node20 -->
<g id="node20" class="node"><title>Node20</title>
<g id="a_node20"><a xlink:href="readConfig_8h.html" target="_top" xlink:title="readConfig.h">
<polygon fill="white" stroke="black" points="150.273,-168.5 150.273,-187.5 220.273,-187.5 220.273,-168.5 150.273,-168.5"/>
<text text-anchor="middle" x="185.273" y="-175.5" font-family="FreeSans" font-size="10.00">readConfig.h</text>
</a>
</g>
</g>
<!-- Node1&#45;&gt;Node20 -->
<g id="edge22" class="edge"><title>Node1&#45;&gt;Node20</title>
<path fill="none" stroke="midnightblue" d="M243.33,-280.368C232.979,-262.296 208.856,-220.176 195.185,-196.307"/>
<polygon fill="midnightblue" stroke="midnightblue" points="198.201,-194.53 190.194,-187.591 192.126,-198.008 198.201,-194.53"/>
</g>
<!-- Node3 -->
<g id="node3" class="node"><title>Node3</title>
<polygon fill="white" stroke="#bfbfbf" points="161.773,-56.5 161.773,-75.5 204.773,-75.5 204.773,-56.5 161.773,-56.5"/>
<text text-anchor="middle" x="183.273" y="-63.5" font-family="FreeSans" font-size="10.00">vector</text>
</g>
<!-- Node2&#45;&gt;Node3 -->
<g id="edge2" class="edge"><title>Node2&#45;&gt;Node3</title>
<path fill="none" stroke="midnightblue" d="M236.151,-112.324C226.747,-104.263 212.529,-92.0765 201.204,-82.3695"/>
<polygon fill="midnightblue" stroke="midnightblue" points="203.45,-79.6844 193.579,-75.8339 198.894,-84.9993 203.45,-79.6844"/>
</g>
<!-- Node4 -->
<g id="node4" class="node"><title>Node4</title>
<polygon fill="white" stroke="#bfbfbf" points="223.273,-56.5 223.273,-75.5 267.273,-75.5 267.273,-56.5 223.273,-56.5"/>
<text text-anchor="middle" x="245.273" y="-63.5" font-family="FreeSans" font-size="10.00">cmath</text>
</g>
<!-- Node2&#45;&gt;Node4 -->
<g id="edge3" class="edge"><title>Node2&#45;&gt;Node4</title>
<path fill="none" stroke="midnightblue" d="M246.108,-112.083C245.977,-105.006 245.789,-94.8611 245.625,-85.9865"/>
<polygon fill="midnightblue" stroke="midnightblue" points="249.12,-85.6845 245.435,-75.7511 242.121,-85.8142 249.12,-85.6845"/>
</g>
<!-- Node5 -->
<g id="node5" class="node"><title>Node5</title>
<polygon fill="white" stroke="#bfbfbf" points="319.773,-0.5 319.773,-19.5 372.773,-19.5 372.773,-0.5 319.773,-0.5"/>
<text text-anchor="middle" x="346.273" y="-7.5" font-family="FreeSans" font-size="10.00">iostream</text>
</g>
<!-- Node2&#45;&gt;Node5 -->
<g id="edge4" class="edge"><title>Node2&#45;&gt;Node5</title>
<path fill="none" stroke="midnightblue" d="M255.716,-112.306C265.217,-103.435 280.157,-89.1422 292.273,-76 306.957,-60.0733 322.666,-40.895 333.334,-27.5145"/>
<polygon fill="midnightblue" stroke="midnightblue" points="336.095,-29.6655 339.554,-19.6513 330.605,-25.3226 336.095,-29.6655"/>
</g>
<!-- Node6 -->
<g id="node6" class="node"><title>Node6</title>
<polygon fill="white" stroke="#bfbfbf" points="361.273,-56.5 361.273,-75.5 411.273,-75.5 411.273,-56.5 361.273,-56.5"/>
<text text-anchor="middle" x="386.273" y="-63.5" font-family="FreeSans" font-size="10.00">sstream</text>
</g>
<!-- Node2&#45;&gt;Node6 -->
<g id="edge5" class="edge"><title>Node2&#45;&gt;Node6</title>
<path fill="none" stroke="midnightblue" d="M268.457,-112.444C291.702,-103.478 328.422,-89.314 354.688,-79.1827"/>
<polygon fill="midnightblue" stroke="midnightblue" points="356.123,-82.3807 364.193,-75.5164 353.604,-75.8497 356.123,-82.3807"/>
</g>
<!-- Node7 -->
<g id="node7" class="node"><title>Node7</title>
<polygon fill="white" stroke="#bfbfbf" points="261.273,-0.5 261.273,-19.5 301.273,-19.5 301.273,-0.5 261.273,-0.5"/>
<text text-anchor="middle" x="281.273" y="-7.5" font-family="FreeSans" font-size="10.00">string</text>
</g>
<!-- Node2&#45;&gt;Node7 -->
<g id="edge6" class="edge"><title>Node2&#45;&gt;Node7</title>
<path fill="none" stroke="midnightblue" d="M253.663,-112.368C260.559,-103.77 270.483,-89.8818 275.273,-76 280.419,-61.0856 281.743,-43.1695 281.879,-29.9273"/>
<polygon fill="midnightblue" stroke="midnightblue" points="285.376,-29.6448 281.76,-19.6863 278.377,-29.7264 285.376,-29.6448"/>
</g>
<!-- Node8 -->
<g id="node8" class="node"><title>Node8</title>
<polygon fill="white" stroke="#bfbfbf" points="19.7731,-56.5 19.7731,-75.5 54.7731,-75.5 54.7731,-56.5 19.7731,-56.5"/>
<text text-anchor="middle" x="37.2731" y="-63.5" font-family="FreeSans" font-size="10.00">map</text>
</g>
<!-- Node2&#45;&gt;Node8 -->
<g id="edge7" class="edge"><title>Node2&#45;&gt;Node8</title>
<path fill="none" stroke="midnightblue" d="M213.635,-113.929C178.855,-106.186 122.01,-92.9351 64.7602,-76.2507"/>
<polygon fill="midnightblue" stroke="midnightblue" points="65.4059,-72.7922 54.8243,-73.321 63.4261,-79.5064 65.4059,-72.7922"/>
</g>
<!-- Node9 -->
<g id="node9" class="node"><title>Node9</title>
<g id="a_node9"><a xlink:href="debugUtils_8h.html" target="_top" xlink:title="debugUtils.h">
<polygon fill="white" stroke="black" points="429.773,-56.5 429.773,-75.5 498.773,-75.5 498.773,-56.5 429.773,-56.5"/>
<text text-anchor="middle" x="464.273" y="-63.5" font-family="FreeSans" font-size="10.00">debugUtils.h</text>
</a>
</g>
</g>
<!-- Node2&#45;&gt;Node9 -->
<g id="edge8" class="edge"><title>Node2&#45;&gt;Node9</title>
<path fill="none" stroke="midnightblue" d="M278.91,-112.916C316.328,-103.647 377.874,-88.4015 419.692,-78.043"/>
<polygon fill="midnightblue" stroke="midnightblue" points="420.744,-81.3883 429.609,-75.5865 419.061,-74.5937 420.744,-81.3883"/>
</g>
<!-- Node13 -->
<g id="node13" class="node"><title>Node13</title>
<polygon fill="white" stroke="#bfbfbf" points="72.7731,-56.5 72.7731,-75.5 143.773,-75.5 143.773,-56.5 72.7731,-56.5"/>
<text text-anchor="middle" x="108.273" y="-63.5" font-family="FreeSans" font-size="10.00">Eigen/Dense</text>
</g>
<!-- Node2&#45;&gt;Node13 -->
<g id="edge14" class="edge"><title>Node2&#45;&gt;Node13</title>
<path fill="none" stroke="midnightblue" d="M224.407,-112.444C201.494,-103.478 165.298,-89.314 139.407,-79.1827"/>
<polygon fill="midnightblue" stroke="midnightblue" points="140.625,-75.9011 130.037,-75.5164 138.074,-82.4198 140.625,-75.9011"/>
</g>
<!-- Node9&#45;&gt;Node5 -->
<g id="edge10" class="edge"><title>Node9&#45;&gt;Node5</title>
<path fill="none" stroke="midnightblue" d="M445.576,-56.4435C426.329,-47.6356 396.121,-33.8116 374.073,-23.722"/>
<polygon fill="midnightblue" stroke="midnightblue" points="375.433,-20.4951 364.883,-19.5164 372.52,-26.8603 375.433,-20.4951"/>
</g>
<!-- Node9&#45;&gt;Node7 -->
<g id="edge9" class="edge"><title>Node9&#45;&gt;Node7</title>
<path fill="none" stroke="midnightblue" d="M434.419,-56.4357C405.303,-48.0482 359.524,-34.7681 311.23,-20.2552"/>
<polygon fill="midnightblue" stroke="midnightblue" points="312.126,-16.8699 301.541,-17.3372 310.107,-23.5725 312.126,-16.8699"/>
</g>
<!-- Node10 -->
<g id="node10" class="node"><title>Node10</title>
<polygon fill="white" stroke="#bfbfbf" points="573.773,-0.5 573.773,-19.5 622.773,-19.5 622.773,-0.5 573.773,-0.5"/>
<text text-anchor="middle" x="598.273" y="-7.5" font-family="FreeSans" font-size="10.00">fstream</text>
</g>
<!-- Node9&#45;&gt;Node10 -->
<g id="edge11" class="edge"><title>Node9&#45;&gt;Node10</title>
<path fill="none" stroke="midnightblue" d="M485.506,-56.4435C507.657,-47.5171 542.592,-33.4387 567.709,-23.3168"/>
<polygon fill="midnightblue" stroke="midnightblue" points="569.173,-26.5006 577.14,-19.5164 566.556,-20.0079 569.173,-26.5006"/>
</g>
<!-- Node11 -->
<g id="node11" class="node"><title>Node11</title>
<polygon fill="white" stroke="#bfbfbf" points="391.273,-0.5 391.273,-19.5 449.273,-19.5 449.273,-0.5 391.273,-0.5"/>
<text text-anchor="middle" x="420.273" y="-7.5" font-family="FreeSans" font-size="10.00">exception</text>
</g>
<!-- Node9&#45;&gt;Node11 -->
<g id="edge12" class="edge"><title>Node9&#45;&gt;Node11</title>
<path fill="none" stroke="midnightblue" d="M457.007,-56.083C450.728,-48.3768 441.485,-37.0333 433.842,-27.6531"/>
<polygon fill="midnightblue" stroke="midnightblue" points="436.434,-25.2926 427.404,-19.7511 431.007,-29.7143 436.434,-25.2926"/>
</g>
<!-- Node12 -->
<g id="node12" class="node"><title>Node12</title>
<polygon fill="white" stroke="#bfbfbf" points="466.773,-0.5 466.773,-19.5 555.773,-19.5 555.773,-0.5 466.773,-0.5"/>
<text text-anchor="middle" x="511.273" y="-7.5" font-family="FreeSans" font-size="10.00">boost/format.hpp</text>
</g>
<!-- Node9&#45;&gt;Node12 -->
<g id="edge13" class="edge"><title>Node9&#45;&gt;Node12</title>
<path fill="none" stroke="midnightblue" d="M472.034,-56.083C478.81,-48.2982 488.816,-36.8015 497.028,-27.3665"/>
<polygon fill="midnightblue" stroke="midnightblue" points="499.731,-29.592 503.656,-19.7511 494.451,-24.9963 499.731,-29.592"/>
</g>
<!-- Node15 -->
<g id="node15" class="node"><title>Node15</title>
<g id="a_node15"><a xlink:href="tbb__tools_8h.html" target="_top" xlink:title="tbb_tools.h">
<polygon fill="white" stroke="black" points="424.773,-168.5 424.773,-187.5 487.773,-187.5 487.773,-168.5 424.773,-168.5"/>
<text text-anchor="middle" x="456.273" y="-175.5" font-family="FreeSans" font-size="10.00">tbb_tools.h</text>
</a>
</g>
</g>
<!-- Node14&#45;&gt;Node15 -->
<g id="edge16" class="edge"><title>Node14&#45;&gt;Node15</title>
<path fill="none" stroke="midnightblue" d="M340.14,-224.444C363.053,-215.478 399.248,-201.314 425.14,-191.183"/>
<polygon fill="midnightblue" stroke="midnightblue" points="426.472,-194.42 434.509,-187.516 423.921,-187.901 426.472,-194.42"/>
</g>
<!-- Node18 -->
<g id="node18" class="node"><title>Node18</title>
<polygon fill="white" stroke="#bfbfbf" points="282.773,-168.5 282.773,-187.5 341.773,-187.5 341.773,-168.5 282.773,-168.5"/>
<text text-anchor="middle" x="312.273" y="-175.5" font-family="FreeSans" font-size="10.00">sys/time.h</text>
</g>
<!-- Node14&#45;&gt;Node18 -->
<g id="edge20" class="edge"><title>Node14&#45;&gt;Node18</title>
<path fill="none" stroke="midnightblue" d="M317.282,-224.083C316.487,-216.927 315.344,-206.635 314.35,-197.691"/>
<polygon fill="midnightblue" stroke="midnightblue" points="317.828,-197.303 313.245,-187.751 310.871,-198.076 317.828,-197.303"/>
</g>
<!-- Node19 -->
<g id="node19" class="node"><title>Node19</title>
<polygon fill="white" stroke="#bfbfbf" points="359.773,-168.5 359.773,-187.5 402.773,-187.5 402.773,-168.5 359.773,-168.5"/>
<text text-anchor="middle" x="381.273" y="-175.5" font-family="FreeSans" font-size="10.00">time.h</text>
</g>
<!-- Node14&#45;&gt;Node19 -->
<g id="edge21" class="edge"><title>Node14&#45;&gt;Node19</title>
<path fill="none" stroke="midnightblue" d="M328.395,-224.324C337.799,-216.263 352.017,-204.077 363.342,-194.369"/>
<polygon fill="midnightblue" stroke="midnightblue" points="365.652,-196.999 370.967,-187.834 361.097,-191.684 365.652,-196.999"/>
</g>
<!-- Node16 -->
<g id="node16" class="node"><title>Node16</title>
<g id="a_node16"><a xlink:href="config_8h.html" target="_top" xlink:title="config.h">
<polygon fill="white" stroke="black" points="505.273,-112.5 505.273,-131.5 555.273,-131.5 555.273,-112.5 505.273,-112.5"/>
<text text-anchor="middle" x="530.273" y="-119.5" font-family="FreeSans" font-size="10.00">config.h</text>
</a>
</g>
</g>
<!-- Node15&#45;&gt;Node16 -->
<g id="edge17" class="edge"><title>Node15&#45;&gt;Node16</title>
<path fill="none" stroke="midnightblue" d="M468.162,-168.324C479.423,-160.107 496.56,-147.602 509.982,-137.807"/>
<polygon fill="midnightblue" stroke="midnightblue" points="512.153,-140.556 518.167,-131.834 508.026,-134.901 512.153,-140.556"/>
</g>
<!-- Node17 -->
<g id="node17" class="node"><title>Node17</title>
<g id="a_node17"><a xlink:href="tbb__fake_8h.html" target="_top" xlink:title="tbb_fake.h">
<polygon fill="white" stroke="black" points="425.273,-112.5 425.273,-131.5 487.273,-131.5 487.273,-112.5 425.273,-112.5"/>
<text text-anchor="middle" x="456.273" y="-119.5" font-family="FreeSans" font-size="10.00">tbb_fake.h</text>
</a>
</g>
</g>
<!-- Node15&#45;&gt;Node17 -->
<g id="edge18" class="edge"><title>Node15&#45;&gt;Node17</title>
<path fill="none" stroke="midnightblue" d="M456.273,-168.083C456.273,-161.006 456.273,-150.861 456.273,-141.986"/>
<polygon fill="midnightblue" stroke="midnightblue" points="459.773,-141.751 456.273,-131.751 452.773,-141.751 459.773,-141.751"/>
</g>
<!-- Node17&#45;&gt;Node9 -->
<g id="edge19" class="edge"><title>Node17&#45;&gt;Node9</title>
<path fill="none" stroke="midnightblue" d="M457.594,-112.083C458.654,-104.927 460.179,-94.6353 461.504,-85.6911"/>
<polygon fill="midnightblue" stroke="midnightblue" points="464.973,-86.1561 462.977,-75.7511 458.049,-85.1302 464.973,-86.1561"/>
</g>
<!-- Node20&#45;&gt;Node2 -->
<g id="edge23" class="edge"><title>Node20&#45;&gt;Node2</title>
<path fill="none" stroke="midnightblue" d="M195.074,-168.324C204.091,-160.341 217.679,-148.313 228.591,-138.653"/>
<polygon fill="midnightblue" stroke="midnightblue" points="231.126,-141.083 236.294,-131.834 226.486,-135.842 231.126,-141.083"/>
</g>
<!-- Node20&#45;&gt;Node7 -->
<g id="edge24" class="edge"><title>Node20&#45;&gt;Node7</title>
<path fill="none" stroke="midnightblue" d="M149.827,-168.371C86.4155,-151.326 -35.703,-110.24 10.2731,-56 40.8097,-19.9746 186.284,-12.7572 250.588,-11.3356"/>
<polygon fill="midnightblue" stroke="midnightblue" points="250.962,-14.8293 260.895,-11.1427 250.831,-7.83056 250.962,-14.8293"/>
</g>
</g>
</svg>
