<?xml version="1.0" encoding="UTF-8" standalone="no"?>
<!DOCTYPE svg PUBLIC "-//W3C//DTD SVG 1.1//EN"
 "http://www.w3.org/Graphics/SVG/1.1/DTD/svg11.dtd">
<!-- Generated by graphviz version 2.38.0 (20140413.2041)
 -->
<!-- Title: src/splitSolver.cpp Pages: 1 -->
<svg width="497pt" height="308pt"
 viewBox="0.00 0.00 497.00 308.00" xmlns="http://www.w3.org/2000/svg" xmlns:xlink="http://www.w3.org/1999/xlink">
<g id="graph0" class="graph" transform="scale(1 1) rotate(0) translate(4 304)">
<title>src/splitSolver.cpp</title>
<polygon fill="white" stroke="none" points="-4,4 -4,-304 493,-304 493,4 -4,4"/>
<!-- Node1 -->
<g id="node1" class="node"><title>Node1</title>
<polygon fill="#bfbfbf" stroke="black" points="221.5,-280.5 221.5,-299.5 316.5,-299.5 316.5,-280.5 221.5,-280.5"/>
<text text-anchor="middle" x="269" y="-287.5" font-family="FreeSans" font-size="10.00">src/splitSolver.cpp</text>
</g>
<!-- Node2 -->
<g id="node2" class="node"><title>Node2</title>
<g id="a_node2"><a xlink:href="splitSolver_8h.html" target="_top" xlink:title="splitSolver.h">
<polygon fill="white" stroke="black" points="204,-224.5 204,-243.5 272,-243.5 272,-224.5 204,-224.5"/>
<text text-anchor="middle" x="238" y="-231.5" font-family="FreeSans" font-size="10.00">splitSolver.h</text>
</a>
</g>
</g>
<!-- Node1&#45;&gt;Node2 -->
<g id="edge1" class="edge"><title>Node1&#45;&gt;Node2</title>
<path fill="none" stroke="midnightblue" d="M263.881,-280.083C259.592,-272.613 253.342,-261.724 248.058,-252.52"/>
<polygon fill="midnightblue" stroke="midnightblue" points="251.038,-250.681 243.024,-243.751 244.967,-254.166 251.038,-250.681"/>
</g>
<!-- Node16 -->
<g id="node16" class="node"><title>Node16</title>
<g id="a_node16"><a xlink:href="readConfig_8h.html" target="_top" xlink:title="readConfig.h">
<polygon fill="white" stroke="black" points="266,-168.5 266,-187.5 336,-187.5 336,-168.5 266,-168.5"/>
<text text-anchor="middle" x="301" y="-175.5" font-family="FreeSans" font-size="10.00">readConfig.h</text>
</a>
</g>
</g>
<!-- Node1&#45;&gt;Node16 -->
<g id="edge20" class="edge"><title>Node1&#45;&gt;Node16</title>
<path fill="none" stroke="midnightblue" d="M271.511,-280.368C276.698,-262.537 288.696,-221.295 295.685,-197.272"/>
<polygon fill="midnightblue" stroke="midnightblue" points="299.068,-198.171 298.501,-187.591 292.347,-196.216 299.068,-198.171"/>
</g>
<!-- Node3 -->
<g id="node3" class="node"><title>Node3</title>
<g id="a_node3"><a xlink:href="mathUtils_8h.html" target="_top" xlink:title="mathUtils.h">
<polygon fill="white" stroke="black" points="240.5,-112.5 240.5,-131.5 305.5,-131.5 305.5,-112.5 240.5,-112.5"/>
<text text-anchor="middle" x="273" y="-119.5" font-family="FreeSans" font-size="10.00">mathUtils.h</text>
</a>
</g>
</g>
<!-- Node2&#45;&gt;Node3 -->
<g id="edge2" class="edge"><title>Node2&#45;&gt;Node3</title>
<path fill="none" stroke="midnightblue" d="M240.422,-224.12C243.888,-211.558 250.556,-187.911 257,-168 259.876,-159.114 263.319,-149.336 266.273,-141.171"/>
<polygon fill="midnightblue" stroke="midnightblue" points="269.634,-142.171 269.785,-131.577 263.06,-139.764 269.634,-142.171"/>
</g>
<!-- Node12 -->
<g id="node12" class="node"><title>Node12</title>
<g id="a_node12"><a xlink:href="perfTimer_8h.html" target="_top" xlink:title="perfTimer.h">
<polygon fill="white" stroke="black" points="130.5,-168.5 130.5,-187.5 195.5,-187.5 195.5,-168.5 130.5,-168.5"/>
<text text-anchor="middle" x="163" y="-175.5" font-family="FreeSans" font-size="10.00">perfTimer.h</text>
</a>
</g>
</g>
<!-- Node2&#45;&gt;Node12 -->
<g id="edge13" class="edge"><title>Node2&#45;&gt;Node12</title>
<path fill="none" stroke="midnightblue" d="M225.95,-224.324C214.537,-216.107 197.169,-203.602 183.565,-193.807"/>
<polygon fill="midnightblue" stroke="midnightblue" points="185.43,-190.837 175.269,-187.834 181.34,-196.517 185.43,-190.837"/>
</g>
<!-- Node2&#45;&gt;Node16 -->
<g id="edge17" class="edge"><title>Node2&#45;&gt;Node16</title>
<path fill="none" stroke="midnightblue" d="M248.122,-224.324C257.526,-216.263 271.744,-204.077 283.069,-194.369"/>
<polygon fill="midnightblue" stroke="midnightblue" points="285.379,-196.999 290.694,-187.834 280.823,-191.684 285.379,-196.999"/>
</g>
<!-- Node4 -->
<g id="node4" class="node"><title>Node4</title>
<polygon fill="white" stroke="#bfbfbf" points="397.5,-56.5 397.5,-75.5 440.5,-75.5 440.5,-56.5 397.5,-56.5"/>
<text text-anchor="middle" x="419" y="-63.5" font-family="FreeSans" font-size="10.00">vector</text>
</g>
<!-- Node3&#45;&gt;Node4 -->
<g id="edge3" class="edge"><title>Node3&#45;&gt;Node4</title>
<path fill="none" stroke="midnightblue" d="M296.134,-112.444C320.912,-103.279 360.371,-88.6846 387.864,-78.5161"/>
<polygon fill="midnightblue" stroke="midnightblue" points="389.237,-81.74 397.402,-74.9883 386.809,-75.1747 389.237,-81.74"/>
</g>
<!-- Node5 -->
<g id="node5" class="node"><title>Node5</title>
<polygon fill="white" stroke="#bfbfbf" points="0,-56.5 0,-75.5 44,-75.5 44,-56.5 0,-56.5"/>
<text text-anchor="middle" x="22" y="-63.5" font-family="FreeSans" font-size="10.00">cmath</text>
</g>
<!-- Node3&#45;&gt;Node5 -->
<g id="edge4" class="edge"><title>Node3&#45;&gt;Node5</title>
<path fill="none" stroke="midnightblue" d="M240.445,-114.004C237.254,-113.324 234.064,-112.647 231,-112 154.159,-95.7721 134.555,-93.5274 58,-76 56.7283,-75.7088 55.4326,-75.4074 54.1245,-75.0992"/>
<polygon fill="midnightblue" stroke="midnightblue" points="54.5942,-71.6119 44.0514,-72.6603 52.9469,-78.4153 54.5942,-71.6119"/>
</g>
<!-- Node6 -->
<g id="node6" class="node"><title>Node6</title>
<polygon fill="white" stroke="#bfbfbf" points="111.5,-0.5 111.5,-19.5 164.5,-19.5 164.5,-0.5 111.5,-0.5"/>
<text text-anchor="middle" x="138" y="-7.5" font-family="FreeSans" font-size="10.00">iostream</text>
</g>
<!-- Node3&#45;&gt;Node6 -->
<g id="edge5" class="edge"><title>Node3&#45;&gt;Node6</title>
<path fill="none" stroke="midnightblue" d="M240.252,-113.993C189.123,-102.901 95.6524,-81.9428 91,-76 77.7212,-59.0381 97.6502,-38.8421 115.504,-25.5134"/>
<polygon fill="midnightblue" stroke="midnightblue" points="117.787,-28.1863 123.947,-19.5662 113.756,-22.4635 117.787,-28.1863"/>
</g>
<!-- Node7 -->
<g id="node7" class="node"><title>Node7</title>
<polygon fill="white" stroke="#bfbfbf" points="100,-56.5 100,-75.5 150,-75.5 150,-56.5 100,-56.5"/>
<text text-anchor="middle" x="125" y="-63.5" font-family="FreeSans" font-size="10.00">sstream</text>
</g>
<!-- Node3&#45;&gt;Node7 -->
<g id="edge6" class="edge"><title>Node3&#45;&gt;Node7</title>
<path fill="none" stroke="midnightblue" d="M249.549,-112.444C224.867,-103.438 185.815,-89.1891 158.023,-79.049"/>
<polygon fill="midnightblue" stroke="midnightblue" points="158.935,-75.6561 148.341,-75.5164 156.536,-82.2321 158.935,-75.6561"/>
</g>
<!-- Node8 -->
<g id="node8" class="node"><title>Node8</title>
<polygon fill="white" stroke="#bfbfbf" points="449,-0.5 449,-19.5 489,-19.5 489,-0.5 449,-0.5"/>
<text text-anchor="middle" x="469" y="-7.5" font-family="FreeSans" font-size="10.00">string</text>
</g>
<!-- Node3&#45;&gt;Node8 -->
<g id="edge7" class="edge"><title>Node3&#45;&gt;Node8</title>
<path fill="none" stroke="midnightblue" d="M305.756,-121.708C344.928,-120.74 410.072,-113.096 449,-76 461.545,-64.0457 466.279,-44.4343 468.035,-29.8746"/>
<polygon fill="midnightblue" stroke="midnightblue" points="471.555,-29.7799 468.898,-19.5238 464.579,-29.1986 471.555,-29.7799"/>
</g>
<!-- Node9 -->
<g id="node9" class="node"><title>Node9</title>
<polygon fill="white" stroke="#bfbfbf" points="255.5,-56.5 255.5,-75.5 290.5,-75.5 290.5,-56.5 255.5,-56.5"/>
<text text-anchor="middle" x="273" y="-63.5" font-family="FreeSans" font-size="10.00">map</text>
</g>
<!-- Node3&#45;&gt;Node9 -->
<g id="edge8" class="edge"><title>Node3&#45;&gt;Node9</title>
<path fill="none" stroke="midnightblue" d="M273,-112.083C273,-105.006 273,-94.8611 273,-85.9865"/>
<polygon fill="midnightblue" stroke="midnightblue" points="276.5,-85.751 273,-75.7511 269.5,-85.7511 276.5,-85.751"/>
</g>
<!-- Node10 -->
<g id="node10" class="node"><title>Node10</title>
<g id="a_node10"><a xlink:href="debugUtils_8h.html" target="_top" xlink:title="debugUtils.h">
<polygon fill="white" stroke="red" points="168.5,-56.5 168.5,-75.5 237.5,-75.5 237.5,-56.5 168.5,-56.5"/>
<text text-anchor="middle" x="203" y="-63.5" font-family="FreeSans" font-size="10.00">debugUtils.h</text>
</a>
</g>
</g>
<!-- Node3&#45;&gt;Node10 -->
<g id="edge9" class="edge"><title>Node3&#45;&gt;Node10</title>
<path fill="none" stroke="midnightblue" d="M261.753,-112.324C251.203,-104.185 235.199,-91.8395 222.558,-82.0874"/>
<polygon fill="midnightblue" stroke="midnightblue" points="224.507,-79.1707 214.451,-75.8339 220.231,-84.7132 224.507,-79.1707"/>
</g>
<!-- Node11 -->
<g id="node11" class="node"><title>Node11</title>
<polygon fill="white" stroke="#bfbfbf" points="308.5,-56.5 308.5,-75.5 379.5,-75.5 379.5,-56.5 308.5,-56.5"/>
<text text-anchor="middle" x="344" y="-63.5" font-family="FreeSans" font-size="10.00">Eigen/Dense</text>
</g>
<!-- Node3&#45;&gt;Node11 -->
<g id="edge12" class="edge"><title>Node3&#45;&gt;Node11</title>
<path fill="none" stroke="midnightblue" d="M284.407,-112.324C295.109,-104.185 311.341,-91.8395 324.163,-82.0874"/>
<polygon fill="midnightblue" stroke="midnightblue" points="326.544,-84.6734 332.385,-75.8339 322.307,-79.1018 326.544,-84.6734"/>
</g>
<!-- Node10&#45;&gt;Node6 -->
<g id="edge11" class="edge"><title>Node10&#45;&gt;Node6</title>
<path fill="none" stroke="midnightblue" d="M192.557,-56.324C182.854,-48.2631 168.185,-36.0765 156.5,-26.3695"/>
<polygon fill="midnightblue" stroke="midnightblue" points="158.562,-23.532 148.633,-19.8339 154.089,-28.9163 158.562,-23.532"/>
</g>
<!-- Node10&#45;&gt;Node8 -->
<g id="edge10" class="edge"><title>Node10&#45;&gt;Node8</title>
<path fill="none" stroke="midnightblue" d="M237.729,-57.7087C240.527,-57.1281 243.31,-56.5528 246,-56 314.832,-41.8518 395.704,-25.6332 438.631,-17.0562"/>
<polygon fill="midnightblue" stroke="midnightblue" points="439.576,-20.4367 448.697,-15.0462 438.205,-13.5722 439.576,-20.4367"/>
</g>
<!-- Node13 -->
<g id="node13" class="node"><title>Node13</title>
<g id="a_node13"><a xlink:href="tbb__tools_8h.html" target="_top" xlink:title="tbb_tools.h">
<polygon fill="white" stroke="red" points="159.5,-112.5 159.5,-131.5 222.5,-131.5 222.5,-112.5 159.5,-112.5"/>
<text text-anchor="middle" x="191" y="-119.5" font-family="FreeSans" font-size="10.00">tbb_tools.h</text>
</a>
</g>
</g>
<!-- Node12&#45;&gt;Node13 -->
<g id="edge14" class="edge"><title>Node12&#45;&gt;Node13</title>
<path fill="none" stroke="midnightblue" d="M167.624,-168.083C171.456,-160.691 177.024,-149.953 181.765,-140.811"/>
<polygon fill="midnightblue" stroke="midnightblue" points="184.966,-142.24 186.462,-131.751 178.752,-139.018 184.966,-142.24"/>
</g>
<!-- Node14 -->
<g id="node14" class="node"><title>Node14</title>
<polygon fill="white" stroke="#bfbfbf" points="21.5,-112.5 21.5,-131.5 80.5,-131.5 80.5,-112.5 21.5,-112.5"/>
<text text-anchor="middle" x="51" y="-119.5" font-family="FreeSans" font-size="10.00">sys/time.h</text>
</g>
<!-- Node12&#45;&gt;Node14 -->
<g id="edge15" class="edge"><title>Node12&#45;&gt;Node14</title>
<path fill="none" stroke="midnightblue" d="M145.005,-168.324C126.962,-159.625 98.9531,-146.12 78.1973,-136.113"/>
<polygon fill="midnightblue" stroke="midnightblue" points="79.4778,-132.845 68.9501,-131.655 76.4377,-139.15 79.4778,-132.845"/>
</g>
<!-- Node15 -->
<g id="node15" class="node"><title>Node15</title>
<polygon fill="white" stroke="#bfbfbf" points="98.5,-112.5 98.5,-131.5 141.5,-131.5 141.5,-112.5 98.5,-112.5"/>
<text text-anchor="middle" x="120" y="-119.5" font-family="FreeSans" font-size="10.00">time.h</text>
</g>
<!-- Node12&#45;&gt;Node15 -->
<g id="edge16" class="edge"><title>Node12&#45;&gt;Node15</title>
<path fill="none" stroke="midnightblue" d="M155.899,-168.083C149.763,-160.377 140.73,-149.033 133.261,-139.653"/>
<polygon fill="midnightblue" stroke="midnightblue" points="135.936,-137.394 126.968,-131.751 130.46,-141.754 135.936,-137.394"/>
</g>
<!-- Node16&#45;&gt;Node3 -->
<g id="edge18" class="edge"><title>Node16&#45;&gt;Node3</title>
<path fill="none" stroke="midnightblue" d="M296.376,-168.083C292.544,-160.691 286.976,-149.953 282.235,-140.811"/>
<polygon fill="midnightblue" stroke="midnightblue" points="285.248,-139.018 277.538,-131.751 279.034,-142.24 285.248,-139.018"/>
</g>
<!-- Node16&#45;&gt;Node8 -->
<g id="edge19" class="edge"><title>Node16&#45;&gt;Node8</title>
<path fill="none" stroke="midnightblue" d="M332.877,-168.473C373.125,-155.798 440.652,-127.729 470,-76 477.998,-61.9029 476.708,-43.167 474.034,-29.4331"/>
<polygon fill="midnightblue" stroke="midnightblue" points="477.436,-28.6109 471.743,-19.6753 470.621,-30.2106 477.436,-28.6109"/>
</g>
</g>
</svg>
