<?xml version="1.0" encoding="UTF-8" standalone="no"?>
<!DOCTYPE svg PUBLIC "-//W3C//DTD SVG 1.1//EN"
 "http://www.w3.org/Graphics/SVG/1.1/DTD/svg11.dtd">
<!-- Generated by graphviz version 2.28.0 (20120425.2022)
 -->
<!-- Title: src/strainFunction.cpp Pages: 1 -->
<svg width="185pt" height="196pt"
 viewBox="0.00 0.00 185.00 196.00" xmlns="http://www.w3.org/2000/svg" xmlns:xlink="http://www.w3.org/1999/xlink">
<g id="graph1" class="graph" transform="scale(1 1) rotate(0) translate(4 192)">
<title>src/strainFunction.cpp</title>
<polygon fill="white" stroke="white" points="-4,5 -4,-192 182,-192 182,5 -4,5"/>
<!-- Node1 -->
<g id="node1" class="node"><title>Node1</title>
<polygon fill="#bfbfbf" stroke="black" points="35,-168.5 35,-187.5 147,-187.5 147,-168.5 35,-168.5"/>
<text text-anchor="middle" x="91" y="-175.5" font-family="FreeSans" font-size="10.00">src/strainFunction.cpp</text>
</g>
<!-- Node2 -->
<g id="node3" class="node"><title>Node2</title>
<a xlink:href="strainFunction_8h.html" target="_top" xlink:title="strainFunction.h">
<polygon fill="white" stroke="black" points="-0.5,-112.5 -0.5,-131.5 84.5,-131.5 84.5,-112.5 -0.5,-112.5"/>
<text text-anchor="middle" x="42" y="-119.5" font-family="FreeSans" font-size="10.00">strainFunction.h</text>
</a>
</g>
<!-- Node1&#45;&gt;Node2 -->
<g id="edge2" class="edge"><title>Node1&#45;&gt;Node2</title>
<path fill="none" stroke="midnightblue" d="M82.9086,-168.083C75.8446,-160.298 65.4124,-148.801 56.8511,-139.367"/>
<polygon fill="midnightblue" stroke="midnightblue" points="59.2527,-136.805 49.9408,-131.751 54.0688,-141.509 59.2527,-136.805"/>
</g>
<!-- Node5 -->
<g id="node9" class="node"><title>Node5</title>
<a xlink:href="readConfig_8h.html" target="_top" xlink:title="readConfig.h">
<polygon fill="white" stroke="black" points="103,-112.5 103,-131.5 177,-131.5 177,-112.5 103,-112.5"/>
<text text-anchor="middle" x="140" y="-119.5" font-family="FreeSans" font-size="10.00">readConfig.h</text>
</a>
</g>
<!-- Node1&#45;&gt;Node5 -->
<g id="edge8" class="edge"><title>Node1&#45;&gt;Node5</title>
<path fill="none" stroke="midnightblue" d="M99.0914,-168.083C106.155,-160.298 116.588,-148.801 125.149,-139.367"/>
<polygon fill="midnightblue" stroke="midnightblue" points="127.931,-141.509 132.059,-131.751 122.747,-136.805 127.931,-141.509"/>
</g>
<!-- Node3 -->
<g id="node5" class="node"><title>Node3</title>
<a xlink:href="mathUtils_8h.html" target="_top" xlink:title="mathUtils.h">
<polygon fill="white" stroke="red" points="46.5,-56.5 46.5,-75.5 111.5,-75.5 111.5,-56.5 46.5,-56.5"/>
<text text-anchor="middle" x="79" y="-63.5" font-family="FreeSans" font-size="10.00">mathUtils.h</text>
</a>
</g>
<!-- Node2&#45;&gt;Node3 -->
<g id="edge4" class="edge"><title>Node2&#45;&gt;Node3</title>
<path fill="none" stroke="midnightblue" d="M48.1098,-112.083C53.2822,-104.534 60.8461,-93.4948 67.1944,-84.2298"/>
<polygon fill="midnightblue" stroke="midnightblue" points="70.2388,-85.9787 73.0039,-75.7511 64.4643,-82.0221 70.2388,-85.9787"/>
</g>
<!-- Node4 -->
<g id="node7" class="node"><title>Node4</title>
<polygon fill="white" stroke="#bfbfbf" points="88.5,-0.5 88.5,-19.5 129.5,-19.5 129.5,-0.5 88.5,-0.5"/>
<text text-anchor="middle" x="109" y="-7.5" font-family="FreeSans" font-size="10.00">string</text>
</g>
<!-- Node3&#45;&gt;Node4 -->
<g id="edge6" class="edge"><title>Node3&#45;&gt;Node4</title>
<path fill="none" stroke="midnightblue" d="M83.9539,-56.083C88.1041,-48.6127 94.1531,-37.7244 99.2667,-28.5199"/>
<polygon fill="midnightblue" stroke="midnightblue" points="102.341,-30.1924 104.138,-19.7511 96.2223,-26.7929 102.341,-30.1924"/>
</g>
<!-- Node5&#45;&gt;Node3 -->
<g id="edge10" class="edge"><title>Node5&#45;&gt;Node3</title>
<path fill="none" stroke="midnightblue" d="M130.199,-112.324C121.182,-104.341 107.594,-92.3128 96.682,-82.6529"/>
<polygon fill="midnightblue" stroke="midnightblue" points="98.7866,-79.8416 88.979,-75.8339 94.1467,-85.083 98.7866,-79.8416"/>
</g>
<!-- Node5&#45;&gt;Node4 -->
<g id="edge12" class="edge"><title>Node5&#45;&gt;Node4</title>
<path fill="none" stroke="midnightblue" d="M137.567,-112.368C132.542,-94.5366 120.92,-53.2953 114.149,-29.2717"/>
<polygon fill="midnightblue" stroke="midnightblue" points="117.503,-28.2671 111.421,-19.5914 110.765,-30.1659 117.503,-28.2671"/>
</g>
</g>
</svg>
