<?xml version="1.0" encoding="UTF-8" standalone="no"?>
<!DOCTYPE svg PUBLIC "-//W3C//DTD SVG 1.1//EN"
 "http://www.w3.org/Graphics/SVG/1.1/DTD/svg11.dtd">
<!-- Generated by graphviz version 2.28.0 (20120425.2022)
 -->
<!-- Title: G Pages: 1 -->
<svg width="472pt" height="140pt"
 viewBox="0.00 0.00 472.00 140.00" xmlns="http://www.w3.org/2000/svg" xmlns:xlink="http://www.w3.org/1999/xlink">
<g id="graph1" class="graph" transform="scale(1 1) rotate(0) translate(4 136)">
<title>G</title>
<polygon fill="white" stroke="white" points="-4,5 -4,-136 469,-136 469,5 -4,5"/>
<!-- Node1 -->
<g id="node1" class="node"><title>Node1</title>
<polygon fill="#bfbfbf" stroke="black" points="189.5,-112.5 189.5,-131.5 290.5,-131.5 290.5,-112.5 189.5,-112.5"/>
<text text-anchor="middle" x="240" y="-119.5" font-family="FreeSans" font-size="10.00">src/strainFunction.h</text>
</g>
<!-- Node2 -->
<g id="node3" class="node"><title>Node2</title>
<a xlink:href="convectionSystem_8h.html" target="_top" xlink:title="src/convectionSystem.h">
<polygon fill="white" stroke="black" points="48.5,-56.5 48.5,-75.5 171.5,-75.5 171.5,-56.5 48.5,-56.5"/>
<text text-anchor="middle" x="110" y="-63.5" font-family="FreeSans" font-size="10.00">src/convectionSystem.h</text>
</a>
</g>
<!-- Node1&#45;&gt;Node2 -->
<g id="edge2" class="edge"><title>Node1&#45;&gt;Node2</title>
<path fill="none" stroke="midnightblue" d="M209.915,-108.503C185.543,-98.3795 151.86,-84.388 130.503,-75.5164"/>
<polygon fill="midnightblue" stroke="midnightblue" points="208.823,-111.84 219.401,-112.444 211.509,-105.375 208.823,-111.84"/>
</g>
<!-- Node4 -->
<g id="node7" class="node"><title>Node4</title>
<a xlink:href="flameSolver_8h.html" target="_top" xlink:title="src/flameSolver.h">
<polygon fill="white" stroke="red" points="152.5,-0.5 152.5,-19.5 247.5,-19.5 247.5,-0.5 152.5,-0.5"/>
<text text-anchor="middle" x="200" y="-7.5" font-family="FreeSans" font-size="10.00">src/flameSolver.h</text>
</a>
</g>
<!-- Node1&#45;&gt;Node4 -->
<g id="edge14" class="edge"><title>Node1&#45;&gt;Node4</title>
<path fill="none" stroke="midnightblue" d="M230.827,-102.988C226.891,-94.8649 222.421,-85.0755 219,-76 211.535,-56.1979 205.174,-32.1075 202.056,-19.5491"/>
<polygon fill="midnightblue" stroke="midnightblue" points="227.824,-104.809 235.408,-112.207 234.093,-101.694 227.824,-104.809"/>
</g>
<!-- Node5 -->
<g id="node9" class="node"><title>Node5</title>
<a xlink:href="sourceSystem_8h.html" target="_top" xlink:title="src/sourceSystem.h">
<polygon fill="white" stroke="black" points="228.5,-56.5 228.5,-75.5 333.5,-75.5 333.5,-56.5 228.5,-56.5"/>
<text text-anchor="middle" x="281" y="-63.5" font-family="FreeSans" font-size="10.00">src/sourceSystem.h</text>
</a>
</g>
<!-- Node1&#45;&gt;Node5 -->
<g id="edge8" class="edge"><title>Node1&#45;&gt;Node5</title>
<path fill="none" stroke="midnightblue" d="M253.017,-103.855C260.117,-94.5048 268.604,-83.3265 274.356,-75.7511"/>
<polygon fill="midnightblue" stroke="midnightblue" points="250.03,-102.002 246.77,-112.083 255.605,-106.235 250.03,-102.002"/>
</g>
<!-- Node7 -->
<g id="node15" class="node"><title>Node7</title>
<a xlink:href="strainFunction_8cpp.html" target="_top" xlink:title="src/strainFunction.cpp">
<polygon fill="white" stroke="black" points="352,-56.5 352,-75.5 464,-75.5 464,-56.5 352,-56.5"/>
<text text-anchor="middle" x="408" y="-63.5" font-family="FreeSans" font-size="10.00">src/strainFunction.cpp</text>
</a>
</g>
<!-- Node1&#45;&gt;Node7 -->
<g id="edge16" class="edge"><title>Node1&#45;&gt;Node7</title>
<path fill="none" stroke="midnightblue" d="M276.386,-109.304C308.042,-99.1294 353.168,-84.6246 381.504,-75.5164"/>
<polygon fill="midnightblue" stroke="midnightblue" points="275.069,-106.051 266.62,-112.444 277.211,-112.715 275.069,-106.051"/>
</g>
<!-- Node3 -->
<g id="node5" class="node"><title>Node3</title>
<a xlink:href="convectionSystem_8cpp.html" target="_top" xlink:title="src/convectionSystem.cpp">
<polygon fill="white" stroke="black" points="0,-0.5 0,-19.5 134,-19.5 134,-0.5 0,-0.5"/>
<text text-anchor="middle" x="67" y="-7.5" font-family="FreeSans" font-size="10.00">src/convectionSystem.cpp</text>
</a>
</g>
<!-- Node2&#45;&gt;Node3 -->
<g id="edge4" class="edge"><title>Node2&#45;&gt;Node3</title>
<path fill="none" stroke="midnightblue" d="M96.5776,-48.144C89.0858,-38.7357 80.0629,-27.4046 73.9685,-19.7511"/>
<polygon fill="midnightblue" stroke="midnightblue" points="93.9321,-50.4404 102.899,-56.083 99.4081,-46.0799 93.9321,-50.4404"/>
</g>
<!-- Node2&#45;&gt;Node4 -->
<g id="edge6" class="edge"><title>Node2&#45;&gt;Node4</title>
<path fill="none" stroke="midnightblue" d="M133.038,-51.1774C149.599,-41.2407 171.418,-28.1492 185.576,-19.6545"/>
<polygon fill="midnightblue" stroke="midnightblue" points="131.234,-48.1777 124.46,-56.324 134.836,-54.1802 131.234,-48.1777"/>
</g>
<!-- Node5&#45;&gt;Node4 -->
<g id="edge10" class="edge"><title>Node5&#45;&gt;Node4</title>
<path fill="none" stroke="midnightblue" d="M259.433,-50.6221C244.636,-40.7574 225.488,-27.9919 212.982,-19.6545"/>
<polygon fill="midnightblue" stroke="midnightblue" points="257.724,-53.6891 267.986,-56.324 261.607,-47.8647 257.724,-53.6891"/>
</g>
<!-- Node6 -->
<g id="node12" class="node"><title>Node6</title>
<a xlink:href="sourceSystem_8cpp.html" target="_top" xlink:title="src/sourceSystem.cpp">
<polygon fill="white" stroke="black" points="266,-0.5 266,-19.5 382,-19.5 382,-0.5 266,-0.5"/>
<text text-anchor="middle" x="324" y="-7.5" font-family="FreeSans" font-size="10.00">src/sourceSystem.cpp</text>
</a>
</g>
<!-- Node5&#45;&gt;Node6 -->
<g id="edge12" class="edge"><title>Node5&#45;&gt;Node6</title>
<path fill="none" stroke="midnightblue" d="M294.422,-48.144C301.914,-38.7357 310.937,-27.4046 317.032,-19.7511"/>
<polygon fill="midnightblue" stroke="midnightblue" points="291.592,-46.0799 288.101,-56.083 297.068,-50.4404 291.592,-46.0799"/>
</g>
</g>
</svg>
