<?xml version="1.0" encoding="UTF-8" standalone="no"?>
<!DOCTYPE svg PUBLIC "-//W3C//DTD SVG 1.1//EN"
 "http://www.w3.org/Graphics/SVG/1.1/DTD/svg11.dtd">
<!-- Generated by graphviz version 2.28.0 (20120425.2022)
 -->
<!-- Title: src/strainFunction.h Pages: 1 -->
<svg width="377pt" height="84pt"
 viewBox="0.00 0.00 377.00 84.00" xmlns="http://www.w3.org/2000/svg" xmlns:xlink="http://www.w3.org/1999/xlink">
<g id="graph1" class="graph" transform="scale(1 1) rotate(0) translate(4 80)">
<title>src/strainFunction.h</title>
<polygon fill="white" stroke="white" points="-4,5 -4,-80 374,-80 374,5 -4,5"/>
<!-- Node1 -->
<g id="node1" class="node"><title>Node1</title>
<polygon fill="#bfbfbf" stroke="black" points="130.5,-56.5 130.5,-75.5 231.5,-75.5 231.5,-56.5 130.5,-56.5"/>
<text text-anchor="middle" x="181" y="-63.5" font-family="FreeSans" font-size="10.00">src/strainFunction.h</text>
</g>
<!-- Node2 -->
<g id="node3" class="node"><title>Node2</title>
<a xlink:href="flameSolver_8cpp.html" target="_top" xlink:title="src/flameSolver.cpp">
<polygon fill="white" stroke="black" points="-0.5,-0.5 -0.5,-19.5 104.5,-19.5 104.5,-0.5 -0.5,-0.5"/>
<text text-anchor="middle" x="52" y="-7.5" font-family="FreeSans" font-size="10.00">src/flameSolver.cpp</text>
</a>
</g>
<!-- Node1&#45;&gt;Node2 -->
<g id="edge2" class="edge"><title>Node1&#45;&gt;Node2</title>
<path fill="none" stroke="midnightblue" d="M151.146,-52.503C126.962,-42.3795 93.538,-28.388 72.3448,-19.5164"/>
<polygon fill="midnightblue" stroke="midnightblue" points="149.984,-55.8106 160.56,-56.4435 152.687,-49.3536 149.984,-55.8106"/>
</g>
<!-- Node3 -->
<g id="node5" class="node"><title>Node3</title>
<a xlink:href="sourceSystem_8cpp.html" target="_top" xlink:title="src/sourceSystem.cpp">
<polygon fill="white" stroke="black" points="123,-0.5 123,-19.5 239,-19.5 239,-0.5 123,-0.5"/>
<text text-anchor="middle" x="181" y="-7.5" font-family="FreeSans" font-size="10.00">src/sourceSystem.cpp</text>
</a>
</g>
<!-- Node1&#45;&gt;Node3 -->
<g id="edge4" class="edge"><title>Node1&#45;&gt;Node3</title>
<path fill="none" stroke="midnightblue" d="M181,-45.8045C181,-36.9102 181,-26.7798 181,-19.7511"/>
<polygon fill="midnightblue" stroke="midnightblue" points="177.5,-46.083 181,-56.083 184.5,-46.083 177.5,-46.083"/>
</g>
<!-- Node4 -->
<g id="node7" class="node"><title>Node4</title>
<a xlink:href="strainFunction_8cpp.html" target="_top" xlink:title="src/strainFunction.cpp">
<polygon fill="white" stroke="black" points="257,-0.5 257,-19.5 369,-19.5 369,-0.5 257,-0.5"/>
<text text-anchor="middle" x="313" y="-7.5" font-family="FreeSans" font-size="10.00">src/strainFunction.cpp</text>
</a>
</g>
<!-- Node1&#45;&gt;Node4 -->
<g id="edge6" class="edge"><title>Node1&#45;&gt;Node4</title>
<path fill="none" stroke="midnightblue" d="M211.219,-52.6377C235.99,-42.504 270.4,-28.4274 292.182,-19.5164"/>
<polygon fill="midnightblue" stroke="midnightblue" points="209.846,-49.4177 201.916,-56.4435 212.497,-55.8966 209.846,-49.4177"/>
</g>
</g>
</svg>
