<?xml version="1.0" encoding="UTF-8" standalone="no"?>
<!DOCTYPE svg PUBLIC "-//W3C//DTD SVG 1.1//EN"
 "http://www.w3.org/Graphics/SVG/1.1/DTD/svg11.dtd">
<!-- Generated by graphviz version 2.28.0 (20120425.2022)
 -->
<!-- Title: G Pages: 1 -->
<svg width="1869pt" height="376pt"
 viewBox="0.00 0.00 1869.00 376.00" xmlns="http://www.w3.org/2000/svg" xmlns:xlink="http://www.w3.org/1999/xlink">
<g id="graph1" class="graph" transform="scale(1 1) rotate(0) translate(4 372)">
<title>G</title>
<polygon fill="white" stroke="white" points="-4,5 -4,-372 1866,-372 1866,5 -4,5"/>
<!-- Node1 -->
<g id="node1" class="node"><title>Node1</title>
<polygon fill="#bfbfbf" stroke="black" points="327,-348.5 327,-367.5 443,-367.5 443,-348.5 327,-348.5"/>
<text text-anchor="middle" x="385" y="-355.5" font-family="FreeSans" font-size="10.00">src/strainedFlame.cpp</text>
</g>
<!-- Node2 -->
<g id="node3" class="node"><title>Node2</title>
<polygon fill="white" stroke="#bfbfbf" points="-0.5,-292.5 -0.5,-311.5 106.5,-311.5 106.5,-292.5 -0.5,-292.5"/>
<text text-anchor="middle" x="53" y="-299.5" font-family="FreeSans" font-size="10.00">boost/filesystem.hpp</text>
</g>
<!-- Node1&#45;&gt;Node2 -->
<g id="edge2" class="edge"><title>Node1&#45;&gt;Node2</title>
<path fill="none" stroke="midnightblue" d="M332.394,-348.444C273.506,-338.865 178.149,-323.356 115.506,-313.167"/>
<polygon fill="midnightblue" stroke="midnightblue" points="115.792,-309.667 105.36,-311.516 114.669,-316.577 115.792,-309.667"/>
</g>
<!-- Node3 -->
<g id="node5" class="node"><title>Node3</title>
<polygon fill="white" stroke="#bfbfbf" points="124.5,-292.5 124.5,-311.5 197.5,-311.5 197.5,-292.5 124.5,-292.5"/>
<text text-anchor="middle" x="161" y="-299.5" font-family="FreeSans" font-size="10.00">libconfig.h++</text>
</g>
<!-- Node1&#45;&gt;Node3 -->
<g id="edge4" class="edge"><title>Node1&#45;&gt;Node3</title>
<path fill="none" stroke="midnightblue" d="M349.507,-348.444C310.676,-339.083 248.344,-324.056 206.082,-313.868"/>
<polygon fill="midnightblue" stroke="midnightblue" points="206.869,-310.458 196.327,-311.516 205.229,-317.263 206.869,-310.458"/>
</g>
<!-- Node4 -->
<g id="node7" class="node"><title>Node4</title>
<a xlink:href="strainedFlame_8h.html" target="_top" xlink:title="strainedFlame.h">
<polygon fill="white" stroke="black" points="215.5,-292.5 215.5,-311.5 304.5,-311.5 304.5,-292.5 215.5,-292.5"/>
<text text-anchor="middle" x="260" y="-299.5" font-family="FreeSans" font-size="10.00">strainedFlame.h</text>
</a>
</g>
<!-- Node1&#45;&gt;Node4 -->
<g id="edge6" class="edge"><title>Node1&#45;&gt;Node4</title>
<path fill="none" stroke="midnightblue" d="M365.193,-348.444C344.713,-339.596 312.517,-325.687 289.135,-315.586"/>
<polygon fill="midnightblue" stroke="midnightblue" points="290.282,-312.269 279.714,-311.516 287.506,-318.695 290.282,-312.269"/>
</g>
<!-- Node5 -->
<g id="node9" class="node"><title>Node5</title>
<a xlink:href="debugUtils_8h.html" target="_top" xlink:title="debugUtils.h">
<polygon fill="white" stroke="black" points="109.5,-56.5 109.5,-75.5 180.5,-75.5 180.5,-56.5 109.5,-56.5"/>
<text text-anchor="middle" x="145" y="-63.5" font-family="FreeSans" font-size="10.00">debugUtils.h</text>
</a>
</g>
<!-- Node1&#45;&gt;Node5 -->
<g id="edge8" class="edge"><title>Node1&#45;&gt;Node5</title>
<path fill="none" stroke="midnightblue" d="M376.305,-348.358C359.209,-331.236 320.25,-291.58 290,-256 237.845,-194.655 181.152,-117.301 156.99,-83.7707"/>
<polygon fill="midnightblue" stroke="midnightblue" points="159.745,-81.6062 151.069,-75.5253 154.059,-85.6894 159.745,-81.6062"/>
</g>
<!-- Node11 -->
<g id="node21" class="node"><title>Node11</title>
<a xlink:href="sundialsUtils_8h.html" target="_top" xlink:title="sundialsUtils.h">
<polygon fill="white" stroke="black" points="838,-112.5 838,-131.5 918,-131.5 918,-112.5 838,-112.5"/>
<text text-anchor="middle" x="878" y="-119.5" font-family="FreeSans" font-size="10.00">sundialsUtils.h</text>
</a>
</g>
<!-- Node1&#45;&gt;Node11 -->
<g id="edge20" class="edge"><title>Node1&#45;&gt;Node11</title>
<path fill="none" stroke="midnightblue" d="M395.176,-348.27C430.762,-318.213 553.939,-218.117 673,-168 723.417,-146.778 785.199,-134.971 827.68,-128.835"/>
<polygon fill="midnightblue" stroke="midnightblue" points="828.354,-132.275 837.777,-127.431 827.39,-125.342 828.354,-132.275"/>
</g>
<!-- Node23 -->
<g id="node46" class="node"><title>Node23</title>
<a xlink:href="flameSolver_8h.html" target="_top" xlink:title="flameSolver.h">
<polygon fill="white" stroke="black" points="1118,-292.5 1118,-311.5 1196,-311.5 1196,-292.5 1118,-292.5"/>
<text text-anchor="middle" x="1157" y="-299.5" font-family="FreeSans" font-size="10.00">flameSolver.h</text>
</a>
</g>
<!-- Node1&#45;&gt;Node23 -->
<g id="edge46" class="edge"><title>Node1&#45;&gt;Node23</title>
<path fill="none" stroke="midnightblue" d="M443.025,-352.941C589.297,-342.71 971.135,-316.001 1107.61,-306.455"/>
<polygon fill="midnightblue" stroke="midnightblue" points="1108.04,-309.933 1117.77,-305.744 1107.55,-302.95 1108.04,-309.933"/>
</g>
<!-- Node28 -->
<g id="node57" class="node"><title>Node28</title>
<a xlink:href="readConfig_8h.html" target="_top" xlink:title="readConfig.h">
<polygon fill="white" stroke="black" points="1616,-112.5 1616,-131.5 1690,-131.5 1690,-112.5 1616,-112.5"/>
<text text-anchor="middle" x="1653" y="-119.5" font-family="FreeSans" font-size="10.00">readConfig.h</text>
</a>
</g>
<!-- Node1&#45;&gt;Node28 -->
<g id="edge162" class="edge"><title>Node1&#45;&gt;Node28</title>
<path fill="none" stroke="midnightblue" d="M443.043,-356.181C679.853,-352.337 1564.93,-332.895 1661,-256 1692.31,-230.937 1692.02,-206.565 1681,-168 1678.1,-157.844 1672.17,-147.747 1666.51,-139.699"/>
<polygon fill="midnightblue" stroke="midnightblue" points="1669.22,-137.479 1660.41,-131.589 1663.62,-141.685 1669.22,-137.479"/>
</g>
<!-- Node40 -->
<g id="node117" class="node"><title>Node40</title>
<a xlink:href="dataFile_8h.html" target="_top" xlink:title="dataFile.h">
<polygon fill="white" stroke="black" points="1709.5,-112.5 1709.5,-131.5 1770.5,-131.5 1770.5,-112.5 1709.5,-112.5"/>
<text text-anchor="middle" x="1740" y="-119.5" font-family="FreeSans" font-size="10.00">dataFile.h</text>
</a>
</g>
<!-- Node1&#45;&gt;Node40 -->
<g id="edge154" class="edge"><title>Node1&#45;&gt;Node40</title>
<path fill="none" stroke="midnightblue" d="M443.282,-356.335C639.726,-353.822 1276.6,-343.395 1479,-312 1572.33,-297.523 1612.96,-318.241 1684,-256 1718.6,-225.684 1732.38,-170.43 1737.4,-141.611"/>
<polygon fill="midnightblue" stroke="midnightblue" points="1740.87,-142.074 1738.97,-131.652 1733.96,-140.987 1740.87,-142.074"/>
</g>
<!-- Node6 -->
<g id="node11" class="node"><title>Node6</title>
<polygon fill="white" stroke="#bfbfbf" points="1540.5,-0.5 1540.5,-19.5 1581.5,-19.5 1581.5,-0.5 1540.5,-0.5"/>
<text text-anchor="middle" x="1561" y="-7.5" font-family="FreeSans" font-size="10.00">string</text>
</g>
<!-- Node5&#45;&gt;Node6 -->
<g id="edge10" class="edge"><title>Node5&#45;&gt;Node6</title>
<path fill="none" stroke="midnightblue" d="M180.9,-60.5187C195.492,-58.8508 212.53,-57.0983 228,-56 747.961,-19.084 1384.23,-12.2956 1530.18,-11.1949"/>
<polygon fill="midnightblue" stroke="midnightblue" points="1530.23,-14.6948 1540.21,-11.1226 1530.18,-7.69494 1530.23,-14.6948"/>
</g>
<!-- Node7 -->
<g id="node13" class="node"><title>Node7</title>
<polygon fill="white" stroke="#bfbfbf" points="281,-0.5 281,-19.5 337,-19.5 337,-0.5 281,-0.5"/>
<text text-anchor="middle" x="309" y="-7.5" font-family="FreeSans" font-size="10.00">iostream</text>
</g>
<!-- Node5&#45;&gt;Node7 -->
<g id="edge12" class="edge"><title>Node5&#45;&gt;Node7</title>
<path fill="none" stroke="midnightblue" d="M170.986,-56.4435C198.696,-47.3196 242.752,-32.8133 273.616,-22.6509"/>
<polygon fill="midnightblue" stroke="midnightblue" points="274.732,-25.9684 283.135,-19.5164 272.542,-19.3196 274.732,-25.9684"/>
</g>
<!-- Node8 -->
<g id="node15" class="node"><title>Node8</title>
<polygon fill="white" stroke="#bfbfbf" points="27,-0.5 27,-19.5 77,-19.5 77,-0.5 27,-0.5"/>
<text text-anchor="middle" x="52" y="-7.5" font-family="FreeSans" font-size="10.00">fstream</text>
</g>
<!-- Node5&#45;&gt;Node8 -->
<g id="edge14" class="edge"><title>Node5&#45;&gt;Node8</title>
<path fill="none" stroke="midnightblue" d="M130.058,-56.324C115.415,-47.8215 92.8663,-34.7288 75.7623,-24.7975"/>
<polygon fill="midnightblue" stroke="midnightblue" points="77.3104,-21.6491 66.905,-19.6545 73.7954,-27.7027 77.3104,-21.6491"/>
</g>
<!-- Node9 -->
<g id="node17" class="node"><title>Node9</title>
<polygon fill="white" stroke="#bfbfbf" points="95,-0.5 95,-19.5 155,-19.5 155,-0.5 95,-0.5"/>
<text text-anchor="middle" x="125" y="-7.5" font-family="FreeSans" font-size="10.00">exception</text>
</g>
<!-- Node5&#45;&gt;Node9 -->
<g id="edge16" class="edge"><title>Node5&#45;&gt;Node9</title>
<path fill="none" stroke="midnightblue" d="M141.697,-56.083C139.018,-48.8486 135.151,-38.4087 131.814,-29.3968"/>
<polygon fill="midnightblue" stroke="midnightblue" points="134.996,-27.9129 128.241,-19.7511 128.432,-30.3442 134.996,-27.9129"/>
</g>
<!-- Node10 -->
<g id="node19" class="node"><title>Node10</title>
<polygon fill="white" stroke="#bfbfbf" points="173,-0.5 173,-19.5 263,-19.5 263,-0.5 173,-0.5"/>
<text text-anchor="middle" x="218" y="-7.5" font-family="FreeSans" font-size="10.00">boost/format.hpp</text>
</g>
<!-- Node5&#45;&gt;Node10 -->
<g id="edge18" class="edge"><title>Node5&#45;&gt;Node10</title>
<path fill="none" stroke="midnightblue" d="M156.729,-56.324C167.837,-48.1066 184.742,-35.6017 197.983,-25.8069"/>
<polygon fill="midnightblue" stroke="midnightblue" points="200.1,-28.5948 206.058,-19.8339 195.937,-22.9671 200.1,-28.5948"/>
</g>
<!-- Node11&#45;&gt;Node7 -->
<g id="edge40" class="edge"><title>Node11&#45;&gt;Node7</title>
<path fill="none" stroke="midnightblue" d="M837.906,-120.304C717.885,-117.867 367.307,-108.049 328,-76 314.494,-64.9882 310.258,-44.9385 309.086,-30.0078"/>
<polygon fill="midnightblue" stroke="midnightblue" points="312.576,-29.6764 308.683,-19.8224 305.581,-29.9528 312.576,-29.6764"/>
</g>
<!-- Node12 -->
<g id="node23" class="node"><title>Node12</title>
<polygon fill="white" stroke="#bfbfbf" points="1039.5,-56.5 1039.5,-75.5 1162.5,-75.5 1162.5,-56.5 1039.5,-56.5"/>
<text text-anchor="middle" x="1101" y="-63.5" font-family="FreeSans" font-size="10.00">nvector/nvector_serial.h</text>
</g>
<!-- Node11&#45;&gt;Node12 -->
<g id="edge22" class="edge"><title>Node11&#45;&gt;Node12</title>
<path fill="none" stroke="midnightblue" d="M913.335,-112.444C951.911,-103.102 1013.78,-88.1194 1055.85,-77.9326"/>
<polygon fill="midnightblue" stroke="midnightblue" points="1056.93,-81.2717 1065.83,-75.5164 1055.29,-74.4683 1056.93,-81.2717"/>
</g>
<!-- Node13 -->
<g id="node25" class="node"><title>Node13</title>
<polygon fill="white" stroke="#bfbfbf" points="1181,-56.5 1181,-75.5 1317,-75.5 1317,-56.5 1181,-56.5"/>
<text text-anchor="middle" x="1249" y="-63.5" font-family="FreeSans" font-size="10.00">sundials/sundials_dense.h</text>
</g>
<!-- Node11&#45;&gt;Node13 -->
<g id="edge24" class="edge"><title>Node11&#45;&gt;Node13</title>
<path fill="none" stroke="midnightblue" d="M918.087,-114.208C922.775,-113.447 927.491,-112.696 932,-112 1015.43,-99.127 1111.44,-85.6899 1175.74,-76.8889"/>
<polygon fill="midnightblue" stroke="midnightblue" points="1176.35,-80.3386 1185.78,-75.5169 1175.4,-73.4031 1176.35,-80.3386"/>
</g>
<!-- Node14 -->
<g id="node27" class="node"><title>Node14</title>
<polygon fill="white" stroke="#bfbfbf" points="1335,-56.5 1335,-75.5 1465,-75.5 1465,-56.5 1335,-56.5"/>
<text text-anchor="middle" x="1400" y="-63.5" font-family="FreeSans" font-size="10.00">sundials/sundials_band.h</text>
</g>
<!-- Node11&#45;&gt;Node14 -->
<g id="edge26" class="edge"><title>Node11&#45;&gt;Node14</title>
<path fill="none" stroke="midnightblue" d="M918.056,-113.985C922.749,-113.264 927.475,-112.583 932,-112 1103.16,-89.9475 1149.44,-94.4376 1324.57,-76.1201"/>
<polygon fill="midnightblue" stroke="midnightblue" points="1325.07,-79.5874 1334.64,-75.0564 1324.33,-72.6261 1325.07,-79.5874"/>
</g>
<!-- Node15 -->
<g id="node29" class="node"><title>Node15</title>
<polygon fill="white" stroke="#bfbfbf" points="337.5,-56.5 337.5,-75.5 468.5,-75.5 468.5,-56.5 337.5,-56.5"/>
<text text-anchor="middle" x="403" y="-63.5" font-family="FreeSans" font-size="10.00">sundials/sundials_types.h</text>
</g>
<!-- Node11&#45;&gt;Node15 -->
<g id="edge28" class="edge"><title>Node11&#45;&gt;Node15</title>
<path fill="none" stroke="midnightblue" d="M837.963,-116.595C767.689,-108.842 617.293,-92.1526 479.19,-76.131"/>
<polygon fill="midnightblue" stroke="midnightblue" points="479.184,-72.6068 468.847,-74.9296 478.376,-79.56 479.184,-72.6068"/>
</g>
<!-- Node16 -->
<g id="node31" class="node"><title>Node16</title>
<polygon fill="white" stroke="#bfbfbf" points="487,-56.5 487,-75.5 571,-75.5 571,-56.5 487,-56.5"/>
<text text-anchor="middle" x="529" y="-63.5" font-family="FreeSans" font-size="10.00">cvode/cvode.h</text>
</g>
<!-- Node11&#45;&gt;Node16 -->
<g id="edge30" class="edge"><title>Node11&#45;&gt;Node16</title>
<path fill="none" stroke="midnightblue" d="M837.944,-115.273C782.588,-107.288 679.319,-92.1383 581.109,-76.1488"/>
<polygon fill="midnightblue" stroke="midnightblue" points="581.444,-72.6572 571.011,-74.4987 580.315,-79.5656 581.444,-72.6572"/>
</g>
<!-- Node17 -->
<g id="node33" class="node"><title>Node17</title>
<polygon fill="white" stroke="#bfbfbf" points="589,-56.5 589,-75.5 707,-75.5 707,-56.5 589,-56.5"/>
<text text-anchor="middle" x="648" y="-63.5" font-family="FreeSans" font-size="10.00">cvode/cvode_dense.h</text>
</g>
<!-- Node11&#45;&gt;Node17 -->
<g id="edge32" class="edge"><title>Node11&#45;&gt;Node17</title>
<path fill="none" stroke="midnightblue" d="M841.556,-112.444C801.601,-103.063 737.413,-87.9926 694.015,-77.8036"/>
<polygon fill="midnightblue" stroke="midnightblue" points="694.809,-74.3948 684.274,-75.5164 693.209,-81.2095 694.809,-74.3948"/>
</g>
<!-- Node18 -->
<g id="node35" class="node"><title>Node18</title>
<polygon fill="white" stroke="#bfbfbf" points="725,-56.5 725,-75.5 837,-75.5 837,-56.5 725,-56.5"/>
<text text-anchor="middle" x="781" y="-63.5" font-family="FreeSans" font-size="10.00">cvode/cvode_band.h</text>
</g>
<!-- Node11&#45;&gt;Node18 -->
<g id="edge34" class="edge"><title>Node11&#45;&gt;Node18</title>
<path fill="none" stroke="midnightblue" d="M862.415,-112.324C847.001,-103.743 823.188,-90.486 805.29,-80.5224"/>
<polygon fill="midnightblue" stroke="midnightblue" points="806.986,-77.4606 796.546,-75.6545 803.581,-83.5767 806.986,-77.4606"/>
</g>
<!-- Node19 -->
<g id="node37" class="node"><title>Node19</title>
<polygon fill="white" stroke="#bfbfbf" points="855,-56.5 855,-75.5 911,-75.5 911,-56.5 855,-56.5"/>
<text text-anchor="middle" x="883" y="-63.5" font-family="FreeSans" font-size="10.00">ida/ida.h</text>
</g>
<!-- Node11&#45;&gt;Node19 -->
<g id="edge36" class="edge"><title>Node11&#45;&gt;Node19</title>
<path fill="none" stroke="midnightblue" d="M878.826,-112.083C879.481,-105.006 880.42,-94.8611 881.242,-85.9865"/>
<polygon fill="midnightblue" stroke="midnightblue" points="884.753,-86.0312 882.19,-75.7511 877.783,-85.3858 884.753,-86.0312"/>
</g>
<!-- Node20 -->
<g id="node39" class="node"><title>Node20</title>
<polygon fill="white" stroke="#bfbfbf" points="928.5,-56.5 928.5,-75.5 1021.5,-75.5 1021.5,-56.5 928.5,-56.5"/>
<text text-anchor="middle" x="975" y="-63.5" font-family="FreeSans" font-size="10.00">ida/ida_spbcgs.h</text>
</g>
<!-- Node11&#45;&gt;Node20 -->
<g id="edge38" class="edge"><title>Node11&#45;&gt;Node20</title>
<path fill="none" stroke="midnightblue" d="M893.585,-112.324C908.999,-103.743 932.812,-90.486 950.71,-80.5224"/>
<polygon fill="midnightblue" stroke="midnightblue" points="952.419,-83.5767 959.454,-75.6545 949.014,-77.4606 952.419,-83.5767"/>
</g>
<!-- Node21 -->
<g id="node42" class="node"><title>Node21</title>
<polygon fill="white" stroke="#bfbfbf" points="1600,-0.5 1600,-19.5 1644,-19.5 1644,-0.5 1600,-0.5"/>
<text text-anchor="middle" x="1622" y="-7.5" font-family="FreeSans" font-size="10.00">vector</text>
</g>
<!-- Node11&#45;&gt;Node21 -->
<g id="edge42" class="edge"><title>Node11&#45;&gt;Node21</title>
<path fill="none" stroke="midnightblue" d="M918.042,-113.874C922.738,-113.172 927.468,-112.527 932,-112 1171.8,-84.1214 1239.5,-133.404 1474,-76 1520.04,-64.7293 1569.76,-40.0352 1598.25,-24.5373"/>
<polygon fill="midnightblue" stroke="midnightblue" points="1600.01,-27.5665 1607.07,-19.6668 1596.62,-21.4395 1600.01,-27.5665"/>
</g>
<!-- Node22 -->
<g id="node44" class="node"><title>Node22</title>
<polygon fill="white" stroke="#bfbfbf" points="237.5,-56.5 237.5,-75.5 280.5,-75.5 280.5,-56.5 237.5,-56.5"/>
<text text-anchor="middle" x="259" y="-63.5" font-family="FreeSans" font-size="10.00">time.h</text>
</g>
<!-- Node11&#45;&gt;Node22 -->
<g id="edge44" class="edge"><title>Node11&#45;&gt;Node22</title>
<path fill="none" stroke="midnightblue" d="M837.789,-120.217C742.771,-117.864 497.16,-108.833 295,-76 293.529,-75.7612 292.031,-75.492 290.521,-75.2001"/>
<polygon fill="midnightblue" stroke="midnightblue" points="291.097,-71.7433 280.58,-73.0199 289.598,-78.5808 291.097,-71.7433"/>
</g>
<!-- Node23&#45;&gt;Node7 -->
<g id="edge48" class="edge"><title>Node23&#45;&gt;Node7</title>
<path fill="none" stroke="midnightblue" d="M1117.72,-299.97C1042,-297.3 870.933,-287.946 731,-256 499.517,-203.154 364.715,-270.129 228,-76 212.143,-53.4844 244.04,-34.6982 272.353,-23.206"/>
<polygon fill="midnightblue" stroke="midnightblue" points="273.667,-26.4506 281.743,-19.5933 271.153,-19.9174 273.667,-26.4506"/>
</g>
<!-- Node23&#45;&gt;Node11 -->
<g id="edge70" class="edge"><title>Node23&#45;&gt;Node11</title>
<path fill="none" stroke="midnightblue" d="M1117.95,-299.369C1013.27,-294.037 731.045,-273.009 683,-200 646.888,-145.123 758.62,-129.352 827.68,-124.822"/>
<polygon fill="midnightblue" stroke="midnightblue" points="828.179,-128.299 837.953,-124.21 827.762,-121.311 828.179,-128.299"/>
</g>
<!-- Node24 -->
<g id="node49" class="node"><title>Node24</title>
<polygon fill="white" stroke="#bfbfbf" points="692.5,-169 692.5,-199 793.5,-199 793.5,-169 692.5,-169"/>
<text text-anchor="start" x="700.5" y="-187" font-family="FreeSans" font-size="10.00">boost/ptr_container</text>
<text text-anchor="middle" x="743" y="-176" font-family="FreeSans" font-size="10.00">/ptr_vector.hpp</text>
</g>
<!-- Node23&#45;&gt;Node24 -->
<g id="edge50" class="edge"><title>Node23&#45;&gt;Node24</title>
<path fill="none" stroke="midnightblue" d="M1117.73,-300.228C1059.02,-297.957 945.683,-289.215 856,-256 823.393,-243.924 790.181,-221.605 768.28,-205.204"/>
<polygon fill="midnightblue" stroke="midnightblue" points="770.257,-202.31 760.184,-199.023 766.009,-207.873 770.257,-202.31"/>
</g>
<!-- Node25 -->
<g id="node51" class="node"><title>Node25</title>
<polygon fill="white" stroke="#bfbfbf" points="974,-174.5 974,-193.5 1084,-193.5 1084,-174.5 974,-174.5"/>
<text text-anchor="middle" x="1029" y="-181.5" font-family="FreeSans" font-size="10.00">boost/shared_ptr.hpp</text>
</g>
<!-- Node23&#45;&gt;Node25 -->
<g id="edge52" class="edge"><title>Node23&#45;&gt;Node25</title>
<path fill="none" stroke="midnightblue" d="M1117.82,-300.454C1050.03,-298.588 915.258,-290.517 886,-256 858.837,-223.954 913.957,-204.967 963.453,-194.809"/>
<polygon fill="midnightblue" stroke="midnightblue" points="964.43,-198.184 973.574,-192.833 963.089,-191.314 964.43,-198.184"/>
</g>
<!-- Node26 -->
<g id="node53" class="node"><title>Node26</title>
<polygon fill="white" stroke="#bfbfbf" points="1166.5,-236.5 1166.5,-255.5 1255.5,-255.5 1255.5,-236.5 1166.5,-236.5"/>
<text text-anchor="middle" x="1211" y="-243.5" font-family="FreeSans" font-size="10.00">tbb/parallel_for.h</text>
</g>
<!-- Node23&#45;&gt;Node26 -->
<g id="edge54" class="edge"><title>Node23&#45;&gt;Node26</title>
<path fill="none" stroke="midnightblue" d="M1165.92,-292.083C1173.78,-284.22 1185.43,-272.569 1194.92,-263.081"/>
<polygon fill="midnightblue" stroke="midnightblue" points="1197.65,-265.297 1202.25,-255.751 1192.7,-260.347 1197.65,-265.297"/>
</g>
<!-- Node27 -->
<g id="node55" class="node"><title>Node27</title>
<polygon fill="white" stroke="#bfbfbf" points="1273.5,-236.5 1273.5,-255.5 1380.5,-255.5 1380.5,-236.5 1273.5,-236.5"/>
<text text-anchor="middle" x="1327" y="-243.5" font-family="FreeSans" font-size="10.00">tbb/blocked_range.h</text>
</g>
<!-- Node23&#45;&gt;Node27 -->
<g id="edge56" class="edge"><title>Node23&#45;&gt;Node27</title>
<path fill="none" stroke="midnightblue" d="M1183.94,-292.444C1212.66,-283.32 1258.33,-268.813 1290.32,-258.651"/>
<polygon fill="midnightblue" stroke="midnightblue" points="1291.72,-261.88 1300.19,-255.516 1289.6,-255.208 1291.72,-261.88"/>
</g>
<!-- Node23&#45;&gt;Node28 -->
<g id="edge58" class="edge"><title>Node23&#45;&gt;Node28</title>
<path fill="none" stroke="midnightblue" d="M1196.32,-299.463C1304.47,-294.936 1600.78,-280.419 1637,-256 1671.14,-232.979 1671.77,-208.774 1666,-168 1664.73,-159.042 1662.11,-149.372 1659.55,-141.3"/>
<polygon fill="midnightblue" stroke="midnightblue" points="1662.86,-140.157 1656.34,-131.803 1656.23,-142.398 1662.86,-140.157"/>
</g>
<!-- Node30 -->
<g id="node66" class="node"><title>Node30</title>
<a xlink:href="chemistry0d_8h.html" target="_top" xlink:title="chemistry0d.h">
<polygon fill="white" stroke="red" points="1360,-174.5 1360,-193.5 1438,-193.5 1438,-174.5 1360,-174.5"/>
<text text-anchor="middle" x="1399" y="-181.5" font-family="FreeSans" font-size="10.00">chemistry0d.h</text>
</a>
</g>
<!-- Node23&#45;&gt;Node30 -->
<g id="edge72" class="edge"><title>Node23&#45;&gt;Node30</title>
<path fill="none" stroke="midnightblue" d="M1196.13,-299.777C1259.18,-296.891 1378.85,-287.323 1405,-256 1417.11,-241.495 1412.63,-219.022 1407.05,-203.253"/>
<polygon fill="midnightblue" stroke="midnightblue" points="1410.15,-201.583 1403.2,-193.588 1403.65,-204.174 1410.15,-201.583"/>
</g>
<!-- Node31 -->
<g id="node70" class="node"><title>Node31</title>
<a xlink:href="grid_8h.html" target="_top" xlink:title="grid.h">
<polygon fill="white" stroke="black" points="1616.5,-174.5 1616.5,-193.5 1657.5,-193.5 1657.5,-174.5 1616.5,-174.5"/>
<text text-anchor="middle" x="1637" y="-181.5" font-family="FreeSans" font-size="10.00">grid.h</text>
</a>
</g>
<!-- Node23&#45;&gt;Node31 -->
<g id="edge78" class="edge"><title>Node23&#45;&gt;Node31</title>
<path fill="none" stroke="midnightblue" d="M1196.08,-299.672C1301.33,-295.75 1585,-282.781 1617,-256 1632.16,-243.312 1636.31,-220.108 1637.21,-203.684"/>
<polygon fill="midnightblue" stroke="midnightblue" points="1640.72,-203.679 1637.42,-193.61 1633.72,-203.537 1640.72,-203.679"/>
</g>
<!-- Node32 -->
<g id="node73" class="node"><title>Node32</title>
<a xlink:href="perfTimer_8h.html" target="_top" xlink:title="perfTimer.h">
<polygon fill="white" stroke="red" points="812,-174.5 812,-193.5 880,-193.5 880,-174.5 812,-174.5"/>
<text text-anchor="middle" x="846" y="-181.5" font-family="FreeSans" font-size="10.00">perfTimer.h</text>
</a>
</g>
<!-- Node23&#45;&gt;Node32 -->
<g id="edge82" class="edge"><title>Node23&#45;&gt;Node32</title>
<path fill="none" stroke="midnightblue" d="M1117.79,-299.406C1049.36,-295.881 911.899,-285.271 875,-256 858.897,-243.225 851.669,-220.039 848.469,-203.644"/>
<polygon fill="midnightblue" stroke="midnightblue" points="851.894,-202.899 846.837,-193.589 844.984,-204.021 851.894,-202.899"/>
</g>
<!-- Node33 -->
<g id="node76" class="node"><title>Node33</title>
<a xlink:href="integrator_8h.html" target="_top" xlink:title="integrator.h">
<polygon fill="white" stroke="black" points="1456,-174.5 1456,-193.5 1522,-193.5 1522,-174.5 1456,-174.5"/>
<text text-anchor="middle" x="1489" y="-181.5" font-family="FreeSans" font-size="10.00">integrator.h</text>
</a>
</g>
<!-- Node23&#45;&gt;Node33 -->
<g id="edge86" class="edge"><title>Node23&#45;&gt;Node33</title>
<path fill="none" stroke="midnightblue" d="M1196.33,-301.921C1250.37,-301.562 1349.17,-294.967 1422,-256 1445.96,-243.182 1466.18,-218.575 1477.96,-201.971"/>
<polygon fill="midnightblue" stroke="midnightblue" points="1480.86,-203.929 1483.6,-193.695 1475.07,-199.986 1480.86,-203.929"/>
</g>
<!-- Node34 -->
<g id="node80" class="node"><title>Node34</title>
<a xlink:href="sourceSystem_8h.html" target="_top" xlink:title="sourceSystem.h">
<polygon fill="white" stroke="red" points="1059.5,-236.5 1059.5,-255.5 1148.5,-255.5 1148.5,-236.5 1059.5,-236.5"/>
<text text-anchor="middle" x="1104" y="-243.5" font-family="FreeSans" font-size="10.00">sourceSystem.h</text>
</a>
</g>
<!-- Node23&#45;&gt;Node34 -->
<g id="edge92" class="edge"><title>Node23&#45;&gt;Node34</title>
<path fill="none" stroke="midnightblue" d="M1148.25,-292.083C1140.53,-284.22 1129.1,-272.569 1119.78,-263.081"/>
<polygon fill="midnightblue" stroke="midnightblue" points="1122.09,-260.436 1112.59,-255.751 1117.1,-265.34 1122.09,-260.436"/>
</g>
<!-- Node35 -->
<g id="node85" class="node"><title>Node35</title>
<a xlink:href="strainFunction_8h.html" target="_top" xlink:title="strainFunction.h">
<polygon fill="white" stroke="black" points="1256.5,-174.5 1256.5,-193.5 1341.5,-193.5 1341.5,-174.5 1256.5,-174.5"/>
<text text-anchor="middle" x="1299" y="-181.5" font-family="FreeSans" font-size="10.00">strainFunction.h</text>
</a>
</g>
<!-- Node23&#45;&gt;Node35 -->
<g id="edge146" class="edge"><title>Node23&#45;&gt;Node35</title>
<path fill="none" stroke="midnightblue" d="M1196.03,-299.234C1255.64,-295.628 1364.98,-285.121 1389,-256 1409.28,-231.405 1368.94,-209.79 1335.91,-197.056"/>
<polygon fill="midnightblue" stroke="midnightblue" points="1337,-193.727 1326.4,-193.55 1334.57,-200.295 1337,-193.727"/>
</g>
<!-- Node36 -->
<g id="node89" class="node"><title>Node36</title>
<a xlink:href="quasi2d_8h.html" target="_top" xlink:title="quasi2d.h">
<polygon fill="white" stroke="red" points="1102,-174.5 1102,-193.5 1162,-193.5 1162,-174.5 1102,-174.5"/>
<text text-anchor="middle" x="1132" y="-181.5" font-family="FreeSans" font-size="10.00">quasi2d.h</text>
</a>
</g>
<!-- Node23&#45;&gt;Node36 -->
<g id="edge148" class="edge"><title>Node23&#45;&gt;Node36</title>
<path fill="none" stroke="midnightblue" d="M1117.97,-295.532C1093.99,-289.936 1065.05,-278.661 1050,-256 1045.08,-248.596 1045.68,-243.77 1050,-236 1056.14,-224.958 1083.46,-209.243 1104.91,-198.183"/>
<polygon fill="midnightblue" stroke="midnightblue" points="1106.61,-201.245 1113.95,-193.609 1103.45,-194.999 1106.61,-201.245"/>
</g>
<!-- Node37 -->
<g id="node94" class="node"><title>Node37</title>
<a xlink:href="diffusionSystem_8h.html" target="_top" xlink:title="diffusionSystem.h">
<polygon fill="white" stroke="black" points="1513.5,-236.5 1513.5,-255.5 1608.5,-255.5 1608.5,-236.5 1513.5,-236.5"/>
<text text-anchor="middle" x="1561" y="-243.5" font-family="FreeSans" font-size="10.00">diffusionSystem.h</text>
</a>
</g>
<!-- Node23&#45;&gt;Node37 -->
<g id="edge114" class="edge"><title>Node23&#45;&gt;Node37</title>
<path fill="none" stroke="midnightblue" d="M1196,-296.04C1259.52,-287.923 1389.25,-271.185 1499,-256 1500.3,-255.82 1501.62,-255.636 1502.95,-255.451"/>
<polygon fill="midnightblue" stroke="midnightblue" points="1503.87,-258.856 1513.28,-253.992 1502.89,-251.924 1503.87,-258.856"/>
</g>
<!-- Node38 -->
<g id="node101" class="node"><title>Node38</title>
<a xlink:href="convectionSystem_8h.html" target="_top" xlink:title="convectionSystem.h">
<polygon fill="white" stroke="black" points="895.5,-236.5 895.5,-255.5 1002.5,-255.5 1002.5,-236.5 895.5,-236.5"/>
<text text-anchor="middle" x="949" y="-243.5" font-family="FreeSans" font-size="10.00">convectionSystem.h</text>
</a>
</g>
<!-- Node23&#45;&gt;Node38 -->
<g id="edge126" class="edge"><title>Node23&#45;&gt;Node38</title>
<path fill="none" stroke="midnightblue" d="M1124.04,-292.444C1088.21,-283.142 1030.84,-268.246 991.609,-258.062"/>
<polygon fill="midnightblue" stroke="midnightblue" points="992.363,-254.642 981.804,-255.516 990.604,-261.417 992.363,-254.642"/>
</g>
<!-- Node39 -->
<g id="node114" class="node"><title>Node39</title>
<a xlink:href="threadUtils_8h.html" target="_top" xlink:title="threadUtils.h">
<polygon fill="white" stroke="red" points="1790.5,-112.5 1790.5,-131.5 1861.5,-131.5 1861.5,-112.5 1790.5,-112.5"/>
<text text-anchor="middle" x="1826" y="-119.5" font-family="FreeSans" font-size="10.00">threadUtils.h</text>
</a>
</g>
<!-- Node23&#45;&gt;Node39 -->
<g id="edge150" class="edge"><title>Node23&#45;&gt;Node39</title>
<path fill="none" stroke="midnightblue" d="M1196.06,-300.427C1299.2,-298.453 1576.69,-290.04 1661,-256 1726.21,-229.671 1786.02,-168.519 1812.15,-139.219"/>
<polygon fill="midnightblue" stroke="midnightblue" points="1814.92,-141.367 1818.87,-131.538 1809.65,-136.756 1814.92,-141.367"/>
</g>
<!-- Node28&#45;&gt;Node6 -->
<g id="edge68" class="edge"><title>Node28&#45;&gt;Node6</title>
<path fill="none" stroke="midnightblue" d="M1652.24,-112.117C1650.68,-98.7025 1646.1,-73.0368 1633,-56 1622.09,-41.8114 1605.34,-30.9597 1590.73,-23.471"/>
<polygon fill="midnightblue" stroke="midnightblue" points="1592.06,-20.2243 1581.53,-19.0342 1589.02,-26.5298 1592.06,-20.2243"/>
</g>
<!-- Node29 -->
<g id="node59" class="node"><title>Node29</title>
<a xlink:href="mathUtils_8h.html" target="_top" xlink:title="mathUtils.h">
<polygon fill="white" stroke="red" points="1559.5,-56.5 1559.5,-75.5 1624.5,-75.5 1624.5,-56.5 1559.5,-56.5"/>
<text text-anchor="middle" x="1592" y="-63.5" font-family="FreeSans" font-size="10.00">mathUtils.h</text>
</a>
</g>
<!-- Node28&#45;&gt;Node29 -->
<g id="edge60" class="edge"><title>Node28&#45;&gt;Node29</title>
<path fill="none" stroke="midnightblue" d="M1643.2,-112.324C1634.18,-104.341 1620.59,-92.3128 1609.68,-82.6529"/>
<polygon fill="midnightblue" stroke="midnightblue" points="1611.79,-79.8416 1601.98,-75.8339 1607.15,-85.083 1611.79,-79.8416"/>
</g>
<!-- Node29&#45;&gt;Node6 -->
<g id="edge66" class="edge"><title>Node29&#45;&gt;Node6</title>
<path fill="none" stroke="midnightblue" d="M1586.88,-56.083C1582.59,-48.6127 1576.34,-37.7244 1571.06,-28.5199"/>
<polygon fill="midnightblue" stroke="midnightblue" points="1574.04,-26.6811 1566.02,-19.7511 1567.97,-30.1662 1574.04,-26.6811"/>
</g>
<!-- Node29&#45;&gt;Node7 -->
<g id="edge64" class="edge"><title>Node29&#45;&gt;Node7</title>
<path fill="none" stroke="midnightblue" d="M1559.47,-62.1887C1535.78,-60.2225 1502.92,-57.6609 1474,-56 1031.91,-30.6114 494.604,-15.7519 347.692,-11.9673"/>
<polygon fill="midnightblue" stroke="midnightblue" points="347.49,-8.46106 337.404,-11.704 347.311,-15.4588 347.49,-8.46106"/>
</g>
<!-- Node29&#45;&gt;Node21 -->
<g id="edge62" class="edge"><title>Node29&#45;&gt;Node21</title>
<path fill="none" stroke="midnightblue" d="M1596.95,-56.083C1601.1,-48.6127 1607.15,-37.7244 1612.27,-28.5199"/>
<polygon fill="midnightblue" stroke="midnightblue" points="1615.34,-30.1924 1617.14,-19.7511 1609.22,-26.7929 1615.34,-30.1924"/>
</g>
<!-- Node30&#45;&gt;Node28 -->
<g id="edge76" class="edge"><title>Node30&#45;&gt;Node28</title>
<path fill="none" stroke="midnightblue" d="M1424.79,-174.485C1431.94,-172.247 1439.74,-169.923 1447,-168 1501.1,-153.667 1564.06,-140.403 1606,-132.044"/>
<polygon fill="midnightblue" stroke="midnightblue" points="1606.8,-135.454 1615.93,-130.078 1605.44,-128.587 1606.8,-135.454"/>
</g>
<!-- Node30&#45;&gt;Node29 -->
<g id="edge74" class="edge"><title>Node30&#45;&gt;Node29</title>
<path fill="none" stroke="midnightblue" d="M1413.19,-174.47C1446.3,-154.569 1528.9,-104.922 1569.19,-80.711"/>
<polygon fill="midnightblue" stroke="midnightblue" points="1571.02,-83.6937 1577.79,-75.5423 1567.41,-77.6939 1571.02,-83.6937"/>
</g>
<!-- Node31&#45;&gt;Node28 -->
<g id="edge80" class="edge"><title>Node31&#45;&gt;Node28</title>
<path fill="none" stroke="midnightblue" d="M1639.29,-174.403C1641.57,-165.849 1645.15,-152.45 1648.07,-141.476"/>
<polygon fill="midnightblue" stroke="midnightblue" points="1651.52,-142.145 1650.71,-131.581 1644.75,-140.341 1651.52,-142.145"/>
</g>
<!-- Node32&#45;&gt;Node22 -->
<g id="edge84" class="edge"><title>Node32&#45;&gt;Node22</title>
<path fill="none" stroke="midnightblue" d="M822.9,-174.424C816.216,-172.135 808.87,-169.8 802,-168 751.842,-154.859 398.808,-91.8226 290.511,-72.5862"/>
<polygon fill="midnightblue" stroke="midnightblue" points="290.985,-69.1156 280.527,-70.8136 289.761,-76.0078 290.985,-69.1156"/>
</g>
<!-- Node33&#45;&gt;Node11 -->
<g id="edge90" class="edge"><title>Node33&#45;&gt;Node11</title>
<path fill="none" stroke="midnightblue" d="M1468.38,-174.413C1461.67,-171.951 1454.12,-169.524 1447,-168 1258.66,-127.666 1028.3,-122.638 928.306,-122.556"/>
<polygon fill="midnightblue" stroke="midnightblue" points="928.184,-119.056 918.187,-122.564 928.19,-126.056 928.184,-119.056"/>
</g>
<!-- Node33&#45;&gt;Node29 -->
<g id="edge88" class="edge"><title>Node33&#45;&gt;Node29</title>
<path fill="none" stroke="midnightblue" d="M1496.74,-174.281C1513.98,-154.872 1555.72,-107.861 1577.78,-83.0108"/>
<polygon fill="midnightblue" stroke="midnightblue" points="1580.43,-85.3063 1584.45,-75.5048 1575.19,-80.6586 1580.43,-85.3063"/>
</g>
<!-- Node34&#45;&gt;Node11 -->
<g id="edge96" class="edge"><title>Node34&#45;&gt;Node11</title>
<path fill="none" stroke="midnightblue" d="M1126.46,-236.382C1141.77,-229.184 1160.86,-217.288 1170,-200 1176.65,-187.426 1179.26,-178.795 1170,-168 1139.46,-132.395 1003.51,-124.696 928.363,-123.203"/>
<polygon fill="midnightblue" stroke="midnightblue" points="928.237,-119.7 918.179,-123.031 928.119,-126.699 928.237,-119.7"/>
</g>
<!-- Node34&#45;&gt;Node25 -->
<g id="edge112" class="edge"><title>Node34&#45;&gt;Node25</title>
<path fill="none" stroke="midnightblue" d="M1093.25,-236.403C1081.45,-226.958 1062.26,-211.606 1047.92,-200.134"/>
<polygon fill="midnightblue" stroke="midnightblue" points="1049.72,-197.095 1039.73,-193.581 1045.35,-202.561 1049.72,-197.095"/>
</g>
<!-- Node34&#45;&gt;Node29 -->
<g id="edge94" class="edge"><title>Node34&#45;&gt;Node29</title>
<path fill="none" stroke="midnightblue" d="M1120.12,-236.398C1137.04,-227.359 1164.41,-212.717 1188,-200 1214.26,-185.845 1219.42,-179.366 1247,-168 1352.44,-124.551 1483.12,-91.6711 1549.3,-76.4082"/>
<polygon fill="midnightblue" stroke="midnightblue" points="1550.38,-79.7508 1559.35,-74.111 1548.82,-72.9267 1550.38,-79.7508"/>
</g>
<!-- Node34&#45;&gt;Node30 -->
<g id="edge98" class="edge"><title>Node34&#45;&gt;Node30</title>
<path fill="none" stroke="midnightblue" d="M1148.7,-237.114C1214.25,-225.505 1330.78,-204.683 1350,-200 1354.4,-198.929 1358.98,-197.691 1363.51,-196.394"/>
<polygon fill="midnightblue" stroke="midnightblue" points="1364.63,-199.712 1373.22,-193.507 1362.63,-193.002 1364.63,-199.712"/>
</g>
<!-- Node34&#45;&gt;Node32 -->
<g id="edge104" class="edge"><title>Node34&#45;&gt;Node32</title>
<path fill="none" stroke="midnightblue" d="M1067.31,-236.467C1020.58,-225.601 939.929,-206.844 889.965,-195.224"/>
<polygon fill="midnightblue" stroke="midnightblue" points="890.63,-191.786 880.097,-192.929 889.044,-198.604 890.63,-191.786"/>
</g>
<!-- Node34&#45;&gt;Node35 -->
<g id="edge100" class="edge"><title>Node34&#45;&gt;Node35</title>
<path fill="none" stroke="midnightblue" d="M1131.94,-236.403C1165.97,-225.933 1223.58,-208.205 1261.46,-196.55"/>
<polygon fill="midnightblue" stroke="midnightblue" points="1262.58,-199.867 1271.11,-193.581 1260.53,-193.176 1262.58,-199.867"/>
</g>
<!-- Node34&#45;&gt;Node36 -->
<g id="edge106" class="edge"><title>Node34&#45;&gt;Node36</title>
<path fill="none" stroke="midnightblue" d="M1108.01,-236.403C1112.09,-227.671 1118.52,-213.889 1123.7,-202.794"/>
<polygon fill="midnightblue" stroke="midnightblue" points="1126.94,-204.123 1128,-193.581 1120.6,-201.162 1126.94,-204.123"/>
</g>
<!-- Node35&#45;&gt;Node28 -->
<g id="edge102" class="edge"><title>Node35&#45;&gt;Node28</title>
<path fill="none" stroke="midnightblue" d="M1326.08,-174.45C1334.05,-172.134 1342.83,-169.779 1351,-168 1440.17,-148.585 1545.99,-134.931 1605.74,-128.071"/>
<polygon fill="midnightblue" stroke="midnightblue" points="1606.45,-131.513 1615.99,-126.909 1605.66,-124.558 1606.45,-131.513"/>
</g>
<!-- Node36&#45;&gt;Node6 -->
<g id="edge110" class="edge"><title>Node36&#45;&gt;Node6</title>
<path fill="none" stroke="midnightblue" d="M1143.3,-174.406C1163.9,-159.203 1209.47,-127.697 1253,-112 1346.62,-78.2446 1382.4,-114.897 1474,-76 1501.49,-64.3276 1528.27,-42.2165 1544.69,-27.0521"/>
<polygon fill="midnightblue" stroke="midnightblue" points="1547.44,-29.2693 1552.28,-19.8474 1542.62,-24.1912 1547.44,-29.2693"/>
</g>
<!-- Node36&#45;&gt;Node29 -->
<g id="edge108" class="edge"><title>Node36&#45;&gt;Node29</title>
<path fill="none" stroke="midnightblue" d="M1152.45,-174.371C1197.01,-155.569 1299.08,-112.535 1301,-112 1406.59,-82.5389 1436.92,-94.3123 1545,-76 1546.46,-75.7528 1547.94,-75.4964 1549.44,-75.2333"/>
<polygon fill="midnightblue" stroke="midnightblue" points="1550.2,-78.6526 1559.42,-73.4261 1548.95,-71.7647 1550.2,-78.6526"/>
</g>
<!-- Node37&#45;&gt;Node11 -->
<g id="edge118" class="edge"><title>Node37&#45;&gt;Node11</title>
<path fill="none" stroke="midnightblue" d="M1560.47,-236.028C1558.97,-219.472 1553.19,-184.318 1531,-168 1482.88,-132.617 1073.39,-125 928.524,-123.408"/>
<polygon fill="midnightblue" stroke="midnightblue" points="928.192,-119.904 918.156,-123.299 928.119,-126.904 928.192,-119.904"/>
</g>
<!-- Node37&#45;&gt;Node29 -->
<g id="edge116" class="edge"><title>Node37&#45;&gt;Node29</title>
<path fill="none" stroke="midnightblue" d="M1562.5,-236.415C1567.23,-209.227 1581.98,-124.563 1588.65,-86.2169"/>
<polygon fill="midnightblue" stroke="midnightblue" points="1592.18,-86.3707 1590.45,-75.9185 1585.28,-85.1696 1592.18,-86.3707"/>
</g>
<!-- Node37&#45;&gt;Node30 -->
<g id="edge120" class="edge"><title>Node37&#45;&gt;Node30</title>
<path fill="none" stroke="midnightblue" d="M1537.79,-236.403C1510,-226.111 1463.28,-208.806 1431.81,-197.15"/>
<polygon fill="midnightblue" stroke="midnightblue" points="1432.76,-193.772 1422.17,-193.581 1430.33,-200.336 1432.76,-193.772"/>
</g>
<!-- Node37&#45;&gt;Node31 -->
<g id="edge122" class="edge"><title>Node37&#45;&gt;Node31</title>
<path fill="none" stroke="midnightblue" d="M1571.89,-236.403C1583.97,-226.869 1603.67,-211.315 1618.24,-199.811"/>
<polygon fill="midnightblue" stroke="midnightblue" points="1620.45,-202.524 1626.13,-193.581 1616.11,-197.03 1620.45,-202.524"/>
</g>
<!-- Node37&#45;&gt;Node33 -->
<g id="edge124" class="edge"><title>Node37&#45;&gt;Node33</title>
<path fill="none" stroke="midnightblue" d="M1550.68,-236.403C1539.35,-226.958 1520.93,-211.606 1507.16,-200.134"/>
<polygon fill="midnightblue" stroke="midnightblue" points="1509.22,-197.294 1499.3,-193.581 1504.74,-202.671 1509.22,-197.294"/>
</g>
<!-- Node38&#45;&gt;Node11 -->
<g id="edge130" class="edge"><title>Node38&#45;&gt;Node11</title>
<path fill="none" stroke="midnightblue" d="M943.894,-236.226C932.278,-216.266 903.69,-167.144 888.265,-140.638"/>
<polygon fill="midnightblue" stroke="midnightblue" points="891.115,-138.577 883.06,-131.694 885.065,-142.098 891.115,-138.577"/>
</g>
<!-- Node38&#45;&gt;Node24 -->
<g id="edge144" class="edge"><title>Node38&#45;&gt;Node24</title>
<path fill="none" stroke="midnightblue" d="M919.485,-236.403C888.745,-227.45 839.785,-213.19 801.222,-201.958"/>
<polygon fill="midnightblue" stroke="midnightblue" points="801.733,-198.461 791.154,-199.025 799.776,-205.182 801.733,-198.461"/>
</g>
<!-- Node38&#45;&gt;Node25 -->
<g id="edge142" class="edge"><title>Node38&#45;&gt;Node25</title>
<path fill="none" stroke="midnightblue" d="M960.462,-236.403C973.175,-226.869 993.913,-211.315 1009.25,-199.811"/>
<polygon fill="midnightblue" stroke="midnightblue" points="1011.66,-202.381 1017.56,-193.581 1007.46,-196.781 1011.66,-202.381"/>
</g>
<!-- Node38&#45;&gt;Node29 -->
<g id="edge128" class="edge"><title>Node38&#45;&gt;Node29</title>
<path fill="none" stroke="midnightblue" d="M948.004,-236.424C946.678,-220.527 946.357,-186.43 965,-168 1057.11,-76.9411 1123.18,-132.927 1251,-112 1307.61,-102.732 1471.31,-82.0297 1549.48,-72.2757"/>
<polygon fill="midnightblue" stroke="midnightblue" points="1549.98,-75.7401 1559.47,-71.0301 1549.12,-68.7938 1549.98,-75.7401"/>
</g>
<!-- Node38&#45;&gt;Node30 -->
<g id="edge136" class="edge"><title>Node38&#45;&gt;Node30</title>
<path fill="none" stroke="midnightblue" d="M1002.59,-240.229C1096.01,-231.706 1284.92,-213.492 1350,-200 1354.76,-199.014 1359.72,-197.765 1364.57,-196.411"/>
<polygon fill="midnightblue" stroke="midnightblue" points="1365.71,-199.726 1374.3,-193.535 1363.72,-193.014 1365.71,-199.726"/>
</g>
<!-- Node38&#45;&gt;Node31 -->
<g id="edge134" class="edge"><title>Node38&#45;&gt;Node31</title>
<path fill="none" stroke="midnightblue" d="M1002.71,-240.071C1017.99,-238.708 1034.65,-237.258 1050,-236 1263.66,-218.486 1317.87,-223.031 1531,-200 1556.45,-197.25 1585.2,-193.117 1606.33,-189.885"/>
<polygon fill="midnightblue" stroke="midnightblue" points="1606.99,-193.325 1616.33,-188.336 1605.91,-186.408 1606.99,-193.325"/>
</g>
<!-- Node38&#45;&gt;Node32 -->
<g id="edge138" class="edge"><title>Node38&#45;&gt;Node32</title>
<path fill="none" stroke="midnightblue" d="M934.243,-236.403C917.339,-226.557 889.417,-210.291 869.51,-198.695"/>
<polygon fill="midnightblue" stroke="midnightblue" points="871.133,-195.59 860.73,-193.581 867.609,-201.638 871.133,-195.59"/>
</g>
<!-- Node38&#45;&gt;Node35 -->
<g id="edge132" class="edge"><title>Node38&#45;&gt;Node35</title>
<path fill="none" stroke="midnightblue" d="M998.775,-236.467C1064.39,-225.219 1179.32,-205.517 1246.34,-194.028"/>
<polygon fill="midnightblue" stroke="midnightblue" points="1247,-197.465 1256.27,-192.325 1245.82,-190.565 1247,-197.465"/>
</g>
<!-- Node38&#45;&gt;Node36 -->
<g id="edge140" class="edge"><title>Node38&#45;&gt;Node36</title>
<path fill="none" stroke="midnightblue" d="M978.14,-236.493C1007.36,-227.824 1053.55,-213.736 1093,-200 1095.61,-199.092 1098.3,-198.123 1101,-197.13"/>
<polygon fill="midnightblue" stroke="midnightblue" points="1102.51,-200.301 1110.63,-193.502 1100.04,-193.75 1102.51,-200.301"/>
</g>
<!-- Node39&#45;&gt;Node21 -->
<g id="edge152" class="edge"><title>Node39&#45;&gt;Node21</title>
<path fill="none" stroke="midnightblue" d="M1821.07,-112.463C1812.6,-98.565 1793.98,-71.0893 1771,-56 1734.98,-32.3509 1686.01,-20.7033 1654.21,-15.2819"/>
<polygon fill="midnightblue" stroke="midnightblue" points="1654.55,-11.7924 1644.13,-13.6737 1653.45,-18.7051 1654.55,-11.7924"/>
</g>
<!-- Node40&#45;&gt;Node6 -->
<g id="edge156" class="edge"><title>Node40&#45;&gt;Node6</title>
<path fill="none" stroke="midnightblue" d="M1729.59,-112.359C1713.54,-99.2599 1681.51,-74.001 1652,-56 1631.98,-43.7859 1608.18,-32.1098 1589.94,-23.7131"/>
<polygon fill="midnightblue" stroke="midnightblue" points="1591.26,-20.4656 1580.7,-19.5196 1588.36,-26.8397 1591.26,-20.4656"/>
</g>
<!-- Node40&#45;&gt;Node29 -->
<g id="edge160" class="edge"><title>Node40&#45;&gt;Node29</title>
<path fill="none" stroke="midnightblue" d="M1716.55,-112.444C1691.87,-103.438 1652.81,-89.1891 1625.02,-79.049"/>
<polygon fill="midnightblue" stroke="midnightblue" points="1625.94,-75.6561 1615.34,-75.5164 1623.54,-82.2321 1625.94,-75.6561"/>
</g>
<!-- Node41 -->
<g id="node120" class="node"><title>Node41</title>
<polygon fill="white" stroke="#bfbfbf" points="1719.5,-56.5 1719.5,-75.5 1762.5,-75.5 1762.5,-56.5 1719.5,-56.5"/>
<text text-anchor="middle" x="1741" y="-63.5" font-family="FreeSans" font-size="10.00">hdf5.h</text>
</g>
<!-- Node40&#45;&gt;Node41 -->
<g id="edge158" class="edge"><title>Node40&#45;&gt;Node41</title>
<path fill="none" stroke="midnightblue" d="M1740.17,-112.083C1740.3,-105.006 1740.48,-94.8611 1740.65,-85.9865"/>
<polygon fill="midnightblue" stroke="midnightblue" points="1744.15,-85.8142 1740.84,-75.7511 1737.15,-85.6845 1744.15,-85.8142"/>
</g>
</g>
</svg>
