<?xml version="1.0" encoding="UTF-8" standalone="no"?>
<!DOCTYPE svg PUBLIC "-//W3C//DTD SVG 1.1//EN"
 "http://www.w3.org/Graphics/SVG/1.1/DTD/svg11.dtd">
<!-- Generated by graphviz version 2.28.0 (20120425.2022)
 -->
<!-- Title: G Pages: 1 -->
<svg width="118pt" height="140pt"
 viewBox="0.00 0.00 118.00 140.00" xmlns="http://www.w3.org/2000/svg" xmlns:xlink="http://www.w3.org/1999/xlink">
<g id="graph1" class="graph" transform="scale(1 1) rotate(0) translate(4 136)">
<title>G</title>
<polygon fill="white" stroke="white" points="-4,5 -4,-136 115,-136 115,5 -4,5"/>
<!-- Node1 -->
<g id="node1" class="node"><title>Node1</title>
<polygon fill="#bfbfbf" stroke="black" points="-1,-112.5 -1,-131.5 111,-131.5 111,-112.5 -1,-112.5"/>
<text text-anchor="middle" x="55" y="-119.5" font-family="FreeSans" font-size="10.00">src/strainFunction.cpp</text>
</g>
<!-- Node2 -->
<g id="node3" class="node"><title>Node2</title>
<a xlink:href="strainFunction_8h.html" target="_top" xlink:title="strainFunction.h">
<polygon fill="white" stroke="black" points="12.5,-56.5 12.5,-75.5 97.5,-75.5 97.5,-56.5 12.5,-56.5"/>
<text text-anchor="middle" x="55" y="-63.5" font-family="FreeSans" font-size="10.00">strainFunction.h</text>
</a>
</g>
<!-- Node1&#45;&gt;Node2 -->
<g id="edge2" class="edge"><title>Node1&#45;&gt;Node2</title>
<path fill="none" stroke="midnightblue" d="M55,-112.083C55,-105.006 55,-94.8611 55,-85.9865"/>
<polygon fill="midnightblue" stroke="midnightblue" points="58.5001,-85.751 55,-75.7511 51.5001,-85.7511 58.5001,-85.751"/>
</g>
<!-- Node3 -->
<g id="node5" class="node"><title>Node3</title>
<a xlink:href="readConfig_8h.html" target="_top" xlink:title="readConfig.h">
<polygon fill="white" stroke="red" points="18,-0.5 18,-19.5 92,-19.5 92,-0.5 18,-0.5"/>
<text text-anchor="middle" x="55" y="-7.5" font-family="FreeSans" font-size="10.00">readConfig.h</text>
</a>
</g>
<!-- Node2&#45;&gt;Node3 -->
<g id="edge4" class="edge"><title>Node2&#45;&gt;Node3</title>
<path fill="none" stroke="midnightblue" d="M55,-56.083C55,-49.0059 55,-38.8611 55,-29.9865"/>
<polygon fill="midnightblue" stroke="midnightblue" points="58.5001,-29.751 55,-19.7511 51.5001,-29.7511 58.5001,-29.751"/>
</g>
</g>
</svg>
