<?xml version="1.0" encoding="UTF-8" standalone="no"?>
<!DOCTYPE svg PUBLIC "-//W3C//DTD SVG 1.1//EN"
 "http://www.w3.org/Graphics/SVG/1.1/DTD/svg11.dtd">
<!-- Generated by graphviz version 2.28.0 (20120425.2022)
 -->
<!-- Title: src/sundialsUtils.h Pages: 1 -->
<svg width="577pt" height="140pt"
 viewBox="0.00 0.00 577.00 140.00" xmlns="http://www.w3.org/2000/svg" xmlns:xlink="http://www.w3.org/1999/xlink">
<g id="graph1" class="graph" transform="scale(1 1) rotate(0) translate(4 136)">
<title>src/sundialsUtils.h</title>
<polygon fill="white" stroke="white" points="-4,5 -4,-136 574,-136 574,5 -4,5"/>
<!-- Node1 -->
<g id="node1" class="node"><title>Node1</title>
<polygon fill="#bfbfbf" stroke="black" points="275.5,-112.5 275.5,-131.5 372.5,-131.5 372.5,-112.5 275.5,-112.5"/>
<text text-anchor="middle" x="324" y="-119.5" font-family="FreeSans" font-size="10.00">src/sundialsUtils.h</text>
</g>
<!-- Node2 -->
<g id="node3" class="node"><title>Node2</title>
<a xlink:href="convectionSystem_8h.html" target="_top" xlink:title="src/convectionSystem.h">
<polygon fill="white" stroke="black" points="49.5,-56.5 49.5,-75.5 172.5,-75.5 172.5,-56.5 49.5,-56.5"/>
<text text-anchor="middle" x="111" y="-63.5" font-family="FreeSans" font-size="10.00">src/convectionSystem.h</text>
</a>
</g>
<!-- Node1&#45;&gt;Node2 -->
<g id="edge2" class="edge"><title>Node1&#45;&gt;Node2</title>
<path fill="none" stroke="midnightblue" d="M280.449,-109.959C240.219,-99.7598 181.297,-84.8217 144.593,-75.5164"/>
<polygon fill="midnightblue" stroke="midnightblue" points="279.696,-113.379 290.25,-112.444 281.416,-106.593 279.696,-113.379"/>
</g>
<!-- Node5 -->
<g id="node9" class="node"><title>Node5</title>
<a xlink:href="sourceSystem_8h.html" target="_top" xlink:title="src/sourceSystem.h">
<polygon fill="white" stroke="black" points="190.5,-56.5 190.5,-75.5 295.5,-75.5 295.5,-56.5 190.5,-56.5"/>
<text text-anchor="middle" x="243" y="-63.5" font-family="FreeSans" font-size="10.00">src/sourceSystem.h</text>
</a>
</g>
<!-- Node1&#45;&gt;Node5 -->
<g id="edge8" class="edge"><title>Node1&#45;&gt;Node5</title>
<path fill="none" stroke="midnightblue" d="M302.433,-106.622C287.636,-96.7574 268.488,-83.9919 255.982,-75.6545"/>
<polygon fill="midnightblue" stroke="midnightblue" points="300.724,-109.689 310.986,-112.324 304.607,-103.865 300.724,-109.689"/>
</g>
<!-- Node6 -->
<g id="node12" class="node"><title>Node6</title>
<a xlink:href="sourceSystem_8cpp.html" target="_top" xlink:title="src/sourceSystem.cpp">
<polygon fill="white" stroke="black" points="266,-0.5 266,-19.5 382,-19.5 382,-0.5 266,-0.5"/>
<text text-anchor="middle" x="324" y="-7.5" font-family="FreeSans" font-size="10.00">src/sourceSystem.cpp</text>
</a>
</g>
<!-- Node1&#45;&gt;Node6 -->
<g id="edge16" class="edge"><title>Node1&#45;&gt;Node6</title>
<path fill="none" stroke="midnightblue" d="M324,-102.348C324,-78.2538 324,-37.3079 324,-19.5914"/>
<polygon fill="midnightblue" stroke="midnightblue" points="320.5,-102.368 324,-112.368 327.5,-102.369 320.5,-102.368"/>
</g>
<!-- Node7 -->
<g id="node14" class="node"><title>Node7</title>
<a xlink:href="mathUtils_8cpp.html" target="_top" xlink:title="src/mathUtils.cpp">
<polygon fill="white" stroke="black" points="352,-56.5 352,-75.5 444,-75.5 444,-56.5 352,-56.5"/>
<text text-anchor="middle" x="398" y="-63.5" font-family="FreeSans" font-size="10.00">src/mathUtils.cpp</text>
</a>
</g>
<!-- Node1&#45;&gt;Node7 -->
<g id="edge14" class="edge"><title>Node1&#45;&gt;Node7</title>
<path fill="none" stroke="midnightblue" d="M344.034,-106.38C357.409,-96.6204 374.559,-84.1057 385.894,-75.8339"/>
<polygon fill="midnightblue" stroke="midnightblue" points="341.904,-103.602 335.889,-112.324 346.03,-109.257 341.904,-103.602"/>
</g>
<!-- Node8 -->
<g id="node17" class="node"><title>Node8</title>
<a xlink:href="sundialsUtils_8cpp.html" target="_top" xlink:title="src/sundialsUtils.cpp">
<polygon fill="white" stroke="black" points="462.5,-56.5 462.5,-75.5 569.5,-75.5 569.5,-56.5 462.5,-56.5"/>
<text text-anchor="middle" x="516" y="-63.5" font-family="FreeSans" font-size="10.00">src/sundialsUtils.cpp</text>
</a>
</g>
<!-- Node1&#45;&gt;Node8 -->
<g id="edge18" class="edge"><title>Node1&#45;&gt;Node8</title>
<path fill="none" stroke="midnightblue" d="M364.183,-109.699C400.419,-99.507 452.914,-84.7429 485.719,-75.5164"/>
<polygon fill="midnightblue" stroke="midnightblue" points="363.102,-106.367 354.423,-112.444 364.997,-113.105 363.102,-106.367"/>
</g>
<!-- Node3 -->
<g id="node5" class="node"><title>Node3</title>
<a xlink:href="convectionSystem_8cpp.html" target="_top" xlink:title="src/convectionSystem.cpp">
<polygon fill="white" stroke="black" points="0,-0.5 0,-19.5 134,-19.5 134,-0.5 0,-0.5"/>
<text text-anchor="middle" x="67" y="-7.5" font-family="FreeSans" font-size="10.00">src/convectionSystem.cpp</text>
</a>
</g>
<!-- Node2&#45;&gt;Node3 -->
<g id="edge4" class="edge"><title>Node2&#45;&gt;Node3</title>
<path fill="none" stroke="midnightblue" d="M97.2655,-48.144C89.5995,-38.7357 80.3667,-27.4046 74.1305,-19.7511"/>
<polygon fill="midnightblue" stroke="midnightblue" points="94.7042,-50.5415 103.734,-56.083 100.131,-46.1198 94.7042,-50.5415"/>
</g>
<!-- Node4 -->
<g id="node7" class="node"><title>Node4</title>
<a xlink:href="flameSolver_8h.html" target="_top" xlink:title="src/flameSolver.h">
<polygon fill="white" stroke="red" points="152.5,-0.5 152.5,-19.5 247.5,-19.5 247.5,-0.5 152.5,-0.5"/>
<text text-anchor="middle" x="200" y="-7.5" font-family="FreeSans" font-size="10.00">src/flameSolver.h</text>
</a>
</g>
<!-- Node2&#45;&gt;Node4 -->
<g id="edge6" class="edge"><title>Node2&#45;&gt;Node4</title>
<path fill="none" stroke="midnightblue" d="M134.238,-50.9005C150.558,-40.9986 171.865,-28.0705 185.736,-19.6545"/>
<polygon fill="midnightblue" stroke="midnightblue" points="132.033,-48.1444 125.299,-56.324 135.664,-54.1289 132.033,-48.1444"/>
</g>
<!-- Node5&#45;&gt;Node4 -->
<g id="edge10" class="edge"><title>Node5&#45;&gt;Node4</title>
<path fill="none" stroke="midnightblue" d="M229.578,-48.144C222.086,-38.7357 213.063,-27.4046 206.968,-19.7511"/>
<polygon fill="midnightblue" stroke="midnightblue" points="226.932,-50.4404 235.899,-56.083 232.408,-46.0799 226.932,-50.4404"/>
</g>
<!-- Node5&#45;&gt;Node6 -->
<g id="edge12" class="edge"><title>Node5&#45;&gt;Node6</title>
<path fill="none" stroke="midnightblue" d="M264.567,-50.6221C279.364,-40.7574 298.512,-27.9919 311.018,-19.6545"/>
<polygon fill="midnightblue" stroke="midnightblue" points="262.393,-47.8647 256.014,-56.324 266.276,-53.6891 262.393,-47.8647"/>
</g>
</g>
</svg>
