<?xml version="1.0" encoding="UTF-8" standalone="no"?>
<!DOCTYPE svg PUBLIC "-//W3C//DTD SVG 1.1//EN"
 "http://www.w3.org/Graphics/SVG/1.1/DTD/svg11.dtd">
<!-- Generated by graphviz version 2.38.0 (20140413.2041)
 -->
<!-- Title: src/sundialsUtils.cpp Pages: 1 -->
<svg width="1849pt" height="196pt"
 viewBox="0.00 0.00 1848.50 196.00" xmlns="http://www.w3.org/2000/svg" xmlns:xlink="http://www.w3.org/1999/xlink">
<g id="graph0" class="graph" transform="scale(1 1) rotate(0) translate(4 192)">
<title>src/sundialsUtils.cpp</title>
<polygon fill="white" stroke="none" points="-4,4 -4,-192 1844.5,-192 1844.5,4 -4,4"/>
<!-- Node1 -->
<g id="node1" class="node"><title>Node1</title>
<polygon fill="#bfbfbf" stroke="black" points="1319.5,-168.5 1319.5,-187.5 1423.5,-187.5 1423.5,-168.5 1319.5,-168.5"/>
<text text-anchor="middle" x="1371.5" y="-175.5" font-family="FreeSans" font-size="10.00">src/sundialsUtils.cpp</text>
</g>
<!-- Node2 -->
<g id="node2" class="node"><title>Node2</title>
<g id="a_node2"><a xlink:href="sundialsUtils_8h.html" target="_top" xlink:title="sundialsUtils.h">
<polygon fill="white" stroke="black" points="648,-112.5 648,-131.5 725,-131.5 725,-112.5 648,-112.5"/>
<text text-anchor="middle" x="686.5" y="-119.5" font-family="FreeSans" font-size="10.00">sundialsUtils.h</text>
</a>
</g>
</g>
<!-- Node1&#45;&gt;Node2 -->
<g id="edge1" class="edge"><title>Node1&#45;&gt;Node2</title>
<path fill="none" stroke="midnightblue" d="M1319.45,-172.897C1191,-162.77 860.265,-136.698 735.298,-126.847"/>
<polygon fill="midnightblue" stroke="midnightblue" points="735.5,-123.352 725.255,-126.055 734.949,-130.33 735.5,-123.352"/>
</g>
<!-- Node12 -->
<g id="node12" class="node"><title>Node12</title>
<polygon fill="white" stroke="#bfbfbf" points="1288,-0.5 1288,-19.5 1341,-19.5 1341,-0.5 1288,-0.5"/>
<text text-anchor="middle" x="1314.5" y="-7.5" font-family="FreeSans" font-size="10.00">iostream</text>
</g>
<!-- Node1&#45;&gt;Node12 -->
<g id="edge21" class="edge"><title>Node1&#45;&gt;Node12</title>
<path fill="none" stroke="midnightblue" d="M1359.74,-168.325C1339.53,-152.597 1298.92,-117.163 1283.5,-76 1277.1,-58.9042 1288.08,-40.1642 1298.71,-27.2173"/>
<polygon fill="midnightblue" stroke="midnightblue" points="1301.43,-29.4241 1305.45,-19.6214 1296.19,-24.7777 1301.43,-29.4241"/>
</g>
<!-- Node16 -->
<g id="node16" class="node"><title>Node16</title>
<g id="a_node16"><a xlink:href="debugUtils_8h.html" target="_top" xlink:title="debugUtils.h">
<polygon fill="white" stroke="black" points="1705,-56.5 1705,-75.5 1774,-75.5 1774,-56.5 1705,-56.5"/>
<text text-anchor="middle" x="1739.5" y="-63.5" font-family="FreeSans" font-size="10.00">debugUtils.h</text>
</a>
</g>
</g>
<!-- Node1&#45;&gt;Node16 -->
<g id="edge15" class="edge"><title>Node1&#45;&gt;Node16</title>
<path fill="none" stroke="midnightblue" d="M1400.07,-168.46C1465.63,-148.862 1626.93,-100.647 1701.08,-78.4834"/>
<polygon fill="midnightblue" stroke="midnightblue" points="1702.37,-81.7519 1710.95,-75.5345 1700.36,-75.0451 1702.37,-81.7519"/>
</g>
<!-- Node21 -->
<g id="node21" class="node"><title>Node21</title>
<g id="a_node21"><a xlink:href="mathUtils_8h.html" target="_top" xlink:title="mathUtils.h">
<polygon fill="white" stroke="black" points="1446,-112.5 1446,-131.5 1511,-131.5 1511,-112.5 1446,-112.5"/>
<text text-anchor="middle" x="1478.5" y="-119.5" font-family="FreeSans" font-size="10.00">mathUtils.h</text>
</a>
</g>
</g>
<!-- Node1&#45;&gt;Node21 -->
<g id="edge22" class="edge"><title>Node1&#45;&gt;Node21</title>
<path fill="none" stroke="midnightblue" d="M1388.69,-168.324C1405.85,-159.664 1432.45,-146.242 1452.25,-136.249"/>
<polygon fill="midnightblue" stroke="midnightblue" points="1454,-139.285 1461.35,-131.655 1450.85,-133.035 1454,-139.285"/>
</g>
<!-- Node3 -->
<g id="node3" class="node"><title>Node3</title>
<polygon fill="white" stroke="#bfbfbf" points="556.5,-56.5 556.5,-75.5 674.5,-75.5 674.5,-56.5 556.5,-56.5"/>
<text text-anchor="middle" x="615.5" y="-63.5" font-family="FreeSans" font-size="10.00">nvector/nvector_serial.h</text>
</g>
<!-- Node2&#45;&gt;Node3 -->
<g id="edge2" class="edge"><title>Node2&#45;&gt;Node3</title>
<path fill="none" stroke="midnightblue" d="M675.093,-112.324C664.391,-104.185 648.159,-91.8395 635.337,-82.0874"/>
<polygon fill="midnightblue" stroke="midnightblue" points="637.193,-79.1018 627.115,-75.8339 632.956,-84.6734 637.193,-79.1018"/>
</g>
<!-- Node4 -->
<g id="node4" class="node"><title>Node4</title>
<polygon fill="white" stroke="#bfbfbf" points="693,-56.5 693,-75.5 820,-75.5 820,-56.5 693,-56.5"/>
<text text-anchor="middle" x="756.5" y="-63.5" font-family="FreeSans" font-size="10.00">sundials/sundials_dense.h</text>
</g>
<!-- Node2&#45;&gt;Node4 -->
<g id="edge3" class="edge"><title>Node2&#45;&gt;Node4</title>
<path fill="none" stroke="midnightblue" d="M697.747,-112.324C708.297,-104.185 724.301,-91.8395 736.942,-82.0874"/>
<polygon fill="midnightblue" stroke="midnightblue" points="739.269,-84.7132 745.049,-75.8339 734.993,-79.1707 739.269,-84.7132"/>
</g>
<!-- Node5 -->
<g id="node5" class="node"><title>Node5</title>
<polygon fill="white" stroke="#bfbfbf" points="838.5,-56.5 838.5,-75.5 960.5,-75.5 960.5,-56.5 838.5,-56.5"/>
<text text-anchor="middle" x="899.5" y="-63.5" font-family="FreeSans" font-size="10.00">sundials/sundials_band.h</text>
</g>
<!-- Node2&#45;&gt;Node5 -->
<g id="edge4" class="edge"><title>Node2&#45;&gt;Node5</title>
<path fill="none" stroke="midnightblue" d="M720.25,-112.444C757.018,-103.122 815.946,-88.1828 856.122,-77.9972"/>
<polygon fill="midnightblue" stroke="midnightblue" points="857.074,-81.3666 865.907,-75.5164 855.354,-74.5813 857.074,-81.3666"/>
</g>
<!-- Node6 -->
<g id="node6" class="node"><title>Node6</title>
<polygon fill="white" stroke="#bfbfbf" points="978.5,-56.5 978.5,-75.5 1102.5,-75.5 1102.5,-56.5 978.5,-56.5"/>
<text text-anchor="middle" x="1040.5" y="-63.5" font-family="FreeSans" font-size="10.00">sundials/sundials_types.h</text>
</g>
<!-- Node2&#45;&gt;Node6 -->
<g id="edge5" class="edge"><title>Node2&#45;&gt;Node6</title>
<path fill="none" stroke="midnightblue" d="M725.058,-115.118C784.96,-105.981 901.104,-88.2639 974.517,-77.0653"/>
<polygon fill="midnightblue" stroke="midnightblue" points="975.224,-80.498 984.582,-75.5299 974.168,-73.578 975.224,-80.498"/>
</g>
<!-- Node7 -->
<g id="node7" class="node"><title>Node7</title>
<polygon fill="white" stroke="#bfbfbf" points="1120.5,-56.5 1120.5,-75.5 1198.5,-75.5 1198.5,-56.5 1120.5,-56.5"/>
<text text-anchor="middle" x="1159.5" y="-63.5" font-family="FreeSans" font-size="10.00">cvode/cvode.h</text>
</g>
<!-- Node2&#45;&gt;Node7 -->
<g id="edge6" class="edge"><title>Node2&#45;&gt;Node7</title>
<path fill="none" stroke="midnightblue" d="M725.015,-117.959C798.085,-111.967 962.045,-97.4492 1110.07,-76.1055"/>
<polygon fill="midnightblue" stroke="midnightblue" points="1110.86,-79.5281 1120.25,-74.6235 1109.85,-72.6012 1110.86,-79.5281"/>
</g>
<!-- Node8 -->
<g id="node8" class="node"><title>Node8</title>
<polygon fill="white" stroke="#bfbfbf" points="0,-56.5 0,-75.5 109,-75.5 109,-56.5 0,-56.5"/>
<text text-anchor="middle" x="54.5" y="-63.5" font-family="FreeSans" font-size="10.00">cvode/cvode_dense.h</text>
</g>
<!-- Node2&#45;&gt;Node8 -->
<g id="edge7" class="edge"><title>Node2&#45;&gt;Node8</title>
<path fill="none" stroke="midnightblue" d="M647.856,-118.75C557.424,-113.31 324.783,-98.3075 119.356,-76.0274"/>
<polygon fill="midnightblue" stroke="midnightblue" points="119.606,-72.534 109.285,-74.9269 118.846,-79.4926 119.606,-72.534"/>
</g>
<!-- Node9 -->
<g id="node9" class="node"><title>Node9</title>
<polygon fill="white" stroke="#bfbfbf" points="127.5,-56.5 127.5,-75.5 231.5,-75.5 231.5,-56.5 127.5,-56.5"/>
<text text-anchor="middle" x="179.5" y="-63.5" font-family="FreeSans" font-size="10.00">cvode/cvode_band.h</text>
</g>
<!-- Node2&#45;&gt;Node9 -->
<g id="edge8" class="edge"><title>Node2&#45;&gt;Node9</title>
<path fill="none" stroke="midnightblue" d="M647.954,-117.712C572.247,-111.123 398.58,-95.3696 242.009,-76.1377"/>
<polygon fill="midnightblue" stroke="midnightblue" points="242.076,-72.6194 231.722,-74.8659 241.217,-79.5665 242.076,-72.6194"/>
</g>
<!-- Node10 -->
<g id="node10" class="node"><title>Node10</title>
<polygon fill="white" stroke="#bfbfbf" points="250,-56.5 250,-75.5 303,-75.5 303,-56.5 250,-56.5"/>
<text text-anchor="middle" x="276.5" y="-63.5" font-family="FreeSans" font-size="10.00">ida/ida.h</text>
</g>
<!-- Node2&#45;&gt;Node10 -->
<g id="edge9" class="edge"><title>Node2&#45;&gt;Node10</title>
<path fill="none" stroke="midnightblue" d="M647.916,-118.065C581.386,-112.637 440.684,-99.5516 313.114,-76.1"/>
<polygon fill="midnightblue" stroke="midnightblue" points="313.644,-72.6386 303.172,-74.2459 312.36,-79.5199 313.644,-72.6386"/>
</g>
<!-- Node11 -->
<g id="node11" class="node"><title>Node11</title>
<polygon fill="white" stroke="#bfbfbf" points="320.5,-56.5 320.5,-75.5 408.5,-75.5 408.5,-56.5 320.5,-56.5"/>
<text text-anchor="middle" x="364.5" y="-63.5" font-family="FreeSans" font-size="10.00">ida/ida_spbcgs.h</text>
</g>
<!-- Node2&#45;&gt;Node11 -->
<g id="edge10" class="edge"><title>Node2&#45;&gt;Node11</title>
<path fill="none" stroke="midnightblue" d="M647.74,-114.547C597.398,-106.158 506.51,-90.9907 418.862,-76.2265"/>
<polygon fill="midnightblue" stroke="midnightblue" points="419.188,-72.7321 408.745,-74.5217 418.024,-79.6348 419.188,-72.7321"/>
</g>
<!-- Node2&#45;&gt;Node12 -->
<g id="edge11" class="edge"><title>Node2&#45;&gt;Node12</title>
<path fill="none" stroke="midnightblue" d="M725.115,-119.942C829.905,-116.711 1117.76,-105.345 1207.5,-76 1225.33,-70.1687 1267.78,-42.6402 1293.53,-25.3315"/>
<polygon fill="midnightblue" stroke="midnightblue" points="1295.55,-28.1895 1301.87,-19.6877 1291.63,-22.3913 1295.55,-28.1895"/>
</g>
<!-- Node13 -->
<g id="node13" class="node"><title>Node13</title>
<polygon fill="white" stroke="#bfbfbf" points="1293,-56.5 1293,-75.5 1336,-75.5 1336,-56.5 1293,-56.5"/>
<text text-anchor="middle" x="1314.5" y="-63.5" font-family="FreeSans" font-size="10.00">vector</text>
</g>
<!-- Node2&#45;&gt;Node13 -->
<g id="edge12" class="edge"><title>Node2&#45;&gt;Node13</title>
<path fill="none" stroke="midnightblue" d="M725.168,-118.393C815.483,-112.189 1047.29,-95.5884 1240.5,-76 1254.42,-74.5888 1269.78,-72.7646 1282.88,-71.1279"/>
<polygon fill="midnightblue" stroke="midnightblue" points="1283.35,-74.5962 1292.83,-69.8669 1282.47,-67.6518 1283.35,-74.5962"/>
</g>
<!-- Node14 -->
<g id="node14" class="node"><title>Node14</title>
<polygon fill="white" stroke="#bfbfbf" points="427,-56.5 427,-75.5 470,-75.5 470,-56.5 427,-56.5"/>
<text text-anchor="middle" x="448.5" y="-63.5" font-family="FreeSans" font-size="10.00">time.h</text>
</g>
<!-- Node2&#45;&gt;Node14 -->
<g id="edge13" class="edge"><title>Node2&#45;&gt;Node14</title>
<path fill="none" stroke="midnightblue" d="M647.783,-113.408C608.094,-105.444 544.39,-92.1561 480.041,-75.9954"/>
<polygon fill="midnightblue" stroke="midnightblue" points="480.682,-72.5473 470.129,-73.4841 478.963,-79.3329 480.682,-72.5473"/>
</g>
<!-- Node15 -->
<g id="node15" class="node"><title>Node15</title>
<g id="a_node15"><a xlink:href="config_8h.html" target="_top" xlink:title="config.h">
<polygon fill="white" stroke="black" points="488.5,-56.5 488.5,-75.5 538.5,-75.5 538.5,-56.5 488.5,-56.5"/>
<text text-anchor="middle" x="513.5" y="-63.5" font-family="FreeSans" font-size="10.00">config.h</text>
</a>
</g>
</g>
<!-- Node2&#45;&gt;Node15 -->
<g id="edge14" class="edge"><title>Node2&#45;&gt;Node15</title>
<path fill="none" stroke="midnightblue" d="M659.088,-112.444C629.04,-103.064 580.771,-87.9978 548.128,-77.8089"/>
<polygon fill="midnightblue" stroke="midnightblue" points="549.126,-74.4538 538.537,-74.8151 547.04,-81.1358 549.126,-74.4538"/>
</g>
<!-- Node16&#45;&gt;Node12 -->
<g id="edge17" class="edge"><title>Node16&#45;&gt;Node12</title>
<path fill="none" stroke="midnightblue" d="M1704.96,-57.6495C1701.77,-57.0565 1698.58,-56.4959 1695.5,-56 1570.04,-35.7962 1419.96,-20.7123 1351.64,-14.339"/>
<polygon fill="midnightblue" stroke="midnightblue" points="1351.68,-10.8273 1341.4,-13.3914 1351.03,-17.7975 1351.68,-10.8273"/>
</g>
<!-- Node17 -->
<g id="node17" class="node"><title>Node17</title>
<polygon fill="white" stroke="#bfbfbf" points="1526.5,-0.5 1526.5,-19.5 1566.5,-19.5 1566.5,-0.5 1526.5,-0.5"/>
<text text-anchor="middle" x="1546.5" y="-7.5" font-family="FreeSans" font-size="10.00">string</text>
</g>
<!-- Node16&#45;&gt;Node17 -->
<g id="edge16" class="edge"><title>Node16&#45;&gt;Node17</title>
<path fill="none" stroke="midnightblue" d="M1708.92,-56.4435C1672.64,-46.2933 1612.55,-29.4815 1576.52,-19.4002"/>
<polygon fill="midnightblue" stroke="midnightblue" points="1577.18,-15.9483 1566.6,-16.6243 1575.29,-22.6894 1577.18,-15.9483"/>
</g>
<!-- Node18 -->
<g id="node18" class="node"><title>Node18</title>
<polygon fill="white" stroke="#bfbfbf" points="1715,-0.5 1715,-19.5 1764,-19.5 1764,-0.5 1715,-0.5"/>
<text text-anchor="middle" x="1739.5" y="-7.5" font-family="FreeSans" font-size="10.00">fstream</text>
</g>
<!-- Node16&#45;&gt;Node18 -->
<g id="edge18" class="edge"><title>Node16&#45;&gt;Node18</title>
<path fill="none" stroke="midnightblue" d="M1739.5,-56.083C1739.5,-49.0059 1739.5,-38.8611 1739.5,-29.9865"/>
<polygon fill="midnightblue" stroke="midnightblue" points="1743,-29.751 1739.5,-19.7511 1736,-29.7511 1743,-29.751"/>
</g>
<!-- Node19 -->
<g id="node19" class="node"><title>Node19</title>
<polygon fill="white" stroke="#bfbfbf" points="1782.5,-0.5 1782.5,-19.5 1840.5,-19.5 1840.5,-0.5 1782.5,-0.5"/>
<text text-anchor="middle" x="1811.5" y="-7.5" font-family="FreeSans" font-size="10.00">exception</text>
</g>
<!-- Node16&#45;&gt;Node19 -->
<g id="edge19" class="edge"><title>Node16&#45;&gt;Node19</title>
<path fill="none" stroke="midnightblue" d="M1751.07,-56.324C1761.92,-48.1849 1778.38,-35.8395 1791.38,-26.0874"/>
<polygon fill="midnightblue" stroke="midnightblue" points="1793.82,-28.6339 1799.72,-19.8339 1789.62,-23.0339 1793.82,-28.6339"/>
</g>
<!-- Node20 -->
<g id="node20" class="node"><title>Node20</title>
<polygon fill="white" stroke="#bfbfbf" points="1608,-0.5 1608,-19.5 1697,-19.5 1697,-0.5 1608,-0.5"/>
<text text-anchor="middle" x="1652.5" y="-7.5" font-family="FreeSans" font-size="10.00">boost/format.hpp</text>
</g>
<!-- Node16&#45;&gt;Node20 -->
<g id="edge20" class="edge"><title>Node16&#45;&gt;Node20</title>
<path fill="none" stroke="midnightblue" d="M1725.52,-56.324C1711.95,-47.9002 1691.12,-34.9709 1675.18,-25.0741"/>
<polygon fill="midnightblue" stroke="midnightblue" points="1676.79,-21.9544 1666.44,-19.6545 1673.09,-27.9019 1676.79,-21.9544"/>
</g>
<!-- Node21&#45;&gt;Node12 -->
<g id="edge25" class="edge"><title>Node21&#45;&gt;Node12</title>
<path fill="none" stroke="midnightblue" d="M1455.55,-112.497C1435.61,-104.571 1406.41,-91.6393 1383.5,-76 1362.82,-61.8837 1342.35,-41.5885 1329.14,-27.4445"/>
<polygon fill="midnightblue" stroke="midnightblue" points="1331.59,-24.9368 1322.26,-19.9207 1326.43,-29.6616 1331.59,-24.9368"/>
</g>
<!-- Node21&#45;&gt;Node13 -->
<g id="edge23" class="edge"><title>Node21&#45;&gt;Node13</title>
<path fill="none" stroke="midnightblue" d="M1452.51,-112.444C1423.63,-102.932 1376.97,-87.5697 1346.02,-77.3787"/>
<polygon fill="midnightblue" stroke="midnightblue" points="1346.77,-73.94 1336.17,-74.1368 1344.58,-80.5888 1346.77,-73.94"/>
</g>
<!-- Node21&#45;&gt;Node16 -->
<g id="edge29" class="edge"><title>Node21&#45;&gt;Node16</title>
<path fill="none" stroke="midnightblue" d="M1511.03,-114.27C1557.4,-104.675 1642.68,-87.0314 1694.91,-76.2248"/>
<polygon fill="midnightblue" stroke="midnightblue" points="1695.81,-79.6126 1704.9,-74.159 1694.4,-72.7577 1695.81,-79.6126"/>
</g>
<!-- Node21&#45;&gt;Node17 -->
<g id="edge27" class="edge"><title>Node21&#45;&gt;Node17</title>
<path fill="none" stroke="midnightblue" d="M1483.84,-112.368C1495.01,-94.2957 1521.05,-52.1764 1535.8,-28.3074"/>
<polygon fill="midnightblue" stroke="midnightblue" points="1538.91,-29.9378 1541.19,-19.5914 1532.95,-26.257 1538.91,-29.9378"/>
</g>
<!-- Node22 -->
<g id="node22" class="node"><title>Node22</title>
<polygon fill="white" stroke="#bfbfbf" points="1642.5,-56.5 1642.5,-75.5 1686.5,-75.5 1686.5,-56.5 1642.5,-56.5"/>
<text text-anchor="middle" x="1664.5" y="-63.5" font-family="FreeSans" font-size="10.00">cmath</text>
</g>
<!-- Node21&#45;&gt;Node22 -->
<g id="edge24" class="edge"><title>Node21&#45;&gt;Node22</title>
<path fill="none" stroke="midnightblue" d="M1507.97,-112.444C1542,-102.564 1597.77,-86.3734 1632.74,-76.2208"/>
<polygon fill="midnightblue" stroke="midnightblue" points="1633.82,-79.552 1642.45,-73.4026 1631.87,-72.8296 1633.82,-79.552"/>
</g>
<!-- Node23 -->
<g id="node23" class="node"><title>Node23</title>
<polygon fill="white" stroke="#bfbfbf" points="1392.5,-56.5 1392.5,-75.5 1442.5,-75.5 1442.5,-56.5 1392.5,-56.5"/>
<text text-anchor="middle" x="1417.5" y="-63.5" font-family="FreeSans" font-size="10.00">sstream</text>
</g>
<!-- Node21&#45;&gt;Node23 -->
<g id="edge26" class="edge"><title>Node21&#45;&gt;Node23</title>
<path fill="none" stroke="midnightblue" d="M1468.7,-112.324C1459.68,-104.341 1446.09,-92.3128 1435.18,-82.6529"/>
<polygon fill="midnightblue" stroke="midnightblue" points="1437.29,-79.8416 1427.48,-75.8339 1432.65,-85.083 1437.29,-79.8416"/>
</g>
<!-- Node24 -->
<g id="node24" class="node"><title>Node24</title>
<polygon fill="white" stroke="#bfbfbf" points="1461,-56.5 1461,-75.5 1496,-75.5 1496,-56.5 1461,-56.5"/>
<text text-anchor="middle" x="1478.5" y="-63.5" font-family="FreeSans" font-size="10.00">map</text>
</g>
<!-- Node21&#45;&gt;Node24 -->
<g id="edge28" class="edge"><title>Node21&#45;&gt;Node24</title>
<path fill="none" stroke="midnightblue" d="M1478.5,-112.083C1478.5,-105.006 1478.5,-94.8611 1478.5,-85.9865"/>
<polygon fill="midnightblue" stroke="midnightblue" points="1482,-85.751 1478.5,-75.7511 1475,-85.7511 1482,-85.751"/>
</g>
<!-- Node25 -->
<g id="node25" class="node"><title>Node25</title>
<polygon fill="white" stroke="#bfbfbf" points="1553,-56.5 1553,-75.5 1624,-75.5 1624,-56.5 1553,-56.5"/>
<text text-anchor="middle" x="1588.5" y="-63.5" font-family="FreeSans" font-size="10.00">Eigen/Dense</text>
</g>
<!-- Node21&#45;&gt;Node25 -->
<g id="edge30" class="edge"><title>Node21&#45;&gt;Node25</title>
<path fill="none" stroke="midnightblue" d="M1496.17,-112.324C1513.89,-103.625 1541.4,-90.1202 1561.79,-80.113"/>
<polygon fill="midnightblue" stroke="midnightblue" points="1563.44,-83.2031 1570.87,-75.6545 1560.35,-76.9195 1563.44,-83.2031"/>
</g>
</g>
</svg>
