<?xml version="1.0" encoding="UTF-8" standalone="no"?>
<!DOCTYPE svg PUBLIC "-//W3C//DTD SVG 1.1//EN"
 "http://www.w3.org/Graphics/SVG/1.1/DTD/svg11.dtd">
<!-- Generated by graphviz version 2.26.3 (20100126.1600)
 -->
<!-- Title: src/sundialsUtils.cpp Pages: 1 -->
<svg width="1834pt" height="204pt"
 viewBox="0.00 0.00 1834.00 204.00" xmlns="http://www.w3.org/2000/svg" xmlns:xlink="http://www.w3.org/1999/xlink">
<g id="graph1" class="graph" transform="scale(1 1) rotate(0) translate(4 200)">
<title>src/sundialsUtils.cpp</title>
<polygon fill="white" stroke="white" points="-4,5 -4,-200 1831,-200 1831,5 -4,5"/>
<!-- Node1 -->
<g id="node1" class="node"><title>Node1</title>
<polygon fill="#bfbfbf" stroke="black" points="1311,-175 1311,-195 1415,-195 1415,-175 1311,-175"/>
<text text-anchor="middle" x="1363" y="-182" font-family="FreeSans" font-size="10.00">src/sundialsUtils.cpp</text>
</g>
<!-- Node2 -->
<g id="node3" class="node"><title>Node2</title>
<a xlink:href="sundialsUtils_8h.html" target="_top" xlink:title="sundialsUtils.h">
<polygon fill="white" stroke="black" points="642.5,-117 642.5,-137 719.5,-137 719.5,-117 642.5,-117"/>
<text text-anchor="middle" x="681" y="-124" font-family="FreeSans" font-size="10.00">sundialsUtils.h</text>
</a>
</g>
<!-- Node1&#45;&gt;Node2 -->
<g id="edge2" class="edge"><title>Node1&#45;&gt;Node2</title>
<path fill="none" stroke="midnightblue" d="M1310.9,-180.569C1182.79,-169.674 853.819,-141.697 729.531,-131.127"/>
<polygon fill="midnightblue" stroke="midnightblue" points="729.803,-127.638 719.543,-130.278 729.21,-134.613 729.803,-127.638"/>
</g>
<!-- Node12 -->
<g id="node23" class="node"><title>Node12</title>
<polygon fill="white" stroke="#bfbfbf" points="1280.5,-1 1280.5,-21 1333.5,-21 1333.5,-1 1280.5,-1"/>
<text text-anchor="middle" x="1307" y="-8" font-family="FreeSans" font-size="10.00">iostream</text>
</g>
<!-- Node1&#45;&gt;Node12 -->
<g id="edge42" class="edge"><title>Node1&#45;&gt;Node12</title>
<path fill="none" stroke="midnightblue" d="M1350.53,-174.999C1330.46,-158 1291.74,-121.273 1277,-80 1270.73,-62.4422 1280.78,-43.0134 1290.89,-29.2581"/>
<polygon fill="midnightblue" stroke="midnightblue" points="1293.89,-31.1167 1297.38,-21.1149 1288.41,-26.7541 1293.89,-31.1167"/>
</g>
<!-- Node16 -->
<g id="node31" class="node"><title>Node16</title>
<a xlink:href="debugUtils_8h.html" target="_top" xlink:title="debugUtils.h">
<polygon fill="white" stroke="black" points="1691.5,-59 1691.5,-79 1760.5,-79 1760.5,-59 1691.5,-59"/>
<text text-anchor="middle" x="1726" y="-66" font-family="FreeSans" font-size="10.00">debugUtils.h</text>
</a>
</g>
<!-- Node1&#45;&gt;Node16 -->
<g id="edge30" class="edge"><title>Node1&#45;&gt;Node16</title>
<path fill="none" stroke="midnightblue" d="M1394.58,-174.909C1460.23,-153.93 1611.41,-105.617 1684.69,-82.2013"/>
<polygon fill="midnightblue" stroke="midnightblue" points="1686.03,-85.4458 1694.49,-79.0678 1683.9,-78.7779 1686.03,-85.4458"/>
</g>
<!-- Node21 -->
<g id="node43" class="node"><title>Node21</title>
<a xlink:href="mathUtils_8h.html" target="_top" xlink:title="mathUtils.h">
<polygon fill="white" stroke="black" points="1436.5,-117 1436.5,-137 1501.5,-137 1501.5,-117 1436.5,-117"/>
<text text-anchor="middle" x="1469" y="-124" font-family="FreeSans" font-size="10.00">mathUtils.h</text>
</a>
</g>
<!-- Node1&#45;&gt;Node21 -->
<g id="edge44" class="edge"><title>Node1&#45;&gt;Node21</title>
<path fill="none" stroke="midnightblue" d="M1381.46,-174.897C1398.01,-165.846 1422.5,-152.444 1441.37,-142.117"/>
<polygon fill="midnightblue" stroke="midnightblue" points="1443.3,-145.052 1450.39,-137.182 1439.94,-138.911 1443.3,-145.052"/>
</g>
<!-- Node3 -->
<g id="node5" class="node"><title>Node3</title>
<polygon fill="white" stroke="#bfbfbf" points="552,-59 552,-79 670,-79 670,-59 552,-59"/>
<text text-anchor="middle" x="611" y="-66" font-family="FreeSans" font-size="10.00">nvector/nvector_serial.h</text>
</g>
<!-- Node2&#45;&gt;Node3 -->
<g id="edge4" class="edge"><title>Node2&#45;&gt;Node3</title>
<path fill="none" stroke="midnightblue" d="M668.807,-116.897C658.495,-108.353 643.505,-95.933 631.374,-85.8813"/>
<polygon fill="midnightblue" stroke="midnightblue" points="633.458,-83.0627 623.525,-79.3776 628.992,-88.4529 633.458,-83.0627"/>
</g>
<!-- Node4 -->
<g id="node7" class="node"><title>Node4</title>
<polygon fill="white" stroke="#bfbfbf" points="687.5,-59 687.5,-79 814.5,-79 814.5,-59 687.5,-59"/>
<text text-anchor="middle" x="751" y="-66" font-family="FreeSans" font-size="10.00">sundials/sundials_dense.h</text>
</g>
<!-- Node2&#45;&gt;Node4 -->
<g id="edge6" class="edge"><title>Node2&#45;&gt;Node4</title>
<path fill="none" stroke="midnightblue" d="M693.193,-116.897C703.505,-108.353 718.495,-95.933 730.626,-85.8813"/>
<polygon fill="midnightblue" stroke="midnightblue" points="733.008,-88.4529 738.475,-79.3776 728.542,-83.0627 733.008,-88.4529"/>
</g>
<!-- Node5 -->
<g id="node9" class="node"><title>Node5</title>
<polygon fill="white" stroke="#bfbfbf" points="832,-59 832,-79 954,-79 954,-59 832,-59"/>
<text text-anchor="middle" x="893" y="-66" font-family="FreeSans" font-size="10.00">sundials/sundials_band.h</text>
</g>
<!-- Node2&#45;&gt;Node5 -->
<g id="edge8" class="edge"><title>Node2&#45;&gt;Node5</title>
<path fill="none" stroke="midnightblue" d="M717.928,-116.897C753.538,-107.155 807.57,-92.3724 846.183,-81.8085"/>
<polygon fill="midnightblue" stroke="midnightblue" points="847.419,-85.0991 856.141,-79.0842 845.571,-78.3472 847.419,-85.0991"/>
</g>
<!-- Node6 -->
<g id="node11" class="node"><title>Node6</title>
<polygon fill="white" stroke="#bfbfbf" points="972,-59 972,-79 1096,-79 1096,-59 972,-59"/>
<text text-anchor="middle" x="1034" y="-66" font-family="FreeSans" font-size="10.00">sundials/sundials_types.h</text>
</g>
<!-- Node2&#45;&gt;Node6 -->
<g id="edge10" class="edge"><title>Node2&#45;&gt;Node6</title>
<path fill="none" stroke="midnightblue" d="M719.787,-120.627C778.202,-111.029 889.703,-92.7089 962.95,-80.674"/>
<polygon fill="midnightblue" stroke="midnightblue" points="963.721,-84.0942 973.022,-79.0191 962.586,-77.1868 963.721,-84.0942"/>
</g>
<!-- Node7 -->
<g id="node13" class="node"><title>Node7</title>
<polygon fill="white" stroke="#bfbfbf" points="1114,-59 1114,-79 1192,-79 1192,-59 1114,-59"/>
<text text-anchor="middle" x="1153" y="-66" font-family="FreeSans" font-size="10.00">cvode/cvode.h</text>
</g>
<!-- Node2&#45;&gt;Node7 -->
<g id="edge12" class="edge"><title>Node2&#45;&gt;Node7</title>
<path fill="none" stroke="midnightblue" d="M719.501,-124.222C792.528,-118.632 956.312,-104.56 1103.65,-80.0781"/>
<polygon fill="midnightblue" stroke="midnightblue" points="1104.5,-83.4846 1113.78,-78.374 1103.34,-76.5816 1104.5,-83.4846"/>
</g>
<!-- Node8 -->
<g id="node15" class="node"><title>Node8</title>
<polygon fill="white" stroke="#bfbfbf" points="-0.5,-59 -0.5,-79 108.5,-79 108.5,-59 -0.5,-59"/>
<text text-anchor="middle" x="54" y="-66" font-family="FreeSans" font-size="10.00">cvode/cvode_dense.h</text>
</g>
<!-- Node2&#45;&gt;Node8 -->
<g id="edge14" class="edge"><title>Node2&#45;&gt;Node8</title>
<path fill="none" stroke="midnightblue" d="M642.239,-124.972C552.094,-119.997 321.21,-105.773 118.525,-80.1103"/>
<polygon fill="midnightblue" stroke="midnightblue" points="118.953,-76.6367 108.59,-78.8403 118.066,-83.5802 118.953,-76.6367"/>
</g>
<!-- Node9 -->
<g id="node17" class="node"><title>Node9</title>
<polygon fill="white" stroke="#bfbfbf" points="126,-59 126,-79 230,-79 230,-59 126,-59"/>
<text text-anchor="middle" x="178" y="-66" font-family="FreeSans" font-size="10.00">cvode/cvode_band.h</text>
</g>
<!-- Node2&#45;&gt;Node9 -->
<g id="edge16" class="edge"><title>Node2&#45;&gt;Node9</title>
<path fill="none" stroke="midnightblue" d="M642.454,-123.848C567.182,-117.488 395.178,-101.954 240.374,-80.1178"/>
<polygon fill="midnightblue" stroke="midnightblue" points="240.596,-76.6143 230.203,-78.6704 239.61,-83.5445 240.596,-76.6143"/>
</g>
<!-- Node10 -->
<g id="node19" class="node"><title>Node10</title>
<polygon fill="white" stroke="#bfbfbf" points="247.5,-59 247.5,-79 300.5,-79 300.5,-59 247.5,-59"/>
<text text-anchor="middle" x="274" y="-66" font-family="FreeSans" font-size="10.00">ida/ida.h</text>
</g>
<!-- Node2&#45;&gt;Node10 -->
<g id="edge18" class="edge"><title>Node2&#45;&gt;Node10</title>
<path fill="none" stroke="midnightblue" d="M642.325,-124.403C576.021,-119.457 436.365,-106.886 310.433,-80.034"/>
<polygon fill="midnightblue" stroke="midnightblue" points="311.135,-76.6049 300.621,-77.9062 309.652,-83.4459 311.135,-76.6049"/>
</g>
<!-- Node11 -->
<g id="node21" class="node"><title>Node11</title>
<polygon fill="white" stroke="#bfbfbf" points="318,-59 318,-79 406,-79 406,-59 318,-59"/>
<text text-anchor="middle" x="362" y="-66" font-family="FreeSans" font-size="10.00">ida/ida_spbcgs.h</text>
</g>
<!-- Node2&#45;&gt;Node11 -->
<g id="edge20" class="edge"><title>Node2&#45;&gt;Node11</title>
<path fill="none" stroke="midnightblue" d="M642.167,-120.511C592.228,-112.084 502.565,-96.6781 416.195,-80.1922"/>
<polygon fill="midnightblue" stroke="midnightblue" points="416.707,-76.7266 406.227,-78.2817 415.389,-83.6015 416.707,-76.7266"/>
</g>
<!-- Node2&#45;&gt;Node12 -->
<g id="edge22" class="edge"><title>Node2&#45;&gt;Node12</title>
<path fill="none" stroke="midnightblue" d="M719.594,-125.918C824.316,-122.603 1111.93,-110.868 1201,-80 1218.63,-73.89 1259.57,-45.4794 1285.1,-27.0725"/>
<polygon fill="midnightblue" stroke="midnightblue" points="1287.39,-29.7381 1293.43,-21.0319 1283.28,-24.0728 1287.39,-29.7381"/>
</g>
<!-- Node13 -->
<g id="node25" class="node"><title>Node13</title>
<polygon fill="white" stroke="#bfbfbf" points="1285.5,-59 1285.5,-79 1328.5,-79 1328.5,-59 1285.5,-59"/>
<text text-anchor="middle" x="1307" y="-66" font-family="FreeSans" font-size="10.00">vector</text>
</g>
<!-- Node2&#45;&gt;Node13 -->
<g id="edge24" class="edge"><title>Node2&#45;&gt;Node13</title>
<path fill="none" stroke="midnightblue" d="M719.637,-124.581C809.87,-118.743 1041.42,-102.669 1234,-80 1247.52,-78.408 1262.4,-76.2427 1275.17,-74.2541"/>
<polygon fill="midnightblue" stroke="midnightblue" points="1276,-77.6661 1285.33,-72.6418 1274.9,-70.7526 1276,-77.6661"/>
</g>
<!-- Node14 -->
<g id="node27" class="node"><title>Node14</title>
<polygon fill="white" stroke="#bfbfbf" points="423.5,-59 423.5,-79 466.5,-79 466.5,-59 423.5,-59"/>
<text text-anchor="middle" x="445" y="-66" font-family="FreeSans" font-size="10.00">time.h</text>
</g>
<!-- Node2&#45;&gt;Node14 -->
<g id="edge26" class="edge"><title>Node2&#45;&gt;Node14</title>
<path fill="none" stroke="midnightblue" d="M642.276,-119.695C602.622,-111.878 539.094,-98.4247 476.198,-80.1198"/>
<polygon fill="midnightblue" stroke="midnightblue" points="477.102,-76.7374 466.52,-77.2626 475.12,-83.4509 477.102,-76.7374"/>
</g>
<!-- Node15 -->
<g id="node29" class="node"><title>Node15</title>
<a xlink:href="config_8h.html" target="_top" xlink:title="config.h">
<polygon fill="white" stroke="black" points="484,-59 484,-79 534,-79 534,-59 484,-59"/>
<text text-anchor="middle" x="509" y="-66" font-family="FreeSans" font-size="10.00">config.h</text>
</a>
</g>
<!-- Node2&#45;&gt;Node15 -->
<g id="edge28" class="edge"><title>Node2&#45;&gt;Node15</title>
<path fill="none" stroke="midnightblue" d="M651.04,-116.897C621.164,-106.823 575.306,-91.359 543.826,-80.7435"/>
<polygon fill="midnightblue" stroke="midnightblue" points="544.743,-77.3591 534.148,-77.4803 542.506,-83.9922 544.743,-77.3591"/>
</g>
<!-- Node16&#45;&gt;Node12 -->
<g id="edge34" class="edge"><title>Node16&#45;&gt;Node12</title>
<path fill="none" stroke="midnightblue" d="M1691.35,-59.7365C1688.53,-59.1058 1685.73,-58.5168 1683,-58 1559.68,-34.6161 1411.33,-19.9814 1343.75,-14.0432"/>
<polygon fill="midnightblue" stroke="midnightblue" points="1343.88,-10.5414 1333.62,-13.1648 1343.28,-17.5152 1343.88,-10.5414"/>
</g>
<!-- Node17 -->
<g id="node33" class="node"><title>Node17</title>
<polygon fill="white" stroke="#bfbfbf" points="1516,-1 1516,-21 1556,-21 1556,-1 1516,-1"/>
<text text-anchor="middle" x="1536" y="-8" font-family="FreeSans" font-size="10.00">string</text>
</g>
<!-- Node16&#45;&gt;Node17 -->
<g id="edge32" class="edge"><title>Node16&#45;&gt;Node17</title>
<path fill="none" stroke="midnightblue" d="M1692.9,-58.8972C1657.16,-47.9849 1600.7,-30.7499 1566.14,-20.2017"/>
<polygon fill="midnightblue" stroke="midnightblue" points="1566.76,-16.7294 1556.17,-17.1572 1564.71,-23.4244 1566.76,-16.7294"/>
</g>
<!-- Node18 -->
<g id="node36" class="node"><title>Node18</title>
<polygon fill="white" stroke="#bfbfbf" points="1701.5,-1 1701.5,-21 1750.5,-21 1750.5,-1 1701.5,-1"/>
<text text-anchor="middle" x="1726" y="-8" font-family="FreeSans" font-size="10.00">fstream</text>
</g>
<!-- Node16&#45;&gt;Node18 -->
<g id="edge36" class="edge"><title>Node16&#45;&gt;Node18</title>
<path fill="none" stroke="midnightblue" d="M1726,-58.8972C1726,-51.339 1726,-40.7476 1726,-31.4458"/>
<polygon fill="midnightblue" stroke="midnightblue" points="1729.5,-31.3776 1726,-21.3776 1722.5,-31.3776 1729.5,-31.3776"/>
</g>
<!-- Node19 -->
<g id="node38" class="node"><title>Node19</title>
<polygon fill="white" stroke="#bfbfbf" points="1768,-1 1768,-21 1826,-21 1826,-1 1768,-1"/>
<text text-anchor="middle" x="1797" y="-8" font-family="FreeSans" font-size="10.00">exception</text>
</g>
<!-- Node16&#45;&gt;Node19 -->
<g id="edge38" class="edge"><title>Node16&#45;&gt;Node19</title>
<path fill="none" stroke="midnightblue" d="M1738.37,-58.8972C1748.83,-50.3532 1764.03,-37.933 1776.33,-27.8813"/>
<polygon fill="midnightblue" stroke="midnightblue" points="1778.77,-30.4146 1784.3,-21.3776 1774.34,-24.9935 1778.77,-30.4146"/>
</g>
<!-- Node20 -->
<g id="node40" class="node"><title>Node20</title>
<polygon fill="white" stroke="#bfbfbf" points="1595.5,-1 1595.5,-21 1684.5,-21 1684.5,-1 1595.5,-1"/>
<text text-anchor="middle" x="1640" y="-8" font-family="FreeSans" font-size="10.00">boost/format.hpp</text>
</g>
<!-- Node16&#45;&gt;Node20 -->
<g id="edge40" class="edge"><title>Node16&#45;&gt;Node20</title>
<path fill="none" stroke="midnightblue" d="M1711.02,-58.8972C1697.91,-50.0524 1678.63,-37.0539 1663.47,-26.829"/>
<polygon fill="midnightblue" stroke="midnightblue" points="1665.34,-23.8714 1655.1,-21.1817 1661.43,-29.6749 1665.34,-23.8714"/>
</g>
<!-- Node21&#45;&gt;Node12 -->
<g id="edge50" class="edge"><title>Node21&#45;&gt;Node12</title>
<path fill="none" stroke="midnightblue" d="M1443.38,-116.923C1423.72,-108.561 1396.41,-95.5475 1375,-80 1354.75,-65.2931 1335.07,-44.3719 1322.13,-29.4288"/>
<polygon fill="midnightblue" stroke="midnightblue" points="1324.48,-26.7822 1315.35,-21.4136 1319.14,-31.3064 1324.48,-26.7822"/>
</g>
<!-- Node21&#45;&gt;Node13 -->
<g id="edge46" class="edge"><title>Node21&#45;&gt;Node13</title>
<path fill="none" stroke="midnightblue" d="M1440.78,-116.897C1412.11,-106.633 1367.82,-90.7748 1338.14,-80.1492"/>
<polygon fill="midnightblue" stroke="midnightblue" points="1339.27,-76.8376 1328.68,-76.762 1336.91,-83.4279 1339.27,-76.8376"/>
</g>
<!-- Node21&#45;&gt;Node16 -->
<g id="edge58" class="edge"><title>Node21&#45;&gt;Node16</title>
<path fill="none" stroke="midnightblue" d="M1501.71,-120.18C1541.87,-111.727 1612.29,-96.648 1681.53,-80.3019"/>
<polygon fill="midnightblue" stroke="midnightblue" points="1682.37,-83.7005 1691.29,-77.9876 1680.75,-76.8894 1682.37,-83.7005"/>
</g>
<!-- Node21&#45;&gt;Node17 -->
<g id="edge54" class="edge"><title>Node21&#45;&gt;Node17</title>
<path fill="none" stroke="midnightblue" d="M1474.95,-116.706C1486.2,-97.2235 1510.76,-54.6998 1525.06,-29.9339"/>
<polygon fill="midnightblue" stroke="midnightblue" points="1528.19,-31.5155 1530.16,-21.1055 1522.13,-28.0144 1528.19,-31.5155"/>
</g>
<!-- Node22 -->
<g id="node46" class="node"><title>Node22</title>
<polygon fill="white" stroke="#bfbfbf" points="1630,-59 1630,-79 1674,-79 1674,-59 1630,-59"/>
<text text-anchor="middle" x="1652" y="-66" font-family="FreeSans" font-size="10.00">cmath</text>
</g>
<!-- Node21&#45;&gt;Node22 -->
<g id="edge48" class="edge"><title>Node21&#45;&gt;Node22</title>
<path fill="none" stroke="midnightblue" d="M1501.74,-117.301C1530.62,-108.652 1574.05,-95.4176 1620.13,-80.2111"/>
<polygon fill="midnightblue" stroke="midnightblue" points="1621.3,-83.5113 1629.69,-77.0409 1619.09,-76.8672 1621.3,-83.5113"/>
</g>
<!-- Node23 -->
<g id="node49" class="node"><title>Node23</title>
<polygon fill="white" stroke="#bfbfbf" points="1384,-59 1384,-79 1434,-79 1434,-59 1384,-59"/>
<text text-anchor="middle" x="1409" y="-66" font-family="FreeSans" font-size="10.00">sstream</text>
</g>
<!-- Node21&#45;&gt;Node23 -->
<g id="edge52" class="edge"><title>Node21&#45;&gt;Node23</title>
<path fill="none" stroke="midnightblue" d="M1458.55,-116.897C1449.88,-108.517 1437.35,-96.4093 1427.07,-86.4638"/>
<polygon fill="midnightblue" stroke="midnightblue" points="1429.36,-83.8114 1419.74,-79.3776 1424.49,-88.8443 1429.36,-83.8114"/>
</g>
<!-- Node24 -->
<g id="node52" class="node"><title>Node24</title>
<polygon fill="white" stroke="#bfbfbf" points="1451.5,-59 1451.5,-79 1486.5,-79 1486.5,-59 1451.5,-59"/>
<text text-anchor="middle" x="1469" y="-66" font-family="FreeSans" font-size="10.00">map</text>
</g>
<!-- Node21&#45;&gt;Node24 -->
<g id="edge56" class="edge"><title>Node21&#45;&gt;Node24</title>
<path fill="none" stroke="midnightblue" d="M1469,-116.897C1469,-109.339 1469,-98.7476 1469,-89.4458"/>
<polygon fill="midnightblue" stroke="midnightblue" points="1472.5,-89.3776 1469,-79.3776 1465.5,-89.3776 1472.5,-89.3776"/>
</g>
<!-- Node25 -->
<g id="node55" class="node"><title>Node25</title>
<polygon fill="white" stroke="#bfbfbf" points="1541.5,-59 1541.5,-79 1612.5,-79 1612.5,-59 1541.5,-59"/>
<text text-anchor="middle" x="1577" y="-66" font-family="FreeSans" font-size="10.00">Eigen/Dense</text>
</g>
<!-- Node21&#45;&gt;Node25 -->
<g id="edge60" class="edge"><title>Node21&#45;&gt;Node25</title>
<path fill="none" stroke="midnightblue" d="M1487.81,-116.897C1504.74,-107.804 1529.85,-94.3218 1549.11,-83.9757"/>
<polygon fill="midnightblue" stroke="midnightblue" points="1550.89,-86.9965 1558.04,-79.1817 1547.58,-80.8295 1550.89,-86.9965"/>
</g>
</g>
</svg>
