<?xml version="1.0" encoding="UTF-8" standalone="no"?>
<!DOCTYPE svg PUBLIC "-//W3C//DTD SVG 1.1//EN"
 "http://www.w3.org/Graphics/SVG/1.1/DTD/svg11.dtd">
<!-- Generated by graphviz version 2.28.0 (20120425.2022)
 -->
<!-- Title: G Pages: 1 -->
<svg width="577pt" height="140pt"
 viewBox="0.00 0.00 577.00 140.00" xmlns="http://www.w3.org/2000/svg" xmlns:xlink="http://www.w3.org/1999/xlink">
<g id="graph1" class="graph" transform="scale(1 1) rotate(0) translate(4 136)">
<title>G</title>
<polygon fill="white" stroke="white" points="-4,5 -4,-136 574,-136 574,5 -4,5"/>
<!-- Node1 -->
<g id="node1" class="node"><title>Node1</title>
<polygon fill="#bfbfbf" stroke="black" points="232.5,-112.5 232.5,-131.5 329.5,-131.5 329.5,-112.5 232.5,-112.5"/>
<text text-anchor="middle" x="281" y="-119.5" font-family="FreeSans" font-size="10.00">src/sundialsUtils.h</text>
</g>
<!-- Node2 -->
<g id="node3" class="node"><title>Node2</title>
<a xlink:href="convectionSystem_8h.html" target="_top" xlink:title="src/convectionSystem.h">
<polygon fill="white" stroke="black" points="48.5,-56.5 48.5,-75.5 171.5,-75.5 171.5,-56.5 48.5,-56.5"/>
<text text-anchor="middle" x="110" y="-63.5" font-family="FreeSans" font-size="10.00">src/convectionSystem.h</text>
</a>
</g>
<!-- Node1&#45;&gt;Node2 -->
<g id="edge2" class="edge"><title>Node1&#45;&gt;Node2</title>
<path fill="none" stroke="midnightblue" d="M243.964,-109.304C211.743,-99.1294 165.811,-84.6246 136.969,-75.5164"/>
<polygon fill="midnightblue" stroke="midnightblue" points="243.315,-112.77 253.905,-112.444 245.423,-106.095 243.315,-112.77"/>
</g>
<!-- Node4 -->
<g id="node7" class="node"><title>Node4</title>
<a xlink:href="flameSolver_8h.html" target="_top" xlink:title="src/flameSolver.h">
<polygon fill="white" stroke="red" points="152.5,-0.5 152.5,-19.5 247.5,-19.5 247.5,-0.5 152.5,-0.5"/>
<text text-anchor="middle" x="200" y="-7.5" font-family="FreeSans" font-size="10.00">src/flameSolver.h</text>
</a>
</g>
<!-- Node1&#45;&gt;Node4 -->
<g id="edge8" class="edge"><title>Node1&#45;&gt;Node4</title>
<path fill="none" stroke="midnightblue" d="M254.848,-107.421C242.365,-99.7332 228.183,-89.0371 219,-76 206.678,-58.5066 202.273,-33.0335 200.756,-19.7686"/>
<polygon fill="midnightblue" stroke="midnightblue" points="253.138,-110.476 263.542,-112.479 256.657,-104.425 253.138,-110.476"/>
</g>
<!-- Node5 -->
<g id="node10" class="node"><title>Node5</title>
<a xlink:href="sourceSystem_8h.html" target="_top" xlink:title="src/sourceSystem.h">
<polygon fill="white" stroke="black" points="228.5,-56.5 228.5,-75.5 333.5,-75.5 333.5,-56.5 228.5,-56.5"/>
<text text-anchor="middle" x="281" y="-63.5" font-family="FreeSans" font-size="10.00">src/sourceSystem.h</text>
</a>
</g>
<!-- Node1&#45;&gt;Node5 -->
<g id="edge10" class="edge"><title>Node1&#45;&gt;Node5</title>
<path fill="none" stroke="midnightblue" d="M281,-101.805C281,-92.9102 281,-82.7798 281,-75.7511"/>
<polygon fill="midnightblue" stroke="midnightblue" points="277.5,-102.083 281,-112.083 284.5,-102.083 277.5,-102.083"/>
</g>
<!-- Node7 -->
<g id="node15" class="node"><title>Node7</title>
<a xlink:href="mathUtils_8cpp.html" target="_top" xlink:title="src/mathUtils.cpp">
<polygon fill="white" stroke="black" points="352,-56.5 352,-75.5 444,-75.5 444,-56.5 352,-56.5"/>
<text text-anchor="middle" x="398" y="-63.5" font-family="FreeSans" font-size="10.00">src/mathUtils.cpp</text>
</a>
</g>
<!-- Node1&#45;&gt;Node7 -->
<g id="edge16" class="edge"><title>Node1&#45;&gt;Node7</title>
<path fill="none" stroke="midnightblue" d="M308.664,-108.232C330.549,-98.1312 360.497,-84.3091 379.548,-75.5164"/>
<polygon fill="midnightblue" stroke="midnightblue" points="307.152,-105.075 299.539,-112.444 310.085,-111.431 307.152,-105.075"/>
</g>
<!-- Node8 -->
<g id="node17" class="node"><title>Node8</title>
<a xlink:href="sundialsUtils_8cpp.html" target="_top" xlink:title="src/sundialsUtils.cpp">
<polygon fill="white" stroke="black" points="462.5,-56.5 462.5,-75.5 569.5,-75.5 569.5,-56.5 462.5,-56.5"/>
<text text-anchor="middle" x="516" y="-63.5" font-family="FreeSans" font-size="10.00">src/sundialsUtils.cpp</text>
</a>
</g>
<!-- Node1&#45;&gt;Node8 -->
<g id="edge18" class="edge"><title>Node1&#45;&gt;Node8</title>
<path fill="none" stroke="midnightblue" d="M328.205,-110.153C372.607,-99.95 438.185,-84.8809 478.938,-75.5164"/>
<polygon fill="midnightblue" stroke="midnightblue" points="327.199,-106.793 318.236,-112.444 328.766,-113.615 327.199,-106.793"/>
</g>
<!-- Node3 -->
<g id="node5" class="node"><title>Node3</title>
<a xlink:href="convectionSystem_8cpp.html" target="_top" xlink:title="src/convectionSystem.cpp">
<polygon fill="white" stroke="black" points="0,-0.5 0,-19.5 134,-19.5 134,-0.5 0,-0.5"/>
<text text-anchor="middle" x="67" y="-7.5" font-family="FreeSans" font-size="10.00">src/convectionSystem.cpp</text>
</a>
</g>
<!-- Node2&#45;&gt;Node3 -->
<g id="edge4" class="edge"><title>Node2&#45;&gt;Node3</title>
<path fill="none" stroke="midnightblue" d="M96.5776,-48.144C89.0858,-38.7357 80.0629,-27.4046 73.9685,-19.7511"/>
<polygon fill="midnightblue" stroke="midnightblue" points="93.9321,-50.4404 102.899,-56.083 99.4081,-46.0799 93.9321,-50.4404"/>
</g>
<!-- Node2&#45;&gt;Node4 -->
<g id="edge6" class="edge"><title>Node2&#45;&gt;Node4</title>
<path fill="none" stroke="midnightblue" d="M133.038,-51.1774C149.599,-41.2407 171.418,-28.1492 185.576,-19.6545"/>
<polygon fill="midnightblue" stroke="midnightblue" points="131.234,-48.1777 124.46,-56.324 134.836,-54.1802 131.234,-48.1777"/>
</g>
<!-- Node5&#45;&gt;Node4 -->
<g id="edge12" class="edge"><title>Node5&#45;&gt;Node4</title>
<path fill="none" stroke="midnightblue" d="M259.433,-50.6221C244.636,-40.7574 225.488,-27.9919 212.982,-19.6545"/>
<polygon fill="midnightblue" stroke="midnightblue" points="257.724,-53.6891 267.986,-56.324 261.607,-47.8647 257.724,-53.6891"/>
</g>
<!-- Node6 -->
<g id="node13" class="node"><title>Node6</title>
<a xlink:href="sourceSystem_8cpp.html" target="_top" xlink:title="src/sourceSystem.cpp">
<polygon fill="white" stroke="black" points="266,-0.5 266,-19.5 382,-19.5 382,-0.5 266,-0.5"/>
<text text-anchor="middle" x="324" y="-7.5" font-family="FreeSans" font-size="10.00">src/sourceSystem.cpp</text>
</a>
</g>
<!-- Node5&#45;&gt;Node6 -->
<g id="edge14" class="edge"><title>Node5&#45;&gt;Node6</title>
<path fill="none" stroke="midnightblue" d="M294.422,-48.144C301.914,-38.7357 310.937,-27.4046 317.032,-19.7511"/>
<polygon fill="midnightblue" stroke="midnightblue" points="291.592,-46.0799 288.101,-56.083 297.068,-50.4404 291.592,-46.0799"/>
</g>
</g>
</svg>
