<?xml version="1.0" encoding="UTF-8" standalone="no"?>
<!DOCTYPE svg PUBLIC "-//W3C//DTD SVG 1.1//EN"
 "http://www.w3.org/Graphics/SVG/1.1/DTD/svg11.dtd">
<!-- Generated by graphviz version 2.26.3 (20100126.1600)
 -->
<!-- Title: src/sundialsUtils.h Pages: 1 -->
<svg width="1330pt" height="88pt"
 viewBox="0.00 0.00 1330.00 88.00" xmlns="http://www.w3.org/2000/svg" xmlns:xlink="http://www.w3.org/1999/xlink">
<g id="graph1" class="graph" transform="scale(1 1) rotate(0) translate(4 84)">
<title>src/sundialsUtils.h</title>
<polygon fill="white" stroke="white" points="-4,5 -4,-84 1327,-84 1327,5 -4,5"/>
<!-- Node1 -->
<g id="node1" class="node"><title>Node1</title>
<polygon fill="#bfbfbf" stroke="black" points="789.5,-59 789.5,-79 882.5,-79 882.5,-59 789.5,-59"/>
<text text-anchor="middle" x="836" y="-66" font-family="FreeSans" font-size="10.00">src/sundialsUtils.h</text>
</g>
<!-- Node2 -->
<g id="node3" class="node"><title>Node2</title>
<polygon fill="white" stroke="#bfbfbf" points="0,-1 0,-21 118,-21 118,-1 0,-1"/>
<text text-anchor="middle" x="59" y="-8" font-family="FreeSans" font-size="10.00">nvector/nvector_serial.h</text>
</g>
<!-- Node1&#45;&gt;Node2 -->
<g id="edge2" class="edge"><title>Node1&#45;&gt;Node2</title>
<path fill="none" stroke="midnightblue" d="M789.41,-67.4306C677.342,-63.3298 383.695,-50.6486 128.5,-22.0821"/>
<polygon fill="midnightblue" stroke="midnightblue" points="128.623,-18.5738 118.293,-20.9287 127.836,-25.5296 128.623,-18.5738"/>
</g>
<!-- Node3 -->
<g id="node5" class="node"><title>Node3</title>
<polygon fill="white" stroke="#bfbfbf" points="135.5,-1 135.5,-21 262.5,-21 262.5,-1 135.5,-1"/>
<text text-anchor="middle" x="199" y="-8" font-family="FreeSans" font-size="10.00">sundials/sundials_dense.h</text>
</g>
<!-- Node1&#45;&gt;Node3 -->
<g id="edge4" class="edge"><title>Node1&#45;&gt;Node3</title>
<path fill="none" stroke="midnightblue" d="M789.384,-66.2087C694.195,-60.2737 470.431,-45.1208 272.569,-22.1255"/>
<polygon fill="midnightblue" stroke="midnightblue" points="272.911,-18.6417 262.571,-20.9542 272.096,-25.5941 272.911,-18.6417"/>
</g>
<!-- Node4 -->
<g id="node7" class="node"><title>Node4</title>
<polygon fill="white" stroke="#bfbfbf" points="280,-1 280,-21 402,-21 402,-1 280,-1"/>
<text text-anchor="middle" x="341" y="-8" font-family="FreeSans" font-size="10.00">sundials/sundials_band.h</text>
</g>
<!-- Node1&#45;&gt;Node4 -->
<g id="edge6" class="edge"><title>Node1&#45;&gt;Node4</title>
<path fill="none" stroke="midnightblue" d="M789.378,-64.5482C712.906,-57.0923 555.812,-41.1309 412.363,-22.1362"/>
<polygon fill="midnightblue" stroke="midnightblue" points="412.434,-18.6148 402.059,-20.7634 411.51,-25.5535 412.434,-18.6148"/>
</g>
<!-- Node5 -->
<g id="node9" class="node"><title>Node5</title>
<polygon fill="white" stroke="#bfbfbf" points="420,-1 420,-21 544,-21 544,-1 420,-1"/>
<text text-anchor="middle" x="482" y="-8" font-family="FreeSans" font-size="10.00">sundials/sundials_types.h</text>
</g>
<!-- Node1&#45;&gt;Node5 -->
<g id="edge8" class="edge"><title>Node1&#45;&gt;Node5</title>
<path fill="none" stroke="midnightblue" d="M789.357,-61.3579C729.141,-51.4921 623.759,-34.2261 553.425,-22.7024"/>
<polygon fill="midnightblue" stroke="midnightblue" points="553.746,-19.2085 543.312,-21.0455 552.614,-26.1164 553.746,-19.2085"/>
</g>
<!-- Node6 -->
<g id="node11" class="node"><title>Node6</title>
<polygon fill="white" stroke="#bfbfbf" points="562,-1 562,-21 640,-21 640,-1 562,-1"/>
<text text-anchor="middle" x="601" y="-8" font-family="FreeSans" font-size="10.00">cvode/cvode.h</text>
</g>
<!-- Node1&#45;&gt;Node6 -->
<g id="edge10" class="edge"><title>Node1&#45;&gt;Node6</title>
<path fill="none" stroke="midnightblue" d="M795.334,-58.9634C755.079,-49.028 693.398,-33.8046 650.357,-23.1818"/>
<polygon fill="midnightblue" stroke="midnightblue" points="650.933,-19.719 640.386,-20.7208 649.256,-26.5151 650.933,-19.719"/>
</g>
<!-- Node7 -->
<g id="node13" class="node"><title>Node7</title>
<polygon fill="white" stroke="#bfbfbf" points="657.5,-1 657.5,-21 766.5,-21 766.5,-1 657.5,-1"/>
<text text-anchor="middle" x="712" y="-8" font-family="FreeSans" font-size="10.00">cvode/cvode_dense.h</text>
</g>
<!-- Node1&#45;&gt;Node7 -->
<g id="edge12" class="edge"><title>Node1&#45;&gt;Node7</title>
<path fill="none" stroke="midnightblue" d="M814.401,-58.8972C794.696,-49.6805 765.348,-35.9532 743.116,-25.5542"/>
<polygon fill="midnightblue" stroke="midnightblue" points="744.309,-22.2482 733.768,-21.1817 741.343,-28.5889 744.309,-22.2482"/>
</g>
<!-- Node8 -->
<g id="node15" class="node"><title>Node8</title>
<polygon fill="white" stroke="#bfbfbf" points="784,-1 784,-21 888,-21 888,-1 784,-1"/>
<text text-anchor="middle" x="836" y="-8" font-family="FreeSans" font-size="10.00">cvode/cvode_band.h</text>
</g>
<!-- Node1&#45;&gt;Node8 -->
<g id="edge14" class="edge"><title>Node1&#45;&gt;Node8</title>
<path fill="none" stroke="midnightblue" d="M836,-58.8972C836,-51.339 836,-40.7476 836,-31.4458"/>
<polygon fill="midnightblue" stroke="midnightblue" points="839.5,-31.3776 836,-21.3776 832.5,-31.3776 839.5,-31.3776"/>
</g>
<!-- Node9 -->
<g id="node17" class="node"><title>Node9</title>
<polygon fill="white" stroke="#bfbfbf" points="905.5,-1 905.5,-21 958.5,-21 958.5,-1 905.5,-1"/>
<text text-anchor="middle" x="932" y="-8" font-family="FreeSans" font-size="10.00">ida/ida.h</text>
</g>
<!-- Node1&#45;&gt;Node9 -->
<g id="edge16" class="edge"><title>Node1&#45;&gt;Node9</title>
<path fill="none" stroke="midnightblue" d="M852.722,-58.8972C867.498,-49.9698 889.279,-36.8106 906.274,-26.5431"/>
<polygon fill="midnightblue" stroke="midnightblue" points="908.398,-29.3486 915.148,-21.1817 904.779,-23.3572 908.398,-29.3486"/>
</g>
<!-- Node10 -->
<g id="node19" class="node"><title>Node10</title>
<polygon fill="white" stroke="#bfbfbf" points="976,-1 976,-21 1064,-21 1064,-1 976,-1"/>
<text text-anchor="middle" x="1020" y="-8" font-family="FreeSans" font-size="10.00">ida/ida_spbcgs.h</text>
</g>
<!-- Node1&#45;&gt;Node10 -->
<g id="edge18" class="edge"><title>Node1&#45;&gt;Node10</title>
<path fill="none" stroke="midnightblue" d="M868.05,-58.8972C898.563,-49.2791 944.658,-34.749 978.076,-24.2152"/>
<polygon fill="midnightblue" stroke="midnightblue" points="979.524,-27.4287 988.009,-21.0842 977.419,-20.7525 979.524,-27.4287"/>
</g>
<!-- Node11 -->
<g id="node21" class="node"><title>Node11</title>
<polygon fill="white" stroke="#bfbfbf" points="1081.5,-1 1081.5,-21 1134.5,-21 1134.5,-1 1081.5,-1"/>
<text text-anchor="middle" x="1108" y="-8" font-family="FreeSans" font-size="10.00">iostream</text>
</g>
<!-- Node1&#45;&gt;Node11 -->
<g id="edge20" class="edge"><title>Node1&#45;&gt;Node11</title>
<path fill="none" stroke="midnightblue" d="M882.657,-61.2931C928.539,-53.3699 1000.72,-39.9885 1071.38,-22.2425"/>
<polygon fill="midnightblue" stroke="midnightblue" points="1072.5,-25.5669 1081.33,-19.7096 1070.78,-18.783 1072.5,-25.5669"/>
</g>
<!-- Node12 -->
<g id="node23" class="node"><title>Node12</title>
<polygon fill="white" stroke="#bfbfbf" points="1151.5,-1 1151.5,-21 1194.5,-21 1194.5,-1 1151.5,-1"/>
<text text-anchor="middle" x="1173" y="-8" font-family="FreeSans" font-size="10.00">vector</text>
</g>
<!-- Node1&#45;&gt;Node12 -->
<g id="edge22" class="edge"><title>Node1&#45;&gt;Node12</title>
<path fill="none" stroke="midnightblue" d="M882.61,-64.7876C941.263,-58.8462 1045.08,-46.2066 1141.32,-22.0889"/>
<polygon fill="midnightblue" stroke="midnightblue" points="1142.38,-25.4296 1151.2,-19.5633 1140.65,-18.6475 1142.38,-25.4296"/>
</g>
<!-- Node13 -->
<g id="node25" class="node"><title>Node13</title>
<polygon fill="white" stroke="#bfbfbf" points="1211.5,-1 1211.5,-21 1254.5,-21 1254.5,-1 1211.5,-1"/>
<text text-anchor="middle" x="1233" y="-8" font-family="FreeSans" font-size="10.00">time.h</text>
</g>
<!-- Node1&#45;&gt;Node13 -->
<g id="edge24" class="edge"><title>Node1&#45;&gt;Node13</title>
<path fill="none" stroke="midnightblue" d="M882.667,-66.3801C951.057,-61.8111 1082.46,-50.2629 1201.23,-22.0468"/>
<polygon fill="midnightblue" stroke="midnightblue" points="1202.33,-25.3838 1211.22,-19.6274 1200.68,-18.5806 1202.33,-25.3838"/>
</g>
<!-- Node14 -->
<g id="node27" class="node"><title>Node14</title>
<a xlink:href="config_8h.html" target="_top" xlink:title="config.h">
<polygon fill="white" stroke="black" points="1272,-1 1272,-21 1322,-21 1322,-1 1272,-1"/>
<text text-anchor="middle" x="1297" y="-8" font-family="FreeSans" font-size="10.00">config.h</text>
</a>
</g>
<!-- Node1&#45;&gt;Node14 -->
<g id="edge26" class="edge"><title>Node1&#45;&gt;Node14</title>
<path fill="none" stroke="midnightblue" d="M882.62,-66.9711C959.876,-62.9362 1119.27,-51.7624 1262.09,-21.8405"/>
<polygon fill="midnightblue" stroke="midnightblue" points="1262.85,-25.2559 1271.9,-19.7481 1261.39,-18.4096 1262.85,-25.2559"/>
</g>
</g>
</svg>
