<?xml version="1.0" encoding="UTF-8" standalone="no"?>
<!DOCTYPE svg PUBLIC "-//W3C//DTD SVG 1.1//EN"
 "http://www.w3.org/Graphics/SVG/1.1/DTD/svg11.dtd">
<!-- Generated by graphviz version 2.28.0 (20120425.2022)
 -->
<!-- Title: G Pages: 1 -->
<svg width="1897pt" height="196pt"
 viewBox="0.00 0.00 1897.00 196.00" xmlns="http://www.w3.org/2000/svg" xmlns:xlink="http://www.w3.org/1999/xlink">
<g id="graph1" class="graph" transform="scale(1 1) rotate(0) translate(4 192)">
<title>G</title>
<polygon fill="white" stroke="white" points="-4,5 -4,-192 1894,-192 1894,5 -4,5"/>
<!-- Node1 -->
<g id="node1" class="node"><title>Node1</title>
<polygon fill="#bfbfbf" stroke="black" points="1360.5,-168.5 1360.5,-187.5 1467.5,-187.5 1467.5,-168.5 1360.5,-168.5"/>
<text text-anchor="middle" x="1414" y="-175.5" font-family="FreeSans" font-size="10.00">src/sundialsUtils.cpp</text>
</g>
<!-- Node2 -->
<g id="node3" class="node"><title>Node2</title>
<a xlink:href="sundialsUtils_8h.html" target="_top" xlink:title="sundialsUtils.h">
<polygon fill="white" stroke="black" points="605,-112.5 605,-131.5 685,-131.5 685,-112.5 605,-112.5"/>
<text text-anchor="middle" x="645" y="-119.5" font-family="FreeSans" font-size="10.00">sundialsUtils.h</text>
</a>
</g>
<!-- Node1&#45;&gt;Node2 -->
<g id="edge2" class="edge"><title>Node1&#45;&gt;Node2</title>
<path fill="none" stroke="midnightblue" d="M1360.23,-173.224C1218.05,-163.24 833.642,-136.247 695.389,-126.538"/>
<polygon fill="midnightblue" stroke="midnightblue" points="695.314,-123.025 685.093,-125.815 694.823,-130.007 695.314,-123.025"/>
</g>
<!-- Node12 -->
<g id="node23" class="node"><title>Node12</title>
<polygon fill="white" stroke="#bfbfbf" points="1404,-0.5 1404,-19.5 1460,-19.5 1460,-0.5 1404,-0.5"/>
<text text-anchor="middle" x="1432" y="-7.5" font-family="FreeSans" font-size="10.00">iostream</text>
</g>
<!-- Node1&#45;&gt;Node12 -->
<g id="edge40" class="edge"><title>Node1&#45;&gt;Node12</title>
<path fill="none" stroke="midnightblue" d="M1400.74,-168.204C1372.35,-148.263 1310.37,-98.0811 1337,-56 1349.5,-36.2535 1373.26,-25.0025 1393.89,-18.6886"/>
<polygon fill="midnightblue" stroke="midnightblue" points="1395,-22.0127 1403.71,-15.9701 1393.13,-15.2667 1395,-22.0127"/>
</g>
<!-- Node15 -->
<g id="node29" class="node"><title>Node15</title>
<a xlink:href="debugUtils_8h.html" target="_top" xlink:title="debugUtils.h">
<polygon fill="white" stroke="black" points="1704.5,-56.5 1704.5,-75.5 1775.5,-75.5 1775.5,-56.5 1704.5,-56.5"/>
<text text-anchor="middle" x="1740" y="-63.5" font-family="FreeSans" font-size="10.00">debugUtils.h</text>
</a>
</g>
<!-- Node1&#45;&gt;Node15 -->
<g id="edge28" class="edge"><title>Node1&#45;&gt;Node15</title>
<path fill="none" stroke="midnightblue" d="M1440.3,-168.481C1467.91,-159.511 1512.56,-144.923 1551,-132 1605.35,-113.73 1668.27,-91.9658 1706.07,-78.8291"/>
<polygon fill="midnightblue" stroke="midnightblue" points="1707.28,-82.1139 1715.57,-75.5226 1704.98,-75.5025 1707.28,-82.1139"/>
</g>
<!-- Node20 -->
<g id="node41" class="node"><title>Node20</title>
<a xlink:href="mathUtils_8h.html" target="_top" xlink:title="mathUtils.h">
<polygon fill="white" stroke="black" points="1477.5,-112.5 1477.5,-131.5 1542.5,-131.5 1542.5,-112.5 1477.5,-112.5"/>
<text text-anchor="middle" x="1510" y="-119.5" font-family="FreeSans" font-size="10.00">mathUtils.h</text>
</a>
</g>
<!-- Node1&#45;&gt;Node20 -->
<g id="edge42" class="edge"><title>Node1&#45;&gt;Node20</title>
<path fill="none" stroke="midnightblue" d="M1429.42,-168.324C1444.54,-159.822 1467.82,-146.729 1485.47,-136.797"/>
<polygon fill="midnightblue" stroke="midnightblue" points="1487.61,-139.608 1494.61,-131.655 1484.18,-133.507 1487.61,-139.608"/>
</g>
<!-- Node3 -->
<g id="node5" class="node"><title>Node3</title>
<polygon fill="white" stroke="#bfbfbf" points="284.5,-56.5 284.5,-75.5 407.5,-75.5 407.5,-56.5 284.5,-56.5"/>
<text text-anchor="middle" x="346" y="-63.5" font-family="FreeSans" font-size="10.00">nvector/nvector_serial.h</text>
</g>
<!-- Node2&#45;&gt;Node3 -->
<g id="edge4" class="edge"><title>Node2&#45;&gt;Node3</title>
<path fill="none" stroke="midnightblue" d="M604.986,-113.773C553.088,-104.401 462.225,-87.9904 403.093,-77.3111"/>
<polygon fill="midnightblue" stroke="midnightblue" points="403.626,-73.8508 393.163,-75.5177 402.382,-80.7393 403.626,-73.8508"/>
</g>
<!-- Node4 -->
<g id="node7" class="node"><title>Node4</title>
<polygon fill="white" stroke="#bfbfbf" points="426,-56.5 426,-75.5 562,-75.5 562,-56.5 426,-56.5"/>
<text text-anchor="middle" x="494" y="-63.5" font-family="FreeSans" font-size="10.00">sundials/sundials_dense.h</text>
</g>
<!-- Node2&#45;&gt;Node4 -->
<g id="edge6" class="edge"><title>Node2&#45;&gt;Node4</title>
<path fill="none" stroke="midnightblue" d="M621.074,-112.444C595.781,-103.399 555.698,-89.064 527.32,-78.9158"/>
<polygon fill="midnightblue" stroke="midnightblue" points="528.409,-75.5882 517.814,-75.5164 526.052,-82.1794 528.409,-75.5882"/>
</g>
<!-- Node5 -->
<g id="node9" class="node"><title>Node5</title>
<polygon fill="white" stroke="#bfbfbf" points="580,-56.5 580,-75.5 710,-75.5 710,-56.5 580,-56.5"/>
<text text-anchor="middle" x="645" y="-63.5" font-family="FreeSans" font-size="10.00">sundials/sundials_band.h</text>
</g>
<!-- Node2&#45;&gt;Node5 -->
<g id="edge8" class="edge"><title>Node2&#45;&gt;Node5</title>
<path fill="none" stroke="midnightblue" d="M645,-112.083C645,-105.006 645,-94.8611 645,-85.9865"/>
<polygon fill="midnightblue" stroke="midnightblue" points="648.5,-85.751 645,-75.7511 641.5,-85.7511 648.5,-85.751"/>
</g>
<!-- Node6 -->
<g id="node11" class="node"><title>Node6</title>
<polygon fill="white" stroke="#bfbfbf" points="728.5,-56.5 728.5,-75.5 859.5,-75.5 859.5,-56.5 728.5,-56.5"/>
<text text-anchor="middle" x="794" y="-63.5" font-family="FreeSans" font-size="10.00">sundials/sundials_types.h</text>
</g>
<!-- Node2&#45;&gt;Node6 -->
<g id="edge10" class="edge"><title>Node2&#45;&gt;Node6</title>
<path fill="none" stroke="midnightblue" d="M668.609,-112.444C693.458,-103.438 732.774,-89.1891 760.754,-79.049"/>
<polygon fill="midnightblue" stroke="midnightblue" points="762.292,-82.2144 770.501,-75.5164 759.907,-75.6332 762.292,-82.2144"/>
</g>
<!-- Node7 -->
<g id="node13" class="node"><title>Node7</title>
<polygon fill="white" stroke="#bfbfbf" points="878,-56.5 878,-75.5 962,-75.5 962,-56.5 878,-56.5"/>
<text text-anchor="middle" x="920" y="-63.5" font-family="FreeSans" font-size="10.00">cvode/cvode.h</text>
</g>
<!-- Node2&#45;&gt;Node7 -->
<g id="edge12" class="edge"><title>Node2&#45;&gt;Node7</title>
<path fill="none" stroke="midnightblue" d="M685.282,-113.09C733.635,-103.595 814.828,-87.6519 867.907,-77.2291"/>
<polygon fill="midnightblue" stroke="midnightblue" points="868.665,-80.6472 877.803,-75.2859 867.316,-73.7784 868.665,-80.6472"/>
</g>
<!-- Node8 -->
<g id="node15" class="node"><title>Node8</title>
<polygon fill="white" stroke="#bfbfbf" points="980,-56.5 980,-75.5 1098,-75.5 1098,-56.5 980,-56.5"/>
<text text-anchor="middle" x="1039" y="-63.5" font-family="FreeSans" font-size="10.00">cvode/cvode_dense.h</text>
</g>
<!-- Node2&#45;&gt;Node8 -->
<g id="edge14" class="edge"><title>Node2&#45;&gt;Node8</title>
<path fill="none" stroke="midnightblue" d="M685.313,-115.475C752.339,-106.289 887.464,-87.7689 969.917,-76.4682"/>
<polygon fill="midnightblue" stroke="midnightblue" points="970.519,-79.9185 979.951,-75.093 969.568,-72.9834 970.519,-79.9185"/>
</g>
<!-- Node9 -->
<g id="node17" class="node"><title>Node9</title>
<polygon fill="white" stroke="#bfbfbf" points="1116,-56.5 1116,-75.5 1228,-75.5 1228,-56.5 1116,-56.5"/>
<text text-anchor="middle" x="1172" y="-63.5" font-family="FreeSans" font-size="10.00">cvode/cvode_band.h</text>
</g>
<!-- Node2&#45;&gt;Node9 -->
<g id="edge16" class="edge"><title>Node2&#45;&gt;Node9</title>
<path fill="none" stroke="midnightblue" d="M685.227,-117.634C763.874,-110.933 943.757,-95.0207 1105.84,-76.0934"/>
<polygon fill="midnightblue" stroke="midnightblue" points="1106.48,-79.5432 1116,-74.9006 1105.66,-72.591 1106.48,-79.5432"/>
</g>
<!-- Node10 -->
<g id="node19" class="node"><title>Node10</title>
<polygon fill="white" stroke="#bfbfbf" points="0,-56.5 0,-75.5 56,-75.5 56,-56.5 0,-56.5"/>
<text text-anchor="middle" x="28" y="-63.5" font-family="FreeSans" font-size="10.00">ida/ida.h</text>
</g>
<!-- Node2&#45;&gt;Node10 -->
<g id="edge18" class="edge"><title>Node2&#45;&gt;Node10</title>
<path fill="none" stroke="midnightblue" d="M604.926,-120.206C511.76,-117.866 273.316,-109.039 66.3481,-76.1612"/>
<polygon fill="midnightblue" stroke="midnightblue" points="66.6351,-72.6624 56.2056,-74.5265 65.5212,-79.5732 66.6351,-72.6624"/>
</g>
<!-- Node11 -->
<g id="node21" class="node"><title>Node11</title>
<polygon fill="white" stroke="#bfbfbf" points="73.5,-56.5 73.5,-75.5 166.5,-75.5 166.5,-56.5 73.5,-56.5"/>
<text text-anchor="middle" x="120" y="-63.5" font-family="FreeSans" font-size="10.00">ida/ida_spbcgs.h</text>
</g>
<!-- Node2&#45;&gt;Node11 -->
<g id="edge20" class="edge"><title>Node2&#45;&gt;Node11</title>
<path fill="none" stroke="midnightblue" d="M604.894,-117.788C524.396,-111.19 337.454,-95.1164 181,-76 179.539,-75.8215 178.059,-75.6362 176.566,-75.4453"/>
<polygon fill="midnightblue" stroke="midnightblue" points="176.969,-71.9681 166.594,-74.1185 176.045,-78.907 176.969,-71.9681"/>
</g>
<!-- Node2&#45;&gt;Node12 -->
<g id="edge22" class="edge"><title>Node2&#45;&gt;Node12</title>
<path fill="none" stroke="midnightblue" d="M604.594,-121.009C487.318,-120.366 158.6,-113.484 214,-56 255.902,-12.5213 1191.67,-10.8021 1393.75,-10.9393"/>
<polygon fill="midnightblue" stroke="midnightblue" points="1393.88,-14.4394 1403.88,-10.9483 1393.89,-7.43936 1393.88,-14.4394"/>
</g>
<!-- Node13 -->
<g id="node25" class="node"><title>Node13</title>
<polygon fill="white" stroke="#bfbfbf" points="1246,-56.5 1246,-75.5 1290,-75.5 1290,-56.5 1246,-56.5"/>
<text text-anchor="middle" x="1268" y="-63.5" font-family="FreeSans" font-size="10.00">vector</text>
</g>
<!-- Node2&#45;&gt;Node13 -->
<g id="edge24" class="edge"><title>Node2&#45;&gt;Node13</title>
<path fill="none" stroke="midnightblue" d="M685.117,-120.676C779.564,-119.331 1023.29,-112.471 1235.66,-75.6421"/>
<polygon fill="midnightblue" stroke="midnightblue" points="1236.51,-79.0469 1245.75,-73.8656 1235.3,-72.153 1236.51,-79.0469"/>
</g>
<!-- Node14 -->
<g id="node27" class="node"><title>Node14</title>
<polygon fill="white" stroke="#bfbfbf" points="223.5,-56.5 223.5,-75.5 266.5,-75.5 266.5,-56.5 223.5,-56.5"/>
<text text-anchor="middle" x="245" y="-63.5" font-family="FreeSans" font-size="10.00">time.h</text>
</g>
<!-- Node2&#45;&gt;Node14 -->
<g id="edge26" class="edge"><title>Node2&#45;&gt;Node14</title>
<path fill="none" stroke="midnightblue" d="M604.939,-118.375C538.456,-113.534 401.093,-101.472 276.601,-76.0303"/>
<polygon fill="midnightblue" stroke="midnightblue" points="277.02,-72.5426 266.517,-73.9338 275.595,-79.3961 277.02,-72.5426"/>
</g>
<!-- Node15&#45;&gt;Node12 -->
<g id="edge32" class="edge"><title>Node15&#45;&gt;Node12</title>
<path fill="none" stroke="midnightblue" d="M1704.36,-57.9416C1700.86,-57.2745 1697.36,-56.6174 1694,-56 1614.59,-41.4135 1521.35,-25.7476 1470.28,-17.2898"/>
<polygon fill="midnightblue" stroke="midnightblue" points="1470.78,-13.8249 1460.34,-15.6471 1469.64,-20.7312 1470.78,-13.8249"/>
</g>
<!-- Node16 -->
<g id="node31" class="node"><title>Node16</title>
<polygon fill="white" stroke="#bfbfbf" points="1593.5,-0.5 1593.5,-19.5 1634.5,-19.5 1634.5,-0.5 1593.5,-0.5"/>
<text text-anchor="middle" x="1614" y="-7.5" font-family="FreeSans" font-size="10.00">string</text>
</g>
<!-- Node15&#45;&gt;Node16 -->
<g id="edge30" class="edge"><title>Node15&#45;&gt;Node16</title>
<path fill="none" stroke="midnightblue" d="M1720.03,-56.4435C1699.39,-47.5961 1666.94,-33.6875 1643.37,-23.5865"/>
<polygon fill="midnightblue" stroke="midnightblue" points="1644.44,-20.2387 1633.87,-19.5164 1641.68,-26.6727 1644.44,-20.2387"/>
</g>
<!-- Node17 -->
<g id="node34" class="node"><title>Node17</title>
<polygon fill="white" stroke="#bfbfbf" points="1653,-0.5 1653,-19.5 1703,-19.5 1703,-0.5 1653,-0.5"/>
<text text-anchor="middle" x="1678" y="-7.5" font-family="FreeSans" font-size="10.00">fstream</text>
</g>
<!-- Node15&#45;&gt;Node17 -->
<g id="edge34" class="edge"><title>Node15&#45;&gt;Node17</title>
<path fill="none" stroke="midnightblue" d="M1730.04,-56.324C1720.87,-48.3414 1707.06,-36.3128 1695.97,-26.6529"/>
<polygon fill="midnightblue" stroke="midnightblue" points="1697.98,-23.7624 1688.14,-19.8339 1693.38,-29.041 1697.98,-23.7624"/>
</g>
<!-- Node18 -->
<g id="node36" class="node"><title>Node18</title>
<polygon fill="white" stroke="#bfbfbf" points="1721,-0.5 1721,-19.5 1781,-19.5 1781,-0.5 1721,-0.5"/>
<text text-anchor="middle" x="1751" y="-7.5" font-family="FreeSans" font-size="10.00">exception</text>
</g>
<!-- Node15&#45;&gt;Node18 -->
<g id="edge36" class="edge"><title>Node15&#45;&gt;Node18</title>
<path fill="none" stroke="midnightblue" d="M1741.82,-56.083C1743.27,-48.9272 1745.37,-38.6353 1747.19,-29.6911"/>
<polygon fill="midnightblue" stroke="midnightblue" points="1750.65,-30.2485 1749.22,-19.7511 1743.79,-28.8512 1750.65,-30.2485"/>
</g>
<!-- Node19 -->
<g id="node38" class="node"><title>Node19</title>
<polygon fill="white" stroke="#bfbfbf" points="1799,-0.5 1799,-19.5 1889,-19.5 1889,-0.5 1799,-0.5"/>
<text text-anchor="middle" x="1844" y="-7.5" font-family="FreeSans" font-size="10.00">boost/format.hpp</text>
</g>
<!-- Node15&#45;&gt;Node19 -->
<g id="edge38" class="edge"><title>Node15&#45;&gt;Node19</title>
<path fill="none" stroke="midnightblue" d="M1756.71,-56.324C1773.31,-47.7034 1799,-34.3643 1818.22,-24.3855"/>
<polygon fill="midnightblue" stroke="midnightblue" points="1820.07,-27.3689 1827.33,-19.6545 1816.84,-21.1565 1820.07,-27.3689"/>
</g>
<!-- Node20&#45;&gt;Node12 -->
<g id="edge48" class="edge"><title>Node20&#45;&gt;Node12</title>
<path fill="none" stroke="midnightblue" d="M1523.84,-112.396C1542.05,-99.9692 1570.2,-76.2643 1556,-56 1536.8,-28.608 1499.14,-17.8243 1470.34,-13.614"/>
<polygon fill="midnightblue" stroke="midnightblue" points="1470.54,-10.1114 1460.18,-12.3417 1469.67,-17.0572 1470.54,-10.1114"/>
</g>
<!-- Node20&#45;&gt;Node13 -->
<g id="edge44" class="edge"><title>Node20&#45;&gt;Node13</title>
<path fill="none" stroke="midnightblue" d="M1477.36,-113.717C1430.82,-103.333 1345.94,-84.392 1299.84,-74.1057"/>
<polygon fill="midnightblue" stroke="midnightblue" points="1300.61,-70.6897 1290.08,-71.9278 1299.08,-77.5217 1300.61,-70.6897"/>
</g>
<!-- Node20&#45;&gt;Node15 -->
<g id="edge56" class="edge"><title>Node20&#45;&gt;Node15</title>
<path fill="none" stroke="midnightblue" d="M1542.95,-113.263C1582.71,-103.929 1649.76,-88.1857 1694.45,-77.6942"/>
<polygon fill="midnightblue" stroke="midnightblue" points="1695.53,-81.0367 1704.46,-75.3436 1693.93,-74.222 1695.53,-81.0367"/>
</g>
<!-- Node20&#45;&gt;Node16 -->
<g id="edge52" class="edge"><title>Node20&#45;&gt;Node16</title>
<path fill="none" stroke="midnightblue" d="M1524.98,-112.343C1538.34,-104.134 1557.91,-90.8701 1572,-76 1585.53,-61.7147 1597.33,-42.5011 1604.94,-28.6732"/>
<polygon fill="midnightblue" stroke="midnightblue" points="1608.11,-30.1758 1609.72,-19.7037 1601.93,-26.8876 1608.11,-30.1758"/>
</g>
<!-- Node21 -->
<g id="node44" class="node"><title>Node21</title>
<polygon fill="white" stroke="#bfbfbf" points="1642,-56.5 1642,-75.5 1686,-75.5 1686,-56.5 1642,-56.5"/>
<text text-anchor="middle" x="1664" y="-63.5" font-family="FreeSans" font-size="10.00">cmath</text>
</g>
<!-- Node20&#45;&gt;Node21 -->
<g id="edge46" class="edge"><title>Node20&#45;&gt;Node21</title>
<path fill="none" stroke="midnightblue" d="M1534.4,-112.444C1560.8,-103.186 1603.01,-88.3866 1632.04,-78.2066"/>
<polygon fill="midnightblue" stroke="midnightblue" points="1633.43,-81.427 1641.71,-74.8151 1631.12,-74.8213 1633.43,-81.427"/>
</g>
<!-- Node22 -->
<g id="node47" class="node"><title>Node22</title>
<polygon fill="white" stroke="#bfbfbf" points="1346.5,-56.5 1346.5,-75.5 1399.5,-75.5 1399.5,-56.5 1346.5,-56.5"/>
<text text-anchor="middle" x="1373" y="-63.5" font-family="FreeSans" font-size="10.00">sstream</text>
</g>
<!-- Node20&#45;&gt;Node22 -->
<g id="edge50" class="edge"><title>Node20&#45;&gt;Node22</title>
<path fill="none" stroke="midnightblue" d="M1488.29,-112.444C1465.65,-103.517 1429.93,-89.4387 1404.25,-79.3168"/>
<polygon fill="midnightblue" stroke="midnightblue" points="1405.19,-75.9273 1394.61,-75.5164 1402.63,-82.4397 1405.19,-75.9273"/>
</g>
<!-- Node23 -->
<g id="node50" class="node"><title>Node23</title>
<polygon fill="white" stroke="#bfbfbf" points="1418,-56.5 1418,-75.5 1454,-75.5 1454,-56.5 1418,-56.5"/>
<text text-anchor="middle" x="1436" y="-63.5" font-family="FreeSans" font-size="10.00">map</text>
</g>
<!-- Node20&#45;&gt;Node23 -->
<g id="edge54" class="edge"><title>Node20&#45;&gt;Node23</title>
<path fill="none" stroke="midnightblue" d="M1498.11,-112.324C1486.85,-104.107 1469.71,-91.6017 1456.29,-81.8069"/>
<polygon fill="midnightblue" stroke="midnightblue" points="1458.25,-78.9014 1448.11,-75.8339 1454.12,-84.5559 1458.25,-78.9014"/>
</g>
<!-- Node24 -->
<g id="node53" class="node"><title>Node24</title>
<polygon fill="white" stroke="#bfbfbf" points="1472.5,-56.5 1472.5,-75.5 1547.5,-75.5 1547.5,-56.5 1472.5,-56.5"/>
<text text-anchor="middle" x="1510" y="-63.5" font-family="FreeSans" font-size="10.00">Eigen/Dense</text>
</g>
<!-- Node20&#45;&gt;Node24 -->
<g id="edge58" class="edge"><title>Node20&#45;&gt;Node24</title>
<path fill="none" stroke="midnightblue" d="M1510,-112.083C1510,-105.006 1510,-94.8611 1510,-85.9865"/>
<polygon fill="midnightblue" stroke="midnightblue" points="1513.5,-85.751 1510,-75.7511 1506.5,-85.7511 1513.5,-85.751"/>
</g>
</g>
</svg>
