<?xml version="1.0" encoding="UTF-8" standalone="no"?>
<!DOCTYPE svg PUBLIC "-//W3C//DTD SVG 1.1//EN"
 "http://www.w3.org/Graphics/SVG/1.1/DTD/svg11.dtd">
<!-- Generated by graphviz version 2.26.3 (20100126.1600)
 -->
<!-- Title: src/sundialsUtils.h Pages: 1 -->
<svg width="557pt" height="204pt"
 viewBox="0.00 0.00 557.00 204.00" xmlns="http://www.w3.org/2000/svg" xmlns:xlink="http://www.w3.org/1999/xlink">
<g id="graph1" class="graph" transform="scale(1 1) rotate(0) translate(4 200)">
<title>src/sundialsUtils.h</title>
<polygon fill="white" stroke="white" points="-4,5 -4,-200 554,-200 554,5 -4,5"/>
<!-- Node1 -->
<g id="node1" class="node"><title>Node1</title>
<polygon fill="#bfbfbf" stroke="black" points="262.5,-175 262.5,-195 355.5,-195 355.5,-175 262.5,-175"/>
<text text-anchor="middle" x="309" y="-182" font-family="FreeSans" font-size="10.00">src/sundialsUtils.h</text>
</g>
<!-- Node2 -->
<g id="node3" class="node"><title>Node2</title>
<a xlink:href="convectionSystem_8h.html" target="_top" xlink:title="src/convectionSystem.h">
<polygon fill="white" stroke="black" points="44.5,-117 44.5,-137 163.5,-137 163.5,-117 44.5,-117"/>
<text text-anchor="middle" x="104" y="-124" font-family="FreeSans" font-size="10.00">src/convectionSystem.h</text>
</a>
</g>
<!-- Node1&#45;&gt;Node2 -->
<g id="edge2" class="edge"><title>Node1&#45;&gt;Node2</title>
<path fill="none" stroke="midnightblue" d="M263.657,-172.171C226.3,-161.602 174.054,-146.82 139.642,-137.084"/>
<polygon fill="midnightblue" stroke="midnightblue" points="262.717,-175.542 273.292,-174.897 264.622,-168.807 262.717,-175.542"/>
</g>
<!-- Node6 -->
<g id="node11" class="node"><title>Node6</title>
<a xlink:href="sourceSystem_8h.html" target="_top" xlink:title="src/sourceSystem.h">
<polygon fill="white" stroke="black" points="180.5,-117 180.5,-137 281.5,-137 281.5,-117 180.5,-117"/>
<text text-anchor="middle" x="231" y="-124" font-family="FreeSans" font-size="10.00">src/sourceSystem.h</text>
</a>
</g>
<!-- Node1&#45;&gt;Node6 -->
<g id="edge10" class="edge"><title>Node1&#45;&gt;Node6</title>
<path fill="none" stroke="midnightblue" d="M287.061,-168.687C273.455,-158.569 256.397,-145.885 244.693,-137.182"/>
<polygon fill="midnightblue" stroke="midnightblue" points="285.3,-171.739 295.413,-174.897 289.477,-166.121 285.3,-171.739"/>
</g>
<!-- Node7 -->
<g id="node14" class="node"><title>Node7</title>
<a xlink:href="sourceSystem_8cpp.html" target="_top" xlink:title="src/sourceSystem.cpp">
<polygon fill="white" stroke="black" points="253.5,-59 253.5,-79 364.5,-79 364.5,-59 253.5,-59"/>
<text text-anchor="middle" x="309" y="-66" font-family="FreeSans" font-size="10.00">src/sourceSystem.cpp</text>
</a>
</g>
<!-- Node1&#45;&gt;Node7 -->
<g id="edge18" class="edge"><title>Node1&#45;&gt;Node7</title>
<path fill="none" stroke="midnightblue" d="M309,-164.487C309,-139.447 309,-98.0959 309,-79.1055"/>
<polygon fill="midnightblue" stroke="midnightblue" points="305.5,-164.706 309,-174.706 312.5,-164.706 305.5,-164.706"/>
</g>
<!-- Node8 -->
<g id="node16" class="node"><title>Node8</title>
<a xlink:href="mathUtils_8cpp.html" target="_top" xlink:title="src/mathUtils.cpp">
<polygon fill="white" stroke="black" points="336.5,-117 336.5,-137 427.5,-137 427.5,-117 336.5,-117"/>
<text text-anchor="middle" x="382" y="-124" font-family="FreeSans" font-size="10.00">src/mathUtils.cpp</text>
</a>
</g>
<!-- Node1&#45;&gt;Node8 -->
<g id="edge16" class="edge"><title>Node1&#45;&gt;Node8</title>
<path fill="none" stroke="midnightblue" d="M329.843,-168.44C342.43,-158.439 358.082,-146.004 368.939,-137.378"/>
<polygon fill="midnightblue" stroke="midnightblue" points="327.368,-165.936 321.716,-174.897 331.722,-171.417 327.368,-165.936"/>
</g>
<!-- Node9 -->
<g id="node19" class="node"><title>Node9</title>
<a xlink:href="sundialsUtils_8cpp.html" target="_top" xlink:title="src/sundialsUtils.cpp">
<polygon fill="white" stroke="black" points="445,-117 445,-137 549,-137 549,-117 445,-117"/>
<text text-anchor="middle" x="497" y="-124" font-family="FreeSans" font-size="10.00">src/sundialsUtils.cpp</text>
</a>
</g>
<!-- Node1&#45;&gt;Node9 -->
<g id="edge20" class="edge"><title>Node1&#45;&gt;Node9</title>
<path fill="none" stroke="midnightblue" d="M351.461,-171.9C385.656,-161.351 433.024,-146.737 464.313,-137.084"/>
<polygon fill="midnightblue" stroke="midnightblue" points="350.271,-168.605 341.747,-174.897 352.335,-175.294 350.271,-168.605"/>
</g>
<!-- Node3 -->
<g id="node5" class="node"><title>Node3</title>
<a xlink:href="convectionSystem_8cpp.html" target="_top" xlink:title="src/convectionSystem.cpp">
<polygon fill="white" stroke="black" points="-0.5,-59 -0.5,-79 128.5,-79 128.5,-59 -0.5,-59"/>
<text text-anchor="middle" x="64" y="-66" font-family="FreeSans" font-size="10.00">src/convectionSystem.cpp</text>
</a>
</g>
<!-- Node2&#45;&gt;Node3 -->
<g id="edge4" class="edge"><title>Node2&#45;&gt;Node3</title>
<path fill="none" stroke="midnightblue" d="M91.1649,-108.389C84.5396,-98.7824 76.7055,-87.423 71.157,-79.3776"/>
<polygon fill="midnightblue" stroke="midnightblue" points="88.4739,-110.652 97.0325,-116.897 94.2364,-106.678 88.4739,-110.652"/>
</g>
<!-- Node4 -->
<g id="node7" class="node"><title>Node4</title>
<a xlink:href="flameSolver_8h.html" target="_top" xlink:title="src/flameSolver.h">
<polygon fill="white" stroke="black" points="146,-59 146,-79 236,-79 236,-59 146,-59"/>
<text text-anchor="middle" x="191" y="-66" font-family="FreeSans" font-size="10.00">src/flameSolver.h</text>
</a>
</g>
<!-- Node2&#45;&gt;Node4 -->
<g id="edge6" class="edge"><title>Node2&#45;&gt;Node4</title>
<path fill="none" stroke="midnightblue" d="M127.607,-111.262C142.92,-101.054 162.424,-88.051 175.728,-79.1817"/>
<polygon fill="midnightblue" stroke="midnightblue" points="125.533,-108.438 119.154,-116.897 129.416,-114.262 125.533,-108.438"/>
</g>
<!-- Node5 -->
<g id="node9" class="node"><title>Node5</title>
<a xlink:href="flameSolver_8cpp.html" target="_top" xlink:title="src/flameSolver.cpp">
<polygon fill="white" stroke="black" points="140.5,-1 140.5,-21 241.5,-21 241.5,-1 140.5,-1"/>
<text text-anchor="middle" x="191" y="-8" font-family="FreeSans" font-size="10.00">src/flameSolver.cpp</text>
</a>
</g>
<!-- Node4&#45;&gt;Node5 -->
<g id="edge8" class="edge"><title>Node4&#45;&gt;Node5</title>
<path fill="none" stroke="midnightblue" d="M191,-48.8902C191,-39.6201 191,-29.0083 191,-21.3776"/>
<polygon fill="midnightblue" stroke="midnightblue" points="187.5,-48.8971 191,-58.8972 194.5,-48.8972 187.5,-48.8971"/>
</g>
<!-- Node6&#45;&gt;Node4 -->
<g id="edge12" class="edge"><title>Node6&#45;&gt;Node4</title>
<path fill="none" stroke="midnightblue" d="M218.165,-108.389C211.54,-98.7824 203.706,-87.423 198.157,-79.3776"/>
<polygon fill="midnightblue" stroke="midnightblue" points="215.474,-110.652 224.033,-116.897 221.236,-106.678 215.474,-110.652"/>
</g>
<!-- Node6&#45;&gt;Node7 -->
<g id="edge14" class="edge"><title>Node6&#45;&gt;Node7</title>
<path fill="none" stroke="midnightblue" d="M252.939,-110.687C266.545,-100.569 283.603,-87.8852 295.307,-79.1817"/>
<polygon fill="midnightblue" stroke="midnightblue" points="250.523,-108.121 244.587,-116.897 254.7,-113.739 250.523,-108.121"/>
</g>
</g>
</svg>
