<?xml version="1.0" encoding="UTF-8" standalone="no"?>
<!DOCTYPE svg PUBLIC "-//W3C//DTD SVG 1.1//EN"
 "http://www.w3.org/Graphics/SVG/1.1/DTD/svg11.dtd">
<!-- Generated by graphviz version 8.1.0 (20230707.2238)
 -->
<!-- Title: src/sundialsUtils.h Pages: 1 -->
<svg width="2082pt" height="98pt"
 viewBox="0.00 0.00 2081.88 98.25" xmlns="http://www.w3.org/2000/svg" xmlns:xlink="http://www.w3.org/1999/xlink">
<g id="graph0" class="graph" transform="scale(1 1) rotate(0) translate(4 94.25)">
<title>src/sundialsUtils.h</title>
<!-- Node1 -->
<g id="Node000001" class="node">
<title>Node1</title>
<g id="a_Node000001"><a xlink:title=" ">
<polygon fill="#999999" stroke="#666666" points="1212.75,-90.25 1107.5,-90.25 1107.5,-69.5 1212.75,-69.5 1212.75,-90.25"/>
<text text-anchor="middle" x="1160.12" y="-76.75" font-family="FreeSans" font-size="10.00">src/sundialsUtils.h</text>
</a>
</g>
</g>
<!-- Node2 -->
<g id="Node000002" class="node">
<title>Node2</title>
<g id="a_Node000002"><a xlink:href="config_8h.html" target="_top" xlink:title=" ">
<polygon fill="white" stroke="#666666" points="54.25,-27.12 0,-27.12 0,-6.38 54.25,-6.38 54.25,-27.12"/>
<text text-anchor="middle" x="27.12" y="-13.62" font-family="FreeSans" font-size="10.00">config.h</text>
</a>
</g>
</g>
<!-- Node1&#45;&gt;Node2 -->
<g id="edge1_Node000001_Node000002" class="edge">
<title>Node1&#45;&gt;Node2</title>
<g id="a_edge1_Node000001_Node000002"><a xlink:title=" ">
<path fill="none" stroke="#63b8ff" d="M1107.19,-79.27C916.48,-80.28 265.22,-80.15 63.12,-33.5 60.8,-32.96 58.44,-32.28 56.1,-31.5"/>
<polygon fill="#63b8ff" stroke="#63b8ff" points="57.69,-27.98 47.1,-27.62 55.16,-34.5 57.69,-27.98"/>
</a>
</g>
</g>
<!-- Node3 -->
<g id="Node000003" class="node">
<title>Node3</title>
<g id="a_Node000003"><a xlink:title=" ">
<polygon fill="#e0e0e0" stroke="#999999" points="206,-27.12 72.25,-27.12 72.25,-6.38 206,-6.38 206,-27.12"/>
<text text-anchor="middle" x="139.12" y="-13.62" font-family="FreeSans" font-size="10.00">nvector/nvector_serial.h</text>
</a>
</g>
</g>
<!-- Node1&#45;&gt;Node3 -->
<g id="edge2_Node000001_Node000003" class="edge">
<title>Node1&#45;&gt;Node3</title>
<g id="a_edge2_Node000001_Node000003"><a xlink:title=" ">
<path fill="none" stroke="#63b8ff" d="M1107.11,-79.23C963.1,-79.55 552.83,-76.33 215.12,-33.5 207.41,-32.52 199.3,-31.18 191.38,-29.7"/>
<polygon fill="#63b8ff" stroke="#63b8ff" points="192.23,-26.1 181.74,-27.6 190.87,-32.97 192.23,-26.1"/>
</a>
</g>
</g>
<!-- Node4 -->
<g id="Node000004" class="node">
<title>Node4</title>
<g id="a_Node000004"><a xlink:title=" ">
<polygon fill="#e0e0e0" stroke="#999999" points="367.88,-27.12 224.38,-27.12 224.38,-6.38 367.88,-6.38 367.88,-27.12"/>
<text text-anchor="middle" x="296.12" y="-13.62" font-family="FreeSans" font-size="10.00">sundials/sundials_dense.h</text>
</a>
</g>
</g>
<!-- Node1&#45;&gt;Node4 -->
<g id="edge3_Node000001_Node000004" class="edge">
<title>Node1&#45;&gt;Node4</title>
<g id="a_edge3_Node000001_Node000004"><a xlink:title=" ">
<path fill="none" stroke="#63b8ff" d="M1107.2,-78.25C980.59,-76.24 650.37,-67.83 377.12,-33.5 368.83,-32.46 360.11,-31.07 351.58,-29.55"/>
<polygon fill="#63b8ff" stroke="#63b8ff" points="352.41,-25.96 341.94,-27.58 351.13,-32.84 352.41,-25.96"/>
</a>
</g>
</g>
<!-- Node5 -->
<g id="Node000005" class="node">
<title>Node5</title>
<g id="a_Node000005"><a xlink:title=" ">
<polygon fill="#e0e0e0" stroke="#999999" points="524.25,-27.12 386,-27.12 386,-6.38 524.25,-6.38 524.25,-27.12"/>
<text text-anchor="middle" x="455.12" y="-13.62" font-family="FreeSans" font-size="10.00">sundials/sundials_band.h</text>
</a>
</g>
</g>
<!-- Node1&#45;&gt;Node5 -->
<g id="edge4_Node000001_Node000005" class="edge">
<title>Node1&#45;&gt;Node5</title>
<g id="a_edge4_Node000001_Node000005"><a xlink:title=" ">
<path fill="none" stroke="#63b8ff" d="M1107.04,-77.31C998.71,-73.61 744.53,-62.37 533.12,-33.5 525.41,-32.45 517.31,-31.09 509.37,-29.62"/>
<polygon fill="#63b8ff" stroke="#63b8ff" points="510.17,-26.02 499.69,-27.56 508.84,-32.89 510.17,-26.02"/>
</a>
</g>
</g>
<!-- Node6 -->
<g id="Node000006" class="node">
<title>Node6</title>
<g id="a_Node000006"><a xlink:title=" ">
<polygon fill="#e0e0e0" stroke="#999999" points="683.75,-27.12 542.5,-27.12 542.5,-6.38 683.75,-6.38 683.75,-27.12"/>
<text text-anchor="middle" x="613.12" y="-13.62" font-family="FreeSans" font-size="10.00">sundials/sundials_types.h</text>
</a>
</g>
</g>
<!-- Node1&#45;&gt;Node6 -->
<g id="edge5_Node000001_Node000006" class="edge">
<title>Node1&#45;&gt;Node6</title>
<g id="a_edge5_Node000001_Node000006"><a xlink:title=" ">
<path fill="none" stroke="#63b8ff" d="M1107.04,-75.41C1020.19,-69.36 842.43,-55.4 693.12,-33.5 685.52,-32.38 677.54,-31.03 669.69,-29.6"/>
<polygon fill="#63b8ff" stroke="#63b8ff" points="670.58,-26.01 660.1,-27.6 669.28,-32.89 670.58,-26.01"/>
</a>
</g>
</g>
<!-- Node7 -->
<g id="Node000007" class="node">
<title>Node7</title>
<g id="a_Node000007"><a xlink:title=" ">
<polygon fill="#e0e0e0" stroke="#999999" points="788.38,-27.12 701.88,-27.12 701.88,-6.38 788.38,-6.38 788.38,-27.12"/>
<text text-anchor="middle" x="745.12" y="-13.62" font-family="FreeSans" font-size="10.00">cvode/cvode.h</text>
</a>
</g>
</g>
<!-- Node1&#45;&gt;Node7 -->
<g id="edge6_Node000001_Node000007" class="edge">
<title>Node1&#45;&gt;Node7</title>
<g id="a_edge6_Node000001_Node000007"><a xlink:title=" ">
<path fill="none" stroke="#63b8ff" d="M1107.06,-75.08C1035.93,-69.35 906,-56.62 797.12,-33.5 793.2,-32.67 789.15,-31.68 785.12,-30.6"/>
<polygon fill="#63b8ff" stroke="#63b8ff" points="786.17,-26.98 775.6,-27.62 784.27,-33.72 786.17,-26.98"/>
</a>
</g>
</g>
<!-- Node8 -->
<g id="Node000008" class="node">
<title>Node8</title>
<g id="a_Node000008"><a xlink:title=" ">
<polygon fill="#e0e0e0" stroke="#999999" points="932.25,-27.12 806,-27.12 806,-6.38 932.25,-6.38 932.25,-27.12"/>
<text text-anchor="middle" x="869.12" y="-13.62" font-family="FreeSans" font-size="10.00">cantera/base/ct_defs.h</text>
</a>
</g>
</g>
<!-- Node1&#45;&gt;Node8 -->
<g id="edge7_Node000001_Node000008" class="edge">
<title>Node1&#45;&gt;Node8</title>
<g id="a_edge7_Node000001_Node000008"><a xlink:title=" ">
<path fill="none" stroke="#63b8ff" d="M1111.81,-69.03C1067.42,-59.94 999.8,-46 941.12,-33.5 935.57,-32.32 929.78,-31.07 924,-29.82"/>
<polygon fill="#63b8ff" stroke="#63b8ff" points="925.18,-26.28 914.66,-27.57 923.69,-33.12 925.18,-26.28"/>
</a>
</g>
</g>
<!-- Node9 -->
<g id="Node000009" class="node">
<title>Node9</title>
<g id="a_Node000009"><a xlink:title=" ">
<polygon fill="#e0e0e0" stroke="#999999" points="1080.12,-27.12 950.12,-27.12 950.12,-6.38 1080.12,-6.38 1080.12,-27.12"/>
<text text-anchor="middle" x="1015.12" y="-13.62" font-family="FreeSans" font-size="10.00">cvodes/cvodes_direct.h</text>
</a>
</g>
</g>
<!-- Node1&#45;&gt;Node9 -->
<g id="edge8_Node000001_Node000009" class="edge">
<title>Node1&#45;&gt;Node9</title>
<g id="a_edge8_Node000001_Node000009"><a xlink:title=" ">
<path fill="none" stroke="#63b8ff" d="M1136.83,-69.05C1112.83,-58.94 1075.23,-43.09 1048.17,-31.68"/>
<polygon fill="#63b8ff" stroke="#63b8ff" points="1049.94,-28.21 1039.36,-27.55 1047.22,-34.66 1049.94,-28.21"/>
</a>
</g>
</g>
<!-- Node10 -->
<g id="Node000010" class="node">
<title>Node10</title>
<g id="a_Node000010"><a xlink:title=" ">
<polygon fill="#e0e0e0" stroke="#999999" points="1222.5,-27.12 1097.75,-27.12 1097.75,-6.38 1222.5,-6.38 1222.5,-27.12"/>
<text text-anchor="middle" x="1160.12" y="-13.62" font-family="FreeSans" font-size="10.00">cvodes/cvodes_spils.h</text>
</a>
</g>
</g>
<!-- Node1&#45;&gt;Node10 -->
<g id="edge9_Node000001_Node000010" class="edge">
<title>Node1&#45;&gt;Node10</title>
<g id="a_edge9_Node000001_Node000010"><a xlink:title=" ">
<path fill="none" stroke="#63b8ff" d="M1160.12,-69.05C1160.12,-60.72 1160.12,-48.48 1160.12,-38.05"/>
<polygon fill="#63b8ff" stroke="#63b8ff" points="1163.63,-38.34 1160.12,-28.34 1156.63,-38.34 1163.63,-38.34"/>
</a>
</g>
</g>
<!-- Node11 -->
<g id="Node000011" class="node">
<title>Node11</title>
<g id="a_Node000011"><a xlink:title=" ">
<polygon fill="#e0e0e0" stroke="#999999" points="1346.12,-33.5 1240.12,-33.5 1240.12,0 1346.12,0 1346.12,-33.5"/>
<text text-anchor="start" x="1248.12" y="-20" font-family="FreeSans" font-size="10.00">sunlinsol/sunlinsol</text>
<text text-anchor="middle" x="1293.12" y="-7.25" font-family="FreeSans" font-size="10.00">_dense.h</text>
</a>
</g>
</g>
<!-- Node1&#45;&gt;Node11 -->
<g id="edge10_Node000001_Node000011" class="edge">
<title>Node1&#45;&gt;Node11</title>
<g id="a_edge10_Node000001_Node000011"><a xlink:title=" ">
<path fill="none" stroke="#63b8ff" d="M1181.49,-69.05C1199.4,-60.82 1225.58,-48.79 1248.09,-38.45"/>
<polygon fill="#63b8ff" stroke="#63b8ff" points="1249.18,-41.34 1256.8,-33.98 1246.25,-34.98 1249.18,-41.34"/>
</a>
</g>
</g>
<!-- Node12 -->
<g id="Node000012" class="node">
<title>Node12</title>
<g id="a_Node000012"><a xlink:title=" ">
<polygon fill="#e0e0e0" stroke="#999999" points="1470.12,-33.5 1364.12,-33.5 1364.12,0 1470.12,0 1470.12,-33.5"/>
<text text-anchor="start" x="1372.12" y="-20" font-family="FreeSans" font-size="10.00">sunlinsol/sunlinsol</text>
<text text-anchor="middle" x="1417.12" y="-7.25" font-family="FreeSans" font-size="10.00">_band.h</text>
</a>
</g>
</g>
<!-- Node1&#45;&gt;Node12 -->
<g id="edge11_Node000001_Node000012" class="edge">
<title>Node1&#45;&gt;Node12</title>
<g id="a_edge11_Node000001_Node000012"><a xlink:title=" ">
<path fill="none" stroke="#63b8ff" d="M1203.56,-69.03C1240.8,-60.53 1296.15,-47.76 1353.07,-33.98"/>
<polygon fill="#63b8ff" stroke="#63b8ff" points="1353.82,-37.15 1362.71,-31.39 1352.16,-30.35 1353.82,-37.15"/>
</a>
</g>
</g>
<!-- Node13 -->
<g id="Node000013" class="node">
<title>Node13</title>
<g id="a_Node000013"><a xlink:title=" ">
<polygon fill="#e0e0e0" stroke="#999999" points="1594.12,-33.5 1488.12,-33.5 1488.12,0 1594.12,0 1594.12,-33.5"/>
<text text-anchor="start" x="1496.12" y="-20" font-family="FreeSans" font-size="10.00">sunlinsol/sunlinsol</text>
<text text-anchor="middle" x="1541.12" y="-7.25" font-family="FreeSans" font-size="10.00">_spgmr.h</text>
</a>
</g>
</g>
<!-- Node1&#45;&gt;Node13 -->
<g id="edge12_Node000001_Node000013" class="edge">
<title>Node1&#45;&gt;Node13</title>
<g id="a_edge12_Node000001_Node000013"><a xlink:title=" ">
<path fill="none" stroke="#63b8ff" d="M1213.19,-73.1C1274.51,-66.03 1378.6,-52.82 1477.04,-33.79"/>
<polygon fill="#63b8ff" stroke="#63b8ff" points="1477.63,-37.05 1486.77,-31.69 1476.29,-30.18 1477.63,-37.05"/>
</a>
</g>
</g>
<!-- Node14 -->
<g id="Node000014" class="node">
<title>Node14</title>
<g id="a_Node000014"><a xlink:title=" ">
<polygon fill="#e0e0e0" stroke="#999999" points="1730.12,-33.5 1612.12,-33.5 1612.12,0 1730.12,0 1730.12,-33.5"/>
<text text-anchor="start" x="1620.12" y="-20" font-family="FreeSans" font-size="10.00">sunmatrix/sunmatrix</text>
<text text-anchor="middle" x="1671.12" y="-7.25" font-family="FreeSans" font-size="10.00">_dense.h</text>
</a>
</g>
</g>
<!-- Node1&#45;&gt;Node14 -->
<g id="edge13_Node000001_Node000014" class="edge">
<title>Node1&#45;&gt;Node14</title>
<g id="a_edge13_Node000001_Node000014"><a xlink:title=" ">
<path fill="none" stroke="#63b8ff" d="M1212.92,-75.62C1294.29,-70.13 1455.4,-57.39 1601.39,-33.66"/>
<polygon fill="#63b8ff" stroke="#63b8ff" points="1601.58,-37.01 1610.87,-31.93 1600.44,-30.11 1601.58,-37.01"/>
</a>
</g>
</g>
<!-- Node15 -->
<g id="Node000015" class="node">
<title>Node15</title>
<g id="a_Node000015"><a xlink:title=" ">
<polygon fill="#e0e0e0" stroke="#999999" points="1866.12,-33.5 1748.12,-33.5 1748.12,0 1866.12,0 1866.12,-33.5"/>
<text text-anchor="start" x="1756.12" y="-20" font-family="FreeSans" font-size="10.00">sunmatrix/sunmatrix</text>
<text text-anchor="middle" x="1807.12" y="-7.25" font-family="FreeSans" font-size="10.00">_band.h</text>
</a>
</g>
</g>
<!-- Node1&#45;&gt;Node15 -->
<g id="edge14_Node000001_Node000015" class="edge">
<title>Node1&#45;&gt;Node15</title>
<g id="a_edge14_Node000001_Node000015"><a xlink:title=" ">
<path fill="none" stroke="#63b8ff" d="M1213.12,-77.37C1313.58,-73.94 1538.7,-63.52 1737.26,-33.64"/>
<polygon fill="#63b8ff" stroke="#63b8ff" points="1737.53,-36.99 1746.89,-32.02 1736.47,-30.07 1737.53,-36.99"/>
</a>
</g>
</g>
<!-- Node16 -->
<g id="Node000016" class="node">
<title>Node16</title>
<g id="a_Node000016"><a xlink:title=" ">
<polygon fill="#e0e0e0" stroke="#999999" points="1943.88,-27.12 1884.38,-27.12 1884.38,-6.38 1943.88,-6.38 1943.88,-27.12"/>
<text text-anchor="middle" x="1914.12" y="-13.62" font-family="FreeSans" font-size="10.00">iostream</text>
</a>
</g>
</g>
<!-- Node1&#45;&gt;Node16 -->
<g id="edge15_Node000001_Node000016" class="edge">
<title>Node1&#45;&gt;Node16</title>
<g id="a_edge15_Node000001_Node000016"><a xlink:title=" ">
<path fill="none" stroke="#63b8ff" d="M1213.06,-77.71C1356.28,-74.2 1749.06,-62.17 1875.12,-33.5 1877.8,-32.89 1880.54,-32.12 1883.25,-31.25"/>
<polygon fill="#63b8ff" stroke="#63b8ff" points="1884.28,-34.24 1892.47,-27.52 1881.88,-27.66 1884.28,-34.24"/>
</a>
</g>
</g>
<!-- Node17 -->
<g id="Node000017" class="node">
<title>Node17</title>
<g id="a_Node000017"><a xlink:title=" ">
<polygon fill="#e0e0e0" stroke="#999999" points="2008.5,-27.12 1961.75,-27.12 1961.75,-6.38 2008.5,-6.38 2008.5,-27.12"/>
<text text-anchor="middle" x="1985.12" y="-13.62" font-family="FreeSans" font-size="10.00">vector</text>
</a>
</g>
</g>
<!-- Node1&#45;&gt;Node17 -->
<g id="edge16_Node000001_Node000017" class="edge">
<title>Node1&#45;&gt;Node17</title>
<g id="a_edge16_Node000001_Node000017"><a xlink:title=" ">
<path fill="none" stroke="#63b8ff" d="M1213.07,-78.58C1367.07,-77.31 1812.76,-70.43 1953.12,-33.5 1954.9,-33.03 1956.68,-32.47 1958.46,-31.83"/>
<polygon fill="#63b8ff" stroke="#63b8ff" points="1959.55,-34.74 1967.35,-27.57 1956.78,-28.31 1959.55,-34.74"/>
</a>
</g>
</g>
<!-- Node18 -->
<g id="Node000018" class="node">
<title>Node18</title>
<g id="a_Node000018"><a xlink:title=" ">
<polygon fill="#e0e0e0" stroke="#999999" points="2073.88,-27.12 2026.38,-27.12 2026.38,-6.38 2073.88,-6.38 2073.88,-27.12"/>
<text text-anchor="middle" x="2050.12" y="-13.62" font-family="FreeSans" font-size="10.00">time.h</text>
</a>
</g>
</g>
<!-- Node1&#45;&gt;Node18 -->
<g id="edge17_Node000001_Node000018" class="edge">
<title>Node1&#45;&gt;Node18</title>
<g id="a_edge17_Node000001_Node000018"><a xlink:title=" ">
<path fill="none" stroke="#63b8ff" d="M1213.23,-78.77C1375.64,-78.01 1863.89,-72.48 2017.12,-33.5 2019.11,-33 2021.12,-32.37 2023.11,-31.66"/>
<polygon fill="#63b8ff" stroke="#63b8ff" points="2023.94,-34.69 2031.79,-27.58 2021.22,-28.23 2023.94,-34.69"/>
</a>
</g>
</g>
</g>
</svg>
