<?xml version="1.0" encoding="UTF-8" standalone="no"?>
<!DOCTYPE svg PUBLIC "-//W3C//DTD SVG 1.1//EN"
 "http://www.w3.org/Graphics/SVG/1.1/DTD/svg11.dtd">
<!-- Generated by graphviz version 2.38.0 (20140413.2041)
 -->
<!-- Title: src/sundialsUtils.h Pages: 1 -->
<svg width="1338pt" height="84pt"
 viewBox="0.00 0.00 1338.00 84.00" xmlns="http://www.w3.org/2000/svg" xmlns:xlink="http://www.w3.org/1999/xlink">
<g id="graph0" class="graph" transform="scale(1 1) rotate(0) translate(4 80)">
<title>src/sundialsUtils.h</title>
<polygon fill="white" stroke="none" points="-4,4 -4,-80 1334,-80 1334,4 -4,4"/>
<!-- Node1 -->
<g id="node1" class="node"><title>Node1</title>
<polygon fill="#bfbfbf" stroke="black" points="793.5,-56.5 793.5,-75.5 886.5,-75.5 886.5,-56.5 793.5,-56.5"/>
<text text-anchor="middle" x="840" y="-63.5" font-family="FreeSans" font-size="10.00">src/sundialsUtils.h</text>
</g>
<!-- Node2 -->
<g id="node2" class="node"><title>Node2</title>
<polygon fill="white" stroke="#bfbfbf" points="0,-0.5 0,-19.5 118,-19.5 118,-0.5 0,-0.5"/>
<text text-anchor="middle" x="59" y="-7.5" font-family="FreeSans" font-size="10.00">nvector/nvector_serial.h</text>
</g>
<!-- Node1&#45;&gt;Node2 -->
<g id="edge1" class="edge"><title>Node1&#45;&gt;Node2</title>
<path fill="none" stroke="midnightblue" d="M793.195,-63.1578C680.599,-58.4872 385.509,-44.8287 128.587,-20.0908"/>
<polygon fill="midnightblue" stroke="midnightblue" points="128.602,-16.5759 118.311,-19.0934 127.926,-23.5431 128.602,-16.5759"/>
</g>
<!-- Node3 -->
<g id="node3" class="node"><title>Node3</title>
<polygon fill="white" stroke="#bfbfbf" points="136.5,-0.5 136.5,-19.5 263.5,-19.5 263.5,-0.5 136.5,-0.5"/>
<text text-anchor="middle" x="200" y="-7.5" font-family="FreeSans" font-size="10.00">sundials/sundials_dense.h</text>
</g>
<!-- Node1&#45;&gt;Node3 -->
<g id="edge2" class="edge"><title>Node1&#45;&gt;Node3</title>
<path fill="none" stroke="midnightblue" d="M793.265,-61.9814C697.825,-55.6672 473.418,-40.0566 273.772,-20.0344"/>
<polygon fill="midnightblue" stroke="midnightblue" points="273.984,-16.5381 263.683,-19.0167 273.281,-23.5028 273.984,-16.5381"/>
</g>
<!-- Node4 -->
<g id="node4" class="node"><title>Node4</title>
<polygon fill="white" stroke="#bfbfbf" points="282,-0.5 282,-19.5 404,-19.5 404,-0.5 282,-0.5"/>
<text text-anchor="middle" x="343" y="-7.5" font-family="FreeSans" font-size="10.00">sundials/sundials_band.h</text>
</g>
<!-- Node1&#45;&gt;Node4 -->
<g id="edge3" class="edge"><title>Node1&#45;&gt;Node4</title>
<path fill="none" stroke="midnightblue" d="M793.205,-60.4219C716.44,-52.8343 558.699,-36.9191 414.436,-20.1449"/>
<polygon fill="midnightblue" stroke="midnightblue" points="414.412,-16.6185 404.073,-18.9358 413.6,-23.5713 414.412,-16.6185"/>
</g>
<!-- Node5 -->
<g id="node5" class="node"><title>Node5</title>
<polygon fill="white" stroke="#bfbfbf" points="422,-0.5 422,-19.5 546,-19.5 546,-0.5 422,-0.5"/>
<text text-anchor="middle" x="484" y="-7.5" font-family="FreeSans" font-size="10.00">sundials/sundials_types.h</text>
</g>
<!-- Node1&#45;&gt;Node5 -->
<g id="edge4" class="edge"><title>Node1&#45;&gt;Node5</title>
<path fill="none" stroke="midnightblue" d="M793.459,-57.9404C731.394,-48.5261 621.152,-31.8039 550.379,-21.0688"/>
<polygon fill="midnightblue" stroke="midnightblue" points="550.646,-17.5693 540.234,-19.5299 549.596,-24.4901 550.646,-17.5693"/>
</g>
<!-- Node6 -->
<g id="node6" class="node"><title>Node6</title>
<polygon fill="white" stroke="#bfbfbf" points="564,-0.5 564,-19.5 642,-19.5 642,-0.5 564,-0.5"/>
<text text-anchor="middle" x="603" y="-7.5" font-family="FreeSans" font-size="10.00">cvode/cvode.h</text>
</g>
<!-- Node1&#45;&gt;Node6 -->
<g id="edge5" class="edge"><title>Node1&#45;&gt;Node6</title>
<path fill="none" stroke="midnightblue" d="M802.447,-56.4435C761.189,-47.0431 694.856,-31.9291 650.134,-21.7393"/>
<polygon fill="midnightblue" stroke="midnightblue" points="650.905,-18.3255 640.378,-19.5164 649.35,-25.1506 650.905,-18.3255"/>
</g>
<!-- Node7 -->
<g id="node7" class="node"><title>Node7</title>
<polygon fill="white" stroke="#bfbfbf" points="660.5,-0.5 660.5,-19.5 769.5,-19.5 769.5,-0.5 660.5,-0.5"/>
<text text-anchor="middle" x="715" y="-7.5" font-family="FreeSans" font-size="10.00">cvode/cvode_dense.h</text>
</g>
<!-- Node1&#45;&gt;Node7 -->
<g id="edge6" class="edge"><title>Node1&#45;&gt;Node7</title>
<path fill="none" stroke="midnightblue" d="M820.193,-56.4435C799.713,-47.5961 767.517,-33.6875 744.135,-23.5865"/>
<polygon fill="midnightblue" stroke="midnightblue" points="745.282,-20.2692 734.714,-19.5164 742.506,-26.6953 745.282,-20.2692"/>
</g>
<!-- Node8 -->
<g id="node8" class="node"><title>Node8</title>
<polygon fill="white" stroke="#bfbfbf" points="788,-0.5 788,-19.5 892,-19.5 892,-0.5 788,-0.5"/>
<text text-anchor="middle" x="840" y="-7.5" font-family="FreeSans" font-size="10.00">cvode/cvode_band.h</text>
</g>
<!-- Node1&#45;&gt;Node8 -->
<g id="edge7" class="edge"><title>Node1&#45;&gt;Node8</title>
<path fill="none" stroke="midnightblue" d="M840,-56.083C840,-49.0059 840,-38.8611 840,-29.9865"/>
<polygon fill="midnightblue" stroke="midnightblue" points="843.5,-29.751 840,-19.7511 836.5,-29.7511 843.5,-29.751"/>
</g>
<!-- Node9 -->
<g id="node9" class="node"><title>Node9</title>
<polygon fill="white" stroke="#bfbfbf" points="910.5,-0.5 910.5,-19.5 963.5,-19.5 963.5,-0.5 910.5,-0.5"/>
<text text-anchor="middle" x="937" y="-7.5" font-family="FreeSans" font-size="10.00">ida/ida.h</text>
</g>
<!-- Node1&#45;&gt;Node9 -->
<g id="edge8" class="edge"><title>Node1&#45;&gt;Node9</title>
<path fill="none" stroke="midnightblue" d="M855.585,-56.324C870.999,-47.7428 894.812,-34.486 912.71,-24.5224"/>
<polygon fill="midnightblue" stroke="midnightblue" points="914.419,-27.5767 921.454,-19.6545 911.014,-21.4606 914.419,-27.5767"/>
</g>
<!-- Node10 -->
<g id="node10" class="node"><title>Node10</title>
<polygon fill="white" stroke="#bfbfbf" points="981,-0.5 981,-19.5 1069,-19.5 1069,-0.5 981,-0.5"/>
<text text-anchor="middle" x="1025" y="-7.5" font-family="FreeSans" font-size="10.00">ida/ida_spbcgs.h</text>
</g>
<!-- Node1&#45;&gt;Node10 -->
<g id="edge9" class="edge"><title>Node1&#45;&gt;Node10</title>
<path fill="none" stroke="midnightblue" d="M869.314,-56.4435C900.842,-47.2406 951.131,-32.5617 985.986,-22.3879"/>
<polygon fill="midnightblue" stroke="midnightblue" points="987.205,-25.6783 995.823,-19.5164 985.243,-18.9587 987.205,-25.6783"/>
</g>
<!-- Node11 -->
<g id="node11" class="node"><title>Node11</title>
<polygon fill="white" stroke="#bfbfbf" points="1086.5,-0.5 1086.5,-19.5 1139.5,-19.5 1139.5,-0.5 1086.5,-0.5"/>
<text text-anchor="middle" x="1113" y="-7.5" font-family="FreeSans" font-size="10.00">iostream</text>
</g>
<!-- Node1&#45;&gt;Node11 -->
<g id="edge10" class="edge"><title>Node1&#45;&gt;Node11</title>
<path fill="none" stroke="midnightblue" d="M886.7,-57.0927C932.659,-49.1046 1005.05,-35.9738 1076.25,-20.2883"/>
<polygon fill="midnightblue" stroke="midnightblue" points="1077.29,-23.6441 1086.29,-18.0583 1075.77,-16.8107 1077.29,-23.6441"/>
</g>
<!-- Node12 -->
<g id="node12" class="node"><title>Node12</title>
<polygon fill="white" stroke="#bfbfbf" points="1157.5,-0.5 1157.5,-19.5 1200.5,-19.5 1200.5,-0.5 1157.5,-0.5"/>
<text text-anchor="middle" x="1179" y="-7.5" font-family="FreeSans" font-size="10.00">vector</text>
</g>
<!-- Node1&#45;&gt;Node12 -->
<g id="edge11" class="edge"><title>Node1&#45;&gt;Node12</title>
<path fill="none" stroke="midnightblue" d="M886.716,-60.3591C945.546,-54.0388 1049.82,-41.2604 1147.44,-20.0833"/>
<polygon fill="midnightblue" stroke="midnightblue" points="1148.46,-23.4426 1157.47,-17.8716 1146.95,-16.6068 1148.46,-23.4426"/>
</g>
<!-- Node13 -->
<g id="node13" class="node"><title>Node13</title>
<polygon fill="white" stroke="#bfbfbf" points="1218.5,-0.5 1218.5,-19.5 1261.5,-19.5 1261.5,-0.5 1218.5,-0.5"/>
<text text-anchor="middle" x="1240" y="-7.5" font-family="FreeSans" font-size="10.00">time.h</text>
</g>
<!-- Node1&#45;&gt;Node13 -->
<g id="edge12" class="edge"><title>Node1&#45;&gt;Node13</title>
<path fill="none" stroke="midnightblue" d="M886.56,-61.8957C955.247,-56.7574 1087.81,-44.7089 1208.69,-19.9715"/>
<polygon fill="midnightblue" stroke="midnightblue" points="1209.41,-23.3976 1218.48,-17.9338 1207.98,-16.5444 1209.41,-23.3976"/>
</g>
<!-- Node14 -->
<g id="node14" class="node"><title>Node14</title>
<g id="a_node14"><a xlink:href="config_8h.html" target="_top" xlink:title="config.h">
<polygon fill="white" stroke="black" points="1280,-0.5 1280,-19.5 1330,-19.5 1330,-0.5 1280,-0.5"/>
<text text-anchor="middle" x="1305" y="-7.5" font-family="FreeSans" font-size="10.00">config.h</text>
</a>
</g>
</g>
<!-- Node1&#45;&gt;Node14 -->
<g id="edge13" class="edge"><title>Node1&#45;&gt;Node14</title>
<path fill="none" stroke="midnightblue" d="M886.577,-62.5056C964.203,-57.8334 1125,-45.964 1269.89,-19.9387"/>
<polygon fill="midnightblue" stroke="midnightblue" points="1270.64,-23.3596 1279.85,-18.1222 1269.38,-16.4732 1270.64,-23.3596"/>
</g>
</g>
</svg>
