<?xml version="1.0" encoding="UTF-8" standalone="no"?>
<!DOCTYPE svg PUBLIC "-//W3C//DTD SVG 1.1//EN"
 "http://www.w3.org/Graphics/SVG/1.1/DTD/svg11.dtd">
<!-- Generated by graphviz version 2.38.0 (20140413.2041)
 -->
<!-- Title: src/sundialsUtils.h Pages: 1 -->
<svg width="562pt" height="196pt"
 viewBox="0.00 0.00 561.50 196.00" xmlns="http://www.w3.org/2000/svg" xmlns:xlink="http://www.w3.org/1999/xlink">
<g id="graph0" class="graph" transform="scale(1 1) rotate(0) translate(4 192)">
<title>src/sundialsUtils.h</title>
<polygon fill="white" stroke="none" points="-4,4 -4,-192 557.5,-192 557.5,4 -4,4"/>
<!-- Node1 -->
<g id="node1" class="node"><title>Node1</title>
<polygon fill="#bfbfbf" stroke="black" points="265,-168.5 265,-187.5 358,-187.5 358,-168.5 265,-168.5"/>
<text text-anchor="middle" x="311.5" y="-175.5" font-family="FreeSans" font-size="10.00">src/sundialsUtils.h</text>
</g>
<!-- Node2 -->
<g id="node2" class="node"><title>Node2</title>
<g id="a_node2"><a xlink:href="convectionSystem_8h.html" target="_top" xlink:title="src/convectionSystem.h">
<polygon fill="white" stroke="black" points="45,-112.5 45,-131.5 164,-131.5 164,-112.5 45,-112.5"/>
<text text-anchor="middle" x="104.5" y="-119.5" font-family="FreeSans" font-size="10.00">src/convectionSystem.h</text>
</a>
</g>
</g>
<!-- Node1&#45;&gt;Node2 -->
<g id="edge1" class="edge"><title>Node1&#45;&gt;Node2</title>
<path fill="none" stroke="midnightblue" d="M268.678,-165.829C229.594,-155.633 172.665,-140.782 137.146,-131.516"/>
<polygon fill="midnightblue" stroke="midnightblue" points="268.141,-169.306 278.7,-168.444 269.908,-162.533 268.141,-169.306"/>
</g>
<!-- Node6 -->
<g id="node6" class="node"><title>Node6</title>
<g id="a_node6"><a xlink:href="sourceSystem_8h.html" target="_top" xlink:title="src/sourceSystem.h">
<polygon fill="white" stroke="black" points="182,-112.5 182,-131.5 283,-131.5 283,-112.5 182,-112.5"/>
<text text-anchor="middle" x="232.5" y="-119.5" font-family="FreeSans" font-size="10.00">src/sourceSystem.h</text>
</a>
</g>
</g>
<!-- Node1&#45;&gt;Node6 -->
<g id="edge5" class="edge"><title>Node1&#45;&gt;Node6</title>
<path fill="none" stroke="midnightblue" d="M290.466,-162.622C276.034,-152.757 257.359,-139.992 245.161,-131.655"/>
<polygon fill="midnightblue" stroke="midnightblue" points="288.577,-165.57 298.807,-168.324 292.527,-159.791 288.577,-165.57"/>
</g>
<!-- Node7 -->
<g id="node7" class="node"><title>Node7</title>
<g id="a_node7"><a xlink:href="sourceSystem_8cpp.html" target="_top" xlink:title="src/sourceSystem.cpp">
<polygon fill="white" stroke="black" points="256,-56.5 256,-75.5 367,-75.5 367,-56.5 256,-56.5"/>
<text text-anchor="middle" x="311.5" y="-63.5" font-family="FreeSans" font-size="10.00">src/sourceSystem.cpp</text>
</a>
</g>
</g>
<!-- Node1&#45;&gt;Node7 -->
<g id="edge9" class="edge"><title>Node1&#45;&gt;Node7</title>
<path fill="none" stroke="midnightblue" d="M311.5,-158.348C311.5,-134.254 311.5,-93.3079 311.5,-75.5914"/>
<polygon fill="midnightblue" stroke="midnightblue" points="308,-158.368 311.5,-168.368 315,-158.369 308,-158.368"/>
</g>
<!-- Node8 -->
<g id="node8" class="node"><title>Node8</title>
<g id="a_node8"><a xlink:href="mathUtils_8cpp.html" target="_top" xlink:title="src/mathUtils.cpp">
<polygon fill="white" stroke="black" points="340,-112.5 340,-131.5 431,-131.5 431,-112.5 340,-112.5"/>
<text text-anchor="middle" x="385.5" y="-119.5" font-family="FreeSans" font-size="10.00">src/mathUtils.cpp</text>
</a>
</g>
</g>
<!-- Node1&#45;&gt;Node8 -->
<g id="edge8" class="edge"><title>Node1&#45;&gt;Node8</title>
<path fill="none" stroke="midnightblue" d="M331.534,-162.38C344.909,-152.62 362.059,-140.106 373.394,-131.834"/>
<polygon fill="midnightblue" stroke="midnightblue" points="329.404,-159.602 323.389,-168.324 333.53,-165.257 329.404,-159.602"/>
</g>
<!-- Node9 -->
<g id="node9" class="node"><title>Node9</title>
<g id="a_node9"><a xlink:href="sundialsUtils_8cpp.html" target="_top" xlink:title="src/sundialsUtils.cpp">
<polygon fill="white" stroke="black" points="449.5,-112.5 449.5,-131.5 553.5,-131.5 553.5,-112.5 449.5,-112.5"/>
<text text-anchor="middle" x="501.5" y="-119.5" font-family="FreeSans" font-size="10.00">src/sundialsUtils.cpp</text>
</a>
</g>
</g>
<!-- Node1&#45;&gt;Node9 -->
<g id="edge10" class="edge"><title>Node1&#45;&gt;Node9</title>
<path fill="none" stroke="midnightblue" d="M351.264,-165.699C387.123,-155.507 439.071,-140.743 471.535,-131.516"/>
<polygon fill="midnightblue" stroke="midnightblue" points="350.268,-162.343 341.606,-168.444 352.182,-169.076 350.268,-162.343"/>
</g>
<!-- Node3 -->
<g id="node3" class="node"><title>Node3</title>
<g id="a_node3"><a xlink:href="convectionSystem_8cpp.html" target="_top" xlink:title="src/convectionSystem.cpp">
<polygon fill="white" stroke="black" points="0,-56.5 0,-75.5 129,-75.5 129,-56.5 0,-56.5"/>
<text text-anchor="middle" x="64.5" y="-63.5" font-family="FreeSans" font-size="10.00">src/convectionSystem.cpp</text>
</a>
</g>
</g>
<!-- Node2&#45;&gt;Node3 -->
<g id="edge2" class="edge"><title>Node2&#45;&gt;Node3</title>
<path fill="none" stroke="midnightblue" d="M91.8003,-103.855C84.874,-94.5048 76.5937,-83.3265 70.9823,-75.7511"/>
<polygon fill="midnightblue" stroke="midnightblue" points="89.13,-106.131 97.8948,-112.083 94.755,-101.964 89.13,-106.131"/>
</g>
<!-- Node4 -->
<g id="node4" class="node"><title>Node4</title>
<g id="a_node4"><a xlink:href="flameSolver_8h.html" target="_top" xlink:title="src/flameSolver.h">
<polygon fill="white" stroke="black" points="147.5,-56.5 147.5,-75.5 237.5,-75.5 237.5,-56.5 147.5,-56.5"/>
<text text-anchor="middle" x="192.5" y="-63.5" font-family="FreeSans" font-size="10.00">src/flameSolver.h</text>
</a>
</g>
</g>
<!-- Node2&#45;&gt;Node4 -->
<g id="edge3" class="edge"><title>Node2&#45;&gt;Node4</title>
<path fill="none" stroke="midnightblue" d="M127.477,-106.901C143.613,-96.9986 164.681,-84.0705 178.396,-75.6545"/>
<polygon fill="midnightblue" stroke="midnightblue" points="125.331,-104.111 118.639,-112.324 128.993,-110.077 125.331,-104.111"/>
</g>
<!-- Node5 -->
<g id="node5" class="node"><title>Node5</title>
<g id="a_node5"><a xlink:href="flameSolver_8cpp.html" target="_top" xlink:title="src/flameSolver.cpp">
<polygon fill="white" stroke="black" points="142,-0.5 142,-19.5 243,-19.5 243,-0.5 142,-0.5"/>
<text text-anchor="middle" x="192.5" y="-7.5" font-family="FreeSans" font-size="10.00">src/flameSolver.cpp</text>
</a>
</g>
</g>
<!-- Node4&#45;&gt;Node5 -->
<g id="edge4" class="edge"><title>Node4&#45;&gt;Node5</title>
<path fill="none" stroke="midnightblue" d="M192.5,-45.8045C192.5,-36.9102 192.5,-26.7798 192.5,-19.7511"/>
<polygon fill="midnightblue" stroke="midnightblue" points="189,-46.083 192.5,-56.083 196,-46.083 189,-46.083"/>
</g>
<!-- Node6&#45;&gt;Node4 -->
<g id="edge6" class="edge"><title>Node6&#45;&gt;Node4</title>
<path fill="none" stroke="midnightblue" d="M219.8,-103.855C212.874,-94.5048 204.594,-83.3265 198.982,-75.7511"/>
<polygon fill="midnightblue" stroke="midnightblue" points="217.13,-106.131 225.895,-112.083 222.755,-101.964 217.13,-106.131"/>
</g>
<!-- Node6&#45;&gt;Node7 -->
<g id="edge7" class="edge"><title>Node6&#45;&gt;Node7</title>
<path fill="none" stroke="midnightblue" d="M253.534,-106.622C267.966,-96.7574 286.641,-83.9919 298.839,-75.6545"/>
<polygon fill="midnightblue" stroke="midnightblue" points="251.473,-103.791 245.193,-112.324 255.423,-109.57 251.473,-103.791"/>
</g>
</g>
</svg>
