<?xml version="1.0" encoding="UTF-8" standalone="no"?>
<!DOCTYPE svg PUBLIC "-//W3C//DTD SVG 1.1//EN"
 "http://www.w3.org/Graphics/SVG/1.1/DTD/svg11.dtd">
<!-- Generated by graphviz version 8.1.0 (20230707.2238)
 -->
<!-- Title: src/sundialsUtils.h Pages: 1 -->
<svg width="567pt" height="199pt"
 viewBox="0.00 0.00 567.00 199.00" xmlns="http://www.w3.org/2000/svg" xmlns:xlink="http://www.w3.org/1999/xlink">
<g id="graph0" class="graph" transform="scale(1 1) rotate(0) translate(4 195)">
<title>src/sundialsUtils.h</title>
<!-- Node1 -->
<g id="Node000001" class="node">
<title>Node1</title>
<g id="a_Node000001"><a xlink:title=" ">
<polygon fill="#999999" stroke="#666666" points="383.38,-191 278.12,-191 278.12,-170.25 383.38,-170.25 383.38,-191"/>
<text text-anchor="middle" x="330.75" y="-177.5" font-family="FreeSans" font-size="10.00">src/sundialsUtils.h</text>
</a>
</g>
</g>
<!-- Node2 -->
<g id="Node000002" class="node">
<title>Node2</title>
<g id="a_Node000002"><a xlink:href="convectionSystem_8h.html" target="_top" xlink:title=" ">
<polygon fill="white" stroke="#666666" points="137.88,-134.25 5.62,-134.25 5.62,-113.5 137.88,-113.5 137.88,-134.25"/>
<text text-anchor="middle" x="71.75" y="-120.75" font-family="FreeSans" font-size="10.00">src/convectionSystem.h</text>
</a>
</g>
</g>
<!-- Node1&#45;&gt;Node2 -->
<g id="edge1_Node000001_Node000002" class="edge">
<title>Node1&#45;&gt;Node2</title>
<g id="a_edge1_Node000001_Node000002"><a xlink:title=" ">
<path fill="none" stroke="#63b8ff" d="M273.61,-167.55C226.99,-157.69 161.94,-143.94 118.42,-134.74"/>
<polygon fill="#63b8ff" stroke="#63b8ff" points="272.64,-171.13 283.15,-169.77 274.09,-164.28 272.64,-171.13"/>
</a>
</g>
</g>
<!-- Node6 -->
<g id="Node000006" class="node">
<title>Node6</title>
<g id="a_Node000006"><a xlink:href="mathUtils_8cpp.html" target="_top" xlink:title=" ">
<polygon fill="white" stroke="#666666" points="257.5,-134.25 156,-134.25 156,-113.5 257.5,-113.5 257.5,-134.25"/>
<text text-anchor="middle" x="206.75" y="-120.75" font-family="FreeSans" font-size="10.00">src/mathUtils.cpp</text>
</a>
</g>
</g>
<!-- Node1&#45;&gt;Node6 -->
<g id="edge5_Node000001_Node000006" class="edge">
<title>Node1&#45;&gt;Node6</title>
<g id="a_edge5_Node000001_Node000006"><a xlink:title=" ">
<path fill="none" stroke="#63b8ff" d="M298.7,-165.47C276.73,-155.77 248.15,-143.16 228.73,-134.58"/>
<polygon fill="#63b8ff" stroke="#63b8ff" points="297.02,-169 307.58,-169.84 299.85,-162.6 297.02,-169"/>
</a>
</g>
</g>
<!-- Node7 -->
<g id="Node000007" class="node">
<title>Node7</title>
<g id="a_Node000007"><a xlink:href="sourceSystem_8cpp.html" target="_top" xlink:title=" ">
<polygon fill="white" stroke="#666666" points="457,-77.5 334.5,-77.5 334.5,-56.75 457,-56.75 457,-77.5"/>
<text text-anchor="middle" x="395.75" y="-64" font-family="FreeSans" font-size="10.00">src/sourceSystem.cpp</text>
</a>
</g>
</g>
<!-- Node1&#45;&gt;Node7 -->
<g id="edge6_Node000001_Node000007" class="edge">
<title>Node1&#45;&gt;Node7</title>
<g id="a_edge6_Node000001_Node000007"><a xlink:title=" ">
<path fill="none" stroke="#63b8ff" d="M364.42,-164.58C376.58,-157.29 388.97,-147.25 395.75,-134.25 405.2,-116.13 401.51,-91.24 398.38,-77.75"/>
<polygon fill="#63b8ff" stroke="#63b8ff" points="362.91,-161.96 355.83,-169.84 366.28,-168.1 362.91,-161.96"/>
</a>
</g>
</g>
<!-- Node8 -->
<g id="Node000008" class="node">
<title>Node8</title>
<g id="a_Node000008"><a xlink:href="sourceSystem_8h.html" target="_top" xlink:title=" ">
<polygon fill="white" stroke="#666666" points="386.38,-134.25 275.12,-134.25 275.12,-113.5 386.38,-113.5 386.38,-134.25"/>
<text text-anchor="middle" x="330.75" y="-120.75" font-family="FreeSans" font-size="10.00">src/sourceSystem.h</text>
</a>
</g>
</g>
<!-- Node1&#45;&gt;Node8 -->
<g id="edge7_Node000001_Node000008" class="edge">
<title>Node1&#45;&gt;Node8</title>
<g id="a_edge7_Node000001_Node000008"><a xlink:title=" ">
<path fill="none" stroke="#63b8ff" d="M330.75,-158.96C330.75,-150.59 330.75,-141.33 330.75,-134.58"/>
<polygon fill="#63b8ff" stroke="#63b8ff" points="327.25,-158.84 330.75,-168.84 334.25,-158.84 327.25,-158.84"/>
</a>
</g>
</g>
<!-- Node9 -->
<g id="Node000009" class="node">
<title>Node9</title>
<g id="a_Node000009"><a xlink:href="sundialsUtils_8cpp.html" target="_top" xlink:title=" ">
<polygon fill="white" stroke="#666666" points="559,-134.25 442.5,-134.25 442.5,-113.5 559,-113.5 559,-134.25"/>
<text text-anchor="middle" x="500.75" y="-120.75" font-family="FreeSans" font-size="10.00">src/sundialsUtils.cpp</text>
</a>
</g>
</g>
<!-- Node1&#45;&gt;Node9 -->
<g id="edge10_Node000001_Node000009" class="edge">
<title>Node1&#45;&gt;Node9</title>
<g id="a_edge10_Node000001_Node000009"><a xlink:title=" ">
<path fill="none" stroke="#63b8ff" d="M371.42,-166.53C401.82,-156.74 442.73,-143.56 470.33,-134.67"/>
<polygon fill="#63b8ff" stroke="#63b8ff" points="370.59,-163.44 362.14,-169.84 372.73,-170.1 370.59,-163.44"/>
</a>
</g>
</g>
<!-- Node3 -->
<g id="Node000003" class="node">
<title>Node3</title>
<g id="a_Node000003"><a xlink:href="convectionSystem_8cpp.html" target="_top" xlink:title=" ">
<polygon fill="white" stroke="#666666" points="143.5,-77.5 0,-77.5 0,-56.75 143.5,-56.75 143.5,-77.5"/>
<text text-anchor="middle" x="71.75" y="-64" font-family="FreeSans" font-size="10.00">src/convectionSystem.cpp</text>
</a>
</g>
</g>
<!-- Node2&#45;&gt;Node3 -->
<g id="edge2_Node000002_Node000003" class="edge">
<title>Node2&#45;&gt;Node3</title>
<g id="a_edge2_Node000002_Node000003"><a xlink:title=" ">
<path fill="none" stroke="#63b8ff" d="M71.75,-102.21C71.75,-93.84 71.75,-84.58 71.75,-77.83"/>
<polygon fill="#63b8ff" stroke="#63b8ff" points="68.25,-102.09 71.75,-112.09 75.25,-102.09 68.25,-102.09"/>
</a>
</g>
</g>
<!-- Node4 -->
<g id="Node000004" class="node">
<title>Node4</title>
<g id="a_Node000004"><a xlink:href="flameSolver_8h.html" target="_top" xlink:title=" ">
<polygon fill="white" stroke="#666666" points="298.75,-77.5 198.75,-77.5 198.75,-56.75 298.75,-56.75 298.75,-77.5"/>
<text text-anchor="middle" x="248.75" y="-64" font-family="FreeSans" font-size="10.00">src/flameSolver.h</text>
</a>
</g>
</g>
<!-- Node2&#45;&gt;Node4 -->
<g id="edge3_Node000002_Node000004" class="edge">
<title>Node2&#45;&gt;Node4</title>
<g id="a_edge3_Node000002_Node000004"><a xlink:title=" ">
<path fill="none" stroke="#63b8ff" d="M113.68,-109.91C145.38,-100.1 188.22,-86.85 217.08,-77.92"/>
<polygon fill="#63b8ff" stroke="#63b8ff" points="112.91,-106.79 104.39,-113.09 114.98,-113.48 112.91,-106.79"/>
</a>
</g>
</g>
<!-- Node5 -->
<g id="Node000005" class="node">
<title>Node5</title>
<g id="a_Node000005"><a xlink:href="flameSolver_8cpp.html" target="_top" xlink:title=" ">
<polygon fill="white" stroke="#666666" points="304.38,-20.75 193.12,-20.75 193.12,0 304.38,0 304.38,-20.75"/>
<text text-anchor="middle" x="248.75" y="-7.25" font-family="FreeSans" font-size="10.00">src/flameSolver.cpp</text>
</a>
</g>
</g>
<!-- Node4&#45;&gt;Node5 -->
<g id="edge4_Node000004_Node000005" class="edge">
<title>Node4&#45;&gt;Node5</title>
<g id="a_edge4_Node000004_Node000005"><a xlink:title=" ">
<path fill="none" stroke="#63b8ff" d="M248.75,-45.46C248.75,-37.09 248.75,-27.83 248.75,-21.08"/>
<polygon fill="#63b8ff" stroke="#63b8ff" points="245.25,-45.34 248.75,-55.34 252.25,-45.34 245.25,-45.34"/>
</a>
</g>
</g>
<!-- Node8&#45;&gt;Node4 -->
<g id="edge8_Node000008_Node000004" class="edge">
<title>Node8&#45;&gt;Node4</title>
<g id="a_edge8_Node000008_Node000004"><a xlink:title=" ">
<path fill="none" stroke="#63b8ff" d="M306.95,-106.98C292.82,-97.55 275.37,-85.9 263.28,-77.83"/>
<polygon fill="#63b8ff" stroke="#63b8ff" points="304.83,-110.44 315.09,-113.09 308.72,-104.62 304.83,-110.44"/>
</a>
</g>
</g>
<!-- Node8&#45;&gt;Node7 -->
<g id="edge9_Node000008_Node000007" class="edge">
<title>Node8&#45;&gt;Node7</title>
<g id="a_edge9_Node000008_Node000007"><a xlink:title=" ">
<path fill="none" stroke="#63b8ff" d="M350.59,-106.16C361.61,-96.88 374.92,-85.67 384.23,-77.83"/>
<polygon fill="#63b8ff" stroke="#63b8ff" points="348.76,-103.97 343.37,-113.09 353.27,-109.32 348.76,-103.97"/>
</a>
</g>
</g>
</g>
</svg>
