<?xml version="1.0" encoding="UTF-8" standalone="no"?>
<!DOCTYPE svg PUBLIC "-//W3C//DTD SVG 1.1//EN"
 "http://www.w3.org/Graphics/SVG/1.1/DTD/svg11.dtd">
<!-- Generated by graphviz version 2.28.0 (20120425.2022)
 -->
<!-- Title: G Pages: 1 -->
<svg width="1332pt" height="84pt"
 viewBox="0.00 0.00 1332.00 84.00" xmlns="http://www.w3.org/2000/svg" xmlns:xlink="http://www.w3.org/1999/xlink">
<g id="graph1" class="graph" transform="scale(1 1) rotate(0) translate(4 80)">
<title>G</title>
<polygon fill="white" stroke="white" points="-4,5 -4,-80 1329,-80 1329,5 -4,5"/>
<!-- Node1 -->
<g id="node1" class="node"><title>Node1</title>
<polygon fill="#bfbfbf" stroke="black" points="771.5,-56.5 771.5,-75.5 868.5,-75.5 868.5,-56.5 771.5,-56.5"/>
<text text-anchor="middle" x="820" y="-63.5" font-family="FreeSans" font-size="10.00">src/sundialsUtils.h</text>
</g>
<!-- Node2 -->
<g id="node3" class="node"><title>Node2</title>
<polygon fill="white" stroke="#bfbfbf" points="-0.5,-0.5 -0.5,-19.5 122.5,-19.5 122.5,-0.5 -0.5,-0.5"/>
<text text-anchor="middle" x="61" y="-7.5" font-family="FreeSans" font-size="10.00">nvector/nvector_serial.h</text>
</g>
<!-- Node1&#45;&gt;Node2 -->
<g id="edge2" class="edge"><title>Node1&#45;&gt;Node2</title>
<path fill="none" stroke="midnightblue" d="M771.119,-62.8252C659.867,-57.655 379.016,-43.3596 132.768,-20.0104"/>
<polygon fill="midnightblue" stroke="midnightblue" points="132.836,-16.5011 122.548,-19.0342 132.17,-23.4693 132.836,-16.5011"/>
</g>
<!-- Node3 -->
<g id="node5" class="node"><title>Node3</title>
<polygon fill="white" stroke="#bfbfbf" points="141,-0.5 141,-19.5 277,-19.5 277,-0.5 141,-0.5"/>
<text text-anchor="middle" x="209" y="-7.5" font-family="FreeSans" font-size="10.00">sundials/sundials_dense.h</text>
</g>
<!-- Node1&#45;&gt;Node3 -->
<g id="edge4" class="edge"><title>Node1&#45;&gt;Node3</title>
<path fill="none" stroke="midnightblue" d="M771.357,-61.4293C679.143,-54.5453 472.31,-38.5557 287.202,-20.0912"/>
<polygon fill="midnightblue" stroke="midnightblue" points="287.306,-16.5842 277.007,-19.0695 286.608,-23.5493 287.306,-16.5842"/>
</g>
<!-- Node4 -->
<g id="node7" class="node"><title>Node4</title>
<polygon fill="white" stroke="#bfbfbf" points="295,-0.5 295,-19.5 425,-19.5 425,-0.5 295,-0.5"/>
<text text-anchor="middle" x="360" y="-7.5" font-family="FreeSans" font-size="10.00">sundials/sundials_band.h</text>
</g>
<!-- Node1&#45;&gt;Node4 -->
<g id="edge6" class="edge"><title>Node1&#45;&gt;Node4</title>
<path fill="none" stroke="midnightblue" d="M771.244,-59.3947C699.94,-51.1798 562.739,-35.3074 435.668,-20.194"/>
<polygon fill="midnightblue" stroke="midnightblue" points="435.711,-16.6746 425.368,-18.968 434.884,-23.6255 435.711,-16.6746"/>
</g>
<!-- Node5 -->
<g id="node9" class="node"><title>Node5</title>
<polygon fill="white" stroke="#bfbfbf" points="443.5,-0.5 443.5,-19.5 574.5,-19.5 574.5,-0.5 443.5,-0.5"/>
<text text-anchor="middle" x="509" y="-7.5" font-family="FreeSans" font-size="10.00">sundials/sundials_types.h</text>
</g>
<!-- Node1&#45;&gt;Node5 -->
<g id="edge8" class="edge"><title>Node1&#45;&gt;Node5</title>
<path fill="none" stroke="midnightblue" d="M771.406,-56.5625C716.417,-47.0146 626.858,-31.4642 567.929,-21.232"/>
<polygon fill="midnightblue" stroke="midnightblue" points="568.473,-17.7742 558.022,-19.5118 567.275,-24.671 568.473,-17.7742"/>
</g>
<!-- Node6 -->
<g id="node11" class="node"><title>Node6</title>
<polygon fill="white" stroke="#bfbfbf" points="593,-0.5 593,-19.5 677,-19.5 677,-0.5 593,-0.5"/>
<text text-anchor="middle" x="635" y="-7.5" font-family="FreeSans" font-size="10.00">cvode/cvode.h</text>
</g>
<!-- Node1&#45;&gt;Node6 -->
<g id="edge10" class="edge"><title>Node1&#45;&gt;Node6</title>
<path fill="none" stroke="midnightblue" d="M790.686,-56.4435C759.158,-47.2406 708.869,-32.5617 674.014,-22.3879"/>
<polygon fill="midnightblue" stroke="midnightblue" points="674.757,-18.9587 664.177,-19.5164 672.795,-25.6783 674.757,-18.9587"/>
</g>
<!-- Node7 -->
<g id="node13" class="node"><title>Node7</title>
<polygon fill="white" stroke="#bfbfbf" points="695,-0.5 695,-19.5 813,-19.5 813,-0.5 695,-0.5"/>
<text text-anchor="middle" x="754" y="-7.5" font-family="FreeSans" font-size="10.00">cvode/cvode_dense.h</text>
</g>
<!-- Node1&#45;&gt;Node7 -->
<g id="edge12" class="edge"><title>Node1&#45;&gt;Node7</title>
<path fill="none" stroke="midnightblue" d="M809.396,-56.324C799.544,-48.2631 784.649,-36.0765 772.785,-26.3695"/>
<polygon fill="midnightblue" stroke="midnightblue" points="774.753,-23.4575 764.797,-19.8339 770.32,-28.8752 774.753,-23.4575"/>
</g>
<!-- Node8 -->
<g id="node15" class="node"><title>Node8</title>
<polygon fill="white" stroke="#bfbfbf" points="831,-0.5 831,-19.5 943,-19.5 943,-0.5 831,-0.5"/>
<text text-anchor="middle" x="887" y="-7.5" font-family="FreeSans" font-size="10.00">cvode/cvode_band.h</text>
</g>
<!-- Node1&#45;&gt;Node8 -->
<g id="edge14" class="edge"><title>Node1&#45;&gt;Node8</title>
<path fill="none" stroke="midnightblue" d="M830.765,-56.324C840.766,-48.2631 855.887,-36.0765 867.93,-26.3695"/>
<polygon fill="midnightblue" stroke="midnightblue" points="870.45,-28.8343 876.039,-19.8339 866.057,-23.3841 870.45,-28.8343"/>
</g>
<!-- Node9 -->
<g id="node17" class="node"><title>Node9</title>
<polygon fill="white" stroke="#bfbfbf" points="961,-0.5 961,-19.5 1017,-19.5 1017,-0.5 961,-0.5"/>
<text text-anchor="middle" x="989" y="-7.5" font-family="FreeSans" font-size="10.00">ida/ida.h</text>
</g>
<!-- Node1&#45;&gt;Node9 -->
<g id="edge16" class="edge"><title>Node1&#45;&gt;Node9</title>
<path fill="none" stroke="midnightblue" d="M846.779,-56.4435C875.333,-47.3196 920.733,-32.8133 952.537,-22.6509"/>
<polygon fill="midnightblue" stroke="midnightblue" points="953.886,-25.8941 962.347,-19.5164 951.756,-19.2262 953.886,-25.8941"/>
</g>
<!-- Node10 -->
<g id="node19" class="node"><title>Node10</title>
<polygon fill="white" stroke="#bfbfbf" points="1034.5,-0.5 1034.5,-19.5 1127.5,-19.5 1127.5,-0.5 1034.5,-0.5"/>
<text text-anchor="middle" x="1081" y="-7.5" font-family="FreeSans" font-size="10.00">ida/ida_spbcgs.h</text>
</g>
<!-- Node1&#45;&gt;Node10 -->
<g id="edge18" class="edge"><title>Node1&#45;&gt;Node10</title>
<path fill="none" stroke="midnightblue" d="M861.356,-56.4435C907.078,-46.9839 980.764,-31.7384 1030.02,-21.5472"/>
<polygon fill="midnightblue" stroke="midnightblue" points="1030.75,-24.97 1039.84,-19.5164 1029.34,-18.1152 1030.75,-24.97"/>
</g>
<!-- Node11 -->
<g id="node21" class="node"><title>Node11</title>
<polygon fill="white" stroke="#bfbfbf" points="1145,-0.5 1145,-19.5 1201,-19.5 1201,-0.5 1145,-0.5"/>
<text text-anchor="middle" x="1173" y="-7.5" font-family="FreeSans" font-size="10.00">iostream</text>
</g>
<!-- Node1&#45;&gt;Node11 -->
<g id="edge20" class="edge"><title>Node1&#45;&gt;Node11</title>
<path fill="none" stroke="midnightblue" d="M868.695,-59.5553C928.959,-52.4871 1034.89,-38.9883 1134.82,-20.0712"/>
<polygon fill="midnightblue" stroke="midnightblue" points="1135.62,-23.482 1144.78,-18.1634 1134.3,-16.607 1135.62,-23.482"/>
</g>
<!-- Node12 -->
<g id="node23" class="node"><title>Node12</title>
<polygon fill="white" stroke="#bfbfbf" points="1219,-0.5 1219,-19.5 1263,-19.5 1263,-0.5 1219,-0.5"/>
<text text-anchor="middle" x="1241" y="-7.5" font-family="FreeSans" font-size="10.00">vector</text>
</g>
<!-- Node1&#45;&gt;Node12 -->
<g id="edge22" class="edge"><title>Node1&#45;&gt;Node12</title>
<path fill="none" stroke="midnightblue" d="M868.595,-61.8715C940.725,-56.6823 1080.45,-44.5396 1208.73,-19.7176"/>
<polygon fill="midnightblue" stroke="midnightblue" points="1209.59,-23.1148 1218.73,-17.7517 1208.24,-16.2462 1209.59,-23.1148"/>
</g>
<!-- Node13 -->
<g id="node25" class="node"><title>Node13</title>
<polygon fill="white" stroke="#bfbfbf" points="1281.5,-0.5 1281.5,-19.5 1324.5,-19.5 1324.5,-0.5 1281.5,-0.5"/>
<text text-anchor="middle" x="1303" y="-7.5" font-family="FreeSans" font-size="10.00">time.h</text>
</g>
<!-- Node1&#45;&gt;Node13 -->
<g id="edge24" class="edge"><title>Node1&#45;&gt;Node13</title>
<path fill="none" stroke="midnightblue" d="M868.785,-62.9276C951.947,-58.7735 1126.22,-47.3649 1271,-20 1271.21,-19.9598 1271.43,-19.9189 1271.64,-19.8772"/>
<polygon fill="midnightblue" stroke="midnightblue" points="1272.48,-23.2764 1281.43,-17.6177 1270.9,-16.4556 1272.48,-23.2764"/>
</g>
</g>
</svg>
