<?xml version="1.0" encoding="UTF-8" standalone="no"?>
<!DOCTYPE svg PUBLIC "-//W3C//DTD SVG 1.1//EN"
 "http://www.w3.org/Graphics/SVG/1.1/DTD/svg11.dtd">
<!-- Generated by graphviz version 8.1.0 (20230707.2238)
 -->
<!-- Title: src/sundialsUtils.cpp Pages: 1 -->
<svg width="2671pt" height="212pt"
 viewBox="0.00 0.00 2671.00 211.75" xmlns="http://www.w3.org/2000/svg" xmlns:xlink="http://www.w3.org/1999/xlink">
<g id="graph0" class="graph" transform="scale(1 1) rotate(0) translate(4 207.75)">
<title>src/sundialsUtils.cpp</title>
<!-- Node1 -->
<g id="Node000001" class="node">
<title>Node1</title>
<g id="a_Node000001"><a xlink:title=" ">
<polygon fill="#999999" stroke="#666666" points="658.25,-203.75 541.75,-203.75 541.75,-183 658.25,-183 658.25,-203.75"/>
<text text-anchor="middle" x="600" y="-190.25" font-family="FreeSans" font-size="10.00">src/sundialsUtils.cpp</text>
</a>
</g>
</g>
<!-- Node2 -->
<g id="Node000002" class="node">
<title>Node2</title>
<g id="a_Node000002"><a xlink:href="sundialsUtils_8h.html" target="_top" xlink:title=" ">
<polygon fill="white" stroke="#666666" points="1519,-147 1431,-147 1431,-126.25 1519,-126.25 1519,-147"/>
<text text-anchor="middle" x="1475" y="-133.5" font-family="FreeSans" font-size="10.00">sundialsUtils.h</text>
</a>
</g>
</g>
<!-- Node1&#45;&gt;Node2 -->
<g id="edge1_Node000001_Node000002" class="edge">
<title>Node1&#45;&gt;Node2</title>
<g id="a_edge1_Node000001_Node000002"><a xlink:title=" ">
<path fill="none" stroke="#63b8ff" d="M658.43,-188.72C818.65,-178.69 1263.39,-150.87 1419.76,-141.08"/>
<polygon fill="#63b8ff" stroke="#63b8ff" points="1419.75,-144.53 1429.51,-140.41 1419.32,-137.54 1419.75,-144.53"/>
</a>
</g>
</g>
<!-- Node9 -->
<g id="Node000009" class="node">
<title>Node9</title>
<g id="a_Node000009"><a xlink:title=" ">
<polygon fill="#e0e0e0" stroke="#999999" points="754.12,-83.88 627.88,-83.88 627.88,-63.12 754.12,-63.12 754.12,-83.88"/>
<text text-anchor="middle" x="691" y="-70.38" font-family="FreeSans" font-size="10.00">cantera/base/ct_defs.h</text>
</a>
</g>
</g>
<!-- Node1&#45;&gt;Node9 -->
<g id="edge36_Node000001_Node000009" class="edge">
<title>Node1&#45;&gt;Node9</title>
<g id="a_edge36_Node000001_Node000009"><a xlink:title=" ">
<path fill="none" stroke="#63b8ff" d="M607.45,-182.73C622.58,-163.13 657.14,-118.36 676.74,-92.97"/>
<polygon fill="#63b8ff" stroke="#63b8ff" points="680.11,-95.33 683.45,-85.28 674.57,-91.06 680.11,-95.33"/>
</a>
</g>
</g>
<!-- Node17 -->
<g id="Node000017" class="node">
<title>Node17</title>
<g id="a_Node000017"><a xlink:title=" ">
<polygon fill="#e0e0e0" stroke="#999999" points="610.75,-20.75 551.25,-20.75 551.25,0 610.75,0 610.75,-20.75"/>
<text text-anchor="middle" x="581" y="-7.25" font-family="FreeSans" font-size="10.00">iostream</text>
</a>
</g>
</g>
<!-- Node1&#45;&gt;Node17 -->
<g id="edge25_Node000001_Node000017" class="edge">
<title>Node1&#45;&gt;Node17</title>
<g id="a_edge25_Node000001_Node000017"><a xlink:title=" ">
<path fill="none" stroke="#63b8ff" d="M598.98,-182.64C596,-154.22 587.25,-70.9 583.16,-31.92"/>
<polygon fill="#63b8ff" stroke="#63b8ff" points="586.55,-31.73 582.03,-22.15 579.59,-32.47 586.55,-31.73"/>
</a>
</g>
</g>
<!-- Node20 -->
<g id="Node000020" class="node">
<title>Node20</title>
<g id="a_Node000020"><a xlink:href="debugUtils_8h.html" target="_top" xlink:title=" ">
<polygon fill="white" stroke="#666666" points="170.75,-83.88 93.25,-83.88 93.25,-63.12 170.75,-63.12 170.75,-83.88"/>
<text text-anchor="middle" x="132" y="-70.38" font-family="FreeSans" font-size="10.00">debugUtils.h</text>
</a>
</g>
</g>
<!-- Node1&#45;&gt;Node20 -->
<g id="edge19_Node000001_Node000020" class="edge">
<title>Node1&#45;&gt;Node20</title>
<g id="a_edge19_Node000001_Node000020"><a xlink:title=" ">
<path fill="none" stroke="#63b8ff" d="M554.32,-182.5C476.85,-165.49 314.95,-128.73 180,-90.25 177.07,-89.42 174.06,-88.52 171.04,-87.59"/>
<polygon fill="#63b8ff" stroke="#63b8ff" points="172.41,-84.04 161.82,-84.36 170.3,-90.71 172.41,-84.04"/>
</a>
</g>
</g>
<!-- Node25 -->
<g id="Node000025" class="node">
<title>Node25</title>
<g id="a_Node000025"><a xlink:href="mathUtils_8h.html" target="_top" xlink:title=" ">
<polygon fill="white" stroke="#666666" points="514.5,-147 441.5,-147 441.5,-126.25 514.5,-126.25 514.5,-147"/>
<text text-anchor="middle" x="478" y="-133.5" font-family="FreeSans" font-size="10.00">mathUtils.h</text>
</a>
</g>
</g>
<!-- Node1&#45;&gt;Node25 -->
<g id="edge26_Node000001_Node000025" class="edge">
<title>Node1&#45;&gt;Node25</title>
<g id="a_edge26_Node000001_Node000025"><a xlink:title=" ">
<path fill="none" stroke="#63b8ff" d="M578.19,-182.59C559.11,-174.02 531.15,-161.48 509.61,-151.81"/>
<polygon fill="#63b8ff" stroke="#63b8ff" points="511.18,-148.23 500.62,-147.33 508.31,-154.62 511.18,-148.23"/>
</a>
</g>
</g>
<!-- Node3 -->
<g id="Node000003" class="node">
<title>Node3</title>
<g id="a_Node000003"><a xlink:href="config_8h.html" target="_top" xlink:title=" ">
<polygon fill="white" stroke="#666666" points="995.12,-83.88 940.88,-83.88 940.88,-63.12 995.12,-63.12 995.12,-83.88"/>
<text text-anchor="middle" x="968" y="-70.38" font-family="FreeSans" font-size="10.00">config.h</text>
</a>
</g>
</g>
<!-- Node2&#45;&gt;Node3 -->
<g id="edge2_Node000002_Node000003" class="edge">
<title>Node2&#45;&gt;Node3</title>
<g id="a_edge2_Node000002_Node000003"><a xlink:title=" ">
<path fill="none" stroke="#63b8ff" d="M1430.69,-135.98C1346.25,-135.64 1157.05,-130.02 1004,-90.25 1001.83,-89.69 999.63,-89.01 997.44,-88.26"/>
<polygon fill="#63b8ff" stroke="#63b8ff" points="998.99,-84.71 988.4,-84.32 996.44,-91.23 998.99,-84.71"/>
</a>
</g>
</g>
<!-- Node4 -->
<g id="Node000004" class="node">
<title>Node4</title>
<g id="a_Node000004"><a xlink:title=" ">
<polygon fill="#e0e0e0" stroke="#999999" points="1146.88,-83.88 1013.12,-83.88 1013.12,-63.12 1146.88,-63.12 1146.88,-83.88"/>
<text text-anchor="middle" x="1080" y="-70.38" font-family="FreeSans" font-size="10.00">nvector/nvector_serial.h</text>
</a>
</g>
</g>
<!-- Node2&#45;&gt;Node4 -->
<g id="edge3_Node000002_Node000004" class="edge">
<title>Node2&#45;&gt;Node4</title>
<g id="a_edge3_Node000002_Node000004"><a xlink:title=" ">
<path fill="none" stroke="#63b8ff" d="M1430.74,-130.23C1369.02,-122.49 1253.68,-107.3 1156,-90.25 1149.38,-89.09 1142.45,-87.79 1135.59,-86.44"/>
<polygon fill="#63b8ff" stroke="#63b8ff" points="1136.41,-82.84 1125.92,-84.3 1135.03,-89.7 1136.41,-82.84"/>
</a>
</g>
</g>
<!-- Node5 -->
<g id="Node000005" class="node">
<title>Node5</title>
<g id="a_Node000005"><a xlink:title=" ">
<polygon fill="#e0e0e0" stroke="#999999" points="1308.75,-83.88 1165.25,-83.88 1165.25,-63.12 1308.75,-63.12 1308.75,-83.88"/>
<text text-anchor="middle" x="1237" y="-70.38" font-family="FreeSans" font-size="10.00">sundials/sundials_dense.h</text>
</a>
</g>
</g>
<!-- Node2&#45;&gt;Node5 -->
<g id="edge4_Node000002_Node000005" class="edge">
<title>Node2&#45;&gt;Node5</title>
<g id="a_edge4_Node000002_Node000005"><a xlink:title=" ">
<path fill="none" stroke="#63b8ff" d="M1436.76,-125.8C1395.73,-115.27 1330.45,-98.5 1285.75,-87.02"/>
<polygon fill="#63b8ff" stroke="#63b8ff" points="1286.7,-83.39 1276.14,-84.3 1284.96,-90.17 1286.7,-83.39"/>
</a>
</g>
</g>
<!-- Node6 -->
<g id="Node000006" class="node">
<title>Node6</title>
<g id="a_Node000006"><a xlink:title=" ">
<polygon fill="#e0e0e0" stroke="#999999" points="1465.12,-83.88 1326.88,-83.88 1326.88,-63.12 1465.12,-63.12 1465.12,-83.88"/>
<text text-anchor="middle" x="1396" y="-70.38" font-family="FreeSans" font-size="10.00">sundials/sundials_band.h</text>
</a>
</g>
</g>
<!-- Node2&#45;&gt;Node6 -->
<g id="edge5_Node000002_Node000006" class="edge">
<title>Node2&#45;&gt;Node6</title>
<g id="a_edge5_Node000002_Node000006"><a xlink:title=" ">
<path fill="none" stroke="#63b8ff" d="M1462.31,-125.8C1450.1,-116.36 1431.42,-101.91 1417,-90.75"/>
<polygon fill="#63b8ff" stroke="#63b8ff" points="1419.71,-87.65 1409.66,-84.3 1415.43,-93.18 1419.71,-87.65"/>
</a>
</g>
</g>
<!-- Node7 -->
<g id="Node000007" class="node">
<title>Node7</title>
<g id="a_Node000007"><a xlink:title=" ">
<polygon fill="#e0e0e0" stroke="#999999" points="1624.62,-83.88 1483.38,-83.88 1483.38,-63.12 1624.62,-63.12 1624.62,-83.88"/>
<text text-anchor="middle" x="1554" y="-70.38" font-family="FreeSans" font-size="10.00">sundials/sundials_types.h</text>
</a>
</g>
</g>
<!-- Node2&#45;&gt;Node7 -->
<g id="edge6_Node000002_Node000007" class="edge">
<title>Node2&#45;&gt;Node7</title>
<g id="a_edge6_Node000002_Node000007"><a xlink:title=" ">
<path fill="none" stroke="#63b8ff" d="M1487.69,-125.8C1499.9,-116.36 1518.58,-101.91 1533,-90.75"/>
<polygon fill="#63b8ff" stroke="#63b8ff" points="1534.57,-93.18 1540.34,-84.3 1530.29,-87.65 1534.57,-93.18"/>
</a>
</g>
</g>
<!-- Node8 -->
<g id="Node000008" class="node">
<title>Node8</title>
<g id="a_Node000008"><a xlink:title=" ">
<polygon fill="#e0e0e0" stroke="#999999" points="1729.25,-83.88 1642.75,-83.88 1642.75,-63.12 1729.25,-63.12 1729.25,-83.88"/>
<text text-anchor="middle" x="1686" y="-70.38" font-family="FreeSans" font-size="10.00">cvode/cvode.h</text>
</a>
</g>
</g>
<!-- Node2&#45;&gt;Node8 -->
<g id="edge7_Node000002_Node000008" class="edge">
<title>Node2&#45;&gt;Node8</title>
<g id="a_edge7_Node000002_Node000008"><a xlink:title=" ">
<path fill="none" stroke="#63b8ff" d="M1510.1,-125.78C1542.35,-116.7 1591.45,-102.76 1634,-90.25 1637.11,-89.33 1640.33,-88.38 1643.56,-87.42"/>
<polygon fill="#63b8ff" stroke="#63b8ff" points="1644.28,-90.55 1652.85,-84.33 1642.26,-83.85 1644.28,-90.55"/>
</a>
</g>
</g>
<!-- Node2&#45;&gt;Node9 -->
<g id="edge8_Node000002_Node000009" class="edge">
<title>Node2&#45;&gt;Node9</title>
<g id="a_edge8_Node000002_Node000009"><a xlink:title=" ">
<path fill="none" stroke="#63b8ff" d="M1430.67,-135.08C1318.51,-133.22 1014.53,-125.07 764,-90.25 756.84,-89.25 749.33,-87.95 741.97,-86.51"/>
<polygon fill="#63b8ff" stroke="#63b8ff" points="742.85,-82.91 732.35,-84.33 741.44,-89.77 742.85,-82.91"/>
</a>
</g>
</g>
<!-- Node10 -->
<g id="Node000010" class="node">
<title>Node10</title>
<g id="a_Node000010"><a xlink:title=" ">
<polygon fill="#e0e0e0" stroke="#999999" points="1877,-83.88 1747,-83.88 1747,-63.12 1877,-63.12 1877,-83.88"/>
<text text-anchor="middle" x="1812" y="-70.38" font-family="FreeSans" font-size="10.00">cvodes/cvodes_direct.h</text>
</a>
</g>
</g>
<!-- Node2&#45;&gt;Node10 -->
<g id="edge9_Node000002_Node000010" class="edge">
<title>Node2&#45;&gt;Node10</title>
<g id="a_edge9_Node000002_Node000010"><a xlink:title=" ">
<path fill="none" stroke="#63b8ff" d="M1519.3,-128.52C1571.65,-120 1661.34,-105.02 1738,-90.25 1744.03,-89.09 1750.33,-87.83 1756.59,-86.54"/>
<polygon fill="#63b8ff" stroke="#63b8ff" points="1756.98,-89.82 1766.05,-84.36 1755.55,-82.97 1756.98,-89.82"/>
</a>
</g>
</g>
<!-- Node11 -->
<g id="Node000011" class="node">
<title>Node11</title>
<g id="a_Node000011"><a xlink:title=" ">
<polygon fill="#e0e0e0" stroke="#999999" points="2019.38,-83.88 1894.62,-83.88 1894.62,-63.12 2019.38,-63.12 2019.38,-83.88"/>
<text text-anchor="middle" x="1957" y="-70.38" font-family="FreeSans" font-size="10.00">cvodes/cvodes_spils.h</text>
</a>
</g>
</g>
<!-- Node2&#45;&gt;Node11 -->
<g id="edge10_Node000002_Node000011" class="edge">
<title>Node2&#45;&gt;Node11</title>
<g id="a_edge10_Node000002_Node000011"><a xlink:title=" ">
<path fill="none" stroke="#63b8ff" d="M1519.31,-132.32C1594.88,-126.32 1753.38,-112.21 1886,-90.25 1892.46,-89.18 1899.21,-87.9 1905.88,-86.53"/>
<polygon fill="#63b8ff" stroke="#63b8ff" points="1906.17,-89.84 1915.22,-84.34 1904.71,-82.99 1906.17,-89.84"/>
</a>
</g>
</g>
<!-- Node12 -->
<g id="Node000012" class="node">
<title>Node12</title>
<g id="a_Node000012"><a xlink:title=" ">
<polygon fill="#e0e0e0" stroke="#999999" points="2143,-90.25 2037,-90.25 2037,-56.75 2143,-56.75 2143,-90.25"/>
<text text-anchor="start" x="2045" y="-76.75" font-family="FreeSans" font-size="10.00">sunlinsol/sunlinsol</text>
<text text-anchor="middle" x="2090" y="-64" font-family="FreeSans" font-size="10.00">_dense.h</text>
</a>
</g>
</g>
<!-- Node2&#45;&gt;Node12 -->
<g id="edge11_Node000002_Node000012" class="edge">
<title>Node2&#45;&gt;Node12</title>
<g id="a_edge11_Node000002_Node000012"><a xlink:title=" ">
<path fill="none" stroke="#63b8ff" d="M1519.39,-134.49C1611.97,-131.59 1832.42,-121.88 2026.03,-90.4"/>
<polygon fill="#63b8ff" stroke="#63b8ff" points="2026.39,-93.73 2035.69,-88.64 2025.25,-86.82 2026.39,-93.73"/>
</a>
</g>
</g>
<!-- Node13 -->
<g id="Node000013" class="node">
<title>Node13</title>
<g id="a_Node000013"><a xlink:title=" ">
<polygon fill="#e0e0e0" stroke="#999999" points="2267,-90.25 2161,-90.25 2161,-56.75 2267,-56.75 2267,-90.25"/>
<text text-anchor="start" x="2169" y="-76.75" font-family="FreeSans" font-size="10.00">sunlinsol/sunlinsol</text>
<text text-anchor="middle" x="2214" y="-64" font-family="FreeSans" font-size="10.00">_band.h</text>
</a>
</g>
</g>
<!-- Node2&#45;&gt;Node13 -->
<g id="edge12_Node000002_Node000013" class="edge">
<title>Node2&#45;&gt;Node13</title>
<g id="a_edge12_Node000002_Node000013"><a xlink:title=" ">
<path fill="none" stroke="#63b8ff" d="M1519.27,-135.43C1626.22,-134.38 1907.16,-128.07 2149.89,-90.4"/>
<polygon fill="#63b8ff" stroke="#63b8ff" points="2150.36,-93.71 2159.69,-88.7 2149.27,-86.8 2150.36,-93.71"/>
</a>
</g>
</g>
<!-- Node14 -->
<g id="Node000014" class="node">
<title>Node14</title>
<g id="a_Node000014"><a xlink:title=" ">
<polygon fill="#e0e0e0" stroke="#999999" points="2391,-90.25 2285,-90.25 2285,-56.75 2391,-56.75 2391,-90.25"/>
<text text-anchor="start" x="2293" y="-76.75" font-family="FreeSans" font-size="10.00">sunlinsol/sunlinsol</text>
<text text-anchor="middle" x="2338" y="-64" font-family="FreeSans" font-size="10.00">_spgmr.h</text>
</a>
</g>
</g>
<!-- Node2&#45;&gt;Node14 -->
<g id="edge13_Node000002_Node000014" class="edge">
<title>Node2&#45;&gt;Node14</title>
<g id="a_edge13_Node000002_Node000014"><a xlink:title=" ">
<path fill="none" stroke="#63b8ff" d="M1519.16,-136.09C1639.19,-136.71 1981.51,-134.32 2273.88,-90.38"/>
<polygon fill="#63b8ff" stroke="#63b8ff" points="2274.34,-93.7 2283.7,-88.73 2273.29,-86.78 2274.34,-93.7"/>
</a>
</g>
</g>
<!-- Node15 -->
<g id="Node000015" class="node">
<title>Node15</title>
<g id="a_Node000015"><a xlink:title=" ">
<polygon fill="#e0e0e0" stroke="#999999" points="2527,-90.25 2409,-90.25 2409,-56.75 2527,-56.75 2527,-90.25"/>
<text text-anchor="start" x="2417" y="-76.75" font-family="FreeSans" font-size="10.00">sunmatrix/sunmatrix</text>
<text text-anchor="middle" x="2468" y="-64" font-family="FreeSans" font-size="10.00">_dense.h</text>
</a>
</g>
</g>
<!-- Node2&#45;&gt;Node15 -->
<g id="edge14_Node000002_Node000015" class="edge">
<title>Node2&#45;&gt;Node15</title>
<g id="a_edge14_Node000002_Node000015"><a xlink:title=" ">
<path fill="none" stroke="#63b8ff" d="M1519.07,-136.24C1651.11,-137.51 2054.99,-137.09 2397.89,-90.38"/>
<polygon fill="#63b8ff" stroke="#63b8ff" points="2398.35,-93.71 2407.78,-88.87 2397.39,-86.77 2398.35,-93.71"/>
</a>
</g>
</g>
<!-- Node16 -->
<g id="Node000016" class="node">
<title>Node16</title>
<g id="a_Node000016"><a xlink:title=" ">
<polygon fill="#e0e0e0" stroke="#999999" points="2663,-90.25 2545,-90.25 2545,-56.75 2663,-56.75 2663,-90.25"/>
<text text-anchor="start" x="2553" y="-76.75" font-family="FreeSans" font-size="10.00">sunmatrix/sunmatrix</text>
<text text-anchor="middle" x="2604" y="-64" font-family="FreeSans" font-size="10.00">_band.h</text>
</a>
</g>
</g>
<!-- Node2&#45;&gt;Node16 -->
<g id="edge15_Node000002_Node000016" class="edge">
<title>Node2&#45;&gt;Node16</title>
<g id="a_edge15_Node000002_Node000016"><a xlink:title=" ">
<path fill="none" stroke="#63b8ff" d="M1519.23,-134.82C1690.83,-131.55 2313.55,-118.08 2533.97,-90.31"/>
<polygon fill="#63b8ff" stroke="#63b8ff" points="2534.32,-93.67 2543.78,-88.9 2533.41,-86.73 2534.32,-93.67"/>
</a>
</g>
</g>
<!-- Node2&#45;&gt;Node17 -->
<g id="edge16_Node000002_Node000017" class="edge">
<title>Node2&#45;&gt;Node17</title>
<g id="a_edge16_Node000002_Node000017"><a xlink:title=" ">
<path fill="none" stroke="#63b8ff" d="M1430.84,-135.95C1308.59,-136.27 967.99,-133.19 866,-90.25 845.25,-81.51 848.25,-66.59 828,-56.75 760.73,-24.08 672.72,-14.82 621.96,-12.26"/>
<polygon fill="#63b8ff" stroke="#63b8ff" points="622.25,-8.73 612.11,-11.79 621.95,-15.72 622.25,-8.73"/>
</a>
</g>
</g>
<!-- Node18 -->
<g id="Node000018" class="node">
<title>Node18</title>
<g id="a_Node000018"><a xlink:title=" ">
<polygon fill="#e0e0e0" stroke="#999999" points="819.38,-83.88 772.62,-83.88 772.62,-63.12 819.38,-63.12 819.38,-83.88"/>
<text text-anchor="middle" x="796" y="-70.38" font-family="FreeSans" font-size="10.00">vector</text>
</a>
</g>
</g>
<!-- Node2&#45;&gt;Node18 -->
<g id="edge17_Node000002_Node000018" class="edge">
<title>Node2&#45;&gt;Node18</title>
<g id="a_edge17_Node000002_Node000018"><a xlink:title=" ">
<path fill="none" stroke="#63b8ff" d="M1430.86,-134.41C1305.14,-130.63 946.92,-117.71 833,-90.25 830.63,-89.68 828.22,-88.97 825.82,-88.17"/>
<polygon fill="#63b8ff" stroke="#63b8ff" points="827.15,-84.55 816.56,-84.25 824.65,-91.09 827.15,-84.55"/>
</a>
</g>
</g>
<!-- Node19 -->
<g id="Node000019" class="node">
<title>Node19</title>
<g id="a_Node000019"><a xlink:title=" ">
<polygon fill="#e0e0e0" stroke="#999999" points="922.75,-83.88 875.25,-83.88 875.25,-63.12 922.75,-63.12 922.75,-83.88"/>
<text text-anchor="middle" x="899" y="-70.38" font-family="FreeSans" font-size="10.00">time.h</text>
</a>
</g>
</g>
<!-- Node2&#45;&gt;Node19 -->
<g id="edge18_Node000002_Node000019" class="edge">
<title>Node2&#45;&gt;Node19</title>
<g id="a_edge18_Node000002_Node000019"><a xlink:title=" ">
<path fill="none" stroke="#63b8ff" d="M1430.9,-133.99C1318.92,-129.51 1025.82,-115.65 932,-90.25 930.02,-89.72 928.02,-89.07 926.03,-88.34"/>
<polygon fill="#63b8ff" stroke="#63b8ff" points="927.93,-84.92 917.36,-84.22 925.19,-91.36 927.93,-84.92"/>
</a>
</g>
</g>
<!-- Node20&#45;&gt;Node17 -->
<g id="edge21_Node000020_Node000017" class="edge">
<title>Node20&#45;&gt;Node17</title>
<g id="a_edge21_Node000020_Node000017"><a xlink:title=" ">
<path fill="none" stroke="#63b8ff" d="M158.64,-62.69C165.52,-60.45 172.97,-58.28 180,-56.75 309.89,-28.4 467.55,-17.15 540.44,-13.22"/>
<polygon fill="#63b8ff" stroke="#63b8ff" points="540.17,-16.69 549.98,-12.68 539.81,-9.7 540.17,-16.69"/>
</a>
</g>
</g>
<!-- Node21 -->
<g id="Node000021" class="node">
<title>Node21</title>
<g id="a_Node000021"><a xlink:title=" ">
<polygon fill="#e0e0e0" stroke="#999999" points="393.88,-20.75 350.12,-20.75 350.12,0 393.88,0 393.88,-20.75"/>
<text text-anchor="middle" x="372" y="-7.25" font-family="FreeSans" font-size="10.00">string</text>
</a>
</g>
</g>
<!-- Node20&#45;&gt;Node21 -->
<g id="edge20_Node000020_Node000021" class="edge">
<title>Node20&#45;&gt;Node21</title>
<g id="a_edge20_Node000020_Node000021"><a xlink:title=" ">
<path fill="none" stroke="#63b8ff" d="M160.56,-62.69C166.93,-60.62 173.67,-58.53 180,-56.75 235.36,-41.16 300.71,-26.5 339.12,-18.25"/>
<polygon fill="#63b8ff" stroke="#63b8ff" points="339.62,-21.51 348.67,-16.01 338.16,-14.67 339.62,-21.51"/>
</a>
</g>
</g>
<!-- Node22 -->
<g id="Node000022" class="node">
<title>Node22</title>
<g id="a_Node000022"><a xlink:title=" ">
<polygon fill="#e0e0e0" stroke="#999999" points="254.12,-20.75 199.88,-20.75 199.88,0 254.12,0 254.12,-20.75"/>
<text text-anchor="middle" x="227" y="-7.25" font-family="FreeSans" font-size="10.00">fstream</text>
</a>
</g>
</g>
<!-- Node20&#45;&gt;Node22 -->
<g id="edge22_Node000020_Node000022" class="edge">
<title>Node20&#45;&gt;Node22</title>
<g id="a_edge22_Node000020_Node000022"><a xlink:title=" ">
<path fill="none" stroke="#63b8ff" d="M147.26,-62.68C162.22,-53.05 185.25,-38.23 202.73,-26.99"/>
<polygon fill="#63b8ff" stroke="#63b8ff" points="204.26,-29.53 210.77,-21.17 200.47,-23.64 204.26,-29.53"/>
</a>
</g>
</g>
<!-- Node23 -->
<g id="Node000023" class="node">
<title>Node23</title>
<g id="a_Node000023"><a xlink:title=" ">
<polygon fill="#e0e0e0" stroke="#999999" points="64,-20.75 0,-20.75 0,0 64,0 64,-20.75"/>
<text text-anchor="middle" x="32" y="-7.25" font-family="FreeSans" font-size="10.00">exception</text>
</a>
</g>
</g>
<!-- Node20&#45;&gt;Node23 -->
<g id="edge23_Node000020_Node000023" class="edge">
<title>Node20&#45;&gt;Node23</title>
<g id="a_edge23_Node000020_Node000023"><a xlink:title=" ">
<path fill="none" stroke="#63b8ff" d="M115.93,-62.68C100.12,-53.01 75.72,-38.1 57.3,-26.84"/>
<polygon fill="#63b8ff" stroke="#63b8ff" points="59.38,-23.4 49.03,-21.17 55.73,-29.37 59.38,-23.4"/>
</a>
</g>
</g>
<!-- Node24 -->
<g id="Node000024" class="node">
<title>Node24</title>
<g id="a_Node000024"><a xlink:title=" ">
<polygon fill="#e0e0e0" stroke="#999999" points="182,-20.75 82,-20.75 82,0 182,0 182,-20.75"/>
<text text-anchor="middle" x="132" y="-7.25" font-family="FreeSans" font-size="10.00">boost/format.hpp</text>
</a>
</g>
</g>
<!-- Node20&#45;&gt;Node24 -->
<g id="edge24_Node000020_Node000024" class="edge">
<title>Node20&#45;&gt;Node24</title>
<g id="a_edge24_Node000020_Node000024"><a xlink:title=" ">
<path fill="none" stroke="#63b8ff" d="M132,-62.68C132,-54.34 132,-42.11 132,-31.68"/>
<polygon fill="#63b8ff" stroke="#63b8ff" points="135.5,-31.97 132,-21.97 128.5,-31.97 135.5,-31.97"/>
</a>
</g>
</g>
<!-- Node25&#45;&gt;Node9 -->
<g id="edge34_Node000025_Node000009" class="edge">
<title>Node25&#45;&gt;Node9</title>
<g id="a_edge34_Node000025_Node000009"><a xlink:title=" ">
<path fill="none" stroke="#63b8ff" d="M512.22,-125.8C548.63,-115.36 606.38,-98.78 646.35,-87.31"/>
<polygon fill="#63b8ff" stroke="#63b8ff" points="647.22,-90.42 655.86,-84.3 645.29,-83.69 647.22,-90.42"/>
</a>
</g>
</g>
<!-- Node25&#45;&gt;Node17 -->
<g id="edge29_Node000025_Node000017" class="edge">
<title>Node25&#45;&gt;Node17</title>
<g id="a_edge29_Node000025_Node000017"><a xlink:title=" ">
<path fill="none" stroke="#63b8ff" d="M497.06,-125.83C511.19,-117.81 530.15,-105.34 543,-90.25 558.03,-72.59 568.64,-47.96 574.77,-30.95"/>
<polygon fill="#63b8ff" stroke="#63b8ff" points="578.24,-32.61 578.14,-22.01 571.61,-30.36 578.24,-32.61"/>
</a>
</g>
</g>
<!-- Node25&#45;&gt;Node18 -->
<g id="edge27_Node000025_Node000018" class="edge">
<title>Node25&#45;&gt;Node18</title>
<g id="a_edge27_Node000025_Node000018"><a xlink:title=" ">
<path fill="none" stroke="#63b8ff" d="M514.76,-133.16C569.79,-128.72 676.41,-117.19 763,-90.25 764.71,-89.72 766.44,-89.11 768.17,-88.46"/>
<polygon fill="#63b8ff" stroke="#63b8ff" points="769.07,-91.45 776.88,-84.29 766.31,-85.02 769.07,-91.45"/>
</a>
</g>
</g>
<!-- Node25&#45;&gt;Node20 -->
<g id="edge33_Node000025_Node000020" class="edge">
<title>Node25&#45;&gt;Node20</title>
<g id="a_edge33_Node000025_Node000020"><a xlink:title=" ">
<path fill="none" stroke="#63b8ff" d="M441.39,-132.03C384.79,-126.03 272.9,-112.4 180,-90.25 176.63,-89.45 173.16,-88.52 169.69,-87.52"/>
<polygon fill="#63b8ff" stroke="#63b8ff" points="171.03,-83.96 160.44,-84.37 168.98,-90.65 171.03,-83.96"/>
</a>
</g>
</g>
<!-- Node25&#45;&gt;Node21 -->
<g id="edge31_Node000025_Node000021" class="edge">
<title>Node25&#45;&gt;Node21</title>
<g id="a_edge31_Node000025_Node000021"><a xlink:title=" ">
<path fill="none" stroke="#63b8ff" d="M473.8,-126.13C466.58,-110.51 450.69,-78.92 431,-56.75 421.08,-45.58 408.08,-35.24 396.81,-27.27"/>
<polygon fill="#63b8ff" stroke="#63b8ff" points="399.09,-23.9 388.86,-21.15 395.15,-29.68 399.09,-23.9"/>
</a>
</g>
</g>
<!-- Node26 -->
<g id="Node000026" class="node">
<title>Node26</title>
<g id="a_Node000026"><a xlink:title=" ">
<polygon fill="#e0e0e0" stroke="#999999" points="422.38,-83.88 375.62,-83.88 375.62,-63.12 422.38,-63.12 422.38,-83.88"/>
<text text-anchor="middle" x="399" y="-70.38" font-family="FreeSans" font-size="10.00">cmath</text>
</a>
</g>
</g>
<!-- Node25&#45;&gt;Node26 -->
<g id="edge28_Node000025_Node000026" class="edge">
<title>Node25&#45;&gt;Node26</title>
<g id="a_edge28_Node000025_Node000026"><a xlink:title=" ">
<path fill="none" stroke="#63b8ff" d="M465.31,-125.8C453.1,-116.36 434.42,-101.91 420,-90.75"/>
<polygon fill="#63b8ff" stroke="#63b8ff" points="422.71,-87.65 412.66,-84.3 418.43,-93.18 422.71,-87.65"/>
</a>
</g>
</g>
<!-- Node27 -->
<g id="Node000027" class="node">
<title>Node27</title>
<g id="a_Node000027"><a xlink:title=" ">
<polygon fill="#e0e0e0" stroke="#999999" points="533.88,-83.88 478.12,-83.88 478.12,-63.12 533.88,-63.12 533.88,-83.88"/>
<text text-anchor="middle" x="506" y="-70.38" font-family="FreeSans" font-size="10.00">sstream</text>
</a>
</g>
</g>
<!-- Node25&#45;&gt;Node27 -->
<g id="edge30_Node000025_Node000027" class="edge">
<title>Node25&#45;&gt;Node27</title>
<g id="a_edge30_Node000025_Node000027"><a xlink:title=" ">
<path fill="none" stroke="#63b8ff" d="M482.5,-125.8C486.44,-117.2 492.29,-104.44 497.16,-93.8"/>
<polygon fill="#63b8ff" stroke="#63b8ff" points="500.62,-95.64 501.6,-85.09 494.26,-92.73 500.62,-95.64"/>
</a>
</g>
</g>
<!-- Node28 -->
<g id="Node000028" class="node">
<title>Node28</title>
<g id="a_Node000028"><a xlink:title=" ">
<polygon fill="#e0e0e0" stroke="#999999" points="226.88,-83.88 189.12,-83.88 189.12,-63.12 226.88,-63.12 226.88,-83.88"/>
<text text-anchor="middle" x="208" y="-70.38" font-family="FreeSans" font-size="10.00">map</text>
</a>
</g>
</g>
<!-- Node25&#45;&gt;Node28 -->
<g id="edge32_Node000025_Node000028" class="edge">
<title>Node25&#45;&gt;Node28</title>
<g id="a_edge32_Node000025_Node000028"><a xlink:title=" ">
<path fill="none" stroke="#63b8ff" d="M441.35,-132.51C393.07,-127.57 306.1,-115.75 236,-90.25 234.93,-89.86 233.84,-89.43 232.76,-88.97"/>
<polygon fill="#63b8ff" stroke="#63b8ff" points="234.78,-85.57 224.27,-84.27 231.68,-91.84 234.78,-85.57"/>
</a>
</g>
</g>
<!-- Node29 -->
<g id="Node000029" class="node">
<title>Node29</title>
<g id="a_Node000029"><a xlink:title=" ">
<polygon fill="#e0e0e0" stroke="#999999" points="357.38,-83.88 244.62,-83.88 244.62,-63.12 357.38,-63.12 357.38,-83.88"/>
<text text-anchor="middle" x="301" y="-70.38" font-family="FreeSans" font-size="10.00">eigen3/Eigen/Dense</text>
</a>
</g>
</g>
<!-- Node25&#45;&gt;Node29 -->
<g id="edge35_Node000025_Node000029" class="edge">
<title>Node25&#45;&gt;Node29</title>
<g id="a_edge35_Node000025_Node000029"><a xlink:title=" ">
<path fill="none" stroke="#63b8ff" d="M449.56,-125.8C419.76,-115.51 372.74,-99.28 339.6,-87.83"/>
<polygon fill="#63b8ff" stroke="#63b8ff" points="340.96,-84.25 330.37,-84.3 338.68,-90.87 340.96,-84.25"/>
</a>
</g>
</g>
</g>
</svg>
