<?xml version="1.0" encoding="UTF-8" standalone="no"?>
<!DOCTYPE svg PUBLIC "-//W3C//DTD SVG 1.1//EN"
 "http://www.w3.org/Graphics/SVG/1.1/DTD/svg11.dtd">
<!-- Generated by graphviz version 2.38.0 (20140413.2041)
 -->
<!-- Title: src/tbb_fake.h Pages: 1 -->
<svg width="370pt" height="140pt"
 viewBox="0.00 0.00 369.50 140.00" xmlns="http://www.w3.org/2000/svg" xmlns:xlink="http://www.w3.org/1999/xlink">
<g id="graph0" class="graph" transform="scale(1 1) rotate(0) translate(4 136)">
<title>src/tbb_fake.h</title>
<polygon fill="white" stroke="none" points="-4,4 -4,-136 365.5,-136 365.5,4 -4,4"/>
<!-- Node1 -->
<g id="node1" class="node"><title>Node1</title>
<polygon fill="#bfbfbf" stroke="black" points="115.5,-112.5 115.5,-131.5 192.5,-131.5 192.5,-112.5 115.5,-112.5"/>
<text text-anchor="middle" x="154" y="-119.5" font-family="FreeSans" font-size="10.00">src/tbb_fake.h</text>
</g>
<!-- Node2 -->
<g id="node2" class="node"><title>Node2</title>
<g id="a_node2"><a xlink:href="debugUtils_8h.html" target="_top" xlink:title="debugUtils.h">
<polygon fill="white" stroke="black" points="119.5,-56.5 119.5,-75.5 188.5,-75.5 188.5,-56.5 119.5,-56.5"/>
<text text-anchor="middle" x="154" y="-63.5" font-family="FreeSans" font-size="10.00">debugUtils.h</text>
</a>
</g>
</g>
<!-- Node1&#45;&gt;Node2 -->
<g id="edge1" class="edge"><title>Node1&#45;&gt;Node2</title>
<path fill="none" stroke="midnightblue" d="M154,-112.083C154,-105.006 154,-94.8611 154,-85.9865"/>
<polygon fill="midnightblue" stroke="midnightblue" points="157.5,-85.751 154,-75.7511 150.5,-85.7511 157.5,-85.751"/>
</g>
<!-- Node3 -->
<g id="node3" class="node"><title>Node3</title>
<polygon fill="white" stroke="#bfbfbf" points="0,-0.5 0,-19.5 40,-19.5 40,-0.5 0,-0.5"/>
<text text-anchor="middle" x="20" y="-7.5" font-family="FreeSans" font-size="10.00">string</text>
</g>
<!-- Node2&#45;&gt;Node3 -->
<g id="edge2" class="edge"><title>Node2&#45;&gt;Node3</title>
<path fill="none" stroke="midnightblue" d="M132.767,-56.4435C110.356,-47.4121 74.8575,-33.1067 49.6816,-22.9612"/>
<polygon fill="midnightblue" stroke="midnightblue" points="50.8396,-19.6545 40.2562,-19.1629 48.2232,-26.1471 50.8396,-19.6545"/>
</g>
<!-- Node4 -->
<g id="node4" class="node"><title>Node4</title>
<polygon fill="white" stroke="#bfbfbf" points="58.5,-0.5 58.5,-19.5 111.5,-19.5 111.5,-0.5 58.5,-0.5"/>
<text text-anchor="middle" x="85" y="-7.5" font-family="FreeSans" font-size="10.00">iostream</text>
</g>
<!-- Node2&#45;&gt;Node4 -->
<g id="edge3" class="edge"><title>Node2&#45;&gt;Node4</title>
<path fill="none" stroke="midnightblue" d="M142.914,-56.324C132.514,-48.1849 116.739,-35.8395 104.278,-26.0874"/>
<polygon fill="midnightblue" stroke="midnightblue" points="106.32,-23.2407 96.2878,-19.8339 102.006,-28.7533 106.32,-23.2407"/>
</g>
<!-- Node5 -->
<g id="node5" class="node"><title>Node5</title>
<polygon fill="white" stroke="#bfbfbf" points="129.5,-0.5 129.5,-19.5 178.5,-19.5 178.5,-0.5 129.5,-0.5"/>
<text text-anchor="middle" x="154" y="-7.5" font-family="FreeSans" font-size="10.00">fstream</text>
</g>
<!-- Node2&#45;&gt;Node5 -->
<g id="edge4" class="edge"><title>Node2&#45;&gt;Node5</title>
<path fill="none" stroke="midnightblue" d="M154,-56.083C154,-49.0059 154,-38.8611 154,-29.9865"/>
<polygon fill="midnightblue" stroke="midnightblue" points="157.5,-29.751 154,-19.7511 150.5,-29.7511 157.5,-29.751"/>
</g>
<!-- Node6 -->
<g id="node6" class="node"><title>Node6</title>
<polygon fill="white" stroke="#bfbfbf" points="197,-0.5 197,-19.5 255,-19.5 255,-0.5 197,-0.5"/>
<text text-anchor="middle" x="226" y="-7.5" font-family="FreeSans" font-size="10.00">exception</text>
</g>
<!-- Node2&#45;&gt;Node6 -->
<g id="edge5" class="edge"><title>Node2&#45;&gt;Node6</title>
<path fill="none" stroke="midnightblue" d="M165.568,-56.324C176.42,-48.1849 192.881,-35.8395 205.883,-26.0874"/>
<polygon fill="midnightblue" stroke="midnightblue" points="208.321,-28.6339 214.221,-19.8339 204.121,-23.0339 208.321,-28.6339"/>
</g>
<!-- Node7 -->
<g id="node7" class="node"><title>Node7</title>
<polygon fill="white" stroke="#bfbfbf" points="272.5,-0.5 272.5,-19.5 361.5,-19.5 361.5,-0.5 272.5,-0.5"/>
<text text-anchor="middle" x="317" y="-7.5" font-family="FreeSans" font-size="10.00">boost/format.hpp</text>
</g>
<!-- Node2&#45;&gt;Node7 -->
<g id="edge6" class="edge"><title>Node2&#45;&gt;Node7</title>
<path fill="none" stroke="midnightblue" d="M179.828,-56.4435C207.249,-47.3591 250.777,-32.9388 281.432,-22.7831"/>
<polygon fill="midnightblue" stroke="midnightblue" points="282.901,-25.9837 291.293,-19.5164 280.7,-19.3389 282.901,-25.9837"/>
</g>
</g>
</svg>
