<?xml version="1.0" encoding="UTF-8" standalone="no"?>
<!DOCTYPE svg PUBLIC "-//W3C//DTD SVG 1.1//EN"
 "http://www.w3.org/Graphics/SVG/1.1/DTD/svg11.dtd">
<!-- Generated by graphviz version 2.38.0 (20140413.2041)
 -->
<!-- Title: src/tbb_real.h Pages: 1 -->
<svg width="662pt" height="95pt"
 viewBox="0.00 0.00 662.00 95.00" xmlns="http://www.w3.org/2000/svg" xmlns:xlink="http://www.w3.org/1999/xlink">
<g id="graph0" class="graph" transform="scale(1 1) rotate(0) translate(4 91)">
<title>src/tbb_real.h</title>
<polygon fill="white" stroke="none" points="-4,4 -4,-91 658,-91 658,4 -4,4"/>
<!-- Node1 -->
<g id="node1" class="node"><title>Node1</title>
<polygon fill="#bfbfbf" stroke="black" points="304,-67.5 304,-86.5 378,-86.5 378,-67.5 304,-67.5"/>
<text text-anchor="middle" x="341" y="-74.5" font-family="FreeSans" font-size="10.00">src/tbb_real.h</text>
</g>
<!-- Node2 -->
<g id="node2" class="node"><title>Node2</title>
<polygon fill="white" stroke="#bfbfbf" points="0,-6 0,-25 104,-25 104,-6 0,-6"/>
<text text-anchor="middle" x="52" y="-13" font-family="FreeSans" font-size="10.00">tbb/blocked_range.h</text>
</g>
<!-- Node1&#45;&gt;Node2 -->
<g id="edge1" class="edge"><title>Node1&#45;&gt;Node2</title>
<path fill="none" stroke="midnightblue" d="M303.787,-69.1111C258.575,-60.6362 180.023,-45.5744 113,-31 107.682,-29.8435 102.114,-28.5856 96.5967,-27.3101"/>
<polygon fill="midnightblue" stroke="midnightblue" points="97.3205,-23.885 86.7859,-25.0132 95.7248,-30.7007 97.3205,-23.885"/>
</g>
<!-- Node3 -->
<g id="node3" class="node"><title>Node3</title>
<polygon fill="white" stroke="#bfbfbf" points="122,-6 122,-25 210,-25 210,-6 122,-6"/>
<text text-anchor="middle" x="166" y="-13" font-family="FreeSans" font-size="10.00">tbb/parallel_for.h</text>
</g>
<!-- Node1&#45;&gt;Node3 -->
<g id="edge2" class="edge"><title>Node1&#45;&gt;Node3</title>
<path fill="none" stroke="midnightblue" d="M315.927,-67.4751C285.648,-57.1804 234.56,-39.8103 200.559,-28.2502"/>
<polygon fill="midnightblue" stroke="midnightblue" points="201.621,-24.9145 191.027,-25.0091 199.368,-31.5419 201.621,-24.9145"/>
</g>
<!-- Node4 -->
<g id="node4" class="node"><title>Node4</title>
<polygon fill="white" stroke="#bfbfbf" points="228,-0.5 228,-30.5 344,-30.5 344,-0.5 228,-0.5"/>
<text text-anchor="start" x="236" y="-18.5" font-family="FreeSans" font-size="10.00">tbb/enumerable_thread</text>
<text text-anchor="middle" x="286" y="-7.5" font-family="FreeSans" font-size="10.00">_specific.h</text>
</g>
<!-- Node1&#45;&gt;Node4 -->
<g id="edge3" class="edge"><title>Node1&#45;&gt;Node4</title>
<path fill="none" stroke="midnightblue" d="M333.12,-67.4751C326.019,-59.7932 315.276,-48.1717 305.841,-37.9643"/>
<polygon fill="midnightblue" stroke="midnightblue" points="308.321,-35.4905 298.962,-30.523 303.18,-40.2421 308.321,-35.4905"/>
</g>
<!-- Node5 -->
<g id="node5" class="node"><title>Node5</title>
<polygon fill="white" stroke="#bfbfbf" points="362.5,-6 362.5,-25 429.5,-25 429.5,-6 362.5,-6"/>
<text text-anchor="middle" x="396" y="-13" font-family="FreeSans" font-size="10.00">tbb/mutex.h</text>
</g>
<!-- Node1&#45;&gt;Node5 -->
<g id="edge4" class="edge"><title>Node1&#45;&gt;Node5</title>
<path fill="none" stroke="midnightblue" d="M348.88,-67.4751C357.294,-58.3733 370.819,-43.741 381.226,-32.483"/>
<polygon fill="midnightblue" stroke="midnightblue" points="383.917,-34.7282 388.134,-25.0091 378.776,-29.9766 383.917,-34.7282"/>
</g>
<!-- Node6 -->
<g id="node6" class="node"><title>Node6</title>
<polygon fill="white" stroke="#bfbfbf" points="448,-0.5 448,-30.5 546,-30.5 546,-0.5 448,-0.5"/>
<text text-anchor="start" x="456" y="-18.5" font-family="FreeSans" font-size="10.00">tbb/task_scheduler</text>
<text text-anchor="middle" x="497" y="-7.5" font-family="FreeSans" font-size="10.00">_init.h</text>
</g>
<!-- Node1&#45;&gt;Node6 -->
<g id="edge5" class="edge"><title>Node1&#45;&gt;Node6</title>
<path fill="none" stroke="midnightblue" d="M363.351,-67.4751C386.059,-58.8142 421.896,-45.1454 450.747,-34.1415"/>
<polygon fill="midnightblue" stroke="midnightblue" points="452.138,-37.3569 460.234,-30.523 449.643,-30.8165 452.138,-37.3569"/>
</g>
<!-- Node7 -->
<g id="node7" class="node"><title>Node7</title>
<polygon fill="white" stroke="#bfbfbf" points="564,-6 564,-25 654,-25 654,-6 564,-6"/>
<text text-anchor="middle" x="609" y="-13" font-family="FreeSans" font-size="10.00">tbb/combinable.h</text>
</g>
<!-- Node1&#45;&gt;Node7 -->
<g id="edge6" class="edge"><title>Node1&#45;&gt;Node7</title>
<path fill="none" stroke="midnightblue" d="M378.252,-68.8133C421.057,-60.4058 493.338,-45.7501 555,-31 559.366,-29.9555 563.918,-28.8152 568.444,-27.6477"/>
<polygon fill="midnightblue" stroke="midnightblue" points="569.452,-31.0019 578.234,-25.0752 567.673,-24.2317 569.452,-31.0019"/>
</g>
</g>
</svg>
