<?xml version="1.0" encoding="UTF-8" standalone="no"?>
<!DOCTYPE svg PUBLIC "-//W3C//DTD SVG 1.1//EN"
 "http://www.w3.org/Graphics/SVG/1.1/DTD/svg11.dtd">
<!-- Generated by graphviz version 8.1.0 (20230707.2238)
 -->
<!-- Title: src/tbb_real.h Pages: 1 -->
<svg width="610pt" height="313pt"
 viewBox="0.00 0.00 610.38 312.50" xmlns="http://www.w3.org/2000/svg" xmlns:xlink="http://www.w3.org/1999/xlink">
<g id="graph0" class="graph" transform="scale(1 1) rotate(0) translate(4 308.5)">
<title>src/tbb_real.h</title>
<!-- Node1 -->
<g id="Node000001" class="node">
<title>Node1</title>
<g id="a_Node000001"><a xlink:title=" ">
<polygon fill="#999999" stroke="#666666" points="424.75,-304.5 342.75,-304.5 342.75,-283.75 424.75,-283.75 424.75,-304.5"/>
<text text-anchor="middle" x="383.75" y="-291" font-family="FreeSans" font-size="10.00">src/tbb_real.h</text>
</a>
</g>
</g>
<!-- Node2 -->
<g id="Node000002" class="node">
<title>Node2</title>
<g id="a_Node000002"><a xlink:href="tbb__tools_8h.html" target="_top" xlink:title=" ">
<polygon fill="white" stroke="#666666" points="427.38,-247.75 340.12,-247.75 340.12,-227 427.38,-227 427.38,-247.75"/>
<text text-anchor="middle" x="383.75" y="-234.25" font-family="FreeSans" font-size="10.00">src/tbb_tools.h</text>
</a>
</g>
</g>
<!-- Node1&#45;&gt;Node2 -->
<g id="edge1_Node000001_Node000002" class="edge">
<title>Node1&#45;&gt;Node2</title>
<g id="a_edge1_Node000001_Node000002"><a xlink:title=" ">
<path fill="none" stroke="#63b8ff" d="M383.75,-272.46C383.75,-264.09 383.75,-254.83 383.75,-248.08"/>
<polygon fill="#63b8ff" stroke="#63b8ff" points="380.25,-272.34 383.75,-282.34 387.25,-272.34 380.25,-272.34"/>
</a>
</g>
</g>
<!-- Node3 -->
<g id="Node000003" class="node">
<title>Node3</title>
<g id="a_Node000003"><a xlink:href="convectionSystem_8cpp.html" target="_top" xlink:title=" ">
<polygon fill="white" stroke="#666666" points="143.5,-77.5 0,-77.5 0,-56.75 143.5,-56.75 143.5,-77.5"/>
<text text-anchor="middle" x="71.75" y="-64" font-family="FreeSans" font-size="10.00">src/convectionSystem.cpp</text>
</a>
</g>
</g>
<!-- Node2&#45;&gt;Node3 -->
<g id="edge2_Node000002_Node000003" class="edge">
<title>Node2&#45;&gt;Node3</title>
<g id="a_edge2_Node000002_Node000003"><a xlink:title=" ">
<path fill="none" stroke="#63b8ff" d="M329.12,-227.97C242.02,-213.33 77.97,-180.25 43.75,-134.25 30.51,-116.44 49.22,-91.43 61.85,-77.84"/>
<polygon fill="#63b8ff" stroke="#63b8ff" points="328.42,-231.57 338.86,-229.75 329.57,-224.66 328.42,-231.57"/>
</a>
</g>
</g>
<!-- Node4 -->
<g id="Node000004" class="node">
<title>Node4</title>
<g id="a_Node000004"><a xlink:href="flameSolver_8h.html" target="_top" xlink:title=" ">
<polygon fill="white" stroke="#666666" points="596.75,-77.5 496.75,-77.5 496.75,-56.75 596.75,-56.75 596.75,-77.5"/>
<text text-anchor="middle" x="546.75" y="-64" font-family="FreeSans" font-size="10.00">src/flameSolver.h</text>
</a>
</g>
</g>
<!-- Node2&#45;&gt;Node4 -->
<g id="edge3_Node000002_Node000004" class="edge">
<title>Node2&#45;&gt;Node4</title>
<g id="a_edge3_Node000002_Node000004"><a xlink:title=" ">
<path fill="none" stroke="#63b8ff" d="M437.94,-224.96C485.12,-211.85 550.69,-185.22 581.75,-134.25 593.65,-114.73 572.64,-90.79 558.35,-77.74"/>
<polygon fill="#63b8ff" stroke="#63b8ff" points="437.34,-221.77 428.57,-227.71 439.13,-228.53 437.34,-221.77"/>
</a>
</g>
</g>
<!-- Node6 -->
<g id="Node000006" class="node">
<title>Node6</title>
<g id="a_Node000006"><a xlink:href="perfTimer_8h.html" target="_top" xlink:title=" ">
<polygon fill="white" stroke="#666666" points="428.5,-191 339,-191 339,-170.25 428.5,-170.25 428.5,-191"/>
<text text-anchor="middle" x="383.75" y="-177.5" font-family="FreeSans" font-size="10.00">src/perfTimer.h</text>
</a>
</g>
</g>
<!-- Node2&#45;&gt;Node6 -->
<g id="edge5_Node000002_Node000006" class="edge">
<title>Node2&#45;&gt;Node6</title>
<g id="a_edge5_Node000002_Node000006"><a xlink:title=" ">
<path fill="none" stroke="#63b8ff" d="M383.75,-215.71C383.75,-207.34 383.75,-198.08 383.75,-191.33"/>
<polygon fill="#63b8ff" stroke="#63b8ff" points="380.25,-215.59 383.75,-225.59 387.25,-215.59 380.25,-215.59"/>
</a>
</g>
</g>
<!-- Node5 -->
<g id="Node000005" class="node">
<title>Node5</title>
<g id="a_Node000005"><a xlink:href="flameSolver_8cpp.html" target="_top" xlink:title=" ">
<polygon fill="white" stroke="#666666" points="602.38,-20.75 491.12,-20.75 491.12,0 602.38,0 602.38,-20.75"/>
<text text-anchor="middle" x="546.75" y="-7.25" font-family="FreeSans" font-size="10.00">src/flameSolver.cpp</text>
</a>
</g>
</g>
<!-- Node4&#45;&gt;Node5 -->
<g id="edge4_Node000004_Node000005" class="edge">
<title>Node4&#45;&gt;Node5</title>
<g id="a_edge4_Node000004_Node000005"><a xlink:title=" ">
<path fill="none" stroke="#63b8ff" d="M546.75,-45.46C546.75,-37.09 546.75,-27.83 546.75,-21.08"/>
<polygon fill="#63b8ff" stroke="#63b8ff" points="543.25,-45.34 546.75,-55.34 550.25,-45.34 543.25,-45.34"/>
</a>
</g>
</g>
<!-- Node6&#45;&gt;Node4 -->
<g id="edge9_Node000006_Node000004" class="edge">
<title>Node6&#45;&gt;Node4</title>
<g id="a_edge9_Node000006_Node000004"><a xlink:title=" ">
<path fill="none" stroke="#63b8ff" d="M439.62,-173.23C487.2,-166.49 550.27,-154.07 565.75,-134.25 578.99,-117.31 564.22,-91.5 554.28,-77.67"/>
<polygon fill="#63b8ff" stroke="#63b8ff" points="439.25,-169.88 429.81,-174.7 440.19,-176.82 439.25,-169.88"/>
</a>
</g>
</g>
<!-- Node7 -->
<g id="Node000007" class="node">
<title>Node7</title>
<g id="a_Node000007"><a xlink:href="convectionSystem_8h.html" target="_top" xlink:title=" ">
<polygon fill="white" stroke="#666666" points="184.88,-134.25 52.62,-134.25 52.62,-113.5 184.88,-113.5 184.88,-134.25"/>
<text text-anchor="middle" x="118.75" y="-120.75" font-family="FreeSans" font-size="10.00">src/convectionSystem.h</text>
</a>
</g>
</g>
<!-- Node6&#45;&gt;Node7 -->
<g id="edge6_Node000006_Node000007" class="edge">
<title>Node6&#45;&gt;Node7</title>
<g id="a_edge6_Node000006_Node000007"><a xlink:title=" ">
<path fill="none" stroke="#63b8ff" d="M328.28,-168.16C280.29,-158.25 211.64,-144.07 166.16,-134.67"/>
<polygon fill="#63b8ff" stroke="#63b8ff" points="327.3,-171.74 337.8,-170.34 328.71,-164.89 327.3,-171.74"/>
</a>
</g>
</g>
<!-- Node8 -->
<g id="Node000008" class="node">
<title>Node8</title>
<g id="a_Node000008"><a xlink:href="perfTimer_8cpp.html" target="_top" xlink:title=" ">
<polygon fill="white" stroke="#666666" points="304.12,-134.25 203.38,-134.25 203.38,-113.5 304.12,-113.5 304.12,-134.25"/>
<text text-anchor="middle" x="253.75" y="-120.75" font-family="FreeSans" font-size="10.00">src/perfTimer.cpp</text>
</a>
</g>
</g>
<!-- Node6&#45;&gt;Node8 -->
<g id="edge10_Node000006_Node000008" class="edge">
<title>Node6&#45;&gt;Node8</title>
<g id="a_edge10_Node000006_Node000008"><a xlink:title=" ">
<path fill="none" stroke="#63b8ff" d="M350.46,-165.61C327.39,-155.89 297.25,-143.19 276.79,-134.58"/>
<polygon fill="#63b8ff" stroke="#63b8ff" points="348.93,-169.18 359.51,-169.84 351.65,-162.73 348.93,-169.18"/>
</a>
</g>
</g>
<!-- Node9 -->
<g id="Node000009" class="node">
<title>Node9</title>
<g id="a_Node000009"><a xlink:href="sourceSystem_8cpp.html" target="_top" xlink:title=" ">
<polygon fill="white" stroke="#666666" points="445,-134.25 322.5,-134.25 322.5,-113.5 445,-113.5 445,-134.25"/>
<text text-anchor="middle" x="383.75" y="-120.75" font-family="FreeSans" font-size="10.00">src/sourceSystem.cpp</text>
</a>
</g>
</g>
<!-- Node6&#45;&gt;Node9 -->
<g id="edge11_Node000006_Node000009" class="edge">
<title>Node6&#45;&gt;Node9</title>
<g id="a_edge11_Node000006_Node000009"><a xlink:title=" ">
<path fill="none" stroke="#63b8ff" d="M383.75,-158.96C383.75,-150.59 383.75,-141.33 383.75,-134.58"/>
<polygon fill="#63b8ff" stroke="#63b8ff" points="380.25,-158.84 383.75,-168.84 387.25,-158.84 380.25,-158.84"/>
</a>
</g>
</g>
<!-- Node10 -->
<g id="Node000010" class="node">
<title>Node10</title>
<g id="a_Node000010"><a xlink:href="splitSolver_8h.html" target="_top" xlink:title=" ">
<polygon fill="#fff0f0" stroke="red" points="556.38,-134.25 463.12,-134.25 463.12,-113.5 556.38,-113.5 556.38,-134.25"/>
<text text-anchor="middle" x="509.75" y="-120.75" font-family="FreeSans" font-size="10.00">src/splitSolver.h</text>
</a>
</g>
</g>
<!-- Node6&#45;&gt;Node10 -->
<g id="edge12_Node000006_Node000010" class="edge">
<title>Node6&#45;&gt;Node10</title>
<g id="a_edge12_Node000006_Node000010"><a xlink:title=" ">
<path fill="none" stroke="#63b8ff" d="M416.32,-165.47C438.64,-155.77 467.68,-143.16 487.42,-134.58"/>
<polygon fill="#63b8ff" stroke="#63b8ff" points="415.05,-162.64 407.28,-169.84 417.84,-169.06 415.05,-162.64"/>
</a>
</g>
</g>
<!-- Node7&#45;&gt;Node3 -->
<g id="edge7_Node000007_Node000003" class="edge">
<title>Node7&#45;&gt;Node3</title>
<g id="a_edge7_Node000007_Node000003"><a xlink:title=" ">
<path fill="none" stroke="#63b8ff" d="M103.21,-104.77C95.49,-95.78 86.48,-85.28 80.08,-77.83"/>
<polygon fill="#63b8ff" stroke="#63b8ff" points="101.18,-106.78 110.35,-112.09 106.49,-102.22 101.18,-106.78"/>
</a>
</g>
</g>
<!-- Node7&#45;&gt;Node4 -->
<g id="edge8_Node000007_Node000004" class="edge">
<title>Node7&#45;&gt;Node4</title>
<g id="a_edge8_Node000007_Node000004"><a xlink:title=" ">
<path fill="none" stroke="#63b8ff" d="M196.03,-112.99C283.1,-101.85 422.11,-84.07 496.27,-74.58"/>
<polygon fill="#63b8ff" stroke="#63b8ff" points="195.63,-109.64 186.16,-114.38 196.52,-116.58 195.63,-109.64"/>
</a>
</g>
</g>
<!-- Node10&#45;&gt;Node4 -->
<g id="edge13_Node000010_Node000004" class="edge">
<title>Node10&#45;&gt;Node4</title>
<g id="a_edge13_Node000010_Node000004"><a xlink:title=" ">
<path fill="none" stroke="#63b8ff" d="M522.37,-104.21C528.35,-95.34 535.26,-85.12 540.19,-77.83"/>
<polygon fill="#63b8ff" stroke="#63b8ff" points="519.06,-101.84 516.36,-112.09 524.86,-105.76 519.06,-101.84"/>
</a>
</g>
</g>
</g>
</svg>
