<?xml version="1.0" encoding="UTF-8" standalone="no"?>
<!DOCTYPE svg PUBLIC "-//W3C//DTD SVG 1.1//EN"
 "http://www.w3.org/Graphics/SVG/1.1/DTD/svg11.dtd">
<!-- Generated by graphviz version 2.38.0 (20140413.2041)
 -->
<!-- Title: src/tbb_tools.h Pages: 1 -->
<svg width="622pt" height="196pt"
 viewBox="0.00 0.00 622.00 196.00" xmlns="http://www.w3.org/2000/svg" xmlns:xlink="http://www.w3.org/1999/xlink">
<g id="graph0" class="graph" transform="scale(1 1) rotate(0) translate(4 192)">
<title>src/tbb_tools.h</title>
<polygon fill="white" stroke="none" points="-4,4 -4,-192 618,-192 618,4 -4,4"/>
<!-- Node1 -->
<g id="node1" class="node"><title>Node1</title>
<polygon fill="#bfbfbf" stroke="black" points="42,-168.5 42,-187.5 121,-187.5 121,-168.5 42,-168.5"/>
<text text-anchor="middle" x="81.5" y="-175.5" font-family="FreeSans" font-size="10.00">src/tbb_tools.h</text>
</g>
<!-- Node2 -->
<g id="node2" class="node"><title>Node2</title>
<g id="a_node2"><a xlink:href="perfTimer_8h.html" target="_top" xlink:title="src/perfTimer.h">
<polygon fill="white" stroke="black" points="254,-112.5 254,-131.5 335,-131.5 335,-112.5 254,-112.5"/>
<text text-anchor="middle" x="294.5" y="-119.5" font-family="FreeSans" font-size="10.00">src/perfTimer.h</text>
</a>
</g>
</g>
<!-- Node1&#45;&gt;Node2 -->
<g id="edge1" class="edge"><title>Node1&#45;&gt;Node2</title>
<path fill="none" stroke="midnightblue" d="M125.051,-165.959C165.281,-155.76 224.203,-140.822 260.907,-131.516"/>
<polygon fill="midnightblue" stroke="midnightblue" points="124.084,-162.593 115.25,-168.444 125.804,-169.379 124.084,-162.593"/>
</g>
<!-- Node4 -->
<g id="node4" class="node"><title>Node4</title>
<g id="a_node4"><a xlink:href="convectionSystem_8cpp.html" target="_top" xlink:title="src/convectionSystem.cpp">
<polygon fill="white" stroke="black" points="0,-0.5 0,-19.5 129,-19.5 129,-0.5 0,-0.5"/>
<text text-anchor="middle" x="64.5" y="-7.5" font-family="FreeSans" font-size="10.00">src/convectionSystem.cpp</text>
</a>
</g>
</g>
<!-- Node1&#45;&gt;Node4 -->
<g id="edge11" class="edge"><title>Node1&#45;&gt;Node4</title>
<path fill="none" stroke="midnightblue" d="M74.5523,-158.723C71.8164,-150.655 68.9789,-140.981 67.5,-132 60.6373,-90.3243 62.7018,-39.4996 63.9056,-19.5845"/>
<polygon fill="midnightblue" stroke="midnightblue" points="71.2876,-159.988 77.9677,-168.211 77.8739,-157.617 71.2876,-159.988"/>
</g>
<!-- Node5 -->
<g id="node5" class="node"><title>Node5</title>
<g id="a_node5"><a xlink:href="flameSolver_8h.html" target="_top" xlink:title="src/flameSolver.h">
<polygon fill="white" stroke="red" points="190.5,-0.5 190.5,-19.5 280.5,-19.5 280.5,-0.5 190.5,-0.5"/>
<text text-anchor="middle" x="235.5" y="-7.5" font-family="FreeSans" font-size="10.00">src/flameSolver.h</text>
</a>
</g>
</g>
<!-- Node1&#45;&gt;Node5 -->
<g id="edge12" class="edge"><title>Node1&#45;&gt;Node5</title>
<path fill="none" stroke="midnightblue" d="M78.9306,-158.444C76.4156,-132.409 75.9677,-84.9843 100.5,-56 122.606,-29.8825 160.307,-18.8535 190.258,-14.2314"/>
<polygon fill="midnightblue" stroke="midnightblue" points="75.4653,-158.945 80.1086,-168.468 82.4174,-158.128 75.4653,-158.945"/>
</g>
<!-- Node3 -->
<g id="node3" class="node"><title>Node3</title>
<g id="a_node3"><a xlink:href="convectionSystem_8h.html" target="_top" xlink:title="src/convectionSystem.h">
<polygon fill="white" stroke="black" points="110,-56.5 110,-75.5 229,-75.5 229,-56.5 110,-56.5"/>
<text text-anchor="middle" x="169.5" y="-63.5" font-family="FreeSans" font-size="10.00">src/convectionSystem.h</text>
</a>
</g>
</g>
<!-- Node2&#45;&gt;Node3 -->
<g id="edge2" class="edge"><title>Node2&#45;&gt;Node3</title>
<path fill="none" stroke="midnightblue" d="M265.259,-108.368C241.85,-98.2553 209.659,-84.3486 189.214,-75.5164"/>
<polygon fill="midnightblue" stroke="midnightblue" points="264.125,-111.691 274.693,-112.444 266.901,-105.265 264.125,-111.691"/>
</g>
<!-- Node2&#45;&gt;Node5 -->
<g id="edge8" class="edge"><title>Node2&#45;&gt;Node5</title>
<path fill="none" stroke="midnightblue" d="M285.017,-103.32C272.171,-79.3697 249.74,-37.5484 240.108,-19.5914"/>
<polygon fill="midnightblue" stroke="midnightblue" points="282.059,-105.21 289.87,-112.368 288.228,-101.902 282.059,-105.21"/>
</g>
<!-- Node6 -->
<g id="node6" class="node"><title>Node6</title>
<g id="a_node6"><a xlink:href="splitSolver_8h.html" target="_top" xlink:title="src/splitSolver.h">
<polygon fill="white" stroke="black" points="524.5,-56.5 524.5,-75.5 608.5,-75.5 608.5,-56.5 524.5,-56.5"/>
<text text-anchor="middle" x="566.5" y="-63.5" font-family="FreeSans" font-size="10.00">src/splitSolver.h</text>
</a>
</g>
</g>
<!-- Node2&#45;&gt;Node6 -->
<g id="edge5" class="edge"><title>Node2&#45;&gt;Node6</title>
<path fill="none" stroke="midnightblue" d="M345.153,-110.944C396.733,-100.704 475.799,-85.0067 524.155,-75.4067"/>
<polygon fill="midnightblue" stroke="midnightblue" points="344.348,-107.535 335.221,-112.916 345.711,-114.401 344.348,-107.535"/>
</g>
<!-- Node8 -->
<g id="node8" class="node"><title>Node8</title>
<g id="a_node8"><a xlink:href="perfTimer_8cpp.html" target="_top" xlink:title="src/perfTimer.cpp">
<polygon fill="white" stroke="black" points="285.5,-56.5 285.5,-75.5 377.5,-75.5 377.5,-56.5 285.5,-56.5"/>
<text text-anchor="middle" x="331.5" y="-63.5" font-family="FreeSans" font-size="10.00">src/perfTimer.cpp</text>
</a>
</g>
</g>
<!-- Node2&#45;&gt;Node8 -->
<g id="edge9" class="edge"><title>Node2&#45;&gt;Node8</title>
<path fill="none" stroke="midnightblue" d="M306.446,-103.566C312.812,-94.2747 320.367,-83.2484 325.504,-75.7511"/>
<polygon fill="midnightblue" stroke="midnightblue" points="303.375,-101.855 300.61,-112.083 309.149,-105.812 303.375,-101.855"/>
</g>
<!-- Node9 -->
<g id="node9" class="node"><title>Node9</title>
<g id="a_node9"><a xlink:href="sourceSystem_8cpp.html" target="_top" xlink:title="src/sourceSystem.cpp">
<polygon fill="white" stroke="black" points="396,-56.5 396,-75.5 507,-75.5 507,-56.5 396,-56.5"/>
<text text-anchor="middle" x="451.5" y="-63.5" font-family="FreeSans" font-size="10.00">src/sourceSystem.cpp</text>
</a>
</g>
</g>
<!-- Node2&#45;&gt;Node9 -->
<g id="edge10" class="edge"><title>Node2&#45;&gt;Node9</title>
<path fill="none" stroke="midnightblue" d="M328.889,-109.172C358.452,-99.0039 400.373,-84.5852 426.739,-75.5164"/>
<polygon fill="midnightblue" stroke="midnightblue" points="327.695,-105.881 319.377,-112.444 329.972,-112.501 327.695,-105.881"/>
</g>
<!-- Node3&#45;&gt;Node4 -->
<g id="edge3" class="edge"><title>Node3&#45;&gt;Node4</title>
<path fill="none" stroke="midnightblue" d="M143.69,-51.7261C124.247,-41.7271 98.1516,-28.3065 81.3282,-19.6545"/>
<polygon fill="midnightblue" stroke="midnightblue" points="142.136,-54.8629 152.63,-56.324 145.338,-48.6379 142.136,-54.8629"/>
</g>
<!-- Node3&#45;&gt;Node5 -->
<g id="edge4" class="edge"><title>Node3&#45;&gt;Node5</title>
<path fill="none" stroke="midnightblue" d="M188.054,-49.8197C199.878,-40.1452 214.786,-27.9481 224.703,-19.8339"/>
<polygon fill="midnightblue" stroke="midnightblue" points="185.627,-47.2827 180.104,-56.324 190.06,-52.7004 185.627,-47.2827"/>
</g>
<!-- Node6&#45;&gt;Node5 -->
<g id="edge6" class="edge"><title>Node6&#45;&gt;Node5</title>
<path fill="none" stroke="midnightblue" d="M514.52,-55.855C425.787,-40.9462 334.005,-26.404 280.635,-18.036"/>
<polygon fill="midnightblue" stroke="midnightblue" points="514.042,-59.3236 524.484,-57.5329 515.204,-52.4208 514.042,-59.3236"/>
</g>
<!-- Node7 -->
<g id="node7" class="node"><title>Node7</title>
<g id="a_node7"><a xlink:href="splitSolver_8cpp.html" target="_top" xlink:title="src/splitSolver.cpp">
<polygon fill="white" stroke="black" points="519,-0.5 519,-19.5 614,-19.5 614,-0.5 519,-0.5"/>
<text text-anchor="middle" x="566.5" y="-7.5" font-family="FreeSans" font-size="10.00">src/splitSolver.cpp</text>
</a>
</g>
</g>
<!-- Node6&#45;&gt;Node7 -->
<g id="edge7" class="edge"><title>Node6&#45;&gt;Node7</title>
<path fill="none" stroke="midnightblue" d="M566.5,-45.8045C566.5,-36.9102 566.5,-26.7798 566.5,-19.7511"/>
<polygon fill="midnightblue" stroke="midnightblue" points="563,-46.083 566.5,-56.083 570,-46.083 563,-46.083"/>
</g>
</g>
</svg>
