<?xml version="1.0" encoding="UTF-8" standalone="no"?>
<!DOCTYPE svg PUBLIC "-//W3C//DTD SVG 1.1//EN"
 "http://www.w3.org/Graphics/SVG/1.1/DTD/svg11.dtd">
<!-- Generated by graphviz version 2.38.0 (20140413.2041)
 -->
<!-- Title: src/tbb_tools.h Pages: 1 -->
<svg width="662pt" height="151pt"
 viewBox="0.00 0.00 662.00 151.00" xmlns="http://www.w3.org/2000/svg" xmlns:xlink="http://www.w3.org/1999/xlink">
<g id="graph0" class="graph" transform="scale(1 1) rotate(0) translate(4 147)">
<title>src/tbb_tools.h</title>
<polygon fill="white" stroke="none" points="-4,4 -4,-147 658,-147 658,4 -4,4"/>
<!-- Node1 -->
<g id="node1" class="node"><title>Node1</title>
<polygon fill="#bfbfbf" stroke="black" points="264.5,-123.5 264.5,-142.5 343.5,-142.5 343.5,-123.5 264.5,-123.5"/>
<text text-anchor="middle" x="304" y="-130.5" font-family="FreeSans" font-size="10.00">src/tbb_tools.h</text>
</g>
<!-- Node2 -->
<g id="node2" class="node"><title>Node2</title>
<g id="a_node2"><a xlink:href="config_8h.html" target="_top" xlink:title="config.h">
<polygon fill="white" stroke="black" points="243,-67.5 243,-86.5 293,-86.5 293,-67.5 243,-67.5"/>
<text text-anchor="middle" x="268" y="-74.5" font-family="FreeSans" font-size="10.00">config.h</text>
</a>
</g>
</g>
<!-- Node1&#45;&gt;Node2 -->
<g id="edge1" class="edge"><title>Node1&#45;&gt;Node2</title>
<path fill="none" stroke="midnightblue" d="M298.055,-123.083C293.023,-115.534 285.663,-104.495 279.487,-95.2298"/>
<polygon fill="midnightblue" stroke="midnightblue" points="282.293,-93.1301 273.834,-86.7511 276.469,-97.0131 282.293,-93.1301"/>
</g>
<!-- Node3 -->
<g id="node3" class="node"><title>Node3</title>
<g id="a_node3"><a xlink:href="tbb__real_8h.html" target="_top" xlink:title="tbb_real.h">
<polygon fill="white" stroke="black" points="311.5,-67.5 311.5,-86.5 370.5,-86.5 370.5,-67.5 311.5,-67.5"/>
<text text-anchor="middle" x="341" y="-74.5" font-family="FreeSans" font-size="10.00">tbb_real.h</text>
</a>
</g>
</g>
<!-- Node1&#45;&gt;Node3 -->
<g id="edge2" class="edge"><title>Node1&#45;&gt;Node3</title>
<path fill="none" stroke="midnightblue" d="M310.11,-123.083C315.282,-115.534 322.846,-104.495 329.194,-95.2298"/>
<polygon fill="midnightblue" stroke="midnightblue" points="332.239,-96.9787 335.004,-86.7511 326.464,-93.0221 332.239,-96.9787"/>
</g>
<!-- Node4 -->
<g id="node4" class="node"><title>Node4</title>
<polygon fill="white" stroke="#bfbfbf" points="0,-6 0,-25 104,-25 104,-6 0,-6"/>
<text text-anchor="middle" x="52" y="-13" font-family="FreeSans" font-size="10.00">tbb/blocked_range.h</text>
</g>
<!-- Node3&#45;&gt;Node4 -->
<g id="edge3" class="edge"><title>Node3&#45;&gt;Node4</title>
<path fill="none" stroke="midnightblue" d="M311.216,-69.0022C308.107,-68.3092 304.992,-67.6299 302,-67 218.324,-49.3828 196.617,-48.8922 113,-31 107.678,-29.8612 102.108,-28.6141 96.5893,-27.3444"/>
<polygon fill="midnightblue" stroke="midnightblue" points="97.3112,-23.9189 86.7773,-25.0533 95.7195,-30.7355 97.3112,-23.9189"/>
</g>
<!-- Node5 -->
<g id="node5" class="node"><title>Node5</title>
<polygon fill="white" stroke="#bfbfbf" points="122,-6 122,-25 210,-25 210,-6 122,-6"/>
<text text-anchor="middle" x="166" y="-13" font-family="FreeSans" font-size="10.00">tbb/parallel_for.h</text>
</g>
<!-- Node3&#45;&gt;Node5 -->
<g id="edge4" class="edge"><title>Node3&#45;&gt;Node5</title>
<path fill="none" stroke="midnightblue" d="M315.927,-67.4751C285.648,-57.1804 234.56,-39.8103 200.559,-28.2502"/>
<polygon fill="midnightblue" stroke="midnightblue" points="201.621,-24.9145 191.027,-25.0091 199.368,-31.5419 201.621,-24.9145"/>
</g>
<!-- Node6 -->
<g id="node6" class="node"><title>Node6</title>
<polygon fill="white" stroke="#bfbfbf" points="228,-0.5 228,-30.5 344,-30.5 344,-0.5 228,-0.5"/>
<text text-anchor="start" x="236" y="-18.5" font-family="FreeSans" font-size="10.00">tbb/enumerable_thread</text>
<text text-anchor="middle" x="286" y="-7.5" font-family="FreeSans" font-size="10.00">_specific.h</text>
</g>
<!-- Node3&#45;&gt;Node6 -->
<g id="edge5" class="edge"><title>Node3&#45;&gt;Node6</title>
<path fill="none" stroke="midnightblue" d="M333.12,-67.4751C326.019,-59.7932 315.276,-48.1717 305.841,-37.9643"/>
<polygon fill="midnightblue" stroke="midnightblue" points="308.321,-35.4905 298.962,-30.523 303.18,-40.2421 308.321,-35.4905"/>
</g>
<!-- Node7 -->
<g id="node7" class="node"><title>Node7</title>
<polygon fill="white" stroke="#bfbfbf" points="362.5,-6 362.5,-25 429.5,-25 429.5,-6 362.5,-6"/>
<text text-anchor="middle" x="396" y="-13" font-family="FreeSans" font-size="10.00">tbb/mutex.h</text>
</g>
<!-- Node3&#45;&gt;Node7 -->
<g id="edge6" class="edge"><title>Node3&#45;&gt;Node7</title>
<path fill="none" stroke="midnightblue" d="M348.88,-67.4751C357.294,-58.3733 370.819,-43.741 381.226,-32.483"/>
<polygon fill="midnightblue" stroke="midnightblue" points="383.917,-34.7282 388.134,-25.0091 378.776,-29.9766 383.917,-34.7282"/>
</g>
<!-- Node8 -->
<g id="node8" class="node"><title>Node8</title>
<polygon fill="white" stroke="#bfbfbf" points="448,-0.5 448,-30.5 546,-30.5 546,-0.5 448,-0.5"/>
<text text-anchor="start" x="456" y="-18.5" font-family="FreeSans" font-size="10.00">tbb/task_scheduler</text>
<text text-anchor="middle" x="497" y="-7.5" font-family="FreeSans" font-size="10.00">_init.h</text>
</g>
<!-- Node3&#45;&gt;Node8 -->
<g id="edge7" class="edge"><title>Node3&#45;&gt;Node8</title>
<path fill="none" stroke="midnightblue" d="M363.351,-67.4751C386.059,-58.8142 421.896,-45.1454 450.747,-34.1415"/>
<polygon fill="midnightblue" stroke="midnightblue" points="452.138,-37.3569 460.234,-30.523 449.643,-30.8165 452.138,-37.3569"/>
</g>
<!-- Node9 -->
<g id="node9" class="node"><title>Node9</title>
<polygon fill="white" stroke="#bfbfbf" points="564,-6 564,-25 654,-25 654,-6 564,-6"/>
<text text-anchor="middle" x="609" y="-13" font-family="FreeSans" font-size="10.00">tbb/combinable.h</text>
</g>
<!-- Node3&#45;&gt;Node9 -->
<g id="edge8" class="edge"><title>Node3&#45;&gt;Node9</title>
<path fill="none" stroke="midnightblue" d="M370.538,-70.3235C411.926,-62.2484 489.461,-46.6775 555,-31 559.366,-29.9555 563.918,-28.8152 568.444,-27.6477"/>
<polygon fill="midnightblue" stroke="midnightblue" points="569.452,-31.0019 578.234,-25.0752 567.673,-24.2317 569.452,-31.0019"/>
</g>
</g>
</svg>
