<?xml version="1.0" encoding="UTF-8" standalone="no"?>
<!DOCTYPE svg PUBLIC "-//W3C//DTD SVG 1.1//EN"
 "http://www.w3.org/Graphics/SVG/1.1/DTD/svg11.dtd">
<!-- Generated by graphviz version 2.36.0 (20140111.2315)
 -->
<!-- Title: src/tbb_real.h Pages: 1 -->
<svg width="662pt" height="96pt"
 viewBox="0.00 0.00 662.00 96.00" xmlns="http://www.w3.org/2000/svg" xmlns:xlink="http://www.w3.org/1999/xlink">
<g id="graph0" class="graph" transform="scale(1 1) rotate(0) translate(4 92)">
<title>src/tbb_real.h</title>
<polygon fill="white" stroke="none" points="-4,4 -4,-92 658,-92 658,4 -4,4"/>
<!-- Node1 -->
<g id="node1" class="node"><title>Node1</title>
<polygon fill="#bfbfbf" stroke="black" points="304,-68.5 304,-87.5 378,-87.5 378,-68.5 304,-68.5"/>
<text text-anchor="middle" x="341" y="-75.5" font-family="FreeSans" font-size="10.00">src/tbb_real.h</text>
</g>
<!-- Node2 -->
<g id="node2" class="node"><title>Node2</title>
<polygon fill="white" stroke="#bfbfbf" points="0,-6.5 0,-25.5 104,-25.5 104,-6.5 0,-6.5"/>
<text text-anchor="middle" x="52" y="-13.5" font-family="FreeSans" font-size="10.00">tbb/blocked_range.h</text>
</g>
<!-- Node1&#45;&gt;Node2 -->
<g id="edge1" class="edge"><title>Node1&#45;&gt;Node2</title>
<path fill="none" stroke="midnightblue" d="M303.768,-70.1989C258.536,-61.8105 179.967,-46.8338 113,-32 107.27,-30.7308 101.254,-29.3324 95.3248,-27.9152"/>
<polygon fill="midnightblue" stroke="midnightblue" points="96.0378,-24.4867 85.4947,-25.5318 94.3884,-31.2896 96.0378,-24.4867"/>
</g>
<!-- Node3 -->
<g id="node3" class="node"><title>Node3</title>
<polygon fill="white" stroke="#bfbfbf" points="122,-6.5 122,-25.5 210,-25.5 210,-6.5 122,-6.5"/>
<text text-anchor="middle" x="166" y="-13.5" font-family="FreeSans" font-size="10.00">tbb/parallel_for.h</text>
</g>
<!-- Node1&#45;&gt;Node3 -->
<g id="edge2" class="edge"><title>Node1&#45;&gt;Node3</title>
<path fill="none" stroke="midnightblue" d="M315.927,-68.4035C285.648,-58.0222 234.56,-40.5062 200.559,-28.849"/>
<polygon fill="midnightblue" stroke="midnightblue" points="201.621,-25.5131 191.027,-25.5806 199.351,-32.1347 201.621,-25.5131"/>
</g>
<!-- Node4 -->
<g id="node4" class="node"><title>Node4</title>
<polygon fill="white" stroke="#bfbfbf" points="228,-1 228,-31 344,-31 344,-1 228,-1"/>
<text text-anchor="start" x="236" y="-19" font-family="FreeSans" font-size="10.00">tbb/enumerable_thread</text>
<text text-anchor="middle" x="286" y="-8" font-family="FreeSans" font-size="10.00">_specific.h</text>
</g>
<!-- Node1&#45;&gt;Node4 -->
<g id="edge3" class="edge"><title>Node1&#45;&gt;Node4</title>
<path fill="none" stroke="midnightblue" d="M333.12,-68.4035C326.019,-60.657 315.276,-48.9379 305.841,-38.6447"/>
<polygon fill="midnightblue" stroke="midnightblue" points="308.3,-36.1473 298.962,-31.1408 303.14,-40.8774 308.3,-36.1473"/>
</g>
<!-- Node5 -->
<g id="node5" class="node"><title>Node5</title>
<polygon fill="white" stroke="#bfbfbf" points="362.5,-6.5 362.5,-25.5 429.5,-25.5 429.5,-6.5 362.5,-6.5"/>
<text text-anchor="middle" x="396" y="-13.5" font-family="FreeSans" font-size="10.00">tbb/mutex.h</text>
</g>
<!-- Node1&#45;&gt;Node5 -->
<g id="edge4" class="edge"><title>Node1&#45;&gt;Node5</title>
<path fill="none" stroke="midnightblue" d="M348.88,-68.4035C357.294,-59.2252 370.819,-44.4699 381.226,-33.1173"/>
<polygon fill="midnightblue" stroke="midnightblue" points="383.957,-35.3172 388.134,-25.5806 378.797,-30.5871 383.957,-35.3172"/>
</g>
<!-- Node6 -->
<g id="node6" class="node"><title>Node6</title>
<polygon fill="white" stroke="#bfbfbf" points="448,-1 448,-31 546,-31 546,-1 448,-1"/>
<text text-anchor="start" x="456" y="-19" font-family="FreeSans" font-size="10.00">tbb/task_scheduler</text>
<text text-anchor="middle" x="497" y="-8" font-family="FreeSans" font-size="10.00">_init.h</text>
</g>
<!-- Node1&#45;&gt;Node6 -->
<g id="edge5" class="edge"><title>Node1&#45;&gt;Node6</title>
<path fill="none" stroke="midnightblue" d="M363.351,-68.4035C386.134,-59.6406 422.135,-45.7942 451.035,-34.6789"/>
<polygon fill="midnightblue" stroke="midnightblue" points="452.457,-37.8819 460.534,-31.0253 449.944,-31.3485 452.457,-37.8819"/>
</g>
<!-- Node7 -->
<g id="node7" class="node"><title>Node7</title>
<polygon fill="white" stroke="#bfbfbf" points="564,-6.5 564,-25.5 654,-25.5 654,-6.5 564,-6.5"/>
<text text-anchor="middle" x="609" y="-13.5" font-family="FreeSans" font-size="10.00">tbb/combinable.h</text>
</g>
<!-- Node1&#45;&gt;Node7 -->
<g id="edge6" class="edge"><title>Node1&#45;&gt;Node7</title>
<path fill="none" stroke="midnightblue" d="M378.087,-69.8435C420.7,-61.4637 492.649,-46.8335 554,-32 558.798,-30.8399 563.814,-29.5625 568.781,-28.2575"/>
<polygon fill="midnightblue" stroke="midnightblue" points="570.068,-31.5364 578.822,-25.5689 568.257,-24.7746 570.068,-31.5364"/>
</g>
</g>
</svg>
