<?xml version="1.0" encoding="UTF-8" standalone="no"?>
<!DOCTYPE svg PUBLIC "-//W3C//DTD SVG 1.1//EN"
 "http://www.w3.org/Graphics/SVG/1.1/DTD/svg11.dtd">
<!-- Generated by graphviz version 8.1.0 (20230707.2238)
 -->
<!-- Title: src/tbb_real.h Pages: 1 -->
<svg width="636pt" height="98pt"
 viewBox="0.00 0.00 635.50 98.25" xmlns="http://www.w3.org/2000/svg" xmlns:xlink="http://www.w3.org/1999/xlink">
<g id="graph0" class="graph" transform="scale(1 1) rotate(0) translate(4 94.25)">
<title>src/tbb_real.h</title>
<!-- Node1 -->
<g id="Node000001" class="node">
<title>Node1</title>
<g id="a_Node000001"><a xlink:title=" ">
<polygon fill="#999999" stroke="#666666" points="354.12,-90.25 272.12,-90.25 272.12,-69.5 354.12,-69.5 354.12,-90.25"/>
<text text-anchor="middle" x="313.12" y="-76.75" font-family="FreeSans" font-size="10.00">src/tbb_real.h</text>
</a>
</g>
</g>
<!-- Node2 -->
<g id="Node000002" class="node">
<title>Node2</title>
<g id="a_Node000002"><a xlink:title=" ">
<polygon fill="#e0e0e0" stroke="#999999" points="114.25,-27.12 0,-27.12 0,-6.38 114.25,-6.38 114.25,-27.12"/>
<text text-anchor="middle" x="57.12" y="-13.62" font-family="FreeSans" font-size="10.00">tbb/blocked_range.h</text>
</a>
</g>
</g>
<!-- Node1&#45;&gt;Node2 -->
<g id="edge1_Node000001_Node000002" class="edge">
<title>Node1&#45;&gt;Node2</title>
<g id="a_edge1_Node000001_Node000002"><a xlink:title=" ">
<path fill="none" stroke="#63b8ff" d="M271.99,-69.05C227.58,-58.45 156.75,-41.54 108.65,-30.05"/>
<polygon fill="#63b8ff" stroke="#63b8ff" points="109.69,-26.46 99.15,-27.55 108.07,-33.27 109.69,-26.46"/>
</a>
</g>
</g>
<!-- Node3 -->
<g id="Node000003" class="node">
<title>Node3</title>
<g id="a_Node000003"><a xlink:title=" ">
<polygon fill="#e0e0e0" stroke="#999999" points="230.38,-27.12 131.88,-27.12 131.88,-6.38 230.38,-6.38 230.38,-27.12"/>
<text text-anchor="middle" x="181.12" y="-13.62" font-family="FreeSans" font-size="10.00">tbb/parallel_for.h</text>
</a>
</g>
</g>
<!-- Node1&#45;&gt;Node3 -->
<g id="edge2_Node000001_Node000003" class="edge">
<title>Node1&#45;&gt;Node3</title>
<g id="a_edge2_Node000001_Node000003"><a xlink:title=" ">
<path fill="none" stroke="#63b8ff" d="M291.92,-69.05C270.36,-59.07 236.74,-43.5 212.19,-32.13"/>
<polygon fill="#63b8ff" stroke="#63b8ff" points="213.83,-28.57 203.28,-27.55 210.88,-34.92 213.83,-28.57"/>
</a>
</g>
</g>
<!-- Node4 -->
<g id="Node000004" class="node">
<title>Node4</title>
<g id="a_Node000004"><a xlink:title=" ">
<polygon fill="#e0e0e0" stroke="#999999" points="378.12,-33.5 248.12,-33.5 248.12,0 378.12,0 378.12,-33.5"/>
<text text-anchor="start" x="256.12" y="-20" font-family="FreeSans" font-size="10.00">tbb/enumerable_thread</text>
<text text-anchor="middle" x="313.12" y="-7.25" font-family="FreeSans" font-size="10.00">_specific.h</text>
</a>
</g>
</g>
<!-- Node1&#45;&gt;Node4 -->
<g id="edge3_Node000001_Node000004" class="edge">
<title>Node1&#45;&gt;Node4</title>
<g id="a_edge3_Node000001_Node000004"><a xlink:title=" ">
<path fill="none" stroke="#63b8ff" d="M313.12,-69.05C313.12,-62.48 313.12,-53.49 313.12,-44.87"/>
<polygon fill="#63b8ff" stroke="#63b8ff" points="316.63,-44.98 313.12,-34.98 309.63,-44.98 316.63,-44.98"/>
</a>
</g>
</g>
<!-- Node5 -->
<g id="Node000005" class="node">
<title>Node5</title>
<g id="a_Node000005"><a xlink:title=" ">
<polygon fill="#e0e0e0" stroke="#999999" points="508.5,-27.12 395.75,-27.12 395.75,-6.38 508.5,-6.38 508.5,-27.12"/>
<text text-anchor="middle" x="452.12" y="-13.62" font-family="FreeSans" font-size="10.00">tbb/global_control.h</text>
</a>
</g>
</g>
<!-- Node1&#45;&gt;Node5 -->
<g id="edge4_Node000001_Node000005" class="edge">
<title>Node1&#45;&gt;Node5</title>
<g id="a_edge4_Node000001_Node000005"><a xlink:title=" ">
<path fill="none" stroke="#63b8ff" d="M335.46,-69.05C358.36,-58.98 394.19,-43.23 420.11,-31.83"/>
<polygon fill="#63b8ff" stroke="#63b8ff" points="421.1,-34.78 428.85,-27.55 418.28,-28.37 421.1,-34.78"/>
</a>
</g>
</g>
<!-- Node6 -->
<g id="Node000006" class="node">
<title>Node6</title>
<g id="a_Node000006"><a xlink:title=" ">
<polygon fill="#e0e0e0" stroke="#999999" points="627.5,-27.12 526.75,-27.12 526.75,-6.38 627.5,-6.38 627.5,-27.12"/>
<text text-anchor="middle" x="577.12" y="-13.62" font-family="FreeSans" font-size="10.00">tbb/combinable.h</text>
</a>
</g>
</g>
<!-- Node1&#45;&gt;Node6 -->
<g id="edge5_Node000001_Node000006" class="edge">
<title>Node1&#45;&gt;Node6</title>
<g id="a_edge5_Node000001_Node000006"><a xlink:title=" ">
<path fill="none" stroke="#63b8ff" d="M354.26,-70.2C395.53,-61.39 460.88,-47.13 517.12,-33.5 521.42,-32.46 525.89,-31.35 530.35,-30.21"/>
<polygon fill="#63b8ff" stroke="#63b8ff" points="530.88,-33.43 539.69,-27.55 529.14,-26.65 530.88,-33.43"/>
</a>
</g>
</g>
</g>
</svg>
