<?xml version="1.0" encoding="UTF-8" standalone="no"?>
<!DOCTYPE svg PUBLIC "-//W3C//DTD SVG 1.1//EN"
 "http://www.w3.org/Graphics/SVG/1.1/DTD/svg11.dtd">
<!-- Generated by graphviz version 8.1.0 (20230707.2238)
 -->
<!-- Title: src/tbb_tools.h Pages: 1 -->
<svg width="670pt" height="256pt"
 viewBox="0.00 0.00 670.00 255.75" xmlns="http://www.w3.org/2000/svg" xmlns:xlink="http://www.w3.org/1999/xlink">
<g id="graph0" class="graph" transform="scale(1 1) rotate(0) translate(4 251.75)">
<title>src/tbb_tools.h</title>
<!-- Node1 -->
<g id="Node000001" class="node">
<title>Node1</title>
<g id="a_Node000001"><a xlink:title=" ">
<polygon fill="#999999" stroke="#666666" points="131.38,-247.75 44.12,-247.75 44.12,-227 131.38,-227 131.38,-247.75"/>
<text text-anchor="middle" x="87.75" y="-234.25" font-family="FreeSans" font-size="10.00">src/tbb_tools.h</text>
</a>
</g>
</g>
<!-- Node2 -->
<g id="Node000002" class="node">
<title>Node2</title>
<g id="a_Node000002"><a xlink:href="convectionSystem_8cpp.html" target="_top" xlink:title=" ">
<polygon fill="white" stroke="#666666" points="143.5,-77.5 0,-77.5 0,-56.75 143.5,-56.75 143.5,-77.5"/>
<text text-anchor="middle" x="71.75" y="-64" font-family="FreeSans" font-size="10.00">src/convectionSystem.cpp</text>
</a>
</g>
</g>
<!-- Node1&#45;&gt;Node2 -->
<g id="edge1_Node000001_Node000002" class="edge">
<title>Node1&#45;&gt;Node2</title>
<g id="a_edge1_Node000001_Node000002"><a xlink:title=" ">
<path fill="none" stroke="#63b8ff" d="M80.29,-216.52C77.7,-208.69 75.11,-199.53 73.75,-191 67.11,-149.28 69.55,-98.59 70.99,-77.76"/>
<polygon fill="#63b8ff" stroke="#63b8ff" points="77.3,-217.57 83.94,-225.83 83.9,-215.23 77.3,-217.57"/>
</a>
</g>
</g>
<!-- Node3 -->
<g id="Node000003" class="node">
<title>Node3</title>
<g id="a_Node000003"><a xlink:href="flameSolver_8h.html" target="_top" xlink:title=" ">
<polygon fill="white" stroke="#666666" points="282.75,-77.5 182.75,-77.5 182.75,-56.75 282.75,-56.75 282.75,-77.5"/>
<text text-anchor="middle" x="232.75" y="-64" font-family="FreeSans" font-size="10.00">src/flameSolver.h</text>
</a>
</g>
</g>
<!-- Node1&#45;&gt;Node3 -->
<g id="edge2_Node000001_Node000003" class="edge">
<title>Node1&#45;&gt;Node3</title>
<g id="a_edge2_Node000001_Node000003"><a xlink:title=" ">
<path fill="none" stroke="#63b8ff" d="M85.04,-216.09C82.67,-189.46 82.7,-142.68 106.75,-113.5 125.31,-90.98 155.95,-79.64 182.37,-73.92"/>
<polygon fill="#63b8ff" stroke="#63b8ff" points="81.65,-216.22 86.23,-225.77 88.61,-215.45 81.65,-216.22"/>
</a>
</g>
</g>
<!-- Node5 -->
<g id="Node000005" class="node">
<title>Node5</title>
<g id="a_Node000005"><a xlink:href="perfTimer_8h.html" target="_top" xlink:title=" ">
<polygon fill="white" stroke="#666666" points="359.5,-191 270,-191 270,-170.25 359.5,-170.25 359.5,-191"/>
<text text-anchor="middle" x="314.75" y="-177.5" font-family="FreeSans" font-size="10.00">src/perfTimer.h</text>
</a>
</g>
</g>
<!-- Node1&#45;&gt;Node5 -->
<g id="edge4_Node000001_Node000005" class="edge">
<title>Node1&#45;&gt;Node5</title>
<g id="a_edge4_Node000001_Node000005"><a xlink:title=" ">
<path fill="none" stroke="#63b8ff" d="M139.13,-223.98C179.89,-214.15 236.1,-200.59 273.85,-191.49"/>
<polygon fill="#63b8ff" stroke="#63b8ff" points="138.5,-220.78 129.6,-226.52 140.14,-227.58 138.5,-220.78"/>
</a>
</g>
</g>
<!-- Node4 -->
<g id="Node000004" class="node">
<title>Node4</title>
<g id="a_Node000004"><a xlink:href="flameSolver_8cpp.html" target="_top" xlink:title=" ">
<polygon fill="white" stroke="#666666" points="288.38,-20.75 177.12,-20.75 177.12,0 288.38,0 288.38,-20.75"/>
<text text-anchor="middle" x="232.75" y="-7.25" font-family="FreeSans" font-size="10.00">src/flameSolver.cpp</text>
</a>
</g>
</g>
<!-- Node3&#45;&gt;Node4 -->
<g id="edge3_Node000003_Node000004" class="edge">
<title>Node3&#45;&gt;Node4</title>
<g id="a_edge3_Node000003_Node000004"><a xlink:title=" ">
<path fill="none" stroke="#63b8ff" d="M232.75,-45.46C232.75,-37.09 232.75,-27.83 232.75,-21.08"/>
<polygon fill="#63b8ff" stroke="#63b8ff" points="229.25,-45.34 232.75,-55.34 236.25,-45.34 229.25,-45.34"/>
</a>
</g>
</g>
<!-- Node5&#45;&gt;Node3 -->
<g id="edge8_Node000005_Node000003" class="edge">
<title>Node5&#45;&gt;Node3</title>
<g id="a_edge8_Node000005_Node000003"><a xlink:title=" ">
<path fill="none" stroke="#63b8ff" d="M301.29,-161.33C283.75,-137.47 253.68,-96.58 239.96,-77.93"/>
<polygon fill="#63b8ff" stroke="#63b8ff" points="299.01,-163.14 307.76,-169.12 304.65,-158.99 299.01,-163.14"/>
</a>
</g>
</g>
<!-- Node6 -->
<g id="Node000006" class="node">
<title>Node6</title>
<g id="a_Node000006"><a xlink:href="convectionSystem_8h.html" target="_top" xlink:title=" ">
<polygon fill="white" stroke="#666666" points="247.88,-134.25 115.62,-134.25 115.62,-113.5 247.88,-113.5 247.88,-134.25"/>
<text text-anchor="middle" x="181.75" y="-120.75" font-family="FreeSans" font-size="10.00">src/convectionSystem.h</text>
</a>
</g>
</g>
<!-- Node5&#45;&gt;Node6 -->
<g id="edge5_Node000005_Node000006" class="edge">
<title>Node5&#45;&gt;Node6</title>
<g id="a_edge5_Node000005_Node000006"><a xlink:title=" ">
<path fill="none" stroke="#63b8ff" d="M281.01,-165.74C257.36,-156 226.34,-143.23 205.32,-134.58"/>
<polygon fill="#63b8ff" stroke="#63b8ff" points="279.39,-169.27 289.97,-169.84 282.06,-162.79 279.39,-169.27"/>
</a>
</g>
</g>
<!-- Node7 -->
<g id="Node000007" class="node">
<title>Node7</title>
<g id="a_Node000007"><a xlink:href="perfTimer_8cpp.html" target="_top" xlink:title=" ">
<polygon fill="white" stroke="#666666" points="404.12,-134.25 303.38,-134.25 303.38,-113.5 404.12,-113.5 404.12,-134.25"/>
<text text-anchor="middle" x="353.75" y="-120.75" font-family="FreeSans" font-size="10.00">src/perfTimer.cpp</text>
</a>
</g>
</g>
<!-- Node5&#45;&gt;Node7 -->
<g id="edge9_Node000005_Node000007" class="edge">
<title>Node5&#45;&gt;Node7</title>
<g id="a_edge9_Node000005_Node000007"><a xlink:title=" ">
<path fill="none" stroke="#63b8ff" d="M328.05,-160.96C334.36,-152.09 341.64,-141.87 346.84,-134.58"/>
<polygon fill="#63b8ff" stroke="#63b8ff" points="324.67,-158.66 321.72,-168.84 330.37,-162.72 324.67,-158.66"/>
</a>
</g>
</g>
<!-- Node8 -->
<g id="Node000008" class="node">
<title>Node8</title>
<g id="a_Node000008"><a xlink:href="sourceSystem_8cpp.html" target="_top" xlink:title=" ">
<polygon fill="white" stroke="#666666" points="545,-134.25 422.5,-134.25 422.5,-113.5 545,-113.5 545,-134.25"/>
<text text-anchor="middle" x="483.75" y="-120.75" font-family="FreeSans" font-size="10.00">src/sourceSystem.cpp</text>
</a>
</g>
</g>
<!-- Node5&#45;&gt;Node8 -->
<g id="edge10_Node000005_Node000008" class="edge">
<title>Node5&#45;&gt;Node8</title>
<g id="a_edge10_Node000005_Node000008"><a xlink:title=" ">
<path fill="none" stroke="#63b8ff" d="M355.18,-166.53C385.4,-156.74 426.07,-143.56 453.51,-134.67"/>
<polygon fill="#63b8ff" stroke="#63b8ff" points="354.4,-163.43 345.96,-169.84 356.56,-170.08 354.4,-163.43"/>
</a>
</g>
</g>
<!-- Node9 -->
<g id="Node000009" class="node">
<title>Node9</title>
<g id="a_Node000009"><a xlink:href="splitSolver_8h.html" target="_top" xlink:title=" ">
<polygon fill="white" stroke="#666666" points="656.38,-134.25 563.12,-134.25 563.12,-113.5 656.38,-113.5 656.38,-134.25"/>
<text text-anchor="middle" x="609.75" y="-120.75" font-family="FreeSans" font-size="10.00">src/splitSolver.h</text>
</a>
</g>
</g>
<!-- Node5&#45;&gt;Node9 -->
<g id="edge11_Node000005_Node000009" class="edge">
<title>Node5&#45;&gt;Node9</title>
<g id="a_edge11_Node000005_Node000009"><a xlink:title=" ">
<path fill="none" stroke="#63b8ff" d="M370.58,-169.26C426.13,-158.95 510.42,-143.31 562.68,-133.61"/>
<polygon fill="#63b8ff" stroke="#63b8ff" points="370.07,-165.98 360.88,-171.25 371.35,-172.87 370.07,-165.98"/>
</a>
</g>
</g>
<!-- Node6&#45;&gt;Node2 -->
<g id="edge6_Node000006_Node000002" class="edge">
<title>Node6&#45;&gt;Node2</title>
<g id="a_edge6_Node000006_Node000002"><a xlink:title=" ">
<path fill="none" stroke="#63b8ff" d="M152.26,-108.2C132.91,-98.57 108.17,-86.25 91.25,-77.83"/>
<polygon fill="#63b8ff" stroke="#63b8ff" points="150.57,-111.76 161.08,-113.09 153.69,-105.5 150.57,-111.76"/>
</a>
</g>
</g>
<!-- Node6&#45;&gt;Node3 -->
<g id="edge7_Node000006_Node000003" class="edge">
<title>Node6&#45;&gt;Node3</title>
<g id="a_edge7_Node000006_Node000003"><a xlink:title=" ">
<path fill="none" stroke="#63b8ff" d="M198.35,-105.05C206.78,-96 216.7,-85.36 223.71,-77.83"/>
<polygon fill="#63b8ff" stroke="#63b8ff" points="196.12,-102.38 191.87,-112.09 201.24,-107.16 196.12,-102.38"/>
</a>
</g>
</g>
<!-- Node9&#45;&gt;Node3 -->
<g id="edge12_Node000009_Node000003" class="edge">
<title>Node9&#45;&gt;Node3</title>
<g id="a_edge12_Node000009_Node000003"><a xlink:title=" ">
<path fill="none" stroke="#63b8ff" d="M551.97,-113.26C450.63,-97.71 344.22,-83.08 283.13,-74.84"/>
<polygon fill="#63b8ff" stroke="#63b8ff" points="551.29,-116.85 561.71,-114.91 552.36,-109.93 551.29,-116.85"/>
</a>
</g>
</g>
<!-- Node10 -->
<g id="Node000010" class="node">
<title>Node10</title>
<g id="a_Node000010"><a xlink:href="splitSolver_8cpp.html" target="_top" xlink:title=" ">
<polygon fill="white" stroke="#666666" points="662,-77.5 557.5,-77.5 557.5,-56.75 662,-56.75 662,-77.5"/>
<text text-anchor="middle" x="609.75" y="-64" font-family="FreeSans" font-size="10.00">src/splitSolver.cpp</text>
</a>
</g>
</g>
<!-- Node9&#45;&gt;Node10 -->
<g id="edge13_Node000009_Node000010" class="edge">
<title>Node9&#45;&gt;Node10</title>
<g id="a_edge13_Node000009_Node000010"><a xlink:title=" ">
<path fill="none" stroke="#63b8ff" d="M609.75,-102.21C609.75,-93.84 609.75,-84.58 609.75,-77.83"/>
<polygon fill="#63b8ff" stroke="#63b8ff" points="606.25,-102.09 609.75,-112.09 613.25,-102.09 606.25,-102.09"/>
</a>
</g>
</g>
</g>
</svg>
