<?xml version="1.0" encoding="UTF-8" standalone="no"?>
<!DOCTYPE svg PUBLIC "-//W3C//DTD SVG 1.1//EN"
 "http://www.w3.org/Graphics/SVG/1.1/DTD/svg11.dtd">
<!-- Generated by graphviz version 2.36.0 (20140111.2315)
 -->
<!-- Title: src/tbb_tools.h Pages: 1 -->
<svg width="621pt" height="196pt"
 viewBox="0.00 0.00 621.00 196.00" xmlns="http://www.w3.org/2000/svg" xmlns:xlink="http://www.w3.org/1999/xlink">
<g id="graph0" class="graph" transform="scale(1 1) rotate(0) translate(4 192)">
<title>src/tbb_tools.h</title>
<polygon fill="white" stroke="none" points="-4,4 -4,-192 617,-192 617,4 -4,4"/>
<!-- Node1 -->
<g id="node1" class="node"><title>Node1</title>
<polygon fill="#bfbfbf" stroke="black" points="41.5,-168.5 41.5,-187.5 120.5,-187.5 120.5,-168.5 41.5,-168.5"/>
<text text-anchor="middle" x="81" y="-175.5" font-family="FreeSans" font-size="10.00">src/tbb_tools.h</text>
</g>
<!-- Node2 -->
<g id="node2" class="node"><title>Node2</title>
<g id="a_node2"><a xlink:href="perfTimer_8h.html" target="_top" xlink:title="src/perfTimer.h">
<polygon fill="white" stroke="black" points="253.5,-112.5 253.5,-131.5 334.5,-131.5 334.5,-112.5 253.5,-112.5"/>
<text text-anchor="middle" x="294" y="-119.5" font-family="FreeSans" font-size="10.00">src/perfTimer.h</text>
</a>
</g>
</g>
<!-- Node1&#45;&gt;Node2 -->
<g id="edge1" class="edge"><title>Node1&#45;&gt;Node2</title>
<path fill="none" stroke="midnightblue" d="M124.551,-165.959C164.781,-155.76 223.703,-140.822 260.407,-131.516"/>
<polygon fill="midnightblue" stroke="midnightblue" points="123.584,-162.593 114.75,-168.444 125.304,-169.379 123.584,-162.593"/>
</g>
<!-- Node4 -->
<g id="node4" class="node"><title>Node4</title>
<g id="a_node4"><a xlink:href="convectionSystem_8cpp.html" target="_top" xlink:title="src/convectionSystem.cpp">
<polygon fill="white" stroke="black" points="-0.5,-0.5 -0.5,-19.5 128.5,-19.5 128.5,-0.5 -0.5,-0.5"/>
<text text-anchor="middle" x="64" y="-7.5" font-family="FreeSans" font-size="10.00">src/convectionSystem.cpp</text>
</a>
</g>
</g>
<!-- Node1&#45;&gt;Node4 -->
<g id="edge11" class="edge"><title>Node1&#45;&gt;Node4</title>
<path fill="none" stroke="midnightblue" d="M74.0523,-158.723C71.3164,-150.655 68.4789,-140.981 67,-132 60.1373,-90.3243 62.2018,-39.4996 63.4056,-19.5845"/>
<polygon fill="midnightblue" stroke="midnightblue" points="70.7876,-159.988 77.4677,-168.211 77.3739,-157.617 70.7876,-159.988"/>
</g>
<!-- Node5 -->
<g id="node5" class="node"><title>Node5</title>
<g id="a_node5"><a xlink:href="flameSolver_8h.html" target="_top" xlink:title="src/flameSolver.h">
<polygon fill="white" stroke="red" points="190,-0.5 190,-19.5 280,-19.5 280,-0.5 190,-0.5"/>
<text text-anchor="middle" x="235" y="-7.5" font-family="FreeSans" font-size="10.00">src/flameSolver.h</text>
</a>
</g>
</g>
<!-- Node1&#45;&gt;Node5 -->
<g id="edge12" class="edge"><title>Node1&#45;&gt;Node5</title>
<path fill="none" stroke="midnightblue" d="M78.4306,-158.444C75.9156,-132.409 75.4677,-84.9843 100,-56 122.106,-29.8825 159.807,-18.8535 189.758,-14.2314"/>
<polygon fill="midnightblue" stroke="midnightblue" points="74.9653,-158.945 79.6086,-168.468 81.9174,-158.128 74.9653,-158.945"/>
</g>
<!-- Node3 -->
<g id="node3" class="node"><title>Node3</title>
<g id="a_node3"><a xlink:href="convectionSystem_8h.html" target="_top" xlink:title="src/convectionSystem.h">
<polygon fill="white" stroke="black" points="109.5,-56.5 109.5,-75.5 228.5,-75.5 228.5,-56.5 109.5,-56.5"/>
<text text-anchor="middle" x="169" y="-63.5" font-family="FreeSans" font-size="10.00">src/convectionSystem.h</text>
</a>
</g>
</g>
<!-- Node2&#45;&gt;Node3 -->
<g id="edge2" class="edge"><title>Node2&#45;&gt;Node3</title>
<path fill="none" stroke="midnightblue" d="M264.759,-108.368C241.35,-98.2553 209.159,-84.3486 188.714,-75.5164"/>
<polygon fill="midnightblue" stroke="midnightblue" points="263.625,-111.691 274.193,-112.444 266.401,-105.265 263.625,-111.691"/>
</g>
<!-- Node2&#45;&gt;Node5 -->
<g id="edge8" class="edge"><title>Node2&#45;&gt;Node5</title>
<path fill="none" stroke="midnightblue" d="M284.517,-103.32C271.671,-79.3697 249.24,-37.5484 239.608,-19.5914"/>
<polygon fill="midnightblue" stroke="midnightblue" points="281.559,-105.21 289.37,-112.368 287.728,-101.902 281.559,-105.21"/>
</g>
<!-- Node6 -->
<g id="node6" class="node"><title>Node6</title>
<g id="a_node6"><a xlink:href="splitSolver_8h.html" target="_top" xlink:title="src/splitSolver.h">
<polygon fill="white" stroke="black" points="524,-56.5 524,-75.5 608,-75.5 608,-56.5 524,-56.5"/>
<text text-anchor="middle" x="566" y="-63.5" font-family="FreeSans" font-size="10.00">src/splitSolver.h</text>
</a>
</g>
</g>
<!-- Node2&#45;&gt;Node6 -->
<g id="edge5" class="edge"><title>Node2&#45;&gt;Node6</title>
<path fill="none" stroke="midnightblue" d="M344.653,-110.944C396.233,-100.704 475.299,-85.0067 523.655,-75.4067"/>
<polygon fill="midnightblue" stroke="midnightblue" points="343.848,-107.535 334.721,-112.916 345.211,-114.401 343.848,-107.535"/>
</g>
<!-- Node8 -->
<g id="node8" class="node"><title>Node8</title>
<g id="a_node8"><a xlink:href="perfTimer_8cpp.html" target="_top" xlink:title="src/perfTimer.cpp">
<polygon fill="white" stroke="black" points="285,-56.5 285,-75.5 377,-75.5 377,-56.5 285,-56.5"/>
<text text-anchor="middle" x="331" y="-63.5" font-family="FreeSans" font-size="10.00">src/perfTimer.cpp</text>
</a>
</g>
</g>
<!-- Node2&#45;&gt;Node8 -->
<g id="edge9" class="edge"><title>Node2&#45;&gt;Node8</title>
<path fill="none" stroke="midnightblue" d="M305.946,-103.566C312.312,-94.2747 319.867,-83.2484 325.004,-75.7511"/>
<polygon fill="midnightblue" stroke="midnightblue" points="302.875,-101.855 300.11,-112.083 308.649,-105.812 302.875,-101.855"/>
</g>
<!-- Node9 -->
<g id="node9" class="node"><title>Node9</title>
<g id="a_node9"><a xlink:href="sourceSystem_8cpp.html" target="_top" xlink:title="src/sourceSystem.cpp">
<polygon fill="white" stroke="black" points="395.5,-56.5 395.5,-75.5 506.5,-75.5 506.5,-56.5 395.5,-56.5"/>
<text text-anchor="middle" x="451" y="-63.5" font-family="FreeSans" font-size="10.00">src/sourceSystem.cpp</text>
</a>
</g>
</g>
<!-- Node2&#45;&gt;Node9 -->
<g id="edge10" class="edge"><title>Node2&#45;&gt;Node9</title>
<path fill="none" stroke="midnightblue" d="M328.389,-109.172C357.952,-99.0039 399.873,-84.5852 426.239,-75.5164"/>
<polygon fill="midnightblue" stroke="midnightblue" points="327.195,-105.881 318.877,-112.444 329.472,-112.501 327.195,-105.881"/>
</g>
<!-- Node3&#45;&gt;Node4 -->
<g id="edge3" class="edge"><title>Node3&#45;&gt;Node4</title>
<path fill="none" stroke="midnightblue" d="M143.19,-51.7261C123.747,-41.7271 97.6516,-28.3065 80.8282,-19.6545"/>
<polygon fill="midnightblue" stroke="midnightblue" points="141.636,-54.8629 152.13,-56.324 144.838,-48.6379 141.636,-54.8629"/>
</g>
<!-- Node3&#45;&gt;Node5 -->
<g id="edge4" class="edge"><title>Node3&#45;&gt;Node5</title>
<path fill="none" stroke="midnightblue" d="M187.554,-49.8197C199.378,-40.1452 214.286,-27.9481 224.203,-19.8339"/>
<polygon fill="midnightblue" stroke="midnightblue" points="185.127,-47.2827 179.604,-56.324 189.56,-52.7004 185.127,-47.2827"/>
</g>
<!-- Node6&#45;&gt;Node5 -->
<g id="edge6" class="edge"><title>Node6&#45;&gt;Node5</title>
<path fill="none" stroke="midnightblue" d="M514.02,-55.855C425.287,-40.9462 333.505,-26.404 280.135,-18.036"/>
<polygon fill="midnightblue" stroke="midnightblue" points="513.542,-59.3236 523.984,-57.5329 514.704,-52.4208 513.542,-59.3236"/>
</g>
<!-- Node7 -->
<g id="node7" class="node"><title>Node7</title>
<g id="a_node7"><a xlink:href="splitSolver_8cpp.html" target="_top" xlink:title="src/splitSolver.cpp">
<polygon fill="white" stroke="black" points="518.5,-0.5 518.5,-19.5 613.5,-19.5 613.5,-0.5 518.5,-0.5"/>
<text text-anchor="middle" x="566" y="-7.5" font-family="FreeSans" font-size="10.00">src/splitSolver.cpp</text>
</a>
</g>
</g>
<!-- Node6&#45;&gt;Node7 -->
<g id="edge7" class="edge"><title>Node6&#45;&gt;Node7</title>
<path fill="none" stroke="midnightblue" d="M566,-45.8045C566,-36.9102 566,-26.7798 566,-19.7511"/>
<polygon fill="midnightblue" stroke="midnightblue" points="562.5,-46.083 566,-56.083 569.5,-46.083 562.5,-46.083"/>
</g>
</g>
</svg>
