<?xml version="1.0" encoding="UTF-8" standalone="no"?>
<!DOCTYPE svg PUBLIC "-//W3C//DTD SVG 1.1//EN"
 "http://www.w3.org/Graphics/SVG/1.1/DTD/svg11.dtd">
<!-- Generated by graphviz version 2.38.0 (20140413.2041)
 -->
<!-- Title: src/tbb_real.h Pages: 1 -->
<svg width="562pt" height="252pt"
 viewBox="0.00 0.00 562.04 252.00" xmlns="http://www.w3.org/2000/svg" xmlns:xlink="http://www.w3.org/1999/xlink">
<g id="graph0" class="graph" transform="scale(1 1) rotate(0) translate(4 248)">
<title>src/tbb_real.h</title>
<polygon fill="white" stroke="none" points="-4,4 -4,-248 558.041,-248 558.041,4 -4,4"/>
<!-- Node1 -->
<g id="node1" class="node"><title>Node1</title>
<polygon fill="#bfbfbf" stroke="black" points="267.541,-224.5 267.541,-243.5 341.541,-243.5 341.541,-224.5 267.541,-224.5"/>
<text text-anchor="middle" x="304.541" y="-231.5" font-family="FreeSans" font-size="10.00">src/tbb_real.h</text>
</g>
<!-- Node2 -->
<g id="node2" class="node"><title>Node2</title>
<g id="a_node2"><a xlink:href="tbb__tools_8h.html" target="_top" xlink:title="src/tbb_tools.h">
<polygon fill="white" stroke="black" points="265.041,-168.5 265.041,-187.5 344.041,-187.5 344.041,-168.5 265.041,-168.5"/>
<text text-anchor="middle" x="304.541" y="-175.5" font-family="FreeSans" font-size="10.00">src/tbb_tools.h</text>
</a>
</g>
</g>
<!-- Node1&#45;&gt;Node2 -->
<g id="edge1" class="edge"><title>Node1&#45;&gt;Node2</title>
<path fill="none" stroke="midnightblue" d="M304.541,-213.805C304.541,-204.91 304.541,-194.78 304.541,-187.751"/>
<polygon fill="midnightblue" stroke="midnightblue" points="301.041,-214.083 304.541,-224.083 308.041,-214.083 301.041,-214.083"/>
</g>
<!-- Node3 -->
<g id="node3" class="node"><title>Node3</title>
<g id="a_node3"><a xlink:href="perfTimer_8h.html" target="_top" xlink:title="src/perfTimer.h">
<polygon fill="white" stroke="black" points="264.041,-112.5 264.041,-131.5 345.041,-131.5 345.041,-112.5 264.041,-112.5"/>
<text text-anchor="middle" x="304.541" y="-119.5" font-family="FreeSans" font-size="10.00">src/perfTimer.h</text>
</a>
</g>
</g>
<!-- Node2&#45;&gt;Node3 -->
<g id="edge2" class="edge"><title>Node2&#45;&gt;Node3</title>
<path fill="none" stroke="midnightblue" d="M304.541,-157.805C304.541,-148.91 304.541,-138.78 304.541,-131.751"/>
<polygon fill="midnightblue" stroke="midnightblue" points="301.041,-158.083 304.541,-168.083 308.041,-158.083 301.041,-158.083"/>
</g>
<!-- Node5 -->
<g id="node5" class="node"><title>Node5</title>
<g id="a_node5"><a xlink:href="convectionSystem_8cpp.html" target="_top" xlink:title="src/convectionSystem.cpp">
<polygon fill="white" stroke="black" points="425.041,-0.5 425.041,-19.5 554.041,-19.5 554.041,-0.5 425.041,-0.5"/>
<text text-anchor="middle" x="489.541" y="-7.5" font-family="FreeSans" font-size="10.00">src/convectionSystem.cpp</text>
</a>
</g>
</g>
<!-- Node2&#45;&gt;Node5 -->
<g id="edge11" class="edge"><title>Node2&#45;&gt;Node5</title>
<path fill="none" stroke="midnightblue" d="M354.243,-170.643C408.382,-160.772 492.469,-136.149 531.541,-76 544.642,-55.8319 518.888,-32.0887 502.21,-19.6303"/>
<polygon fill="midnightblue" stroke="midnightblue" points="353.432,-167.231 344.169,-172.373 354.617,-174.13 353.432,-167.231"/>
</g>
<!-- Node6 -->
<g id="node6" class="node"><title>Node6</title>
<g id="a_node6"><a xlink:href="flameSolver_8h.html" target="_top" xlink:title="src/flameSolver.h">
<polygon fill="white" stroke="red" points="301.541,-0.5 301.541,-19.5 391.541,-19.5 391.541,-0.5 301.541,-0.5"/>
<text text-anchor="middle" x="346.541" y="-7.5" font-family="FreeSans" font-size="10.00">src/flameSolver.h</text>
</a>
</g>
</g>
<!-- Node2&#45;&gt;Node6 -->
<g id="edge12" class="edge"><title>Node2&#45;&gt;Node6</title>
<path fill="none" stroke="midnightblue" d="M254.574,-173.614C154.255,-165.037 -56.262,-137.047 14.5408,-56 51.2301,-14.0023 219.221,-9.67248 301.234,-10.1445"/>
<polygon fill="midnightblue" stroke="midnightblue" points="254.54,-177.123 264.793,-174.453 255.113,-170.146 254.54,-177.123"/>
</g>
<!-- Node4 -->
<g id="node4" class="node"><title>Node4</title>
<g id="a_node4"><a xlink:href="convectionSystem_8h.html" target="_top" xlink:title="src/convectionSystem.h">
<polygon fill="white" stroke="black" points="403.041,-56.5 403.041,-75.5 522.041,-75.5 522.041,-56.5 403.041,-56.5"/>
<text text-anchor="middle" x="462.541" y="-63.5" font-family="FreeSans" font-size="10.00">src/convectionSystem.h</text>
</a>
</g>
</g>
<!-- Node3&#45;&gt;Node4 -->
<g id="edge3" class="edge"><title>Node3&#45;&gt;Node4</title>
<path fill="none" stroke="midnightblue" d="M339.148,-109.172C368.9,-99.0039 411.088,-84.5852 437.622,-75.5164"/>
<polygon fill="midnightblue" stroke="midnightblue" points="337.907,-105.898 329.576,-112.444 340.171,-112.521 337.907,-105.898"/>
</g>
<!-- Node3&#45;&gt;Node6 -->
<g id="edge8" class="edge"><title>Node3&#45;&gt;Node6</title>
<path fill="none" stroke="midnightblue" d="M328.662,-106.473C338.978,-98.8277 349.925,-88.4447 355.541,-76 363.976,-57.3088 356.099,-32.7671 350.68,-19.8428"/>
<polygon fill="midnightblue" stroke="midnightblue" points="326.534,-103.688 320.275,-112.236 330.499,-109.457 326.534,-103.688"/>
</g>
<!-- Node7 -->
<g id="node7" class="node"><title>Node7</title>
<g id="a_node7"><a xlink:href="splitSolver_8h.html" target="_top" xlink:title="src/splitSolver.h">
<polygon fill="white" stroke="red" points="262.541,-56.5 262.541,-75.5 346.541,-75.5 346.541,-56.5 262.541,-56.5"/>
<text text-anchor="middle" x="304.541" y="-63.5" font-family="FreeSans" font-size="10.00">src/splitSolver.h</text>
</a>
</g>
</g>
<!-- Node3&#45;&gt;Node7 -->
<g id="edge6" class="edge"><title>Node3&#45;&gt;Node7</title>
<path fill="none" stroke="midnightblue" d="M304.541,-101.805C304.541,-92.9102 304.541,-82.7798 304.541,-75.7511"/>
<polygon fill="midnightblue" stroke="midnightblue" points="301.041,-102.083 304.541,-112.083 308.041,-102.083 301.041,-102.083"/>
</g>
<!-- Node8 -->
<g id="node8" class="node"><title>Node8</title>
<g id="a_node8"><a xlink:href="perfTimer_8cpp.html" target="_top" xlink:title="src/perfTimer.cpp">
<polygon fill="white" stroke="black" points="23.5408,-56.5 23.5408,-75.5 115.541,-75.5 115.541,-56.5 23.5408,-56.5"/>
<text text-anchor="middle" x="69.5408" y="-63.5" font-family="FreeSans" font-size="10.00">src/perfTimer.cpp</text>
</a>
</g>
</g>
<!-- Node3&#45;&gt;Node8 -->
<g id="edge9" class="edge"><title>Node3&#45;&gt;Node8</title>
<path fill="none" stroke="midnightblue" d="M257.336,-110.153C212.934,-99.95 147.356,-84.8809 106.603,-75.5164"/>
<polygon fill="midnightblue" stroke="midnightblue" points="256.774,-113.615 267.304,-112.444 258.342,-106.793 256.774,-113.615"/>
</g>
<!-- Node9 -->
<g id="node9" class="node"><title>Node9</title>
<g id="a_node9"><a xlink:href="sourceSystem_8cpp.html" target="_top" xlink:title="src/sourceSystem.cpp">
<polygon fill="white" stroke="black" points="134.041,-56.5 134.041,-75.5 245.041,-75.5 245.041,-56.5 134.041,-56.5"/>
<text text-anchor="middle" x="189.541" y="-63.5" font-family="FreeSans" font-size="10.00">src/sourceSystem.cpp</text>
</a>
</g>
</g>
<!-- Node3&#45;&gt;Node9 -->
<g id="edge10" class="edge"><title>Node3&#45;&gt;Node9</title>
<path fill="none" stroke="midnightblue" d="M277.06,-108.096C255.575,-98.0073 226.319,-84.2697 207.678,-75.5164"/>
<polygon fill="midnightblue" stroke="midnightblue" points="275.779,-111.361 286.319,-112.444 278.755,-105.025 275.779,-111.361"/>
</g>
<!-- Node4&#45;&gt;Node5 -->
<g id="edge4" class="edge"><title>Node4&#45;&gt;Node5</title>
<path fill="none" stroke="midnightblue" d="M471.549,-46.9827C476.132,-37.8168 481.495,-27.0922 485.165,-19.7511"/>
<polygon fill="midnightblue" stroke="midnightblue" points="468.341,-45.5734 466.999,-56.083 474.602,-48.704 468.341,-45.5734"/>
</g>
<!-- Node4&#45;&gt;Node6 -->
<g id="edge5" class="edge"><title>Node4&#45;&gt;Node6</title>
<path fill="none" stroke="midnightblue" d="M434.821,-52.096C413.149,-42.0073 383.639,-28.2697 364.835,-19.5164"/>
<polygon fill="midnightblue" stroke="midnightblue" points="433.617,-55.3962 444.16,-56.4435 436.572,-49.0501 433.617,-55.3962"/>
</g>
<!-- Node7&#45;&gt;Node6 -->
<g id="edge7" class="edge"><title>Node7&#45;&gt;Node6</title>
<path fill="none" stroke="midnightblue" d="M317.651,-48.144C324.969,-38.7357 333.782,-27.4046 339.734,-19.7511"/>
<polygon fill="midnightblue" stroke="midnightblue" points="314.853,-46.0406 311.476,-56.083 320.378,-50.3383 314.853,-46.0406"/>
</g>
</g>
</svg>
