<?xml version="1.0" encoding="UTF-8" standalone="no"?>
<!DOCTYPE svg PUBLIC "-//W3C//DTD SVG 1.1//EN"
 "http://www.w3.org/Graphics/SVG/1.1/DTD/svg11.dtd">
<!-- Generated by graphviz version 2.28.0 (20120425.2022)
 -->
<!-- Title: G Pages: 1 -->
<svg width="137pt" height="84pt"
 viewBox="0.00 0.00 137.00 84.00" xmlns="http://www.w3.org/2000/svg" xmlns:xlink="http://www.w3.org/1999/xlink">
<g id="graph1" class="graph" transform="scale(1 1) rotate(0) translate(4 80)">
<title>G</title>
<polygon fill="white" stroke="white" points="-4,5 -4,-80 134,-80 134,5 -4,5"/>
<!-- Node1 -->
<g id="node1" class="node"><title>Node1</title>
<polygon fill="#bfbfbf" stroke="black" points="26,-56.5 26,-75.5 114,-75.5 114,-56.5 26,-56.5"/>
<text text-anchor="middle" x="70" y="-63.5" font-family="FreeSans" font-size="10.00">src/threadUtils.h</text>
</g>
<!-- Node2 -->
<g id="node3" class="node"><title>Node2</title>
<polygon fill="white" stroke="#bfbfbf" points="-0.5,-0.5 -0.5,-19.5 66.5,-19.5 66.5,-0.5 -0.5,-0.5"/>
<text text-anchor="middle" x="33" y="-7.5" font-family="FreeSans" font-size="10.00">tbb/mutex.h</text>
</g>
<!-- Node1&#45;&gt;Node2 -->
<g id="edge2" class="edge"><title>Node1&#45;&gt;Node2</title>
<path fill="none" stroke="midnightblue" d="M63.8902,-56.083C58.7178,-48.5341 51.1539,-37.4948 44.8056,-28.2298"/>
<polygon fill="midnightblue" stroke="midnightblue" points="47.5357,-26.0221 38.9961,-19.7511 41.7612,-29.9787 47.5357,-26.0221"/>
</g>
<!-- Node3 -->
<g id="node5" class="node"><title>Node3</title>
<polygon fill="white" stroke="#bfbfbf" points="85,-0.5 85,-19.5 129,-19.5 129,-0.5 85,-0.5"/>
<text text-anchor="middle" x="107" y="-7.5" font-family="FreeSans" font-size="10.00">vector</text>
</g>
<!-- Node1&#45;&gt;Node3 -->
<g id="edge4" class="edge"><title>Node1&#45;&gt;Node3</title>
<path fill="none" stroke="midnightblue" d="M76.1098,-56.083C81.2822,-48.5341 88.8461,-37.4948 95.1944,-28.2298"/>
<polygon fill="midnightblue" stroke="midnightblue" points="98.2388,-29.9787 101.004,-19.7511 92.4643,-26.0221 98.2388,-29.9787"/>
</g>
</g>
</svg>
