<?xml version="1.0" encoding="UTF-8" standalone="no"?>
<!DOCTYPE svg PUBLIC "-//W3C//DTD SVG 1.1//EN"
 "http://www.w3.org/Graphics/SVG/1.1/DTD/svg11.dtd">
<!-- Generated by graphviz version 2.28.0 (20120425.2022)
 -->
<!-- Title: G Pages: 1 -->
<svg width="247pt" height="140pt"
 viewBox="0.00 0.00 247.00 140.00" xmlns="http://www.w3.org/2000/svg" xmlns:xlink="http://www.w3.org/1999/xlink">
<g id="graph1" class="graph" transform="scale(1 1) rotate(0) translate(4 136)">
<title>G</title>
<polygon fill="white" stroke="white" points="-4,5 -4,-136 244,-136 244,5 -4,5"/>
<!-- Node1 -->
<g id="node1" class="node"><title>Node1</title>
<polygon fill="#bfbfbf" stroke="black" points="72,-112.5 72,-131.5 160,-131.5 160,-112.5 72,-112.5"/>
<text text-anchor="middle" x="116" y="-119.5" font-family="FreeSans" font-size="10.00">src/threadUtils.h</text>
</g>
<!-- Node2 -->
<g id="node3" class="node"><title>Node2</title>
<a xlink:href="flameSolver_8h.html" target="_top" xlink:title="src/flameSolver.h">
<polygon fill="white" stroke="black" points="68.5,-56.5 68.5,-75.5 163.5,-75.5 163.5,-56.5 68.5,-56.5"/>
<text text-anchor="middle" x="116" y="-63.5" font-family="FreeSans" font-size="10.00">src/flameSolver.h</text>
</a>
</g>
<!-- Node1&#45;&gt;Node2 -->
<g id="edge2" class="edge"><title>Node1&#45;&gt;Node2</title>
<path fill="none" stroke="midnightblue" d="M116,-101.805C116,-92.9102 116,-82.7798 116,-75.7511"/>
<polygon fill="midnightblue" stroke="midnightblue" points="112.5,-102.083 116,-112.083 119.5,-102.083 112.5,-102.083"/>
</g>
<!-- Node3 -->
<g id="node5" class="node"><title>Node3</title>
<a xlink:href="flameSolver_8cpp.html" target="_top" xlink:title="src/flameSolver.cpp">
<polygon fill="white" stroke="black" points="-0.5,-0.5 -0.5,-19.5 104.5,-19.5 104.5,-0.5 -0.5,-0.5"/>
<text text-anchor="middle" x="52" y="-7.5" font-family="FreeSans" font-size="10.00">src/flameSolver.cpp</text>
</a>
</g>
<!-- Node2&#45;&gt;Node3 -->
<g id="edge4" class="edge"><title>Node2&#45;&gt;Node3</title>
<path fill="none" stroke="midnightblue" d="M98.0085,-49.8197C86.5424,-40.1452 72.0867,-27.9481 62.4698,-19.8339"/>
<polygon fill="midnightblue" stroke="midnightblue" points="95.8173,-52.5502 105.717,-56.324 100.331,-47.2002 95.8173,-52.5502"/>
</g>
<!-- Node4 -->
<g id="node7" class="node"><title>Node4</title>
<a xlink:href="strainedFlame_8cpp.html" target="_top" xlink:title="src/strainedFlame.cpp">
<polygon fill="white" stroke="black" points="123,-0.5 123,-19.5 239,-19.5 239,-0.5 123,-0.5"/>
<text text-anchor="middle" x="181" y="-7.5" font-family="FreeSans" font-size="10.00">src/strainedFlame.cpp</text>
</a>
</g>
<!-- Node2&#45;&gt;Node4 -->
<g id="edge6" class="edge"><title>Node2&#45;&gt;Node4</title>
<path fill="none" stroke="midnightblue" d="M134.273,-49.8197C145.918,-40.1452 160.599,-27.9481 170.367,-19.8339"/>
<polygon fill="midnightblue" stroke="midnightblue" points="131.899,-47.2416 126.443,-56.324 136.372,-52.6259 131.899,-47.2416"/>
</g>
</g>
</svg>
